<?xml version="1.0" encoding="UTF-8" standalone="no"?>
<!-- Created with Inkscape (http://www.inkscape.org/) -->

<svg
   width="120.0mm"
   height="120.0mm"
   viewBox="0 0 120.0 120.0"
   version="1.1"
   id="svg1"
   xml:space="preserve"
   inkscape:version="1.4.2 (f4327f4, 2025-05-13)"
   sodipodi:docname="Coala.svg"
   xmlns:inkscape="http://www.inkscape.org/namespaces/inkscape"
   xmlns:sodipodi="http://sodipodi.sourceforge.net/DTD/sodipodi-0.dtd"
   xmlns="http://www.w3.org/2000/svg"
   xmlns:svg="http://www.w3.org/2000/svg"><sodipodi:namedview
     id="namedview1"
     pagecolor="#ffffff"
     bordercolor="#666666"
     borderopacity="1.0"
     inkscape:showpageshadow="2"
     inkscape:pageopacity="0.0"
     inkscape:pagecheckerboard="0"
     inkscape:deskcolor="#d1d1d1"
     inkscape:document-units="mm"
     inkscape:zoom="0.52221046"
     inkscape:cx="-247.98431"
     inkscape:cy="-8.6172154"
     inkscape:window-width="1920"
     inkscape:window-height="1009"
     inkscape:window-x="-8"
     inkscape:window-y="-8"
     inkscape:window-maximized="1"
     inkscape:current-layer="g3"
     borderlayer="true"
     showgrid="false"><inkscape:grid
       spacingx="2.54"
       spacingy="2.54"
       empspacing="1"
       type="xygrid"
       units="mm"
       id="grid2"
       visible="false"
       originx="0"
       originy="0" /></sodipodi:namedview><defs
     id="defs1" /><g
     inkscape:label="Ebene 1"
     inkscape:groupmode="layer"
     id="layer1"><path
       style="fill:#000000"
       d="m 71.793288,438.89055 c -2.6996,-0.17698 -5.17268,-0.77335 -6.9706,-1.68094 -1.63154,-0.8236 -3.40978,-2.4052 -4.42124,-3.93233 -1.17062,-1.76743 -1.93651,-3.74301 -2.33504,-6.02311 -0.2348,-1.34332 -0.3216,-4.13541 -0.1773,-5.70272 0.24748,-2.68793 1.16375,-5.9737 2.29469,-8.2288 l 0.32678,-0.65158 8.7e-4,-1.28771 c 0.002,-3.20559 0.54994,-5.99313 1.68813,-8.5905 0.41221,-0.9407 0.77796,-1.61155 1.45729,-2.67295 0.27641,-0.43186 0.46887,-0.81468 0.42771,-0.85072 -0.0412,-0.036 -0.41633,-0.32582 -0.8337,-0.64397 -0.95182,-0.72553 -3.03803,-2.80186 -3.76665,-3.74879 -2.14476,-2.7874 -3.58217,-5.82772 -4.32203,-9.14172 -0.12342,-0.55282 -0.24174,-1.03319 -0.26294,-1.0675 -0.0212,-0.0343 -0.23761,0.0481 -0.4809,0.18312 -0.80383,0.44612 -1.44248,0.60612 -2.55028,0.63892 -0.55649,0.0165 -1.32089,0.0523 -1.69866,0.0797 -0.84336,0.061 -1.38656,-0.0786 -2.09955,-0.53966 -1.52157,-0.98396 -2.82373,-2.72738 -4.42526,-5.92484 -0.59377,-1.18546 -0.70472,-1.35885 -0.76517,-1.19583 -0.1316,0.35486 -0.41067,1.99436 -0.58263,3.42293 -0.0941,0.78175 -0.20929,1.49273 -0.25597,1.57995 -0.1197,0.22367 -0.46198,0.29025 -0.6978,0.13574 -0.28294,-0.1854 -1.37978,-1.41803 -2.01988,-2.26996 -1.6075,-2.13948 -3.00791,-5.08956 -3.72355,-7.84395 -0.55524,-2.13708 -0.67577,-3.07825 -0.67761,-5.29126 l -0.002,-1.98145 -0.88532,1.00451 c -0.48694,0.55248 -0.94879,1.04368 -1.02634,1.09156 -0.0994,0.0614 -0.20874,0.0562 -0.37083,-0.0177 l -0.22987,-0.10471 0.0503,-0.86037 c 0.0602,-1.02999 0.38354,-2.93472 0.72806,-4.28897 0.66158,-2.60054 2.10025,-5.47276 3.48011,-6.94783 0.52288,-0.55897 1.14475,-1.09468 1.20305,-1.03637 0.0179,0.0179 -0.20974,0.40765 -0.5058,0.8662 -0.63136,0.97786 -1.56846,2.78173 -2.05585,3.95738 -0.67937,1.63875 -1.47863,4.45646 -1.65821,5.84584 l -0.0565,0.43706 0.95869,-0.94331 c 1.32642,-1.30515 1.66254,-1.44997 1.50283,-0.6475 -0.16131,0.81052 -0.23855,2.68387 -0.16283,3.94923 0.25118,4.19736 1.6026,8.26533 3.85254,11.59667 0.65138,0.96446 1.34281,1.82341 1.46779,1.82341 0.0407,0 0.0741,-0.51685 0.0741,-1.14854 0,-1.26943 0.15543,-2.51178 0.47107,-3.76531 0.40558,-1.61068 0.63034,-1.99627 1.09558,-1.87951 0.30011,0.0753 0.44151,0.35928 0.50677,1.01764 0.0523,0.52755 0.0926,0.62764 0.38003,0.94263 0.20132,0.22065 0.65457,1.02938 1.2123,2.16312 1.34894,2.74208 2.3564,4.30528 3.22139,4.99837 0.40979,0.32835 1.04462,0.72915 1.0873,0.68647 0.018,-0.018 -0.10016,-0.28295 -0.26257,-0.58879 -0.29026,-0.54664 -0.41558,-1.15618 -0.24982,-1.21507 0.0464,-0.0165 0.34992,0.20007 0.67454,0.48121 1.15392,0.99937 2.26913,1.34822 3.39114,1.06077 0.7225,-0.18509 1.68313,-0.68041 1.75426,-0.90452 0.0313,-0.0987 0.006,-0.56445 -0.0569,-1.03503 -0.14788,-1.1116 -0.15025,-5.40296 -0.004,-6.67348 0.52512,-4.55225 1.63576,-8.1583 3.54477,-11.50927 0.39056,-0.68557 1.02746,-1.64037 1.48635,-2.22825 0.28812,-0.3691 0.18906,0.009 -0.36544,1.39583 -1.10608,2.76581 -1.69413,4.52804 -2.2473,6.73461 -1.83951,7.33758 -1.41767,14.42993 1.19278,20.0543 2.28014,4.91271 6.90909,9.09418 12.5519,11.33854 2.6127,1.03915 5.750034,1.79757 8.827594,2.13397 1.61606,0.17665 5.61663,0.20296 7.19266,0.0473 4.5167,-0.44607 8.26518,-1.48166 11.84654,-3.2728 3.207288,-1.60406 5.863188,-3.65015 8.053858,-6.20466 3.06,-3.56822 4.6591,-7.48869 5.18084,-12.70172 0.11209,-1.11995 0.11279,-4.29007 0.001,-5.42057 -0.54852,-5.55682 -2.52495,-10.87283 -6.29955,-16.94383 -0.41526,-0.66789 -0.80172,-1.30259 -0.85881,-1.41044 -0.19517,-0.36872 0.17977,-0.0666 1.03987,0.83802 1.1069,1.16412 1.7691,1.99891 2.73474,3.44745 2.68198,4.02318 4.4489,9.32851 4.86511,14.60793 0.0369,0.46786 0.0938,0.73777 0.15551,0.73777 0.0535,0 0.33245,-0.13908 0.61981,-0.30908 1.84818,-1.09334 3.20758,-2.97301 3.77888,-5.22515 0.29366,-1.15764 0.27885,-1.31993 -0.18404,-2.0161 -0.41748,-0.62787 -0.99399,-1.80224 -0.92071,-1.87552 0.0244,-0.0244 0.41467,0.31442 0.86719,0.753 0.83305,0.8074 1.90976,1.70223 2.48566,2.06578 0.45735,0.28871 0.75686,0.25961 1.17008,-0.11371 1.51249,-1.36645 2.51298,-3.88592 2.76962,-6.97459 0.0498,-0.59949 0.1051,-1.10452 0.12286,-1.12228 0.0178,-0.0178 0.14185,0.13125 0.27574,0.33113 0.26984,0.40283 0.58554,0.51 0.81788,0.27766 0.18902,-0.18902 0.17185,-0.5576 -0.0649,-1.39343 -0.35967,-1.26985 -0.5015,-2.07645 -0.37848,-2.15249 0.0487,-0.0301 0.49617,0.34693 0.99435,0.83784 0.64942,0.63996 1.04035,0.95419 1.38124,1.11025 0.46188,0.21146 1.07163,0.36322 1.07163,0.26672 0,-0.15604 -0.209,-0.53456 -0.55265,-1.00089 -0.75688,-1.02709 -1.18635,-2.0618 -1.56638,-3.77384 -0.16027,-0.722 -0.42454,-1.56386 -0.71644,-2.28226 -0.70196,-1.72761 -0.84293,-2.1732 -0.72491,-2.29122 0.13996,-0.13996 0.82682,0.47355 2.07769,1.8558 0.55257,0.6106 1.01746,1.09739 1.03311,1.08174 0.0587,-0.0588 -0.3202,-1.02911 -0.7081,-1.81324 -1.06308,-2.149 -2.66895,-4.12819 -5.64583,-6.95831 -0.43341,-0.41205 -0.67336,-0.7012 -0.64443,-0.77659 0.0507,-0.13216 0.10166,-0.1398 0.80798,-0.12105 0.26665,0.007 0.48482,-0.0209 0.48482,-0.0621 0,-0.1 -2.59585,-1.35656 -3.70995,-1.79585 -1.68474,-0.66429 -3.56896,-1.12675 -5.49539,-1.34877 -1.22895,-0.14164 -3.64642,-0.0598 -4.70697,0.1593 -1.95605,0.40413 -4.05986,1.31178 -5.64924,2.43726 -1.70928,1.21038 -3.758888,3.57281 -4.666728,5.37898 -0.57911,1.15214 -0.75772,1.89951 -0.70271,2.94035 0.0247,0.46748 0.0711,0.9543 0.10318,1.08183 0.1037,0.41273 -0.10457,0.25364 -0.49672,-0.37943 -0.40813,-0.65886 -0.6105,-1.21454 -0.67952,-1.86592 -0.0518,-0.48864 -0.18323,-0.65213 -0.75237,-0.93574 -0.57289,-0.28548 -1.25225,-0.29738 -1.44285,-0.0253 -0.14495,0.20695 -0.17455,1.30114 -0.0549,2.02863 0.10098,0.61376 -0.0566,0.46444 -0.58228,-0.55188 -0.60372,-1.1671 -0.70545,-1.29484 -1.5199,-1.90855 -2.71322,-2.04448 -6.44566,-3.33184 -11.96258,-4.12603 -0.88699,-0.12769 -1.60268,-0.20494 -1.59041,-0.17167 0.0123,0.0333 0.61242,0.67995 1.33369,1.43705 2.21515,2.3252 2.72015,3.00559 2.53402,3.41409 -0.16451,0.36108 -0.41857,0.38108 -1.3733,0.10816 -1.40974,-0.40299 -1.74031,-0.43844 -3.96645,-0.42534 -1.8082,0.0106 -2.19812,-0.0109 -2.941264,-0.16231 -1.01466,-0.20678 -1.631,-0.445 -2.49512,-0.96437 -0.35036,-0.21059 -0.65196,-0.38288 -0.67021,-0.38288 -0.056,0 0.31595,0.69502 0.58668,1.09612 0.14085,0.20868 0.47714,0.63113 0.74731,0.93877 0.27017,0.30764 0.49121,0.6017 0.49121,0.65346 0,0.0622 -0.25455,0.0941 -0.75143,0.0941 -2.42702,0 -4.4624,1.09576 -5.82819,3.13763 -0.27665,0.4136 -0.50301,0.78746 -0.50301,0.83079 0,0.0433 -0.0336,0.0788 -0.0746,0.0788 -0.041,0 -0.10084,-0.21817 -0.13292,-0.48482 -0.19628,-1.6316 -1.02249,-3.14129 -2.65881,-4.85835 -1.6959,-1.77958 -3.64065,-3.00957 -6.00494,-3.79794 -1.96043,-0.65371 -3.85883,-0.88898 -5.88723,-0.72961 -4.62463,0.36336 -8.55123,2.2673 -12.93964,6.27418 l -0.42158,0.38494 0.60632,0.004 c 0.70437,0.004 0.8388,0.11181 0.489,0.39073 -0.36532,0.29129 -3.27492,1.80529 -3.46942,1.80529 -0.25294,0 -0.48082,-0.2894 -0.41969,-0.53298 0.15582,-0.62082 3.33947,-3.76166 5.34996,-5.27802 4.72649,-3.56483 10.36138,-4.96265 15.62971,-3.87719 4.23492,0.87253 8.49523,3.97793 10.26377,7.48141 l 0.26775,0.53039 0.38065,-0.42338 c 0.41252,-0.45882 1.29912,-1.08663 1.8948,-1.34172 0.36807,-0.15763 1.17366,-0.37242 1.78052,-0.47473 l 0.31131,-0.0525 -0.33337,-0.5317 c -0.3786,-0.60382 -0.74437,-1.55638 -0.97116,-2.52909 l -0.15471,-0.66356 0.19743,-0.15987 c 0.22865,-0.18515 0.10483,-0.24331 1.50046,0.70486 2.04015,1.38605 3.918764,1.88556 6.322704,1.68115 0.87374,-0.0743 1.96613,-0.0205 2.40372,0.11841 0.0969,0.0308 0.15744,0.0189 0.13982,-0.0275 -0.0171,-0.0449 -0.78753,-0.8651 -1.7121,-1.82259 -0.92457,-0.95748 -1.74958,-1.8448 -1.83334,-1.97183 -0.29208,-0.44292 -0.14883,-0.88209 0.32664,-1.00143 0.44879,-0.11263 3.39959,0.14429 5.47191,0.47643 5.06676,0.81209 8.47861,2.17221 10.62995,4.23758 l 0.69441,0.66667 0.32053,-0.24999 c 0.77198,-0.60209 1.76695,-0.57508 2.57106,0.0698 0.17118,0.13728 0.33206,0.24961 0.35751,0.24961 0.0254,0 0.15396,-0.23715 0.2856,-0.52699 1.06957,-2.35496 3.535398,-5.06824 5.959638,-6.5577 3.3119,-2.03485 7.52295,-2.78137 11.67791,-2.07022 3.43839,0.5885 6.39529,1.83471 10.05361,4.23716 1.15493,0.75845 1.32436,0.97135 1.031,1.29551 -0.1889,0.20874 -0.51121,0.2103 -1.28846,0.006 -0.33308,-0.0874 -0.60559,-0.14165 -0.60559,-0.12045 0,0.0212 0.47798,0.55755 1.06219,1.19188 2.51663,2.73256 3.95606,5.13336 4.59527,7.66438 0.1346,0.53295 0.24473,1.02187 0.24473,1.08648 0,0.16537 -0.30849,0.45474 -0.48483,0.45479 -0.0811,3e-5 -0.51473,-0.38848 -0.96351,-0.86335 -0.44878,-0.47487 -0.84013,-0.83923 -0.86967,-0.80969 -0.0556,0.0556 0.20024,0.96652 0.65683,2.33842 0.20753,0.62356 0.41254,1.00891 0.96445,1.81282 0.88067,1.28275 1.06304,1.66022 1.07039,2.21547 0.005,0.34855 -0.0347,0.47877 -0.19635,0.65101 -0.48889,0.52082 -1.67416,0.51591 -2.63351,-0.0109 -0.0292,-0.0161 -0.0785,0.11474 -0.10953,0.29066 -0.11478,0.65139 -0.31549,1.11803 -0.57468,1.33613 -0.22437,0.18879 -0.32637,0.21623 -0.71454,0.1922 -0.39782,-0.0246 -0.45663,-0.008 -0.4843,0.1406 -0.0173,0.0927 -0.0948,0.58601 -0.1721,1.09613 -0.38887,2.56521 -1.87692,5.33266 -3.32305,6.18015 -0.60034,0.35182 -1.09477,0.31526 -1.81155,-0.13395 -0.31759,-0.19903 -0.58507,-0.3508 -0.59438,-0.33726 -0.009,0.0135 -0.11889,0.42064 -0.24349,0.90468 -0.6739,2.61792 -2.29787,4.67653 -4.5969,5.82724 -0.37737,0.18888 -0.72416,0.4145 -0.77066,0.50138 -0.0465,0.0869 -0.0845,0.47688 -0.0845,0.86666 0,0.87112 -0.20338,3.04311 -0.38075,4.06631 -0.73914,4.26373 -2.16688,7.59973 -4.60094,10.75042 -0.82029,1.06179 -2.77926,3.05737 -3.82944,3.901 -0.46374,0.37254 -0.85541,0.70839 -0.87038,0.74635 -0.015,0.038 0.28528,0.53503 0.6672,1.10459 0.7398,1.10327 1.7249,3.04757 2.21392,4.36963 0.89841,2.42887 1.35932,5.49242 1.16209,7.72417 l -0.098,1.10882 0.49892,1.12624 c 1.27377,2.87535 1.99241,6.00065 2.09084,9.09289 0.16662,5.23434 -1.70903,10.05892 -4.92425,12.66625 -2.10866,1.70998 -5.20314,2.70842 -8.750458,2.82336 -3.1244,0.10123 -5.4261,-0.49702 -6.69904,-1.74119 -0.26363,-0.25767 -0.53672,-0.56098 -0.60688,-0.67402 l -0.12756,-0.20554 -1.25797,0.10397 c -2.12012,0.17522 -4.34952,0.21295 -5.89012,0.0997 l -1.42812,-0.105 -0.16778,0.24053 c -1.21962,1.7485 -4.2938,2.58274 -8.501034,2.30692 z m 4.632274,-1.67228 c 1.5405,-0.33616 2.40058,-0.91158 2.8569,-1.91137 0.33124,-0.72573 0.38291,-1.99509 0.12019,-2.95269 -0.18353,-0.66898 -0.45589,-1.22145 -0.60215,-1.22145 -0.0426,0 -0.0774,0.0691 -0.0774,0.15361 0,0.68564 -0.89565,1.86999 -1.41415,1.86999 -0.17756,0 -0.36549,-0.0871 -0.56384,-0.26122 -0.2684,-0.23566 -0.30213,-0.24597 -0.34462,-0.10539 -0.11706,0.38722 -0.4141,0.87839 -0.60807,1.00548 -0.51656,0.33847 -1.28976,0.17548 -2.099404,-0.44254 l -0.35991,-0.27472 0.009,0.54102 c 0.0105,0.61476 -0.11683,0.88077 -0.54708,1.14311 -0.68626,0.41843 -1.99395,0.035 -2.20068,-0.64527 -0.0978,-0.32191 0.1048,-0.37934 0.82218,-0.23305 0.53994,0.11011 0.67264,0.11372 0.78399,0.0213 0.2344,-0.19454 0.0938,-0.92137 -0.34612,-1.78972 -0.25371,-0.50074 -0.35698,-0.7892 -0.30217,-0.844 0.19231,-0.19232 1.60471,0.36928 2.913514,1.15845 0.27777,0.16749 0.57237,0.30462 0.65467,0.30474 0.25665,3.7e-4 0.33345,-0.39382 0.293,-1.50391 -0.0303,-0.83103 -0.0146,-1.04933 0.078,-1.08486 0.21641,-0.0831 0.77099,0.38777 1.25799,1.06798 0.26692,0.37281 0.51563,0.67784 0.55269,0.67784 0.14637,0 0.33771,-0.54742 0.37797,-1.08137 0.0352,-0.46691 0.0135,-0.6086 -0.12743,-0.83152 -0.22051,-0.34881 -1.12688,-0.78686 -2.24459,-1.08482 -1.551484,-0.41358 -3.656944,-0.27818 -5.301884,0.34098 -0.91839,0.34568 -1.98644,0.88703 -2.67478,1.35574 -0.36621,0.24936 -0.66584,0.41379 -0.66584,0.3654 0,-0.11221 0.41549,-0.70171 0.7759,-1.10087 0.4716,-0.52229 1.22485,-1.0701 2.02175,-1.47033 2.56087,-1.28614 5.030204,-1.36843 7.573354,-0.25238 1.89618,0.83214 3.07393,2.01377 3.65909,3.67113 0.23565,0.66746 0.25498,0.81029 0.26294,1.94301 l 0.009,1.2226 3.53638,-0.005 c 1.94501,-0.003 3.64086,-0.0321 3.76856,-0.0649 l 0.23219,-0.0597 -0.0539,-0.8227 c -0.0705,-1.07558 0.1073,-2.00893 0.55735,-2.92604 0.80659,-1.64369 2.20682,-2.75252 4.36164,-3.45397 0.64941,-0.2114 0.72385,-0.26119 1.2094,-0.80886 0.58342,-0.65807 0.59847,-0.61093 -0.26782,-0.83899 -0.47911,-0.12614 -1.45818,-0.65215 -2.06104,-1.10732 -0.85848,-0.64815 -1.51882,-1.61692 -1.86281,-2.73288 -0.23375,-0.7583 -0.21036,-2.88785 0.0449,-4.08496 0.4148,-1.94563 1.44867,-4.53539 2.777,-6.95616 0.868,-1.58186 1.98878,-3.44223 2.01906,-3.35141 0.0729,0.21875 -0.78244,2.80776 -2.02651,6.13387 -1.32605,3.54528 -1.607,4.66193 -1.60169,6.36594 0.002,0.62605 0.0397,1.23013 0.084,1.34239 0.0688,0.17456 0.0951,0.1132 0.18173,-0.42375 0.1125,-0.69739 0.47023,-1.41927 0.81541,-1.64544 0.27714,-0.18159 0.32452,-0.11917 0.2097,0.27623 -0.0518,0.17825 -0.11463,0.74146 -0.13969,1.25158 -0.0421,0.85711 -0.0306,0.95587 0.15121,1.30157 0.32491,0.61766 0.44412,0.62971 0.90086,0.091 0.21562,-0.2543 0.55311,-0.62904 0.74997,-0.83276 0.53886,-0.55764 0.59083,-0.46193 0.62546,1.15181 0.026,1.21078 0.0455,1.35361 0.22888,1.67361 0.25657,0.44775 0.4598,0.55164 1.01611,0.5194 l 0.4501,-0.0261 0.016,-0.80101 c 0.0226,-1.13395 0.38777,-1.91308 0.75417,-1.60899 0.0803,0.0667 0.12584,0.36402 0.14821,0.9682 0.0468,1.26356 0.18074,1.35917 1.21164,0.86478 2.785958,-1.33607 6.221238,-6.53491 6.986988,-10.57387 0.67757,-3.57389 0.0372,-7.55753 -1.79928,-11.19312 -0.60359,-1.1949 -1.63119,-2.82462 -1.78102,-2.82462 -0.0517,0 -0.48704,0.24678 -0.96753,0.54839 -3.624918,2.27549 -8.230438,3.83347 -13.191958,4.46266 -3.44572,0.43697 -7.81679,0.37079 -11.00337,-0.16659 -4.435654,-0.74803 -8.182954,-2.06666 -11.087694,-3.90162 -0.56795,-0.35878 -0.83075,-0.48147 -0.90321,-0.42165 -0.19997,0.16508 -0.97274,1.4448 -1.45808,2.41459 -1.43889,2.8752 -2.09223,6.50613 -1.76894,9.83095 0.32244,3.31607 2.26796,7.19709 4.9688,9.91203 1.15508,1.16112 2.55752,2.03468 3.79436,2.36347 0.53827,0.14309 0.59473,0.0342 0.59473,-1.14757 0,-0.52065 0.023,-1.00665 0.0512,-1.08001 0.0951,-0.24781 0.35639,-0.14518 0.57277,0.22498 0.22016,0.37662 0.41475,1.50693 0.33182,1.92737 -0.0564,0.28607 0.11732,0.35366 0.71664,0.27878 0.82425,-0.10299 0.96844,-0.43936 0.98156,-2.2898 0.006,-0.82696 0.0429,-1.31894 0.10385,-1.37991 0.135544,-0.13553 0.342184,0.0301 1.000774,0.80191 0.30563,0.35821 0.61085,0.67244 0.67825,0.69831 0.0674,0.0259 0.19477,-0.0183 0.28303,-0.0982 0.41364,-0.37434 0.53873,-1.57638 0.28947,-2.78168 -0.0737,-0.35636 -0.10765,-0.67344 -0.0755,-0.70463 0.0322,-0.0312 0.22605,0.13283 0.43078,0.36448 0.39767,0.44994 0.64425,1.0053 0.74891,1.68674 0.0629,0.40969 0.0669,0.41445 0.13955,0.16864 0.12234,-0.41371 0.0908,-2.13581 -0.0527,-2.87872 -0.21817,-1.12934 -0.67447,-2.44188 -1.94704,-5.60063 -1.4599,-3.62373 -2.398404,-6.31536 -2.398404,-6.87865 0,-0.25047 0.11534,-0.0628 1.225144,1.99375 2.95938,5.48386 3.9602,7.73336 4.46409,10.03372 0.20991,0.95825 0.26012,2.84783 0.0964,3.62563 -0.56091,2.664 -2.97358,4.45213 -6.224214,4.61304 -2.52686,0.12508 -4.56537,-0.76408 -6.8548,-2.98993 -2.04017,-1.9835 -3.86764,-5.02485 -4.7147,-7.84637 -0.10174,-0.3389 -0.22084,-0.62347 -0.26466,-0.63238 -0.0438,-0.009 -0.27386,0.56652 -0.51122,1.27872 -2.03743,6.11351 -1.62051,12.16244 1.12429,16.31212 0.51808,0.78325 2.00917,2.27595 2.76697,2.76996 1.3142,0.85673 2.77944,1.42823 4.59257,1.79126 1.58606,0.31757 2.37428,0.3764 4.63744,0.34614 1.683644,-0.0225 2.210064,-0.0591 2.845844,-0.19785 z m 22.01486,0.0294 c 3.551888,-0.53349 6.009918,-1.90631 7.702898,-4.3021 1.906,-2.69723 2.80497,-6.3637 2.52268,-10.28885 -0.1557,-2.16488 -0.4718,-3.73834 -1.2105,-6.02543 l -0.42177,-1.30584 -0.35459,1.0183 c -0.43924,1.2614 -1.18073,2.8067 -1.97447,4.11492 -2.18376,3.59923 -4.54548,5.48945 -7.345338,5.8789 -0.62039,0.0863 -0.63692,0.0951 -1.06583,0.56537 -0.23962,0.26274 -0.42169,0.50117 -0.4046,0.52984 0.0171,0.0287 0.26419,0.0785 0.54912,0.11075 1.19603,0.13531 3.36429,0.88049 3.36429,1.15622 0,0.0496 -0.0602,0.0671 -0.13376,0.0388 -0.0736,-0.0282 -0.68072,-0.0919 -1.34924,-0.14156 -2.26821,-0.16838 -4.35885,0.1211 -5.79442,0.80234 -0.81892,0.38861 -0.93947,0.55922 -0.87756,1.242 0.0523,0.57671 0.2622,0.88685 0.53546,0.79117 0.0866,-0.0303 0.31906,-0.28188 0.51656,-0.55903 0.4033,-0.56595 0.6974,-0.75677 0.90317,-0.586 0.0996,0.0827 0.12897,0.29411 0.12897,0.92852 0,0.70339 0.0251,0.85341 0.17475,1.04363 0.0961,0.12219 0.2262,0.22217 0.28907,0.22217 0.0629,0 0.55823,-0.22557 1.10081,-0.50126 0.93884,-0.47704 2.15417,-0.86706 2.28723,-0.73401 0.0329,0.0329 -0.0873,0.35274 -0.26716,0.71077 -0.36351,0.72375 -0.48567,1.43465 -0.28754,1.67338 0.0975,0.1175 0.23383,0.12908 0.94393,0.0802 l 0.82996,-0.0572 -0.0271,0.2328 c -0.0189,0.16234 -0.13664,0.30959 -0.38907,0.48654 -0.47158,0.33058 -1.39594,0.41433 -1.85347,0.16793 -0.38458,-0.20711 -0.60917,-0.66973 -0.60917,-1.25479 0,-0.25691 -0.0152,-0.4671 -0.0337,-0.4671 -0.0185,0 -0.22687,0.13 -0.46298,0.28889 -0.55516,0.37359 -1.21591,0.53003 -1.64315,0.38903 -0.42079,-0.13887 -0.75141,-0.4333 -0.92914,-0.82744 l -0.14824,-0.32873 -0.33371,0.16511 c -0.31826,0.15746 -0.35073,0.15861 -0.7011,0.0248 -0.37579,-0.14351 -0.61914,-0.42313 -0.95741,-1.10009 l -0.16713,-0.33446 -0.17991,0.2923 c -0.6636,1.07816 -0.6947,3.19278 -0.0617,4.1955 0.60611,0.96013 2.00365,1.58011 4.01614,1.78164 1.02187,0.10233 3.03602,0.0446 4.11871,-0.11798 z M 75.713302,424.1363 c 0.21776,-0.1381 0.39593,-0.29211 0.39593,-0.34225 0,-0.0501 -0.0363,-0.0687 -0.0806,-0.0413 -0.0443,0.0274 -0.21971,-0.008 -0.38972,-0.0793 -0.49419,-0.20648 -0.54148,-0.18094 -0.54148,0.29243 0,0.50278 0.064,0.52049 0.61587,0.17049 z m 18.47341,-0.19157 c -0.0311,-0.24347 -0.065,-0.45321 -0.0755,-0.4661 -0.0105,-0.0129 -0.12164,0.0156 -0.24702,0.0632 -0.12539,0.0477 -0.36055,0.0867 -0.52257,0.0867 -0.36454,0 -0.32024,0.0834 0.24736,0.46565 0.60429,0.40695 0.66676,0.39133 0.59775,-0.14946 z m -9.8283,-24.08429 c -0.46656,-0.29588 -0.89624,-0.96764 -1.2025,-1.87996 -0.24004,-0.71507 -0.2767,-1.14715 -0.10297,-1.21382 0.0627,-0.0241 0.29844,0.0543 0.52383,0.17414 0.70824,0.37657 1.24995,0.49146 2.09118,0.44349 0.69033,-0.0394 0.82352,-0.0771 1.51469,-0.42903 0.41679,-0.21223 0.7897,-0.36615 0.8287,-0.34205 0.29463,0.18209 -0.54641,1.87705 -1.38408,2.78934 -0.6774,0.73776 -1.5499,0.91384 -2.26885,0.45789 z m 1.44878,-0.71533 c 0.16149,-0.11007 0.41244,-0.36618 0.55768,-0.56914 l 0.26408,-0.36903 h -1.25482 c -0.69015,0 -1.25481,0.011 -1.2548,0.0244 1e-5,0.0134 0.079,0.18419 0.17548,0.37943 0.36076,0.72984 0.93029,0.93105 1.51238,0.5343 z m -1.60295,-2.76167 c -2.84454,-0.42634 -4.97393,-2.80483 -5.74752,-6.41986 -0.14612,-0.68284 -0.1855,-1.15315 -0.18873,-2.25411 -0.004,-1.2578 0.0176,-1.46966 0.22239,-2.20918 0.84389,-3.04783 3.01632,-4.87345 5.79927,-4.87345 1.86524,0 3.18537,0.72775 4.41042,2.43132 2.01384,2.80048 2.74591,6.84326 1.73667,9.59064 -0.26401,0.7187 -1.00978,1.80383 -1.61834,2.35474 -0.57288,0.51861 -1.59343,1.06491 -2.34379,1.25463 -0.66429,0.16796 -1.63002,0.22124 -2.27037,0.12527 z m -2.14404,-13.13217 c 0.23552,-0.14311 0.69083,-0.36075 1.01181,-0.48362 0.76958,-0.29458 1.85798,-0.32087 2.58612,-0.0625 0.66371,0.23554 0.61122,0.0806 -0.0843,-0.24885 -0.52833,-0.25027 -0.63296,-0.2696 -1.45885,-0.2696 -0.85712,0 -0.91297,0.0115 -1.52534,0.31414 -0.66154,0.32696 -1.42138,1.02192 -1.42138,1.30004 0,0.12088 0.0397,0.10858 0.23187,-0.0718 0.12753,-0.1197 0.42457,-0.33473 0.66008,-0.47786 z m -11.992224,4.38213 c -1.13668,-0.3253 -2.06549,-1.2006 -2.72245,-2.56558 -0.57957,-1.20417 -0.71217,-1.79371 -0.71445,-3.17622 -0.002,-1.32468 0.15551,-2.16077 0.58321,-3.0923 0.86727,-1.88889 2.14052,-2.79097 3.82561,-2.71041 0.92255,0.0441 1.60472,0.34272 2.34175,1.02508 1.257384,1.16411 1.964174,2.9425 1.965794,4.94626 0.002,2.87391 -1.353724,5.0455 -3.499734,5.60446 -0.6306,0.16425 -1.12696,0.15553 -1.77973,-0.0313 z m -0.2498,-6.78639 c 0.63201,-0.26407 1.31634,-1.3021 1.31634,-1.9967 0,-0.35165 -0.19822,-0.7894 -0.43144,-0.95274 -0.24317,-0.17033 -0.76388,-0.17773 -1.07793,-0.0153 -0.32498,0.16805 -0.75838,0.67964 -0.95794,1.13079 -0.31894,0.72101 -0.16515,1.54535 0.33937,1.8191 0.29191,0.15839 0.46074,0.16148 0.8116,0.0149 z m 26.620284,3.94658 c -2.26459,-0.60899 -3.74235,-3.17872 -3.60834,-6.27467 0.0536,-1.2385 0.18841,-1.78946 0.69485,-2.83984 1.67082,-3.46539 5.34036,-3.33852 7.211068,0.2493 0.54255,1.04056 0.78096,2.07382 0.78254,3.39156 0.002,1.37529 -0.15344,2.10654 -0.66765,3.1481 -0.929458,1.88263 -2.662658,2.7961 -4.412468,2.32555 z m -0.0326,-7.19465 c 0.90885,-0.65837 1.32158,-1.93117 0.81966,-2.52767 -0.57202,-0.67981 -1.71696,-0.19396 -2.23585,0.94875 -0.18394,0.40508 -0.20616,1.10173 -0.0444,1.3935 0.26837,0.48419 0.9319,0.56843 1.46063,0.18542 z m -30.628844,-0.73438 c 0.0563,-0.75608 0.39648,-1.94161 0.74464,-2.59483 0.3384,-0.63489 0.99542,-1.35753 1.44281,-1.58688 0.74505,-0.38196 2.16712,-0.2566 3.17336,0.27972 0.57603,0.30702 1.32358,0.95714 1.55091,1.34877 l 0.16298,0.28078 -0.28946,-0.19017 c -0.61487,-0.40396 -1.62286,-0.86636 -2.16652,-0.99386 -1.76565,-0.41406 -2.89903,0.42791 -4.21246,3.12939 l -0.45094,0.92748 z m 34.910622,-4.19469 c -1.410768,-2.13655 -2.296278,-2.68702 -3.667398,-2.27984 -0.71912,0.21355 -1.3412,0.61042 -2.0639,1.31672 -0.36976,0.36137 -0.68641,0.65703 -0.70367,0.65703 -0.0173,0 0.0914,-0.21818 0.2415,-0.48483 0.88948,-1.58034 2.08117,-2.45377 3.45653,-2.5334 0.53582,-0.031 0.69676,-0.008 0.99619,0.1452 0.67977,0.3468 1.357028,1.10969 1.855628,2.09026 0.21483,0.42251 0.62751,1.82067 0.58764,1.99095 -0.0154,0.0657 -0.33152,-0.34023 -0.70252,-0.90209 z m -59.268682,-8.36422 c -0.18752,-0.18751 -0.0593,-0.37949 0.43054,-0.6446 0.609,-0.32961 1.32889,-0.51901 1.54107,-0.40546 0.4033,0.21584 0.0746,0.54742 -0.90996,0.91792 -0.80602,0.30331 -0.88114,0.31266 -1.06165,0.13214 z m 7.29011,-0.59185 c 1.12678,-1.15212 3.07477,-2.36941 5.03936,-3.14906 2.00419,-0.79536 4.4145,-1.48126 5.53955,-1.57638 0.52319,-0.0442 0.61655,-0.029 0.82209,0.13431 0.35102,0.27887 0.30124,0.67838 -0.11109,0.89162 -0.13102,0.0678 -1.02756,0.31579 -1.99232,0.55119 -4.19906,1.0246 -6.78995,1.96129 -8.84356,3.19726 -0.38592,0.23225 -0.74964,0.42229 -0.80828,0.42229 -0.0586,0 0.10078,-0.21206 0.35425,-0.47123 z m 13.48575,-2.31516 c -0.0719,-0.13425 -0.0585,-0.24188 0.0603,-0.48482 0.17225,-0.35243 0.42449,-0.44696 0.58971,-0.221 0.15844,0.21669 0.13957,0.32556 -0.10732,0.61896 -0.25438,0.30232 -0.41371,0.32782 -0.54266,0.0869 z m 65.500622,-0.0537 c 0.0609,-0.0244 0.13359,-0.0214 0.16161,0.007 0.028,0.028 -0.0218,0.0479 -0.11067,0.0443 -0.0982,-0.004 -0.1182,-0.024 -0.0509,-0.0509 z m -64.317052,-2.0484 c -0.10981,-0.20518 0.0358,-0.59266 0.37311,-0.99265 0.24734,-0.29334 0.47142,-0.34786 0.6324,-0.15389 0.21173,0.25512 -0.4362,1.31325 -0.80416,1.31325 -0.0617,0 -0.15228,-0.075 -0.20135,-0.16671 z m 40.746592,-2.72115 c -0.42247,-0.53996 0.0868,-1.32534 1.19611,-1.84439 0.92714,-0.43384 1.73238,-0.59663 3.17627,-0.64213 1.43961,-0.0454 2.15282,0.0508 3.36229,0.45345 0.91953,0.3061 0.94313,0.3977 0.0883,0.34284 -1.02276,-0.0657 -2.68907,0.0793 -3.69949,0.3218 -1.00719,0.24173 -1.6699,0.49216 -2.81646,1.06434 -0.83558,0.41698 -1.1597,0.49239 -1.30703,0.30409 z"
       id="path1-5" /><path
       style="fill:none;stroke:#000000;stroke-width:0.3;stroke-dasharray:none;stroke-opacity:1"
       d="m -158.71375,73.791192 c -2.6996,-0.17698 -5.17268,-0.77335 -6.9706,-1.68094 -1.63154,-0.8236 -3.40978,-2.4052 -4.42124,-3.93233 -1.17062,-1.76743 -1.93651,-3.74301 -2.33504,-6.02311 -0.2348,-1.34332 -0.3216,-4.13541 -0.1773,-5.70272 0.24748,-2.68793 1.16375,-5.9737 2.29469,-8.2288 l 0.32678,-0.65158 8.7e-4,-1.28771 c 0.002,-3.20559 0.54994,-5.99313 1.68813,-8.5905 0.41221,-0.9407 0.77796,-1.61155 1.45729,-2.67295 0.27641,-0.43186 0.46887,-0.81468 0.42771,-0.85072 -0.0412,-0.036 -0.41633,-0.32582 -0.8337,-0.64397 -0.95182,-0.72553 -3.03803,-2.80186 -3.76665,-3.74879 -2.14476,-2.7874 -3.58217,-5.82772 -4.32203,-9.14172 -0.12342,-0.55282 -0.24174,-1.03319 -0.26294,-1.0675 -0.0212,-0.0343 -0.23761,0.0481 -0.4809,0.18312 -0.80383,0.44612 -1.44248,0.60612 -2.55028,0.63892 -0.55649,0.0165 -1.32089,0.0523 -1.69866,0.0797 -0.84336,0.061 -1.38656,-0.0786 -2.09955,-0.53966 -1.52157,-0.98396 -2.82373,-2.72738 -4.42526,-5.92484 -0.59377,-1.18546 -0.70472,-1.35885 -0.76517,-1.19583 -0.1316,0.35486 -0.41067,1.99436 -0.58263,3.42293 -0.0941,0.78175 -0.20929,1.49273 -0.25597,1.57995 -0.1197,0.22367 -0.46198,0.29025 -0.6978,0.13574 -0.28294,-0.1854 -1.37978,-1.41803 -2.01988,-2.26996 -1.6075,-2.13948 -3.00791,-5.08956 -3.72355,-7.8439504 -0.55524,-2.13708 -0.67577,-3.07825 -0.67761,-5.29126 l -0.002,-1.98145002 -0.88532,1.00451002 c -0.48694,0.55248 -0.94879,1.04368 -1.02634,1.09156 -0.0994,0.0614 -0.20874,0.0562 -0.37083,-0.0177 l -0.22987,-0.10471 0.0503,-0.86037 c 0.0602,-1.02999002 0.38354,-2.934718 0.72806,-4.288968 0.66158,-2.60054 2.10025,-5.47276 3.48011,-6.94783 0.52288,-0.5589696 1.14475,-1.0946796 1.20305,-1.0363696 0.0179,0.0179 -0.20974,0.40765 -0.5058,0.8661996 -0.63136,0.97786 -1.56846,2.78173 -2.05585,3.95738 -0.67937,1.63875 -1.47863,4.45646 -1.65821,5.84583998 l -0.0565,0.437058 0.95869,-0.943308 c 1.32642,-1.30514998 1.66254,-1.44996998 1.50283,-0.64749998 -0.16131,0.81051998 -0.23855,2.683868 -0.16283,3.949228 0.25118,4.19736 1.6026,8.2653304 3.85254,11.5966704 0.65138,0.96446 1.34281,1.82341 1.46779,1.82341 0.0407,0 0.0741,-0.51685 0.0741,-1.14854 0,-1.26943 0.15543,-2.51178 0.47107,-3.76531 0.40558,-1.6106804 0.63034,-1.9962704 1.09558,-1.8795104 0.30011,0.0753 0.44151,0.35928 0.50677,1.0176404 0.0523,0.52755 0.0926,0.62764 0.38003,0.94263 0.20132,0.22065 0.65457,1.02938 1.2123,2.16312 1.34894,2.74208 2.3564,4.30528 3.22139,4.99837 0.40979,0.32835 1.04462,0.72915 1.0873,0.68647 0.018,-0.018 -0.10016,-0.28295 -0.26257,-0.58879 -0.29026,-0.54664 -0.41558,-1.15618 -0.24982,-1.21507 0.0464,-0.0165 0.34992,0.20007 0.67454,0.48121 1.15392,0.99937 2.26913,1.34822 3.39114,1.06077 0.7225,-0.18509 1.68313,-0.68041 1.75426,-0.90452 0.0313,-0.0987 0.006,-0.56445 -0.0569,-1.03503 -0.14788,-1.1116 -0.15025,-5.40296 -0.004,-6.67348 0.52512,-4.5522504 1.63576,-8.1583004 3.54477,-11.5092684 0.39056,-0.68557 1.02746,-1.64037 1.48635,-2.22825 0.28812,-0.3691 0.18906,0.009 -0.36544,1.39583 -1.10608,2.76580798 -1.69413,4.528038 -2.2473,6.734608 -1.83951,7.3375804 -1.41767,14.4299304 1.19278,20.0543004 2.28014,4.91271 6.90909,9.09418 12.5519,11.33854 2.6127,1.03915 5.75003,1.79757 8.82759,2.13397 1.61606,0.17665 5.61663,0.20296 7.19266,0.0473 4.5167,-0.44607 8.26518,-1.48166 11.84654,-3.2728 3.20729,-1.60406 5.86319,-3.65015 8.05386,-6.20466 3.06,-3.56822 4.6591,-7.48869 5.18084,-12.70172 0.11209,-1.11995 0.11279,-4.29007 10e-4,-5.42057 -0.54852,-5.5568204 -2.52495,-10.87282842 -6.29955,-16.9438284 -0.41526,-0.66789 -0.80172,-1.30259 -0.85881,-1.41044 -0.19517,-0.36872 0.17977,-0.0666 1.03987,0.83802 1.1069,1.16412 1.7691,1.99891 2.73474,3.44745 2.68198,4.02317798 4.4489,9.328508 4.86511,14.6079284 0.0369,0.46786 0.0938,0.73777 0.15551,0.73777 0.0535,0 0.33245,-0.13908 0.61981,-0.30908 1.84818,-1.09334 3.20758,-2.9730104 3.77888,-5.2251504 0.29366,-1.15764 0.27885,-1.31993 -0.18404,-2.0161 -0.41748,-0.62787 -0.99399,-1.80224 -0.92071,-1.87552 0.0244,-0.0244 0.41467,0.31442 0.86719,0.753 0.83305,0.8074 1.90976,1.70223 2.48566,2.06578 0.45735,0.28871 0.75686,0.25961 1.17008,-0.11371 1.51249,-1.36645 2.51298,-3.88592 2.76962,-6.974588 0.0498,-0.59949 0.1051,-1.10452 0.12286,-1.12228 0.0178,-0.0178 0.14185,0.13125 0.27574,0.33113 0.26984,0.40283 0.58554,0.51 0.81788,0.27766 0.18902,-0.18902 0.17185,-0.5576 -0.0649,-1.39343 -0.35967,-1.26985 -0.5015,-2.07645 -0.37848,-2.15249 0.0487,-0.0301 0.49617,0.34693 0.99435,0.83784 0.64942,0.63996 1.04035,0.95419 1.38124,1.11025 0.46188,0.21146 1.07163,0.36322 1.07163,0.26672 0,-0.15604 -0.209,-0.53456 -0.55265,-1.00089 -0.75688,-1.02709 -1.18635,-2.0618 -1.56638,-3.77384 -0.16027,-0.722 -0.42454,-1.56386 -0.71644,-2.2822596 -0.70196,-1.72761 -0.84293,-2.1732 -0.72491,-2.29122 0.13996,-0.13996 0.82682,0.47355 2.07769,1.8558 0.55257,0.6106 1.01746,1.0973896 1.03311,1.0817396 0.0587,-0.0588 -0.3202,-1.0291096 -0.7081,-1.8132396 -1.06308,-2.149 -2.66895,-4.12819 -5.64583,-6.95831 -0.43341,-0.41205 -0.67336,-0.7012 -0.64443,-0.77659 0.0507,-0.13216 0.10166,-0.1398 0.80798,-0.12105 0.26665,0.007 0.48482,-0.0209 0.48482,-0.0621 0,-0.1 -2.59585,-1.35656 -3.70995,-1.79585 -1.68474,-0.66429 -3.56896,-1.12675 -5.49539,-1.34877 -1.22895,-0.14164 -3.64642,-0.0598 -4.70697,0.1593 -1.95605,0.40413 -4.05986,1.31178 -5.64924,2.43726 -1.70928,1.21038 -3.75889,3.57281 -4.66673,5.37898 -0.57911,1.15214 -0.75772,1.89951 -0.70271,2.94035 0.0247,0.46748 0.0711,0.9543 0.10318,1.08183 0.1037,0.41273 -0.10457,0.25364 -0.49672,-0.37943 -0.40813,-0.65886 -0.6105,-1.21454 -0.67952,-1.86592 -0.0518,-0.48864 -0.18323,-0.65213 -0.75237,-0.93574 -0.57289,-0.28548 -1.25225,-0.29738 -1.44285,-0.0253 -0.14495,0.20695 -0.17455,1.30114 -0.0549,2.02863 0.10098,0.61376 -0.0566,0.46444 -0.58228,-0.55188 -0.60372,-1.1671 -0.70545,-1.29484 -1.5199,-1.90855 -2.71322,-2.04448 -6.44566,-3.33184 -11.96258,-4.12603 -0.88699,-0.12769 -1.60268,-0.20494 -1.59041,-0.17167 0.0123,0.0333 0.61242,0.67995 1.33369,1.43705 2.21515,2.3252 2.72015,3.00559 2.53402,3.41409 -0.16451,0.36108 -0.41857,0.38108 -1.3733,0.10816 -1.40974,-0.40299 -1.74031,-0.43844 -3.96645,-0.42534 -1.8082,0.0106 -2.19812,-0.0109 -2.94126,-0.16231 -1.01466,-0.20678 -1.631,-0.445 -2.49512,-0.96437 -0.35036,-0.21059 -0.65196,-0.38288 -0.67021,-0.38288 -0.056,0 0.31595,0.69502 0.58668,1.09612 0.14085,0.20868 0.47714,0.63113 0.74731,0.93877 0.27017,0.30764 0.49121,0.6017 0.49121,0.65346 0,0.0622 -0.25455,0.0941 -0.75143,0.0941 -2.42702,0 -4.4624,1.09576 -5.82819,3.1376296 -0.27665,0.4136 -0.50301,0.78746 -0.50301,0.83079 0,0.0433 -0.0336,0.0788 -0.0746,0.0788 -0.041,0 -0.10084,-0.21817 -0.13292,-0.48482 -0.19628,-1.6315996 -1.02249,-3.1412896 -2.65881,-4.8583496 -1.6959,-1.77958 -3.64065,-3.00957 -6.00494,-3.79794 -1.96043,-0.65371 -3.85883,-0.88898 -5.88723,-0.72961 -4.62463,0.36336 -8.55123,2.2673 -12.93964,6.27418 l -0.42158,0.38494 0.60632,0.004 c 0.70437,0.004 0.8388,0.11181 0.489,0.39073 -0.36532,0.29129 -3.27492,1.8052896 -3.46942,1.8052896 -0.25294,0 -0.48082,-0.2893996 -0.41969,-0.5329796 0.15582,-0.62082 3.33947,-3.76166 5.34996,-5.27802 4.72649,-3.56483 10.36138,-4.96265 15.62971,-3.87719 4.23492,0.87253 8.49523,3.97793 10.26377,7.48141 l 0.26775,0.53039 0.38065,-0.42338 c 0.41252,-0.45882 1.29912,-1.08663 1.8948,-1.34172 0.36807,-0.15763 1.17366,-0.37242 1.78052,-0.47473 l 0.31131,-0.0525 -0.33337,-0.5317 c -0.3786,-0.60382 -0.74437,-1.55638 -0.97116,-2.52909 l -0.15471,-0.66356 0.19743,-0.15987 c 0.22865,-0.18515 0.10483,-0.24331 1.50046,0.70486 2.04015,1.38605 3.91876,1.88556 6.3227,1.68115 0.87374,-0.0743 1.96613,-0.0205 2.40372,0.11841 0.0969,0.0308 0.15744,0.0189 0.13982,-0.0275 -0.0171,-0.0449 -0.78753,-0.8651 -1.7121,-1.82259 -0.92457,-0.95748 -1.74958,-1.8448 -1.83334,-1.97183 -0.29208,-0.44292 -0.14883,-0.88209 0.32664,-1.00143 0.44879,-0.11263 3.39959,0.14429 5.47191,0.47643 5.06676,0.81209 8.47861,2.17221 10.62995,4.23758 l 0.69441,0.66667 0.32053,-0.24999 c 0.77198,-0.60209 1.76695,-0.57508 2.57106,0.0698 0.17118,0.13728 0.33206,0.24961 0.35751,0.24961 0.0254,0 0.15396,-0.23715 0.2856,-0.52699 1.06957,-2.35496 3.5354,-5.06824 5.95964,-6.5577 3.3119,-2.03485 7.52295,-2.78137 11.67791,-2.07022 3.43839,0.5885 6.39529,1.83471 10.05361,4.23716 1.15493,0.75845 1.32436,0.97135 1.031,1.29551 -0.1889,0.20874 -0.51121,0.2103 -1.28846,0.006 -0.33308,-0.0874 -0.60559,-0.14165 -0.60559,-0.12045 0,0.0212 0.47798,0.55755 1.06219,1.19188 2.51663,2.73256 3.95606,5.13336 4.59527,7.6643796 0.1346,0.53295 0.24473,1.02187 0.24473,1.08648 0,0.16537 -0.30849,0.45474 -0.48483,0.45479 -0.0811,3e-5 -0.51473,-0.38848 -0.96351,-0.86335 -0.44878,-0.47487 -0.84013,-0.83923 -0.86967,-0.80969 -0.0556,0.0556 0.20024,0.96652 0.65683,2.33842 0.20753,0.62356 0.41254,1.00891 0.96445,1.81282 0.88067,1.28275 1.06304,1.66022 1.07039,2.21547 0.005,0.34855 -0.0347,0.47877 -0.19635,0.65101 -0.48889,0.52082 -1.67416,0.51591 -2.63351,-0.0109 -0.0292,-0.0161 -0.0785,0.11474 -0.10953,0.29066 -0.11478,0.65139 -0.31549,1.11803 -0.57468,1.33612998 -0.22437,0.18879 -0.32637,0.21623 -0.71454,0.1922 -0.39782,-0.0246 -0.45663,-0.008 -0.4843,0.1406 -0.0173,0.0927 -0.0948,0.58601 -0.1721,1.096128 -0.38887,2.56521002 -1.87692,5.33266002 -3.32305,6.18015002 -0.60034,0.35182 -1.09477,0.31526 -1.81155,-0.13395 -0.31759,-0.19903 -0.58507,-0.3508 -0.59438,-0.33726 -0.009,0.0135 -0.11889,0.42064 -0.24349,0.90468 -0.6739,2.61792 -2.29787,4.6765304 -4.5969,5.8272404 -0.37737,0.18888 -0.72416,0.4145 -0.77066,0.50138 -0.0465,0.0869 -0.0845,0.47688 -0.0845,0.86666 0,0.87112 -0.20338,3.04311 -0.38075,4.06631 -0.73914,4.26373 -2.16688,7.59973 -4.60094,10.75042 -0.82029,1.06179 -2.77926,3.05737 -3.82944,3.901 -0.46374,0.37254 -0.85541,0.70839 -0.87038,0.74635 -0.015,0.038 0.28528,0.53503 0.6672,1.10459 0.7398,1.10327 1.7249,3.04757 2.21392,4.36963 0.89841,2.42887 1.35932,5.49242 1.16209,7.72417 l -0.098,1.10882 0.49892,1.12624 c 1.27377,2.87535 1.99241,6.00065 2.09084,9.09289 0.16662,5.23434 -1.70903,10.05892 -4.92425,12.66625 -2.10866,1.70998 -5.20314,2.70842 -8.75046,2.82336 -3.1244,0.10123 -5.4261,-0.49702 -6.69904,-1.74119 -0.26363,-0.25767 -0.53672,-0.56098 -0.60688,-0.67402 l -0.12756,-0.20554 -1.25797,0.10397 c -2.12012,0.17522 -4.34952,0.21295 -5.89012,0.0997 l -1.42812,-0.105 -0.16778,0.24053 c -1.21962,1.7485 -4.2938,2.58274 -8.50103,2.30692 z m 4.63227,-1.67228 c 1.5405,-0.33616 2.40058,-0.91158 2.8569,-1.91137 0.33124,-0.72573 0.38291,-1.99509 0.12019,-2.95269 -0.18353,-0.66898 -0.45589,-1.22145 -0.60215,-1.22145 -0.0426,0 -0.0774,0.0691 -0.0774,0.15361 0,0.68564 -0.89565,1.86999 -1.41415,1.86999 -0.17756,0 -0.36549,-0.0871 -0.56384,-0.26122 -0.2684,-0.23566 -0.30213,-0.24597 -0.34462,-0.10539 -0.11706,0.38722 -0.4141,0.87839 -0.60807,1.00548 -0.51656,0.33847 -1.28976,0.17548 -2.0994,-0.44254 l -0.35991,-0.27472 0.009,0.54102 c 0.0105,0.61476 -0.11683,0.88077 -0.54708,1.14311 -0.68626,0.41843 -1.99395,0.035 -2.20068,-0.64527 -0.0978,-0.32191 0.1048,-0.37934 0.82218,-0.23305 0.53994,0.11011 0.67264,0.11372 0.78399,0.0213 0.2344,-0.19454 0.0938,-0.92137 -0.34612,-1.78972 -0.25371,-0.50074 -0.35698,-0.7892 -0.30217,-0.844 0.19231,-0.19232 1.60471,0.36928 2.91351,1.15845 0.27777,0.16749 0.57237,0.30462 0.65467,0.30474 0.25665,3.7e-4 0.33345,-0.39382 0.293,-1.50391 -0.0303,-0.83103 -0.0146,-1.04933 0.078,-1.08486 0.21641,-0.0831 0.77099,0.38777 1.25799,1.06798 0.26692,0.37281 0.51563,0.67784 0.55269,0.67784 0.14637,0 0.33771,-0.54742 0.37797,-1.08137 0.0352,-0.46691 0.0135,-0.6086 -0.12743,-0.83152 -0.22051,-0.34881 -1.12688,-0.78686 -2.24459,-1.08482 -1.55148,-0.41358 -3.65694,-0.27818 -5.30188,0.34098 -0.91839,0.34568 -1.98644,0.88703 -2.67478,1.35574 -0.36621,0.24936 -0.66584,0.41379 -0.66584,0.3654 0,-0.11221 0.41549,-0.70171 0.7759,-1.10087 0.4716,-0.52229 1.22485,-1.0701 2.02175,-1.47033 2.56087,-1.28614 5.0302,-1.36843 7.57335,-0.25238 1.89618,0.83214 3.07393,2.01377 3.65909,3.67113 0.23565,0.66746 0.25498,0.81029 0.26294,1.94301 l 0.009,1.2226 3.53638,-0.005 c 1.94501,-0.003 3.64086,-0.0321 3.76856,-0.0649 l 0.23219,-0.0597 -0.0539,-0.8227 c -0.0705,-1.07558 0.1073,-2.00893 0.55735,-2.92604 0.80659,-1.64369 2.20682,-2.75252 4.36164,-3.45397 0.64941,-0.2114 0.72385,-0.26119 1.2094,-0.80886 0.58342,-0.65807 0.59847,-0.61093 -0.26782,-0.83899 -0.47911,-0.12614 -1.45818,-0.65215 -2.06104,-1.10732 -0.85848,-0.64815 -1.51882,-1.61692 -1.86281,-2.73288 -0.23375,-0.7583 -0.21036,-2.88785 0.0449,-4.08496 0.4148,-1.94563 1.44867,-4.53539 2.777,-6.95616 0.868,-1.58186 1.98878,-3.44223 2.01906,-3.35141 0.0729,0.21875 -0.78244,2.80776 -2.02651,6.13387 -1.32605,3.54528 -1.607,4.66193 -1.60169,6.36594 0.002,0.62605 0.0397,1.23013 0.084,1.34239 0.0688,0.17456 0.0951,0.1132 0.18173,-0.42375 0.1125,-0.69739 0.47023,-1.41927 0.81541,-1.64544 0.27714,-0.18159 0.32452,-0.11917 0.2097,0.27623 -0.0518,0.17825 -0.11463,0.74146 -0.13969,1.25158 -0.0421,0.85711 -0.0306,0.95587 0.15121,1.30157 0.32491,0.61766 0.44412,0.62971 0.90086,0.091 0.21562,-0.2543 0.55311,-0.62904 0.74997,-0.83276 0.53886,-0.55764 0.59083,-0.46193 0.62546,1.15181 0.026,1.21078 0.0455,1.35361 0.22888,1.67361 0.25657,0.44775 0.4598,0.55164 1.01611,0.5194 l 0.4501,-0.0261 0.016,-0.80101 c 0.0226,-1.13395 0.38777,-1.91308 0.75417,-1.60899 0.0803,0.0667 0.12584,0.36402 0.14821,0.9682 0.0468,1.26356 0.18074,1.35917 1.21164,0.86478 2.78596,-1.33607 6.22124,-6.53491 6.98699,-10.57387 0.67757,-3.57389 0.0372,-7.55753 -1.79928,-11.19312 -0.60359,-1.1949 -1.63119,-2.82462 -1.78102,-2.82462 -0.0517,0 -0.48704,0.24678 -0.96753,0.54839 -3.62492,2.27549 -8.23044,3.83347 -13.19196,4.46266 -3.44572,0.43697 -7.81679,0.37079 -11.00337,-0.16659 -4.43565,-0.74803 -8.18295,-2.06666 -11.08769,-3.90162 -0.56795,-0.35878 -0.83075,-0.48147 -0.90321,-0.42165 -0.19997,0.16508 -0.97274,1.4448 -1.45808,2.41459 -1.43889,2.8752 -2.09223,6.50613 -1.76894,9.83095 0.32244,3.31607 2.26796,7.19709 4.9688,9.91203 1.15508,1.16112 2.55752,2.03468 3.79436,2.36347 0.53827,0.14309 0.59473,0.0342 0.59473,-1.14757 0,-0.52065 0.023,-1.00665 0.0512,-1.08001 0.0951,-0.24781 0.35639,-0.14518 0.57277,0.22498 0.22016,0.37662 0.41475,1.50693 0.33182,1.92737 -0.0564,0.28607 0.11732,0.35366 0.71664,0.27878 0.82425,-0.10299 0.96844,-0.43936 0.98156,-2.2898 0.006,-0.82696 0.0429,-1.31894 0.10385,-1.37991 0.13554,-0.13553 0.34218,0.0301 1.00077,0.80191 0.30563,0.35821 0.61085,0.67244 0.67825,0.69831 0.0674,0.0259 0.19477,-0.0183 0.28303,-0.0982 0.41364,-0.37434 0.53873,-1.57638 0.28947,-2.78168 -0.0737,-0.35636 -0.10765,-0.67344 -0.0755,-0.70463 0.0322,-0.0312 0.22605,0.13283 0.43078,0.36448 0.39767,0.44994 0.64425,1.0053 0.74891,1.68674 0.0629,0.40969 0.0669,0.41445 0.13955,0.16864 0.12234,-0.41371 0.0908,-2.13581 -0.0527,-2.87872 -0.21817,-1.12934 -0.67447,-2.44188 -1.94704,-5.60063 -1.4599,-3.62373 -2.3984,-6.31536 -2.3984,-6.87865 0,-0.25047 0.11534,-0.0628 1.22514,1.99375 2.95938,5.48386 3.9602,7.73336 4.46409,10.03372 0.20991,0.95825 0.26012,2.84783 0.0964,3.62563 -0.56091,2.664 -2.97358,4.45213 -6.22421,4.61304 -2.52686,0.12508 -4.56537,-0.76408 -6.8548,-2.98993 -2.04017,-1.9835 -3.86764,-5.02485 -4.7147,-7.84637 -0.10174,-0.3389 -0.22084,-0.62347 -0.26466,-0.63238 -0.0438,-0.009 -0.27386,0.56652 -0.51122,1.27872 -2.03743,6.11351 -1.62051,12.16244 1.12429,16.31212 0.51808,0.78325 2.00917,2.27595 2.76697,2.76996 1.3142,0.85673 2.77944,1.42823 4.59257,1.79126 1.58606,0.31757 2.37428,0.3764 4.63744,0.34614 1.68364,-0.0225 2.21006,-0.0591 2.84584,-0.19785 z m 22.01486,0.0294 c 3.55189,-0.53349 6.00992,-1.90631 7.7029,-4.3021 1.906,-2.69723 2.80497,-6.3637 2.52268,-10.28885 -0.1557,-2.16488 -0.4718,-3.73834 -1.2105,-6.02543 l -0.42177,-1.30584 -0.35459,1.0183 c -0.43924,1.2614 -1.18073,2.8067 -1.97447,4.11492 -2.18376,3.59923 -4.54548,5.48945 -7.34534,5.8789 -0.62039,0.0863 -0.63692,0.0951 -1.06583,0.56537 -0.23962,0.26274 -0.42169,0.50117 -0.4046,0.52984 0.0171,0.0287 0.26419,0.0785 0.54912,0.11075 1.19603,0.13531 3.36429,0.88049 3.36429,1.15622 0,0.0496 -0.0602,0.0671 -0.13376,0.0388 -0.0736,-0.0282 -0.68072,-0.0919 -1.34924,-0.14156 -2.26821,-0.16838 -4.35885,0.1211 -5.79442,0.80234 -0.81892,0.38861 -0.93947,0.55922 -0.87756,1.242 0.0523,0.57671 0.2622,0.88685 0.53546,0.79117 0.0866,-0.0303 0.31906,-0.28188 0.51656,-0.55903 0.4033,-0.56595 0.6974,-0.75677 0.90317,-0.586 0.0996,0.0827 0.12897,0.29411 0.12897,0.92852 0,0.70339 0.0251,0.85341 0.17475,1.04363 0.0961,0.12219 0.2262,0.22217 0.28907,0.22217 0.0629,0 0.55823,-0.22557 1.10081,-0.50126 0.93884,-0.47704 2.15417,-0.86706 2.28723,-0.73401 0.0329,0.0329 -0.0873,0.35274 -0.26716,0.71077 -0.36351,0.72375 -0.48567,1.43465 -0.28754,1.67338 0.0975,0.1175 0.23383,0.12908 0.94393,0.0802 l 0.82996,-0.0572 -0.0271,0.2328 c -0.0189,0.16234 -0.13664,0.30959 -0.38907,0.48654 -0.47158,0.33058 -1.39594,0.41433 -1.85347,0.16793 -0.38458,-0.20711 -0.60917,-0.66973 -0.60917,-1.25479 0,-0.25691 -0.0152,-0.4671 -0.0337,-0.4671 -0.0185,0 -0.22687,0.13 -0.46298,0.28889 -0.55516,0.37359 -1.21591,0.53003 -1.64315,0.38903 -0.42079,-0.13887 -0.75141,-0.4333 -0.92914,-0.82744 l -0.14824,-0.32873 -0.33371,0.16511 c -0.31826,0.15746 -0.35073,0.15861 -0.7011,0.0248 -0.37579,-0.14351 -0.61914,-0.42313 -0.95741,-1.10009 l -0.16713,-0.33446 -0.17991,0.2923 c -0.6636,1.07816 -0.6947,3.19278 -0.0617,4.1955 0.60611,0.96013 2.00365,1.58011 4.01614,1.78164 1.02187,0.10233 3.03602,0.0446 4.11871,-0.11798 z m -22.72712,-13.11137 c 0.21776,-0.1381 0.39593,-0.29211 0.39593,-0.34225 0,-0.0501 -0.0363,-0.0687 -0.0806,-0.0413 -0.0443,0.0274 -0.21971,-0.008 -0.38972,-0.0793 -0.49419,-0.20648 -0.54148,-0.18094 -0.54148,0.29243 0,0.50278 0.064,0.52049 0.61587,0.17049 z m 18.47341,-0.19157 c -0.0311,-0.24347 -0.065,-0.45321 -0.0755,-0.4661 -0.0105,-0.0129 -0.12164,0.0156 -0.24702,0.0632 -0.12539,0.0477 -0.36055,0.0867 -0.52257,0.0867 -0.36454,0 -0.32024,0.0834 0.24736,0.46565 0.60429,0.40695 0.66676,0.39133 0.59775,-0.14946 z m -9.8283,-24.08429 c -0.46656,-0.29588 -0.89624,-0.96764 -1.2025,-1.87996 -0.24004,-0.71507 -0.2767,-1.14715 -0.10297,-1.21382 0.0627,-0.0241 0.29844,0.0543 0.52383,0.17414 0.70824,0.37657 1.24995,0.49146 2.09118,0.44349 0.69033,-0.0394 0.82352,-0.0771 1.51469,-0.42903 0.41679,-0.21223 0.7897,-0.36615 0.8287,-0.34205 0.29463,0.18209 -0.54641,1.87705 -1.38408,2.78934 -0.6774,0.73776 -1.5499,0.91384 -2.26885,0.45789 z m 1.44878,-0.71533 c 0.16149,-0.11007 0.41244,-0.36618 0.55768,-0.56914 l 0.26408,-0.36903 h -1.25482 c -0.69015,0 -1.25481,0.011 -1.2548,0.0244 1e-5,0.0134 0.079,0.18419 0.17548,0.37943 0.36076,0.72984 0.93029,0.93105 1.51238,0.5343 z m -1.60295,-2.76167 c -2.84454,-0.42634 -4.97393,-2.80483 -5.74752,-6.41986 -0.14612,-0.68284 -0.1855,-1.15315 -0.18873,-2.25411 -0.004,-1.2578 0.0176,-1.46966 0.22239,-2.20918 0.84389,-3.04783 3.01632,-4.87345 5.79927,-4.87345 1.86524,0 3.18537,0.72775 4.41042,2.43132 2.01384,2.80048 2.74591,6.84326 1.73667,9.59064 -0.26401,0.7187 -1.00978,1.80383 -1.61834,2.35474 -0.57288,0.51861 -1.59343,1.06491 -2.34379,1.25463 -0.66429,0.16796 -1.63002,0.22124 -2.27037,0.12527 z m -2.14404,-13.13217 c 0.23552,-0.14311 0.69083,-0.36075 1.01181,-0.48362 0.76958,-0.29458 1.85798,-0.32087 2.58612,-0.0625 0.66371,0.23554 0.61122,0.0806 -0.0843,-0.24885 -0.52833,-0.25027 -0.63296,-0.2696 -1.45885,-0.2696 -0.85712,0 -0.91297,0.0115 -1.52534,0.31414 -0.66154,0.32696 -1.42138,1.02192 -1.42138,1.30004 0,0.12088 0.0397,0.10858 0.23187,-0.0718 0.12753,-0.1197 0.42457,-0.33473 0.66008,-0.47786 z m -11.99222,4.38213 c -1.13668,-0.3253 -2.06549,-1.2006 -2.72245,-2.56558 -0.57957,-1.20417 -0.71217,-1.79371 -0.71445,-3.17622 -0.002,-1.32468 0.15551,-2.16077 0.58321,-3.0923 0.86727,-1.88889 2.14052,-2.79097 3.82561,-2.71041 0.92255,0.0441 1.60472,0.34272 2.34175,1.02508 1.25738,1.16411 1.96417,2.9425 1.96579,4.94626 0.002,2.87391 -1.35372,5.0455 -3.49973,5.60446 -0.6306,0.16425 -1.12696,0.15553 -1.77973,-0.0313 z m -0.2498,-6.78639 c 0.63201,-0.26407 1.31634,-1.3021 1.31634,-1.9967 0,-0.35165 -0.19822,-0.7894 -0.43144,-0.95274 -0.24317,-0.17033 -0.76388,-0.17773 -1.07793,-0.0153 -0.32498,0.16805 -0.75838,0.67964 -0.95794,1.13079 -0.31894,0.72101 -0.16515,1.54535 0.33937,1.8191 0.29191,0.15839 0.46074,0.16148 0.8116,0.0149 z m 26.62028,3.94658 c -2.26459,-0.60899 -3.74235,-3.17872 -3.60834,-6.27467 0.0536,-1.2385 0.18841,-1.78946 0.69485,-2.83984 1.67082,-3.4653904 5.34036,-3.3385204 7.21107,0.2493 0.54255,1.04056 0.78096,2.07382 0.78254,3.39156 0.002,1.37529 -0.15344,2.10654 -0.66765,3.1481 -0.92946,1.88263 -2.66266,2.7961 -4.41247,2.32555 z m -0.0326,-7.19465 c 0.90885,-0.65837 1.32158,-1.93117 0.81966,-2.5276704 -0.57202,-0.67981 -1.71696,-0.19396 -2.23585,0.9487504 -0.18394,0.40508 -0.20616,1.10173 -0.0444,1.3935 0.26837,0.48419 0.9319,0.56843 1.46063,0.18542 z m -30.62884,-0.73438 c 0.0563,-0.75608 0.39648,-1.9416104 0.74464,-2.5948304 0.3384,-0.63489 0.99542,-1.35753 1.44281,-1.58688 0.74505,-0.38196 2.16712,-0.2566 3.17336,0.27972 0.57603,0.30702 1.32358,0.95714 1.55091,1.34877 l 0.16298,0.28078 -0.28946,-0.19017 c -0.61487,-0.40396 -1.62286,-0.86636 -2.16652,-0.99386 -1.76565,-0.41406 -2.89903,0.42791 -4.21246,3.1293904 l -0.45094,0.92748 z m 34.91062,-4.1946904 c -1.41077,-2.13655 -2.29628,-2.68702 -3.6674,-2.27984 -0.71912,0.21355 -1.3412,0.61042 -2.0639,1.31672 -0.36976,0.36137 -0.68641,0.65703 -0.70367,0.65703 -0.0173,0 0.0914,-0.21818 0.2415,-0.48483 0.88948,-1.58034 2.08117,-2.45377 3.45653,-2.5334 0.53582,-0.031 0.69676,-0.008 0.99619,0.1452 0.67977,0.3468 1.35703,1.10969 1.85563,2.09026 0.21483,0.42251 0.62751,1.82067 0.58764,1.99095 -0.0154,0.0657 -0.33152,-0.34023 -0.70252,-0.90209 z m -59.26868,-8.36421802 c -0.18752,-0.18751 -0.0593,-0.37948998 0.43054,-0.64459998 0.609,-0.32961 1.32889,-0.51901 1.54107,-0.40546 0.4033,0.21584 0.0746,0.54742 -0.90996,0.91791998 -0.80602,0.30331 -0.88114,0.31266 -1.06165,0.13214 z m 7.29011,-0.59184998 c 1.12678,-1.15212 3.07477,-2.36941 5.03936,-3.14906 2.00419,-0.79536 4.4145,-1.48126 5.53955,-1.57638 0.52319,-0.0442 0.61655,-0.029 0.82209,0.13431 0.35102,0.27887 0.30124,0.67838 -0.11109,0.89162 -0.13102,0.0678 -1.02756,0.31579 -1.99232,0.55119 -4.19906,1.0246 -6.78995,1.96129 -8.84356,3.19726 -0.38592,0.23225 -0.74964,0.42228998 -0.80828,0.42228998 -0.0586,0 0.10078,-0.21205998 0.35425,-0.47122998 z m 13.48575,-2.31516 c -0.0719,-0.13425 -0.0585,-0.24188 0.0603,-0.48482 0.17225,-0.35243 0.42449,-0.44696 0.58971,-0.221 0.15844,0.21669 0.13957,0.32556 -0.10732,0.61896 -0.25438,0.30232 -0.41371,0.32782 -0.54266,0.0869 z m 65.50062,-0.0537 c 0.0609,-0.0244 0.13359,-0.0214 0.16161,0.007 0.028,0.028 -0.0218,0.0479 -0.11067,0.0443 -0.0982,-0.004 -0.1182,-0.024 -0.0509,-0.0509 z m -64.31705,-2.0484 c -0.10981,-0.20518 0.0358,-0.59266 0.37311,-0.99265 0.24734,-0.29334 0.47142,-0.34786 0.6324,-0.15389 0.21173,0.25512 -0.4362,1.31325 -0.80416,1.31325 -0.0617,0 -0.15228,-0.075 -0.20135,-0.16671 z m 40.74659,-2.72115 c -0.42247,-0.53996 0.0868,-1.32534 1.19611,-1.8443896 0.92714,-0.43384 1.73238,-0.59663 3.17627,-0.64213 1.43961,-0.0454 2.15282,0.0508 3.36229,0.45345 0.91953,0.3061 0.94313,0.3977 0.0883,0.34284 -1.02276,-0.0657 -2.68907,0.0793 -3.69949,0.3217996 -1.00719,0.24173 -1.6699,0.49216 -2.81646,1.06434 -0.83558,0.41698 -1.1597,0.49239 -1.30703,0.30409 z"
       id="path1-5-1-1" /><path
       style="fill:none;stroke:#000000;stroke-width:0.05mm"
       d="m -86.525242,391.10925 c -2.6996,-0.17699 -5.17269,-0.77335 -6.9706,-1.68094 -1.63155,-0.8236 -3.40977,-2.4052 -4.42123,-3.93233 -1.17063,-1.76743 -1.93651,-3.74301 -2.335038,-6.02312 -0.2348,-1.34332 -0.32159,-4.1354 -0.17731,-5.70271 0.24748,-2.68793 1.163758,-5.97369 2.294698,-8.22881 l 0.32678,-0.65158 8.7e-4,-1.2877 c 0.002,-3.2056 0.54994,-5.99314 1.68812,-8.5905 0.41222,-0.94071 0.77796,-1.61156 1.45729,-2.67294 0.27642,-0.43186 0.46888,-0.81469 0.42771,-0.85073 -0.0412,-0.036 -0.41634,-0.32582 -0.8337,-0.64396 -0.95181,-0.72553 -3.03802,-2.80187 -3.76664,-3.7488 -2.144758,-2.7874 -3.582168,-5.82772 -4.322038,-9.14172 -0.12341,-0.55282 -0.24175,-1.03319 -0.26294,-1.0675 -0.0212,-0.0343 -0.23761,0.0481 -0.4809,0.18312 -0.80383,0.44612 -1.44247,0.60612 -2.55027,0.63893 -0.55649,0.0165 -1.3209,0.0523 -1.69866,0.0797 -0.84335,0.061 -1.38656,-0.0786 -2.09955,-0.53966 -1.52157,-0.98396 -2.82373,-2.72737 -4.42526,-5.92484 -0.59376,-1.18547 -0.70473,-1.35885 -0.76517,-1.19583 -0.1316,0.35485 -0.41067,1.99436 -0.58262,3.42293 -0.0941,0.78175 -0.20929,1.49273 -0.25597,1.57995 -0.1197,0.22367 -0.46197,0.29025 -0.6978,0.13574 -0.28294,-0.1854 -1.37978,-1.41803 -2.01988,-2.26996 -1.6075,-2.13949 -3.00791,-5.08957 -3.72356,-7.84395 -0.55524,-2.13707 -0.67577,-3.07824 -0.67761,-5.29126 l -0.002,-1.98146 -0.88532,1.00451 c -0.48693,0.55249 -0.94879,1.04368 -1.02633,1.09156 -0.0994,0.0614 -0.20874,0.0562 -0.37084,-0.0177 l -0.22987,-0.1047 0.0503,-0.86038 c 0.0602,-1.02999 0.38354,-2.93471 0.72806,-4.28897 0.66157,-2.60054 2.10025,-5.47276 3.4801,-6.94783 0.52287,-0.55897 1.14474,-1.09468 1.20305,-1.03637 0.0179,0.0179 -0.20975,0.40765 -0.5058,0.86621 -0.63136,0.97786 -1.56847,2.78173 -2.05585,3.95738 -0.67936,1.63875 -1.47862,4.45646 -1.6582,5.84584 l -0.0565,0.43706 0.95869,-0.94331 c 1.32642,-1.30515 1.66254,-1.44997 1.50283,-0.6475 -0.16132,0.81052 -0.23856,2.68386 -0.16283,3.94923 0.25117,4.19735 1.6026,8.26532 3.85254,11.59667 0.65138,0.96447 1.3428,1.82341 1.46779,1.82341 0.0407,0 0.0741,-0.51685 0.0741,-1.14853 0,-1.26944 0.15542,-2.51179 0.47107,-3.76531 0.40558,-1.61069 0.63034,-1.99628 1.09558,-1.87952 0.30011,0.0753 0.44151,0.35929 0.50677,1.01764 0.0523,0.52756 0.0926,0.62765 0.38004,0.94263 0.20132,0.22065 0.65457,1.02937 1.21229,2.16311 1.34894,2.74209 2.3564,4.30529 3.22139,4.99838 0.40979,0.32834 1.04462,0.72915 1.0873,0.68647 0.018,-0.018 -0.10016,-0.28295 -0.26257,-0.58879 -0.29026,-0.54664 -0.41558,-1.15619 -0.24982,-1.21508 0.0464,-0.0165 0.34991,0.20008 0.67454,0.48121 1.15392,0.99937 2.26914,1.34822 3.39115,1.06077 0.7225,-0.18509 1.68313,-0.68041 1.75425,-0.90452 0.0313,-0.0987 0.006,-0.56445 -0.0569,-1.03502 -0.14787,-1.11161 -0.15025,-5.40298 -0.004,-6.67349 0.52511,-4.55224 1.63575,-8.1583 3.54477,-11.50927 0.390558,-0.68557 1.027458,-1.64037 1.486338,-2.22825 0.28812,-0.3691 0.18906,0.009 -0.36543,1.39583 -1.106078,2.76581 -1.694138,4.52804 -2.247298,6.73461 -1.83951,7.33758 -1.41767,14.42994 1.19278,20.05431 2.280128,4.9127 6.909088,9.09417 12.551888,11.33854 2.6127,1.03916 5.75003,1.79758 8.82759,2.13398 1.61606,0.17665 5.61663,0.20295 7.19266,0.0473 4.51669,-0.44608 8.26518,-1.48166 11.84654,-3.2728 3.20729,-1.60406 5.86319,-3.65015 8.05387,-6.20466 3.05999,-3.56823 4.6591,-7.4887 5.18084,-12.70172 0.1121,-1.11996 0.1128,-4.29007 10e-4,-5.42057 -0.54852,-5.55683 -2.52495,-10.87284 -6.29954,-16.94384 -0.41526,-0.66789 -0.80173,-1.30258 -0.85881,-1.41043 -0.19518,-0.36872 0.17976,-0.0666 1.03987,0.83802 1.1069,1.16412 1.7691,1.99891 2.73474,3.44745 2.68197,4.02317 4.4489,9.3285 4.86511,14.60792 0.0369,0.46786 0.0938,0.73777 0.15552,0.73777 0.0535,0 0.33244,-0.13908 0.61981,-0.30909 1.84817,-1.09333 3.20758,-2.973 3.77888,-5.22514 0.29366,-1.15765 0.27886,-1.31993 -0.18403,-2.01609 -0.41748,-0.62788 -0.99399,-1.80225 -0.92072,-1.87553 0.0244,-0.0244 0.41468,0.31442 0.86719,0.75299 0.83305,0.80741 1.90976,1.70224 2.48566,2.0658 0.45735,0.2887 0.75686,0.2596 1.17007,-0.11372 1.5125,-1.36645 2.51299,-3.88592 2.76962,-6.97458 0.0498,-0.59949 0.10511,-1.10453 0.12287,-1.12228 0.0178,-0.0178 0.14184,0.13125 0.27574,0.33113 0.26984,0.40283 0.58554,0.51 0.81789,0.27766 0.18902,-0.18902 0.17184,-0.55761 -0.0649,-1.39344 -0.35966,-1.26985 -0.50149,-2.07644 -0.37848,-2.15248 0.0487,-0.0301 0.49617,0.34693 0.99436,0.83783 0.64941,0.63996 1.04034,0.9542 1.38124,1.11025 0.46188,0.21146 1.07162,0.36322 1.07162,0.26673 0,-0.15604 -0.209,-0.53456 -0.55264,-1.00089 -0.75688,-1.0271 -1.18636,-2.0618 -1.56638,-3.77385 -0.16026,-0.722 -0.42454,-1.56385 -0.71644,-2.28225 -0.70197,-1.72761 -0.84293,-2.17321 -0.72492,-2.29122 0.13996,-0.13997 0.82682,0.47354 2.07768,1.85579 0.55257,0.61061 1.01746,1.09739 1.03312,1.08174 0.0587,-0.0588 -0.32021,-1.0291 -0.7081,-1.81324 -1.06308,-2.149 -2.66895,-4.12819 -5.64583,-6.95831 -0.43341,-0.41205 -0.67336,-0.7012 -0.64443,-0.77659 0.0507,-0.13215 0.10166,-0.1398 0.80799,-0.12105 0.26665,0.007 0.48482,-0.0209 0.48482,-0.0621 0,-0.1 -2.59586,-1.35656 -3.70995,-1.79585 -1.68474,-0.66429 -3.56895,-1.12675 -5.49539,-1.34877 -1.22895,-0.14164 -3.64643,-0.0598 -4.70697,0.1593 -1.95606,0.40413 -4.05986,1.31179 -5.64925,2.43727 -1.70927,1.21038 -3.75889,3.5728 -4.66673,5.37898 -0.57912,1.15214 -0.75772,1.89951 -0.70271,2.94035 0.0247,0.46749 0.0711,0.9543 0.10318,1.08183 0.10369,0.41273 -0.10457,0.25364 -0.49672,-0.37943 -0.40813,-0.65886 -0.61051,-1.21454 -0.67952,-1.86592 -0.0518,-0.48864 -0.18323,-0.65213 -0.75237,-0.93574 -0.57289,-0.28547 -1.25224,-0.29738 -1.44285,-0.0253 -0.14495,0.20695 -0.17455,1.30114 -0.0549,2.02864 0.10099,0.61376 -0.0566,0.46444 -0.58227,-0.55188 -0.60372,-1.1671 -0.70545,-1.29484 -1.5199,-1.90855 -2.71322,-2.04448 -6.44566,-3.33184 -11.96258,-4.12603 -0.887,-0.12769 -1.60268,-0.20494 -1.59041,-0.17167 0.0123,0.0333 0.61242,0.67995 1.33369,1.43705 2.21515,2.3252 2.72016,3.00559 2.53403,3.41409 -0.16451,0.36108 -0.41856,0.38108 -1.37331,0.10817 -1.40974,-0.403 -1.74031,-0.43844 -3.96644,-0.42534 -1.8082,0.0106 -2.19812,-0.0109 -2.94126,-0.16231 -1.01466,-0.20678 -1.63099,-0.445 -2.49511,-0.96437 -0.35036,-0.21059 -0.65197,-0.38288 -0.67022,-0.38288 -0.056,0 0.31595,0.69502 0.58669,1.09612 0.14085,0.20868 0.47714,0.63113 0.74731,0.93877 0.27018,0.30764 0.49122,0.6017 0.49122,0.65345 0,0.0622 -0.25455,0.0941 -0.75144,0.0941 -2.42702,0 -4.4624,1.09576 -5.82819,3.13763 -0.27665,0.4136 -0.503,0.78746 -0.503,0.83079 0,0.0433 -0.0336,0.0788 -0.0746,0.0788 -0.041,0 -0.10085,-0.21817 -0.13292,-0.48482 -0.19627,-1.6316 -1.02249,-3.14129 -2.65881,-4.85835 -1.6959,-1.77958 -3.64066,-3.00957 -6.004948,-3.79795 -1.96043,-0.6537 -3.85882,-0.88897 -5.88724,-0.7296 -4.62463,0.36336 -8.55122,2.2673 -12.93963,6.27418 l -0.42159,0.38494 0.60632,0.004 c 0.70438,0.004 0.83881,0.11181 0.489,0.39073 -0.36532,0.29129 -3.27491,1.80529 -3.46942,1.80529 -0.25294,0 -0.48082,-0.2894 -0.41969,-0.53298 0.15582,-0.62082 3.33946,-3.76166 5.34996,-5.27803 4.72649,-3.56482 10.36137,-4.96264 15.62972,-3.87719 4.234918,0.87253 8.495218,3.97793 10.263758,7.48141 l 0.26774,0.53039 0.38065,-0.42338 c 0.41252,-0.45882 1.29912,-1.08663 1.89481,-1.34172 0.36807,-0.15763 1.17366,-0.37242 1.78051,-0.47473 l 0.31131,-0.0525 -0.33337,-0.5317 c -0.3786,-0.60382 -0.74437,-1.55638 -0.97116,-2.52909 l -0.15471,-0.66356 0.19743,-0.15987 c 0.22866,-0.18515 0.10483,-0.24331 1.50046,0.70486 2.04015,1.38605 3.91876,1.88556 6.32269,1.68115 0.87374,-0.0743 1.96613,-0.0205 2.40372,0.11841 0.0969,0.0308 0.15744,0.0189 0.13982,-0.0275 -0.0171,-0.0449 -0.78754,-0.8651 -1.7121,-1.82259 -0.92458,-0.95748 -1.74957,-1.84481 -1.83334,-1.97184 -0.29209,-0.44291 -0.14884,-0.88208 0.32664,-1.00142 0.44879,-0.11264 3.3996,0.14428 5.47191,0.47643 5.06676,0.81209 8.47861,2.17221 10.62994,4.23758 l 0.69442,0.66667 0.32052,-0.24999 c 0.77198,-0.60209 1.76696,-0.57508 2.57106,0.0698 0.17118,0.13728 0.33206,0.24961 0.35752,0.24961 0.0254,0 0.15396,-0.23715 0.2856,-0.52699 1.06956,-2.35496 3.5354,-5.06824 5.95964,-6.5577 3.3119,-2.03485 7.52294,-2.78138 11.6779,-2.07022 3.43838,0.5885 6.39529,1.8347 10.0536,4.23716 1.15492,0.75845 1.32436,0.97135 1.03101,1.2955 -0.18891,0.20874 -0.51122,0.2103 -1.28847,0.006 -0.33308,-0.0874 -0.60559,-0.14164 -0.60559,-0.12045 0,0.0212 0.47798,0.55755 1.06219,1.19188 2.51664,2.73256 3.95606,5.13336 4.59528,7.66438 0.1346,0.53296 0.24474,1.02188 0.24474,1.08648 0,0.16537 -0.30849,0.45475 -0.48484,0.45479 -0.0811,3e-5 -0.51472,-0.38848 -0.96351,-0.86335 -0.44878,-0.47487 -0.84014,-0.83923 -0.86968,-0.80969 -0.0556,0.0556 0.20024,0.96652 0.65683,2.33842 0.20754,0.62355 0.41254,1.00891 0.96445,1.81282 0.88068,1.28275 1.06303,1.66021 1.07039,2.21547 0.005,0.34854 -0.0347,0.47876 -0.19635,0.651 -0.48889,0.52082 -1.67417,0.51591 -2.63352,-0.0109 -0.0292,-0.0161 -0.0785,0.11474 -0.10952,0.29066 -0.11478,0.65139 -0.31549,1.11803 -0.57468,1.33613 -0.22437,0.18879 -0.32637,0.21623 -0.71454,0.1922 -0.39783,-0.0246 -0.45663,-0.008 -0.4843,0.1406 -0.0173,0.0927 -0.0948,0.58601 -0.1721,1.09613 -0.38887,2.56521 -1.87692,5.33266 -3.32305,6.18016 -0.60034,0.35182 -1.09477,0.31526 -1.81155,-0.13395 -0.3176,-0.19903 -0.58507,-0.3508 -0.59438,-0.33726 -0.009,0.0135 -0.11889,0.42064 -0.24348,0.90468 -0.6739,2.61792 -2.29787,4.67653 -4.59689,5.82724 -0.37737,0.18888 -0.72417,0.41449 -0.77066,0.50138 -0.0465,0.0869 -0.0845,0.47688 -0.0845,0.86666 0,0.87112 -0.20338,3.04311 -0.38075,4.0663 -0.73913,4.26374 -2.16688,7.59974 -4.60094,10.75042 -0.82029,1.06179 -2.77926,3.05738 -3.82943,3.90101 -0.46375,0.37254 -0.85541,0.70838 -0.87038,0.74635 -0.015,0.038 0.28528,0.53503 0.66721,1.10458 0.7398,1.10327 1.7249,3.04758 2.21391,4.36963 0.89841,2.42886 1.35931,5.49242 1.16209,7.72417 l -0.098,1.10882 0.49891,1.12624 c 1.27378,2.87535 1.99242,6.00066 2.09084,9.0929 0.16662,5.23434 -1.70903,10.05891 -4.92426,12.66624 -2.10866,1.70998 -5.20314,2.70842 -8.75046,2.82336 -3.1244,0.10123 -5.4261,-0.49702 -6.69903,-1.74119 -0.26363,-0.25768 -0.53671,-0.56098 -0.60687,-0.67403 l -0.12757,-0.20553 -1.25796,0.10397 c -2.12012,0.17522 -4.34952,0.21295 -5.89012,0.0997 l -1.42812,-0.105 -0.16778,0.24053 c -1.21962,1.7485 -4.2938,2.58273 -8.50103,2.30691 z"
       id="path1" /><path
       d="m -76.212694,70.921298 c -1.13668,-0.3253 -2.06549,-1.2006 -2.72245,-2.56558 -0.57957,-1.20417 -0.71217,-1.79371 -0.71445,-3.17622 -0.002,-1.32468 0.15551,-2.16077 0.58321,-3.0923 0.86727,-1.88889 2.14052,-2.79097 3.82561,-2.71041 0.92255,0.0441 1.60472,0.34272 2.34175,1.02508 1.257384,1.16411 1.964174,2.9425 1.965794,4.94626 0.002,2.87391 -1.353724,5.0455 -3.499734,5.60446 -0.6306,0.16425 -1.12696,0.15553 -1.77973,-0.0313 z m -0.2498,-6.78639 c 0.63201,-0.26407 1.31634,-1.3021 1.31634,-1.9967 0,-0.35165 -0.19822,-0.7894 -0.43144,-0.95274 -0.24317,-0.17033 -0.76388,-0.17773 -1.07793,-0.0153 -0.32498,0.16805 -0.75838,0.67964 -0.95794,1.13079 -0.31894,0.72101 -0.16515,1.54535 0.33937,1.8191 0.29191,0.15839 0.46074,0.16148 0.8116,0.0149 z m -4.04116,-3.98245 c 0.0563,-0.75608 0.39648,-1.94161 0.74464,-2.59483 0.3384,-0.63489 0.99542,-1.35753 1.44281,-1.58688 0.74505,-0.38196 2.16712,-0.2566 3.17336,0.27972 0.57603,0.30702 1.32358,0.95714 1.55091,1.34877 l 0.16298,0.28078 -0.28946,-0.19017 c -0.61487,-0.40396 -1.62286,-0.86636 -2.16652,-0.99386 -1.76565,-0.41406 -2.89903,0.42791 -4.21246,3.12939 l -0.45094,0.92748 z"
       style="fill:#000000;fill-opacity:1;stroke:#000000;stroke-width:0.3;stroke-dasharray:none;stroke-opacity:1"
       id="path1-7-4" /><path
       d="m -48.74144,69.84812 c -2.26459,-0.60899 -3.74235,-3.17872 -3.60834,-6.27467 0.0536,-1.2385 0.18841,-1.78946 0.69485,-2.83984 1.67082,-3.46539 5.34036,-3.33852 7.21107,0.2493 0.54255,1.04056 0.78096,2.07382 0.78254,3.39156 0.002,1.37529 -0.15344,2.10654 -0.66765,3.1481 -0.92946,1.88263 -2.66266,2.7961 -4.41247,2.32555 z m -0.0326,-7.19465 c 0.90885,-0.65837 1.32158,-1.93117 0.81966,-2.52767 -0.57202,-0.67981 -1.71696,-0.19396 -2.23585,0.94875 -0.18394,0.40508 -0.20616,1.10173 -0.0444,1.3935 0.26837,0.48419 0.9319,0.56843 1.46063,0.18542 z m 4.28178,-4.92907 c -1.41077,-2.13655 -2.29628,-2.68702 -3.6674,-2.27984 -0.71912,0.21355 -1.3412,0.61042 -2.0639,1.31672 -0.36976,0.36137 -0.68641,0.65703 -0.70367,0.65703 -0.0173,0 0.0914,-0.21818 0.2415,-0.48483 0.88948,-1.58034 2.08117,-2.45377 3.45653,-2.5334 0.53582,-0.031 0.69676,-0.008 0.99619,0.1452 0.67977,0.3468 1.35703,1.10969 1.85563,2.09026 0.21483,0.42251 0.62751,1.82067 0.58764,1.99095 -0.0154,0.0657 -0.33152,-0.34023 -0.70252,-0.90209 z"
       style="fill:#000000;fill-opacity:1;stroke:#000000;stroke-width:0.3;stroke-dasharray:none;stroke-opacity:1"
       id="path1-1-1" /><path
       d="m -61.2551,85.871395 c -0.46656,-0.29588 -0.89624,-0.96764 -1.2025,-1.87996 -0.24004,-0.71507 -0.2767,-1.14715 -0.10297,-1.21382 0.0627,-0.0241 0.29844,0.0543 0.52383,0.17414 0.70824,0.37657 1.24995,0.49146 2.09118,0.44349 0.69033,-0.0394 0.82352,-0.0771 1.51469,-0.42903 0.41679,-0.21223 0.7897,-0.36615 0.8287,-0.34205 0.29463,0.18209 -0.54641,1.87705 -1.38408,2.78934 -0.6774,0.73776 -1.5499,0.91384 -2.26885,0.45789 z m 1.44878,-0.71533 c 0.16149,-0.11007 0.41244,-0.36618 0.55768,-0.56914 l 0.26408,-0.36903 h -1.25482 c -0.69015,0 -1.25481,0.011 -1.2548,0.0244 1e-5,0.0134 0.079,0.18419 0.17548,0.37943 0.36076,0.72984 0.93029,0.93105 1.51238,0.5343 z m -1.60295,-2.76167 c -2.84454,-0.42634 -4.97393,-2.80483 -5.74752,-6.41986 -0.14612,-0.68284 -0.1855,-1.15315 -0.18873,-2.25411 -0.004,-1.2578 0.0176,-1.46966 0.22239,-2.20918 0.84389,-3.04783 3.01632,-4.87345 5.79927,-4.87345 1.86524,0 3.18537,0.72775 4.41042,2.43132 2.01384,2.80048 2.74591,6.84326 1.73667,9.59064 -0.26401,0.7187 -1.00978,1.80383 -1.61834,2.35474 -0.57288,0.51861 -1.59343,1.06491 -2.34379,1.25463 -0.66429,0.16796 -1.63002,0.22124 -2.27037,0.12527 z m -2.14404,-13.13217 c 0.23552,-0.14311 0.69083,-0.36075 1.01181,-0.48362 0.76958,-0.29458 1.85798,-0.32087 2.58612,-0.0625 0.66371,0.23554 0.61122,0.0806 -0.0843,-0.24885 -0.52833,-0.25027 -0.63296,-0.2696 -1.45885,-0.2696 -0.85712,0 -0.91297,0.0115 -1.52534,0.31414 -0.66154,0.32696 -1.42138,1.02192 -1.42138,1.30004 0,0.12088 0.0397,0.10858 0.23187,-0.0718 0.12753,-0.1197 0.42457,-0.33473 0.66008,-0.47786 z"
       style="fill:#000000;fill-opacity:1;stroke:#000000;stroke-width:0.3;stroke-dasharray:none;stroke-opacity:1"
       id="path1-3-1" /></g><g
     inkscape:label="[fixed] BG"
     inkscape:groupmode="layer"
     sodipodi:insensitive="true"
     id="g2"><rect
       x="0"
       y="0"
       width="120.0"
       height="120.0"
       style="fill:#FFFFFF;fill-opacity:1;stroke:none"
       id="rect2" /></g><g
     inkscape:label="Edge.Cuts"
     inkscape:groupmode="layer"
     id="g3"><path
       id="path1-8"
       style="fill:none;stroke:#000000;stroke-width:0.05mm"
       d="m 88.933306,11.697554 c -4.96465,0.157433 -9.819345,2.597701 -12.808845,6.582801 -0.598644,0.743309 -1.127235,1.544966 -1.564202,2.393761 -0.876167,-0.427823 -1.96965,-0.423339 -2.81836,0.07031 -3.225319,-3.059823 -7.747451,-4.077473 -12.010274,-4.701947 -1.785259,-0.222003 -3.627105,-0.58381 -5.411396,-0.263777 -1.147201,0.493959 -1.098678,2.245222 -0.111544,2.884424 0.529077,0.564999 1.056603,1.131457 1.591808,1.690675 -1.64307,0.10328 -3.389722,0.04447 -4.889301,-0.836351 -1.010055,-0.481643 -1.864709,-1.320124 -2.929058,-1.646071 -0.971145,-0.06726 -1.757474,1.077748 -1.264743,1.944654 0.186901,0.794078 0.431002,1.5775 0.778415,2.317065 -0.974745,0.264292 -1.895153,0.737995 -2.664063,1.394531 -3.207978,-5.302174 -9.62738,-8.256967 -15.742195,-7.692431 -5.082638,0.389178 -9.868783,2.819466 -13.518183,6.328907 -1.218068,1.133885 -2.475932,2.298995 -3.368528,3.705324 -0.350814,0.931918 0.608091,1.924813 1.417969,1.90625 -2.340015,3.509734 -3.339852,7.751424 -3.496094,11.925781 0.686097,0.602972 1.918768,0.812017 2.542969,0.01367 0.09335,4.746079 1.871211,9.386706 4.639966,13.210454 0.755595,0.959658 1.537788,1.988468 2.584643,2.627437 1.01258,0.338811 2.053398,-0.667357 1.922092,-1.684969 0.100934,-0.513836 0.13715,-1.382969 0.27908,-1.678313 1.224342,2.281234 2.752081,4.728978 5.28125,5.697266 1.448954,0.362684 2.956197,0.04988 4.418495,-0.02862 0.394298,-0.06595 0.774404,-0.200707 1.145958,-0.344423 1.196207,5.331966 4.306108,10.22197 8.636719,13.546875 -2.431249,3.724981 -3.456589,8.233764 -3.31836,12.650391 -0.133407,0.882462 -0.73091,1.621481 -0.981461,2.480478 -1.943183,5.020179 -2.372147,10.748076 -0.624007,15.884754 1.422672,3.95276 4.670782,7.30167 8.77526,8.41555 3.224757,0.95424 6.682682,1.16225 10.00013,0.61961 1.581844,-0.32831 3.163378,-1.01541 4.22461,-2.27344 2.537298,0.27946 5.093444,0.11737 7.630859,-0.0762 1.803352,2.20934 4.872166,2.63972 7.556217,2.5847 4.125129,-0.0435 8.545408,-1.31228 11.251998,-4.60599 3.408204,-4.11483 4.25929,-9.834767 3.398477,-14.990896 -0.406153,-2.499644 -1.193296,-4.931915 -2.26138,-7.226096 0.55157,-4.911357 -0.975169,-9.901644 -3.707031,-13.966797 4.52262,-3.561972 7.806766,-8.737126 8.832947,-14.427336 0.361197,-1.824297 0.542332,-3.680192 0.622131,-5.537508 2.253758,-1.159778 4.173542,-3.061377 5.017579,-5.486328 0.214346,-0.23697 0.101054,-1.07326 0.564453,-0.757813 1.142978,0.368622 2.344794,-0.216931 3.052744,-1.121093 1.64904,-1.733144 2.41793,-4.090208 2.83398,-6.398438 0.80005,-0.115167 1.42748,-0.783308 1.66602,-1.53125 1.21036,0.377279 2.955,-0.14263 3.1262,-1.564713 0.16699,-1.603385 -1.20841,-2.808282 -1.82152,-4.089584 0.99974,0.03041 1.74737,-1.093504 1.35951,-2.012603 -0.60113,-3.142677 -2.5134,-5.940149 -4.50404,-8.278412 0.81792,-0.41849 0.97862,-1.677479 0.18344,-2.208453 -1.07938,-0.991492 -2.43155,-1.621156 -3.6638,-2.396918 -3.604813,-1.996174 -7.71323,-3.211072 -11.857534,-3.048926 z" /></g><g
     inkscape:label="B.Cu"
     inkscape:groupmode="layer"
     id="g4" /><g
     inkscape:label="B.Mask"
     inkscape:groupmode="layer"
     id="g5" /><g
     inkscape:label="B.SilkS"
     inkscape:groupmode="layer"
     id="g6" /><g
     inkscape:label="F.Cu"
     inkscape:groupmode="layer"
     id="g7" /><g
     inkscape:label="F.Mask"
     inkscape:groupmode="layer"
     id="g8" /><g
     inkscape:label="F.SilkS"
     inkscape:groupmode="layer"
     id="g9"><path
       id="path1-5-1"
       style="fill:#1a1a1a;fill-opacity:1;stroke:#000000;stroke-width:0.3;stroke-dasharray:none;stroke-opacity:1"
       d="m 89.738823,12.913537 c -3.09248,0.005 -6.08248,0.80706 -8.56641,2.3332 -2.42424,1.48946 -4.88975,4.20226 -5.95932,6.55722 -0.12753,0.28078 -0.25243,0.5124 -0.28319,0.52658 h -5.2e-4 c -2.2e-4,6e-5 -0.001,4.9e-4 -0.002,5.2e-4 h -5.1e-4 c -0.0255,0 -0.18642,-0.11232 -0.3576,-0.2496 -0.80411,-0.64488 -1.79893,-0.67185 -2.57091,-0.0698 l -0.32039,0.25011 -0.69453,-0.66662 c -2.15134,-2.06537 -5.56308,-3.42538 -10.62984,-4.23747 -2.07232,-0.33214 -5.023228,-0.58909 -5.472018,-0.47646 -0.47547,0.11934 -0.618675,0.55857 -0.326595,1.00149 0.08376,0.12703 0.90891,1.01398 1.83348,1.97146 0.92457,0.95749 1.69494,1.77772 1.71204,1.82262 0.01762,0.0464 -0.04314,0.0582 -0.140043,0.0274 -0.43759,-0.13891 -1.529731,-0.19264 -2.403471,-0.11834 -2.40394,0.20441 -4.282461,-0.29498 -6.322611,-1.68103 -1.39563,-0.94817 -1.272034,-0.89002 -1.500684,-0.70487 l -0.197404,0.15968 0.154513,0.66353 c 0.22679,0.97271 0.592917,1.92574 0.971517,2.52956 l 0.333313,0.53123 -0.311609,0.0527 c -0.60686,0.10231 -1.412183,0.31728 -1.780253,0.47491 -0.59568,0.25509 -1.482455,0.8827 -1.894975,1.34152 l -0.380338,0.42323 -0.268201,-0.5302 c -1.76854,-3.50348 -6.028536,-6.60867 -10.263456,-7.4812 -5.26833,-1.08546 -10.903564,0.31194 -15.630054,3.87677 -2.01049,1.51636 -5.193724,4.65741 -5.349544,5.27823 -0.06113,0.24358 0.166672,0.53278 0.419612,0.53278 0.1945,0 3.104236,-1.51376 3.469556,-1.80505 0.3498,-0.27892 0.214994,-0.38668 -0.489376,-0.39068 l -0.606164,-0.004 0.421679,-0.38499 c 4.38841,-4.00688 8.315149,-5.91068 12.939779,-6.27404 2.0284,-0.15937 3.926549,0.076 5.886979,0.72967 2.36429,0.78837 4.308901,2.01812 6.004801,3.7977 1.63632,1.71706 2.462473,3.22702 2.658753,4.85862 0.03208,0.26665 0.09233,0.48473 0.133325,0.48473 0.041,0 0.07441,-0.0358 0.07441,-0.0791 0,-0.0433 0.226162,-0.41684 0.502812,-0.83044 1.36579,-2.04187 3.401565,-3.13779 5.828585,-3.13779 0.49688,0 0.751375,-0.0318 0.751375,-0.094 0,-0.0518 -0.221273,-0.34607 -0.491443,-0.65371 -0.27017,-0.30764 -0.606391,-0.72976 -0.747241,-0.93844 -0.260155,-0.38543 -0.613639,-1.04223 -0.591178,-1.09296 v -5.2e-4 l 5.16e-4,-5.1e-4 5.17e-4,-5.2e-4 v -5.2e-4 l 5.17e-4,-5.1e-4 h 5.17e-4 l 5.16e-4,-5.2e-4 h 5.17e-4 c 2.06e-4,-2e-5 0.0013,0 0.0016,0 0.01825,0 0.319884,0.17233 0.670244,0.38292 0.86412,0.51937 1.480278,0.75751 2.494938,0.96429 0.743144,0.15141 1.133222,0.17286 2.941422,0.16226 2.22614,-0.0131 2.556427,0.0223 3.966167,0.4253 0.954734,0.27292 1.209044,0.25307 1.373554,-0.10801 0.18613,-0.4085 -0.31906,-1.08906 -2.534207,-3.41426 -0.72127,-0.7571 -1.321469,-1.40382 -1.333769,-1.43712 -0.01227,-0.0333 0.703611,0.0439 1.590601,0.17156 5.516915,0.79419 9.249355,2.08189 11.962575,4.12637 0.81445,0.61371 0.91608,0.74131 1.5198,1.90841 0.52568,1.01632 0.68338,1.16566 0.5824,0.5519 -0.11965,-0.72749 -0.0902,-1.82186 0.0548,-2.02881 0.1906,-0.27208 0.86992,-0.26016 1.44281,0.0253 0.56914,0.28361 0.70061,0.44722 0.75241,0.93586 0.069,0.65138 0.27141,1.20717 0.67954,1.86603 0.39215,0.63307 0.60031,0.79204 0.49661,0.37931 -0.0321,-0.12753 -0.0781,-0.61411 -0.10283,-1.08159 -0.055,-1.04084 0.12317,-1.78825 0.70228,-2.94039 0.90784,-1.80617 2.95762,-4.16862 4.6669,-5.379 1.58938,-1.12548 3.69322,-2.03345 5.64927,-2.43758 1.06055,-0.2191 3.47825,-0.3008 4.7072,-0.15916 1.92643,0.22202 3.81053,0.68447 5.49527,1.34876 1.1141,0.43929 3.709861,1.69575 3.709861,1.79575 0,0.0412 -0.21808,0.069 -0.48473,0.062 -0.706321,-0.0188 -0.757521,-0.0107 -0.808221,0.12144 -0.0289,0.0754 0.211,0.36413 0.644411,0.77618 2.97688,2.83012 4.58308,4.80975 5.64616,6.95875 0.38639,0.78107 0.76356,1.74665 0.70849,1.81229 l -5.2e-4,5.2e-4 c -0.0156,0.0156 -0.48044,-0.47099 -1.03301,-1.08159 -1.25087,-1.38225 -1.93795,-1.99566 -2.07791,-1.8557 -0.11802,0.11802 0.0231,0.56373 0.72502,2.29134 0.2919,0.7184 0.55597,1.56003 0.71624,2.28203 0.38003,1.71204 0.80994,2.74684 1.56682,3.77393 0.34365,0.46633 0.55243,0.84493 0.55243,1.00097 0,0.0965 -0.60989,-0.0552 -1.07177,-0.26665 -0.34089,-0.15606 -0.73189,-0.47057 -1.38131,-1.11053 -0.49818,-0.49091 -0.94556,-0.86777 -0.99426,-0.83767 -0.12302,0.076 0.0191,0.88247 0.37879,2.15232 0.23675,0.83583 0.25361,1.20469 0.0646,1.39371 -0.23234,0.23234 -0.54819,0.12482 -0.81803,-0.27801 -0.12657,-0.18895 -0.24428,-0.33219 -0.27182,-0.33228 h -5.2e-4 -5.1e-4 -5.2e-4 l -5.2e-4,5.1e-4 h -5.2e-4 l -5.1e-4,5.2e-4 -5.2e-4,5.2e-4 c -0.0178,0.0178 -0.0732,0.5224 -0.12299,1.12189 -0.25664,3.08867 -1.25685,5.60832 -2.769341,6.97477 -0.41322,0.37332 -0.71312,0.4024 -1.17047,0.11369 -0.5759,-0.36355 -1.65259,-1.25811 -2.48564,-2.06551 -0.44191,-0.4283 -0.82413,-0.76182 -0.86454,-0.75448 h -5.2e-4 l -5.2e-4,5.2e-4 h -5.1e-4 -5.2e-4 v 5.2e-4 h -5.2e-4 c -0.0733,0.0733 0.5034,1.24798 0.92088,1.87585 0.46289,0.69617 0.47763,0.85826 0.18397,2.0159 -0.5713,2.25214 -1.93092,4.13166 -3.7791,5.225 -0.28736,0.17 -0.5661,0.30955 -0.6196,0.30955 -0.0617,0 -0.11865,-0.27008 -0.15555,-0.73794 -0.41621,-5.27942 -2.18284,-10.58472 -4.86482,-14.6079 -0.96564,-1.44854 -1.62781,-2.28321 -2.73471,-3.44733 -0.8601,-0.90462 -1.23542,-1.20691 -1.04025,-0.83819 0.0571,0.10785 0.4436,0.74236 0.85886,1.41025 3.7746,6.071 5.75135,11.38736 6.29987,16.94418 0.11179,1.1305 0.11106,4.30039 -10e-4,5.42034 -0.52174,5.21303 -2.12108,9.13333 -5.18108,12.70155 -2.19067,2.55451 -4.84648,4.60073 -8.05377,6.20479 -3.58136,1.79114 -7.33012,2.8266 -11.84682,3.27267 -1.57604,0.15566 -5.576265,0.12963 -7.192325,-0.047 -3.07756,-0.3364 -6.215185,-1.09509 -8.827885,-2.13424 -5.64281,-2.24436 -10.271548,-6.42562 -12.551688,-11.33833 -2.61045,-5.62437 -3.032202,-12.71701 -1.192692,-20.05459 0.55317,-2.20657 1.141328,-3.96866 2.247408,-6.73447 0.5545,-1.38683 0.653472,-1.76488 0.365352,-1.39578 -0.45889,0.58788 -1.096171,1.54272 -1.486731,2.22829 -1.90901,3.35097 -3.019366,6.95712 -3.544486,11.50937 -0.14625,1.27052 -0.143746,5.5619 0.0041,6.6735 0.0629,0.47058 0.08814,0.93638 0.05684,1.03508 -0.07113,0.22411 -1.031915,0.71924 -1.754415,0.90433 -1.12201,0.28745 -2.237088,-0.0615 -3.391008,-1.06091 -0.32462,-0.28114 -0.628494,-0.49761 -0.674894,-0.48111 -0.16576,0.0589 -0.04015,0.66827 0.250114,1.21491 0.157365,0.29634 0.27288,0.55544 0.26355,0.58756 l -5.17e-4,5.2e-4 v 5.2e-4 l -5.17e-4,5.1e-4 -5.16e-4,5.2e-4 -5.17e-4,5.2e-4 c -0.05579,0.032 -0.681251,-0.36331 -1.086239,-0.68782 -0.86499,-0.69309 -1.872568,-2.25606 -3.221508,-4.99814 -0.55773,-1.13374 -1.01101,-1.94253 -1.21233,-2.16318 -0.28743,-0.31499 -0.327521,-0.41503 -0.379821,-0.94258 -0.06526,-0.65836 -0.206836,-0.9422 -0.506946,-1.0175 -0.46524,-0.11676 -0.689961,0.26879 -1.095541,1.87947 -0.31564,1.25353 -0.470772,2.49571 -0.470772,3.76514 0,0.61195 -0.03184,1.11631 -0.0708,1.14722 l -5.16e-4,5.2e-4 -5.17e-4,5.1e-4 h -5.17e-4 -5.17e-4 l -5.16e-4,5.2e-4 h -5.17e-4 -5.17e-4 c -0.12498,0 -0.816231,-0.8592 -1.467611,-1.82366 -2.24994,-3.33134 -3.601298,-7.39935 -3.852478,-11.59671 -0.07572,-1.26536 0.0015,-3.13859 0.162781,-3.94911 0.15971,-0.80247 -0.17633,-0.65765 -1.50275,0.6475 l -0.959115,0.9431 0.05684,-0.43667 c 0.17958,-1.38938 0.978927,-4.2074 1.658297,-5.84615 0.48739,-1.17565 1.424328,-2.97952 2.055688,-3.95738 0.29606,-0.45855 0.523812,-0.8482 0.505912,-0.8661 -0.0583,-0.0583 -0.680147,0.47766 -1.203027,1.03663 -1.37986,1.47507 -2.818828,4.34684 -3.480408,6.94738 -0.34452,1.35425 -0.667921,3.25915 -0.728121,4.28914 l -0.05013,0.86041 0.22996,0.10491 c 0.16209,0.0739 0.27112,0.079 0.37052,0.0176 0.07755,-0.0479 0.539871,-0.53893 1.026811,-1.09141 l 0.885217,-1.00459 0.0021,1.98128 c 0.0018,2.21301 0.122238,3.15407 0.677478,5.29115 0.71564,2.75439 2.115787,5.70448 3.723287,7.84396 0.6401,0.85193 1.737091,2.08475 2.020031,2.27015 0.23582,0.15451 0.577932,0.0878 0.697632,-0.13591 0.04668,-0.0872 0.162215,-0.798 0.256315,-1.57975 0.17196,-1.42857 0.450794,-3.06819 0.582394,-3.42305 0.06045,-0.16302 0.171558,0.0103 0.765328,1.1958 1.60153,3.19746 2.903482,4.94074 4.425052,5.9247 0.71299,0.46106 1.256254,0.60102 2.099614,0.54002 0.37777,-0.0274 1.142114,-0.0631 1.698604,-0.0796 1.1078,-0.0328 1.746402,-0.19312 2.550232,-0.63924 0.235687,-0.1308 0.446326,-0.21226 0.478524,-0.18604 2.36e-4,2.3e-4 0.0013,10e-4 0.0016,0.002 1.9e-4,2.6e-4 8.68e-4,0.001 0.001,0.002 0.0212,0.0343 0.139613,0.51482 0.263033,1.06764 0.73986,3.314 2.17694,6.35416 4.3217,9.14156 0.72862,0.94693 2.814875,3.02308 3.766695,3.74861 0.41737,0.31815 0.792858,0.60789 0.834058,0.64389 0.04116,0.036 -0.151471,0.41925 -0.427881,0.85111 -0.67933,1.0614 -1.045066,1.732 -1.457276,2.6727 -1.13819,2.59737 -1.686269,5.3851 -1.688269,8.59069 l -5.16e-4,1.28778 -0.327112,0.65112 c -1.13094,2.2551 -2.046954,5.54103 -2.294434,8.22896 -0.1443,1.56731 -0.05755,4.35969 0.17725,5.70301 0.39853,2.280103 1.164121,4.255453 2.334741,6.022883 1.01146,1.52713 2.789896,3.10898 4.421436,3.93258 1.797687,0.90747 4.270408,1.50345 6.9696,1.68052 h 0.001 c 4.206663,0.2756 7.280744,-0.55849 8.500256,-2.30684 l 0.167432,-0.24029 1.428336,0.1049 c 1.5406,0.11325 3.76996,0.0755 5.89008,-0.0997 l 1.2578,-0.10386 0.12764,0.20515 c 0.0702,0.11304 0.34357,0.41671 0.6072,0.67438 1.27294,1.24417 3.57442,1.84221 6.69882,1.74098 3.54732,-0.11494 6.64171,-1.11311 8.75037,-2.82309 3.21522,-2.60733 5.09086,-7.43207 4.92424,-12.666413 -0.0984,-3.09224 -0.81705,-6.21763 -2.09082,-9.09298 l -0.49868,-1.12603 0.0977,-1.10898 c 0.19723,-2.23174 -0.26328,-5.2952 -1.16169,-7.72407 -0.48902,-1.32206 -1.47453,-3.26649 -2.21433,-4.36976 -0.38192,-0.56956 -0.68215,-1.06633 -0.66715,-1.10433 0.015,-0.038 0.40649,-0.37418 0.87023,-0.74672 1.05018,-0.84363 3.00945,-2.83927 3.82974,-3.90106 2.43406,-3.15069 3.86162,-6.48651 4.60076,-10.75024 0.17737,-1.0232 0.38085,-3.1953 0.38085,-4.06642 0,-0.38978 0.0383,-0.77972 0.0847,-0.86662 0.0465,-0.0869 0.39313,-0.31238 0.7705,-0.50126 2.29903,-1.15071 3.92272,-3.20911 4.59662,-5.82703 0.1246,-0.48404 0.23491,-0.89136 0.24391,-0.90486 0.009,-0.0135 0.27669,0.13842 0.59428,0.33745 0.71678,0.44921 1.21092,0.48566 1.811256,0.13384 1.44613,-0.84749 2.93444,-3.61529 3.32331,-6.1805 0.0773,-0.51012 0.15478,-1.00336 0.17208,-1.09606 0.0277,-0.1486 0.0864,-0.16516 0.48421,-0.14056 0.38817,0.024 0.49031,-0.003 0.71468,-0.19223 0.25919,-0.2181 0.45987,-0.68445 0.57465,-1.33584 0.031,-0.17592 0.0804,-0.30704 0.10955,-0.29094 0.95935,0.52681 2.14454,0.53168 2.63343,0.0109 0.16165,-0.17224 0.20137,-0.30206 0.19637,-0.65061 -0.007,-0.55525 -0.18955,-0.93314 -1.07022,-2.21589 -0.55191,-0.80391 -0.75727,-1.18924 -0.9648,-1.8128 -0.45659,-1.3719 -0.7124,-2.28276 -0.6568,-2.33836 h 5.1e-4 l 5.2e-4,-5.2e-4 h 5.2e-4 v -5.2e-4 h 5.1e-4 c 0.0452,-0.011 0.42939,0.34707 0.86765,0.81081 0.44878,0.47487 0.88267,0.86354 0.96377,0.86351 0.17634,-5e-5 0.48472,-0.28938 0.48472,-0.45475 0,-0.0646 -0.11035,-0.55381 -0.24495,-1.08676 -0.63921,-2.53102 -2.07843,-4.93157 -4.59506,-7.66413 -0.58421,-0.63433 -1.06247,-1.17097 -1.06247,-1.19217 l 5.1e-4,-5.2e-4 v -5.2e-4 l 5.2e-4,-5.2e-4 5.2e-4,-5.1e-4 5.2e-4,-5.2e-4 c 0.0276,-0.0124 0.28871,0.0404 0.60358,0.12299 0.77725,0.2043 1.09991,0.20306 1.28881,-0.006 0.29336,-0.32416 0.12398,-0.53708 -1.03095,-1.29553 -3.658316,-2.40245 -6.615256,-3.64897 -10.053646,-4.23747 -1.03874,-0.17779 -2.08113,-0.26429 -3.11195,-0.26252 z m -1.56373,12.97596 c -0.28821,-0.009 -0.60231,-0.007 -0.96222,0.005 -1.44389,0.0455 -2.24941,0.2085 -3.17655,0.64234 -1.10931,0.51905 -1.61826,1.30437 -1.19579,1.84433 0.14733,0.1883 0.47132,0.1126 1.3069,-0.30438 1.14656,-0.57218 1.80917,-0.82228 2.81636,-1.06401 1.01042,-0.2425 2.67676,-0.38765 3.69952,-0.32195 0.85483,0.0549 0.83116,-0.0365 -0.0884,-0.34261 -0.9071,-0.30199 -1.53523,-0.4316 -2.39985,-0.45837 z m -45.305244,3.95169 c -0.120948,0.006 -0.258151,0.0963 -0.403076,0.2682 -0.33731,0.39999 -0.482914,0.78753 -0.373104,0.99271 0.04907,0.0917 0.139838,0.1664 0.201538,0.1664 0.36796,0 1.015815,-1.05798 0.804085,-1.3131 -0.06037,-0.0727 -0.129659,-0.11085 -0.205672,-0.11421 -0.0079,-3.5e-4 -0.01571,-4e-4 -0.02377,0 z m -4.546493,0.93173 c -0.08554,0.002 -0.189079,0.01 -0.319877,0.0207 -1.12505,0.0951 -3.535523,0.78129 -5.539713,1.57665 -1.96459,0.77965 -3.912706,1.99652 -5.039486,3.14864 -0.226118,0.23121 -0.376955,0.42597 -0.365352,0.46509 1.12e-4,2.9e-4 3.83e-4,7.6e-4 5.16e-4,10e-4 1.73e-4,2.8e-4 8.36e-4,10e-4 0.001,0.002 2.23e-4,2.2e-4 0.0012,10e-4 0.0015,0.002 l 5.17e-4,5.1e-4 5.17e-4,5.2e-4 c 0.0019,7.3e-4 0.0048,0.001 0.0072,0.001 0.05864,0 0.4223,-0.18994 0.80822,-0.42219 2.05361,-1.23597 4.644328,-2.17262 8.843388,-3.19722 0.96476,-0.2354 1.861106,-0.48359 1.992126,-0.55139 0.41233,-0.21324 0.462124,-0.61255 0.111104,-0.89142 -0.154155,-0.12248 -0.245165,-0.16175 -0.501778,-0.15503 z m 3.023072,1.603 c -0.129375,0.004 -0.268549,0.12287 -0.376205,0.34313 -0.1188,0.24294 -0.131845,0.35048 -0.05994,0.48473 0.12895,0.24092 0.288223,0.2155 0.542603,-0.0868 0.24689,-0.2934 0.265927,-0.40239 0.107487,-0.61908 -0.06196,-0.0847 -0.136316,-0.12406 -0.21394,-0.12196 z m 65.135032,0.7581 c -0.0232,0.002 -0.048,0.007 -0.0708,0.016 v 5.1e-4 c -0.021,0.008 -0.0335,0.0165 -0.0377,0.0233 -5.1e-4,10e-4 -0.001,0.003 -0.002,0.004 v 5.2e-4 5.1e-4 c 1e-5,3.8e-4 -1e-5,7.8e-4 0,10e-4 v 5.1e-4 l 5.2e-4,5.2e-4 c 1.9e-4,3.4e-4 8.6e-4,0.001 10e-4,0.002 v 5.2e-4 c 2.5e-4,2.9e-4 0.001,10e-4 0.002,0.002 0.01,0.008 0.0399,0.0151 0.0873,0.017 0.0889,0.004 0.13858,-0.0164 0.11058,-0.0444 -0.0175,-0.0178 -0.0523,-0.0258 -0.0909,-0.0233 z m -84.544184,1.89394 c -0.309419,-0.005 -0.877713,0.17041 -1.372526,0.43821 -0.48984,0.26511 -0.617984,0.45742 -0.430464,0.64493 0.18051,0.18052 0.255414,0.17101 1.061434,-0.1323 0.98456,-0.3705 1.313321,-0.70193 0.910021,-0.91777 -0.03978,-0.0213 -0.09706,-0.032 -0.168465,-0.0331 z m 55.600737,3.23649 c -0.0951,-1.9e-4 -0.20556,0.004 -0.33951,0.0119 -1.37536,0.0796 -2.56716,0.95335 -3.45664,2.53369 -0.14072,0.24999 -0.24516,0.4572 -0.2434,0.48214 v 5.2e-4 5.2e-4 l 5.2e-4,5.1e-4 v 5.2e-4 h 5.2e-4 v 5.2e-4 h 5.1e-4 5.2e-4 c 0.0173,0 0.33356,-0.29544 0.70332,-0.65681 0.7227,-0.7063 1.34483,-1.10316 2.06395,-1.31671 1.37112,-0.40718 2.25671,0.14289 3.66748,2.27944 0.35071,0.53114 0.65216,0.92323 0.69712,0.90899 l 5.1e-4,-5.2e-4 h 5.2e-4 l 5.2e-4,-5.1e-4 h 5.1e-4 l 5.2e-4,-5.2e-4 c 10e-4,-0.001 0.002,-0.003 0.003,-0.005 0.0399,-0.17028 -0.37273,-1.56858 -0.58756,-1.99109 -0.4986,-0.98057 -1.17593,-1.74351 -1.8557,-2.09031 -0.22457,-0.1149 -0.37094,-0.15653 -0.65629,-0.1571 z m -30.360417,1.36219 c -0.412175,0.006 -0.786691,0.0774 -1.066085,0.22066 -0.44739,0.22935 -1.104406,0.95209 -1.442806,1.58698 -0.34816,0.65322 -0.688357,1.8386 -0.744657,2.59468 l -0.04496,0.60048 0.451136,-0.92759 c 1.31343,-2.70148 2.446496,-3.54359 4.212146,-3.12953 0.54366,0.1275 1.551923,0.58978 2.166793,0.99374 l 0.289388,0.19017 -0.162781,-0.2806 c -0.22733,-0.39163 -0.97478,-1.04174 -1.55081,-1.34876 -0.6289,-0.3352 -1.420407,-0.50961 -2.107364,-0.50023 z m 29.125347,2.4629 c -1.36007,-0.047 -2.69512,0.78808 -3.53053,2.52078 -0.50644,1.05038 -0.64093,1.60112 -0.69453,2.83962 -0.13401,3.09595 1.34346,5.66556 3.60805,6.27455 1.74981,0.47055 3.48319,-0.44281 4.41265,-2.32544 0.51421,-1.04156 0.66966,-1.77284 0.66766,-3.14813 -0.002,-1.31774 -0.23983,-2.35096 -0.78238,-3.39152 -0.93536,-1.79391 -2.32084,-2.72284 -3.68092,-2.76986 z m -27.116167,1.16375 c -1.68509,-0.0806 -2.958336,0.82154 -3.825606,2.71043 -0.4277,0.93153 -0.585427,1.76764 -0.583427,3.09232 0.0023,1.38251 0.135115,1.97187 0.714685,3.17604 0.65696,1.36498 1.585634,2.24043 2.722314,2.56573 0.65277,0.18683 1.149136,0.19526 1.779736,0.031 2.14601,-0.55896 3.502045,-2.7304 3.500045,-5.60431 -0.0016,-2.00376 -0.708387,-3.78184 -1.965771,-4.94595 -0.73703,-0.68236 -1.419426,-0.98117 -2.341976,-1.02527 z m 26.619047,0.4377 c 0.25406,3e-4 0.48838,0.0987 0.66714,0.3111 0.50192,0.5965 0.0893,1.86964 -0.81959,2.52801 -0.52873,0.38301 -1.192,0.29867 -1.46037,-0.18552 -0.16176,-0.29177 -0.1395,-0.98863 0.0444,-1.39371 0.35673,-0.78562 1.00943,-1.26054 1.56838,-1.25988 z m -27.468091,1.23869 c 0.19983,0.003 0.390528,0.0471 0.512113,0.13229 0.23322,0.16334 0.431499,0.60126 0.431499,0.95291 0,0.6946 -0.684189,1.73219 -1.316199,1.99626 v 5.2e-4 c -0.35086,0.14658 -0.519927,0.1434 -0.811837,-0.015 -0.50452,-0.27375 -0.657937,-1.098 -0.338997,-1.81901 0.19956,-0.45115 0.632584,-0.96314 0.957564,-1.13119 0.157025,-0.0812 0.366027,-0.11963 0.565857,-0.11679 z m 14.766021,5.58467 c -2.78295,0 -4.955236,1.82526 -5.799126,4.87309 -0.20479,0.73952 -0.226726,0.95188 -0.222726,2.20968 0.0032,1.10096 0.0425,1.57077 0.188619,2.25361 0.77359,3.61503 2.903433,5.99394 5.747973,6.42028 0.64035,0.096 1.60585,0.0424 2.27014,-0.12557 0.75036,-0.18972 1.77116,-0.7361 2.34404,-1.25471 0.60856,-0.55091 1.35398,-1.63567 1.61799,-2.35437 1.00924,-2.74738 0.27751,-6.79015 -1.73633,-9.59063 -1.22505,-1.70357 -2.54534,-2.43138 -4.41058,-2.43138 z m -0.17466,1.5596 c 0.82589,0 0.93049,0.0195 1.45882,0.26975 0.69552,0.32945 0.74794,0.48462 0.0842,0.24908 -0.72814,-0.25837 -1.8163,-0.23205 -2.58588,0.0625 -0.32098,0.12287 -0.77631,0.34006 -1.01183,0.48317 -0.23551,0.14313 -0.53289,0.35831 -0.66042,0.47801 -0.19217,0.18038 -0.23151,0.19271 -0.23151,0.0718 0,-0.27812 0.75956,-0.97322 1.4211,-1.30018 0.61237,-0.30264 0.66837,-0.31419 1.52549,-0.31419 z m 3.87676,14.42444 c -0.0898,0.007 -0.43154,0.15183 -0.80925,0.34416 -0.69117,0.35193 -0.82431,0.38952 -1.51464,0.42892 -0.84123,0.048 -1.3831,-0.0668 -2.09134,-0.44339 -0.22539,-0.11984 -0.46078,-0.19825 -0.52348,-0.17415 -0.17373,0.0667 -0.13721,0.49881 0.10283,1.21388 0.30626,0.91232 0.73595,1.58411 1.20251,1.87999 0.71895,0.45595 1.59119,0.27991 2.26859,-0.45785 0.83767,-0.91229 1.67905,-2.60741 1.38442,-2.7895 -0.004,-0.002 -0.0104,-0.003 -0.0196,-0.002 z m -2.61793,1.59577 h 1.25522 l -0.26406,0.36897 c -0.14524,0.20296 -0.3961,0.4594 -0.55759,0.56947 -0.58209,0.39675 -1.15181,0.19551 -1.51257,-0.53433 -0.0965,-0.19524 -0.17569,-0.36591 -0.1757,-0.37931 -10e-6,-0.0134 0.56455,-0.0248 1.2547,-0.0248 z m 16.93799,3.47834 c 0.14983,0 1.17769,1.62973 1.78128,2.82463 1.83648,3.63559 2.47695,7.61923 1.79938,11.19311 -0.76575,4.03896 -4.20121,9.23745 -6.98717,10.57352 -1.0309,0.49439 -1.16502,0.39901 -1.21182,-0.86455 -0.0224,-0.60418 -0.068,-0.90171 -0.14831,-0.96841 -0.3664,-0.30409 -0.73136,0.47525 -0.75396,1.6092 l -0.016,0.80098 -0.4501,0.0258 c -0.55631,0.0322 -0.75939,-0.0716 -1.01596,-0.51935 -0.18338,-0.32 -0.20292,-0.4625 -0.22892,-1.67328 -0.0346,-1.61374 -0.0864,-1.70951 -0.62529,-1.15187 -0.19686,0.20372 -0.53472,0.57821 -0.75034,0.83251 -0.45674,0.53871 -0.57581,0.52671 -0.90072,-0.091 -0.18181,-0.3457 -0.19351,-0.44462 -0.15141,-1.30173 0.0251,-0.51012 0.0882,-1.07283 0.14004,-1.25108 0.11482,-0.3954 0.0673,-0.45806 -0.20981,-0.27647 -0.34518,0.22617 -0.70295,0.94798 -0.81545,1.64537 -0.0866,0.53695 -0.1131,0.59831 -0.1819,0.42375 -0.0443,-0.11226 -0.0817,-0.7165 -0.0837,-1.34255 -0.005,-1.70401 0.27541,-2.82023 1.60146,-6.36551 1.24407,-3.3261 2.09965,-5.91524 2.02675,-6.13399 -0.0303,-0.0908 -1.151,1.76936 -2.019,3.35122 -1.32833,2.42077 -2.36229,5.01053 -2.77709,6.95616 -0.25526,1.19711 -0.27871,3.32672 -0.045,4.08502 0.34399,1.11596 1.00445,2.08502 1.86293,2.73317 0.60286,0.45517 1.58175,0.98077 2.06086,1.10691 0.86629,0.22806 0.8511,0.18116 0.26768,0.83923 -0.48555,0.54767 -0.55982,0.59733 -1.20923,0.80873 -2.15482,0.701453 -3.5549,1.810363 -4.36149,3.454053 -0.45005,0.91711 -0.62809,1.85034 -0.55759,2.92592 l 0.0537,0.82269 -0.23203,0.06 c -0.1277,0.0328 -1.82323,0.0616 -3.76824,0.0646 l -3.536737,0.005 -0.0088,-1.22266 c -0.008,-1.13272 -0.02738,-1.27558 -0.263033,-1.94304 -0.58516,-1.65736 -1.763028,-2.83895 -3.659208,-3.671093 -2.54315,-1.11605 -5.012311,-1.03396 -7.573181,0.252183 -0.7969,0.40023 -1.549982,0.94842 -2.021582,1.47071 -0.36041,0.39916 -0.77618,0.9885 -0.77618,1.10071 0,0.002 4.55e-4,0.003 0.001,0.004 l 5.17e-4,5.2e-4 h 5.17e-4 v 5.2e-4 5.1e-4 c 5.01e-4,4e-4 0.0019,0.001 0.0026,0.002 0.04185,0.0147 0.323859,-0.1427 0.661459,-0.37258 0.68834,-0.46871 1.756382,-1.01031 2.674772,-1.35599 1.64494,-0.61916 3.750001,-0.75413 5.301485,-0.34055 1.11771,0.29796 2.024314,0.73588 2.244824,1.08469 0.14093,0.22292 0.162324,0.36456 0.127124,0.83147 -0.04026,0.53395 -0.231384,1.08159 -0.377754,1.08159 -0.03706,0 -0.285501,-0.30519 -0.552421,-0.678 -0.487,-0.68021 -1.041912,-1.15125 -1.258322,-1.06815 -0.0926,0.0355 -0.108331,0.25418 -0.07803,1.08521 0.04045,1.11009 -0.03636,1.50415 -0.293005,1.50378 -0.0823,-1.2e-4 -0.376971,-0.1374 -0.654741,-0.30489 -1.308804,-0.78917 -2.721207,-1.3509 -2.913517,-1.15858 -0.05481,0.0548 0.0486,0.34365 0.302307,0.84439 0.43992,0.86835 0.580632,1.59501 0.346232,1.78955 -0.11135,0.0924 -0.243991,0.0889 -0.783931,-0.0212 -0.71738,-0.14629 -0.919972,-0.0888 -0.822172,0.23306 0.20673,0.68027 1.514122,1.06335 2.200382,0.64492 0.43025,-0.26234 0.557754,-0.52832 0.547254,-1.14308 l -0.0088,-0.54106 0.359668,0.27492 c 0.809644,0.61802 1.583053,0.78082 2.099613,0.44235 0.19397,-0.12709 0.490655,-0.61788 0.607715,-1.0051 0.04249,-0.14058 0.07628,-0.13024 0.344682,0.10542 0.19835,0.17412 0.38623,0.26096 0.56379,0.26096 0.5185,0 1.414384,-1.18453 1.414384,-1.87017 0,-0.0845 0.03491,-0.15348 0.07751,-0.15348 0.14626,0 0.418501,0.55265 0.602031,1.22163 0.26272,0.9576 0.210834,2.22706 -0.120406,2.95279 -0.45632,0.99979 -1.316174,1.57484 -2.856674,1.911 l 5.17e-4,5.2e-4 c -0.63578,0.13875 -1.162177,0.1749 -2.845821,0.1974 -2.26316,0.0303 -3.051383,-0.0281 -4.637443,-0.34572 -1.81313,-0.36303 -3.278801,-0.93489 -4.593001,-1.79162 -0.7578,-0.49401 -2.248677,-1.9866 -2.766757,-2.76985 -2.7448,-4.14968 -3.161909,-10.198683 -1.124479,-16.312193 0.232747,-0.69835 0.45954,-1.26519 0.50953,-1.27847 h 5.17e-4 5.16e-4 5.17e-4 5.17e-4 c 0.04382,0.009 0.162843,0.29362 0.264583,0.63252 0.84706,2.82152 2.674271,5.86253 4.714441,7.84603 2.28943,2.22585 4.328019,3.11508 6.854879,2.99 3.250634,-0.16091 5.663516,-1.94916 6.224426,-4.61316 0.16372,-0.7778 0.113275,-2.66736 -0.09664,-3.62561 -0.50389,-2.30036 -1.50443,-4.54964 -4.46381,-10.0335 -1.109804,-2.05655 -1.225248,-2.24415 -1.225248,-1.99368 0,0.56329 0.938403,3.25493 2.398303,6.87865 1.27257,3.15875 1.728998,4.47135 1.947168,5.60069 0.1435,0.74291 0.17505,2.46467 0.05271,2.87838 -0.02895,0.0979 -0.04731,0.15623 -0.06253,0.16485 -2.97e-4,1.3e-4 -0.0016,8.2e-4 -0.0021,10e-4 h -5.17e-4 c -2.91e-4,2e-5 -0.0016,-1e-5 -0.0021,0 h -5.17e-4 c -2.86e-4,-1e-4 -0.0016,-3.3e-4 -0.0021,-5.1e-4 l -5.17e-4,-5.2e-4 c -0.01894,-0.0147 -0.03632,-0.11887 -0.06925,-0.33331 -0.10466,-0.68144 -0.351122,-1.23678 -0.748792,-1.68672 -0.20473,-0.23165 -0.398781,-0.39552 -0.430981,-0.36432 -0.03215,0.0312 0.0017,0.34799 0.07545,0.70435 0.24926,1.2053 0.124252,2.4074 -0.289388,2.78174 -0.08826,0.0799 -0.215787,0.12409 -0.283187,0.0982 -0.0674,-0.0259 -0.372364,-0.33994 -0.677994,-0.69815 -0.65859,-0.77181 -0.865429,-0.93755 -1.000973,-0.80202 -0.06095,0.061 -0.09787,0.5528 -0.103869,1.37976 -0.01312,1.85044 -0.157086,2.18679 -0.981336,2.28978 -0.59932,0.0749 -0.773152,0.008 -0.716752,-0.27853 0.08293,-0.42044 -0.111603,-1.55091 -0.331763,-1.92753 -0.21638,-0.37016 -0.477991,-0.47261 -0.573091,-0.2248 -0.0282,0.0734 -0.05116,0.55939 -0.05116,1.08004 0,1.18177 -0.05653,1.29031 -0.594796,1.14722 -1.23684,-0.32879 -2.639003,-1.20205 -3.794083,-2.36317 -2.70084,-2.71494 -4.646249,-6.59598 -4.968689,-9.91205 -0.32329,-3.32482 0.329994,-6.95573 1.768884,-9.83093 0.48534,-0.96979 1.257822,-2.24975 1.457792,-2.41483 0.07246,-0.0598 0.335354,0.0629 0.903304,0.42167 2.90474,1.83496 6.652041,3.15355 11.087695,3.90158 3.18658,0.53738 7.557747,0.60388 11.003457,0.16691 4.96152,-0.62919 9.56704,-2.18729 13.19196,-4.46278 0.48049,-0.30161 0.91569,-0.54828 0.96739,-0.54828 z m 4.62297,15.55822 0.42168,1.30586 c 0.7387,2.28709 1.05508,3.86059 1.21078,6.02547 0.28229,3.92515 -0.61685,7.591553 -2.52285,10.288783 -1.69298,2.39579 -4.15099,3.76857 -7.70288,4.30206 -1.08269,0.16258 -3.09675,0.22016 -4.11862,0.11783 -2.01249,-0.20153 -3.41018,-0.82116 -4.01629,-1.78129 -0.633,-1.00272 -0.60159,-3.11745 0.062,-4.19561 l 0.17984,-0.29249 0.16691,0.33435 c 0.33827,0.67696 0.58178,0.95668 0.95757,1.10019 0.35037,0.13381 0.38299,0.13266 0.70125,-0.0248 l 0.33331,-0.16485 0.14831,0.32866 c 0.17773,0.39414 0.50835,0.68847 0.92914,0.82734 0.42724,0.141 1.08815,-0.0155 1.64331,-0.38912 0.23611,-0.15889 0.44452,-0.28888 0.46302,-0.28888 h 5.2e-4 l 5.2e-4,5.2e-4 h 5.1e-4 l 5.2e-4,5.2e-4 c 0.0173,0.0184 0.0315,0.22125 0.0315,0.46612 0,0.58506 0.22469,1.04759 0.60927,1.2547 0.45753,0.2464 1.38205,0.16263 1.85363,-0.16795 0.25243,-0.17695 0.37023,-0.32393 0.38913,-0.48627 l 0.0269,-0.23306 -0.82993,0.0574 c -0.7101,0.0489 -0.84662,0.0374 -0.94412,-0.0801 -0.19813,-0.23873 -0.0757,-0.94953 0.28783,-1.67328 0.17986,-0.35803 0.30007,-0.67817 0.26717,-0.71107 -0.13306,-0.13305 -1.34836,0.25728 -2.2872,0.73432 -0.54258,0.27569 -1.03832,0.50126 -1.10122,0.50126 -0.0629,0 -0.19277,-0.10001 -0.28887,-0.2222 -0.14965,-0.19022 -0.17467,-0.34048 -0.17467,-1.04387 0,-0.63441 -0.0296,-0.84592 -0.12919,-0.92862 -0.20577,-0.17077 -0.49949,0.0201 -0.90279,0.58601 -0.1975,0.27715 -0.43016,0.52884 -0.51676,0.55914 -0.27326,0.0957 -0.48307,-0.21446 -0.53537,-0.79117 -0.0619,-0.68278 0.0585,-0.85318 0.87746,-1.24179 1.43557,-0.68124 3.52627,-0.97091 5.79448,-0.80253 0.66852,0.0497 1.27567,0.11339 1.34927,0.14159 0.0736,0.0283 0.13385,0.0109 0.13385,-0.0387 0,-0.27573 -2.16863,-1.020703 -3.36466,-1.156013 -0.28493,-0.0322 -0.5317,-0.0824 -0.5488,-0.1111 v -5.2e-4 h -5.2e-4 l -5.1e-4,-5.1e-4 v -5.2e-4 c -0.008,-0.0375 0.17165,-0.27155 0.40566,-0.52813 0.42891,-0.47027 0.44517,-0.47904 1.06556,-0.56534 2.79986,-0.38945 5.16153,-2.28 7.34529,-5.87923 0.79374,-1.30822 1.53532,-2.85308 1.97456,-4.11448 z m -12.93823,8.15041 c 0.006,-2.6e-4 0.0112,-2.5e-4 0.0139,0.001 2.6e-4,1.6e-4 0.001,8.5e-4 0.002,10e-4 v 5.2e-4 h 5.2e-4 c 0.0105,0.0129 0.0443,0.22265 0.0755,0.46612 0.069,0.54079 0.006,0.55681 -0.5979,0.14986 -0.5676,-0.38225 -0.61207,-0.4656 -0.24753,-0.4656 0.16202,0 0.39758,-0.0391 0.52297,-0.0868 0.10187,-0.0387 0.19426,-0.0646 0.23099,-0.0661 z m -18.844841,0.0744 c 0.0807,7.9e-4 0.203286,0.0456 0.388607,0.12299 0.17001,0.0713 0.34534,0.10698 0.38964,0.0796 0.0443,-0.0274 0.08062,-0.009 0.08062,0.0413 0,0.0501 -0.178082,0.204 -0.395842,0.3421 -0.55187,0.35 -0.615983,0.33225 -0.615983,-0.17053 0,-0.29586 0.01846,-0.4168 0.152962,-0.41548 z" /></g><g
     inkscape:label="Dwgs.User"
     inkscape:groupmode="layer"
     id="g10" /><g
     inkscape:label="Drill"
     inkscape:groupmode="layer"
     id="g11" /></svg>
