<?xml version="1.0" encoding="UTF-8"?>
<svg xmlns="http://www.w3.org/2000/svg" width="97.194mm" height="97.834mm" viewBox="123.956100 84.697533 97.194046 97.833992">
    <path transform="translate(-15.886963,8.876524)" style="stroke:#000000;stroke-width:0.05mm;fill:none" d="M179.228699,173.603287C176.529099,173.4263,174.056015,172.829941,172.258102,171.922348C170.626556,171.098755,168.848328,169.517151,167.836868,167.990021C166.666245,166.222595,165.90036,164.247009,165.501831,161.966904C165.267029,160.623581,165.180237,157.831497,165.324524,156.264191C165.572006,153.576263,166.488281,150.290497,167.619217,148.035385L167.945999,147.383804L167.946869,146.0961C167.948868,142.890503,168.496811,140.102966,169.634995,137.5056C170.047211,136.564896,170.412949,135.894043,171.092285,134.832657C171.368698,134.400803,171.561157,134.017975,171.519989,133.981934C171.47879,133.945938,171.103653,133.656113,170.686295,133.337967C169.734482,132.612442,167.64827,130.536102,166.919647,129.589172C164.774887,126.801773,163.337479,123.761452,162.59761,120.447449C162.474197,119.89463,162.355865,119.414261,162.334671,119.379951C162.313477,119.34565,162.097061,119.428047,161.853775,119.563072C161.049942,120.009193,160.411301,120.169189,159.303497,120.202003C158.747009,120.218498,157.982605,120.254303,157.604843,120.281693C156.76149,120.34269,156.218277,120.203087,155.505295,119.742027C153.983719,118.758072,152.681564,117.014664,151.080032,113.817192C150.486267,112.631729,150.375305,112.458344,150.314865,112.621361C150.183258,112.976219,149.90419,114.615723,149.732239,116.044289C149.638138,116.826042,149.522949,117.537018,149.476273,117.624237C149.356567,117.847908,149.014297,117.91449,148.778473,117.759979C148.495529,117.574577,147.398697,116.341949,146.758591,115.490021C145.151093,113.35054,143.750687,110.400459,143.035034,107.646072C142.479797,105.509003,142.359268,104.567833,142.357422,102.354813L142.355423,100.37336L141.470108,101.377869C140.98317,101.930351,140.521317,102.421547,140.443771,102.469429C140.344376,102.53083,140.235031,102.525627,140.072937,102.451729L139.843063,102.347023L139.893356,101.486649C139.953552,100.456657,140.276901,98.551933,140.621414,97.197678C141.28299,94.597137,142.721664,91.724915,144.101517,90.249847C144.62439,89.69088,145.246262,89.155167,145.304565,89.213478C145.322464,89.231377,145.094818,89.621124,144.798767,90.079681C144.167404,91.057541,143.230301,92.861412,142.74292,94.037064C142.063553,95.675812,141.264297,98.493523,141.084717,99.882904L141.028214,100.319962L141.986908,99.376656C143.313324,98.071503,143.649445,97.926689,143.489731,98.729156C143.328415,99.539673,143.251175,101.413017,143.326904,102.678383C143.578079,106.87574,144.929504,110.94371,147.179443,114.275047C147.830826,115.239517,148.522247,116.098457,148.647232,116.098457C148.687927,116.098457,148.721329,115.581612,148.721329,114.949928C148.721329,113.680496,148.876755,112.438148,149.192398,111.184624C149.597977,109.573936,149.822739,109.188347,150.287979,109.305107C150.588089,109.380409,150.729492,109.664391,150.794754,110.322746C150.847061,110.850304,150.88736,110.950394,151.174789,111.265373C151.376114,111.486023,151.829361,112.294746,152.387085,113.42849C153.736023,116.17057,154.743484,117.733772,155.608475,118.426857C156.018265,118.755203,156.653091,119.156013,156.69577,119.113327C156.713776,119.095329,156.595612,118.830383,156.433197,118.524544C156.142944,117.977898,156.017624,117.368347,156.18338,117.309464C156.229782,117.292961,156.533295,117.509537,156.857925,117.790672C158.011841,118.790039,159.12706,119.138893,160.249069,118.85144C160.971573,118.666351,161.932205,118.171028,162.003326,117.946922C162.034622,117.848221,162.009323,117.382469,161.946426,116.911903C161.798553,115.800293,161.796173,111.508926,161.942429,110.238419C162.467545,105.686172,163.578186,102.080116,165.487198,98.729149C165.877762,98.043579,166.514664,97.088776,166.973541,96.5009C167.261658,96.131798,167.162598,96.509903,166.608109,97.896729C165.502029,100.662537,164.913971,102.424767,164.360809,104.63134C162.521301,111.968918,162.943146,119.061272,165.553589,124.685638C167.833725,129.598343,172.462677,133.779816,178.105484,136.024185C180.718185,137.063339,183.855515,137.821762,186.933075,138.158157C188.549133,138.334808,192.549698,138.361115,194.125732,138.20546C198.642426,137.759384,202.390915,136.723801,205.972275,134.932663C209.179565,133.328598,211.835464,131.282516,214.026138,128.727997C217.086136,125.159767,218.685242,121.239304,219.206985,116.026283C219.319077,114.906326,219.319778,111.736214,219.207993,110.605713C218.65947,105.048889,216.683044,99.73288,212.908447,93.66188C212.493195,92.993988,212.10672,92.359291,212.049637,92.251442C211.854462,91.882721,212.229401,92.184845,213.089508,93.089462C214.196411,94.253586,214.858612,95.088371,215.824249,96.536911C218.506226,100.560089,220.273148,105.865417,220.689362,111.144836C220.726257,111.612694,220.783157,111.882607,220.844879,111.882607C220.898376,111.882607,221.177322,111.74353,221.464691,111.573517C223.312866,110.480186,224.672272,108.600517,225.243576,106.348373C225.537231,105.190727,225.52243,105.028442,225.05954,104.332283C224.642059,103.704407,224.065552,102.530037,224.138824,102.456757C224.163223,102.432358,224.553497,102.771179,225.006012,103.209747C225.839066,104.017159,226.915771,104.911987,227.491669,105.275543C227.94902,105.564247,228.248535,105.535149,228.661743,105.161827C230.17424,103.79538,231.174728,101.275909,231.431366,98.187241C231.481171,97.587753,231.536469,97.082718,231.55423,97.064964C231.572037,97.047165,231.696075,97.196213,231.829971,97.396095C232.099808,97.798927,232.415512,97.906097,232.647858,97.673752C232.836884,97.484734,232.819702,97.11615,232.582962,96.280319C232.223297,95.010468,232.081467,94.203873,232.204483,94.127831C232.253189,94.097733,232.700653,94.474762,233.198837,94.965668C233.848251,95.605629,234.239182,95.919861,234.580078,96.07592C235.041962,96.287376,235.651703,96.43914,235.651703,96.342644C235.651703,96.186607,235.442703,95.808083,235.09906,95.341751C234.342178,94.314659,233.912704,93.279953,233.532684,91.567909C233.372421,90.845909,233.108139,90.004051,232.816238,89.285652C232.114273,87.558044,231.973312,87.11245,232.091324,86.994431C232.231277,86.854469,232.918137,87.467979,234.169006,88.850227C234.721573,89.460831,235.186462,89.947617,235.202118,89.931969C235.260818,89.873169,234.881912,88.902863,234.494019,88.118729C233.430939,85.969727,231.825073,83.99054,228.84819,81.160416C228.41478,80.748367,228.174835,80.459213,228.203766,80.383827C228.254471,80.251671,228.30542,80.244026,229.011749,80.262779C229.278397,80.269783,229.496567,80.241882,229.496567,80.200676C229.496567,80.100677,226.900711,78.844116,225.786621,78.404823C224.101883,77.740532,222.217667,77.278076,220.291229,77.056053C219.062286,76.914413,216.644806,76.996254,215.584259,77.215355C213.628204,77.619484,211.524399,78.527138,209.935013,79.652618C208.225739,80.862999,206.176117,83.225426,205.26828,85.031601C204.689163,86.183739,204.510559,86.931114,204.565567,87.971954C204.590271,88.439438,204.636673,88.926254,204.668747,89.053787C204.772446,89.466515,204.564178,89.307426,204.172028,88.674355C203.763901,88.015495,203.561523,87.459816,203.492508,86.808434C203.440704,86.319794,203.30928,86.156303,202.740143,85.872696C202.167252,85.587219,201.4879,85.575317,201.297287,85.847397C201.152344,86.054344,201.122742,87.148537,201.242386,87.87603C201.343369,88.489792,201.185791,88.340469,200.66011,87.32415C200.056396,86.157051,199.954666,86.029312,199.140213,85.415604C196.426987,83.371124,192.69455,82.083763,187.177628,81.289574C186.290634,81.16188,185.574951,81.084633,185.587219,81.117905C185.599518,81.151207,186.199646,81.797852,186.920914,82.554955C189.136063,84.880157,189.641068,85.560547,189.454941,85.969048C189.290436,86.330124,189.036377,86.350128,188.081635,86.077209C186.67189,85.674217,186.341324,85.638771,184.115189,85.651871C182.306992,85.662468,181.917068,85.640968,181.173935,85.489563C180.159271,85.282784,179.542938,85.044563,178.678818,84.525192C178.328461,84.314606,178.026855,84.142311,178.008606,84.142311C177.952606,84.142311,178.324554,84.837334,178.595291,85.238434C178.736145,85.447113,179.072433,85.86956,179.342606,86.1772C179.612778,86.48484,179.833817,86.7789,179.833817,86.830658C179.833817,86.89286,179.579269,86.924759,179.082382,86.924759C176.655365,86.924759,174.61998,88.020515,173.254196,90.062386C172.977539,90.475983,172.75119,90.849846,172.75119,90.893173C172.75119,90.93647,172.71759,90.97197,172.67659,90.97197C172.63559,90.97197,172.575745,90.753799,172.543671,90.487152C172.347397,88.855553,171.521179,87.345863,169.884857,85.628799C168.188965,83.84922,166.244202,82.619232,163.879913,81.830856C161.919479,81.177147,160.021088,80.941879,157.992676,81.10125C153.368042,81.464607,149.441452,83.368553,145.05304,87.375427L144.631454,87.760368L145.237778,87.764366C145.942154,87.768364,146.076584,87.876175,145.726776,88.155098C145.36145,88.446388,142.451859,89.960388,142.257355,89.960388C142.00441,89.960388,141.776535,89.67099,141.837662,89.427406C141.993484,88.806587,145.177124,85.665749,147.187622,84.149384C151.914108,80.584557,157.548996,79.186737,162.817337,80.272194C167.052261,81.144722,171.312561,84.250122,173.0811,87.753601L173.348846,88.283989L173.729492,87.860611C174.142014,87.401794,175.02861,86.773979,175.624298,86.51889C175.992371,86.361259,176.797958,86.146469,177.404816,86.044159L177.716125,85.991661L177.382751,85.459961C177.00415,84.85614,176.638382,83.90358,176.411591,82.93087L176.256882,82.267311L176.454315,82.107445C176.682968,81.922295,176.559143,81.864136,177.954773,82.812302C179.994919,84.198349,181.873535,84.697861,184.277466,84.493454C185.151199,84.419151,186.243591,84.472954,186.681183,84.611862C186.778076,84.642662,186.838623,84.63076,186.820999,84.584366C186.803894,84.539467,186.033463,83.719269,185.108902,82.761772C184.184326,81.804291,183.359329,80.916969,183.275558,80.78994C182.983475,80.347023,183.126724,79.907852,183.602203,79.788513C184.050995,79.67588,187.001801,79.9328,189.074112,80.264946C194.140869,81.077034,197.552719,82.437157,199.704056,84.502525L200.398468,85.169197L200.718994,84.919205C201.490967,84.317116,202.485947,84.344124,203.290054,84.989006C203.461227,85.126289,203.622116,85.238617,203.647568,85.238617C203.672974,85.238617,203.801529,85.001465,203.933167,84.711624C205.002731,82.356667,207.468567,79.643387,209.892807,78.153923C213.204712,76.119072,217.415756,75.372551,221.570709,76.083702C225.009094,76.672203,227.966003,77.918411,231.624313,80.320862C232.779236,81.079315,232.948669,81.292213,232.655319,81.616371C232.466415,81.825111,232.144104,81.826668,231.366852,81.622368C231.033768,81.534966,230.761261,81.480721,230.761261,81.501915C230.761261,81.523117,231.239243,82.059464,231.823456,82.693794C234.340088,85.426353,235.77951,87.827156,236.418732,90.358177C236.553329,90.891129,236.663467,91.380051,236.663467,91.444656C236.663467,91.610023,236.35498,91.899399,236.178635,91.899445C236.097534,91.899475,235.66391,91.510963,235.215118,91.036095C234.766342,90.561226,234.374985,90.196861,234.345444,90.226402C234.289841,90.282005,234.545685,91.192924,235.002274,92.564819C235.209808,93.188377,235.41481,93.57373,235.966721,94.37764C236.847397,95.660393,237.029755,96.037857,237.037109,96.593109C237.042114,96.941658,237.002411,97.071877,236.840759,97.244118C236.351868,97.764938,235.166595,97.760025,234.207245,97.233215C234.17804,97.217117,234.128738,97.347954,234.097717,97.523872C233.982941,98.175262,233.782227,98.641899,233.523041,98.860001C233.298676,99.04879,233.196671,99.076233,232.808502,99.0522C232.410675,99.027603,232.351868,99.044197,232.324203,99.192802C232.3069,99.2855,232.229401,99.778809,232.1521,100.288933C231.763229,102.854141,230.275177,105.62159,228.829056,106.469093C228.228714,106.820908,227.734283,106.784348,227.017502,106.335136C226.699905,106.136108,226.432434,105.984337,226.423126,105.997879C226.414124,106.011383,226.30423,106.418518,226.179642,106.902557C225.505737,109.520477,223.881775,111.579086,221.582748,112.729797C221.205383,112.918678,220.858582,113.144287,220.812088,113.231178C220.765594,113.318077,220.727585,113.708061,220.727585,114.097839C220.727585,114.968964,220.5242,117.140953,220.346832,118.164146C219.607697,122.427879,218.179947,125.763878,215.745895,128.914566C214.925598,129.976349,212.966629,131.971939,211.916458,132.815567C211.452713,133.18811,211.06105,133.523956,211.046082,133.56192C211.031082,133.599915,211.33136,134.096954,211.713287,134.666504C212.453094,135.769775,213.438187,137.714081,213.9272,139.036133C214.825607,141.464996,215.286514,144.528549,215.089294,146.7603L214.991287,147.869125L215.490204,148.995361C216.763977,151.870712,217.48262,154.996017,217.581039,158.088257C217.747665,163.322601,215.872009,168.147171,212.656784,170.754501C210.548126,172.464478,207.453644,173.462921,203.906326,173.577866C200.781921,173.679092,198.480225,173.080841,197.207291,171.83667C196.943665,171.578995,196.670578,171.275696,196.600418,171.162643L196.472855,170.957108L195.21489,171.061081C193.094772,171.236298,190.865372,171.274033,189.324768,171.160782L187.896652,171.055786L187.728867,171.29631C186.509247,173.044815,183.435074,173.879044,179.227844,173.603226L179.228699,173.603287z"/>
</svg>
