%TF.GenerationSoftware,KiCad,Pcbnew,9.0.6*%
%TF.CreationDate,2025-12-01T23:05:10+01:00*%
%TF.ProjectId,Coala,436f616c-612e-46b6-9963-61645f706362,rev?*%
%TF.SameCoordinates,Original*%
%TF.FileFunction,Copper,L1,Top*%
%TF.FilePolarity,Positive*%
%FSLAX46Y46*%
G04 Gerber Fmt 4.6, Leading zero omitted, Abs format (unit mm)*
G04 Created by KiCad (PCBNEW 9.0.6) date 2025-12-01 23:05:10*
%MOMM*%
%LPD*%
G01*
G04 APERTURE LIST*
G04 Aperture macros list*
%AMRoundRect*
0 Rectangle with rounded corners*
0 $1 Rounding radius*
0 $2 $3 $4 $5 $6 $7 $8 $9 X,Y pos of 4 corners*
0 Add a 4 corners polygon primitive as box body*
4,1,4,$2,$3,$4,$5,$6,$7,$8,$9,$2,$3,0*
0 Add four circle primitives for the rounded corners*
1,1,$1+$1,$2,$3*
1,1,$1+$1,$4,$5*
1,1,$1+$1,$6,$7*
1,1,$1+$1,$8,$9*
0 Add four rect primitives between the rounded corners*
20,1,$1+$1,$2,$3,$4,$5,0*
20,1,$1+$1,$4,$5,$6,$7,0*
20,1,$1+$1,$6,$7,$8,$9,0*
20,1,$1+$1,$8,$9,$2,$3,0*%
G04 Aperture macros list end*
%TA.AperFunction,ComponentPad*%
%ADD10C,1.500000*%
%TD*%
%TA.AperFunction,ComponentPad*%
%ADD11R,1.500000X1.500000*%
%TD*%
%TA.AperFunction,ComponentPad*%
%ADD12RoundRect,0.250000X-0.550000X-0.550000X0.550000X-0.550000X0.550000X0.550000X-0.550000X0.550000X0*%
%TD*%
%TA.AperFunction,ComponentPad*%
%ADD13C,1.600000*%
%TD*%
%TA.AperFunction,ComponentPad*%
%ADD14C,2.000000*%
%TD*%
%TA.AperFunction,ComponentPad*%
%ADD15R,1.600000X1.600000*%
%TD*%
%TA.AperFunction,ComponentPad*%
%ADD16O,1.600000X1.600000*%
%TD*%
%TA.AperFunction,ComponentPad*%
%ADD17R,1.800000X1.800000*%
%TD*%
%TA.AperFunction,ComponentPad*%
%ADD18C,1.800000*%
%TD*%
%TA.AperFunction,Conductor*%
%ADD19C,0.250000*%
%TD*%
G04 APERTURE END LIST*
D10*
%TO.P,Q1,3,C*%
%TO.N,Net-(Q1-C)*%
X124380000Y-134100000D03*
%TO.P,Q1,2,B*%
%TO.N,Net-(Q1-B)*%
X121840000Y-131560000D03*
D11*
%TO.P,Q1,1,E*%
%TO.N,Net-(D1-K)*%
X119300000Y-134100000D03*
%TD*%
D10*
%TO.P,Q2,3,C*%
%TO.N,Net-(Q2-C)*%
X124580000Y-124600000D03*
%TO.P,Q2,2,B*%
%TO.N,Net-(Q1-C)*%
X122040000Y-122060000D03*
D11*
%TO.P,Q2,1,E*%
%TO.N,Net-(D1-A)*%
X119500000Y-124600000D03*
%TD*%
D12*
%TO.P,U1,1,GND*%
%TO.N,Net-(D1-K)*%
X153900000Y-119380000D03*
D13*
%TO.P,U1,2,TR*%
%TO.N,Net-(D3-K)*%
X153900000Y-116840000D03*
%TO.P,U1,3,Q*%
%TO.N,unconnected-(U1-Q-Pad3)*%
X153900000Y-114300000D03*
%TO.P,U1,4,R*%
%TO.N,Net-(S1-E)*%
X153900000Y-111760000D03*
%TO.P,U1,5,CV*%
%TO.N,unconnected-(U1-CV-Pad5)*%
X161520000Y-111760000D03*
%TO.P,U1,6,THR*%
%TO.N,Net-(D3-K)*%
X161520000Y-114300000D03*
%TO.P,U1,7,DIS*%
%TO.N,Net-(D3-A)*%
X161520000Y-116840000D03*
%TO.P,U1,8,VCC*%
%TO.N,Net-(S1-E)*%
X161520000Y-119380000D03*
%TD*%
D14*
%TO.P,S1,1,A*%
%TO.N,Net-(S1-A-Pad1)*%
X162600000Y-131700000D03*
%TO.P,S1,2,E*%
%TO.N,Net-(S1-E)*%
X162600000Y-129160000D03*
%TO.P,S1,3,A*%
%TO.N,unconnected-(S1-A-Pad3)*%
X162600000Y-126620000D03*
%TD*%
D13*
%TO.P,R7,1*%
%TO.N,Net-(D3-K)*%
X135555821Y-121823942D03*
%TO.P,R7,2*%
%TO.N,Net-(D3-A)*%
X145715821Y-121823942D03*
%TD*%
%TO.P,R6,1*%
%TO.N,Net-(S1-E)*%
X135555821Y-125873942D03*
%TO.P,R6,2*%
%TO.N,Net-(Q2-C)*%
X145715821Y-125873942D03*
%TD*%
%TO.P,R5,1*%
%TO.N,Net-(S1-E)*%
X135555821Y-129923942D03*
%TO.P,R5,2*%
%TO.N,Net-(Q1-C)*%
X145715821Y-129923942D03*
%TD*%
%TO.P,R4,1*%
%TO.N,Net-(Q1-B)*%
X135555821Y-133973942D03*
%TO.P,R4,2*%
%TO.N,Net-(D1-K)*%
X145715821Y-133973942D03*
%TD*%
%TO.P,R3,1*%
%TO.N,Net-(D3-K)*%
X135555821Y-138023942D03*
%TO.P,R3,2*%
%TO.N,Net-(Q1-B)*%
X145715821Y-138023942D03*
%TD*%
%TO.P,R1off1,1*%
%TO.N,Net-(S1-E)*%
X135555821Y-117773942D03*
%TO.P,R1off1,2*%
%TO.N,Net-(D3-A)*%
X145715821Y-117773942D03*
%TD*%
D15*
%TO.P,D3,1,K*%
%TO.N,Net-(D3-K)*%
X144620000Y-112600000D03*
D16*
%TO.P,D3,2,A*%
%TO.N,Net-(D3-A)*%
X137000000Y-112600000D03*
%TD*%
D17*
%TO.P,D2,1,K*%
%TO.N,Net-(D1-K)*%
X151725000Y-79500000D03*
D18*
%TO.P,D2,2,A*%
%TO.N,Net-(D1-A)*%
X154265000Y-79500000D03*
%TD*%
D17*
%TO.P,D1,1,K*%
%TO.N,Net-(D1-K)*%
X124425000Y-80500000D03*
D18*
%TO.P,D1,2,A*%
%TO.N,Net-(D1-A)*%
X126965000Y-80500000D03*
%TD*%
D12*
%TO.P,C1,1*%
%TO.N,Net-(D3-K)*%
X120900000Y-114200000D03*
D13*
%TO.P,C1,2*%
%TO.N,Net-(D1-K)*%
X123400000Y-114200000D03*
%TD*%
D19*
%TO.N,Net-(S1-E)*%
X153900000Y-111760000D02*
X150840000Y-108700000D01*
X135555821Y-129923942D02*
X135555821Y-125873942D01*
X134200000Y-116418121D02*
X134200000Y-108700000D01*
X134200000Y-108700000D02*
X150840000Y-108700000D01*
X135555821Y-117773942D02*
X134200000Y-116418121D01*
%TO.N,Net-(D3-K)*%
X156260000Y-116840000D02*
X158800000Y-114300000D01*
X153900000Y-116840000D02*
X156260000Y-116840000D01*
X158800000Y-114300000D02*
X161520000Y-114300000D01*
%TO.N,Net-(D3-A)*%
X157100000Y-119200000D02*
X159460000Y-116840000D01*
X157100000Y-123000000D02*
X157100000Y-119200000D01*
X150941879Y-123000000D02*
X157100000Y-123000000D01*
X145715821Y-117773942D02*
X150941879Y-123000000D01*
X159460000Y-116840000D02*
X161520000Y-116840000D01*
%TO.N,Net-(D3-K)*%
X144620000Y-112759763D02*
X144620000Y-112600000D01*
X135555821Y-121823942D02*
X144620000Y-112759763D01*
%TO.N,Net-(D1-A)*%
X126965000Y-84035000D02*
X126965000Y-80500000D01*
X120900000Y-90100000D02*
X126965000Y-84035000D01*
X120900000Y-109300000D02*
X120900000Y-90100000D01*
X118400000Y-111800000D02*
X120900000Y-109300000D01*
X118400000Y-117200000D02*
X118400000Y-111800000D01*
X118200000Y-117400000D02*
X118400000Y-117200000D01*
X119500000Y-118700000D02*
X118200000Y-117400000D01*
X119500000Y-124600000D02*
X119500000Y-118700000D01*
%TO.N,Net-(D3-K)*%
X131100000Y-124700000D02*
X131200000Y-124800000D01*
X131100000Y-122300000D02*
X131100000Y-124700000D01*
X128200000Y-119400000D02*
X131100000Y-122300000D01*
X121400000Y-119400000D02*
X128200000Y-119400000D01*
X120900000Y-118900000D02*
X121400000Y-119400000D01*
X120900000Y-114200000D02*
X120900000Y-118900000D01*
X131200000Y-124800000D02*
X131100000Y-124900000D01*
X131100000Y-135600000D02*
X133523942Y-138023942D01*
X131100000Y-124900000D02*
X131100000Y-135600000D01*
X133523942Y-138023942D02*
X135555821Y-138023942D01*
X134176058Y-121823942D02*
X131200000Y-124800000D01*
X135555821Y-121823942D02*
X134176058Y-121823942D01*
%TD*%
M02*
