%TF.GenerationSoftware,KiCad,Pcbnew,9.0.6*%
%TF.CreationDate,2025-12-01T23:05:10+01:00*%
%TF.ProjectId,Coala,436f616c-612e-46b6-9963-61645f706362,rev?*%
%TF.SameCoordinates,Original*%
%TF.FileFunction,Copper,L2,Bot*%
%TF.FilePolarity,Positive*%
%FSLAX46Y46*%
G04 Gerber Fmt 4.6, Leading zero omitted, Abs format (unit mm)*
G04 Created by KiCad (PCBNEW 9.0.6) date 2025-12-01 23:05:10*
%MOMM*%
%LPD*%
G01*
G04 APERTURE LIST*
G04 Aperture macros list*
%AMRoundRect*
0 Rectangle with rounded corners*
0 $1 Rounding radius*
0 $2 $3 $4 $5 $6 $7 $8 $9 X,Y pos of 4 corners*
0 Add a 4 corners polygon primitive as box body*
4,1,4,$2,$3,$4,$5,$6,$7,$8,$9,$2,$3,0*
0 Add four circle primitives for the rounded corners*
1,1,$1+$1,$2,$3*
1,1,$1+$1,$4,$5*
1,1,$1+$1,$6,$7*
1,1,$1+$1,$8,$9*
0 Add four rect primitives between the rounded corners*
20,1,$1+$1,$2,$3,$4,$5,0*
20,1,$1+$1,$4,$5,$6,$7,0*
20,1,$1+$1,$6,$7,$8,$9,0*
20,1,$1+$1,$8,$9,$2,$3,0*%
G04 Aperture macros list end*
%ADD10C,0.150000*%
%TA.AperFunction,NonConductor*%
%ADD11C,0.150000*%
%TD*%
%TA.AperFunction,ComponentPad*%
%ADD12C,1.500000*%
%TD*%
%TA.AperFunction,ComponentPad*%
%ADD13R,1.500000X1.500000*%
%TD*%
%TA.AperFunction,SMDPad,CuDef*%
%ADD14R,5.000000X2.000000*%
%TD*%
%TA.AperFunction,SMDPad,CuDef*%
%ADD15C,17.780000*%
%TD*%
%TA.AperFunction,ComponentPad*%
%ADD16RoundRect,0.250000X-0.550000X-0.550000X0.550000X-0.550000X0.550000X0.550000X-0.550000X0.550000X0*%
%TD*%
%TA.AperFunction,ComponentPad*%
%ADD17C,1.600000*%
%TD*%
%TA.AperFunction,ComponentPad*%
%ADD18C,2.000000*%
%TD*%
%TA.AperFunction,ComponentPad*%
%ADD19R,1.600000X1.600000*%
%TD*%
%TA.AperFunction,ComponentPad*%
%ADD20O,1.600000X1.600000*%
%TD*%
%TA.AperFunction,ComponentPad*%
%ADD21R,1.800000X1.800000*%
%TD*%
%TA.AperFunction,ComponentPad*%
%ADD22C,1.800000*%
%TD*%
%TA.AperFunction,Conductor*%
%ADD23C,0.250000*%
%TD*%
G04 APERTURE END LIST*
D10*
D11*
X142763220Y-96169819D02*
X142763220Y-95169819D01*
X142191792Y-96169819D02*
X142620363Y-95598390D01*
X142191792Y-95169819D02*
X142763220Y-95741247D01*
X141763220Y-96169819D02*
X141763220Y-95169819D01*
X141763220Y-95646009D02*
X141191792Y-95646009D01*
X141191792Y-96169819D02*
X141191792Y-95169819D01*
X140382268Y-95646009D02*
X140715601Y-95646009D01*
X140715601Y-96169819D02*
X140715601Y-95169819D01*
X140715601Y-95169819D02*
X140239411Y-95169819D01*
X138572744Y-96169819D02*
X139144172Y-96169819D01*
X138858458Y-96169819D02*
X138858458Y-95169819D01*
X138858458Y-95169819D02*
X138953696Y-95312676D01*
X138953696Y-95312676D02*
X139048934Y-95407914D01*
X139048934Y-95407914D02*
X139144172Y-95455533D01*
X138191791Y-95265057D02*
X138144172Y-95217438D01*
X138144172Y-95217438D02*
X138048934Y-95169819D01*
X138048934Y-95169819D02*
X137810839Y-95169819D01*
X137810839Y-95169819D02*
X137715601Y-95217438D01*
X137715601Y-95217438D02*
X137667982Y-95265057D01*
X137667982Y-95265057D02*
X137620363Y-95360295D01*
X137620363Y-95360295D02*
X137620363Y-95455533D01*
X137620363Y-95455533D02*
X137667982Y-95598390D01*
X137667982Y-95598390D02*
X138239410Y-96169819D01*
X138239410Y-96169819D02*
X137620363Y-96169819D01*
X137191791Y-96074580D02*
X137144172Y-96122200D01*
X137144172Y-96122200D02*
X137191791Y-96169819D01*
X137191791Y-96169819D02*
X137239410Y-96122200D01*
X137239410Y-96122200D02*
X137191791Y-96074580D01*
X137191791Y-96074580D02*
X137191791Y-96169819D01*
X136763220Y-95265057D02*
X136715601Y-95217438D01*
X136715601Y-95217438D02*
X136620363Y-95169819D01*
X136620363Y-95169819D02*
X136382268Y-95169819D01*
X136382268Y-95169819D02*
X136287030Y-95217438D01*
X136287030Y-95217438D02*
X136239411Y-95265057D01*
X136239411Y-95265057D02*
X136191792Y-95360295D01*
X136191792Y-95360295D02*
X136191792Y-95455533D01*
X136191792Y-95455533D02*
X136239411Y-95598390D01*
X136239411Y-95598390D02*
X136810839Y-96169819D01*
X136810839Y-96169819D02*
X136191792Y-96169819D01*
X135572744Y-95169819D02*
X135477506Y-95169819D01*
X135477506Y-95169819D02*
X135382268Y-95217438D01*
X135382268Y-95217438D02*
X135334649Y-95265057D01*
X135334649Y-95265057D02*
X135287030Y-95360295D01*
X135287030Y-95360295D02*
X135239411Y-95550771D01*
X135239411Y-95550771D02*
X135239411Y-95788866D01*
X135239411Y-95788866D02*
X135287030Y-95979342D01*
X135287030Y-95979342D02*
X135334649Y-96074580D01*
X135334649Y-96074580D02*
X135382268Y-96122200D01*
X135382268Y-96122200D02*
X135477506Y-96169819D01*
X135477506Y-96169819D02*
X135572744Y-96169819D01*
X135572744Y-96169819D02*
X135667982Y-96122200D01*
X135667982Y-96122200D02*
X135715601Y-96074580D01*
X135715601Y-96074580D02*
X135763220Y-95979342D01*
X135763220Y-95979342D02*
X135810839Y-95788866D01*
X135810839Y-95788866D02*
X135810839Y-95550771D01*
X135810839Y-95550771D02*
X135763220Y-95360295D01*
X135763220Y-95360295D02*
X135715601Y-95265057D01*
X135715601Y-95265057D02*
X135667982Y-95217438D01*
X135667982Y-95217438D02*
X135572744Y-95169819D01*
X134858458Y-95265057D02*
X134810839Y-95217438D01*
X134810839Y-95217438D02*
X134715601Y-95169819D01*
X134715601Y-95169819D02*
X134477506Y-95169819D01*
X134477506Y-95169819D02*
X134382268Y-95217438D01*
X134382268Y-95217438D02*
X134334649Y-95265057D01*
X134334649Y-95265057D02*
X134287030Y-95360295D01*
X134287030Y-95360295D02*
X134287030Y-95455533D01*
X134287030Y-95455533D02*
X134334649Y-95598390D01*
X134334649Y-95598390D02*
X134906077Y-96169819D01*
X134906077Y-96169819D02*
X134287030Y-96169819D01*
X133382268Y-95169819D02*
X133858458Y-95169819D01*
X133858458Y-95169819D02*
X133906077Y-95646009D01*
X133906077Y-95646009D02*
X133858458Y-95598390D01*
X133858458Y-95598390D02*
X133763220Y-95550771D01*
X133763220Y-95550771D02*
X133525125Y-95550771D01*
X133525125Y-95550771D02*
X133429887Y-95598390D01*
X133429887Y-95598390D02*
X133382268Y-95646009D01*
X133382268Y-95646009D02*
X133334649Y-95741247D01*
X133334649Y-95741247D02*
X133334649Y-95979342D01*
X133334649Y-95979342D02*
X133382268Y-96074580D01*
X133382268Y-96074580D02*
X133429887Y-96122200D01*
X133429887Y-96122200D02*
X133525125Y-96169819D01*
X133525125Y-96169819D02*
X133763220Y-96169819D01*
X133763220Y-96169819D02*
X133858458Y-96122200D01*
X133858458Y-96122200D02*
X133906077Y-96074580D01*
D12*
%TO.P,Q1,3,C*%
%TO.N,Net-(Q1-C)*%
X124380000Y-134100000D03*
%TO.P,Q1,2,B*%
%TO.N,Net-(Q1-B)*%
X121840000Y-131560000D03*
D13*
%TO.P,Q1,1,E*%
%TO.N,Net-(D1-K)*%
X119300000Y-134100000D03*
%TD*%
D12*
%TO.P,Q2,3,C*%
%TO.N,Net-(Q2-C)*%
X124580000Y-124600000D03*
%TO.P,Q2,2,B*%
%TO.N,Net-(Q1-C)*%
X122040000Y-122060000D03*
D13*
%TO.P,Q2,1,E*%
%TO.N,Net-(D1-A)*%
X119500000Y-124600000D03*
%TD*%
D14*
%TO.P,U2,*%
%TO.N,*%
X125846000Y-64824000D03*
X125846000Y-61268000D03*
%TO.P,U2,1*%
%TO.N,Net-(S1-A-Pad1)*%
X151740000Y-64824000D03*
X151740000Y-61268000D03*
D15*
%TO.P,U2,2*%
%TO.N,Net-(D1-K)*%
X138800000Y-63300000D03*
%TD*%
D16*
%TO.P,U1,1,GND*%
%TO.N,Net-(D1-K)*%
X153900000Y-119380000D03*
D17*
%TO.P,U1,2,TR*%
%TO.N,Net-(D3-K)*%
X153900000Y-116840000D03*
%TO.P,U1,3,Q*%
%TO.N,unconnected-(U1-Q-Pad3)*%
X153900000Y-114300000D03*
%TO.P,U1,4,R*%
%TO.N,Net-(S1-E)*%
X153900000Y-111760000D03*
%TO.P,U1,5,CV*%
%TO.N,unconnected-(U1-CV-Pad5)*%
X161520000Y-111760000D03*
%TO.P,U1,6,THR*%
%TO.N,Net-(D3-K)*%
X161520000Y-114300000D03*
%TO.P,U1,7,DIS*%
%TO.N,Net-(D3-A)*%
X161520000Y-116840000D03*
%TO.P,U1,8,VCC*%
%TO.N,Net-(S1-E)*%
X161520000Y-119380000D03*
%TD*%
D18*
%TO.P,S1,1,A*%
%TO.N,Net-(S1-A-Pad1)*%
X162600000Y-131700000D03*
%TO.P,S1,2,E*%
%TO.N,Net-(S1-E)*%
X162600000Y-129160000D03*
%TO.P,S1,3,A*%
%TO.N,unconnected-(S1-A-Pad3)*%
X162600000Y-126620000D03*
%TD*%
D17*
%TO.P,R7,1*%
%TO.N,Net-(D3-K)*%
X135555821Y-121823942D03*
%TO.P,R7,2*%
%TO.N,Net-(D3-A)*%
X145715821Y-121823942D03*
%TD*%
%TO.P,R6,1*%
%TO.N,Net-(S1-E)*%
X135555821Y-125873942D03*
%TO.P,R6,2*%
%TO.N,Net-(Q2-C)*%
X145715821Y-125873942D03*
%TD*%
%TO.P,R5,1*%
%TO.N,Net-(S1-E)*%
X135555821Y-129923942D03*
%TO.P,R5,2*%
%TO.N,Net-(Q1-C)*%
X145715821Y-129923942D03*
%TD*%
%TO.P,R4,1*%
%TO.N,Net-(Q1-B)*%
X135555821Y-133973942D03*
%TO.P,R4,2*%
%TO.N,Net-(D1-K)*%
X145715821Y-133973942D03*
%TD*%
%TO.P,R3,1*%
%TO.N,Net-(D3-K)*%
X135555821Y-138023942D03*
%TO.P,R3,2*%
%TO.N,Net-(Q1-B)*%
X145715821Y-138023942D03*
%TD*%
%TO.P,R1off1,1*%
%TO.N,Net-(S1-E)*%
X135555821Y-117773942D03*
%TO.P,R1off1,2*%
%TO.N,Net-(D3-A)*%
X145715821Y-117773942D03*
%TD*%
D19*
%TO.P,D3,1,K*%
%TO.N,Net-(D3-K)*%
X144620000Y-112600000D03*
D20*
%TO.P,D3,2,A*%
%TO.N,Net-(D3-A)*%
X137000000Y-112600000D03*
%TD*%
D21*
%TO.P,D2,1,K*%
%TO.N,Net-(D1-K)*%
X151725000Y-79500000D03*
D22*
%TO.P,D2,2,A*%
%TO.N,Net-(D1-A)*%
X154265000Y-79500000D03*
%TD*%
D21*
%TO.P,D1,1,K*%
%TO.N,Net-(D1-K)*%
X124425000Y-80500000D03*
D22*
%TO.P,D1,2,A*%
%TO.N,Net-(D1-A)*%
X126965000Y-80500000D03*
%TD*%
D16*
%TO.P,C1,1*%
%TO.N,Net-(D3-K)*%
X120900000Y-114200000D03*
D17*
%TO.P,C1,2*%
%TO.N,Net-(D1-K)*%
X123400000Y-114200000D03*
%TD*%
D23*
%TO.N,Net-(S1-A-Pad1)*%
X164100000Y-131700000D02*
X162600000Y-131700000D01*
X165500000Y-130300000D02*
X164100000Y-131700000D01*
X165500000Y-122200000D02*
X165500000Y-130300000D01*
X157300000Y-104100000D02*
X163400000Y-110200000D01*
X157300000Y-74860000D02*
X157300000Y-104100000D01*
X163400000Y-110200000D02*
X163400000Y-120100000D01*
X163400000Y-120100000D02*
X165500000Y-122200000D01*
X151740000Y-64824000D02*
X151740000Y-69300000D01*
X151740000Y-69300000D02*
X157300000Y-74860000D01*
%TO.N,Net-(S1-E)*%
X161520000Y-120620000D02*
X161520000Y-119380000D01*
X164180000Y-123280000D02*
X161520000Y-120620000D01*
X164180000Y-127580000D02*
X164180000Y-123280000D01*
X136826058Y-125873942D02*
X135555821Y-125873942D01*
X138500000Y-120200000D02*
X138500000Y-124200000D01*
X137981879Y-120200000D02*
X138500000Y-120200000D01*
X138500000Y-124200000D02*
X136826058Y-125873942D01*
X135555821Y-117773942D02*
X137981879Y-120200000D01*
%TO.N,Net-(Q2-C)*%
X127780000Y-127800000D02*
X124580000Y-124600000D01*
X140100000Y-127800000D02*
X127780000Y-127800000D01*
X142026058Y-125873942D02*
X140100000Y-127800000D01*
X145715821Y-125873942D02*
X142026058Y-125873942D01*
%TO.N,Net-(D3-K)*%
X151740000Y-116840000D02*
X153900000Y-116840000D01*
X147500000Y-112600000D02*
X151740000Y-116840000D01*
X144620000Y-112600000D02*
X147500000Y-112600000D01*
%TO.N,Net-(S1-E)*%
X158900000Y-119300000D02*
X158980000Y-119380000D01*
X158700000Y-119300000D02*
X158900000Y-119300000D01*
X158980000Y-119380000D02*
X161520000Y-119380000D01*
X157500000Y-113700000D02*
X157500000Y-118100000D01*
X155560000Y-111760000D02*
X157500000Y-113700000D01*
X157500000Y-118100000D02*
X158700000Y-119300000D01*
X153900000Y-111760000D02*
X155560000Y-111760000D01*
X162600000Y-129160000D02*
X164180000Y-127580000D01*
%TO.N,Net-(D3-A)*%
X145715821Y-117773942D02*
X145715821Y-121823942D01*
X142273942Y-117773942D02*
X145715821Y-117773942D01*
X142100000Y-117600000D02*
X142273942Y-117773942D01*
X142000000Y-117600000D02*
X142100000Y-117600000D01*
X137000000Y-112600000D02*
X142000000Y-117600000D01*
%TO.N,Net-(D1-K)*%
X119800000Y-110600000D02*
X119600000Y-110600000D01*
X123400000Y-114200000D02*
X119800000Y-110600000D01*
X117000000Y-131800000D02*
X119300000Y-134100000D01*
X117000000Y-113200000D02*
X117000000Y-131800000D01*
X119600000Y-110600000D02*
X117000000Y-113200000D01*
X119600000Y-105600000D02*
X119600000Y-110600000D01*
X124425000Y-100775000D02*
X119600000Y-105600000D01*
X124425000Y-80500000D02*
X124425000Y-100775000D01*
%TO.N,Net-(Q1-C)*%
X126340000Y-131940000D02*
X126340000Y-132140000D01*
X122040000Y-122060000D02*
X122040000Y-127640000D01*
X122040000Y-127640000D02*
X126340000Y-131940000D01*
X124380000Y-134100000D02*
X126340000Y-132140000D01*
X126880000Y-131600000D02*
X144039763Y-131600000D01*
X144039763Y-131600000D02*
X145715821Y-129923942D01*
X126340000Y-132140000D02*
X126880000Y-131600000D01*
%TO.N,Net-(Q1-B)*%
X140300000Y-136300000D02*
X140300000Y-134400000D01*
X140300000Y-134400000D02*
X139873942Y-133973942D01*
X139873942Y-133973942D02*
X135555821Y-133973942D01*
X142023942Y-138023942D02*
X140300000Y-136300000D01*
X145715821Y-138023942D02*
X142023942Y-138023942D01*
X121840000Y-136640000D02*
X121840000Y-131560000D01*
X125200000Y-140000000D02*
X121840000Y-136640000D01*
X145200000Y-140000000D02*
X125200000Y-140000000D01*
X145715821Y-139484179D02*
X145200000Y-140000000D01*
X145715821Y-138023942D02*
X145715821Y-139484179D01*
%TO.N,Net-(D1-K)*%
X148600000Y-136500000D02*
X151126058Y-133973942D01*
X148600000Y-140800000D02*
X148600000Y-136500000D01*
X121600000Y-140800000D02*
X148600000Y-140800000D01*
X119300000Y-138500000D02*
X121600000Y-140800000D01*
X119300000Y-134100000D02*
X119300000Y-138500000D01*
X153900000Y-131200000D02*
X153900000Y-119380000D01*
X151126058Y-133973942D02*
X153900000Y-131200000D01*
X145715821Y-133973942D02*
X151126058Y-133973942D01*
%TO.N,Net-(D1-A)*%
X154200000Y-82300000D02*
X154200000Y-82200000D01*
X154265000Y-82135000D02*
X154265000Y-79500000D01*
X152600000Y-83900000D02*
X154200000Y-82300000D01*
X130165000Y-83700000D02*
X152400000Y-83700000D01*
X126965000Y-80500000D02*
X130165000Y-83700000D01*
X152400000Y-83700000D02*
X152600000Y-83900000D01*
X154200000Y-82200000D02*
X154265000Y-82135000D01*
%TO.N,Net-(D1-K)*%
X147600000Y-72100000D02*
X147600000Y-76100000D01*
X138800000Y-63300000D02*
X147600000Y-72100000D01*
X147600000Y-76100000D02*
X151000000Y-79500000D01*
X151000000Y-79500000D02*
X151725000Y-79500000D01*
X124425000Y-76375000D02*
X124425000Y-80500000D01*
X137500000Y-63300000D02*
X124425000Y-76375000D01*
X138800000Y-63300000D02*
X137500000Y-63300000D01*
%TO.N,Net-(S1-A-Pad1)*%
X151740000Y-61268000D02*
X151740000Y-64824000D01*
%TD*%
M02*
