%TF.GenerationSoftware,KiCad,Pcbnew,9.0.6*%
%TF.CreationDate,2025-12-01T23:05:10+01:00*%
%TF.ProjectId,Coala,436f616c-612e-46b6-9963-61645f706362,rev?*%
%TF.SameCoordinates,Original*%
%TF.FileFunction,Soldermask,Top*%
%TF.FilePolarity,Negative*%
%FSLAX46Y46*%
G04 Gerber Fmt 4.6, Leading zero omitted, Abs format (unit mm)*
G04 Created by KiCad (PCBNEW 9.0.6) date 2025-12-01 23:05:10*
%MOMM*%
%LPD*%
G01*
G04 APERTURE LIST*
G04 Aperture macros list*
%AMRoundRect*
0 Rectangle with rounded corners*
0 $1 Rounding radius*
0 $2 $3 $4 $5 $6 $7 $8 $9 X,Y pos of 4 corners*
0 Add a 4 corners polygon primitive as box body*
4,1,4,$2,$3,$4,$5,$6,$7,$8,$9,$2,$3,0*
0 Add four circle primitives for the rounded corners*
1,1,$1+$1,$2,$3*
1,1,$1+$1,$4,$5*
1,1,$1+$1,$6,$7*
1,1,$1+$1,$8,$9*
0 Add four rect primitives between the rounded corners*
20,1,$1+$1,$2,$3,$4,$5,0*
20,1,$1+$1,$4,$5,$6,$7,0*
20,1,$1+$1,$6,$7,$8,$9,0*
20,1,$1+$1,$8,$9,$2,$3,0*%
G04 Aperture macros list end*
%ADD10C,1.900000*%
%ADD11RoundRect,0.200000X-0.750000X-0.750000X0.750000X-0.750000X0.750000X0.750000X-0.750000X0.750000X0*%
%ADD12RoundRect,0.312500X-0.687500X-0.687500X0.687500X-0.687500X0.687500X0.687500X-0.687500X0.687500X0*%
%ADD13C,2.000000*%
%ADD14C,2.400000*%
%ADD15RoundRect,0.200000X0.800000X0.800000X-0.800000X0.800000X-0.800000X-0.800000X0.800000X-0.800000X0*%
%ADD16O,2.000000X2.000000*%
%ADD17RoundRect,0.200000X-0.900000X-0.900000X0.900000X-0.900000X0.900000X0.900000X-0.900000X0.900000X0*%
%ADD18C,2.200000*%
G04 APERTURE END LIST*
D10*
%TO.C,Q1*%
X124380000Y-134100000D03*
X121840000Y-131560000D03*
D11*
X119300000Y-134100000D03*
%TD*%
D10*
%TO.C,Q2*%
X124580000Y-124600000D03*
X122040000Y-122060000D03*
D11*
X119500000Y-124600000D03*
%TD*%
D12*
%TO.C,U1*%
X153900000Y-119380000D03*
D13*
X153900000Y-116840000D03*
X153900000Y-114300000D03*
X153900000Y-111760000D03*
X161520000Y-111760000D03*
X161520000Y-114300000D03*
X161520000Y-116840000D03*
X161520000Y-119380000D03*
%TD*%
D14*
%TO.C,S1*%
X162600000Y-131700000D03*
X162600000Y-129160000D03*
X162600000Y-126620000D03*
%TD*%
D13*
%TO.C,R7*%
X135555821Y-121823942D03*
X145715821Y-121823942D03*
%TD*%
%TO.C,R6*%
X135555821Y-125873942D03*
X145715821Y-125873942D03*
%TD*%
%TO.C,R5*%
X135555821Y-129923942D03*
X145715821Y-129923942D03*
%TD*%
%TO.C,R4*%
X135555821Y-133973942D03*
X145715821Y-133973942D03*
%TD*%
%TO.C,R3*%
X135555821Y-138023942D03*
X145715821Y-138023942D03*
%TD*%
%TO.C,R1off1*%
X135555821Y-117773942D03*
X145715821Y-117773942D03*
%TD*%
D15*
%TO.C,D3*%
X144620000Y-112600000D03*
D16*
X137000000Y-112600000D03*
%TD*%
D17*
%TO.C,D2*%
X151725000Y-79500000D03*
D18*
X154265000Y-79500000D03*
%TD*%
D17*
%TO.C,D1*%
X124425000Y-80500000D03*
D18*
X126965000Y-80500000D03*
%TD*%
D12*
%TO.C,C1*%
X120900000Y-114200000D03*
D13*
X123400000Y-114200000D03*
%TD*%
M02*
