M48
; DRILL file {KiCad 9.0.6} date 2025-12-01T23:05:07+0100
; FORMAT={-:-/ absolute / inch / decimal}
; #@! TF.CreationDate,2025-12-01T23:05:07+01:00
; #@! TF.GenerationSoftware,Kicad,Pcbnew,9.0.6
; #@! TF.FileFunction,Plated,1,2,PTH
FMAT,2
INCH
; #@! TA.AperFunction,Plated,PTH,ComponentDrill
T1C0.0315
; #@! TA.AperFunction,Plated,PTH,ComponentDrill
T2C0.0354
; #@! TA.AperFunction,Plated,PTH,ComponentDrill
T3C0.0394
%
G90
G05
T1
X4.6969Y-5.2795
X4.7047Y-4.9055
X4.7598Y-4.4961
X4.7969Y-5.1795
X4.8047Y-4.8055
X4.8583Y-4.4961
X4.8969Y-5.2795
X4.9047Y-4.9055
X5.3368Y-4.6368
X5.3368Y-4.7962
X5.3368Y-4.9557
X5.3368Y-5.1151
X5.3368Y-5.2746
X5.3368Y-5.434
X5.3937Y-4.4331
X5.6937Y-4.4331
X5.7368Y-4.6368
X5.7368Y-4.7962
X5.7368Y-4.9557
X5.7368Y-5.1151
X5.7368Y-5.2746
X5.7368Y-5.434
X6.0591Y-4.4
X6.0591Y-4.5
X6.0591Y-4.6
X6.0591Y-4.7
X6.3591Y-4.4
X6.3591Y-4.5
X6.3591Y-4.6
X6.3591Y-4.7
T2
X4.8986Y-3.1693
X4.9986Y-3.1693
X5.9734Y-3.1299
X6.0734Y-3.1299
T3
X6.4016Y-4.985
X6.4016Y-5.085
X6.4016Y-5.185
M30
