%TF.GenerationSoftware,KiCad,Pcbnew,9.0.6*%
%TF.CreationDate,2025-12-01T23:05:10+01:00*%
%TF.ProjectId,Coala,436f616c-612e-46b6-9963-61645f706362,rev?*%
%TF.SameCoordinates,Original*%
%TF.FileFunction,Legend,Top*%
%TF.FilePolarity,Positive*%
%FSLAX46Y46*%
G04 Gerber Fmt 4.6, Leading zero omitted, Abs format (unit mm)*
G04 Created by KiCad (PCBNEW 9.0.6) date 2025-12-01 23:05:10*
%MOMM*%
%LPD*%
G01*
G04 APERTURE LIST*
%ADD10C,0.150000*%
%ADD11C,0.120000*%
%ADD12C,0.010000*%
G04 APERTURE END LIST*
D10*
X152256905Y-76994819D02*
X152256905Y-75994819D01*
X152256905Y-75994819D02*
X152495000Y-75994819D01*
X152495000Y-75994819D02*
X152637857Y-76042438D01*
X152637857Y-76042438D02*
X152733095Y-76137676D01*
X152733095Y-76137676D02*
X152780714Y-76232914D01*
X152780714Y-76232914D02*
X152828333Y-76423390D01*
X152828333Y-76423390D02*
X152828333Y-76566247D01*
X152828333Y-76566247D02*
X152780714Y-76756723D01*
X152780714Y-76756723D02*
X152733095Y-76851961D01*
X152733095Y-76851961D02*
X152637857Y-76947200D01*
X152637857Y-76947200D02*
X152495000Y-76994819D01*
X152495000Y-76994819D02*
X152256905Y-76994819D01*
X153209286Y-76090057D02*
X153256905Y-76042438D01*
X153256905Y-76042438D02*
X153352143Y-75994819D01*
X153352143Y-75994819D02*
X153590238Y-75994819D01*
X153590238Y-75994819D02*
X153685476Y-76042438D01*
X153685476Y-76042438D02*
X153733095Y-76090057D01*
X153733095Y-76090057D02*
X153780714Y-76185295D01*
X153780714Y-76185295D02*
X153780714Y-76280533D01*
X153780714Y-76280533D02*
X153733095Y-76423390D01*
X153733095Y-76423390D02*
X153161667Y-76994819D01*
X153161667Y-76994819D02*
X153780714Y-76994819D01*
X125161905Y-83054819D02*
X125161905Y-82054819D01*
X125161905Y-82054819D02*
X125400000Y-82054819D01*
X125400000Y-82054819D02*
X125542857Y-82102438D01*
X125542857Y-82102438D02*
X125638095Y-82197676D01*
X125638095Y-82197676D02*
X125685714Y-82292914D01*
X125685714Y-82292914D02*
X125733333Y-82483390D01*
X125733333Y-82483390D02*
X125733333Y-82626247D01*
X125733333Y-82626247D02*
X125685714Y-82816723D01*
X125685714Y-82816723D02*
X125638095Y-82911961D01*
X125638095Y-82911961D02*
X125542857Y-83007200D01*
X125542857Y-83007200D02*
X125400000Y-83054819D01*
X125400000Y-83054819D02*
X125161905Y-83054819D01*
X126685714Y-83054819D02*
X126114286Y-83054819D01*
X126400000Y-83054819D02*
X126400000Y-82054819D01*
X126400000Y-82054819D02*
X126304762Y-82197676D01*
X126304762Y-82197676D02*
X126209524Y-82292914D01*
X126209524Y-82292914D02*
X126114286Y-82340533D01*
D11*
%TO.C,D2*%
X151435000Y-78264000D02*
X151435000Y-78420000D01*
X151435000Y-80580000D02*
X151435000Y-80736000D01*
X151435000Y-78264484D02*
G75*
G02*
X154667335Y-78421392I1560000J-1235516D01*
G01*
X151954039Y-78420000D02*
G75*
G02*
X154036130Y-78420163I1040961J-1080000D01*
G01*
X154036130Y-80579837D02*
G75*
G02*
X151954039Y-80580000I-1041130J1079837D01*
G01*
X154667335Y-80578608D02*
G75*
G02*
X151435000Y-80735516I-1672335J1078608D01*
G01*
%TO.C,D1*%
X124135000Y-79264000D02*
X124135000Y-79420000D01*
X124135000Y-81580000D02*
X124135000Y-81736000D01*
X124135000Y-79264484D02*
G75*
G02*
X127367335Y-79421392I1560000J-1235516D01*
G01*
X124654039Y-79420000D02*
G75*
G02*
X126736130Y-79420163I1040961J-1080000D01*
G01*
X126736130Y-81579837D02*
G75*
G02*
X124654039Y-81580000I-1041130J1079837D01*
G01*
X127367335Y-81578608D02*
G75*
G02*
X124135000Y-81735516I-1672335J1078608D01*
G01*
D12*
%TO.C,G\u002A\u002A\u002A*%
X169782837Y-46787046D02*
X171513765Y-47093703D01*
X173250943Y-47553672D01*
X174985942Y-48166533D01*
X176710336Y-48931862D01*
X176920674Y-49036197D01*
X177485787Y-49330237D01*
X178088339Y-49662109D01*
X178705919Y-50017773D01*
X179316118Y-50383188D01*
X179896523Y-50744316D01*
X180424726Y-51087117D01*
X180878315Y-51397550D01*
X181234880Y-51661576D01*
X181472010Y-51865155D01*
X181522143Y-51918935D01*
X181698179Y-52191729D01*
X181719135Y-52429180D01*
X181585009Y-52663955D01*
X181522046Y-52731283D01*
X181377976Y-52856210D01*
X181231360Y-52914033D01*
X181019631Y-52920281D01*
X180823546Y-52904619D01*
X180526494Y-52867669D01*
X180278573Y-52821723D01*
X180176988Y-52792574D01*
X180171180Y-52827141D01*
X180265406Y-52966319D01*
X180444488Y-53190617D01*
X180693250Y-53480548D01*
X180846709Y-53652556D01*
X181930696Y-54912910D01*
X182863723Y-56129727D01*
X183654006Y-57317231D01*
X184309761Y-58489650D01*
X184839204Y-59661209D01*
X185250551Y-60846133D01*
X185461433Y-61642823D01*
X185547170Y-62030570D01*
X185590247Y-62293760D01*
X185593644Y-62470901D01*
X185560335Y-62600505D01*
X185538900Y-62644879D01*
X185398691Y-62812305D01*
X185190785Y-62971954D01*
X184985846Y-63074051D01*
X184909826Y-63088000D01*
X184830381Y-63032228D01*
X184656789Y-62880553D01*
X184415011Y-62656433D01*
X184143621Y-62395648D01*
X183868298Y-62133462D01*
X183642803Y-61931201D01*
X183490388Y-61808833D01*
X183434300Y-61786329D01*
X183434300Y-61786379D01*
X183459831Y-61893232D01*
X183529855Y-62128673D01*
X183634515Y-62460916D01*
X183763957Y-62858176D01*
X183804568Y-62980541D01*
X183958097Y-63433452D01*
X184090226Y-63792924D01*
X184221149Y-64099070D01*
X184371056Y-64392004D01*
X184560140Y-64711839D01*
X184808593Y-65098686D01*
X185066769Y-65488017D01*
X185418773Y-66035964D01*
X185672890Y-66484204D01*
X185841588Y-66861465D01*
X185937331Y-67196477D01*
X185972586Y-67517970D01*
X185973472Y-67577661D01*
X185940940Y-67959419D01*
X185847593Y-68225535D01*
X185836081Y-68242989D01*
X185575217Y-68479701D01*
X185194251Y-68647722D01*
X184730545Y-68740642D01*
X184221461Y-68752050D01*
X183704361Y-68675538D01*
X183553589Y-68634583D01*
X183273321Y-68551177D01*
X183115427Y-68524843D01*
X183038884Y-68568206D01*
X183002671Y-68693894D01*
X182983909Y-68809928D01*
X182875741Y-69204141D01*
X182696335Y-69581860D01*
X182476366Y-69887903D01*
X182300908Y-70038623D01*
X182003263Y-70154963D01*
X181655164Y-70199683D01*
X181273028Y-70200000D01*
X181130638Y-71110166D01*
X180856274Y-72405398D01*
X180449261Y-73665628D01*
X179922984Y-74856477D01*
X179290827Y-75943564D01*
X179192222Y-76089015D01*
X178674039Y-76760584D01*
X178161524Y-77264986D01*
X177650321Y-77604094D01*
X177136079Y-77779778D01*
X176614444Y-77793909D01*
X176081062Y-77648358D01*
X175836151Y-77531318D01*
X175307670Y-77246483D01*
X175219310Y-77596741D01*
X175055030Y-78167192D01*
X174842473Y-78788193D01*
X174605528Y-79396118D01*
X174368079Y-79927339D01*
X174277297Y-80106000D01*
X173754670Y-80972160D01*
X173149948Y-81751148D01*
X172443169Y-82462185D01*
X171614370Y-83124487D01*
X170643587Y-83757274D01*
X170246128Y-83986811D01*
X169742231Y-84269290D01*
X169683745Y-85341478D01*
X169525809Y-87342848D01*
X169274804Y-89217553D01*
X168926092Y-90983333D01*
X168475034Y-92657931D01*
X167916994Y-94259091D01*
X167247331Y-95804553D01*
X166636739Y-96997000D01*
X166003082Y-98079351D01*
X165305101Y-99121084D01*
X164527862Y-100139390D01*
X163656429Y-101151460D01*
X162675866Y-102174487D01*
X161571239Y-103225662D01*
X160327613Y-104322178D01*
X160119677Y-104498799D01*
X160135470Y-104588858D01*
X160230198Y-104792150D01*
X160389202Y-105080796D01*
X160597822Y-105426911D01*
X160656778Y-105520355D01*
X161002606Y-106093915D01*
X161376222Y-106765839D01*
X161758040Y-107496422D01*
X162128479Y-108245960D01*
X162467956Y-108974751D01*
X162756887Y-109643089D01*
X162975691Y-110211272D01*
X162988242Y-110247333D01*
X163382928Y-111543609D01*
X163695460Y-112891473D01*
X163920330Y-114252200D01*
X164052028Y-115587064D01*
X164085045Y-116857341D01*
X164046570Y-117686399D01*
X163959634Y-118762733D01*
X164433153Y-119860200D01*
X165146338Y-121688060D01*
X165713485Y-123521281D01*
X166134367Y-125350324D01*
X166408759Y-127165649D01*
X166536436Y-128957717D01*
X166517171Y-130716989D01*
X166350739Y-132433926D01*
X166036915Y-134098987D01*
X165575472Y-135702635D01*
X164966185Y-137235330D01*
X164850013Y-137483702D01*
X164321320Y-138502049D01*
X163760899Y-139398170D01*
X163135989Y-140219170D01*
X162413831Y-141012152D01*
X162353908Y-141072742D01*
X161473167Y-141874894D01*
X160539771Y-142554502D01*
X159523034Y-143130181D01*
X158392266Y-143620546D01*
X157814456Y-143826247D01*
X156548054Y-144188562D01*
X155211602Y-144457701D01*
X153838680Y-144631848D01*
X152462866Y-144709188D01*
X151117741Y-144687908D01*
X149836884Y-144566191D01*
X148653874Y-144342224D01*
X148584962Y-144325045D01*
X147750671Y-144069388D01*
X147035654Y-143746220D01*
X146395473Y-143331312D01*
X145785693Y-142800435D01*
X145781714Y-142796535D01*
X145085974Y-142114070D01*
X143664970Y-142220755D01*
X143087997Y-142255544D01*
X142399590Y-142283269D01*
X141635626Y-142303676D01*
X140831984Y-142316511D01*
X140024542Y-142321519D01*
X139249179Y-142318447D01*
X138541771Y-142307040D01*
X137938197Y-142287044D01*
X137546385Y-142264096D01*
X136828136Y-142209000D01*
X136234051Y-142805917D01*
X135648414Y-143312603D01*
X134976800Y-143735113D01*
X134200093Y-144082041D01*
X133299175Y-144361982D01*
X132295633Y-144576395D01*
X131862910Y-144634504D01*
X131301543Y-144682810D01*
X130651998Y-144720198D01*
X129954739Y-144745554D01*
X129250235Y-144757761D01*
X128578949Y-144755704D01*
X127981349Y-144738269D01*
X127531548Y-144707699D01*
X126058738Y-144524989D01*
X124669407Y-144271903D01*
X123382690Y-143953236D01*
X122217722Y-143573778D01*
X121193638Y-143138323D01*
X121119633Y-143101840D01*
X119889644Y-142395761D01*
X118760574Y-141556501D01*
X117736588Y-140589846D01*
X116821847Y-139501583D01*
X116020515Y-138297497D01*
X115336753Y-136983376D01*
X114774725Y-135565004D01*
X114338594Y-134048169D01*
X114219739Y-133511095D01*
X114089709Y-132742001D01*
X113985727Y-131852147D01*
X113910326Y-130888466D01*
X113866036Y-129897891D01*
X113863971Y-129709579D01*
X115628211Y-129709579D01*
X115644794Y-130553491D01*
X115696735Y-131327028D01*
X115787589Y-132078482D01*
X115920908Y-132856146D01*
X115960600Y-133056906D01*
X116179386Y-133962528D01*
X116469595Y-134895093D01*
X116815620Y-135816978D01*
X117201852Y-136690558D01*
X117612684Y-137478211D01*
X118032505Y-138142312D01*
X118119999Y-138262089D01*
X118423202Y-138632751D01*
X118810351Y-139057879D01*
X119247204Y-139504169D01*
X119699517Y-139938318D01*
X120133048Y-140327022D01*
X120513554Y-140636977D01*
X120695387Y-140766837D01*
X121759528Y-141379368D01*
X122946460Y-141896870D01*
X124234484Y-142312616D01*
X125601903Y-142619880D01*
X127027021Y-142811934D01*
X127384966Y-142840821D01*
X127769146Y-142867705D01*
X128075675Y-142887627D01*
X128336687Y-142900642D01*
X128584320Y-142906806D01*
X128850710Y-142906172D01*
X129167992Y-142898796D01*
X129568303Y-142884731D01*
X130083778Y-142864034D01*
X130517633Y-142846151D01*
X131196000Y-142814842D01*
X131733683Y-142781357D01*
X132159331Y-142742733D01*
X132501591Y-142696006D01*
X132789111Y-142638213D01*
X132959304Y-142593570D01*
X133704656Y-142336700D01*
X134302860Y-142029069D01*
X134771868Y-141657553D01*
X135129628Y-141209031D01*
X135308047Y-140876498D01*
X135415115Y-140627806D01*
X135485307Y-140410095D01*
X135526417Y-140175492D01*
X135546239Y-139876125D01*
X135552567Y-139464121D01*
X135552878Y-139372666D01*
X135547632Y-138897657D01*
X135524563Y-138537560D01*
X135476739Y-138238304D01*
X135397227Y-137945817D01*
X135352836Y-137812331D01*
X135150398Y-137225662D01*
X134940550Y-137642997D01*
X134622287Y-138183395D01*
X134281685Y-138592669D01*
X133930628Y-138861502D01*
X133581006Y-138980573D01*
X133272848Y-138950504D01*
X133049138Y-138852370D01*
X132891801Y-138741355D01*
X132884545Y-138733143D01*
X132808701Y-138679358D01*
X132731529Y-138737999D01*
X132623530Y-138931750D01*
X132621851Y-138935141D01*
X132360028Y-139351254D01*
X132049348Y-139618588D01*
X131664606Y-139756039D01*
X131497718Y-139777819D01*
X131221243Y-139778041D01*
X130932536Y-139724325D01*
X130597077Y-139605227D01*
X130180346Y-139409301D01*
X129830512Y-139225037D01*
X129791690Y-139283112D01*
X129751539Y-139462551D01*
X129733988Y-139590742D01*
X129610114Y-140048293D01*
X129358627Y-140398010D01*
X128987505Y-140633494D01*
X128504726Y-140748347D01*
X128277320Y-140759083D01*
X127792691Y-140705971D01*
X127357481Y-140559079D01*
X126999735Y-140337072D01*
X126747495Y-140058615D01*
X126628805Y-139742373D01*
X126623283Y-139658200D01*
X126675879Y-139462268D01*
X126841477Y-139343935D01*
X127130552Y-139301474D01*
X127553581Y-139333161D01*
X128053153Y-139422733D01*
X128340339Y-139483307D01*
X128300250Y-139068153D01*
X128246083Y-138803429D01*
X128134448Y-138444514D01*
X127984098Y-138048428D01*
X127902897Y-137860095D01*
X127755166Y-137513894D01*
X127642696Y-137214872D01*
X127579564Y-137002629D01*
X127571864Y-136928761D01*
X127658915Y-136825484D01*
X127884833Y-136770850D01*
X127957837Y-136764267D01*
X128284074Y-136796650D01*
X128732307Y-136928638D01*
X129291034Y-137155662D01*
X129948749Y-137473158D01*
X130535263Y-137787443D01*
X130892400Y-137980304D01*
X131131441Y-138092471D01*
X131277742Y-138133225D01*
X131356661Y-138111842D01*
X131371739Y-138093528D01*
X131400811Y-137966542D01*
X131424816Y-137707875D01*
X131441265Y-137355159D01*
X131447669Y-136946025D01*
X131447670Y-136945424D01*
X131452240Y-136534264D01*
X131463724Y-136177551D01*
X131480383Y-135913654D01*
X131500358Y-135781258D01*
X131621963Y-135677693D01*
X131800318Y-135647333D01*
X132023618Y-135715602D01*
X132310277Y-135905565D01*
X132634497Y-136194952D01*
X132970482Y-136561493D01*
X133204010Y-136859063D01*
X133373884Y-137083846D01*
X133474403Y-137186968D01*
X133533380Y-137185443D01*
X133578629Y-137096288D01*
X133581067Y-137089735D01*
X133657950Y-136797471D01*
X133702511Y-136458444D01*
X133711019Y-136134819D01*
X133679742Y-135888762D01*
X133656754Y-135828726D01*
X133470888Y-135618881D01*
X133144897Y-135396519D01*
X132706101Y-135174319D01*
X132181823Y-134964958D01*
X131599385Y-134781114D01*
X131166598Y-134673264D01*
X130605153Y-134588955D01*
X129931524Y-134551042D01*
X129195830Y-134557639D01*
X128448192Y-134606862D01*
X127738729Y-134696826D01*
X127118101Y-134825504D01*
X126512443Y-135017614D01*
X125816882Y-135292977D01*
X125075625Y-135631468D01*
X124332881Y-136012957D01*
X123664274Y-136398023D01*
X123352038Y-136581131D01*
X123089483Y-136720216D01*
X122912010Y-136797321D01*
X122859941Y-136806031D01*
X122754442Y-136700309D01*
X122767212Y-136508139D01*
X122883318Y-136247622D01*
X123087828Y-135936863D01*
X123365811Y-135593967D01*
X123702334Y-135237035D01*
X124082466Y-134884173D01*
X124491274Y-134553484D01*
X124913826Y-134263073D01*
X125001232Y-134209895D01*
X126136807Y-133624297D01*
X127292096Y-133205942D01*
X128471717Y-132953411D01*
X129359460Y-132872608D01*
X130551637Y-132896352D01*
X131684309Y-133071286D01*
X132784835Y-133403239D01*
X133673005Y-133791987D01*
X134610565Y-134323139D01*
X135399404Y-134915273D01*
X136053776Y-135583412D01*
X136587938Y-136342577D01*
X137016144Y-137207789D01*
X137089151Y-137391806D01*
X137180729Y-137650933D01*
X137246308Y-137898131D01*
X137291814Y-138174190D01*
X137323177Y-138519899D01*
X137346325Y-138976049D01*
X137355513Y-139224500D01*
X137398641Y-140473333D01*
X138339637Y-140473184D01*
X138670742Y-140471254D01*
X139139493Y-140465876D01*
X139714249Y-140457549D01*
X140363367Y-140446773D01*
X141055206Y-140434047D01*
X141758125Y-140419871D01*
X141874894Y-140417386D01*
X144469156Y-140361736D01*
X144497618Y-139469359D01*
X146271096Y-139469359D01*
X146345557Y-140150275D01*
X146509303Y-140760138D01*
X146627963Y-141030029D01*
X146910394Y-141416681D01*
X147334475Y-141782978D01*
X147872558Y-142111963D01*
X148496993Y-142386680D01*
X149166846Y-142587089D01*
X149485559Y-142660597D01*
X149752688Y-142717288D01*
X149996557Y-142759076D01*
X150245491Y-142787870D01*
X150527814Y-142805583D01*
X150871850Y-142814125D01*
X151305923Y-142815408D01*
X151858358Y-142811343D01*
X152403966Y-142805532D01*
X153102155Y-142795483D01*
X153662916Y-142780974D01*
X154118138Y-142759750D01*
X154499711Y-142729557D01*
X154839526Y-142688139D01*
X155169473Y-142633242D01*
X155357018Y-142596744D01*
X156758859Y-142248086D01*
X158031312Y-141793067D01*
X159180781Y-141226490D01*
X160213670Y-140543161D01*
X161136381Y-139737883D01*
X161955320Y-138805460D01*
X162676890Y-137740697D01*
X163307495Y-136538396D01*
X163571186Y-135931875D01*
X163997149Y-134760611D01*
X164316521Y-133574015D01*
X164537021Y-132333607D01*
X164666365Y-131000907D01*
X164698535Y-130311026D01*
X164710273Y-129137964D01*
X164663986Y-128022197D01*
X164554324Y-126926780D01*
X164375934Y-125814766D01*
X164123467Y-124649209D01*
X163791570Y-123393161D01*
X163603563Y-122750883D01*
X163251780Y-121580766D01*
X163023089Y-122200550D01*
X162475239Y-123543152D01*
X161834410Y-124866048D01*
X161118140Y-126140603D01*
X160343968Y-127338180D01*
X159529431Y-128430144D01*
X158692069Y-129387858D01*
X158502334Y-129581891D01*
X157590199Y-130403903D01*
X156652102Y-131066330D01*
X155670557Y-131578706D01*
X154628076Y-131950567D01*
X153810450Y-132140274D01*
X153434232Y-132217317D01*
X153175035Y-132295903D01*
X152981732Y-132397579D01*
X152803195Y-132543890D01*
X152763800Y-132581331D01*
X152584420Y-132763397D01*
X152469305Y-132897473D01*
X152446300Y-132938672D01*
X152523346Y-132975515D01*
X152727791Y-133027761D01*
X153019591Y-133085570D01*
X153102264Y-133099867D01*
X153519458Y-133185531D01*
X153998515Y-133308549D01*
X154498968Y-133455869D01*
X154980347Y-133614440D01*
X155402183Y-133771212D01*
X155724008Y-133913133D01*
X155855162Y-133987670D01*
X156040955Y-134146150D01*
X156150519Y-134302083D01*
X156158211Y-134327832D01*
X156122515Y-134499024D01*
X155985145Y-134597724D01*
X155856798Y-134591790D01*
X155739425Y-134572280D01*
X155485778Y-134543974D01*
X155128487Y-134510087D01*
X154700186Y-134473830D01*
X154498630Y-134458031D01*
X153274494Y-134411183D01*
X152093844Y-134457720D01*
X150984133Y-134594468D01*
X149972812Y-134818253D01*
X149229468Y-135067159D01*
X148740034Y-135279309D01*
X148396581Y-135473147D01*
X148179385Y-135665227D01*
X148068721Y-135872103D01*
X148043633Y-136062341D01*
X148066470Y-136335236D01*
X148124732Y-136602266D01*
X148203041Y-136812343D01*
X148286022Y-136914377D01*
X148300967Y-136917333D01*
X148383350Y-136854784D01*
X148535887Y-136689414D01*
X148728163Y-136454635D01*
X148762867Y-136409895D01*
X149029869Y-136082782D01*
X149243470Y-135877074D01*
X149436518Y-135768454D01*
X149641866Y-135732607D01*
X149678700Y-135732000D01*
X149844810Y-135757773D01*
X149964238Y-135851344D01*
X150047053Y-136037088D01*
X150103326Y-136339381D01*
X150143128Y-136782596D01*
X150148734Y-136869737D01*
X150180660Y-137248605D01*
X150223221Y-137566842D01*
X150270157Y-137784336D01*
X150302573Y-137855473D01*
X150384049Y-137880499D01*
X150541714Y-137850184D01*
X150796524Y-137757532D01*
X151169433Y-137595548D01*
X151402718Y-137488236D01*
X152155044Y-137154121D01*
X152781113Y-136910673D01*
X153277513Y-136758915D01*
X153640829Y-136699872D01*
X153867650Y-136734569D01*
X153883186Y-136743549D01*
X153946677Y-136836230D01*
X153945795Y-137006462D01*
X153876041Y-137273809D01*
X153732918Y-137657839D01*
X153599974Y-137975666D01*
X153477936Y-138320624D01*
X153398341Y-138664417D01*
X153379642Y-138855550D01*
X153377633Y-139227433D01*
X154313712Y-139168201D01*
X155249792Y-139108969D01*
X155192458Y-139431318D01*
X155043074Y-139812330D01*
X154755287Y-140122594D01*
X154349678Y-140349647D01*
X153846829Y-140481028D01*
X153412180Y-140509223D01*
X152903141Y-140445435D01*
X152509109Y-140261538D01*
X152222134Y-139950389D01*
X152034268Y-139504845D01*
X151972816Y-139215865D01*
X151927400Y-139004956D01*
X151880009Y-138892810D01*
X151863455Y-138886880D01*
X151217119Y-139186009D01*
X150629739Y-139340037D01*
X150108885Y-139347830D01*
X149674819Y-139214821D01*
X149309107Y-138965532D01*
X149037864Y-138654866D01*
X148928473Y-138428228D01*
X148841327Y-138308197D01*
X148734484Y-138320184D01*
X148391582Y-138413993D01*
X148039564Y-138427199D01*
X147919269Y-138407227D01*
X147653379Y-138278729D01*
X147362773Y-138042509D01*
X147095649Y-137743672D01*
X146923862Y-137475682D01*
X146745400Y-137129000D01*
X146588770Y-137484725D01*
X146392167Y-138088141D01*
X146286454Y-138765833D01*
X146271096Y-139469359D01*
X144497618Y-139469359D01*
X144505858Y-139211034D01*
X144527203Y-138697098D01*
X144558343Y-138303826D01*
X144606431Y-137982570D01*
X144678621Y-137684682D01*
X144774679Y-137383000D01*
X145177957Y-136465484D01*
X145731601Y-135621888D01*
X146380450Y-134907912D01*
X146844049Y-134502515D01*
X147340856Y-134143203D01*
X147900053Y-133813765D01*
X148550824Y-133497992D01*
X149322354Y-133179671D01*
X149839828Y-132986346D01*
X150210617Y-132788603D01*
X150556888Y-132461278D01*
X150591383Y-132420742D01*
X150766546Y-132202557D01*
X150881754Y-132041480D01*
X150911855Y-131974187D01*
X150820138Y-131936812D01*
X150615955Y-131866762D01*
X150414300Y-131801687D01*
X149904900Y-131600255D01*
X149336888Y-131309142D01*
X148767532Y-130962141D01*
X148254103Y-130593043D01*
X147997262Y-130375536D01*
X147415703Y-129742158D01*
X147244125Y-129485867D01*
X149860288Y-129485867D01*
X149889563Y-129554475D01*
X150001813Y-129647135D01*
X150162724Y-129766820D01*
X150229991Y-129791552D01*
X150243862Y-129730044D01*
X150243670Y-129699500D01*
X150186362Y-129504765D01*
X150047698Y-129420531D01*
X149952711Y-129434484D01*
X149860288Y-129485867D01*
X147244125Y-129485867D01*
X146913428Y-128991899D01*
X146535908Y-128208099D01*
X146458826Y-128006051D01*
X146401863Y-127824324D01*
X146361937Y-127632628D01*
X146335964Y-127400673D01*
X146320861Y-127098170D01*
X146313543Y-126694829D01*
X146310927Y-126160361D01*
X146310635Y-125995333D01*
X146314472Y-125303591D01*
X146333005Y-124735130D01*
X146373327Y-124244069D01*
X146442531Y-123784525D01*
X146547709Y-123310618D01*
X146695952Y-122776466D01*
X146894354Y-122136188D01*
X146919217Y-122058333D01*
X147283650Y-120992252D01*
X147693791Y-119937156D01*
X148161379Y-118868371D01*
X148698154Y-117761226D01*
X149315855Y-116591050D01*
X150026222Y-115333170D01*
X150509084Y-114513899D01*
X150802564Y-114028781D01*
X151026988Y-113675137D01*
X151195643Y-113436476D01*
X151321814Y-113296309D01*
X151418790Y-113238145D01*
X151499857Y-113245495D01*
X151521695Y-113257158D01*
X151570222Y-113337422D01*
X151579187Y-113499730D01*
X151546300Y-113751591D01*
X151469272Y-114100517D01*
X151345814Y-114554018D01*
X151173636Y-115119605D01*
X150950450Y-115804787D01*
X150673965Y-116617076D01*
X150341894Y-117563981D01*
X149951946Y-118653014D01*
X149501833Y-119891684D01*
X149487703Y-119930341D01*
X149149392Y-120865243D01*
X148869273Y-121663485D01*
X148641875Y-122345317D01*
X148461722Y-122930986D01*
X148323342Y-123440743D01*
X148221260Y-123894837D01*
X148150004Y-124313515D01*
X148104099Y-124717027D01*
X148078073Y-125125623D01*
X148077108Y-125148666D01*
X148037337Y-126122333D01*
X148248304Y-125730930D01*
X148446510Y-125426496D01*
X148677058Y-125167067D01*
X148905257Y-124984639D01*
X149096412Y-124911212D01*
X149134423Y-124913651D01*
X149191285Y-124935545D01*
X149230725Y-124990135D01*
X149253460Y-125099805D01*
X149260205Y-125286936D01*
X149251678Y-125573913D01*
X149228593Y-125983116D01*
X149191668Y-126536930D01*
X149188048Y-126589453D01*
X149161064Y-127017780D01*
X149152296Y-127318038D01*
X149165263Y-127530852D01*
X149203484Y-127696848D01*
X149270478Y-127856650D01*
X149303576Y-127922953D01*
X149419390Y-128132937D01*
X149507267Y-128261915D01*
X149531917Y-128281333D01*
X149604640Y-128223886D01*
X149770247Y-128067067D01*
X150004878Y-127834161D01*
X150284671Y-127548453D01*
X150313363Y-127518759D01*
X150599955Y-127228578D01*
X150848532Y-126989521D01*
X151033833Y-126825005D01*
X151130597Y-126758444D01*
X151133966Y-126758055D01*
X151286675Y-126804990D01*
X151404262Y-126948092D01*
X151490255Y-127202169D01*
X151548184Y-127582028D01*
X151581576Y-128102477D01*
X151593452Y-128686219D01*
X151620401Y-129296058D01*
X151696484Y-129756250D01*
X151829240Y-130081295D01*
X152026209Y-130285691D01*
X152294930Y-130383938D01*
X152483602Y-130398000D01*
X152712648Y-130389144D01*
X152826600Y-130335026D01*
X152879651Y-130194320D01*
X152899956Y-130080500D01*
X152936453Y-129768569D01*
X152953687Y-129443151D01*
X152953840Y-129424333D01*
X152994073Y-128987042D01*
X153100618Y-128588171D01*
X153257785Y-128259827D01*
X153449887Y-128034121D01*
X153661234Y-127943161D01*
X153677780Y-127942666D01*
X153866767Y-127992553D01*
X154007317Y-128153373D01*
X154106934Y-128441870D01*
X154173122Y-128874785D01*
X154191699Y-129089142D01*
X154224905Y-129446213D01*
X154265807Y-129750061D01*
X154307426Y-129952497D01*
X154322875Y-129994605D01*
X154378380Y-130075927D01*
X154461904Y-130096355D01*
X154620492Y-130054847D01*
X154813558Y-129983750D01*
X155388548Y-129702542D01*
X156013390Y-129283339D01*
X156669227Y-128742915D01*
X157337203Y-128098043D01*
X157998463Y-127365497D01*
X158583339Y-126630333D01*
X159600795Y-125153415D01*
X160462167Y-123652408D01*
X161164260Y-122134325D01*
X161703880Y-120606178D01*
X162077830Y-119074981D01*
X162112834Y-118883333D01*
X162163079Y-118475482D01*
X162198014Y-117937813D01*
X162217944Y-117309123D01*
X162223174Y-116628204D01*
X162214008Y-115933853D01*
X162190751Y-115264863D01*
X162153707Y-114660029D01*
X162103180Y-114158147D01*
X162074229Y-113965208D01*
X161675556Y-112159924D01*
X161117228Y-110410659D01*
X160399846Y-108719242D01*
X160239190Y-108391754D01*
X159999554Y-107932260D01*
X159727472Y-107439804D01*
X159444359Y-106950499D01*
X159171630Y-106500457D01*
X158930700Y-106125789D01*
X158742985Y-105862607D01*
X158728835Y-105844885D01*
X158570991Y-105649956D01*
X157561812Y-106264284D01*
X155737670Y-107279562D01*
X153806738Y-108173866D01*
X151782383Y-108945536D01*
X149677972Y-109592913D01*
X147506872Y-110114339D01*
X145282447Y-110508154D01*
X143018066Y-110772700D01*
X140727094Y-110906318D01*
X138422899Y-110907348D01*
X136118846Y-110774133D01*
X133828302Y-110505014D01*
X131564634Y-110098330D01*
X129882633Y-109699435D01*
X127806109Y-109080849D01*
X125846706Y-108346855D01*
X123993657Y-107493031D01*
X122470945Y-106656003D01*
X122139667Y-106463914D01*
X121858426Y-106309389D01*
X121660923Y-106210419D01*
X121585595Y-106183333D01*
X121503273Y-106254150D01*
X121358608Y-106449177D01*
X121167164Y-106742277D01*
X120944505Y-107107312D01*
X120706194Y-107518144D01*
X120467797Y-107948637D01*
X120244877Y-108372653D01*
X120068448Y-108731146D01*
X119519236Y-110049676D01*
X119071743Y-111447517D01*
X118729905Y-112895701D01*
X118497656Y-114365260D01*
X118378931Y-115827228D01*
X118377664Y-117252636D01*
X118497789Y-118612518D01*
X118624736Y-119360310D01*
X118930718Y-120568403D01*
X119352952Y-121782448D01*
X119878725Y-122984323D01*
X120495322Y-124155908D01*
X121190030Y-125279083D01*
X121950134Y-126335729D01*
X122762920Y-127307723D01*
X123615673Y-128176947D01*
X124495681Y-128925281D01*
X125390229Y-129534603D01*
X125987966Y-129854438D01*
X126351237Y-130017837D01*
X126692551Y-130155769D01*
X126960596Y-130248158D01*
X127054050Y-130271549D01*
X127358134Y-130327144D01*
X127412683Y-129250860D01*
X127440892Y-128829270D01*
X127477977Y-128466761D01*
X127519402Y-128199201D01*
X127560632Y-128062455D01*
X127563466Y-128058621D01*
X127747863Y-127953341D01*
X127979295Y-127977566D01*
X128203767Y-128124908D01*
X128214012Y-128135577D01*
X128435981Y-128478909D01*
X128599602Y-128967173D01*
X128700086Y-129584664D01*
X128716633Y-129784166D01*
X128763502Y-130482666D01*
X129121149Y-130482666D01*
X129499796Y-130415298D01*
X129786697Y-130225621D01*
X129955783Y-129932274D01*
X129970510Y-129875381D01*
X129994226Y-129699741D01*
X129999500Y-129638978D01*
X131533633Y-129638978D01*
X131555591Y-129757403D01*
X131652403Y-129746096D01*
X131705338Y-129719397D01*
X131819734Y-129618939D01*
X131827341Y-129547085D01*
X131706680Y-129466282D01*
X131583298Y-129510712D01*
X131533633Y-129638978D01*
X129999500Y-129638978D01*
X130021002Y-129391279D01*
X130048251Y-128986413D01*
X130073388Y-128521561D01*
X130084969Y-128263345D01*
X130110208Y-127724639D01*
X130138850Y-127332209D01*
X130177514Y-127063028D01*
X130232820Y-126894069D01*
X130311386Y-126802306D01*
X130419834Y-126764711D01*
X130517633Y-126758287D01*
X130621746Y-126816356D01*
X130812838Y-126975881D01*
X131064185Y-127212842D01*
X131349062Y-127503215D01*
X131364300Y-127519333D01*
X131643904Y-127810668D01*
X131883136Y-128050606D01*
X132057684Y-128215417D01*
X132143240Y-128281374D01*
X132145292Y-128281675D01*
X132221069Y-128214083D01*
X132329647Y-128047753D01*
X132352379Y-128006166D01*
X132431389Y-127752957D01*
X132482288Y-127365155D01*
X132504073Y-126875313D01*
X132495744Y-126315986D01*
X132456298Y-125719730D01*
X132430450Y-125468210D01*
X132396516Y-125134584D01*
X132391020Y-124931314D01*
X132417634Y-124821245D01*
X132480034Y-124767221D01*
X132500629Y-124758510D01*
X132660206Y-124781433D01*
X132875095Y-124928558D01*
X133119448Y-125175473D01*
X133367416Y-125497764D01*
X133496388Y-125699000D01*
X133749495Y-126122333D01*
X133700768Y-125233333D01*
X133667841Y-124818669D01*
X133611311Y-124397258D01*
X133526002Y-123952264D01*
X133406740Y-123466852D01*
X133248350Y-122924187D01*
X133045655Y-122307433D01*
X132793480Y-121599756D01*
X132486651Y-120784320D01*
X132119992Y-119844290D01*
X131787767Y-119010333D01*
X131388262Y-118002888D01*
X131006916Y-117019001D01*
X130649377Y-116074538D01*
X130321294Y-115185367D01*
X130028315Y-114367353D01*
X129776089Y-113636363D01*
X129570265Y-113008264D01*
X129416492Y-112498923D01*
X129320418Y-112124206D01*
X129301046Y-112025333D01*
X129290109Y-111749316D01*
X129357738Y-111576026D01*
X129491334Y-111531780D01*
X129531806Y-111543284D01*
X129602554Y-111585723D01*
X129686954Y-111671771D01*
X129794276Y-111816674D01*
X129933792Y-112035678D01*
X130114773Y-112344027D01*
X130346488Y-112756966D01*
X130638211Y-113289740D01*
X130993022Y-113946103D01*
X131706381Y-115281196D01*
X132337272Y-116485492D01*
X132891796Y-117572515D01*
X133376056Y-118555791D01*
X133796155Y-119448843D01*
X134158194Y-120265198D01*
X134468277Y-121018380D01*
X134732505Y-121721914D01*
X134956982Y-122389324D01*
X135147810Y-123034135D01*
X135226346Y-123328333D01*
X135311986Y-123671939D01*
X135374602Y-123965816D01*
X135417808Y-124247840D01*
X135445218Y-124555885D01*
X135460445Y-124927826D01*
X135467101Y-125401537D01*
X135468672Y-125868333D01*
X135465877Y-126509439D01*
X135451008Y-127017089D01*
X135416973Y-127427084D01*
X135356679Y-127775229D01*
X135263035Y-128097325D01*
X135128947Y-128429176D01*
X134947323Y-128806585D01*
X134848102Y-129001000D01*
X134559847Y-129458792D01*
X134163666Y-129948536D01*
X133702605Y-130425490D01*
X133219709Y-130844916D01*
X132782734Y-131147690D01*
X131810277Y-131626148D01*
X130765556Y-131967940D01*
X129674804Y-132171689D01*
X128564256Y-132236016D01*
X127460144Y-132159542D01*
X126388702Y-131940890D01*
X125376165Y-131578680D01*
X125293585Y-131541196D01*
X124414864Y-131070606D01*
X123536499Y-130467894D01*
X122640317Y-129720019D01*
X122257296Y-129362429D01*
X121059464Y-128105057D01*
X120000504Y-126766401D01*
X119072773Y-125334468D01*
X118268632Y-123797269D01*
X117580441Y-122142812D01*
X117480015Y-121864823D01*
X117171653Y-120993980D01*
X116773877Y-122245823D01*
X116403924Y-123488069D01*
X116117453Y-124638736D01*
X115905697Y-125748242D01*
X115759889Y-126867007D01*
X115671262Y-128045452D01*
X115643432Y-128747000D01*
X115628211Y-129709579D01*
X113863971Y-129709579D01*
X113855392Y-128927355D01*
X113880924Y-128023790D01*
X113904130Y-127661356D01*
X114084487Y-126064960D01*
X114376529Y-124442988D01*
X114769633Y-122836433D01*
X115253172Y-121286285D01*
X115816522Y-119833536D01*
X116089298Y-119230784D01*
X116547633Y-118265902D01*
X116547922Y-117071784D01*
X116622277Y-115133578D01*
X116843503Y-113264373D01*
X117210279Y-111469129D01*
X117721280Y-109752808D01*
X118375184Y-108120372D01*
X119170667Y-106576781D01*
X119487181Y-106050607D01*
X119738815Y-105652577D01*
X119908319Y-105370297D01*
X119993882Y-105170442D01*
X119993693Y-105019692D01*
X119905941Y-104884722D01*
X119728817Y-104732210D01*
X119460508Y-104528834D01*
X119402057Y-104483997D01*
X119044178Y-104188572D01*
X118605109Y-103795982D01*
X118111015Y-103332436D01*
X117588060Y-102824146D01*
X117062410Y-102297320D01*
X116560228Y-101778171D01*
X116107680Y-101292908D01*
X115730930Y-100867742D01*
X115463115Y-100538155D01*
X114439113Y-99065726D01*
X113515834Y-97504149D01*
X112706701Y-95882025D01*
X112025136Y-94227950D01*
X111484564Y-92570523D01*
X111207962Y-91472500D01*
X111122593Y-91115560D01*
X111041812Y-90829864D01*
X110976116Y-90649770D01*
X110942823Y-90604666D01*
X110830930Y-90640297D01*
X110624005Y-90731588D01*
X110469985Y-90806890D01*
X110141577Y-90960559D01*
X109815652Y-91081262D01*
X109461811Y-91174721D01*
X109049654Y-91246661D01*
X108548783Y-91302804D01*
X107928798Y-91348874D01*
X107445966Y-91376209D01*
X106727722Y-91407560D01*
X106148793Y-91415494D01*
X105680207Y-91395413D01*
X105292996Y-91342721D01*
X104958189Y-91252817D01*
X104646815Y-91121106D01*
X104329906Y-90942987D01*
X104200265Y-90861055D01*
X103567129Y-90396423D01*
X102949130Y-89827175D01*
X102338149Y-89142715D01*
X101726068Y-88332446D01*
X101104769Y-87385772D01*
X100466134Y-86292096D01*
X99925247Y-85280912D01*
X99648990Y-84759456D01*
X99435353Y-84384899D01*
X99285885Y-84159735D01*
X99202134Y-84086459D01*
X99189421Y-84095579D01*
X99156724Y-84216914D01*
X99104578Y-84486208D01*
X99036130Y-84883599D01*
X98954529Y-85389227D01*
X98862924Y-85983230D01*
X98764462Y-86645749D01*
X98662293Y-87356922D01*
X98587909Y-87890082D01*
X98524171Y-88280127D01*
X98452360Y-88543627D01*
X98358365Y-88723261D01*
X98283679Y-88810317D01*
X98100129Y-88946714D01*
X97899361Y-88993706D01*
X97670554Y-88943632D01*
X97402891Y-88788833D01*
X97085552Y-88521648D01*
X96707717Y-88134418D01*
X96258569Y-87619482D01*
X95784979Y-87041219D01*
X95227138Y-86314190D01*
X94723189Y-85584335D01*
X94247389Y-84810107D01*
X93773993Y-83949959D01*
X93350064Y-83111666D01*
X92860694Y-82074382D01*
X92453884Y-81118837D01*
X92110716Y-80191213D01*
X91812274Y-79237688D01*
X91539640Y-78204445D01*
X91371048Y-77481333D01*
X91229638Y-76797529D01*
X91124489Y-76155553D01*
X91051258Y-75510437D01*
X91005604Y-74817212D01*
X90983184Y-74030909D01*
X90978994Y-73421042D01*
X90978299Y-71858418D01*
X90124588Y-72764876D01*
X89760952Y-73138741D01*
X89459911Y-73423424D01*
X89236646Y-73605437D01*
X89106338Y-73671291D01*
X89104383Y-73671333D01*
X88848480Y-73621217D01*
X88618571Y-73495252D01*
X88469019Y-73330014D01*
X88440484Y-73224659D01*
X88466382Y-72709696D01*
X88529998Y-72068087D01*
X88625501Y-71336823D01*
X88747060Y-70552897D01*
X88888844Y-69753298D01*
X89045023Y-68975020D01*
X89209764Y-68255053D01*
X89247661Y-68103914D01*
X89601244Y-66910514D01*
X90054399Y-65684793D01*
X90584835Y-64477679D01*
X91170258Y-63340099D01*
X91758266Y-62368333D01*
X92013352Y-62013272D01*
X92331552Y-61616571D01*
X92684620Y-61208911D01*
X93044308Y-60820972D01*
X93382368Y-60483435D01*
X93670555Y-60226981D01*
X93845556Y-60101200D01*
X94020789Y-60006975D01*
X94112110Y-60004143D01*
X94179968Y-60095589D01*
X94191917Y-60117723D01*
X94215325Y-60207891D01*
X94192365Y-60334637D01*
X94111978Y-60522840D01*
X93963104Y-60797379D01*
X93734684Y-61183131D01*
X93673390Y-61284190D01*
X93220254Y-62067693D01*
X92757989Y-62936840D01*
X92306775Y-63848968D01*
X91886793Y-64761410D01*
X91518223Y-65631504D01*
X91221246Y-66416584D01*
X91158199Y-66601666D01*
X90997304Y-67106202D01*
X90832725Y-67655983D01*
X90671315Y-68224392D01*
X90519926Y-68784814D01*
X90385411Y-69310631D01*
X90274624Y-69775226D01*
X90194417Y-70151983D01*
X90151644Y-70414284D01*
X90148709Y-70522474D01*
X90197356Y-70548849D01*
X90323535Y-70480510D01*
X90538577Y-70309013D01*
X90853809Y-70025912D01*
X91007957Y-69881918D01*
X91423062Y-69503205D01*
X91744028Y-69241931D01*
X91988577Y-69088411D01*
X92174432Y-69032956D01*
X92319315Y-69065883D01*
X92394208Y-69124289D01*
X92454466Y-69207810D01*
X92483790Y-69330406D01*
X92483691Y-69528816D01*
X92455679Y-69839779D01*
X92432095Y-70045433D01*
X92296829Y-71900190D01*
X92327438Y-73775070D01*
X92522795Y-75662197D01*
X92881771Y-77553692D01*
X93403240Y-79441679D01*
X94023208Y-81162952D01*
X94313976Y-81833815D01*
X94668202Y-82563967D01*
X95067362Y-83321499D01*
X95492936Y-84074502D01*
X95926402Y-84791065D01*
X96349238Y-85439280D01*
X96742923Y-85987237D01*
X97021803Y-86329000D01*
X97321251Y-86667666D01*
X97324775Y-85804169D01*
X97347221Y-85158327D01*
X97406030Y-84465316D01*
X97495927Y-83749984D01*
X97611639Y-83037179D01*
X97747889Y-82351750D01*
X97899404Y-81718546D01*
X98060908Y-81162413D01*
X98227127Y-80708200D01*
X98392786Y-80380756D01*
X98505933Y-80239968D01*
X98766540Y-80105855D01*
X99067341Y-80096062D01*
X99348937Y-80200188D01*
X99551930Y-80407831D01*
X99561021Y-80424726D01*
X99636190Y-80629667D01*
X99713208Y-80932574D01*
X99768229Y-81225333D01*
X99857244Y-81634344D01*
X99992391Y-81942099D01*
X100113087Y-82114333D01*
X100224716Y-82280008D01*
X100398446Y-82571033D01*
X100619862Y-82961697D01*
X100874553Y-83426290D01*
X101148104Y-83939100D01*
X101312925Y-84254666D01*
X101869091Y-85312022D01*
X102367551Y-86223751D01*
X102815368Y-87000684D01*
X103219605Y-87653650D01*
X103587325Y-88193482D01*
X103925590Y-88631008D01*
X104241463Y-88977059D01*
X104542008Y-89242466D01*
X104588630Y-89277789D01*
X104805105Y-89432918D01*
X104958476Y-89532981D01*
X105009501Y-89555686D01*
X104992762Y-89473045D01*
X104929202Y-89280116D01*
X104861624Y-89095878D01*
X104743034Y-88746321D01*
X104702138Y-88501723D01*
X104736222Y-88318024D01*
X104806270Y-88197902D01*
X104898291Y-88100544D01*
X105005400Y-88099525D01*
X105166103Y-88174219D01*
X105353056Y-88290696D01*
X105616535Y-88477996D01*
X105903347Y-88698106D01*
X105937622Y-88725576D01*
X106272177Y-88973524D01*
X106640387Y-89213637D01*
X106953622Y-89389243D01*
X107202049Y-89502797D01*
X107421402Y-89574181D01*
X107664828Y-89612942D01*
X107985476Y-89628630D01*
X108299231Y-89631000D01*
X108694272Y-89627963D01*
X108979099Y-89609770D01*
X109212824Y-89562794D01*
X109454562Y-89473406D01*
X109763423Y-89327981D01*
X109894370Y-89263280D01*
X110636245Y-88895560D01*
X110585780Y-88458946D01*
X110559848Y-88141877D01*
X110536995Y-87683312D01*
X110517443Y-87111065D01*
X110501413Y-86452949D01*
X110489128Y-85736777D01*
X110480808Y-84990363D01*
X110476674Y-84241521D01*
X110476949Y-83518064D01*
X110481854Y-82847805D01*
X110491610Y-82258558D01*
X110506438Y-81778136D01*
X110526560Y-81434352D01*
X110529591Y-81400999D01*
X110791170Y-79356177D01*
X111174860Y-77355725D01*
X111675234Y-75416013D01*
X112286863Y-73553412D01*
X113004320Y-71784294D01*
X113822176Y-70125031D01*
X114735005Y-68591992D01*
X114818245Y-68465857D01*
X115171788Y-67950028D01*
X115455025Y-67573342D01*
X115677311Y-67325520D01*
X115848003Y-67196279D01*
X115976456Y-67175340D01*
X115988912Y-67179399D01*
X116051814Y-67217009D01*
X116086708Y-67283727D01*
X116088795Y-67397073D01*
X116053275Y-67574568D01*
X115975348Y-67833733D01*
X115850216Y-68192090D01*
X115673079Y-68667159D01*
X115439137Y-69276462D01*
X115354996Y-69493627D01*
X114756120Y-71084026D01*
X114239134Y-72564070D01*
X113795519Y-73966584D01*
X113416759Y-75324394D01*
X113094335Y-76670323D01*
X112819729Y-78037197D01*
X112584424Y-79457840D01*
X112381429Y-80952666D01*
X112335758Y-81450085D01*
X112301671Y-82083035D01*
X112278955Y-82818125D01*
X112267398Y-83621963D01*
X112266789Y-84461159D01*
X112276916Y-85302321D01*
X112297566Y-86112058D01*
X112328529Y-86856979D01*
X112369591Y-87503693D01*
X112420541Y-88018808D01*
X112426559Y-88064666D01*
X112758807Y-90061989D01*
X113200523Y-91935614D01*
X113755892Y-93694470D01*
X114429102Y-95347484D01*
X115224340Y-96903586D01*
X116145791Y-98371704D01*
X117197642Y-99760765D01*
X118384080Y-101079699D01*
X118659530Y-101357333D01*
X120035076Y-102625766D01*
X121482874Y-103773203D01*
X123011383Y-104803434D01*
X124629062Y-105720246D01*
X126344368Y-106527429D01*
X128165760Y-107228772D01*
X130101697Y-107828064D01*
X132160636Y-108329093D01*
X134351036Y-108735647D01*
X135512966Y-108906683D01*
X135903296Y-108944822D01*
X136436033Y-108975432D01*
X137084424Y-108998633D01*
X137821717Y-109014541D01*
X138621158Y-109023274D01*
X139455994Y-109024949D01*
X140299473Y-109019685D01*
X141124840Y-109007599D01*
X141905342Y-108988809D01*
X142614228Y-108963432D01*
X143224743Y-108931586D01*
X143710134Y-108893389D01*
X143913940Y-108869734D01*
X145766001Y-108582212D01*
X147484805Y-108242636D01*
X149100783Y-107842294D01*
X150644371Y-107372479D01*
X152146000Y-106824479D01*
X153636105Y-106189587D01*
X154202095Y-105925432D01*
X156007487Y-104981489D01*
X157709008Y-103925503D01*
X159299228Y-102764524D01*
X160770721Y-101505600D01*
X162116059Y-100155782D01*
X163327815Y-98722117D01*
X164398559Y-97211655D01*
X165320866Y-95631446D01*
X165572640Y-95134333D01*
X166026648Y-94160714D01*
X166398337Y-93255917D01*
X166711268Y-92356615D01*
X166989004Y-91399482D01*
X167051925Y-91158489D01*
X167306554Y-90094628D01*
X167506263Y-89089232D01*
X167655910Y-88100729D01*
X167760350Y-87087546D01*
X167824441Y-86008111D01*
X167853038Y-84820851D01*
X167855633Y-84278651D01*
X167816393Y-82529454D01*
X167693724Y-80883350D01*
X167480208Y-79293972D01*
X167168421Y-77714952D01*
X166750944Y-76099923D01*
X166325846Y-74720182D01*
X165914027Y-73524316D01*
X165471297Y-72361297D01*
X164986318Y-71207410D01*
X164447755Y-70038940D01*
X163844268Y-68832174D01*
X163164522Y-67563397D01*
X162397177Y-66208894D01*
X161658114Y-64956639D01*
X161360905Y-64455519D01*
X161097027Y-64000203D01*
X160877932Y-63611315D01*
X160715075Y-63309476D01*
X160619907Y-63115310D01*
X160600107Y-63051639D01*
X160698086Y-62968822D01*
X160819042Y-62933253D01*
X160926779Y-62951078D01*
X161077724Y-63041452D01*
X161290031Y-63219155D01*
X161581856Y-63498964D01*
X161859160Y-63779919D01*
X163180561Y-65257418D01*
X164392758Y-66859141D01*
X165492130Y-68576926D01*
X166475059Y-70402614D01*
X167337925Y-72328044D01*
X168077107Y-74345054D01*
X168688985Y-76445484D01*
X169169941Y-78621173D01*
X169516353Y-80863960D01*
X169545384Y-81108299D01*
X169601688Y-81574157D01*
X169655476Y-81979251D01*
X169702492Y-82294436D01*
X169738479Y-82490566D01*
X169754677Y-82541266D01*
X169840734Y-82517597D01*
X170033548Y-82414300D01*
X170301520Y-82249381D01*
X170517003Y-82106844D01*
X171387486Y-81415341D01*
X172163071Y-80593421D01*
X172826262Y-79661277D01*
X173167893Y-79047666D01*
X173367411Y-78605029D01*
X173560080Y-78096344D01*
X173731882Y-77567506D01*
X173868801Y-77064411D01*
X173956821Y-76632955D01*
X173982400Y-76380666D01*
X173980055Y-76160503D01*
X173950350Y-75970022D01*
X173877833Y-75767309D01*
X173747050Y-75510449D01*
X173542549Y-75157527D01*
X173513408Y-75108554D01*
X173179429Y-74520802D01*
X172939553Y-74038437D01*
X172795245Y-73666990D01*
X172747972Y-73411990D01*
X172799203Y-73278969D01*
X172950403Y-73273457D01*
X173035403Y-73306422D01*
X173169080Y-73396375D01*
X173396035Y-73578172D01*
X173686731Y-73827078D01*
X174011630Y-74118360D01*
X174078633Y-74180003D01*
X174662202Y-74707835D01*
X175207910Y-75179153D01*
X175694386Y-75576351D01*
X176100258Y-75881825D01*
X176331019Y-76035358D01*
X176584469Y-76167116D01*
X176800435Y-76210052D01*
X177011299Y-76153220D01*
X177249442Y-75985674D01*
X177547245Y-75696469D01*
X177647436Y-75590374D01*
X178245401Y-74835842D01*
X178766590Y-73939658D01*
X179206677Y-72913223D01*
X179561332Y-71767938D01*
X179826230Y-70515204D01*
X179966757Y-69480333D01*
X180029696Y-68907229D01*
X180083492Y-68482230D01*
X180132110Y-68184617D01*
X180179515Y-67993670D01*
X180229673Y-67888670D01*
X180278588Y-67851125D01*
X180384232Y-67891203D01*
X180560488Y-68029034D01*
X180751880Y-68216879D01*
X180969826Y-68426943D01*
X181139567Y-68544605D01*
X181220797Y-68556520D01*
X181299151Y-68411504D01*
X181306850Y-68116165D01*
X181243810Y-67669346D01*
X181113142Y-67082676D01*
X180956892Y-66438716D01*
X180846497Y-65939951D01*
X180778970Y-65569439D01*
X180751323Y-65310241D01*
X180760569Y-65145413D01*
X180767120Y-65120566D01*
X180841537Y-64989379D01*
X180962616Y-64950851D01*
X181143950Y-65011837D01*
X181399132Y-65179190D01*
X181741754Y-65459763D01*
X182126734Y-65806085D01*
X182614202Y-66244799D01*
X183002069Y-66566276D01*
X183303983Y-66779173D01*
X183533591Y-66892142D01*
X183704542Y-66913839D01*
X183807521Y-66871824D01*
X183863266Y-66811696D01*
X183867673Y-66725470D01*
X183809146Y-66584264D01*
X183676092Y-66359199D01*
X183480447Y-66057131D01*
X183196373Y-65592208D01*
X182947456Y-65105943D01*
X182720745Y-64565882D01*
X182503287Y-63939576D01*
X182282131Y-63194574D01*
X182163526Y-62757640D01*
X181982131Y-62089928D01*
X181813734Y-61514431D01*
X181640115Y-60975963D01*
X181443055Y-60419335D01*
X181204332Y-59789361D01*
X181070626Y-59447333D01*
X180867746Y-58911107D01*
X180735750Y-58506468D01*
X180670690Y-58213105D01*
X180668616Y-58010706D01*
X180725578Y-57878958D01*
X180759133Y-57845444D01*
X180881506Y-57786468D01*
X181034432Y-57802022D01*
X181232344Y-57902206D01*
X181489672Y-58097122D01*
X181820848Y-58396869D01*
X182240304Y-58811549D01*
X182457908Y-59034422D01*
X182843476Y-59429310D01*
X183120341Y-59701473D01*
X183295634Y-59851702D01*
X183376486Y-59880789D01*
X183370027Y-59789525D01*
X183283389Y-59578701D01*
X183123703Y-59249108D01*
X183048933Y-59099996D01*
X182720093Y-58474375D01*
X182378007Y-57884058D01*
X182008202Y-57310617D01*
X181596208Y-56735625D01*
X181127553Y-56140654D01*
X180587767Y-55507278D01*
X179962377Y-54817069D01*
X179236914Y-54051600D01*
X178458974Y-53255247D01*
X177968623Y-52756927D01*
X177586051Y-52362706D01*
X177298603Y-52057645D01*
X177093625Y-51826809D01*
X176958460Y-51655261D01*
X176880453Y-51528064D01*
X176846948Y-51430283D01*
X176844902Y-51350247D01*
X176876272Y-51204367D01*
X176958096Y-51125155D01*
X177136754Y-51083316D01*
X177295966Y-51065333D01*
X177719300Y-51023000D01*
X176308161Y-50365684D01*
X175248649Y-49887295D01*
X174291485Y-49490605D01*
X173398173Y-49163305D01*
X172530218Y-48893088D01*
X171649126Y-48667646D01*
X170716401Y-48474671D01*
X170009519Y-48351887D01*
X169156318Y-48245511D01*
X168216157Y-48184230D01*
X167233071Y-48167147D01*
X166251093Y-48193369D01*
X165314259Y-48261998D01*
X164466603Y-48372139D01*
X163941978Y-48475299D01*
X163046206Y-48728238D01*
X162080237Y-49078465D01*
X161094096Y-49504019D01*
X160137811Y-49982942D01*
X159261410Y-50493274D01*
X159084400Y-50607509D01*
X158335669Y-51159822D01*
X157566204Y-51835538D01*
X156800163Y-52605667D01*
X156061703Y-53441217D01*
X155374982Y-54313196D01*
X154764160Y-55192615D01*
X154253394Y-56050480D01*
X153866841Y-56857801D01*
X153857969Y-56879573D01*
X153759258Y-57128068D01*
X153688396Y-57334072D01*
X153640910Y-57532966D01*
X153612324Y-57760126D01*
X153598165Y-58050933D01*
X153593959Y-58440764D01*
X153595198Y-58957300D01*
X153594913Y-59496143D01*
X153587744Y-59887768D01*
X153571976Y-60154213D01*
X153545891Y-60317515D01*
X153507773Y-60399710D01*
X153481380Y-60418207D01*
X153328789Y-60391594D01*
X153140792Y-60229566D01*
X152932437Y-59958352D01*
X152718776Y-59604179D01*
X152514855Y-59193274D01*
X152335727Y-58751864D01*
X152196438Y-58306177D01*
X152146986Y-58092666D01*
X152063200Y-57733095D01*
X151972049Y-57492310D01*
X151851207Y-57320426D01*
X151764177Y-57237339D01*
X151473220Y-57044718D01*
X151134414Y-56907831D01*
X150792563Y-56835165D01*
X150492472Y-56835205D01*
X150278945Y-56916437D01*
X150245014Y-56949609D01*
X150198732Y-57066824D01*
X150171562Y-57295469D01*
X150162399Y-57654216D01*
X150170138Y-58161738D01*
X150171147Y-58198442D01*
X150202633Y-59320333D01*
X150000208Y-59320333D01*
X149903798Y-59298969D01*
X149801837Y-59219871D01*
X149677080Y-59060535D01*
X149512281Y-58798452D01*
X149290195Y-58411117D01*
X149254138Y-58346666D01*
X148960128Y-57838112D01*
X148696811Y-57437043D01*
X148429906Y-57106782D01*
X148125128Y-56810650D01*
X147748196Y-56511970D01*
X147264825Y-56174063D01*
X147153581Y-56099363D01*
X145991898Y-55395231D01*
X144710887Y-54758045D01*
X143303787Y-54185592D01*
X141763835Y-53675661D01*
X140084271Y-53226040D01*
X138258331Y-52834516D01*
X136279256Y-52498879D01*
X136037931Y-52463239D01*
X135648782Y-52410307D01*
X135318615Y-52372292D01*
X135084955Y-52353071D01*
X134988693Y-52354868D01*
X135015910Y-52422392D01*
X135144928Y-52593352D01*
X135360056Y-52849250D01*
X135645598Y-53171586D01*
X135985861Y-53541862D01*
X136088878Y-53651690D01*
X136789298Y-54407207D01*
X137363101Y-55052579D01*
X137811266Y-55588986D01*
X138134773Y-56017605D01*
X138334600Y-56339616D01*
X138353508Y-56377826D01*
X138443797Y-56720617D01*
X138394198Y-57026428D01*
X138222860Y-57262674D01*
X137947935Y-57396771D01*
X137775577Y-57415333D01*
X137600807Y-57393714D01*
X137305348Y-57334947D01*
X136931398Y-57248166D01*
X136545582Y-57149091D01*
X136260545Y-57073619D01*
X136012627Y-57013359D01*
X135777066Y-56966018D01*
X135529101Y-56929303D01*
X135243969Y-56900919D01*
X134896909Y-56878575D01*
X134463157Y-56859976D01*
X133917953Y-56842829D01*
X133236533Y-56824841D01*
X132972966Y-56818215D01*
X132055598Y-56791472D01*
X131284356Y-56758448D01*
X130636046Y-56715007D01*
X130087474Y-56657009D01*
X129615445Y-56580315D01*
X129196766Y-56480787D01*
X128808242Y-56354286D01*
X128426681Y-56196673D01*
X128028887Y-56003810D01*
X127831599Y-55900809D01*
X127219899Y-55576094D01*
X127365932Y-55823983D01*
X127480973Y-55995182D01*
X127672700Y-56255805D01*
X127910213Y-56564515D01*
X128069191Y-56764769D01*
X128388149Y-57168306D01*
X128606779Y-57464761D01*
X128736588Y-57674200D01*
X128789086Y-57816689D01*
X128775781Y-57912293D01*
X128748185Y-57948647D01*
X128632049Y-57989023D01*
X128382989Y-58031641D01*
X128037259Y-58071502D01*
X127631113Y-58103609D01*
X127618508Y-58104392D01*
X126907388Y-58164819D01*
X126312200Y-58257289D01*
X125780713Y-58393948D01*
X125260699Y-58586941D01*
X124956494Y-58723463D01*
X124101452Y-59212365D01*
X123318293Y-59841269D01*
X122598626Y-60617923D01*
X121991462Y-61460182D01*
X121779013Y-61781907D01*
X121631134Y-61980486D01*
X121525564Y-62078147D01*
X121440041Y-62097120D01*
X121376988Y-62073795D01*
X121242478Y-61912091D01*
X121160533Y-61595557D01*
X121159041Y-61584946D01*
X120981560Y-60702524D01*
X120692801Y-59854129D01*
X120282871Y-59022496D01*
X119741876Y-58190364D01*
X119059922Y-57340470D01*
X118227115Y-56455553D01*
X118208731Y-56437258D01*
X117307741Y-55603080D01*
X116401652Y-54895757D01*
X115440069Y-54278977D01*
X114557966Y-53806958D01*
X113397051Y-53277656D01*
X112287100Y-52873053D01*
X111181036Y-52581489D01*
X110031780Y-52391302D01*
X108792257Y-52290830D01*
X108377300Y-52275944D01*
X107384290Y-52267341D01*
X106498739Y-52302159D01*
X105662876Y-52386769D01*
X104818929Y-52527545D01*
X103909127Y-52730859D01*
X103640198Y-52798454D01*
X102111703Y-53272101D01*
X100575806Y-53909519D01*
X99040995Y-54705894D01*
X97515756Y-55656411D01*
X96008576Y-56756256D01*
X94627256Y-57911831D01*
X94000547Y-58469604D01*
X94331095Y-58556302D01*
X94633654Y-58650448D01*
X94801336Y-58748920D01*
X94867459Y-58875643D01*
X94872966Y-58945381D01*
X94834321Y-59050613D01*
X94710515Y-59182339D01*
X94489742Y-59348066D01*
X94160195Y-59555299D01*
X93710069Y-59811544D01*
X93127555Y-60124307D01*
X92531019Y-60434284D01*
X91987801Y-60708608D01*
X91574894Y-60904905D01*
X91276047Y-61029957D01*
X91075008Y-61090547D01*
X90955526Y-61093458D01*
X90953234Y-61092786D01*
X90653897Y-60935267D01*
X90497641Y-60697400D01*
X90486944Y-60393205D01*
X90624287Y-60036701D01*
X90735578Y-59862203D01*
X90981554Y-59551386D01*
X91335863Y-59151718D01*
X91777556Y-58683707D01*
X92285683Y-58167862D01*
X92839295Y-57624693D01*
X93417442Y-57074707D01*
X93999174Y-56538413D01*
X94563542Y-56036321D01*
X95089596Y-55588939D01*
X95159256Y-55531624D01*
X96526102Y-54499804D01*
X97976147Y-53569514D01*
X99482108Y-52754887D01*
X101016703Y-52070056D01*
X102552649Y-51529157D01*
X103276909Y-51326198D01*
X104066896Y-51134242D01*
X104768225Y-50990160D01*
X105435710Y-50886462D01*
X106124164Y-50815657D01*
X106888404Y-50770253D01*
X107495931Y-50749624D01*
X108898978Y-50749981D01*
X110184906Y-50833635D01*
X111387621Y-51007298D01*
X112541028Y-51277681D01*
X113679036Y-51651499D01*
X114835548Y-52135462D01*
X115084383Y-52251928D01*
X116224892Y-52854506D01*
X117329445Y-53553470D01*
X118377737Y-54330652D01*
X119349465Y-55167886D01*
X120224323Y-56047008D01*
X120982007Y-56949850D01*
X121602213Y-57858248D01*
X121854485Y-58308984D01*
X122163121Y-58906301D01*
X122551543Y-58527421D01*
X123297382Y-57916726D01*
X124155022Y-57426024D01*
X125109612Y-57062913D01*
X125708830Y-56912313D01*
X126191695Y-56812309D01*
X125937714Y-56399538D01*
X125716030Y-55977618D01*
X125485809Y-55429395D01*
X125262471Y-54796200D01*
X125061436Y-54119362D01*
X125002379Y-53892524D01*
X124820121Y-53165838D01*
X125065377Y-52963070D01*
X125210812Y-52859518D01*
X125354047Y-52810917D01*
X125520972Y-52825501D01*
X125737473Y-52911504D01*
X126029440Y-53077158D01*
X126422761Y-53330698D01*
X126606085Y-53453076D01*
X127397047Y-53945604D01*
X128213844Y-54384562D01*
X129012049Y-54748234D01*
X129747234Y-55014903D01*
X129882633Y-55054639D01*
X130101047Y-55112475D01*
X130310480Y-55157462D01*
X130536274Y-55191310D01*
X130803772Y-55215734D01*
X131138317Y-55232447D01*
X131565249Y-55243161D01*
X132109913Y-55249589D01*
X132797650Y-55253445D01*
X132825502Y-55253558D01*
X135091038Y-55262664D01*
X134637140Y-54793832D01*
X133948746Y-54080620D01*
X133371403Y-53476095D01*
X132896646Y-52968986D01*
X132516008Y-52548025D01*
X132221023Y-52201941D01*
X132003226Y-51919466D01*
X131854151Y-51689330D01*
X131765330Y-51500263D01*
X131728299Y-51340997D01*
X131734592Y-51200261D01*
X131775741Y-51066786D01*
X131798776Y-51015585D01*
X131900592Y-50840605D01*
X132029958Y-50715708D01*
X132213632Y-50634309D01*
X132478371Y-50589820D01*
X132850933Y-50575657D01*
X133358074Y-50585233D01*
X133523300Y-50591100D01*
X134707410Y-50661278D01*
X135968010Y-50786903D01*
X137334225Y-50971284D01*
X138444221Y-51149861D01*
X140313738Y-51514456D01*
X142028999Y-51944602D01*
X143592265Y-52441223D01*
X145005795Y-53005241D01*
X146271849Y-53637581D01*
X147392687Y-54339165D01*
X148370568Y-55110917D01*
X148558138Y-55282142D01*
X149178386Y-55863149D01*
X149592739Y-55605573D01*
X150115330Y-55376576D01*
X150683940Y-55296576D01*
X151266587Y-55364272D01*
X151831286Y-55578366D01*
X152045854Y-55705283D01*
X152241692Y-55824329D01*
X152369817Y-55882901D01*
X152392784Y-55882556D01*
X152440512Y-55798397D01*
X152549280Y-55595072D01*
X152702486Y-55303899D01*
X152867754Y-54986620D01*
X153527384Y-53871113D01*
X154332164Y-52772779D01*
X155258008Y-51714565D01*
X156280833Y-50719423D01*
X157376552Y-49810301D01*
X158521081Y-49010149D01*
X159690335Y-48341916D01*
X160000423Y-48190256D01*
X161516886Y-47568192D01*
X163090161Y-47101968D01*
X164711820Y-46791162D01*
X166373438Y-46635355D01*
X168066586Y-46634123D01*
X169782837Y-46787046D01*
G36*
X169782837Y-46787046D02*
G01*
X171513765Y-47093703D01*
X173250943Y-47553672D01*
X174985942Y-48166533D01*
X176710336Y-48931862D01*
X176920674Y-49036197D01*
X177485787Y-49330237D01*
X178088339Y-49662109D01*
X178705919Y-50017773D01*
X179316118Y-50383188D01*
X179896523Y-50744316D01*
X180424726Y-51087117D01*
X180878315Y-51397550D01*
X181234880Y-51661576D01*
X181472010Y-51865155D01*
X181522143Y-51918935D01*
X181698179Y-52191729D01*
X181719135Y-52429180D01*
X181585009Y-52663955D01*
X181522046Y-52731283D01*
X181377976Y-52856210D01*
X181231360Y-52914033D01*
X181019631Y-52920281D01*
X180823546Y-52904619D01*
X180526494Y-52867669D01*
X180278573Y-52821723D01*
X180176988Y-52792574D01*
X180171180Y-52827141D01*
X180265406Y-52966319D01*
X180444488Y-53190617D01*
X180693250Y-53480548D01*
X180846709Y-53652556D01*
X181930696Y-54912910D01*
X182863723Y-56129727D01*
X183654006Y-57317231D01*
X184309761Y-58489650D01*
X184839204Y-59661209D01*
X185250551Y-60846133D01*
X185461433Y-61642823D01*
X185547170Y-62030570D01*
X185590247Y-62293760D01*
X185593644Y-62470901D01*
X185560335Y-62600505D01*
X185538900Y-62644879D01*
X185398691Y-62812305D01*
X185190785Y-62971954D01*
X184985846Y-63074051D01*
X184909826Y-63088000D01*
X184830381Y-63032228D01*
X184656789Y-62880553D01*
X184415011Y-62656433D01*
X184143621Y-62395648D01*
X183868298Y-62133462D01*
X183642803Y-61931201D01*
X183490388Y-61808833D01*
X183434300Y-61786329D01*
X183434300Y-61786379D01*
X183459831Y-61893232D01*
X183529855Y-62128673D01*
X183634515Y-62460916D01*
X183763957Y-62858176D01*
X183804568Y-62980541D01*
X183958097Y-63433452D01*
X184090226Y-63792924D01*
X184221149Y-64099070D01*
X184371056Y-64392004D01*
X184560140Y-64711839D01*
X184808593Y-65098686D01*
X185066769Y-65488017D01*
X185418773Y-66035964D01*
X185672890Y-66484204D01*
X185841588Y-66861465D01*
X185937331Y-67196477D01*
X185972586Y-67517970D01*
X185973472Y-67577661D01*
X185940940Y-67959419D01*
X185847593Y-68225535D01*
X185836081Y-68242989D01*
X185575217Y-68479701D01*
X185194251Y-68647722D01*
X184730545Y-68740642D01*
X184221461Y-68752050D01*
X183704361Y-68675538D01*
X183553589Y-68634583D01*
X183273321Y-68551177D01*
X183115427Y-68524843D01*
X183038884Y-68568206D01*
X183002671Y-68693894D01*
X182983909Y-68809928D01*
X182875741Y-69204141D01*
X182696335Y-69581860D01*
X182476366Y-69887903D01*
X182300908Y-70038623D01*
X182003263Y-70154963D01*
X181655164Y-70199683D01*
X181273028Y-70200000D01*
X181130638Y-71110166D01*
X180856274Y-72405398D01*
X180449261Y-73665628D01*
X179922984Y-74856477D01*
X179290827Y-75943564D01*
X179192222Y-76089015D01*
X178674039Y-76760584D01*
X178161524Y-77264986D01*
X177650321Y-77604094D01*
X177136079Y-77779778D01*
X176614444Y-77793909D01*
X176081062Y-77648358D01*
X175836151Y-77531318D01*
X175307670Y-77246483D01*
X175219310Y-77596741D01*
X175055030Y-78167192D01*
X174842473Y-78788193D01*
X174605528Y-79396118D01*
X174368079Y-79927339D01*
X174277297Y-80106000D01*
X173754670Y-80972160D01*
X173149948Y-81751148D01*
X172443169Y-82462185D01*
X171614370Y-83124487D01*
X170643587Y-83757274D01*
X170246128Y-83986811D01*
X169742231Y-84269290D01*
X169683745Y-85341478D01*
X169525809Y-87342848D01*
X169274804Y-89217553D01*
X168926092Y-90983333D01*
X168475034Y-92657931D01*
X167916994Y-94259091D01*
X167247331Y-95804553D01*
X166636739Y-96997000D01*
X166003082Y-98079351D01*
X165305101Y-99121084D01*
X164527862Y-100139390D01*
X163656429Y-101151460D01*
X162675866Y-102174487D01*
X161571239Y-103225662D01*
X160327613Y-104322178D01*
X160119677Y-104498799D01*
X160135470Y-104588858D01*
X160230198Y-104792150D01*
X160389202Y-105080796D01*
X160597822Y-105426911D01*
X160656778Y-105520355D01*
X161002606Y-106093915D01*
X161376222Y-106765839D01*
X161758040Y-107496422D01*
X162128479Y-108245960D01*
X162467956Y-108974751D01*
X162756887Y-109643089D01*
X162975691Y-110211272D01*
X162988242Y-110247333D01*
X163382928Y-111543609D01*
X163695460Y-112891473D01*
X163920330Y-114252200D01*
X164052028Y-115587064D01*
X164085045Y-116857341D01*
X164046570Y-117686399D01*
X163959634Y-118762733D01*
X164433153Y-119860200D01*
X165146338Y-121688060D01*
X165713485Y-123521281D01*
X166134367Y-125350324D01*
X166408759Y-127165649D01*
X166536436Y-128957717D01*
X166517171Y-130716989D01*
X166350739Y-132433926D01*
X166036915Y-134098987D01*
X165575472Y-135702635D01*
X164966185Y-137235330D01*
X164850013Y-137483702D01*
X164321320Y-138502049D01*
X163760899Y-139398170D01*
X163135989Y-140219170D01*
X162413831Y-141012152D01*
X162353908Y-141072742D01*
X161473167Y-141874894D01*
X160539771Y-142554502D01*
X159523034Y-143130181D01*
X158392266Y-143620546D01*
X157814456Y-143826247D01*
X156548054Y-144188562D01*
X155211602Y-144457701D01*
X153838680Y-144631848D01*
X152462866Y-144709188D01*
X151117741Y-144687908D01*
X149836884Y-144566191D01*
X148653874Y-144342224D01*
X148584962Y-144325045D01*
X147750671Y-144069388D01*
X147035654Y-143746220D01*
X146395473Y-143331312D01*
X145785693Y-142800435D01*
X145781714Y-142796535D01*
X145085974Y-142114070D01*
X143664970Y-142220755D01*
X143087997Y-142255544D01*
X142399590Y-142283269D01*
X141635626Y-142303676D01*
X140831984Y-142316511D01*
X140024542Y-142321519D01*
X139249179Y-142318447D01*
X138541771Y-142307040D01*
X137938197Y-142287044D01*
X137546385Y-142264096D01*
X136828136Y-142209000D01*
X136234051Y-142805917D01*
X135648414Y-143312603D01*
X134976800Y-143735113D01*
X134200093Y-144082041D01*
X133299175Y-144361982D01*
X132295633Y-144576395D01*
X131862910Y-144634504D01*
X131301543Y-144682810D01*
X130651998Y-144720198D01*
X129954739Y-144745554D01*
X129250235Y-144757761D01*
X128578949Y-144755704D01*
X127981349Y-144738269D01*
X127531548Y-144707699D01*
X126058738Y-144524989D01*
X124669407Y-144271903D01*
X123382690Y-143953236D01*
X122217722Y-143573778D01*
X121193638Y-143138323D01*
X121119633Y-143101840D01*
X119889644Y-142395761D01*
X118760574Y-141556501D01*
X117736588Y-140589846D01*
X116821847Y-139501583D01*
X116020515Y-138297497D01*
X115336753Y-136983376D01*
X114774725Y-135565004D01*
X114338594Y-134048169D01*
X114219739Y-133511095D01*
X114089709Y-132742001D01*
X113985727Y-131852147D01*
X113910326Y-130888466D01*
X113866036Y-129897891D01*
X113863971Y-129709579D01*
X115628211Y-129709579D01*
X115644794Y-130553491D01*
X115696735Y-131327028D01*
X115787589Y-132078482D01*
X115920908Y-132856146D01*
X115960600Y-133056906D01*
X116179386Y-133962528D01*
X116469595Y-134895093D01*
X116815620Y-135816978D01*
X117201852Y-136690558D01*
X117612684Y-137478211D01*
X118032505Y-138142312D01*
X118119999Y-138262089D01*
X118423202Y-138632751D01*
X118810351Y-139057879D01*
X119247204Y-139504169D01*
X119699517Y-139938318D01*
X120133048Y-140327022D01*
X120513554Y-140636977D01*
X120695387Y-140766837D01*
X121759528Y-141379368D01*
X122946460Y-141896870D01*
X124234484Y-142312616D01*
X125601903Y-142619880D01*
X127027021Y-142811934D01*
X127384966Y-142840821D01*
X127769146Y-142867705D01*
X128075675Y-142887627D01*
X128336687Y-142900642D01*
X128584320Y-142906806D01*
X128850710Y-142906172D01*
X129167992Y-142898796D01*
X129568303Y-142884731D01*
X130083778Y-142864034D01*
X130517633Y-142846151D01*
X131196000Y-142814842D01*
X131733683Y-142781357D01*
X132159331Y-142742733D01*
X132501591Y-142696006D01*
X132789111Y-142638213D01*
X132959304Y-142593570D01*
X133704656Y-142336700D01*
X134302860Y-142029069D01*
X134771868Y-141657553D01*
X135129628Y-141209031D01*
X135308047Y-140876498D01*
X135415115Y-140627806D01*
X135485307Y-140410095D01*
X135526417Y-140175492D01*
X135546239Y-139876125D01*
X135552567Y-139464121D01*
X135552878Y-139372666D01*
X135547632Y-138897657D01*
X135524563Y-138537560D01*
X135476739Y-138238304D01*
X135397227Y-137945817D01*
X135352836Y-137812331D01*
X135150398Y-137225662D01*
X134940550Y-137642997D01*
X134622287Y-138183395D01*
X134281685Y-138592669D01*
X133930628Y-138861502D01*
X133581006Y-138980573D01*
X133272848Y-138950504D01*
X133049138Y-138852370D01*
X132891801Y-138741355D01*
X132884545Y-138733143D01*
X132808701Y-138679358D01*
X132731529Y-138737999D01*
X132623530Y-138931750D01*
X132621851Y-138935141D01*
X132360028Y-139351254D01*
X132049348Y-139618588D01*
X131664606Y-139756039D01*
X131497718Y-139777819D01*
X131221243Y-139778041D01*
X130932536Y-139724325D01*
X130597077Y-139605227D01*
X130180346Y-139409301D01*
X129830512Y-139225037D01*
X129791690Y-139283112D01*
X129751539Y-139462551D01*
X129733988Y-139590742D01*
X129610114Y-140048293D01*
X129358627Y-140398010D01*
X128987505Y-140633494D01*
X128504726Y-140748347D01*
X128277320Y-140759083D01*
X127792691Y-140705971D01*
X127357481Y-140559079D01*
X126999735Y-140337072D01*
X126747495Y-140058615D01*
X126628805Y-139742373D01*
X126623283Y-139658200D01*
X126675879Y-139462268D01*
X126841477Y-139343935D01*
X127130552Y-139301474D01*
X127553581Y-139333161D01*
X128053153Y-139422733D01*
X128340339Y-139483307D01*
X128300250Y-139068153D01*
X128246083Y-138803429D01*
X128134448Y-138444514D01*
X127984098Y-138048428D01*
X127902897Y-137860095D01*
X127755166Y-137513894D01*
X127642696Y-137214872D01*
X127579564Y-137002629D01*
X127571864Y-136928761D01*
X127658915Y-136825484D01*
X127884833Y-136770850D01*
X127957837Y-136764267D01*
X128284074Y-136796650D01*
X128732307Y-136928638D01*
X129291034Y-137155662D01*
X129948749Y-137473158D01*
X130535263Y-137787443D01*
X130892400Y-137980304D01*
X131131441Y-138092471D01*
X131277742Y-138133225D01*
X131356661Y-138111842D01*
X131371739Y-138093528D01*
X131400811Y-137966542D01*
X131424816Y-137707875D01*
X131441265Y-137355159D01*
X131447669Y-136946025D01*
X131447670Y-136945424D01*
X131452240Y-136534264D01*
X131463724Y-136177551D01*
X131480383Y-135913654D01*
X131500358Y-135781258D01*
X131621963Y-135677693D01*
X131800318Y-135647333D01*
X132023618Y-135715602D01*
X132310277Y-135905565D01*
X132634497Y-136194952D01*
X132970482Y-136561493D01*
X133204010Y-136859063D01*
X133373884Y-137083846D01*
X133474403Y-137186968D01*
X133533380Y-137185443D01*
X133578629Y-137096288D01*
X133581067Y-137089735D01*
X133657950Y-136797471D01*
X133702511Y-136458444D01*
X133711019Y-136134819D01*
X133679742Y-135888762D01*
X133656754Y-135828726D01*
X133470888Y-135618881D01*
X133144897Y-135396519D01*
X132706101Y-135174319D01*
X132181823Y-134964958D01*
X131599385Y-134781114D01*
X131166598Y-134673264D01*
X130605153Y-134588955D01*
X129931524Y-134551042D01*
X129195830Y-134557639D01*
X128448192Y-134606862D01*
X127738729Y-134696826D01*
X127118101Y-134825504D01*
X126512443Y-135017614D01*
X125816882Y-135292977D01*
X125075625Y-135631468D01*
X124332881Y-136012957D01*
X123664274Y-136398023D01*
X123352038Y-136581131D01*
X123089483Y-136720216D01*
X122912010Y-136797321D01*
X122859941Y-136806031D01*
X122754442Y-136700309D01*
X122767212Y-136508139D01*
X122883318Y-136247622D01*
X123087828Y-135936863D01*
X123365811Y-135593967D01*
X123702334Y-135237035D01*
X124082466Y-134884173D01*
X124491274Y-134553484D01*
X124913826Y-134263073D01*
X125001232Y-134209895D01*
X126136807Y-133624297D01*
X127292096Y-133205942D01*
X128471717Y-132953411D01*
X129359460Y-132872608D01*
X130551637Y-132896352D01*
X131684309Y-133071286D01*
X132784835Y-133403239D01*
X133673005Y-133791987D01*
X134610565Y-134323139D01*
X135399404Y-134915273D01*
X136053776Y-135583412D01*
X136587938Y-136342577D01*
X137016144Y-137207789D01*
X137089151Y-137391806D01*
X137180729Y-137650933D01*
X137246308Y-137898131D01*
X137291814Y-138174190D01*
X137323177Y-138519899D01*
X137346325Y-138976049D01*
X137355513Y-139224500D01*
X137398641Y-140473333D01*
X138339637Y-140473184D01*
X138670742Y-140471254D01*
X139139493Y-140465876D01*
X139714249Y-140457549D01*
X140363367Y-140446773D01*
X141055206Y-140434047D01*
X141758125Y-140419871D01*
X141874894Y-140417386D01*
X144469156Y-140361736D01*
X144497618Y-139469359D01*
X146271096Y-139469359D01*
X146345557Y-140150275D01*
X146509303Y-140760138D01*
X146627963Y-141030029D01*
X146910394Y-141416681D01*
X147334475Y-141782978D01*
X147872558Y-142111963D01*
X148496993Y-142386680D01*
X149166846Y-142587089D01*
X149485559Y-142660597D01*
X149752688Y-142717288D01*
X149996557Y-142759076D01*
X150245491Y-142787870D01*
X150527814Y-142805583D01*
X150871850Y-142814125D01*
X151305923Y-142815408D01*
X151858358Y-142811343D01*
X152403966Y-142805532D01*
X153102155Y-142795483D01*
X153662916Y-142780974D01*
X154118138Y-142759750D01*
X154499711Y-142729557D01*
X154839526Y-142688139D01*
X155169473Y-142633242D01*
X155357018Y-142596744D01*
X156758859Y-142248086D01*
X158031312Y-141793067D01*
X159180781Y-141226490D01*
X160213670Y-140543161D01*
X161136381Y-139737883D01*
X161955320Y-138805460D01*
X162676890Y-137740697D01*
X163307495Y-136538396D01*
X163571186Y-135931875D01*
X163997149Y-134760611D01*
X164316521Y-133574015D01*
X164537021Y-132333607D01*
X164666365Y-131000907D01*
X164698535Y-130311026D01*
X164710273Y-129137964D01*
X164663986Y-128022197D01*
X164554324Y-126926780D01*
X164375934Y-125814766D01*
X164123467Y-124649209D01*
X163791570Y-123393161D01*
X163603563Y-122750883D01*
X163251780Y-121580766D01*
X163023089Y-122200550D01*
X162475239Y-123543152D01*
X161834410Y-124866048D01*
X161118140Y-126140603D01*
X160343968Y-127338180D01*
X159529431Y-128430144D01*
X158692069Y-129387858D01*
X158502334Y-129581891D01*
X157590199Y-130403903D01*
X156652102Y-131066330D01*
X155670557Y-131578706D01*
X154628076Y-131950567D01*
X153810450Y-132140274D01*
X153434232Y-132217317D01*
X153175035Y-132295903D01*
X152981732Y-132397579D01*
X152803195Y-132543890D01*
X152763800Y-132581331D01*
X152584420Y-132763397D01*
X152469305Y-132897473D01*
X152446300Y-132938672D01*
X152523346Y-132975515D01*
X152727791Y-133027761D01*
X153019591Y-133085570D01*
X153102264Y-133099867D01*
X153519458Y-133185531D01*
X153998515Y-133308549D01*
X154498968Y-133455869D01*
X154980347Y-133614440D01*
X155402183Y-133771212D01*
X155724008Y-133913133D01*
X155855162Y-133987670D01*
X156040955Y-134146150D01*
X156150519Y-134302083D01*
X156158211Y-134327832D01*
X156122515Y-134499024D01*
X155985145Y-134597724D01*
X155856798Y-134591790D01*
X155739425Y-134572280D01*
X155485778Y-134543974D01*
X155128487Y-134510087D01*
X154700186Y-134473830D01*
X154498630Y-134458031D01*
X153274494Y-134411183D01*
X152093844Y-134457720D01*
X150984133Y-134594468D01*
X149972812Y-134818253D01*
X149229468Y-135067159D01*
X148740034Y-135279309D01*
X148396581Y-135473147D01*
X148179385Y-135665227D01*
X148068721Y-135872103D01*
X148043633Y-136062341D01*
X148066470Y-136335236D01*
X148124732Y-136602266D01*
X148203041Y-136812343D01*
X148286022Y-136914377D01*
X148300967Y-136917333D01*
X148383350Y-136854784D01*
X148535887Y-136689414D01*
X148728163Y-136454635D01*
X148762867Y-136409895D01*
X149029869Y-136082782D01*
X149243470Y-135877074D01*
X149436518Y-135768454D01*
X149641866Y-135732607D01*
X149678700Y-135732000D01*
X149844810Y-135757773D01*
X149964238Y-135851344D01*
X150047053Y-136037088D01*
X150103326Y-136339381D01*
X150143128Y-136782596D01*
X150148734Y-136869737D01*
X150180660Y-137248605D01*
X150223221Y-137566842D01*
X150270157Y-137784336D01*
X150302573Y-137855473D01*
X150384049Y-137880499D01*
X150541714Y-137850184D01*
X150796524Y-137757532D01*
X151169433Y-137595548D01*
X151402718Y-137488236D01*
X152155044Y-137154121D01*
X152781113Y-136910673D01*
X153277513Y-136758915D01*
X153640829Y-136699872D01*
X153867650Y-136734569D01*
X153883186Y-136743549D01*
X153946677Y-136836230D01*
X153945795Y-137006462D01*
X153876041Y-137273809D01*
X153732918Y-137657839D01*
X153599974Y-137975666D01*
X153477936Y-138320624D01*
X153398341Y-138664417D01*
X153379642Y-138855550D01*
X153377633Y-139227433D01*
X154313712Y-139168201D01*
X155249792Y-139108969D01*
X155192458Y-139431318D01*
X155043074Y-139812330D01*
X154755287Y-140122594D01*
X154349678Y-140349647D01*
X153846829Y-140481028D01*
X153412180Y-140509223D01*
X152903141Y-140445435D01*
X152509109Y-140261538D01*
X152222134Y-139950389D01*
X152034268Y-139504845D01*
X151972816Y-139215865D01*
X151927400Y-139004956D01*
X151880009Y-138892810D01*
X151863455Y-138886880D01*
X151217119Y-139186009D01*
X150629739Y-139340037D01*
X150108885Y-139347830D01*
X149674819Y-139214821D01*
X149309107Y-138965532D01*
X149037864Y-138654866D01*
X148928473Y-138428228D01*
X148841327Y-138308197D01*
X148734484Y-138320184D01*
X148391582Y-138413993D01*
X148039564Y-138427199D01*
X147919269Y-138407227D01*
X147653379Y-138278729D01*
X147362773Y-138042509D01*
X147095649Y-137743672D01*
X146923862Y-137475682D01*
X146745400Y-137129000D01*
X146588770Y-137484725D01*
X146392167Y-138088141D01*
X146286454Y-138765833D01*
X146271096Y-139469359D01*
X144497618Y-139469359D01*
X144505858Y-139211034D01*
X144527203Y-138697098D01*
X144558343Y-138303826D01*
X144606431Y-137982570D01*
X144678621Y-137684682D01*
X144774679Y-137383000D01*
X145177957Y-136465484D01*
X145731601Y-135621888D01*
X146380450Y-134907912D01*
X146844049Y-134502515D01*
X147340856Y-134143203D01*
X147900053Y-133813765D01*
X148550824Y-133497992D01*
X149322354Y-133179671D01*
X149839828Y-132986346D01*
X150210617Y-132788603D01*
X150556888Y-132461278D01*
X150591383Y-132420742D01*
X150766546Y-132202557D01*
X150881754Y-132041480D01*
X150911855Y-131974187D01*
X150820138Y-131936812D01*
X150615955Y-131866762D01*
X150414300Y-131801687D01*
X149904900Y-131600255D01*
X149336888Y-131309142D01*
X148767532Y-130962141D01*
X148254103Y-130593043D01*
X147997262Y-130375536D01*
X147415703Y-129742158D01*
X147244125Y-129485867D01*
X149860288Y-129485867D01*
X149889563Y-129554475D01*
X150001813Y-129647135D01*
X150162724Y-129766820D01*
X150229991Y-129791552D01*
X150243862Y-129730044D01*
X150243670Y-129699500D01*
X150186362Y-129504765D01*
X150047698Y-129420531D01*
X149952711Y-129434484D01*
X149860288Y-129485867D01*
X147244125Y-129485867D01*
X146913428Y-128991899D01*
X146535908Y-128208099D01*
X146458826Y-128006051D01*
X146401863Y-127824324D01*
X146361937Y-127632628D01*
X146335964Y-127400673D01*
X146320861Y-127098170D01*
X146313543Y-126694829D01*
X146310927Y-126160361D01*
X146310635Y-125995333D01*
X146314472Y-125303591D01*
X146333005Y-124735130D01*
X146373327Y-124244069D01*
X146442531Y-123784525D01*
X146547709Y-123310618D01*
X146695952Y-122776466D01*
X146894354Y-122136188D01*
X146919217Y-122058333D01*
X147283650Y-120992252D01*
X147693791Y-119937156D01*
X148161379Y-118868371D01*
X148698154Y-117761226D01*
X149315855Y-116591050D01*
X150026222Y-115333170D01*
X150509084Y-114513899D01*
X150802564Y-114028781D01*
X151026988Y-113675137D01*
X151195643Y-113436476D01*
X151321814Y-113296309D01*
X151418790Y-113238145D01*
X151499857Y-113245495D01*
X151521695Y-113257158D01*
X151570222Y-113337422D01*
X151579187Y-113499730D01*
X151546300Y-113751591D01*
X151469272Y-114100517D01*
X151345814Y-114554018D01*
X151173636Y-115119605D01*
X150950450Y-115804787D01*
X150673965Y-116617076D01*
X150341894Y-117563981D01*
X149951946Y-118653014D01*
X149501833Y-119891684D01*
X149487703Y-119930341D01*
X149149392Y-120865243D01*
X148869273Y-121663485D01*
X148641875Y-122345317D01*
X148461722Y-122930986D01*
X148323342Y-123440743D01*
X148221260Y-123894837D01*
X148150004Y-124313515D01*
X148104099Y-124717027D01*
X148078073Y-125125623D01*
X148077108Y-125148666D01*
X148037337Y-126122333D01*
X148248304Y-125730930D01*
X148446510Y-125426496D01*
X148677058Y-125167067D01*
X148905257Y-124984639D01*
X149096412Y-124911212D01*
X149134423Y-124913651D01*
X149191285Y-124935545D01*
X149230725Y-124990135D01*
X149253460Y-125099805D01*
X149260205Y-125286936D01*
X149251678Y-125573913D01*
X149228593Y-125983116D01*
X149191668Y-126536930D01*
X149188048Y-126589453D01*
X149161064Y-127017780D01*
X149152296Y-127318038D01*
X149165263Y-127530852D01*
X149203484Y-127696848D01*
X149270478Y-127856650D01*
X149303576Y-127922953D01*
X149419390Y-128132937D01*
X149507267Y-128261915D01*
X149531917Y-128281333D01*
X149604640Y-128223886D01*
X149770247Y-128067067D01*
X150004878Y-127834161D01*
X150284671Y-127548453D01*
X150313363Y-127518759D01*
X150599955Y-127228578D01*
X150848532Y-126989521D01*
X151033833Y-126825005D01*
X151130597Y-126758444D01*
X151133966Y-126758055D01*
X151286675Y-126804990D01*
X151404262Y-126948092D01*
X151490255Y-127202169D01*
X151548184Y-127582028D01*
X151581576Y-128102477D01*
X151593452Y-128686219D01*
X151620401Y-129296058D01*
X151696484Y-129756250D01*
X151829240Y-130081295D01*
X152026209Y-130285691D01*
X152294930Y-130383938D01*
X152483602Y-130398000D01*
X152712648Y-130389144D01*
X152826600Y-130335026D01*
X152879651Y-130194320D01*
X152899956Y-130080500D01*
X152936453Y-129768569D01*
X152953687Y-129443151D01*
X152953840Y-129424333D01*
X152994073Y-128987042D01*
X153100618Y-128588171D01*
X153257785Y-128259827D01*
X153449887Y-128034121D01*
X153661234Y-127943161D01*
X153677780Y-127942666D01*
X153866767Y-127992553D01*
X154007317Y-128153373D01*
X154106934Y-128441870D01*
X154173122Y-128874785D01*
X154191699Y-129089142D01*
X154224905Y-129446213D01*
X154265807Y-129750061D01*
X154307426Y-129952497D01*
X154322875Y-129994605D01*
X154378380Y-130075927D01*
X154461904Y-130096355D01*
X154620492Y-130054847D01*
X154813558Y-129983750D01*
X155388548Y-129702542D01*
X156013390Y-129283339D01*
X156669227Y-128742915D01*
X157337203Y-128098043D01*
X157998463Y-127365497D01*
X158583339Y-126630333D01*
X159600795Y-125153415D01*
X160462167Y-123652408D01*
X161164260Y-122134325D01*
X161703880Y-120606178D01*
X162077830Y-119074981D01*
X162112834Y-118883333D01*
X162163079Y-118475482D01*
X162198014Y-117937813D01*
X162217944Y-117309123D01*
X162223174Y-116628204D01*
X162214008Y-115933853D01*
X162190751Y-115264863D01*
X162153707Y-114660029D01*
X162103180Y-114158147D01*
X162074229Y-113965208D01*
X161675556Y-112159924D01*
X161117228Y-110410659D01*
X160399846Y-108719242D01*
X160239190Y-108391754D01*
X159999554Y-107932260D01*
X159727472Y-107439804D01*
X159444359Y-106950499D01*
X159171630Y-106500457D01*
X158930700Y-106125789D01*
X158742985Y-105862607D01*
X158728835Y-105844885D01*
X158570991Y-105649956D01*
X157561812Y-106264284D01*
X155737670Y-107279562D01*
X153806738Y-108173866D01*
X151782383Y-108945536D01*
X149677972Y-109592913D01*
X147506872Y-110114339D01*
X145282447Y-110508154D01*
X143018066Y-110772700D01*
X140727094Y-110906318D01*
X138422899Y-110907348D01*
X136118846Y-110774133D01*
X133828302Y-110505014D01*
X131564634Y-110098330D01*
X129882633Y-109699435D01*
X127806109Y-109080849D01*
X125846706Y-108346855D01*
X123993657Y-107493031D01*
X122470945Y-106656003D01*
X122139667Y-106463914D01*
X121858426Y-106309389D01*
X121660923Y-106210419D01*
X121585595Y-106183333D01*
X121503273Y-106254150D01*
X121358608Y-106449177D01*
X121167164Y-106742277D01*
X120944505Y-107107312D01*
X120706194Y-107518144D01*
X120467797Y-107948637D01*
X120244877Y-108372653D01*
X120068448Y-108731146D01*
X119519236Y-110049676D01*
X119071743Y-111447517D01*
X118729905Y-112895701D01*
X118497656Y-114365260D01*
X118378931Y-115827228D01*
X118377664Y-117252636D01*
X118497789Y-118612518D01*
X118624736Y-119360310D01*
X118930718Y-120568403D01*
X119352952Y-121782448D01*
X119878725Y-122984323D01*
X120495322Y-124155908D01*
X121190030Y-125279083D01*
X121950134Y-126335729D01*
X122762920Y-127307723D01*
X123615673Y-128176947D01*
X124495681Y-128925281D01*
X125390229Y-129534603D01*
X125987966Y-129854438D01*
X126351237Y-130017837D01*
X126692551Y-130155769D01*
X126960596Y-130248158D01*
X127054050Y-130271549D01*
X127358134Y-130327144D01*
X127412683Y-129250860D01*
X127440892Y-128829270D01*
X127477977Y-128466761D01*
X127519402Y-128199201D01*
X127560632Y-128062455D01*
X127563466Y-128058621D01*
X127747863Y-127953341D01*
X127979295Y-127977566D01*
X128203767Y-128124908D01*
X128214012Y-128135577D01*
X128435981Y-128478909D01*
X128599602Y-128967173D01*
X128700086Y-129584664D01*
X128716633Y-129784166D01*
X128763502Y-130482666D01*
X129121149Y-130482666D01*
X129499796Y-130415298D01*
X129786697Y-130225621D01*
X129955783Y-129932274D01*
X129970510Y-129875381D01*
X129994226Y-129699741D01*
X129999500Y-129638978D01*
X131533633Y-129638978D01*
X131555591Y-129757403D01*
X131652403Y-129746096D01*
X131705338Y-129719397D01*
X131819734Y-129618939D01*
X131827341Y-129547085D01*
X131706680Y-129466282D01*
X131583298Y-129510712D01*
X131533633Y-129638978D01*
X129999500Y-129638978D01*
X130021002Y-129391279D01*
X130048251Y-128986413D01*
X130073388Y-128521561D01*
X130084969Y-128263345D01*
X130110208Y-127724639D01*
X130138850Y-127332209D01*
X130177514Y-127063028D01*
X130232820Y-126894069D01*
X130311386Y-126802306D01*
X130419834Y-126764711D01*
X130517633Y-126758287D01*
X130621746Y-126816356D01*
X130812838Y-126975881D01*
X131064185Y-127212842D01*
X131349062Y-127503215D01*
X131364300Y-127519333D01*
X131643904Y-127810668D01*
X131883136Y-128050606D01*
X132057684Y-128215417D01*
X132143240Y-128281374D01*
X132145292Y-128281675D01*
X132221069Y-128214083D01*
X132329647Y-128047753D01*
X132352379Y-128006166D01*
X132431389Y-127752957D01*
X132482288Y-127365155D01*
X132504073Y-126875313D01*
X132495744Y-126315986D01*
X132456298Y-125719730D01*
X132430450Y-125468210D01*
X132396516Y-125134584D01*
X132391020Y-124931314D01*
X132417634Y-124821245D01*
X132480034Y-124767221D01*
X132500629Y-124758510D01*
X132660206Y-124781433D01*
X132875095Y-124928558D01*
X133119448Y-125175473D01*
X133367416Y-125497764D01*
X133496388Y-125699000D01*
X133749495Y-126122333D01*
X133700768Y-125233333D01*
X133667841Y-124818669D01*
X133611311Y-124397258D01*
X133526002Y-123952264D01*
X133406740Y-123466852D01*
X133248350Y-122924187D01*
X133045655Y-122307433D01*
X132793480Y-121599756D01*
X132486651Y-120784320D01*
X132119992Y-119844290D01*
X131787767Y-119010333D01*
X131388262Y-118002888D01*
X131006916Y-117019001D01*
X130649377Y-116074538D01*
X130321294Y-115185367D01*
X130028315Y-114367353D01*
X129776089Y-113636363D01*
X129570265Y-113008264D01*
X129416492Y-112498923D01*
X129320418Y-112124206D01*
X129301046Y-112025333D01*
X129290109Y-111749316D01*
X129357738Y-111576026D01*
X129491334Y-111531780D01*
X129531806Y-111543284D01*
X129602554Y-111585723D01*
X129686954Y-111671771D01*
X129794276Y-111816674D01*
X129933792Y-112035678D01*
X130114773Y-112344027D01*
X130346488Y-112756966D01*
X130638211Y-113289740D01*
X130993022Y-113946103D01*
X131706381Y-115281196D01*
X132337272Y-116485492D01*
X132891796Y-117572515D01*
X133376056Y-118555791D01*
X133796155Y-119448843D01*
X134158194Y-120265198D01*
X134468277Y-121018380D01*
X134732505Y-121721914D01*
X134956982Y-122389324D01*
X135147810Y-123034135D01*
X135226346Y-123328333D01*
X135311986Y-123671939D01*
X135374602Y-123965816D01*
X135417808Y-124247840D01*
X135445218Y-124555885D01*
X135460445Y-124927826D01*
X135467101Y-125401537D01*
X135468672Y-125868333D01*
X135465877Y-126509439D01*
X135451008Y-127017089D01*
X135416973Y-127427084D01*
X135356679Y-127775229D01*
X135263035Y-128097325D01*
X135128947Y-128429176D01*
X134947323Y-128806585D01*
X134848102Y-129001000D01*
X134559847Y-129458792D01*
X134163666Y-129948536D01*
X133702605Y-130425490D01*
X133219709Y-130844916D01*
X132782734Y-131147690D01*
X131810277Y-131626148D01*
X130765556Y-131967940D01*
X129674804Y-132171689D01*
X128564256Y-132236016D01*
X127460144Y-132159542D01*
X126388702Y-131940890D01*
X125376165Y-131578680D01*
X125293585Y-131541196D01*
X124414864Y-131070606D01*
X123536499Y-130467894D01*
X122640317Y-129720019D01*
X122257296Y-129362429D01*
X121059464Y-128105057D01*
X120000504Y-126766401D01*
X119072773Y-125334468D01*
X118268632Y-123797269D01*
X117580441Y-122142812D01*
X117480015Y-121864823D01*
X117171653Y-120993980D01*
X116773877Y-122245823D01*
X116403924Y-123488069D01*
X116117453Y-124638736D01*
X115905697Y-125748242D01*
X115759889Y-126867007D01*
X115671262Y-128045452D01*
X115643432Y-128747000D01*
X115628211Y-129709579D01*
X113863971Y-129709579D01*
X113855392Y-128927355D01*
X113880924Y-128023790D01*
X113904130Y-127661356D01*
X114084487Y-126064960D01*
X114376529Y-124442988D01*
X114769633Y-122836433D01*
X115253172Y-121286285D01*
X115816522Y-119833536D01*
X116089298Y-119230784D01*
X116547633Y-118265902D01*
X116547922Y-117071784D01*
X116622277Y-115133578D01*
X116843503Y-113264373D01*
X117210279Y-111469129D01*
X117721280Y-109752808D01*
X118375184Y-108120372D01*
X119170667Y-106576781D01*
X119487181Y-106050607D01*
X119738815Y-105652577D01*
X119908319Y-105370297D01*
X119993882Y-105170442D01*
X119993693Y-105019692D01*
X119905941Y-104884722D01*
X119728817Y-104732210D01*
X119460508Y-104528834D01*
X119402057Y-104483997D01*
X119044178Y-104188572D01*
X118605109Y-103795982D01*
X118111015Y-103332436D01*
X117588060Y-102824146D01*
X117062410Y-102297320D01*
X116560228Y-101778171D01*
X116107680Y-101292908D01*
X115730930Y-100867742D01*
X115463115Y-100538155D01*
X114439113Y-99065726D01*
X113515834Y-97504149D01*
X112706701Y-95882025D01*
X112025136Y-94227950D01*
X111484564Y-92570523D01*
X111207962Y-91472500D01*
X111122593Y-91115560D01*
X111041812Y-90829864D01*
X110976116Y-90649770D01*
X110942823Y-90604666D01*
X110830930Y-90640297D01*
X110624005Y-90731588D01*
X110469985Y-90806890D01*
X110141577Y-90960559D01*
X109815652Y-91081262D01*
X109461811Y-91174721D01*
X109049654Y-91246661D01*
X108548783Y-91302804D01*
X107928798Y-91348874D01*
X107445966Y-91376209D01*
X106727722Y-91407560D01*
X106148793Y-91415494D01*
X105680207Y-91395413D01*
X105292996Y-91342721D01*
X104958189Y-91252817D01*
X104646815Y-91121106D01*
X104329906Y-90942987D01*
X104200265Y-90861055D01*
X103567129Y-90396423D01*
X102949130Y-89827175D01*
X102338149Y-89142715D01*
X101726068Y-88332446D01*
X101104769Y-87385772D01*
X100466134Y-86292096D01*
X99925247Y-85280912D01*
X99648990Y-84759456D01*
X99435353Y-84384899D01*
X99285885Y-84159735D01*
X99202134Y-84086459D01*
X99189421Y-84095579D01*
X99156724Y-84216914D01*
X99104578Y-84486208D01*
X99036130Y-84883599D01*
X98954529Y-85389227D01*
X98862924Y-85983230D01*
X98764462Y-86645749D01*
X98662293Y-87356922D01*
X98587909Y-87890082D01*
X98524171Y-88280127D01*
X98452360Y-88543627D01*
X98358365Y-88723261D01*
X98283679Y-88810317D01*
X98100129Y-88946714D01*
X97899361Y-88993706D01*
X97670554Y-88943632D01*
X97402891Y-88788833D01*
X97085552Y-88521648D01*
X96707717Y-88134418D01*
X96258569Y-87619482D01*
X95784979Y-87041219D01*
X95227138Y-86314190D01*
X94723189Y-85584335D01*
X94247389Y-84810107D01*
X93773993Y-83949959D01*
X93350064Y-83111666D01*
X92860694Y-82074382D01*
X92453884Y-81118837D01*
X92110716Y-80191213D01*
X91812274Y-79237688D01*
X91539640Y-78204445D01*
X91371048Y-77481333D01*
X91229638Y-76797529D01*
X91124489Y-76155553D01*
X91051258Y-75510437D01*
X91005604Y-74817212D01*
X90983184Y-74030909D01*
X90978994Y-73421042D01*
X90978299Y-71858418D01*
X90124588Y-72764876D01*
X89760952Y-73138741D01*
X89459911Y-73423424D01*
X89236646Y-73605437D01*
X89106338Y-73671291D01*
X89104383Y-73671333D01*
X88848480Y-73621217D01*
X88618571Y-73495252D01*
X88469019Y-73330014D01*
X88440484Y-73224659D01*
X88466382Y-72709696D01*
X88529998Y-72068087D01*
X88625501Y-71336823D01*
X88747060Y-70552897D01*
X88888844Y-69753298D01*
X89045023Y-68975020D01*
X89209764Y-68255053D01*
X89247661Y-68103914D01*
X89601244Y-66910514D01*
X90054399Y-65684793D01*
X90584835Y-64477679D01*
X91170258Y-63340099D01*
X91758266Y-62368333D01*
X92013352Y-62013272D01*
X92331552Y-61616571D01*
X92684620Y-61208911D01*
X93044308Y-60820972D01*
X93382368Y-60483435D01*
X93670555Y-60226981D01*
X93845556Y-60101200D01*
X94020789Y-60006975D01*
X94112110Y-60004143D01*
X94179968Y-60095589D01*
X94191917Y-60117723D01*
X94215325Y-60207891D01*
X94192365Y-60334637D01*
X94111978Y-60522840D01*
X93963104Y-60797379D01*
X93734684Y-61183131D01*
X93673390Y-61284190D01*
X93220254Y-62067693D01*
X92757989Y-62936840D01*
X92306775Y-63848968D01*
X91886793Y-64761410D01*
X91518223Y-65631504D01*
X91221246Y-66416584D01*
X91158199Y-66601666D01*
X90997304Y-67106202D01*
X90832725Y-67655983D01*
X90671315Y-68224392D01*
X90519926Y-68784814D01*
X90385411Y-69310631D01*
X90274624Y-69775226D01*
X90194417Y-70151983D01*
X90151644Y-70414284D01*
X90148709Y-70522474D01*
X90197356Y-70548849D01*
X90323535Y-70480510D01*
X90538577Y-70309013D01*
X90853809Y-70025912D01*
X91007957Y-69881918D01*
X91423062Y-69503205D01*
X91744028Y-69241931D01*
X91988577Y-69088411D01*
X92174432Y-69032956D01*
X92319315Y-69065883D01*
X92394208Y-69124289D01*
X92454466Y-69207810D01*
X92483790Y-69330406D01*
X92483691Y-69528816D01*
X92455679Y-69839779D01*
X92432095Y-70045433D01*
X92296829Y-71900190D01*
X92327438Y-73775070D01*
X92522795Y-75662197D01*
X92881771Y-77553692D01*
X93403240Y-79441679D01*
X94023208Y-81162952D01*
X94313976Y-81833815D01*
X94668202Y-82563967D01*
X95067362Y-83321499D01*
X95492936Y-84074502D01*
X95926402Y-84791065D01*
X96349238Y-85439280D01*
X96742923Y-85987237D01*
X97021803Y-86329000D01*
X97321251Y-86667666D01*
X97324775Y-85804169D01*
X97347221Y-85158327D01*
X97406030Y-84465316D01*
X97495927Y-83749984D01*
X97611639Y-83037179D01*
X97747889Y-82351750D01*
X97899404Y-81718546D01*
X98060908Y-81162413D01*
X98227127Y-80708200D01*
X98392786Y-80380756D01*
X98505933Y-80239968D01*
X98766540Y-80105855D01*
X99067341Y-80096062D01*
X99348937Y-80200188D01*
X99551930Y-80407831D01*
X99561021Y-80424726D01*
X99636190Y-80629667D01*
X99713208Y-80932574D01*
X99768229Y-81225333D01*
X99857244Y-81634344D01*
X99992391Y-81942099D01*
X100113087Y-82114333D01*
X100224716Y-82280008D01*
X100398446Y-82571033D01*
X100619862Y-82961697D01*
X100874553Y-83426290D01*
X101148104Y-83939100D01*
X101312925Y-84254666D01*
X101869091Y-85312022D01*
X102367551Y-86223751D01*
X102815368Y-87000684D01*
X103219605Y-87653650D01*
X103587325Y-88193482D01*
X103925590Y-88631008D01*
X104241463Y-88977059D01*
X104542008Y-89242466D01*
X104588630Y-89277789D01*
X104805105Y-89432918D01*
X104958476Y-89532981D01*
X105009501Y-89555686D01*
X104992762Y-89473045D01*
X104929202Y-89280116D01*
X104861624Y-89095878D01*
X104743034Y-88746321D01*
X104702138Y-88501723D01*
X104736222Y-88318024D01*
X104806270Y-88197902D01*
X104898291Y-88100544D01*
X105005400Y-88099525D01*
X105166103Y-88174219D01*
X105353056Y-88290696D01*
X105616535Y-88477996D01*
X105903347Y-88698106D01*
X105937622Y-88725576D01*
X106272177Y-88973524D01*
X106640387Y-89213637D01*
X106953622Y-89389243D01*
X107202049Y-89502797D01*
X107421402Y-89574181D01*
X107664828Y-89612942D01*
X107985476Y-89628630D01*
X108299231Y-89631000D01*
X108694272Y-89627963D01*
X108979099Y-89609770D01*
X109212824Y-89562794D01*
X109454562Y-89473406D01*
X109763423Y-89327981D01*
X109894370Y-89263280D01*
X110636245Y-88895560D01*
X110585780Y-88458946D01*
X110559848Y-88141877D01*
X110536995Y-87683312D01*
X110517443Y-87111065D01*
X110501413Y-86452949D01*
X110489128Y-85736777D01*
X110480808Y-84990363D01*
X110476674Y-84241521D01*
X110476949Y-83518064D01*
X110481854Y-82847805D01*
X110491610Y-82258558D01*
X110506438Y-81778136D01*
X110526560Y-81434352D01*
X110529591Y-81400999D01*
X110791170Y-79356177D01*
X111174860Y-77355725D01*
X111675234Y-75416013D01*
X112286863Y-73553412D01*
X113004320Y-71784294D01*
X113822176Y-70125031D01*
X114735005Y-68591992D01*
X114818245Y-68465857D01*
X115171788Y-67950028D01*
X115455025Y-67573342D01*
X115677311Y-67325520D01*
X115848003Y-67196279D01*
X115976456Y-67175340D01*
X115988912Y-67179399D01*
X116051814Y-67217009D01*
X116086708Y-67283727D01*
X116088795Y-67397073D01*
X116053275Y-67574568D01*
X115975348Y-67833733D01*
X115850216Y-68192090D01*
X115673079Y-68667159D01*
X115439137Y-69276462D01*
X115354996Y-69493627D01*
X114756120Y-71084026D01*
X114239134Y-72564070D01*
X113795519Y-73966584D01*
X113416759Y-75324394D01*
X113094335Y-76670323D01*
X112819729Y-78037197D01*
X112584424Y-79457840D01*
X112381429Y-80952666D01*
X112335758Y-81450085D01*
X112301671Y-82083035D01*
X112278955Y-82818125D01*
X112267398Y-83621963D01*
X112266789Y-84461159D01*
X112276916Y-85302321D01*
X112297566Y-86112058D01*
X112328529Y-86856979D01*
X112369591Y-87503693D01*
X112420541Y-88018808D01*
X112426559Y-88064666D01*
X112758807Y-90061989D01*
X113200523Y-91935614D01*
X113755892Y-93694470D01*
X114429102Y-95347484D01*
X115224340Y-96903586D01*
X116145791Y-98371704D01*
X117197642Y-99760765D01*
X118384080Y-101079699D01*
X118659530Y-101357333D01*
X120035076Y-102625766D01*
X121482874Y-103773203D01*
X123011383Y-104803434D01*
X124629062Y-105720246D01*
X126344368Y-106527429D01*
X128165760Y-107228772D01*
X130101697Y-107828064D01*
X132160636Y-108329093D01*
X134351036Y-108735647D01*
X135512966Y-108906683D01*
X135903296Y-108944822D01*
X136436033Y-108975432D01*
X137084424Y-108998633D01*
X137821717Y-109014541D01*
X138621158Y-109023274D01*
X139455994Y-109024949D01*
X140299473Y-109019685D01*
X141124840Y-109007599D01*
X141905342Y-108988809D01*
X142614228Y-108963432D01*
X143224743Y-108931586D01*
X143710134Y-108893389D01*
X143913940Y-108869734D01*
X145766001Y-108582212D01*
X147484805Y-108242636D01*
X149100783Y-107842294D01*
X150644371Y-107372479D01*
X152146000Y-106824479D01*
X153636105Y-106189587D01*
X154202095Y-105925432D01*
X156007487Y-104981489D01*
X157709008Y-103925503D01*
X159299228Y-102764524D01*
X160770721Y-101505600D01*
X162116059Y-100155782D01*
X163327815Y-98722117D01*
X164398559Y-97211655D01*
X165320866Y-95631446D01*
X165572640Y-95134333D01*
X166026648Y-94160714D01*
X166398337Y-93255917D01*
X166711268Y-92356615D01*
X166989004Y-91399482D01*
X167051925Y-91158489D01*
X167306554Y-90094628D01*
X167506263Y-89089232D01*
X167655910Y-88100729D01*
X167760350Y-87087546D01*
X167824441Y-86008111D01*
X167853038Y-84820851D01*
X167855633Y-84278651D01*
X167816393Y-82529454D01*
X167693724Y-80883350D01*
X167480208Y-79293972D01*
X167168421Y-77714952D01*
X166750944Y-76099923D01*
X166325846Y-74720182D01*
X165914027Y-73524316D01*
X165471297Y-72361297D01*
X164986318Y-71207410D01*
X164447755Y-70038940D01*
X163844268Y-68832174D01*
X163164522Y-67563397D01*
X162397177Y-66208894D01*
X161658114Y-64956639D01*
X161360905Y-64455519D01*
X161097027Y-64000203D01*
X160877932Y-63611315D01*
X160715075Y-63309476D01*
X160619907Y-63115310D01*
X160600107Y-63051639D01*
X160698086Y-62968822D01*
X160819042Y-62933253D01*
X160926779Y-62951078D01*
X161077724Y-63041452D01*
X161290031Y-63219155D01*
X161581856Y-63498964D01*
X161859160Y-63779919D01*
X163180561Y-65257418D01*
X164392758Y-66859141D01*
X165492130Y-68576926D01*
X166475059Y-70402614D01*
X167337925Y-72328044D01*
X168077107Y-74345054D01*
X168688985Y-76445484D01*
X169169941Y-78621173D01*
X169516353Y-80863960D01*
X169545384Y-81108299D01*
X169601688Y-81574157D01*
X169655476Y-81979251D01*
X169702492Y-82294436D01*
X169738479Y-82490566D01*
X169754677Y-82541266D01*
X169840734Y-82517597D01*
X170033548Y-82414300D01*
X170301520Y-82249381D01*
X170517003Y-82106844D01*
X171387486Y-81415341D01*
X172163071Y-80593421D01*
X172826262Y-79661277D01*
X173167893Y-79047666D01*
X173367411Y-78605029D01*
X173560080Y-78096344D01*
X173731882Y-77567506D01*
X173868801Y-77064411D01*
X173956821Y-76632955D01*
X173982400Y-76380666D01*
X173980055Y-76160503D01*
X173950350Y-75970022D01*
X173877833Y-75767309D01*
X173747050Y-75510449D01*
X173542549Y-75157527D01*
X173513408Y-75108554D01*
X173179429Y-74520802D01*
X172939553Y-74038437D01*
X172795245Y-73666990D01*
X172747972Y-73411990D01*
X172799203Y-73278969D01*
X172950403Y-73273457D01*
X173035403Y-73306422D01*
X173169080Y-73396375D01*
X173396035Y-73578172D01*
X173686731Y-73827078D01*
X174011630Y-74118360D01*
X174078633Y-74180003D01*
X174662202Y-74707835D01*
X175207910Y-75179153D01*
X175694386Y-75576351D01*
X176100258Y-75881825D01*
X176331019Y-76035358D01*
X176584469Y-76167116D01*
X176800435Y-76210052D01*
X177011299Y-76153220D01*
X177249442Y-75985674D01*
X177547245Y-75696469D01*
X177647436Y-75590374D01*
X178245401Y-74835842D01*
X178766590Y-73939658D01*
X179206677Y-72913223D01*
X179561332Y-71767938D01*
X179826230Y-70515204D01*
X179966757Y-69480333D01*
X180029696Y-68907229D01*
X180083492Y-68482230D01*
X180132110Y-68184617D01*
X180179515Y-67993670D01*
X180229673Y-67888670D01*
X180278588Y-67851125D01*
X180384232Y-67891203D01*
X180560488Y-68029034D01*
X180751880Y-68216879D01*
X180969826Y-68426943D01*
X181139567Y-68544605D01*
X181220797Y-68556520D01*
X181299151Y-68411504D01*
X181306850Y-68116165D01*
X181243810Y-67669346D01*
X181113142Y-67082676D01*
X180956892Y-66438716D01*
X180846497Y-65939951D01*
X180778970Y-65569439D01*
X180751323Y-65310241D01*
X180760569Y-65145413D01*
X180767120Y-65120566D01*
X180841537Y-64989379D01*
X180962616Y-64950851D01*
X181143950Y-65011837D01*
X181399132Y-65179190D01*
X181741754Y-65459763D01*
X182126734Y-65806085D01*
X182614202Y-66244799D01*
X183002069Y-66566276D01*
X183303983Y-66779173D01*
X183533591Y-66892142D01*
X183704542Y-66913839D01*
X183807521Y-66871824D01*
X183863266Y-66811696D01*
X183867673Y-66725470D01*
X183809146Y-66584264D01*
X183676092Y-66359199D01*
X183480447Y-66057131D01*
X183196373Y-65592208D01*
X182947456Y-65105943D01*
X182720745Y-64565882D01*
X182503287Y-63939576D01*
X182282131Y-63194574D01*
X182163526Y-62757640D01*
X181982131Y-62089928D01*
X181813734Y-61514431D01*
X181640115Y-60975963D01*
X181443055Y-60419335D01*
X181204332Y-59789361D01*
X181070626Y-59447333D01*
X180867746Y-58911107D01*
X180735750Y-58506468D01*
X180670690Y-58213105D01*
X180668616Y-58010706D01*
X180725578Y-57878958D01*
X180759133Y-57845444D01*
X180881506Y-57786468D01*
X181034432Y-57802022D01*
X181232344Y-57902206D01*
X181489672Y-58097122D01*
X181820848Y-58396869D01*
X182240304Y-58811549D01*
X182457908Y-59034422D01*
X182843476Y-59429310D01*
X183120341Y-59701473D01*
X183295634Y-59851702D01*
X183376486Y-59880789D01*
X183370027Y-59789525D01*
X183283389Y-59578701D01*
X183123703Y-59249108D01*
X183048933Y-59099996D01*
X182720093Y-58474375D01*
X182378007Y-57884058D01*
X182008202Y-57310617D01*
X181596208Y-56735625D01*
X181127553Y-56140654D01*
X180587767Y-55507278D01*
X179962377Y-54817069D01*
X179236914Y-54051600D01*
X178458974Y-53255247D01*
X177968623Y-52756927D01*
X177586051Y-52362706D01*
X177298603Y-52057645D01*
X177093625Y-51826809D01*
X176958460Y-51655261D01*
X176880453Y-51528064D01*
X176846948Y-51430283D01*
X176844902Y-51350247D01*
X176876272Y-51204367D01*
X176958096Y-51125155D01*
X177136754Y-51083316D01*
X177295966Y-51065333D01*
X177719300Y-51023000D01*
X176308161Y-50365684D01*
X175248649Y-49887295D01*
X174291485Y-49490605D01*
X173398173Y-49163305D01*
X172530218Y-48893088D01*
X171649126Y-48667646D01*
X170716401Y-48474671D01*
X170009519Y-48351887D01*
X169156318Y-48245511D01*
X168216157Y-48184230D01*
X167233071Y-48167147D01*
X166251093Y-48193369D01*
X165314259Y-48261998D01*
X164466603Y-48372139D01*
X163941978Y-48475299D01*
X163046206Y-48728238D01*
X162080237Y-49078465D01*
X161094096Y-49504019D01*
X160137811Y-49982942D01*
X159261410Y-50493274D01*
X159084400Y-50607509D01*
X158335669Y-51159822D01*
X157566204Y-51835538D01*
X156800163Y-52605667D01*
X156061703Y-53441217D01*
X155374982Y-54313196D01*
X154764160Y-55192615D01*
X154253394Y-56050480D01*
X153866841Y-56857801D01*
X153857969Y-56879573D01*
X153759258Y-57128068D01*
X153688396Y-57334072D01*
X153640910Y-57532966D01*
X153612324Y-57760126D01*
X153598165Y-58050933D01*
X153593959Y-58440764D01*
X153595198Y-58957300D01*
X153594913Y-59496143D01*
X153587744Y-59887768D01*
X153571976Y-60154213D01*
X153545891Y-60317515D01*
X153507773Y-60399710D01*
X153481380Y-60418207D01*
X153328789Y-60391594D01*
X153140792Y-60229566D01*
X152932437Y-59958352D01*
X152718776Y-59604179D01*
X152514855Y-59193274D01*
X152335727Y-58751864D01*
X152196438Y-58306177D01*
X152146986Y-58092666D01*
X152063200Y-57733095D01*
X151972049Y-57492310D01*
X151851207Y-57320426D01*
X151764177Y-57237339D01*
X151473220Y-57044718D01*
X151134414Y-56907831D01*
X150792563Y-56835165D01*
X150492472Y-56835205D01*
X150278945Y-56916437D01*
X150245014Y-56949609D01*
X150198732Y-57066824D01*
X150171562Y-57295469D01*
X150162399Y-57654216D01*
X150170138Y-58161738D01*
X150171147Y-58198442D01*
X150202633Y-59320333D01*
X150000208Y-59320333D01*
X149903798Y-59298969D01*
X149801837Y-59219871D01*
X149677080Y-59060535D01*
X149512281Y-58798452D01*
X149290195Y-58411117D01*
X149254138Y-58346666D01*
X148960128Y-57838112D01*
X148696811Y-57437043D01*
X148429906Y-57106782D01*
X148125128Y-56810650D01*
X147748196Y-56511970D01*
X147264825Y-56174063D01*
X147153581Y-56099363D01*
X145991898Y-55395231D01*
X144710887Y-54758045D01*
X143303787Y-54185592D01*
X141763835Y-53675661D01*
X140084271Y-53226040D01*
X138258331Y-52834516D01*
X136279256Y-52498879D01*
X136037931Y-52463239D01*
X135648782Y-52410307D01*
X135318615Y-52372292D01*
X135084955Y-52353071D01*
X134988693Y-52354868D01*
X135015910Y-52422392D01*
X135144928Y-52593352D01*
X135360056Y-52849250D01*
X135645598Y-53171586D01*
X135985861Y-53541862D01*
X136088878Y-53651690D01*
X136789298Y-54407207D01*
X137363101Y-55052579D01*
X137811266Y-55588986D01*
X138134773Y-56017605D01*
X138334600Y-56339616D01*
X138353508Y-56377826D01*
X138443797Y-56720617D01*
X138394198Y-57026428D01*
X138222860Y-57262674D01*
X137947935Y-57396771D01*
X137775577Y-57415333D01*
X137600807Y-57393714D01*
X137305348Y-57334947D01*
X136931398Y-57248166D01*
X136545582Y-57149091D01*
X136260545Y-57073619D01*
X136012627Y-57013359D01*
X135777066Y-56966018D01*
X135529101Y-56929303D01*
X135243969Y-56900919D01*
X134896909Y-56878575D01*
X134463157Y-56859976D01*
X133917953Y-56842829D01*
X133236533Y-56824841D01*
X132972966Y-56818215D01*
X132055598Y-56791472D01*
X131284356Y-56758448D01*
X130636046Y-56715007D01*
X130087474Y-56657009D01*
X129615445Y-56580315D01*
X129196766Y-56480787D01*
X128808242Y-56354286D01*
X128426681Y-56196673D01*
X128028887Y-56003810D01*
X127831599Y-55900809D01*
X127219899Y-55576094D01*
X127365932Y-55823983D01*
X127480973Y-55995182D01*
X127672700Y-56255805D01*
X127910213Y-56564515D01*
X128069191Y-56764769D01*
X128388149Y-57168306D01*
X128606779Y-57464761D01*
X128736588Y-57674200D01*
X128789086Y-57816689D01*
X128775781Y-57912293D01*
X128748185Y-57948647D01*
X128632049Y-57989023D01*
X128382989Y-58031641D01*
X128037259Y-58071502D01*
X127631113Y-58103609D01*
X127618508Y-58104392D01*
X126907388Y-58164819D01*
X126312200Y-58257289D01*
X125780713Y-58393948D01*
X125260699Y-58586941D01*
X124956494Y-58723463D01*
X124101452Y-59212365D01*
X123318293Y-59841269D01*
X122598626Y-60617923D01*
X121991462Y-61460182D01*
X121779013Y-61781907D01*
X121631134Y-61980486D01*
X121525564Y-62078147D01*
X121440041Y-62097120D01*
X121376988Y-62073795D01*
X121242478Y-61912091D01*
X121160533Y-61595557D01*
X121159041Y-61584946D01*
X120981560Y-60702524D01*
X120692801Y-59854129D01*
X120282871Y-59022496D01*
X119741876Y-58190364D01*
X119059922Y-57340470D01*
X118227115Y-56455553D01*
X118208731Y-56437258D01*
X117307741Y-55603080D01*
X116401652Y-54895757D01*
X115440069Y-54278977D01*
X114557966Y-53806958D01*
X113397051Y-53277656D01*
X112287100Y-52873053D01*
X111181036Y-52581489D01*
X110031780Y-52391302D01*
X108792257Y-52290830D01*
X108377300Y-52275944D01*
X107384290Y-52267341D01*
X106498739Y-52302159D01*
X105662876Y-52386769D01*
X104818929Y-52527545D01*
X103909127Y-52730859D01*
X103640198Y-52798454D01*
X102111703Y-53272101D01*
X100575806Y-53909519D01*
X99040995Y-54705894D01*
X97515756Y-55656411D01*
X96008576Y-56756256D01*
X94627256Y-57911831D01*
X94000547Y-58469604D01*
X94331095Y-58556302D01*
X94633654Y-58650448D01*
X94801336Y-58748920D01*
X94867459Y-58875643D01*
X94872966Y-58945381D01*
X94834321Y-59050613D01*
X94710515Y-59182339D01*
X94489742Y-59348066D01*
X94160195Y-59555299D01*
X93710069Y-59811544D01*
X93127555Y-60124307D01*
X92531019Y-60434284D01*
X91987801Y-60708608D01*
X91574894Y-60904905D01*
X91276047Y-61029957D01*
X91075008Y-61090547D01*
X90955526Y-61093458D01*
X90953234Y-61092786D01*
X90653897Y-60935267D01*
X90497641Y-60697400D01*
X90486944Y-60393205D01*
X90624287Y-60036701D01*
X90735578Y-59862203D01*
X90981554Y-59551386D01*
X91335863Y-59151718D01*
X91777556Y-58683707D01*
X92285683Y-58167862D01*
X92839295Y-57624693D01*
X93417442Y-57074707D01*
X93999174Y-56538413D01*
X94563542Y-56036321D01*
X95089596Y-55588939D01*
X95159256Y-55531624D01*
X96526102Y-54499804D01*
X97976147Y-53569514D01*
X99482108Y-52754887D01*
X101016703Y-52070056D01*
X102552649Y-51529157D01*
X103276909Y-51326198D01*
X104066896Y-51134242D01*
X104768225Y-50990160D01*
X105435710Y-50886462D01*
X106124164Y-50815657D01*
X106888404Y-50770253D01*
X107495931Y-50749624D01*
X108898978Y-50749981D01*
X110184906Y-50833635D01*
X111387621Y-51007298D01*
X112541028Y-51277681D01*
X113679036Y-51651499D01*
X114835548Y-52135462D01*
X115084383Y-52251928D01*
X116224892Y-52854506D01*
X117329445Y-53553470D01*
X118377737Y-54330652D01*
X119349465Y-55167886D01*
X120224323Y-56047008D01*
X120982007Y-56949850D01*
X121602213Y-57858248D01*
X121854485Y-58308984D01*
X122163121Y-58906301D01*
X122551543Y-58527421D01*
X123297382Y-57916726D01*
X124155022Y-57426024D01*
X125109612Y-57062913D01*
X125708830Y-56912313D01*
X126191695Y-56812309D01*
X125937714Y-56399538D01*
X125716030Y-55977618D01*
X125485809Y-55429395D01*
X125262471Y-54796200D01*
X125061436Y-54119362D01*
X125002379Y-53892524D01*
X124820121Y-53165838D01*
X125065377Y-52963070D01*
X125210812Y-52859518D01*
X125354047Y-52810917D01*
X125520972Y-52825501D01*
X125737473Y-52911504D01*
X126029440Y-53077158D01*
X126422761Y-53330698D01*
X126606085Y-53453076D01*
X127397047Y-53945604D01*
X128213844Y-54384562D01*
X129012049Y-54748234D01*
X129747234Y-55014903D01*
X129882633Y-55054639D01*
X130101047Y-55112475D01*
X130310480Y-55157462D01*
X130536274Y-55191310D01*
X130803772Y-55215734D01*
X131138317Y-55232447D01*
X131565249Y-55243161D01*
X132109913Y-55249589D01*
X132797650Y-55253445D01*
X132825502Y-55253558D01*
X135091038Y-55262664D01*
X134637140Y-54793832D01*
X133948746Y-54080620D01*
X133371403Y-53476095D01*
X132896646Y-52968986D01*
X132516008Y-52548025D01*
X132221023Y-52201941D01*
X132003226Y-51919466D01*
X131854151Y-51689330D01*
X131765330Y-51500263D01*
X131728299Y-51340997D01*
X131734592Y-51200261D01*
X131775741Y-51066786D01*
X131798776Y-51015585D01*
X131900592Y-50840605D01*
X132029958Y-50715708D01*
X132213632Y-50634309D01*
X132478371Y-50589820D01*
X132850933Y-50575657D01*
X133358074Y-50585233D01*
X133523300Y-50591100D01*
X134707410Y-50661278D01*
X135968010Y-50786903D01*
X137334225Y-50971284D01*
X138444221Y-51149861D01*
X140313738Y-51514456D01*
X142028999Y-51944602D01*
X143592265Y-52441223D01*
X145005795Y-53005241D01*
X146271849Y-53637581D01*
X147392687Y-54339165D01*
X148370568Y-55110917D01*
X148558138Y-55282142D01*
X149178386Y-55863149D01*
X149592739Y-55605573D01*
X150115330Y-55376576D01*
X150683940Y-55296576D01*
X151266587Y-55364272D01*
X151831286Y-55578366D01*
X152045854Y-55705283D01*
X152241692Y-55824329D01*
X152369817Y-55882901D01*
X152392784Y-55882556D01*
X152440512Y-55798397D01*
X152549280Y-55595072D01*
X152702486Y-55303899D01*
X152867754Y-54986620D01*
X153527384Y-53871113D01*
X154332164Y-52772779D01*
X155258008Y-51714565D01*
X156280833Y-50719423D01*
X157376552Y-49810301D01*
X158521081Y-49010149D01*
X159690335Y-48341916D01*
X160000423Y-48190256D01*
X161516886Y-47568192D01*
X163090161Y-47101968D01*
X164711820Y-46791162D01*
X166373438Y-46635355D01*
X168066586Y-46634123D01*
X169782837Y-46787046D01*
G37*
X144485373Y-100308489D02*
X144543420Y-100478915D01*
X144555641Y-100571224D01*
X144524773Y-100784075D01*
X144413577Y-101101418D01*
X144239230Y-101489303D01*
X144018912Y-101913782D01*
X143769801Y-102340905D01*
X143509074Y-102736722D01*
X143354981Y-102944081D01*
X142913036Y-103432097D01*
X142466878Y-103768625D01*
X141994035Y-103970524D01*
X141982234Y-103973838D01*
X141676507Y-104041492D01*
X141409455Y-104047527D01*
X141096287Y-103990858D01*
X140978836Y-103960984D01*
X140605700Y-103783065D01*
X140236396Y-103460599D01*
X139888175Y-103017839D01*
X139578287Y-102479039D01*
X139410841Y-102077000D01*
X140694731Y-102077000D01*
X140814086Y-102307377D01*
X141058865Y-102651963D01*
X141347255Y-102838489D01*
X141666944Y-102863482D01*
X142005623Y-102723472D01*
X142086671Y-102666225D01*
X142288154Y-102490174D01*
X142434440Y-102323117D01*
X142454646Y-102290509D01*
X142482666Y-102219892D01*
X142458981Y-102172385D01*
X142357079Y-102142062D01*
X142150446Y-102122998D01*
X141812569Y-102109267D01*
X141617666Y-102103451D01*
X140694731Y-102077000D01*
X139410841Y-102077000D01*
X139323981Y-101868451D01*
X139200970Y-101461309D01*
X139104161Y-101029302D01*
X139075025Y-100726450D01*
X139112792Y-100527023D01*
X139170566Y-100442933D01*
X139267162Y-100373420D01*
X139393661Y-100352210D01*
X139580590Y-100384842D01*
X139858470Y-100476851D01*
X140257827Y-100633778D01*
X140286259Y-100645355D01*
X140647605Y-100787974D01*
X140921047Y-100875364D01*
X141171167Y-100918868D01*
X141462549Y-100929832D01*
X141849634Y-100919963D01*
X142239707Y-100900737D01*
X142535710Y-100865769D01*
X142799341Y-100799731D01*
X143092298Y-100687296D01*
X143463808Y-100518956D01*
X143882221Y-100334650D01*
X144177082Y-100237425D01*
X144370696Y-100228349D01*
X144485373Y-100308489D01*
G36*
X144485373Y-100308489D02*
G01*
X144543420Y-100478915D01*
X144555641Y-100571224D01*
X144524773Y-100784075D01*
X144413577Y-101101418D01*
X144239230Y-101489303D01*
X144018912Y-101913782D01*
X143769801Y-102340905D01*
X143509074Y-102736722D01*
X143354981Y-102944081D01*
X142913036Y-103432097D01*
X142466878Y-103768625D01*
X141994035Y-103970524D01*
X141982234Y-103973838D01*
X141676507Y-104041492D01*
X141409455Y-104047527D01*
X141096287Y-103990858D01*
X140978836Y-103960984D01*
X140605700Y-103783065D01*
X140236396Y-103460599D01*
X139888175Y-103017839D01*
X139578287Y-102479039D01*
X139410841Y-102077000D01*
X140694731Y-102077000D01*
X140814086Y-102307377D01*
X141058865Y-102651963D01*
X141347255Y-102838489D01*
X141666944Y-102863482D01*
X142005623Y-102723472D01*
X142086671Y-102666225D01*
X142288154Y-102490174D01*
X142434440Y-102323117D01*
X142454646Y-102290509D01*
X142482666Y-102219892D01*
X142458981Y-102172385D01*
X142357079Y-102142062D01*
X142150446Y-102122998D01*
X141812569Y-102109267D01*
X141617666Y-102103451D01*
X140694731Y-102077000D01*
X139410841Y-102077000D01*
X139323981Y-101868451D01*
X139200970Y-101461309D01*
X139104161Y-101029302D01*
X139075025Y-100726450D01*
X139112792Y-100527023D01*
X139170566Y-100442933D01*
X139267162Y-100373420D01*
X139393661Y-100352210D01*
X139580590Y-100384842D01*
X139858470Y-100476851D01*
X140257827Y-100633778D01*
X140286259Y-100645355D01*
X140647605Y-100787974D01*
X140921047Y-100875364D01*
X141171167Y-100918868D01*
X141462549Y-100929832D01*
X141849634Y-100919963D01*
X142239707Y-100900737D01*
X142535710Y-100865769D01*
X142799341Y-100799731D01*
X143092298Y-100687296D01*
X143463808Y-100518956D01*
X143882221Y-100334650D01*
X144177082Y-100237425D01*
X144370696Y-100228349D01*
X144485373Y-100308489D01*
G37*
X141150525Y-84232822D02*
X141512039Y-84258792D01*
X141819882Y-84310196D01*
X142131764Y-84395180D01*
X142314056Y-84455129D01*
X143029913Y-84752720D01*
X143659649Y-85138440D01*
X144257090Y-85646782D01*
X144406914Y-85796251D01*
X145082423Y-86592621D01*
X145697365Y-87527313D01*
X146239937Y-88576491D01*
X146698337Y-89716319D01*
X147060764Y-90922959D01*
X147164937Y-91366666D01*
X147229960Y-91717174D01*
X147275600Y-92098717D01*
X147304437Y-92548074D01*
X147319049Y-93102020D01*
X147322224Y-93610333D01*
X147320073Y-94183415D01*
X147310945Y-94623078D01*
X147291676Y-94965190D01*
X147259101Y-95245622D01*
X147210057Y-95500244D01*
X147141380Y-95764926D01*
X147128054Y-95811666D01*
X146772195Y-96772411D01*
X146288272Y-97647176D01*
X145689440Y-98422590D01*
X144988858Y-99085282D01*
X144199683Y-99621880D01*
X143335074Y-100019012D01*
X142837740Y-100171716D01*
X142328331Y-100266940D01*
X141737778Y-100322034D01*
X141123419Y-100336195D01*
X140542596Y-100308620D01*
X140052647Y-100238504D01*
X139943791Y-100212285D01*
X138947640Y-99859154D01*
X138036863Y-99361374D01*
X137214694Y-98722377D01*
X136484370Y-97945593D01*
X135849127Y-97034451D01*
X135312200Y-95992384D01*
X134885160Y-94849488D01*
X134695864Y-94186159D01*
X134560721Y-93556447D01*
X134474066Y-92914019D01*
X134430233Y-92212538D01*
X134423555Y-91405671D01*
X134428412Y-91114297D01*
X134441268Y-90573392D01*
X134456805Y-90163998D01*
X134480386Y-89848315D01*
X134517376Y-89588542D01*
X134573139Y-89346881D01*
X134653038Y-89085529D01*
X134760945Y-88770958D01*
X135194837Y-87731638D01*
X135723982Y-86817758D01*
X135962396Y-86516681D01*
X138908217Y-86516681D01*
X138993055Y-86498917D01*
X139009118Y-86492889D01*
X139112796Y-86425817D01*
X139113540Y-86387684D01*
X139023975Y-86397181D01*
X138961722Y-86445493D01*
X138908217Y-86516681D01*
X135962396Y-86516681D01*
X136111015Y-86329000D01*
X139238300Y-86329000D01*
X139280633Y-86371333D01*
X139322966Y-86329000D01*
X139280633Y-86286666D01*
X139238300Y-86329000D01*
X136111015Y-86329000D01*
X136170179Y-86254285D01*
X139449149Y-86254285D01*
X139494100Y-86271532D01*
X139634251Y-86253739D01*
X139830966Y-86202000D01*
X139959984Y-86153415D01*
X139932055Y-86134065D01*
X139873300Y-86131723D01*
X139650913Y-86163655D01*
X139534633Y-86202000D01*
X139449149Y-86254285D01*
X136170179Y-86254285D01*
X136343054Y-86035974D01*
X137046727Y-85392942D01*
X137829676Y-84895318D01*
X137883633Y-84867941D01*
X138508108Y-84582327D01*
X139074316Y-84390209D01*
X139645036Y-84277119D01*
X140283045Y-84228593D01*
X140677633Y-84224142D01*
X141150525Y-84232822D01*
G36*
X141150525Y-84232822D02*
G01*
X141512039Y-84258792D01*
X141819882Y-84310196D01*
X142131764Y-84395180D01*
X142314056Y-84455129D01*
X143029913Y-84752720D01*
X143659649Y-85138440D01*
X144257090Y-85646782D01*
X144406914Y-85796251D01*
X145082423Y-86592621D01*
X145697365Y-87527313D01*
X146239937Y-88576491D01*
X146698337Y-89716319D01*
X147060764Y-90922959D01*
X147164937Y-91366666D01*
X147229960Y-91717174D01*
X147275600Y-92098717D01*
X147304437Y-92548074D01*
X147319049Y-93102020D01*
X147322224Y-93610333D01*
X147320073Y-94183415D01*
X147310945Y-94623078D01*
X147291676Y-94965190D01*
X147259101Y-95245622D01*
X147210057Y-95500244D01*
X147141380Y-95764926D01*
X147128054Y-95811666D01*
X146772195Y-96772411D01*
X146288272Y-97647176D01*
X145689440Y-98422590D01*
X144988858Y-99085282D01*
X144199683Y-99621880D01*
X143335074Y-100019012D01*
X142837740Y-100171716D01*
X142328331Y-100266940D01*
X141737778Y-100322034D01*
X141123419Y-100336195D01*
X140542596Y-100308620D01*
X140052647Y-100238504D01*
X139943791Y-100212285D01*
X138947640Y-99859154D01*
X138036863Y-99361374D01*
X137214694Y-98722377D01*
X136484370Y-97945593D01*
X135849127Y-97034451D01*
X135312200Y-95992384D01*
X134885160Y-94849488D01*
X134695864Y-94186159D01*
X134560721Y-93556447D01*
X134474066Y-92914019D01*
X134430233Y-92212538D01*
X134423555Y-91405671D01*
X134428412Y-91114297D01*
X134441268Y-90573392D01*
X134456805Y-90163998D01*
X134480386Y-89848315D01*
X134517376Y-89588542D01*
X134573139Y-89346881D01*
X134653038Y-89085529D01*
X134760945Y-88770958D01*
X135194837Y-87731638D01*
X135723982Y-86817758D01*
X135962396Y-86516681D01*
X138908217Y-86516681D01*
X138993055Y-86498917D01*
X139009118Y-86492889D01*
X139112796Y-86425817D01*
X139113540Y-86387684D01*
X139023975Y-86397181D01*
X138961722Y-86445493D01*
X138908217Y-86516681D01*
X135962396Y-86516681D01*
X136111015Y-86329000D01*
X139238300Y-86329000D01*
X139280633Y-86371333D01*
X139322966Y-86329000D01*
X139280633Y-86286666D01*
X139238300Y-86329000D01*
X136111015Y-86329000D01*
X136170179Y-86254285D01*
X139449149Y-86254285D01*
X139494100Y-86271532D01*
X139634251Y-86253739D01*
X139830966Y-86202000D01*
X139959984Y-86153415D01*
X139932055Y-86134065D01*
X139873300Y-86131723D01*
X139650913Y-86163655D01*
X139534633Y-86202000D01*
X139449149Y-86254285D01*
X136170179Y-86254285D01*
X136343054Y-86035974D01*
X137046727Y-85392942D01*
X137829676Y-84895318D01*
X137883633Y-84867941D01*
X138508108Y-84582327D01*
X139074316Y-84390209D01*
X139645036Y-84277119D01*
X140283045Y-84228593D01*
X140677633Y-84224142D01*
X141150525Y-84232822D01*
G37*
X127067923Y-76981920D02*
X127718683Y-77127096D01*
X128323900Y-77401847D01*
X128913880Y-77821573D01*
X129170104Y-78050153D01*
X129817335Y-78761573D01*
X130336290Y-79559220D01*
X130736558Y-80460424D01*
X130998880Y-81355683D01*
X131092329Y-81919211D01*
X131142119Y-82587342D01*
X131148968Y-83303455D01*
X131113592Y-84010928D01*
X131036711Y-84653137D01*
X130951953Y-85059000D01*
X130739972Y-85710026D01*
X130457141Y-86360628D01*
X130129840Y-86958014D01*
X129784447Y-87449390D01*
X129719088Y-87526260D01*
X129156357Y-88055912D01*
X128512684Y-88475374D01*
X127816848Y-88774830D01*
X127097627Y-88944464D01*
X126383800Y-88974459D01*
X125768834Y-88873696D01*
X125028022Y-88587083D01*
X124358158Y-88153919D01*
X123755484Y-87570740D01*
X123216239Y-86834083D01*
X122858271Y-86193007D01*
X122600127Y-85648793D01*
X122408414Y-85163507D01*
X122275181Y-84696237D01*
X122192475Y-84206069D01*
X122152346Y-83652091D01*
X122146840Y-82993390D01*
X122155532Y-82577320D01*
X122173721Y-82024609D01*
X122196516Y-81602636D01*
X122228777Y-81272807D01*
X122265229Y-81056635D01*
X124377571Y-81056635D01*
X124451258Y-81316311D01*
X124647079Y-81616533D01*
X124910874Y-81765627D01*
X125225496Y-81757167D01*
X125420671Y-81679557D01*
X125781285Y-81415858D01*
X126106873Y-81043028D01*
X126366097Y-80610592D01*
X126527615Y-80168074D01*
X126565817Y-79869925D01*
X126508967Y-79475948D01*
X126335627Y-79204516D01*
X126044266Y-79053843D01*
X125839144Y-79022182D01*
X125573150Y-79023833D01*
X125373934Y-79092524D01*
X125154861Y-79258803D01*
X125145927Y-79266627D01*
X124772975Y-79675342D01*
X124513170Y-80131834D01*
X124377654Y-80603224D01*
X124377571Y-81056635D01*
X122265229Y-81056635D01*
X122275365Y-80996527D01*
X122341138Y-80735201D01*
X122418734Y-80487000D01*
X122791788Y-79559699D01*
X123250605Y-78765325D01*
X123789085Y-78108479D01*
X124401129Y-77593757D01*
X125080635Y-77225760D01*
X125821505Y-77009085D01*
X126617639Y-76948333D01*
X127067923Y-76981920D01*
G36*
X127067923Y-76981920D02*
G01*
X127718683Y-77127096D01*
X128323900Y-77401847D01*
X128913880Y-77821573D01*
X129170104Y-78050153D01*
X129817335Y-78761573D01*
X130336290Y-79559220D01*
X130736558Y-80460424D01*
X130998880Y-81355683D01*
X131092329Y-81919211D01*
X131142119Y-82587342D01*
X131148968Y-83303455D01*
X131113592Y-84010928D01*
X131036711Y-84653137D01*
X130951953Y-85059000D01*
X130739972Y-85710026D01*
X130457141Y-86360628D01*
X130129840Y-86958014D01*
X129784447Y-87449390D01*
X129719088Y-87526260D01*
X129156357Y-88055912D01*
X128512684Y-88475374D01*
X127816848Y-88774830D01*
X127097627Y-88944464D01*
X126383800Y-88974459D01*
X125768834Y-88873696D01*
X125028022Y-88587083D01*
X124358158Y-88153919D01*
X123755484Y-87570740D01*
X123216239Y-86834083D01*
X122858271Y-86193007D01*
X122600127Y-85648793D01*
X122408414Y-85163507D01*
X122275181Y-84696237D01*
X122192475Y-84206069D01*
X122152346Y-83652091D01*
X122146840Y-82993390D01*
X122155532Y-82577320D01*
X122173721Y-82024609D01*
X122196516Y-81602636D01*
X122228777Y-81272807D01*
X122265229Y-81056635D01*
X124377571Y-81056635D01*
X124451258Y-81316311D01*
X124647079Y-81616533D01*
X124910874Y-81765627D01*
X125225496Y-81757167D01*
X125420671Y-81679557D01*
X125781285Y-81415858D01*
X126106873Y-81043028D01*
X126366097Y-80610592D01*
X126527615Y-80168074D01*
X126565817Y-79869925D01*
X126508967Y-79475948D01*
X126335627Y-79204516D01*
X126044266Y-79053843D01*
X125839144Y-79022182D01*
X125573150Y-79023833D01*
X125373934Y-79092524D01*
X125154861Y-79258803D01*
X125145927Y-79266627D01*
X124772975Y-79675342D01*
X124513170Y-80131834D01*
X124377654Y-80603224D01*
X124377571Y-81056635D01*
X122265229Y-81056635D01*
X122275365Y-80996527D01*
X122341138Y-80735201D01*
X122418734Y-80487000D01*
X122791788Y-79559699D01*
X123250605Y-78765325D01*
X123789085Y-78108479D01*
X124401129Y-77593757D01*
X125080635Y-77225760D01*
X125821505Y-77009085D01*
X126617639Y-76948333D01*
X127067923Y-76981920D01*
G37*
X154326932Y-75869390D02*
X154878473Y-75984086D01*
X155381472Y-76194788D01*
X155890596Y-76518879D01*
X155937992Y-76553762D01*
X156479100Y-77037381D01*
X156995953Y-77652815D01*
X157464920Y-78362545D01*
X157862368Y-79129054D01*
X158164668Y-79914824D01*
X158255406Y-80233000D01*
X158324353Y-80613941D01*
X158374476Y-81111851D01*
X158405253Y-81682118D01*
X158416160Y-82280130D01*
X158406672Y-82861275D01*
X158376268Y-83380941D01*
X158324422Y-83794518D01*
X158298635Y-83916000D01*
X158007297Y-84817083D01*
X157615821Y-85620420D01*
X157136295Y-86316980D01*
X156580807Y-86897734D01*
X155961445Y-87353654D01*
X155290297Y-87675710D01*
X154579450Y-87854874D01*
X153840992Y-87882115D01*
X153146031Y-87764811D01*
X152557174Y-87560842D01*
X152025680Y-87271195D01*
X151506822Y-86868285D01*
X151166086Y-86543668D01*
X150565788Y-85833102D01*
X150095812Y-85042910D01*
X149751489Y-84161158D01*
X149528149Y-83175906D01*
X149421492Y-82083650D01*
X149425189Y-81016757D01*
X149540531Y-80055240D01*
X149648974Y-79645581D01*
X151760876Y-79645581D01*
X151821606Y-79992303D01*
X151976784Y-80236848D01*
X152247283Y-80409149D01*
X152559833Y-80422385D01*
X152921430Y-80276471D01*
X153006377Y-80224224D01*
X153426062Y-79861781D01*
X153740072Y-79404479D01*
X153922285Y-78895130D01*
X153953518Y-78672036D01*
X153964611Y-78372497D01*
X153935878Y-78183053D01*
X153855366Y-78046778D01*
X153812609Y-78000976D01*
X153542425Y-77810899D01*
X153243977Y-77770290D01*
X152887972Y-77876128D01*
X152836310Y-77900304D01*
X152477808Y-78140920D01*
X152178875Y-78468754D01*
X151951649Y-78850808D01*
X151808270Y-79254083D01*
X151760876Y-79645581D01*
X149648974Y-79645581D01*
X149774509Y-79171357D01*
X150134112Y-78337363D01*
X150536558Y-77657799D01*
X151026984Y-77023685D01*
X151574650Y-76525229D01*
X152215589Y-76130086D01*
X152267390Y-76104222D01*
X152539092Y-75976868D01*
X152763227Y-75896717D01*
X152994796Y-75853165D01*
X153288802Y-75835603D01*
X153672186Y-75833320D01*
X154326932Y-75869390D01*
G36*
X154326932Y-75869390D02*
G01*
X154878473Y-75984086D01*
X155381472Y-76194788D01*
X155890596Y-76518879D01*
X155937992Y-76553762D01*
X156479100Y-77037381D01*
X156995953Y-77652815D01*
X157464920Y-78362545D01*
X157862368Y-79129054D01*
X158164668Y-79914824D01*
X158255406Y-80233000D01*
X158324353Y-80613941D01*
X158374476Y-81111851D01*
X158405253Y-81682118D01*
X158416160Y-82280130D01*
X158406672Y-82861275D01*
X158376268Y-83380941D01*
X158324422Y-83794518D01*
X158298635Y-83916000D01*
X158007297Y-84817083D01*
X157615821Y-85620420D01*
X157136295Y-86316980D01*
X156580807Y-86897734D01*
X155961445Y-87353654D01*
X155290297Y-87675710D01*
X154579450Y-87854874D01*
X153840992Y-87882115D01*
X153146031Y-87764811D01*
X152557174Y-87560842D01*
X152025680Y-87271195D01*
X151506822Y-86868285D01*
X151166086Y-86543668D01*
X150565788Y-85833102D01*
X150095812Y-85042910D01*
X149751489Y-84161158D01*
X149528149Y-83175906D01*
X149421492Y-82083650D01*
X149425189Y-81016757D01*
X149540531Y-80055240D01*
X149648974Y-79645581D01*
X151760876Y-79645581D01*
X151821606Y-79992303D01*
X151976784Y-80236848D01*
X152247283Y-80409149D01*
X152559833Y-80422385D01*
X152921430Y-80276471D01*
X153006377Y-80224224D01*
X153426062Y-79861781D01*
X153740072Y-79404479D01*
X153922285Y-78895130D01*
X153953518Y-78672036D01*
X153964611Y-78372497D01*
X153935878Y-78183053D01*
X153855366Y-78046778D01*
X153812609Y-78000976D01*
X153542425Y-77810899D01*
X153243977Y-77770290D01*
X152887972Y-77876128D01*
X152836310Y-77900304D01*
X152477808Y-78140920D01*
X152178875Y-78468754D01*
X151951649Y-78850808D01*
X151808270Y-79254083D01*
X151760876Y-79645581D01*
X149648974Y-79645581D01*
X149774509Y-79171357D01*
X150134112Y-78337363D01*
X150536558Y-77657799D01*
X151026984Y-77023685D01*
X151574650Y-76525229D01*
X152215589Y-76130086D01*
X152267390Y-76104222D01*
X152539092Y-75976868D01*
X152763227Y-75896717D01*
X152994796Y-75853165D01*
X153288802Y-75835603D01*
X153672186Y-75833320D01*
X154326932Y-75869390D01*
G37*
X125384907Y-73371181D02*
X126053501Y-73518302D01*
X126697865Y-73759487D01*
X126905832Y-73862883D01*
X127335151Y-74130451D01*
X127765954Y-74465402D01*
X128150270Y-74825821D01*
X128440126Y-75169797D01*
X128493028Y-75249632D01*
X128604106Y-75447354D01*
X128624537Y-75565672D01*
X128561623Y-75663310D01*
X128546393Y-75678858D01*
X128444678Y-75754478D01*
X128334970Y-75739360D01*
X128155924Y-75625045D01*
X128155854Y-75624995D01*
X127878841Y-75455684D01*
X127492378Y-75255338D01*
X127047530Y-75046852D01*
X126595364Y-74853123D01*
X126186945Y-74697045D01*
X125873338Y-74601513D01*
X125872788Y-74601386D01*
X125317743Y-74526974D01*
X124797773Y-74573830D01*
X124304491Y-74748654D01*
X123829509Y-75058148D01*
X123364438Y-75509011D01*
X122900891Y-76107945D01*
X122430479Y-76861649D01*
X121976076Y-77714166D01*
X121744105Y-78150592D01*
X121559914Y-78433521D01*
X121416627Y-78569726D01*
X121307368Y-78565980D01*
X121231898Y-78447132D01*
X121204681Y-78223942D01*
X121232582Y-77878001D01*
X121306697Y-77443326D01*
X121418123Y-76953930D01*
X121557959Y-76443829D01*
X121717301Y-75947037D01*
X121887246Y-75497569D01*
X122058891Y-75129440D01*
X122134289Y-74999421D01*
X122485773Y-74514034D01*
X122882964Y-74079530D01*
X123288258Y-73733100D01*
X123617300Y-73532710D01*
X124128451Y-73374534D01*
X124730439Y-73321975D01*
X125384907Y-73371181D01*
G36*
X125384907Y-73371181D02*
G01*
X126053501Y-73518302D01*
X126697865Y-73759487D01*
X126905832Y-73862883D01*
X127335151Y-74130451D01*
X127765954Y-74465402D01*
X128150270Y-74825821D01*
X128440126Y-75169797D01*
X128493028Y-75249632D01*
X128604106Y-75447354D01*
X128624537Y-75565672D01*
X128561623Y-75663310D01*
X128546393Y-75678858D01*
X128444678Y-75754478D01*
X128334970Y-75739360D01*
X128155924Y-75625045D01*
X128155854Y-75624995D01*
X127878841Y-75455684D01*
X127492378Y-75255338D01*
X127047530Y-75046852D01*
X126595364Y-74853123D01*
X126186945Y-74697045D01*
X125873338Y-74601513D01*
X125872788Y-74601386D01*
X125317743Y-74526974D01*
X124797773Y-74573830D01*
X124304491Y-74748654D01*
X123829509Y-75058148D01*
X123364438Y-75509011D01*
X122900891Y-76107945D01*
X122430479Y-76861649D01*
X121976076Y-77714166D01*
X121744105Y-78150592D01*
X121559914Y-78433521D01*
X121416627Y-78569726D01*
X121307368Y-78565980D01*
X121231898Y-78447132D01*
X121204681Y-78223942D01*
X121232582Y-77878001D01*
X121306697Y-77443326D01*
X121418123Y-76953930D01*
X121557959Y-76443829D01*
X121717301Y-75947037D01*
X121887246Y-75497569D01*
X122058891Y-75129440D01*
X122134289Y-74999421D01*
X122485773Y-74514034D01*
X122882964Y-74079530D01*
X123288258Y-73733100D01*
X123617300Y-73532710D01*
X124128451Y-73374534D01*
X124730439Y-73321975D01*
X125384907Y-73371181D01*
G37*
X155618869Y-72062853D02*
X155840853Y-72151357D01*
X156166980Y-72368494D01*
X156535281Y-72695118D01*
X156907800Y-73091543D01*
X157246579Y-73518084D01*
X157464856Y-73849326D01*
X157651526Y-74209734D01*
X157839225Y-74647110D01*
X158012352Y-75115884D01*
X158155307Y-75570487D01*
X158252489Y-75965348D01*
X158288300Y-76254679D01*
X158254249Y-76484639D01*
X158154338Y-76561330D01*
X157991924Y-76486021D01*
X157770365Y-76259980D01*
X157557706Y-75978500D01*
X157090543Y-75320862D01*
X156697287Y-74790271D01*
X156362455Y-74369954D01*
X156070568Y-74043139D01*
X155806144Y-73793054D01*
X155553703Y-73602926D01*
X155297765Y-73455984D01*
X155177223Y-73399434D01*
X154677814Y-73270140D01*
X154128470Y-73299655D01*
X153533477Y-73486373D01*
X152897122Y-73828687D01*
X152223694Y-74324990D01*
X151861472Y-74642294D01*
X151553884Y-74917387D01*
X151282910Y-75144248D01*
X151076396Y-75300620D01*
X150962191Y-75364248D01*
X150957640Y-75364666D01*
X150843710Y-75306861D01*
X150833012Y-75146914D01*
X150911710Y-74905033D01*
X151065966Y-74601420D01*
X151281944Y-74256283D01*
X151545807Y-73889825D01*
X151843718Y-73522253D01*
X152161839Y-73173770D01*
X152486334Y-72864584D01*
X152803366Y-72614897D01*
X152872127Y-72569066D01*
X153400542Y-72293602D01*
X153979437Y-72099618D01*
X154568799Y-71992746D01*
X155128614Y-71978614D01*
X155618869Y-72062853D01*
G36*
X155618869Y-72062853D02*
G01*
X155840853Y-72151357D01*
X156166980Y-72368494D01*
X156535281Y-72695118D01*
X156907800Y-73091543D01*
X157246579Y-73518084D01*
X157464856Y-73849326D01*
X157651526Y-74209734D01*
X157839225Y-74647110D01*
X158012352Y-75115884D01*
X158155307Y-75570487D01*
X158252489Y-75965348D01*
X158288300Y-76254679D01*
X158254249Y-76484639D01*
X158154338Y-76561330D01*
X157991924Y-76486021D01*
X157770365Y-76259980D01*
X157557706Y-75978500D01*
X157090543Y-75320862D01*
X156697287Y-74790271D01*
X156362455Y-74369954D01*
X156070568Y-74043139D01*
X155806144Y-73793054D01*
X155553703Y-73602926D01*
X155297765Y-73455984D01*
X155177223Y-73399434D01*
X154677814Y-73270140D01*
X154128470Y-73299655D01*
X153533477Y-73486373D01*
X152897122Y-73828687D01*
X152223694Y-74324990D01*
X151861472Y-74642294D01*
X151553884Y-74917387D01*
X151282910Y-75144248D01*
X151076396Y-75300620D01*
X150962191Y-75364248D01*
X150957640Y-75364666D01*
X150843710Y-75306861D01*
X150833012Y-75146914D01*
X150911710Y-74905033D01*
X151065966Y-74601420D01*
X151281944Y-74256283D01*
X151545807Y-73889825D01*
X151843718Y-73522253D01*
X152161839Y-73173770D01*
X152486334Y-72864584D01*
X152803366Y-72614897D01*
X152872127Y-72569066D01*
X153400542Y-72293602D01*
X153979437Y-72099618D01*
X154568799Y-71992746D01*
X155128614Y-71978614D01*
X155618869Y-72062853D01*
G37*
X99790085Y-68837308D02*
X99922530Y-69037720D01*
X99936329Y-69109787D01*
X99890757Y-69330323D01*
X99697490Y-69548164D01*
X99349762Y-69768622D01*
X98840809Y-69997009D01*
X98771874Y-70023930D01*
X98336567Y-70180119D01*
X98021882Y-70260549D01*
X97798309Y-70267784D01*
X97636337Y-70204388D01*
X97553088Y-70129833D01*
X97418863Y-69888741D01*
X97452517Y-69646850D01*
X97654468Y-69403489D01*
X98025134Y-69157992D01*
X98224923Y-69057061D01*
X98743116Y-68848038D01*
X99186175Y-68742029D01*
X99539899Y-68738599D01*
X99790085Y-68837308D01*
G36*
X99790085Y-68837308D02*
G01*
X99922530Y-69037720D01*
X99936329Y-69109787D01*
X99890757Y-69330323D01*
X99697490Y-69548164D01*
X99349762Y-69768622D01*
X98840809Y-69997009D01*
X98771874Y-70023930D01*
X98336567Y-70180119D01*
X98021882Y-70260549D01*
X97798309Y-70267784D01*
X97636337Y-70204388D01*
X97553088Y-70129833D01*
X97418863Y-69888741D01*
X97452517Y-69646850D01*
X97654468Y-69403489D01*
X98025134Y-69157992D01*
X98224923Y-69057061D01*
X98743116Y-68848038D01*
X99186175Y-68742029D01*
X99539899Y-68738599D01*
X99790085Y-68837308D01*
G37*
X116086763Y-64480313D02*
X116382108Y-64606038D01*
X116592197Y-64829755D01*
X116701720Y-65108618D01*
X116695365Y-65399779D01*
X116557823Y-65660393D01*
X116521638Y-65697317D01*
X116357429Y-65797025D01*
X116051486Y-65917641D01*
X115595960Y-66061839D01*
X114983004Y-66232296D01*
X114849471Y-66267512D01*
X113542001Y-66613796D01*
X112382985Y-66930095D01*
X111355405Y-67222385D01*
X110442245Y-67496644D01*
X109626486Y-67758847D01*
X108891113Y-68014971D01*
X108219108Y-68270992D01*
X107593454Y-68532886D01*
X106997133Y-68806630D01*
X106413129Y-69098200D01*
X105824424Y-69413571D01*
X105709041Y-69477564D01*
X105245385Y-69730449D01*
X104905532Y-69900872D01*
X104669787Y-69996273D01*
X104518456Y-70024092D01*
X104431843Y-69991767D01*
X104412904Y-69967166D01*
X104413460Y-69807933D01*
X104544793Y-69577195D01*
X104791079Y-69288193D01*
X105136496Y-68954173D01*
X105565221Y-68588376D01*
X106061432Y-68204048D01*
X106609305Y-67814431D01*
X107193019Y-67432769D01*
X107796750Y-67072305D01*
X108019978Y-66948079D01*
X108640044Y-66633225D01*
X109342780Y-66316120D01*
X110106394Y-66003432D01*
X110909093Y-65701827D01*
X111729086Y-65417971D01*
X112544580Y-65158532D01*
X113333783Y-64930175D01*
X114074904Y-64739568D01*
X114746149Y-64593376D01*
X115325726Y-64498267D01*
X115791844Y-64460907D01*
X116086763Y-64480313D01*
G36*
X116086763Y-64480313D02*
G01*
X116382108Y-64606038D01*
X116592197Y-64829755D01*
X116701720Y-65108618D01*
X116695365Y-65399779D01*
X116557823Y-65660393D01*
X116521638Y-65697317D01*
X116357429Y-65797025D01*
X116051486Y-65917641D01*
X115595960Y-66061839D01*
X114983004Y-66232296D01*
X114849471Y-66267512D01*
X113542001Y-66613796D01*
X112382985Y-66930095D01*
X111355405Y-67222385D01*
X110442245Y-67496644D01*
X109626486Y-67758847D01*
X108891113Y-68014971D01*
X108219108Y-68270992D01*
X107593454Y-68532886D01*
X106997133Y-68806630D01*
X106413129Y-69098200D01*
X105824424Y-69413571D01*
X105709041Y-69477564D01*
X105245385Y-69730449D01*
X104905532Y-69900872D01*
X104669787Y-69996273D01*
X104518456Y-70024092D01*
X104431843Y-69991767D01*
X104412904Y-69967166D01*
X104413460Y-69807933D01*
X104544793Y-69577195D01*
X104791079Y-69288193D01*
X105136496Y-68954173D01*
X105565221Y-68588376D01*
X106061432Y-68204048D01*
X106609305Y-67814431D01*
X107193019Y-67432769D01*
X107796750Y-67072305D01*
X108019978Y-66948079D01*
X108640044Y-66633225D01*
X109342780Y-66316120D01*
X110106394Y-66003432D01*
X110909093Y-65701827D01*
X111729086Y-65417971D01*
X112544580Y-65158532D01*
X113333783Y-64930175D01*
X114074904Y-64739568D01*
X114746149Y-64593376D01*
X115325726Y-64498267D01*
X115791844Y-64460907D01*
X116086763Y-64480313D01*
G37*
X118973245Y-66082593D02*
X119172300Y-66220666D01*
X119319785Y-66468156D01*
X119301894Y-66748545D01*
X119118876Y-67059484D01*
X119078862Y-67106720D01*
X118816717Y-67334295D01*
X118576593Y-67400887D01*
X118367368Y-67305511D01*
X118276464Y-67195782D01*
X118197806Y-66930042D01*
X118261331Y-66621572D01*
X118458515Y-66304851D01*
X118511429Y-66245475D01*
X118743766Y-66079539D01*
X118973245Y-66082593D01*
G36*
X118973245Y-66082593D02*
G01*
X119172300Y-66220666D01*
X119319785Y-66468156D01*
X119301894Y-66748545D01*
X119118876Y-67059484D01*
X119078862Y-67106720D01*
X118816717Y-67334295D01*
X118576593Y-67400887D01*
X118367368Y-67305511D01*
X118276464Y-67195782D01*
X118197806Y-66930042D01*
X118261331Y-66621572D01*
X118458515Y-66304851D01*
X118511429Y-66245475D01*
X118743766Y-66079539D01*
X118973245Y-66082593D01*
G37*
X120481572Y-63545333D02*
X120718858Y-63668977D01*
X120818148Y-63887639D01*
X120780220Y-64203723D01*
X120736184Y-64333862D01*
X120544691Y-64722087D01*
X120311863Y-65022126D01*
X120060767Y-65218514D01*
X119814472Y-65295782D01*
X119596047Y-65238466D01*
X119507222Y-65157821D01*
X119407410Y-64909256D01*
X119441020Y-64581175D01*
X119605479Y-64194954D01*
X119627792Y-64156056D01*
X119897431Y-63782563D01*
X120170140Y-63576023D01*
X120444362Y-63537550D01*
X120481572Y-63545333D01*
G36*
X120481572Y-63545333D02*
G01*
X120718858Y-63668977D01*
X120818148Y-63887639D01*
X120780220Y-64203723D01*
X120736184Y-64333862D01*
X120544691Y-64722087D01*
X120311863Y-65022126D01*
X120060767Y-65218514D01*
X119814472Y-65295782D01*
X119596047Y-65238466D01*
X119507222Y-65157821D01*
X119407410Y-64909256D01*
X119441020Y-64581175D01*
X119605479Y-64194954D01*
X119627792Y-64156056D01*
X119897431Y-63782563D01*
X120170140Y-63576023D01*
X120444362Y-63537550D01*
X120481572Y-63545333D01*
G37*
X165579511Y-59581785D02*
X166512683Y-59663407D01*
X167388676Y-59827319D01*
X167590025Y-59880169D01*
X168151591Y-60049528D01*
X168556469Y-60201836D01*
X168815803Y-60342518D01*
X168940740Y-60476996D01*
X168956300Y-60544991D01*
X168912534Y-60686580D01*
X168850466Y-60722697D01*
X168732624Y-60726161D01*
X168477440Y-60732178D01*
X168116875Y-60740041D01*
X167682887Y-60749042D01*
X167432300Y-60754068D01*
X166336152Y-60804251D01*
X165352807Y-60915925D01*
X164433382Y-61100263D01*
X163528992Y-61368439D01*
X162590756Y-61731626D01*
X161999590Y-61995898D01*
X161470553Y-62232331D01*
X161065882Y-62389327D01*
X160764556Y-62474267D01*
X160577103Y-62495333D01*
X160346309Y-62480979D01*
X160215912Y-62408221D01*
X160117544Y-62232515D01*
X160096033Y-62181903D01*
X160022930Y-61801599D01*
X160111392Y-61415593D01*
X160354455Y-61034685D01*
X160745157Y-60669676D01*
X161276534Y-60331365D01*
X161295669Y-60321162D01*
X161983434Y-60028560D01*
X162791122Y-59805840D01*
X163683311Y-59655483D01*
X164624580Y-59579970D01*
X165579511Y-59581785D01*
G36*
X165579511Y-59581785D02*
G01*
X166512683Y-59663407D01*
X167388676Y-59827319D01*
X167590025Y-59880169D01*
X168151591Y-60049528D01*
X168556469Y-60201836D01*
X168815803Y-60342518D01*
X168940740Y-60476996D01*
X168956300Y-60544991D01*
X168912534Y-60686580D01*
X168850466Y-60722697D01*
X168732624Y-60726161D01*
X168477440Y-60732178D01*
X168116875Y-60740041D01*
X167682887Y-60749042D01*
X167432300Y-60754068D01*
X166336152Y-60804251D01*
X165352807Y-60915925D01*
X164433382Y-61100263D01*
X163528992Y-61368439D01*
X162590756Y-61731626D01*
X161999590Y-61995898D01*
X161470553Y-62232331D01*
X161065882Y-62389327D01*
X160764556Y-62474267D01*
X160577103Y-62495333D01*
X160346309Y-62480979D01*
X160215912Y-62408221D01*
X160117544Y-62232515D01*
X160096033Y-62181903D01*
X160022930Y-61801599D01*
X160111392Y-61415593D01*
X160354455Y-61034685D01*
X160745157Y-60669676D01*
X161276534Y-60331365D01*
X161295669Y-60321162D01*
X161983434Y-60028560D01*
X162791122Y-59805840D01*
X163683311Y-59655483D01*
X164624580Y-59579970D01*
X165579511Y-59581785D01*
G37*
%TD*%
M02*
