%TF.GenerationSoftware,KiCad,Pcbnew,9.0.6*%
%TF.CreationDate,2025-12-01T23:05:10+01:00*%
%TF.ProjectId,Coala,436f616c-612e-46b6-9963-61645f706362,rev?*%
%TF.SameCoordinates,Original*%
%TF.FileFunction,Profile,NP*%
%FSLAX46Y46*%
G04 Gerber Fmt 4.6, Leading zero omitted, Abs format (unit mm)*
G04 Created by KiCad (PCBNEW 9.0.6) date 2025-12-01 23:05:10*
%MOMM*%
%LPD*%
G01*
G04 APERTURE LIST*
%TA.AperFunction,Profile*%
%ADD10C,0.100000*%
%TD*%
G04 APERTURE END LIST*
D10*
X166393600Y-45519600D02*
X165464500Y-45575600D01*
X165464500Y-45575600D02*
X164540400Y-45684200D01*
X164540400Y-45684200D02*
X163624200Y-45844000D01*
X163624200Y-45844000D02*
X162718200Y-46054100D01*
X162718200Y-46054100D02*
X161825000Y-46313400D01*
X161825000Y-46313400D02*
X160947300Y-46620800D01*
X160947300Y-46620800D02*
X160087600Y-46975200D01*
X160087600Y-46975200D02*
X159248500Y-47375600D01*
X159248500Y-47375600D02*
X158432500Y-47820800D01*
X158432500Y-47820800D02*
X157642300Y-48309800D01*
X157642300Y-48309800D02*
X156880300Y-48841400D01*
X156880300Y-48841400D02*
X156149200Y-49414700D01*
X156149200Y-49414700D02*
X155451500Y-50028500D01*
X155451500Y-50028500D02*
X154789800Y-50681800D01*
X154789800Y-50681800D02*
X154166700Y-51373400D01*
X154166700Y-51373400D02*
X153584800Y-52102400D01*
X153584800Y-52102400D02*
X153149200Y-52670600D01*
X153149200Y-52670600D02*
X152742000Y-53259700D01*
X152742000Y-53259700D02*
X152365100Y-53868500D01*
X152365100Y-53868500D02*
X152020600Y-54496100D01*
X152020600Y-54496100D02*
X151682700Y-54356100D01*
X151682700Y-54356100D02*
X151329900Y-54257200D01*
X151329900Y-54257200D02*
X150967600Y-54200200D01*
X150967600Y-54200200D02*
X150601100Y-54185700D01*
X150601100Y-54185700D02*
X150235900Y-54214400D01*
X150235900Y-54214400D02*
X149877400Y-54287000D01*
X149877400Y-54287000D02*
X149531000Y-54404100D01*
X149531000Y-54404100D02*
X149202200Y-54566400D01*
X149202200Y-54566400D02*
X148582600Y-54016200D01*
X148582600Y-54016200D02*
X147935000Y-53511500D01*
X147935000Y-53511500D02*
X147261400Y-53049800D01*
X147261400Y-53049800D02*
X146564400Y-52628700D01*
X146564400Y-52628700D02*
X145846000Y-52245800D01*
X145846000Y-52245800D02*
X145108700Y-51898700D01*
X145108700Y-51898700D02*
X144354600Y-51585000D01*
X144354600Y-51585000D02*
X143586100Y-51302200D01*
X143586100Y-51302200D02*
X142805500Y-51048000D01*
X142805500Y-51048000D02*
X142014900Y-50819800D01*
X142014900Y-50819800D02*
X141216800Y-50615400D01*
X141216800Y-50615400D02*
X140413300Y-50432300D01*
X140413300Y-50432300D02*
X139606900Y-50268100D01*
X139606900Y-50268100D02*
X138799600Y-50120300D01*
X138799600Y-50120300D02*
X137191900Y-49864500D01*
X137191900Y-49864500D02*
X135844200Y-49684600D01*
X135844200Y-49684600D02*
X135165700Y-49599100D01*
X135165700Y-49599100D02*
X134485900Y-49529300D01*
X134485900Y-49529300D02*
X133806100Y-49485000D01*
X133806100Y-49485000D02*
X133127800Y-49475700D01*
X133127800Y-49475700D02*
X132452100Y-49511000D01*
X132452100Y-49511000D02*
X132115700Y-49548500D01*
X132115700Y-49548500D02*
X131780500Y-49600700D01*
X131780500Y-49600700D02*
X131579400Y-49707500D01*
X131579400Y-49707500D02*
X131405900Y-49840200D01*
X131405900Y-49840200D02*
X131259600Y-49995500D01*
X131259600Y-49995500D02*
X131140300Y-50169900D01*
X131140300Y-50169900D02*
X131047500Y-50359800D01*
X131047500Y-50359800D02*
X130980800Y-50561900D01*
X130980800Y-50561900D02*
X130939900Y-50772600D01*
X130939900Y-50772600D02*
X130924400Y-50988400D01*
X130924400Y-50988400D02*
X130933900Y-51206000D01*
X130933900Y-51206000D02*
X130968000Y-51421800D01*
X130968000Y-51421800D02*
X131026400Y-51632400D01*
X131026400Y-51632400D02*
X131108600Y-51834200D01*
X131108600Y-51834200D02*
X131214400Y-52023900D01*
X131214400Y-52023900D02*
X131343300Y-52197900D01*
X131343300Y-52197900D02*
X131495000Y-52352800D01*
X131495000Y-52352800D02*
X131669000Y-52485100D01*
X131669000Y-52485100D02*
X133260800Y-54175800D01*
X133260800Y-54175800D02*
X132640500Y-54205600D01*
X132640500Y-54205600D02*
X132014500Y-54212600D01*
X132014500Y-54212600D02*
X131387100Y-54188800D01*
X131387100Y-54188800D02*
X130762300Y-54126700D01*
X130762300Y-54126700D02*
X130144300Y-54018400D01*
X130144300Y-54018400D02*
X129839000Y-53944500D01*
X129839000Y-53944500D02*
X129537000Y-53856200D01*
X129537000Y-53856200D02*
X129238800Y-53752600D01*
X129238800Y-53752600D02*
X128944700Y-53632500D01*
X128944700Y-53632500D02*
X128655500Y-53495100D01*
X128655500Y-53495100D02*
X128371500Y-53339500D01*
X128371500Y-53339500D02*
X127999300Y-53143800D01*
X127999300Y-53143800D02*
X127637400Y-52924900D01*
X127637400Y-52924900D02*
X126927300Y-52458000D01*
X126927300Y-52458000D02*
X126570600Y-52230400D01*
X126570600Y-52230400D02*
X126207100Y-52020400D01*
X126207100Y-52020400D02*
X125832400Y-51837900D01*
X125832400Y-51837900D02*
X125442400Y-51693400D01*
X125442400Y-51693400D02*
X125262800Y-51694600D01*
X125262800Y-51694600D02*
X125089100Y-51722100D01*
X125089100Y-51722100D02*
X124922900Y-51773600D01*
X124922900Y-51773600D02*
X124765800Y-51846900D01*
X124765800Y-51846900D02*
X124619500Y-51940000D01*
X124619500Y-51940000D02*
X124485600Y-52050500D01*
X124485600Y-52050500D02*
X124365600Y-52176400D01*
X124365600Y-52176400D02*
X124261100Y-52315400D01*
X124261100Y-52315400D02*
X124173800Y-52465300D01*
X124173800Y-52465300D02*
X124105300Y-52624000D01*
X124105300Y-52624000D02*
X124057100Y-52789300D01*
X124057100Y-52789300D02*
X124030900Y-52959000D01*
X124030900Y-52959000D02*
X124028200Y-53130900D01*
X124028200Y-53130900D02*
X124050700Y-53302800D01*
X124050700Y-53302800D02*
X124100000Y-53472600D01*
X124100000Y-53472600D02*
X124177700Y-53638000D01*
X124177700Y-53638000D02*
X124329300Y-54231100D01*
X124329300Y-54231100D02*
X124506700Y-54817000D01*
X124506700Y-54817000D02*
X124714200Y-55392700D01*
X124714200Y-55392700D02*
X124956100Y-55955100D01*
X124956100Y-55955100D02*
X124593300Y-56064000D01*
X124593300Y-56064000D02*
X124236800Y-56192200D01*
X124236800Y-56192200D02*
X123887600Y-56339400D01*
X123887600Y-56339400D02*
X123546900Y-56505300D01*
X123546900Y-56505300D02*
X123215900Y-56689600D01*
X123215900Y-56689600D02*
X122895600Y-56891900D01*
X122895600Y-56891900D02*
X122587300Y-57112100D01*
X122587300Y-57112100D02*
X122292000Y-57349600D01*
X122292000Y-57349600D02*
X121982000Y-56859500D01*
X121982000Y-56859500D02*
X121653800Y-56383300D01*
X121653800Y-56383300D02*
X121308000Y-55921300D01*
X121308000Y-55921300D02*
X120945400Y-55473600D01*
X120945400Y-55473600D02*
X120566500Y-55040600D01*
X120566500Y-55040600D02*
X120172000Y-54622500D01*
X120172000Y-54622500D02*
X119762600Y-54219300D01*
X119762600Y-54219300D02*
X119338900Y-53831400D01*
X119338900Y-53831400D02*
X118901400Y-53459000D01*
X118901400Y-53459000D02*
X118451000Y-53102300D01*
X118451000Y-53102300D02*
X117988200Y-52761500D01*
X117988200Y-52761500D02*
X117513700Y-52436800D01*
X117513700Y-52436800D02*
X117028000Y-52128400D01*
X117028000Y-52128400D02*
X116531900Y-51836600D01*
X116531900Y-51836600D02*
X116026100Y-51561500D01*
X116026100Y-51561500D02*
X115511000Y-51303400D01*
X115511000Y-51303400D02*
X114987400Y-51062500D01*
X114987400Y-51062500D02*
X114456000Y-50839000D01*
X114456000Y-50839000D02*
X113917300Y-50633100D01*
X113917300Y-50633100D02*
X113372100Y-50445000D01*
X113372100Y-50445000D02*
X112820900Y-50275000D01*
X112820900Y-50275000D02*
X112264400Y-50123200D01*
X112264400Y-50123200D02*
X111703300Y-49990000D01*
X111703300Y-49990000D02*
X111138100Y-49875400D01*
X111138100Y-49875400D02*
X110569600Y-49779700D01*
X110569600Y-49779700D02*
X109998400Y-49703100D01*
X109998400Y-49703100D02*
X109425100Y-49645900D01*
X109425100Y-49645900D02*
X108850300Y-49608200D01*
X108850300Y-49608200D02*
X108274800Y-49590300D01*
X108274800Y-49590300D02*
X107699100Y-49592300D01*
X107699100Y-49592300D02*
X107123900Y-49614500D01*
X107123900Y-49614500D02*
X106549800Y-49657200D01*
X106549800Y-49657200D02*
X105600500Y-49753900D01*
X105600500Y-49753900D02*
X104659400Y-49896900D01*
X104659400Y-49896900D02*
X103727700Y-50085000D01*
X103727700Y-50085000D02*
X102806600Y-50316800D01*
X102806600Y-50316800D02*
X101897400Y-50590700D01*
X101897400Y-50590700D02*
X101001300Y-50905400D01*
X101001300Y-50905400D02*
X100119500Y-51259500D01*
X100119500Y-51259500D02*
X99253300Y-51651600D01*
X99253300Y-51651600D02*
X98403900Y-52080200D01*
X98403900Y-52080200D02*
X97572500Y-52544000D01*
X97572500Y-52544000D02*
X96760400Y-53041500D01*
X96760400Y-53041500D02*
X95968700Y-53571400D01*
X95968700Y-53571400D02*
X95198800Y-54132200D01*
X95198800Y-54132200D02*
X94451800Y-54722500D01*
X94451800Y-54722500D02*
X93729000Y-55341000D01*
X93729000Y-55341000D02*
X93031700Y-55986100D01*
X93031700Y-55986100D02*
X92117000Y-56845700D01*
X92117000Y-56845700D02*
X91665900Y-57286000D01*
X91665900Y-57286000D02*
X91225300Y-57736600D01*
X91225300Y-57736600D02*
X90800000Y-58200000D01*
X90800000Y-58200000D02*
X90394700Y-58678600D01*
X90394700Y-58678600D02*
X90014200Y-59175000D01*
X90014200Y-59175000D02*
X89663100Y-59691400D01*
X89663100Y-59691400D02*
X89612400Y-59866600D01*
X89612400Y-59866600D02*
X89590100Y-60041700D01*
X89590100Y-60041700D02*
X89594300Y-60215000D01*
X89594300Y-60215000D02*
X89622800Y-60385000D01*
X89622800Y-60385000D02*
X89673400Y-60550200D01*
X89673400Y-60550200D02*
X89744100Y-60709000D01*
X89744100Y-60709000D02*
X89832600Y-60859800D01*
X89832600Y-60859800D02*
X89936900Y-61001000D01*
X89936900Y-61001000D02*
X90054700Y-61131100D01*
X90054700Y-61131100D02*
X90184000Y-61248400D01*
X90184000Y-61248400D02*
X90322700Y-61351500D01*
X90322700Y-61351500D02*
X90468500Y-61438700D01*
X90468500Y-61438700D02*
X90619400Y-61508500D01*
X90619400Y-61508500D02*
X90773300Y-61559300D01*
X90773300Y-61559300D02*
X90927900Y-61589600D01*
X90927900Y-61589600D02*
X91081100Y-61597700D01*
X91081100Y-61597700D02*
X90657900Y-62264100D01*
X90657900Y-62264100D02*
X90265500Y-62946600D01*
X90265500Y-62946600D02*
X89902900Y-63643800D01*
X89902900Y-63643800D02*
X89569600Y-64354700D01*
X89569600Y-64354700D02*
X89264800Y-65078100D01*
X89264800Y-65078100D02*
X88987800Y-65812800D01*
X88987800Y-65812800D02*
X88737800Y-66557600D01*
X88737800Y-66557600D02*
X88514100Y-67311300D01*
X88514100Y-67311300D02*
X88316100Y-68072900D01*
X88316100Y-68072900D02*
X88142900Y-68841100D01*
X88142900Y-68841100D02*
X87993800Y-69614700D01*
X87993800Y-69614700D02*
X87868100Y-70392600D01*
X87868100Y-70392600D02*
X87765100Y-71173600D01*
X87765100Y-71173600D02*
X87684100Y-71956500D01*
X87684100Y-71956500D02*
X87624300Y-72740200D01*
X87624300Y-72740200D02*
X87585000Y-73523500D01*
X87585000Y-73523500D02*
X87865700Y-73729900D01*
X87865700Y-73729900D02*
X88184000Y-73892200D01*
X88184000Y-73892200D02*
X88526500Y-74003300D01*
X88526500Y-74003300D02*
X88702600Y-74037300D01*
X88702600Y-74037300D02*
X88879700Y-74055800D01*
X88879700Y-74055800D02*
X89056000Y-74057900D01*
X89056000Y-74057900D02*
X89230000Y-74042600D01*
X89230000Y-74042600D02*
X89399800Y-74009200D01*
X89399800Y-74009200D02*
X89563800Y-73956600D01*
X89563800Y-73956600D02*
X89720300Y-73884000D01*
X89720300Y-73884000D02*
X89867600Y-73790500D01*
X89867600Y-73790500D02*
X90004100Y-73675200D01*
X90004100Y-73675200D02*
X90128000Y-73537100D01*
X90128000Y-73537100D02*
X90165100Y-74425600D01*
X90165100Y-74425600D02*
X90240600Y-75310600D01*
X90240600Y-75310600D02*
X90353600Y-76191000D01*
X90353600Y-76191000D02*
X90503000Y-77065800D01*
X90503000Y-77065800D02*
X90687800Y-77934000D01*
X90687800Y-77934000D02*
X90907100Y-78794500D01*
X90907100Y-78794500D02*
X91159700Y-79646200D01*
X91159700Y-79646200D02*
X91444700Y-80488200D01*
X91444700Y-80488200D02*
X91761000Y-81319400D01*
X91761000Y-81319400D02*
X92107700Y-82138800D01*
X92107700Y-82138800D02*
X92483700Y-82945200D01*
X92483700Y-82945200D02*
X92888000Y-83737700D01*
X92888000Y-83737700D02*
X93319600Y-84515300D01*
X93319600Y-84515300D02*
X93777500Y-85276800D01*
X93777500Y-85276800D02*
X94260600Y-86021200D01*
X94260600Y-86021200D02*
X94767900Y-86747600D01*
X94767900Y-86747600D02*
X95343400Y-87473100D01*
X95343400Y-87473100D02*
X95641800Y-87832200D01*
X95641800Y-87832200D02*
X95951000Y-88181600D01*
X95951000Y-88181600D02*
X96274000Y-88515900D01*
X96274000Y-88515900D02*
X96613400Y-88829900D01*
X96613400Y-88829900D02*
X96972000Y-89118000D01*
X96972000Y-89118000D02*
X97352600Y-89375000D01*
X97352600Y-89375000D02*
X97542500Y-89423100D01*
X97542500Y-89423100D02*
X97731300Y-89441600D01*
X97731300Y-89441600D02*
X97917200Y-89432500D01*
X97917200Y-89432500D02*
X98098600Y-89397800D01*
X98098600Y-89397800D02*
X98273500Y-89339300D01*
X98273500Y-89339300D02*
X98440400Y-89259100D01*
X98440400Y-89259100D02*
X98597300Y-89159100D01*
X98597300Y-89159100D02*
X98742600Y-89041200D01*
X98742600Y-89041200D02*
X98874500Y-88907400D01*
X98874500Y-88907400D02*
X98991200Y-88759700D01*
X98991200Y-88759700D02*
X99091000Y-88600000D01*
X99091000Y-88600000D02*
X99172100Y-88430300D01*
X99172100Y-88430300D02*
X99232800Y-88252500D01*
X99232800Y-88252500D02*
X99271300Y-88068500D01*
X99271300Y-88068500D02*
X99285900Y-87880400D01*
X99285900Y-87880400D02*
X99274700Y-87690100D01*
X99274700Y-87690100D02*
X99340900Y-87252600D01*
X99340900Y-87252600D02*
X99398800Y-86769000D01*
X99398800Y-86769000D02*
X99464500Y-86326300D01*
X99464500Y-86326300D02*
X99505200Y-86147600D01*
X99505200Y-86147600D02*
X99553800Y-86011700D01*
X99553800Y-86011700D02*
X100028500Y-86871800D01*
X100028500Y-86871800D02*
X100539800Y-87728200D01*
X100539800Y-87728200D02*
X100811800Y-88148900D01*
X100811800Y-88148900D02*
X101096000Y-88561600D01*
X101096000Y-88561600D02*
X101393400Y-88963600D01*
X101393400Y-88963600D02*
X101705100Y-89352700D01*
X101705100Y-89352700D02*
X102032100Y-89726400D01*
X102032100Y-89726400D02*
X102375400Y-90082300D01*
X102375400Y-90082300D02*
X102736000Y-90418000D01*
X102736000Y-90418000D02*
X103115000Y-90731100D01*
X103115000Y-90731100D02*
X103513400Y-91019200D01*
X103513400Y-91019200D02*
X103932200Y-91279800D01*
X103932200Y-91279800D02*
X104372400Y-91510500D01*
X104372400Y-91510500D02*
X104835000Y-91709000D01*
X104835000Y-91709000D02*
X105380900Y-91815100D01*
X105380900Y-91815100D02*
X105931000Y-91868600D01*
X105931000Y-91868600D02*
X106484200Y-91880000D01*
X106484200Y-91880000D02*
X107039300Y-91860100D01*
X107039300Y-91860100D02*
X108150000Y-91769000D01*
X108150000Y-91769000D02*
X109253500Y-91680400D01*
X109253500Y-91680400D02*
X109546700Y-91619000D01*
X109546700Y-91619000D02*
X109835000Y-91537300D01*
X109835000Y-91537300D02*
X110399500Y-91336000D01*
X110399500Y-91336000D02*
X110646000Y-92330300D01*
X110646000Y-92330300D02*
X110936400Y-93312500D01*
X110936400Y-93312500D02*
X111269600Y-94281200D01*
X111269600Y-94281200D02*
X111644600Y-95234500D01*
X111644600Y-95234500D02*
X112060400Y-96170900D01*
X112060400Y-96170900D02*
X112516000Y-97088700D01*
X112516000Y-97088700D02*
X113010300Y-97986300D01*
X113010300Y-97986300D02*
X113542400Y-98862000D01*
X113542400Y-98862000D02*
X114111200Y-99714200D01*
X114111200Y-99714200D02*
X114715800Y-100541300D01*
X114715800Y-100541300D02*
X115355000Y-101341500D01*
X115355000Y-101341500D02*
X116027900Y-102113300D01*
X116027900Y-102113300D02*
X116733500Y-102854900D01*
X116733500Y-102854900D02*
X117470800Y-103564800D01*
X117470800Y-103564800D02*
X118238700Y-104241400D01*
X118238700Y-104241400D02*
X119036200Y-104882800D01*
X119036200Y-104882800D02*
X118596700Y-105590200D01*
X118596700Y-105590200D02*
X118189900Y-106314700D01*
X118189900Y-106314700D02*
X117815300Y-107055000D01*
X117815300Y-107055000D02*
X117472600Y-107809800D01*
X117472600Y-107809800D02*
X117161400Y-108577900D01*
X117161400Y-108577900D02*
X116881400Y-109357900D01*
X116881400Y-109357900D02*
X116632200Y-110148600D01*
X116632200Y-110148600D02*
X116413400Y-110948700D01*
X116413400Y-110948700D02*
X116224800Y-111756800D01*
X116224800Y-111756800D02*
X116066000Y-112571800D01*
X116066000Y-112571800D02*
X115936500Y-113392400D01*
X115936500Y-113392400D02*
X115836100Y-114217200D01*
X115836100Y-114217200D02*
X115764400Y-115044900D01*
X115764400Y-115044900D02*
X115721000Y-115874400D01*
X115721000Y-115874400D02*
X115705600Y-116704200D01*
X115705600Y-116704200D02*
X115717800Y-117533200D01*
X115717800Y-117533200D02*
X115647600Y-117857900D01*
X115647600Y-117857900D02*
X115543400Y-118172300D01*
X115543400Y-118172300D02*
X115414700Y-118479400D01*
X115414700Y-118479400D02*
X115271000Y-118782300D01*
X115271000Y-118782300D02*
X114976700Y-119387800D01*
X114976700Y-119387800D02*
X114845000Y-119696700D01*
X114845000Y-119696700D02*
X114736400Y-120013700D01*
X114736400Y-120013700D02*
X114389900Y-120963000D01*
X114389900Y-120963000D02*
X114079900Y-121926900D01*
X114079900Y-121926900D02*
X113807400Y-122903600D01*
X113807400Y-122903600D02*
X113573200Y-123891200D01*
X113573200Y-123891200D02*
X113378500Y-124887800D01*
X113378500Y-124887800D02*
X113224100Y-125891500D01*
X113224100Y-125891500D02*
X113110900Y-126900300D01*
X113110900Y-126900300D02*
X113040100Y-127912400D01*
X113040100Y-127912400D02*
X113012500Y-128925900D01*
X113012500Y-128925900D02*
X113029200Y-129938800D01*
X113029200Y-129938800D02*
X113091100Y-130949300D01*
X113091100Y-130949300D02*
X113199100Y-131955400D01*
X113199100Y-131955400D02*
X113354300Y-132955300D01*
X113354300Y-132955300D02*
X113557600Y-133947000D01*
X113557600Y-133947000D02*
X113809900Y-134929000D01*
X113809900Y-134929000D02*
X114112400Y-135898000D01*
X114112400Y-135898000D02*
X114400300Y-136632000D01*
X114400300Y-136632000D02*
X114729500Y-137349000D01*
X114729500Y-137349000D02*
X115098700Y-138047000D01*
X115098700Y-138047000D02*
X115506500Y-138724000D01*
X115506500Y-138724000D02*
X115951300Y-139377000D01*
X115951300Y-139377000D02*
X116431900Y-140005000D01*
X116431900Y-140005000D02*
X116946700Y-140603000D01*
X116946700Y-140603000D02*
X117494300Y-141171000D01*
X117494300Y-141171000D02*
X118073400Y-141705000D01*
X118073400Y-141705000D02*
X118682500Y-142204000D01*
X118682500Y-142204000D02*
X119320100Y-142665000D01*
X119320100Y-142665000D02*
X119985000Y-143085000D01*
X119985000Y-143085000D02*
X120675600Y-143462000D01*
X120675600Y-143462000D02*
X121390500Y-143795000D01*
X121390500Y-143795000D02*
X122128300Y-144079000D01*
X122128300Y-144079000D02*
X122887600Y-144314000D01*
X122887600Y-144314000D02*
X123494900Y-144484000D01*
X123494900Y-144484000D02*
X124107100Y-144637000D01*
X124107100Y-144637000D02*
X124723700Y-144772000D01*
X124723700Y-144772000D02*
X125344100Y-144890000D01*
X125344100Y-144890000D02*
X125967700Y-144990000D01*
X125967700Y-144990000D02*
X126594100Y-145072000D01*
X126594100Y-145072000D02*
X127222700Y-145138000D01*
X127222700Y-145138000D02*
X127852900Y-145185000D01*
X127852900Y-145185000D02*
X128484200Y-145215000D01*
X128484200Y-145215000D02*
X129116100Y-145228000D01*
X129116100Y-145228000D02*
X129747900Y-145223000D01*
X129747900Y-145223000D02*
X130379200Y-145200000D01*
X130379200Y-145200000D02*
X131009300Y-145160000D01*
X131009300Y-145160000D02*
X131637800Y-145102000D01*
X131637800Y-145102000D02*
X132264200Y-145027000D01*
X132264200Y-145027000D02*
X132887700Y-144934000D01*
X132887700Y-144934000D02*
X133479900Y-144793000D01*
X133479900Y-144793000D02*
X134065900Y-144617000D01*
X134065900Y-144617000D02*
X134639800Y-144402000D01*
X134639800Y-144402000D02*
X135195300Y-144146000D01*
X135195300Y-144146000D02*
X135726400Y-143846000D01*
X135726400Y-143846000D02*
X136227000Y-143500000D01*
X136227000Y-143500000D02*
X136464000Y-143309000D01*
X136464000Y-143309000D02*
X136691000Y-143106000D01*
X136691000Y-143106000D02*
X136907400Y-142889000D01*
X136907400Y-142889000D02*
X137112400Y-142660000D01*
X137112400Y-142660000D02*
X138064700Y-142745000D01*
X138064700Y-142745000D02*
X139018300Y-142793000D01*
X139018300Y-142793000D02*
X139972800Y-142810000D01*
X139972800Y-142810000D02*
X140927700Y-142799000D01*
X140927700Y-142799000D02*
X141882700Y-142767000D01*
X141882700Y-142767000D02*
X142837200Y-142717000D01*
X142837200Y-142717000D02*
X144743200Y-142584000D01*
X144743200Y-142584000D02*
X145095800Y-142978000D01*
X145095800Y-142978000D02*
X145475600Y-143332000D01*
X145475600Y-143332000D02*
X145880200Y-143648000D01*
X145880200Y-143648000D02*
X146307200Y-143928000D01*
X146307200Y-143928000D02*
X146754200Y-144174000D01*
X146754200Y-144174000D02*
X147218800Y-144387000D01*
X147218800Y-144387000D02*
X147698600Y-144571000D01*
X147698600Y-144571000D02*
X148191100Y-144725000D01*
X148191100Y-144725000D02*
X148693900Y-144854000D01*
X148693900Y-144854000D02*
X149204600Y-144958000D01*
X149204600Y-144958000D02*
X149720800Y-145039000D01*
X149720800Y-145039000D02*
X150240000Y-145099000D01*
X150240000Y-145099000D02*
X150760000Y-145140000D01*
X150760000Y-145140000D02*
X151278100Y-145164000D01*
X151278100Y-145164000D02*
X152299400Y-145169000D01*
X152299400Y-145169000D02*
X153075900Y-145146000D01*
X153075900Y-145146000D02*
X153856300Y-145093000D01*
X153856300Y-145093000D02*
X154637700Y-145010000D01*
X154637700Y-145010000D02*
X155417200Y-144894000D01*
X155417200Y-144894000D02*
X156191900Y-144745000D01*
X156191900Y-144745000D02*
X156958800Y-144561000D01*
X156958800Y-144561000D02*
X157714900Y-144341000D01*
X157714900Y-144341000D02*
X158457400Y-144085000D01*
X158457400Y-144085000D02*
X159183200Y-143790000D01*
X159183200Y-143790000D02*
X159889500Y-143456000D01*
X159889500Y-143456000D02*
X160573200Y-143082000D01*
X160573200Y-143082000D02*
X161231600Y-142666000D01*
X161231600Y-142666000D02*
X161861500Y-142207000D01*
X161861500Y-142207000D02*
X162460100Y-141704000D01*
X162460100Y-141704000D02*
X163024400Y-141157000D01*
X163024400Y-141157000D02*
X163292700Y-140866000D01*
X163292700Y-140866000D02*
X163551400Y-140563000D01*
X163551400Y-140563000D02*
X163863500Y-140172000D01*
X163863500Y-140172000D02*
X164160700Y-139773000D01*
X164160700Y-139773000D02*
X164443300Y-139365000D01*
X164443300Y-139365000D02*
X164711300Y-138949000D01*
X164711300Y-138949000D02*
X164965000Y-138525000D01*
X164965000Y-138525000D02*
X165204400Y-138093000D01*
X165204400Y-138093000D02*
X165429800Y-137655000D01*
X165429800Y-137655000D02*
X165641300Y-137209000D01*
X165641300Y-137209000D02*
X166023300Y-136301000D01*
X166023300Y-136301000D02*
X166351400Y-135371000D01*
X166351400Y-135371000D02*
X166627100Y-134422000D01*
X166627100Y-134422000D02*
X166851500Y-133457700D01*
X166851500Y-133457700D02*
X167025900Y-132481300D01*
X167025900Y-132481300D02*
X167151500Y-131495900D01*
X167151500Y-131495900D02*
X167229600Y-130504700D01*
X167229600Y-130504700D02*
X167261300Y-129510700D01*
X167261300Y-129510700D02*
X167248000Y-128517300D01*
X167248000Y-128517300D02*
X167190800Y-127527500D01*
X167190800Y-127527500D02*
X167091000Y-126544600D01*
X167091000Y-126544600D02*
X166949900Y-125571800D01*
X166949900Y-125571800D02*
X166779900Y-124637700D01*
X166779900Y-124637700D02*
X166575400Y-123710800D01*
X166575400Y-123710800D02*
X166337500Y-122791800D01*
X166337500Y-122791800D02*
X166067400Y-121881700D01*
X166067400Y-121881700D02*
X165766300Y-120981200D01*
X165766300Y-120981200D02*
X165435400Y-120091100D01*
X165435400Y-120091100D02*
X165075700Y-119212400D01*
X165075700Y-119212400D02*
X164688500Y-118345700D01*
X164688500Y-118345700D02*
X164767800Y-117424100D01*
X164767800Y-117424100D02*
X164799700Y-116502200D01*
X164799700Y-116502200D02*
X164785300Y-115581400D01*
X164785300Y-115581400D02*
X164726200Y-114663100D01*
X164726200Y-114663100D02*
X164623400Y-113748800D01*
X164623400Y-113748800D02*
X164478300Y-112840100D01*
X164478300Y-112840100D02*
X164292200Y-111938300D01*
X164292200Y-111938300D02*
X164066300Y-111045000D01*
X164066300Y-111045000D02*
X163801900Y-110161600D01*
X163801900Y-110161600D02*
X163500400Y-109289500D01*
X163500400Y-109289500D02*
X163162900Y-108430400D01*
X163162900Y-108430400D02*
X162790800Y-107585500D01*
X162790800Y-107585500D02*
X162385300Y-106756500D01*
X162385300Y-106756500D02*
X161947700Y-105944700D01*
X161947700Y-105944700D02*
X161479400Y-105151700D01*
X161479400Y-105151700D02*
X160981500Y-104378900D01*
X160981500Y-104378900D02*
X161814700Y-103692400D01*
X161814700Y-103692400D02*
X162617400Y-102969700D01*
X162617400Y-102969700D02*
X163388100Y-102212400D01*
X163388100Y-102212400D02*
X164125300Y-101422100D01*
X164125300Y-101422100D02*
X164827500Y-100600500D01*
X164827500Y-100600500D02*
X165493200Y-99749000D01*
X165493200Y-99749000D02*
X166120900Y-98869500D01*
X166120900Y-98869500D02*
X166709100Y-97963300D01*
X166709100Y-97963300D02*
X167256400Y-97032300D01*
X167256400Y-97032300D02*
X167761200Y-96077900D01*
X167761200Y-96077900D02*
X168222000Y-95101700D01*
X168222000Y-95101700D02*
X168637400Y-94105500D01*
X168637400Y-94105500D02*
X169005800Y-93090700D01*
X169005800Y-93090700D02*
X169325800Y-92059100D01*
X169325800Y-92059100D02*
X169595800Y-91012200D01*
X169595800Y-91012200D02*
X169814400Y-89951600D01*
X169814400Y-89951600D02*
X169941600Y-89266000D01*
X169941600Y-89266000D02*
X170052800Y-88577900D01*
X170052800Y-88577900D02*
X170231000Y-87195200D01*
X170231000Y-87195200D02*
X170356500Y-85806300D01*
X170356500Y-85806300D02*
X170436600Y-84414100D01*
X170436600Y-84414100D02*
X170855100Y-84188000D01*
X170855100Y-84188000D02*
X171264600Y-83944800D01*
X171264600Y-83944800D02*
X171664200Y-83684900D01*
X171664200Y-83684900D02*
X172052700Y-83408500D01*
X172052700Y-83408500D02*
X172429000Y-83116100D01*
X172429000Y-83116100D02*
X172792000Y-82807900D01*
X172792000Y-82807900D02*
X173140700Y-82484200D01*
X173140700Y-82484200D02*
X173474000Y-82145300D01*
X173474000Y-82145300D02*
X173790800Y-81791700D01*
X173790800Y-81791700D02*
X174089900Y-81423500D01*
X174089900Y-81423500D02*
X174370300Y-81041100D01*
X174370300Y-81041100D02*
X174631000Y-80644900D01*
X174631000Y-80644900D02*
X174870800Y-80235100D01*
X174870800Y-80235100D02*
X175088700Y-79812100D01*
X175088700Y-79812100D02*
X175283500Y-79376200D01*
X175283500Y-79376200D02*
X175454200Y-78927700D01*
X175454200Y-78927700D02*
X175520900Y-78814200D01*
X175520900Y-78814200D02*
X175567600Y-78665000D01*
X175567600Y-78665000D02*
X175643000Y-78341700D01*
X175643000Y-78341700D02*
X175692900Y-78208600D01*
X175692900Y-78208600D02*
X175725500Y-78158200D01*
X175725500Y-78158200D02*
X175765100Y-78121900D01*
X175765100Y-78121900D02*
X175812800Y-78102400D01*
X175812800Y-78102400D02*
X175870100Y-78102200D01*
X175870100Y-78102200D02*
X175938300Y-78123800D01*
X175938300Y-78123800D02*
X176018600Y-78169900D01*
X176018600Y-78169900D02*
X176233500Y-78228000D01*
X176233500Y-78228000D02*
X176448900Y-78264700D01*
X176448900Y-78264700D02*
X176664100Y-78280800D01*
X176664100Y-78280800D02*
X176878200Y-78277400D01*
X176878200Y-78277400D02*
X177090500Y-78255400D01*
X177090500Y-78255400D02*
X177300100Y-78215600D01*
X177300100Y-78215600D02*
X177506300Y-78159000D01*
X177506300Y-78159000D02*
X177708300Y-78086700D01*
X177708300Y-78086700D02*
X177905300Y-77999400D01*
X177905300Y-77999400D02*
X178095300Y-77898100D01*
X178095300Y-77898100D02*
X178456300Y-77657300D01*
X178456300Y-77657300D02*
X178783300Y-77371700D01*
X178783300Y-77371700D02*
X179071300Y-77048800D01*
X179071300Y-77048800D02*
X179370300Y-76716700D01*
X179370300Y-76716700D02*
X179649300Y-76371000D01*
X179649300Y-76371000D02*
X179909300Y-76012600D01*
X179909300Y-76012600D02*
X180151300Y-75642500D01*
X180151300Y-75642500D02*
X180375300Y-75261700D01*
X180375300Y-75261700D02*
X180583300Y-74871300D01*
X180583300Y-74871300D02*
X180774300Y-74472100D01*
X180774300Y-74472100D02*
X180950300Y-74065300D01*
X180950300Y-74065300D02*
X181112300Y-73651600D01*
X181112300Y-73651600D02*
X181260300Y-73232300D01*
X181260300Y-73232300D02*
X181519300Y-72380200D01*
X181519300Y-72380200D02*
X181731300Y-71516900D01*
X181731300Y-71516900D02*
X181905300Y-70650400D01*
X181905300Y-70650400D02*
X182197300Y-70582200D01*
X182197300Y-70582200D02*
X182469300Y-70467700D01*
X182469300Y-70467700D02*
X182721300Y-70312500D01*
X182721300Y-70312500D02*
X182949300Y-70122100D01*
X182949300Y-70122100D02*
X183150300Y-69902000D01*
X183150300Y-69902000D02*
X183323300Y-69657700D01*
X183323300Y-69657700D02*
X183464300Y-69394900D01*
X183464300Y-69394900D02*
X183571300Y-69119100D01*
X183571300Y-69119100D02*
X183804300Y-69179400D01*
X183804300Y-69179400D02*
X184046300Y-69218500D01*
X184046300Y-69218500D02*
X184294300Y-69236700D01*
X184294300Y-69236700D02*
X184546300Y-69233800D01*
X184546300Y-69233800D02*
X184798300Y-69209800D01*
X184798300Y-69209800D02*
X185047300Y-69164800D01*
X185047300Y-69164800D02*
X185290300Y-69098700D01*
X185290300Y-69098700D02*
X185524300Y-69011500D01*
X185524300Y-69011500D02*
X185746300Y-68903300D01*
X185746300Y-68903300D02*
X185952300Y-68773900D01*
X185952300Y-68773900D02*
X186140300Y-68623500D01*
X186140300Y-68623500D02*
X186307300Y-68451900D01*
X186307300Y-68451900D02*
X186449300Y-68259200D01*
X186449300Y-68259200D02*
X186563300Y-68045400D01*
X186563300Y-68045400D02*
X186647300Y-67810500D01*
X186647300Y-67810500D02*
X186697300Y-67554400D01*
X186697300Y-67554400D02*
X186711300Y-67258300D01*
X186711300Y-67258300D02*
X186692300Y-66970900D01*
X186692300Y-66970900D02*
X186644300Y-66691400D01*
X186644300Y-66691400D02*
X186569300Y-66419200D01*
X186569300Y-66419200D02*
X186472300Y-66153500D01*
X186472300Y-66153500D02*
X186356300Y-65893700D01*
X186356300Y-65893700D02*
X186079300Y-65388800D01*
X186079300Y-65388800D02*
X185766300Y-64899100D01*
X185766300Y-64899100D02*
X185442300Y-64418900D01*
X185442300Y-64418900D02*
X185137300Y-63942700D01*
X185137300Y-63942700D02*
X184876300Y-63464800D01*
X184876300Y-63464800D02*
X185060300Y-63457300D01*
X185060300Y-63457300D02*
X185237300Y-63424800D01*
X185237300Y-63424800D02*
X185406300Y-63369200D01*
X185406300Y-63369200D02*
X185564300Y-63292400D01*
X185564300Y-63292400D02*
X185712300Y-63196600D01*
X185712300Y-63196600D02*
X185847300Y-63083700D01*
X185847300Y-63083700D02*
X185969300Y-62955700D01*
X185969300Y-62955700D02*
X186076300Y-62814600D01*
X186076300Y-62814600D02*
X186166300Y-62662300D01*
X186166300Y-62662300D02*
X186239300Y-62501000D01*
X186239300Y-62501000D02*
X186293300Y-62332400D01*
X186293300Y-62332400D02*
X186327300Y-62158700D01*
X186327300Y-62158700D02*
X186339300Y-61981900D01*
X186339300Y-61981900D02*
X186329300Y-61803800D01*
X186329300Y-61803800D02*
X186295300Y-61626600D01*
X186295300Y-61626600D02*
X186235300Y-61452200D01*
X186235300Y-61452200D02*
X186107300Y-60867100D01*
X186107300Y-60867100D02*
X185951300Y-60290100D01*
X185951300Y-60290100D02*
X185767300Y-59721600D01*
X185767300Y-59721600D02*
X185558300Y-59161700D01*
X185558300Y-59161700D02*
X185325300Y-58610600D01*
X185325300Y-58610600D02*
X185071300Y-58068400D01*
X185071300Y-58068400D02*
X184797300Y-57535200D01*
X184797300Y-57535200D02*
X184504300Y-57011400D01*
X184504300Y-57011400D02*
X184196300Y-56496900D01*
X184196300Y-56496900D02*
X183873300Y-55992100D01*
X183873300Y-55992100D02*
X183537300Y-55497000D01*
X183537300Y-55497000D02*
X183190300Y-55011800D01*
X183190300Y-55011800D02*
X182472300Y-54072000D01*
X182472300Y-54072000D02*
X181731300Y-53173800D01*
X181731300Y-53173800D02*
X181877300Y-53085900D01*
X181877300Y-53085900D02*
X182007300Y-52980600D01*
X182007300Y-52980600D02*
X182120300Y-52860100D01*
X182120300Y-52860100D02*
X182217300Y-52726900D01*
X182217300Y-52726900D02*
X182296300Y-52583100D01*
X182296300Y-52583100D02*
X182358300Y-52431200D01*
X182358300Y-52431200D02*
X182402300Y-52273300D01*
X182402300Y-52273300D02*
X182428300Y-52111800D01*
X182428300Y-52111800D02*
X182434300Y-51949000D01*
X182434300Y-51949000D02*
X182422300Y-51787100D01*
X182422300Y-51787100D02*
X182389300Y-51628600D01*
X182389300Y-51628600D02*
X182336300Y-51475600D01*
X182336300Y-51475600D02*
X182263300Y-51330500D01*
X182263300Y-51330500D02*
X182169300Y-51195500D01*
X182169300Y-51195500D02*
X182053300Y-51073100D01*
X182053300Y-51073100D02*
X181915300Y-50965400D01*
X181915300Y-50965400D02*
X181498300Y-50609500D01*
X181498300Y-50609500D02*
X181060300Y-50281700D01*
X181060300Y-50281700D02*
X180606300Y-49975800D01*
X180606300Y-49975800D02*
X180140300Y-49686000D01*
X180140300Y-49686000D02*
X179191300Y-49130800D01*
X179191300Y-49130800D02*
X178251300Y-48568500D01*
X178251300Y-48568500D02*
X177569300Y-48203500D01*
X177569300Y-48203500D02*
X176876600Y-47857700D01*
X176876600Y-47857700D02*
X176173400Y-47531900D01*
X176173400Y-47531900D02*
X175460400Y-47227100D01*
X175460400Y-47227100D02*
X174738400Y-46944100D01*
X174738400Y-46944100D02*
X174007900Y-46683800D01*
X174007900Y-46683800D02*
X173269800Y-46447000D01*
X173269800Y-46447000D02*
X172524700Y-46234600D01*
X172524700Y-46234600D02*
X171773200Y-46047500D01*
X171773200Y-46047500D02*
X171016100Y-45886600D01*
X171016100Y-45886600D02*
X170254100Y-45752800D01*
X170254100Y-45752800D02*
X169487800Y-45646800D01*
X169487800Y-45646800D02*
X168717900Y-45569600D01*
X168717900Y-45569600D02*
X167945100Y-45522100D01*
X167945100Y-45522100D02*
X167170100Y-45505100D01*
X167170100Y-45505100D02*
X166393600Y-45519500D01*
X166393600Y-45519500D02*
X166393600Y-45519600D01*
X166393600Y-45519600D02*
X166393600Y-45519600D01*
M02*
