%TF.GenerationSoftware,KiCad,Pcbnew,9.0.6*%
%TF.CreationDate,2026-01-09T14:19:34+01:00*%
%TF.ProjectId,Alligator,416c6c69-6761-4746-9f72-2e6b69636164,rev?*%
%TF.SameCoordinates,Original*%
%TF.FileFunction,Legend,Top*%
%TF.FilePolarity,Positive*%
%FSLAX46Y46*%
G04 Gerber Fmt 4.6, Leading zero omitted, Abs format (unit mm)*
G04 Created by KiCad (PCBNEW 9.0.6) date 2026-01-09 14:19:34*
%MOMM*%
%LPD*%
G01*
G04 APERTURE LIST*
%ADD10C,0.010000*%
G04 APERTURE END LIST*
D10*
%TO.C,G\u002A\u002A\u002A*%
X75462350Y-52459564D02*
X75814474Y-52635669D01*
X76137993Y-52966759D01*
X76302199Y-53207091D01*
X76420026Y-53408922D01*
X76494963Y-53585290D01*
X76536648Y-53783901D01*
X76554721Y-54052461D01*
X76558820Y-54438676D01*
X76558833Y-54477274D01*
X76554727Y-54881717D01*
X76535174Y-55171960D01*
X76489326Y-55403076D01*
X76406332Y-55630133D01*
X76277985Y-55902844D01*
X76013182Y-56340224D01*
X75726716Y-56612645D01*
X75410854Y-56723910D01*
X75057865Y-56677818D01*
X74865500Y-56597188D01*
X74459413Y-56303528D01*
X74130451Y-55888748D01*
X73888372Y-55387083D01*
X73742931Y-54832766D01*
X73703887Y-54260032D01*
X73780995Y-53703118D01*
X73926943Y-53303984D01*
X74197328Y-52873511D01*
X74521812Y-52593663D01*
X74920197Y-52449242D01*
X75066817Y-52429120D01*
X75462350Y-52459564D01*
G36*
X75462350Y-52459564D02*
G01*
X75814474Y-52635669D01*
X76137993Y-52966759D01*
X76302199Y-53207091D01*
X76420026Y-53408922D01*
X76494963Y-53585290D01*
X76536648Y-53783901D01*
X76554721Y-54052461D01*
X76558820Y-54438676D01*
X76558833Y-54477274D01*
X76554727Y-54881717D01*
X76535174Y-55171960D01*
X76489326Y-55403076D01*
X76406332Y-55630133D01*
X76277985Y-55902844D01*
X76013182Y-56340224D01*
X75726716Y-56612645D01*
X75410854Y-56723910D01*
X75057865Y-56677818D01*
X74865500Y-56597188D01*
X74459413Y-56303528D01*
X74130451Y-55888748D01*
X73888372Y-55387083D01*
X73742931Y-54832766D01*
X73703887Y-54260032D01*
X73780995Y-53703118D01*
X73926943Y-53303984D01*
X74197328Y-52873511D01*
X74521812Y-52593663D01*
X74920197Y-52449242D01*
X75066817Y-52429120D01*
X75462350Y-52459564D01*
G37*
X85368304Y-54563195D02*
X85557890Y-54644625D01*
X85660500Y-54709329D01*
X85973473Y-54986650D01*
X86159942Y-55326588D01*
X86232674Y-55759609D01*
X86227910Y-56063298D01*
X86109555Y-56655838D01*
X85845309Y-57193939D01*
X85454381Y-57660780D01*
X84955980Y-58039543D01*
X84369318Y-58313408D01*
X83713603Y-58465554D01*
X83459167Y-58487543D01*
X83113317Y-58496986D01*
X82879604Y-58478083D01*
X82701801Y-58420578D01*
X82529067Y-58317874D01*
X82311041Y-58137754D01*
X82145603Y-57945811D01*
X82123322Y-57908592D01*
X82041783Y-57591369D01*
X82067085Y-57188693D01*
X82186800Y-56735312D01*
X82388501Y-56265976D01*
X82659759Y-55815432D01*
X82988146Y-55418430D01*
X83028190Y-55378578D01*
X83542601Y-54955771D01*
X84071622Y-54686140D01*
X84647683Y-54554466D01*
X84813833Y-54540685D01*
X85142092Y-54532892D01*
X85368304Y-54563195D01*
G36*
X85368304Y-54563195D02*
G01*
X85557890Y-54644625D01*
X85660500Y-54709329D01*
X85973473Y-54986650D01*
X86159942Y-55326588D01*
X86232674Y-55759609D01*
X86227910Y-56063298D01*
X86109555Y-56655838D01*
X85845309Y-57193939D01*
X85454381Y-57660780D01*
X84955980Y-58039543D01*
X84369318Y-58313408D01*
X83713603Y-58465554D01*
X83459167Y-58487543D01*
X83113317Y-58496986D01*
X82879604Y-58478083D01*
X82701801Y-58420578D01*
X82529067Y-58317874D01*
X82311041Y-58137754D01*
X82145603Y-57945811D01*
X82123322Y-57908592D01*
X82041783Y-57591369D01*
X82067085Y-57188693D01*
X82186800Y-56735312D01*
X82388501Y-56265976D01*
X82659759Y-55815432D01*
X82988146Y-55418430D01*
X83028190Y-55378578D01*
X83542601Y-54955771D01*
X84071622Y-54686140D01*
X84647683Y-54554466D01*
X84813833Y-54540685D01*
X85142092Y-54532892D01*
X85368304Y-54563195D01*
G37*
X155170375Y-95626801D02*
X156217486Y-95736819D01*
X157243052Y-95936193D01*
X158228605Y-96219002D01*
X159155677Y-96579324D01*
X160005801Y-97011237D01*
X160760511Y-97508819D01*
X161401337Y-98066148D01*
X161909814Y-98677303D01*
X162173960Y-99127527D01*
X162380230Y-99710546D01*
X162457153Y-100325703D01*
X162402988Y-100925273D01*
X162256050Y-101379474D01*
X161905709Y-101944793D01*
X161413769Y-102433268D01*
X160793977Y-102835450D01*
X160060077Y-103141890D01*
X159463659Y-103298988D01*
X158953726Y-103375995D01*
X158327032Y-103427347D01*
X157634257Y-103452643D01*
X156926079Y-103451478D01*
X156253178Y-103423451D01*
X155666233Y-103368158D01*
X155425833Y-103331075D01*
X154324551Y-103082728D01*
X153278538Y-102752769D01*
X152307741Y-102351277D01*
X151432107Y-101888332D01*
X150671582Y-101374012D01*
X150046113Y-100818398D01*
X149732133Y-100453981D01*
X149399301Y-99892688D01*
X149210178Y-99289773D01*
X149167886Y-98731996D01*
X151211398Y-98731996D01*
X151222635Y-98910350D01*
X151391915Y-99260458D01*
X151712624Y-99616101D01*
X152167578Y-99967215D01*
X152739591Y-100303737D01*
X153411481Y-100615603D01*
X154166062Y-100892751D01*
X154986149Y-101125116D01*
X155017680Y-101132760D01*
X155860061Y-101318925D01*
X156585492Y-101438932D01*
X157231745Y-101495432D01*
X157836594Y-101491079D01*
X158437809Y-101428525D01*
X158675560Y-101389620D01*
X159243267Y-101254617D01*
X159725189Y-101073048D01*
X160103829Y-100856741D01*
X160361691Y-100617528D01*
X160481278Y-100367236D01*
X160468986Y-100177084D01*
X160363123Y-99999465D01*
X160153013Y-99756115D01*
X159872350Y-99479511D01*
X159554831Y-99202133D01*
X159234152Y-98956460D01*
X159127465Y-98884015D01*
X158251664Y-98409171D01*
X157261242Y-98048971D01*
X156169289Y-97806868D01*
X154988897Y-97686313D01*
X154536833Y-97673250D01*
X153771597Y-97693331D01*
X153079102Y-97766086D01*
X152473739Y-97886146D01*
X151969896Y-98048138D01*
X151581965Y-98246691D01*
X151324336Y-98476434D01*
X151211398Y-98731996D01*
X149167886Y-98731996D01*
X149163416Y-98673049D01*
X149257669Y-98070328D01*
X149491587Y-97509420D01*
X149863824Y-97018138D01*
X149900381Y-96981857D01*
X150194437Y-96751598D01*
X150604134Y-96504381D01*
X151080868Y-96264455D01*
X151576038Y-96056070D01*
X152041042Y-95903477D01*
X152084443Y-95892110D01*
X153085386Y-95698525D01*
X154120186Y-95612063D01*
X155170375Y-95626801D01*
G36*
X155170375Y-95626801D02*
G01*
X156217486Y-95736819D01*
X157243052Y-95936193D01*
X158228605Y-96219002D01*
X159155677Y-96579324D01*
X160005801Y-97011237D01*
X160760511Y-97508819D01*
X161401337Y-98066148D01*
X161909814Y-98677303D01*
X162173960Y-99127527D01*
X162380230Y-99710546D01*
X162457153Y-100325703D01*
X162402988Y-100925273D01*
X162256050Y-101379474D01*
X161905709Y-101944793D01*
X161413769Y-102433268D01*
X160793977Y-102835450D01*
X160060077Y-103141890D01*
X159463659Y-103298988D01*
X158953726Y-103375995D01*
X158327032Y-103427347D01*
X157634257Y-103452643D01*
X156926079Y-103451478D01*
X156253178Y-103423451D01*
X155666233Y-103368158D01*
X155425833Y-103331075D01*
X154324551Y-103082728D01*
X153278538Y-102752769D01*
X152307741Y-102351277D01*
X151432107Y-101888332D01*
X150671582Y-101374012D01*
X150046113Y-100818398D01*
X149732133Y-100453981D01*
X149399301Y-99892688D01*
X149210178Y-99289773D01*
X149167886Y-98731996D01*
X151211398Y-98731996D01*
X151222635Y-98910350D01*
X151391915Y-99260458D01*
X151712624Y-99616101D01*
X152167578Y-99967215D01*
X152739591Y-100303737D01*
X153411481Y-100615603D01*
X154166062Y-100892751D01*
X154986149Y-101125116D01*
X155017680Y-101132760D01*
X155860061Y-101318925D01*
X156585492Y-101438932D01*
X157231745Y-101495432D01*
X157836594Y-101491079D01*
X158437809Y-101428525D01*
X158675560Y-101389620D01*
X159243267Y-101254617D01*
X159725189Y-101073048D01*
X160103829Y-100856741D01*
X160361691Y-100617528D01*
X160481278Y-100367236D01*
X160468986Y-100177084D01*
X160363123Y-99999465D01*
X160153013Y-99756115D01*
X159872350Y-99479511D01*
X159554831Y-99202133D01*
X159234152Y-98956460D01*
X159127465Y-98884015D01*
X158251664Y-98409171D01*
X157261242Y-98048971D01*
X156169289Y-97806868D01*
X154988897Y-97686313D01*
X154536833Y-97673250D01*
X153771597Y-97693331D01*
X153079102Y-97766086D01*
X152473739Y-97886146D01*
X151969896Y-98048138D01*
X151581965Y-98246691D01*
X151324336Y-98476434D01*
X151211398Y-98731996D01*
X149167886Y-98731996D01*
X149163416Y-98673049D01*
X149257669Y-98070328D01*
X149491587Y-97509420D01*
X149863824Y-97018138D01*
X149900381Y-96981857D01*
X150194437Y-96751598D01*
X150604134Y-96504381D01*
X151080868Y-96264455D01*
X151576038Y-96056070D01*
X152041042Y-95903477D01*
X152084443Y-95892110D01*
X153085386Y-95698525D01*
X154120186Y-95612063D01*
X155170375Y-95626801D01*
G37*
X170921367Y-97249868D02*
X171345003Y-97259077D01*
X171681473Y-97280081D01*
X171971839Y-97316955D01*
X172257165Y-97373776D01*
X172578515Y-97454621D01*
X172655500Y-97475325D01*
X173310370Y-97682485D01*
X173953677Y-97940534D01*
X174546727Y-98230501D01*
X175050824Y-98533416D01*
X175427274Y-98830310D01*
X175435402Y-98838159D01*
X175881221Y-99364349D01*
X176168088Y-99913913D01*
X176294967Y-100473914D01*
X176260821Y-101031416D01*
X176064616Y-101573486D01*
X175705314Y-102087187D01*
X175696438Y-102097104D01*
X175282491Y-102463760D01*
X174743679Y-102799588D01*
X174124271Y-103082054D01*
X173468531Y-103288622D01*
X173268861Y-103332918D01*
X172679897Y-103423260D01*
X172014023Y-103482051D01*
X171334798Y-103506650D01*
X170705781Y-103494420D01*
X170284833Y-103456806D01*
X169565422Y-103323825D01*
X168824263Y-103122180D01*
X168096294Y-102866248D01*
X167416455Y-102570406D01*
X166819684Y-102249030D01*
X166340920Y-101916496D01*
X166169651Y-101763462D01*
X165788128Y-101281498D01*
X165538789Y-100738066D01*
X165427895Y-100164718D01*
X165433236Y-100074393D01*
X167533167Y-100074393D01*
X167611369Y-100251324D01*
X167828142Y-100452226D01*
X168156732Y-100664436D01*
X168570387Y-100875289D01*
X169042355Y-101072122D01*
X169545882Y-101242271D01*
X170054217Y-101373072D01*
X170409465Y-101435952D01*
X170868241Y-101468596D01*
X171434765Y-101462140D01*
X172052788Y-101419661D01*
X172666062Y-101344232D01*
X172940125Y-101297622D01*
X173495235Y-101158043D01*
X173901503Y-100977696D01*
X174150740Y-100760336D01*
X174168186Y-100734380D01*
X174182191Y-100568202D01*
X174056636Y-100370945D01*
X173814914Y-100157579D01*
X173480416Y-99943078D01*
X173076533Y-99742412D01*
X172626658Y-99570553D01*
X172154182Y-99442473D01*
X172147500Y-99441058D01*
X171756469Y-99383211D01*
X171246770Y-99342926D01*
X170668214Y-99320744D01*
X170070607Y-99317203D01*
X169503759Y-99332842D01*
X169017477Y-99368201D01*
X168755216Y-99404331D01*
X168367781Y-99503085D01*
X168017504Y-99643318D01*
X167739636Y-99805702D01*
X167569428Y-99970909D01*
X167533167Y-100074393D01*
X165433236Y-100074393D01*
X165461707Y-99593009D01*
X165636192Y-99074849D01*
X165944808Y-98615596D01*
X166389550Y-98213782D01*
X166984186Y-97857511D01*
X167122602Y-97790539D01*
X167583930Y-97596486D01*
X168048185Y-97451767D01*
X168550492Y-97350516D01*
X169125975Y-97286870D01*
X169809761Y-97254963D01*
X170369500Y-97248375D01*
X170921367Y-97249868D01*
G36*
X170921367Y-97249868D02*
G01*
X171345003Y-97259077D01*
X171681473Y-97280081D01*
X171971839Y-97316955D01*
X172257165Y-97373776D01*
X172578515Y-97454621D01*
X172655500Y-97475325D01*
X173310370Y-97682485D01*
X173953677Y-97940534D01*
X174546727Y-98230501D01*
X175050824Y-98533416D01*
X175427274Y-98830310D01*
X175435402Y-98838159D01*
X175881221Y-99364349D01*
X176168088Y-99913913D01*
X176294967Y-100473914D01*
X176260821Y-101031416D01*
X176064616Y-101573486D01*
X175705314Y-102087187D01*
X175696438Y-102097104D01*
X175282491Y-102463760D01*
X174743679Y-102799588D01*
X174124271Y-103082054D01*
X173468531Y-103288622D01*
X173268861Y-103332918D01*
X172679897Y-103423260D01*
X172014023Y-103482051D01*
X171334798Y-103506650D01*
X170705781Y-103494420D01*
X170284833Y-103456806D01*
X169565422Y-103323825D01*
X168824263Y-103122180D01*
X168096294Y-102866248D01*
X167416455Y-102570406D01*
X166819684Y-102249030D01*
X166340920Y-101916496D01*
X166169651Y-101763462D01*
X165788128Y-101281498D01*
X165538789Y-100738066D01*
X165427895Y-100164718D01*
X165433236Y-100074393D01*
X167533167Y-100074393D01*
X167611369Y-100251324D01*
X167828142Y-100452226D01*
X168156732Y-100664436D01*
X168570387Y-100875289D01*
X169042355Y-101072122D01*
X169545882Y-101242271D01*
X170054217Y-101373072D01*
X170409465Y-101435952D01*
X170868241Y-101468596D01*
X171434765Y-101462140D01*
X172052788Y-101419661D01*
X172666062Y-101344232D01*
X172940125Y-101297622D01*
X173495235Y-101158043D01*
X173901503Y-100977696D01*
X174150740Y-100760336D01*
X174168186Y-100734380D01*
X174182191Y-100568202D01*
X174056636Y-100370945D01*
X173814914Y-100157579D01*
X173480416Y-99943078D01*
X173076533Y-99742412D01*
X172626658Y-99570553D01*
X172154182Y-99442473D01*
X172147500Y-99441058D01*
X171756469Y-99383211D01*
X171246770Y-99342926D01*
X170668214Y-99320744D01*
X170070607Y-99317203D01*
X169503759Y-99332842D01*
X169017477Y-99368201D01*
X168755216Y-99404331D01*
X168367781Y-99503085D01*
X168017504Y-99643318D01*
X167739636Y-99805702D01*
X167569428Y-99970909D01*
X167533167Y-100074393D01*
X165433236Y-100074393D01*
X165461707Y-99593009D01*
X165636192Y-99074849D01*
X165944808Y-98615596D01*
X166389550Y-98213782D01*
X166984186Y-97857511D01*
X167122602Y-97790539D01*
X167583930Y-97596486D01*
X168048185Y-97451767D01*
X168550492Y-97350516D01*
X169125975Y-97286870D01*
X169809761Y-97254963D01*
X170369500Y-97248375D01*
X170921367Y-97249868D01*
G37*
X115558243Y-48954611D02*
X116026694Y-48980698D01*
X116384786Y-49020862D01*
X116691466Y-49086106D01*
X117005678Y-49187436D01*
X117198833Y-49260873D01*
X118026525Y-49673545D01*
X118772787Y-50220696D01*
X119419633Y-50882022D01*
X119949077Y-51637219D01*
X120343135Y-52465984D01*
X120509021Y-52997697D01*
X120586711Y-53457838D01*
X120621378Y-54010375D01*
X120615152Y-54602524D01*
X120570160Y-55181503D01*
X120488531Y-55694529D01*
X120385684Y-56055764D01*
X119969447Y-56917847D01*
X119432690Y-57684293D01*
X118791807Y-58343513D01*
X118063194Y-58883920D01*
X117263245Y-59293926D01*
X116408354Y-59561942D01*
X115514916Y-59676382D01*
X115259123Y-59679312D01*
X114914119Y-59670416D01*
X114618737Y-59655722D01*
X114427078Y-59638085D01*
X114404833Y-59634225D01*
X113493858Y-59380693D01*
X112692003Y-59015603D01*
X111968291Y-58522514D01*
X111482105Y-58082900D01*
X110861960Y-57349112D01*
X110390212Y-56547153D01*
X110069655Y-55693590D01*
X109922740Y-54909858D01*
X112965500Y-54909858D01*
X112968032Y-55326132D01*
X112982484Y-55624128D01*
X113019143Y-55854895D01*
X113088291Y-56069479D01*
X113200216Y-56318930D01*
X113283777Y-56489572D01*
X113696470Y-57147187D01*
X114216630Y-57689744D01*
X114823333Y-58108396D01*
X115495655Y-58394294D01*
X116212674Y-58538589D01*
X116953465Y-58532435D01*
X117697106Y-58366982D01*
X117711662Y-58362056D01*
X118109595Y-58157839D01*
X118528325Y-57823421D01*
X118938014Y-57390190D01*
X119308820Y-56889529D01*
X119599683Y-56376314D01*
X119856665Y-55746153D01*
X120029696Y-55113909D01*
X120108271Y-54526434D01*
X120099369Y-54147532D01*
X119964521Y-53606588D01*
X119691984Y-53051269D01*
X119303952Y-52522981D01*
X119127920Y-52335025D01*
X118524369Y-51841910D01*
X117868167Y-51498193D01*
X117179214Y-51300272D01*
X116477412Y-51244543D01*
X115782661Y-51327401D01*
X115114862Y-51545242D01*
X114493916Y-51894463D01*
X113939724Y-52371459D01*
X113472187Y-52972627D01*
X113236556Y-53401911D01*
X113115970Y-53668011D01*
X113037627Y-53888800D01*
X112992487Y-54114570D01*
X112971512Y-54395610D01*
X112965660Y-54782211D01*
X112965500Y-54909858D01*
X109922740Y-54909858D01*
X109903081Y-54804986D01*
X109893284Y-53897910D01*
X110043056Y-52988925D01*
X110355192Y-52094598D01*
X110441371Y-51910731D01*
X110825695Y-51279238D01*
X111336099Y-50665764D01*
X111930903Y-50111363D01*
X112568429Y-49657095D01*
X112926339Y-49462812D01*
X113465333Y-49225441D01*
X113946612Y-49067156D01*
X114427053Y-48976972D01*
X114963534Y-48943908D01*
X115558243Y-48954611D01*
G36*
X115558243Y-48954611D02*
G01*
X116026694Y-48980698D01*
X116384786Y-49020862D01*
X116691466Y-49086106D01*
X117005678Y-49187436D01*
X117198833Y-49260873D01*
X118026525Y-49673545D01*
X118772787Y-50220696D01*
X119419633Y-50882022D01*
X119949077Y-51637219D01*
X120343135Y-52465984D01*
X120509021Y-52997697D01*
X120586711Y-53457838D01*
X120621378Y-54010375D01*
X120615152Y-54602524D01*
X120570160Y-55181503D01*
X120488531Y-55694529D01*
X120385684Y-56055764D01*
X119969447Y-56917847D01*
X119432690Y-57684293D01*
X118791807Y-58343513D01*
X118063194Y-58883920D01*
X117263245Y-59293926D01*
X116408354Y-59561942D01*
X115514916Y-59676382D01*
X115259123Y-59679312D01*
X114914119Y-59670416D01*
X114618737Y-59655722D01*
X114427078Y-59638085D01*
X114404833Y-59634225D01*
X113493858Y-59380693D01*
X112692003Y-59015603D01*
X111968291Y-58522514D01*
X111482105Y-58082900D01*
X110861960Y-57349112D01*
X110390212Y-56547153D01*
X110069655Y-55693590D01*
X109922740Y-54909858D01*
X112965500Y-54909858D01*
X112968032Y-55326132D01*
X112982484Y-55624128D01*
X113019143Y-55854895D01*
X113088291Y-56069479D01*
X113200216Y-56318930D01*
X113283777Y-56489572D01*
X113696470Y-57147187D01*
X114216630Y-57689744D01*
X114823333Y-58108396D01*
X115495655Y-58394294D01*
X116212674Y-58538589D01*
X116953465Y-58532435D01*
X117697106Y-58366982D01*
X117711662Y-58362056D01*
X118109595Y-58157839D01*
X118528325Y-57823421D01*
X118938014Y-57390190D01*
X119308820Y-56889529D01*
X119599683Y-56376314D01*
X119856665Y-55746153D01*
X120029696Y-55113909D01*
X120108271Y-54526434D01*
X120099369Y-54147532D01*
X119964521Y-53606588D01*
X119691984Y-53051269D01*
X119303952Y-52522981D01*
X119127920Y-52335025D01*
X118524369Y-51841910D01*
X117868167Y-51498193D01*
X117179214Y-51300272D01*
X116477412Y-51244543D01*
X115782661Y-51327401D01*
X115114862Y-51545242D01*
X114493916Y-51894463D01*
X113939724Y-52371459D01*
X113472187Y-52972627D01*
X113236556Y-53401911D01*
X113115970Y-53668011D01*
X113037627Y-53888800D01*
X112992487Y-54114570D01*
X112971512Y-54395610D01*
X112965660Y-54782211D01*
X112965500Y-54909858D01*
X109922740Y-54909858D01*
X109903081Y-54804986D01*
X109893284Y-53897910D01*
X110043056Y-52988925D01*
X110355192Y-52094598D01*
X110441371Y-51910731D01*
X110825695Y-51279238D01*
X111336099Y-50665764D01*
X111930903Y-50111363D01*
X112568429Y-49657095D01*
X112926339Y-49462812D01*
X113465333Y-49225441D01*
X113946612Y-49067156D01*
X114427053Y-48976972D01*
X114963534Y-48943908D01*
X115558243Y-48954611D01*
G37*
X130987147Y-51595240D02*
X131808356Y-51830792D01*
X132579574Y-52191045D01*
X133285820Y-52667441D01*
X133912115Y-53251423D01*
X134443478Y-53934432D01*
X134864931Y-54707910D01*
X135161493Y-55563299D01*
X135318183Y-56492042D01*
X135321961Y-56538731D01*
X135310298Y-57452659D01*
X135141066Y-58338358D01*
X134825651Y-59178905D01*
X134375441Y-59957377D01*
X133801821Y-60656852D01*
X133116179Y-61260405D01*
X132329900Y-61751115D01*
X131605870Y-62061679D01*
X131158516Y-62174422D01*
X130604370Y-62250122D01*
X130002451Y-62286085D01*
X129411779Y-62279622D01*
X128891373Y-62228040D01*
X128713500Y-62193569D01*
X127854880Y-61909859D01*
X127049809Y-61478833D01*
X126318997Y-60919298D01*
X125683156Y-60250057D01*
X125162998Y-59489915D01*
X124779233Y-58657676D01*
X124760558Y-58604591D01*
X124675027Y-58330559D01*
X124618096Y-58066066D01*
X124584364Y-57765093D01*
X124568427Y-57381625D01*
X124565644Y-57037679D01*
X125175607Y-57037679D01*
X125262396Y-57861175D01*
X125370520Y-58292133D01*
X125493589Y-58638744D01*
X125637363Y-58905730D01*
X125844742Y-59161712D01*
X126036095Y-59356792D01*
X126655764Y-59854194D01*
X127334355Y-60194476D01*
X128062125Y-60375303D01*
X128829331Y-60394342D01*
X129626229Y-60249258D01*
X129687524Y-60231517D01*
X130090663Y-60065621D01*
X130533411Y-59810713D01*
X130954950Y-59507511D01*
X131294462Y-59196732D01*
X131377774Y-59099908D01*
X131547421Y-58853084D01*
X131740888Y-58523427D01*
X131910265Y-58194527D01*
X132038312Y-57910671D01*
X132118613Y-57678042D01*
X132161832Y-57440235D01*
X132178637Y-57140843D01*
X132179967Y-56768133D01*
X132167285Y-56302065D01*
X132130092Y-55948899D01*
X132060338Y-55653005D01*
X131990070Y-55455800D01*
X131639781Y-54792794D01*
X131155881Y-54199316D01*
X130569370Y-53706359D01*
X129911245Y-53344916D01*
X129856500Y-53322638D01*
X129364662Y-53190081D01*
X128784940Y-53130338D01*
X128182287Y-53143323D01*
X127621657Y-53228951D01*
X127304238Y-53325993D01*
X126704912Y-53614371D01*
X126231401Y-53970266D01*
X125858585Y-54421096D01*
X125561340Y-54994283D01*
X125415789Y-55387183D01*
X125226999Y-56196253D01*
X125175607Y-57037679D01*
X124565644Y-57037679D01*
X124564833Y-56937467D01*
X124569586Y-56441836D01*
X124587707Y-56066777D01*
X124624996Y-55763695D01*
X124687248Y-55483997D01*
X124771388Y-55206056D01*
X125112346Y-54420432D01*
X125595737Y-53677325D01*
X126195098Y-53007115D01*
X126883965Y-52440185D01*
X127501998Y-52071206D01*
X128373373Y-51722372D01*
X129254676Y-51532472D01*
X130130927Y-51492947D01*
X130987147Y-51595240D01*
G36*
X130987147Y-51595240D02*
G01*
X131808356Y-51830792D01*
X132579574Y-52191045D01*
X133285820Y-52667441D01*
X133912115Y-53251423D01*
X134443478Y-53934432D01*
X134864931Y-54707910D01*
X135161493Y-55563299D01*
X135318183Y-56492042D01*
X135321961Y-56538731D01*
X135310298Y-57452659D01*
X135141066Y-58338358D01*
X134825651Y-59178905D01*
X134375441Y-59957377D01*
X133801821Y-60656852D01*
X133116179Y-61260405D01*
X132329900Y-61751115D01*
X131605870Y-62061679D01*
X131158516Y-62174422D01*
X130604370Y-62250122D01*
X130002451Y-62286085D01*
X129411779Y-62279622D01*
X128891373Y-62228040D01*
X128713500Y-62193569D01*
X127854880Y-61909859D01*
X127049809Y-61478833D01*
X126318997Y-60919298D01*
X125683156Y-60250057D01*
X125162998Y-59489915D01*
X124779233Y-58657676D01*
X124760558Y-58604591D01*
X124675027Y-58330559D01*
X124618096Y-58066066D01*
X124584364Y-57765093D01*
X124568427Y-57381625D01*
X124565644Y-57037679D01*
X125175607Y-57037679D01*
X125262396Y-57861175D01*
X125370520Y-58292133D01*
X125493589Y-58638744D01*
X125637363Y-58905730D01*
X125844742Y-59161712D01*
X126036095Y-59356792D01*
X126655764Y-59854194D01*
X127334355Y-60194476D01*
X128062125Y-60375303D01*
X128829331Y-60394342D01*
X129626229Y-60249258D01*
X129687524Y-60231517D01*
X130090663Y-60065621D01*
X130533411Y-59810713D01*
X130954950Y-59507511D01*
X131294462Y-59196732D01*
X131377774Y-59099908D01*
X131547421Y-58853084D01*
X131740888Y-58523427D01*
X131910265Y-58194527D01*
X132038312Y-57910671D01*
X132118613Y-57678042D01*
X132161832Y-57440235D01*
X132178637Y-57140843D01*
X132179967Y-56768133D01*
X132167285Y-56302065D01*
X132130092Y-55948899D01*
X132060338Y-55653005D01*
X131990070Y-55455800D01*
X131639781Y-54792794D01*
X131155881Y-54199316D01*
X130569370Y-53706359D01*
X129911245Y-53344916D01*
X129856500Y-53322638D01*
X129364662Y-53190081D01*
X128784940Y-53130338D01*
X128182287Y-53143323D01*
X127621657Y-53228951D01*
X127304238Y-53325993D01*
X126704912Y-53614371D01*
X126231401Y-53970266D01*
X125858585Y-54421096D01*
X125561340Y-54994283D01*
X125415789Y-55387183D01*
X125226999Y-56196253D01*
X125175607Y-57037679D01*
X124565644Y-57037679D01*
X124564833Y-56937467D01*
X124569586Y-56441836D01*
X124587707Y-56066777D01*
X124624996Y-55763695D01*
X124687248Y-55483997D01*
X124771388Y-55206056D01*
X125112346Y-54420432D01*
X125595737Y-53677325D01*
X126195098Y-53007115D01*
X126883965Y-52440185D01*
X127501998Y-52071206D01*
X128373373Y-51722372D01*
X129254676Y-51532472D01*
X130130927Y-51492947D01*
X130987147Y-51595240D01*
G37*
X116411687Y-44822068D02*
X117549150Y-44965927D01*
X118621361Y-45249588D01*
X119651247Y-45679058D01*
X120627833Y-46238271D01*
X120881241Y-46425407D01*
X121215100Y-46704756D01*
X121594019Y-47045022D01*
X121982609Y-47414906D01*
X122172752Y-47604503D01*
X122597678Y-48030744D01*
X122932965Y-48342544D01*
X123206195Y-48547660D01*
X123444952Y-48653850D01*
X123676821Y-48668870D01*
X123929383Y-48600479D01*
X124230224Y-48456434D01*
X124554788Y-48274408D01*
X125787433Y-47637628D01*
X127000843Y-47155768D01*
X128220039Y-46820301D01*
X129369667Y-46633485D01*
X130547884Y-46585134D01*
X131731667Y-46694780D01*
X132903236Y-46952705D01*
X134044812Y-47349191D01*
X135138617Y-47874518D01*
X136166871Y-48518969D01*
X137111795Y-49272824D01*
X137955610Y-50126365D01*
X138680537Y-51069873D01*
X139236035Y-52026800D01*
X139505089Y-52588603D01*
X139732925Y-53114124D01*
X139926323Y-53629670D01*
X140092060Y-54161550D01*
X140236916Y-54736073D01*
X140367669Y-55379546D01*
X140491100Y-56118279D01*
X140613985Y-56978578D01*
X140716503Y-57772395D01*
X140820833Y-58607324D01*
X141966097Y-59007108D01*
X142796297Y-59314709D01*
X143486485Y-59612655D01*
X144064170Y-59915993D01*
X144556862Y-60239764D01*
X144992071Y-60599014D01*
X145146365Y-60746242D01*
X145617186Y-61271811D01*
X145953022Y-61798068D01*
X146181111Y-62374259D01*
X146286055Y-62806844D01*
X146358848Y-63557298D01*
X146306426Y-64391031D01*
X146134619Y-65284077D01*
X145849258Y-66212473D01*
X145456173Y-67152253D01*
X145033170Y-67956894D01*
X144809997Y-68343071D01*
X144659192Y-68615476D01*
X144570003Y-68807864D01*
X144531679Y-68953995D01*
X144533471Y-69087625D01*
X144564627Y-69242512D01*
X144590149Y-69348009D01*
X144654424Y-69555365D01*
X144753338Y-69741484D01*
X144907654Y-69926192D01*
X145138136Y-70129315D01*
X145465546Y-70370680D01*
X145910650Y-70670113D01*
X146112500Y-70801648D01*
X147029848Y-71451203D01*
X147787404Y-72111285D01*
X148394703Y-72794047D01*
X148861278Y-73511640D01*
X149196662Y-74276216D01*
X149386148Y-74974258D01*
X149465054Y-75665630D01*
X149404010Y-76325673D01*
X149197119Y-76994558D01*
X149038609Y-77341928D01*
X148744840Y-77868771D01*
X148403957Y-78355237D01*
X147999589Y-78815240D01*
X147515365Y-79262691D01*
X146934914Y-79711502D01*
X146241866Y-80175587D01*
X145419850Y-80668857D01*
X144562719Y-81145746D01*
X143901938Y-81503369D01*
X144429419Y-81828948D01*
X145138516Y-82335841D01*
X145749712Y-82913191D01*
X146244635Y-83538346D01*
X146604917Y-84188658D01*
X146790675Y-84740411D01*
X146861833Y-85284351D01*
X146854773Y-85908116D01*
X146774949Y-86544316D01*
X146627815Y-87125559D01*
X146588804Y-87234520D01*
X146368402Y-87813573D01*
X146854284Y-87395382D01*
X147760463Y-86689539D01*
X148645325Y-86149589D01*
X149507675Y-85775614D01*
X150346316Y-85567695D01*
X151160055Y-85525913D01*
X151947694Y-85650350D01*
X152708038Y-85941086D01*
X153439893Y-86398203D01*
X154029133Y-86908241D01*
X154301580Y-87197942D01*
X154632523Y-87583715D01*
X154985598Y-88021362D01*
X155324442Y-88466687D01*
X155423357Y-88602800D01*
X155691575Y-88976650D01*
X155922956Y-89298990D01*
X156100494Y-89546141D01*
X156207183Y-89694426D01*
X156230406Y-89726478D01*
X156292706Y-89676308D01*
X156457591Y-89523033D01*
X156707846Y-89283226D01*
X157026257Y-88973457D01*
X157395610Y-88610295D01*
X157593734Y-88414145D01*
X158081413Y-87940069D01*
X158531465Y-87521531D01*
X158923631Y-87176457D01*
X159237651Y-86922774D01*
X159423896Y-86794776D01*
X160275685Y-86362510D01*
X161090261Y-86090921D01*
X161880813Y-85979032D01*
X162660529Y-86025861D01*
X163442600Y-86230429D01*
X163977167Y-86456555D01*
X164623789Y-86847642D01*
X165288985Y-87400972D01*
X165967384Y-88111153D01*
X166653618Y-88972797D01*
X167062795Y-89554176D01*
X167350279Y-89976270D01*
X167561520Y-90273448D01*
X167711908Y-90463192D01*
X167816833Y-90562986D01*
X167891683Y-90590313D01*
X167951075Y-90563309D01*
X168736485Y-89913029D01*
X169421763Y-89372560D01*
X170024954Y-88930435D01*
X170564102Y-88575186D01*
X171057251Y-88295347D01*
X171522445Y-88079450D01*
X171977729Y-87916029D01*
X172228788Y-87844790D01*
X172933093Y-87724276D01*
X173607720Y-87745192D01*
X174288959Y-87911779D01*
X174862734Y-88152605D01*
X175345561Y-88424551D01*
X175789118Y-88757570D01*
X176208858Y-89169938D01*
X176620234Y-89679932D01*
X177038701Y-90305831D01*
X177479713Y-91065912D01*
X177744108Y-91560469D01*
X177947123Y-91937458D01*
X178125877Y-92247033D01*
X178265215Y-92464637D01*
X178349984Y-92565713D01*
X178365583Y-92567611D01*
X178439721Y-92470749D01*
X178586274Y-92273079D01*
X178778363Y-92010957D01*
X178855678Y-91904800D01*
X179345133Y-91295073D01*
X179414566Y-91223277D01*
X188503775Y-91223277D01*
X188944413Y-90854354D01*
X189174637Y-90646876D01*
X189478870Y-90352034D01*
X189818097Y-90008558D01*
X190153306Y-89655179D01*
X190164275Y-89643335D01*
X190456935Y-89323704D01*
X190709968Y-89041061D01*
X190899727Y-88822279D01*
X191002565Y-88694231D01*
X191011207Y-88680852D01*
X191017824Y-88623768D01*
X190942678Y-88587667D01*
X190759735Y-88568200D01*
X190442961Y-88561015D01*
X190291540Y-88560598D01*
X189738930Y-88584355D01*
X189317868Y-88668176D01*
X189009845Y-88831202D01*
X188796349Y-89092573D01*
X188658869Y-89471430D01*
X188578894Y-89986913D01*
X188551347Y-90359947D01*
X188503775Y-91223277D01*
X179414566Y-91223277D01*
X179874380Y-90747822D01*
X180411769Y-90292044D01*
X180925649Y-89956739D01*
X181051632Y-89892810D01*
X181319979Y-89770934D01*
X181540744Y-89691947D01*
X181764439Y-89646788D01*
X182041577Y-89626398D01*
X182422673Y-89621718D01*
X182561500Y-89622011D01*
X183044080Y-89634270D01*
X183445931Y-89676298D01*
X183812256Y-89761537D01*
X184188257Y-89903428D01*
X184619135Y-90115414D01*
X185080333Y-90371037D01*
X185736500Y-90745329D01*
X185739454Y-90182064D01*
X185806773Y-89227806D01*
X185996501Y-88381824D01*
X186306141Y-87647971D01*
X186733193Y-87030099D01*
X187275160Y-86532060D01*
X187929542Y-86157707D01*
X188474315Y-85965426D01*
X188729132Y-85915074D01*
X189103680Y-85866054D01*
X189548406Y-85823844D01*
X190013760Y-85793925D01*
X190033333Y-85793004D01*
X190446835Y-85771630D01*
X190791635Y-85749534D01*
X191036629Y-85729032D01*
X191150714Y-85712442D01*
X191155167Y-85709411D01*
X191110991Y-85628753D01*
X190995799Y-85449838D01*
X190852581Y-85237835D01*
X190289818Y-84342191D01*
X189878928Y-83509613D01*
X189617708Y-82732915D01*
X189503956Y-82004914D01*
X189509788Y-81877865D01*
X192425167Y-81877865D01*
X192446206Y-82178716D01*
X192499069Y-82448926D01*
X192524788Y-82523983D01*
X192649533Y-82785010D01*
X192810736Y-83074403D01*
X192986002Y-83358013D01*
X193152939Y-83601695D01*
X193289154Y-83771301D01*
X193372253Y-83832685D01*
X193380567Y-83828933D01*
X193424813Y-83721720D01*
X193491410Y-83483942D01*
X193571134Y-83151395D01*
X193650217Y-82782334D01*
X193737534Y-82319982D01*
X193813940Y-81854933D01*
X193875907Y-81416739D01*
X193919909Y-81034954D01*
X193942420Y-80739134D01*
X193939913Y-80558832D01*
X193920506Y-80517133D01*
X193815181Y-80560035D01*
X193611466Y-80671663D01*
X193351591Y-80826403D01*
X193077785Y-80998637D01*
X192832275Y-81162750D01*
X192709300Y-81251845D01*
X192533190Y-81406773D01*
X192449834Y-81564250D01*
X192425816Y-81797903D01*
X192425167Y-81877865D01*
X189509788Y-81877865D01*
X189535470Y-81318424D01*
X189580366Y-81086828D01*
X189744664Y-80521091D01*
X189961386Y-80056320D01*
X190263641Y-79625251D01*
X190351121Y-79521036D01*
X190588335Y-79291248D01*
X190933209Y-79013651D01*
X191342771Y-78717785D01*
X191774044Y-78433191D01*
X192184057Y-78189408D01*
X192529833Y-78015978D01*
X192557597Y-78004309D01*
X192775846Y-77906407D01*
X192909970Y-77830503D01*
X192930467Y-77807800D01*
X192862461Y-77748699D01*
X192678809Y-77619045D01*
X192407506Y-77437957D01*
X192076546Y-77224556D01*
X192075630Y-77223974D01*
X191276974Y-76673320D01*
X190636782Y-76131263D01*
X190145629Y-75584345D01*
X189794088Y-75019113D01*
X189572732Y-74422110D01*
X189472135Y-73779881D01*
X189467026Y-73609307D01*
X192294660Y-73609307D01*
X192397337Y-73906307D01*
X192650744Y-74209334D01*
X192874751Y-74398603D01*
X193097002Y-74568930D01*
X193213443Y-74649522D01*
X193252504Y-74653856D01*
X193242618Y-74595410D01*
X193234852Y-74569300D01*
X193195886Y-74448032D01*
X193116157Y-74205723D01*
X193008710Y-73881889D01*
X192927655Y-73638821D01*
X192783874Y-73235880D01*
X192668848Y-72991351D01*
X192571689Y-72899017D01*
X192481511Y-72952661D01*
X192387427Y-73146067D01*
X192333444Y-73299513D01*
X192294660Y-73609307D01*
X189467026Y-73609307D01*
X189463619Y-73495599D01*
X189495260Y-73063758D01*
X189593669Y-72621529D01*
X189768254Y-72148775D01*
X190028422Y-71625355D01*
X190383579Y-71031132D01*
X190843131Y-70345967D01*
X191111185Y-69968276D01*
X191128989Y-69873898D01*
X191090332Y-69706978D01*
X190989998Y-69457305D01*
X190822765Y-69114670D01*
X190583415Y-68668861D01*
X190266729Y-68109667D01*
X189867487Y-67426878D01*
X189476872Y-66770987D01*
X189156623Y-66228932D01*
X188851344Y-65698202D01*
X188576862Y-65207393D01*
X188349006Y-64785101D01*
X188183603Y-64459925D01*
X188117031Y-64314070D01*
X187861383Y-63545586D01*
X187745186Y-62817252D01*
X187765289Y-62142419D01*
X187918540Y-61534435D01*
X188201786Y-61006651D01*
X188611876Y-60572417D01*
X189069294Y-60281163D01*
X189601602Y-60069350D01*
X190136877Y-59965903D01*
X190698687Y-59973241D01*
X191310598Y-60093782D01*
X191996178Y-60329945D01*
X192721500Y-60655931D01*
X193665649Y-61155053D01*
X194593131Y-61725819D01*
X195522969Y-62382733D01*
X196474184Y-63140303D01*
X197465796Y-64013033D01*
X198516827Y-65015429D01*
X198777373Y-65274253D01*
X199558750Y-66073124D01*
X200235480Y-66805611D01*
X200837696Y-67507840D01*
X201395529Y-68215940D01*
X201939112Y-68966036D01*
X202310599Y-69510467D01*
X203488700Y-71422463D01*
X204534695Y-73430859D01*
X205442427Y-75518866D01*
X206205740Y-77669700D01*
X206818477Y-79866574D01*
X207274480Y-82092702D01*
X207495665Y-83646832D01*
X207736898Y-86328060D01*
X207826801Y-88939369D01*
X207764998Y-91487575D01*
X207551108Y-93979490D01*
X207184753Y-96421929D01*
X206665555Y-98821707D01*
X206648449Y-98889800D01*
X206094782Y-100782539D01*
X205387918Y-102695288D01*
X204539440Y-104609062D01*
X203560934Y-106504875D01*
X202463985Y-108363743D01*
X201260176Y-110166680D01*
X199961093Y-111894702D01*
X198578320Y-113528823D01*
X197123441Y-115050057D01*
X196327899Y-115803304D01*
X194604551Y-117274245D01*
X192741752Y-118669780D01*
X190756427Y-119979479D01*
X188665494Y-121192912D01*
X186485878Y-122299646D01*
X184234499Y-123289253D01*
X184085500Y-123349508D01*
X183560286Y-123563845D01*
X183175086Y-123729432D01*
X182911007Y-123856024D01*
X182749157Y-123953373D01*
X182670645Y-124031235D01*
X182655231Y-124087977D01*
X182671424Y-124245330D01*
X182706024Y-124516628D01*
X182752142Y-124848385D01*
X182761528Y-124913093D01*
X182812230Y-125376197D01*
X182845561Y-125924955D01*
X182861826Y-126520288D01*
X182861333Y-127123118D01*
X182844388Y-127694366D01*
X182811297Y-128194954D01*
X182762367Y-128585804D01*
X182731600Y-128729593D01*
X182371632Y-129771116D01*
X181872413Y-130730506D01*
X181243682Y-131593448D01*
X180495173Y-132345623D01*
X180017727Y-132719979D01*
X179439580Y-133080542D01*
X178721900Y-133443056D01*
X177893963Y-133796191D01*
X176985049Y-134128612D01*
X176024434Y-134428987D01*
X175041396Y-134685984D01*
X174791003Y-134743137D01*
X173687707Y-134959174D01*
X172529519Y-135134299D01*
X171338003Y-135268380D01*
X170134722Y-135361287D01*
X168941239Y-135412888D01*
X167779118Y-135423051D01*
X166669923Y-135391647D01*
X165635216Y-135318543D01*
X164696561Y-135203608D01*
X163875522Y-135046712D01*
X163193663Y-134847723D01*
X163104659Y-134814212D01*
X162409405Y-134457427D01*
X161816811Y-133977544D01*
X161341588Y-133392728D01*
X160998444Y-132721144D01*
X160802087Y-131980958D01*
X160800137Y-131968110D01*
X160752957Y-131724445D01*
X160696085Y-131618002D01*
X160611248Y-131616887D01*
X160601292Y-131621005D01*
X159266204Y-132123265D01*
X157813932Y-132516999D01*
X156236398Y-132804388D01*
X156193829Y-132810435D01*
X155742395Y-132860912D01*
X155171659Y-132904442D01*
X154514405Y-132940354D01*
X153803412Y-132967978D01*
X153071464Y-132986645D01*
X152351341Y-132995684D01*
X151675825Y-132994425D01*
X151077699Y-132982199D01*
X150589744Y-132958335D01*
X150303748Y-132930818D01*
X149396346Y-132764209D01*
X148637732Y-132524737D01*
X148022498Y-132209528D01*
X147545240Y-131815709D01*
X147200552Y-131340404D01*
X147158250Y-131258449D01*
X147044361Y-131009007D01*
X147041975Y-131001638D01*
X148398500Y-131001638D01*
X148824091Y-130603547D01*
X149148477Y-130339357D01*
X149516898Y-130100860D01*
X149889849Y-129907636D01*
X150227823Y-129779265D01*
X150491313Y-129735326D01*
X150559166Y-129743653D01*
X150713302Y-129821094D01*
X150766807Y-129983657D01*
X150769167Y-130057379D01*
X150746811Y-130204377D01*
X150664991Y-130361224D01*
X150501576Y-130558532D01*
X150234434Y-130826915D01*
X150164421Y-130893899D01*
X149889139Y-131162294D01*
X149727645Y-131339327D01*
X149665788Y-131444565D01*
X149689418Y-131497577D01*
X149719921Y-131508612D01*
X149814548Y-131523037D01*
X149955327Y-131527780D01*
X150158353Y-131521512D01*
X150439720Y-131502904D01*
X150815523Y-131470624D01*
X151301856Y-131423343D01*
X151914813Y-131359732D01*
X152670488Y-131278460D01*
X153182167Y-131222525D01*
X154233809Y-131099874D01*
X155134550Y-130978216D01*
X155902757Y-130853793D01*
X156556795Y-130722848D01*
X157115031Y-130581624D01*
X157595831Y-130426364D01*
X158017561Y-130253311D01*
X158092833Y-130217963D01*
X158553774Y-129958489D01*
X159047237Y-129617050D01*
X159520538Y-129234868D01*
X159920992Y-128853165D01*
X160099181Y-128648157D01*
X160283495Y-128413839D01*
X159611497Y-128471708D01*
X158415565Y-128570464D01*
X157334946Y-128649623D01*
X156317098Y-128711901D01*
X155309477Y-128760018D01*
X154259539Y-128796691D01*
X153114743Y-128824638D01*
X152602567Y-128834260D01*
X149482968Y-128888682D01*
X149067473Y-129387950D01*
X148759366Y-129777786D01*
X148557594Y-130088049D01*
X148444038Y-130353992D01*
X148400579Y-130610869D01*
X148398500Y-130689515D01*
X148398500Y-131001638D01*
X147041975Y-131001638D01*
X146972972Y-130788493D01*
X146957407Y-130689515D01*
X146934413Y-130543300D01*
X146919012Y-130219819D01*
X146916833Y-129920133D01*
X146922617Y-129503211D01*
X146945101Y-129207479D01*
X146991984Y-128985036D01*
X147070964Y-128787977D01*
X147111508Y-128708824D01*
X147306182Y-128344181D01*
X146512486Y-128396133D01*
X146050502Y-129158133D01*
X145201711Y-130435360D01*
X144290295Y-131573046D01*
X143322031Y-132565748D01*
X142302693Y-133408024D01*
X141238055Y-134094431D01*
X140349359Y-134531191D01*
X139718309Y-134764105D01*
X138970694Y-134981445D01*
X138159265Y-135169857D01*
X137336776Y-135315991D01*
X137137833Y-135344057D01*
X136633540Y-135394103D01*
X136019823Y-135428572D01*
X135345830Y-135447101D01*
X134660708Y-135449326D01*
X134013605Y-135434884D01*
X133453670Y-135403411D01*
X133158500Y-135373490D01*
X132127262Y-135214049D01*
X131237780Y-135014597D01*
X130465067Y-134764632D01*
X129784137Y-134453655D01*
X129170004Y-134071164D01*
X128597681Y-133606660D01*
X128318539Y-133339517D01*
X127584911Y-132602874D01*
X125863206Y-132892953D01*
X124871316Y-133052112D01*
X124014771Y-133170800D01*
X123265043Y-133251200D01*
X122593601Y-133295492D01*
X121971918Y-133305860D01*
X121371464Y-133284485D01*
X121051167Y-133260953D01*
X120179741Y-133162371D01*
X119329352Y-133021027D01*
X118550996Y-132846654D01*
X117956810Y-132670416D01*
X117179991Y-132331804D01*
X116536552Y-131898951D01*
X116031087Y-131377286D01*
X115668193Y-130772237D01*
X115452465Y-130089232D01*
X115395647Y-129645321D01*
X115393492Y-129267475D01*
X117940819Y-129267475D01*
X117951559Y-129320657D01*
X118029477Y-129493411D01*
X118143603Y-129513662D01*
X118301365Y-129378969D01*
X118468833Y-129150690D01*
X118805333Y-128751498D01*
X119263320Y-128365497D01*
X119796323Y-128027417D01*
X120268736Y-127805588D01*
X120746319Y-127651371D01*
X121114977Y-127611028D01*
X121391646Y-127685153D01*
X121576897Y-127851434D01*
X121674202Y-128006713D01*
X121692653Y-128150300D01*
X121638176Y-128358818D01*
X121620232Y-128411630D01*
X121518352Y-128633571D01*
X121344822Y-128939722D01*
X121129591Y-129278826D01*
X121021091Y-129437072D01*
X120803946Y-129748802D01*
X120675297Y-129949749D01*
X120624504Y-130066409D01*
X120640923Y-130125278D01*
X120713913Y-130152850D01*
X120732127Y-130156513D01*
X121051716Y-130190984D01*
X121504256Y-130202152D01*
X122055098Y-130190874D01*
X122669590Y-130158007D01*
X123313085Y-130104407D01*
X123464167Y-130088959D01*
X124140878Y-130009579D01*
X124814975Y-129916624D01*
X125453752Y-129815652D01*
X126024504Y-129712220D01*
X126494524Y-129611884D01*
X126831107Y-129520201D01*
X126850833Y-129513564D01*
X127067011Y-129410826D01*
X127264412Y-129241907D01*
X127483140Y-128969763D01*
X127564477Y-128854406D01*
X127763779Y-128579792D01*
X128038279Y-128220468D01*
X128353494Y-127820735D01*
X128674942Y-127424896D01*
X128711988Y-127380133D01*
X129097777Y-126913629D01*
X129386550Y-126559924D01*
X129590457Y-126302374D01*
X129721649Y-126124332D01*
X129792278Y-126009152D01*
X129814495Y-125940190D01*
X129800451Y-125900799D01*
X129795428Y-125895931D01*
X129698223Y-125849068D01*
X129468561Y-125754493D01*
X129133013Y-125622661D01*
X128718151Y-125464025D01*
X128290167Y-125303727D01*
X126849280Y-124751628D01*
X125497088Y-124198291D01*
X124252552Y-123652065D01*
X123134630Y-123121296D01*
X122162283Y-122614331D01*
X122088333Y-122573372D01*
X121389833Y-122184532D01*
X121389833Y-122737033D01*
X121363598Y-123179545D01*
X121292408Y-123707815D01*
X121187536Y-124266011D01*
X121060254Y-124798297D01*
X120921838Y-125248839D01*
X120842762Y-125446606D01*
X120704853Y-125732029D01*
X120556576Y-125992785D01*
X120377739Y-126255439D01*
X120148153Y-126546558D01*
X119847626Y-126892708D01*
X119455968Y-127320457D01*
X119255758Y-127534760D01*
X118816345Y-128006144D01*
X118482148Y-128373660D01*
X118240349Y-128654858D01*
X118078134Y-128867289D01*
X117982684Y-129028502D01*
X117941185Y-129156047D01*
X117940819Y-129267475D01*
X115393492Y-129267475D01*
X115392562Y-129104605D01*
X115463695Y-128601771D01*
X115620390Y-128113550D01*
X115873989Y-127616674D01*
X116235835Y-127087874D01*
X116717269Y-126503881D01*
X117166310Y-126012849D01*
X117645095Y-125498515D01*
X118017658Y-125069481D01*
X118298128Y-124691925D01*
X118500635Y-124332029D01*
X118639309Y-123955972D01*
X118728280Y-123529935D01*
X118781677Y-123020099D01*
X118813630Y-122392643D01*
X118825438Y-122041698D01*
X118831224Y-121855612D01*
X126099760Y-121855612D01*
X126348297Y-121985997D01*
X126697280Y-122153890D01*
X127170309Y-122359611D01*
X127730445Y-122588473D01*
X128340750Y-122825787D01*
X128964284Y-123056865D01*
X129564109Y-123267020D01*
X129602500Y-123279977D01*
X130830167Y-123693227D01*
X130853488Y-122328557D01*
X130859977Y-121867329D01*
X130862916Y-121469937D01*
X130862307Y-121165220D01*
X130858150Y-120982017D01*
X130853488Y-120941702D01*
X130765932Y-120944034D01*
X130540171Y-120965190D01*
X130205898Y-121001990D01*
X129792806Y-121051256D01*
X129567100Y-121079428D01*
X129001229Y-121156089D01*
X128508186Y-121236532D01*
X128037070Y-121331644D01*
X127536976Y-121452316D01*
X126957002Y-121609436D01*
X126559963Y-121722711D01*
X126099760Y-121855612D01*
X118831224Y-121855612D01*
X118870334Y-120597929D01*
X118241817Y-120098800D01*
X122744500Y-120098800D01*
X122786833Y-120141133D01*
X122829167Y-120098800D01*
X122786833Y-120056467D01*
X122744500Y-120098800D01*
X118241817Y-120098800D01*
X118135201Y-120014133D01*
X122575167Y-120014133D01*
X122617500Y-120056467D01*
X122659833Y-120014133D01*
X122617500Y-119971800D01*
X122575167Y-120014133D01*
X118135201Y-120014133D01*
X117865250Y-119799756D01*
X117793299Y-119741037D01*
X122170049Y-119741037D01*
X122184636Y-119767316D01*
X122273849Y-119840129D01*
X122424888Y-119951159D01*
X122484628Y-119960898D01*
X122490500Y-119932445D01*
X122424003Y-119870406D01*
X122300000Y-119800775D01*
X122170049Y-119741037D01*
X117793299Y-119741037D01*
X117587072Y-119572736D01*
X121911481Y-119572736D01*
X121932082Y-119620051D01*
X122017332Y-119710945D01*
X122066342Y-119692299D01*
X122067167Y-119680463D01*
X122007030Y-119608851D01*
X121969418Y-119582715D01*
X121911481Y-119572736D01*
X117587072Y-119572736D01*
X116964596Y-119064737D01*
X116070572Y-118298077D01*
X115233712Y-117543875D01*
X114691266Y-117029754D01*
X114131031Y-116485034D01*
X113515964Y-116960259D01*
X112982810Y-117328936D01*
X112365952Y-117685911D01*
X111723319Y-118001646D01*
X111112841Y-118246600D01*
X110806500Y-118341877D01*
X110502561Y-118408437D01*
X110150763Y-118452526D01*
X109713981Y-118477055D01*
X109155089Y-118484935D01*
X108986167Y-118484620D01*
X108471508Y-118479541D01*
X108084091Y-118466125D01*
X107781858Y-118439391D01*
X107522751Y-118394357D01*
X107264713Y-118326040D01*
X107038833Y-118253953D01*
X106252728Y-117937786D01*
X105550496Y-117530295D01*
X104883783Y-117001170D01*
X104579530Y-116712386D01*
X103961523Y-116008740D01*
X103500703Y-115273922D01*
X103184994Y-114481707D01*
X103002323Y-113605867D01*
X102974414Y-113325467D01*
X105705194Y-113325467D01*
X105991013Y-113060459D01*
X106313238Y-112795866D01*
X106593036Y-112652132D01*
X106876846Y-112605978D01*
X106897985Y-112605800D01*
X107044582Y-112629602D01*
X107155380Y-112713917D01*
X107235009Y-112878106D01*
X107288100Y-113141530D01*
X107319283Y-113523551D01*
X107333189Y-114043530D01*
X107335167Y-114433771D01*
X107340635Y-114940992D01*
X107356152Y-115346975D01*
X107380390Y-115630710D01*
X107412018Y-115771186D01*
X107420431Y-115781169D01*
X107518271Y-115766619D01*
X107544521Y-115722666D01*
X107717289Y-115246729D01*
X107864751Y-114894429D01*
X108007642Y-114626449D01*
X108166703Y-114403473D01*
X108345716Y-114203692D01*
X108587546Y-113970368D01*
X108773653Y-113843748D01*
X108950915Y-113795826D01*
X109034102Y-113792430D01*
X109260255Y-113810412D01*
X109415166Y-113852321D01*
X109421241Y-113855930D01*
X109530855Y-114012374D01*
X109618127Y-114309792D01*
X109677757Y-114720682D01*
X109704440Y-115217544D01*
X109705361Y-115329475D01*
X109705833Y-116063484D01*
X110023333Y-115977417D01*
X110274313Y-115889270D01*
X110590978Y-115751495D01*
X110820371Y-115637667D01*
X110892307Y-115593923D01*
X116892341Y-115593923D01*
X117214920Y-115927238D01*
X117470798Y-116176390D01*
X117824295Y-116499892D01*
X118240096Y-116867201D01*
X118682887Y-117247772D01*
X119117353Y-117611062D01*
X119508181Y-117926528D01*
X119683618Y-118062423D01*
X119892123Y-118217142D01*
X120174114Y-118421549D01*
X120500454Y-118655101D01*
X120842009Y-118897254D01*
X121169643Y-119127463D01*
X121454220Y-119325186D01*
X121666605Y-119469877D01*
X121777662Y-119540993D01*
X121785952Y-119544819D01*
X121736228Y-119490300D01*
X121589700Y-119339268D01*
X121369188Y-119115057D01*
X121106427Y-118849967D01*
X120452315Y-118081257D01*
X119953878Y-117246601D01*
X119610027Y-116344083D01*
X119546009Y-116098897D01*
X119400167Y-115485661D01*
X118595833Y-115485800D01*
X118178973Y-115491850D01*
X117766953Y-115507850D01*
X117429712Y-115530782D01*
X117341920Y-115539931D01*
X116892341Y-115593923D01*
X110892307Y-115593923D01*
X111148809Y-115437947D01*
X111506321Y-115181559D01*
X111749355Y-114981432D01*
X112198802Y-114578880D01*
X111727565Y-113867507D01*
X111008084Y-112721837D01*
X110330140Y-111526105D01*
X109716046Y-110323488D01*
X109188115Y-109157168D01*
X108849904Y-108298784D01*
X108707447Y-107915308D01*
X108581386Y-107589509D01*
X108484992Y-107354774D01*
X108431534Y-107244492D01*
X108430234Y-107242852D01*
X108366306Y-107284802D01*
X108229777Y-107445928D01*
X108037395Y-107701565D01*
X107805911Y-108027049D01*
X107552073Y-108397714D01*
X107292631Y-108788897D01*
X107044335Y-109175932D01*
X106823933Y-109534155D01*
X106648175Y-109838900D01*
X106581068Y-109965896D01*
X106268023Y-110660902D01*
X106015061Y-111372684D01*
X105837530Y-112051661D01*
X105750784Y-112648133D01*
X105705194Y-113325467D01*
X102974414Y-113325467D01*
X102961773Y-113198467D01*
X102958138Y-112270664D01*
X103079934Y-111315612D01*
X103330468Y-110325469D01*
X103713048Y-109292396D01*
X104230980Y-108208552D01*
X104887572Y-107066097D01*
X104994452Y-106904295D01*
X111494163Y-106904295D01*
X111515043Y-107047072D01*
X111522065Y-107075467D01*
X111595125Y-107300984D01*
X111726995Y-107644561D01*
X111902693Y-108071848D01*
X112107240Y-108548494D01*
X112325656Y-109040149D01*
X112542960Y-109512461D01*
X112744174Y-109931082D01*
X112899981Y-110235133D01*
X113106021Y-110601184D01*
X113360738Y-111026989D01*
X113645385Y-111483971D01*
X113941216Y-111943555D01*
X114229486Y-112377162D01*
X114491447Y-112756218D01*
X114708355Y-113052143D01*
X114861463Y-113236363D01*
X114882027Y-113256594D01*
X115014418Y-113351092D01*
X115193499Y-113420467D01*
X115441865Y-113467040D01*
X115782109Y-113493132D01*
X116236826Y-113501065D01*
X116828610Y-113493161D01*
X117114167Y-113485935D01*
X117614105Y-113473293D01*
X118118047Y-113462637D01*
X118569767Y-113455032D01*
X118913040Y-113451541D01*
X118934500Y-113451471D01*
X119569500Y-113449855D01*
X119963197Y-112625661D01*
X120200924Y-112168801D01*
X120466607Y-111747583D01*
X120777081Y-111345580D01*
X121149183Y-110946362D01*
X121599746Y-110533499D01*
X122145605Y-110090562D01*
X122803597Y-109601123D01*
X123590556Y-109048751D01*
X123718167Y-108961229D01*
X124151012Y-108663393D01*
X124557878Y-108380325D01*
X124908788Y-108133114D01*
X125173767Y-107942848D01*
X125304599Y-107845133D01*
X125621031Y-107597929D01*
X125484071Y-107329031D01*
X125372169Y-107121122D01*
X125207798Y-106829401D01*
X125025585Y-106515275D01*
X125016870Y-106500494D01*
X124686628Y-105940855D01*
X123652064Y-106183782D01*
X122584061Y-106427802D01*
X121641793Y-106626061D01*
X120789253Y-106782932D01*
X119990435Y-106902790D01*
X119209332Y-106990008D01*
X118409937Y-107048960D01*
X117556244Y-107084020D01*
X116612247Y-107099561D01*
X116098167Y-107101379D01*
X115412136Y-107095634D01*
X114695855Y-107079165D01*
X113981727Y-107053583D01*
X113302155Y-107020500D01*
X112689543Y-106981530D01*
X112176293Y-106938285D01*
X111794810Y-106892377D01*
X111748357Y-106884925D01*
X111558399Y-106861644D01*
X111494163Y-106904295D01*
X104994452Y-106904295D01*
X105686132Y-105857190D01*
X106563477Y-104660676D01*
X106904448Y-104213438D01*
X107155802Y-103876120D01*
X107331180Y-103624434D01*
X107444225Y-103434095D01*
X107508576Y-103280814D01*
X107537877Y-103140305D01*
X107545768Y-102988282D01*
X107545973Y-102911467D01*
X107535111Y-102679246D01*
X107505734Y-102320069D01*
X107461737Y-101874826D01*
X107407013Y-101384404D01*
X107376651Y-101133467D01*
X107328635Y-100719635D01*
X107290367Y-100316585D01*
X107260841Y-99898145D01*
X107239052Y-99438143D01*
X107223994Y-98910409D01*
X107214661Y-98288769D01*
X107212755Y-97982260D01*
X109850526Y-97982260D01*
X109902680Y-99261530D01*
X109951206Y-100105268D01*
X110029843Y-100912767D01*
X110145923Y-101741205D01*
X110306776Y-102647759D01*
X110392177Y-103078993D01*
X110502984Y-103613940D01*
X110590911Y-104006376D01*
X110663502Y-104280365D01*
X110728303Y-104459974D01*
X110792860Y-104569267D01*
X110864718Y-104632311D01*
X110882383Y-104642433D01*
X111049879Y-104696393D01*
X111355266Y-104760723D01*
X111767761Y-104830848D01*
X112256584Y-104902193D01*
X112790953Y-104970185D01*
X113340085Y-105030249D01*
X113740102Y-105067092D01*
X114318792Y-105099781D01*
X115021906Y-105114536D01*
X115805598Y-105112392D01*
X116626025Y-105094386D01*
X117439342Y-105061550D01*
X118201704Y-105014922D01*
X118869268Y-104955535D01*
X118976833Y-104943471D01*
X119572471Y-104867177D01*
X120207154Y-104773834D01*
X120855181Y-104668388D01*
X121490852Y-104555787D01*
X122088464Y-104440978D01*
X122622318Y-104328908D01*
X123066711Y-104224526D01*
X123395943Y-104132777D01*
X123584312Y-104058610D01*
X123589363Y-104055581D01*
X123619269Y-103992575D01*
X123605275Y-103852554D01*
X123542121Y-103616117D01*
X123424549Y-103263861D01*
X123247298Y-102776385D01*
X123230003Y-102729946D01*
X122879075Y-101760223D01*
X122548867Y-100792336D01*
X122256175Y-99877052D01*
X122019397Y-99070924D01*
X121870258Y-98532381D01*
X121397212Y-98585852D01*
X119845966Y-98723427D01*
X118249304Y-98794005D01*
X116640927Y-98798888D01*
X115054542Y-98739378D01*
X113523853Y-98616780D01*
X112082562Y-98432395D01*
X110764376Y-98187526D01*
X110695359Y-98172159D01*
X109850526Y-97982260D01*
X107212755Y-97982260D01*
X107210048Y-97547053D01*
X107209093Y-96773133D01*
X107214723Y-95820401D01*
X109850119Y-95820401D01*
X110137809Y-95913671D01*
X110535077Y-96024250D01*
X111065331Y-96145016D01*
X111693026Y-96269699D01*
X112382616Y-96392028D01*
X113098556Y-96505734D01*
X113805301Y-96604545D01*
X114467304Y-96682193D01*
X114531833Y-96688769D01*
X114893016Y-96712528D01*
X115389527Y-96727470D01*
X115989188Y-96734174D01*
X116659817Y-96733216D01*
X117369235Y-96725174D01*
X118085260Y-96710626D01*
X118775714Y-96690147D01*
X119408415Y-96664316D01*
X119951183Y-96633710D01*
X120371839Y-96598907D01*
X120517211Y-96581403D01*
X120863400Y-96528136D01*
X121143099Y-96476246D01*
X121315863Y-96433664D01*
X121349756Y-96418099D01*
X121357740Y-96319864D01*
X121344746Y-96083544D01*
X121313325Y-95738743D01*
X121266029Y-95315069D01*
X121229541Y-95023366D01*
X121156498Y-94417703D01*
X121082743Y-93730168D01*
X121016386Y-93040925D01*
X120965535Y-92430139D01*
X120961185Y-92370467D01*
X120928044Y-91919717D01*
X120898023Y-91533742D01*
X120873519Y-91241687D01*
X120856930Y-91072694D01*
X120851914Y-91042581D01*
X120767655Y-91049753D01*
X120547789Y-91080358D01*
X120223699Y-91129742D01*
X119826767Y-91193249D01*
X119737392Y-91207895D01*
X119359404Y-91266028D01*
X119000988Y-91310489D01*
X118630718Y-91342956D01*
X118217169Y-91365108D01*
X117728914Y-91378624D01*
X117134529Y-91385183D01*
X116402587Y-91386463D01*
X116394500Y-91386454D01*
X115664051Y-91383818D01*
X115065224Y-91376068D01*
X114560334Y-91360947D01*
X114111694Y-91336197D01*
X113681618Y-91299560D01*
X113232419Y-91248778D01*
X112726410Y-91181595D01*
X112542167Y-91155672D01*
X112021067Y-91081136D01*
X111541525Y-91011565D01*
X111135109Y-90951617D01*
X110833388Y-90905947D01*
X110668339Y-90879286D01*
X110403177Y-90831375D01*
X110310530Y-91368088D01*
X110134317Y-92497907D01*
X110000223Y-93590327D01*
X109914790Y-94590351D01*
X109903100Y-94793934D01*
X109850119Y-95820401D01*
X107214723Y-95820401D01*
X107216288Y-95555764D01*
X107238106Y-94482535D01*
X107276095Y-93528762D01*
X107331803Y-92669756D01*
X107406781Y-91880832D01*
X107502576Y-91137303D01*
X107601070Y-90525160D01*
X107643440Y-90244224D01*
X107661953Y-90036529D01*
X107654111Y-89951856D01*
X107565663Y-89921362D01*
X107332480Y-89852890D01*
X106973551Y-89751692D01*
X106507863Y-89623023D01*
X105954404Y-89472136D01*
X105332161Y-89304284D01*
X104781489Y-89157026D01*
X103283421Y-88753266D01*
X101927580Y-88377161D01*
X100690553Y-88021190D01*
X99548928Y-87677833D01*
X98479293Y-87339568D01*
X97458235Y-86998875D01*
X96462342Y-86648232D01*
X95468200Y-86280119D01*
X94452398Y-85887014D01*
X93830833Y-85639268D01*
X91377263Y-84602005D01*
X89078268Y-83526126D01*
X86922203Y-82405321D01*
X84897420Y-81233281D01*
X82992273Y-80003697D01*
X81596500Y-79011504D01*
X79967936Y-77742407D01*
X78504952Y-76471216D01*
X77203809Y-75193437D01*
X76060773Y-73904574D01*
X75072105Y-72600131D01*
X74234068Y-71275614D01*
X73542926Y-69926526D01*
X73353024Y-69458374D01*
X83061031Y-69458374D01*
X83061846Y-69461591D01*
X83152884Y-69544158D01*
X83348961Y-69649300D01*
X83466193Y-69699060D01*
X83757367Y-69813823D01*
X84111775Y-69954711D01*
X84348167Y-70049298D01*
X84619645Y-70156005D01*
X84827082Y-70233298D01*
X84919667Y-70262871D01*
X84951188Y-70190470D01*
X84973914Y-69991087D01*
X84983144Y-69707021D01*
X84983167Y-69691356D01*
X84965183Y-69226055D01*
X84915893Y-68791023D01*
X84842291Y-68425325D01*
X84751369Y-68168023D01*
X84695817Y-68086165D01*
X84589837Y-68019006D01*
X84451340Y-68043617D01*
X84326828Y-68102610D01*
X84158691Y-68220313D01*
X83937130Y-68416191D01*
X83691661Y-68658534D01*
X83451801Y-68915634D01*
X83247065Y-69155780D01*
X83106970Y-69347263D01*
X83061031Y-69458374D01*
X73353024Y-69458374D01*
X73065055Y-68748467D01*
X72746583Y-67859467D01*
X71985708Y-67293621D01*
X71477599Y-66898321D01*
X71088329Y-66549389D01*
X70787378Y-66213409D01*
X70544225Y-65856963D01*
X70361071Y-65514730D01*
X70160277Y-65064647D01*
X69996739Y-64601998D01*
X69856300Y-64079074D01*
X69724803Y-63448168D01*
X69687563Y-63245133D01*
X69626574Y-62785414D01*
X69580276Y-62192307D01*
X69548682Y-61501121D01*
X69531809Y-60747165D01*
X69529671Y-59965748D01*
X69529750Y-59960846D01*
X72023007Y-59960846D01*
X72031379Y-60831041D01*
X72065135Y-61655966D01*
X72124297Y-62398584D01*
X72208889Y-63021857D01*
X72238986Y-63178870D01*
X72419305Y-63786095D01*
X72680687Y-64300949D01*
X72975426Y-64659880D01*
X73172980Y-64812288D01*
X73499297Y-65026466D01*
X73931274Y-65289287D01*
X74445804Y-65587623D01*
X75019784Y-65908345D01*
X75630109Y-66238326D01*
X76253673Y-66564438D01*
X76867374Y-66873553D01*
X76897500Y-66888384D01*
X77392184Y-67128207D01*
X77922729Y-67379532D01*
X78465691Y-67631862D01*
X78997624Y-67874699D01*
X79495082Y-68097544D01*
X79934619Y-68289900D01*
X80292790Y-68441269D01*
X80546148Y-68541152D01*
X80671249Y-68579053D01*
X80673574Y-68579133D01*
X80748245Y-68515783D01*
X80894902Y-68346973D01*
X81086452Y-68104566D01*
X81159533Y-68007633D01*
X81581090Y-67489126D01*
X82038245Y-67008927D01*
X82505314Y-66588477D01*
X82956616Y-66249215D01*
X83366467Y-66012581D01*
X83677981Y-65905206D01*
X83922375Y-65881147D01*
X84253089Y-65875505D01*
X84517512Y-65885117D01*
X85025198Y-65970307D01*
X85433455Y-66166483D01*
X85769472Y-66492756D01*
X86060441Y-66968240D01*
X86061550Y-66970467D01*
X86314414Y-67593035D01*
X86482885Y-68288075D01*
X86572679Y-69085628D01*
X86591833Y-69758498D01*
X86591833Y-70757460D01*
X87544333Y-71102671D01*
X88022042Y-71272616D01*
X88515489Y-71442629D01*
X88995737Y-71603339D01*
X89433848Y-71745373D01*
X89800885Y-71859360D01*
X90067911Y-71935928D01*
X90205987Y-71965706D01*
X90209416Y-71965800D01*
X90289524Y-71899056D01*
X90435206Y-71719411D01*
X90622582Y-71457740D01*
X90749581Y-71267300D01*
X91309882Y-70486133D01*
X91868338Y-69872003D01*
X92427885Y-69422677D01*
X92991463Y-69135927D01*
X93562009Y-69009521D01*
X93733371Y-69002533D01*
X94219703Y-69049378D01*
X94621805Y-69205535D01*
X94989577Y-69494216D01*
X95144291Y-69658839D01*
X95527058Y-70204046D01*
X95844855Y-70888028D01*
X96090459Y-71690380D01*
X96256650Y-72590695D01*
X96292648Y-72903920D01*
X96334436Y-73206419D01*
X96388995Y-73441190D01*
X96444588Y-73557868D01*
X96445135Y-73558287D01*
X96557574Y-73600670D01*
X96801822Y-73669676D01*
X97143919Y-73757351D01*
X97549909Y-73855740D01*
X97985834Y-73956887D01*
X98417737Y-74052836D01*
X98811661Y-74135634D01*
X99133647Y-74197324D01*
X99265803Y-74219082D01*
X99402337Y-74241245D01*
X99505769Y-74247133D01*
X99593983Y-74216820D01*
X99684859Y-74130381D01*
X99796278Y-73967892D01*
X99946122Y-73709427D01*
X100152272Y-73335061D01*
X100298322Y-73068554D01*
X100752285Y-72346483D01*
X101239453Y-71767534D01*
X101752065Y-71337990D01*
X102282358Y-71064137D01*
X102822572Y-70952259D01*
X102915161Y-70949800D01*
X103464738Y-71030889D01*
X103966340Y-71272549D01*
X104417932Y-71672368D01*
X104817479Y-72227935D01*
X105162947Y-72936838D01*
X105452301Y-73796664D01*
X105514523Y-74030543D01*
X105604343Y-74398958D01*
X105675293Y-74717261D01*
X105718121Y-74942373D01*
X105726500Y-75017432D01*
X105741717Y-75074838D01*
X105799540Y-75121706D01*
X105918230Y-75160375D01*
X106116047Y-75193182D01*
X106411249Y-75222467D01*
X106822098Y-75250567D01*
X107366853Y-75279821D01*
X108013462Y-75310285D01*
X109072758Y-75358415D01*
X109308992Y-74487607D01*
X109597953Y-73587603D01*
X109935300Y-72832221D01*
X110317131Y-72224793D01*
X110739547Y-71768651D01*
X111198648Y-71467126D01*
X111690532Y-71323552D01*
X112211301Y-71341259D01*
X112757054Y-71523580D01*
X112770732Y-71530154D01*
X113182027Y-71779999D01*
X113572051Y-72127656D01*
X113954010Y-72589457D01*
X114341112Y-73181734D01*
X114746562Y-73920821D01*
X114818415Y-74062543D01*
X114997476Y-74413790D01*
X115124286Y-74638072D01*
X115220494Y-74760781D01*
X115307749Y-74807306D01*
X115407702Y-74803040D01*
X115443474Y-74795635D01*
X116913285Y-74426760D01*
X118237191Y-74002517D01*
X119431453Y-73516285D01*
X120512330Y-72961445D01*
X121496084Y-72331374D01*
X121496808Y-72330859D01*
X121742705Y-72142685D01*
X122052546Y-71886087D01*
X122404204Y-71581580D01*
X122775554Y-71249676D01*
X123144468Y-70910886D01*
X123488822Y-70585724D01*
X123786487Y-70294701D01*
X124015340Y-70058331D01*
X124153252Y-69897125D01*
X124183833Y-69839815D01*
X124109316Y-69780939D01*
X123915819Y-69699651D01*
X123697000Y-69629097D01*
X123189112Y-69463229D01*
X122833864Y-69295321D01*
X122615020Y-69110876D01*
X122516346Y-68895398D01*
X122521608Y-68634389D01*
X122530916Y-68587863D01*
X122680243Y-68283197D01*
X122967549Y-68022962D01*
X123365643Y-67814265D01*
X123847336Y-67664211D01*
X124385436Y-67579909D01*
X124952754Y-67568463D01*
X125522100Y-67636980D01*
X125853514Y-67719473D01*
X126625412Y-68036652D01*
X127294735Y-68479779D01*
X127850693Y-69033061D01*
X128282495Y-69680709D01*
X128579353Y-70406931D01*
X128730475Y-71195937D01*
X128733928Y-71934845D01*
X128649833Y-72424822D01*
X128488723Y-72768421D01*
X128251966Y-72962848D01*
X128224888Y-72973718D01*
X128054012Y-73013392D01*
X127898548Y-72982535D01*
X127735819Y-72862908D01*
X127543147Y-72636268D01*
X127297856Y-72284375D01*
X127219125Y-72164699D01*
X127006318Y-71849030D01*
X126823408Y-71596867D01*
X126691301Y-71435807D01*
X126633401Y-71391439D01*
X126557294Y-71461965D01*
X126395666Y-71637702D01*
X126171003Y-71893446D01*
X125905789Y-72203992D01*
X125859575Y-72258889D01*
X124860428Y-73321496D01*
X123732072Y-74283151D01*
X122469766Y-75147483D01*
X121093500Y-75905915D01*
X119635573Y-76555292D01*
X118106303Y-77094890D01*
X116495006Y-77526649D01*
X114790995Y-77852507D01*
X112983586Y-78074403D01*
X111062092Y-78194276D01*
X109015830Y-78214065D01*
X108435833Y-78202376D01*
X106840179Y-78142355D01*
X105341182Y-78045430D01*
X103888623Y-77905921D01*
X102432285Y-77718150D01*
X100921952Y-77476439D01*
X99307404Y-77175109D01*
X99249500Y-77163634D01*
X95274948Y-76300829D01*
X91640012Y-75371653D01*
X111483833Y-75371653D01*
X111561574Y-75403066D01*
X111769500Y-75415924D01*
X112069664Y-75411819D01*
X112424120Y-75392342D01*
X112794923Y-75359083D01*
X113144125Y-75313635D01*
X113237609Y-75298108D01*
X113509718Y-75250102D01*
X113289719Y-74814451D01*
X113056409Y-74388557D01*
X112819618Y-74019506D01*
X112602058Y-73739517D01*
X112426438Y-73580810D01*
X112416018Y-73574922D01*
X112308744Y-73543627D01*
X112211347Y-73600429D01*
X112088658Y-73772376D01*
X112028391Y-73873018D01*
X111900948Y-74124982D01*
X111764093Y-74448764D01*
X111636825Y-74792076D01*
X111538142Y-75102634D01*
X111487044Y-75328154D01*
X111483833Y-75371653D01*
X91640012Y-75371653D01*
X91405014Y-75311582D01*
X89539271Y-74758759D01*
X102154847Y-74758759D01*
X102186099Y-74799615D01*
X102314095Y-74827771D01*
X102577566Y-74874293D01*
X102944299Y-74933977D01*
X103382086Y-75001618D01*
X103858714Y-75072011D01*
X103974854Y-75088672D01*
X104003705Y-75019880D01*
X104000873Y-74833621D01*
X103984973Y-74696300D01*
X103902969Y-74306679D01*
X103776210Y-73897621D01*
X103626238Y-73528459D01*
X103474598Y-73258526D01*
X103452387Y-73229455D01*
X103304510Y-73046834D01*
X102928005Y-73465672D01*
X102677879Y-73768859D01*
X102458834Y-74079727D01*
X102287536Y-74368311D01*
X102180651Y-74604644D01*
X102154847Y-74758759D01*
X89539271Y-74758759D01*
X87642458Y-74196730D01*
X83990041Y-72957111D01*
X83288085Y-72686692D01*
X92715436Y-72686692D01*
X92719466Y-72702988D01*
X92811301Y-72740073D01*
X93025053Y-72809263D01*
X93319161Y-72898529D01*
X93652060Y-72995841D01*
X93982188Y-73089168D01*
X94267983Y-73166479D01*
X94467881Y-73215746D01*
X94529333Y-73226843D01*
X94608157Y-73159977D01*
X94635167Y-72997350D01*
X94605501Y-72629430D01*
X94527704Y-72199873D01*
X94418577Y-71783536D01*
X94294917Y-71455277D01*
X94284286Y-71433858D01*
X94118153Y-71108211D01*
X93847493Y-71274641D01*
X93707612Y-71392205D01*
X93517105Y-71592707D01*
X93301980Y-71843215D01*
X93088243Y-72110799D01*
X92901902Y-72362527D01*
X92768964Y-72565468D01*
X92715436Y-72686692D01*
X83288085Y-72686692D01*
X80450522Y-71593560D01*
X79298414Y-71112569D01*
X78747656Y-70876172D01*
X78209537Y-70641744D01*
X77717561Y-70424140D01*
X77305230Y-70238214D01*
X77006048Y-70098819D01*
X76946635Y-70069912D01*
X76342610Y-69771395D01*
X76849280Y-70508764D01*
X77985081Y-72026071D01*
X79237386Y-73437041D01*
X80626887Y-74764906D01*
X80688786Y-74819406D01*
X82249274Y-76101406D01*
X83966290Y-77348471D01*
X85829729Y-78555773D01*
X87829483Y-79718485D01*
X89955447Y-80831778D01*
X92197513Y-81890823D01*
X94545575Y-82890793D01*
X96989527Y-83826859D01*
X99519261Y-84694192D01*
X102124672Y-85487965D01*
X104202500Y-86052826D01*
X105282263Y-86323835D01*
X106341876Y-86573967D01*
X107397510Y-86805724D01*
X108465336Y-87021607D01*
X109561524Y-87224120D01*
X110702245Y-87415764D01*
X111903671Y-87599041D01*
X113181971Y-87776454D01*
X114553318Y-87950505D01*
X116033882Y-88123696D01*
X117639833Y-88298529D01*
X119387344Y-88477506D01*
X120712500Y-88607466D01*
X121320171Y-88666519D01*
X121869722Y-88720660D01*
X122339509Y-88767698D01*
X122707887Y-88805441D01*
X122953211Y-88831696D01*
X123053836Y-88844273D01*
X123055118Y-88844703D01*
X123083788Y-88925783D01*
X123123154Y-89071308D01*
X123119756Y-89290536D01*
X122993743Y-89553934D01*
X122960702Y-89604061D01*
X122862096Y-89782591D01*
X122793578Y-89997235D01*
X122754463Y-90270001D01*
X122744064Y-90622899D01*
X122761696Y-91077938D01*
X122806672Y-91657128D01*
X122875078Y-92351708D01*
X123017750Y-93567387D01*
X123186512Y-94712106D01*
X123391678Y-95842853D01*
X123643563Y-97016618D01*
X123943455Y-98254800D01*
X124237467Y-99314663D01*
X124586402Y-100402238D01*
X124977738Y-101486860D01*
X125398953Y-102537867D01*
X125837524Y-103524592D01*
X126280929Y-104416373D01*
X126716644Y-105182544D01*
X126871876Y-105425744D01*
X127089101Y-105753995D01*
X127338316Y-105518064D01*
X127493366Y-105341140D01*
X127728548Y-105027639D01*
X128045160Y-104575675D01*
X128444503Y-103983359D01*
X128927875Y-103248802D01*
X129378816Y-102553025D01*
X129668936Y-102155406D01*
X129926873Y-101919833D01*
X130161098Y-101843973D01*
X130380083Y-101925492D01*
X130592301Y-102162057D01*
X130623665Y-102210123D01*
X130695874Y-102339135D01*
X130743251Y-102477492D01*
X130769291Y-102659942D01*
X130777485Y-102921231D01*
X130771326Y-103296108D01*
X130762234Y-103588800D01*
X130739212Y-104100326D01*
X130705083Y-104488723D01*
X130653069Y-104800140D01*
X130576392Y-105080723D01*
X130519052Y-105244551D01*
X130061488Y-106234695D01*
X129446961Y-107170085D01*
X128681202Y-108042923D01*
X128021873Y-108642866D01*
X127813826Y-108812682D01*
X127591801Y-108987016D01*
X127339360Y-109177623D01*
X127040066Y-109396258D01*
X126677480Y-109654676D01*
X126235165Y-109964631D01*
X125696682Y-110337878D01*
X125045594Y-110786172D01*
X124527136Y-111141941D01*
X124013479Y-111521244D01*
X123522430Y-111933657D01*
X123091791Y-112344688D01*
X122759365Y-112719843D01*
X122678435Y-112828783D01*
X122492997Y-113094100D01*
X123025437Y-113051361D01*
X123332037Y-113034806D01*
X123530572Y-113054599D01*
X123680634Y-113123306D01*
X123796565Y-113213932D01*
X123949332Y-113397781D01*
X123988595Y-113607577D01*
X123909770Y-113867412D01*
X123708273Y-114201379D01*
X123573588Y-114385924D01*
X123313994Y-114744834D01*
X123073165Y-115106937D01*
X122870971Y-115439252D01*
X122727280Y-115708795D01*
X122661962Y-115882585D01*
X122660051Y-115902343D01*
X122714147Y-116047709D01*
X122835596Y-116210977D01*
X123011358Y-116398067D01*
X123343418Y-116037824D01*
X123606283Y-115797997D01*
X123939130Y-115554033D01*
X124182341Y-115407426D01*
X124497179Y-115253986D01*
X124750401Y-115177060D01*
X125020077Y-115157446D01*
X125177352Y-115162702D01*
X125665500Y-115188133D01*
X125659560Y-115529457D01*
X125612147Y-115810321D01*
X125485222Y-116197720D01*
X125302681Y-116629348D01*
X125141941Y-116973769D01*
X125050522Y-117206692D01*
X125045855Y-117357025D01*
X125145374Y-117453672D01*
X125366510Y-117525539D01*
X125726695Y-117601533D01*
X125911662Y-117639159D01*
X126784179Y-117758272D01*
X127759411Y-117784117D01*
X128801620Y-117720914D01*
X129875067Y-117572888D01*
X130944014Y-117344258D01*
X131972723Y-117039247D01*
X132438833Y-116868085D01*
X133350832Y-116470905D01*
X134214896Y-116009828D01*
X135052174Y-115469092D01*
X135883815Y-114832939D01*
X136730968Y-114085607D01*
X137614782Y-113211335D01*
X138238500Y-112546140D01*
X138598593Y-112172800D01*
X138886926Y-111927876D01*
X139126430Y-111799399D01*
X139340035Y-111775400D01*
X139550669Y-111843911D01*
X139567233Y-111852577D01*
X139679013Y-111923114D01*
X139739786Y-112013335D01*
X139760542Y-112167449D01*
X139752269Y-112429665D01*
X139744000Y-112563729D01*
X139670534Y-113027921D01*
X139513209Y-113584874D01*
X139288975Y-114191294D01*
X139014780Y-114803885D01*
X138707574Y-115379351D01*
X138529482Y-115666163D01*
X137879677Y-116508447D01*
X137072566Y-117308845D01*
X136116546Y-118060341D01*
X135020016Y-118755917D01*
X134478450Y-119051166D01*
X133548666Y-119534659D01*
X133571037Y-121129063D01*
X133546521Y-122514703D01*
X133430240Y-123772428D01*
X133219339Y-124918434D01*
X132910963Y-125968919D01*
X132572758Y-126793100D01*
X132355997Y-127233402D01*
X132138507Y-127618460D01*
X131894769Y-127984286D01*
X131599266Y-128366892D01*
X131226478Y-128802289D01*
X130867248Y-129199956D01*
X130563449Y-129537955D01*
X130295055Y-129848787D01*
X130086525Y-130103232D01*
X129962318Y-130272072D01*
X129945421Y-130301133D01*
X129911524Y-130392021D01*
X129969363Y-130351614D01*
X130099369Y-130205640D01*
X130449954Y-129874404D01*
X130900770Y-129566997D01*
X131402239Y-129308129D01*
X131904781Y-129122510D01*
X132358816Y-129034850D01*
X132455936Y-129031133D01*
X132685237Y-129082291D01*
X132916296Y-129209355D01*
X133092758Y-129372708D01*
X133158500Y-129525019D01*
X133111816Y-129619990D01*
X132984282Y-129823221D01*
X132794675Y-130106047D01*
X132561771Y-130439805D01*
X132530115Y-130484287D01*
X132220485Y-130937225D01*
X131965756Y-131347234D01*
X131777231Y-131693055D01*
X131666217Y-131953428D01*
X131644017Y-132107094D01*
X131655744Y-132128600D01*
X131760498Y-132169562D01*
X131960226Y-132213405D01*
X131987856Y-132218048D01*
X132145092Y-132234387D01*
X132260305Y-132202233D01*
X132371452Y-132092766D01*
X132516492Y-131877167D01*
X132587608Y-131762683D01*
X133077226Y-131119876D01*
X133669886Y-130603960D01*
X134199792Y-130295654D01*
X134661330Y-130120917D01*
X135069476Y-130050007D01*
X135403823Y-130079605D01*
X135643966Y-130206395D01*
X135769498Y-130427057D01*
X135783167Y-130553125D01*
X135736252Y-130726309D01*
X135606537Y-131003573D01*
X135410564Y-131351865D01*
X135270637Y-131577169D01*
X134758107Y-132375467D01*
X135037803Y-132417800D01*
X135351163Y-132435766D01*
X135781264Y-132420616D01*
X136279835Y-132377249D01*
X136798607Y-132310568D01*
X137289311Y-132225472D01*
X137583247Y-132159356D01*
X138637800Y-131805021D01*
X139638334Y-131292180D01*
X140578755Y-130624740D01*
X141452965Y-129806604D01*
X141723373Y-129507113D01*
X142618899Y-128359921D01*
X143398296Y-127114666D01*
X144033201Y-125828758D01*
X147637147Y-125828758D01*
X147661465Y-125873536D01*
X147748375Y-125907826D01*
X147917096Y-125933147D01*
X148186846Y-125951019D01*
X148576845Y-125962959D01*
X149106313Y-125970487D01*
X149466211Y-125973312D01*
X150999589Y-125983133D01*
X151022600Y-125910220D01*
X153250787Y-125910220D01*
X153297598Y-125944328D01*
X153408143Y-125967173D01*
X153598297Y-125978922D01*
X153883934Y-125979743D01*
X154280927Y-125969803D01*
X154805151Y-125949270D01*
X155472479Y-125918310D01*
X155976167Y-125893395D01*
X156662258Y-125858625D01*
X157199268Y-125827934D01*
X157607198Y-125796165D01*
X157906049Y-125758167D01*
X158115822Y-125708784D01*
X158256517Y-125642862D01*
X158348134Y-125555247D01*
X158410675Y-125440786D01*
X158464141Y-125294324D01*
X158479747Y-125248234D01*
X158588906Y-124895119D01*
X158694721Y-124502931D01*
X158732692Y-124343493D01*
X158787879Y-124070487D01*
X158792178Y-123894904D01*
X158734709Y-123749625D01*
X158607516Y-123571370D01*
X158363172Y-123223650D01*
X158079635Y-122777471D01*
X157783842Y-122279641D01*
X157502729Y-121776968D01*
X157263234Y-121316258D01*
X157092294Y-120944320D01*
X157084185Y-120924300D01*
X156838244Y-120310467D01*
X154181201Y-120310467D01*
X154130599Y-121220633D01*
X154094024Y-121707034D01*
X154039189Y-122234882D01*
X153975565Y-122717737D01*
X153947378Y-122892800D01*
X153885819Y-123215390D01*
X153799541Y-123626270D01*
X153697192Y-124088495D01*
X153587418Y-124565119D01*
X153478866Y-125019194D01*
X153380183Y-125413775D01*
X153300016Y-125711915D01*
X153251837Y-125864683D01*
X153250787Y-125910220D01*
X151022600Y-125910220D01*
X151183694Y-125399793D01*
X151337229Y-124841516D01*
X151488164Y-124163243D01*
X151629341Y-123410689D01*
X151753604Y-122629567D01*
X151853794Y-121865594D01*
X151922756Y-121164483D01*
X151953333Y-120571948D01*
X151954211Y-120478188D01*
X151954500Y-120180242D01*
X150261167Y-119966773D01*
X148567833Y-119753305D01*
X148567833Y-120403915D01*
X148529461Y-121334853D01*
X148420609Y-122355456D01*
X148250674Y-123406076D01*
X148029053Y-124427068D01*
X147808902Y-125221133D01*
X147722604Y-125506261D01*
X147660896Y-125724578D01*
X147637147Y-125828758D01*
X144033201Y-125828758D01*
X144066658Y-125760996D01*
X144629077Y-124288562D01*
X145090647Y-122687011D01*
X145102142Y-122640322D01*
X145241441Y-122014993D01*
X145351860Y-121382241D01*
X145433860Y-120723294D01*
X145487902Y-120019381D01*
X145514449Y-119251729D01*
X145513963Y-118401568D01*
X145486906Y-117450124D01*
X145433740Y-116378628D01*
X145354926Y-115168306D01*
X145303245Y-114468467D01*
X145254779Y-113833467D01*
X145942784Y-114542413D01*
X146488530Y-115127538D01*
X146917086Y-115641026D01*
X147249127Y-116109562D01*
X147504340Y-116557858D01*
X147673220Y-116845830D01*
X147842982Y-117012191D01*
X147997721Y-117083874D01*
X148231463Y-117135900D01*
X148610103Y-117192592D01*
X149109336Y-117251956D01*
X149704859Y-117312001D01*
X150372366Y-117370733D01*
X151087554Y-117426160D01*
X151826117Y-117476288D01*
X152563753Y-117519126D01*
X153276155Y-117552681D01*
X153939020Y-117574959D01*
X154007667Y-117576631D01*
X156103167Y-117625529D01*
X156103405Y-116491498D01*
X156159088Y-115072758D01*
X156329381Y-113766247D01*
X156620086Y-112554445D01*
X157037002Y-111419833D01*
X157585930Y-110344894D01*
X158272672Y-109312107D01*
X158633701Y-108849717D01*
X159375681Y-108033256D01*
X160186906Y-107306326D01*
X161047189Y-106680326D01*
X161936343Y-106166658D01*
X162834178Y-105776722D01*
X163720509Y-105521919D01*
X164575146Y-105413649D01*
X164723566Y-105410603D01*
X165120464Y-105438513D01*
X165389616Y-105533841D01*
X165563552Y-105709368D01*
X165586872Y-105749740D01*
X165632295Y-105891015D01*
X165601059Y-106033788D01*
X165477288Y-106196310D01*
X165245106Y-106396826D01*
X164888639Y-106653587D01*
X164674850Y-106798082D01*
X163401846Y-107748135D01*
X162213519Y-108841239D01*
X161691426Y-109397153D01*
X160850423Y-110429436D01*
X160173383Y-111473718D01*
X159654952Y-112544245D01*
X159289774Y-113655263D01*
X159072494Y-114821019D01*
X158997758Y-116055760D01*
X159005505Y-116542800D01*
X159079855Y-117547413D01*
X159234662Y-118435872D01*
X159481574Y-119246746D01*
X159832243Y-120018605D01*
X160280203Y-120763014D01*
X160791691Y-121453503D01*
X161398103Y-122131290D01*
X162112402Y-122807575D01*
X162947549Y-123493556D01*
X163916505Y-124200433D01*
X165032232Y-124939405D01*
X165333075Y-125128890D01*
X165941809Y-125520585D01*
X166414055Y-125855946D01*
X166765561Y-126152791D01*
X167012072Y-126428940D01*
X167169334Y-126702210D01*
X167253094Y-126990420D01*
X167279099Y-127311390D01*
X167279167Y-127331097D01*
X167268482Y-127564952D01*
X167223482Y-127759426D01*
X167124746Y-127935106D01*
X166952854Y-128112583D01*
X166688387Y-128312445D01*
X166311923Y-128555281D01*
X165875777Y-128818963D01*
X165185789Y-129246990D01*
X164633182Y-129629953D01*
X164197902Y-129985138D01*
X163859895Y-130329834D01*
X163599106Y-130681329D01*
X163482028Y-130882486D01*
X163339346Y-131164702D01*
X163273103Y-131351269D01*
X163272048Y-131491396D01*
X163315007Y-131612958D01*
X163443084Y-131784223D01*
X163639993Y-131950843D01*
X163838492Y-132061158D01*
X163921803Y-132079133D01*
X163983772Y-132013854D01*
X164106127Y-131844496D01*
X164230501Y-131656837D01*
X164538946Y-131253722D01*
X164936475Y-130844056D01*
X165369231Y-130477514D01*
X165783357Y-130203770D01*
X165835836Y-130176159D01*
X166151377Y-130043613D01*
X166528038Y-129922767D01*
X166744617Y-129869663D01*
X167207420Y-129817886D01*
X167552122Y-129880944D01*
X167787284Y-130061294D01*
X167863931Y-130190601D01*
X167907078Y-130321378D01*
X167889255Y-130445996D01*
X167793137Y-130609674D01*
X167614717Y-130841045D01*
X167264073Y-131284449D01*
X166965246Y-131674712D01*
X166732027Y-131992968D01*
X166578208Y-132220350D01*
X166517581Y-132337991D01*
X166517167Y-132342447D01*
X166597723Y-132374294D01*
X166823488Y-132396674D01*
X167170604Y-132409648D01*
X167615216Y-132413278D01*
X168133466Y-132407624D01*
X168701497Y-132392746D01*
X169295453Y-132368706D01*
X169891477Y-132335564D01*
X169919205Y-132333779D01*
X171192129Y-132225753D01*
X172368909Y-132069158D01*
X173518279Y-131854013D01*
X174052500Y-131733633D01*
X175064122Y-131475306D01*
X175927908Y-131210239D01*
X176665322Y-130928292D01*
X177297825Y-130619326D01*
X177846882Y-130273200D01*
X178333956Y-129879775D01*
X178664890Y-129554575D01*
X179102324Y-128968875D01*
X179412099Y-128278343D01*
X179592926Y-127490865D01*
X179643513Y-126614327D01*
X179562569Y-125656615D01*
X179422950Y-124924800D01*
X179245953Y-124158977D01*
X179104055Y-123535057D01*
X178993339Y-123030163D01*
X178909887Y-122621420D01*
X178849781Y-122285955D01*
X178809104Y-122000891D01*
X178783937Y-121743353D01*
X178770364Y-121490467D01*
X178764467Y-121219356D01*
X178763189Y-121072467D01*
X178786482Y-120348204D01*
X178872528Y-119743117D01*
X179030247Y-119215835D01*
X179268561Y-118724985D01*
X179269764Y-118722907D01*
X179523301Y-118347252D01*
X179768171Y-118121801D01*
X180024286Y-118029856D01*
X180100965Y-118025763D01*
X180227715Y-118025216D01*
X180329210Y-118033984D01*
X180412085Y-118069804D01*
X180482974Y-118150411D01*
X180548511Y-118293543D01*
X180615331Y-118516935D01*
X180690070Y-118838326D01*
X180779360Y-119275450D01*
X180889839Y-119846045D01*
X181003100Y-120437467D01*
X181074876Y-120772525D01*
X181152806Y-120964820D01*
X181269443Y-121038852D01*
X181457338Y-121019120D01*
X181685226Y-120950868D01*
X182127819Y-120791599D01*
X182690789Y-120564139D01*
X183346055Y-120281752D01*
X184065542Y-119957702D01*
X184821169Y-119605254D01*
X185584858Y-119237672D01*
X186328533Y-118868222D01*
X187024113Y-118510168D01*
X187643522Y-118176775D01*
X188064833Y-117937026D01*
X190106845Y-116642047D01*
X192023996Y-115233363D01*
X193814273Y-113713811D01*
X195475663Y-112086229D01*
X197006155Y-110353454D01*
X198403734Y-108518323D01*
X199666389Y-106583674D01*
X200792106Y-104552345D01*
X201778873Y-102427171D01*
X202624677Y-100210991D01*
X203327505Y-97906643D01*
X203852007Y-95682305D01*
X204012365Y-94863097D01*
X204139010Y-94129403D01*
X204235619Y-93442058D01*
X204305867Y-92761896D01*
X204353430Y-92049752D01*
X204381982Y-91266460D01*
X204395200Y-90372855D01*
X204397207Y-89872800D01*
X204385437Y-88732079D01*
X204348789Y-87518601D01*
X204289697Y-86266192D01*
X204210593Y-85008678D01*
X204113908Y-83779886D01*
X204002075Y-82613642D01*
X203877526Y-81543772D01*
X203742694Y-80604102D01*
X203721453Y-80474800D01*
X203429653Y-79099566D01*
X203006958Y-77687971D01*
X202448127Y-76224885D01*
X201747918Y-74695179D01*
X201652522Y-74503182D01*
X200659172Y-72690162D01*
X199536557Y-70951930D01*
X198297079Y-69302802D01*
X196953145Y-67757096D01*
X195517159Y-66329126D01*
X194001526Y-65033212D01*
X192495579Y-63935020D01*
X192144339Y-63711800D01*
X191763689Y-63490083D01*
X191382008Y-63283920D01*
X191027672Y-63107361D01*
X190729059Y-62974456D01*
X190514546Y-62899255D01*
X190412510Y-62895808D01*
X190408824Y-62901829D01*
X190422921Y-63015408D01*
X190509745Y-63234208D01*
X190672877Y-63564983D01*
X190915898Y-64014485D01*
X191242388Y-64589467D01*
X191655927Y-65296680D01*
X191870341Y-65658133D01*
X192798471Y-67268013D01*
X193606542Y-68781835D01*
X194301013Y-70216087D01*
X194888346Y-71587254D01*
X195375003Y-72911825D01*
X195767444Y-74206284D01*
X196072130Y-75487120D01*
X196295523Y-76770819D01*
X196333169Y-77045800D01*
X196387747Y-77616202D01*
X196422175Y-78304581D01*
X196436858Y-79065007D01*
X196432198Y-79851549D01*
X196408600Y-80618278D01*
X196366467Y-81319262D01*
X196306201Y-81908571D01*
X196289429Y-82026031D01*
X196025686Y-83442631D01*
X195677209Y-84757825D01*
X195226887Y-86025454D01*
X194657611Y-87299356D01*
X194535641Y-87544467D01*
X193961498Y-88611518D01*
X193368297Y-89566455D01*
X192719346Y-90465575D01*
X192262787Y-91031784D01*
X191184313Y-92192091D01*
X189976604Y-93259160D01*
X188658474Y-94221944D01*
X187248736Y-95069397D01*
X185766203Y-95790473D01*
X184229688Y-96374127D01*
X182658004Y-96809311D01*
X182288148Y-96888325D01*
X181906722Y-96968484D01*
X181589141Y-97041400D01*
X181370658Y-97098567D01*
X181287762Y-97129649D01*
X181299779Y-97223328D01*
X181380838Y-97417340D01*
X181493015Y-97632409D01*
X181739191Y-98168520D01*
X181866075Y-98676703D01*
X181866224Y-99110968D01*
X181816009Y-99306434D01*
X181714054Y-99384670D01*
X181539934Y-99397800D01*
X181226262Y-99364995D01*
X180918079Y-99253655D01*
X180571603Y-99044389D01*
X180317833Y-98856556D01*
X179641102Y-98375365D01*
X178841571Y-97880110D01*
X177961795Y-97393214D01*
X177044330Y-96937101D01*
X176131732Y-96534195D01*
X175332351Y-96229557D01*
X174764820Y-96039436D01*
X174236795Y-95879800D01*
X173706831Y-95740588D01*
X173133482Y-95611738D01*
X172475301Y-95483188D01*
X171690843Y-95344877D01*
X171681833Y-95343344D01*
X171058251Y-95238972D01*
X170466084Y-95143974D01*
X169892172Y-95057224D01*
X169323353Y-94977592D01*
X168746468Y-94903950D01*
X168148356Y-94835171D01*
X167515857Y-94770126D01*
X166835809Y-94707688D01*
X166095053Y-94646727D01*
X165280428Y-94586115D01*
X164378773Y-94524726D01*
X163376927Y-94461430D01*
X162261732Y-94395099D01*
X161541693Y-94354221D01*
X180571833Y-94354221D01*
X180575756Y-94380206D01*
X180606083Y-94393720D01*
X180690651Y-94392543D01*
X180857297Y-94374453D01*
X181133858Y-94337232D01*
X181548171Y-94278658D01*
X181585290Y-94273382D01*
X182159744Y-94177687D01*
X182767132Y-94052493D01*
X183359068Y-93909619D01*
X183887168Y-93760879D01*
X184303046Y-93618091D01*
X184354915Y-93597015D01*
X184678167Y-93461818D01*
X184466500Y-93298961D01*
X184203254Y-93124080D01*
X183848031Y-92923451D01*
X183459699Y-92726916D01*
X183097122Y-92564315D01*
X182825798Y-92467263D01*
X182506962Y-92438296D01*
X182186973Y-92535204D01*
X181843840Y-92768519D01*
X181497567Y-93103285D01*
X181284599Y-93345796D01*
X181060171Y-93623791D01*
X180851120Y-93901005D01*
X180684281Y-94141176D01*
X180586490Y-94308040D01*
X180571833Y-94354221D01*
X161541693Y-94354221D01*
X161020025Y-94324605D01*
X159638646Y-94248820D01*
X158104435Y-94166615D01*
X157711833Y-94145796D01*
X156377460Y-94074145D01*
X155196442Y-94008177D01*
X154152949Y-93946417D01*
X153231154Y-93887389D01*
X152415229Y-93829617D01*
X151689346Y-93771623D01*
X151037677Y-93711934D01*
X150444394Y-93649071D01*
X149893669Y-93581560D01*
X149369674Y-93507924D01*
X148856582Y-93426687D01*
X148338563Y-93336373D01*
X147799790Y-93235505D01*
X147659256Y-93208322D01*
X146432549Y-92946709D01*
X145352655Y-92663971D01*
X144397446Y-92350444D01*
X144064271Y-92212128D01*
X170483786Y-92212128D01*
X170499730Y-92269754D01*
X170544228Y-92293364D01*
X170679199Y-92326417D01*
X170950654Y-92379083D01*
X171327617Y-92445835D01*
X171779117Y-92521151D01*
X172170988Y-92583518D01*
X172626953Y-92659650D01*
X173132446Y-92752472D01*
X173656539Y-92855373D01*
X174168301Y-92961740D01*
X174636803Y-93064962D01*
X175031114Y-93158428D01*
X175320306Y-93235525D01*
X175472855Y-93289325D01*
X175446266Y-93226379D01*
X175355403Y-93047412D01*
X175217039Y-92785078D01*
X175142186Y-92645633D01*
X174705181Y-91905004D01*
X174282109Y-91328259D01*
X173874078Y-90916522D01*
X173482194Y-90670915D01*
X173119839Y-90592467D01*
X172796586Y-90650081D01*
X172386705Y-90811665D01*
X171922171Y-91060330D01*
X171434962Y-91379187D01*
X171009895Y-91706892D01*
X170722461Y-91951360D01*
X170552560Y-92112884D01*
X170483786Y-92212128D01*
X144064271Y-92212128D01*
X143544790Y-91996469D01*
X142772556Y-91592382D01*
X142536685Y-91439133D01*
X158614549Y-91439133D01*
X159031025Y-91446422D01*
X159221204Y-91453263D01*
X159555006Y-91469035D01*
X160007034Y-91492383D01*
X160551892Y-91521950D01*
X161164180Y-91556380D01*
X161818504Y-91594316D01*
X161987500Y-91604297D01*
X162642568Y-91642884D01*
X163256746Y-91678589D01*
X163805763Y-91710039D01*
X164265347Y-91735859D01*
X164611226Y-91754674D01*
X164819128Y-91765111D01*
X164849257Y-91766342D01*
X165171014Y-91777800D01*
X164574512Y-90901480D01*
X164037774Y-90176304D01*
X163519786Y-89603634D01*
X163024320Y-89186422D01*
X162555150Y-88927621D01*
X162116050Y-88830185D01*
X161938496Y-88838490D01*
X161584028Y-88923149D01*
X161210538Y-89090736D01*
X160802351Y-89352573D01*
X160343791Y-89719983D01*
X159819184Y-90204289D01*
X159242691Y-90785736D01*
X158614549Y-91439133D01*
X142536685Y-91439133D01*
X142058614Y-91128524D01*
X141380835Y-90595232D01*
X141183730Y-90420740D01*
X147850592Y-90420740D01*
X147851350Y-90423133D01*
X147945018Y-90436697D01*
X148175377Y-90474053D01*
X148512248Y-90530199D01*
X148925455Y-90600131D01*
X149140465Y-90636855D01*
X149689812Y-90725988D01*
X150280378Y-90813201D01*
X150889188Y-90895987D01*
X151493268Y-90971837D01*
X152069645Y-91038244D01*
X152595345Y-91092699D01*
X153047392Y-91132695D01*
X153402814Y-91155723D01*
X153638636Y-91159275D01*
X153731884Y-91140844D01*
X153732500Y-91138154D01*
X153685656Y-91040306D01*
X153559672Y-90838314D01*
X153376371Y-90563975D01*
X153157573Y-90249089D01*
X152925100Y-89925454D01*
X152700774Y-89624868D01*
X152639547Y-89545506D01*
X152366662Y-89234439D01*
X152046445Y-88925552D01*
X151793533Y-88720006D01*
X151510664Y-88532690D01*
X151284680Y-88432769D01*
X151046185Y-88394817D01*
X150895907Y-88391133D01*
X150466795Y-88444717D01*
X150017861Y-88611827D01*
X149532040Y-88902002D01*
X148992269Y-89324781D01*
X148612471Y-89667615D01*
X148317923Y-89947700D01*
X148078429Y-90180809D01*
X147915486Y-90345602D01*
X147850592Y-90420740D01*
X141183730Y-90420740D01*
X141095818Y-90342914D01*
X140541883Y-89775745D01*
X139994712Y-89104762D01*
X139488625Y-88379051D01*
X139057943Y-87647695D01*
X138745652Y-86981736D01*
X138641213Y-86721270D01*
X138564211Y-86533574D01*
X138533468Y-86463731D01*
X138458009Y-86487917D01*
X138281654Y-86574301D01*
X138145542Y-86647482D01*
X137854248Y-86788295D01*
X137470389Y-86945848D01*
X137037097Y-87105523D01*
X136597502Y-87252697D01*
X136194735Y-87372750D01*
X135871928Y-87451062D01*
X135708460Y-87473600D01*
X135325711Y-87441183D01*
X135069095Y-87317815D01*
X134948911Y-87115026D01*
X134975460Y-86844350D01*
X135031517Y-86715724D01*
X135121032Y-86593790D01*
X135310593Y-86369655D01*
X135582619Y-86062927D01*
X135919527Y-85693213D01*
X136303733Y-85280119D01*
X136601133Y-84965414D01*
X136816998Y-84735580D01*
X141354823Y-84735580D01*
X141496897Y-85224297D01*
X141621021Y-85579592D01*
X141795374Y-85982031D01*
X142004911Y-86406437D01*
X142234588Y-86827634D01*
X142469362Y-87220447D01*
X142694189Y-87559700D01*
X142894023Y-87820217D01*
X143053822Y-87976821D01*
X143158241Y-88004525D01*
X143237025Y-87907132D01*
X143358512Y-87706222D01*
X143459310Y-87517308D01*
X143636893Y-87131241D01*
X143803395Y-86706334D01*
X143943205Y-86289434D01*
X144040710Y-85927389D01*
X144080300Y-85667044D01*
X144080500Y-85653242D01*
X144002254Y-85303217D01*
X143783062Y-84936308D01*
X143446242Y-84576751D01*
X143015112Y-84248785D01*
X142512992Y-83976644D01*
X142435068Y-83943003D01*
X142214160Y-83868079D01*
X142047571Y-83875183D01*
X141893959Y-83983905D01*
X141711978Y-84213834D01*
X141637924Y-84320717D01*
X141354823Y-84735580D01*
X136816998Y-84735580D01*
X137388529Y-84127067D01*
X138063938Y-83382514D01*
X138641723Y-82712809D01*
X139136246Y-82099009D01*
X139561869Y-81522171D01*
X139932954Y-80963348D01*
X140263865Y-80403599D01*
X140568963Y-79823977D01*
X140695069Y-79565433D01*
X141110121Y-78542159D01*
X141314486Y-77837755D01*
X144731958Y-77837755D01*
X145011732Y-77638538D01*
X145207743Y-77484787D01*
X145474490Y-77257285D01*
X145760874Y-76999882D01*
X145819939Y-76944999D01*
X146221316Y-76530816D01*
X146478121Y-76162316D01*
X146599045Y-75813177D01*
X146592780Y-75457079D01*
X146468015Y-75067700D01*
X146451805Y-75031300D01*
X146340301Y-74842284D01*
X146159999Y-74594542D01*
X145940251Y-74322030D01*
X145710407Y-74058703D01*
X145499818Y-73838518D01*
X145337834Y-73695429D01*
X145265729Y-73659133D01*
X145239779Y-73738460D01*
X145211012Y-73955296D01*
X145182683Y-74277928D01*
X145158050Y-74674641D01*
X145154872Y-74738633D01*
X145113672Y-75344358D01*
X145049196Y-75988882D01*
X144968132Y-76620110D01*
X144877164Y-77185947D01*
X144783488Y-77632278D01*
X144731958Y-77837755D01*
X141314486Y-77837755D01*
X141440418Y-77403694D01*
X141681319Y-76184028D01*
X141828185Y-74917153D01*
X141876374Y-73637059D01*
X141821246Y-72377738D01*
X141756640Y-71789995D01*
X141612564Y-70921117D01*
X141414096Y-70112809D01*
X141150092Y-69345206D01*
X140809408Y-68598439D01*
X140380898Y-67852642D01*
X139853420Y-67087947D01*
X139215829Y-66284488D01*
X138456980Y-65422397D01*
X137783044Y-64706154D01*
X136946589Y-63837338D01*
X137060670Y-62948800D01*
X140422914Y-62948800D01*
X141022887Y-63626133D01*
X141337328Y-63992644D01*
X141697259Y-64430002D01*
X142048747Y-64871980D01*
X142237847Y-65118052D01*
X142509037Y-65476892D01*
X142701095Y-65705080D01*
X142838759Y-65797726D01*
X142946768Y-65749943D01*
X143049863Y-65556845D01*
X143172783Y-65213545D01*
X143273010Y-64913556D01*
X143448868Y-64240043D01*
X143489425Y-63661833D01*
X143393239Y-63170517D01*
X143158867Y-62757689D01*
X142852833Y-62464418D01*
X142624509Y-62316630D01*
X142313635Y-62149433D01*
X141953914Y-61976928D01*
X141579047Y-61813214D01*
X141222737Y-61672392D01*
X140918687Y-61568564D01*
X140700599Y-61515829D01*
X140605302Y-61524080D01*
X140566791Y-61636513D01*
X140525133Y-61872285D01*
X140487965Y-62185744D01*
X140480222Y-62271467D01*
X140422914Y-62948800D01*
X137060670Y-62948800D01*
X137085159Y-62758069D01*
X137217996Y-61593891D01*
X137315113Y-60460883D01*
X137375876Y-59382123D01*
X137399650Y-58380693D01*
X137385801Y-57479672D01*
X137333696Y-56702140D01*
X137265567Y-56193251D01*
X136982417Y-54975026D01*
X136577727Y-53856681D01*
X136056441Y-52845359D01*
X135423499Y-51948205D01*
X134683842Y-51172362D01*
X133842413Y-50524976D01*
X133031500Y-50071836D01*
X132397370Y-49793951D01*
X131830296Y-49601648D01*
X131262667Y-49477854D01*
X130626870Y-49405494D01*
X130315285Y-49385921D01*
X129471806Y-49376897D01*
X128701818Y-49449173D01*
X127964764Y-49613224D01*
X127220089Y-49879526D01*
X126427238Y-50258557D01*
X125977740Y-50506375D01*
X125387457Y-50837314D01*
X124908919Y-51085934D01*
X124511994Y-51262357D01*
X124166552Y-51376703D01*
X123842460Y-51439094D01*
X123509588Y-51459650D01*
X123167833Y-51450211D01*
X122343641Y-51343470D01*
X121605149Y-51124083D01*
X120969305Y-50799892D01*
X120453058Y-50378740D01*
X120205443Y-50079467D01*
X120009372Y-49827482D01*
X119736638Y-49511925D01*
X119433623Y-49185563D01*
X119300475Y-49049960D01*
X118633701Y-48479453D01*
X117909374Y-48048664D01*
X117106538Y-47748589D01*
X116204240Y-47570221D01*
X115757346Y-47527066D01*
X114786364Y-47542497D01*
X113837703Y-47721152D01*
X112917242Y-48057721D01*
X112030859Y-48546894D01*
X111184433Y-49183362D01*
X110383843Y-49961816D01*
X109634967Y-50876945D01*
X108943683Y-51923441D01*
X108315870Y-53095993D01*
X107757407Y-54389293D01*
X107556539Y-54934162D01*
X107248587Y-55809525D01*
X107807025Y-56412690D01*
X108154625Y-56803575D01*
X108390152Y-57111223D01*
X108529552Y-57363238D01*
X108588767Y-57587222D01*
X108588962Y-57766427D01*
X108520595Y-58008938D01*
X108362980Y-58142575D01*
X108099957Y-58172323D01*
X107715365Y-58103169D01*
X107600024Y-58071500D01*
X106855423Y-57859772D01*
X106246445Y-57694532D01*
X105747533Y-57570370D01*
X105333126Y-57481875D01*
X104977665Y-57423635D01*
X104655590Y-57390240D01*
X104341342Y-57376279D01*
X104313779Y-57375809D01*
X103967201Y-57375712D01*
X103688431Y-57385305D01*
X103518096Y-57402727D01*
X103486353Y-57413724D01*
X103494638Y-57509081D01*
X103561926Y-57715848D01*
X103674350Y-57992580D01*
X103697517Y-58044858D01*
X103871311Y-58469907D01*
X104030881Y-58928033D01*
X104162514Y-59372765D01*
X104252499Y-59757635D01*
X104287126Y-60036173D01*
X104287167Y-60043281D01*
X104223050Y-60401179D01*
X104043023Y-60665705D01*
X103840618Y-60785206D01*
X103760426Y-60809014D01*
X103682584Y-60811420D01*
X103591322Y-60779490D01*
X103470868Y-60700292D01*
X103305450Y-60560892D01*
X103079296Y-60348356D01*
X102776636Y-60049750D01*
X102381696Y-59652142D01*
X102053121Y-59319369D01*
X101448041Y-58715742D01*
X100933538Y-58226719D01*
X100490311Y-57838059D01*
X100099059Y-57535525D01*
X99740481Y-57304877D01*
X99395275Y-57131876D01*
X99044141Y-57002282D01*
X98829545Y-56941237D01*
X98450844Y-56856383D01*
X98115180Y-56819240D01*
X97760017Y-56828581D01*
X97322815Y-56883180D01*
X97163953Y-56908591D01*
X96849465Y-56967742D01*
X96674668Y-57023248D01*
X96610670Y-57087373D01*
X96615445Y-57141424D01*
X96664971Y-57284668D01*
X96752581Y-57535566D01*
X96860090Y-57842060D01*
X96869491Y-57868800D01*
X97046619Y-58495677D01*
X97176702Y-59204509D01*
X97246269Y-59911281D01*
X97253882Y-60266760D01*
X97245753Y-60592216D01*
X97220437Y-60806902D01*
X97162432Y-60908044D01*
X97056235Y-60892867D01*
X96886343Y-60758597D01*
X96637254Y-60502460D01*
X96293465Y-60121681D01*
X96265011Y-60089792D01*
X95716405Y-59490800D01*
X95163967Y-58917162D01*
X94627900Y-58387989D01*
X94128401Y-57922396D01*
X93685671Y-57539494D01*
X93319910Y-57258396D01*
X93168066Y-57159532D01*
X92431842Y-56792502D01*
X91666283Y-56538336D01*
X91070046Y-56429899D01*
X90511181Y-56370050D01*
X90163782Y-57003029D01*
X89892213Y-57442338D01*
X89619907Y-57781534D01*
X89365590Y-58000829D01*
X89147990Y-58080435D01*
X89144176Y-58080467D01*
X88917372Y-58026916D01*
X88728901Y-57858535D01*
X88573767Y-57563726D01*
X88446976Y-57130892D01*
X88343532Y-56548438D01*
X88287167Y-56090800D01*
X88183688Y-55276469D01*
X88060276Y-54606841D01*
X87908023Y-54057644D01*
X87718023Y-53604606D01*
X87481369Y-53223457D01*
X87189153Y-52889925D01*
X87072200Y-52780034D01*
X86634069Y-52458774D01*
X86154213Y-52259419D01*
X85597612Y-52171639D01*
X85029713Y-52177587D01*
X84785066Y-52197122D01*
X84575206Y-52226600D01*
X84370184Y-52277001D01*
X84140052Y-52359307D01*
X83854864Y-52484498D01*
X83484670Y-52663557D01*
X82999524Y-52907464D01*
X82895919Y-52959993D01*
X82262282Y-53274346D01*
X81756984Y-53506456D01*
X81362833Y-53660647D01*
X81062635Y-53741241D01*
X80839196Y-53752563D01*
X80675322Y-53698936D01*
X80553821Y-53584683D01*
X80532649Y-53554261D01*
X80448280Y-53405027D01*
X80426239Y-53267781D01*
X80464860Y-53076692D01*
X80516328Y-52909212D01*
X80649598Y-52492467D01*
X80255216Y-52481769D01*
X80005208Y-52476394D01*
X79640701Y-52470305D01*
X79216519Y-52464358D01*
X78900903Y-52460602D01*
X78482272Y-52453827D01*
X78198617Y-52440018D01*
X78015578Y-52412671D01*
X77898798Y-52365280D01*
X77813920Y-52291340D01*
X77777109Y-52247833D01*
X77665760Y-52026023D01*
X77698179Y-51792147D01*
X77879527Y-51521265D01*
X77941761Y-51452264D01*
X78162665Y-51216394D01*
X77911082Y-51013754D01*
X77397073Y-50676358D01*
X76864843Y-50466574D01*
X76345081Y-50392693D01*
X75870373Y-50462387D01*
X75402827Y-50675019D01*
X74919471Y-50999042D01*
X74477155Y-51392897D01*
X74259323Y-51640104D01*
X73869690Y-52211278D01*
X73488047Y-52917766D01*
X73127738Y-53725633D01*
X72802109Y-54600943D01*
X72524501Y-55509763D01*
X72308259Y-56418156D01*
X72242901Y-56768133D01*
X72149965Y-57449026D01*
X72082322Y-58232801D01*
X72039995Y-59082420D01*
X72023007Y-59960846D01*
X69529750Y-59960846D01*
X69542282Y-59192178D01*
X69569658Y-58461764D01*
X69611813Y-57809814D01*
X69668763Y-57271638D01*
X69685000Y-57161002D01*
X69896528Y-56027701D01*
X70171162Y-54889198D01*
X70496442Y-53786904D01*
X70859909Y-52762229D01*
X71249105Y-51856585D01*
X71331566Y-51688133D01*
X71724128Y-50975454D01*
X72154088Y-50346711D01*
X72665556Y-49741639D01*
X73037315Y-49357533D01*
X73781456Y-48707584D01*
X74544444Y-48221241D01*
X75340066Y-47892855D01*
X76182108Y-47716773D01*
X77084356Y-47687347D01*
X77109167Y-47688508D01*
X77974032Y-47803976D01*
X78797327Y-48067620D01*
X79591317Y-48485345D01*
X80368263Y-49063058D01*
X80815708Y-49473562D01*
X81347249Y-49994800D01*
X82085708Y-50023138D01*
X82427797Y-50030738D01*
X82705278Y-50017190D01*
X82972061Y-49973148D01*
X83282056Y-49889263D01*
X83689171Y-49756190D01*
X83755500Y-49733609D01*
X84185923Y-49591587D01*
X84520025Y-49499186D01*
X84819722Y-49445745D01*
X85146932Y-49420603D01*
X85563574Y-49413098D01*
X85618167Y-49412890D01*
X86123441Y-49421122D01*
X86523258Y-49454500D01*
X86880591Y-49520726D01*
X87184500Y-49604462D01*
X87848348Y-49847033D01*
X88490921Y-50154187D01*
X89064127Y-50499904D01*
X89519877Y-50858167D01*
X89544151Y-50881136D01*
X89927061Y-51305164D01*
X90320439Y-51840837D01*
X90689583Y-52436605D01*
X90999791Y-53040915D01*
X91003483Y-53049043D01*
X91129121Y-53316887D01*
X91228233Y-53511141D01*
X91280755Y-53592655D01*
X91282323Y-53593133D01*
X91374485Y-53607839D01*
X91592253Y-53647034D01*
X91894923Y-53703336D01*
X92016055Y-53726223D01*
X92746290Y-53890638D01*
X93469708Y-54100641D01*
X94128656Y-54337940D01*
X94579003Y-54539336D01*
X95073172Y-54788311D01*
X95962294Y-54523991D01*
X96939370Y-54276450D01*
X97824114Y-54145588D01*
X98643915Y-54128333D01*
X99111867Y-54170679D01*
X100100239Y-54372961D01*
X101058554Y-54703936D01*
X101485573Y-54901570D01*
X101943646Y-55133742D01*
X102543906Y-54959819D01*
X102935427Y-54861699D01*
X103399201Y-54767623D01*
X103838850Y-54697017D01*
X103863833Y-54693762D01*
X104338291Y-54635396D01*
X104676194Y-54588583D01*
X104907382Y-54533477D01*
X105061696Y-54450235D01*
X105168978Y-54319011D01*
X105259069Y-54119961D01*
X105361811Y-53833241D01*
X105425667Y-53655132D01*
X106047850Y-52140381D01*
X106759631Y-50750595D01*
X107556932Y-49490828D01*
X108435675Y-48366133D01*
X109391783Y-47381563D01*
X110421176Y-46542174D01*
X111519778Y-45853017D01*
X111864833Y-45675051D01*
X112547491Y-45359401D01*
X113150290Y-45130484D01*
X113729102Y-44973782D01*
X114339794Y-44874776D01*
X115038238Y-44818947D01*
X115186041Y-44811998D01*
X116411687Y-44822068D01*
G36*
X116411687Y-44822068D02*
G01*
X117549150Y-44965927D01*
X118621361Y-45249588D01*
X119651247Y-45679058D01*
X120627833Y-46238271D01*
X120881241Y-46425407D01*
X121215100Y-46704756D01*
X121594019Y-47045022D01*
X121982609Y-47414906D01*
X122172752Y-47604503D01*
X122597678Y-48030744D01*
X122932965Y-48342544D01*
X123206195Y-48547660D01*
X123444952Y-48653850D01*
X123676821Y-48668870D01*
X123929383Y-48600479D01*
X124230224Y-48456434D01*
X124554788Y-48274408D01*
X125787433Y-47637628D01*
X127000843Y-47155768D01*
X128220039Y-46820301D01*
X129369667Y-46633485D01*
X130547884Y-46585134D01*
X131731667Y-46694780D01*
X132903236Y-46952705D01*
X134044812Y-47349191D01*
X135138617Y-47874518D01*
X136166871Y-48518969D01*
X137111795Y-49272824D01*
X137955610Y-50126365D01*
X138680537Y-51069873D01*
X139236035Y-52026800D01*
X139505089Y-52588603D01*
X139732925Y-53114124D01*
X139926323Y-53629670D01*
X140092060Y-54161550D01*
X140236916Y-54736073D01*
X140367669Y-55379546D01*
X140491100Y-56118279D01*
X140613985Y-56978578D01*
X140716503Y-57772395D01*
X140820833Y-58607324D01*
X141966097Y-59007108D01*
X142796297Y-59314709D01*
X143486485Y-59612655D01*
X144064170Y-59915993D01*
X144556862Y-60239764D01*
X144992071Y-60599014D01*
X145146365Y-60746242D01*
X145617186Y-61271811D01*
X145953022Y-61798068D01*
X146181111Y-62374259D01*
X146286055Y-62806844D01*
X146358848Y-63557298D01*
X146306426Y-64391031D01*
X146134619Y-65284077D01*
X145849258Y-66212473D01*
X145456173Y-67152253D01*
X145033170Y-67956894D01*
X144809997Y-68343071D01*
X144659192Y-68615476D01*
X144570003Y-68807864D01*
X144531679Y-68953995D01*
X144533471Y-69087625D01*
X144564627Y-69242512D01*
X144590149Y-69348009D01*
X144654424Y-69555365D01*
X144753338Y-69741484D01*
X144907654Y-69926192D01*
X145138136Y-70129315D01*
X145465546Y-70370680D01*
X145910650Y-70670113D01*
X146112500Y-70801648D01*
X147029848Y-71451203D01*
X147787404Y-72111285D01*
X148394703Y-72794047D01*
X148861278Y-73511640D01*
X149196662Y-74276216D01*
X149386148Y-74974258D01*
X149465054Y-75665630D01*
X149404010Y-76325673D01*
X149197119Y-76994558D01*
X149038609Y-77341928D01*
X148744840Y-77868771D01*
X148403957Y-78355237D01*
X147999589Y-78815240D01*
X147515365Y-79262691D01*
X146934914Y-79711502D01*
X146241866Y-80175587D01*
X145419850Y-80668857D01*
X144562719Y-81145746D01*
X143901938Y-81503369D01*
X144429419Y-81828948D01*
X145138516Y-82335841D01*
X145749712Y-82913191D01*
X146244635Y-83538346D01*
X146604917Y-84188658D01*
X146790675Y-84740411D01*
X146861833Y-85284351D01*
X146854773Y-85908116D01*
X146774949Y-86544316D01*
X146627815Y-87125559D01*
X146588804Y-87234520D01*
X146368402Y-87813573D01*
X146854284Y-87395382D01*
X147760463Y-86689539D01*
X148645325Y-86149589D01*
X149507675Y-85775614D01*
X150346316Y-85567695D01*
X151160055Y-85525913D01*
X151947694Y-85650350D01*
X152708038Y-85941086D01*
X153439893Y-86398203D01*
X154029133Y-86908241D01*
X154301580Y-87197942D01*
X154632523Y-87583715D01*
X154985598Y-88021362D01*
X155324442Y-88466687D01*
X155423357Y-88602800D01*
X155691575Y-88976650D01*
X155922956Y-89298990D01*
X156100494Y-89546141D01*
X156207183Y-89694426D01*
X156230406Y-89726478D01*
X156292706Y-89676308D01*
X156457591Y-89523033D01*
X156707846Y-89283226D01*
X157026257Y-88973457D01*
X157395610Y-88610295D01*
X157593734Y-88414145D01*
X158081413Y-87940069D01*
X158531465Y-87521531D01*
X158923631Y-87176457D01*
X159237651Y-86922774D01*
X159423896Y-86794776D01*
X160275685Y-86362510D01*
X161090261Y-86090921D01*
X161880813Y-85979032D01*
X162660529Y-86025861D01*
X163442600Y-86230429D01*
X163977167Y-86456555D01*
X164623789Y-86847642D01*
X165288985Y-87400972D01*
X165967384Y-88111153D01*
X166653618Y-88972797D01*
X167062795Y-89554176D01*
X167350279Y-89976270D01*
X167561520Y-90273448D01*
X167711908Y-90463192D01*
X167816833Y-90562986D01*
X167891683Y-90590313D01*
X167951075Y-90563309D01*
X168736485Y-89913029D01*
X169421763Y-89372560D01*
X170024954Y-88930435D01*
X170564102Y-88575186D01*
X171057251Y-88295347D01*
X171522445Y-88079450D01*
X171977729Y-87916029D01*
X172228788Y-87844790D01*
X172933093Y-87724276D01*
X173607720Y-87745192D01*
X174288959Y-87911779D01*
X174862734Y-88152605D01*
X175345561Y-88424551D01*
X175789118Y-88757570D01*
X176208858Y-89169938D01*
X176620234Y-89679932D01*
X177038701Y-90305831D01*
X177479713Y-91065912D01*
X177744108Y-91560469D01*
X177947123Y-91937458D01*
X178125877Y-92247033D01*
X178265215Y-92464637D01*
X178349984Y-92565713D01*
X178365583Y-92567611D01*
X178439721Y-92470749D01*
X178586274Y-92273079D01*
X178778363Y-92010957D01*
X178855678Y-91904800D01*
X179345133Y-91295073D01*
X179414566Y-91223277D01*
X188503775Y-91223277D01*
X188944413Y-90854354D01*
X189174637Y-90646876D01*
X189478870Y-90352034D01*
X189818097Y-90008558D01*
X190153306Y-89655179D01*
X190164275Y-89643335D01*
X190456935Y-89323704D01*
X190709968Y-89041061D01*
X190899727Y-88822279D01*
X191002565Y-88694231D01*
X191011207Y-88680852D01*
X191017824Y-88623768D01*
X190942678Y-88587667D01*
X190759735Y-88568200D01*
X190442961Y-88561015D01*
X190291540Y-88560598D01*
X189738930Y-88584355D01*
X189317868Y-88668176D01*
X189009845Y-88831202D01*
X188796349Y-89092573D01*
X188658869Y-89471430D01*
X188578894Y-89986913D01*
X188551347Y-90359947D01*
X188503775Y-91223277D01*
X179414566Y-91223277D01*
X179874380Y-90747822D01*
X180411769Y-90292044D01*
X180925649Y-89956739D01*
X181051632Y-89892810D01*
X181319979Y-89770934D01*
X181540744Y-89691947D01*
X181764439Y-89646788D01*
X182041577Y-89626398D01*
X182422673Y-89621718D01*
X182561500Y-89622011D01*
X183044080Y-89634270D01*
X183445931Y-89676298D01*
X183812256Y-89761537D01*
X184188257Y-89903428D01*
X184619135Y-90115414D01*
X185080333Y-90371037D01*
X185736500Y-90745329D01*
X185739454Y-90182064D01*
X185806773Y-89227806D01*
X185996501Y-88381824D01*
X186306141Y-87647971D01*
X186733193Y-87030099D01*
X187275160Y-86532060D01*
X187929542Y-86157707D01*
X188474315Y-85965426D01*
X188729132Y-85915074D01*
X189103680Y-85866054D01*
X189548406Y-85823844D01*
X190013760Y-85793925D01*
X190033333Y-85793004D01*
X190446835Y-85771630D01*
X190791635Y-85749534D01*
X191036629Y-85729032D01*
X191150714Y-85712442D01*
X191155167Y-85709411D01*
X191110991Y-85628753D01*
X190995799Y-85449838D01*
X190852581Y-85237835D01*
X190289818Y-84342191D01*
X189878928Y-83509613D01*
X189617708Y-82732915D01*
X189503956Y-82004914D01*
X189509788Y-81877865D01*
X192425167Y-81877865D01*
X192446206Y-82178716D01*
X192499069Y-82448926D01*
X192524788Y-82523983D01*
X192649533Y-82785010D01*
X192810736Y-83074403D01*
X192986002Y-83358013D01*
X193152939Y-83601695D01*
X193289154Y-83771301D01*
X193372253Y-83832685D01*
X193380567Y-83828933D01*
X193424813Y-83721720D01*
X193491410Y-83483942D01*
X193571134Y-83151395D01*
X193650217Y-82782334D01*
X193737534Y-82319982D01*
X193813940Y-81854933D01*
X193875907Y-81416739D01*
X193919909Y-81034954D01*
X193942420Y-80739134D01*
X193939913Y-80558832D01*
X193920506Y-80517133D01*
X193815181Y-80560035D01*
X193611466Y-80671663D01*
X193351591Y-80826403D01*
X193077785Y-80998637D01*
X192832275Y-81162750D01*
X192709300Y-81251845D01*
X192533190Y-81406773D01*
X192449834Y-81564250D01*
X192425816Y-81797903D01*
X192425167Y-81877865D01*
X189509788Y-81877865D01*
X189535470Y-81318424D01*
X189580366Y-81086828D01*
X189744664Y-80521091D01*
X189961386Y-80056320D01*
X190263641Y-79625251D01*
X190351121Y-79521036D01*
X190588335Y-79291248D01*
X190933209Y-79013651D01*
X191342771Y-78717785D01*
X191774044Y-78433191D01*
X192184057Y-78189408D01*
X192529833Y-78015978D01*
X192557597Y-78004309D01*
X192775846Y-77906407D01*
X192909970Y-77830503D01*
X192930467Y-77807800D01*
X192862461Y-77748699D01*
X192678809Y-77619045D01*
X192407506Y-77437957D01*
X192076546Y-77224556D01*
X192075630Y-77223974D01*
X191276974Y-76673320D01*
X190636782Y-76131263D01*
X190145629Y-75584345D01*
X189794088Y-75019113D01*
X189572732Y-74422110D01*
X189472135Y-73779881D01*
X189467026Y-73609307D01*
X192294660Y-73609307D01*
X192397337Y-73906307D01*
X192650744Y-74209334D01*
X192874751Y-74398603D01*
X193097002Y-74568930D01*
X193213443Y-74649522D01*
X193252504Y-74653856D01*
X193242618Y-74595410D01*
X193234852Y-74569300D01*
X193195886Y-74448032D01*
X193116157Y-74205723D01*
X193008710Y-73881889D01*
X192927655Y-73638821D01*
X192783874Y-73235880D01*
X192668848Y-72991351D01*
X192571689Y-72899017D01*
X192481511Y-72952661D01*
X192387427Y-73146067D01*
X192333444Y-73299513D01*
X192294660Y-73609307D01*
X189467026Y-73609307D01*
X189463619Y-73495599D01*
X189495260Y-73063758D01*
X189593669Y-72621529D01*
X189768254Y-72148775D01*
X190028422Y-71625355D01*
X190383579Y-71031132D01*
X190843131Y-70345967D01*
X191111185Y-69968276D01*
X191128989Y-69873898D01*
X191090332Y-69706978D01*
X190989998Y-69457305D01*
X190822765Y-69114670D01*
X190583415Y-68668861D01*
X190266729Y-68109667D01*
X189867487Y-67426878D01*
X189476872Y-66770987D01*
X189156623Y-66228932D01*
X188851344Y-65698202D01*
X188576862Y-65207393D01*
X188349006Y-64785101D01*
X188183603Y-64459925D01*
X188117031Y-64314070D01*
X187861383Y-63545586D01*
X187745186Y-62817252D01*
X187765289Y-62142419D01*
X187918540Y-61534435D01*
X188201786Y-61006651D01*
X188611876Y-60572417D01*
X189069294Y-60281163D01*
X189601602Y-60069350D01*
X190136877Y-59965903D01*
X190698687Y-59973241D01*
X191310598Y-60093782D01*
X191996178Y-60329945D01*
X192721500Y-60655931D01*
X193665649Y-61155053D01*
X194593131Y-61725819D01*
X195522969Y-62382733D01*
X196474184Y-63140303D01*
X197465796Y-64013033D01*
X198516827Y-65015429D01*
X198777373Y-65274253D01*
X199558750Y-66073124D01*
X200235480Y-66805611D01*
X200837696Y-67507840D01*
X201395529Y-68215940D01*
X201939112Y-68966036D01*
X202310599Y-69510467D01*
X203488700Y-71422463D01*
X204534695Y-73430859D01*
X205442427Y-75518866D01*
X206205740Y-77669700D01*
X206818477Y-79866574D01*
X207274480Y-82092702D01*
X207495665Y-83646832D01*
X207736898Y-86328060D01*
X207826801Y-88939369D01*
X207764998Y-91487575D01*
X207551108Y-93979490D01*
X207184753Y-96421929D01*
X206665555Y-98821707D01*
X206648449Y-98889800D01*
X206094782Y-100782539D01*
X205387918Y-102695288D01*
X204539440Y-104609062D01*
X203560934Y-106504875D01*
X202463985Y-108363743D01*
X201260176Y-110166680D01*
X199961093Y-111894702D01*
X198578320Y-113528823D01*
X197123441Y-115050057D01*
X196327899Y-115803304D01*
X194604551Y-117274245D01*
X192741752Y-118669780D01*
X190756427Y-119979479D01*
X188665494Y-121192912D01*
X186485878Y-122299646D01*
X184234499Y-123289253D01*
X184085500Y-123349508D01*
X183560286Y-123563845D01*
X183175086Y-123729432D01*
X182911007Y-123856024D01*
X182749157Y-123953373D01*
X182670645Y-124031235D01*
X182655231Y-124087977D01*
X182671424Y-124245330D01*
X182706024Y-124516628D01*
X182752142Y-124848385D01*
X182761528Y-124913093D01*
X182812230Y-125376197D01*
X182845561Y-125924955D01*
X182861826Y-126520288D01*
X182861333Y-127123118D01*
X182844388Y-127694366D01*
X182811297Y-128194954D01*
X182762367Y-128585804D01*
X182731600Y-128729593D01*
X182371632Y-129771116D01*
X181872413Y-130730506D01*
X181243682Y-131593448D01*
X180495173Y-132345623D01*
X180017727Y-132719979D01*
X179439580Y-133080542D01*
X178721900Y-133443056D01*
X177893963Y-133796191D01*
X176985049Y-134128612D01*
X176024434Y-134428987D01*
X175041396Y-134685984D01*
X174791003Y-134743137D01*
X173687707Y-134959174D01*
X172529519Y-135134299D01*
X171338003Y-135268380D01*
X170134722Y-135361287D01*
X168941239Y-135412888D01*
X167779118Y-135423051D01*
X166669923Y-135391647D01*
X165635216Y-135318543D01*
X164696561Y-135203608D01*
X163875522Y-135046712D01*
X163193663Y-134847723D01*
X163104659Y-134814212D01*
X162409405Y-134457427D01*
X161816811Y-133977544D01*
X161341588Y-133392728D01*
X160998444Y-132721144D01*
X160802087Y-131980958D01*
X160800137Y-131968110D01*
X160752957Y-131724445D01*
X160696085Y-131618002D01*
X160611248Y-131616887D01*
X160601292Y-131621005D01*
X159266204Y-132123265D01*
X157813932Y-132516999D01*
X156236398Y-132804388D01*
X156193829Y-132810435D01*
X155742395Y-132860912D01*
X155171659Y-132904442D01*
X154514405Y-132940354D01*
X153803412Y-132967978D01*
X153071464Y-132986645D01*
X152351341Y-132995684D01*
X151675825Y-132994425D01*
X151077699Y-132982199D01*
X150589744Y-132958335D01*
X150303748Y-132930818D01*
X149396346Y-132764209D01*
X148637732Y-132524737D01*
X148022498Y-132209528D01*
X147545240Y-131815709D01*
X147200552Y-131340404D01*
X147158250Y-131258449D01*
X147044361Y-131009007D01*
X147041975Y-131001638D01*
X148398500Y-131001638D01*
X148824091Y-130603547D01*
X149148477Y-130339357D01*
X149516898Y-130100860D01*
X149889849Y-129907636D01*
X150227823Y-129779265D01*
X150491313Y-129735326D01*
X150559166Y-129743653D01*
X150713302Y-129821094D01*
X150766807Y-129983657D01*
X150769167Y-130057379D01*
X150746811Y-130204377D01*
X150664991Y-130361224D01*
X150501576Y-130558532D01*
X150234434Y-130826915D01*
X150164421Y-130893899D01*
X149889139Y-131162294D01*
X149727645Y-131339327D01*
X149665788Y-131444565D01*
X149689418Y-131497577D01*
X149719921Y-131508612D01*
X149814548Y-131523037D01*
X149955327Y-131527780D01*
X150158353Y-131521512D01*
X150439720Y-131502904D01*
X150815523Y-131470624D01*
X151301856Y-131423343D01*
X151914813Y-131359732D01*
X152670488Y-131278460D01*
X153182167Y-131222525D01*
X154233809Y-131099874D01*
X155134550Y-130978216D01*
X155902757Y-130853793D01*
X156556795Y-130722848D01*
X157115031Y-130581624D01*
X157595831Y-130426364D01*
X158017561Y-130253311D01*
X158092833Y-130217963D01*
X158553774Y-129958489D01*
X159047237Y-129617050D01*
X159520538Y-129234868D01*
X159920992Y-128853165D01*
X160099181Y-128648157D01*
X160283495Y-128413839D01*
X159611497Y-128471708D01*
X158415565Y-128570464D01*
X157334946Y-128649623D01*
X156317098Y-128711901D01*
X155309477Y-128760018D01*
X154259539Y-128796691D01*
X153114743Y-128824638D01*
X152602567Y-128834260D01*
X149482968Y-128888682D01*
X149067473Y-129387950D01*
X148759366Y-129777786D01*
X148557594Y-130088049D01*
X148444038Y-130353992D01*
X148400579Y-130610869D01*
X148398500Y-130689515D01*
X148398500Y-131001638D01*
X147041975Y-131001638D01*
X146972972Y-130788493D01*
X146957407Y-130689515D01*
X146934413Y-130543300D01*
X146919012Y-130219819D01*
X146916833Y-129920133D01*
X146922617Y-129503211D01*
X146945101Y-129207479D01*
X146991984Y-128985036D01*
X147070964Y-128787977D01*
X147111508Y-128708824D01*
X147306182Y-128344181D01*
X146512486Y-128396133D01*
X146050502Y-129158133D01*
X145201711Y-130435360D01*
X144290295Y-131573046D01*
X143322031Y-132565748D01*
X142302693Y-133408024D01*
X141238055Y-134094431D01*
X140349359Y-134531191D01*
X139718309Y-134764105D01*
X138970694Y-134981445D01*
X138159265Y-135169857D01*
X137336776Y-135315991D01*
X137137833Y-135344057D01*
X136633540Y-135394103D01*
X136019823Y-135428572D01*
X135345830Y-135447101D01*
X134660708Y-135449326D01*
X134013605Y-135434884D01*
X133453670Y-135403411D01*
X133158500Y-135373490D01*
X132127262Y-135214049D01*
X131237780Y-135014597D01*
X130465067Y-134764632D01*
X129784137Y-134453655D01*
X129170004Y-134071164D01*
X128597681Y-133606660D01*
X128318539Y-133339517D01*
X127584911Y-132602874D01*
X125863206Y-132892953D01*
X124871316Y-133052112D01*
X124014771Y-133170800D01*
X123265043Y-133251200D01*
X122593601Y-133295492D01*
X121971918Y-133305860D01*
X121371464Y-133284485D01*
X121051167Y-133260953D01*
X120179741Y-133162371D01*
X119329352Y-133021027D01*
X118550996Y-132846654D01*
X117956810Y-132670416D01*
X117179991Y-132331804D01*
X116536552Y-131898951D01*
X116031087Y-131377286D01*
X115668193Y-130772237D01*
X115452465Y-130089232D01*
X115395647Y-129645321D01*
X115393492Y-129267475D01*
X117940819Y-129267475D01*
X117951559Y-129320657D01*
X118029477Y-129493411D01*
X118143603Y-129513662D01*
X118301365Y-129378969D01*
X118468833Y-129150690D01*
X118805333Y-128751498D01*
X119263320Y-128365497D01*
X119796323Y-128027417D01*
X120268736Y-127805588D01*
X120746319Y-127651371D01*
X121114977Y-127611028D01*
X121391646Y-127685153D01*
X121576897Y-127851434D01*
X121674202Y-128006713D01*
X121692653Y-128150300D01*
X121638176Y-128358818D01*
X121620232Y-128411630D01*
X121518352Y-128633571D01*
X121344822Y-128939722D01*
X121129591Y-129278826D01*
X121021091Y-129437072D01*
X120803946Y-129748802D01*
X120675297Y-129949749D01*
X120624504Y-130066409D01*
X120640923Y-130125278D01*
X120713913Y-130152850D01*
X120732127Y-130156513D01*
X121051716Y-130190984D01*
X121504256Y-130202152D01*
X122055098Y-130190874D01*
X122669590Y-130158007D01*
X123313085Y-130104407D01*
X123464167Y-130088959D01*
X124140878Y-130009579D01*
X124814975Y-129916624D01*
X125453752Y-129815652D01*
X126024504Y-129712220D01*
X126494524Y-129611884D01*
X126831107Y-129520201D01*
X126850833Y-129513564D01*
X127067011Y-129410826D01*
X127264412Y-129241907D01*
X127483140Y-128969763D01*
X127564477Y-128854406D01*
X127763779Y-128579792D01*
X128038279Y-128220468D01*
X128353494Y-127820735D01*
X128674942Y-127424896D01*
X128711988Y-127380133D01*
X129097777Y-126913629D01*
X129386550Y-126559924D01*
X129590457Y-126302374D01*
X129721649Y-126124332D01*
X129792278Y-126009152D01*
X129814495Y-125940190D01*
X129800451Y-125900799D01*
X129795428Y-125895931D01*
X129698223Y-125849068D01*
X129468561Y-125754493D01*
X129133013Y-125622661D01*
X128718151Y-125464025D01*
X128290167Y-125303727D01*
X126849280Y-124751628D01*
X125497088Y-124198291D01*
X124252552Y-123652065D01*
X123134630Y-123121296D01*
X122162283Y-122614331D01*
X122088333Y-122573372D01*
X121389833Y-122184532D01*
X121389833Y-122737033D01*
X121363598Y-123179545D01*
X121292408Y-123707815D01*
X121187536Y-124266011D01*
X121060254Y-124798297D01*
X120921838Y-125248839D01*
X120842762Y-125446606D01*
X120704853Y-125732029D01*
X120556576Y-125992785D01*
X120377739Y-126255439D01*
X120148153Y-126546558D01*
X119847626Y-126892708D01*
X119455968Y-127320457D01*
X119255758Y-127534760D01*
X118816345Y-128006144D01*
X118482148Y-128373660D01*
X118240349Y-128654858D01*
X118078134Y-128867289D01*
X117982684Y-129028502D01*
X117941185Y-129156047D01*
X117940819Y-129267475D01*
X115393492Y-129267475D01*
X115392562Y-129104605D01*
X115463695Y-128601771D01*
X115620390Y-128113550D01*
X115873989Y-127616674D01*
X116235835Y-127087874D01*
X116717269Y-126503881D01*
X117166310Y-126012849D01*
X117645095Y-125498515D01*
X118017658Y-125069481D01*
X118298128Y-124691925D01*
X118500635Y-124332029D01*
X118639309Y-123955972D01*
X118728280Y-123529935D01*
X118781677Y-123020099D01*
X118813630Y-122392643D01*
X118825438Y-122041698D01*
X118831224Y-121855612D01*
X126099760Y-121855612D01*
X126348297Y-121985997D01*
X126697280Y-122153890D01*
X127170309Y-122359611D01*
X127730445Y-122588473D01*
X128340750Y-122825787D01*
X128964284Y-123056865D01*
X129564109Y-123267020D01*
X129602500Y-123279977D01*
X130830167Y-123693227D01*
X130853488Y-122328557D01*
X130859977Y-121867329D01*
X130862916Y-121469937D01*
X130862307Y-121165220D01*
X130858150Y-120982017D01*
X130853488Y-120941702D01*
X130765932Y-120944034D01*
X130540171Y-120965190D01*
X130205898Y-121001990D01*
X129792806Y-121051256D01*
X129567100Y-121079428D01*
X129001229Y-121156089D01*
X128508186Y-121236532D01*
X128037070Y-121331644D01*
X127536976Y-121452316D01*
X126957002Y-121609436D01*
X126559963Y-121722711D01*
X126099760Y-121855612D01*
X118831224Y-121855612D01*
X118870334Y-120597929D01*
X118241817Y-120098800D01*
X122744500Y-120098800D01*
X122786833Y-120141133D01*
X122829167Y-120098800D01*
X122786833Y-120056467D01*
X122744500Y-120098800D01*
X118241817Y-120098800D01*
X118135201Y-120014133D01*
X122575167Y-120014133D01*
X122617500Y-120056467D01*
X122659833Y-120014133D01*
X122617500Y-119971800D01*
X122575167Y-120014133D01*
X118135201Y-120014133D01*
X117865250Y-119799756D01*
X117793299Y-119741037D01*
X122170049Y-119741037D01*
X122184636Y-119767316D01*
X122273849Y-119840129D01*
X122424888Y-119951159D01*
X122484628Y-119960898D01*
X122490500Y-119932445D01*
X122424003Y-119870406D01*
X122300000Y-119800775D01*
X122170049Y-119741037D01*
X117793299Y-119741037D01*
X117587072Y-119572736D01*
X121911481Y-119572736D01*
X121932082Y-119620051D01*
X122017332Y-119710945D01*
X122066342Y-119692299D01*
X122067167Y-119680463D01*
X122007030Y-119608851D01*
X121969418Y-119582715D01*
X121911481Y-119572736D01*
X117587072Y-119572736D01*
X116964596Y-119064737D01*
X116070572Y-118298077D01*
X115233712Y-117543875D01*
X114691266Y-117029754D01*
X114131031Y-116485034D01*
X113515964Y-116960259D01*
X112982810Y-117328936D01*
X112365952Y-117685911D01*
X111723319Y-118001646D01*
X111112841Y-118246600D01*
X110806500Y-118341877D01*
X110502561Y-118408437D01*
X110150763Y-118452526D01*
X109713981Y-118477055D01*
X109155089Y-118484935D01*
X108986167Y-118484620D01*
X108471508Y-118479541D01*
X108084091Y-118466125D01*
X107781858Y-118439391D01*
X107522751Y-118394357D01*
X107264713Y-118326040D01*
X107038833Y-118253953D01*
X106252728Y-117937786D01*
X105550496Y-117530295D01*
X104883783Y-117001170D01*
X104579530Y-116712386D01*
X103961523Y-116008740D01*
X103500703Y-115273922D01*
X103184994Y-114481707D01*
X103002323Y-113605867D01*
X102974414Y-113325467D01*
X105705194Y-113325467D01*
X105991013Y-113060459D01*
X106313238Y-112795866D01*
X106593036Y-112652132D01*
X106876846Y-112605978D01*
X106897985Y-112605800D01*
X107044582Y-112629602D01*
X107155380Y-112713917D01*
X107235009Y-112878106D01*
X107288100Y-113141530D01*
X107319283Y-113523551D01*
X107333189Y-114043530D01*
X107335167Y-114433771D01*
X107340635Y-114940992D01*
X107356152Y-115346975D01*
X107380390Y-115630710D01*
X107412018Y-115771186D01*
X107420431Y-115781169D01*
X107518271Y-115766619D01*
X107544521Y-115722666D01*
X107717289Y-115246729D01*
X107864751Y-114894429D01*
X108007642Y-114626449D01*
X108166703Y-114403473D01*
X108345716Y-114203692D01*
X108587546Y-113970368D01*
X108773653Y-113843748D01*
X108950915Y-113795826D01*
X109034102Y-113792430D01*
X109260255Y-113810412D01*
X109415166Y-113852321D01*
X109421241Y-113855930D01*
X109530855Y-114012374D01*
X109618127Y-114309792D01*
X109677757Y-114720682D01*
X109704440Y-115217544D01*
X109705361Y-115329475D01*
X109705833Y-116063484D01*
X110023333Y-115977417D01*
X110274313Y-115889270D01*
X110590978Y-115751495D01*
X110820371Y-115637667D01*
X110892307Y-115593923D01*
X116892341Y-115593923D01*
X117214920Y-115927238D01*
X117470798Y-116176390D01*
X117824295Y-116499892D01*
X118240096Y-116867201D01*
X118682887Y-117247772D01*
X119117353Y-117611062D01*
X119508181Y-117926528D01*
X119683618Y-118062423D01*
X119892123Y-118217142D01*
X120174114Y-118421549D01*
X120500454Y-118655101D01*
X120842009Y-118897254D01*
X121169643Y-119127463D01*
X121454220Y-119325186D01*
X121666605Y-119469877D01*
X121777662Y-119540993D01*
X121785952Y-119544819D01*
X121736228Y-119490300D01*
X121589700Y-119339268D01*
X121369188Y-119115057D01*
X121106427Y-118849967D01*
X120452315Y-118081257D01*
X119953878Y-117246601D01*
X119610027Y-116344083D01*
X119546009Y-116098897D01*
X119400167Y-115485661D01*
X118595833Y-115485800D01*
X118178973Y-115491850D01*
X117766953Y-115507850D01*
X117429712Y-115530782D01*
X117341920Y-115539931D01*
X116892341Y-115593923D01*
X110892307Y-115593923D01*
X111148809Y-115437947D01*
X111506321Y-115181559D01*
X111749355Y-114981432D01*
X112198802Y-114578880D01*
X111727565Y-113867507D01*
X111008084Y-112721837D01*
X110330140Y-111526105D01*
X109716046Y-110323488D01*
X109188115Y-109157168D01*
X108849904Y-108298784D01*
X108707447Y-107915308D01*
X108581386Y-107589509D01*
X108484992Y-107354774D01*
X108431534Y-107244492D01*
X108430234Y-107242852D01*
X108366306Y-107284802D01*
X108229777Y-107445928D01*
X108037395Y-107701565D01*
X107805911Y-108027049D01*
X107552073Y-108397714D01*
X107292631Y-108788897D01*
X107044335Y-109175932D01*
X106823933Y-109534155D01*
X106648175Y-109838900D01*
X106581068Y-109965896D01*
X106268023Y-110660902D01*
X106015061Y-111372684D01*
X105837530Y-112051661D01*
X105750784Y-112648133D01*
X105705194Y-113325467D01*
X102974414Y-113325467D01*
X102961773Y-113198467D01*
X102958138Y-112270664D01*
X103079934Y-111315612D01*
X103330468Y-110325469D01*
X103713048Y-109292396D01*
X104230980Y-108208552D01*
X104887572Y-107066097D01*
X104994452Y-106904295D01*
X111494163Y-106904295D01*
X111515043Y-107047072D01*
X111522065Y-107075467D01*
X111595125Y-107300984D01*
X111726995Y-107644561D01*
X111902693Y-108071848D01*
X112107240Y-108548494D01*
X112325656Y-109040149D01*
X112542960Y-109512461D01*
X112744174Y-109931082D01*
X112899981Y-110235133D01*
X113106021Y-110601184D01*
X113360738Y-111026989D01*
X113645385Y-111483971D01*
X113941216Y-111943555D01*
X114229486Y-112377162D01*
X114491447Y-112756218D01*
X114708355Y-113052143D01*
X114861463Y-113236363D01*
X114882027Y-113256594D01*
X115014418Y-113351092D01*
X115193499Y-113420467D01*
X115441865Y-113467040D01*
X115782109Y-113493132D01*
X116236826Y-113501065D01*
X116828610Y-113493161D01*
X117114167Y-113485935D01*
X117614105Y-113473293D01*
X118118047Y-113462637D01*
X118569767Y-113455032D01*
X118913040Y-113451541D01*
X118934500Y-113451471D01*
X119569500Y-113449855D01*
X119963197Y-112625661D01*
X120200924Y-112168801D01*
X120466607Y-111747583D01*
X120777081Y-111345580D01*
X121149183Y-110946362D01*
X121599746Y-110533499D01*
X122145605Y-110090562D01*
X122803597Y-109601123D01*
X123590556Y-109048751D01*
X123718167Y-108961229D01*
X124151012Y-108663393D01*
X124557878Y-108380325D01*
X124908788Y-108133114D01*
X125173767Y-107942848D01*
X125304599Y-107845133D01*
X125621031Y-107597929D01*
X125484071Y-107329031D01*
X125372169Y-107121122D01*
X125207798Y-106829401D01*
X125025585Y-106515275D01*
X125016870Y-106500494D01*
X124686628Y-105940855D01*
X123652064Y-106183782D01*
X122584061Y-106427802D01*
X121641793Y-106626061D01*
X120789253Y-106782932D01*
X119990435Y-106902790D01*
X119209332Y-106990008D01*
X118409937Y-107048960D01*
X117556244Y-107084020D01*
X116612247Y-107099561D01*
X116098167Y-107101379D01*
X115412136Y-107095634D01*
X114695855Y-107079165D01*
X113981727Y-107053583D01*
X113302155Y-107020500D01*
X112689543Y-106981530D01*
X112176293Y-106938285D01*
X111794810Y-106892377D01*
X111748357Y-106884925D01*
X111558399Y-106861644D01*
X111494163Y-106904295D01*
X104994452Y-106904295D01*
X105686132Y-105857190D01*
X106563477Y-104660676D01*
X106904448Y-104213438D01*
X107155802Y-103876120D01*
X107331180Y-103624434D01*
X107444225Y-103434095D01*
X107508576Y-103280814D01*
X107537877Y-103140305D01*
X107545768Y-102988282D01*
X107545973Y-102911467D01*
X107535111Y-102679246D01*
X107505734Y-102320069D01*
X107461737Y-101874826D01*
X107407013Y-101384404D01*
X107376651Y-101133467D01*
X107328635Y-100719635D01*
X107290367Y-100316585D01*
X107260841Y-99898145D01*
X107239052Y-99438143D01*
X107223994Y-98910409D01*
X107214661Y-98288769D01*
X107212755Y-97982260D01*
X109850526Y-97982260D01*
X109902680Y-99261530D01*
X109951206Y-100105268D01*
X110029843Y-100912767D01*
X110145923Y-101741205D01*
X110306776Y-102647759D01*
X110392177Y-103078993D01*
X110502984Y-103613940D01*
X110590911Y-104006376D01*
X110663502Y-104280365D01*
X110728303Y-104459974D01*
X110792860Y-104569267D01*
X110864718Y-104632311D01*
X110882383Y-104642433D01*
X111049879Y-104696393D01*
X111355266Y-104760723D01*
X111767761Y-104830848D01*
X112256584Y-104902193D01*
X112790953Y-104970185D01*
X113340085Y-105030249D01*
X113740102Y-105067092D01*
X114318792Y-105099781D01*
X115021906Y-105114536D01*
X115805598Y-105112392D01*
X116626025Y-105094386D01*
X117439342Y-105061550D01*
X118201704Y-105014922D01*
X118869268Y-104955535D01*
X118976833Y-104943471D01*
X119572471Y-104867177D01*
X120207154Y-104773834D01*
X120855181Y-104668388D01*
X121490852Y-104555787D01*
X122088464Y-104440978D01*
X122622318Y-104328908D01*
X123066711Y-104224526D01*
X123395943Y-104132777D01*
X123584312Y-104058610D01*
X123589363Y-104055581D01*
X123619269Y-103992575D01*
X123605275Y-103852554D01*
X123542121Y-103616117D01*
X123424549Y-103263861D01*
X123247298Y-102776385D01*
X123230003Y-102729946D01*
X122879075Y-101760223D01*
X122548867Y-100792336D01*
X122256175Y-99877052D01*
X122019397Y-99070924D01*
X121870258Y-98532381D01*
X121397212Y-98585852D01*
X119845966Y-98723427D01*
X118249304Y-98794005D01*
X116640927Y-98798888D01*
X115054542Y-98739378D01*
X113523853Y-98616780D01*
X112082562Y-98432395D01*
X110764376Y-98187526D01*
X110695359Y-98172159D01*
X109850526Y-97982260D01*
X107212755Y-97982260D01*
X107210048Y-97547053D01*
X107209093Y-96773133D01*
X107214723Y-95820401D01*
X109850119Y-95820401D01*
X110137809Y-95913671D01*
X110535077Y-96024250D01*
X111065331Y-96145016D01*
X111693026Y-96269699D01*
X112382616Y-96392028D01*
X113098556Y-96505734D01*
X113805301Y-96604545D01*
X114467304Y-96682193D01*
X114531833Y-96688769D01*
X114893016Y-96712528D01*
X115389527Y-96727470D01*
X115989188Y-96734174D01*
X116659817Y-96733216D01*
X117369235Y-96725174D01*
X118085260Y-96710626D01*
X118775714Y-96690147D01*
X119408415Y-96664316D01*
X119951183Y-96633710D01*
X120371839Y-96598907D01*
X120517211Y-96581403D01*
X120863400Y-96528136D01*
X121143099Y-96476246D01*
X121315863Y-96433664D01*
X121349756Y-96418099D01*
X121357740Y-96319864D01*
X121344746Y-96083544D01*
X121313325Y-95738743D01*
X121266029Y-95315069D01*
X121229541Y-95023366D01*
X121156498Y-94417703D01*
X121082743Y-93730168D01*
X121016386Y-93040925D01*
X120965535Y-92430139D01*
X120961185Y-92370467D01*
X120928044Y-91919717D01*
X120898023Y-91533742D01*
X120873519Y-91241687D01*
X120856930Y-91072694D01*
X120851914Y-91042581D01*
X120767655Y-91049753D01*
X120547789Y-91080358D01*
X120223699Y-91129742D01*
X119826767Y-91193249D01*
X119737392Y-91207895D01*
X119359404Y-91266028D01*
X119000988Y-91310489D01*
X118630718Y-91342956D01*
X118217169Y-91365108D01*
X117728914Y-91378624D01*
X117134529Y-91385183D01*
X116402587Y-91386463D01*
X116394500Y-91386454D01*
X115664051Y-91383818D01*
X115065224Y-91376068D01*
X114560334Y-91360947D01*
X114111694Y-91336197D01*
X113681618Y-91299560D01*
X113232419Y-91248778D01*
X112726410Y-91181595D01*
X112542167Y-91155672D01*
X112021067Y-91081136D01*
X111541525Y-91011565D01*
X111135109Y-90951617D01*
X110833388Y-90905947D01*
X110668339Y-90879286D01*
X110403177Y-90831375D01*
X110310530Y-91368088D01*
X110134317Y-92497907D01*
X110000223Y-93590327D01*
X109914790Y-94590351D01*
X109903100Y-94793934D01*
X109850119Y-95820401D01*
X107214723Y-95820401D01*
X107216288Y-95555764D01*
X107238106Y-94482535D01*
X107276095Y-93528762D01*
X107331803Y-92669756D01*
X107406781Y-91880832D01*
X107502576Y-91137303D01*
X107601070Y-90525160D01*
X107643440Y-90244224D01*
X107661953Y-90036529D01*
X107654111Y-89951856D01*
X107565663Y-89921362D01*
X107332480Y-89852890D01*
X106973551Y-89751692D01*
X106507863Y-89623023D01*
X105954404Y-89472136D01*
X105332161Y-89304284D01*
X104781489Y-89157026D01*
X103283421Y-88753266D01*
X101927580Y-88377161D01*
X100690553Y-88021190D01*
X99548928Y-87677833D01*
X98479293Y-87339568D01*
X97458235Y-86998875D01*
X96462342Y-86648232D01*
X95468200Y-86280119D01*
X94452398Y-85887014D01*
X93830833Y-85639268D01*
X91377263Y-84602005D01*
X89078268Y-83526126D01*
X86922203Y-82405321D01*
X84897420Y-81233281D01*
X82992273Y-80003697D01*
X81596500Y-79011504D01*
X79967936Y-77742407D01*
X78504952Y-76471216D01*
X77203809Y-75193437D01*
X76060773Y-73904574D01*
X75072105Y-72600131D01*
X74234068Y-71275614D01*
X73542926Y-69926526D01*
X73353024Y-69458374D01*
X83061031Y-69458374D01*
X83061846Y-69461591D01*
X83152884Y-69544158D01*
X83348961Y-69649300D01*
X83466193Y-69699060D01*
X83757367Y-69813823D01*
X84111775Y-69954711D01*
X84348167Y-70049298D01*
X84619645Y-70156005D01*
X84827082Y-70233298D01*
X84919667Y-70262871D01*
X84951188Y-70190470D01*
X84973914Y-69991087D01*
X84983144Y-69707021D01*
X84983167Y-69691356D01*
X84965183Y-69226055D01*
X84915893Y-68791023D01*
X84842291Y-68425325D01*
X84751369Y-68168023D01*
X84695817Y-68086165D01*
X84589837Y-68019006D01*
X84451340Y-68043617D01*
X84326828Y-68102610D01*
X84158691Y-68220313D01*
X83937130Y-68416191D01*
X83691661Y-68658534D01*
X83451801Y-68915634D01*
X83247065Y-69155780D01*
X83106970Y-69347263D01*
X83061031Y-69458374D01*
X73353024Y-69458374D01*
X73065055Y-68748467D01*
X72746583Y-67859467D01*
X71985708Y-67293621D01*
X71477599Y-66898321D01*
X71088329Y-66549389D01*
X70787378Y-66213409D01*
X70544225Y-65856963D01*
X70361071Y-65514730D01*
X70160277Y-65064647D01*
X69996739Y-64601998D01*
X69856300Y-64079074D01*
X69724803Y-63448168D01*
X69687563Y-63245133D01*
X69626574Y-62785414D01*
X69580276Y-62192307D01*
X69548682Y-61501121D01*
X69531809Y-60747165D01*
X69529671Y-59965748D01*
X69529750Y-59960846D01*
X72023007Y-59960846D01*
X72031379Y-60831041D01*
X72065135Y-61655966D01*
X72124297Y-62398584D01*
X72208889Y-63021857D01*
X72238986Y-63178870D01*
X72419305Y-63786095D01*
X72680687Y-64300949D01*
X72975426Y-64659880D01*
X73172980Y-64812288D01*
X73499297Y-65026466D01*
X73931274Y-65289287D01*
X74445804Y-65587623D01*
X75019784Y-65908345D01*
X75630109Y-66238326D01*
X76253673Y-66564438D01*
X76867374Y-66873553D01*
X76897500Y-66888384D01*
X77392184Y-67128207D01*
X77922729Y-67379532D01*
X78465691Y-67631862D01*
X78997624Y-67874699D01*
X79495082Y-68097544D01*
X79934619Y-68289900D01*
X80292790Y-68441269D01*
X80546148Y-68541152D01*
X80671249Y-68579053D01*
X80673574Y-68579133D01*
X80748245Y-68515783D01*
X80894902Y-68346973D01*
X81086452Y-68104566D01*
X81159533Y-68007633D01*
X81581090Y-67489126D01*
X82038245Y-67008927D01*
X82505314Y-66588477D01*
X82956616Y-66249215D01*
X83366467Y-66012581D01*
X83677981Y-65905206D01*
X83922375Y-65881147D01*
X84253089Y-65875505D01*
X84517512Y-65885117D01*
X85025198Y-65970307D01*
X85433455Y-66166483D01*
X85769472Y-66492756D01*
X86060441Y-66968240D01*
X86061550Y-66970467D01*
X86314414Y-67593035D01*
X86482885Y-68288075D01*
X86572679Y-69085628D01*
X86591833Y-69758498D01*
X86591833Y-70757460D01*
X87544333Y-71102671D01*
X88022042Y-71272616D01*
X88515489Y-71442629D01*
X88995737Y-71603339D01*
X89433848Y-71745373D01*
X89800885Y-71859360D01*
X90067911Y-71935928D01*
X90205987Y-71965706D01*
X90209416Y-71965800D01*
X90289524Y-71899056D01*
X90435206Y-71719411D01*
X90622582Y-71457740D01*
X90749581Y-71267300D01*
X91309882Y-70486133D01*
X91868338Y-69872003D01*
X92427885Y-69422677D01*
X92991463Y-69135927D01*
X93562009Y-69009521D01*
X93733371Y-69002533D01*
X94219703Y-69049378D01*
X94621805Y-69205535D01*
X94989577Y-69494216D01*
X95144291Y-69658839D01*
X95527058Y-70204046D01*
X95844855Y-70888028D01*
X96090459Y-71690380D01*
X96256650Y-72590695D01*
X96292648Y-72903920D01*
X96334436Y-73206419D01*
X96388995Y-73441190D01*
X96444588Y-73557868D01*
X96445135Y-73558287D01*
X96557574Y-73600670D01*
X96801822Y-73669676D01*
X97143919Y-73757351D01*
X97549909Y-73855740D01*
X97985834Y-73956887D01*
X98417737Y-74052836D01*
X98811661Y-74135634D01*
X99133647Y-74197324D01*
X99265803Y-74219082D01*
X99402337Y-74241245D01*
X99505769Y-74247133D01*
X99593983Y-74216820D01*
X99684859Y-74130381D01*
X99796278Y-73967892D01*
X99946122Y-73709427D01*
X100152272Y-73335061D01*
X100298322Y-73068554D01*
X100752285Y-72346483D01*
X101239453Y-71767534D01*
X101752065Y-71337990D01*
X102282358Y-71064137D01*
X102822572Y-70952259D01*
X102915161Y-70949800D01*
X103464738Y-71030889D01*
X103966340Y-71272549D01*
X104417932Y-71672368D01*
X104817479Y-72227935D01*
X105162947Y-72936838D01*
X105452301Y-73796664D01*
X105514523Y-74030543D01*
X105604343Y-74398958D01*
X105675293Y-74717261D01*
X105718121Y-74942373D01*
X105726500Y-75017432D01*
X105741717Y-75074838D01*
X105799540Y-75121706D01*
X105918230Y-75160375D01*
X106116047Y-75193182D01*
X106411249Y-75222467D01*
X106822098Y-75250567D01*
X107366853Y-75279821D01*
X108013462Y-75310285D01*
X109072758Y-75358415D01*
X109308992Y-74487607D01*
X109597953Y-73587603D01*
X109935300Y-72832221D01*
X110317131Y-72224793D01*
X110739547Y-71768651D01*
X111198648Y-71467126D01*
X111690532Y-71323552D01*
X112211301Y-71341259D01*
X112757054Y-71523580D01*
X112770732Y-71530154D01*
X113182027Y-71779999D01*
X113572051Y-72127656D01*
X113954010Y-72589457D01*
X114341112Y-73181734D01*
X114746562Y-73920821D01*
X114818415Y-74062543D01*
X114997476Y-74413790D01*
X115124286Y-74638072D01*
X115220494Y-74760781D01*
X115307749Y-74807306D01*
X115407702Y-74803040D01*
X115443474Y-74795635D01*
X116913285Y-74426760D01*
X118237191Y-74002517D01*
X119431453Y-73516285D01*
X120512330Y-72961445D01*
X121496084Y-72331374D01*
X121496808Y-72330859D01*
X121742705Y-72142685D01*
X122052546Y-71886087D01*
X122404204Y-71581580D01*
X122775554Y-71249676D01*
X123144468Y-70910886D01*
X123488822Y-70585724D01*
X123786487Y-70294701D01*
X124015340Y-70058331D01*
X124153252Y-69897125D01*
X124183833Y-69839815D01*
X124109316Y-69780939D01*
X123915819Y-69699651D01*
X123697000Y-69629097D01*
X123189112Y-69463229D01*
X122833864Y-69295321D01*
X122615020Y-69110876D01*
X122516346Y-68895398D01*
X122521608Y-68634389D01*
X122530916Y-68587863D01*
X122680243Y-68283197D01*
X122967549Y-68022962D01*
X123365643Y-67814265D01*
X123847336Y-67664211D01*
X124385436Y-67579909D01*
X124952754Y-67568463D01*
X125522100Y-67636980D01*
X125853514Y-67719473D01*
X126625412Y-68036652D01*
X127294735Y-68479779D01*
X127850693Y-69033061D01*
X128282495Y-69680709D01*
X128579353Y-70406931D01*
X128730475Y-71195937D01*
X128733928Y-71934845D01*
X128649833Y-72424822D01*
X128488723Y-72768421D01*
X128251966Y-72962848D01*
X128224888Y-72973718D01*
X128054012Y-73013392D01*
X127898548Y-72982535D01*
X127735819Y-72862908D01*
X127543147Y-72636268D01*
X127297856Y-72284375D01*
X127219125Y-72164699D01*
X127006318Y-71849030D01*
X126823408Y-71596867D01*
X126691301Y-71435807D01*
X126633401Y-71391439D01*
X126557294Y-71461965D01*
X126395666Y-71637702D01*
X126171003Y-71893446D01*
X125905789Y-72203992D01*
X125859575Y-72258889D01*
X124860428Y-73321496D01*
X123732072Y-74283151D01*
X122469766Y-75147483D01*
X121093500Y-75905915D01*
X119635573Y-76555292D01*
X118106303Y-77094890D01*
X116495006Y-77526649D01*
X114790995Y-77852507D01*
X112983586Y-78074403D01*
X111062092Y-78194276D01*
X109015830Y-78214065D01*
X108435833Y-78202376D01*
X106840179Y-78142355D01*
X105341182Y-78045430D01*
X103888623Y-77905921D01*
X102432285Y-77718150D01*
X100921952Y-77476439D01*
X99307404Y-77175109D01*
X99249500Y-77163634D01*
X95274948Y-76300829D01*
X91640012Y-75371653D01*
X111483833Y-75371653D01*
X111561574Y-75403066D01*
X111769500Y-75415924D01*
X112069664Y-75411819D01*
X112424120Y-75392342D01*
X112794923Y-75359083D01*
X113144125Y-75313635D01*
X113237609Y-75298108D01*
X113509718Y-75250102D01*
X113289719Y-74814451D01*
X113056409Y-74388557D01*
X112819618Y-74019506D01*
X112602058Y-73739517D01*
X112426438Y-73580810D01*
X112416018Y-73574922D01*
X112308744Y-73543627D01*
X112211347Y-73600429D01*
X112088658Y-73772376D01*
X112028391Y-73873018D01*
X111900948Y-74124982D01*
X111764093Y-74448764D01*
X111636825Y-74792076D01*
X111538142Y-75102634D01*
X111487044Y-75328154D01*
X111483833Y-75371653D01*
X91640012Y-75371653D01*
X91405014Y-75311582D01*
X89539271Y-74758759D01*
X102154847Y-74758759D01*
X102186099Y-74799615D01*
X102314095Y-74827771D01*
X102577566Y-74874293D01*
X102944299Y-74933977D01*
X103382086Y-75001618D01*
X103858714Y-75072011D01*
X103974854Y-75088672D01*
X104003705Y-75019880D01*
X104000873Y-74833621D01*
X103984973Y-74696300D01*
X103902969Y-74306679D01*
X103776210Y-73897621D01*
X103626238Y-73528459D01*
X103474598Y-73258526D01*
X103452387Y-73229455D01*
X103304510Y-73046834D01*
X102928005Y-73465672D01*
X102677879Y-73768859D01*
X102458834Y-74079727D01*
X102287536Y-74368311D01*
X102180651Y-74604644D01*
X102154847Y-74758759D01*
X89539271Y-74758759D01*
X87642458Y-74196730D01*
X83990041Y-72957111D01*
X83288085Y-72686692D01*
X92715436Y-72686692D01*
X92719466Y-72702988D01*
X92811301Y-72740073D01*
X93025053Y-72809263D01*
X93319161Y-72898529D01*
X93652060Y-72995841D01*
X93982188Y-73089168D01*
X94267983Y-73166479D01*
X94467881Y-73215746D01*
X94529333Y-73226843D01*
X94608157Y-73159977D01*
X94635167Y-72997350D01*
X94605501Y-72629430D01*
X94527704Y-72199873D01*
X94418577Y-71783536D01*
X94294917Y-71455277D01*
X94284286Y-71433858D01*
X94118153Y-71108211D01*
X93847493Y-71274641D01*
X93707612Y-71392205D01*
X93517105Y-71592707D01*
X93301980Y-71843215D01*
X93088243Y-72110799D01*
X92901902Y-72362527D01*
X92768964Y-72565468D01*
X92715436Y-72686692D01*
X83288085Y-72686692D01*
X80450522Y-71593560D01*
X79298414Y-71112569D01*
X78747656Y-70876172D01*
X78209537Y-70641744D01*
X77717561Y-70424140D01*
X77305230Y-70238214D01*
X77006048Y-70098819D01*
X76946635Y-70069912D01*
X76342610Y-69771395D01*
X76849280Y-70508764D01*
X77985081Y-72026071D01*
X79237386Y-73437041D01*
X80626887Y-74764906D01*
X80688786Y-74819406D01*
X82249274Y-76101406D01*
X83966290Y-77348471D01*
X85829729Y-78555773D01*
X87829483Y-79718485D01*
X89955447Y-80831778D01*
X92197513Y-81890823D01*
X94545575Y-82890793D01*
X96989527Y-83826859D01*
X99519261Y-84694192D01*
X102124672Y-85487965D01*
X104202500Y-86052826D01*
X105282263Y-86323835D01*
X106341876Y-86573967D01*
X107397510Y-86805724D01*
X108465336Y-87021607D01*
X109561524Y-87224120D01*
X110702245Y-87415764D01*
X111903671Y-87599041D01*
X113181971Y-87776454D01*
X114553318Y-87950505D01*
X116033882Y-88123696D01*
X117639833Y-88298529D01*
X119387344Y-88477506D01*
X120712500Y-88607466D01*
X121320171Y-88666519D01*
X121869722Y-88720660D01*
X122339509Y-88767698D01*
X122707887Y-88805441D01*
X122953211Y-88831696D01*
X123053836Y-88844273D01*
X123055118Y-88844703D01*
X123083788Y-88925783D01*
X123123154Y-89071308D01*
X123119756Y-89290536D01*
X122993743Y-89553934D01*
X122960702Y-89604061D01*
X122862096Y-89782591D01*
X122793578Y-89997235D01*
X122754463Y-90270001D01*
X122744064Y-90622899D01*
X122761696Y-91077938D01*
X122806672Y-91657128D01*
X122875078Y-92351708D01*
X123017750Y-93567387D01*
X123186512Y-94712106D01*
X123391678Y-95842853D01*
X123643563Y-97016618D01*
X123943455Y-98254800D01*
X124237467Y-99314663D01*
X124586402Y-100402238D01*
X124977738Y-101486860D01*
X125398953Y-102537867D01*
X125837524Y-103524592D01*
X126280929Y-104416373D01*
X126716644Y-105182544D01*
X126871876Y-105425744D01*
X127089101Y-105753995D01*
X127338316Y-105518064D01*
X127493366Y-105341140D01*
X127728548Y-105027639D01*
X128045160Y-104575675D01*
X128444503Y-103983359D01*
X128927875Y-103248802D01*
X129378816Y-102553025D01*
X129668936Y-102155406D01*
X129926873Y-101919833D01*
X130161098Y-101843973D01*
X130380083Y-101925492D01*
X130592301Y-102162057D01*
X130623665Y-102210123D01*
X130695874Y-102339135D01*
X130743251Y-102477492D01*
X130769291Y-102659942D01*
X130777485Y-102921231D01*
X130771326Y-103296108D01*
X130762234Y-103588800D01*
X130739212Y-104100326D01*
X130705083Y-104488723D01*
X130653069Y-104800140D01*
X130576392Y-105080723D01*
X130519052Y-105244551D01*
X130061488Y-106234695D01*
X129446961Y-107170085D01*
X128681202Y-108042923D01*
X128021873Y-108642866D01*
X127813826Y-108812682D01*
X127591801Y-108987016D01*
X127339360Y-109177623D01*
X127040066Y-109396258D01*
X126677480Y-109654676D01*
X126235165Y-109964631D01*
X125696682Y-110337878D01*
X125045594Y-110786172D01*
X124527136Y-111141941D01*
X124013479Y-111521244D01*
X123522430Y-111933657D01*
X123091791Y-112344688D01*
X122759365Y-112719843D01*
X122678435Y-112828783D01*
X122492997Y-113094100D01*
X123025437Y-113051361D01*
X123332037Y-113034806D01*
X123530572Y-113054599D01*
X123680634Y-113123306D01*
X123796565Y-113213932D01*
X123949332Y-113397781D01*
X123988595Y-113607577D01*
X123909770Y-113867412D01*
X123708273Y-114201379D01*
X123573588Y-114385924D01*
X123313994Y-114744834D01*
X123073165Y-115106937D01*
X122870971Y-115439252D01*
X122727280Y-115708795D01*
X122661962Y-115882585D01*
X122660051Y-115902343D01*
X122714147Y-116047709D01*
X122835596Y-116210977D01*
X123011358Y-116398067D01*
X123343418Y-116037824D01*
X123606283Y-115797997D01*
X123939130Y-115554033D01*
X124182341Y-115407426D01*
X124497179Y-115253986D01*
X124750401Y-115177060D01*
X125020077Y-115157446D01*
X125177352Y-115162702D01*
X125665500Y-115188133D01*
X125659560Y-115529457D01*
X125612147Y-115810321D01*
X125485222Y-116197720D01*
X125302681Y-116629348D01*
X125141941Y-116973769D01*
X125050522Y-117206692D01*
X125045855Y-117357025D01*
X125145374Y-117453672D01*
X125366510Y-117525539D01*
X125726695Y-117601533D01*
X125911662Y-117639159D01*
X126784179Y-117758272D01*
X127759411Y-117784117D01*
X128801620Y-117720914D01*
X129875067Y-117572888D01*
X130944014Y-117344258D01*
X131972723Y-117039247D01*
X132438833Y-116868085D01*
X133350832Y-116470905D01*
X134214896Y-116009828D01*
X135052174Y-115469092D01*
X135883815Y-114832939D01*
X136730968Y-114085607D01*
X137614782Y-113211335D01*
X138238500Y-112546140D01*
X138598593Y-112172800D01*
X138886926Y-111927876D01*
X139126430Y-111799399D01*
X139340035Y-111775400D01*
X139550669Y-111843911D01*
X139567233Y-111852577D01*
X139679013Y-111923114D01*
X139739786Y-112013335D01*
X139760542Y-112167449D01*
X139752269Y-112429665D01*
X139744000Y-112563729D01*
X139670534Y-113027921D01*
X139513209Y-113584874D01*
X139288975Y-114191294D01*
X139014780Y-114803885D01*
X138707574Y-115379351D01*
X138529482Y-115666163D01*
X137879677Y-116508447D01*
X137072566Y-117308845D01*
X136116546Y-118060341D01*
X135020016Y-118755917D01*
X134478450Y-119051166D01*
X133548666Y-119534659D01*
X133571037Y-121129063D01*
X133546521Y-122514703D01*
X133430240Y-123772428D01*
X133219339Y-124918434D01*
X132910963Y-125968919D01*
X132572758Y-126793100D01*
X132355997Y-127233402D01*
X132138507Y-127618460D01*
X131894769Y-127984286D01*
X131599266Y-128366892D01*
X131226478Y-128802289D01*
X130867248Y-129199956D01*
X130563449Y-129537955D01*
X130295055Y-129848787D01*
X130086525Y-130103232D01*
X129962318Y-130272072D01*
X129945421Y-130301133D01*
X129911524Y-130392021D01*
X129969363Y-130351614D01*
X130099369Y-130205640D01*
X130449954Y-129874404D01*
X130900770Y-129566997D01*
X131402239Y-129308129D01*
X131904781Y-129122510D01*
X132358816Y-129034850D01*
X132455936Y-129031133D01*
X132685237Y-129082291D01*
X132916296Y-129209355D01*
X133092758Y-129372708D01*
X133158500Y-129525019D01*
X133111816Y-129619990D01*
X132984282Y-129823221D01*
X132794675Y-130106047D01*
X132561771Y-130439805D01*
X132530115Y-130484287D01*
X132220485Y-130937225D01*
X131965756Y-131347234D01*
X131777231Y-131693055D01*
X131666217Y-131953428D01*
X131644017Y-132107094D01*
X131655744Y-132128600D01*
X131760498Y-132169562D01*
X131960226Y-132213405D01*
X131987856Y-132218048D01*
X132145092Y-132234387D01*
X132260305Y-132202233D01*
X132371452Y-132092766D01*
X132516492Y-131877167D01*
X132587608Y-131762683D01*
X133077226Y-131119876D01*
X133669886Y-130603960D01*
X134199792Y-130295654D01*
X134661330Y-130120917D01*
X135069476Y-130050007D01*
X135403823Y-130079605D01*
X135643966Y-130206395D01*
X135769498Y-130427057D01*
X135783167Y-130553125D01*
X135736252Y-130726309D01*
X135606537Y-131003573D01*
X135410564Y-131351865D01*
X135270637Y-131577169D01*
X134758107Y-132375467D01*
X135037803Y-132417800D01*
X135351163Y-132435766D01*
X135781264Y-132420616D01*
X136279835Y-132377249D01*
X136798607Y-132310568D01*
X137289311Y-132225472D01*
X137583247Y-132159356D01*
X138637800Y-131805021D01*
X139638334Y-131292180D01*
X140578755Y-130624740D01*
X141452965Y-129806604D01*
X141723373Y-129507113D01*
X142618899Y-128359921D01*
X143398296Y-127114666D01*
X144033201Y-125828758D01*
X147637147Y-125828758D01*
X147661465Y-125873536D01*
X147748375Y-125907826D01*
X147917096Y-125933147D01*
X148186846Y-125951019D01*
X148576845Y-125962959D01*
X149106313Y-125970487D01*
X149466211Y-125973312D01*
X150999589Y-125983133D01*
X151022600Y-125910220D01*
X153250787Y-125910220D01*
X153297598Y-125944328D01*
X153408143Y-125967173D01*
X153598297Y-125978922D01*
X153883934Y-125979743D01*
X154280927Y-125969803D01*
X154805151Y-125949270D01*
X155472479Y-125918310D01*
X155976167Y-125893395D01*
X156662258Y-125858625D01*
X157199268Y-125827934D01*
X157607198Y-125796165D01*
X157906049Y-125758167D01*
X158115822Y-125708784D01*
X158256517Y-125642862D01*
X158348134Y-125555247D01*
X158410675Y-125440786D01*
X158464141Y-125294324D01*
X158479747Y-125248234D01*
X158588906Y-124895119D01*
X158694721Y-124502931D01*
X158732692Y-124343493D01*
X158787879Y-124070487D01*
X158792178Y-123894904D01*
X158734709Y-123749625D01*
X158607516Y-123571370D01*
X158363172Y-123223650D01*
X158079635Y-122777471D01*
X157783842Y-122279641D01*
X157502729Y-121776968D01*
X157263234Y-121316258D01*
X157092294Y-120944320D01*
X157084185Y-120924300D01*
X156838244Y-120310467D01*
X154181201Y-120310467D01*
X154130599Y-121220633D01*
X154094024Y-121707034D01*
X154039189Y-122234882D01*
X153975565Y-122717737D01*
X153947378Y-122892800D01*
X153885819Y-123215390D01*
X153799541Y-123626270D01*
X153697192Y-124088495D01*
X153587418Y-124565119D01*
X153478866Y-125019194D01*
X153380183Y-125413775D01*
X153300016Y-125711915D01*
X153251837Y-125864683D01*
X153250787Y-125910220D01*
X151022600Y-125910220D01*
X151183694Y-125399793D01*
X151337229Y-124841516D01*
X151488164Y-124163243D01*
X151629341Y-123410689D01*
X151753604Y-122629567D01*
X151853794Y-121865594D01*
X151922756Y-121164483D01*
X151953333Y-120571948D01*
X151954211Y-120478188D01*
X151954500Y-120180242D01*
X150261167Y-119966773D01*
X148567833Y-119753305D01*
X148567833Y-120403915D01*
X148529461Y-121334853D01*
X148420609Y-122355456D01*
X148250674Y-123406076D01*
X148029053Y-124427068D01*
X147808902Y-125221133D01*
X147722604Y-125506261D01*
X147660896Y-125724578D01*
X147637147Y-125828758D01*
X144033201Y-125828758D01*
X144066658Y-125760996D01*
X144629077Y-124288562D01*
X145090647Y-122687011D01*
X145102142Y-122640322D01*
X145241441Y-122014993D01*
X145351860Y-121382241D01*
X145433860Y-120723294D01*
X145487902Y-120019381D01*
X145514449Y-119251729D01*
X145513963Y-118401568D01*
X145486906Y-117450124D01*
X145433740Y-116378628D01*
X145354926Y-115168306D01*
X145303245Y-114468467D01*
X145254779Y-113833467D01*
X145942784Y-114542413D01*
X146488530Y-115127538D01*
X146917086Y-115641026D01*
X147249127Y-116109562D01*
X147504340Y-116557858D01*
X147673220Y-116845830D01*
X147842982Y-117012191D01*
X147997721Y-117083874D01*
X148231463Y-117135900D01*
X148610103Y-117192592D01*
X149109336Y-117251956D01*
X149704859Y-117312001D01*
X150372366Y-117370733D01*
X151087554Y-117426160D01*
X151826117Y-117476288D01*
X152563753Y-117519126D01*
X153276155Y-117552681D01*
X153939020Y-117574959D01*
X154007667Y-117576631D01*
X156103167Y-117625529D01*
X156103405Y-116491498D01*
X156159088Y-115072758D01*
X156329381Y-113766247D01*
X156620086Y-112554445D01*
X157037002Y-111419833D01*
X157585930Y-110344894D01*
X158272672Y-109312107D01*
X158633701Y-108849717D01*
X159375681Y-108033256D01*
X160186906Y-107306326D01*
X161047189Y-106680326D01*
X161936343Y-106166658D01*
X162834178Y-105776722D01*
X163720509Y-105521919D01*
X164575146Y-105413649D01*
X164723566Y-105410603D01*
X165120464Y-105438513D01*
X165389616Y-105533841D01*
X165563552Y-105709368D01*
X165586872Y-105749740D01*
X165632295Y-105891015D01*
X165601059Y-106033788D01*
X165477288Y-106196310D01*
X165245106Y-106396826D01*
X164888639Y-106653587D01*
X164674850Y-106798082D01*
X163401846Y-107748135D01*
X162213519Y-108841239D01*
X161691426Y-109397153D01*
X160850423Y-110429436D01*
X160173383Y-111473718D01*
X159654952Y-112544245D01*
X159289774Y-113655263D01*
X159072494Y-114821019D01*
X158997758Y-116055760D01*
X159005505Y-116542800D01*
X159079855Y-117547413D01*
X159234662Y-118435872D01*
X159481574Y-119246746D01*
X159832243Y-120018605D01*
X160280203Y-120763014D01*
X160791691Y-121453503D01*
X161398103Y-122131290D01*
X162112402Y-122807575D01*
X162947549Y-123493556D01*
X163916505Y-124200433D01*
X165032232Y-124939405D01*
X165333075Y-125128890D01*
X165941809Y-125520585D01*
X166414055Y-125855946D01*
X166765561Y-126152791D01*
X167012072Y-126428940D01*
X167169334Y-126702210D01*
X167253094Y-126990420D01*
X167279099Y-127311390D01*
X167279167Y-127331097D01*
X167268482Y-127564952D01*
X167223482Y-127759426D01*
X167124746Y-127935106D01*
X166952854Y-128112583D01*
X166688387Y-128312445D01*
X166311923Y-128555281D01*
X165875777Y-128818963D01*
X165185789Y-129246990D01*
X164633182Y-129629953D01*
X164197902Y-129985138D01*
X163859895Y-130329834D01*
X163599106Y-130681329D01*
X163482028Y-130882486D01*
X163339346Y-131164702D01*
X163273103Y-131351269D01*
X163272048Y-131491396D01*
X163315007Y-131612958D01*
X163443084Y-131784223D01*
X163639993Y-131950843D01*
X163838492Y-132061158D01*
X163921803Y-132079133D01*
X163983772Y-132013854D01*
X164106127Y-131844496D01*
X164230501Y-131656837D01*
X164538946Y-131253722D01*
X164936475Y-130844056D01*
X165369231Y-130477514D01*
X165783357Y-130203770D01*
X165835836Y-130176159D01*
X166151377Y-130043613D01*
X166528038Y-129922767D01*
X166744617Y-129869663D01*
X167207420Y-129817886D01*
X167552122Y-129880944D01*
X167787284Y-130061294D01*
X167863931Y-130190601D01*
X167907078Y-130321378D01*
X167889255Y-130445996D01*
X167793137Y-130609674D01*
X167614717Y-130841045D01*
X167264073Y-131284449D01*
X166965246Y-131674712D01*
X166732027Y-131992968D01*
X166578208Y-132220350D01*
X166517581Y-132337991D01*
X166517167Y-132342447D01*
X166597723Y-132374294D01*
X166823488Y-132396674D01*
X167170604Y-132409648D01*
X167615216Y-132413278D01*
X168133466Y-132407624D01*
X168701497Y-132392746D01*
X169295453Y-132368706D01*
X169891477Y-132335564D01*
X169919205Y-132333779D01*
X171192129Y-132225753D01*
X172368909Y-132069158D01*
X173518279Y-131854013D01*
X174052500Y-131733633D01*
X175064122Y-131475306D01*
X175927908Y-131210239D01*
X176665322Y-130928292D01*
X177297825Y-130619326D01*
X177846882Y-130273200D01*
X178333956Y-129879775D01*
X178664890Y-129554575D01*
X179102324Y-128968875D01*
X179412099Y-128278343D01*
X179592926Y-127490865D01*
X179643513Y-126614327D01*
X179562569Y-125656615D01*
X179422950Y-124924800D01*
X179245953Y-124158977D01*
X179104055Y-123535057D01*
X178993339Y-123030163D01*
X178909887Y-122621420D01*
X178849781Y-122285955D01*
X178809104Y-122000891D01*
X178783937Y-121743353D01*
X178770364Y-121490467D01*
X178764467Y-121219356D01*
X178763189Y-121072467D01*
X178786482Y-120348204D01*
X178872528Y-119743117D01*
X179030247Y-119215835D01*
X179268561Y-118724985D01*
X179269764Y-118722907D01*
X179523301Y-118347252D01*
X179768171Y-118121801D01*
X180024286Y-118029856D01*
X180100965Y-118025763D01*
X180227715Y-118025216D01*
X180329210Y-118033984D01*
X180412085Y-118069804D01*
X180482974Y-118150411D01*
X180548511Y-118293543D01*
X180615331Y-118516935D01*
X180690070Y-118838326D01*
X180779360Y-119275450D01*
X180889839Y-119846045D01*
X181003100Y-120437467D01*
X181074876Y-120772525D01*
X181152806Y-120964820D01*
X181269443Y-121038852D01*
X181457338Y-121019120D01*
X181685226Y-120950868D01*
X182127819Y-120791599D01*
X182690789Y-120564139D01*
X183346055Y-120281752D01*
X184065542Y-119957702D01*
X184821169Y-119605254D01*
X185584858Y-119237672D01*
X186328533Y-118868222D01*
X187024113Y-118510168D01*
X187643522Y-118176775D01*
X188064833Y-117937026D01*
X190106845Y-116642047D01*
X192023996Y-115233363D01*
X193814273Y-113713811D01*
X195475663Y-112086229D01*
X197006155Y-110353454D01*
X198403734Y-108518323D01*
X199666389Y-106583674D01*
X200792106Y-104552345D01*
X201778873Y-102427171D01*
X202624677Y-100210991D01*
X203327505Y-97906643D01*
X203852007Y-95682305D01*
X204012365Y-94863097D01*
X204139010Y-94129403D01*
X204235619Y-93442058D01*
X204305867Y-92761896D01*
X204353430Y-92049752D01*
X204381982Y-91266460D01*
X204395200Y-90372855D01*
X204397207Y-89872800D01*
X204385437Y-88732079D01*
X204348789Y-87518601D01*
X204289697Y-86266192D01*
X204210593Y-85008678D01*
X204113908Y-83779886D01*
X204002075Y-82613642D01*
X203877526Y-81543772D01*
X203742694Y-80604102D01*
X203721453Y-80474800D01*
X203429653Y-79099566D01*
X203006958Y-77687971D01*
X202448127Y-76224885D01*
X201747918Y-74695179D01*
X201652522Y-74503182D01*
X200659172Y-72690162D01*
X199536557Y-70951930D01*
X198297079Y-69302802D01*
X196953145Y-67757096D01*
X195517159Y-66329126D01*
X194001526Y-65033212D01*
X192495579Y-63935020D01*
X192144339Y-63711800D01*
X191763689Y-63490083D01*
X191382008Y-63283920D01*
X191027672Y-63107361D01*
X190729059Y-62974456D01*
X190514546Y-62899255D01*
X190412510Y-62895808D01*
X190408824Y-62901829D01*
X190422921Y-63015408D01*
X190509745Y-63234208D01*
X190672877Y-63564983D01*
X190915898Y-64014485D01*
X191242388Y-64589467D01*
X191655927Y-65296680D01*
X191870341Y-65658133D01*
X192798471Y-67268013D01*
X193606542Y-68781835D01*
X194301013Y-70216087D01*
X194888346Y-71587254D01*
X195375003Y-72911825D01*
X195767444Y-74206284D01*
X196072130Y-75487120D01*
X196295523Y-76770819D01*
X196333169Y-77045800D01*
X196387747Y-77616202D01*
X196422175Y-78304581D01*
X196436858Y-79065007D01*
X196432198Y-79851549D01*
X196408600Y-80618278D01*
X196366467Y-81319262D01*
X196306201Y-81908571D01*
X196289429Y-82026031D01*
X196025686Y-83442631D01*
X195677209Y-84757825D01*
X195226887Y-86025454D01*
X194657611Y-87299356D01*
X194535641Y-87544467D01*
X193961498Y-88611518D01*
X193368297Y-89566455D01*
X192719346Y-90465575D01*
X192262787Y-91031784D01*
X191184313Y-92192091D01*
X189976604Y-93259160D01*
X188658474Y-94221944D01*
X187248736Y-95069397D01*
X185766203Y-95790473D01*
X184229688Y-96374127D01*
X182658004Y-96809311D01*
X182288148Y-96888325D01*
X181906722Y-96968484D01*
X181589141Y-97041400D01*
X181370658Y-97098567D01*
X181287762Y-97129649D01*
X181299779Y-97223328D01*
X181380838Y-97417340D01*
X181493015Y-97632409D01*
X181739191Y-98168520D01*
X181866075Y-98676703D01*
X181866224Y-99110968D01*
X181816009Y-99306434D01*
X181714054Y-99384670D01*
X181539934Y-99397800D01*
X181226262Y-99364995D01*
X180918079Y-99253655D01*
X180571603Y-99044389D01*
X180317833Y-98856556D01*
X179641102Y-98375365D01*
X178841571Y-97880110D01*
X177961795Y-97393214D01*
X177044330Y-96937101D01*
X176131732Y-96534195D01*
X175332351Y-96229557D01*
X174764820Y-96039436D01*
X174236795Y-95879800D01*
X173706831Y-95740588D01*
X173133482Y-95611738D01*
X172475301Y-95483188D01*
X171690843Y-95344877D01*
X171681833Y-95343344D01*
X171058251Y-95238972D01*
X170466084Y-95143974D01*
X169892172Y-95057224D01*
X169323353Y-94977592D01*
X168746468Y-94903950D01*
X168148356Y-94835171D01*
X167515857Y-94770126D01*
X166835809Y-94707688D01*
X166095053Y-94646727D01*
X165280428Y-94586115D01*
X164378773Y-94524726D01*
X163376927Y-94461430D01*
X162261732Y-94395099D01*
X161541693Y-94354221D01*
X180571833Y-94354221D01*
X180575756Y-94380206D01*
X180606083Y-94393720D01*
X180690651Y-94392543D01*
X180857297Y-94374453D01*
X181133858Y-94337232D01*
X181548171Y-94278658D01*
X181585290Y-94273382D01*
X182159744Y-94177687D01*
X182767132Y-94052493D01*
X183359068Y-93909619D01*
X183887168Y-93760879D01*
X184303046Y-93618091D01*
X184354915Y-93597015D01*
X184678167Y-93461818D01*
X184466500Y-93298961D01*
X184203254Y-93124080D01*
X183848031Y-92923451D01*
X183459699Y-92726916D01*
X183097122Y-92564315D01*
X182825798Y-92467263D01*
X182506962Y-92438296D01*
X182186973Y-92535204D01*
X181843840Y-92768519D01*
X181497567Y-93103285D01*
X181284599Y-93345796D01*
X181060171Y-93623791D01*
X180851120Y-93901005D01*
X180684281Y-94141176D01*
X180586490Y-94308040D01*
X180571833Y-94354221D01*
X161541693Y-94354221D01*
X161020025Y-94324605D01*
X159638646Y-94248820D01*
X158104435Y-94166615D01*
X157711833Y-94145796D01*
X156377460Y-94074145D01*
X155196442Y-94008177D01*
X154152949Y-93946417D01*
X153231154Y-93887389D01*
X152415229Y-93829617D01*
X151689346Y-93771623D01*
X151037677Y-93711934D01*
X150444394Y-93649071D01*
X149893669Y-93581560D01*
X149369674Y-93507924D01*
X148856582Y-93426687D01*
X148338563Y-93336373D01*
X147799790Y-93235505D01*
X147659256Y-93208322D01*
X146432549Y-92946709D01*
X145352655Y-92663971D01*
X144397446Y-92350444D01*
X144064271Y-92212128D01*
X170483786Y-92212128D01*
X170499730Y-92269754D01*
X170544228Y-92293364D01*
X170679199Y-92326417D01*
X170950654Y-92379083D01*
X171327617Y-92445835D01*
X171779117Y-92521151D01*
X172170988Y-92583518D01*
X172626953Y-92659650D01*
X173132446Y-92752472D01*
X173656539Y-92855373D01*
X174168301Y-92961740D01*
X174636803Y-93064962D01*
X175031114Y-93158428D01*
X175320306Y-93235525D01*
X175472855Y-93289325D01*
X175446266Y-93226379D01*
X175355403Y-93047412D01*
X175217039Y-92785078D01*
X175142186Y-92645633D01*
X174705181Y-91905004D01*
X174282109Y-91328259D01*
X173874078Y-90916522D01*
X173482194Y-90670915D01*
X173119839Y-90592467D01*
X172796586Y-90650081D01*
X172386705Y-90811665D01*
X171922171Y-91060330D01*
X171434962Y-91379187D01*
X171009895Y-91706892D01*
X170722461Y-91951360D01*
X170552560Y-92112884D01*
X170483786Y-92212128D01*
X144064271Y-92212128D01*
X143544790Y-91996469D01*
X142772556Y-91592382D01*
X142536685Y-91439133D01*
X158614549Y-91439133D01*
X159031025Y-91446422D01*
X159221204Y-91453263D01*
X159555006Y-91469035D01*
X160007034Y-91492383D01*
X160551892Y-91521950D01*
X161164180Y-91556380D01*
X161818504Y-91594316D01*
X161987500Y-91604297D01*
X162642568Y-91642884D01*
X163256746Y-91678589D01*
X163805763Y-91710039D01*
X164265347Y-91735859D01*
X164611226Y-91754674D01*
X164819128Y-91765111D01*
X164849257Y-91766342D01*
X165171014Y-91777800D01*
X164574512Y-90901480D01*
X164037774Y-90176304D01*
X163519786Y-89603634D01*
X163024320Y-89186422D01*
X162555150Y-88927621D01*
X162116050Y-88830185D01*
X161938496Y-88838490D01*
X161584028Y-88923149D01*
X161210538Y-89090736D01*
X160802351Y-89352573D01*
X160343791Y-89719983D01*
X159819184Y-90204289D01*
X159242691Y-90785736D01*
X158614549Y-91439133D01*
X142536685Y-91439133D01*
X142058614Y-91128524D01*
X141380835Y-90595232D01*
X141183730Y-90420740D01*
X147850592Y-90420740D01*
X147851350Y-90423133D01*
X147945018Y-90436697D01*
X148175377Y-90474053D01*
X148512248Y-90530199D01*
X148925455Y-90600131D01*
X149140465Y-90636855D01*
X149689812Y-90725988D01*
X150280378Y-90813201D01*
X150889188Y-90895987D01*
X151493268Y-90971837D01*
X152069645Y-91038244D01*
X152595345Y-91092699D01*
X153047392Y-91132695D01*
X153402814Y-91155723D01*
X153638636Y-91159275D01*
X153731884Y-91140844D01*
X153732500Y-91138154D01*
X153685656Y-91040306D01*
X153559672Y-90838314D01*
X153376371Y-90563975D01*
X153157573Y-90249089D01*
X152925100Y-89925454D01*
X152700774Y-89624868D01*
X152639547Y-89545506D01*
X152366662Y-89234439D01*
X152046445Y-88925552D01*
X151793533Y-88720006D01*
X151510664Y-88532690D01*
X151284680Y-88432769D01*
X151046185Y-88394817D01*
X150895907Y-88391133D01*
X150466795Y-88444717D01*
X150017861Y-88611827D01*
X149532040Y-88902002D01*
X148992269Y-89324781D01*
X148612471Y-89667615D01*
X148317923Y-89947700D01*
X148078429Y-90180809D01*
X147915486Y-90345602D01*
X147850592Y-90420740D01*
X141183730Y-90420740D01*
X141095818Y-90342914D01*
X140541883Y-89775745D01*
X139994712Y-89104762D01*
X139488625Y-88379051D01*
X139057943Y-87647695D01*
X138745652Y-86981736D01*
X138641213Y-86721270D01*
X138564211Y-86533574D01*
X138533468Y-86463731D01*
X138458009Y-86487917D01*
X138281654Y-86574301D01*
X138145542Y-86647482D01*
X137854248Y-86788295D01*
X137470389Y-86945848D01*
X137037097Y-87105523D01*
X136597502Y-87252697D01*
X136194735Y-87372750D01*
X135871928Y-87451062D01*
X135708460Y-87473600D01*
X135325711Y-87441183D01*
X135069095Y-87317815D01*
X134948911Y-87115026D01*
X134975460Y-86844350D01*
X135031517Y-86715724D01*
X135121032Y-86593790D01*
X135310593Y-86369655D01*
X135582619Y-86062927D01*
X135919527Y-85693213D01*
X136303733Y-85280119D01*
X136601133Y-84965414D01*
X136816998Y-84735580D01*
X141354823Y-84735580D01*
X141496897Y-85224297D01*
X141621021Y-85579592D01*
X141795374Y-85982031D01*
X142004911Y-86406437D01*
X142234588Y-86827634D01*
X142469362Y-87220447D01*
X142694189Y-87559700D01*
X142894023Y-87820217D01*
X143053822Y-87976821D01*
X143158241Y-88004525D01*
X143237025Y-87907132D01*
X143358512Y-87706222D01*
X143459310Y-87517308D01*
X143636893Y-87131241D01*
X143803395Y-86706334D01*
X143943205Y-86289434D01*
X144040710Y-85927389D01*
X144080300Y-85667044D01*
X144080500Y-85653242D01*
X144002254Y-85303217D01*
X143783062Y-84936308D01*
X143446242Y-84576751D01*
X143015112Y-84248785D01*
X142512992Y-83976644D01*
X142435068Y-83943003D01*
X142214160Y-83868079D01*
X142047571Y-83875183D01*
X141893959Y-83983905D01*
X141711978Y-84213834D01*
X141637924Y-84320717D01*
X141354823Y-84735580D01*
X136816998Y-84735580D01*
X137388529Y-84127067D01*
X138063938Y-83382514D01*
X138641723Y-82712809D01*
X139136246Y-82099009D01*
X139561869Y-81522171D01*
X139932954Y-80963348D01*
X140263865Y-80403599D01*
X140568963Y-79823977D01*
X140695069Y-79565433D01*
X141110121Y-78542159D01*
X141314486Y-77837755D01*
X144731958Y-77837755D01*
X145011732Y-77638538D01*
X145207743Y-77484787D01*
X145474490Y-77257285D01*
X145760874Y-76999882D01*
X145819939Y-76944999D01*
X146221316Y-76530816D01*
X146478121Y-76162316D01*
X146599045Y-75813177D01*
X146592780Y-75457079D01*
X146468015Y-75067700D01*
X146451805Y-75031300D01*
X146340301Y-74842284D01*
X146159999Y-74594542D01*
X145940251Y-74322030D01*
X145710407Y-74058703D01*
X145499818Y-73838518D01*
X145337834Y-73695429D01*
X145265729Y-73659133D01*
X145239779Y-73738460D01*
X145211012Y-73955296D01*
X145182683Y-74277928D01*
X145158050Y-74674641D01*
X145154872Y-74738633D01*
X145113672Y-75344358D01*
X145049196Y-75988882D01*
X144968132Y-76620110D01*
X144877164Y-77185947D01*
X144783488Y-77632278D01*
X144731958Y-77837755D01*
X141314486Y-77837755D01*
X141440418Y-77403694D01*
X141681319Y-76184028D01*
X141828185Y-74917153D01*
X141876374Y-73637059D01*
X141821246Y-72377738D01*
X141756640Y-71789995D01*
X141612564Y-70921117D01*
X141414096Y-70112809D01*
X141150092Y-69345206D01*
X140809408Y-68598439D01*
X140380898Y-67852642D01*
X139853420Y-67087947D01*
X139215829Y-66284488D01*
X138456980Y-65422397D01*
X137783044Y-64706154D01*
X136946589Y-63837338D01*
X137060670Y-62948800D01*
X140422914Y-62948800D01*
X141022887Y-63626133D01*
X141337328Y-63992644D01*
X141697259Y-64430002D01*
X142048747Y-64871980D01*
X142237847Y-65118052D01*
X142509037Y-65476892D01*
X142701095Y-65705080D01*
X142838759Y-65797726D01*
X142946768Y-65749943D01*
X143049863Y-65556845D01*
X143172783Y-65213545D01*
X143273010Y-64913556D01*
X143448868Y-64240043D01*
X143489425Y-63661833D01*
X143393239Y-63170517D01*
X143158867Y-62757689D01*
X142852833Y-62464418D01*
X142624509Y-62316630D01*
X142313635Y-62149433D01*
X141953914Y-61976928D01*
X141579047Y-61813214D01*
X141222737Y-61672392D01*
X140918687Y-61568564D01*
X140700599Y-61515829D01*
X140605302Y-61524080D01*
X140566791Y-61636513D01*
X140525133Y-61872285D01*
X140487965Y-62185744D01*
X140480222Y-62271467D01*
X140422914Y-62948800D01*
X137060670Y-62948800D01*
X137085159Y-62758069D01*
X137217996Y-61593891D01*
X137315113Y-60460883D01*
X137375876Y-59382123D01*
X137399650Y-58380693D01*
X137385801Y-57479672D01*
X137333696Y-56702140D01*
X137265567Y-56193251D01*
X136982417Y-54975026D01*
X136577727Y-53856681D01*
X136056441Y-52845359D01*
X135423499Y-51948205D01*
X134683842Y-51172362D01*
X133842413Y-50524976D01*
X133031500Y-50071836D01*
X132397370Y-49793951D01*
X131830296Y-49601648D01*
X131262667Y-49477854D01*
X130626870Y-49405494D01*
X130315285Y-49385921D01*
X129471806Y-49376897D01*
X128701818Y-49449173D01*
X127964764Y-49613224D01*
X127220089Y-49879526D01*
X126427238Y-50258557D01*
X125977740Y-50506375D01*
X125387457Y-50837314D01*
X124908919Y-51085934D01*
X124511994Y-51262357D01*
X124166552Y-51376703D01*
X123842460Y-51439094D01*
X123509588Y-51459650D01*
X123167833Y-51450211D01*
X122343641Y-51343470D01*
X121605149Y-51124083D01*
X120969305Y-50799892D01*
X120453058Y-50378740D01*
X120205443Y-50079467D01*
X120009372Y-49827482D01*
X119736638Y-49511925D01*
X119433623Y-49185563D01*
X119300475Y-49049960D01*
X118633701Y-48479453D01*
X117909374Y-48048664D01*
X117106538Y-47748589D01*
X116204240Y-47570221D01*
X115757346Y-47527066D01*
X114786364Y-47542497D01*
X113837703Y-47721152D01*
X112917242Y-48057721D01*
X112030859Y-48546894D01*
X111184433Y-49183362D01*
X110383843Y-49961816D01*
X109634967Y-50876945D01*
X108943683Y-51923441D01*
X108315870Y-53095993D01*
X107757407Y-54389293D01*
X107556539Y-54934162D01*
X107248587Y-55809525D01*
X107807025Y-56412690D01*
X108154625Y-56803575D01*
X108390152Y-57111223D01*
X108529552Y-57363238D01*
X108588767Y-57587222D01*
X108588962Y-57766427D01*
X108520595Y-58008938D01*
X108362980Y-58142575D01*
X108099957Y-58172323D01*
X107715365Y-58103169D01*
X107600024Y-58071500D01*
X106855423Y-57859772D01*
X106246445Y-57694532D01*
X105747533Y-57570370D01*
X105333126Y-57481875D01*
X104977665Y-57423635D01*
X104655590Y-57390240D01*
X104341342Y-57376279D01*
X104313779Y-57375809D01*
X103967201Y-57375712D01*
X103688431Y-57385305D01*
X103518096Y-57402727D01*
X103486353Y-57413724D01*
X103494638Y-57509081D01*
X103561926Y-57715848D01*
X103674350Y-57992580D01*
X103697517Y-58044858D01*
X103871311Y-58469907D01*
X104030881Y-58928033D01*
X104162514Y-59372765D01*
X104252499Y-59757635D01*
X104287126Y-60036173D01*
X104287167Y-60043281D01*
X104223050Y-60401179D01*
X104043023Y-60665705D01*
X103840618Y-60785206D01*
X103760426Y-60809014D01*
X103682584Y-60811420D01*
X103591322Y-60779490D01*
X103470868Y-60700292D01*
X103305450Y-60560892D01*
X103079296Y-60348356D01*
X102776636Y-60049750D01*
X102381696Y-59652142D01*
X102053121Y-59319369D01*
X101448041Y-58715742D01*
X100933538Y-58226719D01*
X100490311Y-57838059D01*
X100099059Y-57535525D01*
X99740481Y-57304877D01*
X99395275Y-57131876D01*
X99044141Y-57002282D01*
X98829545Y-56941237D01*
X98450844Y-56856383D01*
X98115180Y-56819240D01*
X97760017Y-56828581D01*
X97322815Y-56883180D01*
X97163953Y-56908591D01*
X96849465Y-56967742D01*
X96674668Y-57023248D01*
X96610670Y-57087373D01*
X96615445Y-57141424D01*
X96664971Y-57284668D01*
X96752581Y-57535566D01*
X96860090Y-57842060D01*
X96869491Y-57868800D01*
X97046619Y-58495677D01*
X97176702Y-59204509D01*
X97246269Y-59911281D01*
X97253882Y-60266760D01*
X97245753Y-60592216D01*
X97220437Y-60806902D01*
X97162432Y-60908044D01*
X97056235Y-60892867D01*
X96886343Y-60758597D01*
X96637254Y-60502460D01*
X96293465Y-60121681D01*
X96265011Y-60089792D01*
X95716405Y-59490800D01*
X95163967Y-58917162D01*
X94627900Y-58387989D01*
X94128401Y-57922396D01*
X93685671Y-57539494D01*
X93319910Y-57258396D01*
X93168066Y-57159532D01*
X92431842Y-56792502D01*
X91666283Y-56538336D01*
X91070046Y-56429899D01*
X90511181Y-56370050D01*
X90163782Y-57003029D01*
X89892213Y-57442338D01*
X89619907Y-57781534D01*
X89365590Y-58000829D01*
X89147990Y-58080435D01*
X89144176Y-58080467D01*
X88917372Y-58026916D01*
X88728901Y-57858535D01*
X88573767Y-57563726D01*
X88446976Y-57130892D01*
X88343532Y-56548438D01*
X88287167Y-56090800D01*
X88183688Y-55276469D01*
X88060276Y-54606841D01*
X87908023Y-54057644D01*
X87718023Y-53604606D01*
X87481369Y-53223457D01*
X87189153Y-52889925D01*
X87072200Y-52780034D01*
X86634069Y-52458774D01*
X86154213Y-52259419D01*
X85597612Y-52171639D01*
X85029713Y-52177587D01*
X84785066Y-52197122D01*
X84575206Y-52226600D01*
X84370184Y-52277001D01*
X84140052Y-52359307D01*
X83854864Y-52484498D01*
X83484670Y-52663557D01*
X82999524Y-52907464D01*
X82895919Y-52959993D01*
X82262282Y-53274346D01*
X81756984Y-53506456D01*
X81362833Y-53660647D01*
X81062635Y-53741241D01*
X80839196Y-53752563D01*
X80675322Y-53698936D01*
X80553821Y-53584683D01*
X80532649Y-53554261D01*
X80448280Y-53405027D01*
X80426239Y-53267781D01*
X80464860Y-53076692D01*
X80516328Y-52909212D01*
X80649598Y-52492467D01*
X80255216Y-52481769D01*
X80005208Y-52476394D01*
X79640701Y-52470305D01*
X79216519Y-52464358D01*
X78900903Y-52460602D01*
X78482272Y-52453827D01*
X78198617Y-52440018D01*
X78015578Y-52412671D01*
X77898798Y-52365280D01*
X77813920Y-52291340D01*
X77777109Y-52247833D01*
X77665760Y-52026023D01*
X77698179Y-51792147D01*
X77879527Y-51521265D01*
X77941761Y-51452264D01*
X78162665Y-51216394D01*
X77911082Y-51013754D01*
X77397073Y-50676358D01*
X76864843Y-50466574D01*
X76345081Y-50392693D01*
X75870373Y-50462387D01*
X75402827Y-50675019D01*
X74919471Y-50999042D01*
X74477155Y-51392897D01*
X74259323Y-51640104D01*
X73869690Y-52211278D01*
X73488047Y-52917766D01*
X73127738Y-53725633D01*
X72802109Y-54600943D01*
X72524501Y-55509763D01*
X72308259Y-56418156D01*
X72242901Y-56768133D01*
X72149965Y-57449026D01*
X72082322Y-58232801D01*
X72039995Y-59082420D01*
X72023007Y-59960846D01*
X69529750Y-59960846D01*
X69542282Y-59192178D01*
X69569658Y-58461764D01*
X69611813Y-57809814D01*
X69668763Y-57271638D01*
X69685000Y-57161002D01*
X69896528Y-56027701D01*
X70171162Y-54889198D01*
X70496442Y-53786904D01*
X70859909Y-52762229D01*
X71249105Y-51856585D01*
X71331566Y-51688133D01*
X71724128Y-50975454D01*
X72154088Y-50346711D01*
X72665556Y-49741639D01*
X73037315Y-49357533D01*
X73781456Y-48707584D01*
X74544444Y-48221241D01*
X75340066Y-47892855D01*
X76182108Y-47716773D01*
X77084356Y-47687347D01*
X77109167Y-47688508D01*
X77974032Y-47803976D01*
X78797327Y-48067620D01*
X79591317Y-48485345D01*
X80368263Y-49063058D01*
X80815708Y-49473562D01*
X81347249Y-49994800D01*
X82085708Y-50023138D01*
X82427797Y-50030738D01*
X82705278Y-50017190D01*
X82972061Y-49973148D01*
X83282056Y-49889263D01*
X83689171Y-49756190D01*
X83755500Y-49733609D01*
X84185923Y-49591587D01*
X84520025Y-49499186D01*
X84819722Y-49445745D01*
X85146932Y-49420603D01*
X85563574Y-49413098D01*
X85618167Y-49412890D01*
X86123441Y-49421122D01*
X86523258Y-49454500D01*
X86880591Y-49520726D01*
X87184500Y-49604462D01*
X87848348Y-49847033D01*
X88490921Y-50154187D01*
X89064127Y-50499904D01*
X89519877Y-50858167D01*
X89544151Y-50881136D01*
X89927061Y-51305164D01*
X90320439Y-51840837D01*
X90689583Y-52436605D01*
X90999791Y-53040915D01*
X91003483Y-53049043D01*
X91129121Y-53316887D01*
X91228233Y-53511141D01*
X91280755Y-53592655D01*
X91282323Y-53593133D01*
X91374485Y-53607839D01*
X91592253Y-53647034D01*
X91894923Y-53703336D01*
X92016055Y-53726223D01*
X92746290Y-53890638D01*
X93469708Y-54100641D01*
X94128656Y-54337940D01*
X94579003Y-54539336D01*
X95073172Y-54788311D01*
X95962294Y-54523991D01*
X96939370Y-54276450D01*
X97824114Y-54145588D01*
X98643915Y-54128333D01*
X99111867Y-54170679D01*
X100100239Y-54372961D01*
X101058554Y-54703936D01*
X101485573Y-54901570D01*
X101943646Y-55133742D01*
X102543906Y-54959819D01*
X102935427Y-54861699D01*
X103399201Y-54767623D01*
X103838850Y-54697017D01*
X103863833Y-54693762D01*
X104338291Y-54635396D01*
X104676194Y-54588583D01*
X104907382Y-54533477D01*
X105061696Y-54450235D01*
X105168978Y-54319011D01*
X105259069Y-54119961D01*
X105361811Y-53833241D01*
X105425667Y-53655132D01*
X106047850Y-52140381D01*
X106759631Y-50750595D01*
X107556932Y-49490828D01*
X108435675Y-48366133D01*
X109391783Y-47381563D01*
X110421176Y-46542174D01*
X111519778Y-45853017D01*
X111864833Y-45675051D01*
X112547491Y-45359401D01*
X113150290Y-45130484D01*
X113729102Y-44973782D01*
X114339794Y-44874776D01*
X115038238Y-44818947D01*
X115186041Y-44811998D01*
X116411687Y-44822068D01*
G37*
%TD*%
M02*
