%TF.GenerationSoftware,KiCad,Pcbnew,9.0.6*%
%TF.CreationDate,2026-01-09T14:19:34+01:00*%
%TF.ProjectId,Alligator,416c6c69-6761-4746-9f72-2e6b69636164,rev?*%
%TF.SameCoordinates,Original*%
%TF.FileFunction,Copper,L1,Top*%
%TF.FilePolarity,Positive*%
%FSLAX46Y46*%
G04 Gerber Fmt 4.6, Leading zero omitted, Abs format (unit mm)*
G04 Created by KiCad (PCBNEW 9.0.6) date 2026-01-09 14:19:34*
%MOMM*%
%LPD*%
G01*
G04 APERTURE LIST*
G04 Aperture macros list*
%AMRoundRect*
0 Rectangle with rounded corners*
0 $1 Rounding radius*
0 $2 $3 $4 $5 $6 $7 $8 $9 X,Y pos of 4 corners*
0 Add a 4 corners polygon primitive as box body*
4,1,4,$2,$3,$4,$5,$6,$7,$8,$9,$2,$3,0*
0 Add four circle primitives for the rounded corners*
1,1,$1+$1,$2,$3*
1,1,$1+$1,$4,$5*
1,1,$1+$1,$6,$7*
1,1,$1+$1,$8,$9*
0 Add four rect primitives between the rounded corners*
20,1,$1+$1,$2,$3,$4,$5,0*
20,1,$1+$1,$4,$5,$6,$7,0*
20,1,$1+$1,$6,$7,$8,$9,0*
20,1,$1+$1,$8,$9,$2,$3,0*%
G04 Aperture macros list end*
%TA.AperFunction,HeatsinkPad*%
%ADD10O,1.700000X1.100000*%
%TD*%
%TA.AperFunction,ComponentPad*%
%ADD11R,1.800000X1.800000*%
%TD*%
%TA.AperFunction,ComponentPad*%
%ADD12C,1.800000*%
%TD*%
%TA.AperFunction,ComponentPad*%
%ADD13C,2.000000*%
%TD*%
%TA.AperFunction,ComponentPad*%
%ADD14RoundRect,0.250000X-0.550000X0.550000X-0.550000X-0.550000X0.550000X-0.550000X0.550000X0.550000X0*%
%TD*%
%TA.AperFunction,ComponentPad*%
%ADD15C,1.600000*%
%TD*%
%TA.AperFunction,ComponentPad*%
%ADD16R,1.500000X1.500000*%
%TD*%
%TA.AperFunction,ComponentPad*%
%ADD17C,1.500000*%
%TD*%
%TA.AperFunction,ComponentPad*%
%ADD18R,1.600000X1.600000*%
%TD*%
%TA.AperFunction,ComponentPad*%
%ADD19O,1.600000X1.600000*%
%TD*%
%TA.AperFunction,Conductor*%
%ADD20C,0.250000*%
%TD*%
G04 APERTURE END LIST*
D10*
%TO.P,REF\u002A\u002A,S1*%
%TO.N,N/C*%
X201380000Y-85730000D03*
X205180000Y-85730000D03*
X201380000Y-94370000D03*
X205180000Y-94370000D03*
%TD*%
D11*
%TO.P,D2,1,K*%
%TO.N,Net-(D1-K)*%
X128800000Y-56600000D03*
D12*
%TO.P,D2,2,A*%
%TO.N,Net-(D1-A)*%
X126260000Y-56600000D03*
%TD*%
D11*
%TO.P,D1,1,K*%
%TO.N,Net-(D1-K)*%
X116460000Y-55300000D03*
D12*
%TO.P,D1,2,A*%
%TO.N,Net-(D1-A)*%
X119000000Y-55300000D03*
%TD*%
D13*
%TO.P,S1,1,A*%
%TO.N,Net-(S1-A-Pad1)*%
X193400000Y-64900000D03*
%TO.P,S1,2,E*%
%TO.N,Net-(S1-E)*%
X193400000Y-67440000D03*
%TO.P,S1,3,A*%
%TO.N,unconnected-(S1-A-Pad3)*%
X193400000Y-69980000D03*
%TD*%
D14*
%TO.P,U1,1,GND*%
%TO.N,Net-(D1-K)*%
X167600000Y-115000000D03*
D15*
%TO.P,U1,2,TR*%
%TO.N,Net-(D3-K)*%
X170140000Y-115000000D03*
%TO.P,U1,3,Q*%
%TO.N,unconnected-(U1-Q-Pad3)*%
X172680000Y-115000000D03*
%TO.P,U1,4,R*%
%TO.N,Net-(S1-E)*%
X175220000Y-115000000D03*
%TO.P,U1,5,CV*%
%TO.N,unconnected-(U1-CV-Pad5)*%
X175220000Y-122620000D03*
%TO.P,U1,6,THR*%
%TO.N,Net-(D3-K)*%
X172680000Y-122620000D03*
%TO.P,U1,7,DIS*%
%TO.N,Net-(D3-A)*%
X170140000Y-122620000D03*
%TO.P,U1,8,VCC*%
%TO.N,Net-(S1-E)*%
X167600000Y-122620000D03*
%TD*%
D16*
%TO.P,Q2,1,E*%
%TO.N,Net-(D1-A)*%
X120600000Y-109100000D03*
D17*
%TO.P,Q2,2,B*%
%TO.N,Net-(Q1-C)*%
X118060000Y-111640000D03*
%TO.P,Q2,3,C*%
%TO.N,Net-(Q2-C)*%
X120600000Y-114180000D03*
%TD*%
D15*
%TO.P,R3,1*%
%TO.N,Net-(D3-K)*%
X149450000Y-123660000D03*
%TO.P,R3,2*%
%TO.N,Net-(Q1-B)*%
X149450000Y-113500000D03*
%TD*%
%TO.P,R6,1*%
%TO.N,Net-(S1-E)*%
X137300000Y-123660000D03*
%TO.P,R6,2*%
%TO.N,Net-(Q2-C)*%
X137300000Y-113500000D03*
%TD*%
%TO.P,R8,1*%
%TO.N,Net-(S1-E)*%
X129200000Y-123660000D03*
%TO.P,R8,2*%
%TO.N,Net-(D3-A)*%
X129200000Y-113500000D03*
%TD*%
D16*
%TO.P,Q1,1,E*%
%TO.N,Net-(D1-K)*%
X111857615Y-109000000D03*
D17*
%TO.P,Q1,2,B*%
%TO.N,Net-(Q1-B)*%
X109317615Y-111540000D03*
%TO.P,Q1,3,C*%
%TO.N,Net-(Q1-C)*%
X111857615Y-114080000D03*
%TD*%
D18*
%TO.P,D3,1,K*%
%TO.N,Net-(D3-K)*%
X155000000Y-122520000D03*
D19*
%TO.P,D3,2,A*%
%TO.N,Net-(D3-A)*%
X155000000Y-114900000D03*
%TD*%
D15*
%TO.P,R5,1*%
%TO.N,Net-(S1-E)*%
X141350000Y-123660000D03*
%TO.P,R5,2*%
%TO.N,Net-(Q1-C)*%
X141350000Y-113500000D03*
%TD*%
%TO.P,R4,1*%
%TO.N,Net-(Q1-B)*%
X145400000Y-123660000D03*
%TO.P,R4,2*%
%TO.N,Net-(D1-K)*%
X145400000Y-113500000D03*
%TD*%
%TO.P,R7,1*%
%TO.N,Net-(D3-K)*%
X133250000Y-123660000D03*
%TO.P,R7,2*%
%TO.N,Net-(D3-A)*%
X133250000Y-113500000D03*
%TD*%
D18*
%TO.P,C1,1*%
%TO.N,Net-(D3-K)*%
X187300000Y-105100000D03*
D15*
%TO.P,C1,2*%
%TO.N,Net-(D1-K)*%
X189800000Y-105100000D03*
%TD*%
D20*
%TO.N,Net-(D3-K)*%
X172680000Y-122620000D02*
X170900000Y-124400000D01*
X149450000Y-125050000D02*
X149450000Y-123660000D01*
X155000000Y-123100000D02*
X155000000Y-122520000D01*
X170900000Y-124400000D02*
X156300000Y-124400000D01*
X149450000Y-123660000D02*
X149540000Y-123660000D01*
X134300000Y-126000000D02*
X148500000Y-126000000D01*
X133250000Y-124950000D02*
X134300000Y-126000000D01*
X150680000Y-122520000D02*
X155000000Y-122520000D01*
X148500000Y-126000000D02*
X149450000Y-125050000D01*
X149540000Y-123660000D02*
X150680000Y-122520000D01*
X156300000Y-124400000D02*
X155000000Y-123100000D01*
X133250000Y-123660000D02*
X133250000Y-124950000D01*
%TO.N,Net-(D1-K)*%
X115300000Y-106400000D02*
X142700000Y-106400000D01*
X112700000Y-109000000D02*
X115300000Y-106400000D01*
X111857615Y-109000000D02*
X112700000Y-109000000D01*
X145400000Y-113500000D02*
X145400000Y-110500000D01*
X162100000Y-109500000D02*
X167600000Y-115000000D01*
X142700000Y-106400000D02*
X145400000Y-109100000D01*
X145400000Y-109100000D02*
X145400000Y-110500000D01*
X146400000Y-109500000D02*
X162100000Y-109500000D01*
X145400000Y-110500000D02*
X146400000Y-109500000D01*
%TO.N,Net-(D3-A)*%
X151200000Y-115800000D02*
X150700000Y-115300000D01*
X150700000Y-115300000D02*
X134200000Y-115300000D01*
X134200000Y-114450000D02*
X133250000Y-113500000D01*
X134200000Y-115300000D02*
X134200000Y-114450000D01*
X152100000Y-114900000D02*
X151200000Y-115800000D01*
X155000000Y-114900000D02*
X152100000Y-114900000D01*
%TO.N,Net-(S1-E)*%
X194726000Y-68766000D02*
X194726000Y-92974000D01*
X193400000Y-67440000D02*
X194726000Y-68766000D01*
X175220000Y-108080000D02*
X175220000Y-115000000D01*
X186300000Y-101400000D02*
X181900000Y-101400000D01*
X181900000Y-101400000D02*
X175220000Y-108080000D01*
X194726000Y-92974000D02*
X186300000Y-101400000D01*
%TD*%
M02*
