%TF.GenerationSoftware,KiCad,Pcbnew,9.0.6*%
%TF.CreationDate,2026-01-09T14:19:34+01:00*%
%TF.ProjectId,Alligator,416c6c69-6761-4746-9f72-2e6b69636164,rev?*%
%TF.SameCoordinates,Original*%
%TF.FileFunction,Soldermask,Top*%
%TF.FilePolarity,Negative*%
%FSLAX46Y46*%
G04 Gerber Fmt 4.6, Leading zero omitted, Abs format (unit mm)*
G04 Created by KiCad (PCBNEW 9.0.6) date 2026-01-09 14:19:34*
%MOMM*%
%LPD*%
G01*
G04 APERTURE LIST*
G04 Aperture macros list*
%AMRoundRect*
0 Rectangle with rounded corners*
0 $1 Rounding radius*
0 $2 $3 $4 $5 $6 $7 $8 $9 X,Y pos of 4 corners*
0 Add a 4 corners polygon primitive as box body*
4,1,4,$2,$3,$4,$5,$6,$7,$8,$9,$2,$3,0*
0 Add four circle primitives for the rounded corners*
1,1,$1+$1,$2,$3*
1,1,$1+$1,$4,$5*
1,1,$1+$1,$6,$7*
1,1,$1+$1,$8,$9*
0 Add four rect primitives between the rounded corners*
20,1,$1+$1,$2,$3,$4,$5,0*
20,1,$1+$1,$4,$5,$6,$7,0*
20,1,$1+$1,$6,$7,$8,$9,0*
20,1,$1+$1,$8,$9,$2,$3,0*%
G04 Aperture macros list end*
%ADD10O,2.100000X1.500000*%
%ADD11RoundRect,0.200000X0.900000X0.900000X-0.900000X0.900000X-0.900000X-0.900000X0.900000X-0.900000X0*%
%ADD12C,2.200000*%
%ADD13RoundRect,0.200000X-0.900000X-0.900000X0.900000X-0.900000X0.900000X0.900000X-0.900000X0.900000X0*%
%ADD14C,2.400000*%
%ADD15RoundRect,0.312500X-0.687500X0.687500X-0.687500X-0.687500X0.687500X-0.687500X0.687500X0.687500X0*%
%ADD16C,2.000000*%
%ADD17RoundRect,0.200000X-0.750000X0.750000X-0.750000X-0.750000X0.750000X-0.750000X0.750000X0.750000X0*%
%ADD18C,1.900000*%
%ADD19RoundRect,0.200000X0.800000X-0.800000X0.800000X0.800000X-0.800000X0.800000X-0.800000X-0.800000X0*%
%ADD20O,2.000000X2.000000*%
%ADD21RoundRect,0.200000X-0.800000X-0.800000X0.800000X-0.800000X0.800000X0.800000X-0.800000X0.800000X0*%
G04 APERTURE END LIST*
D10*
%TO.C,REF\u002A\u002A*%
X201380000Y-85730000D03*
X205180000Y-85730000D03*
X201380000Y-94370000D03*
X205180000Y-94370000D03*
%TD*%
D11*
%TO.C,D2*%
X128800000Y-56600000D03*
D12*
X126260000Y-56600000D03*
%TD*%
D13*
%TO.C,D1*%
X116460000Y-55300000D03*
D12*
X119000000Y-55300000D03*
%TD*%
D14*
%TO.C,S1*%
X193400000Y-64900000D03*
X193400000Y-67440000D03*
X193400000Y-69980000D03*
%TD*%
D15*
%TO.C,U1*%
X167600000Y-115000000D03*
D16*
X170140000Y-115000000D03*
X172680000Y-115000000D03*
X175220000Y-115000000D03*
X175220000Y-122620000D03*
X172680000Y-122620000D03*
X170140000Y-122620000D03*
X167600000Y-122620000D03*
%TD*%
D17*
%TO.C,Q2*%
X120600000Y-109100000D03*
D18*
X118060000Y-111640000D03*
X120600000Y-114180000D03*
%TD*%
D16*
%TO.C,R3*%
X149450000Y-123660000D03*
X149450000Y-113500000D03*
%TD*%
%TO.C,R6*%
X137300000Y-123660000D03*
X137300000Y-113500000D03*
%TD*%
%TO.C,R8*%
X129200000Y-123660000D03*
X129200000Y-113500000D03*
%TD*%
D17*
%TO.C,Q1*%
X111857615Y-109000000D03*
D18*
X109317615Y-111540000D03*
X111857615Y-114080000D03*
%TD*%
D19*
%TO.C,D3*%
X155000000Y-122520000D03*
D20*
X155000000Y-114900000D03*
%TD*%
D16*
%TO.C,R5*%
X141350000Y-123660000D03*
X141350000Y-113500000D03*
%TD*%
%TO.C,R4*%
X145400000Y-123660000D03*
X145400000Y-113500000D03*
%TD*%
%TO.C,R7*%
X133250000Y-123660000D03*
X133250000Y-113500000D03*
%TD*%
D21*
%TO.C,C1*%
X187300000Y-105100000D03*
D16*
X189800000Y-105100000D03*
%TD*%
M02*
