%TF.GenerationSoftware,KiCad,Pcbnew,9.0.6*%
%TF.CreationDate,2026-01-23T10:46:32+01:00*%
%TF.ProjectId,Alligator,416c6c69-6761-4746-9f72-2e6b69636164,rev?*%
%TF.SameCoordinates,Original*%
%TF.FileFunction,Copper,L2,Bot*%
%TF.FilePolarity,Positive*%
%FSLAX46Y46*%
G04 Gerber Fmt 4.6, Leading zero omitted, Abs format (unit mm)*
G04 Created by KiCad (PCBNEW 9.0.6) date 2026-01-23 10:46:32*
%MOMM*%
%LPD*%
G01*
G04 APERTURE LIST*
G04 Aperture macros list*
%AMRoundRect*
0 Rectangle with rounded corners*
0 $1 Rounding radius*
0 $2 $3 $4 $5 $6 $7 $8 $9 X,Y pos of 4 corners*
0 Add a 4 corners polygon primitive as box body*
4,1,4,$2,$3,$4,$5,$6,$7,$8,$9,$2,$3,0*
0 Add four circle primitives for the rounded corners*
1,1,$1+$1,$2,$3*
1,1,$1+$1,$4,$5*
1,1,$1+$1,$6,$7*
1,1,$1+$1,$8,$9*
0 Add four rect primitives between the rounded corners*
20,1,$1+$1,$2,$3,$4,$5,0*
20,1,$1+$1,$4,$5,$6,$7,0*
20,1,$1+$1,$6,$7,$8,$9,0*
20,1,$1+$1,$8,$9,$2,$3,0*%
G04 Aperture macros list end*
%ADD10C,0.150000*%
%TA.AperFunction,NonConductor*%
%ADD11C,0.150000*%
%TD*%
%TA.AperFunction,ComponentPad*%
%ADD12R,1.800000X1.800000*%
%TD*%
%TA.AperFunction,ComponentPad*%
%ADD13C,1.800000*%
%TD*%
%TA.AperFunction,ComponentPad*%
%ADD14C,2.000000*%
%TD*%
%TA.AperFunction,ComponentPad*%
%ADD15RoundRect,0.250000X-0.550000X0.550000X-0.550000X-0.550000X0.550000X-0.550000X0.550000X0.550000X0*%
%TD*%
%TA.AperFunction,ComponentPad*%
%ADD16C,1.600000*%
%TD*%
%TA.AperFunction,ComponentPad*%
%ADD17R,1.500000X1.500000*%
%TD*%
%TA.AperFunction,ComponentPad*%
%ADD18C,1.500000*%
%TD*%
%TA.AperFunction,ComponentPad*%
%ADD19R,1.600000X1.600000*%
%TD*%
%TA.AperFunction,ComponentPad*%
%ADD20O,1.600000X1.600000*%
%TD*%
%TA.AperFunction,SMDPad,CuDef*%
%ADD21R,5.000000X2.000000*%
%TD*%
%TA.AperFunction,SMDPad,CuDef*%
%ADD22C,17.780000*%
%TD*%
%TA.AperFunction,SMDPad,CuDef*%
%ADD23RoundRect,0.175000X-0.425000X0.175000X-0.425000X-0.175000X0.425000X-0.175000X0.425000X0.175000X0*%
%TD*%
%TA.AperFunction,SMDPad,CuDef*%
%ADD24RoundRect,0.190000X0.410000X-0.190000X0.410000X0.190000X-0.410000X0.190000X-0.410000X-0.190000X0*%
%TD*%
%TA.AperFunction,SMDPad,CuDef*%
%ADD25RoundRect,0.200000X0.400000X-0.200000X0.400000X0.200000X-0.400000X0.200000X-0.400000X-0.200000X0*%
%TD*%
%TA.AperFunction,SMDPad,CuDef*%
%ADD26RoundRect,0.175000X0.425000X-0.175000X0.425000X0.175000X-0.425000X0.175000X-0.425000X-0.175000X0*%
%TD*%
%TA.AperFunction,SMDPad,CuDef*%
%ADD27RoundRect,0.190000X-0.410000X0.190000X-0.410000X-0.190000X0.410000X-0.190000X0.410000X0.190000X0*%
%TD*%
%TA.AperFunction,SMDPad,CuDef*%
%ADD28RoundRect,0.200000X-0.400000X0.200000X-0.400000X-0.200000X0.400000X-0.200000X0.400000X0.200000X0*%
%TD*%
%TA.AperFunction,HeatsinkPad*%
%ADD29O,1.700000X1.100000*%
%TD*%
%TA.AperFunction,Conductor*%
%ADD30C,0.250000*%
%TD*%
G04 APERTURE END LIST*
D10*
D11*
X101263220Y-69069819D02*
X101263220Y-68069819D01*
X100691792Y-69069819D02*
X101120363Y-68498390D01*
X100691792Y-68069819D02*
X101263220Y-68641247D01*
X100263220Y-69069819D02*
X100263220Y-68069819D01*
X100263220Y-68546009D02*
X99691792Y-68546009D01*
X99691792Y-69069819D02*
X99691792Y-68069819D01*
X98882268Y-68546009D02*
X99215601Y-68546009D01*
X99215601Y-69069819D02*
X99215601Y-68069819D01*
X99215601Y-68069819D02*
X98739411Y-68069819D01*
X97406077Y-68069819D02*
X97310839Y-68069819D01*
X97310839Y-68069819D02*
X97215601Y-68117438D01*
X97215601Y-68117438D02*
X97167982Y-68165057D01*
X97167982Y-68165057D02*
X97120363Y-68260295D01*
X97120363Y-68260295D02*
X97072744Y-68450771D01*
X97072744Y-68450771D02*
X97072744Y-68688866D01*
X97072744Y-68688866D02*
X97120363Y-68879342D01*
X97120363Y-68879342D02*
X97167982Y-68974580D01*
X97167982Y-68974580D02*
X97215601Y-69022200D01*
X97215601Y-69022200D02*
X97310839Y-69069819D01*
X97310839Y-69069819D02*
X97406077Y-69069819D01*
X97406077Y-69069819D02*
X97501315Y-69022200D01*
X97501315Y-69022200D02*
X97548934Y-68974580D01*
X97548934Y-68974580D02*
X97596553Y-68879342D01*
X97596553Y-68879342D02*
X97644172Y-68688866D01*
X97644172Y-68688866D02*
X97644172Y-68450771D01*
X97644172Y-68450771D02*
X97596553Y-68260295D01*
X97596553Y-68260295D02*
X97548934Y-68165057D01*
X97548934Y-68165057D02*
X97501315Y-68117438D01*
X97501315Y-68117438D02*
X97406077Y-68069819D01*
X96120363Y-69069819D02*
X96691791Y-69069819D01*
X96406077Y-69069819D02*
X96406077Y-68069819D01*
X96406077Y-68069819D02*
X96501315Y-68212676D01*
X96501315Y-68212676D02*
X96596553Y-68307914D01*
X96596553Y-68307914D02*
X96691791Y-68355533D01*
X95691791Y-68974580D02*
X95644172Y-69022200D01*
X95644172Y-69022200D02*
X95691791Y-69069819D01*
X95691791Y-69069819D02*
X95739410Y-69022200D01*
X95739410Y-69022200D02*
X95691791Y-68974580D01*
X95691791Y-68974580D02*
X95691791Y-69069819D01*
X95263220Y-68165057D02*
X95215601Y-68117438D01*
X95215601Y-68117438D02*
X95120363Y-68069819D01*
X95120363Y-68069819D02*
X94882268Y-68069819D01*
X94882268Y-68069819D02*
X94787030Y-68117438D01*
X94787030Y-68117438D02*
X94739411Y-68165057D01*
X94739411Y-68165057D02*
X94691792Y-68260295D01*
X94691792Y-68260295D02*
X94691792Y-68355533D01*
X94691792Y-68355533D02*
X94739411Y-68498390D01*
X94739411Y-68498390D02*
X95310839Y-69069819D01*
X95310839Y-69069819D02*
X94691792Y-69069819D01*
X94072744Y-68069819D02*
X93977506Y-68069819D01*
X93977506Y-68069819D02*
X93882268Y-68117438D01*
X93882268Y-68117438D02*
X93834649Y-68165057D01*
X93834649Y-68165057D02*
X93787030Y-68260295D01*
X93787030Y-68260295D02*
X93739411Y-68450771D01*
X93739411Y-68450771D02*
X93739411Y-68688866D01*
X93739411Y-68688866D02*
X93787030Y-68879342D01*
X93787030Y-68879342D02*
X93834649Y-68974580D01*
X93834649Y-68974580D02*
X93882268Y-69022200D01*
X93882268Y-69022200D02*
X93977506Y-69069819D01*
X93977506Y-69069819D02*
X94072744Y-69069819D01*
X94072744Y-69069819D02*
X94167982Y-69022200D01*
X94167982Y-69022200D02*
X94215601Y-68974580D01*
X94215601Y-68974580D02*
X94263220Y-68879342D01*
X94263220Y-68879342D02*
X94310839Y-68688866D01*
X94310839Y-68688866D02*
X94310839Y-68450771D01*
X94310839Y-68450771D02*
X94263220Y-68260295D01*
X94263220Y-68260295D02*
X94215601Y-68165057D01*
X94215601Y-68165057D02*
X94167982Y-68117438D01*
X94167982Y-68117438D02*
X94072744Y-68069819D01*
X93358458Y-68165057D02*
X93310839Y-68117438D01*
X93310839Y-68117438D02*
X93215601Y-68069819D01*
X93215601Y-68069819D02*
X92977506Y-68069819D01*
X92977506Y-68069819D02*
X92882268Y-68117438D01*
X92882268Y-68117438D02*
X92834649Y-68165057D01*
X92834649Y-68165057D02*
X92787030Y-68260295D01*
X92787030Y-68260295D02*
X92787030Y-68355533D01*
X92787030Y-68355533D02*
X92834649Y-68498390D01*
X92834649Y-68498390D02*
X93406077Y-69069819D01*
X93406077Y-69069819D02*
X92787030Y-69069819D01*
X91929887Y-68069819D02*
X92120363Y-68069819D01*
X92120363Y-68069819D02*
X92215601Y-68117438D01*
X92215601Y-68117438D02*
X92263220Y-68165057D01*
X92263220Y-68165057D02*
X92358458Y-68307914D01*
X92358458Y-68307914D02*
X92406077Y-68498390D01*
X92406077Y-68498390D02*
X92406077Y-68879342D01*
X92406077Y-68879342D02*
X92358458Y-68974580D01*
X92358458Y-68974580D02*
X92310839Y-69022200D01*
X92310839Y-69022200D02*
X92215601Y-69069819D01*
X92215601Y-69069819D02*
X92025125Y-69069819D01*
X92025125Y-69069819D02*
X91929887Y-69022200D01*
X91929887Y-69022200D02*
X91882268Y-68974580D01*
X91882268Y-68974580D02*
X91834649Y-68879342D01*
X91834649Y-68879342D02*
X91834649Y-68641247D01*
X91834649Y-68641247D02*
X91882268Y-68546009D01*
X91882268Y-68546009D02*
X91929887Y-68498390D01*
X91929887Y-68498390D02*
X92025125Y-68450771D01*
X92025125Y-68450771D02*
X92215601Y-68450771D01*
X92215601Y-68450771D02*
X92310839Y-68498390D01*
X92310839Y-68498390D02*
X92358458Y-68546009D01*
X92358458Y-68546009D02*
X92406077Y-68641247D01*
D12*
%TO.P,D2,1,K*%
%TO.N,Net-(D1-K)*%
X128800000Y-56600000D03*
D13*
%TO.P,D2,2,A*%
%TO.N,Net-(D1-A)*%
X126260000Y-56600000D03*
%TD*%
D12*
%TO.P,D1,1,K*%
%TO.N,Net-(D1-K)*%
X116460000Y-55300000D03*
D13*
%TO.P,D1,2,A*%
%TO.N,Net-(D1-A)*%
X119000000Y-55300000D03*
%TD*%
D14*
%TO.P,S1,1,A*%
%TO.N,Net-(S1-A-Pad1)*%
X193400000Y-64900000D03*
%TO.P,S1,2,E*%
%TO.N,Net-(S1-E)*%
X193400000Y-67440000D03*
%TO.P,S1,3,A*%
%TO.N,unconnected-(S1-A-Pad3)*%
X193400000Y-69980000D03*
%TD*%
D15*
%TO.P,U1,1,GND*%
%TO.N,Net-(D1-K)*%
X167600000Y-115000000D03*
D16*
%TO.P,U1,2,TR*%
%TO.N,Net-(D3-K)*%
X170140000Y-115000000D03*
%TO.P,U1,3,Q*%
%TO.N,unconnected-(U1-Q-Pad3)*%
X172680000Y-115000000D03*
%TO.P,U1,4,R*%
%TO.N,Net-(S1-E)*%
X175220000Y-115000000D03*
%TO.P,U1,5,CV*%
%TO.N,unconnected-(U1-CV-Pad5)*%
X175220000Y-122620000D03*
%TO.P,U1,6,THR*%
%TO.N,Net-(D3-K)*%
X172680000Y-122620000D03*
%TO.P,U1,7,DIS*%
%TO.N,Net-(D3-A)*%
X170140000Y-122620000D03*
%TO.P,U1,8,VCC*%
%TO.N,Net-(S1-E)*%
X167600000Y-122620000D03*
%TD*%
D17*
%TO.P,Q2,1,E*%
%TO.N,Net-(D1-A)*%
X120600000Y-114300000D03*
D18*
%TO.P,Q2,2,B*%
%TO.N,Net-(Q1-C)*%
X118060000Y-111760000D03*
%TO.P,Q2,3,C*%
%TO.N,Net-(Q2-C)*%
X120600000Y-109220000D03*
%TD*%
D16*
%TO.P,R3,1*%
%TO.N,Net-(D3-K)*%
X149450000Y-123660000D03*
%TO.P,R3,2*%
%TO.N,Net-(Q1-B)*%
X149450000Y-113500000D03*
%TD*%
%TO.P,R6,1*%
%TO.N,Net-(S1-E)*%
X137300000Y-123660000D03*
%TO.P,R6,2*%
%TO.N,Net-(Q2-C)*%
X137300000Y-113500000D03*
%TD*%
%TO.P,R8,1*%
%TO.N,Net-(S1-E)*%
X129200000Y-123660000D03*
%TO.P,R8,2*%
%TO.N,Net-(D3-A)*%
X129200000Y-113500000D03*
%TD*%
D17*
%TO.P,Q1,1,E*%
%TO.N,Net-(D1-K)*%
X111857615Y-114000000D03*
D18*
%TO.P,Q1,2,B*%
%TO.N,Net-(Q1-B)*%
X109317615Y-111460000D03*
%TO.P,Q1,3,C*%
%TO.N,Net-(Q1-C)*%
X111857615Y-108920000D03*
%TD*%
D19*
%TO.P,D3,1,K*%
%TO.N,Net-(D3-K)*%
X155000000Y-122520000D03*
D20*
%TO.P,D3,2,A*%
%TO.N,Net-(D3-A)*%
X155000000Y-114900000D03*
%TD*%
D16*
%TO.P,R5,1*%
%TO.N,Net-(S1-E)*%
X141350000Y-123660000D03*
%TO.P,R5,2*%
%TO.N,Net-(Q1-C)*%
X141350000Y-113500000D03*
%TD*%
%TO.P,R4,1*%
%TO.N,Net-(Q1-B)*%
X145400000Y-123660000D03*
%TO.P,R4,2*%
%TO.N,Net-(D1-K)*%
X145400000Y-113500000D03*
%TD*%
%TO.P,R7,1*%
%TO.N,Net-(D3-K)*%
X133250000Y-123660000D03*
%TO.P,R7,2*%
%TO.N,Net-(D3-A)*%
X133250000Y-113500000D03*
%TD*%
D19*
%TO.P,C1,1*%
%TO.N,Net-(D3-K)*%
X187300000Y-105100000D03*
D16*
%TO.P,C1,2*%
%TO.N,Net-(D1-K)*%
X189800000Y-105100000D03*
%TD*%
D21*
%TO.P,U2,*%
%TO.N,*%
X149246000Y-97268000D03*
X149246000Y-100824000D03*
%TO.P,U2,1*%
%TO.N,Net-(S1-A-Pad1)*%
X175140000Y-97268000D03*
X175140000Y-100824000D03*
D22*
%TO.P,U2,2*%
%TO.N,Net-(D1-K)*%
X162200000Y-99300000D03*
%TD*%
D23*
%TO.P,REF\u002A\u002A,A5*%
%TO.N,N/C*%
X201300000Y-89550000D03*
D24*
%TO.P,REF\u002A\u002A,A9*%
%TO.N,Net-(S1-A-Pad1)*%
X201300000Y-91570000D03*
D25*
%TO.P,REF\u002A\u002A,A12*%
%TO.N,Net-(D1-K)*%
X201300000Y-92800000D03*
D26*
%TO.P,REF\u002A\u002A,B5*%
%TO.N,N/C*%
X201300000Y-90550000D03*
D27*
%TO.P,REF\u002A\u002A,B9*%
%TO.N,Net-(S1-A-Pad1)*%
X201300000Y-88530000D03*
D28*
%TO.P,REF\u002A\u002A,B12*%
%TO.N,Net-(D1-K)*%
X201300000Y-87300000D03*
D29*
%TO.P,REF\u002A\u002A,S1*%
%TO.N,N/C*%
X205180000Y-85730000D03*
X201380000Y-85730000D03*
X205180000Y-94370000D03*
X201380000Y-94370000D03*
%TD*%
D30*
%TO.N,Net-(Q1-C)*%
X141400000Y-111500000D02*
X141350000Y-111550000D01*
X141350000Y-111550000D02*
X141350000Y-113500000D01*
X119270000Y-110550000D02*
X140450000Y-110550000D01*
X118060000Y-111760000D02*
X119270000Y-110550000D01*
X140450000Y-110550000D02*
X141400000Y-111500000D01*
%TO.N,Net-(D1-K)*%
X188100000Y-103400000D02*
X166300000Y-103400000D01*
X189800000Y-105100000D02*
X188100000Y-103400000D01*
X166300000Y-103400000D02*
X162200000Y-99300000D01*
X145500000Y-90500000D02*
X152700000Y-90500000D01*
X152700000Y-90500000D02*
X161900000Y-99700000D01*
%TO.N,Net-(S1-A-Pad1)*%
X174840000Y-97668000D02*
X174840000Y-101224000D01*
X174932000Y-97668000D02*
X174840000Y-97668000D01*
X177532000Y-95068000D02*
X174932000Y-97668000D01*
X191832000Y-95068000D02*
X177532000Y-95068000D01*
X195400000Y-91500000D02*
X191832000Y-95068000D01*
X195420000Y-91520000D02*
X195400000Y-91500000D01*
X201167500Y-91520000D02*
X195420000Y-91520000D01*
%TO.N,Net-(Q1-C)*%
X115220000Y-108920000D02*
X111857615Y-108920000D01*
X118060000Y-111760000D02*
X115220000Y-108920000D01*
%TO.N,Net-(Q1-B)*%
X109317615Y-115017615D02*
X109317615Y-111460000D01*
X110900000Y-116600000D02*
X109317615Y-115017615D01*
%TO.N,Net-(D3-K)*%
X187300000Y-105100000D02*
X176500000Y-105100000D01*
X176500000Y-105100000D02*
X170140000Y-111460000D01*
X170140000Y-115000000D02*
X170140000Y-117240000D01*
X172680000Y-119780000D02*
X172680000Y-122620000D01*
X170140000Y-117240000D02*
X172680000Y-119780000D01*
X170140000Y-111460000D02*
X170140000Y-115000000D01*
%TO.N,Net-(D1-K)*%
X111857615Y-114477534D02*
X112700000Y-114477534D01*
X193600000Y-103800000D02*
X192300000Y-105100000D01*
X145500000Y-90500000D02*
X128800000Y-73800000D01*
X201300000Y-92800000D02*
X203700000Y-92800000D01*
X199650000Y-92750000D02*
X193700000Y-98700000D01*
X193700000Y-103800000D02*
X193600000Y-103800000D01*
X204500000Y-88300000D02*
X204500000Y-92000000D01*
X126900000Y-53000000D02*
X128800000Y-54900000D01*
X166500000Y-104300000D02*
X161900000Y-99700000D01*
X201167500Y-87250000D02*
X203450000Y-87250000D01*
X128800000Y-73800000D02*
X128800000Y-56600000D01*
X201167500Y-92750000D02*
X199650000Y-92750000D01*
X203700000Y-92800000D02*
X204500000Y-92000000D01*
X128800000Y-54900000D02*
X128800000Y-56600000D01*
X117600000Y-53000000D02*
X126900000Y-53000000D01*
X193700000Y-98700000D02*
X193700000Y-103800000D01*
X116460000Y-55300000D02*
X116460000Y-54140000D01*
X203450000Y-87250000D02*
X204500000Y-88300000D01*
X116460000Y-54140000D02*
X117600000Y-53000000D01*
X192300000Y-105100000D02*
X189800000Y-105100000D01*
%TO.N,Net-(D1-A)*%
X119000000Y-55300000D02*
X124960000Y-55300000D01*
X124960000Y-55300000D02*
X126260000Y-56600000D01*
%TO.N,Net-(D3-A)*%
X170140000Y-122620000D02*
X165220000Y-117700000D01*
X129200000Y-113500000D02*
X133250000Y-113500000D01*
X160700000Y-117700000D02*
X157900000Y-114900000D01*
X157900000Y-114900000D02*
X155000000Y-114900000D01*
X165220000Y-117700000D02*
X160700000Y-117700000D01*
%TO.N,Net-(Q1-B)*%
X149450000Y-113500000D02*
X149450000Y-119610000D01*
X149450000Y-119610000D02*
X145400000Y-123660000D01*
X139500000Y-116600000D02*
X110900000Y-116600000D01*
X145400000Y-123660000D02*
X145400000Y-122500000D01*
X145400000Y-122500000D02*
X139500000Y-116600000D01*
%TO.N,Net-(Q2-C)*%
X137400000Y-112600000D02*
X137400000Y-113400000D01*
X137400000Y-113400000D02*
X137300000Y-113500000D01*
%TO.N,Net-(S1-E)*%
X141350000Y-123660000D02*
X141350000Y-125050000D01*
X138700000Y-127700000D02*
X131300000Y-127700000D01*
X168800000Y-126100000D02*
X167600000Y-124900000D01*
X175220000Y-115000000D02*
X179500000Y-119280000D01*
X179500000Y-124500000D02*
X177900000Y-126100000D01*
X162520000Y-127700000D02*
X145390000Y-127700000D01*
X141350000Y-125050000D02*
X138700000Y-127700000D01*
X177900000Y-126100000D02*
X168800000Y-126100000D01*
X145390000Y-127700000D02*
X141350000Y-123660000D01*
X179500000Y-119280000D02*
X179500000Y-124500000D01*
X167600000Y-124900000D02*
X167600000Y-122620000D01*
X131300000Y-127700000D02*
X129200000Y-125600000D01*
X129200000Y-125600000D02*
X129200000Y-123660000D01*
X141350000Y-123660000D02*
X137300000Y-123660000D01*
X167600000Y-122620000D02*
X162520000Y-127700000D01*
%TO.N,Net-(S1-A-Pad1)*%
X202680000Y-88480000D02*
X198880000Y-88480000D01*
X197800000Y-87400000D02*
X197800000Y-69300000D01*
X203400000Y-91100000D02*
X203400000Y-89200000D01*
X198880000Y-88480000D02*
X197800000Y-87400000D01*
X203400000Y-89200000D02*
X202680000Y-88480000D01*
X202930000Y-91570000D02*
X203400000Y-91100000D01*
X197800000Y-69300000D02*
X193400000Y-64900000D01*
X201300000Y-91570000D02*
X202930000Y-91570000D01*
%TD*%
M02*
