%TF.GenerationSoftware,KiCad,Pcbnew,9.0.6*%
%TF.CreationDate,2026-01-09T14:19:34+01:00*%
%TF.ProjectId,Alligator,416c6c69-6761-4746-9f72-2e6b69636164,rev?*%
%TF.SameCoordinates,Original*%
%TF.FileFunction,Profile,NP*%
%FSLAX46Y46*%
G04 Gerber Fmt 4.6, Leading zero omitted, Abs format (unit mm)*
G04 Created by KiCad (PCBNEW 9.0.6) date 2026-01-09 14:19:34*
%MOMM*%
%LPD*%
G01*
G04 APERTURE LIST*
%TA.AperFunction,Profile*%
%ADD10C,0.100000*%
%TD*%
G04 APERTURE END LIST*
D10*
X95938800Y-53418300D02*
X95523600Y-53539800D01*
X122911100Y-46962300D02*
X122310200Y-46350700D01*
X183869500Y-125991800D02*
X183810500Y-125375800D01*
X187300500Y-60258000D02*
X187109500Y-60513900D01*
X95523600Y-53539800D02*
X95115600Y-53681200D01*
X116662000Y-133545800D02*
X116989700Y-133700800D01*
X200906500Y-66121500D02*
X200328500Y-65462100D01*
X174066500Y-136109800D02*
X174871500Y-135940800D01*
X195138500Y-118284800D02*
X195737500Y-117793800D01*
X91404400Y-51697100D02*
X91209600Y-51398600D01*
X74003700Y-47262000D02*
X73516000Y-47537700D01*
X114083400Y-129473800D02*
X114099700Y-129838800D01*
X84904700Y-48413500D02*
X84566600Y-48452200D01*
X188201500Y-81930900D02*
X188218500Y-82312600D01*
X102066600Y-115229800D02*
X102190700Y-115546800D01*
X147097800Y-133159800D02*
X147336200Y-133328800D01*
X149270000Y-79014500D02*
X149544500Y-78625700D01*
X88894800Y-49237100D02*
X88578900Y-49073800D01*
X184400500Y-88921300D02*
X184268500Y-88901900D01*
X182954500Y-131047800D02*
X183178500Y-130602800D01*
X180187500Y-89084500D02*
X179882500Y-89254600D01*
X106062500Y-103366800D02*
X105782100Y-103785800D01*
X121964700Y-134540800D02*
X122534800Y-134525800D01*
X128250100Y-135026800D02*
X128694000Y-135318800D01*
X99684400Y-89057200D02*
X101000000Y-89453400D01*
X115004800Y-132175800D02*
X115235400Y-132451800D01*
X190058500Y-58946600D02*
X189751500Y-58966500D01*
X109548500Y-119796800D02*
X109881800Y-119761800D01*
X101897000Y-114648800D02*
X102066600Y-115229800D01*
X185480500Y-86682000D02*
X185266500Y-86988900D01*
X77037600Y-76894400D02*
X77823500Y-77635100D01*
X149132500Y-72205900D02*
X148811300Y-71812500D01*
X208626500Y-84863400D02*
X208458500Y-83446700D01*
X115704400Y-119697800D02*
X116630000Y-120465800D01*
X187109500Y-60513900D02*
X186942500Y-60785600D01*
X100640900Y-53490400D02*
X100225600Y-53370700D01*
X179055500Y-89902300D02*
X178813500Y-90163600D01*
X72637200Y-71050600D02*
X72836300Y-71428900D01*
X186837500Y-64603400D02*
X186986500Y-64980700D01*
X78636800Y-78348600D02*
X79474300Y-79036100D01*
X208368500Y-95610800D02*
X208543500Y-94352800D01*
X201576500Y-111627800D02*
X202030500Y-110999800D01*
X68222600Y-60648900D02*
X68236800Y-61225700D01*
X176826500Y-88448900D02*
X176530500Y-88161700D01*
X70472700Y-67763800D02*
X70846800Y-68094800D01*
X186536500Y-63596300D02*
X186611500Y-63910200D01*
X186454500Y-62631000D02*
X186457500Y-62954500D01*
X99804200Y-53274700D02*
X99377900Y-53202000D01*
X111279700Y-119444800D02*
X111684800Y-119308800D01*
X147711200Y-70747600D02*
X147308800Y-70433400D01*
X204181500Y-70710700D02*
X203812500Y-70100100D01*
X203029500Y-68903700D02*
X202528500Y-68188900D01*
X138049900Y-48813800D02*
X137731200Y-48514100D01*
X120827300Y-134512800D02*
X121395300Y-134537800D01*
X150263400Y-74428700D02*
X150110400Y-73952400D01*
X107544600Y-119682800D02*
X108209000Y-119780800D01*
X200132500Y-113446800D02*
X200627500Y-112851800D01*
X200328500Y-65462100D02*
X199730500Y-64819600D01*
X187758500Y-59802500D02*
X187517500Y-60020200D01*
X190084500Y-77399300D02*
X190629500Y-77823800D01*
X70882300Y-50137100D02*
X70546300Y-50667100D01*
X156844500Y-87479800D02*
X156542500Y-87797900D01*
X105043700Y-118734800D02*
X105635100Y-119050800D01*
X104004500Y-106239800D02*
X103685100Y-106732800D01*
X114996700Y-126788800D02*
X114802700Y-127097800D01*
X76281800Y-76125000D02*
X77037600Y-76894400D01*
X99377900Y-53202000D02*
X98948000Y-53152300D01*
X198571500Y-115163800D02*
X199104500Y-114602800D01*
X145755200Y-59981100D02*
X145473600Y-59729400D01*
X166703500Y-136639800D02*
X167525500Y-136670800D01*
X202030500Y-110999800D02*
X202470500Y-110359800D01*
X147207800Y-62515100D02*
X147080800Y-62060300D01*
X182901500Y-88566800D02*
X182551500Y-88548400D01*
X190312500Y-78037200D02*
X190011500Y-78274200D01*
X91938400Y-86259900D02*
X93207400Y-86782300D01*
X132227200Y-136526800D02*
X132764800Y-136600800D01*
X94486300Y-87280600D02*
X95774400Y-87756000D01*
X92711800Y-52854000D02*
X91908500Y-52636300D01*
X189340500Y-76675700D02*
X189575500Y-76929400D01*
X145918900Y-69577600D02*
X145824300Y-69524400D01*
X186582500Y-123563800D02*
X187976500Y-122887800D01*
X191896500Y-59239600D02*
X191596500Y-59147700D01*
X116412800Y-125140800D02*
X115908200Y-125647800D01*
X102190700Y-115546800D02*
X102331100Y-115854800D01*
X208149500Y-96862800D02*
X208368500Y-95610800D01*
X205923500Y-104134800D02*
X206402500Y-102958800D01*
X167171500Y-88035000D02*
X166883500Y-87675400D01*
X105526800Y-50505400D02*
X105135200Y-51261000D01*
X105923500Y-98416800D02*
X106000300Y-99924800D01*
X121320300Y-45534900D02*
X120951500Y-45308200D01*
X146286700Y-132323800D02*
X146465400Y-132556800D01*
X180503500Y-88937500D02*
X180187500Y-89084500D01*
X148097700Y-71082600D02*
X147711200Y-70747600D01*
X114222600Y-130568800D02*
X114323700Y-130916800D01*
X108209000Y-119780800D02*
X108543500Y-119807800D01*
X186709500Y-64216700D02*
X186837500Y-64603400D01*
X167953500Y-89148100D02*
X167446500Y-88402100D01*
X174831500Y-87056200D02*
X174453500Y-86918100D01*
X141594300Y-56646200D02*
X141498000Y-56026900D01*
X73619000Y-72731400D02*
X74224800Y-73630000D01*
X113855500Y-43895200D02*
X113483500Y-43970800D01*
X148492500Y-85012700D02*
X148179100Y-85158300D01*
X188274500Y-81176200D02*
X188221500Y-81551500D01*
X175198500Y-87225200D02*
X174831500Y-87056200D01*
X183902500Y-126609800D02*
X183869500Y-125991800D01*
X188219500Y-73143500D02*
X188183500Y-73539300D01*
X113483500Y-43970800D02*
X112752700Y-44165100D01*
X185721500Y-86395100D02*
X185480500Y-86682000D01*
X181429500Y-132994800D02*
X181782500Y-132643800D01*
X90044400Y-50060800D02*
X89774500Y-49831300D01*
X69244100Y-66202200D02*
X69499400Y-66630600D01*
X73516000Y-47537700D02*
X73281700Y-47696100D01*
X193532500Y-60002400D02*
X192754500Y-59597000D01*
X177252500Y-135305800D02*
X178033500Y-135050800D01*
X140480700Y-52411800D02*
X140225100Y-51843700D01*
X114996400Y-43759300D02*
X114996400Y-43759300D01*
X115206500Y-126488800D02*
X114996700Y-126788800D01*
X193911500Y-119230800D02*
X194530500Y-118763800D01*
X146949500Y-66252900D02*
X147083500Y-65791400D01*
X96786400Y-53236100D02*
X96360200Y-53316900D01*
X115486600Y-132710800D02*
X115756600Y-132949800D01*
X125493200Y-46571400D02*
X125098700Y-46769500D01*
X70119600Y-67410300D02*
X70472700Y-67763800D01*
X176465500Y-135538800D02*
X177252500Y-135305800D01*
X208674500Y-93088800D02*
X208761500Y-91821300D01*
X199730500Y-64819600D02*
X199114500Y-64195300D01*
X148959500Y-134001800D02*
X149249500Y-134057800D01*
X80333300Y-79699200D02*
X81210900Y-80339200D01*
X85922600Y-48391100D02*
X85583300Y-48382500D01*
X70846800Y-68094800D02*
X71235900Y-68404400D01*
X164658500Y-136487800D02*
X165065500Y-136507800D01*
X68860400Y-65196400D02*
X69033300Y-65746600D01*
X145473600Y-59729400D02*
X145176800Y-59494900D01*
X186942500Y-60785600D02*
X186800500Y-61071100D01*
X187976500Y-122887800D02*
X189347500Y-122160800D01*
X160540500Y-85155000D02*
X160123500Y-85284000D01*
X145636600Y-131648800D02*
X145739300Y-131545800D01*
X97216300Y-53176200D02*
X96786400Y-53236100D01*
X150110400Y-73952400D02*
X149917900Y-73491300D01*
X161399500Y-84992500D02*
X160966500Y-85057100D01*
X82011500Y-49056500D02*
X81827400Y-49009300D01*
X161907500Y-135653800D02*
X162271500Y-135846800D01*
X189489500Y-70229200D02*
X189254500Y-70548500D01*
X68385900Y-62946900D02*
X68473500Y-63515400D01*
X188512500Y-71976200D02*
X188386500Y-72359800D01*
X188657500Y-83958300D02*
X188846500Y-84383700D01*
X138906300Y-49739100D02*
X138495700Y-49264300D01*
X160376500Y-134321800D02*
X160634500Y-134636800D01*
X146491200Y-60847800D02*
X146265600Y-60539300D01*
X152674600Y-84873100D02*
X152261200Y-84723100D01*
X90302300Y-50304400D02*
X90044400Y-50060800D01*
X71648200Y-49145800D02*
X71249100Y-49629200D01*
X110035700Y-45457500D02*
X109415200Y-45893400D01*
X140583800Y-135682800D02*
X141244600Y-135382800D01*
X156013400Y-87758400D02*
X155753800Y-87399300D01*
X91586000Y-52003600D02*
X91404400Y-51697100D01*
X105172700Y-104590800D02*
X104556700Y-105392800D01*
X146036300Y-69623500D02*
X145918900Y-69577600D01*
X95774400Y-87756000D02*
X97070700Y-88209800D01*
X164059500Y-85408200D02*
X163639500Y-85243000D01*
X188922500Y-76127000D02*
X189122500Y-76408500D01*
X145697400Y-69398800D02*
X145661800Y-69328000D01*
X147551300Y-80698400D02*
X147931200Y-80396800D01*
X106001900Y-93887800D02*
X105925300Y-95396800D01*
X145299800Y-132120800D02*
X145414400Y-131964800D01*
X187239500Y-85287000D02*
X186902500Y-85462400D01*
X184510500Y-88904000D02*
X184400500Y-88921300D01*
X112041100Y-44414100D02*
X111350100Y-44714600D01*
X144866300Y-59276500D02*
X144543900Y-59073300D01*
X178207500Y-90407500D02*
X178126500Y-90271800D01*
X83009700Y-81555900D02*
X83925200Y-82135400D01*
X189122500Y-76408500D02*
X189340500Y-76675700D01*
X171140500Y-87080100D02*
X170819500Y-87207900D01*
X68384100Y-57768900D02*
X68276000Y-58917500D01*
X187948500Y-85011100D02*
X187588500Y-85136300D01*
X101762400Y-111708800D02*
X101703000Y-112295800D01*
X87914300Y-48805500D02*
X87590900Y-48691200D01*
X128412400Y-45695800D02*
X127982800Y-45767300D01*
X203428500Y-69497600D02*
X203029500Y-68903700D01*
X154039000Y-134233800D02*
X155090100Y-134146800D01*
X114339000Y-128073800D02*
X114231700Y-128413800D01*
X110542100Y-119642800D02*
X110867800Y-119558800D01*
X186589500Y-61675000D02*
X186520500Y-61989100D01*
X147931200Y-80396800D02*
X148296100Y-80077500D01*
X83925200Y-82135400D02*
X84847500Y-82697500D01*
X206080500Y-74528900D02*
X205800500Y-73875800D01*
X112471100Y-118974800D02*
X112850600Y-118777800D01*
X137400800Y-48228000D02*
X137059200Y-47955600D01*
X101778400Y-114062800D02*
X101897000Y-114648800D01*
X139283200Y-50236300D02*
X138906300Y-49739100D01*
X124812800Y-134307800D02*
X125942700Y-134131800D01*
X147193300Y-65325100D02*
X147276300Y-64855300D01*
X69793100Y-67032900D02*
X70119600Y-67410300D01*
X150406200Y-76429600D02*
X150455400Y-75941000D01*
X111350100Y-44714600D02*
X110681100Y-45063500D01*
X115235400Y-132451800D02*
X115486600Y-132710800D01*
X138510300Y-136356800D02*
X139214100Y-136169800D01*
X147261400Y-83331000D02*
X146990600Y-82883000D01*
X117608600Y-121740800D02*
X117614500Y-122280800D01*
X106130400Y-101429800D02*
X106314800Y-102928800D01*
X127133800Y-45963200D02*
X126715500Y-46087900D01*
X127556400Y-45856300D02*
X127133800Y-45963200D01*
X185166500Y-124189800D02*
X186582500Y-123563800D01*
X89433800Y-85137900D02*
X90680200Y-85712200D01*
X196466500Y-61904200D02*
X195759500Y-61389200D01*
X129639100Y-135804800D02*
X130135700Y-136001800D01*
X154195900Y-85782000D02*
X153836700Y-85514100D01*
X117543400Y-123089800D02*
X117492900Y-123352800D01*
X208240500Y-82037200D02*
X207969500Y-80637500D01*
X101000000Y-89453400D02*
X102320400Y-89832700D01*
X103253300Y-117245800D02*
X103477300Y-117492800D01*
X106314800Y-102928800D02*
X106062500Y-103366800D01*
X148465400Y-71437800D02*
X148097700Y-71082600D01*
X68268300Y-61801400D02*
X68317700Y-62375400D01*
X146327100Y-82075400D02*
X145939800Y-81724200D01*
X187588500Y-85136300D02*
X187239500Y-85287000D01*
X81654200Y-48930000D02*
X81495200Y-48820700D01*
X98082200Y-53120400D02*
X97648600Y-53137500D01*
X172139500Y-86804500D02*
X171800500Y-86877100D01*
X119926600Y-44740500D02*
X119570900Y-44579600D01*
X114612200Y-43789100D02*
X114231900Y-43834500D01*
X184926500Y-87659100D02*
X184805500Y-88020800D01*
X179591500Y-89447600D02*
X179314500Y-89663600D01*
X160634500Y-134636800D02*
X160919500Y-134927800D01*
X136353800Y-136690800D02*
X137077600Y-136617800D01*
X204534500Y-71329200D02*
X204181500Y-70710700D01*
X130135700Y-136001800D02*
X130645100Y-136170800D01*
X183595500Y-88676100D02*
X183250500Y-88609300D01*
X73057900Y-71796900D02*
X73619000Y-72731400D01*
X147330200Y-64384000D02*
X147352700Y-63912600D01*
X149425900Y-72617300D02*
X149132500Y-72205900D01*
X190690500Y-121384800D02*
X192003500Y-120559800D01*
X105898800Y-96906800D02*
X105923500Y-98416800D01*
X188664500Y-71601100D02*
X188512500Y-71976200D01*
X148812900Y-84882700D02*
X148492500Y-85012700D01*
X177613500Y-89399500D02*
X177368500Y-89070200D01*
X146019800Y-60250700D02*
X145755200Y-59981100D01*
X188284500Y-74716000D02*
X188394500Y-75097400D01*
X148811300Y-71812500D02*
X148465400Y-71437800D01*
X81353500Y-48683300D02*
X81232100Y-48520200D01*
X150149400Y-84547800D02*
X149808400Y-84600800D01*
X208761500Y-91821300D02*
X208803500Y-90551600D01*
X180665500Y-133635800D02*
X181056500Y-133325800D01*
X144543900Y-59073300D02*
X144211200Y-58884400D01*
X119136400Y-134296800D02*
X119697300Y-134394800D01*
X147080800Y-62060300D02*
X146910600Y-61613800D01*
X83238500Y-48752300D02*
X82598400Y-48983800D01*
X112850600Y-118777800D02*
X113219900Y-118562800D01*
X105482600Y-104191800D02*
X105172700Y-104590800D01*
X155476100Y-87048300D02*
X155180800Y-86708200D01*
X162289500Y-84972500D02*
X161840500Y-84963600D01*
X135628300Y-136726800D02*
X136353800Y-136690800D01*
X118842100Y-44300400D02*
X118093700Y-44078100D01*
X138495700Y-49264300D02*
X138049900Y-48813800D01*
X114471500Y-127740800D02*
X114339000Y-128073800D01*
X148179100Y-85158300D02*
X147873400Y-85318000D01*
X70546300Y-50667100D02*
X70239500Y-51216700D01*
X89774500Y-49831300D02*
X89492800Y-49616800D01*
X125942700Y-134131800D02*
X127060900Y-133928800D01*
X186520500Y-61989100D02*
X186475500Y-62308400D01*
X188477500Y-80444900D02*
X188360500Y-80806700D01*
X199624500Y-114030800D02*
X200132500Y-113446800D01*
X170819500Y-87207900D02*
X170504500Y-87351500D01*
X132744300Y-45910500D02*
X132317400Y-45815500D01*
X188023500Y-59607000D02*
X187758500Y-59802500D01*
X149833800Y-134119800D02*
X150881700Y-134226800D01*
X72549400Y-48262800D02*
X72081100Y-48689600D01*
X163639500Y-85243000D02*
X163204500Y-85113500D01*
X184661500Y-88745800D02*
X184597500Y-88846700D01*
X141498000Y-56026900D02*
X141383000Y-55409200D01*
X181851500Y-88583400D02*
X181505500Y-88636700D01*
X80818000Y-48147500D02*
X80371400Y-47813800D01*
X147667000Y-84294000D02*
X147487700Y-83802800D01*
X180829500Y-88813800D02*
X180503500Y-88937500D01*
X186579500Y-85661700D02*
X186273500Y-85884100D01*
X118093700Y-44078100D02*
X117330400Y-43912700D01*
X114626900Y-127414800D02*
X114471500Y-127740800D01*
X147352700Y-63912600D02*
X147341300Y-63442900D01*
X137797300Y-136505800D02*
X138510300Y-136356800D01*
X69033300Y-65746600D02*
X69244100Y-66202200D01*
X81210900Y-80339200D02*
X82103900Y-80957700D01*
X184268500Y-88901900D02*
X184113500Y-88849400D01*
X146468500Y-69870700D02*
X146036300Y-69623500D01*
X149471600Y-84675300D02*
X149139500Y-84769800D01*
X104483500Y-118367800D02*
X105043700Y-118734800D01*
X183692500Y-129062800D02*
X183805500Y-128456800D01*
X117492900Y-123352800D02*
X117426800Y-123610800D01*
X171800500Y-86877100D02*
X171467500Y-86969400D01*
X207887500Y-98105800D02*
X208149500Y-96862800D01*
X122534800Y-134525800D02*
X123105300Y-134492800D01*
X189575500Y-76929400D02*
X189823500Y-77170400D01*
X68236800Y-61225700D02*
X68268300Y-61801400D01*
X165227500Y-86089300D02*
X164853500Y-85834100D01*
X197827500Y-63006000D02*
X197156500Y-62443600D01*
X112082300Y-119152800D02*
X112471100Y-118974800D01*
X104268300Y-105807800D02*
X104004500Y-106239800D01*
X145787500Y-131521800D02*
X145833300Y-131519800D01*
X156542500Y-87797900D02*
X156254300Y-88122700D01*
X201108500Y-112245800D02*
X201576500Y-111627800D01*
X153836700Y-85514100D02*
X153463000Y-85271500D01*
X73281700Y-47696100D02*
X73054500Y-47868200D01*
X121995900Y-46060700D02*
X121667200Y-45787300D01*
X131887500Y-45736400D02*
X131455200Y-45673300D01*
X98515700Y-53125200D02*
X98082200Y-53120400D01*
X103379800Y-107240800D02*
X103091300Y-107763800D01*
X130149700Y-45582200D02*
X129713700Y-45585100D01*
X104781900Y-52035100D02*
X104459000Y-52822600D01*
X133303600Y-136655800D02*
X133841200Y-136693800D01*
X207267500Y-77877900D02*
X206834500Y-76522900D01*
X157179500Y-133864800D02*
X158213500Y-133677800D01*
X173663500Y-86744400D02*
X173252500Y-86713500D01*
X168347500Y-136678800D02*
X169169500Y-136664800D01*
X208811500Y-87708300D02*
X208743500Y-86284800D01*
X103570100Y-53683800D02*
X102981200Y-53795700D01*
X154540100Y-86072200D02*
X154195900Y-85782000D01*
X169595500Y-87864900D02*
X169021500Y-88263000D01*
X206838500Y-101766800D02*
X207231500Y-100558800D01*
X163204500Y-85113500D02*
X162754500Y-85022400D01*
X136345200Y-47452400D02*
X135973900Y-47222100D01*
X117572600Y-121212800D02*
X117608600Y-121740800D01*
X116626200Y-124961800D02*
X116412800Y-125140800D01*
X148672800Y-133930800D02*
X148959500Y-134001800D01*
X88578900Y-49073800D02*
X88252000Y-48929600D01*
X172483500Y-86752700D02*
X172139500Y-86804500D01*
X145642600Y-69252900D02*
X145647000Y-69092500D01*
X186611500Y-63910200D02*
X186709500Y-64216700D01*
X170504500Y-87351500D02*
X170195500Y-87509800D01*
X175892500Y-87646100D02*
X175552500Y-87422600D01*
X123500400Y-47585600D02*
X122911100Y-46962300D01*
X85773800Y-83243700D02*
X86979700Y-83904900D01*
X145751000Y-69464500D02*
X145697400Y-69398800D01*
X108255100Y-46878200D02*
X107718300Y-47420600D01*
X158929500Y-85835800D02*
X158552500Y-86067200D01*
X145647000Y-69092500D02*
X145697500Y-68923800D01*
X155753800Y-87399300D02*
X155476100Y-87048300D01*
X69960500Y-51783300D02*
X69707700Y-52364500D01*
X71634100Y-68693700D02*
X71965900Y-69480600D01*
X102487000Y-116152800D02*
X102657800Y-116441800D01*
X114612400Y-131575800D02*
X114796500Y-131883800D01*
X69479500Y-52957800D02*
X69274500Y-53560600D01*
X109881800Y-119761800D02*
X110213200Y-119710800D01*
X207969500Y-80637500D02*
X207645500Y-79250200D01*
X148296100Y-80077500D02*
X148642800Y-79740600D01*
X201466500Y-66796600D02*
X200906500Y-66121500D01*
X102981200Y-53795700D02*
X102400800Y-53913100D01*
X190629500Y-77823800D02*
X190312500Y-78037200D01*
X139941200Y-51290500D02*
X139627800Y-50754100D01*
X208743500Y-86284800D02*
X208626500Y-84863400D01*
X172445500Y-136382800D02*
X173257500Y-136257800D01*
X102657800Y-116441800D02*
X102842900Y-116719800D01*
X106252500Y-119315800D02*
X106890700Y-119527800D01*
X71235900Y-68404400D02*
X71634100Y-68693700D01*
X146424700Y-67590700D02*
X146617700Y-67154100D01*
X203812500Y-70100100D02*
X203428500Y-69497600D01*
X75040800Y-46870200D02*
X74513400Y-47039900D01*
X187332500Y-65711800D02*
X187729500Y-66419300D01*
X88252000Y-48929600D02*
X87914300Y-48805500D01*
X127431200Y-134333800D02*
X127828400Y-134698800D01*
X162271500Y-135846800D02*
X162650500Y-136014800D01*
X146661100Y-132773800D02*
X146872300Y-132974800D01*
X171629500Y-136486800D02*
X172445500Y-136382800D01*
X116630000Y-120465800D02*
X117572600Y-121212800D01*
X191596500Y-59147700D02*
X191293500Y-59071500D01*
X143168500Y-58393800D02*
X142452900Y-58120800D01*
X174871500Y-135940800D02*
X175671500Y-135750800D01*
X188497500Y-83521800D02*
X188657500Y-83958300D01*
X145939800Y-81724200D02*
X146350400Y-81495100D01*
X137077600Y-136617800D02*
X137797300Y-136505800D01*
X145824300Y-69524400D02*
X145751000Y-69464500D01*
X183178500Y-130602800D02*
X183370500Y-130139800D01*
X70239500Y-51216700D02*
X69960500Y-51783300D01*
X142452900Y-58120800D02*
X141736700Y-57882400D01*
X95115600Y-53681200D02*
X94728000Y-53511500D01*
X116556700Y-43804400D02*
X115777200Y-43753200D01*
X145876300Y-131543800D02*
X145916200Y-131597800D01*
X168473500Y-88694200D02*
X167953500Y-89148100D01*
X189579500Y-69561200D02*
X189740500Y-69929300D01*
X179398500Y-134441800D02*
X179833500Y-134194800D01*
X137731200Y-48514100D02*
X137400800Y-48228000D01*
X145985600Y-131808800D02*
X146126300Y-132074800D01*
X104459000Y-52822600D02*
X104158500Y-53618700D01*
X116979100Y-124557800D02*
X116814600Y-124766800D01*
X145661800Y-69328000D02*
X145642600Y-69252900D01*
X146265600Y-60539300D02*
X146019800Y-60250700D01*
X147873400Y-85318000D02*
X147796500Y-84800500D01*
X68783200Y-55401500D02*
X68655600Y-56017500D01*
X114099700Y-129838800D02*
X114152700Y-130208800D01*
X164463500Y-85606200D02*
X164059500Y-85408200D01*
X143869900Y-58708800D02*
X143168500Y-58393800D01*
X166883500Y-87675400D02*
X166580500Y-87326200D01*
X169021500Y-88263000D02*
X168473500Y-88694200D01*
X186986500Y-64980700D02*
X187151500Y-65349800D01*
X76132200Y-46683900D02*
X75581800Y-46751900D01*
X86597500Y-48458500D02*
X86260900Y-48416300D01*
X117330400Y-43912700D02*
X116556700Y-43804400D01*
X105894600Y-49849500D02*
X105526800Y-50505400D01*
X150000300Y-77797200D02*
X150175600Y-77357800D01*
X106738900Y-48589700D02*
X106299100Y-49209800D01*
X97648600Y-53137500D02*
X97216300Y-53176200D01*
X117327300Y-133830800D02*
X117673100Y-133935800D01*
X183730500Y-124764800D02*
X185166500Y-124189800D01*
X129278500Y-45604800D02*
X128844500Y-45641700D01*
X188314500Y-84912200D02*
X187948500Y-85011100D01*
X176218500Y-87893300D02*
X175892500Y-87646100D01*
X69707700Y-52364500D02*
X69479500Y-52957800D01*
X190367500Y-58948400D02*
X190058500Y-58946600D01*
X114323700Y-130916800D02*
X114454200Y-131252800D01*
X189060500Y-84796500D02*
X188686500Y-84840400D01*
X101708300Y-113474800D02*
X101778400Y-114062800D01*
X159317500Y-85626600D02*
X158929500Y-85835800D01*
X147159100Y-80982100D02*
X147551300Y-80698400D01*
X68927900Y-54785000D02*
X68783200Y-55401500D01*
X126715500Y-46087900D02*
X126302200Y-46230800D01*
X114802700Y-127097800D02*
X114626900Y-127414800D01*
X133841200Y-136693800D02*
X134903800Y-136723800D01*
X90781200Y-50829500D02*
X90547900Y-50560900D01*
X116346100Y-133368800D02*
X116662000Y-133545800D01*
X188291500Y-59432200D02*
X188023500Y-59607000D01*
X82598400Y-48983800D02*
X82400200Y-49045900D01*
X135594000Y-47006100D02*
X135206000Y-46804600D01*
X77797900Y-46770100D02*
X77244400Y-46694100D01*
X149688700Y-73046000D02*
X149425900Y-72617300D01*
X154868600Y-86381900D02*
X154540100Y-86072200D01*
X206346500Y-75188100D02*
X206080500Y-74528900D01*
X119697300Y-134394800D02*
X120261100Y-134465800D01*
X98374300Y-88643100D02*
X99684400Y-89057200D01*
X104158500Y-53618700D02*
X103865000Y-53642800D01*
X188386500Y-72359800D02*
X188288500Y-72749600D01*
X147487700Y-83802800D02*
X147261400Y-83331000D01*
X108878600Y-119819800D02*
X109213900Y-119815800D01*
X205196500Y-72588700D02*
X204873500Y-71955300D01*
X178047500Y-90083100D02*
X177839500Y-89737900D01*
X114231700Y-128413800D02*
X114151700Y-128760800D01*
X106000300Y-99924800D02*
X106130400Y-101429800D01*
X195034500Y-60899700D02*
X194292500Y-60437100D01*
X183370500Y-130139800D02*
X183529500Y-129659800D01*
X190986500Y-59012000D02*
X190677500Y-58970600D01*
X146910600Y-61613800D02*
X146694700Y-61177200D01*
X93207400Y-86782300D02*
X94486300Y-87280600D01*
X155090100Y-134146800D02*
X156137400Y-134022800D01*
X143100800Y-134258800D02*
X143668900Y-133808800D01*
X149139500Y-84769800D02*
X148812900Y-84882700D01*
X197471500Y-116250800D02*
X198027500Y-115712800D01*
X186682500Y-61368300D02*
X186589500Y-61675000D01*
X150373900Y-74919300D02*
X150263400Y-74428700D01*
X188796500Y-79751000D02*
X188623500Y-80092400D01*
X165587500Y-86369000D02*
X165227500Y-86089300D01*
X68543500Y-56630700D02*
X68384100Y-57768900D01*
X68276000Y-58917500D02*
X68242900Y-59494100D01*
X150438900Y-75423700D02*
X150373900Y-74919300D01*
X103041600Y-116987800D02*
X103253300Y-117245800D01*
X121667200Y-45787300D02*
X121320300Y-45534900D01*
X79397500Y-47268000D02*
X78878600Y-47058200D01*
X140709400Y-52992800D02*
X140480700Y-52411800D01*
X150455400Y-75941000D02*
X150438900Y-75423700D01*
X148642800Y-79740600D02*
X148968500Y-79386200D01*
X147083500Y-65791400D02*
X147193300Y-65325100D01*
X89199500Y-49418400D02*
X88894800Y-49237100D01*
X150493600Y-84517700D02*
X150149400Y-84547800D01*
X189823500Y-77170400D02*
X190084500Y-77399300D01*
X131693200Y-136430800D02*
X132227200Y-136526800D01*
X74224800Y-73630000D02*
X74872500Y-74494200D01*
X68581300Y-64080200D02*
X68710000Y-64640800D01*
X102320400Y-89832700D02*
X103644700Y-90196500D01*
X120951500Y-45308200D02*
X120617400Y-45104800D01*
X205800500Y-73875800D02*
X205505500Y-73228900D01*
X108543500Y-119807800D02*
X108878600Y-119819800D01*
X183805500Y-128456800D02*
X183875500Y-127844800D01*
X149541400Y-134096800D02*
X149833800Y-134119800D01*
X74513400Y-47039900D02*
X74003700Y-47262000D01*
X114152700Y-130208800D02*
X114222600Y-130568800D01*
X146678300Y-82463100D02*
X146327100Y-82075400D01*
X169169500Y-136664800D02*
X169990500Y-136627800D01*
X141736700Y-57882400D02*
X141673400Y-57265400D01*
X162650500Y-136014800D02*
X163040500Y-136158800D01*
X96360200Y-53316900D02*
X95938800Y-53418300D01*
X146757900Y-81247700D02*
X147159100Y-80982100D01*
X102331100Y-115854800D02*
X102487000Y-116152800D01*
X147336200Y-133328800D02*
X147586000Y-133481800D01*
X188855500Y-59167800D02*
X188569500Y-59286200D01*
X198480500Y-63590300D02*
X197827500Y-63006000D01*
X75559100Y-75325300D02*
X76281800Y-76125000D01*
X157160500Y-87170600D02*
X156844500Y-87479800D01*
X177368500Y-89070200D02*
X177105500Y-88752600D01*
X150311900Y-76901900D02*
X150406200Y-76429600D01*
X164853500Y-85834100D02*
X164463500Y-85606200D01*
X131021000Y-45626500D02*
X130585600Y-45596100D01*
X182701500Y-131474800D02*
X182954500Y-131047800D01*
X105782100Y-103785800D02*
X105482600Y-104191800D01*
X188272500Y-82694700D02*
X188366500Y-83075600D01*
X152261200Y-84723100D02*
X151835800Y-84609700D01*
X177839500Y-89737900D02*
X177613500Y-89399500D01*
X118578900Y-134170800D02*
X119136400Y-134296800D01*
X204838500Y-106429800D02*
X205402500Y-105292800D01*
X149544500Y-78625700D02*
X149788900Y-78219900D01*
X181505500Y-88636700D02*
X181164500Y-88713500D01*
X149788900Y-78219900D02*
X150000300Y-77797200D01*
X116043700Y-133169800D02*
X116346100Y-133368800D01*
X177105500Y-88752600D02*
X176826500Y-88448900D01*
X113578000Y-118329800D02*
X113924200Y-118079800D01*
X188547500Y-75469700D02*
X188743500Y-75830700D01*
X120617400Y-45104800D02*
X120275600Y-44915600D01*
X158186500Y-86318600D02*
X157831500Y-86587800D01*
X195759500Y-61389200D02*
X195034500Y-60899700D01*
X145996400Y-68427300D02*
X146216800Y-68015600D01*
X189727500Y-78533000D02*
X189462500Y-78811900D01*
X188846500Y-84383700D02*
X189060500Y-84796500D01*
X101048900Y-53634100D02*
X100640900Y-53490400D01*
X188366500Y-83075600D02*
X188497500Y-83521800D01*
X82103900Y-80957700D02*
X83009700Y-81555900D01*
X146793400Y-66707600D02*
X146949500Y-66252900D01*
X188394500Y-75097400D02*
X188547500Y-75469700D01*
X158552500Y-86067200D02*
X158186500Y-86318600D01*
X188569500Y-59286200D02*
X188291500Y-59432200D01*
X146990600Y-82883000D02*
X146678300Y-82463100D01*
X119570900Y-44579600D02*
X119209200Y-44432900D01*
X145414400Y-131964800D02*
X145636600Y-131648800D01*
X182200500Y-88554000D02*
X181851500Y-88583400D01*
X86931900Y-48518100D02*
X86597500Y-48458500D01*
X181782500Y-132643800D02*
X182113500Y-132273800D01*
X125098700Y-46769500D02*
X124300600Y-47179800D01*
X189254500Y-70548500D02*
X189037500Y-70885100D01*
X189217500Y-79109000D02*
X188995500Y-79422700D01*
X191293500Y-59071500D02*
X190986500Y-59012000D01*
X87263200Y-48595500D02*
X86931900Y-48518100D01*
X106890700Y-119527800D02*
X107544600Y-119682800D01*
X189012500Y-68493500D02*
X189403500Y-69199900D01*
X188155500Y-67112500D02*
X188589500Y-67800800D01*
X174063500Y-86813400D02*
X173663500Y-86744400D01*
X205505500Y-73228900D02*
X205196500Y-72588700D01*
X114996400Y-43759300D02*
X114612200Y-43789100D01*
X145916200Y-131597800D02*
X145952700Y-131684800D01*
X159001500Y-133464800D02*
X159783500Y-133229800D01*
X188180500Y-73934800D02*
X188213500Y-74327700D01*
X182113500Y-132273800D02*
X182420500Y-131883800D01*
X161840500Y-84963600D02*
X161399500Y-84992500D01*
X134408500Y-46446000D02*
X134000100Y-46289100D01*
X150175600Y-77357800D02*
X150311900Y-76901900D01*
X175552500Y-87422600D02*
X175198500Y-87225200D01*
X103477300Y-117492800D02*
X103712900Y-117728800D01*
X192754500Y-59597000D02*
X192189500Y-59346000D01*
X192189500Y-59346000D02*
X191896500Y-59239600D01*
X207645500Y-79250200D02*
X207267500Y-77877900D01*
X144207500Y-133322800D02*
X144714000Y-132798800D01*
X143668900Y-133808800D02*
X144207500Y-133322800D01*
X183935500Y-88767200D02*
X183595500Y-88676100D01*
X91001800Y-51109100D02*
X90781200Y-50829500D01*
X132764800Y-136600800D02*
X133303600Y-136655800D01*
X84847500Y-82697500D02*
X85773800Y-83243700D01*
X112752700Y-44165100D02*
X112041100Y-44414100D01*
X187517500Y-60020200D02*
X187300500Y-60258000D01*
X139906100Y-135944800D02*
X140583800Y-135682800D01*
X117121300Y-124336800D02*
X116979100Y-124557800D01*
X180256500Y-133925800D02*
X180665500Y-133635800D01*
X120261100Y-134465800D02*
X120827300Y-134512800D01*
X186484500Y-63277000D02*
X186536500Y-63596300D01*
X152986100Y-134278800D02*
X154039000Y-134233800D01*
X116989700Y-133700800D02*
X117327300Y-133830800D01*
X87590900Y-48691200D02*
X87263200Y-48595500D01*
X81827400Y-49009300D02*
X81654200Y-48930000D01*
X189740500Y-69929300D02*
X189489500Y-70229200D01*
X208830500Y-89131400D02*
X208811500Y-87708300D01*
X163842500Y-136372800D02*
X164250500Y-136442800D01*
X121395300Y-134537800D02*
X121964700Y-134540800D01*
X106127500Y-92382700D02*
X106001900Y-93887800D01*
X183906500Y-127227800D02*
X183902500Y-126609800D01*
X159783500Y-133229800D02*
X159947500Y-133617800D01*
X135206000Y-46804600D02*
X134810600Y-46617900D01*
X131165000Y-136313800D02*
X131693200Y-136430800D01*
X94332400Y-53357700D02*
X93525500Y-53088200D01*
X141886100Y-135044800D02*
X142505700Y-134670800D01*
X174453500Y-86918100D02*
X174063500Y-86813400D01*
X188288500Y-72749600D02*
X188219500Y-73143500D01*
X101859700Y-111124800D02*
X101762400Y-111708800D01*
X157831500Y-86587800D02*
X157489500Y-86872500D01*
X208803500Y-90551600D02*
X208830500Y-89131400D01*
X140912600Y-53585000D02*
X140709400Y-52992800D01*
X206834500Y-76522900D02*
X206597500Y-75852800D01*
X91209600Y-51398600D02*
X91001800Y-51109100D01*
X107718300Y-47420600D02*
X107212500Y-47992200D01*
X68242900Y-59494100D02*
X68224900Y-60071400D01*
X145739300Y-131545800D02*
X145787500Y-131521800D01*
X105635100Y-119050800D02*
X106252500Y-119315800D01*
X155180800Y-86708200D02*
X154868600Y-86381900D01*
X183529500Y-129659800D02*
X183692500Y-129062800D01*
X146126300Y-132074800D02*
X146286700Y-132323800D01*
X153463000Y-85271500D02*
X153075400Y-85056800D01*
X147293800Y-62976500D02*
X147207800Y-62515100D01*
X145697500Y-68923800D02*
X145781300Y-68752700D01*
X207580500Y-99337800D02*
X207887500Y-98105800D01*
X101703000Y-112295800D02*
X101684100Y-112884800D01*
X178951500Y-134666800D02*
X179398500Y-134441800D01*
X144211200Y-58884400D02*
X143869900Y-58708800D01*
X145952700Y-131684800D02*
X145985600Y-131808800D01*
X141383000Y-55409200D02*
X141248100Y-54795000D01*
X159715500Y-85442000D02*
X159317500Y-85626600D01*
X188743500Y-75830700D02*
X188922500Y-76127000D01*
X146872300Y-132974800D02*
X147097800Y-133159800D01*
X100225600Y-53370700D02*
X99804200Y-53274700D01*
X105135200Y-51261000D02*
X104781900Y-52035100D01*
X163438500Y-136277800D02*
X163842500Y-136372800D01*
X206597500Y-75852800D02*
X206346500Y-75188100D01*
X125894600Y-46391900D02*
X125493200Y-46571400D01*
X147276300Y-64855300D02*
X147330200Y-64384000D01*
X184702500Y-88597800D02*
X184661500Y-88745800D01*
X192003500Y-120559800D02*
X193284500Y-119685800D01*
X206402500Y-102958800D02*
X206838500Y-101766800D01*
X182551500Y-88548400D02*
X182200500Y-88554000D01*
X134903800Y-136723800D02*
X135628300Y-136726800D01*
X188218500Y-82312600D02*
X188272500Y-82694700D01*
X103644700Y-90196500D02*
X106301100Y-90882400D01*
X160919500Y-134927800D02*
X161228500Y-135193800D01*
X110867800Y-119558800D02*
X111279700Y-119444800D01*
X160966500Y-85057100D02*
X160540500Y-85155000D01*
X184597500Y-88846700D02*
X184510500Y-88904000D01*
X178813500Y-90163600D02*
X178692500Y-90325000D01*
X146694700Y-61177200D02*
X146491200Y-60847800D01*
X167525500Y-136670800D02*
X168347500Y-136678800D01*
X107212500Y-47992200D02*
X106738900Y-48589700D01*
X77244400Y-46694100D02*
X76687800Y-46665000D01*
X145176800Y-59494900D02*
X144866300Y-59276500D01*
X91908500Y-52636300D02*
X91586000Y-52003600D01*
X85243800Y-48390100D02*
X84904700Y-48413500D01*
X188995500Y-79422700D02*
X188796500Y-79751000D01*
X186475500Y-62308400D02*
X186454500Y-62631000D01*
X102157500Y-109970800D02*
X101992300Y-110544800D01*
X110681100Y-45063500D02*
X110035700Y-45457500D01*
X176530500Y-88161700D02*
X176218500Y-87893300D01*
X163040500Y-136158800D02*
X163438500Y-136277800D01*
X88200000Y-84535900D02*
X89433800Y-85137900D01*
X146216800Y-68015600D02*
X146424700Y-67590700D01*
X145833300Y-131519800D02*
X145876300Y-131543800D01*
X148968500Y-79386200D02*
X149270000Y-79014500D01*
X189403500Y-69199900D02*
X189579500Y-69561200D01*
X151933000Y-134277800D02*
X152986100Y-134278800D01*
X151835800Y-84609700D02*
X151398900Y-84535800D01*
X133586200Y-46147500D02*
X133167400Y-46021200D01*
X190677500Y-58970600D02*
X190367500Y-58948400D01*
X189751500Y-58966500D02*
X189448500Y-59009100D01*
X137059200Y-47955600D02*
X136707100Y-47697000D01*
X181164500Y-88713500D02*
X180829500Y-88813800D01*
X149917900Y-73491300D02*
X149688700Y-73046000D01*
X115777200Y-43753200D02*
X114996400Y-43759400D01*
X86979700Y-83904900D02*
X88200000Y-84535900D01*
X117242400Y-124103800D02*
X117121300Y-124336800D01*
X126302200Y-46230800D02*
X125894600Y-46391900D01*
X184113500Y-88849400D02*
X183935500Y-88767200D01*
X103091300Y-107763800D02*
X102822200Y-108299800D01*
X114231900Y-43834500D02*
X113855500Y-43895200D01*
X199104500Y-114602800D02*
X199624500Y-114030800D01*
X114800800Y-118903800D02*
X115704400Y-119697800D01*
X199114500Y-64195300D02*
X198480500Y-63590300D01*
X166580500Y-87326200D02*
X166264500Y-86990200D01*
X102575000Y-108846800D02*
X102352600Y-109404800D01*
X161558500Y-135435800D02*
X161907500Y-135653800D01*
X186800500Y-61071100D02*
X186682500Y-61368300D01*
X83896400Y-48574000D02*
X83238500Y-48752300D01*
X114101500Y-129114800D02*
X114083400Y-129473800D01*
X139627800Y-50754100D02*
X139283200Y-50236300D01*
X128844500Y-45641700D02*
X128412400Y-45695800D01*
X172833500Y-86723200D02*
X172483500Y-86752700D01*
X123105300Y-134492800D02*
X123675400Y-134443800D01*
X153075400Y-85056800D02*
X152674600Y-84873100D01*
X149808400Y-84600800D02*
X149471600Y-84675300D01*
X116814600Y-124766800D02*
X116626200Y-124961800D01*
X108821200Y-46368000D02*
X108255100Y-46878200D01*
X189149500Y-59075900D02*
X188855500Y-59167800D01*
X202470500Y-110359800D02*
X202895500Y-109708800D01*
X114454200Y-131252800D02*
X114612400Y-131575800D01*
X144714000Y-132798800D02*
X145185900Y-132237800D01*
X101448400Y-53802200D02*
X101048900Y-53634100D01*
X130645100Y-136170800D02*
X131165000Y-136313800D01*
X79896500Y-47520300D02*
X79397500Y-47268000D01*
X119209200Y-44432900D02*
X118842100Y-44300400D01*
X117673100Y-133935800D02*
X118025400Y-134015800D01*
X133167400Y-46021200D02*
X132744300Y-45910500D01*
X141091700Y-54186300D02*
X140912600Y-53585000D01*
X189347500Y-122160800D02*
X190690500Y-121384800D01*
X75581800Y-46751900D02*
X75040800Y-46870200D01*
X69499400Y-66630600D02*
X69793100Y-67032900D01*
X84566600Y-48452200D02*
X83896400Y-48574000D01*
X146617700Y-67154100D02*
X146793400Y-66707600D01*
X102352600Y-109404800D02*
X102157500Y-109970800D01*
X183250500Y-88609300D02*
X182901500Y-88566800D01*
X146893600Y-70140900D02*
X146468500Y-69870700D01*
X196904500Y-116776800D02*
X197471500Y-116250800D01*
X147308800Y-70433400D02*
X146893600Y-70140900D01*
X139214100Y-136169800D02*
X139906100Y-135944800D01*
X156137400Y-134022800D02*
X157179500Y-133864800D01*
X142505700Y-134670800D02*
X143100800Y-134258800D01*
X102842900Y-116719800D02*
X103041600Y-116987800D01*
X141673400Y-57265400D02*
X141594300Y-56646200D01*
X190011500Y-78274200D02*
X189727500Y-78533000D01*
X185080500Y-87314800D02*
X184926500Y-87659100D01*
X111684800Y-119308800D02*
X112082300Y-119152800D01*
X195737500Y-117793800D02*
X196326500Y-117291800D01*
X69274500Y-53560600D02*
X69091200Y-54170500D01*
X101684100Y-112884800D02*
X101708300Y-113474800D01*
X72455700Y-70664300D02*
X72637200Y-71050600D01*
X146465400Y-132556800D02*
X146661100Y-132773800D01*
X115908200Y-125647800D02*
X115429900Y-126198800D01*
X78878600Y-47058200D02*
X78344000Y-46891800D01*
X150881700Y-134226800D02*
X151933000Y-134277800D01*
X188589500Y-67800800D02*
X189012500Y-68493500D01*
X136707100Y-47697000D02*
X136345200Y-47452400D01*
X198027500Y-115712800D02*
X198571500Y-115163800D01*
X167446500Y-88402100D02*
X167171500Y-88035000D01*
X104216700Y-118166800D02*
X104483500Y-118367800D01*
X147586000Y-133481800D02*
X147846000Y-133617800D01*
X134000100Y-46289100D02*
X133586200Y-46147500D01*
X72081100Y-48689600D02*
X71648200Y-49145800D01*
X68224900Y-60071400D02*
X68222600Y-60648900D01*
X71249100Y-49629200D02*
X70882300Y-50137100D01*
X202528500Y-68188900D02*
X202006500Y-67486200D01*
X208543500Y-94352800D02*
X208674500Y-93088800D01*
X103959600Y-117952800D02*
X104216700Y-118166800D01*
X179314500Y-89663600D02*
X179055500Y-89902300D01*
X135973900Y-47222100D02*
X135594000Y-47006100D01*
X157489500Y-86872500D02*
X157160500Y-87170600D01*
X86260900Y-48416300D02*
X85922600Y-48391100D01*
X148114700Y-133737800D02*
X148390800Y-133842800D01*
X114996400Y-43759400D02*
X114996400Y-43759300D01*
X113219900Y-118562800D02*
X113578000Y-118329800D01*
X178292500Y-90491000D02*
X178207500Y-90407500D01*
X203584500Y-108639800D02*
X204232500Y-107546800D01*
X145185900Y-132237800D02*
X145299800Y-132120800D01*
X202895500Y-109708800D02*
X203584500Y-108639800D01*
X128694000Y-135318800D02*
X129157800Y-135577800D01*
X132317400Y-45815500D02*
X131887500Y-45736400D01*
X97070700Y-88209800D02*
X98374300Y-88643100D01*
X117343800Y-123861800D02*
X117242400Y-124103800D01*
X129157800Y-135577800D02*
X129639100Y-135804800D01*
X164250500Y-136442800D02*
X164658500Y-136487800D01*
X188839500Y-71236700D02*
X188664500Y-71601100D01*
X186273500Y-85884100D02*
X185986500Y-86128900D01*
X162754500Y-85022400D02*
X162289500Y-84972500D01*
X194530500Y-118763800D02*
X195138500Y-118284800D01*
X208458500Y-83446700D02*
X208240500Y-82037200D01*
X72836300Y-71428900D02*
X73057900Y-71796900D01*
X194292500Y-60437100D02*
X193532500Y-60002400D01*
X175671500Y-135750800D02*
X176465500Y-135538800D01*
X141248100Y-54795000D02*
X141091700Y-54186300D01*
X127982800Y-45767300D02*
X127556400Y-45856300D01*
X104556700Y-105392800D02*
X104268300Y-105807800D01*
X188623500Y-80092400D02*
X188477500Y-80444900D01*
X183810500Y-125375800D02*
X183730500Y-124764800D01*
X170810500Y-136568800D02*
X171629500Y-136486800D01*
X74872500Y-74494200D02*
X75559100Y-75325300D01*
X106301100Y-90882400D02*
X106127500Y-92382700D01*
X182420500Y-131883800D02*
X182701500Y-131474800D01*
X178033500Y-135050800D02*
X178496500Y-134870800D01*
X101838100Y-53995000D02*
X101448400Y-53802200D01*
X89492800Y-49616800D02*
X89199500Y-49418400D01*
X187729500Y-66419300D02*
X188155500Y-67112500D01*
X71965900Y-69480600D02*
X72286800Y-70272400D01*
X178478500Y-90506000D02*
X178382500Y-90523500D01*
X127060900Y-133928800D02*
X127431200Y-134333800D01*
X171467500Y-86969400D02*
X171140500Y-87080100D01*
X113924200Y-118079800D02*
X114800800Y-118903800D01*
X115429900Y-126198800D02*
X115206500Y-126488800D01*
X124300600Y-47179800D02*
X123500400Y-47585600D01*
X101992300Y-110544800D02*
X101859700Y-111124800D01*
X129713700Y-45585100D02*
X129278500Y-45604800D01*
X69091200Y-54170500D02*
X68927900Y-54785000D01*
X178581500Y-90439500D02*
X178478500Y-90506000D01*
X105925300Y-95396800D02*
X105898800Y-96906800D01*
X78344000Y-46891800D02*
X77797900Y-46770100D01*
X179833500Y-134194800D02*
X180256500Y-133925800D01*
X197156500Y-62443600D02*
X196466500Y-61904200D01*
X196326500Y-117291800D02*
X196904500Y-116776800D01*
X82203500Y-49069400D02*
X82011500Y-49056500D01*
X188221500Y-81551500D02*
X188201500Y-81930900D01*
X90547900Y-50560900D02*
X90302300Y-50304400D01*
X156254300Y-88122700D02*
X156013400Y-87758400D01*
X189037500Y-70885100D02*
X188839500Y-71236700D01*
X170195500Y-87509800D02*
X169595500Y-87864900D01*
X186457500Y-62954500D02*
X186484500Y-63277000D01*
X93525500Y-53088200D02*
X92711800Y-52854000D01*
X106299100Y-49209800D02*
X105894600Y-49849500D01*
X148390800Y-133842800D02*
X148672800Y-133930800D01*
X68710000Y-64640800D02*
X68860400Y-65196400D01*
X188183500Y-73539300D02*
X188180500Y-73934800D01*
X160123500Y-85284000D02*
X159715500Y-85442000D01*
X188213500Y-74327700D02*
X188284500Y-74716000D01*
X178126500Y-90271800D02*
X178047500Y-90083100D01*
X200627500Y-112851800D02*
X201108500Y-112245800D01*
X141244600Y-135382800D02*
X141886100Y-135044800D01*
X204873500Y-71955300D02*
X204534500Y-71329200D01*
X147796500Y-84800500D02*
X147667000Y-84294000D01*
X183875500Y-127844800D02*
X183906500Y-127227800D01*
X159947500Y-133617800D02*
X160146500Y-133981800D01*
X173257500Y-136257800D02*
X174066500Y-136109800D01*
X169990500Y-136627800D02*
X170810500Y-136568800D01*
X109213900Y-119815800D02*
X109548500Y-119796800D01*
X179882500Y-89254600D02*
X179591500Y-89447600D01*
X81495200Y-48820700D02*
X81353500Y-48683300D01*
X166264500Y-86990200D02*
X165933500Y-86670200D01*
X151398900Y-84535800D02*
X150951300Y-84504100D01*
X103712900Y-117728800D02*
X103959600Y-117952800D01*
X181056500Y-133325800D02*
X181429500Y-132994800D01*
X85583300Y-48382500D02*
X85243800Y-48390100D01*
X147341300Y-63442900D02*
X147293800Y-62976500D01*
X193284500Y-119685800D02*
X193911500Y-119230800D01*
X68655600Y-56017500D02*
X68543500Y-56630700D01*
X145781300Y-68752700D02*
X145996400Y-68427300D01*
X68317700Y-62375400D02*
X68385900Y-62946900D01*
X185986500Y-86128900D02*
X185721500Y-86395100D01*
X189448500Y-59009100D02*
X189149500Y-59075900D01*
X68473500Y-63515400D02*
X68581300Y-64080200D01*
X120275600Y-44915600D02*
X119926600Y-44740500D01*
X109415200Y-45893400D02*
X108821200Y-46368000D01*
X77823500Y-77635100D02*
X78636800Y-78348600D01*
X165883500Y-136585800D02*
X166703500Y-136639800D01*
X82400200Y-49045900D02*
X82203500Y-49069400D01*
X103865000Y-53642800D02*
X103570100Y-53683800D01*
X188360500Y-80806700D02*
X188274500Y-81176200D01*
X178692500Y-90325000D02*
X178581500Y-90439500D01*
X185266500Y-86988900D02*
X185080500Y-87314800D01*
X131455200Y-45673300D02*
X131021000Y-45626500D01*
X186902500Y-85462400D02*
X186579500Y-85661700D01*
X122310200Y-46350700D02*
X121995900Y-46060700D01*
X189462500Y-78811900D02*
X189217500Y-79109000D01*
X76687800Y-46665000D02*
X76132200Y-46683900D01*
X178382500Y-90523500D02*
X178292500Y-90491000D01*
X115756600Y-132949800D02*
X116043700Y-133169800D01*
X79474300Y-79036100D02*
X80333300Y-79699200D01*
X73054500Y-47868200D02*
X72549400Y-48262800D01*
X130585600Y-45596100D02*
X130149700Y-45582200D01*
X178496500Y-134870800D02*
X178951500Y-134666800D01*
X81232100Y-48520200D02*
X80818000Y-48147500D01*
X140225100Y-51843700D02*
X139941200Y-51290500D01*
X102822200Y-108299800D02*
X102575000Y-108846800D01*
X117426800Y-123610800D02*
X117343800Y-123861800D01*
X134810600Y-46617900D02*
X134408500Y-46446000D01*
X117614500Y-122280800D02*
X117579500Y-122822800D01*
X204232500Y-107546800D02*
X204838500Y-106429800D01*
X146350400Y-81495100D02*
X146757900Y-81247700D01*
X117579500Y-122822800D02*
X117543400Y-123089800D01*
X123675400Y-134443800D02*
X124812800Y-134307800D01*
X118025400Y-134015800D02*
X118578900Y-134170800D01*
X165933500Y-86670200D02*
X165587500Y-86369000D01*
X158213500Y-133677800D02*
X159001500Y-133464800D01*
X202006500Y-67486200D02*
X201466500Y-66796600D01*
X187151500Y-65349800D02*
X187332500Y-65711800D01*
X184805500Y-88020800D02*
X184719500Y-88399300D01*
X114151700Y-128760800D02*
X114101500Y-129114800D01*
X160146500Y-133981800D02*
X160376500Y-134321800D01*
X72286800Y-70272400D02*
X72455700Y-70664300D01*
X184719500Y-88399300D02*
X184702500Y-88597800D01*
X114796500Y-131883800D02*
X115004800Y-132175800D01*
X90680200Y-85712200D02*
X91938400Y-86259900D01*
X173252500Y-86713500D02*
X172833500Y-86723200D01*
X127828400Y-134698800D02*
X128250100Y-135026800D01*
X188686500Y-84840400D02*
X188314500Y-84912200D01*
X207231500Y-100558800D02*
X207580500Y-99337800D01*
X98948000Y-53152300D02*
X98515700Y-53125200D01*
X205402500Y-105292800D02*
X205923500Y-104134800D01*
X103685100Y-106732800D02*
X103379800Y-107240800D01*
X161228500Y-135193800D02*
X161558500Y-135435800D01*
X150951300Y-84504100D02*
X150493600Y-84517700D01*
X80371400Y-47813800D02*
X79896500Y-47520300D01*
X147846000Y-133617800D02*
X148114700Y-133737800D01*
X149249500Y-134057800D02*
X149541400Y-134096800D01*
X102400800Y-53913100D02*
X101838100Y-53995000D01*
X165065500Y-136507800D02*
X165883500Y-136585800D01*
X110213200Y-119710800D02*
X110542100Y-119642800D01*
X94728000Y-53511500D02*
X94332400Y-53357700D01*
M02*
