M48
; DRILL file {KiCad 9.0.6} date 2025-12-18T17:12:28+0100
; FORMAT={-:-/ absolute / inch / decimal}
; #@! TF.CreationDate,2025-12-18T17:12:28+01:00
; #@! TF.GenerationSoftware,Kicad,Pcbnew,9.0.6
; #@! TF.FileFunction,Plated,1,2,PTH
FMAT,2
INCH
; #@! TA.AperFunction,Plated,PTH,ComponentDrill
T1C0.0315
; #@! TA.AperFunction,Plated,PTH,ComponentDrill
T2C0.0354
; #@! TA.AperFunction,Plated,PTH,ComponentDrill
T3C0.0394
%
G90
G05
T1
X4.0732Y-3.8008
X4.0732Y-4.0347
X4.1732Y-3.7008
X4.1732Y-3.9347
X4.2732Y-3.8008
X4.2732Y-4.0347
X4.9295Y-4.7331
X4.9295Y-4.8331
X4.9295Y-4.9331
X4.9295Y-5.0331
X4.9449Y-3.2677
X4.9449Y-3.4272
X4.9449Y-3.5866
X4.9449Y-3.7461
X4.9449Y-3.9055
X4.9449Y-4.065
X5.2295Y-4.7331
X5.2295Y-4.8331
X5.2295Y-4.9331
X5.2295Y-5.0331
X5.3449Y-3.2677
X5.3449Y-3.4272
X5.3449Y-3.5866
X5.3449Y-3.7461
X5.3449Y-3.9055
X5.3449Y-4.065
X5.685Y-3.4016
X5.985Y-3.4016
X6.1142Y-3.8976
X6.2126Y-3.8976
T2
X4.8346Y-2.7323
X4.9346Y-2.7323
X5.4409Y-2.7795
X5.5409Y-2.7795
T3
X6.7402Y-2.2205
X6.8402Y-2.2205
X6.9402Y-2.2205
M30
