%TF.GenerationSoftware,KiCad,Pcbnew,9.0.6*%
%TF.CreationDate,2025-12-18T17:12:23+01:00*%
%TF.ProjectId,Santa,53616e74-612e-46b6-9963-61645f706362,rev?*%
%TF.SameCoordinates,Original*%
%TF.FileFunction,Profile,NP*%
%FSLAX46Y46*%
G04 Gerber Fmt 4.6, Leading zero omitted, Abs format (unit mm)*
G04 Created by KiCad (PCBNEW 9.0.6) date 2025-12-18 17:12:23*
%MOMM*%
%LPD*%
G01*
G04 APERTURE LIST*
%TA.AperFunction,Profile*%
%ADD10C,0.100000*%
%TD*%
G04 APERTURE END LIST*
D10*
X152055400Y-137817300D02*
X152929400Y-137457300D01*
X152929400Y-137457300D02*
X153796400Y-137056300D01*
X153796400Y-137056300D02*
X154652400Y-136614300D01*
X154652400Y-136614300D02*
X155491400Y-136131300D01*
X155491400Y-136131300D02*
X156309400Y-135606300D01*
X156309400Y-135606300D02*
X157100400Y-135040300D01*
X157100400Y-135040300D02*
X157859400Y-134432300D01*
X157859400Y-134432300D02*
X158581400Y-133783300D01*
X158581400Y-133783300D02*
X158926400Y-133443300D01*
X158926400Y-133443300D02*
X159261400Y-133092300D01*
X159261400Y-133092300D02*
X159583400Y-132731300D01*
X159583400Y-132731300D02*
X159893400Y-132360300D01*
X159893400Y-132360300D02*
X160190400Y-131978300D01*
X160190400Y-131978300D02*
X160473400Y-131585300D01*
X160473400Y-131585300D02*
X160742400Y-131183300D01*
X160742400Y-131183300D02*
X160996400Y-130770300D01*
X160996400Y-130770300D02*
X161234400Y-130346300D01*
X161234400Y-130346300D02*
X161455400Y-129912300D01*
X161455400Y-129912300D02*
X161660400Y-129467300D01*
X161660400Y-129467300D02*
X161847400Y-129012300D01*
X161847400Y-129012300D02*
X162016400Y-128546300D01*
X162016400Y-128546300D02*
X162165400Y-128070300D01*
X162165400Y-128070300D02*
X162296400Y-127584300D01*
X162296400Y-127584300D02*
X162406400Y-127087300D01*
X162406400Y-127087300D02*
X162376400Y-126811300D01*
X162376400Y-126811300D02*
X162369400Y-126551300D01*
X162369400Y-126551300D02*
X162383400Y-126305300D01*
X162383400Y-126305300D02*
X162416400Y-126072300D01*
X162416400Y-126072300D02*
X162470400Y-125851300D01*
X162470400Y-125851300D02*
X162541400Y-125641300D01*
X162541400Y-125641300D02*
X162630400Y-125440300D01*
X162630400Y-125440300D02*
X162734400Y-125247300D01*
X162734400Y-125247300D02*
X162855400Y-125061300D01*
X162855400Y-125061300D02*
X162989400Y-124881300D01*
X162989400Y-124881300D02*
X163297400Y-124534300D01*
X163297400Y-124534300D02*
X163650400Y-124195300D01*
X163650400Y-124195300D02*
X164042400Y-123855300D01*
X164042400Y-123855300D02*
X164281400Y-123518300D01*
X164281400Y-123518300D02*
X164503400Y-123172300D01*
X164503400Y-123172300D02*
X164708400Y-122816300D01*
X164708400Y-122816300D02*
X164894400Y-122452300D01*
X164894400Y-122452300D02*
X165063400Y-122079300D01*
X165063400Y-122079300D02*
X165213400Y-121700300D01*
X165213400Y-121700300D02*
X165346400Y-121314300D01*
X165346400Y-121314300D02*
X165461400Y-120923300D01*
X165461400Y-120923300D02*
X165559400Y-120527300D01*
X165559400Y-120527300D02*
X165638400Y-120126300D01*
X165638400Y-120126300D02*
X165699400Y-119722300D01*
X165699400Y-119722300D02*
X165743400Y-119316300D01*
X165743400Y-119316300D02*
X165768400Y-118908300D01*
X165768400Y-118908300D02*
X165776400Y-118498300D01*
X165776400Y-118498300D02*
X165766400Y-118089300D01*
X165766400Y-118089300D02*
X165737400Y-117679300D01*
X165737400Y-117679300D02*
X165691400Y-117271300D01*
X165691400Y-117271300D02*
X165627400Y-116864300D01*
X165627400Y-116864300D02*
X165545400Y-116460300D01*
X165545400Y-116460300D02*
X165445400Y-116060300D01*
X165445400Y-116060300D02*
X165327400Y-115663300D01*
X165327400Y-115663300D02*
X165190400Y-115272300D01*
X165190400Y-115272300D02*
X165036400Y-114886300D01*
X165036400Y-114886300D02*
X164864400Y-114506300D01*
X164864400Y-114506300D02*
X164674400Y-114133300D01*
X164674400Y-114133300D02*
X164466400Y-113769300D01*
X164466400Y-113769300D02*
X164239400Y-113412300D01*
X164239400Y-113412300D02*
X163995400Y-113066300D01*
X163995400Y-113066300D02*
X163732400Y-112729300D01*
X163732400Y-112729300D02*
X163452400Y-112403300D01*
X163452400Y-112403300D02*
X163153400Y-112088300D01*
X163153400Y-112088300D02*
X162836400Y-111786300D01*
X162836400Y-111786300D02*
X162814400Y-111500300D01*
X162814400Y-111500300D02*
X162777400Y-111213300D01*
X162777400Y-111213300D02*
X162683400Y-110646300D01*
X162683400Y-110646300D02*
X162601400Y-110105300D01*
X162601400Y-110105300D02*
X162578400Y-109850300D01*
X162578400Y-109850300D02*
X162576400Y-109608300D01*
X162576400Y-109608300D02*
X162600400Y-109381300D01*
X162600400Y-109381300D02*
X162656400Y-109173300D01*
X162656400Y-109173300D02*
X162751400Y-108985300D01*
X162751400Y-108985300D02*
X162889400Y-108819300D01*
X162889400Y-108819300D02*
X163077400Y-108679300D01*
X163077400Y-108679300D02*
X163320400Y-108565300D01*
X163320400Y-108565300D02*
X163625400Y-108482300D01*
X163625400Y-108482300D02*
X163997400Y-108430300D01*
X163997400Y-108430300D02*
X164386400Y-108251300D01*
X164386400Y-108251300D02*
X164758400Y-108054300D01*
X164758400Y-108054300D02*
X165115400Y-107839300D01*
X165115400Y-107839300D02*
X165456400Y-107607300D01*
X165456400Y-107607300D02*
X165782400Y-107359300D01*
X165782400Y-107359300D02*
X166092400Y-107096300D01*
X166092400Y-107096300D02*
X166386400Y-106818300D01*
X166386400Y-106818300D02*
X166665400Y-106527300D01*
X166665400Y-106527300D02*
X166928400Y-106222300D01*
X166928400Y-106222300D02*
X167176400Y-105906300D01*
X167176400Y-105906300D02*
X167409400Y-105577300D01*
X167409400Y-105577300D02*
X167626400Y-105238300D01*
X167626400Y-105238300D02*
X167828400Y-104888300D01*
X167828400Y-104888300D02*
X168015400Y-104530300D01*
X168015400Y-104530300D02*
X168187400Y-104162300D01*
X168187400Y-104162300D02*
X168344400Y-103787300D01*
X168344400Y-103787300D02*
X168486400Y-103405300D01*
X168486400Y-103405300D02*
X168613400Y-103016300D01*
X168613400Y-103016300D02*
X168725400Y-102622300D01*
X168725400Y-102622300D02*
X168823400Y-102223300D01*
X168823400Y-102223300D02*
X168906400Y-101820300D01*
X168906400Y-101820300D02*
X168974400Y-101413300D01*
X168974400Y-101413300D02*
X169067400Y-100593400D01*
X169067400Y-100593400D02*
X169102400Y-99768700D01*
X169102400Y-99768700D02*
X169079400Y-98945500D01*
X169079400Y-98945500D02*
X169000400Y-98129700D01*
X169000400Y-98129700D02*
X168865400Y-97327400D01*
X168865400Y-97327400D02*
X168809400Y-96829100D01*
X168809400Y-96829100D02*
X168736400Y-96335800D01*
X168736400Y-96335800D02*
X168647400Y-95847400D01*
X168647400Y-95847400D02*
X168543400Y-95364200D01*
X168543400Y-95364200D02*
X168424400Y-94886000D01*
X168424400Y-94886000D02*
X168291400Y-94413000D01*
X168291400Y-94413000D02*
X167981400Y-93482900D01*
X167981400Y-93482900D02*
X167618400Y-92574100D01*
X167618400Y-92574100D02*
X167204400Y-91687300D01*
X167204400Y-91687300D02*
X166743400Y-90822800D01*
X166743400Y-90822800D02*
X166238400Y-89981100D01*
X166238400Y-89981100D02*
X165692400Y-89162600D01*
X165692400Y-89162600D02*
X165109400Y-88367900D01*
X165109400Y-88367900D02*
X164491400Y-87597500D01*
X164491400Y-87597500D02*
X163842400Y-86851600D01*
X163842400Y-86851600D02*
X163165400Y-86130900D01*
X163165400Y-86130900D02*
X162463400Y-85435900D01*
X162463400Y-85435900D02*
X161740400Y-84766800D01*
X161740400Y-84766800D02*
X160999400Y-84124300D01*
X160999400Y-84124300D02*
X161212400Y-83814500D01*
X161212400Y-83814500D02*
X161402400Y-83494300D01*
X161402400Y-83494300D02*
X161569400Y-83164800D01*
X161569400Y-83164800D02*
X161714400Y-82826900D01*
X161714400Y-82826900D02*
X161837400Y-82481800D01*
X161837400Y-82481800D02*
X161939400Y-82130600D01*
X161939400Y-82130600D02*
X162019400Y-81774200D01*
X162019400Y-81774200D02*
X162078400Y-81413800D01*
X162078400Y-81413800D02*
X162116400Y-81050400D01*
X162116400Y-81050400D02*
X162134400Y-80685000D01*
X162134400Y-80685000D02*
X162132400Y-80318800D01*
X162132400Y-80318800D02*
X162110400Y-79952800D01*
X162110400Y-79952800D02*
X162068400Y-79588100D01*
X162068400Y-79588100D02*
X162008400Y-79225700D01*
X162008400Y-79225700D02*
X161929400Y-78866600D01*
X161929400Y-78866600D02*
X161831400Y-78512100D01*
X161831400Y-78512100D02*
X161715400Y-78163000D01*
X161715400Y-78163000D02*
X161581400Y-77820500D01*
X161581400Y-77820500D02*
X161430400Y-77485600D01*
X161430400Y-77485600D02*
X161261400Y-77159400D01*
X161261400Y-77159400D02*
X161076400Y-76843000D01*
X161076400Y-76843000D02*
X160874400Y-76537400D01*
X160874400Y-76537400D02*
X160656400Y-76243600D01*
X160656400Y-76243600D02*
X160422400Y-75962900D01*
X160422400Y-75962900D02*
X160172400Y-75696100D01*
X160172400Y-75696100D02*
X159907400Y-75444400D01*
X159907400Y-75444400D02*
X159627400Y-75208800D01*
X159627400Y-75208800D02*
X159332400Y-74990400D01*
X159332400Y-74990400D02*
X159023400Y-74790200D01*
X159023400Y-74790200D02*
X158700400Y-74609400D01*
X158700400Y-74609400D02*
X158363400Y-74448900D01*
X158363400Y-74448900D02*
X158013400Y-74309900D01*
X158013400Y-74309900D02*
X158193400Y-74022200D01*
X158193400Y-74022200D02*
X158352400Y-73722500D01*
X158352400Y-73722500D02*
X158489400Y-73412400D01*
X158489400Y-73412400D02*
X158604400Y-73093600D01*
X158604400Y-73093600D02*
X158697400Y-72767700D01*
X158697400Y-72767700D02*
X158767400Y-72436600D01*
X158767400Y-72436600D02*
X158815400Y-72101800D01*
X158815400Y-72101800D02*
X158838400Y-71765100D01*
X158838400Y-71765100D02*
X158837400Y-71428100D01*
X158837400Y-71428100D02*
X158812400Y-71092500D01*
X158812400Y-71092500D02*
X158762400Y-70760000D01*
X158762400Y-70760000D02*
X158687400Y-70432300D01*
X158687400Y-70432300D02*
X158586400Y-70111100D01*
X158586400Y-70111100D02*
X158458400Y-69798000D01*
X158458400Y-69798000D02*
X158304400Y-69494800D01*
X158304400Y-69494800D02*
X158123400Y-69203100D01*
X158123400Y-69203100D02*
X158981400Y-69351100D01*
X158981400Y-69351100D02*
X159847400Y-69443300D01*
X159847400Y-69443300D02*
X160716400Y-69480900D01*
X160716400Y-69480900D02*
X161587400Y-69465200D01*
X161587400Y-69465200D02*
X162456400Y-69397400D01*
X162456400Y-69397400D02*
X163320400Y-69278800D01*
X163320400Y-69278800D02*
X164178400Y-69110600D01*
X164178400Y-69110600D02*
X165025400Y-68894100D01*
X165025400Y-68894100D02*
X165859400Y-68630600D01*
X165859400Y-68630600D02*
X166678400Y-68321300D01*
X166678400Y-68321300D02*
X167478400Y-67967500D01*
X167478400Y-67967500D02*
X168256400Y-67570400D01*
X168256400Y-67570400D02*
X169011400Y-67131400D01*
X169011400Y-67131400D02*
X169738400Y-66651600D01*
X169738400Y-66651600D02*
X170435400Y-66132300D01*
X170435400Y-66132300D02*
X171099400Y-65574800D01*
X171099400Y-65574800D02*
X171526400Y-65733600D01*
X171526400Y-65733600D02*
X171957400Y-65858300D01*
X171957400Y-65858300D02*
X172391400Y-65949600D01*
X172391400Y-65949600D02*
X172825400Y-66008600D01*
X172825400Y-66008600D02*
X173260400Y-66036300D01*
X173260400Y-66036300D02*
X173694400Y-66033600D01*
X173694400Y-66033600D02*
X174126400Y-66001600D01*
X174126400Y-66001600D02*
X174553400Y-65941000D01*
X174553400Y-65941000D02*
X174976400Y-65853100D01*
X174976400Y-65853100D02*
X175393400Y-65738600D01*
X175393400Y-65738600D02*
X175802400Y-65598600D01*
X175802400Y-65598600D02*
X176203400Y-65434100D01*
X176203400Y-65434100D02*
X176594400Y-65245900D01*
X176594400Y-65245900D02*
X176974400Y-65035200D01*
X176974400Y-65035200D02*
X177342400Y-64802800D01*
X177342400Y-64802800D02*
X177696400Y-64549700D01*
X177696400Y-64549700D02*
X178035400Y-64276900D01*
X178035400Y-64276900D02*
X178359400Y-63985300D01*
X178359400Y-63985300D02*
X178665400Y-63676000D01*
X178665400Y-63676000D02*
X178952400Y-63349900D01*
X178952400Y-63349900D02*
X179220400Y-63007900D01*
X179220400Y-63007900D02*
X179467400Y-62651000D01*
X179467400Y-62651000D02*
X179692400Y-62280300D01*
X179692400Y-62280300D02*
X179893400Y-61896600D01*
X179893400Y-61896600D02*
X180070400Y-61500900D01*
X180070400Y-61500900D02*
X180221400Y-61094300D01*
X180221400Y-61094300D02*
X180344400Y-60677600D01*
X180344400Y-60677600D02*
X180440400Y-60251900D01*
X180440400Y-60251900D02*
X180505400Y-59818100D01*
X180505400Y-59818100D02*
X180540400Y-59377100D01*
X180540400Y-59377100D02*
X180543400Y-58930000D01*
X180543400Y-58930000D02*
X180512400Y-58477700D01*
X180512400Y-58477700D02*
X180489400Y-58030200D01*
X180489400Y-58030200D02*
X180434400Y-57591600D01*
X180434400Y-57591600D02*
X180349400Y-57162600D01*
X180349400Y-57162600D02*
X180234400Y-56744200D01*
X180234400Y-56744200D02*
X180092400Y-56337100D01*
X180092400Y-56337100D02*
X179923400Y-55942000D01*
X179923400Y-55942000D02*
X179728400Y-55559900D01*
X179728400Y-55559900D02*
X179510400Y-55191400D01*
X179510400Y-55191400D02*
X179269400Y-54837300D01*
X179269400Y-54837300D02*
X179007400Y-54498500D01*
X179007400Y-54498500D02*
X178724400Y-54175800D01*
X178724400Y-54175800D02*
X178423400Y-53869900D01*
X178423400Y-53869900D02*
X178104400Y-53581700D01*
X178104400Y-53581700D02*
X177769400Y-53311900D01*
X177769400Y-53311900D02*
X177419400Y-53061300D01*
X177419400Y-53061300D02*
X177056400Y-52830700D01*
X177056400Y-52830700D02*
X176680400Y-52621000D01*
X176680400Y-52621000D02*
X176293400Y-52432800D01*
X176293400Y-52432800D02*
X175897400Y-52267100D01*
X175897400Y-52267100D02*
X175492400Y-52124500D01*
X175492400Y-52124500D02*
X175081400Y-52005900D01*
X175081400Y-52005900D02*
X174663400Y-51912100D01*
X174663400Y-51912100D02*
X174241400Y-51843900D01*
X174241400Y-51843900D02*
X173816400Y-51802100D01*
X173816400Y-51802100D02*
X173389400Y-51787400D01*
X173389400Y-51787400D02*
X172962400Y-51800700D01*
X172962400Y-51800700D02*
X172535400Y-51842700D01*
X172535400Y-51842700D02*
X172110400Y-51914300D01*
X172110400Y-51914300D02*
X171689400Y-52016200D01*
X171689400Y-52016200D02*
X171272400Y-52149200D01*
X171272400Y-52149200D02*
X170861400Y-52314100D01*
X170861400Y-52314100D02*
X170458400Y-52511800D01*
X170458400Y-52511800D02*
X170074400Y-52713300D01*
X170074400Y-52713300D02*
X169704400Y-52938800D01*
X169704400Y-52938800D02*
X169350400Y-53187000D01*
X169350400Y-53187000D02*
X169012400Y-53456800D01*
X169012400Y-53456800D02*
X168691400Y-53746800D01*
X168691400Y-53746800D02*
X168388400Y-54055700D01*
X168388400Y-54055700D02*
X168104400Y-54382300D01*
X168104400Y-54382300D02*
X167841400Y-54725300D01*
X167841400Y-54725300D02*
X167598400Y-55083300D01*
X167598400Y-55083300D02*
X167377400Y-55455100D01*
X167377400Y-55455100D02*
X167178400Y-55839500D01*
X167178400Y-55839500D02*
X167003400Y-56235100D01*
X167003400Y-56235100D02*
X166853400Y-56640700D01*
X166853400Y-56640700D02*
X166728400Y-57055000D01*
X166728400Y-57055000D02*
X166629400Y-57476600D01*
X166629400Y-57476600D02*
X166558400Y-57904400D01*
X166558400Y-57904400D02*
X166181400Y-57674900D01*
X166181400Y-57674900D02*
X165822400Y-57429600D01*
X165822400Y-57429600D02*
X165480400Y-57169700D01*
X165480400Y-57169700D02*
X165152400Y-56895800D01*
X165152400Y-56895800D02*
X164839400Y-56609100D01*
X164839400Y-56609100D02*
X164539400Y-56310300D01*
X164539400Y-56310300D02*
X164251400Y-56000500D01*
X164251400Y-56000500D02*
X163974400Y-55680500D01*
X163974400Y-55680500D02*
X163450400Y-55013800D01*
X163450400Y-55013800D02*
X162958400Y-54317400D01*
X162958400Y-54317400D02*
X162490400Y-53598900D01*
X162490400Y-53598900D02*
X162037400Y-52865500D01*
X162037400Y-52865500D02*
X161144400Y-51383600D01*
X161144400Y-51383600D02*
X160688400Y-50649900D01*
X160688400Y-50649900D02*
X160213400Y-49930700D01*
X160213400Y-49930700D02*
X159712400Y-49233600D01*
X159712400Y-49233600D02*
X159177400Y-48565800D01*
X159177400Y-48565800D02*
X158894400Y-48245300D01*
X158894400Y-48245300D02*
X158599400Y-47934800D01*
X158599400Y-47934800D02*
X158291400Y-47635300D01*
X158291400Y-47635300D02*
X157969400Y-47347800D01*
X157969400Y-47347800D02*
X157159400Y-46574500D01*
X157159400Y-46574500D02*
X156317400Y-45836700D01*
X156317400Y-45836700D02*
X155444400Y-45134800D01*
X155444400Y-45134800D02*
X154541400Y-44469400D01*
X154541400Y-44469400D02*
X153612400Y-43840900D01*
X153612400Y-43840900D02*
X152658400Y-43249800D01*
X152658400Y-43249800D02*
X151680400Y-42696600D01*
X151680400Y-42696600D02*
X150680000Y-42181600D01*
X150680000Y-42181600D02*
X149659900Y-41705400D01*
X149659900Y-41705400D02*
X148621600Y-41268400D01*
X148621600Y-41268400D02*
X147566800Y-40871200D01*
X147566800Y-40871200D02*
X146497200Y-40514100D01*
X146497200Y-40514100D02*
X145414600Y-40197600D01*
X145414600Y-40197600D02*
X144320900Y-39922200D01*
X144320900Y-39922200D02*
X143217700Y-39688400D01*
X143217700Y-39688400D02*
X142106900Y-39496700D01*
X142106900Y-39496700D02*
X140990200Y-39347400D01*
X140990200Y-39347400D02*
X139869400Y-39241000D01*
X139869400Y-39241000D02*
X138746300Y-39178100D01*
X138746300Y-39178100D02*
X137622600Y-39159100D01*
X137622600Y-39159100D02*
X136500100Y-39184400D01*
X136500100Y-39184400D02*
X135380600Y-39254600D01*
X135380600Y-39254600D02*
X134265800Y-39370000D01*
X134265800Y-39370000D02*
X133157500Y-39531200D01*
X133157500Y-39531200D02*
X132057600Y-39738600D01*
X132057600Y-39738600D02*
X130967700Y-39992600D01*
X130967700Y-39992600D02*
X129889600Y-40293900D01*
X129889600Y-40293900D02*
X128825200Y-40642700D01*
X128825200Y-40642700D02*
X127776100Y-41039600D01*
X127776100Y-41039600D02*
X126744200Y-41485000D01*
X126744200Y-41485000D02*
X125731200Y-41979400D01*
X125731200Y-41979400D02*
X124738900Y-42523300D01*
X124738900Y-42523300D02*
X124036900Y-42957600D01*
X124036900Y-42957600D02*
X123359000Y-43426800D01*
X123359000Y-43426800D02*
X122706400Y-43929500D01*
X122706400Y-43929500D02*
X122080100Y-44464000D01*
X122080100Y-44464000D02*
X121481500Y-45028900D01*
X121481500Y-45028900D02*
X120911600Y-45622600D01*
X120911600Y-45622600D02*
X120371600Y-46243500D01*
X120371600Y-46243500D02*
X119862800Y-46890100D01*
X119862800Y-46890100D02*
X119386200Y-47560900D01*
X119386200Y-47560900D02*
X118943100Y-48254200D01*
X118943100Y-48254200D02*
X118534600Y-48968500D01*
X118534600Y-48968500D02*
X118161900Y-49702300D01*
X118161900Y-49702300D02*
X117826200Y-50454100D01*
X117826200Y-50454100D02*
X117528600Y-51222200D01*
X117528600Y-51222200D02*
X117270300Y-52005100D01*
X117270300Y-52005100D02*
X117052600Y-52801300D01*
X117052600Y-52801300D02*
X116766800Y-53002500D01*
X116766800Y-53002500D02*
X116490400Y-53215500D01*
X116490400Y-53215500D02*
X115967000Y-53674500D01*
X115967000Y-53674500D02*
X115484300Y-54174500D01*
X115484300Y-54174500D02*
X115044200Y-54711400D01*
X115044200Y-54711400D02*
X114648800Y-55281200D01*
X114648800Y-55281200D02*
X114300000Y-55880000D01*
X114300000Y-55880000D02*
X113999900Y-56503700D01*
X113999900Y-56503700D02*
X113750300Y-57148300D01*
X113750300Y-57148300D02*
X113553200Y-57809900D01*
X113553200Y-57809900D02*
X113410700Y-58484500D01*
X113410700Y-58484500D02*
X113324700Y-59168100D01*
X113324700Y-59168100D02*
X113297200Y-59856600D01*
X113297200Y-59856600D02*
X113305900Y-60201500D01*
X113305900Y-60201500D02*
X113330100Y-60546200D01*
X113330100Y-60546200D02*
X113369800Y-60890100D01*
X113369800Y-60890100D02*
X113425400Y-61232700D01*
X113425400Y-61232700D02*
X113497100Y-61573600D01*
X113497100Y-61573600D02*
X113585200Y-61912300D01*
X113585200Y-61912300D02*
X113689800Y-62248200D01*
X113689800Y-62248200D02*
X113811300Y-62580900D01*
X113811300Y-62580900D02*
X113494800Y-62545700D01*
X113494800Y-62545700D02*
X113186500Y-62537200D01*
X113186500Y-62537200D02*
X112887000Y-62554300D01*
X112887000Y-62554300D02*
X112596500Y-62595800D01*
X112596500Y-62595800D02*
X112315400Y-62660700D01*
X112315400Y-62660700D02*
X112044200Y-62747800D01*
X112044200Y-62747800D02*
X111783300Y-62856000D01*
X111783300Y-62856000D02*
X111533000Y-62984100D01*
X111533000Y-62984100D02*
X111293900Y-63131100D01*
X111293900Y-63131100D02*
X111066100Y-63295700D01*
X111066100Y-63295700D02*
X110850200Y-63476800D01*
X110850200Y-63476800D02*
X110646600Y-63673400D01*
X110646600Y-63673400D02*
X110455700Y-63884200D01*
X110455700Y-63884200D02*
X110277800Y-64108200D01*
X110277800Y-64108200D02*
X110113300Y-64344200D01*
X110113300Y-64344200D02*
X109962800Y-64591100D01*
X109962800Y-64591100D02*
X109826400Y-64847700D01*
X109826400Y-64847700D02*
X109704700Y-65113000D01*
X109704700Y-65113000D02*
X109598100Y-65385700D01*
X109598100Y-65385700D02*
X109506900Y-65664800D01*
X109506900Y-65664800D02*
X109431600Y-65949100D01*
X109431600Y-65949100D02*
X109372600Y-66237600D01*
X109372600Y-66237600D02*
X109330100Y-66529000D01*
X109330100Y-66529000D02*
X109304800Y-66822200D01*
X109304800Y-66822200D02*
X109296800Y-67116100D01*
X109296800Y-67116100D02*
X109306800Y-67409600D01*
X109306800Y-67409600D02*
X109334900Y-67701500D01*
X109334900Y-67701500D02*
X109381700Y-67990700D01*
X109381700Y-67990700D02*
X109447600Y-68276100D01*
X109447600Y-68276100D02*
X109532900Y-68556500D01*
X109532900Y-68556500D02*
X109638000Y-68830900D01*
X109638000Y-68830900D02*
X109763400Y-69098000D01*
X109763400Y-69098000D02*
X109750400Y-69252600D01*
X109750400Y-69252600D02*
X109684900Y-69384000D01*
X109684900Y-69384000D02*
X109573500Y-69496100D01*
X109573500Y-69496100D02*
X109422700Y-69592600D01*
X109422700Y-69592600D02*
X109239100Y-69677500D01*
X109239100Y-69677500D02*
X109029200Y-69754400D01*
X109029200Y-69754400D02*
X108556600Y-69900000D01*
X108556600Y-69900000D02*
X108057300Y-70060000D01*
X108057300Y-70060000D02*
X107813900Y-70155000D01*
X107813900Y-70155000D02*
X107583500Y-70265000D01*
X107583500Y-70265000D02*
X107372500Y-70394000D01*
X107372500Y-70394000D02*
X107187600Y-70545700D01*
X107187600Y-70545700D02*
X107035100Y-70723900D01*
X107035100Y-70723900D02*
X106921800Y-70932500D01*
X106921800Y-70932500D02*
X106681800Y-71394700D01*
X106681800Y-71394700D02*
X106433900Y-71808200D01*
X106433900Y-71808200D02*
X106167900Y-72174200D01*
X106167900Y-72174200D02*
X105874000Y-72494300D01*
X105874000Y-72494300D02*
X105713400Y-72637600D01*
X105713400Y-72637600D02*
X105542000Y-72770000D01*
X105542000Y-72770000D02*
X105358600Y-72891500D01*
X105358600Y-72891500D02*
X105161900Y-73002500D01*
X105161900Y-73002500D02*
X104950700Y-73103100D01*
X104950700Y-73103100D02*
X104723800Y-73193400D01*
X104723800Y-73193400D02*
X104217500Y-73344100D01*
X104217500Y-73344100D02*
X103944900Y-73528400D01*
X103944900Y-73528400D02*
X103691500Y-73727600D01*
X103691500Y-73727600D02*
X103456700Y-73940800D01*
X103456700Y-73940800D02*
X103240400Y-74167100D01*
X103240400Y-74167100D02*
X103042100Y-74405700D01*
X103042100Y-74405700D02*
X102861500Y-74655700D01*
X102861500Y-74655700D02*
X102698300Y-74916400D01*
X102698300Y-74916400D02*
X102552200Y-75186800D01*
X102552200Y-75186800D02*
X102422800Y-75466200D01*
X102422800Y-75466200D02*
X102309800Y-75753700D01*
X102309800Y-75753700D02*
X102212800Y-76048400D01*
X102212800Y-76048400D02*
X102131600Y-76349400D01*
X102131600Y-76349400D02*
X102065700Y-76656100D01*
X102065700Y-76656100D02*
X102014900Y-76967500D01*
X102014900Y-76967500D02*
X101957100Y-77600900D01*
X101957100Y-77600900D02*
X101955400Y-78243200D01*
X101955400Y-78243200D02*
X102007200Y-78887400D01*
X102007200Y-78887400D02*
X102109800Y-79526800D01*
X102109800Y-79526800D02*
X102260600Y-80154700D01*
X102260600Y-80154700D02*
X102456700Y-80764400D01*
X102456700Y-80764400D02*
X102695600Y-81349100D01*
X102695600Y-81349100D02*
X102974600Y-81902000D01*
X102974600Y-81902000D02*
X103291000Y-82416500D01*
X103291000Y-82416500D02*
X103592400Y-82627300D01*
X103592400Y-82627300D02*
X103802200Y-82832400D01*
X103802200Y-82832400D02*
X103875300Y-82933000D01*
X103875300Y-82933000D02*
X103928800Y-83032300D01*
X103928800Y-83032300D02*
X103963600Y-83130300D01*
X103963600Y-83130300D02*
X103980900Y-83227200D01*
X103980900Y-83227200D02*
X103981700Y-83323000D01*
X103981700Y-83323000D02*
X103967200Y-83417600D01*
X103967200Y-83417600D02*
X103896200Y-83603800D01*
X103896200Y-83603800D02*
X103776500Y-83786100D01*
X103776500Y-83786100D02*
X103616900Y-83965000D01*
X103616900Y-83965000D02*
X103425800Y-84140700D01*
X103425800Y-84140700D02*
X103211900Y-84313700D01*
X103211900Y-84313700D02*
X102750300Y-84652900D01*
X102750300Y-84652900D02*
X102300800Y-84985300D01*
X102300800Y-84985300D02*
X102102200Y-85149900D01*
X102102200Y-85149900D02*
X101932500Y-85313900D01*
X101932500Y-85313900D02*
X101484300Y-85702900D01*
X101484300Y-85702900D02*
X101050700Y-86107500D01*
X101050700Y-86107500D02*
X100632100Y-86527000D01*
X100632100Y-86527000D02*
X100228600Y-86960800D01*
X100228600Y-86960800D02*
X99840800Y-87408200D01*
X99840800Y-87408200D02*
X99468900Y-87868700D01*
X99468900Y-87868700D02*
X99113300Y-88341600D01*
X99113300Y-88341600D02*
X98774200Y-88826300D01*
X98774200Y-88826300D02*
X98452100Y-89322200D01*
X98452100Y-89322200D02*
X98147300Y-89828500D01*
X98147300Y-89828500D02*
X97860100Y-90344800D01*
X97860100Y-90344800D02*
X97590800Y-90870300D01*
X97590800Y-90870300D02*
X97339800Y-91404400D01*
X97339800Y-91404400D02*
X97107500Y-91946600D01*
X97107500Y-91946600D02*
X96894100Y-92496100D01*
X96894100Y-92496100D02*
X96699900Y-93052300D01*
X96699900Y-93052300D02*
X96525500Y-93614700D01*
X96525500Y-93614700D02*
X96371000Y-94182500D01*
X96371000Y-94182500D02*
X96236800Y-94755200D01*
X96236800Y-94755200D02*
X96123200Y-95332100D01*
X96123200Y-95332100D02*
X96030700Y-95912600D01*
X96030700Y-95912600D02*
X95959400Y-96496000D01*
X95959400Y-96496000D02*
X95909800Y-97081800D01*
X95909800Y-97081800D02*
X95882200Y-97669200D01*
X95882200Y-97669200D02*
X95876900Y-98257800D01*
X95876900Y-98257800D02*
X95894300Y-98846700D01*
X95894300Y-98846700D02*
X95934700Y-99435500D01*
X95934700Y-99435500D02*
X95998400Y-100023400D01*
X95998400Y-100023400D02*
X96085800Y-100609900D01*
X96085800Y-100609900D02*
X96197200Y-101194300D01*
X96197200Y-101194300D02*
X96333000Y-101776300D01*
X96333000Y-101776300D02*
X96493400Y-102354300D01*
X96493400Y-102354300D02*
X96715800Y-103074300D01*
X96715800Y-103074300D02*
X96989000Y-103779300D01*
X96989000Y-103779300D02*
X97313700Y-104462300D01*
X97313700Y-104462300D02*
X97495400Y-104794300D01*
X97495400Y-104794300D02*
X97690300Y-105117300D01*
X97690300Y-105117300D02*
X97898200Y-105432300D01*
X97898200Y-105432300D02*
X98119400Y-105737300D01*
X98119400Y-105737300D02*
X98353900Y-106032300D01*
X98353900Y-106032300D02*
X98601700Y-106315300D01*
X98601700Y-106315300D02*
X98862900Y-106587300D01*
X98862900Y-106587300D02*
X99137600Y-106845300D01*
X99137600Y-106845300D02*
X99425800Y-107090300D01*
X99425800Y-107090300D02*
X99727700Y-107320300D01*
X99727700Y-107320300D02*
X99222100Y-108290300D01*
X99222100Y-108290300D02*
X98746900Y-109289300D01*
X98746900Y-109289300D02*
X98315600Y-110312300D01*
X98315600Y-110312300D02*
X98120600Y-110831300D01*
X98120600Y-110831300D02*
X97941500Y-111354300D01*
X97941500Y-111354300D02*
X97780100Y-111881300D01*
X97780100Y-111881300D02*
X97637900Y-112411300D01*
X97637900Y-112411300D02*
X97516700Y-112944300D01*
X97516700Y-112944300D02*
X97418100Y-113479300D01*
X97418100Y-113479300D02*
X97343800Y-114015300D01*
X97343800Y-114015300D02*
X97295500Y-114552300D01*
X97295500Y-114552300D02*
X97274800Y-115089300D01*
X97274800Y-115089300D02*
X97283300Y-115626300D01*
X97283300Y-115626300D02*
X96922100Y-116137300D01*
X96922100Y-116137300D02*
X96587400Y-116682300D01*
X96587400Y-116682300D02*
X96283400Y-117254300D01*
X96283400Y-117254300D02*
X96014200Y-117849300D01*
X96014200Y-117849300D02*
X95784000Y-118461300D01*
X95784000Y-118461300D02*
X95596800Y-119087300D01*
X95596800Y-119087300D02*
X95456900Y-119721300D01*
X95456900Y-119721300D02*
X95368300Y-120359300D01*
X95368300Y-120359300D02*
X95335100Y-120995300D01*
X95335100Y-120995300D02*
X95340700Y-121311300D01*
X95340700Y-121311300D02*
X95361600Y-121624300D01*
X95361600Y-121624300D02*
X95398500Y-121935300D01*
X95398500Y-121935300D02*
X95451800Y-122243300D01*
X95451800Y-122243300D02*
X95522000Y-122547300D01*
X95522000Y-122547300D02*
X95609800Y-122846300D01*
X95609800Y-122846300D02*
X95715500Y-123140300D01*
X95715500Y-123140300D02*
X95839800Y-123428300D01*
X95839800Y-123428300D02*
X95983100Y-123709300D01*
X95983100Y-123709300D02*
X96145900Y-123984300D01*
X96145900Y-123984300D02*
X96328800Y-124251300D01*
X96328800Y-124251300D02*
X96532200Y-124510300D01*
X96532200Y-124510300D02*
X96756800Y-124759300D01*
X96756800Y-124759300D02*
X97002900Y-125000300D01*
X97002900Y-125000300D02*
X97273900Y-125196300D01*
X97273900Y-125196300D02*
X97498100Y-125418300D01*
X97498100Y-125418300D02*
X97681000Y-125662300D01*
X97681000Y-125662300D02*
X97828300Y-125926300D01*
X97828300Y-125926300D02*
X97945500Y-126207300D01*
X97945500Y-126207300D02*
X98038100Y-126502300D01*
X98038100Y-126502300D02*
X98111800Y-126810300D01*
X98111800Y-126810300D02*
X98172100Y-127125300D01*
X98172100Y-127125300D02*
X98274800Y-127772300D01*
X98274800Y-127772300D02*
X98390800Y-128421300D01*
X98390800Y-128421300D02*
X98467700Y-128739300D01*
X98467700Y-128739300D02*
X98564600Y-129049300D01*
X98564600Y-129049300D02*
X98687100Y-129348300D01*
X98687100Y-129348300D02*
X98840800Y-129634300D01*
X98840800Y-129634300D02*
X99122300Y-130297300D01*
X99122300Y-130297300D02*
X99440700Y-130942300D01*
X99440700Y-130942300D02*
X99793800Y-131567300D01*
X99793800Y-131567300D02*
X100179300Y-132172300D01*
X100179300Y-132172300D02*
X100595100Y-132758300D01*
X100595100Y-132758300D02*
X101038800Y-133324300D01*
X101038800Y-133324300D02*
X101508200Y-133870300D01*
X101508200Y-133870300D02*
X102001000Y-134395300D01*
X102001000Y-134395300D02*
X102515200Y-134900300D01*
X102515200Y-134900300D02*
X103048300Y-135384300D01*
X103048300Y-135384300D02*
X103598200Y-135847300D01*
X103598200Y-135847300D02*
X104162600Y-136288300D01*
X104162600Y-136288300D02*
X104739300Y-136709300D01*
X104739300Y-136709300D02*
X105326000Y-137107300D01*
X105326000Y-137107300D02*
X105920500Y-137484300D01*
X105920500Y-137484300D02*
X106520600Y-137839300D01*
X106520600Y-137839300D02*
X110334300Y-143984300D01*
X110334300Y-143984300D02*
X112708000Y-144061300D01*
X112708000Y-144061300D02*
X115106500Y-144121300D01*
X115106500Y-144121300D02*
X119966300Y-144195300D01*
X119966300Y-144195300D02*
X124890600Y-144221300D01*
X124890600Y-144221300D02*
X129856200Y-144214300D01*
X129856200Y-144214300D02*
X139818200Y-144159300D01*
X139818200Y-144159300D02*
X144768200Y-144140300D01*
X144768200Y-144140300D02*
X149666500Y-144147300D01*
X149666500Y-144147300D02*
X152055400Y-137817300D01*
X152055400Y-137817300D02*
X152055400Y-137817300D01*
M02*
