%TF.GenerationSoftware,KiCad,Pcbnew,9.0.6*%
%TF.CreationDate,2025-12-18T17:12:23+01:00*%
%TF.ProjectId,Santa,53616e74-612e-46b6-9963-61645f706362,rev?*%
%TF.SameCoordinates,Original*%
%TF.FileFunction,Soldermask,Bot*%
%TF.FilePolarity,Negative*%
%FSLAX46Y46*%
G04 Gerber Fmt 4.6, Leading zero omitted, Abs format (unit mm)*
G04 Created by KiCad (PCBNEW 9.0.6) date 2025-12-18 17:12:23*
%MOMM*%
%LPD*%
G01*
G04 APERTURE LIST*
G04 Aperture macros list*
%AMRoundRect*
0 Rectangle with rounded corners*
0 $1 Rounding radius*
0 $2 $3 $4 $5 $6 $7 $8 $9 X,Y pos of 4 corners*
0 Add a 4 corners polygon primitive as box body*
4,1,4,$2,$3,$4,$5,$6,$7,$8,$9,$2,$3,0*
0 Add four circle primitives for the rounded corners*
1,1,$1+$1,$2,$3*
1,1,$1+$1,$4,$5*
1,1,$1+$1,$6,$7*
1,1,$1+$1,$8,$9*
0 Add four rect primitives between the rounded corners*
20,1,$1+$1,$2,$3,$4,$5,0*
20,1,$1+$1,$4,$5,$6,$7,0*
20,1,$1+$1,$6,$7,$8,$9,0*
20,1,$1+$1,$8,$9,$2,$3,0*%
G04 Aperture macros list end*
%ADD10C,0.300000*%
%ADD11C,0.010000*%
%ADD12C,2.000000*%
%ADD13RoundRect,0.200000X-0.800000X-0.800000X0.800000X-0.800000X0.800000X0.800000X-0.800000X0.800000X0*%
%ADD14O,2.000000X2.000000*%
%ADD15RoundRect,0.312500X-0.687500X-0.687500X0.687500X-0.687500X0.687500X0.687500X-0.687500X0.687500X0*%
%ADD16C,2.400000*%
%ADD17RoundRect,0.200000X-0.900000X-0.900000X0.900000X-0.900000X0.900000X0.900000X-0.900000X0.900000X0*%
%ADD18C,2.200000*%
%ADD19RoundRect,0.200000X-2.500000X-1.000000X2.500000X-1.000000X2.500000X1.000000X-2.500000X1.000000X0*%
%ADD20C,18.180000*%
%ADD21RoundRect,0.200000X-0.750000X-0.750000X0.750000X-0.750000X0.750000X0.750000X-0.750000X0.750000X0*%
%ADD22C,1.900000*%
G04 APERTURE END LIST*
D10*
X158645489Y-120800828D02*
X158645489Y-119300828D01*
X157788346Y-120800828D02*
X158431203Y-119943685D01*
X157788346Y-119300828D02*
X158645489Y-120157971D01*
X157145489Y-120800828D02*
X157145489Y-119300828D01*
X157145489Y-120015114D02*
X156288346Y-120015114D01*
X156288346Y-120800828D02*
X156288346Y-119300828D01*
X155074060Y-120015114D02*
X155574060Y-120015114D01*
X155574060Y-120800828D02*
X155574060Y-119300828D01*
X155574060Y-119300828D02*
X154859774Y-119300828D01*
X152359774Y-120800828D02*
X153216917Y-120800828D01*
X152788346Y-120800828D02*
X152788346Y-119300828D01*
X152788346Y-119300828D02*
X152931203Y-119515114D01*
X152931203Y-119515114D02*
X153074060Y-119657971D01*
X153074060Y-119657971D02*
X153216917Y-119729400D01*
X151788346Y-119443685D02*
X151716918Y-119372257D01*
X151716918Y-119372257D02*
X151574061Y-119300828D01*
X151574061Y-119300828D02*
X151216918Y-119300828D01*
X151216918Y-119300828D02*
X151074061Y-119372257D01*
X151074061Y-119372257D02*
X151002632Y-119443685D01*
X151002632Y-119443685D02*
X150931203Y-119586542D01*
X150931203Y-119586542D02*
X150931203Y-119729400D01*
X150931203Y-119729400D02*
X151002632Y-119943685D01*
X151002632Y-119943685D02*
X151859775Y-120800828D01*
X151859775Y-120800828D02*
X150931203Y-120800828D01*
X150288347Y-120657971D02*
X150216918Y-120729400D01*
X150216918Y-120729400D02*
X150288347Y-120800828D01*
X150288347Y-120800828D02*
X150359775Y-120729400D01*
X150359775Y-120729400D02*
X150288347Y-120657971D01*
X150288347Y-120657971D02*
X150288347Y-120800828D01*
X149645489Y-119443685D02*
X149574061Y-119372257D01*
X149574061Y-119372257D02*
X149431204Y-119300828D01*
X149431204Y-119300828D02*
X149074061Y-119300828D01*
X149074061Y-119300828D02*
X148931204Y-119372257D01*
X148931204Y-119372257D02*
X148859775Y-119443685D01*
X148859775Y-119443685D02*
X148788346Y-119586542D01*
X148788346Y-119586542D02*
X148788346Y-119729400D01*
X148788346Y-119729400D02*
X148859775Y-119943685D01*
X148859775Y-119943685D02*
X149716918Y-120800828D01*
X149716918Y-120800828D02*
X148788346Y-120800828D01*
X147859775Y-119300828D02*
X147716918Y-119300828D01*
X147716918Y-119300828D02*
X147574061Y-119372257D01*
X147574061Y-119372257D02*
X147502633Y-119443685D01*
X147502633Y-119443685D02*
X147431204Y-119586542D01*
X147431204Y-119586542D02*
X147359775Y-119872257D01*
X147359775Y-119872257D02*
X147359775Y-120229400D01*
X147359775Y-120229400D02*
X147431204Y-120515114D01*
X147431204Y-120515114D02*
X147502633Y-120657971D01*
X147502633Y-120657971D02*
X147574061Y-120729400D01*
X147574061Y-120729400D02*
X147716918Y-120800828D01*
X147716918Y-120800828D02*
X147859775Y-120800828D01*
X147859775Y-120800828D02*
X148002633Y-120729400D01*
X148002633Y-120729400D02*
X148074061Y-120657971D01*
X148074061Y-120657971D02*
X148145490Y-120515114D01*
X148145490Y-120515114D02*
X148216918Y-120229400D01*
X148216918Y-120229400D02*
X148216918Y-119872257D01*
X148216918Y-119872257D02*
X148145490Y-119586542D01*
X148145490Y-119586542D02*
X148074061Y-119443685D01*
X148074061Y-119443685D02*
X148002633Y-119372257D01*
X148002633Y-119372257D02*
X147859775Y-119300828D01*
X146788347Y-119443685D02*
X146716919Y-119372257D01*
X146716919Y-119372257D02*
X146574062Y-119300828D01*
X146574062Y-119300828D02*
X146216919Y-119300828D01*
X146216919Y-119300828D02*
X146074062Y-119372257D01*
X146074062Y-119372257D02*
X146002633Y-119443685D01*
X146002633Y-119443685D02*
X145931204Y-119586542D01*
X145931204Y-119586542D02*
X145931204Y-119729400D01*
X145931204Y-119729400D02*
X146002633Y-119943685D01*
X146002633Y-119943685D02*
X146859776Y-120800828D01*
X146859776Y-120800828D02*
X145931204Y-120800828D01*
X144574062Y-119300828D02*
X145288348Y-119300828D01*
X145288348Y-119300828D02*
X145359776Y-120015114D01*
X145359776Y-120015114D02*
X145288348Y-119943685D01*
X145288348Y-119943685D02*
X145145491Y-119872257D01*
X145145491Y-119872257D02*
X144788348Y-119872257D01*
X144788348Y-119872257D02*
X144645491Y-119943685D01*
X144645491Y-119943685D02*
X144574062Y-120015114D01*
X144574062Y-120015114D02*
X144502633Y-120157971D01*
X144502633Y-120157971D02*
X144502633Y-120515114D01*
X144502633Y-120515114D02*
X144574062Y-120657971D01*
X144574062Y-120657971D02*
X144645491Y-120729400D01*
X144645491Y-120729400D02*
X144788348Y-120800828D01*
X144788348Y-120800828D02*
X145145491Y-120800828D01*
X145145491Y-120800828D02*
X145288348Y-120729400D01*
X145288348Y-120729400D02*
X145359776Y-120657971D01*
D11*
%TO.C,G\u002A\u002A\u002A*%
X130886877Y-60022967D02*
X132540524Y-60134372D01*
X134194438Y-60306004D01*
X135817910Y-60535749D01*
X137380228Y-60821491D01*
X138850683Y-61161113D01*
X138969400Y-61192120D01*
X140237778Y-61557616D01*
X141462176Y-61977333D01*
X142685838Y-62468369D01*
X143952007Y-63047822D01*
X145023067Y-63585736D01*
X145525753Y-63846011D01*
X146019438Y-64100027D01*
X146468278Y-64329460D01*
X146836433Y-64515982D01*
X147076233Y-64635486D01*
X147647733Y-64915455D01*
X147647733Y-65371354D01*
X147684054Y-65802912D01*
X147783415Y-66331069D01*
X147931412Y-66901840D01*
X148113642Y-67461238D01*
X148315704Y-67955276D01*
X148363385Y-68053816D01*
X148728058Y-68719769D01*
X149107129Y-69278136D01*
X149541744Y-69788540D01*
X149609954Y-69860174D01*
X149829979Y-70100002D01*
X149953067Y-70280125D01*
X150006710Y-70455692D01*
X150018400Y-70679559D01*
X149942599Y-71500879D01*
X149716600Y-72244682D01*
X149342505Y-72907464D01*
X148822417Y-73485721D01*
X148158439Y-73975947D01*
X147977407Y-74080389D01*
X147743234Y-74218284D01*
X147561742Y-74357727D01*
X147399708Y-74535275D01*
X147223909Y-74787483D01*
X147001121Y-75150907D01*
X146994692Y-75161683D01*
X146610162Y-75741537D01*
X146164046Y-76283626D01*
X145631463Y-76812915D01*
X144987536Y-77354369D01*
X144295050Y-77870709D01*
X143404752Y-78486992D01*
X142604553Y-78997243D01*
X141865426Y-79415776D01*
X141158346Y-79756904D01*
X140454287Y-80034942D01*
X139724223Y-80264204D01*
X139138733Y-80413551D01*
X137938078Y-80626006D01*
X136657039Y-80726307D01*
X135344370Y-80711829D01*
X134642919Y-80655716D01*
X134284621Y-80610897D01*
X133821010Y-80542694D01*
X133312900Y-80460504D01*
X132837196Y-80376702D01*
X132370040Y-80293092D01*
X132034000Y-80241884D01*
X131794448Y-80220812D01*
X131616753Y-80227609D01*
X131466284Y-80260011D01*
X131397698Y-80282528D01*
X130815805Y-80437388D01*
X130111628Y-80532202D01*
X129271833Y-80568225D01*
X128493372Y-80555555D01*
X127513588Y-80488067D01*
X126594574Y-80354944D01*
X125698817Y-80145872D01*
X124788800Y-79850538D01*
X123827009Y-79458629D01*
X122882733Y-79013132D01*
X121589821Y-78301606D01*
X121360669Y-78145393D01*
X130441083Y-78145393D01*
X130696096Y-78400407D01*
X131075824Y-78665106D01*
X131545238Y-78808259D01*
X132073446Y-78827207D01*
X132629553Y-78719289D01*
X132958067Y-78595110D01*
X133243848Y-78450382D01*
X133497602Y-78295482D01*
X133593067Y-78224026D01*
X133804733Y-78043749D01*
X133296733Y-78218612D01*
X132682311Y-78375913D01*
X132043463Y-78444503D01*
X131435870Y-78422126D01*
X130937575Y-78314298D01*
X130441083Y-78145393D01*
X121360669Y-78145393D01*
X120444749Y-77521012D01*
X119436270Y-76660293D01*
X118553139Y-75708394D01*
X117784110Y-74654261D01*
X117117936Y-73486836D01*
X116984668Y-73214967D01*
X116862783Y-72960967D01*
X128304222Y-72960967D01*
X128384386Y-73468357D01*
X128612687Y-73935674D01*
X128970833Y-74354091D01*
X129440538Y-74714783D01*
X130003511Y-75008924D01*
X130641462Y-75227690D01*
X131336104Y-75362255D01*
X132069147Y-75403794D01*
X132822301Y-75343481D01*
X133127400Y-75288375D01*
X133834781Y-75083555D01*
X134453086Y-74793228D01*
X134966892Y-74431143D01*
X135360771Y-74011046D01*
X135619300Y-73546687D01*
X135727053Y-73051812D01*
X135729272Y-72969412D01*
X135648415Y-72432896D01*
X135410672Y-71944829D01*
X135023286Y-71511998D01*
X134493500Y-71141190D01*
X133828557Y-70839194D01*
X133275071Y-70669426D01*
X132535378Y-70537589D01*
X131800078Y-70512655D01*
X131087813Y-70586032D01*
X130417223Y-70749127D01*
X129806949Y-70993345D01*
X129275632Y-71310094D01*
X128841913Y-71690781D01*
X128524434Y-72126811D01*
X128341834Y-72609591D01*
X128304222Y-72960967D01*
X116862783Y-72960967D01*
X116782824Y-72794341D01*
X116590553Y-72398229D01*
X116427718Y-72067256D01*
X116314181Y-71842046D01*
X116301615Y-71817967D01*
X116069245Y-71369588D01*
X115904720Y-71029520D01*
X115792698Y-70758581D01*
X115717841Y-70517587D01*
X115664807Y-70267357D01*
X115643173Y-70136159D01*
X115603425Y-69353332D01*
X115687793Y-68730582D01*
X137583259Y-68730582D01*
X137707367Y-68732731D01*
X137889900Y-68656294D01*
X138557036Y-68379693D01*
X139187411Y-68245357D01*
X139685508Y-68233812D01*
X139997608Y-68261910D01*
X140249438Y-68319606D01*
X140503739Y-68428563D01*
X140823253Y-68610447D01*
X140884933Y-68647954D01*
X141222602Y-68842066D01*
X141433823Y-68928067D01*
X141526285Y-68901199D01*
X141507674Y-68756701D01*
X141385680Y-68489814D01*
X141324866Y-68375582D01*
X140979272Y-67902899D01*
X140530616Y-67564344D01*
X140020226Y-67371166D01*
X139436633Y-67310633D01*
X138888329Y-67413413D01*
X138384344Y-67675532D01*
X137933704Y-68093017D01*
X137712384Y-68386639D01*
X137584872Y-68615127D01*
X137583259Y-68730582D01*
X115687793Y-68730582D01*
X115716625Y-68517764D01*
X115980669Y-67644773D01*
X115988301Y-67624891D01*
X116054200Y-67468376D01*
X122332400Y-67468376D01*
X122403166Y-67468159D01*
X122591202Y-67408837D01*
X122860119Y-67302447D01*
X122946233Y-67265301D01*
X123291742Y-67124595D01*
X123580443Y-67042626D01*
X123887654Y-67004145D01*
X124286705Y-66993907D01*
X124641068Y-66996388D01*
X124890624Y-67017898D01*
X125096505Y-67076118D01*
X125319839Y-67188727D01*
X125621757Y-67373405D01*
X125641372Y-67385701D01*
X125983999Y-67597552D01*
X126206201Y-67723480D01*
X126329351Y-67770114D01*
X126374827Y-67744085D01*
X126364002Y-67652022D01*
X126350980Y-67605800D01*
X126196137Y-67246081D01*
X125961307Y-66875500D01*
X125695883Y-66567535D01*
X125593996Y-66479698D01*
X125101541Y-66203288D01*
X124568418Y-66075166D01*
X124025201Y-66090004D01*
X123502467Y-66242473D01*
X123030791Y-66527245D01*
X122640750Y-66938991D01*
X122597409Y-67001907D01*
X122452499Y-67231558D01*
X122356241Y-67404944D01*
X122332400Y-67468376D01*
X116054200Y-67468376D01*
X116146856Y-67248316D01*
X116285797Y-67004526D01*
X116424829Y-66861599D01*
X116480264Y-66827874D01*
X116887059Y-66531285D01*
X117272096Y-66080612D01*
X117627669Y-65490522D01*
X117946071Y-64775681D01*
X118008203Y-64588296D01*
X121839675Y-64588296D01*
X121891616Y-64786636D01*
X121999056Y-64948768D01*
X122186310Y-65149418D01*
X122397475Y-65285454D01*
X122666490Y-65366028D01*
X123027292Y-65400291D01*
X123513818Y-65397394D01*
X123644733Y-65392530D01*
X124090565Y-65363088D01*
X124534567Y-65314875D01*
X124912626Y-65255692D01*
X125084067Y-65217376D01*
X125862677Y-64951687D01*
X126522854Y-64609951D01*
X127051536Y-64201150D01*
X127172970Y-64053552D01*
X138180468Y-64053552D01*
X138245311Y-64559066D01*
X138455683Y-65057415D01*
X138807484Y-65534421D01*
X139296616Y-65975906D01*
X139918981Y-66367692D01*
X139989419Y-66404115D01*
X140625778Y-66686501D01*
X141274479Y-66900879D01*
X141903795Y-67041573D01*
X142481996Y-67102910D01*
X142977354Y-67079214D01*
X143293166Y-66995014D01*
X143578832Y-66789574D01*
X143756688Y-66472419D01*
X143813947Y-66071992D01*
X143797210Y-65873862D01*
X143708919Y-65546260D01*
X143539270Y-65128002D01*
X143310594Y-64662307D01*
X143045218Y-64192394D01*
X142765474Y-63761482D01*
X142575449Y-63509122D01*
X142220102Y-63130175D01*
X141802422Y-62774242D01*
X141368409Y-62475043D01*
X140964063Y-62266298D01*
X140804611Y-62211015D01*
X140214717Y-62126673D01*
X139657505Y-62206818D01*
X139143722Y-62449052D01*
X138900091Y-62635803D01*
X138503759Y-63077743D01*
X138265251Y-63555052D01*
X138180468Y-64053552D01*
X127172970Y-64053552D01*
X127435663Y-63734263D01*
X127551859Y-63520633D01*
X127713624Y-62991448D01*
X127708362Y-62464965D01*
X127538211Y-61951404D01*
X127205312Y-61460984D01*
X127095837Y-61342090D01*
X126666584Y-61012203D01*
X126176371Y-60829133D01*
X125639969Y-60788244D01*
X125072151Y-60884900D01*
X124487689Y-61114465D01*
X123901357Y-61472302D01*
X123327926Y-61953776D01*
X122782168Y-62554251D01*
X122637696Y-62741241D01*
X122327473Y-63172221D01*
X122111841Y-63514758D01*
X121972087Y-63806252D01*
X121889499Y-64084099D01*
X121853542Y-64308352D01*
X121839675Y-64588296D01*
X118008203Y-64588296D01*
X118219598Y-63950756D01*
X118418354Y-63139210D01*
X118568309Y-62419967D01*
X119611258Y-61896068D01*
X121158107Y-61205897D01*
X122729940Y-60679129D01*
X124345036Y-60309966D01*
X124889162Y-60221955D01*
X126234639Y-60071285D01*
X127703224Y-59989308D01*
X129264207Y-59973908D01*
X130886877Y-60022967D01*
G36*
X130886877Y-60022967D02*
G01*
X132540524Y-60134372D01*
X134194438Y-60306004D01*
X135817910Y-60535749D01*
X137380228Y-60821491D01*
X138850683Y-61161113D01*
X138969400Y-61192120D01*
X140237778Y-61557616D01*
X141462176Y-61977333D01*
X142685838Y-62468369D01*
X143952007Y-63047822D01*
X145023067Y-63585736D01*
X145525753Y-63846011D01*
X146019438Y-64100027D01*
X146468278Y-64329460D01*
X146836433Y-64515982D01*
X147076233Y-64635486D01*
X147647733Y-64915455D01*
X147647733Y-65371354D01*
X147684054Y-65802912D01*
X147783415Y-66331069D01*
X147931412Y-66901840D01*
X148113642Y-67461238D01*
X148315704Y-67955276D01*
X148363385Y-68053816D01*
X148728058Y-68719769D01*
X149107129Y-69278136D01*
X149541744Y-69788540D01*
X149609954Y-69860174D01*
X149829979Y-70100002D01*
X149953067Y-70280125D01*
X150006710Y-70455692D01*
X150018400Y-70679559D01*
X149942599Y-71500879D01*
X149716600Y-72244682D01*
X149342505Y-72907464D01*
X148822417Y-73485721D01*
X148158439Y-73975947D01*
X147977407Y-74080389D01*
X147743234Y-74218284D01*
X147561742Y-74357727D01*
X147399708Y-74535275D01*
X147223909Y-74787483D01*
X147001121Y-75150907D01*
X146994692Y-75161683D01*
X146610162Y-75741537D01*
X146164046Y-76283626D01*
X145631463Y-76812915D01*
X144987536Y-77354369D01*
X144295050Y-77870709D01*
X143404752Y-78486992D01*
X142604553Y-78997243D01*
X141865426Y-79415776D01*
X141158346Y-79756904D01*
X140454287Y-80034942D01*
X139724223Y-80264204D01*
X139138733Y-80413551D01*
X137938078Y-80626006D01*
X136657039Y-80726307D01*
X135344370Y-80711829D01*
X134642919Y-80655716D01*
X134284621Y-80610897D01*
X133821010Y-80542694D01*
X133312900Y-80460504D01*
X132837196Y-80376702D01*
X132370040Y-80293092D01*
X132034000Y-80241884D01*
X131794448Y-80220812D01*
X131616753Y-80227609D01*
X131466284Y-80260011D01*
X131397698Y-80282528D01*
X130815805Y-80437388D01*
X130111628Y-80532202D01*
X129271833Y-80568225D01*
X128493372Y-80555555D01*
X127513588Y-80488067D01*
X126594574Y-80354944D01*
X125698817Y-80145872D01*
X124788800Y-79850538D01*
X123827009Y-79458629D01*
X122882733Y-79013132D01*
X121589821Y-78301606D01*
X121360669Y-78145393D01*
X130441083Y-78145393D01*
X130696096Y-78400407D01*
X131075824Y-78665106D01*
X131545238Y-78808259D01*
X132073446Y-78827207D01*
X132629553Y-78719289D01*
X132958067Y-78595110D01*
X133243848Y-78450382D01*
X133497602Y-78295482D01*
X133593067Y-78224026D01*
X133804733Y-78043749D01*
X133296733Y-78218612D01*
X132682311Y-78375913D01*
X132043463Y-78444503D01*
X131435870Y-78422126D01*
X130937575Y-78314298D01*
X130441083Y-78145393D01*
X121360669Y-78145393D01*
X120444749Y-77521012D01*
X119436270Y-76660293D01*
X118553139Y-75708394D01*
X117784110Y-74654261D01*
X117117936Y-73486836D01*
X116984668Y-73214967D01*
X116862783Y-72960967D01*
X128304222Y-72960967D01*
X128384386Y-73468357D01*
X128612687Y-73935674D01*
X128970833Y-74354091D01*
X129440538Y-74714783D01*
X130003511Y-75008924D01*
X130641462Y-75227690D01*
X131336104Y-75362255D01*
X132069147Y-75403794D01*
X132822301Y-75343481D01*
X133127400Y-75288375D01*
X133834781Y-75083555D01*
X134453086Y-74793228D01*
X134966892Y-74431143D01*
X135360771Y-74011046D01*
X135619300Y-73546687D01*
X135727053Y-73051812D01*
X135729272Y-72969412D01*
X135648415Y-72432896D01*
X135410672Y-71944829D01*
X135023286Y-71511998D01*
X134493500Y-71141190D01*
X133828557Y-70839194D01*
X133275071Y-70669426D01*
X132535378Y-70537589D01*
X131800078Y-70512655D01*
X131087813Y-70586032D01*
X130417223Y-70749127D01*
X129806949Y-70993345D01*
X129275632Y-71310094D01*
X128841913Y-71690781D01*
X128524434Y-72126811D01*
X128341834Y-72609591D01*
X128304222Y-72960967D01*
X116862783Y-72960967D01*
X116782824Y-72794341D01*
X116590553Y-72398229D01*
X116427718Y-72067256D01*
X116314181Y-71842046D01*
X116301615Y-71817967D01*
X116069245Y-71369588D01*
X115904720Y-71029520D01*
X115792698Y-70758581D01*
X115717841Y-70517587D01*
X115664807Y-70267357D01*
X115643173Y-70136159D01*
X115603425Y-69353332D01*
X115687793Y-68730582D01*
X137583259Y-68730582D01*
X137707367Y-68732731D01*
X137889900Y-68656294D01*
X138557036Y-68379693D01*
X139187411Y-68245357D01*
X139685508Y-68233812D01*
X139997608Y-68261910D01*
X140249438Y-68319606D01*
X140503739Y-68428563D01*
X140823253Y-68610447D01*
X140884933Y-68647954D01*
X141222602Y-68842066D01*
X141433823Y-68928067D01*
X141526285Y-68901199D01*
X141507674Y-68756701D01*
X141385680Y-68489814D01*
X141324866Y-68375582D01*
X140979272Y-67902899D01*
X140530616Y-67564344D01*
X140020226Y-67371166D01*
X139436633Y-67310633D01*
X138888329Y-67413413D01*
X138384344Y-67675532D01*
X137933704Y-68093017D01*
X137712384Y-68386639D01*
X137584872Y-68615127D01*
X137583259Y-68730582D01*
X115687793Y-68730582D01*
X115716625Y-68517764D01*
X115980669Y-67644773D01*
X115988301Y-67624891D01*
X116054200Y-67468376D01*
X122332400Y-67468376D01*
X122403166Y-67468159D01*
X122591202Y-67408837D01*
X122860119Y-67302447D01*
X122946233Y-67265301D01*
X123291742Y-67124595D01*
X123580443Y-67042626D01*
X123887654Y-67004145D01*
X124286705Y-66993907D01*
X124641068Y-66996388D01*
X124890624Y-67017898D01*
X125096505Y-67076118D01*
X125319839Y-67188727D01*
X125621757Y-67373405D01*
X125641372Y-67385701D01*
X125983999Y-67597552D01*
X126206201Y-67723480D01*
X126329351Y-67770114D01*
X126374827Y-67744085D01*
X126364002Y-67652022D01*
X126350980Y-67605800D01*
X126196137Y-67246081D01*
X125961307Y-66875500D01*
X125695883Y-66567535D01*
X125593996Y-66479698D01*
X125101541Y-66203288D01*
X124568418Y-66075166D01*
X124025201Y-66090004D01*
X123502467Y-66242473D01*
X123030791Y-66527245D01*
X122640750Y-66938991D01*
X122597409Y-67001907D01*
X122452499Y-67231558D01*
X122356241Y-67404944D01*
X122332400Y-67468376D01*
X116054200Y-67468376D01*
X116146856Y-67248316D01*
X116285797Y-67004526D01*
X116424829Y-66861599D01*
X116480264Y-66827874D01*
X116887059Y-66531285D01*
X117272096Y-66080612D01*
X117627669Y-65490522D01*
X117946071Y-64775681D01*
X118008203Y-64588296D01*
X121839675Y-64588296D01*
X121891616Y-64786636D01*
X121999056Y-64948768D01*
X122186310Y-65149418D01*
X122397475Y-65285454D01*
X122666490Y-65366028D01*
X123027292Y-65400291D01*
X123513818Y-65397394D01*
X123644733Y-65392530D01*
X124090565Y-65363088D01*
X124534567Y-65314875D01*
X124912626Y-65255692D01*
X125084067Y-65217376D01*
X125862677Y-64951687D01*
X126522854Y-64609951D01*
X127051536Y-64201150D01*
X127172970Y-64053552D01*
X138180468Y-64053552D01*
X138245311Y-64559066D01*
X138455683Y-65057415D01*
X138807484Y-65534421D01*
X139296616Y-65975906D01*
X139918981Y-66367692D01*
X139989419Y-66404115D01*
X140625778Y-66686501D01*
X141274479Y-66900879D01*
X141903795Y-67041573D01*
X142481996Y-67102910D01*
X142977354Y-67079214D01*
X143293166Y-66995014D01*
X143578832Y-66789574D01*
X143756688Y-66472419D01*
X143813947Y-66071992D01*
X143797210Y-65873862D01*
X143708919Y-65546260D01*
X143539270Y-65128002D01*
X143310594Y-64662307D01*
X143045218Y-64192394D01*
X142765474Y-63761482D01*
X142575449Y-63509122D01*
X142220102Y-63130175D01*
X141802422Y-62774242D01*
X141368409Y-62475043D01*
X140964063Y-62266298D01*
X140804611Y-62211015D01*
X140214717Y-62126673D01*
X139657505Y-62206818D01*
X139143722Y-62449052D01*
X138900091Y-62635803D01*
X138503759Y-63077743D01*
X138265251Y-63555052D01*
X138180468Y-64053552D01*
X127172970Y-64053552D01*
X127435663Y-63734263D01*
X127551859Y-63520633D01*
X127713624Y-62991448D01*
X127708362Y-62464965D01*
X127538211Y-61951404D01*
X127205312Y-61460984D01*
X127095837Y-61342090D01*
X126666584Y-61012203D01*
X126176371Y-60829133D01*
X125639969Y-60788244D01*
X125072151Y-60884900D01*
X124487689Y-61114465D01*
X123901357Y-61472302D01*
X123327926Y-61953776D01*
X122782168Y-62554251D01*
X122637696Y-62741241D01*
X122327473Y-63172221D01*
X122111841Y-63514758D01*
X121972087Y-63806252D01*
X121889499Y-64084099D01*
X121853542Y-64308352D01*
X121839675Y-64588296D01*
X118008203Y-64588296D01*
X118219598Y-63950756D01*
X118418354Y-63139210D01*
X118568309Y-62419967D01*
X119611258Y-61896068D01*
X121158107Y-61205897D01*
X122729940Y-60679129D01*
X124345036Y-60309966D01*
X124889162Y-60221955D01*
X126234639Y-60071285D01*
X127703224Y-59989308D01*
X129264207Y-59973908D01*
X130886877Y-60022967D01*
G37*
%TD*%
D12*
%TO.C,R3*%
X135760000Y-103250000D03*
X125600000Y-103250000D03*
%TD*%
%TO.C,R6*%
X135760000Y-91100000D03*
X125600000Y-91100000D03*
%TD*%
%TO.C,R5*%
X135760000Y-95150000D03*
X125600000Y-95150000D03*
%TD*%
%TO.C,C1*%
X157800000Y-99000000D03*
D13*
X155300000Y-99000000D03*
%TD*%
D14*
%TO.C,D3*%
X152020000Y-86400000D03*
D13*
X144400000Y-86400000D03*
%TD*%
D12*
%TO.C,R8*%
X135760000Y-83000000D03*
X125600000Y-83000000D03*
%TD*%
%TO.C,R4*%
X135760000Y-99200000D03*
X125600000Y-99200000D03*
%TD*%
%TO.C,U1*%
X132830000Y-127840000D03*
X132830000Y-125300000D03*
X132830000Y-122760000D03*
X132830000Y-120220000D03*
X125210000Y-120220000D03*
X125210000Y-122760000D03*
X125210000Y-125300000D03*
D15*
X125210000Y-127840000D03*
%TD*%
D12*
%TO.C,R7*%
X135760000Y-87050000D03*
X125600000Y-87050000D03*
%TD*%
D16*
%TO.C,S1*%
X176280000Y-56400000D03*
X173740000Y-56400000D03*
X171200000Y-56400000D03*
%TD*%
D17*
%TO.C,D1*%
X138200000Y-70600000D03*
D18*
X140740000Y-70600000D03*
%TD*%
D17*
%TO.C,D2*%
X122800000Y-69400000D03*
D18*
X125340000Y-69400000D03*
%TD*%
D19*
%TO.C,U2*%
X125646000Y-50924000D03*
X125646000Y-47368000D03*
X151540000Y-50924000D03*
X151540000Y-47368000D03*
D20*
X138600000Y-49400000D03*
%TD*%
D21*
%TO.C,T2*%
X103460000Y-102482385D03*
D22*
X106000000Y-99942385D03*
X108540000Y-102482385D03*
%TD*%
D21*
%TO.C,T1*%
X103460000Y-96540000D03*
D22*
X106000000Y-94000000D03*
X108540000Y-96540000D03*
%TD*%
M02*
