<?xml version="1.0" encoding="UTF-8" standalone="no"?>
<!-- Created with Inkscape (http://www.inkscape.org/) -->

<svg
   width="170.0mm"
   height="170.0mm"
   viewBox="0 0 170.0 170.0"
   version="1.1"
   id="svg1"
   inkscape:version="1.4.2 (f4327f4, 2025-05-13)"
   sodipodi:docname="Santa.svg"
   xmlns:inkscape="http://www.inkscape.org/namespaces/inkscape"
   xmlns:sodipodi="http://sodipodi.sourceforge.net/DTD/sodipodi-0.dtd"
   xmlns="http://www.w3.org/2000/svg"
   xmlns:svg="http://www.w3.org/2000/svg">
  <sodipodi:namedview
     id="namedview1"
     pagecolor="#ffffff"
     bordercolor="#666666"
     borderopacity="1.0"
     inkscape:showpageshadow="2"
     inkscape:pageopacity="0.0"
     inkscape:pagecheckerboard="0"
     inkscape:deskcolor="#d1d1d1"
     inkscape:document-units="mm"
     inkscape:zoom="1.4378367"
     inkscape:cx="314.01341"
     inkscape:cy="345.31042"
     inkscape:window-width="1920"
     inkscape:window-height="1009"
     inkscape:window-x="-8"
     inkscape:window-y="-8"
     inkscape:window-maximized="1"
     inkscape:current-layer="g7"
     borderlayer="true"
     showgrid="false"
     showguides="true">
    <inkscape:grid
       spacingx="2.54"
       spacingy="2.54"
       empspacing="1"
       type="xygrid"
       units="mm"
       id="grid1"
       visible="false"
       originx="0"
       originy="0" />
  </sodipodi:namedview>
  <defs
     id="defs1" />
  <g
     inkscape:label="Ebene 1"
     inkscape:groupmode="layer"
     id="layer1" />
  <g
     inkscape:label="[fixed] BG"
     inkscape:groupmode="layer"
     sodipodi:insensitive="true"
     id="g1">
    <rect
       x="0"
       y="0"
       width="170.0"
       height="170.0"
       style="fill:#FFFFFF;fill-opacity:1;stroke:none"
       id="rect1" />
  </g>
  <g
     inkscape:label="Edge.Cuts"
     inkscape:groupmode="layer"
     id="g2"
     style="display:inline;fill:none">
    <path
       id="path98-1-6"
       style="clip-rule:evenodd;display:inline;opacity:1;fill:none;fill-opacity:1;fill-rule:nonzero;stroke:#000000;stroke-width:0.165485;stroke-miterlimit:10;stroke-dasharray:none;stroke-opacity:1;image-rendering:optimizeQuality;shape-rendering:geometricPrecision;text-rendering:geometricPrecision"
       class="fil0 str0"
       d="M 101.007 136.987 L 101.881 136.627 L 102.748 136.226 L 103.604 135.784 L 104.443 135.301 L 105.261 134.776 L 106.052 134.21 L 106.811 133.602 L 107.533 132.953 L 107.878 132.613 L 108.213 132.262 L 108.535 131.901 L 108.845 131.53 L 109.142 131.148 L 109.425 130.755 L 109.694 130.353 L 109.948 129.94 L 110.186 129.516 L 110.407 129.082 L 110.612 128.637 L 110.799 128.182 L 110.968 127.716 L 111.117 127.24 L 111.248 126.754 L 111.358 126.257 L 111.328 125.981 L 111.321 125.721 L 111.335 125.475 L 111.368 125.242 L 111.422 125.021 L 111.493 124.811 L 111.582 124.61 L 111.686 124.417 L 111.807 124.231 L 111.941 124.051 L 112.249 123.704 L 112.602 123.365 L 112.994 123.025 L 113.233 122.688 L 113.455 122.342 L 113.66 121.986 L 113.846 121.622 L 114.015 121.249 L 114.165 120.87 L 114.298 120.484 L 114.413 120.093 L 114.511 119.697 L 114.59 119.296 L 114.651 118.892 L 114.695 118.486 L 114.72 118.078 L 114.728 117.668 L 114.718 117.259 L 114.689 116.849 L 114.643 116.441 L 114.579 116.034 L 114.497 115.63 L 114.397 115.23 L 114.279 114.833 L 114.142 114.442 L 113.988 114.056 L 113.816 113.676 L 113.626 113.303 L 113.418 112.939 L 113.191 112.582 L 112.947 112.236 L 112.684 111.899 L 112.404 111.573 L 112.105 111.258 L 111.788 110.956 L 111.766 110.67 L 111.729 110.383 L 111.635 109.816 L 111.553 109.275 L 111.53 109.02 L 111.528 108.778 L 111.552 108.551 L 111.608 108.343 L 111.703 108.155 L 111.841 107.989 L 112.029 107.849 L 112.272 107.735 L 112.577 107.652 L 112.949 107.6 L 113.338 107.421 L 113.71 107.224 L 114.067 107.009 L 114.408 106.777 L 114.734 106.529 L 115.044 106.266 L 115.338 105.988 L 115.617 105.697 L 115.88 105.392 L 116.128 105.076 L 116.361 104.747 L 116.578 104.408 L 116.78 104.058 L 116.967 103.7 L 117.139 103.332 L 117.296 102.957 L 117.438 102.575 L 117.565 102.186 L 117.677 101.792 L 117.775 101.393 L 117.858 100.99 L 117.926 100.583 L 118.019 99.7631 L 118.054 98.9384 L 118.031 98.1152 L 117.952 97.2994 L 117.817 96.4971 L 117.761 95.9988 L 117.688 95.5055 L 117.599 95.0171 L 117.495 94.5339 L 117.376 94.0557 L 117.243 93.5827 L 116.933 92.6526 L 116.57 91.7438 L 116.156 90.857 L 115.695 89.9925 L 115.19 89.1508 L 114.644 88.3323 L 114.061 87.5376 L 113.443 86.7672 L 112.794 86.0213 L 112.117 85.3006 L 111.415 84.6056 L 110.692 83.9365 L 109.951 83.294 L 110.164 82.9842 L 110.354 82.664 L 110.521 82.3345 L 110.666 81.9966 L 110.789 81.6515 L 110.891 81.3003 L 110.971 80.9439 L 111.03 80.5835 L 111.068 80.2201 L 111.086 79.8547 L 111.084 79.4885 L 111.062 79.1225 L 111.02 78.7578 L 110.96 78.3954 L 110.881 78.0363 L 110.783 77.6818 L 110.667 77.3327 L 110.533 76.9902 L 110.382 76.6553 L 110.213 76.3291 L 110.028 76.0127 L 109.826 75.7071 L 109.608 75.4133 L 109.374 75.1326 L 109.124 74.8658 L 108.859 74.6141 L 108.579 74.3785 L 108.284 74.1601 L 107.975 73.9599 L 107.652 73.7791 L 107.315 73.6186 L 106.965 73.4796 L 107.145 73.1919 L 107.304 72.8922 L 107.441 72.5821 L 107.556 72.2633 L 107.649 71.9374 L 107.719 71.6063 L 107.767 71.2715 L 107.79 70.9348 L 107.789 70.5978 L 107.764 70.2622 L 107.714 69.9297 L 107.639 69.602 L 107.538 69.2808 L 107.41 68.9677 L 107.256 68.6645 L 107.075 68.3728 L 107.933 68.5208 L 108.799 68.613 L 109.668 68.6506 L 110.539 68.6349 L 111.408 68.5671 L 112.272 68.4485 L 113.13 68.2803 L 113.977 68.0638 L 114.811 67.8003 L 115.63 67.491 L 116.43 67.1372 L 117.208 66.7401 L 117.963 66.3011 L 118.69 65.8213 L 119.387 65.302 L 120.051 64.7445 L 120.478 64.9033 L 120.909 65.028 L 121.343 65.1193 L 121.777 65.1783 L 122.212 65.206 L 122.646 65.2033 L 123.078 65.1713 L 123.505 65.1107 L 123.928 65.0228 L 124.345 64.9083 L 124.754 64.7683 L 125.155 64.6038 L 125.546 64.4156 L 125.926 64.2049 L 126.294 63.9725 L 126.648 63.7194 L 126.987 63.4466 L 127.311 63.155 L 127.617 62.8457 L 127.904 62.5196 L 128.172 62.1776 L 128.419 61.8207 L 128.644 61.45 L 128.845 61.0663 L 129.022 60.6706 L 129.173 60.264 L 129.296 59.8473 L 129.392 59.4216 L 129.457 58.9878 L 129.492 58.5468 L 129.495 58.0997 L 129.464 57.6474 L 129.441 57.1999 L 129.386 56.7613 L 129.301 56.3323 L 129.186 55.9139 L 129.044 55.5068 L 128.875 55.1117 L 128.68 54.7296 L 128.462 54.3611 L 128.221 54.007 L 127.959 53.6682 L 127.676 53.3455 L 127.375 53.0396 L 127.056 52.7514 L 126.721 52.4816 L 126.371 52.231 L 126.008 52.0004 L 125.632 51.7907 L 125.245 51.6025 L 124.849 51.4368 L 124.444 51.2942 L 124.033 51.1756 L 123.615 51.0818 L 123.193 51.0136 L 122.768 50.9718 L 122.341 50.9571 L 121.914 50.9704 L 121.487 51.0124 L 121.062 51.084 L 120.641 51.1859 L 120.224 51.3189 L 119.813 51.4838 L 119.41 51.6815 L 119.026 51.883 L 118.656 52.1085 L 118.302 52.3567 L 117.964 52.6265 L 117.643 52.9165 L 117.34 53.2254 L 117.056 53.552 L 116.793 53.895 L 116.55 54.253 L 116.329 54.6248 L 116.13 55.0092 L 115.955 55.4048 L 115.805 55.8104 L 115.68 56.2247 L 115.581 56.6463 L 115.51 57.0741 L 115.133 56.8446 L 114.774 56.5993 L 114.432 56.3394 L 114.104 56.0655 L 113.791 55.7788 L 113.491 55.48 L 113.203 55.1702 L 112.926 54.8502 L 112.402 54.1835 L 111.91 53.4871 L 111.442 52.7686 L 110.989 52.0352 L 110.096 50.5533 L 109.64 49.8196 L 109.165 49.1004 L 108.664 48.4033 L 108.129 47.7355 L 107.846 47.415 L 107.551 47.1045 L 107.243 46.805 L 106.921 46.5175 L 106.111 45.7442 L 105.269 45.0064 L 104.396 44.3045 L 103.493 43.6391 L 102.564 43.0106 L 101.61 42.4195 L 100.632 41.8663 L 99.6316 41.3513 L 98.6115 40.8751 L 97.5732 40.4381 L 96.5184 40.0409 L 95.4488 39.6838 L 94.3662 39.3673 L 93.2725 39.0919 L 92.1693 38.8581 L 91.0585 38.6664 L 89.9418 38.5171 L 88.821 38.4107 L 87.6979 38.3478 L 86.5742 38.3288 L 85.4517 38.3541 L 84.3322 38.4243 L 83.2174 38.5397 L 82.1091 38.7009 L 81.0092 38.9083 L 79.9193 39.1623 L 78.8412 39.4636 L 77.7768 39.8124 L 76.7277 40.2093 L 75.6958 40.6547 L 74.6828 41.1491 L 73.6905 41.693 L 72.9885 42.1273 L 72.3106 42.5965 L 71.658 43.0992 L 71.0317 43.6337 L 70.4331 44.1986 L 69.8632 44.7923 L 69.3232 45.4132 L 68.8144 46.0598 L 68.3378 46.7306 L 67.8947 47.4239 L 67.4862 48.1382 L 67.1135 48.872 L 66.7778 49.6238 L 66.4802 50.3919 L 66.2219 51.1748 L 66.0042 51.971 L 65.7184 52.1722 L 65.442 52.3852 L 64.9186 52.8442 L 64.4359 53.3442 L 63.9958 53.8811 L 63.6004 54.4509 L 63.2516 55.0497 L 62.9515 55.6734 L 62.7019 56.318 L 62.5048 56.9796 L 62.3623 57.6542 L 62.2763 58.3378 L 62.2488 59.0263 L 62.2575 59.3712 L 62.2817 59.7159 L 62.3214 60.0598 L 62.377 60.4024 L 62.4487 60.7433 L 62.5368 61.082 L 62.6414 61.4179 L 62.7629 61.7506 L 62.4464 61.7154 L 62.1381 61.7069 L 61.8386 61.724 L 61.5481 61.7655 L 61.267 61.8304 L 60.9958 61.9175 L 60.7349 62.0257 L 60.4846 62.1538 L 60.2455 62.3008 L 60.0177 62.4654 L 59.8018 62.6465 L 59.5982 62.8431 L 59.4073 63.0539 L 59.2294 63.2779 L 59.0649 63.5139 L 58.9144 63.7608 L 58.778 64.0174 L 58.6563 64.2827 L 58.5497 64.5554 L 58.4585 64.8345 L 58.3832 65.1188 L 58.3242 65.4073 L 58.2817 65.6987 L 58.2564 65.9919 L 58.2484 66.2858 L 58.2584 66.5793 L 58.2865 66.8712 L 58.3333 67.1604 L 58.3992 67.4458 L 58.4845 67.7262 L 58.5896 68.0006 L 58.715 68.2677 L 58.702 68.4223 L 58.6365 68.5537 L 58.5251 68.6658 L 58.3743 68.7623 L 58.1907 68.8472 L 57.9808 68.9241 L 57.5082 69.0697 L 57.0089 69.2297 L 56.7655 69.3247 L 56.5351 69.4347 L 56.3241 69.5637 L 56.1392 69.7154 L 55.9867 69.8936 L 55.8734 70.1022 L 55.6334 70.5644 L 55.3855 70.9779 L 55.1195 71.3439 L 54.8256 71.664 L 54.665 71.8073 L 54.4936 71.9397 L 54.3102 72.0612 L 54.1135 72.1722 L 53.9023 72.2728 L 53.6754 72.3631 L 53.1691 72.5138 L 52.8965 72.6981 L 52.6431 72.8973 L 52.4083 73.1105 L 52.192 73.3368 L 51.9937 73.5754 L 51.8131 73.8254 L 51.6499 74.0861 L 51.5038 74.3565 L 51.3744 74.6359 L 51.2614 74.9234 L 51.1644 75.2181 L 51.0832 75.5191 L 51.0173 75.8258 L 50.9665 76.1372 L 50.9087 76.7706 L 50.907 77.4129 L 50.9588 78.0571 L 51.0614 78.6965 L 51.2122 79.3244 L 51.4083 79.9341 L 51.6472 80.5188 L 51.9262 81.0717 L 52.2426 81.5862 L 52.544 81.797 L 52.7538 82.0021 L 52.8269 82.1027 L 52.8804 82.202 L 52.9152 82.3 L 52.9325 82.3969 L 52.9333 82.4927 L 52.9188 82.5873 L 52.8478 82.7735 L 52.7281 82.9558 L 52.5685 83.1347 L 52.3774 83.3104 L 52.1635 83.4834 L 51.7019 83.8226 L 51.2524 84.155 L 51.0538 84.3196 L 50.8841 84.4836 L 50.4359 84.8726 L 50.0023 85.2772 L 49.5837 85.6967 L 49.1802 86.1305 L 48.7924 86.5779 L 48.4205 87.0384 L 48.0649 87.5113 L 47.7258 87.996 L 47.4037 88.4919 L 47.0989 88.9982 L 46.8117 89.5145 L 46.5424 90.04 L 46.2914 90.5741 L 46.0591 91.1163 L 45.8457 91.6658 L 45.6515 92.222 L 45.4771 92.7844 L 45.3226 93.3522 L 45.1884 93.9249 L 45.0748 94.5018 L 44.9823 95.0823 L 44.911 95.6657 L 44.8614 96.2515 L 44.8338 96.8389 L 44.8285 97.4275 L 44.8459 98.0164 L 44.8863 98.6052 L 44.95 99.1931 L 45.0374 99.7796 L 45.1488 100.364 L 45.2846 100.946 L 45.445 101.524 L 45.6674 102.244 L 45.9406 102.949 L 46.2653 103.632 L 46.447 103.964 L 46.6419 104.287 L 46.8498 104.602 L 47.071 104.907 L 47.3055 105.202 L 47.5533 105.485 L 47.8145 105.757 L 48.0892 106.015 L 48.3774 106.26 L 48.6793 106.49 L 48.1737 107.46 L 47.6985 108.459 L 47.2672 109.482 L 47.0722 110.001 L 46.8931 110.524 L 46.7317 111.051 L 46.5895 111.581 L 46.4683 112.114 L 46.3697 112.649 L 46.2954 113.185 L 46.2471 113.722 L 46.2264 114.259 L 46.2349 114.796 L 45.8737 115.307 L 45.539 115.852 L 45.235 116.424 L 44.9658 117.019 L 44.7356 117.631 L 44.5484 118.257 L 44.4085 118.891 L 44.3199 119.529 L 44.2867 120.165 L 44.2923 120.481 L 44.3132 120.794 L 44.3501 121.105 L 44.4034 121.413 L 44.4736 121.717 L 44.5614 122.016 L 44.6671 122.31 L 44.7914 122.598 L 44.9347 122.879 L 45.0975 123.154 L 45.2804 123.421 L 45.4838 123.68 L 45.7084 123.929 L 45.9545 124.17 L 46.2255 124.366 L 46.4497 124.588 L 46.6326 124.832 L 46.7799 125.096 L 46.8971 125.377 L 46.9897 125.672 L 47.0634 125.98 L 47.1237 126.295 L 47.2264 126.942 L 47.3424 127.591 L 47.4193 127.909 L 47.5162 128.219 L 47.6387 128.518 L 47.7924 128.804 L 48.0739 129.467 L 48.3923 130.112 L 48.7454 130.737 L 49.1309 131.342 L 49.5467 131.928 L 49.9904 132.494 L 50.4598 133.04 L 50.9526 133.565 L 51.4668 134.07 L 51.9999 134.554 L 52.5498 135.017 L 53.1142 135.458 L 53.6909 135.879 L 54.2776 136.277 L 54.8721 136.654 L 55.4722 137.009 L 59.2859 143.154 L 61.6596 143.231 L 64.0581 143.291 L 68.9179 143.365 L 73.8422 143.391 L 78.8078 143.384 L 88.7698 143.329 L 93.7198 143.31 L 98.6181 143.317 L 101.007 136.987"
       sodipodi:nodetypes="ccccccccccccccccccccccccccccccc" />
  </g>
  <g
     inkscape:label="B.Cu"
     inkscape:groupmode="layer"
     id="g3" />
  <g
     inkscape:label="B.Mask"
     inkscape:groupmode="layer"
     id="g4"
     style="display:inline">
    <path
       id="path1-6-0-6-3-0"
       style="clip-rule:evenodd;display:inline;fill:#ebe804;fill-opacity:1;fill-rule:nonzero;stroke:#000000;stroke-width:0.16261;stroke-miterlimit:10;stroke-dasharray:none;stroke-opacity:1;image-rendering:optimizeQuality;shape-rendering:geometricPrecision;text-rendering:geometricPrecision"
       d="m 76.008445,59.292624 c -4.49251,0.250704 -6.60708,1.462441 -8.38347,2.380734 0,0 -0.47592,3.724234 -2.27842,4.520654 0,0 -1.55008,2.587569 0,4.650879 0.36568,0.486804 1.18551,4.431877 6.08077,7.026444 5.6764,3.008577 9.24956,1.341004 9.24956,1.341004 1.74209,0.319602 6.56131,1.665712 11.11354,-1.32085 3.74019,-2.453811 3.58302,-2.924106 4.4974,-4.373893 0.26772,-0.424476 2.76007,-0.785901 2.53783,-4.066935 -2.44043,-2.107401 -2.389,-5.297351 -2.389,-5.297351 -0.12769,-0.05945 -0.25529,-0.121584 -0.37724,-0.178284 -2.60079,-1.22158 -5.86356,-3.82635 -14.69058,-4.56613 -2.10152,-0.176427 -3.86289,-0.199839 -5.36039,-0.116272 z m -1.42007,0.52865 c 0.12479,-0.0035 0.25111,0.0025 0.37879,0.01964 1.31549,0.17635 1.70828,1.338089 1.75028,1.475879 0.20061,0.4438 0.15356,1.016164 -0.12661,1.534274 -0.33784,0.62465 -1.15015,1.440639 -3.1011,1.777669 -0.44439,0.07685 -0.83764,0.11472 -1.17926,0.114721 -0.7085,-3e-6 -1.19386,-0.164487 -1.44901,-0.492993 -0.3797,-0.48919 -0.13604,-1.173194 0.04341,-1.537374 0.29359,-0.596006 1.81168,-2.839467 3.6835,-2.891813 z m 14.55621,1.35754 h 0.0036 c 2.0603,0.0031 3.39849,2.718521 3.61942,3.390491 0.12655,0.3846 0.27185,1.094205 -0.17312,1.527555 -0.22552,0.21965 -0.56726,0.329696 -1.02267,0.329696 -0.44004,0 -0.98557,-0.102328 -1.63401,-0.306958 h -5.2e-4 c -1.88496,-0.59548 -2.57477,-1.512788 -2.82153,-2.177128 -0.20465,-0.55041 -0.17029,-1.123951 0.09095,-1.536341 0.06089,-0.13063 0.61282,-1.227315 1.93786,-1.227315 z m -15.90032,3.915523 c 1.06137,-0.02222 2.12076,0.714015 2.26343,2.162659 -0.44736,-0.26505 -0.81192,-0.535703 -1.17099,-0.724503 -1.14016,-0.6992 -2.14992,-0.08216 -3.27732,0.423746 0.31037,-1.232226 1.24838,-1.842294 2.18488,-1.861902 z m 15.21096,1.257805 c 1.06137,-0.02222 2.12076,0.714014 2.26343,2.162658 -0.44736,-0.26505 -0.81192,-0.535703 -1.17099,-0.724503 -1.14016,-0.6992 -2.14992,-0.08216 -3.27732,0.423747 0.31037,-1.232227 1.24838,-1.842294 2.18488,-1.861902 z m -7.48688,3.200838 a 3.8643124,2.5762081 0 0 1 3.86436,2.57607 3.8643124,2.5762081 0 0 1 -3.86436,2.57607 3.8643124,2.5762081 0 0 1 -3.86436,-2.57607 3.8643124,2.5762081 0 0 1 3.86436,-2.57607 z m -2.08928,7.188708 c 1.3554,1.409633 3.49308,0.562284 4.06642,0.195337 l -0.01809,0.157614 c -0.19021,0.640525 -1.94336,1.447525 -3.03185,0.827856 -0.61745,-0.328018 -0.79943,-0.842774 -1.01648,-1.180807 z" />
  </g>
  <g
     inkscape:label="B.SilkS"
     inkscape:groupmode="layer"
     id="g5" />
  <g
     inkscape:label="F.Cu"
     inkscape:groupmode="layer"
     id="g6" />
  <g
     inkscape:label="F.Mask"
     inkscape:groupmode="layer"
     id="g7"
     style="display:inline">
    <path
       id="path1-6-0-6-3"
       style="clip-rule:evenodd;display:inline;fill:#f3d77b;fill-opacity:1;fill-rule:nonzero;stroke:#000000;stroke-width:0.16261;stroke-miterlimit:10;stroke-dasharray:none;stroke-opacity:1;image-rendering:optimizeQuality;shape-rendering:geometricPrecision;text-rendering:geometricPrecision"
       d="m 75.982479,59.271328 c -4.49251,0.250704 -6.60708,1.462441 -8.38347,2.380734 0,0 -0.47592,3.724234 -2.27842,4.520654 0,0 -1.55008,2.587569 0,4.650879 0.36568,0.486804 1.18551,4.431878 6.08077,7.026445 5.6764,3.008577 9.24956,1.341003 9.24956,1.341003 1.74209,0.319602 6.56131,1.665713 11.11354,-1.320849 3.74019,-2.453811 3.58302,-2.924107 4.4974,-4.373894 0.267721,-0.424476 2.760071,-0.785901 2.537831,-4.066935 -2.440431,-2.107401 -2.389001,-5.297351 -2.389001,-5.297351 -0.12769,-0.05945 -0.25529,-0.121584 -0.37724,-0.178284 -2.60079,-1.22158 -5.86356,-3.82635 -14.69058,-4.56613 -2.10152,-0.176427 -3.86289,-0.199839 -5.36039,-0.116272 z m -1.42007,0.52865 c 0.12479,-0.0035 0.25111,0.0025 0.37879,0.01964 1.31549,0.17635 1.70828,1.338089 1.75028,1.475879 0.20061,0.4438 0.15356,1.016164 -0.12661,1.534274 -0.33784,0.62465 -1.15015,1.440639 -3.1011,1.777669 -0.44439,0.07685 -0.83764,0.11472 -1.17926,0.114721 -0.7085,-3e-6 -1.19386,-0.164487 -1.44901,-0.492993 -0.3797,-0.48919 -0.13604,-1.173194 0.04341,-1.537374 0.29359,-0.596006 1.81168,-2.839467 3.6835,-2.891813 z m 14.55621,1.35754 h 0.0036 c 2.0603,0.0031 3.39849,2.718521 3.61942,3.390491 0.12655,0.3846 0.27185,1.094205 -0.17312,1.527555 -0.22552,0.21965 -0.56726,0.329696 -1.02267,0.329696 -0.44004,0 -0.98557,-0.102328 -1.63401,-0.306958 h -5.2e-4 c -1.88496,-0.59548 -2.57477,-1.512788 -2.82153,-2.177128 -0.20465,-0.55041 -0.17029,-1.123951 0.09095,-1.536341 0.06089,-0.13063 0.61282,-1.227315 1.93786,-1.227315 z m -15.90032,3.915523 c 1.06137,-0.02222 2.12076,0.714015 2.26343,2.162659 -0.44736,-0.26505 -0.81192,-0.535703 -1.17099,-0.724503 -1.14016,-0.6992 -2.14992,-0.08216 -3.27732,0.423746 0.31037,-1.232226 1.24838,-1.842294 2.18488,-1.861902 z m 15.21096,1.257805 c 1.06137,-0.02222 2.12076,0.714014 2.26343,2.162658 -0.44736,-0.26505 -0.81192,-0.535703 -1.17099,-0.724503 -1.14016,-0.6992 -2.14992,-0.08216 -3.27732,0.423747 0.31037,-1.232227 1.24838,-1.842294 2.18488,-1.861902 z m -7.48688,3.200838 a 3.8643124,2.5762081 0 0 1 3.86436,2.576071 3.8643124,2.5762081 0 0 1 -3.86436,2.57607 3.8643124,2.5762081 0 0 1 -3.86436,-2.57607 3.8643124,2.5762081 0 0 1 3.86436,-2.576071 z m -2.08928,7.188709 c 1.3554,1.409632 3.49308,0.562283 4.06642,0.195337 l -0.01809,0.157613 c -0.19021,0.640525 -1.94336,1.447525 -3.03185,0.827856 -0.61745,-0.328017 -0.79943,-0.842774 -1.01648,-1.180806 z" />
  </g>
  <g
     inkscape:label="F.SilkS"
     inkscape:groupmode="layer"
     id="g8"
     style="display:inline">
    <path
       class="fil0 str0"
       d="m 111.90761,97.521019 c 0.18836,-4.293982 -4.38265,-5.901632 -4.38265,-5.901632 0,0 -0.26985,-0.1872 -0.68523,-0.42838 -1.08552,-0.63207 -3.17014,-1.63828 -3.9668,-0.61048 -0.80195,1.03464 0.93459,2.60833 0.93459,2.60833 0,0 -5.326222,0.28583 -5.926342,4.040252 -0.28301,1.76751 0.59895,3.079071 1.9259,4.048891 2.795572,2.04563 7.563302,2.56091 7.563302,2.56091 0,0 4.32672,-1.51225 4.53723,-6.317891 z"
       id="path135-3-1-8"
       style="clip-rule:evenodd;display:inline;fill:#24221c;fill-opacity:1;fill-rule:nonzero;stroke:#fffbfa;stroke-width:0.164556;stroke-miterlimit:10;stroke-dasharray:none;stroke-opacity:1;image-rendering:optimizeQuality;shape-rendering:geometricPrecision;text-rendering:geometricPrecision" />
    <path
       d="m 115.71248,92.508777 c -2.03888,-1.48588 -4.64795,1.605106 -3.93162,1.200946 0.57146,4.226932 1.50002,7.055847 -2.80519,9.972007 -0.96568,0.65412 -0.77497,2.7226 0.80679,4.09398 4.09057,-1.55971 6.14807,-4.90027 6.89662,-8.554361 0.51519,-2.51492 -0.63063,-5.211792 -0.9666,-6.712572 z"
       style="clip-rule:evenodd;display:inline;fill:#28220b;fill-opacity:1;fill-rule:nonzero;stroke:#fffbfa;stroke-width:0.157896;stroke-miterlimit:10;stroke-dasharray:none;stroke-opacity:1;image-rendering:optimizeQuality;shape-rendering:geometricPrecision;text-rendering:geometricPrecision"
       id="path1-4-4"
       sodipodi:nodetypes="ccscsc" />
    <path
       d="m 57.391421,103.26532 c 0.0836,-0.0293 0.17904,-0.048 0.25436,-0.074 0.28715,3.01071 -2.52601,4.22305 -4.44318,4.27382 -0.39467,0.0105 -0.95588,-0.0975 -0.95588,-0.0975 0,0 -4.08238,-0.5726 -5.3479,-5.13827 -2.22434,-8.001253 1.78388,-10.748983 3.45588,-9.073343 -1.39716,1.23151 -2.68726,3.124851 -1.83924,6.127571 1.25686,4.458152 5.42296,4.867252 5.42296,4.867252 0,0 2.22413,0.052 3.453,-0.88549"
       style="clip-rule:evenodd;display:inline;fill:#28220b;fill-opacity:1;fill-rule:nonzero;stroke:#faf4f3;stroke-width:0.164556;stroke-miterlimit:10;stroke-dasharray:none;stroke-opacity:0.941176;image-rendering:optimizeQuality;shape-rendering:geometricPrecision;text-rendering:geometricPrecision"
       id="path1-8-0"
       sodipodi:nodetypes="ccccccccc" />
    <path
       class="fil0 str0"
       d="m 56.673286,93.393092 c 0,0 1.98507,-1.60039 1.0355,-2.70173 -0.94957,-1.101332 -4.33596,0.82956 -4.33596,0.82956 0,0 -0.0233,0.009 -0.0639,0.0282 -0.61342,0.27978 -5.4039,2.63577 -4.01124,7.566966 1.25685,4.458152 5.42295,4.867252 5.42295,4.867252 0,0 4.05825,-0.60936 6.55991,-2.43289 1.06572,-0.77317 1.85145,-1.768732 1.92021,-3.031382 0.28953,-5.220466 -6.52751,-5.126016 -6.52751,-5.126016 z"
       id="path133-5-4-1-9-7"
       style="clip-rule:evenodd;display:inline;fill:#000000;fill-opacity:1;fill-rule:nonzero;stroke:#faf6f4;stroke-width:0.164556;stroke-miterlimit:10;stroke-dasharray:none;stroke-opacity:0.988235;image-rendering:optimizeQuality;shape-rendering:geometricPrecision;text-rendering:geometricPrecision" />
    <path
       d="m 82.957133,113.14425 c -0.56312,0.76773 -6.43694,0.62425 -8.09022,0.0552 l -0.24195,-0.30985 -2.73501,-0.11456 c -6.1e-4,0.49543 0.072,0.33126 0.18518,0.69678 0.35701,1.13088 1.13202,1.56455 2.49919,1.81964 -0.0639,0.69719 -0.82725,7.03456 -7.59043,6.17861 -7.15797,-0.90406 -18.68444,-3.84037 -19.72364,-6.24095 -3.489,4.73031 -2.4614,7.6184 0.38318,9.48905 3.34387,2.19934 9.20139,2.99865 13.18096,3.74116 15.63669,2.92497 17.69757,-1.26689 17.69757,-1.26689 1.89251,3.95381 23.485397,2.32691 31.287777,-2.66699 1.13202,-0.71995 1.97095,-1.51355 2.42085,-2.37232 3.5499,-6.77386 -1.20169,-10.17774 -1.20169,-10.17774 h -0.003 c 0.0233,1.74308 -0.44118,3.75538 -2.28724,5.06757 -2.90851,2.06622 -16.025637,5.6544 -21.706167,5.49565 -5.26832,-0.15024 -4.44684,-6.17017 -4.29881,-7.04309 0.8098,-0.0907 1.52679,-0.21538 2.08704,-0.36843 0.73147,-0.19844 1.16681,-0.88092 1.42696,-1.98243 z M 63.274583,66.444157 c -0.23885,0.59493 -0.92046,0.88737 -1.51025,1.06621 -0.76487,-0.45288 -0.5367,-0.87323 0.13816,-1.31253 l -0.0116,-0.0258 c -0.17099,0.0496 -0.33266,0.12702 -0.48332,0.22961 -0.68359,0.47016 -0.28387,1.08661 0.32772,1.37825 0.66935,-0.2701 1.31089,-0.68981 1.67226,-1.32129 0.0211,-0.0363 0.0107,-0.0258 -0.006,-0.0573 -0.52593,-0.91009 -1.87829,-2.38756 -2.92875,-1.2938 -0.2726,0.31831 -0.40985,0.69607 -0.4909,1.07278 l 0.0276,0.009 c 0.9213,-2.07238 2.19557,-0.99115 3.26488,0.25453 z m 18.03763,-7.01761 c 8.82702,0.73978 12.08958,3.34443 14.69037,4.56601 0.12195,0.0567 0.24965,0.11907 0.37734,0.17852 0,0 -0.05153,3.189879 2.38893,5.29728 0.222237,3.281034 -2.270231,3.642547 -2.537949,4.067023 -0.914387,1.449787 -0.757082,1.920291 -4.497276,4.374102 -4.552233,2.986562 -9.371324,1.64015 -11.113416,1.320548 0,0 -3.573416,1.667641 -9.249809,-1.340936 -4.895264,-2.594567 -5.715209,-6.539543 -6.08089,-7.026347 -1.55008,-2.06331 0,-4.65101 0,-4.65101 1.8025,-0.79642 2.27858,-4.52062 2.27858,-4.52062 2.36852,-1.22439 5.33801,-2.97028 13.74408,-2.26457 z m -8.51082,43.896303 c 3.52725,-1.17864 8.77892,-1.24602 13.23221,0.24361 3.19585,-0.5782 6.1435,-2.4493 6.1435,-2.4493 L 103.95006,89.412857 c 0,0 2.37444,-0.32875 3.22488,-2.25887 0.85045,-1.93011 0.54864,-3.74123 0.54864,-3.74123 l 0.97527,-0.65471 c 0,0 2.22051,-1.9358 1.21043,-5.28585 -1.00727,-3.35006 -4.37147,-3.87443 -4.37147,-3.87443 3.46292,-3.9396 -0.84173,-6.47059 -0.84173,-6.47059 l 0.43831,-0.39391 c 0.56601,-1.20173 1.05072,-4.09272 -1.64287,-7.74035 -2.69371,-3.644829 -9.053487,-9.046949 -19.424657,-10.203294 -10.37124,-1.159239 -17.51464,4.10116 -17.51464,4.10116 0,0 -5.82857,3.381225 -2.75466,9.746954 l -0.32797,0.25227 c 0,0 -2.30475,-1.18189 -3.93604,1.11385 -1.6284,2.29573 0.51376,5.29719 0.51376,5.29719 0,0 -4.02893,-0.54415 -4.6123,3.027 0,0 -3.84314,0.0453 -3.84314,4.13796 0,4.09272 2.02607,4.77579 2.02607,4.77579 v 1.40861 c 0,0 0.47311,4.685 3.81698,5.50126 0,0 9.93013,13.220933 11.63247,13.548783 0,0 1.24354,0.74942 3.734,1.6224 z M 104.9217,69.289357 c -1.31894,-1.11361 -2.4568,0.31204 -2.84055,1.50807 l -0.011,0.0284 0.0226,0.0193 c 0.39569,0.33896 0.72571,0.74565 1.09547,1.11184 1.02463,-0.2701 0.94942,-1.1357 0.20784,-1.69744 0,0 -0.0203,0.0202 -0.0206,0.0202 0.3817,0.54391 0.6116,1.11071 -0.13156,1.39785 -0.35611,-0.28995 -0.73402,-0.55724 -1.06405,-0.87435 0.9491,-1.84542 2.02113,-2.18944 3.48432,-0.52519 l 0.0238,-0.0165 c -0.19682,-0.3551 -0.4328,-0.70201 -0.76628,-0.97212 z m -15.040897,-3.15213 c 0.64844,0.20463 1.19412,0.30722 1.63416,0.30722 0.45541,0 0.79738,-0.10999 1.0229,-0.32964 0.44497,-0.43335 0.29959,-1.14332 0.17304,-1.52792 -0.22093,-0.67197 -1.55904,-3.38693 -3.61934,-3.39006 h -0.004 c -1.32504,0 -1.87689,1.09633 -1.93778,1.22696 -0.26124,0.41239 -0.29555,0.98603 -0.0909,1.53644 0.24676,0.66434 0.93676,1.58152 2.82172,2.177 z m -17.62711,-1.37576 c 0.34163,0 0.73492,-0.0382 1.17932,-0.11505 1.95095,-0.33703 2.76338,-1.15274 3.10122,-1.77739 0.28017,-0.51811 0.32715,-1.09062 0.12654,-1.53442 -0.042,-0.13779 -0.43509,-1.29952 -1.75058,-1.47587 -2.04285,-0.27404 -3.74876,2.23653 -4.06192,2.87227 -0.17945,0.36418 -0.4235,1.04781 -0.0438,1.537 0.25515,0.32851 0.74076,0.49346 1.44927,0.49346 z m 11.40793,45.931773 c -0.56312,0.66322 -5.99403,0.33157 -7.71237,0.23805 -1.71841,-0.0964 -1.13497,-1.94432 -1.13497,-1.94432 0,0 2.39181,0.49603 2.31924,-0.92682 -0.0726,-1.41994 -2.30475,-1.1847 -2.30475,-1.1847 0,0 -0.18283,-1.69768 0.4848,-1.84792 0.94621,-0.2154 7.57594,-0.23806 8.20579,0.0935 0.62985,0.33165 0.29028,1.73174 0.29028,1.73174 0,0 -1.89252,0.14173 -1.60232,1.21026 0.29317,1.06564 1.84611,0.73408 1.84611,0.73408 0,0 0.17123,1.2329 -0.39181,1.89612 z m -11.22466,-6.60085 c 0,0 -0.64433,2.73504 -0.47311,5.46158 0.0319,0.52719 0.10449,0.9665 0.21772,1.33205 0.35701,1.13088 1.13201,1.56455 2.49918,1.81964 -0.0639,0.69719 8.01133,1.07698 8.15936,0.20406 0.8098,-0.0907 1.52678,-0.21538 2.08703,-0.36843 0.73148,-0.19844 1.16682,-0.91268 1.4107,-1.83949 0.6357,-2.39489 0.0145,-6.20698 0.0145,-6.20698 0.21176,-2.58963 -14.24163,-2.69602 -13.91536,-0.40243 z"
       style="clip-rule:evenodd;display:inline;fill:#000000;fill-opacity:1;fill-rule:nonzero;stroke:#fdf9f7;stroke-width:0.16261;stroke-miterlimit:10;stroke-dasharray:none;stroke-opacity:0.980392;image-rendering:optimizeQuality;shape-rendering:geometricPrecision;text-rendering:geometricPrecision"
       id="path1-6-0-6"
       sodipodi:nodetypes="ccccccccccccccccccccccccccccccccccscccsscscccssccccsccccccccccccccscccccsccccccccccsscsscssccccsccccccsscccccccccccccccccccccc" />
    <circle
       style="display:inline;fill:#000000;fill-opacity:1;stroke:#000000;stroke-width:0.092;stroke-dasharray:none;stroke-opacity:1;paint-order:stroke fill markers"
       id="path10-3"
       cx="122.44326"
       cy="58.105812"
       r="6.5101523" />
    <path
       d="m 69.207164,74.328998 c -0.29605,-0.90978 -0.20028,-1.68074 0.17122,-1.8423 0.79829,-0.34009 0.89694,0.68024 1.69225,0.80212 0.79532,0.12188 1.24524,-0.77658 3.01007,-1.36049 1.76482,-0.58094 2.66009,0.441237 2.66009,0.441237 -0.0143,0.429772 0.17307,0.688273 0.369,1.012533 0.50422,0.80694 1.4548,1.26802 2.46783,1.39191 0,8e-4 -2.5e-4,8e-4 -2.5e-4,0.002 -0.51318,2.13449 -3.15462,2.86342 -5.14554,2.92126 -2.24289,0.0975 -4.45935,-1.22182 -5.21262,-3.32683"
       style="clip-rule:evenodd;display:inline;fill:#000000;fill-opacity:1;fill-rule:nonzero;stroke:#fdf9f7;stroke-width:0.1;stroke-miterlimit:10;stroke-dasharray:none;stroke-opacity:0.980392;image-rendering:optimizeQuality;shape-rendering:geometricPrecision;text-rendering:geometricPrecision"
       id="path1-0-98" />
    <path
       d="m 92.590694,74.432051 c 0.29605,-0.90978 0.20028,-1.68074 -0.17122,-1.8423 -0.79829,-0.34009 -0.89694,0.68024 -1.69225,0.80212 -0.79532,0.12188 -1.24524,-0.77658 -3.01007,-1.36049 -1.76482,-0.58094 -2.66009,0.441237 -2.66009,0.441237 0.0143,0.429772 -0.17307,0.688273 -0.369,1.012533 -0.50422,0.80694 -1.4548,1.26802 -2.46783,1.39191 0,8e-4 2.5e-4,8e-4 2.5e-4,0.002 0.51318,2.13449 3.15462,2.86342 5.14554,2.92126 2.24289,0.0975 4.45935,-1.22182 5.21262,-3.32683"
       style="clip-rule:evenodd;display:inline;fill:#000000;fill-opacity:1;fill-rule:nonzero;stroke:#fdf9f7;stroke-width:0.1;stroke-miterlimit:10;stroke-dasharray:none;stroke-opacity:0.980392;image-rendering:optimizeQuality;shape-rendering:geometricPrecision;text-rendering:geometricPrecision"
       id="path1-0-9-4" />
    <ellipse
       style="display:inline;fill:#28220b;fill-opacity:1;stroke:#faf4f3;stroke-width:0.1;stroke-dasharray:none;stroke-opacity:0.941176;paint-order:stroke fill markers"
       id="path2-1"
       cx="80.911385"
       cy="72.146713"
       rx="3.8643124"
       ry="2.5762081" />
    <path
       d="m 78.822314,76.759542 c 1.3554,1.409659 3.49285,0.562125 4.06619,0.195177 l -0.0181,0.15777 c -0.19021,0.640525 -1.94328,1.447658 -3.03177,0.827989 -0.61745,-0.328022 -0.79926,-0.842898 -1.01631,-1.18093 z"
       style="display:inline;fill:#28220b;fill-opacity:1;stroke:#faf4f3;stroke-width:0.1;stroke-dasharray:none;stroke-opacity:0.941176;paint-order:stroke fill markers"
       id="path1-5-4"
       sodipodi:nodetypes="scccss" />
    <path
       d="m 71.002646,66.973863 c 1.1274,-0.50591 2.13723,-1.12268 3.27739,-0.42348 0.35907,0.1888 0.72365,0.45915 1.17101,0.7242 -0.26856,-2.72686 -3.78629,-2.92947 -4.4484,-0.30072 z"
       style="clip-rule:evenodd;display:inline;fill:#000000;fill-opacity:1;fill-rule:nonzero;stroke:#fdf9f7;stroke-width:0.16261;stroke-miterlimit:10;stroke-dasharray:none;stroke-opacity:0.980392;image-rendering:optimizeQuality;shape-rendering:geometricPrecision;text-rendering:geometricPrecision"
       id="path1-08" />
    <path
       d="m 86.21343,68.23172 c 1.1274,-0.50591 2.13723,-1.12268 3.27739,-0.42348 0.35907,0.1888 0.72365,0.45915 1.17101,0.7242 -0.26856,-2.72686 -3.78629,-2.92947 -4.4484,-0.30072 z"
       style="clip-rule:evenodd;display:inline;fill:#000000;fill-opacity:1;fill-rule:nonzero;stroke:#fdf9f7;stroke-width:0.16261;stroke-miterlimit:10;stroke-dasharray:none;stroke-opacity:0.980392;image-rendering:optimizeQuality;shape-rendering:geometricPrecision;text-rendering:geometricPrecision"
       id="path1-8" />
  </g>
  <g
     inkscape:label="Dwgs.User"
     inkscape:groupmode="layer"
     id="g9" />
  <g
     inkscape:label="Drill"
     inkscape:groupmode="layer"
     id="g10" />
</svg>
