%TF.GenerationSoftware,KiCad,Pcbnew,8.0.1*%
%TF.CreationDate,2024-04-02T10:31:50+02:00*%
%TF.ProjectId,Tiger,54696765-722e-46b6-9963-61645f706362,rev?*%
%TF.SameCoordinates,Original*%
%TF.FileFunction,Profile,NP*%
%FSLAX46Y46*%
G04 Gerber Fmt 4.6, Leading zero omitted, Abs format (unit mm)*
G04 Created by KiCad (PCBNEW 8.0.1) date 2024-04-02 10:31:50*
%MOMM*%
%LPD*%
G01*
G04 APERTURE LIST*
%TA.AperFunction,Profile*%
%ADD10C,0.100000*%
%TD*%
G04 APERTURE END LIST*
D10*
X44688400Y-24580400D02*
X44047100Y-24548490D01*
X33077500Y-53156000D02*
X32633500Y-54239700D01*
X31967600Y-101654200D02*
X31678500Y-101968300D01*
X94158800Y-38592500D02*
X94357100Y-38139800D01*
X31099000Y-82720300D02*
X31214000Y-82820800D01*
X99841400Y-71489000D02*
X99831100Y-70645000D01*
X30937200Y-59093800D02*
X30670800Y-60015800D01*
X112628900Y-103951200D02*
X113223900Y-103686800D01*
X52153200Y-30025900D02*
X51822300Y-29424000D01*
X47853700Y-120250400D02*
X48210400Y-120651400D01*
X65377300Y-122723400D02*
X65704600Y-122963400D01*
X34204800Y-37374900D02*
X34337200Y-37761500D01*
X86181300Y-91182000D02*
X85820000Y-90231300D01*
X30418000Y-80995200D02*
X30665100Y-81730000D01*
X85820000Y-90231300D02*
X87183500Y-89811400D01*
X84214200Y-122787400D02*
X84859800Y-123030400D01*
X81191100Y-120460400D02*
X81592400Y-120951400D01*
X85957400Y-123277400D02*
X86522000Y-123321400D01*
X34366700Y-82104700D02*
X33834200Y-85320300D01*
X29243700Y-75595900D02*
X29352000Y-76393300D01*
X63237200Y-33733300D02*
X62330800Y-33767000D01*
X51213600Y-122833400D02*
X51827700Y-123135400D01*
X90864300Y-42740900D02*
X91344600Y-42321900D01*
X97495700Y-82897600D02*
X97626500Y-82820800D01*
X34435100Y-86267200D02*
X34587100Y-86320200D01*
X98416200Y-60932800D02*
X98169500Y-60015800D01*
X88286600Y-99323900D02*
X88110200Y-98257500D01*
X93508000Y-28789800D02*
X93232100Y-28426000D01*
X30094400Y-112271700D02*
X30328000Y-112957300D01*
X98876200Y-109793100D02*
X98951400Y-109007500D01*
X32165200Y-116636200D02*
X32494800Y-117140800D01*
X94253200Y-86320100D02*
X94405200Y-86267100D01*
X37460900Y-122029400D02*
X37874600Y-122262400D01*
X115814900Y-98227100D02*
X115638900Y-97878900D01*
X33687800Y-34085300D02*
X33695700Y-34508200D01*
X29802000Y-63652700D02*
X29634000Y-64548400D01*
X87666800Y-24953590D02*
X86902400Y-24762860D01*
X94782700Y-86022000D02*
X94854400Y-85939100D01*
X95165300Y-100578400D02*
X94812100Y-100357900D01*
X100047200Y-108755500D02*
X99799400Y-109216300D01*
X98643200Y-61844800D02*
X98416200Y-60932800D01*
X29089200Y-68935800D02*
X29039400Y-69793900D01*
X35705000Y-86226600D02*
X36029400Y-86099400D01*
X80148100Y-26011730D02*
X79622100Y-26394950D01*
X107180900Y-96600000D02*
X106751900Y-96895600D01*
X31528700Y-57236100D02*
X31223100Y-58167200D01*
X60800800Y-123749400D02*
X61170100Y-123582400D01*
X99753900Y-73976500D02*
X99802800Y-73154900D01*
X113922900Y-96105000D02*
X113536900Y-95890900D01*
X31537800Y-115577800D02*
X31846000Y-116115000D01*
X30902000Y-103008700D02*
X30675600Y-103385900D01*
X111139900Y-104846200D02*
X111590900Y-104531200D01*
X41143300Y-94584000D02*
X41031000Y-95006100D01*
X99831100Y-70645000D02*
X99801000Y-69793900D01*
X114613900Y-96615500D02*
X114282900Y-96347600D01*
X35608200Y-28426000D02*
X35332200Y-28789800D01*
X116113900Y-100515200D02*
X116157900Y-100189700D01*
X102959900Y-116962200D02*
X103266900Y-116682500D01*
X98175300Y-81730000D02*
X98422400Y-80995200D01*
X29155200Y-74790200D02*
X29243700Y-75595900D01*
X49720100Y-26817300D02*
X49218400Y-26394950D01*
X90142900Y-25950230D02*
X89287200Y-25542520D01*
X29009300Y-70645000D02*
X28998900Y-71489000D01*
X58785900Y-124304400D02*
X59210700Y-124231400D01*
X85402700Y-123181400D02*
X85957400Y-123277400D01*
X90215500Y-99120200D02*
X89559200Y-99136200D01*
X37552200Y-87316200D02*
X37630600Y-87536100D01*
X30275200Y-104182200D02*
X30102500Y-104599900D01*
X94857700Y-36580600D02*
X94946600Y-36174500D01*
X51822300Y-29424000D02*
X51460000Y-28845400D01*
X33770600Y-32813800D02*
X33724800Y-33237300D01*
X93942300Y-39027000D02*
X94158800Y-38592500D01*
X65063200Y-122467400D02*
X65377300Y-122723400D01*
X73605800Y-34848800D02*
X72494900Y-34574500D01*
X34734800Y-99823100D02*
X34350600Y-99979600D01*
X59813400Y-33978600D02*
X59044600Y-34079100D01*
X94960200Y-85750400D02*
X95012300Y-85540300D01*
X29248000Y-67199800D02*
X29158700Y-68071100D01*
X57839200Y-124395400D02*
X58350600Y-124357400D01*
X64202700Y-121592400D02*
X64475700Y-121901400D01*
X90418300Y-88582300D02*
X90596200Y-88449700D01*
X31678500Y-101968300D02*
X31404100Y-102299200D01*
X105567900Y-97922900D02*
X105206900Y-98306100D01*
X115188900Y-97215100D02*
X114915900Y-96905800D01*
X51460000Y-28845400D02*
X51067400Y-28292800D01*
X31793600Y-82966900D02*
X31949000Y-82930300D01*
X75835100Y-123399400D02*
X76499500Y-123121400D01*
X47232700Y-120459400D02*
X47592500Y-119928400D01*
X102853900Y-101838300D02*
X102396900Y-102783000D01*
X53799900Y-123876400D02*
X54489800Y-124060400D01*
X90445000Y-43075900D02*
X90864300Y-42740900D01*
X87674700Y-123252400D02*
X88259400Y-123143400D01*
X83541900Y-24656150D02*
X82962900Y-24770870D01*
X95507000Y-100818900D02*
X95165300Y-100578400D01*
X86902400Y-24762860D02*
X86168600Y-24634940D01*
X33828000Y-85540300D02*
X33880100Y-85750400D01*
X30675600Y-103385900D02*
X30466500Y-103777300D01*
X63133300Y-122197400D02*
X63416600Y-121904400D01*
X31223100Y-58167200D02*
X30937200Y-59093800D01*
X95012300Y-85540300D02*
X95016800Y-85430800D01*
X47592500Y-119928400D02*
X47853700Y-120250400D01*
X35130200Y-39443000D02*
X35375300Y-39840400D01*
X103631900Y-100444300D02*
X103358900Y-100903400D01*
X100284900Y-108253200D02*
X100047200Y-108755500D01*
X95152500Y-34085300D02*
X95143000Y-33661400D01*
X36235000Y-121197400D02*
X36640500Y-121496400D01*
X96745500Y-101968300D02*
X96456400Y-101654200D01*
X89287200Y-25542520D02*
X88461800Y-25211890D01*
X44209800Y-122787400D02*
X44815200Y-122503400D01*
X46941900Y-25098180D02*
X46425400Y-24919740D01*
X45877600Y-24770790D02*
X45298600Y-24656090D01*
X35907600Y-28072400D02*
X35608200Y-28426000D01*
X46425400Y-24919740D02*
X45877600Y-24770790D01*
X34483200Y-38139800D02*
X34681600Y-38592500D01*
X99483400Y-66322100D02*
X99354700Y-65438200D01*
X30597000Y-113645300D02*
X30901500Y-114334900D01*
X53526300Y-35366800D02*
X53489600Y-34672600D01*
X115614900Y-101805300D02*
X115791900Y-101488800D01*
X70757200Y-124407400D02*
X71502900Y-124384400D01*
X87095000Y-123312400D02*
X87674700Y-123252400D01*
X33540300Y-118552400D02*
X33905800Y-118987400D01*
X99017200Y-110321900D02*
X98750400Y-110588700D01*
X90754900Y-88297400D02*
X90895200Y-88127600D01*
X34278700Y-119403400D02*
X34658600Y-119801400D01*
X29445200Y-108265700D02*
X29463300Y-108915600D01*
X91889200Y-27080870D02*
X91491500Y-26776110D01*
X81898600Y-25098280D02*
X81413600Y-25301460D01*
X50069700Y-122167400D02*
X50626500Y-122510400D01*
X110720900Y-95378500D02*
X110154900Y-95449300D01*
X33834200Y-85320300D02*
X33823600Y-85430800D01*
X37325800Y-85923000D02*
X37361600Y-86387500D01*
X78860000Y-121792400D02*
X79357600Y-121419400D01*
X60028000Y-124027400D02*
X60420100Y-123897400D01*
X114851900Y-102700400D02*
X115146900Y-102413300D01*
X116123900Y-99240700D02*
X116062900Y-98940700D01*
X92969700Y-99577900D02*
X92262200Y-99385100D01*
X76389000Y-30648500D02*
X76124500Y-31289300D01*
X53294600Y-33293900D02*
X53138700Y-32614600D01*
X96986400Y-56300700D02*
X96641600Y-55361100D01*
X97047000Y-82966900D02*
X97202100Y-82972500D01*
X106751900Y-96895600D02*
X106339900Y-97215800D01*
X64628400Y-33721600D02*
X64212800Y-33721600D01*
X96456400Y-101654200D02*
X96153100Y-101357500D01*
X98951400Y-109007500D02*
X98975600Y-108233700D01*
X31487600Y-82948800D02*
X31638500Y-82972500D01*
X111747900Y-95381500D02*
X111244900Y-95356400D01*
X38289900Y-122474400D02*
X38706200Y-122663400D01*
X73721200Y-124055400D02*
X74442200Y-123869400D01*
X85465600Y-24565070D02*
X84793400Y-24548490D01*
X64762700Y-122193400D02*
X65063200Y-122467400D01*
X99038300Y-63652700D02*
X98850600Y-62751500D01*
X49546500Y-121806400D02*
X50069700Y-122167400D01*
X94854400Y-85939100D02*
X94960200Y-85750400D01*
X110353900Y-105524800D02*
X110728900Y-105177500D01*
X40205200Y-89337800D02*
X41311000Y-89734100D01*
X34898800Y-86368200D02*
X35057800Y-86366500D01*
X99315000Y-119198400D02*
X99877700Y-118968400D01*
X34587100Y-86320200D02*
X34741800Y-86353300D01*
X29609100Y-106376800D02*
X29518000Y-106995400D01*
X35894200Y-40578200D02*
X36162900Y-40918300D01*
X37831600Y-87946300D02*
X37956200Y-88132500D01*
X87395400Y-95015500D02*
X87283500Y-94594900D01*
X116172900Y-99867400D02*
X116160900Y-99550300D01*
X100721900Y-107135600D02*
X100510500Y-107712300D01*
X68350900Y-124131400D02*
X68777200Y-124224400D01*
X91068200Y-26485550D02*
X90618800Y-26209990D01*
X99543800Y-109632900D02*
X99282300Y-110002400D01*
X51067400Y-28292800D02*
X50645800Y-27768900D01*
X37910400Y-43829100D02*
X37289600Y-44838100D01*
X114282900Y-96347600D02*
X113922900Y-96105000D01*
X35375300Y-39840400D02*
X35630800Y-40218800D01*
X41031000Y-95006100D02*
X40760300Y-96095600D01*
X113223900Y-103686800D02*
X113701900Y-103468800D01*
X99685200Y-74790200D02*
X99753900Y-73976500D01*
X70528100Y-34191000D02*
X69796000Y-34079100D01*
X116160900Y-99550300D02*
X116123900Y-99240700D01*
X63943700Y-121267400D02*
X64202700Y-121592400D01*
X105206900Y-98306100D02*
X104861900Y-98706600D01*
X35747100Y-47559200D02*
X34878200Y-49238900D01*
X30424200Y-60932800D02*
X30197100Y-61844800D01*
X98556500Y-105289600D02*
X98321400Y-104599900D01*
X57618000Y-34312300D02*
X56345500Y-34574500D01*
X30466500Y-103777300D02*
X30275200Y-104182200D01*
X30901500Y-114334900D02*
X31241300Y-115024900D01*
X33835200Y-32391800D02*
X33770600Y-32813800D01*
X90186200Y-88708000D02*
X90220000Y-88693100D01*
X29734300Y-110911900D02*
X29896500Y-111589600D01*
X33985900Y-85939100D02*
X34057600Y-86022000D01*
X65603800Y-33733300D02*
X64665300Y-33721600D01*
X33979500Y-51109900D02*
X33527200Y-52112000D01*
X94817800Y-31555300D02*
X94694300Y-31142300D01*
X94503100Y-37761500D02*
X94635500Y-37374900D01*
X86763100Y-92866500D02*
X86495600Y-92066100D01*
X56345500Y-34574500D02*
X55234500Y-34848800D01*
X48210400Y-120651400D02*
X48613600Y-121046400D01*
X76499500Y-123121400D02*
X77137900Y-122819400D01*
X77746500Y-122494400D02*
X78321800Y-122151400D01*
X60618000Y-33891700D02*
X59813400Y-33978600D01*
X31145100Y-102646200D02*
X30902000Y-103008700D01*
X94946600Y-36174500D02*
X95020200Y-35763400D01*
X53124100Y-123659400D02*
X53799900Y-123876400D01*
X75701800Y-32614600D02*
X75545800Y-33293900D01*
X107412900Y-110563900D02*
X107750900Y-109822500D01*
X44047100Y-24548490D02*
X43375000Y-24565090D01*
X42263000Y-91125600D02*
X41943300Y-92021500D01*
X57325400Y-124408400D02*
X57839200Y-124395400D01*
X92406100Y-41238900D02*
X92677500Y-40918300D01*
X71502900Y-124384400D02*
X72247900Y-124316400D01*
X33905800Y-118987400D02*
X34278700Y-119403400D01*
X108886900Y-107492900D02*
X109138900Y-107069300D01*
X99044600Y-78734600D02*
X99212400Y-77962900D01*
X88461800Y-25211890D02*
X87666800Y-24953590D01*
X54489800Y-124060400D02*
X55190500Y-124208400D01*
X77773100Y-28292800D02*
X77380500Y-28845400D01*
X38258900Y-88456500D02*
X38439000Y-88590100D01*
X99801000Y-69793900D02*
X99751200Y-68935800D01*
X98724400Y-119399400D02*
X99315000Y-119198400D01*
X112689900Y-95560600D02*
X112229900Y-95450600D01*
X99282300Y-110002400D02*
X99017200Y-110321900D01*
X86168600Y-24634940D02*
X85465600Y-24565070D01*
X34741800Y-86353300D02*
X34898800Y-86368200D01*
X37318600Y-85480900D02*
X37325800Y-85923000D01*
X94073500Y-99979600D02*
X93689500Y-99823100D01*
X69027300Y-33978600D02*
X68222800Y-33891700D01*
X52451400Y-30648500D02*
X52153200Y-30025900D01*
X58312500Y-34191000D02*
X57618000Y-34312300D01*
X95079800Y-119732400D02*
X95596500Y-119778400D01*
X93135400Y-86226500D02*
X93460300Y-86319800D01*
X91779000Y-121498400D02*
X92351900Y-121070400D01*
X96794600Y-119766400D02*
X97463300Y-119688400D01*
X90220000Y-88693100D02*
X90418300Y-88582300D01*
X29039400Y-69793900D02*
X29009300Y-70645000D01*
X29518000Y-106995400D02*
X29463400Y-107625300D01*
X105721900Y-113712400D02*
X106218900Y-112903900D01*
X40313900Y-98256800D02*
X40137300Y-99324000D01*
X32834200Y-117628400D02*
X33182900Y-118099400D01*
X115638900Y-97878900D02*
X115429900Y-97540600D01*
X68222800Y-33891700D02*
X67383400Y-33820500D01*
X37049300Y-121773400D02*
X37460900Y-122029400D01*
X35079400Y-29163000D02*
X34849100Y-29544800D01*
X29795800Y-78734600D02*
X29983300Y-79497300D01*
X103771900Y-116181200D02*
X104152900Y-115767500D01*
X113701900Y-103468800D02*
X114130900Y-103230400D01*
X82962900Y-24770870D02*
X82415100Y-24919830D01*
X98739200Y-105999500D02*
X98556500Y-105289600D01*
X91516000Y-85923000D02*
X91522600Y-85481200D01*
X113536900Y-95890900D02*
X113125900Y-95708400D01*
X94199200Y-29934500D02*
X93991100Y-29544800D01*
X98750400Y-110588700D02*
X98876200Y-109793100D01*
X95020200Y-35763400D02*
X95078000Y-35348100D01*
X66045000Y-123184400D02*
X66398300Y-123387400D01*
X99360300Y-77182400D02*
X99488400Y-76393300D01*
X95016800Y-85430800D02*
X95006100Y-85320300D01*
X58350600Y-124357400D02*
X58785900Y-124304400D01*
X37495900Y-42321900D02*
X37976200Y-42740900D01*
X62330800Y-33767000D02*
X61457400Y-33820500D01*
X65704600Y-122963400D02*
X66045000Y-123184400D01*
X69664100Y-124354400D02*
X70209200Y-124394400D01*
X43375000Y-24565090D02*
X42671900Y-24634990D01*
X98649700Y-80250900D02*
X98857100Y-79497300D01*
X97957500Y-103777300D02*
X97748300Y-103385900D01*
X97748300Y-103385900D02*
X97521900Y-103008600D01*
X99802800Y-73154900D02*
X99832000Y-72325700D01*
X109084900Y-95701900D02*
X108579900Y-95880200D01*
X29608000Y-110239700D02*
X29734300Y-110911900D01*
X78644200Y-27276140D02*
X78194700Y-27768900D01*
X109406900Y-106660500D02*
X109696900Y-106266600D01*
X48302200Y-25762890D02*
X47880400Y-25524520D01*
X79810900Y-121036400D02*
X80216300Y-120645400D01*
X36951100Y-27080870D02*
X36578600Y-27399040D01*
X94409500Y-50151500D02*
X93962200Y-49238900D01*
X107627900Y-96331100D02*
X107180900Y-96600000D01*
X102241400Y-117553400D02*
X102617700Y-117254200D01*
X97352900Y-82948800D02*
X97495700Y-82897600D01*
X31853900Y-56300700D02*
X31528700Y-57236100D01*
X105945900Y-97558900D02*
X105567900Y-97922900D01*
X99877700Y-118968400D02*
X100411600Y-118713400D01*
X39122900Y-122829400D02*
X39539500Y-122972400D01*
X113125900Y-95708400D02*
X112689900Y-95560600D01*
X100411600Y-118713400D02*
X100915900Y-118439400D01*
X34286300Y-86192800D02*
X34435100Y-86267200D01*
X75148100Y-123649400D02*
X75835100Y-123399400D01*
X86495600Y-92066100D02*
X86181300Y-91182000D01*
X32633500Y-54239700D02*
X32198700Y-55361100D01*
X34898100Y-39027000D02*
X35130200Y-39443000D01*
X78321800Y-122151400D02*
X78860000Y-121792400D01*
X108648900Y-107931000D02*
X108886900Y-107492900D01*
X97278900Y-102646200D02*
X97019900Y-102299200D01*
X101284900Y-105528100D02*
X100721900Y-107135600D01*
X64212800Y-33721600D02*
X64175700Y-33721600D01*
X37538900Y-99156200D02*
X36856600Y-99244400D01*
X56611600Y-124385400D02*
X57325400Y-124408400D01*
X38706200Y-122663400D02*
X39122900Y-122829400D01*
X93991100Y-29544800D02*
X93760900Y-29163000D01*
X55898900Y-124317400D02*
X56611600Y-124385400D01*
X62207000Y-122970400D02*
X62528300Y-122730400D01*
X29463300Y-108915600D02*
X29517600Y-109573900D01*
X37630600Y-87536100D02*
X37723400Y-87746800D01*
X29158700Y-68071100D02*
X29089200Y-68935800D01*
X94554000Y-86192800D02*
X94699200Y-86095300D01*
X95313100Y-52112000D02*
X94860900Y-51109900D01*
X36230900Y-27729800D02*
X35907600Y-28072400D01*
X87664900Y-96100600D02*
X87395400Y-95015500D01*
X90614800Y-122227400D02*
X91199400Y-121884400D01*
X77380500Y-28845400D02*
X77018200Y-29424000D01*
X92932700Y-28072400D02*
X92609300Y-27729800D01*
X53138700Y-32614600D02*
X52945400Y-31945500D01*
X37289600Y-44838100D02*
X36559700Y-46086900D01*
X33258700Y-100578400D02*
X32917000Y-100818900D01*
X92916500Y-120600400D02*
X93470900Y-120091400D01*
X91293800Y-87314000D02*
X91409800Y-86856200D01*
X89365900Y-89038700D02*
X90186200Y-88708000D01*
X92946200Y-40578200D02*
X93209600Y-40218800D01*
X59210700Y-124231400D02*
X59624800Y-124138400D01*
X82518900Y-121810400D02*
X83043500Y-122177400D01*
X87903000Y-97182200D02*
X87664900Y-96100600D01*
X108094900Y-96090500D02*
X107627900Y-96331100D01*
X92609300Y-27729800D02*
X92261700Y-27399040D01*
X41447400Y-93542200D02*
X41143300Y-94584000D01*
X29989700Y-62751500D02*
X29802000Y-63652700D01*
X40137300Y-99324000D02*
X39507600Y-99204100D01*
X91125000Y-87743300D02*
X91216500Y-87533200D01*
X109696900Y-106266600D02*
X110010900Y-105887900D01*
X66398300Y-123387400D02*
X66764300Y-123573400D01*
X34658600Y-119801400D02*
X35044700Y-120180400D01*
X43182100Y-123142400D02*
X43564200Y-123029400D01*
X106339900Y-97215800D02*
X105945900Y-97558900D01*
X53489600Y-34672600D02*
X53412000Y-33980800D01*
X61457400Y-33820500D02*
X60618000Y-33891700D01*
X89559200Y-99136200D02*
X88916200Y-99204100D01*
X91409800Y-86856200D02*
X91481100Y-86386900D01*
X94357100Y-38139800D02*
X94503100Y-37761500D01*
X31214000Y-82820800D02*
X31344800Y-82897600D01*
X90618800Y-26209990D02*
X90142900Y-25950230D01*
X93232100Y-28426000D02*
X92932700Y-28072400D01*
X33880100Y-85750400D02*
X33985900Y-85939100D01*
X95119600Y-34929400D02*
X95144600Y-34508200D01*
X70209200Y-124394400D02*
X70757200Y-124407400D01*
X43564200Y-123029400D02*
X44209800Y-122787400D01*
X94694300Y-31142300D02*
X94550300Y-30734000D01*
X66510100Y-33767000D02*
X65603800Y-33733300D01*
X35454400Y-99577800D02*
X34734800Y-99823100D01*
X93689500Y-99823100D02*
X92969700Y-99577900D01*
X115932900Y-101166900D02*
X116039900Y-100841600D01*
X92261700Y-27399040D02*
X91889200Y-27080870D01*
X99681600Y-68071100D02*
X99592400Y-67199800D01*
X45380400Y-122177400D02*
X45905000Y-121809400D01*
X30932100Y-82455000D02*
X31003800Y-82597700D01*
X30197100Y-61844800D02*
X29989700Y-62751500D01*
X90930000Y-43829100D02*
X90445000Y-43075900D01*
X111244900Y-95356400D02*
X110720900Y-95378500D01*
X33919000Y-31972000D02*
X33835200Y-32391800D01*
X98169500Y-60015800D02*
X97903200Y-59093800D01*
X34641100Y-29934500D02*
X34454900Y-30331100D01*
X30190700Y-80250900D02*
X30418000Y-80995200D01*
X48613600Y-121046400D02*
X49060000Y-121432400D01*
X80538200Y-25762950D02*
X80148100Y-26011730D01*
X35057800Y-86366500D02*
X35380000Y-86319900D01*
X88847400Y-122984400D02*
X89437100Y-122778400D01*
X97019900Y-102299200D02*
X96745500Y-101968300D01*
X95762900Y-53156000D02*
X95313100Y-52112000D01*
X82035100Y-121401400D02*
X82518900Y-121810400D01*
X69215000Y-124299400D02*
X69664100Y-124354400D01*
X29463400Y-107625300D02*
X29445200Y-108265700D01*
X96101700Y-119794400D02*
X96794600Y-119766400D01*
X94812100Y-100357900D02*
X94448000Y-100158100D01*
X31404100Y-102299200D02*
X31145100Y-102646200D01*
X29480100Y-77182400D02*
X29628000Y-77962900D01*
X34849100Y-29544800D02*
X34641100Y-29934500D01*
X41598500Y-123322400D02*
X42001500Y-123316400D01*
X78194700Y-27768900D02*
X77773100Y-28292800D01*
X62528300Y-122730400D02*
X62837100Y-122473400D01*
X97463300Y-119688400D02*
X98106900Y-119563400D01*
X67533400Y-123889400D02*
X67936200Y-124019400D01*
X33720700Y-34929400D02*
X33762300Y-35348100D01*
X39955200Y-123091400D02*
X40369600Y-123186400D01*
X31003800Y-82597700D02*
X31099000Y-82720300D01*
X94098500Y-86353200D02*
X94253200Y-86320100D01*
X101831700Y-117854400D02*
X102241400Y-117553400D01*
X101985700Y-103722800D02*
X101616300Y-104642700D01*
X98850600Y-62751500D02*
X98643200Y-61844800D01*
X94473700Y-82104700D02*
X96891500Y-82930300D01*
X80831300Y-119928400D02*
X81191100Y-120460400D01*
X33182900Y-118099400D02*
X33540300Y-118552400D01*
X95005100Y-32391800D02*
X94921300Y-31972000D01*
X97311600Y-57236100D02*
X96986400Y-56300700D01*
X36434300Y-41238900D02*
X36975000Y-41820700D01*
X97903200Y-59093800D02*
X97617200Y-58167200D01*
X37361600Y-86387500D02*
X37434300Y-86857500D01*
X94860900Y-51109900D02*
X94409500Y-50151500D01*
X94635500Y-37374900D02*
X94753800Y-36981100D01*
X106658900Y-112107600D02*
X107052900Y-111326600D01*
X44815200Y-122503400D02*
X45380400Y-122177400D01*
X94550300Y-30734000D02*
X94385400Y-30331100D01*
X104531900Y-99122500D02*
X104217900Y-99552000D01*
X96891500Y-82930300D02*
X97047000Y-82966900D01*
X34290000Y-30734000D02*
X34146000Y-31142300D01*
X42630600Y-90162900D02*
X42263000Y-91125600D01*
X40378600Y-25211950D02*
X39553200Y-25542550D01*
X93470900Y-120091400D02*
X94013700Y-119542400D01*
X82415100Y-24919830D02*
X81898600Y-25098280D01*
X87183500Y-89811400D02*
X88365200Y-89410200D01*
X79622100Y-26394950D02*
X79120400Y-26817300D01*
X30665100Y-81730000D02*
X30932100Y-82455000D01*
X41191800Y-123302400D02*
X41598500Y-123322400D01*
X102396900Y-102783000D02*
X101985700Y-103722800D01*
X99592400Y-67199800D02*
X99483400Y-66322100D01*
X72494900Y-34574500D02*
X71222500Y-34312300D01*
X75350800Y-34672600D02*
X75314100Y-35366800D01*
X90596200Y-88449700D02*
X90754900Y-88297400D01*
X33976200Y-100158100D02*
X33612000Y-100357900D01*
X99212400Y-77962900D02*
X99360300Y-77182400D01*
X91491500Y-26776110D02*
X91068200Y-26485550D01*
X48692300Y-26011730D02*
X48302200Y-25762890D01*
X38221500Y-26209990D02*
X37772100Y-26485550D01*
X41943300Y-92021500D02*
X41671400Y-92832900D01*
X42671900Y-24634990D02*
X41938100Y-24762920D01*
X37874600Y-122262400D02*
X38289900Y-122474400D01*
X50196200Y-27276140D02*
X49720100Y-26817300D01*
X108195900Y-108849400D02*
X108648900Y-107931000D01*
X49060000Y-121432400D02*
X49546500Y-121806400D01*
X88110200Y-98257500D02*
X87903000Y-97182200D01*
X93941400Y-86368100D02*
X94098500Y-86353200D01*
X33724800Y-33237300D02*
X33697300Y-33661400D01*
X63686800Y-121594400D02*
X63943700Y-121267400D01*
X116157900Y-100189700D02*
X116172900Y-99867400D01*
X30102500Y-104599900D02*
X29901200Y-105178100D01*
X79357600Y-121419400D02*
X79810900Y-121036400D01*
X112086900Y-104232800D02*
X112628900Y-103951200D01*
X29736800Y-105770800D02*
X29609100Y-106376800D01*
X116062900Y-98940700D02*
X116062900Y-98940600D01*
X97202100Y-82972500D02*
X97352900Y-82948800D01*
X42400100Y-123284400D02*
X42793900Y-123226400D01*
X99751200Y-68935800D02*
X99681600Y-68071100D01*
X76124500Y-31289300D02*
X75895100Y-31945500D01*
X39507600Y-99204100D02*
X38864600Y-99136100D01*
X37348800Y-26776110D02*
X36951100Y-27080870D01*
X42001500Y-123316400D02*
X42400100Y-123284400D01*
X97836700Y-82597700D02*
X97908300Y-82455000D01*
X103266900Y-116682500D02*
X103771900Y-116181200D01*
X31846000Y-116115000D02*
X32165200Y-116636200D01*
X98148700Y-104182200D02*
X97957500Y-103777300D01*
X98106900Y-119563400D02*
X98724400Y-119399400D01*
X37772100Y-26485550D02*
X37348800Y-26776110D01*
X115146900Y-102413300D02*
X115400900Y-102114200D01*
X116062900Y-98940600D02*
X116062900Y-98940600D01*
X51827700Y-123135400D02*
X52465600Y-123411400D01*
X95143000Y-33661400D02*
X95115500Y-33237300D01*
X30328000Y-112957300D02*
X30597000Y-113645300D01*
X93962200Y-49238900D02*
X93093300Y-47559200D01*
X116039900Y-100841600D02*
X116113900Y-100515200D01*
X75314100Y-35366800D02*
X74548000Y-35118500D01*
X34146000Y-31142300D02*
X34022500Y-31555300D01*
X91567200Y-99244600D02*
X90884900Y-99156300D01*
X94753800Y-36981100D02*
X94857700Y-36580600D01*
X97741500Y-82720300D02*
X97836700Y-82597700D01*
X98857100Y-79497300D02*
X99044600Y-78734600D01*
X34430900Y-50151500D02*
X33979500Y-51109900D01*
X29008400Y-72325700D02*
X29037500Y-73154900D01*
X52465600Y-123411400D02*
X53124100Y-123659400D01*
X86983500Y-93566200D02*
X86763100Y-92866500D01*
X79120400Y-26817300D02*
X78644200Y-27276140D01*
X34141100Y-86095300D02*
X34286300Y-86192800D01*
X33893700Y-36174500D02*
X33982600Y-36580600D01*
X36975000Y-41820700D02*
X37495900Y-42321900D01*
X72988500Y-124205400D02*
X73721200Y-124055400D01*
X99596700Y-75595900D02*
X99685200Y-74790200D01*
X94013700Y-119542400D02*
X94552000Y-119654400D01*
X30670800Y-60015800D02*
X30424200Y-60932800D01*
X66764300Y-123573400D02*
X67142700Y-123740400D01*
X61873400Y-123192400D02*
X62207000Y-122970400D01*
X93760900Y-29163000D02*
X93508000Y-28789800D01*
X90026800Y-122525400D02*
X90614800Y-122227400D01*
X46388700Y-121400400D02*
X46831400Y-120950400D01*
X77018200Y-29424000D02*
X76687300Y-30025900D01*
X34878200Y-49238900D02*
X34430900Y-50151500D01*
X80960100Y-25524600D02*
X80538200Y-25762950D01*
X97626500Y-82820800D02*
X97741500Y-82720300D01*
X32917000Y-100818900D02*
X32587500Y-101078800D01*
X104152900Y-115767500D02*
X104509900Y-115354100D01*
X45905000Y-121809400D02*
X46388700Y-121400400D01*
X92677500Y-40918300D02*
X92946200Y-40578200D01*
X38395500Y-43075900D02*
X37910400Y-43829100D01*
X29628000Y-77962900D02*
X29795800Y-78734600D01*
X50645800Y-27768900D02*
X50196200Y-27276140D01*
X31344800Y-82897600D02*
X31487600Y-82948800D01*
X95115500Y-33237300D02*
X95069700Y-32813800D01*
X37956200Y-88132500D02*
X38098300Y-88303300D01*
X107750900Y-109822500D02*
X108195900Y-108849400D01*
X29896500Y-111589600D02*
X30094400Y-112271700D01*
X91481100Y-86386900D02*
X91516000Y-85923000D01*
X93782500Y-86366400D02*
X93941400Y-86368100D01*
X104861900Y-98706600D02*
X104531900Y-99122500D01*
X96206800Y-54239700D02*
X95762900Y-53156000D01*
X36029400Y-86099400D02*
X36663800Y-85795900D01*
X38208300Y-99120100D02*
X37538900Y-99156200D01*
X32198700Y-55361100D02*
X31853900Y-56300700D01*
X75545800Y-33293900D02*
X75428500Y-33980800D01*
X96153100Y-101357500D02*
X95836500Y-101078800D01*
X37434300Y-86857500D02*
X37552200Y-87316200D01*
X67936200Y-124019400D02*
X68350900Y-124131400D01*
X42793900Y-123226400D02*
X43182100Y-123142400D01*
X103917900Y-99993200D02*
X103631900Y-100444300D01*
X92262200Y-99385100D02*
X91567200Y-99244600D01*
X52715900Y-31289300D02*
X52451400Y-30648500D01*
X96641600Y-55361100D02*
X96206800Y-54239700D01*
X116062900Y-98940600D02*
X115956900Y-98582000D01*
X38439000Y-88590100D02*
X38639700Y-88701900D01*
X47880400Y-25524520D02*
X47426900Y-25301360D01*
X39314400Y-88988800D02*
X40205200Y-89337800D01*
X86522000Y-123321400D02*
X87095000Y-123312400D01*
X61527700Y-123396400D02*
X61873400Y-123192400D01*
X33820100Y-35763400D02*
X33893700Y-36174500D01*
X100510500Y-107712300D02*
X100284900Y-108253200D01*
X35630800Y-40218800D02*
X35894200Y-40578200D01*
X81413600Y-25301460D02*
X80960100Y-25524600D01*
X53412000Y-33980800D02*
X53294600Y-33293900D01*
X29357000Y-66322100D02*
X29248000Y-67199800D01*
X104843900Y-114941500D02*
X105155900Y-114530200D01*
X95836500Y-101078800D02*
X95507000Y-100818900D01*
X33982600Y-36580600D02*
X34086500Y-36981100D01*
X55190500Y-124208400D02*
X55898900Y-124317400D01*
X68777200Y-124224400D02*
X69215000Y-124299400D01*
X60420100Y-123897400D02*
X60800800Y-123749400D01*
X106218900Y-112903900D02*
X106658900Y-112107600D01*
X61170100Y-123582400D02*
X61527700Y-123396400D01*
X67383400Y-33820500D02*
X66510100Y-33767000D01*
X89437100Y-122778400D02*
X90026800Y-122525400D01*
X38098300Y-88303300D02*
X38258900Y-88456500D01*
X39553200Y-25542550D02*
X38697400Y-25950230D01*
X99488400Y-76393300D02*
X99596700Y-75595900D01*
X35436600Y-120539400D02*
X35833500Y-120878400D01*
X90895200Y-88127600D02*
X91018200Y-87942200D01*
X108579900Y-95880200D02*
X108094900Y-96090500D01*
X62837100Y-122473400D02*
X63133300Y-122197400D01*
X74442200Y-123869400D02*
X75148100Y-123649400D01*
X34086500Y-36981100D02*
X34204800Y-37374900D01*
X88916200Y-99204100D02*
X88286600Y-99323900D01*
X31241300Y-115024900D02*
X31537800Y-115577800D01*
X34337200Y-37761500D02*
X34483200Y-38139800D01*
X93465100Y-39840400D02*
X93710200Y-39443000D01*
X34681600Y-38592500D02*
X34898100Y-39027000D01*
X32587500Y-101078800D02*
X32270800Y-101357500D01*
X29983300Y-79497300D02*
X30190700Y-80250900D01*
X115956900Y-98582000D02*
X115814900Y-98227100D01*
X95078000Y-35348100D02*
X95119600Y-34929400D01*
X31638500Y-82972500D02*
X31793600Y-82966900D01*
X34057600Y-86022000D02*
X34141100Y-86095300D01*
X46831400Y-120950400D02*
X47232700Y-120459400D01*
X90884900Y-99156300D02*
X90215500Y-99120200D01*
X92280700Y-46086900D02*
X91550800Y-44838100D01*
X98948500Y-107473200D02*
X98869800Y-106728000D01*
X112229900Y-95450600D02*
X111747900Y-95381500D01*
X36856600Y-99244400D02*
X36161700Y-99384900D01*
X110010900Y-105887900D02*
X110353900Y-105524800D01*
X32270800Y-101357500D02*
X31967600Y-101654200D01*
X97521900Y-103008600D02*
X97278900Y-102646200D01*
X59044600Y-34079100D02*
X58312500Y-34191000D01*
X50626500Y-122510400D02*
X51213600Y-122833400D01*
X31949000Y-82930300D02*
X34366700Y-82104700D01*
X29037500Y-73154900D02*
X29086500Y-73976500D01*
X36663800Y-85795900D02*
X37318600Y-85480900D01*
X29086500Y-73976500D02*
X29155200Y-74790200D01*
X115400900Y-102114200D02*
X115614900Y-101805300D01*
X99832000Y-72325700D02*
X99841400Y-71489000D01*
X71222500Y-34312300D02*
X70528100Y-34191000D01*
X75428500Y-33980800D02*
X75350800Y-34672600D01*
X109609900Y-95557700D02*
X109084900Y-95701900D01*
X34350600Y-99979600D02*
X33976200Y-100158100D01*
X84793400Y-24548490D02*
X84152100Y-24580430D01*
X28998900Y-71489000D02*
X29008400Y-72325700D01*
X29352000Y-76393300D02*
X29480100Y-77182400D01*
X75895100Y-31945500D02*
X75701800Y-32614600D01*
X92176600Y-85795900D02*
X92811000Y-86099400D01*
X39539500Y-122972400D02*
X39955200Y-123091400D01*
X67142700Y-123740400D02*
X67533400Y-123889400D01*
X34454900Y-30331100D02*
X34290000Y-30734000D01*
X37723400Y-87746800D02*
X37831600Y-87946300D01*
X36559700Y-46086900D02*
X35747100Y-47559200D01*
X105155900Y-114530200D02*
X105721900Y-113712400D01*
X38639700Y-88701900D02*
X39314400Y-88988800D01*
X36161700Y-99384900D02*
X35454400Y-99577800D01*
X94699200Y-86095300D02*
X94782700Y-86022000D01*
X92351900Y-121070400D02*
X92916500Y-120600400D01*
X35044700Y-120180400D02*
X35436600Y-120539400D01*
X98975600Y-108233700D02*
X98948500Y-107473200D01*
X114130900Y-103230400D02*
X114513900Y-102973500D01*
X88365200Y-89410200D02*
X89365900Y-89038700D01*
X91216500Y-87533200D02*
X91293800Y-87314000D01*
X36578600Y-27399040D02*
X36230900Y-27729800D01*
X33527200Y-52112000D02*
X33077500Y-53156000D01*
X88259400Y-123143400D02*
X88847400Y-122984400D01*
X91522600Y-85481200D02*
X92176600Y-85795900D01*
X76687300Y-30025900D02*
X76389000Y-30648500D01*
X94921300Y-31972000D02*
X94817800Y-31555300D01*
X29517600Y-109573900D02*
X29608000Y-110239700D01*
X91344600Y-42321900D02*
X91865400Y-41820700D01*
X33762300Y-35348100D02*
X33820100Y-35763400D01*
X40521400Y-97179900D02*
X40313900Y-98256800D01*
X40782000Y-123256400D02*
X41191800Y-123302400D01*
X35833500Y-120878400D02*
X36235000Y-121197400D01*
X93093300Y-47559200D02*
X92280700Y-46086900D01*
X95596500Y-119778400D02*
X96101700Y-119794400D01*
X83608700Y-122503400D02*
X84214200Y-122787400D01*
X52945400Y-31945500D02*
X52715900Y-31289300D01*
X41311000Y-89734100D02*
X42630600Y-90162900D01*
X100915900Y-118439400D02*
X101389500Y-118151400D01*
X32494800Y-117140800D02*
X32834200Y-117628400D01*
X34022500Y-31555300D02*
X33919000Y-31972000D01*
X101616300Y-104642700D02*
X101284900Y-105528100D01*
X33823600Y-85430800D02*
X33828000Y-85540300D01*
X38864600Y-99136100D02*
X38208300Y-99120100D01*
X77137900Y-122819400D02*
X77746500Y-122494400D01*
X98321400Y-104599900D02*
X98148700Y-104182200D01*
X33612000Y-100357900D02*
X33258700Y-100578400D01*
X94385400Y-30331100D02*
X94199200Y-29934500D01*
X64175700Y-33721600D02*
X63237200Y-33733300D01*
X115791900Y-101488800D02*
X115932900Y-101166900D01*
X45298600Y-24656090D02*
X44688400Y-24580400D01*
X41938100Y-24762920D02*
X41173700Y-24953650D01*
X91199400Y-121884400D02*
X91779000Y-121498400D01*
X97908300Y-82455000D02*
X98175300Y-81730000D01*
X98422400Y-80995200D02*
X98649700Y-80250900D01*
X72247900Y-124316400D02*
X72988500Y-124205400D01*
X40760300Y-96095600D02*
X40521400Y-97179900D01*
X109138900Y-107069300D02*
X109406900Y-106660500D01*
X104509900Y-115354100D02*
X104843900Y-114941500D01*
X110154900Y-95449300D02*
X109609900Y-95557700D01*
X115429900Y-97540600D02*
X115188900Y-97215100D01*
X94448000Y-100158100D02*
X94073500Y-99979600D01*
X49218400Y-26394950D02*
X48692300Y-26011730D01*
X99354700Y-65438200D02*
X99206400Y-64548400D01*
X41671400Y-92832900D02*
X41447400Y-93542200D01*
X55234500Y-34848800D02*
X54292300Y-35118500D01*
X40369600Y-123186400D02*
X40782000Y-123256400D01*
X59624800Y-124138400D02*
X60028000Y-124027400D01*
X107052900Y-111326600D02*
X107412900Y-110563900D01*
X95006100Y-85320300D02*
X94473700Y-82104700D01*
X69796000Y-34079100D02*
X69027300Y-33978600D01*
X92811000Y-86099400D02*
X93135400Y-86226500D01*
X41173700Y-24953650D02*
X40378600Y-25211950D01*
X87283500Y-94594900D02*
X86983500Y-93566200D01*
X29485600Y-65438200D02*
X29357000Y-66322100D01*
X81592400Y-120951400D02*
X82035100Y-121401400D01*
X93209600Y-40218800D02*
X93465100Y-39840400D01*
X80216300Y-120645400D02*
X80570200Y-120250400D01*
X29901200Y-105178100D02*
X29736800Y-105770800D01*
X91018200Y-87942200D02*
X91125000Y-87743300D01*
X94405200Y-86267100D02*
X94554000Y-86192800D01*
X33697300Y-33661400D02*
X33687800Y-34085300D01*
X99799400Y-109216300D02*
X99543800Y-109632900D01*
X84859800Y-123030400D02*
X85402700Y-123181400D01*
X84152100Y-24580430D02*
X83541900Y-24656150D01*
X54292300Y-35118500D02*
X53526300Y-35366800D01*
X83043500Y-122177400D02*
X83608700Y-122503400D01*
X114915900Y-96905800D02*
X114613900Y-96615500D01*
X103358900Y-100903400D02*
X102853900Y-101838300D01*
X104217900Y-99552000D02*
X103917900Y-99993200D01*
X99206400Y-64548400D02*
X99038300Y-63652700D01*
X74548000Y-35118500D02*
X73605800Y-34848800D01*
X33695700Y-34508200D02*
X33720700Y-34929400D01*
X35332200Y-28789800D02*
X35079400Y-29163000D01*
X94552000Y-119654400D02*
X95079800Y-119732400D01*
X80570200Y-120250400D02*
X80831300Y-119928400D01*
X97617200Y-58167200D02*
X97311600Y-57236100D01*
X93710200Y-39443000D02*
X93942300Y-39027000D01*
X36162900Y-40918300D02*
X36434300Y-41238900D01*
X36640500Y-121496400D02*
X37049300Y-121773400D01*
X29634000Y-64548400D02*
X29485600Y-65438200D01*
X110728900Y-105177500D02*
X111139900Y-104846200D01*
X47426900Y-25301360D02*
X46941900Y-25098180D01*
X63416600Y-121904400D02*
X63686800Y-121594400D01*
X37976200Y-42740900D02*
X38395500Y-43075900D01*
X64475700Y-121901400D02*
X64762700Y-122193400D01*
X91550800Y-44838100D02*
X90930000Y-43829100D01*
X114513900Y-102973500D02*
X114851900Y-102700400D01*
X102617700Y-117254200D02*
X102959900Y-116962200D01*
X35380000Y-86319900D02*
X35705000Y-86226600D01*
X91865400Y-41820700D02*
X92406100Y-41238900D01*
X95144600Y-34508200D02*
X95152500Y-34085300D01*
X64665300Y-33721600D02*
X64628400Y-33721600D01*
X111590900Y-104531200D02*
X112086900Y-104232800D01*
X95069700Y-32813800D02*
X95005100Y-32391800D01*
X38697400Y-25950230D02*
X38221500Y-26209990D01*
X98869800Y-106728000D02*
X98739200Y-105999500D01*
X101389500Y-118151400D02*
X101831700Y-117854400D01*
X93460300Y-86319800D02*
X93782500Y-86366400D01*
M02*
