M48
; DRILL file {KiCad 8.0.1} date 2024-04-02T10:31:54+0200
; FORMAT={-:-/ absolute / inch / decimal}
; #@! TF.CreationDate,2024-04-02T10:31:54+02:00
; #@! TF.GenerationSoftware,Kicad,Pcbnew,8.0.1
; #@! TF.FileFunction,Plated,1,2,PTH
FMAT,2
INCH
; #@! TA.AperFunction,Plated,PTH,ComponentDrill
T1C0.0315
; #@! TA.AperFunction,Plated,PTH,ComponentDrill
T2C0.0354
; #@! TA.AperFunction,Plated,PTH,ComponentDrill
T3C0.0394
%
G90
G05
T1
X1.46Y-4.43
X1.56Y-4.33
X1.6596Y-3.0704
X1.6596Y-3.1704
X1.6596Y-3.2704
X1.6596Y-3.3704
X1.66Y-4.43
X1.9596Y-3.0704
X1.9596Y-3.1704
X1.9596Y-3.2704
X1.9596Y-3.3704
X2.34Y-3.39
X2.34Y-3.5494
X2.34Y-3.7089
X2.34Y-3.8683
X2.34Y-4.0278
X2.34Y-4.1872
X2.74Y-3.39
X2.74Y-3.5494
X2.74Y-3.7089
X2.74Y-3.8683
X2.74Y-4.0278
X2.74Y-4.1872
X2.89Y-3.04
X2.89Y-3.34
X3.2762Y-3.15
X3.2762Y-3.2484
X3.42Y-4.4
X3.52Y-4.3
X3.62Y-4.4
T2
X1.83Y-2.35
X1.93Y-2.35
X3.21Y-2.35
X3.31Y-2.35
T3
X3.55Y-3.02
X3.55Y-3.12
X3.55Y-3.22
M30
