%TF.GenerationSoftware,KiCad,Pcbnew,8.0.1*%
%TF.CreationDate,2024-04-02T10:31:50+02:00*%
%TF.ProjectId,Tiger,54696765-722e-46b6-9963-61645f706362,rev?*%
%TF.SameCoordinates,Original*%
%TF.FileFunction,Soldermask,Bot*%
%TF.FilePolarity,Negative*%
%FSLAX46Y46*%
G04 Gerber Fmt 4.6, Leading zero omitted, Abs format (unit mm)*
G04 Created by KiCad (PCBNEW 8.0.1) date 2024-04-02 10:31:50*
%MOMM*%
%LPD*%
G01*
G04 APERTURE LIST*
G04 Aperture macros list*
%AMRoundRect*
0 Rectangle with rounded corners*
0 $1 Rounding radius*
0 $2 $3 $4 $5 $6 $7 $8 $9 X,Y pos of 4 corners*
0 Add a 4 corners polygon primitive as box body*
4,1,4,$2,$3,$4,$5,$6,$7,$8,$9,$2,$3,0*
0 Add four circle primitives for the rounded corners*
1,1,$1+$1,$2,$3*
1,1,$1+$1,$4,$5*
1,1,$1+$1,$6,$7*
1,1,$1+$1,$8,$9*
0 Add four rect primitives between the rounded corners*
20,1,$1+$1,$2,$3,$4,$5,0*
20,1,$1+$1,$4,$5,$6,$7,0*
20,1,$1+$1,$6,$7,$8,$9,0*
20,1,$1+$1,$8,$9,$2,$3,0*%
G04 Aperture macros list end*
%ADD10C,0.300000*%
%ADD11RoundRect,0.200000X-0.900000X-0.900000X0.900000X-0.900000X0.900000X0.900000X-0.900000X0.900000X0*%
%ADD12C,2.200000*%
%ADD13RoundRect,0.200000X-0.750000X-0.750000X0.750000X-0.750000X0.750000X0.750000X-0.750000X0.750000X0*%
%ADD14C,1.900000*%
%ADD15C,3.400000*%
%ADD16C,2.000000*%
%ADD17O,2.000000X2.000000*%
%ADD18RoundRect,0.200000X-0.800000X0.800000X-0.800000X-0.800000X0.800000X-0.800000X0.800000X0.800000X0*%
%ADD19C,2.400000*%
%ADD20RoundRect,0.200000X2.500000X1.000000X-2.500000X1.000000X-2.500000X-1.000000X2.500000X-1.000000X0*%
%ADD21C,18.180000*%
%ADD22RoundRect,0.200000X0.800000X0.800000X-0.800000X0.800000X-0.800000X-0.800000X0.800000X-0.800000X0*%
G04 APERTURE END LIST*
D10*
X70410489Y-68354828D02*
X70410489Y-66854828D01*
X69553346Y-68354828D02*
X70196203Y-67497685D01*
X69553346Y-66854828D02*
X70410489Y-67711971D01*
X68910489Y-68354828D02*
X68910489Y-66854828D01*
X68910489Y-67569114D02*
X68053346Y-67569114D01*
X68053346Y-68354828D02*
X68053346Y-66854828D01*
X66839060Y-67569114D02*
X67339060Y-67569114D01*
X67339060Y-68354828D02*
X67339060Y-66854828D01*
X67339060Y-66854828D02*
X66624774Y-66854828D01*
X64624774Y-66854828D02*
X64481917Y-66854828D01*
X64481917Y-66854828D02*
X64339060Y-66926257D01*
X64339060Y-66926257D02*
X64267632Y-66997685D01*
X64267632Y-66997685D02*
X64196203Y-67140542D01*
X64196203Y-67140542D02*
X64124774Y-67426257D01*
X64124774Y-67426257D02*
X64124774Y-67783400D01*
X64124774Y-67783400D02*
X64196203Y-68069114D01*
X64196203Y-68069114D02*
X64267632Y-68211971D01*
X64267632Y-68211971D02*
X64339060Y-68283400D01*
X64339060Y-68283400D02*
X64481917Y-68354828D01*
X64481917Y-68354828D02*
X64624774Y-68354828D01*
X64624774Y-68354828D02*
X64767632Y-68283400D01*
X64767632Y-68283400D02*
X64839060Y-68211971D01*
X64839060Y-68211971D02*
X64910489Y-68069114D01*
X64910489Y-68069114D02*
X64981917Y-67783400D01*
X64981917Y-67783400D02*
X64981917Y-67426257D01*
X64981917Y-67426257D02*
X64910489Y-67140542D01*
X64910489Y-67140542D02*
X64839060Y-66997685D01*
X64839060Y-66997685D02*
X64767632Y-66926257D01*
X64767632Y-66926257D02*
X64624774Y-66854828D01*
X62696203Y-68354828D02*
X63553346Y-68354828D01*
X63124775Y-68354828D02*
X63124775Y-66854828D01*
X63124775Y-66854828D02*
X63267632Y-67069114D01*
X63267632Y-67069114D02*
X63410489Y-67211971D01*
X63410489Y-67211971D02*
X63553346Y-67283400D01*
X62053347Y-68211971D02*
X61981918Y-68283400D01*
X61981918Y-68283400D02*
X62053347Y-68354828D01*
X62053347Y-68354828D02*
X62124775Y-68283400D01*
X62124775Y-68283400D02*
X62053347Y-68211971D01*
X62053347Y-68211971D02*
X62053347Y-68354828D01*
X61410489Y-66997685D02*
X61339061Y-66926257D01*
X61339061Y-66926257D02*
X61196204Y-66854828D01*
X61196204Y-66854828D02*
X60839061Y-66854828D01*
X60839061Y-66854828D02*
X60696204Y-66926257D01*
X60696204Y-66926257D02*
X60624775Y-66997685D01*
X60624775Y-66997685D02*
X60553346Y-67140542D01*
X60553346Y-67140542D02*
X60553346Y-67283400D01*
X60553346Y-67283400D02*
X60624775Y-67497685D01*
X60624775Y-67497685D02*
X61481918Y-68354828D01*
X61481918Y-68354828D02*
X60553346Y-68354828D01*
X59624775Y-66854828D02*
X59481918Y-66854828D01*
X59481918Y-66854828D02*
X59339061Y-66926257D01*
X59339061Y-66926257D02*
X59267633Y-66997685D01*
X59267633Y-66997685D02*
X59196204Y-67140542D01*
X59196204Y-67140542D02*
X59124775Y-67426257D01*
X59124775Y-67426257D02*
X59124775Y-67783400D01*
X59124775Y-67783400D02*
X59196204Y-68069114D01*
X59196204Y-68069114D02*
X59267633Y-68211971D01*
X59267633Y-68211971D02*
X59339061Y-68283400D01*
X59339061Y-68283400D02*
X59481918Y-68354828D01*
X59481918Y-68354828D02*
X59624775Y-68354828D01*
X59624775Y-68354828D02*
X59767633Y-68283400D01*
X59767633Y-68283400D02*
X59839061Y-68211971D01*
X59839061Y-68211971D02*
X59910490Y-68069114D01*
X59910490Y-68069114D02*
X59981918Y-67783400D01*
X59981918Y-67783400D02*
X59981918Y-67426257D01*
X59981918Y-67426257D02*
X59910490Y-67140542D01*
X59910490Y-67140542D02*
X59839061Y-66997685D01*
X59839061Y-66997685D02*
X59767633Y-66926257D01*
X59767633Y-66926257D02*
X59624775Y-66854828D01*
X58553347Y-66997685D02*
X58481919Y-66926257D01*
X58481919Y-66926257D02*
X58339062Y-66854828D01*
X58339062Y-66854828D02*
X57981919Y-66854828D01*
X57981919Y-66854828D02*
X57839062Y-66926257D01*
X57839062Y-66926257D02*
X57767633Y-66997685D01*
X57767633Y-66997685D02*
X57696204Y-67140542D01*
X57696204Y-67140542D02*
X57696204Y-67283400D01*
X57696204Y-67283400D02*
X57767633Y-67497685D01*
X57767633Y-67497685D02*
X58624776Y-68354828D01*
X58624776Y-68354828D02*
X57696204Y-68354828D01*
X56410491Y-67354828D02*
X56410491Y-68354828D01*
X56767633Y-66783400D02*
X57124776Y-67854828D01*
X57124776Y-67854828D02*
X56196205Y-67854828D01*
D11*
%TO.C,D1*%
X46482000Y-59690000D03*
D12*
X49022000Y-59690000D03*
%TD*%
D13*
%TO.C,Q2*%
X86868000Y-111760000D03*
D14*
X89408000Y-109220000D03*
X91948000Y-111760000D03*
%TD*%
D15*
%TO.C,*%
X83820000Y-50292000D03*
%TD*%
%TO.C,*%
X43180000Y-50546000D03*
%TD*%
D11*
%TO.C,D2*%
X81534000Y-59690000D03*
D12*
X84074000Y-59690000D03*
%TD*%
D13*
%TO.C,Q1*%
X37084000Y-112522000D03*
D14*
X39624000Y-109982000D03*
X42164000Y-112522000D03*
%TD*%
D16*
%TO.C,R4*%
X69596000Y-90156000D03*
D17*
X59436000Y-90156000D03*
%TD*%
D18*
%TO.C,D3*%
X73406000Y-77216000D03*
D17*
X73406000Y-84836000D03*
%TD*%
D16*
%TO.C,R3*%
X69596000Y-86106000D03*
D17*
X59436000Y-86106000D03*
%TD*%
D19*
%TO.C,S1*%
X90170000Y-76708000D03*
X90170000Y-79248000D03*
X90170000Y-81788000D03*
%TD*%
D20*
%TO.C,U2*%
X77978000Y-46228000D03*
X77978000Y-42672000D03*
X52084000Y-46228000D03*
X52084000Y-42672000D03*
D21*
X65024000Y-44196000D03*
%TD*%
D22*
%TO.C,U1*%
X49774000Y-77988000D03*
D17*
X49774000Y-80528000D03*
X49774000Y-83068000D03*
X49774000Y-85608000D03*
X42154000Y-85608000D03*
X42154000Y-83068000D03*
X42154000Y-80528000D03*
X42154000Y-77988000D03*
%TD*%
D15*
%TO.C,Q*%
X54610000Y-83058000D03*
%TD*%
D16*
%TO.C,R1off1*%
X69596000Y-106356000D03*
D17*
X59436000Y-106356000D03*
%TD*%
D16*
%TO.C,R5*%
X69596000Y-94206000D03*
D17*
X59436000Y-94206000D03*
%TD*%
D18*
%TO.C,C1*%
X83216000Y-80010000D03*
D16*
X83216000Y-82510000D03*
%TD*%
%TO.C,R6*%
X69596000Y-98256000D03*
D17*
X59436000Y-98256000D03*
%TD*%
D16*
%TO.C,R7*%
X69596000Y-102306000D03*
D17*
X59436000Y-102306000D03*
%TD*%
M02*
