<?xml version="1.0" encoding="UTF-8" standalone="no"?>
<!-- Created with Inkscape (http://www.inkscape.org/) -->

<svg
   width="200.0mm"
   height="200.0mm"
   viewBox="0 0 200.0 200.0"
   version="1.1"
   id="svg1055"
   inkscape:version="1.1 (c68e22c387, 2021-05-23)"
   sodipodi:docname="Fledermaus I.svg"
   xmlns:inkscape="http://www.inkscape.org/namespaces/inkscape"
   xmlns:sodipodi="http://sodipodi.sourceforge.net/DTD/sodipodi-0.dtd"
   xmlns="http://www.w3.org/2000/svg"
   xmlns:svg="http://www.w3.org/2000/svg"
   xmlns:rdf="http://www.w3.org/1999/02/22-rdf-syntax-ns#"
   xmlns:cc="http://creativecommons.org/ns#"
   xmlns:dc="http://purl.org/dc/elements/1.1/">
  <sodipodi:namedview
     id="base"
     pagecolor="#ffffff"
     bordercolor="#666666"
     borderopacity="1.0"
     inkscape:pageopacity="0.0"
     inkscape:pageshadow="2"
     inkscape:zoom="0.78811315"
     inkscape:cx="380.02157"
     inkscape:cy="354.64451"
     inkscape:document-units="mm"
     inkscape:current-layer="g1668"
     showgrid="true"
     inkscape:window-width="1920"
     inkscape:window-height="1017"
     inkscape:window-x="-8"
     inkscape:window-y="-8"
     inkscape:window-maximized="1"
     inkscape:measure-start="82.1658,484.405"
     inkscape:measure-end="623.549,458.414"
     borderlayer="true"
     inkscape:snap-global="false"
     inkscape:pagecheckerboard="0">
    <inkscape:grid
       id="grid1629"
       units="mm"
       type="xygrid"
       empspacing="1"
       spacingy="2.54"
       spacingx="2.54" />
  </sodipodi:namedview>
  <defs
     id="defs1049" />
  <metadata
     id="metadata1052">
    <rdf:RDF>
      <cc:Work
         rdf:about="">
        <dc:format>image/svg+xml</dc:format>
        <dc:type
           rdf:resource="http://purl.org/dc/dcmitype/StillImage" />
      </cc:Work>
    </rdf:RDF>
  </metadata>
  <g
     style="display:inline;opacity:1"
     id="g1668"
     inkscape:groupmode="layer"
     inkscape:label="Edge.Cuts">
    <path
       sodipodi:nodetypes="cccccccccccccccccccccccccccscscccccccccccccccccccccccccccccccccccsccsc"
       inkscape:connector-curvature="0"
       id="path1790-1"
       d="M 25.0273 66.9224 L 25.9598 66.0525 L 26.9092 65.2176 L 27.8752 64.4172 L 28.8576 63.651 L 29.8562 62.9188 L 30.8707 62.22 L 31.901 61.5545 L 32.9468 60.9218 L 34.008 60.3216 L 35.0843 59.7535 L 36.1754 59.2172 L 37.2813 58.7123 L 38.4016 58.2386 L 39.5362 57.7955 L 40.6849 57.3829 L 41.8474 57.0003 L 43.0235 56.6474 L 44.213 56.3239 L 45.4157 56.0294 L 46.6314 55.7635 L 47.8599 55.5259 L 49.1009 55.3162 L 50.3543 55.1341 L 51.6199 54.9793 L 52.8973 54.8514 L 54.1865 54.7501 L 55.4871 54.675 L 56.799 54.6257 L 58.122 54.6019 L 59.4559 54.6033 L 60.8004 54.6295 L 62.1554 54.6801 L 63.9033 54.9722 L 64.7649 55.1364 L 65.601 55.3197 L 66.3984 55.5278 L 67.1439 55.7658 L 67.4932 55.8978 L 67.8247 56.0393 L 68.1367 56.1909 L 68.4276 56.3535 L 68.6957 56.5276 L 68.9394 56.7139 L 69.1572 56.9131 L 69.3473 57.1258 L 69.5081 57.3528 L 69.638 57.5947 L 69.7353 57.8522 L 69.7985 58.1259 L 69.8258 58.4166 L 69.8157 58.7248 L 69.7665 59.0514 L 69.6766 59.3968 L 69.5443 59.7619 L 69.3681 60.1473 L 69.1462 60.5536 L 68.8771 60.9816 L 68.5113 62.0852 L 68.1875 63.158 L 67.9048 64.2005 L 67.6622 65.2136 L 67.459 66.1977 L 67.2942 67.1535 L 67.167 68.0818 L 67.0765 68.983 L 67.0219 69.8579 L 67.0022 70.7071 L 67.0167 71.5313 L 67.0644 72.331 L 67.1444 73.1069 L 67.256 73.8597 L 67.3981 74.59 L 67.57 75.2984 L 67.7708 75.9856 L 67.9996 76.6522 L 68.2556 77.2989 L 68.5378 77.9263 L 68.8454 78.535 L 69.1775 79.1256 L 69.5333 79.6989 L 69.9118 80.2555 L 70.3123 80.7959 L 70.7338 81.3209 L 71.1755 81.8311 L 71.6364 82.327 L 72.1159 82.8095 L 72.6128 83.279 L 73.1265 83.7363 L 73.6559 84.1819 L 73.7821 83.2359 L 73.9162 82.2352 L 73.9956 81.7465 L 74.0881 81.2826 L 74.1975 80.8565 L 74.3274 80.4809 L 74.4816 80.1688 L 74.569 80.0405 L 74.6638 79.9329 L 74.7666 79.8476 L 74.8778 79.7862 L 74.9978 79.7503 L 75.1272 79.7415 L 75.2664 79.7614 L 75.4158 79.8116 L 75.5759 79.8937 L 75.7472 80.0094 L 75.9301 80.1602 L 76.1252 80.3477 L 76.3329 80.5736 L 76.5535 80.8395 L 76.092 79.2022 L 75.6664 77.5933 L 75.2769 76.0086 L 74.9235 74.444 L 74.6064 72.8952 L 74.3255 71.3581 L 74.081 69.8285 L 73.8729 68.3022 L 73.7014 66.775 L 73.5664 65.2429 L 73.4682 63.7015 L 73.4067 62.1467 L 73.3821 60.5744 L 73.3944 58.9803 L 73.4437 57.3602 L 73.5301 55.7101 L 73.5231 54.789 L 73.5561 54.0006 L 73.6273 53.3395 L 73.7347 52.8006 L 73.8013 52.5753 L 73.8762 52.3786 L 73.9592 52.2098 L 74.0499 52.0682 L 74.1482 51.9532 L 74.2538 51.8641 L 74.3663 51.8003 L 74.4857 51.7611 L 74.6115 51.7459 L 74.7436 51.754 L 74.8817 51.7847 L 75.0256 51.8374 L 75.175 51.9114 L 75.3296 52.006 L 75.6536 52.2547 L 75.9956 52.5782 L 76.3536 52.9711 L 76.7255 53.4283 L 77.1093 53.9444 L 78.602 55.7432 L 79.9886 57.4446 L 81.2753 59.0605 L 82.4686 60.6029 L 83.5746 62.0839 L 84.5999 63.5154 L 85.5507 64.9095 L 86.4334 66.2782 L 87.2543 67.6335 L 88.0198 68.9874 L 88.7362 70.3519 L 89.41 71.7391 L 90.0473 73.161 L 90.6547 74.6295 L 91.2383 76.1566 L 91.8047 77.7545 L 93.5708 76.3589 L 92.5234 79.094 L 93.3189 79.4456 L 93.7167 79.6355 L 94.1145 79.847 L 94.5123 80.089 L 94.9101 80.3708 L 95.3079 80.7013 L 95.7057 81.0896 L 95.8883 80.7643 L 96.1052 80.4558 L 96.3499 80.1637 L 96.616 79.8878 L 96.8971 79.6276 L 97.1866 79.3827 L 97.7651 78.9378 L 98.2999 78.5501 L 98.7394 78.2168 L 98.9072 78.0697 L 99.0318 77.935 L 99.1067 77.8126 L 99.1254 77.7019 L 100.085 78.6102 L 100.182 77.2554 L 100.806 78.4474 L 101.106 77.6154 L 101.422 76.7992 L 101.755 75.9985 L 102.103 75.2125 L 102.466 74.4409 L 102.844 73.6829 L 103.236 72.9382 L 103.642 72.2062 L 104.062 71.4863 L 104.494 70.7779 L 104.939 70.0807 L 105.396 69.3939 L 106.343 68.0496 L 107.334 66.741 L 108.363 65.4635 L 109.428 64.2129 L 110.524 62.9849 L 111.649 61.7751 L 112.798 60.5792 L 113.969 59.393 L 116.358 57.032 L 116.807 56.5933 L 117.233 56.1977 L 117.635 55.8513 L 118.009 55.5601 L 118.354 55.3304 L 118.667 55.1681 L 118.81 55.1143 L 118.945 55.0796 L 119.071 55.0648 L 119.187 55.0708 L 119.293 55.0983 L 119.389 55.1479 L 119.475 55.2206 L 119.551 55.3171 L 119.615 55.4381 L 119.668 55.5844 L 119.709 55.7568 L 119.739 55.956 L 119.762 56.438 L 119.733 57.0366 L 119.651 57.7578 L 119.513 58.6078 L 119.542 60.173 L 119.529 61.742 L 119.477 63.3145 L 119.389 64.8903 L 119.269 66.4691 L 119.118 68.0506 L 118.941 69.6345 L 118.739 71.2206 L 118.517 72.8087 L 118.276 74.3984 L 117.751 77.5817 L 117.189 80.7684 L 116.613 83.9564 L 118.473 84.7146 L 116.117 86.6369 L 118.128 87.8355 L 120.298 85.5751 L 121.364 84.4292 L 122.402 83.2611 L 123.402 82.0624 L 123.884 81.4488 L 124.352 80.8243 L 124.806 80.1878 L 125.243 79.5382 L 125.662 78.8745 L 126.062 78.1955 L 126.332 77.5703 L 126.571 76.9638 L 126.782 76.3757 L 126.965 75.8053 L 127.121 75.2523 L 127.252 74.716 L 127.358 74.1961 L 127.442 73.6919 L 127.504 73.2031 L 127.546 72.7291 L 127.568 72.2693 L 127.572 71.8234 L 127.559 71.3907 L 127.53 70.9709 L 127.487 70.5633 L 127.43 70.1676 L 127.282 69.4095 L 127.094 68.6926 L 126.877 68.0129 L 126.64 67.3665 L 126.145 66.1572 L 125.687 65.0328 L 125.443 64.5602 L 125.157 64.0876 L 124.517 63.1424 L 124.193 62.6698 L 123.887 62.1972 L 123.615 61.7246 L 123.391 61.252 L 123.302 61.0157 L 123.231 60.7794 L 123.18 60.5431 L 123.15 60.3068 L 123.144 60.0705 L 123.163 59.8342 L 123.21 59.5979 L 123.286 59.3616 L 123.393 59.1253 L 123.533 58.889 L 123.708 58.6527 L 123.92 58.4164 L 124.171 58.1801 L 124.462 57.9438 L 124.796 57.7075 L 125.175 57.4712 L 126.138 57.4239 L 127.089 57.394 L 128.028 57.3813 L 128.955 57.3853 L 129.871 57.4057 L 130.775 57.442 L 131.668 57.494 L 132.55 57.5612 L 133.42 57.6432 L 134.28 57.7398 L 135.128 57.8504 L 135.967 57.9747 L 137.612 58.2629 L 139.215 58.6014 L 140.78 58.9871 L 142.305 59.4171 L 143.793 59.8882 L 145.245 60.3974 L 146.662 60.9417 L 148.044 61.5181 L 149.394 62.1235 L 150.711 62.7549 L 151.998 63.4093 L 153.256 64.0835 L 154.485 64.7746 L 155.687 65.4796 L 156.863 66.1953 L 158.013 66.9188 L 160.245 68.377 L 162.39 69.8298 L 164.457 71.2529 L 166.457 72.622 L 168.398 73.9128 L 167.789 74.0516 L 167.204 74.208 L 166.643 74.382 L 166.108 74.5735 L 165.598 74.7822 L 165.113 75.0082 L 164.653 75.2512 L 164.219 75.5111 L 163.811 75.7879 L 163.43 76.0813 L 163.074 76.3913 L 162.746 76.7178 L 162.444 77.0605 L 162.169 77.4195 L 161.921 77.7946 L 161.701 78.1856 L 161.509 78.5925 L 161.344 79.015 L 161.208 79.4532 L 161.1 79.9068 L 161.021 80.3757 L 160.97 80.8599 L 160.949 81.3592 L 160.957 81.8734 L 160.994 82.4025 L 161.061 82.9463 L 161.158 83.5047 L 161.285 84.0776 L 161.442 84.6649 L 161.63 85.2664 L 161.848 85.882 L 162.098 86.5116 L 166.886 93.254 L 166.018 92.7917 L 165.163 92.382 L 164.323 92.0232 L 163.498 91.7135 L 162.689 91.4511 L 161.895 91.2342 L 161.118 91.0612 L 160.359 90.9301 L 159.616 90.8392 L 158.892 90.7868 L 158.186 90.7711 L 157.5 90.7902 L 156.833 90.8425 L 156.186 90.9261 L 155.56 91.0393 L 154.955 91.1803 L 154.372 91.3473 L 153.81 91.5385 L 153.272 91.7522 L 152.756 91.9866 L 152.264 92.2399 L 151.797 92.5104 L 151.354 92.7962 L 150.936 93.0956 L 150.544 93.4068 L 150.179 93.728 L 149.84 94.0575 L 149.528 94.3935 L 149.244 94.7342 L 148.988 95.0779 L 148.761 95.4227 L 148.563 95.7669 L 148.365 96.1832 L 148.211 96.5976 L 148.096 97.0095 L 148.018 97.4185 L 147.97 97.8243 L 147.949 98.2263 L 147.95 98.6241 L 147.969 99.0172 L 148.044 99.788 L 148.138 100.535 L 148.215 101.255 L 148.236 101.603 L 148.24 101.943 L 147.398 101.262 L 146.633 100.59 L 145.248 99.301 L 144.586 98.6976 L 143.917 98.131 L 143.573 97.8636 L 143.22 97.608 L 142.854 97.3651 L 142.473 97.1357 L 141.309 96.4956 L 140.168 95.9194 L 139.051 95.4052 L 137.957 94.9512 L 136.886 94.5556 L 135.837 94.2167 L 134.811 93.9326 L 133.806 93.7016 L 132.823 93.5219 L 131.862 93.3917 L 130.921 93.3092 L 130 93.2725 L 129.099 93.28 L 128.219 93.3299 L 127.358 93.4202 L 126.515 93.5494 L 125.692 93.7155 L 124.887 93.9167 L 124.1 94.1514 L 123.331 94.4176 L 122.579 94.7137 L 121.844 95.0377 L 121.126 95.388 L 120.424 95.7628 L 119.738 96.1602 L 119.068 96.5784 L 118.413 97.0157 L 117.773 97.4703 L 117.148 97.9404 L 116.537 98.4242 L 115.94 98.9199 L 115.356 99.4257 L 116.425 101.186 L 116.94 102.078 L 117.428 102.987 L 117.877 103.918 L 118.084 104.394 L 118.277 104.879 L 118.455 105.373 L 118.617 105.876 L 118.761 106.39 L 118.886 106.916 L 119.597 106.03 L 120.275 105.255 L 120.919 104.593 L 121.227 104.306 L 121.528 104.049 L 121.819 103.823 L 122.102 103.629 L 122.376 103.466 L 122.642 103.335 L 122.898 103.237 L 123.146 103.173 L 123.385 103.143 L 123.616 103.147 L 123.837 103.186 L 124.049 103.261 L 124.253 103.372 L 124.447 103.52 L 124.633 103.705 L 124.809 103.928 L 124.976 104.189 L 125.135 104.489 L 125.284 104.829 L 125.424 105.208 L 125.555 105.629 L 125.676 106.09 L 125.789 106.593 L 125.892 107.138 L 125.986 107.726 L 126.07 108.357 L 126.221 107.751 L 126.389 107.246 L 126.571 106.825 L 126.763 106.466 L 126.963 106.152 L 127.167 105.863 L 127.574 105.283 L 128.624 104.477 L 129.062 104.167 L 129.442 103.922 L 129.763 103.742 L 130.023 103.628 L 130.221 103.582 L 130.297 103.584 L 130.357 103.603 L 130.402 103.64 L 130.43 103.694 L 130.443 103.765 L 130.439 103.855 L 130.382 104.087 L 130.259 104.392 L 130.069 104.77 L 129.812 105.222 L 129.485 105.75 L 129.088 106.354 L 130.729 105.845 L 131.057 105.981 L 131.408 106.138 L 131.571 106.227 L 131.715 106.323 L 131.832 106.426 L 131.914 106.538 L 131.951 106.659 L 131.936 106.789 L 131.861 106.929 L 131.717 107.08 L 131.495 107.242 L 131.189 107.416 L 130.789 107.602 L 130.287 107.801 L 128.268 107.925 L 128.268 109.125 L 129.656 108.871 L 129.973 108.749 L 130.263 108.684 L 130.523 108.67 L 130.752 108.702 L 130.948 108.774 L 131.11 108.881 L 131.234 109.019 L 131.321 109.181 L 131.367 109.364 L 131.371 109.561 L 131.331 109.767 L 131.246 109.978 L 131.114 110.188 L 130.932 110.392 L 130.7 110.585 L 130.415 110.762 L 130.029 110.735 L 129.663 110.724 L 129.316 110.731 L 128.988 110.755 L 128.678 110.795 L 128.387 110.851 L 128.114 110.924 L 127.859 111.012 L 127.621 111.117 L 127.402 111.237 L 127.199 111.372 L 127.014 111.523 L 126.846 111.689 L 126.695 111.87 L 126.561 112.066 L 126.442 112.276 L 125.057 114.921 L 124.935 115.336 L 124.819 115.677 L 124.709 115.95 L 124.605 116.158 L 124.507 116.306 L 124.413 116.397 L 124.324 116.435 L 124.239 116.424 L 124.157 116.368 L 124.08 116.271 L 124.006 116.137 L 123.934 115.97 L 123.799 115.551 L 123.671 115.047 L 123.293 111.268 L 122.689 111.262 L 122.11 111.312 L 121.555 111.419 L 121.287 111.493 L 121.024 111.581 L 120.767 111.683 L 120.517 111.799 L 120.033 112.071 L 119.573 112.399 L 119.135 112.78 L 119.027 113.761 L 118.877 114.696 L 118.689 115.587 L 118.464 116.435 L 118.204 117.242 L 117.91 118.01 L 117.583 118.742 L 117.226 119.438 L 116.84 120.101 L 116.427 120.733 L 115.988 121.336 L 115.525 121.911 L 115.04 122.461 L 114.534 122.987 L 114.009 123.491 L 113.467 123.975 L 112.909 124.441 L 112.337 124.891 L 111.752 125.326 L 111.157 125.749 L 109.94 126.566 L 108.7 127.355 L 106.201 128.913 L 104.969 129.712 L 103.766 130.543 L 103.192 131.111 L 102.663 131.701 L 102.174 132.31 L 101.721 132.939 L 101.302 133.583 L 100.912 134.243 L 100.548 134.915 L 100.207 135.598 L 99.8836 136.291 L 99.5758 136.992 L 98.991 138.408 L 98.4236 139.833 L 97.8446 141.252 L 97.443 140.442 L 97.0271 139.643 L 96.5943 138.859 L 96.1423 138.09 L 95.6686 137.338 L 95.1709 136.606 L 94.6466 135.896 L 94.0933 135.209 L 93.5087 134.548 L 92.8903 133.914 L 92.2357 133.309 L 91.5424 132.736 L 90.808 132.196 L 90.0301 131.692 L 89.2062 131.225 L 88.334 130.797 L 87.1784 130.509 L 86.0838 130.184 L 85.049 129.824 L 84.0731 129.43 L 83.1551 129.003 L 82.2938 128.543 L 81.4882 128.05 L 80.7374 127.527 L 80.0402 126.972 L 79.3957 126.388 L 78.8027 125.775 L 78.2603 125.133 L 77.7674 124.464 L 77.323 123.768 L 76.926 123.046 L 76.5754 122.298 L 76.2701 121.526 L 76.0092 120.73 L 75.7915 119.911 L 75.6161 119.069 L 75.4819 118.206 L 75.3879 117.321 L 75.333 116.417 L 75.3162 115.493 L 75.3364 114.55 L 75.3926 113.589 L 75.4838 112.611 L 75.6089 111.617 L 75.7669 110.607 L 75.9568 109.581 L 76.1774 108.542 L 76.4279 107.489 L 76.1724 107.343 L 75.9298 107.184 L 75.4778 106.833 L 75.0614 106.446 L 74.6704 106.034 L 73.9229 105.175 L 73.5457 104.749 L 73.1524 104.339 L 71.8925 106.859 L 71.7926 107.244 L 71.6698 107.582 L 71.5205 107.868 L 71.4348 107.989 L 71.3412 108.094 L 71.2392 108.182 L 71.1285 108.253 L 71.0085 108.305 L 70.8789 108.338 L 70.7391 108.351 L 70.5888 108.343 L 70.4275 108.312 L 70.2547 108.259 L 70.0685 108.096 L 69.9035 107.924 L 69.7581 107.744 L 69.6305 107.556 L 69.5189 107.361 L 69.4218 107.16 L 69.2641 106.742 L 69.1435 106.308 L 69.0465 105.864 L 68.8689 104.97 L 65.2154 104.564 L 65.1301 104.595 L 65.0475 104.607 L 64.9673 104.6 L 64.8893 104.576 L 64.7395 104.485 L 64.5965 104.348 L 64.459 104.178 L 64.3255 103.989 L 64.0648 103.609 L 63.9813 103.35 L 63.9347 103.131 L 63.9216 102.949 L 63.9385 102.801 L 63.9819 102.681 L 64.0484 102.587 L 64.1344 102.514 L 64.2365 102.459 L 64.4751 102.387 L 64.7363 102.34 L 64.9924 102.287 L 65.1098 102.249 L 65.2155 102.198 L 64.9068 102.087 L 64.6393 101.974 L 64.4118 101.859 L 64.2233 101.743 L 64.0727 101.625 L 63.9589 101.506 L 63.8808 101.385 L 63.8373 101.263 L 63.8273 101.139 L 63.8498 101.014 L 63.9036 100.888 L 63.9877 100.76 L 64.101 100.631 L 64.2424 100.501 L 64.6052 100.238 L 66.4752 100.56 L 66.0531 100.393 L 65.6929 100.23 L 65.3896 100.069 L 65.1382 99.9105 L 64.9335 99.7547 L 64.7705 99.6009 L 64.6442 99.4489 L 64.5494 99.2985 L 64.481 99.1494 L 64.434 99.0014 L 64.3839 98.7076 L 64.3584 98.415 L 64.3168 98.1216 L 64.6474 98.0723 L 64.959 98.0482 L 65.2524 98.048 L 65.5285 98.0705 L 65.7881 98.1145 L 66.0322 98.1789 L 66.2616 98.2624 L 66.4771 98.3638 L 66.6798 98.4819 L 66.8704 98.6156 L 67.0499 98.7636 L 67.2191 98.9247 L 67.5301 99.2815 L 67.8105 99.6765 L 68.0673 100.1 L 68.3076 100.542 L 68.7666 101.446 L 68.9994 101.887 L 69.2439 102.31 L 69.5069 102.703 L 69.7955 103.058 L 71.0051 99.9749 L 71.1401 99.556 L 71.2978 99.1554 L 71.4784 98.7797 L 71.6819 98.4352 L 71.9084 98.1284 L 72.1581 97.8657 L 72.431 97.6535 L 72.5762 97.5684 L 72.7272 97.4983 L 72.8841 97.4441 L 73.0469 97.4065 L 73.2156 97.3864 L 73.3901 97.3844 L 73.5706 97.4016 L 73.7569 97.4387 L 73.9493 97.4964 L 74.1475 97.5756 L 74.3517 97.6771 L 74.5619 97.8017 L 74.778 97.9502 L 75.0002 98.1234 L 75.2283 98.322 L 75.4625 98.547 L 75.9489 99.0791 L 78.001 103.183 L 80.2185 98.9054 L 79.948 98.4016 L 79.6237 97.8794 L 79.248 97.3424 L 78.8232 96.7939 L 78.3518 96.2374 L 77.8361 95.6765 L 77.2786 95.1146 L 76.6815 94.5553 L 76.0474 94.0019 L 75.3785 93.458 L 74.6772 92.9271 L 73.946 92.4126 L 73.1872 91.918 L 72.4032 91.4469 L 71.5964 91.0027 L 70.7691 90.5888 L 69.9239 90.2089 L 69.0629 89.8662 L 68.1887 89.5645 L 67.3035 89.307 L 66.4099 89.0974 L 65.5101 88.939 L 64.6066 88.8355 L 64.1542 88.8053 L 63.7018 88.7902 L 63.2496 88.7904 L 62.7979 88.8066 L 62.3471 88.8391 L 61.8975 88.8883 L 61.4493 88.9547 L 61.0028 89.0387 L 60.5584 89.1408 L 60.1163 89.2613 L 59.6769 89.4008 L 59.2404 89.5596 L 58.8072 89.7382 L 58.3775 89.9371 L 57.9516 90.1566 L 57.5298 90.3972 L 57.1125 90.6594 L 56.6999 90.9435 L 56.4312 91.1529 L 56.1745 91.3838 L 55.9281 91.6348 L 55.6901 91.9044 L 55.2321 92.4938 L 54.7863 93.1406 L 53.8733 94.5604 L 53.3773 95.3105 L 52.8358 96.0722 L 53.0179 95.4786 L 53.1757 94.8995 L 53.3097 94.3349 L 53.4204 93.7846 L 53.5083 93.2487 L 53.5739 92.727 L 53.6177 92.2196 L 53.6402 91.7262 L 53.6422 91.247 L 53.6237 90.7817 L 53.5855 90.3304 L 53.5281 89.8929 L 53.452 89.4692 L 53.3577 89.0593 L 53.2457 88.663 L 53.1165 88.2804 L 52.9707 87.9112 L 52.8088 87.5556 L 52.6313 87.2133 L 52.4387 86.8844 L 52.2315 86.5687 L 52.0102 86.2663 L 51.7753 85.977 L 51.5274 85.7008 L 51.267 85.4376 L 50.9945 85.1873 L 50.7106 84.9499 L 50.4156 84.7253 L 50.1102 84.5135 L 49.7948 84.3143 L 49.4699 84.1278 L 49.1361 83.9538 L 48.4438 83.6432 L 47.7218 83.3819 L 46.9744 83.1696 L 46.2056 83.0056 L 45.4195 82.8894 L 44.6203 82.8205 L 43.812 82.7984 L 42.9988 82.8225 L 42.1848 82.8923 L 41.374 83.0072 L 40.5706 83.1669 L 39.7788 83.3706 L 39.0025 83.618 L 38.246 83.9084 L 37.5132 84.2413 L 36.8085 84.6163 L 37.1776 83.7454 L 37.5176 82.8736 L 37.8276 82.0029 L 38.1066 81.135 L 38.3537 80.272 L 38.5678 79.4157 L 38.7482 78.568 L 38.8937 77.7308 L 39.0034 76.9059 L 39.0764 76.0952 L 39.1118 75.3007 L 39.1088 74.5243 L 39.066 73.7677 L 38.9827 73.0329 L 38.8579 72.3218 L 38.6906 71.6363 L 38.48 70.9783 L 38.225 70.3496 L 37.9246 69.7522 L 37.5781 69.1878 L 37.3873 68.9184 L 37.1844 68.6583 L 36.9695 68.4073 L 36.7425 68.1659 L 36.5031 67.9341 L 36.2514 67.7122 L 35.9871 67.5006 L 35.7102 67.2993 L 35.4206 67.1087 L 35.118 66.9289 L 34.8025 66.7603 L 34.4738 66.603 L 34.1319 66.4572 L 33.7767 66.3234 L 33.408 66.2015 L 33.0257 66.092 L 32.6297 65.995 L 32.2198 65.9107 L 31.796 65.8395 L 31.3581 65.7815 L 30.4397 65.7061 L 29.4635 65.6865 L 29.21 65.6978 L 28.956 65.726 L 28.4441 65.8262 L 27.9233 65.9733 L 27.3892 66.1532 L 26.2626 66.5558 L 25.6611 66.7506 L 25.0281 66.9226 L 25.0281 66.9226"
       style="display:inline;opacity:1;fill:none;fill-opacity:1;stroke:#000000;stroke-width:0.4;stroke-linecap:round;stroke-linejoin:round;stroke-miterlimit:4;stroke-dasharray:none;stroke-dashoffset:0;stroke-opacity:1;paint-order:markers stroke fill" />
  </g>
  <g
     style="display:inline"
     id="g1654"
     inkscape:groupmode="layer"
     inkscape:label="F.SilkS">
    <path
       inkscape:connector-curvature="0"
       id="path1506"
       d="m 96.481667,140.4608 c -0.85534,-1.95131 -2.88101,-4.86665 -4.46404,-6.42464 -1.84024,-1.81113 -3.49986,-2.78479 -5.934528,-3.48165 -2.163658,-0.61929 -3.866102,-1.47051 -5.952078,-2.97603 -2.507626,-1.80984 -4.230953,-4.51271 -5.070396,-7.95239 -0.473838,-1.9416 -0.370222,-6.91447 0.202049,-9.69713 l 0.46175,-2.24523 -1.321225,-1.36062 c -0.726674,-0.74834 -1.397542,-1.36126 -1.490822,-1.36205 -0.09328,-7.9e-4 -0.490772,0.73688 -0.883313,1.63927 -0.537365,1.23531 -0.865778,1.6775 -1.329157,1.78965 -0.816705,0.19767 -1.578125,-0.58528 -2.086568,-2.14558 l -0.389946,-1.19665 -1.869268,-0.22171 c -1.045051,-0.12395 -2.053402,-0.39119 -2.286862,-0.60608 -0.574125,-0.52846 -0.792947,-1.5821 -0.420244,-2.02354 0.231983,-0.27477 0.235964,-0.43427 0.01643,-0.65755 -0.437196,-0.44464 -0.342036,-1.13419 0.208815,-1.51313 0.346126,-0.238107 0.423627,-0.446817 0.262363,-0.706567 -0.12588,-0.20275 -0.227976,-0.68114 -0.22688,-1.06309 0.0018,-0.63806 0.08096,-0.69378 0.974714,-0.68623 1.383472,0.0117 2.489834,0.88191 3.488749,2.744157 0.467755,0.87203 0.927452,1.58616 1.021547,1.58696 0.0941,7.9e-4 0.445371,-0.67249 0.780615,-1.49618 1.237222,-3.039827 2.110477,-3.808591 3.709704,-3.265787 1.09575,0.37191 1.92584,1.33585 2.943161,3.417747 l 0.85854,1.75695 0.659352,-1.11281 c 1.352553,-2.282737 1.367118,-2.370957 0.581987,-3.524587 -0.994592,-1.461388 -4.292475,-4.539255 -5.937859,-5.541717 -0.761454,-0.463927 -2.503592,-1.260526 -3.871413,-1.770224 -2.325174,-0.866439 -2.692249,-0.930415 -5.643124,-0.983538 -2.775047,-0.04996 -3.339754,0.01424 -4.676343,0.531657 -1.824537,0.706305 -3.480017,2.27569 -4.582957,4.344629 -0.682271,1.27983 -1.28618,1.898908 -1.570406,1.609839 -0.05251,-0.0534 0.09242,-1.133629 0.322066,-2.400491 0.848969,-4.683306 -0.55229,-7.859436 -4.226118,-9.579019 -1.444192,-0.675968 -3.449069,-1.132023 -5.005429,-1.13859 -1.595452,-0.0066 -4.447011,0.644263 -5.779293,1.319375 -0.659467,0.334174 -1.257927,0.510473 -1.329908,0.391776 -0.07196,-0.1187 0.09151,-0.722752 0.363306,-1.342345 1.248331,-2.845696 1.694711,-4.978933 1.725073,-8.244078 0.02585,-2.775385 -0.04103,-3.316348 -0.553651,-4.481332 -0.320643,-0.728709 -1.085967,-1.796462 -1.700712,-2.372785 -1.625059,-1.523491 -3.070487,-2.102186 -5.615639,-2.248294 -1.854327,-0.106448 -2.381634,-0.03609 -3.885567,0.518417 -2.043708,0.753532 -1.93329,0.737861 -1.929374,0.273839 0.0017,-0.201365 0.947194,-1.145301 2.101099,-2.097632 8.39242,-6.926384 18.541674,-10.242104 31.210718,-10.196418 5.567828,0.02006 9.052982,0.686994 10.893909,2.084654 1.295073,0.983244 1.307909,1.892384 0.07227,5.11891 -1.413983,3.692225 -1.970088,6.606055 -1.775663,9.303933 0.333592,4.629033 1.774795,8.373248 4.15466,10.793724 1.536314,1.562531 1.928441,1.606498 1.949468,0.218581 0.0046,-0.316929 0.182227,-0.981813 0.394275,-1.477525 0.334423,-0.781771 0.479716,-0.886654 1.095651,-0.790935 l 0.710096,0.110349 -0.691804,-2.922403 c -1.537499,-6.494863 -1.747522,-8.577436 -1.689166,-16.749603 0.05278,-7.379748 0.06291,-7.514126 0.608379,-8.050882 0.955061,-0.939699 1.690491,-0.349783 5.388454,4.322274 7.095188,8.964165 9.892023,13.686901 12.248763,20.683259 0.14222,0.422195 0.22047,0.408202 1.00491,-0.179711 0.46787,-0.350659 0.91877,-0.568318 1.00198,-0.483684 0.0832,0.08465 -0.0784,0.722524 -0.35913,1.417525 -0.28075,0.695005 -0.47802,1.281622 -0.43839,1.303597 0.0396,0.02197 0.659,0.401366 1.37638,0.843089 1.17252,0.721968 1.33806,0.762871 1.63804,0.40476 0.18355,-0.219107 0.87097,-0.816654 1.5276,-1.327885 0.65663,-0.511231 1.12478,-0.99978 1.04034,-1.085668 -0.0845,-0.08589 0.087,-0.154124 0.38102,-0.151642 0.29402,0.0025 0.63715,-0.175196 0.76251,-0.39484 0.20715,-0.362936 0.26581,-0.360837 0.643253,0.02304 0.38682,0.393409 0.43133,0.382333 0.64893,-0.161445 1.18639,-2.964727 3.2903,-6.583606 5.52215,-9.498489 2.99266,-3.908519 9.76974,-10.896485 11.67019,-12.033334 0.99242,-0.593669 1.05936,-0.597554 1.55798,-0.09045 0.99266,1.009558 0.0522,12.144533 -1.96724,23.291491 -0.51174,2.824755 -0.89683,5.165078 -0.85575,5.200716 0.0411,0.03562 0.46742,0.268934 0.94742,0.51843 l 0.87273,0.453637 -1.12543,0.981873 c -0.90024,0.785415 -1.05242,1.028929 -0.76056,1.217024 0.92358,0.59523 1.47422,0.253174 3.93074,-2.44175 4.6654,-5.118172 5.97904,-7.603516 6.21238,-11.753476 0.17515,-3.115486 -0.20814,-4.440739 -2.5304,-8.748974 -1.9288,-3.57827 -1.99808,-4.195921 -0.62238,-5.548597 0.89838,-0.883362 1.09288,-0.95665 2.96094,-1.11581 2.94578,-0.250984 6.34908,0.05323 10.60752,0.948199 8.8507,1.860086 15.08402,4.903743 26.86555,13.118117 2.30281,1.605571 4.18621,3.000063 4.18539,3.098868 -8.4e-4,0.09882 -0.52925,0.307808 -1.17425,0.464446 -1.60166,0.388957 -2.95804,1.100001 -4.20231,2.202931 -1.44952,1.284879 -1.97851,2.538166 -2.00392,4.747774 -0.0324,2.876145 0.55359,4.338414 3.32697,8.292314 1.34211,1.913381 2.37458,3.543378 2.29441,3.622214 -0.0802,0.07884 -1.08598,-0.264994 -2.23512,-0.76407 -2.86942,-1.246214 -4.46979,-1.56361 -7.28723,-1.445255 -3.84208,0.161398 -6.81984,1.666871 -8.46247,4.278368 -0.75461,1.199732 -0.77474,1.309282 -0.73163,3.977879 0.0526,3.25158 0.23674,3.2389 -3.04026,0.20929 -3.6671,-3.390233 -7.50801,-5.0896 -12.92687,-5.719335 -3.08315,-0.3583 -6.63051,-0.0909 -9.26451,0.698376 -1.77423,0.531644 -6.09457,3.188192 -6.67929,4.107042 -0.27736,0.43585 -0.14691,0.854937 0.9851,3.164977 0.71764,1.46443 1.37675,2.94731 1.46469,3.29528 l 0.15989,0.63268 0.82012,-0.97616 c 0.98719,-1.17502 2.88294,-2.40178 3.70088,-2.39487 0.87015,0.007 1.71545,1.01304 2.20997,2.62924 l 0.43532,1.42281 0.53093,-0.84538 c 0.80954,-1.28906 2.64475,-2.65248 3.55988,-2.64476 0.51608,0.004 0.50913,0.98039 -0.0124,1.71143 -0.37706,0.52879 -0.36704,0.55816 0.19161,0.56288 0.72524,0.006 1.70629,0.67424 1.70218,1.15926 -0.004,0.48565 -1.11241,1.16544 -2.243,1.37575 l -0.9267,0.17238 1.06406,0.038 c 0.79362,0.0284 1.13293,0.16939 1.33509,0.55491 0.60987,1.16304 -0.46114,2.21467 -2.22497,2.18471 -1.45833,-0.0248 -2.24957,0.56411 -3.02998,2.25509 -1.67043,3.61947 -1.82678,3.78425 -2.53935,2.67646 -0.28242,-0.43908 -0.46642,-1.36389 -0.53089,-2.66848 l -0.0987,-1.99651 -0.6634,0.14085 c -1.34632,0.28586 -1.6909,0.41465 -2.3743,0.8874 -0.47044,0.32544 -0.70043,0.70766 -0.70434,1.17053 -0.0102,1.20222 -0.76599,3.63002 -1.73451,5.57135 -1.21568,2.43672 -3.90565,5.10639 -7.33559,7.2802 -6.72681,4.26327 -7.03659,4.50144 -8.35151,6.42119 -0.68652,1.00228 -1.859223,3.26073 -2.606013,5.01878 -0.74679,1.75802 -1.46637,3.23159 -1.59906,3.27459 -0.13269,0.043 -0.45474,-0.40885 -0.71565,-1.0041 z m 1.43563,-4.27696 c 0.45149,-1.06525 1.32552,-2.70567 1.94228,-3.64532 0.616763,-0.93967 1.006133,-1.74972 0.865273,-1.8001 -0.14087,-0.0504 -0.751763,-0.0215 -1.357533,0.0641 -0.85676,0.12108 -1.25067,0.34798 -1.77342,1.02146 -0.3696,0.47618 -0.55259,0.86681 -0.40664,0.86803 0.41467,0.003 0.30832,0.68484 -0.28457,1.82314 -0.49383,0.94817 -0.51665,1.16753 -0.25034,2.40651 0.16116,0.74976 0.327,1.32627 0.36853,1.28113 0.0415,-0.0453 0.44492,-0.95367 0.89642,-2.01893 z m -9.3383,-6.7843 c 0.02705,-0.24281 0.08428,-0.77277 0.12719,-1.17764 0.12194,-1.15061 0.58592,-1.03398 1.42665,0.35857 0.42525,0.70436 0.88786,1.28164 1.02803,1.28282 0.36899,0.003 0.31695,-0.43097 -0.13612,-1.13534 -0.38917,-0.60503 -0.30304,-1.14116 0.18266,-1.13706 0.13626,0.001 0.69228,0.48879 1.23561,1.08369 l 0.98786,1.0816 -0.24206,-0.88425 c -0.29955,-1.09425 -0.30867,-1.0144 0.11536,-1.01082 0.19597,0.002 0.62078,0.32274 0.94401,0.71352 1.02499,1.23922 1.24031,1.24253 1.0667,0.017 l -0.15478,-1.09315 1.14003,1.11708 c 1.38411,1.35627 2.08704,1.32388 1.83512,-0.0846 -0.13699,-0.76581 -0.092,-0.88198 0.3403,-0.87833 0.27399,0.002 0.76579,0.35218 1.09288,0.77748 0.881313,1.14588 1.448713,0.81985 1.462733,-0.84047 l 0.0109,-1.2931 0.79322,0.97906 c 0.73942,0.91263 0.81622,0.94817 1.13198,0.52388 0.18631,-0.25033 0.34144,-0.77432 0.34473,-1.16442 0.003,-0.39011 0.0969,-0.70852 0.208,-0.70759 0.39106,0.003 0.80288,0.61927 0.79803,1.19365 -0.008,0.98266 0.45585,0.64933 0.93844,-0.67392 0.48151,-1.32028 1.10173,-1.68503 1.09294,-0.64278 -0.011,1.30871 0.23827,1.43166 1.05305,0.51931 0.42344,-0.47413 0.90016,-0.8608 1.05937,-0.85927 0.19327,0.002 0.26449,-0.46198 0.21429,-1.39563 -0.079,-1.46854 0.3545,-2.49672 0.77073,-1.82813 0.11277,0.18114 0.21775,0.61355 0.23329,0.9609 0.0155,0.34737 0.12463,0.086 0.24244,-0.58068 0.3814,-2.15846 1.23906,-2.44042 1.26747,-0.41669 0.0116,0.83045 0.0276,0.84696 0.26271,0.27263 0.13765,-0.33625 0.325,-1.2722 0.41632,-2.0799 0.1796,-1.58856 0.72818,-2.01572 0.98523,-0.76716 0.32957,1.60083 0.48544,1.71029 0.83298,0.58495 0.27611,-0.89407 0.41404,-1.0439 0.85195,-0.92541 0.51339,0.13888 0.51991,0.091 0.37412,-2.74986 -0.15503,-3.02098 0.0121,-3.5057 0.75472,-2.18912 0.38421,0.68115 0.39068,0.66163 0.27123,-0.81844 -0.0673,-0.83393 -0.19147,-1.82932 -0.27593,-2.21199 -0.11774,-0.5335 -0.0602,-0.69497 0.24659,-0.69239 0.22008,0.002 0.56131,0.31725 0.75829,0.70087 0.35088,0.68333 0.35756,0.67057 0.32904,-0.62828 -0.0185,-0.8439 -0.1398,-1.3268 -0.33362,-1.32861 -0.30953,-0.003 -2.31929,-3.29193 -2.31509,-3.78873 0.005,-0.61575 0.80543,-0.19669 1.50695,0.78913 0.92817,1.30433 0.97012,0.80755 0.0884,-1.04728 -0.54155,-1.13926 -0.68171,-1.29068 -0.76571,-0.82719 -0.18703,1.03189 -1.07778,0.50851 -2.20264,-1.29422 -0.33258,-0.533 -0.37091,-0.7828 -0.15301,-0.99706 0.21791,-0.21426 0.49043,-0.13564 1.08772,0.3138 l 0.79697,0.59969 -0.69896,-0.93259 c -0.55097,-0.73514 -0.77258,-0.87252 -1.04675,-0.64886 -0.2689,0.21936 -0.54334,0.13195 -1.20977,-0.38531 -1.12377,-0.87224 -1.29063,-0.84689 -0.60834,0.0925 0.44706,0.61548 0.4922,0.82451 0.23217,1.07522 -0.25831,0.24905 -0.43324,0.17156 -0.87572,-0.38792 -0.424,-0.53611 -0.77152,-0.70098 -1.49038,-0.70704 -1.34165,-0.0113 -1.19512,-0.46591 0.65758,-2.039977 2.74269,-2.330211 5.7839,-5.279215 6.67697,-6.474556 1.08519,-1.452456 1.3512,-2.907044 0.69096,-3.778304 -0.39525,-0.521578 -0.73746,-0.640984 -2.12368,-0.741006 -2.13281,-0.153889 -3.24086,0.354616 -5.9126,2.713397 -2.46295,2.174445 -3.46718,2.694373 -5.54472,2.870703 -1.40192,0.118987 -1.56932,0.184056 -1.19336,0.463862 0.76204,0.567155 0.11986,0.702105 -1.44959,0.304625 -1.467183,-0.371577 -1.503573,-0.368864 -1.102283,0.08216 0.22825,0.25653 0.346653,0.533626 0.26311,0.615772 -0.25906,0.254718 -2.75917,-1.057834 -4.13463,-2.170662 -0.72018,-0.582676 -1.42884,-1.060416 -1.57478,-1.061648 -0.14595,-0.0012 -0.69139,0.272744 -1.2121,0.608837 -1.07941,0.696708 -2.98263,1.172415 -3.80284,0.950511 -0.906434,-0.245223 -0.64101,-0.505334 0.95891,-0.939715 1.92608,-0.522941 2.25735,-0.962976 0.36591,-0.486067 -0.77958,0.19656 -1.74628,0.282239 -2.148242,0.190391 -0.763634,-0.17449 -0.951533,-0.501513 -0.410546,-0.714512 0.174197,-0.06859 0.02493,-0.136137 -0.331696,-0.15011 -0.356627,-0.01398 -1.252481,-0.21036 -1.99079,-0.43641 -1.734125,-0.530948 -3.735388,-2.495452 -4.392633,-4.311955 -0.956851,-2.644558 -2.494349,-4.069732 -4.32136,-4.005662 -0.625989,0.02196 -1.294608,0.167542 -1.485819,0.323527 -0.596429,0.486551 -0.977427,2.120723 -0.681369,2.922526 0.144139,0.390369 0.325116,1.012337 0.402167,1.382158 0.325515,1.562347 6.232266,8.608789 8.007702,9.552768 0.711207,0.37814 0.763159,0.36699 1.335039,-0.286623 l 0.595036,-0.680486 -1.338856,-1.470837 c -1.849299,-2.031581 -2.976167,-3.495788 -3.73738,-4.856201 -0.355998,-0.636227 -1.348888,-1.86155 -2.206424,-2.722936 -1.326597,-1.332555 -1.510488,-1.6238 -1.232873,-1.952615 0.899568,-1.065491 1.983277,-0.138429 4.259598,3.643878 1.730951,2.876131 3.654661,5.181652 4.850021,5.812637 0.423585,0.223594 1.600198,0.506722 2.614695,0.629171 1.01449,0.122448 1.95788,0.294011 2.0964,0.381253 0.13854,0.08723 0.56766,0.870985 0.95362,1.741659 0.92122,2.07817 1.46805,2.32218 5.18809,2.31508 5.729563,-0.0109 8.438393,-1.30145 14.110053,-6.722148 2.36157,-2.257074 3.38726,-3.076478 3.84613,-3.072603 0.7781,0.0065 1.25266,0.557749 1.13781,1.321498 -0.0728,0.483886 -0.27814,0.602299 -1.22488,0.706238 -0.99832,0.109603 -1.32443,0.319981 -2.66611,1.719935 -3.25523,3.396629 -6.35738,5.41649 -10.03911,6.5366 -2.693823,0.819567 -7.504713,0.790587 -9.704373,-0.0585 -0.82585,-0.31875 -1.75291,-0.58169 -2.06013,-0.58428 -0.78974,-0.007 -1.539345,1.050817 -2.167443,3.057627 -0.754204,2.40973 -1.411991,2.72683 -2.899954,1.39798 l -0.909763,-0.8125 0.104805,-2.09569 c 0.108821,-2.176107 0.03203,-2.354327 -1.018221,-2.363187 -0.425588,-0.004 -2.393747,1.780977 -2.854503,2.588237 -0.159637,0.2797 -0.09456,0.33934 0.269828,0.24733 0.374274,-0.0945 0.517034,0.0535 0.647205,0.67099 0.190965,0.90588 -0.265245,1.69114 -0.746463,1.28486 -0.197546,-0.16678 -0.392055,-0.0857 -0.607895,0.25356 -0.174563,0.27434 -0.601012,0.60391 -0.947653,0.73236 -0.555232,0.20575 -0.593153,0.29412 -0.318529,0.74223 0.253223,0.41319 0.235316,0.79216 -0.09543,2.01908 -0.296732,1.10079 -0.321594,1.44062 -0.09166,1.25305 0.578082,-0.47158 0.64296,0.20971 0.21098,2.21547 -0.231217,1.07357 -0.476673,2.00729 -0.545454,2.07492 -0.0688,0.0677 -0.317725,-6e-5 -0.553203,-0.15035 -0.391389,-0.24985 -0.42235,-0.11359 -0.360672,1.58737 0.04028,1.11076 0.166136,1.80084 0.312279,1.71222 0.134644,-0.0816 0.396125,-0.0207 0.581068,0.13544 0.262792,0.22187 0.372429,0.14477 0.501793,-0.35283 0.197613,-0.76012 0.54741,-0.81531 0.900448,-0.14206 0.357435,0.68165 0.31402,1.47084 -0.09396,1.70786 -0.188453,0.10949 -0.414414,0.78127 -0.502137,1.49286 -0.135824,1.10179 -0.09761,1.2895 0.257553,1.26484 0.317588,-0.0221 0.462284,0.29455 0.606725,1.32763 0.117664,0.84157 0.420125,1.6352 0.796663,2.09045 l 0.606989,0.73384 0.08591,-0.8009 c 0.04725,-0.44048 0.208717,-0.83994 0.358802,-0.88769 0.371825,-0.1183 0.7428,0.78928 1.251067,3.06063 0.242099,1.08191 0.58354,1.97338 0.786387,2.05318 0.271993,0.10703 0.317975,0.003 0.190539,-0.43232 -0.355151,-1.2123 -0.426664,-2.65767 -0.14009,-2.83145 0.349638,-0.21204 1.440225,2.18691 1.662633,3.65725 0.0837,0.55325 0.291931,1.12393 0.462762,1.26815 0.237631,0.20063 0.284862,0.0984 0.201051,-0.43547 -0.361284,-2.30095 -0.355626,-2.59377 0.05007,-2.59036 0.226066,0.002 0.570724,0.41914 0.787761,0.95367 0.312223,0.76893 1.565058,2.8542 1.715566,2.85547 0.02079,1.8e-4 0.05993,-0.19836 0.08698,-0.4412 z m 6.18208,-2.6742 c -0.552,-0.71407 -0.50733,-1.12902 0.12097,-1.1237 0.45673,0.004 0.96442,1.25947 0.63872,1.57972 -0.13869,0.13635 -0.44294,-0.0464 -0.75969,-0.45602 z m 3.38957,0.11456 c -0.43294,-0.62936 -0.50648,-1.36237 -0.15789,-1.57378 0.26606,-0.16132 1.02979,0.94339 1.02524,1.483 -0.005,0.63819 -0.45817,0.68557 -0.86735,0.0909 z m -10.812274,-0.35397 c -0.579993,-0.44814 -1.015619,-1.7297 -0.695092,-2.04486 0.339736,-0.33405 0.886748,0.14546 1.282551,1.12431 0.367982,0.91003 0.04797,1.41154 -0.587459,0.92055 z m 3.653074,-0.21001 c -0.41903,-0.42618 -0.36882,-1.21528 0.0771,-1.21152 0.43556,0.004 0.97616,0.9191 0.7525,1.27424 -0.20628,0.32756 -0.4651,0.30798 -0.8296,-0.0627 z m 10.387433,-0.5563 c -0.0845,-0.24376 -0.18481,-0.50573 -0.22303,-0.58213 -0.0382,-0.0764 0.0293,-0.29581 0.15008,-0.48758 0.31679,-0.50302 1.01159,0.13241 1.00495,0.9191 -0.006,0.70799 -0.70006,0.82017 -0.932,0.15061 z m 5.64836,-0.43634 c -0.0918,-0.0935 -0.16277,-0.66218 -0.15769,-1.264 0.0105,-1.2398 0.64374,-1.55654 0.91028,-0.4553 0.27095,1.11952 -0.22601,2.25483 -0.75259,1.7193 z m -22.117022,-1.51694 c -0.314842,-0.6004 -0.330085,-1.53458 -0.02499,-1.532 0.36707,0.003 1.077567,1.28428 0.925933,1.66968 -0.197406,0.50173 -0.597722,0.44055 -0.900934,-0.13768 z m 3.530726,-0.49187 c 0.0023,-0.28056 0.172603,-0.50361 0.383033,-0.50185 0.21043,0.002 0.37688,0.22769 0.37451,0.50826 -0.002,0.28055 -0.17261,0.50359 -0.38303,0.50183 -0.21043,-0.002 -0.376881,-0.22766 -0.374513,-0.50824 z m -5.631682,-0.97349 c -0.268813,-0.27337 -0.182413,-1.3031 0.12498,-1.4895 0.352289,-0.21363 0.717468,0.34556 0.716243,1.09678 -9.01e-4,0.53805 -0.478904,0.76122 -0.841223,0.39272 z m -2.423,-1.09814 c -0.314736,-0.60022 -0.326328,-2.21069 -0.01726,-2.39813 0.339386,-0.20581 0.697614,0.38761 0.832015,1.37828 0.195959,1.44435 -0.279847,2.03994 -0.814755,1.01985 z m 28.446948,-0.44996 c -0.27305,-0.27767 -0.18411,-0.96661 0.18959,-1.46874 0.33958,-0.45628 0.35715,-0.45506 0.61801,0.0424 0.47539,0.90657 -0.1802,2.06446 -0.8076,1.42636 z M 84.228259,119.1268 c -0.321952,-0.39467 0.04014,-1.07684 0.438436,-0.82602 0.329868,0.20775 0.370504,1.15698 0.04942,1.15427 -0.121877,-0.001 -0.34141,-0.14874 -0.48785,-0.32825 z m 29.152721,-0.13991 c -0.3061,-0.50476 -0.44062,-3.01604 -0.17034,-3.17995 0.42218,-0.25602 1.07905,1.28987 0.98335,2.31423 -0.0821,0.8791 -0.52131,1.34673 -0.81301,0.86572 z M 77.8229,114.68292 c -0.314978,-0.32033 -0.159084,-1.09564 0.219661,-1.09245 0.23568,0.002 0.376761,0.24169 0.373447,0.63449 -0.0051,0.61307 -0.252688,0.80419 -0.593108,0.45796 z m 33.93696,-1.58653 c 0.008,-0.96611 0.60223,-0.87441 0.71031,0.10965 0.0526,0.47881 -0.041,0.67464 -0.32134,0.67228 -0.27352,-0.002 -0.39351,-0.24352 -0.38897,-0.78193 z m -32.9089,0.0853 c -0.09468,-0.0963 -0.169351,-0.50536 -0.165943,-0.90904 0.0047,-0.5631 0.108904,-0.7133 0.447376,-0.64514 0.299344,0.0603 0.439194,0.3245 0.434997,0.82187 -0.006,0.71374 -0.369439,1.08521 -0.71643,0.73231 z m 35.22945,-0.94039 c -0.38098,-0.85522 -0.36006,-1.12756 0.0863,-1.12379 0.40552,0.003 0.88636,0.75639 0.8811,1.37977 -0.005,0.6254 -0.6509,0.45457 -0.96743,-0.25598 z m 0.12066,-2.44236 c -0.47632,-0.69239 -0.50047,-1.71576 -0.0404,-1.71187 0.38409,0.003 0.91556,1.04786 0.90932,1.78728 -0.005,0.65491 -0.38943,0.62159 -0.86891,-0.0754 z m -33.032472,-0.88191 c -0.22038,-0.22413 -0.228503,-1.17575 -0.01468,-1.71923 0.266468,-0.67725 0.8607,-0.45666 0.854171,0.31709 -0.0065,0.78002 -0.553321,1.69319 -0.839498,1.40214 z m 31.239732,-0.2026 c -0.24808,-1.02501 0.0228,-1.33474 0.50777,-0.5807 0.42143,0.65517 0.36423,1.20855 -0.12448,1.20442 -0.12804,-0.001 -0.30052,-0.28175 -0.38329,-0.62372 z m -33.297415,-2.18812 c -0.206857,-0.3411 0.09208,-1.22658 0.70057,-2.07522 1.005284,-1.40201 1.337462,-0.3868 0.438302,1.33956 -0.520533,0.9994 -0.849907,1.21216 -1.138872,0.73566 z m 33.489925,-1.13808 c -0.28476,-0.36837 -0.51592,-0.8857 -0.51369,-1.14962 0.003,-0.40161 0.086,-0.43509 0.5068,-0.20532 0.65383,0.35705 1.33968,1.43058 1.12835,1.76615 -0.26322,0.41797 -0.56642,0.30679 -1.12146,-0.41121 z m -18.867113,-1.10371 c -1.98753,-0.67085 -3.50445,-1.92546 -2.8257,-2.33708 0.13531,-0.0821 0.89586,0.10216 1.69011,0.40938 2.05319,0.79418 4.7426,0.95161 7.457983,0.43657 1.22259,-0.2319 2.28439,-0.35909 2.35955,-0.28265 0.23197,0.23592 -0.86137,1.00636 -2.12893,1.5002 -1.569093,0.61132 -5.113933,0.75931 -6.553013,0.27358 z m -11.394695,23.86285 c -0.171138,-0.20979 -0.432594,-0.38245 -0.581015,-0.38372 -0.148424,-0.001 -0.0507,0.16643 0.217174,0.37261 0.629384,0.48444 0.753059,0.48823 0.363841,0.0111 z m -1.508207,-1.22436 c -0.266372,-0.46029 -0.863062,-1.17797 -1.325983,-1.59482 -1.254715,-1.12987 -2.626933,-3.38463 -2.968198,-4.87717 -0.287579,-1.25776 -0.503907,-1.56703 -0.784478,-1.12152 -0.219501,0.34856 0.967511,3.4707 1.772479,4.66209 0.655493,0.97017 3.39513,3.765 3.693099,3.76752 0.05356,4.5e-4 -0.120547,-0.37579 -0.386919,-0.8361 z m 32.018335,-3.25812 c 0.27249,-0.43268 -1.24362,0.68326 -1.82114,1.34048 -0.34473,0.39228 -0.1611,0.31487 0.56671,-0.23893 0.59217,-0.45062 1.15667,-0.9463 1.25443,-1.10155 z m 1.98004,-1.87231 c 0.58086,-0.63358 0.65318,-0.81522 0.32574,-0.81798 -0.24243,-0.002 -0.65281,0.44956 -0.96788,1.06511 -0.30086,0.58774 -0.44744,0.95583 -0.32575,0.81797 0.12169,-0.13786 0.55724,-0.61716 0.96789,-1.0651 z m 1.72292,-3.25089 c -0.17544,-0.3198 -0.25406,-0.25541 -0.3983,0.32622 -0.0988,0.39858 -0.24185,0.95142 -0.31779,1.22859 -0.0759,0.27714 0.1033,0.13033 0.3983,-0.32624 0.36359,-0.56272 0.46596,-0.95848 0.31779,-1.22857 z m 1.33812,-2.72092 c 0.16404,-0.71254 0.15178,-0.72806 -0.2127,-0.2692 -0.21274,0.26782 -0.38252,0.83458 -0.3773,1.25949 0.008,0.64226 0.0438,0.68765 0.21271,0.26919 0.11177,-0.27685 0.28155,-0.84361 0.37729,-1.25948 z m 6.94844,-2.99497 c 0.1571,-0.28765 0.74994,-0.93543 1.31746,-1.43951 0.92832,-0.82456 1.17319,-0.91532 2.44099,-0.90461 1.75281,0.0148 1.79778,-0.57725 0.0537,-0.70679 -0.91391,-0.0679 -1.18006,-0.19299 -1.2837,-0.60339 -0.21322,-0.8444 0.0589,-1.15069 1.31103,-1.47594 1.6286,-0.42302 1.93478,-0.77285 0.51697,-0.59069 -1.29812,0.16677 -1.7563,-0.18069 -1.15211,-0.87371 0.67051,-0.7691 0.84327,-1.2217 0.28216,-0.73917 -0.49045,0.42175 -0.78253,0.98292 -2.29002,4.39986 -0.49578,1.12379 -0.828,1.57135 -1.16427,1.56851 -0.2588,-0.002 -0.47571,-0.0892 -0.48199,-0.19347 -0.007,-0.10423 -0.0518,-1.04213 -0.10123,-2.08425 -0.0495,-1.04212 -0.2304,-2.46414 -0.40223,-3.16005 -0.26155,-1.05926 -0.41588,-1.27827 -0.94776,-1.34493 -0.79902,-0.10013 -2.42071,1.21946 -3.54281,2.88286 -0.69794,1.03463 -0.79736,1.38091 -0.74717,2.60221 l 0.0579,1.40878 0.63998,-0.32717 c 0.35199,-0.17994 0.85275,-0.32607 1.11281,-0.32473 0.39162,0.002 0.41939,-0.0631 0.16168,-0.37899 -0.405,-0.49646 0.0865,-1.13567 0.86812,-1.12907 1.51401,0.0128 2.3995,1.61778 2.41005,4.36842 l 0.007,1.83903 0.3239,-1.1351 c 0.17815,-0.62431 0.45243,-1.37045 0.60949,-1.6581 z m -53.932716,-6.98073 c 0.322912,-1.11694 1.846009,-3.15816 2.353325,-3.15388 0.144259,10e-4 0.203016,0.22131 0.130572,0.48908 -0.100884,0.3729 0.183274,0.69987 1.213848,1.39673 1.286593,0.86998 1.357295,0.88838 1.613187,0.4198 0.485939,-0.88985 -0.568201,-4.28431 -1.869803,-6.020997 -1.254766,-1.6742 -2.36026,-0.83608 -3.623325,2.746997 -0.475955,1.35019 -1.004915,2.45371 -1.175468,2.45227 -0.370343,-0.003 -0.953876,-1.2092 -0.745293,-1.54041 0.08049,-0.1278 -0.01138,-0.2337 -0.204172,-0.23533 -0.192779,-0.002 -0.613487,-0.57699 -0.9349,-1.27858 -0.66198,-1.444967 -1.299771,-2.178257 -1.056644,-1.214847 0.08104,0.321117 0.363175,0.956917 0.626965,1.412857 0.666804,1.15252 0.262558,1.59798 -1.384589,1.52576 -1.324602,-0.0581 -1.637511,0.0688 -1.347795,0.54655 0.129987,0.21434 0.689716,0.26119 1.899825,0.15902 2.010611,-0.16977 2.06792,-0.13119 3.100088,2.0868 0.397484,0.85414 0.802557,1.50456 0.900156,1.44537 0.09761,-0.0592 0.324412,-0.61592 0.504023,-1.23719 z m 15.828398,-4.07448 c 0.458983,-1.806817 1.23899,-2.873077 2.951905,-4.035187 l 0.6152,-0.41738 -0.5645,-0.586556 -0.56449,-0.586555 -1.165793,1.310191 c -1.265926,1.42273 -2.049612,1.72945 -1.781234,0.69713 0.08674,-0.3336 0.218494,-0.81545 0.292815,-1.07079 0.07432,-0.255342 -0.17527,0.15814 -0.55465,0.91885 -0.503023,1.00862 -0.6895,1.75918 -0.688735,2.772047 0.0011,1.4429 0.372911,2.78101 0.773692,2.78439 0.127361,0.001 0.435963,-0.80269 0.68579,-1.78614 z m -20.586089,-0.14954 c 0.209459,-0.13287 0.267206,-0.24254 0.128323,-0.24371 -0.138884,-0.001 -0.423892,0.10658 -0.633353,0.23945 -0.209461,0.13287 -0.267206,0.24254 -0.128324,0.24371 0.138882,0.001 0.423892,-0.10658 0.633354,-0.23945 z m -0.412256,-2.946977 c -0.170377,-0.0706 -0.511236,-0.0777 -0.757467,-0.0157 -0.246228,0.0619 -0.106827,0.11972 0.309778,0.12838 0.416606,0.009 0.618066,-0.042 0.447689,-0.11263 z m 50.373063,-1.45466 c 3.06842,-2.648594 6.30213,-3.683624 12.01296,-3.845035 6.5028,-0.1838 11.47255,1.065769 15.54501,3.908555 0.59654,0.41642 1.13312,0.70943 1.19242,0.65113 0.22369,-0.21993 -8.47295,-14.719563 -12.8461,-21.417913 l -0.84778,-1.298525 -1.33647,2.992977 c -0.73508,1.646137 -1.67027,3.496743 -2.07821,4.112457 -1.23747,1.867668 -4.43134,5.333416 -6.36139,6.902891 -1.88144,1.529946 -3.03772,2.809713 -3.72023,4.117541 -0.2165,0.414852 -1.15053,1.543366 -2.07563,2.507809 -0.92509,0.964444 -1.6827,1.816033 -1.68357,1.892413 -0.002,0.13541 0.53883,0.74952 0.66041,0.75055 0.0336,2.8e-4 0.72594,-0.5734 1.53858,-1.27485 z M 78.98907,94.738447 c -1.051965,-1.233436 -2.401568,-2.814936 -2.999123,-3.514443 -0.597551,-0.699508 -1.378611,-1.861481 -1.735679,-2.582158 -0.42581,-0.859413 -1.018013,-1.559627 -1.720907,-2.034784 -1.822312,-1.231884 -4.56175,-4.193078 -5.550747,-6.000071 -0.514824,-0.940636 -1.039917,-1.775662 -1.166875,-1.855612 -0.126954,-0.07994 -0.228064,-0.472851 -0.224685,-0.873107 0.0033,-0.400256 -0.09554,-0.791775 -0.219816,-0.870037 -0.124278,-0.07826 -0.357544,-0.711957 -0.518368,-1.408211 -0.160825,-0.696247 -0.393998,-1.266765 -0.518158,-1.267814 -0.488833,-0.0041 -1.928447,2.32549 -3.958782,6.406174 -2.311238,4.645272 -4.075768,8.659669 -3.889589,8.84902 0.0645,0.06561 0.600613,-0.12216 1.191333,-0.417269 3.453354,-1.725197 11.901061,-0.64198 16.333106,2.094329 1.939336,1.197331 4.531186,3.534491 5.600197,5.049893 0.509962,0.722906 0.895348,1.055486 1.048539,0.904866 0.15319,-0.15063 -0.460774,-1.062427 -1.670446,-2.480776 z m 68.28795,1.459974 c 1.79704,-3.765055 6.17154,-5.954901 11.13854,-5.575889 1.17982,0.09002 2.7634,0.338583 3.51905,0.552345 0.75564,0.213762 1.43369,0.329873 1.50677,0.258024 0.24047,-0.236447 -7.7942,-8.068316 -11.50389,-11.213498 -7.26534,-6.159812 -16.45176,-12.847501 -17.12516,-12.467073 -0.17718,0.100097 -0.24295,0.09544 -0.14611,-0.01033 0.0969,-0.105822 -0.41042,-0.594536 -1.12721,-1.086031 -2.13092,-1.461094 -3.43894,-2.187369 -3.44127,-1.910786 -10e-4,0.142852 0.34607,0.866828 0.77171,1.608837 0.42566,0.742012 0.87008,1.52038 0.98763,1.729712 0.94523,1.683398 9.45222,18.825496 11.67258,23.520924 1.53314,3.242203 2.86346,5.895557 2.95624,5.896337 0.0929,7.8e-4 0.44883,-0.585353 0.79112,-1.302526 z m -41.46109,-4.12405 c 1.20962,-0.572044 2.64286,-2.149724 3.25689,-3.585128 0.48927,-1.143759 0.32179,-3.327583 -0.35978,-4.691319 -1.98438,-3.97045 -7.87094,-5.31215 -11.709093,-2.668798 -0.87892,0.605318 -1.01029,0.816895 -0.97347,1.567803 0.17122,3.491776 0.14258,3.95881 -0.3138,5.117322 l -0.47974,1.217835 0.96792,1.008206 c 2.40972,2.510041 6.689373,3.415785 9.611073,2.034079 z m -8.826863,-4.544152 c -0.59681,-0.670753 -0.50404,-1.276856 0.2466,-1.61125 0.75246,-0.3352 1.44115,-0.03092 1.57783,0.69712 0.0701,0.373184 -0.0372,0.421441 -0.63373,0.285087 l -0.71808,-0.164139 0.56471,0.412529 c 0.3106,0.22689 0.56388,0.512301 0.56285,0.634244 -0.003,0.405376 -1.17973,0.21896 -1.60018,-0.253591 z m -5.34716,1.926352 c 0.6638,-0.314453 1.70489,-1.040888 2.31355,-1.614307 1.08271,-1.020032 1.10681,-1.077644 1.11478,-2.664126 0.0183,-3.652882 -2.38619,-6.068374 -6.0589,-6.086533 -1.947939,-0.0097 -3.163173,0.499072 -4.921682,2.060235 -2.220865,1.971627 -2.595415,3.789808 -1.262898,6.130494 0.617398,1.084514 1.738086,1.942474 3.3413,2.557989 1.318676,0.506275 3.99044,0.318967 5.47385,-0.383752 z m -0.0739,-2.347294 c -0.7097,-0.768338 -0.6833,-1.334587 0.0853,-1.828954 0.81343,-0.523219 1.42579,-0.378006 1.87895,0.445562 0.32875,0.597475 0.32134,0.734846 -0.0714,1.323411 -0.54133,0.811152 -1.18022,0.831399 -1.89277,0.05998 z m 29.066303,1.061802 c 3.69965,-2.405865 8.65231,-9.936373 9.06052,-13.77654 0.17734,-1.668078 0.45665,-2.122348 1.09171,-1.775552 0.24617,0.134442 1.87986,2.576532 3.63037,5.426864 1.75054,2.850333 3.39422,5.452464 3.65265,5.782512 0.46604,0.59521 0.46666,0.59185 0.0764,-0.413371 -0.59767,-1.538998 -5.5244,-11.222115 -7.67798,-15.090496 -2.83607,-5.094311 -3.27647,-6.040219 -2.95798,-6.353375 0.65983,-0.648794 9.43431,4.860561 17.2928,10.857888 4.44071,3.388987 3.87868,2.682201 -1.62424,-2.042661 -3.89146,-3.341233 -7.92251,-6.333289 -11.04227,-8.196118 -1.31286,-0.783922 -2.63778,-1.57953 -2.9442,-1.768017 -0.70362,-0.432763 -0.49725,-1.018681 0.42744,-1.213611 1.78489,-0.376265 10.24439,1.298821 16.06932,3.181918 0.37272,0.120493 0.38848,0.100856 0.0831,-0.103475 -0.7874,-0.526696 -6.36558,-2.359307 -9.2298,-3.032283 -3.48134,-0.817977 -8.65264,-1.184239 -10.3611,-0.733834 -2.31178,0.609457 -2.35415,1.599027 -0.25497,5.956043 1.90721,3.958623 2.19329,5.1752 2.01818,8.582139 -0.22696,4.416175 -1.3808,6.57393 -6.3335,11.844318 -1.54996,1.649386 -2.82044,3.140917 -2.82327,3.314509 -0.008,0.514825 0.5913,0.369736 1.84702,-0.446857 z M 56.696501,83.358926 c 0.736558,-2.007732 2.275752,-5.972133 3.420428,-8.809777 1.947068,-4.826772 3.044244,-7.980988 3.050911,-8.770899 0.0033,-0.400296 -2.877744,1.070014 -5.94549,3.034137 -4.622735,2.9597 -11.064419,7.972522 -14.504264,11.286988 l -1.273014,1.22662 2.648983,0.309344 c 1.456939,0.170139 2.989134,0.4005 3.404872,0.511905 2.214797,0.593511 5.21047,2.778185 6.466994,4.716227 0.974924,1.503706 0.820565,1.701821 2.73058,-3.504545 z m 55.931369,3.726854 c 1.23596,-0.450579 1.49289,-0.662034 1.89827,-1.56231 1.00553,-2.233091 2.63212,-9.619236 3.5326,-16.041039 0.61583,-4.391799 0.92091,-12.223614 0.48681,-12.496992 -0.223,-0.140432 -1.37174,0.85014 -3.66171,3.157523 -3.73926,3.767681 -6.97521,7.608349 -8.98441,10.66335 -1.46411,2.226191 -4.45017,7.243034 -4.45217,7.480038 -6.8e-4,0.08088 0.21778,0.148904 0.48546,0.151162 0.60567,0.0051 1.02372,-0.515418 3.23546,-4.028535 2.67255,-4.245061 9.07892,-11.524565 10.13442,-11.515658 0.48485,0.004 0.55025,0.773392 0.10313,1.213029 -0.16807,0.165252 -0.21212,0.301249 -0.0979,0.302213 0.11423,9.64e-4 0.0556,0.181925 -0.13036,0.402137 -0.28522,0.337836 -0.27035,0.439016 0.0952,0.647657 0.54392,0.310448 0.31325,0.714816 -0.41711,0.73121 l -0.5534,0.01243 0.54018,0.267092 c 0.40791,0.201699 0.53227,0.482018 0.50789,1.144823 -0.0293,0.797029 -0.0914,0.86695 -0.67512,0.760521 -0.35356,-0.06446 -0.86944,-0.196374 -1.14641,-0.293137 -0.27697,-0.09675 -0.0228,0.08217 0.56484,0.397605 0.58764,0.315443 1.06753,0.679301 1.06645,0.808574 -10e-4,0.131427 -0.47452,0.165694 -1.07393,0.07774 -0.89939,-0.131987 -0.98086,-0.111334 -0.50614,0.12831 0.59579,0.300769 0.77374,0.967793 0.25703,0.963433 -0.23568,-0.002 -0.23625,0.06534 -0.002,0.303018 0.45414,0.461874 0.35997,0.709278 -0.27118,0.712482 -0.50746,0.0026 -0.5212,0.0308 -0.12849,0.263997 0.82013,0.486999 0.4925,0.814632 -0.63671,0.636697 l -1.07184,-0.168896 1.2567,0.707381 c 1.63108,0.918113 1.42849,1.64317 -0.2604,0.931963 -0.45059,-0.189746 -0.46685,-0.166377 -0.1553,0.223188 0.5005,0.625836 0.18601,0.777504 -0.97789,0.471595 -0.55932,-0.147011 -1.01727,-0.229646 -1.01766,-0.18364 -3.8e-4,0.046 0.56485,0.397674 1.25607,0.781482 0.69123,0.383807 1.25549,0.850224 1.25392,1.036475 -0.004,0.431835 -0.22223,0.423828 -1.42079,-0.05203 -0.57507,-0.228327 -0.77961,-0.255933 -0.49898,-0.06736 1.73949,1.168936 2.1832,2.147481 0.69861,1.540665 -1.48531,-0.607105 -1.65077,-0.620538 -0.74745,-0.06069 0.51814,0.321132 0.94071,0.745241 0.93904,0.942464 -0.003,0.353917 -0.27574,0.334412 -1.38809,-0.09925 -0.27688,-0.107944 -0.0108,0.17547 0.59126,0.629807 0.73339,0.553443 1.0102,0.90911 0.83874,1.077698 -0.17145,0.168587 -0.45156,0.154316 -0.84874,-0.04326 -0.50036,-0.248883 -0.48523,-0.209734 0.097,0.25102 0.86481,0.684325 0.88357,1.107279 0.0416,0.938961 l -0.6438,-0.12871 0.51393,0.556382 c 0.61045,0.660885 0.64616,0.903747 0.13223,0.899411 -0.23693,-0.002 -0.38079,0.23617 -0.38417,0.636014 -0.003,0.351568 -0.17273,0.701814 -0.37725,0.778321 -0.35977,0.134583 -0.36441,1.24213 -0.0128,3.061586 0.13507,0.69903 0.23411,0.701587 2.01587,0.05203 z M 71.412819,82.640605 c -1.774807,-1.840619 -2.488668,-2.801225 -3.163242,-4.256619 -1.26911,-2.738104 -1.860295,-5.419832 -1.830728,-8.304505 0.03099,-3.025523 0.488332,-5.12718 1.821377,-8.370336 1.169193,-2.844528 1.281317,-3.71642 0.562953,-4.377644 -1.250612,-1.151134 -7.657129,-2.142927 -12.240178,-1.894901 -3.899054,0.211008 -7.09917,0.576558 -9.731893,1.111675 -2.584947,0.525409 -8.236888,2.238541 -8.861316,2.685913 -0.308252,0.220847 -0.284274,0.239723 0.125432,0.09875 0.278596,-0.09586 2.214617,-0.587143 4.302271,-1.091736 6.132283,-1.482186 9.058054,-1.817218 15.419403,-1.76568 5.422508,0.04395 5.585404,0.06035 6.812585,0.686952 1.128544,0.576227 1.264334,0.736659 1.326483,1.567194 0.05762,0.769895 -0.07684,1.068892 -0.800805,1.780734 -0.835486,0.821502 -6.505775,4.926516 -9.725309,7.040653 -0.84949,0.557829 -2.85238,2.239689 -4.450867,3.737471 l -2.906333,2.723239 2.28741,-1.731632 c 5.309322,-4.0193 10.93677,-7.646468 12.313571,-7.936707 0.401786,-0.08469 0.978003,-0.01885 1.280481,0.146323 0.487954,0.266469 0.533205,0.446677 0.401383,1.598532 -0.08204,0.71686 -0.862328,3.045003 -1.742477,5.19901 -0.876647,2.145442 -2.046765,5.007311 -2.600265,6.359708 -0.553497,1.352397 -1.004388,2.541809 -1.001973,2.643136 0.0024,0.101328 0.697017,-1.114291 1.543573,-2.701381 1.902979,-3.567626 2.638915,-4.624455 3.481756,-4.999927 0.960061,-0.427683 1.38959,0.09482 2.339177,2.845501 1.552625,4.497512 3.185401,7.092403 5.568292,8.849414 1.959791,1.445039 1.714365,0.685247 -0.530761,-1.643134 z m 88.277301,0.0087 c -0.0167,-2.029178 0.0685,-2.524307 0.64867,-3.763615 0.86395,-1.845793 2.4877,-3.563864 3.90646,-4.133318 0.6185,-0.248254 1.12556,-0.521489 1.12681,-0.607191 0.009,-0.605845 -10.33618,-6.35178 -15.00271,-8.333008 -2.54033,-1.078517 -7.69197,-2.719706 -10.4286,-3.3223 -1.02614,-0.225954 -2.37464,-0.595331 -2.99666,-0.82084 -0.62201,-0.225507 -1.92672,-0.480176 -2.89934,-0.565926 l -1.76843,-0.155912 0.98934,0.811978 c 0.54414,0.446585 1.33509,0.982195 1.75767,1.190239 2.63955,1.299452 12.1171,9.53317 19.56543,16.997678 2.75601,2.761969 5.03561,5.025592 5.06577,5.030273 0.0302,0.0046 0.0463,-1.042945 0.0356,-2.328058 z M 82.113771,81.038726 c 0.316138,-0.343461 0.268638,-0.446804 -0.386795,-0.841476 -0.856262,-0.515602 -0.928776,-0.795414 -0.299315,-1.154965 0.369042,-0.210796 0.307941,-0.256101 -0.361632,-0.268134 -0.894516,-0.01605 -1.339359,-0.459939 -0.798136,-0.79638 0.276698,-0.172003 0.257456,-0.219067 -0.092,-0.225078 -0.24303,-0.004 -0.440881,-0.12479 -0.439673,-0.268032 0.0012,-0.143244 0.201718,-0.337302 0.445573,-0.431241 0.349936,-0.134806 0.28399,-0.203088 -0.312931,-0.32401 l -0.756307,-0.153204 0.888636,-0.565326 0.888636,-0.565325 -0.822062,0.157646 c -0.6556,0.125725 -0.821366,0.07523 -0.818628,-0.249327 0.0019,-0.223835 0.260037,-0.515239 0.573665,-0.647562 0.436991,-0.184373 0.319174,-0.207782 -0.504221,-0.100182 -0.858572,0.112193 -1.073798,0.06325 -1.071208,-0.243548 0.0018,-0.211176 0.259599,-0.46308 0.572922,-0.559795 0.548603,-0.169333 0.551083,-0.182553 0.067,-0.357268 -0.440376,-0.158937 -0.377042,-0.24629 0.511013,-0.704759 L 80.412,72.217428 79.606324,72.199468 c -1.042463,-0.02324 -1.288667,-0.444866 -0.472172,-0.808595 0.352033,-0.156825 0.577888,-0.387662 0.501894,-0.51297 -0.07598,-0.125306 5.79e-4,-0.392144 0.170111,-0.592968 0.260252,-0.308251 0.16578,-0.366334 -0.606445,-0.372852 -0.503095,-0.0042 -0.91376,-0.121352 -0.912589,-0.260235 0.0012,-0.138884 0.129677,-0.251436 0.285566,-0.250123 0.199615,0.0017 0.194104,-0.10711 -0.01863,-0.367895 -0.359428,-0.440596 -0.139987,-0.884347 0.455429,-0.920959 0.234988,-0.01445 0.09341,-0.100876 -0.314631,-0.192055 -1.002367,-0.223994 -0.95367,-0.611197 0.120001,-0.954106 l 0.886255,-0.283055 -0.883058,-0.09571 c -0.485682,-0.05265 -0.882098,-0.209353 -0.880927,-0.348237 0.0012,-0.138882 0.400955,-0.380905 0.888405,-0.537826 l 0.886272,-0.285315 -1.261848,-0.09664 c -1.298145,-0.09944 -1.611734,-0.498321 -0.576909,-0.733835 0.518458,-0.117995 0.532846,-0.153208 0.127804,-0.312804 -0.610252,-0.240456 -0.325321,-0.626713 0.667406,-0.904748 l 0.810215,-0.226917 -1.072996,-0.03184 c -1.205835,-0.03578 -1.434817,-0.449749 -0.373107,-0.674535 1.209355,-0.256045 1.230104,-0.310747 0.12914,-0.340492 -0.776616,-0.02098 -1.072134,-0.133622 -1.069819,-0.407766 0.0017,-0.208325 0.202147,-0.38842 0.445307,-0.400215 0.289523,-0.01403 0.23119,-0.08232 -0.169006,-0.19779 -0.807096,-0.232902 -0.980811,-0.796869 -0.243538,-0.790648 0.312487,0.0026 0.483651,-0.08114 0.380371,-0.186189 -0.103283,-0.105042 -0.320345,-0.193884 -0.482355,-0.197431 -0.277038,-0.006 -0.269146,-1.601611 0.0093,-1.881025 0.745917,-0.748502 5.622502,6.496163 10.246592,15.222354 2.035595,3.84142 2.668135,4.827797 3.098285,4.831426 0.45499,0.0038 0.14481,-0.813378 -1.977007,-5.208754 C 84.556463,64.917468 80.753654,59.051546 76.639586,54.73851 l -1.82128,-1.909366 -0.245042,1.386861 c -0.134773,0.762775 -0.211869,3.773577 -0.171325,6.690673 0.07284,5.240736 0.528644,9.327885 1.677256,15.039854 0.837033,4.162515 0.944323,4.384093 2.927141,6.045175 l 1.815428,1.520852 0.465816,-1.041141 c 0.2562,-0.572628 0.628,-1.217337 0.82622,-1.432685 z m -7.801414,0.638009 c -0.06858,-0.174195 -0.127099,-0.03265 -0.130028,0.314568 -0.0029,0.347208 0.05318,0.48973 0.124701,0.316718 0.0715,-0.173013 0.07392,-0.457092 0.0053,-0.631286 z m 1.100939,-0.654254 c 0.0028,-0.331133 -0.645918,-0.8146 -0.838693,-0.625051 -0.34862,0.342784 -0.153455,0.838291 0.331794,0.842385 0.277765,0.0023 0.50587,-0.09546 0.506899,-0.217334 z M 49.358017,71.322524 c 2.098251,-1.760105 4.100609,-3.378868 4.449684,-3.597254 0.349076,-0.218384 1.092649,-0.800816 1.652385,-1.294293 0.559739,-0.493478 2.875951,-2.271853 5.147141,-3.95194 2.271192,-1.680092 4.130906,-3.228291 4.132695,-3.440445 0.0071,-0.846829 -1.695646,-1.229064 -6.110614,-1.371679 -9.973142,-0.322164 -15.683906,0.855743 -24.039711,4.958454 l -2.838053,1.393485 1.127929,0.459482 c 1.41348,0.575807 3.181378,1.599028 4.071212,2.356325 1.11418,0.948226 2.355286,3.342069 2.68627,5.181279 0.29993,1.666644 0.158913,6.541022 -0.228956,7.914154 -0.126325,0.447208 0.737323,-0.245428 2.978554,-2.388774 1.736057,-1.660233 4.873215,-4.45869 6.971464,-6.218794 z"
       style="fill:#000000;stroke-width:0.252524"
       sodipodi:nodetypes="cssscccscscccccccccccccsccccscsscsccccsccccsccccccsssccccsccssccccccccccccsccccccccscccssccccccccscccsccscccccccccccsccscscccccccccccccccccccccccccscccccccccccccccccccccccccccsccccccccsccccccccccccsscscsccccscscssccccccccccscccscsccccccsscssscsssccsscccsccccccccccccccccccccccccscccccccccccccccccccccccccccccccccccccccccccccccccccccccccccccccccccccccccccccccccccccccccccccccccccccccccccccsccccccscssccsccccccccccccccccccccccccscccccccccscccccccccccscccccccccccccccccccccccccccccccccccscsccccccsccccccccscccccccsccccsccscccccccccsscsccccccccccccsccccccsscscsccscccscscccssccsccccccccccscccccsccscccccccsscsccscssccscscccscccccccccccccccccccscccsccccccsccccccsccccccccccscssscssccccccccsccssccscsscccccccccsccccccccsccccccccccccccccccccccccccccccccccccsccccscccccccccccscsssscccccccccccccsccccsscssscss" />
  </g>
</svg>
