<?xml version="1.0" encoding="UTF-8" standalone="no"?>
<!-- Created with Inkscape (http://www.inkscape.org/) -->

<svg
   width="120.0mm"
   height="120.0mm"
   viewBox="0 0 120.0 120.0"
   version="1.1"
   id="svg1"
   xml:space="preserve"
   inkscape:version="1.4.2 (f4327f4, 2025-05-13)"
   sodipodi:docname="Pinguin.svg"
   xmlns:inkscape="http://www.inkscape.org/namespaces/inkscape"
   xmlns:sodipodi="http://sodipodi.sourceforge.net/DTD/sodipodi-0.dtd"
   xmlns="http://www.w3.org/2000/svg"
   xmlns:svg="http://www.w3.org/2000/svg"><sodipodi:namedview
     id="namedview1"
     pagecolor="#ffffff"
     bordercolor="#666666"
     borderopacity="1.0"
     inkscape:showpageshadow="2"
     inkscape:pageopacity="0.0"
     inkscape:pagecheckerboard="0"
     inkscape:deskcolor="#d1d1d1"
     inkscape:document-units="mm"
     inkscape:zoom="2.0334082"
     inkscape:cx="221.05744"
     inkscape:cy="254.99062"
     inkscape:window-width="1920"
     inkscape:window-height="1009"
     inkscape:window-x="-8"
     inkscape:window-y="-8"
     inkscape:window-maximized="1"
     inkscape:current-layer="g3"
     borderlayer="true"
     showgrid="false"><inkscape:grid
       spacingx="2.54"
       spacingy="2.54"
       empspacing="1"
       type="xygrid"
       units="mm"
       id="grid2"
       visible="false"
       originx="0"
       originy="0" /></sodipodi:namedview><defs
     id="defs1" /><g
     inkscape:label="Ebene 1"
     inkscape:groupmode="layer"
     id="layer1" /><g
     inkscape:label="[fixed] BG"
     inkscape:groupmode="layer"
     sodipodi:insensitive="true"
     id="g2"><rect
       x="0"
       y="0"
       width="120.0"
       height="120.0"
       style="fill:#FFFFFF;fill-opacity:1;stroke:none"
       id="rect2" /></g><g
     inkscape:label="Edge.Cuts"
     inkscape:groupmode="layer"
     id="g3"><path
       id="path1-5"
       style="fill:none;stroke:#000000;stroke-width:0.31;stroke-dasharray:none;stroke-opacity:1"
       d="M 58.3351 9.71334 L 57.4961 9.755 L 56.6589 9.8248 L 55.8242 9.9224 L 54.9929 10.0475 L 54.166 10.1997 L 53.3442 10.3788 L 52.5285 10.5843 L 51.7197 10.816 L 50.9187 11.0736 L 50.1264 11.3566 L 49.3437 11.6649 L 48.5714 11.998 L 47.8103 12.3556 L 47.0615 12.7374 L 46.3257 13.143 L 45.6038 13.5723 L 44.7223 14.144 L 43.8679 14.7548 L 43.042 15.403 L 42.2458 16.0871 L 41.4806 16.8056 L 40.7479 17.557 L 40.0489 18.3398 L 39.385 19.1524 L 38.7575 19.9933 L 38.1677 20.861 L 37.617 21.754 L 37.1066 22.6707 L 36.638 23.6097 L 36.2124 24.5693 L 35.8311 25.5481 L 35.4956 26.5446 L 35.0543 28.0107 L 34.8526 28.7509 L 34.668 29.4955 L 34.5034 30.2441 L 34.3623 30.9965 L 34.2477 31.7524 L 34.1629 32.5114 L 34.1658 33.6936 L 34.1536 34.8799 L 34.1442 36.0675 L 34.1553 37.2541 L 34.2048 38.4369 L 34.2496 39.0262 L 34.3107 39.6136 L 34.3903 40.1988 L 34.4907 40.7814 L 34.6141 41.3613 L 34.7628 41.938 L 33.0406 41.1706 L 31.3224 40.3817 L 29.6022 39.5901 L 27.874 38.815 L 26.1318 38.0753 L 25.2536 37.7247 L 24.3696 37.3902 L 23.4791 37.074 L 22.5815 36.7786 L 21.6758 36.5063 L 20.7614 36.2596 L 20.0238 36.0948 L 19.2607 35.9654 L 18.8735 35.9192 L 18.4848 35.888 L 18.0961 35.874 L 17.709 35.8791 L 17.3252 35.9055 L 16.9462 35.9553 L 16.5737 36.0305 L 16.2093 36.1331 L 15.8545 36.2653 L 15.511 36.4291 L 15.1805 36.6266 L 14.8644 36.8598 L 14.6458 37.0624 L 14.4499 37.2802 L 14.2761 37.5117 L 14.1238 37.7556 L 13.9924 38.0104 L 13.8814 38.2747 L 13.7901 38.5472 L 13.718 38.8264 L 13.6644 39.1108 L 13.6289 39.3992 L 13.6108 39.6901 L 13.6094 39.9821 L 13.6244 40.2737 L 13.655 40.5636 L 13.7006 40.8504 L 13.7607 41.1326 L 13.8787 41.6446 L 14.0163 42.1502 L 14.1722 42.6496 L 14.3449 43.1431 L 14.533 43.6311 L 14.7353 44.1139 L 15.1764 45.0652 L 15.657 45.9996 L 16.1662 46.9196 L 17.2252 48.7271 L 18.0235 49.9821 L 18.8522 51.2175 L 19.7107 52.4326 L 20.5986 53.6266 L 21.5152 54.7987 L 22.4602 55.9483 L 23.4329 57.0744 L 24.4329 58.1763 L 25.4596 59.2533 L 26.5124 60.3046 L 27.591 61.3295 L 28.6947 62.3271 L 29.8231 63.2967 L 30.9755 64.2375 L 32.1516 65.1488 L 33.3507 66.0298 L 32.8564 68.5837 L 32.3846 71.1514 L 32.166 72.4398 L 31.9634 73.7307 L 31.7805 75.0239 L 31.6207 76.3191 L 31.4875 77.6159 L 31.3845 78.9142 L 31.3151 80.2136 L 31.2828 81.5138 L 31.2911 82.8145 L 31.3436 84.1154 L 31.4437 85.4162 L 31.5949 86.7167 L 31.754 87.6579 L 31.9494 88.5968 L 32.1816 89.5306 L 32.4511 90.4562 L 32.7584 91.3709 L 33.104 92.2717 L 33.4885 93.1556 L 33.9123 94.0198 L 34.376 94.8614 L 34.8801 95.6775 L 35.425 96.465 L 36.0113 97.2212 L 36.6396 97.9431 L 37.3103 98.6279 L 37.6616 98.9554 L 38.0238 99.2725 L 38.3969 99.5789 L 38.7809 99.8742 L 38.8676 99.9411 L 38.9139 100.007 L 38.9241 100.072 L 38.9027 100.136 L 38.8541 100.2 L 38.7826 100.262 L 38.5887 100.387 L 38.1202 100.633 L 37.916 100.757 L 37.8368 100.82 L 37.7787 100.883 L 36.322 101.865 L 35.6021 102.38 L 34.9024 102.92 L 34.234 103.494 L 33.9149 103.796 L 33.6076 104.109 L 33.3137 104.434 L 33.0344 104.772 L 32.7711 105.124 L 32.5251 105.491 L 32.4248 105.71 L 32.3524 105.937 L 32.3071 106.171 L 32.2883 106.408 L 32.2952 106.645 L 32.3271 106.88 L 32.3833 107.111 L 32.463 107.333 L 32.5655 107.544 L 32.6902 107.742 L 32.8363 107.924 L 33.003 108.087 L 33.1897 108.227 L 33.3957 108.343 L 33.6201 108.431 L 33.8624 108.489 L 34.3891 108.596 L 34.9213 108.656 L 35.4571 108.674 L 35.9945 108.658 L 36.5315 108.611 L 37.0661 108.541 L 38.1202 108.352 L 38.0947 108.645 L 38.1109 108.928 L 38.1659 109.2 L 38.2564 109.458 L 38.3795 109.703 L 38.532 109.93 L 38.711 110.141 L 38.9133 110.332 L 39.1359 110.502 L 39.3756 110.649 L 39.6295 110.773 L 39.8945 110.871 L 40.1674 110.942 L 40.4452 110.984 L 40.7249 110.996 L 41.0034 110.976 L 41.387 110.904 L 41.7624 110.801 L 42.131 110.672 L 42.4945 110.525 L 43.2128 110.203 L 43.9304 109.89 L 45.1461 109.322 L 45.7556 109.04 L 46.3722 108.774 L 46.6382 109.15 L 46.9349 109.518 L 47.2624 109.861 L 47.6208 110.164 L 47.8116 110.296 L 48.0101 110.412 L 48.2164 110.509 L 48.4304 110.587 L 48.6522 110.642 L 48.8818 110.674 L 49.1192 110.679 L 49.3644 110.657 L 49.7066 110.606 L 50.0336 110.524 L 50.3464 110.411 L 50.6457 110.272 L 50.9325 110.109 L 51.2075 109.924 L 51.4717 109.72 L 51.7258 109.5 L 52.2075 109.021 L 52.6594 108.509 L 53.5011 107.469 L 53.7934 107.032 L 54.064 106.583 L 54.3174 106.123 L 54.5577 105.656 L 55.4757 103.766 L 56.3662 103.45 L 57.2655 103.158 L 58.1729 102.898 L 59.0875 102.681 L 60.0085 102.515 L 60.4711 102.454 L 60.9351 102.41 L 61.4002 102.382 L 61.8665 102.373 L 62.3337 102.383 L 62.8019 102.415 L 63.914 102.502 L 65.0159 102.638 L 66.1095 102.816 L 67.1964 103.028 L 68.2786 103.267 L 69.3578 103.524 L 71.5148 104.063 L 71.6647 104.231 L 71.7901 104.424 L 71.8979 104.636 L 71.9948 104.859 L 72.1835 105.314 L 72.2888 105.533 L 72.4105 105.737 L 72.8247 106.477 L 73.2796 107.204 L 73.7783 107.905 L 74.045 108.242 L 74.3237 108.568 L 74.6149 108.881 L 74.9189 109.181 L 75.236 109.465 L 75.5667 109.732 L 75.9113 109.98 L 76.2702 110.208 L 76.6437 110.415 L 77.0323 110.598 L 77.2951 110.664 L 77.5592 110.701 L 77.823 110.709 L 78.0849 110.691 L 78.3433 110.647 L 78.5966 110.579 L 78.8432 110.488 L 79.0814 110.376 L 79.3097 110.243 L 79.5264 110.09 L 79.7299 109.921 L 79.9187 109.734 L 80.091 109.532 L 80.2453 109.316 L 80.3799 109.088 L 80.4933 108.848 L 80.5649 108.816 L 80.6371 108.801 L 80.783 108.815 L 80.9308 108.874 L 81.0803 108.962 L 81.3844 109.157 L 81.5388 109.233 L 81.6944 109.272 L 82.9436 109.871 L 83.5789 110.167 L 84.2234 110.438 L 84.8788 110.668 L 85.211 110.762 L 85.5464 110.84 L 85.8854 110.899 L 86.228 110.937 L 86.5744 110.952 L 86.9249 110.942 L 87.1479 110.899 L 87.3627 110.832 L 87.5679 110.743 L 87.7624 110.635 L 87.9448 110.508 L 88.1139 110.363 L 88.2684 110.204 L 88.407 110.03 L 88.5285 109.845 L 88.6316 109.649 L 88.715 109.444 L 88.7774 109.231 L 88.8176 109.013 L 88.8343 108.791 L 88.8262 108.566 L 88.7921 108.34 L 89.6062 108.456 L 90.0455 108.52 L 90.4735 108.566 L 90.9728 108.616 L 91.49 108.653 L 92.0143 108.665 L 92.535 108.636 L 92.7906 108.602 L 93.0413 108.552 L 93.2857 108.486 L 93.5225 108.4 L 93.7502 108.294 L 93.9677 108.166 L 94.1735 108.013 L 94.3663 107.834 L 94.5126 107.618 L 94.6251 107.392 L 94.7055 107.159 L 94.7554 106.92 L 94.7767 106.678 L 94.7711 106.433 L 94.7403 106.189 L 94.686 105.946 L 94.61 105.707 L 94.514 105.473 L 94.3996 105.246 L 94.2688 105.028 L 94.1231 104.821 L 93.9643 104.627 L 93.7941 104.447 L 93.6144 104.284 L 92.9818 103.666 L 92.3177 103.086 L 91.6278 102.537 L 90.9177 102.013 L 90.1933 101.507 L 89.4603 101.013 L 87.9913 100.034 L 88.8244 99.3877 L 89.621 98.6996 L 90.3802 97.9715 L 91.1007 97.2058 L 91.7814 96.4048 L 92.4213 95.5708 L 93.0191 94.7059 L 93.5738 93.8125 L 94.0843 92.8929 L 94.5494 91.9494 L 94.968 90.9842 L 95.339 89.9995 L 95.6612 88.9978 L 95.9336 87.9812 L 96.155 86.9521 L 96.3243 85.9127 L 96.4695 84.7968 L 96.5729 83.6796 L 96.6371 82.5615 L 96.6648 81.4428 L 96.6588 80.3238 L 96.6217 79.2049 L 96.5562 78.0864 L 96.4651 76.9688 L 96.3509 75.8522 L 96.2164 74.7371 L 96.0644 73.6238 L 95.8974 72.5126 L 95.5293 70.298 L 95.1339 68.0962 L 94.7243 66.1373 L 94.2889 64.1847 L 93.3917 60.2856 L 94.2575 59.1623 L 95.102 58.0228 L 95.9251 56.8677 L 96.7268 55.6975 L 97.5071 54.5128 L 98.2661 53.314 L 99.0037 52.1018 L 99.7199 50.8766 L 100.415 49.6391 L 101.088 48.3897 L 101.74 47.129 L 102.37 45.8575 L 102.98 44.5758 L 103.567 43.2845 L 104.133 41.984 L 104.678 40.6748 L 105.149 39.4166 L 105.598 38.1446 L 106.012 36.8593 L 106.379 35.5609 L 106.542 34.907 L 106.689 34.2499 L 106.819 33.5897 L 106.93 32.9265 L 107.02 32.2602 L 107.089 31.591 L 107.135 30.9189 L 107.156 30.2438 L 107.15 29.9165 L 107.127 29.5834 L 107.086 29.2474 L 107.026 28.9112 L 106.947 28.5779 L 106.848 28.2502 L 106.728 27.931 L 106.588 27.6232 L 106.425 27.3297 L 106.24 27.0534 L 106.033 26.797 L 105.801 26.5636 L 105.546 26.3559 L 105.266 26.1768 L 104.96 26.0292 L 104.628 25.916 L 104.241 25.8288 L 103.857 25.7806 L 103.475 25.7682 L 103.096 25.7888 L 102.719 25.8393 L 102.346 25.9167 L 101.977 26.0179 L 101.611 26.1401 L 101.248 26.2801 L 100.89 26.4351 L 100.186 26.7776 L 99.4999 27.1437 L 98.8338 27.5092 L 97.5364 28.3259 L 96.2625 29.1786 L 95.0072 30.0596 L 93.7656 30.961 L 91.3043 32.7937 L 90.0747 33.7094 L 88.8394 34.6143 L 86.3507 36.4438 L 86.1221 35.0449 L 85.8473 33.6506 L 85.5257 32.2638 L 85.1567 30.8874 L 84.7396 29.5241 L 84.2739 28.1768 L 83.7589 26.8483 L 83.1941 25.5415 L 82.5787 24.259 L 81.9122 23.0038 L 81.5596 22.3874 L 81.194 21.7788 L 80.8153 21.1784 L 80.4234 20.5866 L 80.0183 20.0037 L 79.5999 19.4301 L 79.1681 18.8661 L 78.7228 18.3122 L 78.2639 17.7686 L 77.7915 17.2356 L 77.3053 16.7138 L 76.8053 16.2033 L 76.1023 15.5507 L 75.3726 14.9262 L 74.6179 14.3311 L 73.8393 13.7665 L 73.0384 13.2336 L 72.2164 12.7334 L 71.3749 12.2672 L 70.5151 11.8361 L 69.6385 11.4413 L 68.7465 11.0838 L 67.8403 10.7649 L 66.9215 10.4858 L 65.9915 10.2475 L 65.0515 10.0512 L 64.103 9.89815 L 63.1474 9.78939 L 61.9454 9.72658 L 60.7424 9.70507 L 58.3351 9.71339 L 58.3351 9.71334" /></g><g
     inkscape:label="B.Cu"
     inkscape:groupmode="layer"
     id="g4" /><g
     inkscape:label="B.Mask"
     inkscape:groupmode="layer"
     id="g5" /><g
     inkscape:label="B.SilkS"
     inkscape:groupmode="layer"
     id="g6" /><g
     inkscape:label="F.Cu"
     inkscape:groupmode="layer"
     id="g7" /><g
     inkscape:label="F.Mask"
     inkscape:groupmode="layer"
     id="g8" /><g
     inkscape:label="F.SilkS"
     inkscape:groupmode="layer"
     id="g9"><path
       style="fill:#000000;stroke-width:0.409585"
       d="m 40.012797,110.15327 c -0.950348,-0.21353 -1.440867,-0.97568 -1.348079,-2.09458 0.02732,-0.32936 0.02126,-0.59819 -0.01343,-0.59741 -0.03469,8.2e-4 -0.526378,0.0977 -1.092609,0.21532 -1.396705,0.29018 -3.234382,0.29336 -3.865757,0.007 -0.517031,-0.23475 -0.776593,-0.57328 -0.867079,-1.13088 -0.194602,-1.19919 1.693982,-3.04961 5.762344,-5.64589 0.715238,-0.45644 1.337688,-0.86641 1.383222,-0.911054 0.04553,-0.0446 -0.257981,-0.314 -0.67448,-0.59858 -3.907195,-2.66966 -6.686417,-7.98117 -7.316739,-13.98337 -0.225403,-2.14639 -0.206529,-5.38208 0.0465,-7.971984 0.287577,-2.943498 0.582135,-4.848236 1.416115,-9.157209 0.115356,-0.596032 0.278043,-1.439294 0.361524,-1.873917 L 33.956113,65.620492 33.6171,65.374868 C 31.093057,63.54584 29.881329,62.549291 27.567284,60.399097 21.588774,54.843909 15.729218,46.386352 14.37434,41.356674 c -0.313038,-1.162075 -0.281999,-2.520865 0.07307,-3.199003 1.292191,-2.46792 4.629158,-2.378862 11.190635,0.29866 1.063737,0.434076 6.721068,2.970144 8.548533,3.832136 0.681705,0.321553 1.265343,0.558764 1.296967,0.52714 0.03162,-0.03162 -0.04819,-0.507406 -0.177375,-1.057286 -0.602659,-2.5653 -0.619644,-2.743048 -0.613255,-6.418253 l 0.006,-3.467819 0.394697,-1.896464 c 1.323991,-6.361584 4.253343,-11.207489 8.90135,-14.725145 3.287435,-2.487964 6.852328,-3.99668 11.227887,-4.751807 1.541485,-0.266027 1.929448,-0.29032 4.714065,-0.295177 3.560776,-0.0062 4.775941,0.155063 7.412267,0.983742 3.174112,0.997721 5.842537,2.538834 8.383279,4.84165 4.955769,4.49169 8.660239,12.012935 9.820442,19.938593 0.1116,0.762397 0.222274,1.405537 0.245939,1.429201 0.02367,0.02367 1.480579,-1.031189 3.237589,-2.344118 7.08591,-5.294975 9.01837,-6.642832 11.07698,-7.726007 2.625,-1.381191 4.34753,-1.423672 5.45106,-0.134437 2.07341,2.422313 0.32566,10.049646 -4.4728,19.519659 -2.13194,4.207499 -5.5291,9.627696 -7.61969,12.157268 -0.47394,0.573456 -0.8617,1.101284 -0.8617,1.172949 0,0.07167 0.16809,0.809471 0.37355,1.639565 2.22534,8.991065 3.24717,16.610405 2.8911,21.557585 -0.35646,4.95257 -1.67157,8.64561 -4.36627,12.26125 -0.85095,1.14177 -2.91581,3.16045 -3.93629,3.84825 -0.38434,0.25906 -0.69938,0.51978 -0.70009,0.57938 -8.2e-4,0.0596 0.61103,0.494854 1.35943,0.967214 3.01859,1.90525 5.05423,3.61879 5.63637,4.74453 0.0941,0.18188 0.17418,0.54069 0.17806,0.79737 0.0151,0.9985 -0.68398,1.45022 -2.24863,1.45302 -0.85497,0.002 -2.31163,-0.16386 -3.37967,-0.38372 l -0.34533,-0.0711 0.0154,0.80392 c 0.0188,0.98018 -0.2053,1.44759 -0.84446,1.76166 -0.93656,0.46021 -2.042725,0.17945 -5.111401,-1.29734 l -1.878611,-0.90407 -0.389863,0.61576 c -0.533169,0.8421 -0.780837,1.09842 -1.287105,1.33208 -0.954853,0.44069 -1.928731,0.13056 -3.142794,-1.00081 -1.261317,-1.17541 -2.349142,-2.77141 -3.041001,-4.46159 -0.199426,-0.48719 -0.401409,-0.89413 -0.448851,-0.9043 -0.04744,-0.0101 -1.012814,-0.2398 -2.145271,-0.51029 -3.424524,-0.81795 -4.056091,-0.94158 -5.635206,-1.10313 -3.07892,-0.31499 -4.526925,-0.1825 -7.17089,0.65611 -0.883864,0.28034 -1.724058,0.54312 -1.867089,0.58396 -0.204138,0.0583 -0.360079,0.30861 -0.725162,1.16411 -0.786924,1.84399 -1.646225,3.1615 -2.855373,4.37794 -0.989512,0.99548 -1.648555,1.34864 -2.516768,1.34864 -0.794525,0 -1.383513,-0.3921 -1.987077,-1.32284 -0.238412,-0.36764 -0.511826,-0.67149 -0.607583,-0.67522 -0.09576,-0.004 -1.022311,0.40201 -2.059016,0.90165 -2.535315,1.22187 -3.54547,1.53488 -4.361592,1.35151 z m 35.908625,-8.705 c 2.412464,-0.38173 4.274515,-0.80866 6.478557,-1.485414 1.073449,-0.32959 1.144069,-0.37052 1.728805,-1.00192 0.335298,-0.36206 0.949078,-1.17034 1.363955,-1.79617 1.694391,-2.55597 2.723481,-5.45624 3.181011,-8.96502 0.25576,-1.96142 0.25602,-6.02673 4.1e-4,-8.27892 -0.81579,-7.191317 -3.10659,-15.402795 -6.541345,-23.447687 -1.242324,-2.909785 -3.27713,-6.642861 -5.367889,-9.847987 -0.384138,-0.58888 -0.525047,-0.895414 -0.455958,-0.991879 0.05499,-0.07678 0.416969,-0.53031 0.804388,-1.007829 1.683177,-2.074626 2.519488,-4.17945 2.820201,-7.097875 0.333414,-3.23573 -0.789311,-8.323981 -2.574954,-11.669835 -1.955871,-3.664816 -4.716793,-6.075311 -7.968701,-6.957276 -0.720824,-0.195499 -1.172535,-0.241274 -2.354896,-0.238642 -1.658684,0.0037 -2.507778,0.185626 -3.901298,0.83592 -2.494315,1.16399 -4.965607,3.808076 -6.076729,6.501622 -0.226034,0.54794 -0.455913,0.996254 -0.510839,0.996254 -0.05493,0 -0.371829,-0.31698 -0.704223,-0.704401 -2.229187,-2.598217 -5.430528,-4.226404 -8.309955,-4.226404 -3.432658,0 -6.309943,2.043613 -8.162906,5.79776 -0.966628,1.958418 -1.372035,4.090543 -1.370274,7.206561 0.0029,4.751242 0.609524,7.572393 2.191197,10.186721 0.690458,1.141251 2.402007,2.933816 3.518032,3.68456 0.310113,0.20861 0.5651,0.431916 0.566636,0.496237 0.0016,0.06432 -0.330662,0.844581 -0.738219,1.733912 -2.970601,6.482141 -5.12784,13.716554 -6.18572,20.744151 -0.662541,4.401298 -0.708144,5.010887 -0.709401,9.482317 -0.0012,3.94639 0.01548,4.31974 0.250186,5.6352 0.881079,4.93787 2.352058,8.13244 5.050633,10.96859 0.99539,1.04613 1.264156,1.26349 1.987032,1.60695 3.031502,1.440364 5.817192,2.080954 8.597869,1.977154 1.26087,-0.0471 1.443217,-0.0839 3.047922,-0.61577 0.938748,-0.31115 1.706814,-0.60397 1.706814,-0.65072 0,-0.0468 -0.207254,-0.14569 -0.460566,-0.21985 -0.813833,-0.238274 -2.682142,-1.009884 -2.682142,-1.107734 0,-0.0521 0.182871,-0.0682 0.406386,-0.0357 0.22351,0.0325 1.723071,0.17834 3.332354,0.32415 8.199405,0.742894 10.576304,1.093004 13.600356,2.003304 1.661538,0.50016 2.201879,0.52031 4.443144,0.16567 z M 58.381528,45.245887 c -1.212093,-0.389941 -2.42945,-1.122029 -4.099401,-2.465287 -0.955341,-0.768451 -1.985226,-1.842158 -1.985226,-2.069703 0,-0.387692 2.178034,-3.268528 3.411966,-4.512928 1.726687,-1.741335 2.548458,-1.769544 5.582692,-0.191641 1.448022,0.75302 2.89946,1.674586 3.455518,2.194019 l 0.341266,0.318792 -0.221164,0.561094 c -0.661378,1.67793 -2.204088,3.951954 -3.509255,5.172804 -1.216647,1.138044 -1.859004,1.352319 -2.976396,0.99285 z M 59.997,43.863612 c 0.677032,-0.433583 2.288487,-2.20147 2.141056,-2.3489 -0.02785,-0.02785 -0.571711,0.262253 -1.208529,0.644723 -0.636819,0.382467 -1.381887,0.78096 -1.65571,0.885531 -0.474869,0.181356 -0.541103,0.181303 -1.434535,-0.0012 -0.515176,-0.105182 -1.046408,-0.217011 -1.180514,-0.248508 -0.134106,-0.0315 -0.24383,-0.01421 -0.24383,0.03838 0,0.144756 1.060358,0.809832 1.733908,1.087534 0.808202,0.333218 1.25981,0.319128 1.848154,-0.05766 z m -0.752551,-2.135801 c 1.376554,-0.697552 4.106126,-2.663482 4.106126,-2.957367 0,-0.327532 -2.980779,-2.059639 -4.304262,-2.501172 -0.965572,-0.322129 -1.216943,-0.294096 -1.889002,0.210661 -0.83455,0.626797 -3.343237,3.614039 -3.343237,3.980991 0,0.192701 1.603295,0.78664 3.467816,1.284646 1.18214,0.315741 1.30665,0.314615 1.962559,-0.01778 z M 46.151918,38.26171 c -1.485998,-0.740505 -2.397988,-2.518521 -2.276792,-4.438829 0.176899,-2.802948 2.179373,-4.349717 4.275297,-3.30237 2.159037,1.078883 3.070962,4.213934 1.850501,6.361725 -0.854579,1.503898 -2.451088,2.076084 -3.849006,1.379474 z m 2.076277,-4.343592 c 0.25461,-0.0977 0.492518,-0.619143 0.492518,-1.079481 0,-0.718679 -0.666882,-1.447895 -1.163684,-1.272456 -0.611953,0.216103 -0.908223,0.910704 -0.681485,1.597726 0.209803,0.635707 0.801587,0.965674 1.352651,0.754211 z m 19.673894,1.3784 c -1.871975,-0.391407 -3.279502,-2.548539 -3.116634,-4.776449 0.107241,-1.466963 0.784592,-2.644466 1.828248,-3.178211 1.223311,-0.625625 2.270444,-0.458975 3.340407,0.531622 1.096942,1.015575 1.569558,2.230602 1.506047,3.871823 -0.04424,1.143295 -0.333533,1.909033 -0.99985,2.646567 -0.616355,0.682234 -1.73315,1.077159 -2.558218,0.904648 z M 67.474613,30.94788 c 0.250335,-0.133973 0.535844,-0.654782 0.535844,-0.977444 0,-0.603499 -0.609217,-1.295099 -1.140829,-1.295099 -0.09695,0 -0.324809,0.148537 -0.506358,0.330081 -0.302483,0.302483 -0.325599,0.376699 -0.276507,0.887612 0.08271,0.860774 0.771822,1.384541 1.38785,1.05485 z"
       id="path1" /></g><g
     inkscape:label="Dwgs.User"
     inkscape:groupmode="layer"
     id="g10" /><g
     inkscape:label="Drill"
     inkscape:groupmode="layer"
     id="g11" /></svg>
