%TF.GenerationSoftware,KiCad,Pcbnew,7.0.8*%
%TF.CreationDate,2024-08-22T12:09:47+02:00*%
%TF.ProjectId,Cow,436f772e-6b69-4636-9164-5f7063625858,rev?*%
%TF.SameCoordinates,Original*%
%TF.FileFunction,Copper,L2,Bot*%
%TF.FilePolarity,Positive*%
%FSLAX46Y46*%
G04 Gerber Fmt 4.6, Leading zero omitted, Abs format (unit mm)*
G04 Created by KiCad (PCBNEW 7.0.8) date 2024-08-22 12:09:47*
%MOMM*%
%LPD*%
G01*
G04 APERTURE LIST*
%ADD10C,0.300000*%
%TA.AperFunction,NonConductor*%
%ADD11C,0.300000*%
%TD*%
%TA.AperFunction,SMDPad,CuDef*%
%ADD12C,3.000000*%
%TD*%
%TA.AperFunction,ComponentPad*%
%ADD13R,1.800000X1.800000*%
%TD*%
%TA.AperFunction,ComponentPad*%
%ADD14C,1.800000*%
%TD*%
%TA.AperFunction,ComponentPad*%
%ADD15R,1.500000X1.500000*%
%TD*%
%TA.AperFunction,ComponentPad*%
%ADD16C,1.500000*%
%TD*%
%TA.AperFunction,ComponentPad*%
%ADD17R,1.600000X1.600000*%
%TD*%
%TA.AperFunction,ComponentPad*%
%ADD18C,1.600000*%
%TD*%
%TA.AperFunction,ComponentPad*%
%ADD19C,2.000000*%
%TD*%
%TA.AperFunction,ComponentPad*%
%ADD20O,1.600000X1.600000*%
%TD*%
%TA.AperFunction,SMDPad,CuDef*%
%ADD21R,5.000000X2.000000*%
%TD*%
%TA.AperFunction,SMDPad,CuDef*%
%ADD22C,17.780000*%
%TD*%
%TA.AperFunction,ViaPad*%
%ADD23C,0.600000*%
%TD*%
%TA.AperFunction,Conductor*%
%ADD24C,0.250000*%
%TD*%
G04 APERTURE END LIST*
D10*
D11*
X177495489Y-82400828D02*
X177495489Y-80900828D01*
X176638346Y-82400828D02*
X177281203Y-81543685D01*
X176638346Y-80900828D02*
X177495489Y-81757971D01*
X175995489Y-82400828D02*
X175995489Y-80900828D01*
X175995489Y-81615114D02*
X175138346Y-81615114D01*
X175138346Y-82400828D02*
X175138346Y-80900828D01*
X173924060Y-81615114D02*
X174424060Y-81615114D01*
X174424060Y-82400828D02*
X174424060Y-80900828D01*
X174424060Y-80900828D02*
X173709774Y-80900828D01*
X171709774Y-80900828D02*
X171566917Y-80900828D01*
X171566917Y-80900828D02*
X171424060Y-80972257D01*
X171424060Y-80972257D02*
X171352632Y-81043685D01*
X171352632Y-81043685D02*
X171281203Y-81186542D01*
X171281203Y-81186542D02*
X171209774Y-81472257D01*
X171209774Y-81472257D02*
X171209774Y-81829400D01*
X171209774Y-81829400D02*
X171281203Y-82115114D01*
X171281203Y-82115114D02*
X171352632Y-82257971D01*
X171352632Y-82257971D02*
X171424060Y-82329400D01*
X171424060Y-82329400D02*
X171566917Y-82400828D01*
X171566917Y-82400828D02*
X171709774Y-82400828D01*
X171709774Y-82400828D02*
X171852632Y-82329400D01*
X171852632Y-82329400D02*
X171924060Y-82257971D01*
X171924060Y-82257971D02*
X171995489Y-82115114D01*
X171995489Y-82115114D02*
X172066917Y-81829400D01*
X172066917Y-81829400D02*
X172066917Y-81472257D01*
X172066917Y-81472257D02*
X171995489Y-81186542D01*
X171995489Y-81186542D02*
X171924060Y-81043685D01*
X171924060Y-81043685D02*
X171852632Y-80972257D01*
X171852632Y-80972257D02*
X171709774Y-80900828D01*
X170352632Y-81543685D02*
X170495489Y-81472257D01*
X170495489Y-81472257D02*
X170566918Y-81400828D01*
X170566918Y-81400828D02*
X170638346Y-81257971D01*
X170638346Y-81257971D02*
X170638346Y-81186542D01*
X170638346Y-81186542D02*
X170566918Y-81043685D01*
X170566918Y-81043685D02*
X170495489Y-80972257D01*
X170495489Y-80972257D02*
X170352632Y-80900828D01*
X170352632Y-80900828D02*
X170066918Y-80900828D01*
X170066918Y-80900828D02*
X169924061Y-80972257D01*
X169924061Y-80972257D02*
X169852632Y-81043685D01*
X169852632Y-81043685D02*
X169781203Y-81186542D01*
X169781203Y-81186542D02*
X169781203Y-81257971D01*
X169781203Y-81257971D02*
X169852632Y-81400828D01*
X169852632Y-81400828D02*
X169924061Y-81472257D01*
X169924061Y-81472257D02*
X170066918Y-81543685D01*
X170066918Y-81543685D02*
X170352632Y-81543685D01*
X170352632Y-81543685D02*
X170495489Y-81615114D01*
X170495489Y-81615114D02*
X170566918Y-81686542D01*
X170566918Y-81686542D02*
X170638346Y-81829400D01*
X170638346Y-81829400D02*
X170638346Y-82115114D01*
X170638346Y-82115114D02*
X170566918Y-82257971D01*
X170566918Y-82257971D02*
X170495489Y-82329400D01*
X170495489Y-82329400D02*
X170352632Y-82400828D01*
X170352632Y-82400828D02*
X170066918Y-82400828D01*
X170066918Y-82400828D02*
X169924061Y-82329400D01*
X169924061Y-82329400D02*
X169852632Y-82257971D01*
X169852632Y-82257971D02*
X169781203Y-82115114D01*
X169781203Y-82115114D02*
X169781203Y-81829400D01*
X169781203Y-81829400D02*
X169852632Y-81686542D01*
X169852632Y-81686542D02*
X169924061Y-81615114D01*
X169924061Y-81615114D02*
X170066918Y-81543685D01*
X169138347Y-82257971D02*
X169066918Y-82329400D01*
X169066918Y-82329400D02*
X169138347Y-82400828D01*
X169138347Y-82400828D02*
X169209775Y-82329400D01*
X169209775Y-82329400D02*
X169138347Y-82257971D01*
X169138347Y-82257971D02*
X169138347Y-82400828D01*
X168495489Y-81043685D02*
X168424061Y-80972257D01*
X168424061Y-80972257D02*
X168281204Y-80900828D01*
X168281204Y-80900828D02*
X167924061Y-80900828D01*
X167924061Y-80900828D02*
X167781204Y-80972257D01*
X167781204Y-80972257D02*
X167709775Y-81043685D01*
X167709775Y-81043685D02*
X167638346Y-81186542D01*
X167638346Y-81186542D02*
X167638346Y-81329400D01*
X167638346Y-81329400D02*
X167709775Y-81543685D01*
X167709775Y-81543685D02*
X168566918Y-82400828D01*
X168566918Y-82400828D02*
X167638346Y-82400828D01*
X166709775Y-80900828D02*
X166566918Y-80900828D01*
X166566918Y-80900828D02*
X166424061Y-80972257D01*
X166424061Y-80972257D02*
X166352633Y-81043685D01*
X166352633Y-81043685D02*
X166281204Y-81186542D01*
X166281204Y-81186542D02*
X166209775Y-81472257D01*
X166209775Y-81472257D02*
X166209775Y-81829400D01*
X166209775Y-81829400D02*
X166281204Y-82115114D01*
X166281204Y-82115114D02*
X166352633Y-82257971D01*
X166352633Y-82257971D02*
X166424061Y-82329400D01*
X166424061Y-82329400D02*
X166566918Y-82400828D01*
X166566918Y-82400828D02*
X166709775Y-82400828D01*
X166709775Y-82400828D02*
X166852633Y-82329400D01*
X166852633Y-82329400D02*
X166924061Y-82257971D01*
X166924061Y-82257971D02*
X166995490Y-82115114D01*
X166995490Y-82115114D02*
X167066918Y-81829400D01*
X167066918Y-81829400D02*
X167066918Y-81472257D01*
X167066918Y-81472257D02*
X166995490Y-81186542D01*
X166995490Y-81186542D02*
X166924061Y-81043685D01*
X166924061Y-81043685D02*
X166852633Y-80972257D01*
X166852633Y-80972257D02*
X166709775Y-80900828D01*
X165638347Y-81043685D02*
X165566919Y-80972257D01*
X165566919Y-80972257D02*
X165424062Y-80900828D01*
X165424062Y-80900828D02*
X165066919Y-80900828D01*
X165066919Y-80900828D02*
X164924062Y-80972257D01*
X164924062Y-80972257D02*
X164852633Y-81043685D01*
X164852633Y-81043685D02*
X164781204Y-81186542D01*
X164781204Y-81186542D02*
X164781204Y-81329400D01*
X164781204Y-81329400D02*
X164852633Y-81543685D01*
X164852633Y-81543685D02*
X165709776Y-82400828D01*
X165709776Y-82400828D02*
X164781204Y-82400828D01*
X163495491Y-81400828D02*
X163495491Y-82400828D01*
X163852633Y-80829400D02*
X164209776Y-81900828D01*
X164209776Y-81900828D02*
X163281205Y-81900828D01*
D12*
%TO.P,,1*%
%TO.N,Net-(D1-K)*%
X138456191Y-139320000D03*
%TD*%
D13*
%TO.P,D2,1,K*%
%TO.N,Net-(D1-K)*%
X150175000Y-81120000D03*
D14*
%TO.P,D2,2,A*%
%TO.N,Net-(D1-A)*%
X152715000Y-81120000D03*
%TD*%
D13*
%TO.P,D1,1,K*%
%TO.N,Net-(D1-K)*%
X122900000Y-80960000D03*
D14*
%TO.P,D1,2,A*%
%TO.N,Net-(D1-A)*%
X125440000Y-80960000D03*
%TD*%
D15*
%TO.P,Q2,1,E*%
%TO.N,Net-(D1-A)*%
X151730000Y-99500000D03*
D16*
%TO.P,Q2,2,B*%
%TO.N,Net-(Q1-C)*%
X154270000Y-96960000D03*
%TO.P,Q2,3,C*%
%TO.N,Net-(Q2-C)*%
X156810000Y-99500000D03*
%TD*%
D12*
%TO.P,,1*%
%TO.N,Net-(S1-A-Pad1)*%
X125140000Y-74030000D03*
%TD*%
D15*
%TO.P,Q1,1,E*%
%TO.N,Net-(D1-K)*%
X120130000Y-99380000D03*
D16*
%TO.P,Q1,2,B*%
%TO.N,Net-(Q1-B)*%
X122670000Y-96840000D03*
%TO.P,Q1,3,C*%
%TO.N,Net-(Q1-C)*%
X125210000Y-99380000D03*
%TD*%
D12*
%TO.P,,1*%
%TO.N,unconnected-(U1-Q-Pad3)*%
X138456191Y-133300000D03*
%TD*%
D17*
%TO.P,C1,1*%
%TO.N,Net-(D3-K)*%
X148410000Y-139800000D03*
D18*
%TO.P,C1,2*%
%TO.N,Net-(D1-K)*%
X150910000Y-139800000D03*
%TD*%
D19*
%TO.P,S1,1,A*%
%TO.N,Net-(S1-A-Pad1)*%
X120620000Y-117030000D03*
%TO.P,S1,2,E*%
%TO.N,Net-(S1-E)*%
X120620000Y-119570000D03*
%TO.P,S1,3,A*%
%TO.N,unconnected-(S1-A-Pad3)*%
X120620000Y-122110000D03*
%TD*%
D18*
%TO.P,R3,1*%
%TO.N,Net-(D3-K)*%
X143260000Y-106930000D03*
D20*
%TO.P,R3,2*%
%TO.N,Net-(Q1-B)*%
X133100000Y-106930000D03*
%TD*%
D18*
%TO.P,R7,1*%
%TO.N,Net-(D3-K)*%
X143260000Y-123130000D03*
D20*
%TO.P,R7,2*%
%TO.N,Net-(D3-A)*%
X133100000Y-123130000D03*
%TD*%
D17*
%TO.P,U1,1,GND*%
%TO.N,Net-(D1-K)*%
X156120000Y-116620000D03*
D20*
%TO.P,U1,2,TR*%
%TO.N,Net-(D3-K)*%
X156120000Y-119160000D03*
%TO.P,U1,3,Q*%
%TO.N,unconnected-(U1-Q-Pad3)*%
X156120000Y-121700000D03*
%TO.P,U1,4,R*%
%TO.N,Net-(S1-E)*%
X156120000Y-124240000D03*
%TO.P,U1,5,CV*%
%TO.N,unconnected-(U1-CV-Pad5)*%
X148500000Y-124240000D03*
%TO.P,U1,6,THR*%
%TO.N,Net-(D3-K)*%
X148500000Y-121700000D03*
%TO.P,U1,7,DIS*%
%TO.N,Net-(D3-A)*%
X148500000Y-119160000D03*
%TO.P,U1,8,VCC*%
%TO.N,Net-(S1-E)*%
X148500000Y-116620000D03*
%TD*%
D18*
%TO.P,R6,1*%
%TO.N,Net-(S1-E)*%
X143260000Y-119080000D03*
D20*
%TO.P,R6,2*%
%TO.N,Net-(Q2-C)*%
X133100000Y-119080000D03*
%TD*%
D21*
%TO.P,U2,*%
%TO.N,*%
X150844000Y-67362000D03*
X150844000Y-63806000D03*
%TO.P,U2,1*%
%TO.N,Net-(S1-A-Pad1)*%
X124950000Y-67362000D03*
X124950000Y-63806000D03*
D22*
%TO.P,U2,2*%
%TO.N,Net-(D1-K)*%
X137890000Y-65330000D03*
%TD*%
D18*
%TO.P,R1off1,1*%
%TO.N,Net-(S1-E)*%
X143260000Y-127180000D03*
D20*
%TO.P,R1off1,2*%
%TO.N,Net-(D3-A)*%
X133100000Y-127180000D03*
%TD*%
D18*
%TO.P,R4,1*%
%TO.N,Net-(Q1-B)*%
X143260000Y-110980000D03*
D20*
%TO.P,R4,2*%
%TO.N,Net-(D1-K)*%
X133100000Y-110980000D03*
%TD*%
D12*
%TO.P,+,1*%
%TO.N,Net-(D1-K)*%
X137840000Y-79560000D03*
%TD*%
D17*
%TO.P,D3,1,K*%
%TO.N,Net-(D3-K)*%
X156160000Y-130450000D03*
D20*
%TO.P,D3,2,A*%
%TO.N,Net-(D3-A)*%
X148540000Y-130450000D03*
%TD*%
D18*
%TO.P,R5,1*%
%TO.N,Net-(S1-E)*%
X143260000Y-115030000D03*
D20*
%TO.P,R5,2*%
%TO.N,Net-(Q1-C)*%
X133100000Y-115030000D03*
%TD*%
D23*
%TO.N,Net-(D1-K)*%
X150870000Y-112940000D03*
%TO.N,Net-(S1-A-Pad1)*%
X119680000Y-75480000D03*
%TD*%
D24*
%TO.N,Net-(D3-K)*%
X156120000Y-119160000D02*
X154560000Y-119160000D01*
X157800000Y-119160000D02*
X157800000Y-128810000D01*
X148410000Y-139800000D02*
X156160000Y-132050000D01*
X156160000Y-131810000D02*
X156160000Y-132660000D01*
X152020000Y-121700000D02*
X148500000Y-121700000D01*
X156160000Y-132050000D02*
X156160000Y-131810000D01*
X154560000Y-119160000D02*
X152020000Y-121700000D01*
X156120000Y-119160000D02*
X157800000Y-119160000D01*
X148500000Y-121700000D02*
X144690000Y-121700000D01*
X144690000Y-121700000D02*
X143260000Y-123130000D01*
X156160000Y-130450000D02*
X156160000Y-131810000D01*
X157800000Y-128810000D02*
X156160000Y-130450000D01*
%TO.N,Net-(D1-K)*%
X137890000Y-65330000D02*
X137890000Y-79510000D01*
X137840000Y-79560000D02*
X148615000Y-79560000D01*
X128270000Y-107470000D02*
X128270000Y-109330000D01*
X150910000Y-143490000D02*
X150910000Y-139800000D01*
X137840000Y-79560000D02*
X135540000Y-79560000D01*
X120180000Y-99380000D02*
X128270000Y-107470000D01*
X129920000Y-110980000D02*
X133100000Y-110980000D01*
X122900000Y-81560000D02*
X120130000Y-84330000D01*
X149840000Y-144560000D02*
X150910000Y-143490000D01*
X146010000Y-144560000D02*
X140770000Y-139320000D01*
X135540000Y-79560000D02*
X134210000Y-78230000D01*
X122900000Y-80960000D02*
X122900000Y-81560000D01*
X140770000Y-139320000D02*
X138456191Y-139320000D01*
X128270000Y-109330000D02*
X129920000Y-110980000D01*
X150870000Y-112940000D02*
X154550000Y-116620000D01*
X146010000Y-144560000D02*
X149840000Y-144560000D01*
X156120000Y-116620000D02*
X157400000Y-116620000D01*
X154550000Y-116620000D02*
X156120000Y-116620000D01*
X124380000Y-78230000D02*
X122900000Y-79710000D01*
X134210000Y-78230000D02*
X124380000Y-78230000D01*
X122900000Y-79710000D02*
X122900000Y-80960000D01*
X120130000Y-84330000D02*
X120130000Y-99380000D01*
X120130000Y-99380000D02*
X120180000Y-99380000D01*
X156640000Y-139800000D02*
X150910000Y-139800000D01*
X157400000Y-116620000D02*
X158940000Y-118160000D01*
X158940000Y-137500000D02*
X156640000Y-139800000D01*
X137890000Y-79510000D02*
X137840000Y-79560000D01*
X158940000Y-118160000D02*
X158940000Y-137500000D01*
X148615000Y-79560000D02*
X150175000Y-81120000D01*
%TO.N,Net-(D1-A)*%
X151730000Y-82105000D02*
X151730000Y-87890000D01*
X152715000Y-81120000D02*
X151730000Y-82105000D01*
X132370000Y-87890000D02*
X151730000Y-87890000D01*
X125440000Y-80960000D02*
X132370000Y-87890000D01*
X151730000Y-87890000D02*
X151730000Y-99500000D01*
%TO.N,Net-(D3-A)*%
X136280000Y-130450000D02*
X136280000Y-130360000D01*
X148540000Y-130450000D02*
X136280000Y-130450000D01*
X136280000Y-130360000D02*
X133100000Y-127180000D01*
%TO.N,Net-(Q1-C)*%
X147220000Y-109000000D02*
X138700000Y-109000000D01*
X125210000Y-99380000D02*
X137380000Y-99380000D01*
X135660000Y-112040000D02*
X135660000Y-112470000D01*
X154270000Y-96960000D02*
X154270000Y-101950000D01*
X137380000Y-99380000D02*
X138700000Y-100700000D01*
X138700000Y-109000000D02*
X135660000Y-112040000D01*
X135660000Y-112470000D02*
X133100000Y-115030000D01*
X138700000Y-100700000D02*
X138700000Y-109000000D01*
X154270000Y-101950000D02*
X147220000Y-109000000D01*
%TO.N,Net-(Q2-C)*%
X139660000Y-112940000D02*
X137310000Y-115290000D01*
X156810000Y-102180000D02*
X146050000Y-112940000D01*
X137310000Y-117050000D02*
X135280000Y-119080000D01*
X146050000Y-112940000D02*
X139660000Y-112940000D01*
X135280000Y-119080000D02*
X133100000Y-119080000D01*
X137310000Y-115290000D02*
X137310000Y-117050000D01*
X156810000Y-99500000D02*
X156810000Y-102180000D01*
%TO.N,Net-(S1-E)*%
X141510000Y-120830000D02*
X141510000Y-126660000D01*
X130570000Y-119570000D02*
X131970000Y-120970000D01*
X120620000Y-119570000D02*
X130570000Y-119570000D01*
X142030000Y-127180000D02*
X143260000Y-127180000D01*
X143260000Y-118210000D02*
X143260000Y-119080000D01*
X141510000Y-120830000D02*
X143260000Y-119080000D01*
X141510000Y-120970000D02*
X141510000Y-120830000D01*
X148500000Y-116620000D02*
X144850000Y-116620000D01*
X144850000Y-116620000D02*
X143260000Y-118210000D01*
X144850000Y-116620000D02*
X143260000Y-115030000D01*
X141510000Y-126660000D02*
X142030000Y-127180000D01*
X131970000Y-120970000D02*
X141510000Y-120970000D01*
%TO.N,Net-(S1-A-Pad1)*%
X124950000Y-63806000D02*
X124950000Y-67362000D01*
X124950000Y-67362000D02*
X124950000Y-73840000D01*
X124950000Y-73840000D02*
X125140000Y-74030000D01*
X121130000Y-74030000D02*
X125140000Y-74030000D01*
X119680000Y-75480000D02*
X121130000Y-74030000D01*
%TO.N,unconnected-(U1-Q-Pad3)*%
X138456191Y-133300000D02*
X150810000Y-133300000D01*
X151520000Y-126300000D02*
X156120000Y-121700000D01*
X150810000Y-133300000D02*
X151520000Y-132590000D01*
X151520000Y-132590000D02*
X151520000Y-126300000D01*
%TD*%
M02*
