%TF.GenerationSoftware,KiCad,Pcbnew,7.0.8*%
%TF.CreationDate,2024-08-22T12:09:47+02:00*%
%TF.ProjectId,Cow,436f772e-6b69-4636-9164-5f7063625858,rev?*%
%TF.SameCoordinates,Original*%
%TF.FileFunction,Copper,L1,Top*%
%TF.FilePolarity,Positive*%
%FSLAX46Y46*%
G04 Gerber Fmt 4.6, Leading zero omitted, Abs format (unit mm)*
G04 Created by KiCad (PCBNEW 7.0.8) date 2024-08-22 12:09:47*
%MOMM*%
%LPD*%
G01*
G04 APERTURE LIST*
%TA.AperFunction,ComponentPad*%
%ADD10R,1.800000X1.800000*%
%TD*%
%TA.AperFunction,ComponentPad*%
%ADD11C,1.800000*%
%TD*%
%TA.AperFunction,ComponentPad*%
%ADD12R,1.500000X1.500000*%
%TD*%
%TA.AperFunction,ComponentPad*%
%ADD13C,1.500000*%
%TD*%
%TA.AperFunction,ComponentPad*%
%ADD14R,1.600000X1.600000*%
%TD*%
%TA.AperFunction,ComponentPad*%
%ADD15C,1.600000*%
%TD*%
%TA.AperFunction,ComponentPad*%
%ADD16C,2.000000*%
%TD*%
%TA.AperFunction,ComponentPad*%
%ADD17O,1.600000X1.600000*%
%TD*%
%TA.AperFunction,ViaPad*%
%ADD18C,0.600000*%
%TD*%
%TA.AperFunction,Conductor*%
%ADD19C,0.250000*%
%TD*%
G04 APERTURE END LIST*
D10*
%TO.P,D2,1,K*%
%TO.N,Net-(D1-K)*%
X150175000Y-81120000D03*
D11*
%TO.P,D2,2,A*%
%TO.N,Net-(D1-A)*%
X152715000Y-81120000D03*
%TD*%
D10*
%TO.P,D1,1,K*%
%TO.N,Net-(D1-K)*%
X122900000Y-80960000D03*
D11*
%TO.P,D1,2,A*%
%TO.N,Net-(D1-A)*%
X125440000Y-80960000D03*
%TD*%
D12*
%TO.P,Q2,1,E*%
%TO.N,Net-(D1-A)*%
X151730000Y-99500000D03*
D13*
%TO.P,Q2,2,B*%
%TO.N,Net-(Q1-C)*%
X154270000Y-96960000D03*
%TO.P,Q2,3,C*%
%TO.N,Net-(Q2-C)*%
X156810000Y-99500000D03*
%TD*%
D12*
%TO.P,Q1,1,E*%
%TO.N,Net-(D1-K)*%
X120130000Y-99380000D03*
D13*
%TO.P,Q1,2,B*%
%TO.N,Net-(Q1-B)*%
X122670000Y-96840000D03*
%TO.P,Q1,3,C*%
%TO.N,Net-(Q1-C)*%
X125210000Y-99380000D03*
%TD*%
D14*
%TO.P,C1,1*%
%TO.N,Net-(D3-K)*%
X148410000Y-139800000D03*
D15*
%TO.P,C1,2*%
%TO.N,Net-(D1-K)*%
X150910000Y-139800000D03*
%TD*%
D16*
%TO.P,S1,1,A*%
%TO.N,Net-(S1-A-Pad1)*%
X120620000Y-117030000D03*
%TO.P,S1,2,E*%
%TO.N,Net-(S1-E)*%
X120620000Y-119570000D03*
%TO.P,S1,3,A*%
%TO.N,unconnected-(S1-A-Pad3)*%
X120620000Y-122110000D03*
%TD*%
D15*
%TO.P,R3,1*%
%TO.N,Net-(D3-K)*%
X143260000Y-106930000D03*
D17*
%TO.P,R3,2*%
%TO.N,Net-(Q1-B)*%
X133100000Y-106930000D03*
%TD*%
D15*
%TO.P,R7,1*%
%TO.N,Net-(D3-K)*%
X143260000Y-123130000D03*
D17*
%TO.P,R7,2*%
%TO.N,Net-(D3-A)*%
X133100000Y-123130000D03*
%TD*%
D14*
%TO.P,U1,1,GND*%
%TO.N,Net-(D1-K)*%
X156120000Y-116620000D03*
D17*
%TO.P,U1,2,TR*%
%TO.N,Net-(D3-K)*%
X156120000Y-119160000D03*
%TO.P,U1,3,Q*%
%TO.N,unconnected-(U1-Q-Pad3)*%
X156120000Y-121700000D03*
%TO.P,U1,4,R*%
%TO.N,Net-(S1-E)*%
X156120000Y-124240000D03*
%TO.P,U1,5,CV*%
%TO.N,unconnected-(U1-CV-Pad5)*%
X148500000Y-124240000D03*
%TO.P,U1,6,THR*%
%TO.N,Net-(D3-K)*%
X148500000Y-121700000D03*
%TO.P,U1,7,DIS*%
%TO.N,Net-(D3-A)*%
X148500000Y-119160000D03*
%TO.P,U1,8,VCC*%
%TO.N,Net-(S1-E)*%
X148500000Y-116620000D03*
%TD*%
D15*
%TO.P,R6,1*%
%TO.N,Net-(S1-E)*%
X143260000Y-119080000D03*
D17*
%TO.P,R6,2*%
%TO.N,Net-(Q2-C)*%
X133100000Y-119080000D03*
%TD*%
D15*
%TO.P,R1off1,1*%
%TO.N,Net-(S1-E)*%
X143260000Y-127180000D03*
D17*
%TO.P,R1off1,2*%
%TO.N,Net-(D3-A)*%
X133100000Y-127180000D03*
%TD*%
D15*
%TO.P,R4,1*%
%TO.N,Net-(Q1-B)*%
X143260000Y-110980000D03*
D17*
%TO.P,R4,2*%
%TO.N,Net-(D1-K)*%
X133100000Y-110980000D03*
%TD*%
D14*
%TO.P,D3,1,K*%
%TO.N,Net-(D3-K)*%
X156160000Y-130450000D03*
D17*
%TO.P,D3,2,A*%
%TO.N,Net-(D3-A)*%
X148540000Y-130450000D03*
%TD*%
D15*
%TO.P,R5,1*%
%TO.N,Net-(S1-E)*%
X143260000Y-115030000D03*
D17*
%TO.P,R5,2*%
%TO.N,Net-(Q1-C)*%
X133100000Y-115030000D03*
%TD*%
D18*
%TO.N,Net-(D1-K)*%
X150870000Y-112940000D03*
%TO.N,Net-(S1-A-Pad1)*%
X119680000Y-75480000D03*
%TD*%
D19*
%TO.N,Net-(D3-K)*%
X143260000Y-106930000D02*
X150050000Y-106930000D01*
X150050000Y-106930000D02*
X152720000Y-109600000D01*
X152720000Y-118440000D02*
X153440000Y-119160000D01*
X152720000Y-109600000D02*
X152720000Y-118440000D01*
X153440000Y-119160000D02*
X156120000Y-119160000D01*
%TO.N,Net-(D1-K)*%
X138580000Y-110980000D02*
X140370000Y-112770000D01*
X143066122Y-112770000D02*
X143236122Y-112940000D01*
X143236122Y-112940000D02*
X150870000Y-112940000D01*
X133100000Y-110980000D02*
X138580000Y-110980000D01*
X140370000Y-112770000D02*
X143066122Y-112770000D01*
%TO.N,Net-(D3-A)*%
X151020000Y-129050000D02*
X149620000Y-130450000D01*
X148500000Y-119160000D02*
X149610000Y-119160000D01*
X149610000Y-119160000D02*
X151020000Y-120570000D01*
X151020000Y-120570000D02*
X151020000Y-129050000D01*
X149620000Y-130450000D02*
X148540000Y-130450000D01*
%TO.N,Net-(Q1-B)*%
X123130000Y-98813610D02*
X123130000Y-102450000D01*
X141190000Y-110980000D02*
X137140000Y-106930000D01*
X143260000Y-110980000D02*
X141190000Y-110980000D01*
X123130000Y-102450000D02*
X127610000Y-106930000D01*
X122670000Y-98353610D02*
X123130000Y-98813610D01*
X137140000Y-106930000D02*
X133100000Y-106930000D01*
X122670000Y-96840000D02*
X122670000Y-98353610D01*
X127610000Y-106930000D02*
X133100000Y-106930000D01*
%TO.N,Net-(S1-E)*%
X153590000Y-124240000D02*
X156120000Y-124240000D01*
X152770000Y-120900000D02*
X152770000Y-123420000D01*
X148500000Y-116620000D02*
X150790000Y-116620000D01*
X152770000Y-123420000D02*
X153590000Y-124240000D01*
X150790000Y-118920000D02*
X152770000Y-120900000D01*
X150790000Y-116620000D02*
X150790000Y-118920000D01*
%TO.N,Net-(S1-A-Pad1)*%
X118880000Y-101250000D02*
X118880000Y-101070000D01*
X118020000Y-100210000D02*
X118020000Y-76680000D01*
X118880000Y-101070000D02*
X118020000Y-100210000D01*
X119220000Y-75480000D02*
X119680000Y-75480000D01*
X118020000Y-76680000D02*
X119220000Y-75480000D01*
X120620000Y-117030000D02*
X128020000Y-109630000D01*
X119640000Y-101250000D02*
X118880000Y-101250000D01*
X128020000Y-109630000D02*
X119640000Y-101250000D01*
%TD*%
M02*
