%TF.GenerationSoftware,KiCad,Pcbnew,7.0.8*%
%TF.CreationDate,2024-08-22T12:09:47+02:00*%
%TF.ProjectId,Cow,436f772e-6b69-4636-9164-5f7063625858,rev?*%
%TF.SameCoordinates,Original*%
%TF.FileFunction,Profile,NP*%
%FSLAX46Y46*%
G04 Gerber Fmt 4.6, Leading zero omitted, Abs format (unit mm)*
G04 Created by KiCad (PCBNEW 7.0.8) date 2024-08-22 12:09:47*
%MOMM*%
%LPD*%
G01*
G04 APERTURE LIST*
%TA.AperFunction,Profile*%
%ADD10C,0.100000*%
%TD*%
G04 APERTURE END LIST*
D10*
X100315800Y-92976300D02*
X100802400Y-93184300D01*
X154772100Y-61117600D02*
X154128800Y-61191500D01*
X112638800Y-70250800D02*
X112128700Y-70094700D01*
X153283200Y-59479600D02*
X153575900Y-59027200D01*
X137006800Y-143820100D02*
X137365200Y-143868100D01*
X167656300Y-59414000D02*
X167788500Y-58550200D01*
X91441400Y-77200000D02*
X91475100Y-77651200D01*
X95330700Y-88857100D02*
X95790800Y-89524800D01*
X167870600Y-94673900D02*
X168411700Y-94725400D01*
X128391400Y-52877710D02*
X128279900Y-52819010D01*
X150466600Y-54953600D02*
X150428500Y-54844300D01*
X116599400Y-119333500D02*
X116505200Y-120153800D01*
X116554600Y-125194200D02*
X116557900Y-125379500D01*
X138185300Y-53943500D02*
X137760900Y-53960200D01*
X163177700Y-70699400D02*
X162248900Y-71089900D01*
X140009300Y-143797100D02*
X140442700Y-143706100D01*
X171390200Y-69606800D02*
X170536300Y-69558100D01*
X162248900Y-71089900D02*
X161339800Y-71526700D01*
X120680700Y-150732100D02*
X120921100Y-150905100D01*
X109255600Y-55545300D02*
X109146000Y-56054800D01*
X179042100Y-71187800D02*
X177066100Y-70689500D01*
X183376100Y-85318100D02*
X183823100Y-84194700D01*
X164560800Y-132837200D02*
X164472300Y-132162900D01*
X149530200Y-58232100D02*
X149270800Y-58202700D01*
X163469100Y-138391800D02*
X163753700Y-137817800D01*
X158333200Y-101889100D02*
X158686700Y-101246400D01*
X160617100Y-94152100D02*
X160715700Y-94070700D01*
X165537700Y-53985300D02*
X165429500Y-54055900D01*
X158963600Y-114387600D02*
X158654600Y-113619700D01*
X117050600Y-69892800D02*
X117520300Y-70135100D01*
X138247400Y-143938100D02*
X138689800Y-143937100D01*
X112693000Y-136704500D02*
X112868400Y-137232700D01*
X128267700Y-56432000D02*
X128524900Y-56799500D01*
X182088100Y-88032800D02*
X182370100Y-87515600D01*
X160832200Y-125830600D02*
X160587100Y-125606200D01*
X109997500Y-54187300D02*
X109822100Y-54389600D01*
X141021500Y-144305100D02*
X140994900Y-144669100D01*
X179532100Y-91254600D02*
X179965100Y-90854100D01*
X128355500Y-152686100D02*
X130286600Y-152582100D01*
X180375100Y-90429700D02*
X180761100Y-89983700D01*
X159573200Y-72507500D02*
X158712200Y-73035800D01*
X157525800Y-103112400D02*
X157946500Y-102512000D01*
X112764600Y-130979700D02*
X112604100Y-131556200D01*
X115466000Y-146473100D02*
X115737500Y-146655100D01*
X144112000Y-55354600D02*
X143895100Y-55356100D01*
X158314500Y-70667100D02*
X159213700Y-70255600D01*
X161457200Y-58373000D02*
X160997200Y-58710700D01*
X114922300Y-71106900D02*
X114292500Y-70833800D01*
X167479800Y-60268700D02*
X167656300Y-59414000D01*
X123269900Y-57303000D02*
X123144000Y-57322600D01*
X167332600Y-94604400D02*
X167870600Y-94673900D01*
X107063700Y-69440500D02*
X106712400Y-69469400D01*
X164156000Y-130841200D02*
X163932700Y-130198500D01*
X154881500Y-107192900D02*
X154355700Y-106388300D01*
X118354900Y-147737100D02*
X118896700Y-147843100D01*
X92570100Y-82586500D02*
X93022700Y-83911500D01*
X108616900Y-94614100D02*
X109107800Y-94594400D01*
X109332400Y-55298500D02*
X109255600Y-55545300D01*
X161752900Y-142420400D02*
X161543400Y-141190300D01*
X120921100Y-150905100D02*
X121173200Y-151062100D01*
X116441000Y-120524400D02*
X116428300Y-120900200D01*
X181786100Y-88540700D02*
X182088100Y-88032800D01*
X184757100Y-73544000D02*
X184508100Y-73273800D01*
X141447200Y-151121100D02*
X141766400Y-151285100D01*
X113696000Y-128780100D02*
X113419500Y-129310300D01*
X149817700Y-57096800D02*
X150017500Y-56789800D01*
X162121400Y-144147100D02*
X161998700Y-143645100D01*
X126822200Y-54509800D02*
X126694000Y-54483600D01*
X150331400Y-54759200D02*
X150217500Y-54719100D01*
X165161500Y-54339500D02*
X164806400Y-54751600D01*
X114513700Y-145098100D02*
X114561200Y-145337100D01*
X170529500Y-94596500D02*
X170880900Y-94582100D01*
X122954800Y-61172800D02*
X122564400Y-61132600D01*
X112319200Y-133346900D02*
X112254000Y-133962700D01*
X126315400Y-55261200D02*
X126340900Y-55570200D01*
X148459500Y-56574600D02*
X148222300Y-56711900D01*
X161474700Y-93488000D02*
X161807100Y-93209700D01*
X135948200Y-143593100D02*
X136302600Y-143660100D01*
X131350800Y-55178100D02*
X130983900Y-55092000D01*
X106194900Y-94547500D02*
X106673500Y-94586300D01*
X123509300Y-57352500D02*
X123391600Y-57315100D01*
X137365200Y-143868100D02*
X137805400Y-143916100D01*
X167834200Y-58115900D02*
X167864400Y-57680500D01*
X161759800Y-68731700D02*
X162155600Y-68435000D01*
X178188100Y-92185300D02*
X178650100Y-91895000D01*
X126566600Y-54495500D02*
X126452100Y-54549700D01*
X156789800Y-109994700D02*
X156137600Y-108972100D01*
X159462300Y-147407100D02*
X159763700Y-147297100D01*
X163281900Y-67471000D02*
X163634800Y-67124800D01*
X128524900Y-56799500D02*
X128265500Y-56639600D01*
X134699400Y-151413100D02*
X135034600Y-151243100D01*
X149703900Y-55142600D02*
X149593500Y-55388900D01*
X163634800Y-67124800D02*
X163975500Y-66766100D01*
X158324500Y-112860800D02*
X157975000Y-112111400D01*
X165329700Y-54138500D02*
X165239900Y-54233100D01*
X152621300Y-57925100D02*
X152328300Y-58029300D01*
X164466200Y-55176800D02*
X163801500Y-56041000D01*
X156820700Y-149534100D02*
X156842500Y-149343100D01*
X157393200Y-71047100D02*
X157857700Y-70870300D01*
X153921000Y-57246200D02*
X153807900Y-57219700D01*
X116017900Y-146824100D02*
X116600500Y-147123100D01*
X160206700Y-96520200D02*
X160331500Y-95499900D01*
X105717900Y-94492900D02*
X106194900Y-94547500D01*
X135779500Y-54237700D02*
X135314500Y-54353800D01*
X156712500Y-71338400D02*
X156935000Y-71232000D01*
X93187800Y-72859700D02*
X92989600Y-73004400D01*
X184242100Y-83061100D02*
X184590100Y-81972800D01*
X119434400Y-73629200D02*
X119317600Y-73579900D01*
X162541700Y-68126000D02*
X162917300Y-67804700D01*
X170536300Y-69558100D02*
X169680200Y-69554500D01*
X144439700Y-55369000D02*
X144112000Y-55354600D01*
X155954500Y-104858200D02*
X156530400Y-104290700D01*
X109076400Y-58149300D02*
X109126500Y-58730800D01*
X112547500Y-136167200D02*
X112693000Y-136704500D01*
X124441400Y-57944400D02*
X124236800Y-57838000D01*
X178650100Y-91895000D02*
X179098100Y-91585300D01*
X115276100Y-146321100D02*
X115466000Y-146473100D01*
X160997200Y-58710700D02*
X160523800Y-59030400D01*
X173360900Y-94173700D02*
X173970300Y-94020800D01*
X140590200Y-147113100D02*
X140418100Y-148154100D01*
X149722300Y-55018200D02*
X149703900Y-55142600D01*
X140269800Y-149716100D02*
X140287200Y-149887100D01*
X140265900Y-149543100D02*
X140269800Y-149716100D01*
X96298800Y-90157400D02*
X96572700Y-90458500D01*
X185388100Y-74841900D02*
X185276100Y-74494100D01*
X157482800Y-73731700D02*
X157383300Y-73741800D01*
X114500800Y-68264000D02*
X115004400Y-68634200D01*
X151644100Y-61179700D02*
X151427000Y-61081200D01*
X116146600Y-71730300D02*
X115539300Y-71408700D01*
X155410300Y-151121100D02*
X155868800Y-150823100D01*
X160486500Y-124388700D02*
X160525300Y-123503100D01*
X154355700Y-106388300D02*
X154330900Y-106309900D01*
X110404000Y-53862700D02*
X110257300Y-53958200D01*
X136414200Y-149775100D02*
X136415000Y-149573100D01*
X131143100Y-152466100D02*
X131990100Y-152294100D01*
X123807900Y-152115100D02*
X124537500Y-152298100D01*
X160502900Y-120843000D02*
X160353100Y-119591300D01*
X111283200Y-64703300D02*
X111604200Y-65189800D01*
X151714800Y-58167400D02*
X151098200Y-58252300D01*
X158686700Y-101246400D02*
X159007900Y-100586400D01*
X155868800Y-150823100D02*
X156090300Y-150655100D01*
X119911000Y-60565900D02*
X119177600Y-60321300D01*
X161998700Y-143645100D02*
X161752900Y-142420400D01*
X154071800Y-57778300D02*
X154121700Y-57514200D01*
X121687300Y-151345100D02*
X122377400Y-151645100D01*
X119559600Y-73702100D02*
X119434400Y-73629200D01*
X148565800Y-52833320D02*
X148488700Y-52872620D01*
X165550200Y-64693700D02*
X165963300Y-63999900D01*
X115389500Y-93601700D02*
X115583000Y-93740800D01*
X165963300Y-63999900D02*
X166340400Y-63285600D01*
X153154500Y-57616200D02*
X152898400Y-57789500D01*
X161713100Y-126606300D02*
X161354300Y-126248200D01*
X184140100Y-72954400D02*
X183742100Y-72680900D01*
X161097600Y-126037200D02*
X160832200Y-125830600D01*
X161557400Y-146266100D02*
X161775600Y-146081100D01*
X135770300Y-144429100D02*
X135787300Y-144145100D01*
X116428300Y-120900200D02*
X116433900Y-121278100D01*
X175750000Y-93401600D02*
X176744800Y-92955700D01*
X149455200Y-55623300D02*
X149292300Y-55844700D01*
X117410700Y-115963000D02*
X117117500Y-116910400D01*
X164524400Y-135218800D02*
X164566800Y-134824200D01*
X128702300Y-53320530D02*
X128566700Y-53074210D01*
X109669300Y-54603000D02*
X109537800Y-54826300D01*
X165662300Y-69947400D02*
X165101200Y-70088400D01*
X126939200Y-54569800D02*
X126822200Y-54509800D01*
X148736600Y-52813000D02*
X148649100Y-52812420D01*
X162431000Y-93327500D02*
X162728600Y-93452600D01*
X117731400Y-115024100D02*
X117410700Y-115963000D01*
X117900200Y-100920000D02*
X118212800Y-101507700D01*
X123086100Y-151899100D02*
X123807900Y-152115100D01*
X116957900Y-72162800D02*
X116556900Y-71937600D01*
X153919400Y-58294300D02*
X154004000Y-58038500D01*
X153122200Y-152185100D02*
X153463700Y-152069100D01*
X168524200Y-69575500D02*
X167947000Y-69610400D01*
X167788500Y-58550200D02*
X167834200Y-58115900D01*
X127637300Y-54909500D02*
X127705900Y-55203100D01*
X147968000Y-53648800D02*
X147793500Y-53884400D01*
X118936600Y-102626700D02*
X119293700Y-103101700D01*
X146935800Y-54665700D02*
X146675800Y-54803500D01*
X109062500Y-57634400D02*
X109076400Y-58149300D01*
X120438300Y-104452100D02*
X120688700Y-104692700D01*
X114371200Y-57324000D02*
X113950400Y-56888900D01*
X92230000Y-73820000D02*
X92039800Y-74141900D01*
X103912700Y-69830200D02*
X102526500Y-70096500D01*
X123144000Y-57322600D02*
X123030200Y-57406400D01*
X127091400Y-54774200D02*
X127032900Y-54659400D01*
X167864400Y-57680500D02*
X167877600Y-57244400D01*
X121173200Y-151062100D02*
X121687300Y-151345100D01*
X116433900Y-121278100D02*
X116424600Y-121655100D01*
X148901200Y-58148300D02*
X148758200Y-58147200D01*
X156137600Y-108972100D02*
X155793800Y-108472500D01*
X110432100Y-63176300D02*
X110696300Y-63695800D01*
X149024700Y-54850400D02*
X149078500Y-54443600D01*
X159030000Y-59875500D02*
X158509500Y-60117000D01*
X94050200Y-72387900D02*
X93606800Y-72604100D01*
X116440200Y-124025600D02*
X116500700Y-124812500D01*
X134853700Y-54487900D02*
X133937600Y-54778500D01*
X152665200Y-60165600D02*
X152884600Y-59949100D01*
X153807900Y-57219700D02*
X153687900Y-57222800D01*
X164590100Y-134427500D02*
X164592900Y-133631200D01*
X148488700Y-52872620D02*
X148419400Y-52927280D01*
X157207600Y-73683900D02*
X157139400Y-73603400D01*
X156633900Y-150048100D02*
X156749800Y-149803100D01*
X122178000Y-61065000D02*
X121793000Y-61014600D01*
X135954000Y-150606100D02*
X136220300Y-150342100D01*
X163975500Y-66766100D02*
X164303300Y-66394900D01*
X112254000Y-133962700D02*
X112285100Y-134518600D01*
X92800100Y-73161500D02*
X92620100Y-73331900D01*
X110047700Y-69642900D02*
X109517100Y-69585100D01*
X140871000Y-143596100D02*
X140941200Y-143768100D01*
X162736700Y-57276400D02*
X162335100Y-57646500D01*
X114838800Y-127152000D02*
X114544600Y-127512200D01*
X158534500Y-147664100D02*
X159155900Y-147502100D01*
X166227800Y-94482700D02*
X166778700Y-94555500D01*
X156673700Y-60744600D02*
X156045700Y-60895500D01*
X174572600Y-93842800D02*
X175166300Y-93637200D01*
X116587900Y-69635600D02*
X117050600Y-69892800D01*
X113074100Y-137750100D02*
X113310800Y-138255000D01*
X95790800Y-89524800D02*
X96038400Y-89845900D01*
X164001200Y-137227400D02*
X164207200Y-136620800D01*
X118080000Y-114095000D02*
X117731400Y-115024100D01*
X116782600Y-97788900D02*
X116950800Y-98433300D01*
X185513100Y-77966500D02*
X185605100Y-77284500D01*
X148277000Y-53152820D02*
X147968000Y-53648800D01*
X149593500Y-55388900D02*
X149455200Y-55623300D01*
X100802400Y-93184300D02*
X101296100Y-93375300D01*
X163462700Y-56467300D02*
X163110200Y-56881200D01*
X149012900Y-58159100D02*
X148901200Y-58148300D01*
X125340100Y-58137300D02*
X125108400Y-58115600D01*
X161646300Y-141010600D02*
X161778900Y-140848600D01*
X162917300Y-67804700D02*
X163281900Y-67471000D01*
X166985800Y-54133800D02*
X166885700Y-54048100D01*
X136220300Y-150342100D02*
X136325200Y-150162100D01*
X143256300Y-55264300D02*
X142845700Y-55132500D01*
X115470200Y-126469000D02*
X115147500Y-126804000D01*
X103830200Y-94138900D02*
X104769400Y-94340800D01*
X153463700Y-152069100D02*
X153798800Y-151936100D01*
X125484400Y-152458100D02*
X126438200Y-152573100D01*
X160473000Y-124628800D02*
X160486500Y-124388700D01*
X93606800Y-72604100D02*
X93187800Y-72859700D01*
X107153300Y-94608200D02*
X107634000Y-94612200D01*
X92620100Y-73331900D02*
X92450500Y-73516400D01*
X99837400Y-92749300D02*
X100315800Y-92976300D01*
X92172500Y-81244100D02*
X92364200Y-81917400D01*
X168411700Y-94725400D02*
X168950900Y-94745800D01*
X166286600Y-53823800D02*
X166027400Y-53826800D01*
X155437000Y-107981700D02*
X154881500Y-107192900D01*
X157684800Y-73665200D02*
X157482800Y-73731700D01*
X120253700Y-109642100D02*
X119760300Y-110502800D01*
X145103100Y-55328400D02*
X144771000Y-55360400D01*
X115159200Y-141111600D02*
X115165700Y-141320700D01*
X160031500Y-97532200D02*
X160126700Y-97027600D01*
X149078500Y-54443600D02*
X149099000Y-54034200D01*
X121489300Y-105358800D02*
X122589800Y-106203100D01*
X116541900Y-96584400D02*
X116656900Y-97188200D01*
X136168500Y-54155300D02*
X135779500Y-54237700D01*
X120688700Y-104692700D02*
X120948800Y-104922500D01*
X110086000Y-94507400D02*
X110571900Y-94437800D01*
X152328300Y-58029300D02*
X152024400Y-58108000D01*
X91834200Y-79886100D02*
X91995700Y-80567000D01*
X167845500Y-56452600D02*
X167799700Y-56096300D01*
X116424600Y-121655100D02*
X116418900Y-123235900D01*
X120260900Y-150327100D02*
X120458500Y-150541100D01*
X122016300Y-107068900D02*
X121401000Y-107908200D01*
X163932700Y-130198500D02*
X163668900Y-129570900D01*
X116551900Y-59061800D02*
X116146300Y-58792800D01*
X116050200Y-69318900D02*
X116587900Y-69635600D01*
X160391200Y-125341600D02*
X160394400Y-125103300D01*
X155350400Y-105396300D02*
X155954500Y-104858200D01*
X129571800Y-54452900D02*
X129346300Y-54263100D01*
X152773200Y-152280100D02*
X153122200Y-152185100D01*
X138610600Y-53943400D02*
X138185300Y-53943500D01*
X164592900Y-133631200D02*
X164560800Y-132837200D01*
X149052700Y-57878100D02*
X149333400Y-57644400D01*
X119965300Y-149819100D02*
X120094400Y-150088100D01*
X163028700Y-128370500D02*
X162656800Y-127802200D01*
X123623200Y-57409100D02*
X123509300Y-57352500D01*
X135787300Y-144145100D02*
X135843200Y-143865100D01*
X127913000Y-55770000D02*
X128049900Y-56039800D01*
X183742100Y-72680900D02*
X183319100Y-72447500D01*
X174089100Y-70006200D02*
X173089100Y-69813200D01*
X157857700Y-70870300D02*
X158314500Y-70667100D01*
X153570800Y-57254500D02*
X153466500Y-57313700D01*
X149292300Y-55844700D02*
X149108000Y-56051800D01*
X128566700Y-53074210D02*
X128485800Y-52965560D01*
X153575900Y-59027200D02*
X153704200Y-58789400D01*
X115272900Y-58131200D02*
X114811800Y-57738800D01*
X109146000Y-56054800D02*
X109085300Y-56578600D01*
X148936400Y-55250700D02*
X149024700Y-54850400D01*
X160715700Y-94070700D02*
X160931400Y-93922400D01*
X150487200Y-55067400D02*
X150466600Y-54953600D01*
X127791800Y-57908300D02*
X128108600Y-58085400D01*
X136030300Y-146739100D02*
X135895900Y-145727100D01*
X143895100Y-55356100D02*
X143679800Y-55340900D01*
X127102600Y-54910000D02*
X127091400Y-54774200D01*
X114922400Y-145971100D02*
X115092600Y-146153100D01*
X112798600Y-55483900D02*
X112448900Y-54989400D01*
X109766000Y-61562600D02*
X109966100Y-62109000D01*
X115165700Y-141320700D02*
X115130100Y-141739500D01*
X184508100Y-73273800D02*
X184140100Y-72954400D01*
X112431400Y-135622600D02*
X112547500Y-136167200D01*
X116600500Y-147123100D02*
X117204600Y-147378100D01*
X160058500Y-147171100D02*
X160345200Y-147025100D01*
X154602500Y-106022000D02*
X154672200Y-105968700D01*
X101296100Y-93375300D02*
X101795600Y-93551100D01*
X154087700Y-57392400D02*
X154017500Y-57303500D01*
X182370100Y-87515600D02*
X182894100Y-86426600D01*
X115019800Y-93297100D02*
X115207500Y-93443300D01*
X122932700Y-58047800D02*
X123007800Y-58305000D01*
X96038400Y-89845900D02*
X96298800Y-90157400D01*
X162175400Y-145673100D02*
X162262200Y-145423100D01*
X122311500Y-106641400D02*
X122016300Y-107068900D01*
X111444200Y-53841200D02*
X111233600Y-53759200D01*
X157139400Y-73603400D02*
X156952300Y-73076300D01*
X127616500Y-53707500D02*
X127581900Y-54008600D01*
X176744800Y-92955700D02*
X177234100Y-92714100D01*
X162656800Y-127802200D02*
X162039900Y-126994700D01*
X136952400Y-54059800D02*
X136560900Y-54104500D01*
X135314500Y-54353800D02*
X134853700Y-54487900D01*
X150512200Y-152591100D02*
X151272500Y-152535100D01*
X140770100Y-146073100D02*
X140590200Y-147113100D01*
X152434300Y-60370500D02*
X152665200Y-60165600D01*
X127445000Y-55752100D02*
X127302200Y-55483300D01*
X159786100Y-98529800D02*
X159918800Y-98033100D01*
X140380300Y-150211100D02*
X140464800Y-150358100D01*
X142845700Y-55132500D02*
X142451800Y-54953100D01*
X152270200Y-61303900D02*
X151868100Y-61262400D01*
X149047500Y-53066650D02*
X149003000Y-52971820D01*
X124045300Y-57700100D02*
X123840500Y-57554200D01*
X160931400Y-93922400D02*
X161134000Y-93764300D01*
X119771400Y-73676000D02*
X119728300Y-73723000D01*
X120399200Y-71460600D02*
X120075700Y-72564200D01*
X152024400Y-58108000D02*
X151714800Y-58167400D01*
X140994900Y-144669100D02*
X140930700Y-145030100D01*
X127528000Y-58165800D02*
X126947700Y-58247600D01*
X162039900Y-126994700D02*
X161713100Y-126606300D01*
X159954200Y-117542600D02*
X159746900Y-116742000D01*
X156090300Y-150655100D02*
X156296600Y-150472100D01*
X113310800Y-138255000D02*
X113693200Y-138964800D01*
X160532600Y-122616400D02*
X160502900Y-120843000D01*
X172745800Y-94303800D02*
X173360900Y-94173700D01*
X115147500Y-126804000D02*
X114838800Y-127152000D01*
X135782100Y-144713100D02*
X135770300Y-144429100D01*
X126320100Y-54952800D02*
X126315400Y-55261200D01*
X115207500Y-93443300D02*
X115389500Y-93601700D01*
X162728600Y-93452600D02*
X163030000Y-93569800D01*
X132075000Y-55223500D02*
X131718100Y-55225200D01*
X146709200Y-152669100D02*
X147088300Y-152704100D01*
X156480300Y-150270100D02*
X156633900Y-150048100D01*
X169483400Y-94722400D02*
X170180000Y-94629900D01*
X146382500Y-54958500D02*
X146075700Y-55088000D01*
X166777100Y-53976200D02*
X166540300Y-53873200D01*
X161807100Y-93209700D02*
X161969800Y-93210400D01*
X177066100Y-70689500D02*
X175084700Y-70219600D01*
X114811800Y-57738800D02*
X114371200Y-57324000D01*
X148229300Y-152711100D02*
X149751000Y-152631100D01*
X112668000Y-66572200D02*
X113094400Y-67029000D01*
X149270800Y-58202700D02*
X149012900Y-58159100D01*
X182894100Y-86426600D02*
X183376100Y-85318100D01*
X148676500Y-58132300D02*
X148687600Y-58112400D01*
X111942600Y-65663900D02*
X112297500Y-66124900D01*
X109597700Y-94559200D02*
X110086000Y-94507400D01*
X111060800Y-53714900D02*
X110889700Y-53707700D01*
X112297500Y-66124900D02*
X112668000Y-66572200D01*
X148826700Y-52838100D02*
X148736600Y-52813000D01*
X115539300Y-71408700D02*
X114922300Y-71106900D01*
X128049900Y-56039800D02*
X128267700Y-56432000D01*
X154672200Y-105968700D02*
X154725800Y-105911200D01*
X144771000Y-55360400D02*
X144439700Y-55369000D01*
X118896700Y-147843100D02*
X119981500Y-148028100D01*
X153687900Y-57222800D02*
X153570800Y-57254500D01*
X179965100Y-90854100D02*
X180375100Y-90429700D01*
X147793500Y-53884400D02*
X147604200Y-54107400D01*
X149751000Y-152631100D02*
X150512200Y-152591100D01*
X109306800Y-59880800D02*
X109435500Y-60447800D01*
X93841800Y-85964000D02*
X94174000Y-86707700D01*
X123840500Y-57554200D02*
X123623200Y-57409100D01*
X153798800Y-151936100D02*
X154128200Y-151788100D01*
X117117500Y-116910400D02*
X116907100Y-117709700D01*
X109966100Y-62109000D02*
X110188400Y-62647100D01*
X111614600Y-69953400D02*
X111096500Y-69829400D01*
X172126500Y-94413600D02*
X172745800Y-94303800D01*
X91475100Y-77651200D02*
X91525700Y-78101100D01*
X129346300Y-54263100D02*
X129144200Y-54049500D01*
X185635100Y-76942700D02*
X185647100Y-76600400D01*
X122377400Y-151645100D02*
X123086100Y-151899100D01*
X116907100Y-117709700D02*
X116733900Y-118518100D01*
X127032900Y-54659400D02*
X126939200Y-54569800D01*
X145758300Y-55192600D02*
X145433200Y-55272600D01*
X121793000Y-61014600D02*
X121410900Y-60949200D01*
X119915500Y-73118300D02*
X119771400Y-73676000D01*
X133016300Y-55045200D02*
X132549000Y-55149400D01*
X163801500Y-56041000D02*
X163462700Y-56467300D01*
X113187800Y-93766700D02*
X114809000Y-93194800D01*
X115130700Y-140903300D02*
X115159200Y-141111600D01*
X157383300Y-73741800D02*
X157290200Y-73728000D01*
X143679800Y-55340900D02*
X143466700Y-55310000D01*
X128265500Y-56639600D02*
X128026200Y-56451900D01*
X184904100Y-80873700D02*
X185179100Y-79764600D01*
X166340400Y-63285600D02*
X166681000Y-62553200D01*
X161134000Y-93764300D02*
X161474700Y-93488000D01*
X116212100Y-94177300D02*
X116403600Y-94336000D01*
X106673500Y-94586300D02*
X107153300Y-94608200D01*
X126085900Y-58229200D02*
X125802700Y-58152500D01*
X160941200Y-69288200D02*
X161354800Y-69016100D01*
X114001800Y-128266100D02*
X113696000Y-128780100D01*
X182420100Y-72077900D02*
X181955100Y-71930000D01*
X128011800Y-52848510D02*
X127904800Y-52930190D01*
X157400100Y-111043300D02*
X156789800Y-109994700D01*
X135895900Y-145727100D02*
X135782100Y-144713100D01*
X171504400Y-94505600D02*
X172126500Y-94413600D01*
X157290200Y-73728000D02*
X157207600Y-73683900D01*
X162127200Y-93233600D02*
X162431000Y-93327500D01*
X112199100Y-54626700D02*
X111938100Y-54264500D01*
X93525800Y-85217500D02*
X93841800Y-85964000D01*
X181019100Y-71679200D02*
X179042100Y-71187800D01*
X157070200Y-103687500D02*
X157525800Y-103112400D01*
X165774000Y-53881000D02*
X165537700Y-53985300D01*
X94528600Y-87442100D02*
X94912000Y-88160700D01*
X137760900Y-53960200D02*
X137339100Y-53995400D01*
X162296300Y-145170100D02*
X162288500Y-144915100D01*
X124632800Y-60635800D02*
X124900200Y-60802100D01*
X137805400Y-143916100D02*
X138247400Y-143938100D01*
X120075700Y-72564200D02*
X119915500Y-73118300D01*
X95933100Y-71776900D02*
X94983400Y-72045500D01*
X140580400Y-150491100D02*
X140850800Y-150728100D01*
X119296600Y-111379700D02*
X118862200Y-112271500D01*
X123345700Y-61210000D02*
X122954800Y-61172800D01*
X163546300Y-93776000D02*
X164070300Y-93961300D01*
X165239900Y-54233100D02*
X165161500Y-54339500D01*
X119895200Y-148930100D02*
X119869800Y-149155100D01*
X160431900Y-124866400D02*
X160473000Y-124628800D01*
X150217500Y-54719100D02*
X150095900Y-54719100D01*
X109517100Y-69585100D02*
X108817500Y-69513200D01*
X114551500Y-144558100D02*
X114514300Y-144846100D01*
X91482600Y-75924600D02*
X91437600Y-76295100D01*
X112448900Y-54989400D02*
X112199100Y-54626700D01*
X164303300Y-66394900D02*
X164617600Y-66011100D01*
X110188400Y-62647100D02*
X110432100Y-63176300D01*
X126362500Y-54650600D02*
X126320100Y-54952800D01*
X167198200Y-54422900D02*
X166985800Y-54133800D01*
X163366900Y-128960800D02*
X163028700Y-128370500D01*
X147088300Y-152704100D02*
X147468200Y-152720100D01*
X140442700Y-143706100D02*
X140871000Y-143596100D01*
X140418100Y-148154100D02*
X140281200Y-149200100D01*
X157946500Y-102512000D02*
X158333200Y-101889100D01*
X135665400Y-150843100D02*
X135954000Y-150606100D01*
X150051900Y-58258400D02*
X149530200Y-58232100D01*
X121410900Y-60949200D02*
X120655400Y-60779000D01*
X164617600Y-66011100D02*
X165101500Y-65364800D01*
X116656900Y-97188200D02*
X116782600Y-97788900D01*
X160481200Y-125480300D02*
X160391200Y-125341600D01*
X140464800Y-150358100D02*
X140580400Y-150491100D01*
X122913900Y-57635000D02*
X122900100Y-57768800D01*
X154128200Y-151788100D02*
X154774500Y-151463100D01*
X142451800Y-54953100D02*
X141950500Y-54705200D01*
X102807900Y-93864400D02*
X103830200Y-94138900D01*
X123233200Y-58909200D02*
X123374300Y-59201000D01*
X127574500Y-54310400D02*
X127593200Y-54611300D01*
X114544600Y-127512200D02*
X114265500Y-127883800D01*
X125108400Y-58115600D02*
X124879700Y-58079000D01*
X182877100Y-72248500D02*
X182420100Y-72077900D01*
X161778900Y-140848600D02*
X161918400Y-140689900D01*
X137339100Y-53995400D02*
X136952400Y-54059800D01*
X160254000Y-118968900D02*
X160131900Y-118350500D01*
X114514300Y-144846100D02*
X114513700Y-145098100D01*
X116146300Y-58792800D02*
X115755400Y-58499000D01*
X124656500Y-58023300D02*
X124441400Y-57944400D01*
X165101500Y-65364800D02*
X165550200Y-64693700D01*
X130628300Y-54976600D02*
X130349100Y-54880600D01*
X116427000Y-94591200D02*
X116422200Y-94848700D01*
X116418900Y-123235900D02*
X116440200Y-124025600D01*
X158654600Y-113619700D02*
X158324500Y-112860800D01*
X156496900Y-71459900D02*
X156712500Y-71338400D01*
X101837900Y-70251800D02*
X101152600Y-70421900D01*
X119893500Y-149600100D02*
X119965300Y-149819100D01*
X147398800Y-54314200D02*
X147176400Y-54501400D01*
X120655400Y-60779000D02*
X119911000Y-60565900D01*
X156849900Y-149150100D02*
X156831800Y-148761100D01*
X118916600Y-73363700D02*
X118522300Y-73132100D01*
X114595300Y-140300000D02*
X114855100Y-140608100D01*
X164601300Y-94125100D02*
X165138300Y-94267000D01*
X116557900Y-125379500D02*
X116544600Y-125467200D01*
X154344600Y-106241600D02*
X154387700Y-106181000D01*
X119865500Y-149378100D02*
X119893500Y-149600100D01*
X164459200Y-135610400D02*
X164524400Y-135218800D01*
X110696300Y-63695800D02*
X110980300Y-64205100D01*
X136371200Y-149162100D02*
X136322700Y-148760100D01*
X126452100Y-54549700D02*
X126362500Y-54650600D01*
X135034600Y-151243100D02*
X135357700Y-151054100D01*
X162804800Y-139489900D02*
X163151400Y-138949200D01*
X152898400Y-57789500D02*
X152621300Y-57925100D01*
X116003000Y-94032200D02*
X116212100Y-94177300D01*
X166540300Y-53873200D02*
X166286600Y-53823800D01*
X162335100Y-57646500D02*
X161903400Y-58018100D01*
X130349100Y-54880600D02*
X130077200Y-54761400D01*
X154017500Y-57303500D02*
X153921000Y-57246200D01*
X120513800Y-109191200D02*
X120253700Y-109642100D01*
X185647100Y-76600400D02*
X185637100Y-76257600D01*
X148359800Y-52994240D02*
X148277000Y-53152820D01*
X114118700Y-139650200D02*
X114350100Y-139980200D01*
X125037900Y-61264900D02*
X124824300Y-61301200D01*
X126618600Y-56560100D02*
X126789900Y-56879100D01*
X146675800Y-54803500D02*
X146382500Y-54958500D01*
X116733900Y-118518100D02*
X116599400Y-119333500D01*
X154725800Y-105911200D02*
X155350400Y-105396300D01*
X129144200Y-54049500D02*
X128969500Y-53811800D01*
X152884600Y-59949100D02*
X153091100Y-59720600D01*
X104769400Y-94340800D02*
X105717900Y-94492900D01*
X160126700Y-97027600D02*
X160206700Y-96520200D01*
X149780100Y-54908700D02*
X149722300Y-55018200D01*
X184965100Y-73840500D02*
X184757100Y-73544000D01*
X170180000Y-94629900D02*
X170529500Y-94596500D01*
X110889700Y-53707700D02*
X110722000Y-53732900D01*
X167376500Y-54731800D02*
X167198200Y-54422900D01*
X160345200Y-147025100D02*
X160848300Y-146752100D01*
X162041600Y-140520100D02*
X162433500Y-140013600D01*
X110571900Y-94437800D02*
X111055000Y-94349000D01*
X154330900Y-106309900D02*
X154344600Y-106241600D01*
X113164900Y-55966700D02*
X112798600Y-55483900D01*
X127759000Y-53160540D02*
X127674700Y-53436930D01*
X91633800Y-75188700D02*
X91547400Y-75554800D01*
X175084700Y-70219600D02*
X174089100Y-70006200D01*
X166885700Y-54048100D02*
X166777100Y-53976200D01*
X117145400Y-99070800D02*
X117367700Y-99699300D01*
X143466700Y-55310000D02*
X143256300Y-55264300D01*
X153482600Y-61242400D02*
X153075900Y-61289500D01*
X161969800Y-93210400D02*
X162127200Y-93233600D01*
X116950800Y-98433300D02*
X117145400Y-99070800D01*
X123030200Y-57406400D02*
X122955400Y-57512300D01*
X115521700Y-68985500D02*
X116050200Y-69318900D01*
X160394400Y-125103300D02*
X160431900Y-124866400D01*
X156842500Y-149343100D02*
X156849900Y-149150100D01*
X127614300Y-56005200D02*
X127445000Y-55752100D01*
X123391600Y-57315100D02*
X123269900Y-57303000D01*
X173089100Y-69813200D02*
X172241400Y-69694100D01*
X120094400Y-150088100D02*
X120260900Y-150327100D01*
X140371500Y-54158600D02*
X139704300Y-54051100D01*
X114987700Y-142572100D02*
X114941800Y-142859300D01*
X139035400Y-53958000D02*
X138610600Y-53943400D01*
X119981500Y-148028100D02*
X119984800Y-148253100D01*
X125802700Y-58152500D02*
X125340100Y-58137300D01*
X110257300Y-53958200D02*
X110121200Y-54067900D01*
X119177600Y-60321300D02*
X118279700Y-59948900D01*
X143104500Y-151808100D02*
X143993800Y-152070100D01*
X160523800Y-59030400D02*
X160037700Y-59331600D01*
X164070300Y-93961300D02*
X164601300Y-94125100D01*
X128147800Y-52797800D02*
X128147400Y-52797790D01*
X162155600Y-68435000D02*
X162541700Y-68126000D01*
X94983400Y-72045500D02*
X94511400Y-72204000D01*
X166027400Y-53826800D02*
X165774000Y-53881000D01*
X148419400Y-52927280D02*
X148359800Y-52994240D01*
X154387700Y-106181000D02*
X154451200Y-106125800D01*
X152401800Y-152369100D02*
X152773200Y-152280100D01*
X109061500Y-57108000D02*
X109062500Y-57634400D01*
X118474600Y-70588400D02*
X119438400Y-71021500D01*
X114605000Y-144273100D02*
X114551500Y-144558100D01*
X127705900Y-55203100D02*
X127798100Y-55490600D01*
X160532100Y-94244100D02*
X160617100Y-94152100D01*
X119728300Y-73723000D02*
X119677300Y-73737900D01*
X128279900Y-52819010D02*
X128147800Y-52797800D01*
X145433200Y-55272600D02*
X145103100Y-55328400D01*
X156045700Y-60895500D02*
X155411400Y-61019400D01*
X130716000Y-152532100D02*
X131143100Y-152466100D01*
X133656100Y-151831100D02*
X134355700Y-151566100D01*
X140281200Y-149200100D02*
X140265900Y-149543100D01*
X153384600Y-57399400D02*
X153154500Y-57616200D01*
X94511400Y-72204000D02*
X94050200Y-72387900D01*
X111096500Y-69829400D02*
X110574200Y-69725100D01*
X128969500Y-53811800D02*
X128826400Y-53549900D01*
X149003000Y-52971820D02*
X148931500Y-52894020D01*
X153466500Y-57313700D02*
X153384600Y-57399400D01*
X177716100Y-92457800D02*
X178188100Y-92185300D01*
X131718100Y-55225200D02*
X131350800Y-55178100D01*
X132827800Y-152078100D02*
X133656100Y-151831100D01*
X167872200Y-56807900D02*
X167845500Y-56452600D01*
X136302600Y-143660100D02*
X136654000Y-143743100D01*
X154451200Y-106125800D02*
X154602500Y-106022000D01*
X113543500Y-67462500D02*
X114013000Y-67873800D01*
X136387000Y-149973100D02*
X136414200Y-149775100D01*
X91878200Y-74479300D02*
X91743500Y-74829200D01*
X160353100Y-119591300D02*
X160254000Y-118968900D01*
X161354800Y-69016100D02*
X161759800Y-68731700D01*
X127187500Y-55201600D02*
X127102600Y-54910000D01*
X185137100Y-74158800D02*
X184965100Y-73840500D01*
X166798300Y-69736500D02*
X166228300Y-69830600D01*
X127396200Y-152648100D02*
X128355500Y-152686100D01*
X128108600Y-58085400D02*
X127528000Y-58165800D01*
X119677300Y-73737900D02*
X119620400Y-73728400D01*
X159746900Y-116742000D02*
X159511500Y-115949100D01*
X138689800Y-143937100D02*
X139131800Y-143913100D01*
X107634000Y-94612200D02*
X108616900Y-94614100D01*
X157912400Y-147805100D02*
X158534500Y-147664100D01*
X106712400Y-69469400D02*
X105308800Y-69621600D01*
X185477100Y-75197700D02*
X185388100Y-74841900D01*
X116455600Y-95976800D02*
X116541900Y-96584400D01*
X127674700Y-53436930D02*
X127616500Y-53707500D01*
X131990100Y-152294100D02*
X132827800Y-152078100D01*
X146075700Y-55088000D02*
X145758300Y-55192600D01*
X161982100Y-145883100D02*
X162175400Y-145673100D01*
X109435500Y-60447800D02*
X109588900Y-61008600D01*
X156296600Y-150472100D02*
X156480300Y-150270100D01*
X164472300Y-132162900D02*
X164336600Y-131496800D01*
X154128800Y-61191500D02*
X153482600Y-61242400D01*
X150095900Y-54719100D02*
X149976300Y-54754100D01*
X110980300Y-64205100D02*
X111283200Y-64703300D01*
X144892000Y-152301100D02*
X145797600Y-152501100D01*
X151272500Y-152535100D02*
X152027600Y-152440100D01*
X165680800Y-94386300D02*
X166227800Y-94482700D01*
X114649700Y-145562100D02*
X114772400Y-145773100D01*
X112344100Y-135072500D02*
X112431400Y-135622600D01*
X169102200Y-69557300D02*
X168524200Y-69575500D01*
X185637100Y-76257600D02*
X185599100Y-75914400D01*
X150017500Y-56789800D02*
X150186500Y-56465100D01*
X114561200Y-145337100D02*
X114649700Y-145562100D01*
X115004400Y-68634200D02*
X115521700Y-68985500D01*
X110722000Y-53732900D02*
X110559500Y-53786100D01*
X125448500Y-61108800D02*
X125246500Y-61202500D01*
X154774500Y-151463100D02*
X155410300Y-151121100D01*
X151098200Y-58252300D02*
X150051900Y-58258400D01*
X130983900Y-55092000D02*
X130628300Y-54976600D01*
X181465100Y-89036700D02*
X181786100Y-88540700D01*
X147468200Y-152720100D02*
X148229300Y-152711100D01*
X156935000Y-71232000D02*
X157393200Y-71047100D01*
X114772400Y-145773100D02*
X114922400Y-145971100D01*
X141140800Y-150937100D02*
X141447200Y-151121100D01*
X116403600Y-94336000D02*
X116427000Y-94591200D01*
X108116600Y-69453300D02*
X107414800Y-69430300D01*
X149108000Y-56051800D02*
X148905600Y-56243300D01*
X123914800Y-60004300D02*
X124135000Y-60239600D01*
X142429900Y-151566100D02*
X143104500Y-151808100D01*
X119293700Y-103101700D02*
X119662500Y-103563000D01*
X118212800Y-101507700D02*
X118557800Y-102077400D01*
X163110200Y-56881200D02*
X162736700Y-57276400D01*
X136325200Y-150162100D02*
X136387000Y-149973100D01*
X126389000Y-55874100D02*
X126484100Y-56223900D01*
X98543600Y-71102500D02*
X95933100Y-71776900D01*
X135357700Y-151054100D02*
X135665400Y-150843100D01*
X92450500Y-73516400D02*
X92230000Y-73820000D01*
X140322600Y-150053100D02*
X140380300Y-150211100D01*
X183319100Y-72447500D02*
X182877100Y-72248500D01*
X154004000Y-58038500D02*
X154071800Y-57778300D01*
X154121700Y-57514200D02*
X154087700Y-57392400D01*
X118522300Y-73132100D02*
X117742700Y-72644900D01*
X157906700Y-60356700D02*
X157294400Y-60565500D01*
X140930700Y-145030100D02*
X140770100Y-146073100D01*
X108817500Y-69513200D02*
X108116600Y-69453300D01*
X167947000Y-69610400D02*
X167371400Y-69663600D01*
X114855100Y-140608100D02*
X115130700Y-140903300D01*
X117367700Y-99699300D02*
X117618900Y-100316400D01*
X161903400Y-58018100D02*
X161457200Y-58373000D01*
X115092600Y-146153100D02*
X115276100Y-146321100D01*
X159155900Y-147502100D02*
X159462300Y-147407100D01*
X116415900Y-95364600D02*
X116455600Y-95976800D01*
X123007800Y-58305000D02*
X123111100Y-58609700D01*
X160587100Y-125606200D02*
X160481200Y-125480300D01*
X160525300Y-123503100D02*
X160532600Y-122616400D01*
X128147400Y-52797790D02*
X128011800Y-52848510D01*
X112369200Y-132728000D02*
X112319200Y-133346900D01*
X119984800Y-148253100D02*
X119964000Y-148479100D01*
X148649100Y-52812420D02*
X148565800Y-52833320D01*
X141950500Y-54705200D02*
X141439100Y-54480100D01*
X152027600Y-152440100D02*
X152401800Y-152369100D01*
X94174000Y-86707700D02*
X94528600Y-87442100D01*
X114265500Y-127883800D02*
X114001800Y-128266100D01*
X147604200Y-54107400D02*
X147398800Y-54314200D01*
X149071500Y-53173630D02*
X149047500Y-53066650D01*
X105308800Y-69621600D02*
X103912700Y-69830200D01*
X148931500Y-52894020D02*
X148826700Y-52838100D01*
X116500700Y-124812500D02*
X116554600Y-125194200D01*
X166778700Y-94555500D02*
X167332600Y-94604400D01*
X96860900Y-90748400D02*
X97558700Y-91313700D01*
X148813000Y-55640800D02*
X148936400Y-55250700D01*
X148687600Y-58112400D02*
X148748700Y-58080400D01*
X167371400Y-69663600D02*
X166798300Y-69736500D01*
X128826400Y-53549900D02*
X128702300Y-53320530D01*
X114292500Y-70833800D02*
X113646800Y-70598100D01*
X139131800Y-143913100D02*
X139572000Y-143866100D01*
X141766400Y-151285100D02*
X142095100Y-151432100D01*
X114941800Y-142859300D02*
X114882000Y-143143800D01*
X136560900Y-54104500D02*
X136168500Y-54155300D01*
X169680200Y-69554500D02*
X169102200Y-69557300D01*
X123733500Y-61268800D02*
X123345700Y-61210000D01*
X115755400Y-58499000D02*
X115272900Y-58131200D01*
X116411200Y-95107000D02*
X116415900Y-95364600D01*
X111055000Y-94349000D02*
X111534700Y-94240100D01*
X111233600Y-53759200D02*
X111060800Y-53714900D01*
X153704200Y-58789400D02*
X153819100Y-58544900D01*
X153091100Y-59720600D02*
X153283200Y-59479600D01*
X147176400Y-54501400D02*
X146935800Y-54665700D01*
X151427000Y-61081200D02*
X151944400Y-60746800D01*
X185179100Y-79764600D02*
X185413100Y-78646400D01*
X165138300Y-94267000D02*
X165680800Y-94386300D01*
X165101200Y-70088400D02*
X164611500Y-70217400D01*
X160425800Y-94477100D02*
X160466500Y-94351000D01*
X157294400Y-60565500D02*
X156673700Y-60744600D01*
X160848300Y-146752100D02*
X161329100Y-146439100D01*
X111628700Y-53957300D02*
X111444200Y-53841200D01*
X162433500Y-140013600D02*
X162804800Y-139489900D01*
X127581900Y-54008600D02*
X127574500Y-54310400D01*
X150424500Y-55776500D02*
X150488700Y-55303600D01*
X113419500Y-129310300D02*
X113172200Y-129854900D01*
X115789100Y-93890200D02*
X116003000Y-94032200D01*
X113646800Y-70598100D02*
X112638800Y-70250800D01*
X172241400Y-69694100D02*
X171390200Y-69606800D01*
X140941200Y-143768100D02*
X140987800Y-143944100D01*
X111938100Y-54264500D02*
X111791800Y-54100600D01*
X140287200Y-149887100D02*
X140322600Y-150053100D01*
X159511500Y-115949100D02*
X159249800Y-115164200D01*
X91665000Y-78997000D02*
X91834200Y-79886100D01*
X114350100Y-139980200D02*
X114595300Y-140300000D01*
X139572000Y-143866100D02*
X140009300Y-143797100D01*
X114741000Y-143708100D02*
X114605000Y-144273100D01*
X122955400Y-57512300D02*
X122913900Y-57635000D01*
X167732500Y-55742700D02*
X167641200Y-55395100D01*
X119964000Y-148479100D02*
X119895200Y-148930100D01*
X127232700Y-57450400D02*
X127499000Y-57695400D01*
X117742700Y-72644900D02*
X116957900Y-72162800D01*
X122908300Y-57908300D02*
X122932700Y-58047800D01*
X112128700Y-70094700D02*
X111614600Y-69953400D01*
X97558700Y-91313700D02*
X98290400Y-91835800D01*
X148758200Y-58147200D02*
X148676500Y-58132300D01*
X99051400Y-92314400D02*
X99837400Y-92749300D01*
X167799700Y-56096300D02*
X167732500Y-55742700D01*
X141013600Y-144123100D02*
X141021500Y-144305100D01*
X91743500Y-74829200D02*
X91633800Y-75188700D01*
X164367800Y-135998100D02*
X164459200Y-135610400D01*
X102526500Y-70096500D02*
X101837900Y-70251800D01*
X141439100Y-54480100D02*
X140914000Y-54292900D01*
X101795600Y-93551100D02*
X102807900Y-93864400D01*
X153819100Y-58544900D02*
X153919400Y-58294300D01*
X129816800Y-54618900D02*
X129571800Y-54452900D01*
X119662500Y-103563000D02*
X120043800Y-104012500D01*
X109085300Y-56578600D02*
X109061500Y-57108000D01*
X128026200Y-56451900D02*
X127808600Y-56239400D01*
X126484100Y-56223900D02*
X126618600Y-56560100D01*
X91437600Y-76295100D02*
X91427900Y-76748000D01*
X120948800Y-104922500D02*
X121489300Y-105358800D01*
X180761100Y-89983700D02*
X181124100Y-89518500D01*
X118557800Y-102077400D02*
X118936600Y-102626700D01*
X127808600Y-56239400D02*
X127614300Y-56005200D01*
X116517900Y-125550200D02*
X116155900Y-125841400D01*
X98290400Y-91835800D02*
X99051400Y-92314400D01*
X124135000Y-60239600D02*
X124375700Y-60454400D01*
X115737500Y-146655100D02*
X116017900Y-146824100D01*
X126340900Y-55570200D02*
X126389000Y-55874100D01*
X161543400Y-141190300D02*
X161646300Y-141010600D01*
X149099000Y-54034200D02*
X149086900Y-53625900D01*
X183823100Y-84194700D02*
X184242100Y-83061100D01*
X113950400Y-56888900D02*
X113548600Y-56435800D01*
X166681000Y-62553200D02*
X166984800Y-61804700D01*
X155793800Y-108472500D02*
X155437000Y-107981700D01*
X152672300Y-61311400D02*
X152270200Y-61303900D01*
X117398900Y-59537100D02*
X116970100Y-59308900D01*
X120796100Y-108754800D02*
X120513800Y-109191200D01*
X91547400Y-75554800D02*
X91482600Y-75924600D01*
X148688400Y-56418000D02*
X148459500Y-56574600D01*
X161329100Y-146439100D02*
X161557400Y-146266100D01*
X149589100Y-57382800D02*
X149817700Y-57096800D01*
X116505200Y-120153800D02*
X116464500Y-120338300D01*
X116422200Y-94848700D02*
X116411200Y-95107000D01*
X164566800Y-134824200D02*
X164590100Y-134427500D01*
X115583000Y-93740800D02*
X115789100Y-93890200D01*
X149082600Y-53404620D02*
X149071500Y-53173630D01*
X170880900Y-94582100D02*
X171504400Y-94505600D01*
X159249800Y-115164200D02*
X158963600Y-114387600D01*
X160037700Y-59331600D02*
X159539600Y-59613500D01*
X164127800Y-70362900D02*
X163650000Y-70523900D01*
X140645100Y-54218200D02*
X140371500Y-54158600D01*
X160090900Y-69796100D02*
X160941200Y-69288200D01*
X140987800Y-143944100D02*
X141013600Y-144123100D01*
X159763700Y-147297100D02*
X160058500Y-147171100D01*
X125246500Y-61202500D02*
X125037900Y-61264900D01*
X164806400Y-54751600D02*
X164466200Y-55176800D01*
X149333400Y-57644400D02*
X149589100Y-57382800D01*
X160131900Y-118350500D02*
X159954200Y-117542600D01*
X151944400Y-60746800D02*
X152434300Y-60370500D01*
X148456800Y-56375100D02*
X148653400Y-56016800D01*
X162262200Y-145423100D02*
X162296300Y-145170100D01*
X142095100Y-151432100D02*
X142429900Y-151566100D01*
X118862200Y-112271500D02*
X118456800Y-113177100D01*
X151868100Y-61262400D02*
X151644100Y-61179700D01*
X158509500Y-60117000D02*
X157906700Y-60356700D01*
X150428500Y-54844300D02*
X150331400Y-54759200D01*
X168950900Y-94745800D02*
X169483400Y-94722400D01*
X113172200Y-129854900D02*
X112953900Y-130412000D01*
X109822100Y-54389600D02*
X109669300Y-54603000D01*
X123111100Y-58609700D02*
X123233200Y-58909200D01*
X124900200Y-60802100D02*
X125448500Y-61108800D01*
X92989600Y-73004400D02*
X92800100Y-73161500D01*
X124537500Y-152298100D02*
X125484400Y-152458100D01*
X112367400Y-94024900D02*
X113187800Y-93766700D01*
X109588900Y-61008600D02*
X109766000Y-61562600D01*
X94912000Y-88160700D02*
X95330700Y-88857100D01*
X114013000Y-67873800D02*
X114500800Y-68264000D01*
X159213700Y-70255600D02*
X160090900Y-69796100D01*
X92364200Y-81917400D02*
X92570100Y-82586500D01*
X117820800Y-147597100D02*
X118354900Y-147737100D01*
X114882000Y-143143800D02*
X114741000Y-143708100D01*
X110559500Y-53786100D02*
X110404000Y-53862700D01*
X91427900Y-76748000D02*
X91441400Y-77200000D01*
X109537800Y-54826300D02*
X109426000Y-55058500D01*
X120043800Y-104012500D02*
X120438300Y-104452100D01*
X134355700Y-151566100D02*
X134699400Y-151413100D01*
X162288500Y-144915100D02*
X162249500Y-144659100D01*
X127798100Y-55490600D02*
X127913000Y-55770000D01*
X116544600Y-125467200D02*
X116517900Y-125550200D01*
X155411400Y-61019400D02*
X154772100Y-61117600D01*
X153075900Y-61289500D02*
X152672300Y-61311400D01*
X133937600Y-54778500D02*
X133478500Y-54918900D01*
X96572700Y-90458500D02*
X96860900Y-90748400D01*
X122589800Y-106203100D02*
X122311500Y-106641400D01*
X136322700Y-148760100D02*
X136030300Y-146739100D01*
X185546100Y-75556700D02*
X185477100Y-75197700D01*
X101152600Y-70421900D02*
X98543600Y-71102500D01*
X126658900Y-58268500D02*
X126371500Y-58265100D01*
X109203500Y-59308200D02*
X109306800Y-59880800D01*
X124824300Y-61301200D02*
X124607200Y-61316400D01*
X120458500Y-150541100D02*
X120680700Y-150732100D01*
X119760300Y-110502800D02*
X119296600Y-111379700D01*
X117618900Y-100316400D02*
X117900200Y-100920000D01*
X158712200Y-73035800D02*
X157863700Y-73578900D01*
X156789600Y-72540800D02*
X156496900Y-71459900D01*
X114809000Y-93194800D02*
X114918300Y-93238500D01*
X119317600Y-73579900D02*
X118916600Y-73363700D01*
X123374300Y-59201000D02*
X123534700Y-59482400D01*
X157975000Y-112111400D02*
X157400100Y-111043300D01*
X118456800Y-113177100D02*
X118080000Y-114095000D01*
X163668900Y-129570900D02*
X163366900Y-128960800D01*
X133478500Y-54918900D02*
X133016300Y-55045200D01*
X149867900Y-54818900D02*
X149780100Y-54908700D01*
X119869800Y-149155100D02*
X119865500Y-149378100D01*
X115806500Y-126147900D02*
X115470200Y-126469000D01*
X113094400Y-67029000D02*
X113543500Y-67462500D01*
X123534700Y-59482400D02*
X123714800Y-59751100D01*
X159556700Y-99225400D02*
X159786100Y-98529800D01*
X159007900Y-100586400D02*
X159297700Y-99911800D01*
X121401000Y-107908200D02*
X120796100Y-108754800D01*
X148905600Y-56243300D02*
X148688400Y-56418000D01*
X149976300Y-54754100D02*
X149867900Y-54818900D01*
X126947700Y-58247600D02*
X126658900Y-58268500D01*
X132549000Y-55149400D02*
X132075000Y-55223500D01*
X157323500Y-147913100D02*
X157912400Y-147805100D01*
X181955100Y-71930000D02*
X181019100Y-71679200D01*
X157863700Y-73578900D02*
X157684800Y-73665200D01*
X143993800Y-152070100D02*
X144892000Y-152301100D01*
X167523400Y-55057000D02*
X167376500Y-54731800D01*
X124375700Y-60454400D02*
X124632800Y-60635800D01*
X128485800Y-52965560D02*
X128391400Y-52877710D01*
X127593200Y-54611300D02*
X127637300Y-54909500D01*
X126995500Y-57177100D02*
X127232700Y-57450400D01*
X116155900Y-125841400D02*
X115806500Y-126147900D01*
X163650000Y-70523900D02*
X163177700Y-70699400D01*
X136415000Y-149573100D02*
X136371200Y-149162100D01*
X111791800Y-54100600D02*
X111628700Y-53957300D01*
X124168400Y-61304000D02*
X123733500Y-61268800D01*
X166228300Y-69830600D02*
X165662300Y-69947400D01*
X112604100Y-131556200D02*
X112472400Y-132139600D01*
X118279700Y-59948900D02*
X117836100Y-59749400D01*
X163753700Y-137817800D02*
X164001200Y-137227400D01*
X185276100Y-74494100D02*
X185137100Y-74158800D01*
X185599100Y-75914400D02*
X185546100Y-75556700D01*
X130077200Y-54761400D02*
X129816800Y-54618900D01*
X110121200Y-54067900D02*
X109997500Y-54187300D01*
X123714800Y-59751100D02*
X123914800Y-60004300D01*
X185605100Y-77284500D02*
X185635100Y-76942700D01*
X127904800Y-52930190D02*
X127822000Y-53036370D01*
X112868400Y-137232700D02*
X113074100Y-137750100D01*
X119620400Y-73728400D02*
X119559600Y-73702100D01*
X126694000Y-54483600D02*
X126566600Y-54495500D01*
X124607200Y-61316400D02*
X124168400Y-61304000D01*
X130286600Y-152582100D02*
X130716000Y-152532100D01*
X139704300Y-54051100D02*
X139035400Y-53958000D01*
X167641200Y-55395100D02*
X167523400Y-55057000D01*
X117204600Y-147378100D02*
X117820800Y-147597100D01*
X184590100Y-81972800D02*
X184904100Y-80873700D01*
X128147400Y-52797790D02*
X128147400Y-52797790D01*
X116464500Y-120338300D02*
X116441000Y-120524400D01*
X148748700Y-58080400D02*
X149052700Y-57878100D01*
X161918400Y-140689900D02*
X162041600Y-140520100D01*
X156831800Y-148761100D02*
X156785900Y-148378100D01*
X164207200Y-136620800D02*
X164367800Y-135998100D01*
X161339800Y-71526700D02*
X160448500Y-72001900D01*
X127302200Y-55483300D02*
X127187500Y-55201600D01*
X127499000Y-57695400D02*
X127791800Y-57908300D01*
X140914000Y-54292900D02*
X140645100Y-54218200D01*
X161354300Y-126248200D02*
X161097600Y-126037200D01*
X145797600Y-152501100D02*
X146709200Y-152669100D01*
X148653400Y-56016800D02*
X148813000Y-55640800D01*
X150488700Y-55303600D02*
X150487200Y-55067400D01*
X165429500Y-54055900D02*
X165329700Y-54138500D01*
X156732300Y-148012100D02*
X157323500Y-147913100D01*
X161775600Y-146081100D02*
X161982100Y-145883100D01*
X159297700Y-99911800D02*
X159556700Y-99225400D01*
X126789900Y-56879100D02*
X126995500Y-57177100D01*
X113548600Y-56435800D02*
X113164900Y-55966700D01*
X150186500Y-56465100D02*
X150322800Y-56126200D01*
X124879700Y-58079000D02*
X124656500Y-58023300D01*
X112472400Y-132139600D02*
X112369200Y-132728000D01*
X111604200Y-65189800D02*
X111942600Y-65663900D01*
X175166300Y-93637200D02*
X175750000Y-93401600D01*
X91995700Y-80567000D02*
X92172500Y-81244100D01*
X114918300Y-93238500D02*
X115019800Y-93297100D01*
X124236800Y-57838000D02*
X124045300Y-57700100D01*
X115130100Y-141739500D02*
X114987700Y-142572100D01*
X111534700Y-94240100D02*
X112367400Y-94024900D01*
X164611500Y-70217400D02*
X164127800Y-70362900D01*
X156749800Y-149803100D02*
X156820700Y-149534100D01*
X109126500Y-58730800D02*
X109203500Y-59308200D01*
X160466500Y-94351000D02*
X160532100Y-94244100D01*
X110574200Y-69725100D02*
X110047700Y-69642900D01*
X181124100Y-89518500D02*
X181465100Y-89036700D01*
X93022700Y-83911500D02*
X93525800Y-85217500D01*
X92039800Y-74141900D02*
X91878200Y-74479300D01*
X162249500Y-144659100D02*
X162121400Y-144147100D01*
X135843200Y-143865100D02*
X135948200Y-143593100D01*
X177234100Y-92714100D02*
X177716100Y-92457800D01*
X156530400Y-104290700D02*
X157070200Y-103687500D01*
X116970100Y-59308900D02*
X116551900Y-59061800D01*
X179098100Y-91585300D02*
X179532100Y-91254600D01*
X140850800Y-150728100D02*
X141140800Y-150937100D01*
X159539600Y-59613500D02*
X159030000Y-59875500D01*
X126438200Y-152573100D02*
X127396200Y-152648100D01*
X185413100Y-78646400D02*
X185513100Y-77966500D01*
X160448500Y-72001900D02*
X159573200Y-72507500D01*
X109426000Y-55058500D02*
X109332400Y-55298500D01*
X148222300Y-56711900D02*
X148456800Y-56375100D01*
X116556900Y-71937600D02*
X116146600Y-71730300D01*
X113693200Y-138964800D02*
X114118700Y-139650200D01*
X107414800Y-69430300D02*
X107063700Y-69440500D01*
X117836100Y-59749400D02*
X117398900Y-59537100D01*
X166984800Y-61804700D02*
X167251200Y-61042500D01*
X156952300Y-73076300D02*
X156789600Y-72540800D01*
X136654000Y-143743100D02*
X137006800Y-143820100D01*
X163151400Y-138949200D02*
X163469100Y-138391800D01*
X160331500Y-95499900D02*
X160425800Y-94477100D01*
X112285100Y-134518600D02*
X112344100Y-135072500D01*
X167877600Y-57244400D02*
X167872200Y-56807900D01*
X163030000Y-93569800D02*
X163546300Y-93776000D01*
X122900100Y-57768800D02*
X122908300Y-57908300D01*
X117520300Y-70135100D02*
X118474600Y-70588400D01*
X167251200Y-61042500D02*
X167479800Y-60268700D01*
X156785900Y-148378100D02*
X156732300Y-148012100D01*
X150322800Y-56126200D02*
X150424500Y-55776500D01*
X91525700Y-78101100D02*
X91665000Y-78997000D01*
X119438400Y-71021500D02*
X120399200Y-71460600D01*
X127822000Y-53036370D02*
X127759000Y-53160540D01*
X149086900Y-53625900D02*
X149082600Y-53404620D01*
X164336600Y-131496800D02*
X164156000Y-130841200D01*
X109107800Y-94594400D02*
X109597700Y-94559200D01*
X122564400Y-61132600D02*
X122178000Y-61065000D01*
X126371500Y-58265100D02*
X126085900Y-58229200D01*
X173970300Y-94020800D02*
X174572600Y-93842800D01*
X112953900Y-130412000D02*
X112764600Y-130979700D01*
X159918800Y-98033100D02*
X160031500Y-97532200D01*
M02*
