%TF.GenerationSoftware,KiCad,Pcbnew,7.0.8*%
%TF.CreationDate,2024-09-06T18:28:13+02:00*%
%TF.ProjectId,Cow,436f772e-6b69-4636-9164-5f7063625858,rev?*%
%TF.SameCoordinates,Original*%
%TF.FileFunction,Soldermask,Bot*%
%TF.FilePolarity,Negative*%
%FSLAX46Y46*%
G04 Gerber Fmt 4.6, Leading zero omitted, Abs format (unit mm)*
G04 Created by KiCad (PCBNEW 7.0.8) date 2024-09-06 18:28:13*
%MOMM*%
%LPD*%
G01*
G04 APERTURE LIST*
G04 Aperture macros list*
%AMRoundRect*
0 Rectangle with rounded corners*
0 $1 Rounding radius*
0 $2 $3 $4 $5 $6 $7 $8 $9 X,Y pos of 4 corners*
0 Add a 4 corners polygon primitive as box body*
4,1,4,$2,$3,$4,$5,$6,$7,$8,$9,$2,$3,0*
0 Add four circle primitives for the rounded corners*
1,1,$1+$1,$2,$3*
1,1,$1+$1,$4,$5*
1,1,$1+$1,$6,$7*
1,1,$1+$1,$8,$9*
0 Add four rect primitives between the rounded corners*
20,1,$1+$1,$2,$3,$4,$5,0*
20,1,$1+$1,$4,$5,$6,$7,0*
20,1,$1+$1,$6,$7,$8,$9,0*
20,1,$1+$1,$8,$9,$2,$3,0*%
G04 Aperture macros list end*
%ADD10C,0.300000*%
%ADD11C,3.400000*%
%ADD12RoundRect,0.200000X-0.900000X-0.900000X0.900000X-0.900000X0.900000X0.900000X-0.900000X0.900000X0*%
%ADD13C,2.200000*%
%ADD14RoundRect,0.200000X-0.750000X-0.750000X0.750000X-0.750000X0.750000X0.750000X-0.750000X0.750000X0*%
%ADD15C,1.900000*%
%ADD16RoundRect,0.200000X-0.800000X-0.800000X0.800000X-0.800000X0.800000X0.800000X-0.800000X0.800000X0*%
%ADD17C,2.000000*%
%ADD18C,2.400000*%
%ADD19O,2.000000X2.000000*%
%ADD20RoundRect,0.200000X0.800000X0.800000X-0.800000X0.800000X-0.800000X-0.800000X0.800000X-0.800000X0*%
%ADD21RoundRect,0.200000X2.500000X1.000000X-2.500000X1.000000X-2.500000X-1.000000X2.500000X-1.000000X0*%
%ADD22C,18.180000*%
G04 APERTURE END LIST*
D10*
X177495489Y-82420828D02*
X177495489Y-80920828D01*
X176638346Y-82420828D02*
X177281203Y-81563685D01*
X176638346Y-80920828D02*
X177495489Y-81777971D01*
X175995489Y-82420828D02*
X175995489Y-80920828D01*
X175995489Y-81635114D02*
X175138346Y-81635114D01*
X175138346Y-82420828D02*
X175138346Y-80920828D01*
X173924060Y-81635114D02*
X174424060Y-81635114D01*
X174424060Y-82420828D02*
X174424060Y-80920828D01*
X174424060Y-80920828D02*
X173709774Y-80920828D01*
X171709774Y-80920828D02*
X171566917Y-80920828D01*
X171566917Y-80920828D02*
X171424060Y-80992257D01*
X171424060Y-80992257D02*
X171352632Y-81063685D01*
X171352632Y-81063685D02*
X171281203Y-81206542D01*
X171281203Y-81206542D02*
X171209774Y-81492257D01*
X171209774Y-81492257D02*
X171209774Y-81849400D01*
X171209774Y-81849400D02*
X171281203Y-82135114D01*
X171281203Y-82135114D02*
X171352632Y-82277971D01*
X171352632Y-82277971D02*
X171424060Y-82349400D01*
X171424060Y-82349400D02*
X171566917Y-82420828D01*
X171566917Y-82420828D02*
X171709774Y-82420828D01*
X171709774Y-82420828D02*
X171852632Y-82349400D01*
X171852632Y-82349400D02*
X171924060Y-82277971D01*
X171924060Y-82277971D02*
X171995489Y-82135114D01*
X171995489Y-82135114D02*
X172066917Y-81849400D01*
X172066917Y-81849400D02*
X172066917Y-81492257D01*
X172066917Y-81492257D02*
X171995489Y-81206542D01*
X171995489Y-81206542D02*
X171924060Y-81063685D01*
X171924060Y-81063685D02*
X171852632Y-80992257D01*
X171852632Y-80992257D02*
X171709774Y-80920828D01*
X170352632Y-81563685D02*
X170495489Y-81492257D01*
X170495489Y-81492257D02*
X170566918Y-81420828D01*
X170566918Y-81420828D02*
X170638346Y-81277971D01*
X170638346Y-81277971D02*
X170638346Y-81206542D01*
X170638346Y-81206542D02*
X170566918Y-81063685D01*
X170566918Y-81063685D02*
X170495489Y-80992257D01*
X170495489Y-80992257D02*
X170352632Y-80920828D01*
X170352632Y-80920828D02*
X170066918Y-80920828D01*
X170066918Y-80920828D02*
X169924061Y-80992257D01*
X169924061Y-80992257D02*
X169852632Y-81063685D01*
X169852632Y-81063685D02*
X169781203Y-81206542D01*
X169781203Y-81206542D02*
X169781203Y-81277971D01*
X169781203Y-81277971D02*
X169852632Y-81420828D01*
X169852632Y-81420828D02*
X169924061Y-81492257D01*
X169924061Y-81492257D02*
X170066918Y-81563685D01*
X170066918Y-81563685D02*
X170352632Y-81563685D01*
X170352632Y-81563685D02*
X170495489Y-81635114D01*
X170495489Y-81635114D02*
X170566918Y-81706542D01*
X170566918Y-81706542D02*
X170638346Y-81849400D01*
X170638346Y-81849400D02*
X170638346Y-82135114D01*
X170638346Y-82135114D02*
X170566918Y-82277971D01*
X170566918Y-82277971D02*
X170495489Y-82349400D01*
X170495489Y-82349400D02*
X170352632Y-82420828D01*
X170352632Y-82420828D02*
X170066918Y-82420828D01*
X170066918Y-82420828D02*
X169924061Y-82349400D01*
X169924061Y-82349400D02*
X169852632Y-82277971D01*
X169852632Y-82277971D02*
X169781203Y-82135114D01*
X169781203Y-82135114D02*
X169781203Y-81849400D01*
X169781203Y-81849400D02*
X169852632Y-81706542D01*
X169852632Y-81706542D02*
X169924061Y-81635114D01*
X169924061Y-81635114D02*
X170066918Y-81563685D01*
X169138347Y-82277971D02*
X169066918Y-82349400D01*
X169066918Y-82349400D02*
X169138347Y-82420828D01*
X169138347Y-82420828D02*
X169209775Y-82349400D01*
X169209775Y-82349400D02*
X169138347Y-82277971D01*
X169138347Y-82277971D02*
X169138347Y-82420828D01*
X168495489Y-81063685D02*
X168424061Y-80992257D01*
X168424061Y-80992257D02*
X168281204Y-80920828D01*
X168281204Y-80920828D02*
X167924061Y-80920828D01*
X167924061Y-80920828D02*
X167781204Y-80992257D01*
X167781204Y-80992257D02*
X167709775Y-81063685D01*
X167709775Y-81063685D02*
X167638346Y-81206542D01*
X167638346Y-81206542D02*
X167638346Y-81349400D01*
X167638346Y-81349400D02*
X167709775Y-81563685D01*
X167709775Y-81563685D02*
X168566918Y-82420828D01*
X168566918Y-82420828D02*
X167638346Y-82420828D01*
X166709775Y-80920828D02*
X166566918Y-80920828D01*
X166566918Y-80920828D02*
X166424061Y-80992257D01*
X166424061Y-80992257D02*
X166352633Y-81063685D01*
X166352633Y-81063685D02*
X166281204Y-81206542D01*
X166281204Y-81206542D02*
X166209775Y-81492257D01*
X166209775Y-81492257D02*
X166209775Y-81849400D01*
X166209775Y-81849400D02*
X166281204Y-82135114D01*
X166281204Y-82135114D02*
X166352633Y-82277971D01*
X166352633Y-82277971D02*
X166424061Y-82349400D01*
X166424061Y-82349400D02*
X166566918Y-82420828D01*
X166566918Y-82420828D02*
X166709775Y-82420828D01*
X166709775Y-82420828D02*
X166852633Y-82349400D01*
X166852633Y-82349400D02*
X166924061Y-82277971D01*
X166924061Y-82277971D02*
X166995490Y-82135114D01*
X166995490Y-82135114D02*
X167066918Y-81849400D01*
X167066918Y-81849400D02*
X167066918Y-81492257D01*
X167066918Y-81492257D02*
X166995490Y-81206542D01*
X166995490Y-81206542D02*
X166924061Y-81063685D01*
X166924061Y-81063685D02*
X166852633Y-80992257D01*
X166852633Y-80992257D02*
X166709775Y-80920828D01*
X165638347Y-81063685D02*
X165566919Y-80992257D01*
X165566919Y-80992257D02*
X165424062Y-80920828D01*
X165424062Y-80920828D02*
X165066919Y-80920828D01*
X165066919Y-80920828D02*
X164924062Y-80992257D01*
X164924062Y-80992257D02*
X164852633Y-81063685D01*
X164852633Y-81063685D02*
X164781204Y-81206542D01*
X164781204Y-81206542D02*
X164781204Y-81349400D01*
X164781204Y-81349400D02*
X164852633Y-81563685D01*
X164852633Y-81563685D02*
X165709776Y-82420828D01*
X165709776Y-82420828D02*
X164781204Y-82420828D01*
X163495491Y-81420828D02*
X163495491Y-82420828D01*
X163852633Y-80849400D02*
X164209776Y-81920828D01*
X164209776Y-81920828D02*
X163281205Y-81920828D01*
D11*
%TO.C,*%
X138456191Y-139320000D03*
%TD*%
D12*
%TO.C,D2*%
X150175000Y-81120000D03*
D13*
X152715000Y-81120000D03*
%TD*%
D12*
%TO.C,D1*%
X122900000Y-80960000D03*
D13*
X125440000Y-80960000D03*
%TD*%
D14*
%TO.C,Q2*%
X151730000Y-99500000D03*
D15*
X154270000Y-96960000D03*
X156810000Y-99500000D03*
%TD*%
D11*
%TO.C,*%
X125140000Y-74030000D03*
%TD*%
D14*
%TO.C,Q1*%
X120130000Y-99380000D03*
D15*
X122670000Y-96840000D03*
X125210000Y-99380000D03*
%TD*%
D11*
%TO.C,*%
X138456191Y-133300000D03*
%TD*%
D16*
%TO.C,C1*%
X148410000Y-139800000D03*
D17*
X150910000Y-139800000D03*
%TD*%
D18*
%TO.C,S1*%
X120620000Y-117030000D03*
X120620000Y-119570000D03*
X120620000Y-122110000D03*
%TD*%
D17*
%TO.C,R3*%
X143260000Y-106930000D03*
D19*
X133100000Y-106930000D03*
%TD*%
D17*
%TO.C,R7*%
X143260000Y-123130000D03*
D19*
X133100000Y-123130000D03*
%TD*%
D20*
%TO.C,U1*%
X156120000Y-116620000D03*
D19*
X156120000Y-119160000D03*
X156120000Y-121700000D03*
X156120000Y-124240000D03*
X148500000Y-124240000D03*
X148500000Y-121700000D03*
X148500000Y-119160000D03*
X148500000Y-116620000D03*
%TD*%
D17*
%TO.C,R6*%
X143260000Y-119080000D03*
D19*
X133100000Y-119080000D03*
%TD*%
D21*
%TO.C,U2*%
X150844000Y-67362000D03*
X150844000Y-63806000D03*
X124950000Y-67362000D03*
X124950000Y-63806000D03*
D22*
X137890000Y-65330000D03*
%TD*%
D17*
%TO.C,R1off1*%
X143260000Y-127180000D03*
D19*
X133100000Y-127180000D03*
%TD*%
D17*
%TO.C,R4*%
X143260000Y-110980000D03*
D19*
X133100000Y-110980000D03*
%TD*%
D11*
%TO.C,+*%
X137840000Y-79560000D03*
%TD*%
D20*
%TO.C,D3*%
X156160000Y-130450000D03*
D19*
X148540000Y-130450000D03*
%TD*%
D17*
%TO.C,R5*%
X143260000Y-115030000D03*
D19*
X133100000Y-115030000D03*
%TD*%
M02*
