M48
; DRILL file {KiCad 7.0.8} date Thu Aug 22 12:09:49 2024
; FORMAT={3:3/ absolute / metric / suppress leading zeros}
; #@! TF.CreationDate,2024-08-22T12:09:49+02:00
; #@! TF.GenerationSoftware,Kicad,Pcbnew,7.0.8
; #@! TF.FileFunction,MixedPlating,1,2
FMAT,2
METRIC,TZ
; #@! TA.AperFunction,Plated,PTH,ViaDrill
T1C0.400
; #@! TA.AperFunction,Plated,PTH,ComponentDrill
T2C0.800
; #@! TA.AperFunction,Plated,PTH,ComponentDrill
T3C0.900
; #@! TA.AperFunction,Plated,PTH,ComponentDrill
T4C1.000
%
G90
G05
T1
X119680Y-75480
X150870Y-112940
T2
X120130Y-99380
X122670Y-96840
X125210Y-99380
X133100Y-106930
X133100Y-110980
X133100Y-115030
X133100Y-119080
X133100Y-123130
X133100Y-127180
X143260Y-106930
X143260Y-110980
X143260Y-115030
X143260Y-119080
X143260Y-123130
X143260Y-127180
X148410Y-139800
X148500Y-116620
X148500Y-119160
X148500Y-121700
X148500Y-124240
X148540Y-130450
X150910Y-139800
X151730Y-99500
X154270Y-96960
X156120Y-116620
X156120Y-119160
X156120Y-121700
X156120Y-124240
X156160Y-130450
X156810Y-99500
T3
X122900Y-80960
X125440Y-80960
X150175Y-81120
X152715Y-81120
T4
X120620Y-117030
X120620Y-119570
X120620Y-122110
T0
M30
