M48
; DRILL file {KiCad 7.0.8} date Sat Aug 10 05:42:37 2024
; FORMAT={3:3/ absolute / metric / suppress leading zeros}
; #@! TF.CreationDate,2024-08-10T05:42:37+02:00
; #@! TF.GenerationSoftware,Kicad,Pcbnew,7.0.8
; #@! TF.FileFunction,MixedPlating,1,2
FMAT,2
METRIC,TZ
; #@! TA.AperFunction,Plated,PTH,ComponentDrill
T1C0.800
; #@! TA.AperFunction,Plated,PTH,ComponentDrill
T2C0.900
; #@! TA.AperFunction,Plated,PTH,ComponentDrill
T3C1.000
%
G90
G05
T1
X37084Y-112522
X39624Y-109982
X42154Y-77988
X42154Y-80528
X42154Y-83068
X42154Y-85608
X42164Y-112522
X49774Y-77988
X49774Y-80528
X49774Y-83068
X49774Y-85608
X59436Y-86106
X59436Y-90156
X59436Y-94206
X59436Y-98256
X59436Y-102306
X59436Y-106356
X69596Y-86106
X69596Y-90156
X69596Y-94206
X69596Y-98256
X69596Y-102306
X69596Y-106356
X73406Y-77216
X73406Y-84836
X83216Y-80010
X83216Y-82510
X86868Y-111760
X89408Y-109220
X91948Y-111760
T2
X46482Y-59690
X49022Y-59690
X81534Y-59690
X84074Y-59690
T3
X90170Y-76708
X90170Y-79248
X90170Y-81788
T0
M30
