%TF.GenerationSoftware,KiCad,Pcbnew,7.0.8*%
%TF.CreationDate,2024-08-10T05:42:34+02:00*%
%TF.ProjectId,Tiger,54696765-722e-46b6-9963-61645f706362,rev?*%
%TF.SameCoordinates,Original*%
%TF.FileFunction,Legend,Bot*%
%TF.FilePolarity,Positive*%
%FSLAX46Y46*%
G04 Gerber Fmt 4.6, Leading zero omitted, Abs format (unit mm)*
G04 Created by KiCad (PCBNEW 7.0.8) date 2024-08-10 05:42:34*
%MOMM*%
%LPD*%
G01*
G04 APERTURE LIST*
%ADD10C,0.150000*%
%ADD11C,0.050000*%
%ADD12C,0.120000*%
%ADD13C,0.010000*%
G04 APERTURE END LIST*
D10*
X90170000Y-76708000D02*
X90170000Y-79502000D01*
X67703506Y-70243819D02*
X67703506Y-70958104D01*
X67703506Y-70958104D02*
X67751125Y-71100961D01*
X67751125Y-71100961D02*
X67846363Y-71196200D01*
X67846363Y-71196200D02*
X67989220Y-71243819D01*
X67989220Y-71243819D02*
X68084458Y-71243819D01*
X66751125Y-71243819D02*
X67227315Y-71243819D01*
X67227315Y-71243819D02*
X67227315Y-70243819D01*
X65846363Y-71148580D02*
X65893982Y-71196200D01*
X65893982Y-71196200D02*
X66036839Y-71243819D01*
X66036839Y-71243819D02*
X66132077Y-71243819D01*
X66132077Y-71243819D02*
X66274934Y-71196200D01*
X66274934Y-71196200D02*
X66370172Y-71100961D01*
X66370172Y-71100961D02*
X66417791Y-71005723D01*
X66417791Y-71005723D02*
X66465410Y-70815247D01*
X66465410Y-70815247D02*
X66465410Y-70672390D01*
X66465410Y-70672390D02*
X66417791Y-70481914D01*
X66417791Y-70481914D02*
X66370172Y-70386676D01*
X66370172Y-70386676D02*
X66274934Y-70291438D01*
X66274934Y-70291438D02*
X66132077Y-70243819D01*
X66132077Y-70243819D02*
X66036839Y-70243819D01*
X66036839Y-70243819D02*
X65893982Y-70291438D01*
X65893982Y-70291438D02*
X65846363Y-70339057D01*
X65132077Y-70243819D02*
X65132077Y-70958104D01*
X65132077Y-70958104D02*
X65179696Y-71100961D01*
X65179696Y-71100961D02*
X65274934Y-71196200D01*
X65274934Y-71196200D02*
X65417791Y-71243819D01*
X65417791Y-71243819D02*
X65513029Y-71243819D01*
X64179696Y-71243819D02*
X64655886Y-71243819D01*
X64655886Y-71243819D02*
X64655886Y-70243819D01*
X63274934Y-71148580D02*
X63322553Y-71196200D01*
X63322553Y-71196200D02*
X63465410Y-71243819D01*
X63465410Y-71243819D02*
X63560648Y-71243819D01*
X63560648Y-71243819D02*
X63703505Y-71196200D01*
X63703505Y-71196200D02*
X63798743Y-71100961D01*
X63798743Y-71100961D02*
X63846362Y-71005723D01*
X63846362Y-71005723D02*
X63893981Y-70815247D01*
X63893981Y-70815247D02*
X63893981Y-70672390D01*
X63893981Y-70672390D02*
X63846362Y-70481914D01*
X63846362Y-70481914D02*
X63798743Y-70386676D01*
X63798743Y-70386676D02*
X63703505Y-70291438D01*
X63703505Y-70291438D02*
X63560648Y-70243819D01*
X63560648Y-70243819D02*
X63465410Y-70243819D01*
X63465410Y-70243819D02*
X63322553Y-70291438D01*
X63322553Y-70291438D02*
X63274934Y-70339057D01*
X62560648Y-70243819D02*
X62560648Y-70958104D01*
X62560648Y-70958104D02*
X62608267Y-71100961D01*
X62608267Y-71100961D02*
X62703505Y-71196200D01*
X62703505Y-71196200D02*
X62846362Y-71243819D01*
X62846362Y-71243819D02*
X62941600Y-71243819D01*
X61608267Y-71243819D02*
X62084457Y-71243819D01*
X62084457Y-71243819D02*
X62084457Y-70243819D01*
X60703505Y-71148580D02*
X60751124Y-71196200D01*
X60751124Y-71196200D02*
X60893981Y-71243819D01*
X60893981Y-71243819D02*
X60989219Y-71243819D01*
X60989219Y-71243819D02*
X61132076Y-71196200D01*
X61132076Y-71196200D02*
X61227314Y-71100961D01*
X61227314Y-71100961D02*
X61274933Y-71005723D01*
X61274933Y-71005723D02*
X61322552Y-70815247D01*
X61322552Y-70815247D02*
X61322552Y-70672390D01*
X61322552Y-70672390D02*
X61274933Y-70481914D01*
X61274933Y-70481914D02*
X61227314Y-70386676D01*
X61227314Y-70386676D02*
X61132076Y-70291438D01*
X61132076Y-70291438D02*
X60989219Y-70243819D01*
X60989219Y-70243819D02*
X60893981Y-70243819D01*
X60893981Y-70243819D02*
X60751124Y-70291438D01*
X60751124Y-70291438D02*
X60703505Y-70339057D01*
X59989219Y-70243819D02*
X59989219Y-70958104D01*
X59989219Y-70958104D02*
X60036838Y-71100961D01*
X60036838Y-71100961D02*
X60132076Y-71196200D01*
X60132076Y-71196200D02*
X60274933Y-71243819D01*
X60274933Y-71243819D02*
X60370171Y-71243819D01*
X59036838Y-71243819D02*
X59513028Y-71243819D01*
X59513028Y-71243819D02*
X59513028Y-70243819D01*
X58132076Y-71148580D02*
X58179695Y-71196200D01*
X58179695Y-71196200D02*
X58322552Y-71243819D01*
X58322552Y-71243819D02*
X58417790Y-71243819D01*
X58417790Y-71243819D02*
X58560647Y-71196200D01*
X58560647Y-71196200D02*
X58655885Y-71100961D01*
X58655885Y-71100961D02*
X58703504Y-71005723D01*
X58703504Y-71005723D02*
X58751123Y-70815247D01*
X58751123Y-70815247D02*
X58751123Y-70672390D01*
X58751123Y-70672390D02*
X58703504Y-70481914D01*
X58703504Y-70481914D02*
X58655885Y-70386676D01*
X58655885Y-70386676D02*
X58560647Y-70291438D01*
X58560647Y-70291438D02*
X58417790Y-70243819D01*
X58417790Y-70243819D02*
X58322552Y-70243819D01*
X58322552Y-70243819D02*
X58179695Y-70291438D01*
X58179695Y-70291438D02*
X58132076Y-70339057D01*
X44621220Y-60067819D02*
X44621220Y-59067819D01*
X44049792Y-60067819D02*
X44478363Y-59496390D01*
X44049792Y-59067819D02*
X44621220Y-59639247D01*
X41239887Y-114916009D02*
X41097030Y-114963628D01*
X41097030Y-114963628D02*
X41049411Y-115011247D01*
X41049411Y-115011247D02*
X41001792Y-115106485D01*
X41001792Y-115106485D02*
X41001792Y-115249342D01*
X41001792Y-115249342D02*
X41049411Y-115344580D01*
X41049411Y-115344580D02*
X41097030Y-115392200D01*
X41097030Y-115392200D02*
X41192268Y-115439819D01*
X41192268Y-115439819D02*
X41573220Y-115439819D01*
X41573220Y-115439819D02*
X41573220Y-114439819D01*
X41573220Y-114439819D02*
X41239887Y-114439819D01*
X41239887Y-114439819D02*
X41144649Y-114487438D01*
X41144649Y-114487438D02*
X41097030Y-114535057D01*
X41097030Y-114535057D02*
X41049411Y-114630295D01*
X41049411Y-114630295D02*
X41049411Y-114725533D01*
X41049411Y-114725533D02*
X41097030Y-114820771D01*
X41097030Y-114820771D02*
X41144649Y-114868390D01*
X41144649Y-114868390D02*
X41239887Y-114916009D01*
X41239887Y-114916009D02*
X41573220Y-114916009D01*
X40001792Y-115344580D02*
X40049411Y-115392200D01*
X40049411Y-115392200D02*
X40192268Y-115439819D01*
X40192268Y-115439819D02*
X40287506Y-115439819D01*
X40287506Y-115439819D02*
X40430363Y-115392200D01*
X40430363Y-115392200D02*
X40525601Y-115296961D01*
X40525601Y-115296961D02*
X40573220Y-115201723D01*
X40573220Y-115201723D02*
X40620839Y-115011247D01*
X40620839Y-115011247D02*
X40620839Y-114868390D01*
X40620839Y-114868390D02*
X40573220Y-114677914D01*
X40573220Y-114677914D02*
X40525601Y-114582676D01*
X40525601Y-114582676D02*
X40430363Y-114487438D01*
X40430363Y-114487438D02*
X40287506Y-114439819D01*
X40287506Y-114439819D02*
X40192268Y-114439819D01*
X40192268Y-114439819D02*
X40049411Y-114487438D01*
X40049411Y-114487438D02*
X40001792Y-114535057D01*
X39097030Y-114439819D02*
X39573220Y-114439819D01*
X39573220Y-114439819D02*
X39620839Y-114916009D01*
X39620839Y-114916009D02*
X39573220Y-114868390D01*
X39573220Y-114868390D02*
X39477982Y-114820771D01*
X39477982Y-114820771D02*
X39239887Y-114820771D01*
X39239887Y-114820771D02*
X39144649Y-114868390D01*
X39144649Y-114868390D02*
X39097030Y-114916009D01*
X39097030Y-114916009D02*
X39049411Y-115011247D01*
X39049411Y-115011247D02*
X39049411Y-115249342D01*
X39049411Y-115249342D02*
X39097030Y-115344580D01*
X39097030Y-115344580D02*
X39144649Y-115392200D01*
X39144649Y-115392200D02*
X39239887Y-115439819D01*
X39239887Y-115439819D02*
X39477982Y-115439819D01*
X39477982Y-115439819D02*
X39573220Y-115392200D01*
X39573220Y-115392200D02*
X39620839Y-115344580D01*
X38192268Y-114773152D02*
X38192268Y-115439819D01*
X38430363Y-114392200D02*
X38668458Y-115106485D01*
X38668458Y-115106485D02*
X38049411Y-115106485D01*
X37525601Y-114868390D02*
X37620839Y-114820771D01*
X37620839Y-114820771D02*
X37668458Y-114773152D01*
X37668458Y-114773152D02*
X37716077Y-114677914D01*
X37716077Y-114677914D02*
X37716077Y-114630295D01*
X37716077Y-114630295D02*
X37668458Y-114535057D01*
X37668458Y-114535057D02*
X37620839Y-114487438D01*
X37620839Y-114487438D02*
X37525601Y-114439819D01*
X37525601Y-114439819D02*
X37335125Y-114439819D01*
X37335125Y-114439819D02*
X37239887Y-114487438D01*
X37239887Y-114487438D02*
X37192268Y-114535057D01*
X37192268Y-114535057D02*
X37144649Y-114630295D01*
X37144649Y-114630295D02*
X37144649Y-114677914D01*
X37144649Y-114677914D02*
X37192268Y-114773152D01*
X37192268Y-114773152D02*
X37239887Y-114820771D01*
X37239887Y-114820771D02*
X37335125Y-114868390D01*
X37335125Y-114868390D02*
X37525601Y-114868390D01*
X37525601Y-114868390D02*
X37620839Y-114916009D01*
X37620839Y-114916009D02*
X37668458Y-114963628D01*
X37668458Y-114963628D02*
X37716077Y-115058866D01*
X37716077Y-115058866D02*
X37716077Y-115249342D01*
X37716077Y-115249342D02*
X37668458Y-115344580D01*
X37668458Y-115344580D02*
X37620839Y-115392200D01*
X37620839Y-115392200D02*
X37525601Y-115439819D01*
X37525601Y-115439819D02*
X37335125Y-115439819D01*
X37335125Y-115439819D02*
X37239887Y-115392200D01*
X37239887Y-115392200D02*
X37192268Y-115344580D01*
X37192268Y-115344580D02*
X37144649Y-115249342D01*
X37144649Y-115249342D02*
X37144649Y-115058866D01*
X37144649Y-115058866D02*
X37192268Y-114963628D01*
X37192268Y-114963628D02*
X37239887Y-114916009D01*
X37239887Y-114916009D02*
X37335125Y-114868390D01*
X51463411Y-78355819D02*
X52034839Y-78355819D01*
X51749125Y-78355819D02*
X51749125Y-77355819D01*
X51749125Y-77355819D02*
X51844363Y-77498676D01*
X51844363Y-77498676D02*
X51939601Y-77593914D01*
X51939601Y-77593914D02*
X52034839Y-77641533D01*
X35223220Y-112376009D02*
X34889887Y-112376009D01*
X34747030Y-112899819D02*
X35223220Y-112899819D01*
X35223220Y-112899819D02*
X35223220Y-111899819D01*
X35223220Y-111899819D02*
X34747030Y-111899819D01*
X47497904Y-50048438D02*
X47593142Y-50000819D01*
X47593142Y-50000819D02*
X47735999Y-50000819D01*
X47735999Y-50000819D02*
X47878856Y-50048438D01*
X47878856Y-50048438D02*
X47974094Y-50143676D01*
X47974094Y-50143676D02*
X48021713Y-50238914D01*
X48021713Y-50238914D02*
X48069332Y-50429390D01*
X48069332Y-50429390D02*
X48069332Y-50572247D01*
X48069332Y-50572247D02*
X48021713Y-50762723D01*
X48021713Y-50762723D02*
X47974094Y-50857961D01*
X47974094Y-50857961D02*
X47878856Y-50953200D01*
X47878856Y-50953200D02*
X47735999Y-51000819D01*
X47735999Y-51000819D02*
X47640761Y-51000819D01*
X47640761Y-51000819D02*
X47497904Y-50953200D01*
X47497904Y-50953200D02*
X47450285Y-50905580D01*
X47450285Y-50905580D02*
X47450285Y-50572247D01*
X47450285Y-50572247D02*
X47640761Y-50572247D01*
X47021713Y-51000819D02*
X47021713Y-50000819D01*
X47021713Y-50000819D02*
X46450285Y-51000819D01*
X46450285Y-51000819D02*
X46450285Y-50000819D01*
X45974094Y-51000819D02*
X45974094Y-50000819D01*
X45974094Y-50000819D02*
X45735999Y-50000819D01*
X45735999Y-50000819D02*
X45593142Y-50048438D01*
X45593142Y-50048438D02*
X45497904Y-50143676D01*
X45497904Y-50143676D02*
X45450285Y-50238914D01*
X45450285Y-50238914D02*
X45402666Y-50429390D01*
X45402666Y-50429390D02*
X45402666Y-50572247D01*
X45402666Y-50572247D02*
X45450285Y-50762723D01*
X45450285Y-50762723D02*
X45497904Y-50857961D01*
X45497904Y-50857961D02*
X45593142Y-50953200D01*
X45593142Y-50953200D02*
X45735999Y-51000819D01*
X45735999Y-51000819D02*
X45974094Y-51000819D01*
X91277887Y-114408009D02*
X91135030Y-114455628D01*
X91135030Y-114455628D02*
X91087411Y-114503247D01*
X91087411Y-114503247D02*
X91039792Y-114598485D01*
X91039792Y-114598485D02*
X91039792Y-114741342D01*
X91039792Y-114741342D02*
X91087411Y-114836580D01*
X91087411Y-114836580D02*
X91135030Y-114884200D01*
X91135030Y-114884200D02*
X91230268Y-114931819D01*
X91230268Y-114931819D02*
X91611220Y-114931819D01*
X91611220Y-114931819D02*
X91611220Y-113931819D01*
X91611220Y-113931819D02*
X91277887Y-113931819D01*
X91277887Y-113931819D02*
X91182649Y-113979438D01*
X91182649Y-113979438D02*
X91135030Y-114027057D01*
X91135030Y-114027057D02*
X91087411Y-114122295D01*
X91087411Y-114122295D02*
X91087411Y-114217533D01*
X91087411Y-114217533D02*
X91135030Y-114312771D01*
X91135030Y-114312771D02*
X91182649Y-114360390D01*
X91182649Y-114360390D02*
X91277887Y-114408009D01*
X91277887Y-114408009D02*
X91611220Y-114408009D01*
X90039792Y-114836580D02*
X90087411Y-114884200D01*
X90087411Y-114884200D02*
X90230268Y-114931819D01*
X90230268Y-114931819D02*
X90325506Y-114931819D01*
X90325506Y-114931819D02*
X90468363Y-114884200D01*
X90468363Y-114884200D02*
X90563601Y-114788961D01*
X90563601Y-114788961D02*
X90611220Y-114693723D01*
X90611220Y-114693723D02*
X90658839Y-114503247D01*
X90658839Y-114503247D02*
X90658839Y-114360390D01*
X90658839Y-114360390D02*
X90611220Y-114169914D01*
X90611220Y-114169914D02*
X90563601Y-114074676D01*
X90563601Y-114074676D02*
X90468363Y-113979438D01*
X90468363Y-113979438D02*
X90325506Y-113931819D01*
X90325506Y-113931819D02*
X90230268Y-113931819D01*
X90230268Y-113931819D02*
X90087411Y-113979438D01*
X90087411Y-113979438D02*
X90039792Y-114027057D01*
X89135030Y-113931819D02*
X89611220Y-113931819D01*
X89611220Y-113931819D02*
X89658839Y-114408009D01*
X89658839Y-114408009D02*
X89611220Y-114360390D01*
X89611220Y-114360390D02*
X89515982Y-114312771D01*
X89515982Y-114312771D02*
X89277887Y-114312771D01*
X89277887Y-114312771D02*
X89182649Y-114360390D01*
X89182649Y-114360390D02*
X89135030Y-114408009D01*
X89135030Y-114408009D02*
X89087411Y-114503247D01*
X89087411Y-114503247D02*
X89087411Y-114741342D01*
X89087411Y-114741342D02*
X89135030Y-114836580D01*
X89135030Y-114836580D02*
X89182649Y-114884200D01*
X89182649Y-114884200D02*
X89277887Y-114931819D01*
X89277887Y-114931819D02*
X89515982Y-114931819D01*
X89515982Y-114931819D02*
X89611220Y-114884200D01*
X89611220Y-114884200D02*
X89658839Y-114836580D01*
X88230268Y-114265152D02*
X88230268Y-114931819D01*
X88468363Y-113884200D02*
X88706458Y-114598485D01*
X88706458Y-114598485D02*
X88087411Y-114598485D01*
X87563601Y-114360390D02*
X87658839Y-114312771D01*
X87658839Y-114312771D02*
X87706458Y-114265152D01*
X87706458Y-114265152D02*
X87754077Y-114169914D01*
X87754077Y-114169914D02*
X87754077Y-114122295D01*
X87754077Y-114122295D02*
X87706458Y-114027057D01*
X87706458Y-114027057D02*
X87658839Y-113979438D01*
X87658839Y-113979438D02*
X87563601Y-113931819D01*
X87563601Y-113931819D02*
X87373125Y-113931819D01*
X87373125Y-113931819D02*
X87277887Y-113979438D01*
X87277887Y-113979438D02*
X87230268Y-114027057D01*
X87230268Y-114027057D02*
X87182649Y-114122295D01*
X87182649Y-114122295D02*
X87182649Y-114169914D01*
X87182649Y-114169914D02*
X87230268Y-114265152D01*
X87230268Y-114265152D02*
X87277887Y-114312771D01*
X87277887Y-114312771D02*
X87373125Y-114360390D01*
X87373125Y-114360390D02*
X87563601Y-114360390D01*
X87563601Y-114360390D02*
X87658839Y-114408009D01*
X87658839Y-114408009D02*
X87706458Y-114455628D01*
X87706458Y-114455628D02*
X87754077Y-114550866D01*
X87754077Y-114550866D02*
X87754077Y-114741342D01*
X87754077Y-114741342D02*
X87706458Y-114836580D01*
X87706458Y-114836580D02*
X87658839Y-114884200D01*
X87658839Y-114884200D02*
X87563601Y-114931819D01*
X87563601Y-114931819D02*
X87373125Y-114931819D01*
X87373125Y-114931819D02*
X87277887Y-114884200D01*
X87277887Y-114884200D02*
X87230268Y-114836580D01*
X87230268Y-114836580D02*
X87182649Y-114741342D01*
X87182649Y-114741342D02*
X87182649Y-114550866D01*
X87182649Y-114550866D02*
X87230268Y-114455628D01*
X87230268Y-114455628D02*
X87277887Y-114408009D01*
X87277887Y-114408009D02*
X87373125Y-114360390D01*
X79673220Y-60067819D02*
X79673220Y-59067819D01*
X79101792Y-60067819D02*
X79530363Y-59496390D01*
X79101792Y-59067819D02*
X79673220Y-59639247D01*
X40192077Y-106565819D02*
X39620649Y-106565819D01*
X39906363Y-107565819D02*
X39906363Y-106565819D01*
X38763506Y-107565819D02*
X39334934Y-107565819D01*
X39049220Y-107565819D02*
X39049220Y-106565819D01*
X39049220Y-106565819D02*
X39144458Y-106708676D01*
X39144458Y-106708676D02*
X39239696Y-106803914D01*
X39239696Y-106803914D02*
X39334934Y-106851533D01*
X84499220Y-111868009D02*
X84165887Y-111868009D01*
X84023030Y-112391819D02*
X84499220Y-112391819D01*
X84499220Y-112391819D02*
X84499220Y-111391819D01*
X84499220Y-111391819D02*
X84023030Y-111391819D01*
X90230077Y-106311819D02*
X89658649Y-106311819D01*
X89944363Y-107311819D02*
X89944363Y-106311819D01*
X89372934Y-106407057D02*
X89325315Y-106359438D01*
X89325315Y-106359438D02*
X89230077Y-106311819D01*
X89230077Y-106311819D02*
X88991982Y-106311819D01*
X88991982Y-106311819D02*
X88896744Y-106359438D01*
X88896744Y-106359438D02*
X88849125Y-106407057D01*
X88849125Y-106407057D02*
X88801506Y-106502295D01*
X88801506Y-106502295D02*
X88801506Y-106597533D01*
X88801506Y-106597533D02*
X88849125Y-106740390D01*
X88849125Y-106740390D02*
X89420553Y-107311819D01*
X89420553Y-107311819D02*
X88801506Y-107311819D01*
X88566475Y-49746819D02*
X88233142Y-50746819D01*
X88233142Y-50746819D02*
X87899809Y-49746819D01*
X87137904Y-50699200D02*
X87233142Y-50746819D01*
X87233142Y-50746819D02*
X87423618Y-50746819D01*
X87423618Y-50746819D02*
X87518856Y-50699200D01*
X87518856Y-50699200D02*
X87566475Y-50651580D01*
X87566475Y-50651580D02*
X87614094Y-50556342D01*
X87614094Y-50556342D02*
X87614094Y-50270628D01*
X87614094Y-50270628D02*
X87566475Y-50175390D01*
X87566475Y-50175390D02*
X87518856Y-50127771D01*
X87518856Y-50127771D02*
X87423618Y-50080152D01*
X87423618Y-50080152D02*
X87233142Y-50080152D01*
X87233142Y-50080152D02*
X87137904Y-50127771D01*
X86280761Y-50699200D02*
X86375999Y-50746819D01*
X86375999Y-50746819D02*
X86566475Y-50746819D01*
X86566475Y-50746819D02*
X86661713Y-50699200D01*
X86661713Y-50699200D02*
X86709332Y-50651580D01*
X86709332Y-50651580D02*
X86756951Y-50556342D01*
X86756951Y-50556342D02*
X86756951Y-50270628D01*
X86756951Y-50270628D02*
X86709332Y-50175390D01*
X86709332Y-50175390D02*
X86661713Y-50127771D01*
X86661713Y-50127771D02*
X86566475Y-50080152D01*
X86566475Y-50080152D02*
X86375999Y-50080152D01*
X86375999Y-50080152D02*
X86280761Y-50127771D01*
X64682666Y-90624819D02*
X65015999Y-90148628D01*
X65254094Y-90624819D02*
X65254094Y-89624819D01*
X65254094Y-89624819D02*
X64873142Y-89624819D01*
X64873142Y-89624819D02*
X64777904Y-89672438D01*
X64777904Y-89672438D02*
X64730285Y-89720057D01*
X64730285Y-89720057D02*
X64682666Y-89815295D01*
X64682666Y-89815295D02*
X64682666Y-89958152D01*
X64682666Y-89958152D02*
X64730285Y-90053390D01*
X64730285Y-90053390D02*
X64777904Y-90101009D01*
X64777904Y-90101009D02*
X64873142Y-90148628D01*
X64873142Y-90148628D02*
X65254094Y-90148628D01*
X63825523Y-89958152D02*
X63825523Y-90624819D01*
X64063618Y-89577200D02*
X64301713Y-90291485D01*
X64301713Y-90291485D02*
X63682666Y-90291485D01*
X66206475Y-91656819D02*
X65587428Y-91656819D01*
X65587428Y-91656819D02*
X65920761Y-92037771D01*
X65920761Y-92037771D02*
X65777904Y-92037771D01*
X65777904Y-92037771D02*
X65682666Y-92085390D01*
X65682666Y-92085390D02*
X65635047Y-92133009D01*
X65635047Y-92133009D02*
X65587428Y-92228247D01*
X65587428Y-92228247D02*
X65587428Y-92466342D01*
X65587428Y-92466342D02*
X65635047Y-92561580D01*
X65635047Y-92561580D02*
X65682666Y-92609200D01*
X65682666Y-92609200D02*
X65777904Y-92656819D01*
X65777904Y-92656819D02*
X66063618Y-92656819D01*
X66063618Y-92656819D02*
X66158856Y-92609200D01*
X66158856Y-92609200D02*
X66206475Y-92561580D01*
X65111237Y-92656819D02*
X64920761Y-92656819D01*
X64920761Y-92656819D02*
X64825523Y-92609200D01*
X64825523Y-92609200D02*
X64777904Y-92561580D01*
X64777904Y-92561580D02*
X64682666Y-92418723D01*
X64682666Y-92418723D02*
X64635047Y-92228247D01*
X64635047Y-92228247D02*
X64635047Y-91847295D01*
X64635047Y-91847295D02*
X64682666Y-91752057D01*
X64682666Y-91752057D02*
X64730285Y-91704438D01*
X64730285Y-91704438D02*
X64825523Y-91656819D01*
X64825523Y-91656819D02*
X65015999Y-91656819D01*
X65015999Y-91656819D02*
X65111237Y-91704438D01*
X65111237Y-91704438D02*
X65158856Y-91752057D01*
X65158856Y-91752057D02*
X65206475Y-91847295D01*
X65206475Y-91847295D02*
X65206475Y-92085390D01*
X65206475Y-92085390D02*
X65158856Y-92180628D01*
X65158856Y-92180628D02*
X65111237Y-92228247D01*
X65111237Y-92228247D02*
X65015999Y-92275866D01*
X65015999Y-92275866D02*
X64825523Y-92275866D01*
X64825523Y-92275866D02*
X64730285Y-92228247D01*
X64730285Y-92228247D02*
X64682666Y-92180628D01*
X64682666Y-92180628D02*
X64635047Y-92085390D01*
X64015999Y-91656819D02*
X63920761Y-91656819D01*
X63920761Y-91656819D02*
X63825523Y-91704438D01*
X63825523Y-91704438D02*
X63777904Y-91752057D01*
X63777904Y-91752057D02*
X63730285Y-91847295D01*
X63730285Y-91847295D02*
X63682666Y-92037771D01*
X63682666Y-92037771D02*
X63682666Y-92275866D01*
X63682666Y-92275866D02*
X63730285Y-92466342D01*
X63730285Y-92466342D02*
X63777904Y-92561580D01*
X63777904Y-92561580D02*
X63825523Y-92609200D01*
X63825523Y-92609200D02*
X63920761Y-92656819D01*
X63920761Y-92656819D02*
X64015999Y-92656819D01*
X64015999Y-92656819D02*
X64111237Y-92609200D01*
X64111237Y-92609200D02*
X64158856Y-92561580D01*
X64158856Y-92561580D02*
X64206475Y-92466342D01*
X64206475Y-92466342D02*
X64254094Y-92275866D01*
X64254094Y-92275866D02*
X64254094Y-92037771D01*
X64254094Y-92037771D02*
X64206475Y-91847295D01*
X64206475Y-91847295D02*
X64158856Y-91752057D01*
X64158856Y-91752057D02*
X64111237Y-91704438D01*
X64111237Y-91704438D02*
X64015999Y-91656819D01*
X63254094Y-92656819D02*
X63254094Y-91656819D01*
X63158856Y-92275866D02*
X62873142Y-92656819D01*
X62873142Y-91990152D02*
X63254094Y-92371104D01*
X71740819Y-80287905D02*
X70740819Y-80287905D01*
X70740819Y-80287905D02*
X70740819Y-80526000D01*
X70740819Y-80526000D02*
X70788438Y-80668857D01*
X70788438Y-80668857D02*
X70883676Y-80764095D01*
X70883676Y-80764095D02*
X70978914Y-80811714D01*
X70978914Y-80811714D02*
X71169390Y-80859333D01*
X71169390Y-80859333D02*
X71312247Y-80859333D01*
X71312247Y-80859333D02*
X71502723Y-80811714D01*
X71502723Y-80811714D02*
X71597961Y-80764095D01*
X71597961Y-80764095D02*
X71693200Y-80668857D01*
X71693200Y-80668857D02*
X71740819Y-80526000D01*
X71740819Y-80526000D02*
X71740819Y-80287905D01*
X70740819Y-81192667D02*
X70740819Y-81811714D01*
X70740819Y-81811714D02*
X71121771Y-81478381D01*
X71121771Y-81478381D02*
X71121771Y-81621238D01*
X71121771Y-81621238D02*
X71169390Y-81716476D01*
X71169390Y-81716476D02*
X71217009Y-81764095D01*
X71217009Y-81764095D02*
X71312247Y-81811714D01*
X71312247Y-81811714D02*
X71550342Y-81811714D01*
X71550342Y-81811714D02*
X71645580Y-81764095D01*
X71645580Y-81764095D02*
X71693200Y-81716476D01*
X71693200Y-81716476D02*
X71740819Y-81621238D01*
X71740819Y-81621238D02*
X71740819Y-81335524D01*
X71740819Y-81335524D02*
X71693200Y-81240286D01*
X71693200Y-81240286D02*
X71645580Y-81192667D01*
X75980819Y-78883142D02*
X75980819Y-78311714D01*
X75980819Y-78597428D02*
X74980819Y-78597428D01*
X74980819Y-78597428D02*
X75123676Y-78502190D01*
X75123676Y-78502190D02*
X75218914Y-78406952D01*
X75218914Y-78406952D02*
X75266533Y-78311714D01*
X75980819Y-79311714D02*
X74980819Y-79311714D01*
X74980819Y-79311714D02*
X75980819Y-79883142D01*
X75980819Y-79883142D02*
X74980819Y-79883142D01*
X75314152Y-80787904D02*
X75980819Y-80787904D01*
X74933200Y-80549809D02*
X75647485Y-80311714D01*
X75647485Y-80311714D02*
X75647485Y-80930761D01*
X75980819Y-81835523D02*
X75980819Y-81264095D01*
X75980819Y-81549809D02*
X74980819Y-81549809D01*
X74980819Y-81549809D02*
X75123676Y-81454571D01*
X75123676Y-81454571D02*
X75218914Y-81359333D01*
X75218914Y-81359333D02*
X75266533Y-81264095D01*
X75314152Y-82692666D02*
X75980819Y-82692666D01*
X74933200Y-82454571D02*
X75647485Y-82216476D01*
X75647485Y-82216476D02*
X75647485Y-82835523D01*
X75409390Y-83359333D02*
X75361771Y-83264095D01*
X75361771Y-83264095D02*
X75314152Y-83216476D01*
X75314152Y-83216476D02*
X75218914Y-83168857D01*
X75218914Y-83168857D02*
X75171295Y-83168857D01*
X75171295Y-83168857D02*
X75076057Y-83216476D01*
X75076057Y-83216476D02*
X75028438Y-83264095D01*
X75028438Y-83264095D02*
X74980819Y-83359333D01*
X74980819Y-83359333D02*
X74980819Y-83549809D01*
X74980819Y-83549809D02*
X75028438Y-83645047D01*
X75028438Y-83645047D02*
X75076057Y-83692666D01*
X75076057Y-83692666D02*
X75171295Y-83740285D01*
X75171295Y-83740285D02*
X75218914Y-83740285D01*
X75218914Y-83740285D02*
X75314152Y-83692666D01*
X75314152Y-83692666D02*
X75361771Y-83645047D01*
X75361771Y-83645047D02*
X75409390Y-83549809D01*
X75409390Y-83549809D02*
X75409390Y-83359333D01*
X75409390Y-83359333D02*
X75457009Y-83264095D01*
X75457009Y-83264095D02*
X75504628Y-83216476D01*
X75504628Y-83216476D02*
X75599866Y-83168857D01*
X75599866Y-83168857D02*
X75790342Y-83168857D01*
X75790342Y-83168857D02*
X75885580Y-83216476D01*
X75885580Y-83216476D02*
X75933200Y-83264095D01*
X75933200Y-83264095D02*
X75980819Y-83359333D01*
X75980819Y-83359333D02*
X75980819Y-83549809D01*
X75980819Y-83549809D02*
X75933200Y-83645047D01*
X75933200Y-83645047D02*
X75885580Y-83692666D01*
X75885580Y-83692666D02*
X75790342Y-83740285D01*
X75790342Y-83740285D02*
X75599866Y-83740285D01*
X75599866Y-83740285D02*
X75504628Y-83692666D01*
X75504628Y-83692666D02*
X75457009Y-83645047D01*
X75457009Y-83645047D02*
X75409390Y-83549809D01*
X72060819Y-76954095D02*
X71060819Y-76954095D01*
X72060819Y-77525523D02*
X71489390Y-77096952D01*
X71060819Y-77525523D02*
X71632247Y-76954095D01*
X64682666Y-86560819D02*
X65015999Y-86084628D01*
X65254094Y-86560819D02*
X65254094Y-85560819D01*
X65254094Y-85560819D02*
X64873142Y-85560819D01*
X64873142Y-85560819D02*
X64777904Y-85608438D01*
X64777904Y-85608438D02*
X64730285Y-85656057D01*
X64730285Y-85656057D02*
X64682666Y-85751295D01*
X64682666Y-85751295D02*
X64682666Y-85894152D01*
X64682666Y-85894152D02*
X64730285Y-85989390D01*
X64730285Y-85989390D02*
X64777904Y-86037009D01*
X64777904Y-86037009D02*
X64873142Y-86084628D01*
X64873142Y-86084628D02*
X65254094Y-86084628D01*
X64349332Y-85560819D02*
X63730285Y-85560819D01*
X63730285Y-85560819D02*
X64063618Y-85941771D01*
X64063618Y-85941771D02*
X63920761Y-85941771D01*
X63920761Y-85941771D02*
X63825523Y-85989390D01*
X63825523Y-85989390D02*
X63777904Y-86037009D01*
X63777904Y-86037009D02*
X63730285Y-86132247D01*
X63730285Y-86132247D02*
X63730285Y-86370342D01*
X63730285Y-86370342D02*
X63777904Y-86465580D01*
X63777904Y-86465580D02*
X63825523Y-86513200D01*
X63825523Y-86513200D02*
X63920761Y-86560819D01*
X63920761Y-86560819D02*
X64206475Y-86560819D01*
X64206475Y-86560819D02*
X64301713Y-86513200D01*
X64301713Y-86513200D02*
X64349332Y-86465580D01*
X65635047Y-87592819D02*
X66111237Y-87592819D01*
X66111237Y-87592819D02*
X66158856Y-88069009D01*
X66158856Y-88069009D02*
X66111237Y-88021390D01*
X66111237Y-88021390D02*
X66015999Y-87973771D01*
X66015999Y-87973771D02*
X65777904Y-87973771D01*
X65777904Y-87973771D02*
X65682666Y-88021390D01*
X65682666Y-88021390D02*
X65635047Y-88069009D01*
X65635047Y-88069009D02*
X65587428Y-88164247D01*
X65587428Y-88164247D02*
X65587428Y-88402342D01*
X65587428Y-88402342D02*
X65635047Y-88497580D01*
X65635047Y-88497580D02*
X65682666Y-88545200D01*
X65682666Y-88545200D02*
X65777904Y-88592819D01*
X65777904Y-88592819D02*
X66015999Y-88592819D01*
X66015999Y-88592819D02*
X66111237Y-88545200D01*
X66111237Y-88545200D02*
X66158856Y-88497580D01*
X64730285Y-87592819D02*
X64920761Y-87592819D01*
X64920761Y-87592819D02*
X65015999Y-87640438D01*
X65015999Y-87640438D02*
X65063618Y-87688057D01*
X65063618Y-87688057D02*
X65158856Y-87830914D01*
X65158856Y-87830914D02*
X65206475Y-88021390D01*
X65206475Y-88021390D02*
X65206475Y-88402342D01*
X65206475Y-88402342D02*
X65158856Y-88497580D01*
X65158856Y-88497580D02*
X65111237Y-88545200D01*
X65111237Y-88545200D02*
X65015999Y-88592819D01*
X65015999Y-88592819D02*
X64825523Y-88592819D01*
X64825523Y-88592819D02*
X64730285Y-88545200D01*
X64730285Y-88545200D02*
X64682666Y-88497580D01*
X64682666Y-88497580D02*
X64635047Y-88402342D01*
X64635047Y-88402342D02*
X64635047Y-88164247D01*
X64635047Y-88164247D02*
X64682666Y-88069009D01*
X64682666Y-88069009D02*
X64730285Y-88021390D01*
X64730285Y-88021390D02*
X64825523Y-87973771D01*
X64825523Y-87973771D02*
X65015999Y-87973771D01*
X65015999Y-87973771D02*
X65111237Y-88021390D01*
X65111237Y-88021390D02*
X65158856Y-88069009D01*
X65158856Y-88069009D02*
X65206475Y-88164247D01*
X64015999Y-87592819D02*
X63920761Y-87592819D01*
X63920761Y-87592819D02*
X63825523Y-87640438D01*
X63825523Y-87640438D02*
X63777904Y-87688057D01*
X63777904Y-87688057D02*
X63730285Y-87783295D01*
X63730285Y-87783295D02*
X63682666Y-87973771D01*
X63682666Y-87973771D02*
X63682666Y-88211866D01*
X63682666Y-88211866D02*
X63730285Y-88402342D01*
X63730285Y-88402342D02*
X63777904Y-88497580D01*
X63777904Y-88497580D02*
X63825523Y-88545200D01*
X63825523Y-88545200D02*
X63920761Y-88592819D01*
X63920761Y-88592819D02*
X64015999Y-88592819D01*
X64015999Y-88592819D02*
X64111237Y-88545200D01*
X64111237Y-88545200D02*
X64158856Y-88497580D01*
X64158856Y-88497580D02*
X64206475Y-88402342D01*
X64206475Y-88402342D02*
X64254094Y-88211866D01*
X64254094Y-88211866D02*
X64254094Y-87973771D01*
X64254094Y-87973771D02*
X64206475Y-87783295D01*
X64206475Y-87783295D02*
X64158856Y-87688057D01*
X64158856Y-87688057D02*
X64111237Y-87640438D01*
X64111237Y-87640438D02*
X64015999Y-87592819D01*
X63254094Y-88592819D02*
X63254094Y-87592819D01*
X63158856Y-88211866D02*
X62873142Y-88592819D01*
X62873142Y-87926152D02*
X63254094Y-88307104D01*
X84703200Y-78486095D02*
X84750819Y-78628952D01*
X84750819Y-78628952D02*
X84750819Y-78867047D01*
X84750819Y-78867047D02*
X84703200Y-78962285D01*
X84703200Y-78962285D02*
X84655580Y-79009904D01*
X84655580Y-79009904D02*
X84560342Y-79057523D01*
X84560342Y-79057523D02*
X84465104Y-79057523D01*
X84465104Y-79057523D02*
X84369866Y-79009904D01*
X84369866Y-79009904D02*
X84322247Y-78962285D01*
X84322247Y-78962285D02*
X84274628Y-78867047D01*
X84274628Y-78867047D02*
X84227009Y-78676571D01*
X84227009Y-78676571D02*
X84179390Y-78581333D01*
X84179390Y-78581333D02*
X84131771Y-78533714D01*
X84131771Y-78533714D02*
X84036533Y-78486095D01*
X84036533Y-78486095D02*
X83941295Y-78486095D01*
X83941295Y-78486095D02*
X83846057Y-78533714D01*
X83846057Y-78533714D02*
X83798438Y-78581333D01*
X83798438Y-78581333D02*
X83750819Y-78676571D01*
X83750819Y-78676571D02*
X83750819Y-78914666D01*
X83750819Y-78914666D02*
X83798438Y-79057523D01*
X84750819Y-80009904D02*
X84750819Y-79438476D01*
X84750819Y-79724190D02*
X83750819Y-79724190D01*
X83750819Y-79724190D02*
X83893676Y-79628952D01*
X83893676Y-79628952D02*
X83988914Y-79533714D01*
X83988914Y-79533714D02*
X84036533Y-79438476D01*
D11*
X65479714Y-50296019D02*
X65479714Y-51105542D01*
X65479714Y-51105542D02*
X65436857Y-51200780D01*
X65436857Y-51200780D02*
X65394000Y-51248400D01*
X65394000Y-51248400D02*
X65308285Y-51296019D01*
X65308285Y-51296019D02*
X65136857Y-51296019D01*
X65136857Y-51296019D02*
X65051142Y-51248400D01*
X65051142Y-51248400D02*
X65008285Y-51200780D01*
X65008285Y-51200780D02*
X64965428Y-51105542D01*
X64965428Y-51105542D02*
X64965428Y-50296019D01*
X64579714Y-50391257D02*
X64536857Y-50343638D01*
X64536857Y-50343638D02*
X64451143Y-50296019D01*
X64451143Y-50296019D02*
X64236857Y-50296019D01*
X64236857Y-50296019D02*
X64151143Y-50343638D01*
X64151143Y-50343638D02*
X64108285Y-50391257D01*
X64108285Y-50391257D02*
X64065428Y-50486495D01*
X64065428Y-50486495D02*
X64065428Y-50581733D01*
X64065428Y-50581733D02*
X64108285Y-50724590D01*
X64108285Y-50724590D02*
X64622571Y-51296019D01*
X64622571Y-51296019D02*
X64065428Y-51296019D01*
X73572570Y-46652209D02*
X73443998Y-46699828D01*
X73443998Y-46699828D02*
X73401141Y-46747447D01*
X73401141Y-46747447D02*
X73358284Y-46842685D01*
X73358284Y-46842685D02*
X73358284Y-46985542D01*
X73358284Y-46985542D02*
X73401141Y-47080780D01*
X73401141Y-47080780D02*
X73443998Y-47128400D01*
X73443998Y-47128400D02*
X73529713Y-47176019D01*
X73529713Y-47176019D02*
X73872570Y-47176019D01*
X73872570Y-47176019D02*
X73872570Y-46176019D01*
X73872570Y-46176019D02*
X73572570Y-46176019D01*
X73572570Y-46176019D02*
X73486856Y-46223638D01*
X73486856Y-46223638D02*
X73443998Y-46271257D01*
X73443998Y-46271257D02*
X73401141Y-46366495D01*
X73401141Y-46366495D02*
X73401141Y-46461733D01*
X73401141Y-46461733D02*
X73443998Y-46556971D01*
X73443998Y-46556971D02*
X73486856Y-46604590D01*
X73486856Y-46604590D02*
X73572570Y-46652209D01*
X73572570Y-46652209D02*
X73872570Y-46652209D01*
X73015427Y-46890304D02*
X72586856Y-46890304D01*
X73101141Y-47176019D02*
X72801141Y-46176019D01*
X72801141Y-46176019D02*
X72501141Y-47176019D01*
X72329712Y-46176019D02*
X71815427Y-46176019D01*
X72072569Y-47176019D02*
X72072569Y-46176019D01*
X71729713Y-47271257D02*
X71043998Y-47271257D01*
X70829713Y-47176019D02*
X70829713Y-46176019D01*
X70829713Y-46652209D02*
X70315427Y-46652209D01*
X70315427Y-47176019D02*
X70315427Y-46176019D01*
X69458284Y-47176019D02*
X69886856Y-47176019D01*
X69886856Y-47176019D02*
X69886856Y-46176019D01*
X69158285Y-47176019D02*
X69158285Y-46176019D01*
X69158285Y-46176019D02*
X68943999Y-46176019D01*
X68943999Y-46176019D02*
X68815428Y-46223638D01*
X68815428Y-46223638D02*
X68729713Y-46318876D01*
X68729713Y-46318876D02*
X68686856Y-46414114D01*
X68686856Y-46414114D02*
X68643999Y-46604590D01*
X68643999Y-46604590D02*
X68643999Y-46747447D01*
X68643999Y-46747447D02*
X68686856Y-46937923D01*
X68686856Y-46937923D02*
X68729713Y-47033161D01*
X68729713Y-47033161D02*
X68815428Y-47128400D01*
X68815428Y-47128400D02*
X68943999Y-47176019D01*
X68943999Y-47176019D02*
X69158285Y-47176019D01*
X68472571Y-47271257D02*
X67786856Y-47271257D01*
X67615428Y-47128400D02*
X67486857Y-47176019D01*
X67486857Y-47176019D02*
X67272571Y-47176019D01*
X67272571Y-47176019D02*
X67186857Y-47128400D01*
X67186857Y-47128400D02*
X67143999Y-47080780D01*
X67143999Y-47080780D02*
X67101142Y-46985542D01*
X67101142Y-46985542D02*
X67101142Y-46890304D01*
X67101142Y-46890304D02*
X67143999Y-46795066D01*
X67143999Y-46795066D02*
X67186857Y-46747447D01*
X67186857Y-46747447D02*
X67272571Y-46699828D01*
X67272571Y-46699828D02*
X67443999Y-46652209D01*
X67443999Y-46652209D02*
X67529714Y-46604590D01*
X67529714Y-46604590D02*
X67572571Y-46556971D01*
X67572571Y-46556971D02*
X67615428Y-46461733D01*
X67615428Y-46461733D02*
X67615428Y-46366495D01*
X67615428Y-46366495D02*
X67572571Y-46271257D01*
X67572571Y-46271257D02*
X67529714Y-46223638D01*
X67529714Y-46223638D02*
X67443999Y-46176019D01*
X67443999Y-46176019D02*
X67229714Y-46176019D01*
X67229714Y-46176019D02*
X67101142Y-46223638D01*
X66715428Y-47176019D02*
X66715428Y-46176019D01*
X66715428Y-46176019D02*
X66415428Y-46890304D01*
X66415428Y-46890304D02*
X66115428Y-46176019D01*
X66115428Y-46176019D02*
X66115428Y-47176019D01*
X65686857Y-47176019D02*
X65686857Y-46176019D01*
X65686857Y-46176019D02*
X65472571Y-46176019D01*
X65472571Y-46176019D02*
X65344000Y-46223638D01*
X65344000Y-46223638D02*
X65258285Y-46318876D01*
X65258285Y-46318876D02*
X65215428Y-46414114D01*
X65215428Y-46414114D02*
X65172571Y-46604590D01*
X65172571Y-46604590D02*
X65172571Y-46747447D01*
X65172571Y-46747447D02*
X65215428Y-46937923D01*
X65215428Y-46937923D02*
X65258285Y-47033161D01*
X65258285Y-47033161D02*
X65344000Y-47128400D01*
X65344000Y-47128400D02*
X65472571Y-47176019D01*
X65472571Y-47176019D02*
X65686857Y-47176019D01*
D10*
X46725904Y-75112819D02*
X46725904Y-75922342D01*
X46725904Y-75922342D02*
X46678285Y-76017580D01*
X46678285Y-76017580D02*
X46630666Y-76065200D01*
X46630666Y-76065200D02*
X46535428Y-76112819D01*
X46535428Y-76112819D02*
X46344952Y-76112819D01*
X46344952Y-76112819D02*
X46249714Y-76065200D01*
X46249714Y-76065200D02*
X46202095Y-76017580D01*
X46202095Y-76017580D02*
X46154476Y-75922342D01*
X46154476Y-75922342D02*
X46154476Y-75112819D01*
X45154476Y-76112819D02*
X45725904Y-76112819D01*
X45440190Y-76112819D02*
X45440190Y-75112819D01*
X45440190Y-75112819D02*
X45535428Y-75255676D01*
X45535428Y-75255676D02*
X45630666Y-75350914D01*
X45630666Y-75350914D02*
X45725904Y-75398533D01*
X57277047Y-83608057D02*
X57372285Y-83560438D01*
X57372285Y-83560438D02*
X57467523Y-83465200D01*
X57467523Y-83465200D02*
X57610380Y-83322342D01*
X57610380Y-83322342D02*
X57705618Y-83274723D01*
X57705618Y-83274723D02*
X57800856Y-83274723D01*
X57753237Y-83512819D02*
X57848475Y-83465200D01*
X57848475Y-83465200D02*
X57943713Y-83369961D01*
X57943713Y-83369961D02*
X57991332Y-83179485D01*
X57991332Y-83179485D02*
X57991332Y-82846152D01*
X57991332Y-82846152D02*
X57943713Y-82655676D01*
X57943713Y-82655676D02*
X57848475Y-82560438D01*
X57848475Y-82560438D02*
X57753237Y-82512819D01*
X57753237Y-82512819D02*
X57562761Y-82512819D01*
X57562761Y-82512819D02*
X57467523Y-82560438D01*
X57467523Y-82560438D02*
X57372285Y-82655676D01*
X57372285Y-82655676D02*
X57324666Y-82846152D01*
X57324666Y-82846152D02*
X57324666Y-83179485D01*
X57324666Y-83179485D02*
X57372285Y-83369961D01*
X57372285Y-83369961D02*
X57467523Y-83465200D01*
X57467523Y-83465200D02*
X57562761Y-83512819D01*
X57562761Y-83512819D02*
X57753237Y-83512819D01*
X66182667Y-102562819D02*
X66516000Y-102086628D01*
X66754095Y-102562819D02*
X66754095Y-101562819D01*
X66754095Y-101562819D02*
X66373143Y-101562819D01*
X66373143Y-101562819D02*
X66277905Y-101610438D01*
X66277905Y-101610438D02*
X66230286Y-101658057D01*
X66230286Y-101658057D02*
X66182667Y-101753295D01*
X66182667Y-101753295D02*
X66182667Y-101896152D01*
X66182667Y-101896152D02*
X66230286Y-101991390D01*
X66230286Y-101991390D02*
X66277905Y-102039009D01*
X66277905Y-102039009D02*
X66373143Y-102086628D01*
X66373143Y-102086628D02*
X66754095Y-102086628D01*
X65230286Y-102562819D02*
X65801714Y-102562819D01*
X65516000Y-102562819D02*
X65516000Y-101562819D01*
X65516000Y-101562819D02*
X65611238Y-101705676D01*
X65611238Y-101705676D02*
X65706476Y-101800914D01*
X65706476Y-101800914D02*
X65801714Y-101848533D01*
X64658857Y-102562819D02*
X64754095Y-102515200D01*
X64754095Y-102515200D02*
X64801714Y-102467580D01*
X64801714Y-102467580D02*
X64849333Y-102372342D01*
X64849333Y-102372342D02*
X64849333Y-102086628D01*
X64849333Y-102086628D02*
X64801714Y-101991390D01*
X64801714Y-101991390D02*
X64754095Y-101943771D01*
X64754095Y-101943771D02*
X64658857Y-101896152D01*
X64658857Y-101896152D02*
X64516000Y-101896152D01*
X64516000Y-101896152D02*
X64420762Y-101943771D01*
X64420762Y-101943771D02*
X64373143Y-101991390D01*
X64373143Y-101991390D02*
X64325524Y-102086628D01*
X64325524Y-102086628D02*
X64325524Y-102372342D01*
X64325524Y-102372342D02*
X64373143Y-102467580D01*
X64373143Y-102467580D02*
X64420762Y-102515200D01*
X64420762Y-102515200D02*
X64516000Y-102562819D01*
X64516000Y-102562819D02*
X64658857Y-102562819D01*
X64039809Y-101896152D02*
X63658857Y-101896152D01*
X63896952Y-102562819D02*
X63896952Y-101705676D01*
X63896952Y-101705676D02*
X63849333Y-101610438D01*
X63849333Y-101610438D02*
X63754095Y-101562819D01*
X63754095Y-101562819D02*
X63658857Y-101562819D01*
X63468380Y-101896152D02*
X63087428Y-101896152D01*
X63325523Y-102562819D02*
X63325523Y-101705676D01*
X63325523Y-101705676D02*
X63277904Y-101610438D01*
X63277904Y-101610438D02*
X63182666Y-101562819D01*
X63182666Y-101562819D02*
X63087428Y-101562819D01*
X62230285Y-102562819D02*
X62801713Y-102562819D01*
X62515999Y-102562819D02*
X62515999Y-101562819D01*
X62515999Y-101562819D02*
X62611237Y-101705676D01*
X62611237Y-101705676D02*
X62706475Y-101800914D01*
X62706475Y-101800914D02*
X62801713Y-101848533D01*
X65206476Y-109180819D02*
X65777904Y-109180819D01*
X65492190Y-109180819D02*
X65492190Y-108180819D01*
X65492190Y-108180819D02*
X65587428Y-108323676D01*
X65587428Y-108323676D02*
X65682666Y-108418914D01*
X65682666Y-108418914D02*
X65777904Y-108466533D01*
X64825523Y-108276057D02*
X64777904Y-108228438D01*
X64777904Y-108228438D02*
X64682666Y-108180819D01*
X64682666Y-108180819D02*
X64444571Y-108180819D01*
X64444571Y-108180819D02*
X64349333Y-108228438D01*
X64349333Y-108228438D02*
X64301714Y-108276057D01*
X64301714Y-108276057D02*
X64254095Y-108371295D01*
X64254095Y-108371295D02*
X64254095Y-108466533D01*
X64254095Y-108466533D02*
X64301714Y-108609390D01*
X64301714Y-108609390D02*
X64873142Y-109180819D01*
X64873142Y-109180819D02*
X64254095Y-109180819D01*
X63825523Y-109180819D02*
X63825523Y-108180819D01*
X63254095Y-109180819D02*
X63682666Y-108609390D01*
X63254095Y-108180819D02*
X63825523Y-108752247D01*
X66182667Y-106810819D02*
X66516000Y-106334628D01*
X66754095Y-106810819D02*
X66754095Y-105810819D01*
X66754095Y-105810819D02*
X66373143Y-105810819D01*
X66373143Y-105810819D02*
X66277905Y-105858438D01*
X66277905Y-105858438D02*
X66230286Y-105906057D01*
X66230286Y-105906057D02*
X66182667Y-106001295D01*
X66182667Y-106001295D02*
X66182667Y-106144152D01*
X66182667Y-106144152D02*
X66230286Y-106239390D01*
X66230286Y-106239390D02*
X66277905Y-106287009D01*
X66277905Y-106287009D02*
X66373143Y-106334628D01*
X66373143Y-106334628D02*
X66754095Y-106334628D01*
X65230286Y-106810819D02*
X65801714Y-106810819D01*
X65516000Y-106810819D02*
X65516000Y-105810819D01*
X65516000Y-105810819D02*
X65611238Y-105953676D01*
X65611238Y-105953676D02*
X65706476Y-106048914D01*
X65706476Y-106048914D02*
X65801714Y-106096533D01*
X64658857Y-106810819D02*
X64754095Y-106763200D01*
X64754095Y-106763200D02*
X64801714Y-106715580D01*
X64801714Y-106715580D02*
X64849333Y-106620342D01*
X64849333Y-106620342D02*
X64849333Y-106334628D01*
X64849333Y-106334628D02*
X64801714Y-106239390D01*
X64801714Y-106239390D02*
X64754095Y-106191771D01*
X64754095Y-106191771D02*
X64658857Y-106144152D01*
X64658857Y-106144152D02*
X64516000Y-106144152D01*
X64516000Y-106144152D02*
X64420762Y-106191771D01*
X64420762Y-106191771D02*
X64373143Y-106239390D01*
X64373143Y-106239390D02*
X64325524Y-106334628D01*
X64325524Y-106334628D02*
X64325524Y-106620342D01*
X64325524Y-106620342D02*
X64373143Y-106715580D01*
X64373143Y-106715580D02*
X64420762Y-106763200D01*
X64420762Y-106763200D02*
X64516000Y-106810819D01*
X64516000Y-106810819D02*
X64658857Y-106810819D01*
X64039809Y-106144152D02*
X63658857Y-106144152D01*
X63896952Y-106810819D02*
X63896952Y-105953676D01*
X63896952Y-105953676D02*
X63849333Y-105858438D01*
X63849333Y-105858438D02*
X63754095Y-105810819D01*
X63754095Y-105810819D02*
X63658857Y-105810819D01*
X63468380Y-106144152D02*
X63087428Y-106144152D01*
X63325523Y-106810819D02*
X63325523Y-105953676D01*
X63325523Y-105953676D02*
X63277904Y-105858438D01*
X63277904Y-105858438D02*
X63182666Y-105810819D01*
X63182666Y-105810819D02*
X63087428Y-105810819D01*
X62230285Y-106810819D02*
X62801713Y-106810819D01*
X62515999Y-106810819D02*
X62515999Y-105810819D01*
X62515999Y-105810819D02*
X62611237Y-105953676D01*
X62611237Y-105953676D02*
X62706475Y-106048914D01*
X62706475Y-106048914D02*
X62801713Y-106096533D01*
X64682666Y-94688819D02*
X65015999Y-94212628D01*
X65254094Y-94688819D02*
X65254094Y-93688819D01*
X65254094Y-93688819D02*
X64873142Y-93688819D01*
X64873142Y-93688819D02*
X64777904Y-93736438D01*
X64777904Y-93736438D02*
X64730285Y-93784057D01*
X64730285Y-93784057D02*
X64682666Y-93879295D01*
X64682666Y-93879295D02*
X64682666Y-94022152D01*
X64682666Y-94022152D02*
X64730285Y-94117390D01*
X64730285Y-94117390D02*
X64777904Y-94165009D01*
X64777904Y-94165009D02*
X64873142Y-94212628D01*
X64873142Y-94212628D02*
X65254094Y-94212628D01*
X63777904Y-93688819D02*
X64254094Y-93688819D01*
X64254094Y-93688819D02*
X64301713Y-94165009D01*
X64301713Y-94165009D02*
X64254094Y-94117390D01*
X64254094Y-94117390D02*
X64158856Y-94069771D01*
X64158856Y-94069771D02*
X63920761Y-94069771D01*
X63920761Y-94069771D02*
X63825523Y-94117390D01*
X63825523Y-94117390D02*
X63777904Y-94165009D01*
X63777904Y-94165009D02*
X63730285Y-94260247D01*
X63730285Y-94260247D02*
X63730285Y-94498342D01*
X63730285Y-94498342D02*
X63777904Y-94593580D01*
X63777904Y-94593580D02*
X63825523Y-94641200D01*
X63825523Y-94641200D02*
X63920761Y-94688819D01*
X63920761Y-94688819D02*
X64158856Y-94688819D01*
X64158856Y-94688819D02*
X64254094Y-94641200D01*
X64254094Y-94641200D02*
X64301713Y-94593580D01*
X65206476Y-96054152D02*
X65206476Y-96720819D01*
X65444571Y-95673200D02*
X65682666Y-96387485D01*
X65682666Y-96387485D02*
X65063619Y-96387485D01*
X64682666Y-96720819D02*
X64682666Y-95720819D01*
X64587428Y-96339866D02*
X64301714Y-96720819D01*
X64301714Y-96054152D02*
X64682666Y-96435104D01*
X63968380Y-95720819D02*
X63301714Y-95720819D01*
X63301714Y-95720819D02*
X63730285Y-96720819D01*
X83224666Y-77067580D02*
X83272285Y-77115200D01*
X83272285Y-77115200D02*
X83415142Y-77162819D01*
X83415142Y-77162819D02*
X83510380Y-77162819D01*
X83510380Y-77162819D02*
X83653237Y-77115200D01*
X83653237Y-77115200D02*
X83748475Y-77019961D01*
X83748475Y-77019961D02*
X83796094Y-76924723D01*
X83796094Y-76924723D02*
X83843713Y-76734247D01*
X83843713Y-76734247D02*
X83843713Y-76591390D01*
X83843713Y-76591390D02*
X83796094Y-76400914D01*
X83796094Y-76400914D02*
X83748475Y-76305676D01*
X83748475Y-76305676D02*
X83653237Y-76210438D01*
X83653237Y-76210438D02*
X83510380Y-76162819D01*
X83510380Y-76162819D02*
X83415142Y-76162819D01*
X83415142Y-76162819D02*
X83272285Y-76210438D01*
X83272285Y-76210438D02*
X83224666Y-76258057D01*
X82272285Y-77162819D02*
X82843713Y-77162819D01*
X82557999Y-77162819D02*
X82557999Y-76162819D01*
X82557999Y-76162819D02*
X82653237Y-76305676D01*
X82653237Y-76305676D02*
X82748475Y-76400914D01*
X82748475Y-76400914D02*
X82843713Y-76448533D01*
X84224666Y-85894152D02*
X84224666Y-86560819D01*
X84462761Y-85513200D02*
X84700856Y-86227485D01*
X84700856Y-86227485D02*
X84081809Y-86227485D01*
X83796094Y-85560819D02*
X83129428Y-85560819D01*
X83129428Y-85560819D02*
X83557999Y-86560819D01*
X82319904Y-85894152D02*
X82319904Y-86560819D01*
X82748475Y-85894152D02*
X82748475Y-86417961D01*
X82748475Y-86417961D02*
X82700856Y-86513200D01*
X82700856Y-86513200D02*
X82605618Y-86560819D01*
X82605618Y-86560819D02*
X82462761Y-86560819D01*
X82462761Y-86560819D02*
X82367523Y-86513200D01*
X82367523Y-86513200D02*
X82319904Y-86465580D01*
X81510380Y-86037009D02*
X81843713Y-86037009D01*
X81843713Y-86560819D02*
X81843713Y-85560819D01*
X81843713Y-85560819D02*
X81367523Y-85560819D01*
X64682666Y-98752819D02*
X65015999Y-98276628D01*
X65254094Y-98752819D02*
X65254094Y-97752819D01*
X65254094Y-97752819D02*
X64873142Y-97752819D01*
X64873142Y-97752819D02*
X64777904Y-97800438D01*
X64777904Y-97800438D02*
X64730285Y-97848057D01*
X64730285Y-97848057D02*
X64682666Y-97943295D01*
X64682666Y-97943295D02*
X64682666Y-98086152D01*
X64682666Y-98086152D02*
X64730285Y-98181390D01*
X64730285Y-98181390D02*
X64777904Y-98229009D01*
X64777904Y-98229009D02*
X64873142Y-98276628D01*
X64873142Y-98276628D02*
X65254094Y-98276628D01*
X63825523Y-97752819D02*
X64015999Y-97752819D01*
X64015999Y-97752819D02*
X64111237Y-97800438D01*
X64111237Y-97800438D02*
X64158856Y-97848057D01*
X64158856Y-97848057D02*
X64254094Y-97990914D01*
X64254094Y-97990914D02*
X64301713Y-98181390D01*
X64301713Y-98181390D02*
X64301713Y-98562342D01*
X64301713Y-98562342D02*
X64254094Y-98657580D01*
X64254094Y-98657580D02*
X64206475Y-98705200D01*
X64206475Y-98705200D02*
X64111237Y-98752819D01*
X64111237Y-98752819D02*
X63920761Y-98752819D01*
X63920761Y-98752819D02*
X63825523Y-98705200D01*
X63825523Y-98705200D02*
X63777904Y-98657580D01*
X63777904Y-98657580D02*
X63730285Y-98562342D01*
X63730285Y-98562342D02*
X63730285Y-98324247D01*
X63730285Y-98324247D02*
X63777904Y-98229009D01*
X63777904Y-98229009D02*
X63825523Y-98181390D01*
X63825523Y-98181390D02*
X63920761Y-98133771D01*
X63920761Y-98133771D02*
X64111237Y-98133771D01*
X64111237Y-98133771D02*
X64206475Y-98181390D01*
X64206475Y-98181390D02*
X64254094Y-98229009D01*
X64254094Y-98229009D02*
X64301713Y-98324247D01*
X65206476Y-100784819D02*
X65777904Y-100784819D01*
X65492190Y-100784819D02*
X65492190Y-99784819D01*
X65492190Y-99784819D02*
X65587428Y-99927676D01*
X65587428Y-99927676D02*
X65682666Y-100022914D01*
X65682666Y-100022914D02*
X65777904Y-100070533D01*
X64587428Y-99784819D02*
X64492190Y-99784819D01*
X64492190Y-99784819D02*
X64396952Y-99832438D01*
X64396952Y-99832438D02*
X64349333Y-99880057D01*
X64349333Y-99880057D02*
X64301714Y-99975295D01*
X64301714Y-99975295D02*
X64254095Y-100165771D01*
X64254095Y-100165771D02*
X64254095Y-100403866D01*
X64254095Y-100403866D02*
X64301714Y-100594342D01*
X64301714Y-100594342D02*
X64349333Y-100689580D01*
X64349333Y-100689580D02*
X64396952Y-100737200D01*
X64396952Y-100737200D02*
X64492190Y-100784819D01*
X64492190Y-100784819D02*
X64587428Y-100784819D01*
X64587428Y-100784819D02*
X64682666Y-100737200D01*
X64682666Y-100737200D02*
X64730285Y-100689580D01*
X64730285Y-100689580D02*
X64777904Y-100594342D01*
X64777904Y-100594342D02*
X64825523Y-100403866D01*
X64825523Y-100403866D02*
X64825523Y-100165771D01*
X64825523Y-100165771D02*
X64777904Y-99975295D01*
X64777904Y-99975295D02*
X64730285Y-99880057D01*
X64730285Y-99880057D02*
X64682666Y-99832438D01*
X64682666Y-99832438D02*
X64587428Y-99784819D01*
X63254095Y-100784819D02*
X63587428Y-100308628D01*
X63825523Y-100784819D02*
X63825523Y-99784819D01*
X63825523Y-99784819D02*
X63444571Y-99784819D01*
X63444571Y-99784819D02*
X63349333Y-99832438D01*
X63349333Y-99832438D02*
X63301714Y-99880057D01*
X63301714Y-99880057D02*
X63254095Y-99975295D01*
X63254095Y-99975295D02*
X63254095Y-100118152D01*
X63254095Y-100118152D02*
X63301714Y-100213390D01*
X63301714Y-100213390D02*
X63349333Y-100261009D01*
X63349333Y-100261009D02*
X63444571Y-100308628D01*
X63444571Y-100308628D02*
X63825523Y-100308628D01*
X64682666Y-102816819D02*
X65015999Y-102340628D01*
X65254094Y-102816819D02*
X65254094Y-101816819D01*
X65254094Y-101816819D02*
X64873142Y-101816819D01*
X64873142Y-101816819D02*
X64777904Y-101864438D01*
X64777904Y-101864438D02*
X64730285Y-101912057D01*
X64730285Y-101912057D02*
X64682666Y-102007295D01*
X64682666Y-102007295D02*
X64682666Y-102150152D01*
X64682666Y-102150152D02*
X64730285Y-102245390D01*
X64730285Y-102245390D02*
X64777904Y-102293009D01*
X64777904Y-102293009D02*
X64873142Y-102340628D01*
X64873142Y-102340628D02*
X65254094Y-102340628D01*
X64349332Y-101816819D02*
X63682666Y-101816819D01*
X63682666Y-101816819D02*
X64111237Y-102816819D01*
X65206476Y-104848819D02*
X65777904Y-104848819D01*
X65492190Y-104848819D02*
X65492190Y-103848819D01*
X65492190Y-103848819D02*
X65587428Y-103991676D01*
X65587428Y-103991676D02*
X65682666Y-104086914D01*
X65682666Y-104086914D02*
X65777904Y-104134533D01*
X64349333Y-103848819D02*
X64539809Y-103848819D01*
X64539809Y-103848819D02*
X64635047Y-103896438D01*
X64635047Y-103896438D02*
X64682666Y-103944057D01*
X64682666Y-103944057D02*
X64777904Y-104086914D01*
X64777904Y-104086914D02*
X64825523Y-104277390D01*
X64825523Y-104277390D02*
X64825523Y-104658342D01*
X64825523Y-104658342D02*
X64777904Y-104753580D01*
X64777904Y-104753580D02*
X64730285Y-104801200D01*
X64730285Y-104801200D02*
X64635047Y-104848819D01*
X64635047Y-104848819D02*
X64444571Y-104848819D01*
X64444571Y-104848819D02*
X64349333Y-104801200D01*
X64349333Y-104801200D02*
X64301714Y-104753580D01*
X64301714Y-104753580D02*
X64254095Y-104658342D01*
X64254095Y-104658342D02*
X64254095Y-104420247D01*
X64254095Y-104420247D02*
X64301714Y-104325009D01*
X64301714Y-104325009D02*
X64349333Y-104277390D01*
X64349333Y-104277390D02*
X64444571Y-104229771D01*
X64444571Y-104229771D02*
X64635047Y-104229771D01*
X64635047Y-104229771D02*
X64730285Y-104277390D01*
X64730285Y-104277390D02*
X64777904Y-104325009D01*
X64777904Y-104325009D02*
X64825523Y-104420247D01*
X63825523Y-104848819D02*
X63825523Y-103848819D01*
X63254095Y-104848819D02*
X63682666Y-104277390D01*
X63254095Y-103848819D02*
X63825523Y-104420247D01*
D11*
%TO.C,G\u002A\u002A\u002A*%
X56329000Y-61552000D02*
X56904000Y-62027000D01*
X56904000Y-62027000D02*
X57329000Y-61702000D01*
X57329000Y-61702000D02*
X56329000Y-61552000D01*
D12*
X57654000Y-63140605D02*
X58554000Y-63127000D01*
X58053999Y-64522050D02*
X57653999Y-64522050D01*
X58054000Y-63527000D02*
X57804000Y-63527000D01*
X58054000Y-63577000D02*
X58054000Y-64027000D01*
X58054000Y-64027000D02*
X57754000Y-64027000D01*
X58054000Y-64527000D02*
X58054000Y-65027000D01*
X58054000Y-65027000D02*
X57604000Y-65027000D01*
D11*
X58279000Y-60827000D02*
X58629000Y-59652000D01*
D12*
X58554000Y-63127000D02*
X58604000Y-65577000D01*
X58604000Y-65577000D02*
X57404000Y-65577000D01*
D11*
X58629000Y-59652000D02*
X60429000Y-59702000D01*
D12*
X58879000Y-65577000D02*
X59654000Y-63127000D01*
X59279000Y-65577000D02*
X58879000Y-65577000D01*
X59529000Y-64977000D02*
X59279000Y-65577000D01*
X59604000Y-64577000D02*
X59829000Y-63827000D01*
X59654000Y-63127000D02*
X59979000Y-63127000D01*
X59829000Y-63827000D02*
X60104000Y-64577000D01*
D11*
X59854000Y-61752000D02*
X61529000Y-61852000D01*
D12*
X59979000Y-63127000D02*
X60879000Y-65577000D01*
X60104000Y-64577000D02*
X59604000Y-64577000D01*
X60129000Y-64977000D02*
X59529000Y-64977000D01*
X60379000Y-65577000D02*
X60129000Y-64977000D01*
X60379000Y-65577000D02*
X60879000Y-65577000D01*
D11*
X60429000Y-59702000D02*
X58279000Y-60827000D01*
X60554000Y-61177000D02*
X59854000Y-61752000D01*
D12*
X61054000Y-65102000D02*
X61054000Y-65552000D01*
X61054000Y-65552000D02*
X62304000Y-65552000D01*
D11*
X61554000Y-61852000D02*
X60554000Y-61177000D01*
X61704000Y-61402000D02*
X63329000Y-62527000D01*
X61754000Y-59077000D02*
X62879000Y-60302000D01*
X61779000Y-58677000D02*
X61704000Y-61402000D01*
D12*
X61804000Y-65102000D02*
X61054000Y-65102000D01*
X61829000Y-63102000D02*
X61804000Y-65102000D01*
X62279000Y-63102000D02*
X61829000Y-63102000D01*
X62304000Y-65552000D02*
X62279000Y-63102000D01*
X62479000Y-65552000D02*
X63179000Y-64602000D01*
X62579000Y-65552000D02*
X62479000Y-65552000D01*
D11*
X62879000Y-60302000D02*
X62304000Y-61802000D01*
D12*
X62979000Y-65552000D02*
X62579000Y-65552000D01*
X63220269Y-63096594D02*
X64329000Y-63102000D01*
D11*
X63329000Y-62527000D02*
X65004000Y-62302000D01*
D12*
X63379000Y-63552000D02*
X63829000Y-63552000D01*
X63729000Y-64602000D02*
X62979000Y-65552000D01*
X63829000Y-63552000D02*
X63829000Y-64102000D01*
X63829000Y-64102000D02*
X63329000Y-64102000D01*
X63879000Y-64602000D02*
X63729000Y-64602000D01*
X63879000Y-65552000D02*
X63879000Y-64602000D01*
X64329000Y-63102000D02*
X64329000Y-65552000D01*
X64329000Y-65552000D02*
X63879000Y-65552000D01*
D11*
X64479000Y-62752000D02*
X65454000Y-63102000D01*
D12*
X64779000Y-63102000D02*
X66079000Y-63102000D01*
X64779000Y-63602000D02*
X64779000Y-63102000D01*
X64779000Y-65052000D02*
X65629000Y-65052000D01*
X64779000Y-65552000D02*
X64779000Y-65052000D01*
D11*
X64879000Y-62477000D02*
X64479000Y-62752000D01*
D12*
X64979000Y-64052000D02*
X65629000Y-64052000D01*
X64979000Y-64502000D02*
X64979000Y-64052000D01*
D11*
X65004000Y-62302000D02*
X66829000Y-63202000D01*
X65254000Y-60302000D02*
X61779000Y-58677000D01*
X65254000Y-60302000D02*
X67579000Y-61452000D01*
D12*
X65629000Y-63602000D02*
X64779000Y-63602000D01*
X65629000Y-64052000D02*
X65629000Y-63602000D01*
X65629000Y-64502000D02*
X64979000Y-64502000D01*
X65629000Y-65052000D02*
X65629000Y-64502000D01*
D11*
X65654000Y-63077000D02*
X64879000Y-62477000D01*
X66004000Y-58877000D02*
X65254000Y-60302000D01*
X66004000Y-58877000D02*
X68204000Y-60052000D01*
D12*
X66029000Y-65552000D02*
X64779000Y-65552000D01*
X66079000Y-63102000D02*
X66129000Y-65552000D01*
X66129000Y-65552000D02*
X66029000Y-65552000D01*
X67229000Y-63115605D02*
X68129000Y-63102000D01*
D11*
X67579000Y-61452000D02*
X69054000Y-63177000D01*
X67579000Y-61452000D02*
X73229000Y-64302000D01*
D12*
X67628999Y-64497050D02*
X67228999Y-64497050D01*
X67629000Y-63502000D02*
X67379000Y-63502000D01*
X67629000Y-63552000D02*
X67629000Y-64002000D01*
X67629000Y-64002000D02*
X67329000Y-64002000D01*
X67629000Y-64502000D02*
X67629000Y-65002000D01*
X67629000Y-65002000D02*
X67179000Y-65002000D01*
X68129000Y-63102000D02*
X68179000Y-65552000D01*
X68179000Y-65552000D02*
X66979000Y-65552000D01*
D11*
X68204000Y-60052000D02*
X66629000Y-60952000D01*
X68304000Y-59877000D02*
X67579000Y-61452000D01*
D12*
X68579000Y-63952000D02*
X68579000Y-64652000D01*
D11*
X68879000Y-63277000D02*
X61779000Y-58677000D01*
D12*
X69079000Y-63952000D02*
X69079000Y-64602000D01*
D11*
X69329000Y-60127000D02*
X67579000Y-61452000D01*
X69329000Y-60127000D02*
X68304000Y-59877000D01*
X69404000Y-64202000D02*
X69779000Y-64377000D01*
X69729000Y-63802000D02*
X69404000Y-64202000D01*
D12*
X69779000Y-63952000D02*
X69779000Y-64652000D01*
D11*
X70279000Y-64552000D02*
X70829000Y-64827000D01*
D12*
X70279000Y-64652000D02*
X70279000Y-63952000D01*
D11*
X70329000Y-63827000D02*
X70554000Y-64452000D01*
X70554000Y-64452000D02*
X73229000Y-64302000D01*
X70829000Y-64827000D02*
X70254000Y-64027000D01*
X71904000Y-64777000D02*
X71079000Y-64427000D01*
X73229000Y-64302000D02*
X69329000Y-60127000D01*
X73229000Y-64302000D02*
X70329000Y-63827000D01*
X73229000Y-64302000D02*
X71904000Y-64777000D01*
D12*
X57654000Y-63140606D02*
G75*
G03*
X57204001Y-64226999I0J-636394D01*
G01*
X57227744Y-64268064D02*
G75*
G03*
X57404001Y-65576998I426255J-608936D01*
G01*
X57653999Y-64522051D02*
G75*
G03*
X57604001Y-65026998I1J-254949D01*
G01*
X57814634Y-63534464D02*
G75*
G03*
X57754000Y-64027000I-60634J-242536D01*
G01*
X63220269Y-63096595D02*
G75*
G03*
X63204001Y-64551998I233731J-730405D01*
G01*
X63329001Y-63552002D02*
G75*
G03*
X63329001Y-64101998I124999J-274998D01*
G01*
X67229000Y-63115606D02*
G75*
G03*
X66779001Y-64201999I0J-636394D01*
G01*
X66802744Y-64243064D02*
G75*
G03*
X66979001Y-65551998I426255J-608936D01*
G01*
X67228999Y-64497051D02*
G75*
G03*
X67179001Y-65001998I1J-254949D01*
G01*
X67389634Y-63509464D02*
G75*
G03*
X67329000Y-64002000I-60634J-242536D01*
G01*
X70279000Y-63952000D02*
G75*
G03*
X68579000Y-63952000I-850000J0D01*
G01*
X69779000Y-63952000D02*
G75*
G03*
X69079000Y-63952000I-350000J0D01*
G01*
X69079000Y-64652000D02*
G75*
G03*
X69779000Y-64652000I350000J0D01*
G01*
X68579000Y-64652000D02*
G75*
G03*
X70279000Y-64652000I850000J0D01*
G01*
D13*
X78776361Y-118547226D02*
X78712542Y-118611045D01*
X78648723Y-118547226D01*
X78712542Y-118483407D01*
X78776361Y-118547226D01*
G36*
X78776361Y-118547226D02*
G01*
X78712542Y-118611045D01*
X78648723Y-118547226D01*
X78712542Y-118483407D01*
X78776361Y-118547226D01*
G37*
D12*
%TO.C,R4*%
X68556000Y-90156000D02*
X67786000Y-90156000D01*
X67786000Y-91526000D02*
X61246000Y-91526000D01*
X67786000Y-88786000D02*
X67786000Y-91526000D01*
X61246000Y-91526000D02*
X61246000Y-88786000D01*
X61246000Y-88786000D02*
X67786000Y-88786000D01*
X60476000Y-90156000D02*
X61246000Y-90156000D01*
%TO.C,D3*%
X73406000Y-78256000D02*
X73406000Y-78906000D01*
X74526000Y-78906000D02*
X74526000Y-83146000D01*
X72286000Y-78906000D02*
X74526000Y-78906000D01*
X72286000Y-79506000D02*
X74526000Y-79506000D01*
X72286000Y-79626000D02*
X74526000Y-79626000D01*
X72286000Y-79746000D02*
X74526000Y-79746000D01*
X74526000Y-83146000D02*
X72286000Y-83146000D01*
X72286000Y-83146000D02*
X72286000Y-78906000D01*
X73406000Y-83796000D02*
X73406000Y-83146000D01*
%TO.C,R3*%
X68556000Y-86106000D02*
X67786000Y-86106000D01*
X67786000Y-87476000D02*
X61246000Y-87476000D01*
X67786000Y-84736000D02*
X67786000Y-87476000D01*
X61246000Y-87476000D02*
X61246000Y-84736000D01*
X61246000Y-84736000D02*
X67786000Y-84736000D01*
X60476000Y-86106000D02*
X61246000Y-86106000D01*
%TO.C,S1*%
X92100400Y-74320400D02*
X88163400Y-74295000D01*
X88163400Y-74320400D02*
X88163400Y-84277200D01*
X92100400Y-84277200D02*
X92100400Y-74320400D01*
X88163400Y-84277200D02*
X92100400Y-84277200D01*
%TO.C,U1*%
X48614000Y-86938000D02*
X43314000Y-86938000D01*
X48614000Y-76658000D02*
X48614000Y-86938000D01*
X46964000Y-76658000D02*
X48614000Y-76658000D01*
X43314000Y-86938000D02*
X43314000Y-76658000D01*
X43314000Y-76658000D02*
X44964000Y-76658000D01*
X44964000Y-76658000D02*
G75*
G03*
X46964000Y-76658000I1000000J0D01*
G01*
%TO.C,R1off1*%
X68556000Y-106356000D02*
X67786000Y-106356000D01*
X67786000Y-107726000D02*
X61246000Y-107726000D01*
X67786000Y-104986000D02*
X67786000Y-107726000D01*
X61246000Y-107726000D02*
X61246000Y-104986000D01*
X61246000Y-104986000D02*
X67786000Y-104986000D01*
X60476000Y-106356000D02*
X61246000Y-106356000D01*
%TO.C,R5*%
X68556000Y-94206000D02*
X67786000Y-94206000D01*
X67786000Y-95576000D02*
X61246000Y-95576000D01*
X67786000Y-92836000D02*
X67786000Y-95576000D01*
X61246000Y-95576000D02*
X61246000Y-92836000D01*
X61246000Y-92836000D02*
X67786000Y-92836000D01*
X60476000Y-94206000D02*
X61246000Y-94206000D01*
%TO.C,C1*%
X81377000Y-77759759D02*
X81377000Y-78389759D01*
X81062000Y-78074759D02*
X81692000Y-78074759D01*
X79986000Y-81260000D02*
X86446000Y-81260000D01*
X79986000Y-81300000D02*
X86446000Y-81300000D01*
X79986000Y-81340000D02*
X86446000Y-81340000D01*
X79988000Y-81380000D02*
X86444000Y-81380000D01*
X79989000Y-81420000D02*
X86443000Y-81420000D01*
X79992000Y-81460000D02*
X86440000Y-81460000D01*
X84256000Y-81500000D02*
X86438000Y-81500000D01*
X79994000Y-81500000D02*
X82176000Y-81500000D01*
X84256000Y-81540000D02*
X86434000Y-81540000D01*
X79998000Y-81540000D02*
X82176000Y-81540000D01*
X84256000Y-81580000D02*
X86431000Y-81580000D01*
X80001000Y-81580000D02*
X82176000Y-81580000D01*
X84256000Y-81620000D02*
X86427000Y-81620000D01*
X80005000Y-81620000D02*
X82176000Y-81620000D01*
X84256000Y-81660000D02*
X86422000Y-81660000D01*
X80010000Y-81660000D02*
X82176000Y-81660000D01*
X84256000Y-81700000D02*
X86417000Y-81700000D01*
X80015000Y-81700000D02*
X82176000Y-81700000D01*
X84256000Y-81740000D02*
X86411000Y-81740000D01*
X80021000Y-81740000D02*
X82176000Y-81740000D01*
X84256000Y-81780000D02*
X86405000Y-81780000D01*
X80027000Y-81780000D02*
X82176000Y-81780000D01*
X84256000Y-81820000D02*
X86398000Y-81820000D01*
X80034000Y-81820000D02*
X82176000Y-81820000D01*
X84256000Y-81860000D02*
X86391000Y-81860000D01*
X80041000Y-81860000D02*
X82176000Y-81860000D01*
X84256000Y-81900000D02*
X86383000Y-81900000D01*
X80049000Y-81900000D02*
X82176000Y-81900000D01*
X84256000Y-81940000D02*
X86375000Y-81940000D01*
X80057000Y-81940000D02*
X82176000Y-81940000D01*
X84256000Y-81981000D02*
X86366000Y-81981000D01*
X80066000Y-81981000D02*
X82176000Y-81981000D01*
X84256000Y-82021000D02*
X86357000Y-82021000D01*
X80075000Y-82021000D02*
X82176000Y-82021000D01*
X84256000Y-82061000D02*
X86347000Y-82061000D01*
X80085000Y-82061000D02*
X82176000Y-82061000D01*
X84256000Y-82101000D02*
X86337000Y-82101000D01*
X80095000Y-82101000D02*
X82176000Y-82101000D01*
X84256000Y-82141000D02*
X86326000Y-82141000D01*
X80106000Y-82141000D02*
X82176000Y-82141000D01*
X84256000Y-82181000D02*
X86314000Y-82181000D01*
X80118000Y-82181000D02*
X82176000Y-82181000D01*
X84256000Y-82221000D02*
X86302000Y-82221000D01*
X80130000Y-82221000D02*
X82176000Y-82221000D01*
X84256000Y-82261000D02*
X86290000Y-82261000D01*
X80142000Y-82261000D02*
X82176000Y-82261000D01*
X84256000Y-82301000D02*
X86277000Y-82301000D01*
X80155000Y-82301000D02*
X82176000Y-82301000D01*
X84256000Y-82341000D02*
X86263000Y-82341000D01*
X80169000Y-82341000D02*
X82176000Y-82341000D01*
X84256000Y-82381000D02*
X86249000Y-82381000D01*
X80183000Y-82381000D02*
X82176000Y-82381000D01*
X84256000Y-82421000D02*
X86234000Y-82421000D01*
X80198000Y-82421000D02*
X82176000Y-82421000D01*
X84256000Y-82461000D02*
X86218000Y-82461000D01*
X80214000Y-82461000D02*
X82176000Y-82461000D01*
X84256000Y-82501000D02*
X86202000Y-82501000D01*
X80230000Y-82501000D02*
X82176000Y-82501000D01*
X84256000Y-82541000D02*
X86186000Y-82541000D01*
X80246000Y-82541000D02*
X82176000Y-82541000D01*
X84256000Y-82581000D02*
X86168000Y-82581000D01*
X80264000Y-82581000D02*
X82176000Y-82581000D01*
X84256000Y-82621000D02*
X86150000Y-82621000D01*
X80282000Y-82621000D02*
X82176000Y-82621000D01*
X84256000Y-82661000D02*
X86132000Y-82661000D01*
X80300000Y-82661000D02*
X82176000Y-82661000D01*
X84256000Y-82701000D02*
X86112000Y-82701000D01*
X80320000Y-82701000D02*
X82176000Y-82701000D01*
X84256000Y-82741000D02*
X86092000Y-82741000D01*
X80340000Y-82741000D02*
X82176000Y-82741000D01*
X84256000Y-82781000D02*
X86072000Y-82781000D01*
X80360000Y-82781000D02*
X82176000Y-82781000D01*
X84256000Y-82821000D02*
X86050000Y-82821000D01*
X80382000Y-82821000D02*
X82176000Y-82821000D01*
X84256000Y-82861000D02*
X86028000Y-82861000D01*
X80404000Y-82861000D02*
X82176000Y-82861000D01*
X84256000Y-82901000D02*
X86006000Y-82901000D01*
X80426000Y-82901000D02*
X82176000Y-82901000D01*
X84256000Y-82941000D02*
X85982000Y-82941000D01*
X80450000Y-82941000D02*
X82176000Y-82941000D01*
X84256000Y-82981000D02*
X85958000Y-82981000D01*
X80474000Y-82981000D02*
X82176000Y-82981000D01*
X84256000Y-83021000D02*
X85932000Y-83021000D01*
X80500000Y-83021000D02*
X82176000Y-83021000D01*
X84256000Y-83061000D02*
X85906000Y-83061000D01*
X80526000Y-83061000D02*
X82176000Y-83061000D01*
X84256000Y-83101000D02*
X85880000Y-83101000D01*
X80552000Y-83101000D02*
X82176000Y-83101000D01*
X84256000Y-83141000D02*
X85852000Y-83141000D01*
X80580000Y-83141000D02*
X82176000Y-83141000D01*
X84256000Y-83181000D02*
X85823000Y-83181000D01*
X80609000Y-83181000D02*
X82176000Y-83181000D01*
X84256000Y-83221000D02*
X85794000Y-83221000D01*
X80638000Y-83221000D02*
X82176000Y-83221000D01*
X84256000Y-83261000D02*
X85764000Y-83261000D01*
X80668000Y-83261000D02*
X82176000Y-83261000D01*
X84256000Y-83301000D02*
X85732000Y-83301000D01*
X80700000Y-83301000D02*
X82176000Y-83301000D01*
X84256000Y-83341000D02*
X85700000Y-83341000D01*
X80732000Y-83341000D02*
X82176000Y-83341000D01*
X84256000Y-83381000D02*
X85666000Y-83381000D01*
X80766000Y-83381000D02*
X82176000Y-83381000D01*
X84256000Y-83421000D02*
X85632000Y-83421000D01*
X80800000Y-83421000D02*
X82176000Y-83421000D01*
X84256000Y-83461000D02*
X85596000Y-83461000D01*
X80836000Y-83461000D02*
X82176000Y-83461000D01*
X84256000Y-83501000D02*
X85559000Y-83501000D01*
X80873000Y-83501000D02*
X82176000Y-83501000D01*
X84256000Y-83541000D02*
X85521000Y-83541000D01*
X80911000Y-83541000D02*
X82176000Y-83541000D01*
X80951000Y-83581000D02*
X85481000Y-83581000D01*
X80992000Y-83621000D02*
X85440000Y-83621000D01*
X81034000Y-83661000D02*
X85398000Y-83661000D01*
X81079000Y-83701000D02*
X85353000Y-83701000D01*
X81124000Y-83741000D02*
X85308000Y-83741000D01*
X81172000Y-83781000D02*
X85260000Y-83781000D01*
X81221000Y-83821000D02*
X85211000Y-83821000D01*
X81272000Y-83861000D02*
X85160000Y-83861000D01*
X81326000Y-83901000D02*
X85106000Y-83901000D01*
X81382000Y-83941000D02*
X85050000Y-83941000D01*
X81440000Y-83981000D02*
X84992000Y-83981000D01*
X81502000Y-84021000D02*
X84930000Y-84021000D01*
X81566000Y-84061000D02*
X84866000Y-84061000D01*
X81635000Y-84101000D02*
X84797000Y-84101000D01*
X81707000Y-84141000D02*
X84725000Y-84141000D01*
X81784000Y-84181000D02*
X84648000Y-84181000D01*
X81866000Y-84221000D02*
X84566000Y-84221000D01*
X81954000Y-84261000D02*
X84478000Y-84261000D01*
X82051000Y-84301000D02*
X84381000Y-84301000D01*
X82157000Y-84341000D02*
X84275000Y-84341000D01*
X82276000Y-84381000D02*
X84156000Y-84381000D01*
X82414000Y-84421000D02*
X84018000Y-84421000D01*
X82583000Y-84461000D02*
X83849000Y-84461000D01*
X82814000Y-84501000D02*
X83618000Y-84501000D01*
X86486000Y-81260000D02*
G75*
G03*
X86486000Y-81260000I-3270000J0D01*
G01*
%TO.C,R6*%
X68556000Y-98256000D02*
X67786000Y-98256000D01*
X67786000Y-99626000D02*
X61246000Y-99626000D01*
X67786000Y-96886000D02*
X67786000Y-99626000D01*
X61246000Y-99626000D02*
X61246000Y-96886000D01*
X61246000Y-96886000D02*
X67786000Y-96886000D01*
X60476000Y-98256000D02*
X61246000Y-98256000D01*
%TO.C,R7*%
X68556000Y-102306000D02*
X67786000Y-102306000D01*
X67786000Y-103676000D02*
X61246000Y-103676000D01*
X67786000Y-100936000D02*
X67786000Y-103676000D01*
X61246000Y-103676000D02*
X61246000Y-100936000D01*
X61246000Y-100936000D02*
X67786000Y-100936000D01*
X60476000Y-102306000D02*
X61246000Y-102306000D01*
%TD*%
M02*
