%TF.GenerationSoftware,KiCad,Pcbnew,7.0.8*%
%TF.CreationDate,2024-08-10T05:42:34+02:00*%
%TF.ProjectId,Tiger,54696765-722e-46b6-9963-61645f706362,rev?*%
%TF.SameCoordinates,Original*%
%TF.FileFunction,Soldermask,Top*%
%TF.FilePolarity,Negative*%
%FSLAX46Y46*%
G04 Gerber Fmt 4.6, Leading zero omitted, Abs format (unit mm)*
G04 Created by KiCad (PCBNEW 7.0.8) date 2024-08-10 05:42:34*
%MOMM*%
%LPD*%
G01*
G04 APERTURE LIST*
G04 Aperture macros list*
%AMRoundRect*
0 Rectangle with rounded corners*
0 $1 Rounding radius*
0 $2 $3 $4 $5 $6 $7 $8 $9 X,Y pos of 4 corners*
0 Add a 4 corners polygon primitive as box body*
4,1,4,$2,$3,$4,$5,$6,$7,$8,$9,$2,$3,0*
0 Add four circle primitives for the rounded corners*
1,1,$1+$1,$2,$3*
1,1,$1+$1,$4,$5*
1,1,$1+$1,$6,$7*
1,1,$1+$1,$8,$9*
0 Add four rect primitives between the rounded corners*
20,1,$1+$1,$2,$3,$4,$5,0*
20,1,$1+$1,$4,$5,$6,$7,0*
20,1,$1+$1,$6,$7,$8,$9,0*
20,1,$1+$1,$8,$9,$2,$3,0*%
G04 Aperture macros list end*
%ADD10RoundRect,0.200000X-0.900000X-0.900000X0.900000X-0.900000X0.900000X0.900000X-0.900000X0.900000X0*%
%ADD11C,2.200000*%
%ADD12RoundRect,0.200000X-0.750000X-0.750000X0.750000X-0.750000X0.750000X0.750000X-0.750000X0.750000X0*%
%ADD13C,1.900000*%
%ADD14C,2.000000*%
%ADD15O,2.000000X2.000000*%
%ADD16RoundRect,0.200000X-0.800000X0.800000X-0.800000X-0.800000X0.800000X-0.800000X0.800000X0.800000X0*%
%ADD17C,2.400000*%
%ADD18RoundRect,0.200000X0.800000X0.800000X-0.800000X0.800000X-0.800000X-0.800000X0.800000X-0.800000X0*%
G04 APERTURE END LIST*
D10*
%TO.C,D1*%
X46482000Y-59690000D03*
D11*
X49022000Y-59690000D03*
%TD*%
D12*
%TO.C,Q2*%
X86868000Y-111760000D03*
D13*
X89408000Y-109220000D03*
X91948000Y-111760000D03*
%TD*%
D10*
%TO.C,D2*%
X81534000Y-59690000D03*
D11*
X84074000Y-59690000D03*
%TD*%
D12*
%TO.C,Q1*%
X37084000Y-112522000D03*
D13*
X39624000Y-109982000D03*
X42164000Y-112522000D03*
%TD*%
D14*
%TO.C,R4*%
X69596000Y-90156000D03*
D15*
X59436000Y-90156000D03*
%TD*%
D16*
%TO.C,D3*%
X73406000Y-77216000D03*
D15*
X73406000Y-84836000D03*
%TD*%
D14*
%TO.C,R3*%
X69596000Y-86106000D03*
D15*
X59436000Y-86106000D03*
%TD*%
D17*
%TO.C,S1*%
X90170000Y-76708000D03*
X90170000Y-79248000D03*
X90170000Y-81788000D03*
%TD*%
D18*
%TO.C,U1*%
X49774000Y-77988000D03*
D15*
X49774000Y-80528000D03*
X49774000Y-83068000D03*
X49774000Y-85608000D03*
X42154000Y-85608000D03*
X42154000Y-83068000D03*
X42154000Y-80528000D03*
X42154000Y-77988000D03*
%TD*%
D14*
%TO.C,R1off1*%
X69596000Y-106356000D03*
D15*
X59436000Y-106356000D03*
%TD*%
D14*
%TO.C,R5*%
X69596000Y-94206000D03*
D15*
X59436000Y-94206000D03*
%TD*%
D16*
%TO.C,C1*%
X83216000Y-80010000D03*
D14*
X83216000Y-82510000D03*
%TD*%
%TO.C,R6*%
X69596000Y-98256000D03*
D15*
X59436000Y-98256000D03*
%TD*%
D14*
%TO.C,R7*%
X69596000Y-102306000D03*
D15*
X59436000Y-102306000D03*
%TD*%
M02*
