<?xml version="1.0" encoding="UTF-8" standalone="no"?>
<svg
   width="69.0mm"
   height="99.0mm"
   viewBox="0 0 69.0 99.0"
   version="1.1"
   id="svg8"
   inkscape:version="1.1 (c68e22c387, 2021-05-23)"
   sodipodi:docname="RobiV4.svg"
   xmlns:inkscape="http://www.inkscape.org/namespaces/inkscape"
   xmlns:sodipodi="http://sodipodi.sourceforge.net/DTD/sodipodi-0.dtd"
   xmlns="http://www.w3.org/2000/svg"
   xmlns:svg="http://www.w3.org/2000/svg"
   xmlns:rdf="http://www.w3.org/1999/02/22-rdf-syntax-ns#"
   xmlns:cc="http://creativecommons.org/ns#"
   xmlns:dc="http://purl.org/dc/elements/1.1/">
  <defs
     id="defs2" />
  <sodipodi:namedview
     id="base"
     pagecolor="#ffffff"
     bordercolor="#666666"
     borderopacity="1.0"
     inkscape:pageopacity="0.0"
     inkscape:pageshadow="2"
     inkscape:zoom="1.8639831"
     inkscape:cx="68.401908"
     inkscape:cy="167.65173"
     inkscape:document-units="mm"
     inkscape:current-layer="g1161"
     inkscape:document-rotation="0"
     showgrid="false"
     inkscape:snap-global="false"
     inkscape:window-width="1920"
     inkscape:window-height="1017"
     inkscape:window-x="-8"
     inkscape:window-y="-8"
     inkscape:window-maximized="1"
     showborder="true"
     inkscape:pagecheckerboard="0" />
  <metadata
     id="metadata5">
    <rdf:RDF>
      <cc:Work
         rdf:about="">
        <dc:format>image/svg+xml</dc:format>
        <dc:type
           rdf:resource="http://purl.org/dc/dcmitype/StillImage" />
      </cc:Work>
    </rdf:RDF>
  </metadata>
  <g
     inkscape:groupmode="layer"
     id="layer1"
     inkscape:label="ebene"
     style="display:inline" />
  <g
     inkscape:label="[fixed] BG"
     inkscape:groupmode="layer"
     id="g1147">
    <rect
       x="0"
       y="0"
       width="35"
       height="52"
       style="fill:#ffffff;fill-opacity:1;stroke:none"
       id="rect1145" />
  </g>
  <g
     inkscape:label="Edge.Cuts"
     inkscape:groupmode="layer"
     id="g1149"
     style="display:inline">
    <path
       id="path1287-8-1-9"
       style="display:inline;fill:none;fill-opacity:1;stroke:#000000;stroke-width:0.190945;stroke-linecap:round;stroke-linejoin:round;stroke-miterlimit:4;stroke-dasharray:none;stroke-opacity:1"
       d="M 40.9361 1.96206 L 40.408 1.9746 L 39.8172 2.01611 L 39.1603 2.09242 L 38.4377 2.21026 L 37.6459 2.3728 L 36.7826 2.58826 L 35.8488 2.85985 L 34.8415 3.19521 L 34.633 3.3093 L 34.4629 3.43592 L 34.329 3.57022 L 34.2272 3.71144 L 34.1003 4.00134 L 34.056 4.28358 L 34.1457 6.00602 L 34.2274 6.85555 L 34.3463 7.69255 L 34.5145 8.51421 L 34.7401 9.31735 L 35.0362 10.0994 L 35.4089 10.8552 L 35.5137 11.2003 L 35.5681 11.5463 L 35.5505 11.7183 L 35.4882 11.8914 L 35.3714 12.0643 L 35.1922 12.2363 L 24.1982 13.0734 L 23.6732 11.4834 L 23.8021 11.5173 L 23.933 11.5182 L 24.1979 11.4322 L 24.461 11.2506 L 24.7147 10.9992 L 24.9465 10.7035 L 25.1469 10.3893 L 25.3071 10.0829 L 25.4179 9.80833 L 25.5368 9.33569 L 25.6818 8.90849 L 25.8259 8.48615 L 25.9518 8.02903 L 26.0404 7.49635 L 26.0676 6.84695 L 26.0122 6.03988 L 25.855 5.0366 L 25.8258 4.79681 L 25.7694 4.57462 L 25.5841 4.17735 L 25.3152 3.83806 L 24.9816 3.54908 L 24.6 3.30556 L 24.1838 3.10057 L 23.3245 2.77587 L 22.7142 2.68497 L 22.1047 2.63652 L 21.4922 2.62679 L 20.8818 2.65204 L 20.2723 2.70909 L 19.6597 2.79307 L 18.4399 3.02705 L 18.165 3.06765 L 17.9132 3.13235 L 17.6833 3.22139 L 17.4749 3.33342 L 17.2854 3.46677 L 17.1143 3.62239 L 16.8272 3.99254 L 16.6055 4.43619 L 16.4393 4.94364 L 16.3264 5.50998 L 16.258 6.12478 L 16.3808 7.28367 L 16.543 8.40497 L 16.6498 8.94028 L 16.7808 9.45351 L 16.9389 9.93981 L 17.1294 10.3951 L 17.504 10.9922 L 17.7046 11.2534 L 17.917 11.4775 L 18.1467 11.6544 L 18.3946 11.7771 L 18.6656 11.8341 L 18.9617 11.8177 L 19.6 11.9515 L 20.5606 13.2574 L 4.82775 15.0829 L 5.26381 18.0134 L 4.83672 17.8016 L 4.38857 17.6122 L 3.90709 17.4586 L 3.37921 17.3522 L 2.79187 17.3079 L 2.13302 17.3387 L 1.39266 17.4577 L 0.552499 17.678 L 0.550499 17.678 L 0.865899 23.2268 L 1.04718 25.9999 L 1.26375 28.7692 L 1.53257 31.5334 L 1.87019 34.2899 L 2.2932 37.0399 L 2.81698 39.779 L 4.09437 40.9321 L 4.75518 41.4773 L 5.4392 41.9943 L 6.14837 42.4748 L 6.8897 42.9115 L 7.66942 43.2992 L 8.49028 43.6307 L 8.49028 45.1791 L 14.1607 45.3049 L 13.8121 46.309 L 13.8297 46.6038 L 13.8761 46.859 L 13.9565 47.0688 L 14.0774 47.2282 L 14.2385 47.3297 L 14.4491 47.3683 L 14.7131 47.3375 L 15.0343 47.23 L 17.2152 46.9788 L 17.3028 50.9136 L 16.7438 50.7725 L 16.1827 50.6826 L 15.6186 50.6401 L 15.0516 50.6421 L 14.4824 50.6817 L 13.9112 50.7571 L 12.7629 50.9958 L 11.6114 51.3235 L 10.4551 51.7063 L 8.14126 52.5046 L 7.51572 52.3481 L 6.94047 52.259 L 6.41455 52.2312 L 5.93521 52.2572 L 5.49993 52.3326 L 5.10401 52.4524 L 4.74554 52.609 L 4.42215 52.7985 L 4.13209 53.013 L 3.87205 53.2488 L 3.42779 53.7572 L 3.06931 54.2783 L 2.77516 54.7654 L 2.38121 55.7512 L 2.06191 56.7487 L 1.812 57.7597 L 1.62468 58.7852 L 1.49777 59.8253 L 1.42627 60.8827 L 1.40307 61.9585 L 1.42427 63.0536 L 1.61355 63.8277 L 1.70635 64.514 L 1.77475 65.1761 L 1.8845 65.8767 L 2.10419 66.6789 L 2.27748 67.1391 L 2.50614 67.6486 L 2.79619 68.215 L 3.15681 68.8461 L 3.59912 69.5507 L 4.12797 70.3365 L 4.5038 70.4824 L 4.8845 70.5877 L 5.26423 70.6536 L 5.63499 70.6816 L 5.99347 70.674 L 6.32894 70.6313 L 6.63831 70.5559 L 6.9153 70.4498 L 7.25273 70.2652 L 7.58626 70.0089 L 7.91356 69.6513 L 8.22876 69.1652 L 8.33051 68.8201 L 8.39701 68.4673 L 8.44341 67.7405 L 8.40621 66.9943 L 8.31651 66.2347 L 8.05374 64.1421 L 8.53913 64.5788 L 8.99761 64.9568 L 9.41867 65.24 L 9.61301 65.3348 L 9.79839 65.3928 L 9.96974 65.4083 L 10.1278 65.3781 L 10.2738 65.297 L 10.4048 65.1609 L 10.5177 64.9656 L 10.6175 64.7056 L 10.697 64.376 L 10.7593 63.9749 L 10.3231 60.5417 L 10.7593 60.3328 L 11.1966 60.1735 L 11.6306 60.0594 L 12.0679 59.9868 L 12.5039 59.9502 L 12.9412 59.9463 L 13.8126 60.0128 L 14.6858 60.1511 L 15.5584 60.324 L 16.4297 60.4952 L 17.303 60.6257 L 17.5095 62.3239 L 17.6465 64.0405 L 17.7221 65.7746 L 17.7397 67.523 L 17.7145 68.937 L 17.7245 69.5666 L 17.6811 69.9577 L 17.6347 71.0577 L 17.5259 72.8399 L 17.3899 74.631 L 17.0566 78.2266 L 16.6897 81.8309 L 16.3463 85.4293 L 16.0814 89.0066 L 15.9745 89.3633 L 15.8394 89.6764 L 15.6813 89.9499 L 15.502 90.1867 L 15.3035 90.3907 L 15.0889 90.5656 L 14.6157 90.8469 L 14.1027 91.0605 L 13.5668 91.2363 L 13.029 91.4065 L 12.5041 91.6017 L 12.3208 91.7467 L 12.1829 91.9352 L 12.0852 92.1623 L 12.0247 92.4233 L 12.0015 92.7132 L 12.0095 93.0244 L 12.1123 93.6952 L 12.3129 94.3922 L 12.5918 95.0717 L 12.9232 95.6912 L 13.2879 96.2063 L 13.9468 96.3967 L 14.6196 96.562 L 15.9996 96.8153 L 17.4189 96.9749 L 18.8725 97.0433 L 20.3545 97.0287 L 21.8554 96.9359 L 23.3694 96.7717 L 24.8925 96.5407 L 25.1163 96.2728 L 25.2995 95.9241 L 25.4476 95.5075 L 25.5625 95.0358 L 25.649 94.5226 L 25.7095 93.9803 L 25.7659 92.8572 L 25.7407 92.6223 L 25.66 92.4212 L 25.5321 92.2502 L 25.3619 92.1062 L 25.1553 91.9854 L 24.9176 91.8847 L 24.3676 91.7282 L 23.1336 91.4954 L 22.5371 91.3629 L 22.0134 91.1832 L 22.1434 89.3833 L 23.0601 84.0664 L 27.6859 84.2345 L 33.4438 84.9876 L 35.8454 85.4825 L 37.044 85.7347 L 38.2489 85.9637 L 39.4633 86.1492 L 40.6933 86.2711 L 41.9429 86.3088 L 42.5764 86.2904 L 43.2157 86.2431 L 45.397 85.2389 L 45.7752 85.2658 L 46.1397 85.3383 L 46.4945 85.4553 L 46.8376 85.6158 L 47.169 85.8168 L 47.4906 86.0594 L 47.8006 86.3416 L 48.1027 86.6617 L 48.8707 87.492 L 49.245 87.921 L 49.6056 88.4034 L 49.9448 88.9736 L 50.2548 89.6676 L 50.5296 90.5181 L 50.7635 91.5591 L 50.5452 91.503 L 50.325 91.4865 L 50.1007 91.5049 L 49.8746 91.5534 L 49.4146 91.7214 L 48.9526 91.9555 L 48.0306 92.4734 L 47.5803 92.6851 L 46.7849 93.2321 L 46.4087 93.5395 L 46.0404 93.8806 L 45.6543 94.3292 L 45.5159 94.5467 L 45.4223 94.7651 L 45.3756 94.9894 L 45.3796 95.2223 L 45.4381 95.4688 L 45.5571 95.7328 L 45.7384 96.0178 L 45.9879 96.3289 L 46.3095 96.6692 L 46.7052 97.0442 L 50.3271 97.1727 L 52.1049 97.2144 L 53.8455 97.2144 L 55.5376 97.1516 L 57.175 97.0046 L 57.9665 96.8926 L 58.7423 96.7525 L 59.4967 96.5804 L 60.2296 96.3744 L 60.5863 96.1318 L 60.8749 95.8921 L 61.1029 95.6543 L 61.2706 95.4185 L 61.3816 95.1838 L 61.444 94.9517 L 61.4596 94.7207 L 61.4323 94.4917 L 61.3641 94.2626 L 61.2628 94.0365 L 60.9703 93.585 L 60.5863 93.1364 L 60.1438 92.6909 L 59.5902 92.3159 L 58.9996 92.0037 L 58.3817 91.7447 L 57.7403 91.5272 L 56.4147 91.1716 L 55.0833 90.8488 L 47.405 58.3658 L 48.29 58.274 L 49.1477 58.2287 L 49.9761 58.2287 L 50.7813 58.2702 L 51.561 58.3514 L 52.3192 58.4702 L 53.0541 58.6249 L 53.7696 58.8133 L 54.4654 59.0319 L 55.1438 59.2802 L 55.8066 59.5548 L 56.4538 59.8545 L 57.7091 60.5184 L 58.9215 61.2538 L 59.1341 62.1287 L 59.2451 62.6709 L 59.327 63.2314 L 59.3563 63.7736 L 59.3056 64.26 L 59.2433 64.4696 L 59.1517 64.6515 L 59.029 64.8001 L 58.871 64.9103 L 58.4422 65.1491 L 58.0601 65.4033 L 57.7326 65.6663 L 57.4636 65.934 L 57.255 66.2007 L 57.1128 66.4615 L 57.0426 66.712 L 57.0486 66.9449 L 57.1362 67.1557 L 57.3097 67.3394 L 57.5728 67.491 L 57.9296 67.6042 L 58.3877 67.6747 L 58.949 67.6969 L 59.6196 67.665 L 60.4052 67.575 L 59.9666 68.185 L 59.5651 68.7919 L 59.2415 69.3912 L 59.1207 69.688 L 59.0348 69.9809 L 58.9862 70.2708 L 58.9822 70.5579 L 59.027 70.8402 L 59.1226 71.1184 L 59.2785 71.3919 L 59.4968 71.6598 L 59.7852 71.9226 L 60.144 72.1797 L 60.5631 72.4958 L 61.0016 72.7442 L 61.4538 72.9269 L 61.9198 73.0478 L 62.3915 73.1086 L 62.8652 73.1144 L 63.3389 73.0671 L 63.8067 72.9694 L 64.2668 72.8244 L 64.7112 72.6359 L 65.1381 72.4069 L 65.5436 72.14 L 65.9217 71.8385 L 66.2707 71.505 L 66.5865 71.1435 L 66.8633 70.7559 L 67.1089 70.4062 L 67.3272 70.0379 L 67.5163 69.6522 L 67.6819 69.2531 L 67.9393 68.4199 L 68.1127 67.552 L 68.2102 66.6666 L 68.2434 65.7784 L 68.2278 64.9036 L 68.1713 64.0589 L 68.1244 63.0999 L 68.0309 62.2416 L 67.9003 61.4772 L 67.7306 60.7986 L 67.5299 60.1984 L 67.296 59.6696 L 67.0367 59.2058 L 66.7521 58.7978 L 66.4461 58.4402 L 66.1245 58.1232 L 65.7853 57.841 L 65.4364 57.5868 L 64.7151 57.1287 L 63.984 56.6918 L 63.3896 56.3854 L 62.8223 56.0501 L 61.7287 55.3328 L 60.6215 54.6252 L 60.0367 54.3024 L 59.4207 54.0125 L 57.9705 53.451 L 56.452 52.9329 L 53.4032 51.9315 L 51.9627 51.4018 L 51.2843 51.1187 L 50.641 50.8199 L 50.0406 50.5019 L 49.4851 50.1627 L 48.9841 49.7993 L 48.5397 49.408 L 48.7345 49.1633 L 48.8846 48.8927 L 48.9977 48.6009 L 49.0757 48.2876 L 49.1206 47.9562 L 49.1401 47.6081 L 49.1108 46.8727 L 49.0153 46.0974 L 48.8827 45.3019 L 48.808 44.6072 L 58.9509 42.8536 L 59.2875 42.7207 L 59.5631 42.5568 L 59.7831 42.3668 L 59.9523 42.1557 L 60.0759 41.929 L 60.1588 41.6919 L 60.206 41.4491 L 60.2226 41.2059 L 54.7366 14.4971 L 54.3955 14.1462 L 54.0387 13.8273 L 53.6684 13.5374 L 53.2863 13.2763 L 52.8887 13.0425 L 52.4793 12.8356 L 51.6274 12.4924 L 50.7307 12.2382 L 49.799 12.0623 L 48.8341 11.954 L 47.8418 11.9019 L 39.8165 11.8177 L 41.8223 11.3151 L 42.0075 11.2416 L 42.1928 11.1924 L 42.3779 11.143 L 42.5631 11.0707 L 42.7502 10.949 L 42.9354 10.7565 L 43.1206 10.4675 L 43.3058 10.0595 L 43.4929 9.75804 L 43.6488 9.44101 L 43.8808 8.76448 L 44.0251 8.03953 L 44.1031 7.28071 L 44.1362 6.49683 L 44.1462 5.70042 L 44.1794 4.11527 L 44.2126 3.86595 L 44.199 3.59621 L 44.1386 3.31884 L 44.0275 3.04633 L 43.8657 2.79102 L 43.6531 2.56582 L 43.39 2.38234 L 43.0723 2.25365 L 42.8637 2.1938 L 42.4465 2.09617 L 41.8091 2.0034 L 40.9378 1.96206"
       sodipodi:nodetypes="ccccccccccccccccccccccccccccccccccccccccccccccccccccccccccccccccccccccccccccccccccccccccccccccccccccccccccccccccccccccccccccccccccccccccccccccccccccccccccccccccccccccccccccccccccccccccccccccccccccccccccccccccccccccccccccccccccccccccccccccccccccccccccccccccccccccccccccccccccccccccccccccccccccccccccccccccccccccccccccccccccccccccccccccccccccccccccccccccccccccccccccccccccccccccccccccccccccccccccccccccccccccccccccccccccccccccccccccccccccccccccccccccccccccccccccccccccccccccccccccccccccccccccccccccccccccccccccccccccccccccc" />
  </g>
  <g
     inkscape:label="B.Cu"
     inkscape:groupmode="layer"
     id="g1151"
     style="display:inline" />
  <g
     inkscape:label="B.Mask"
     inkscape:groupmode="layer"
     id="g1153" />
  <g
     inkscape:label="B.SilkS"
     inkscape:groupmode="layer"
     id="g1155" />
  <g
     inkscape:label="F.Cu"
     inkscape:groupmode="layer"
     id="g1157" />
  <g
     inkscape:label="F.Mask"
     inkscape:groupmode="layer"
     id="g1159"
     style="display:inline" />
  <g
     inkscape:label="F.SilkS"
     inkscape:groupmode="layer"
     id="g1161"
     style="display:inline;opacity:1">
    <path
       id="path1287-8-1-9-4"
       style="display:inline;opacity:1;fill:none;fill-opacity:1;stroke:#020000;stroke-width:0.7;stroke-linecap:round;stroke-linejoin:round;stroke-miterlimit:4;stroke-dasharray:none;stroke-opacity:1"
       d="m 41.150763,2.1513052 -0.52817,0.01253 -0.59073,0.04152 -0.65692,0.07631 -0.72258,0.117836 -0.79187,0.162544 -0.86326,0.21546 -0.93378,0.271588 -1.00738,0.335364 -0.20844,0.114082 -0.17009,0.126626 -0.13395,0.1342939 -0.10178,0.141219 -0.12688,0.289902 -0.0443,0.2822461 0.0897,1.722437 0.0817,0.849527 0.11892,0.837004 0.16821,0.821659 0.22557,0.803143 0.29608,0.7820098 0.37267,0.755827 0.10488,0.345097 0.0544,0.346021 -0.0176,0.172003 -0.0623,0.173062 -0.11682,0.172958 -0.17926,0.172003 -10.993997,0.837109 -0.52497,-1.590019 0.12887,0.03383 0.13096,9.53e-4 0.26491,-0.086 0.26304,-0.181653 0.25375,-0.251324 0.23176,-0.29574 0.200367,-0.314218 0.16025,-0.306371 0.11075,-0.2745678 0.11892,-0.472648 0.145,-0.427197 0.14412,-0.422342 0.12588,-0.457123 0.0886,-0.532678 0.0272,-0.649402 -0.0554,-0.807067 -0.15716,-1.00328 -0.0292,-0.239783 -0.0564,-0.222194 -0.18534,-0.397272 -0.2689,-0.3392871 -0.333547,-0.2889799 -0.38162,-0.243519 -0.41622,-0.204993 -0.85928,-0.324695 -0.61029,-0.0909 -0.60951,-0.04845 -0.6125,-0.0097 -0.6104,0.02525 -0.60951,0.05705 -0.61261,0.08398 -1.2198,0.233986 -0.27486,0.04059 -0.25187,0.06471 -0.22988,0.08903 -0.20833,0.112035 -0.18954,0.13335 -0.17108,0.1556189 -0.28713,0.370146 -0.2217,0.4436551 -0.16622,0.50744 -0.11284,0.566348 -0.0684,0.6148 0.12279,1.158889 0.16213,1.121296 0.10687,0.535309 0.13096,0.51323 0.15816,0.4863058 0.19042,0.455246 0.37466,0.597165 0.20059,0.261185 0.21242,0.224071 0.22966,0.17688 0.24789,0.122692 0.271,0.05706 0.29608,-0.01644 0.839084,0.0837 0.960586,1.255664 -15.9335896,1.925841 0.43606,2.930519 -0.42709,-0.211769 -0.44815,-0.189395 -0.48148,-0.153657 -0.52788,-0.106363 -0.58734,-0.04433 -0.65885,0.03086 -0.74036,0.118981 -0.84016002,0.220253 h -0.002 l 0.31540002,5.548847 0.18128,2.773044 0.21657,2.769332 0.26882,2.764242 0.33762,2.756504 0.42301,2.749925 0.52378,2.73911 1.27739,1.15312 0.66081,0.545171 0.68402,0.51707 0.70917,0.480484 0.74133,0.436687 0.77972,0.387696 0.82086,0.331494 v 1.54845 l 5.6703796,0.125767 -0.34858,1.004131 0.0176,0.294801 0.0464,0.255141 0.0804,0.209859 0.12091,0.159385 0.16113,0.101484 0.21054,0.0386 0.26403,-0.03086 0.32117,-0.107424 2.18099,-0.251216 0.0876,3.934754 -0.55901,-0.141039 -0.56111,-0.08992 -0.56409,-0.04253 -0.56707,0.0021 -0.56917,0.03966 -0.57116,0.07539 -1.1483,0.238705 -1.1515,0.327676 -1.15635,0.382815 -2.3138296,0.798298 -0.62554,-0.15652 -0.57525,-0.08908 -0.52592,-0.02779 -0.47934,0.02598 -0.43528,0.07539 -0.39592,0.11983 -0.35847,0.156519 -0.32339,0.1895 -0.29006,0.214527 -0.26004,0.235841 -0.44426,0.508374 -0.35848,0.521099 -0.29415,0.487058 -0.39395,0.985891 -0.3193,0.997447 -0.24991,1.011021 -0.18732,1.025443 -0.12691,1.040183 -0.0715,1.057362 -0.0232,1.075814 0.0212,1.095116 0.18928,0.774118 0.0928,0.68621 0.0684,0.662136 0.10975,0.700632 0.21969,0.802219 0.17329,0.460127 0.22866,0.50954 0.29005,0.56638 0.36062,0.631066 0.44231,0.704659 0.52885,0.785786 0.37583,0.145915 0.3807,0.105302 0.37973,0.06585 0.37076,0.028 0.35848,-0.0076 0.33547,-0.04263 0.30937,-0.07539 0.27699,-0.106148 0.33743,-0.184623 0.33353,-0.256307 0.3273,-0.35758 0.3152,-0.486105 0.10175,-0.345065 0.0665,-0.352808 0.0464,-0.726824 -0.0372,-0.746231 -0.0897,-0.759589 -0.26277,-2.092563 0.48539,0.436686 0.45848,0.378048 0.42106,0.283136 0.19434,0.0948 0.1853796,0.05801 0.17135,0.01548 0.15808,-0.03012 0.14601,-0.08112 0.131,-0.13616 0.11286,-0.195228 0.0998,-0.260019 0.0795,-0.329584 0.0623,-0.401164 -0.43621,-3.433167 0.43621,-0.208907 0.43732,-0.159276 0.43401,-0.114102 0.43732,-0.07264 0.436,-0.03659 0.43722,-0.0039 0.87144,0.06649 0.87321,0.138282 0.87255,0.172958 0.87133,0.171153 0.87332,0.130541 0.20645,1.698183 0.13705,1.716638 0.0756,1.734026 0.0176,1.748451 -0.0252,1.413986 0.01,0.629582 -0.0434,0.391091 -0.0464,1.099992 -0.10875,1.782276 -0.13604,1.791078 -0.33333,3.595627 -0.36692,3.604215 -0.34339,3.598489 -0.26491,3.57728 -0.10687,0.356624 -0.13506,0.313148 -0.15816,0.273487 -0.17926,0.236796 -0.19849,0.204029 -0.21463,0.174865 -0.47324,0.281334 -0.51292,0.213572 -0.53591,0.175821 -0.53779,0.170201 -0.52496,0.195226 -0.18324,0.144962 -0.13793,0.188545 -0.0977,0.227042 -0.0605,0.260974 -0.0232,0.289922 0.008,0.311238 0.10278,0.670832 0.2006,0.696921 0.27895,0.679529 0.33133,0.619506 0.36472,0.515056 0.65891,0.190453 0.67284,0.165322 1.37994,0.253233 1.41929,0.159596 1.45365,0.06839 1.48195,-0.01453 1.50096,-0.09279 1.51401,-0.164261 1.52306,-0.230963 0.2238,-0.267866 0.183237,-0.34878 0.14811,-0.416538 0.11483,-0.471684 0.0865,-0.513252 0.0605,-0.542305 0.0564,-1.123112 -0.0252,-0.234886 -0.0807,-0.20106 -0.12787,-0.171048 -0.1702,-0.144007 -0.20657,-0.120782 -0.237727,-0.100637 -0.55005,-0.15652 -1.23395,-0.232873 -0.59647,-0.132448 -0.52375,-0.179744 0.12997,-1.799881 0.91676,-5.316927 4.625777,0.168185 5.75794,0.753018 2.40158,0.494905 1.19857,0.252278 1.20488,0.228949 1.21439,0.185471 1.23007,0.121949 1.24953,0.03765 0.6335,-0.01834 0.63935,-0.0473 2.18132,-1.004234 0.37819,0.02694 0.36449,0.07253 0.35477,0.116967 0.34316,0.160443 0.33134,0.20106 0.32161,0.242628 0.31001,0.282183 0.30215,0.32004 0.768,0.830321 0.37422,0.429054 0.36062,0.482393 0.33919,0.570196 0.31,0.693952 0.27486,0.850471 0.23386,1.041032 -0.21827,-0.0561 -0.22027,-0.01643 -0.22424,0.01836 -0.22612,0.04847 -0.45998,0.168079 -0.46197,0.234038 -0.92206,0.517919 -0.45026,0.211661 -0.7954,0.547082 -0.37621,0.307313 -0.36836,0.341143 -0.38604,0.448564 -0.13838,0.217499 -0.0936,0.21845 -0.0467,0.224282 0.004,0.23287 0.0585,0.246552 0.11892,0.263943 0.18136,0.285047 0.24945,0.311131 0.32161,0.340294 0.39577,0.374973 3.62182,0.128524 1.77781,0.04168 h 1.74067 l 1.69205,-0.06277 1.63745,-0.147082 0.79143,-0.111982 0.77584,-0.140084 0.7544,-0.172109 0.73286,-0.205938 0.35675,-0.242628 0.28857,-0.239763 0.228,-0.237752 0.16766,-0.235839 0.11107,-0.234675 0.0624,-0.232132 0.0156,-0.230963 -0.0273,-0.228949 -0.0682,-0.229161 -0.10135,-0.226084 -0.29243,-0.451535 -0.38406,-0.448564 -0.44251,-0.44549 -0.55359,-0.374972 -0.59062,-0.31219 -0.61791,-0.259067 -0.64134,-0.217495 -1.32557,-0.355566 -1.33142,-0.322797 -7.67832,-32.483004 0.88504,-0.09183 0.85763,-0.04528 h 0.82845 l 0.80513,0.04147 0.77971,0.08123 0.75828,0.118769 0.73484,0.154717 0.7155,0.188439 0.69583,0.218557 0.67836,0.248356 0.66278,0.274548 0.6472,0.299677 1.25539,0.663941 1.2124,0.735414 0.21252,0.874861 0.11107,0.542203 0.0819,0.560546 0.0293,0.542202 -0.0507,0.486315 -0.0623,0.209651 -0.0916,0.181864 -0.12278,0.148674 -0.15793,0.110181 -0.42882,0.238807 -0.38206,0.254188 -0.32758,0.262988 -0.269,0.267655 -0.20855,0.2667 -0.14224,0.260866 -0.0702,0.250479 0.006,0.23287 0.0876,0.210815 0.17351,0.183668 0.26315,0.151644 0.35675,0.113149 0.45811,0.07052 0.56132,0.02228 0.67063,-0.03192 0.78557,-0.09003 -0.43865,0.609962 -0.40151,0.606994 -0.3236,0.599252 -0.1208,0.296818 -0.0859,0.292894 -0.0486,0.289922 -0.004,0.287062 0.0448,0.282287 0.0956,0.27826 0.15594,0.273486 0.21828,0.267867 0.28845,0.262776 0.35874,0.257157 0.41909,0.316116 0.43854,0.248354 0.45225,0.182713 0.46595,0.120891 0.47169,0.06076 0.47369,0.0058 0.47368,-0.0473 0.46783,-0.09767 0.46009,-0.14496 0.4444,-0.188548 0.42693,-0.228949 0.4055,-0.266912 0.37808,-0.301482 0.34902,-0.333507 0.31575,-0.361503 0.27685,-0.387591 0.24558,-0.349731 0.21827,-0.36829 0.1891,-0.38568 0.16567,-0.39915 0.2574,-0.833187 0.1734,-0.867859 0.0975,-0.885468 0.0332,-0.888222 -0.0156,-0.874755 -0.0565,-0.844746 -0.0469,-0.958953 -0.0935,-0.858316 -0.13063,-0.764366 -0.16965,-0.678574 -0.2007,-0.600207 -0.23397,-0.528839 -0.25928,-0.463836 -0.28459,-0.40795 -0.30602,-0.357579 -0.32161,-0.317072 -0.33919,-0.282183 -0.34891,-0.254188 -0.72124,-0.458107 -0.73109,-0.436902 -0.59448,-0.306361 -0.56729,-0.335309 -1.09359,-0.71728 -1.10718,-0.707628 -0.58476,-0.3228 -0.61603,-0.289922 -1.45023,-0.561501 -1.51853,-0.518131 -3.04878,-1.001372 -1.44051,-0.529687 -0.67836,-0.283139 -0.64334,-0.298725 -0.60034,-0.318024 -0.55557,-0.339233 -0.50099,-0.363413 -0.4444,-0.3913 0.19485,-0.244645 0.15009,-0.270623 0.11306,-0.291833 0.078,-0.313254 0.0449,-0.331385 0.0195,-0.348144 -0.0293,-0.735412 -0.0955,-0.775285 -0.13252,-0.795435 -0.187208,-0.836832 10.255388,-1.611506 0.33653,-0.132874 0.27564,-0.163941 0.22004,-0.190031 0.16921,-0.211027 0.12355,-0.226724 0.0829,-0.237112 0.0472,-0.242842 0.0166,-0.243157 -5.48603,-26.708828 -0.34107,-0.350899 -0.35675,-0.318872 -0.37035,-0.289925 -0.38207,-0.261079 -0.39764,-0.233827 -0.40937,-0.206891 -0.85188,-0.343158 -0.89675,-0.254187 -0.93167,-0.175926 -0.96495,-0.108272 -0.99224,-0.05217 -8.02534,-0.0842 2.00581,-0.50254 0.18523,-0.07348 0.18523,-0.04921 0.18512,-0.04942 0.18523,-0.07232 0.18711,-0.121738 0.18523,-0.192501 0.18512,-0.28898 0.18523,-0.407929 0.18711,-0.3015038 0.15594,-0.317028 0.23198,-0.676527 0.14423,-0.724959 0.078,-0.758817 0.0331,-0.783875 0.01,-0.79641 0.0332,-1.5851531 0.0332,-0.24932 -0.0136,-0.269743 -0.0604,-0.2773669 -0.11108,-0.272512 -0.1618,-0.255311 -0.21253,-0.225194 -0.26314,-0.183488 -0.31775,-0.128684 -0.20855,-0.05985 -0.4172,-0.09764 -0.63737,-0.09277 -0.87133,-0.04134"
       sodipodi:nodetypes="ccccccccccccccccccccccccccccccccccccccccccccccccccccccccccccccccccccccccccccccccccccccccccccccccccccccccccccccccccccccccccccccccccccccccccccccccccccccccccccccccccccccccccccccccccccccccccccccccccccccccccccccccccccccccccccccccccccccccccccccccccccccccccccccccccccccccccccccccccccccccccccccccccccccccccccccccccccccccccccccccccccccccccccccccccccccccccccccccccccccccccccccccccccccccccccccccccccccccccccccccccccccccccccccccccccccccccccccccccccccccccccccccccccccccccccccccccccccccccccccccccccccccccccccccccccccccccccccccccccccccc" />
    <ellipse
       style="display:inline;fill:none;stroke:#000002;stroke-width:1.00144;stroke-linecap:round;stroke-linejoin:round;stroke-miterlimit:4;stroke-dasharray:none;stroke-opacity:0.9"
       id="path2176"
       cx="29.360537"
       cy="31.239067"
       rx="3.0464199"
       ry="4.4159112"
       transform="rotate(-4.6097315)" />
    <ellipse
       style="display:inline;fill:none;stroke:#000002;stroke-width:1.00144;stroke-linecap:round;stroke-linejoin:round;stroke-miterlimit:4;stroke-dasharray:none;stroke-opacity:0.9"
       id="path2176-2"
       cx="48.006958"
       cy="30.739239"
       rx="3.0464199"
       ry="4.4159112"
       transform="rotate(-4.6097315)" />
    <ellipse
       style="display:inline;fill:none;stroke:#000002;stroke-width:0.8;stroke-linecap:round;stroke-linejoin:round;stroke-miterlimit:4;stroke-dasharray:none;stroke-opacity:0.9"
       id="path2193"
       cx="28.503849"
       cy="32.331978"
       rx="1.0381975"
       ry="2.2438462"
       transform="rotate(-6.825995)" />
    <ellipse
       style="display:inline;fill:none;stroke:#000002;stroke-width:0.799999;stroke-linecap:round;stroke-linejoin:round;stroke-miterlimit:4;stroke-dasharray:none;stroke-opacity:0.9"
       id="path2193-1"
       cx="47.327038"
       cy="32.595135"
       rx="1.0381975"
       ry="2.2438462"
       transform="rotate(-6.825995)" />
    <path
       style="display:inline;fill:none;stroke:#000002;stroke-width:0.799999;stroke-linecap:round;stroke-linejoin:round;stroke-miterlimit:4;stroke-dasharray:none;stroke-opacity:0.9"
       d="m 31.843183,24.327766 c -1.81763,-0.882813 -4.5205,-0.171802 -5.49239,0.535843 -1.866696,3.110495 -1.145033,5.596283 0.73678,7.635776 l 4.88957,0.803766"
       id="path2210"
       sodipodi:nodetypes="cccc" />
    <path
       style="display:inline;fill:none;stroke:#000002;stroke-width:0.799999;stroke-linecap:round;stroke-linejoin:round;stroke-miterlimit:4;stroke-dasharray:none;stroke-opacity:0.9"
       d="m 49.927913,22.385331 h 0.60283 c -3.05895,-0.797719 -4.66091,-0.209299 -5.42542,0.133961 -1.30889,3.193436 -1.91816,4.625538 0.80376,7.903699 l 4.88958,0.937727"
       id="path2212"
       sodipodi:nodetypes="ccccc" />
    <path
       style="display:inline;fill:none;stroke:#000002;stroke-width:0.799999;stroke-linecap:round;stroke-linejoin:round;stroke-miterlimit:4;stroke-dasharray:none;stroke-opacity:0.9"
       d="m 31.709223,35.178603 c 5.95121,1.926746 11.1144,2.005588 16.20928,-0.535842 1.63097,1.884757 2.786668,3.514097 2.810398,6.291768 -5.89673,1.344778 -12.343668,1.631847 -18.416848,1.741493 -1.50942,-2.75337 -0.78923,-5.083213 -0.60283,-7.497419 z"
       id="path2214"
       sodipodi:nodetypes="ccccc" />
    <path
       style="display:inline;fill:none;stroke:#000002;stroke-width:0.799999;stroke-linecap:round;stroke-linejoin:round;stroke-miterlimit:4;stroke-dasharray:none;stroke-opacity:0.9"
       d="m 46.511913,35.647469 1.982304,5.726025"
       id="path2216"
       sodipodi:nodetypes="cc" />
    <path
       style="display:inline;fill:none;stroke:#000002;stroke-width:0.799999;stroke-linecap:round;stroke-linejoin:round;stroke-miterlimit:4;stroke-dasharray:none;stroke-opacity:0.9"
       d="m 43.564773,36.250293 1.486318,5.497969"
       id="path2218"
       sodipodi:nodetypes="cc" />
    <path
       style="display:inline;fill:none;stroke:#000002;stroke-width:0.799999;stroke-linecap:round;stroke-linejoin:round;stroke-miterlimit:4;stroke-dasharray:none;stroke-opacity:0.9"
       d="m 40.684613,36.853117 1.319416,5.204023"
       id="path2220"
       sodipodi:nodetypes="cc" />
    <path
       style="display:inline;fill:none;stroke:#000002;stroke-width:0.799999;stroke-linecap:round;stroke-linejoin:round;stroke-miterlimit:4;stroke-dasharray:none;stroke-opacity:0.9"
       d="m 37.603503,36.518215 0.98756,5.69891"
       id="path2222"
       sodipodi:nodetypes="cc" />
    <path
       style="display:inline;fill:none;stroke:#000002;stroke-width:0.799999;stroke-linecap:round;stroke-linejoin:round;stroke-miterlimit:4;stroke-dasharray:none;stroke-opacity:0.9"
       d="m 34.790323,36.116331 0.33491,6.332659"
       id="path2224"
       sodipodi:nodetypes="cc" />
    <path
       style="display:inline;fill:none;stroke:#000002;stroke-width:0.799999;stroke-linecap:round;stroke-linejoin:round;stroke-miterlimit:4;stroke-dasharray:none;stroke-opacity:0.9"
       d="M 5.3368314,15.361765 17.17574,17.441574 54.612283,14.641832"
       id="path2226"
       sodipodi:nodetypes="ccc" />
    <path
       style="display:inline;fill:none;fill-opacity:1;stroke:#000002;stroke-width:0.8;stroke-linecap:round;stroke-linejoin:round;stroke-miterlimit:4;stroke-dasharray:none;stroke-opacity:0.9"
       d="m 17.17574,17.681552 4.799557,27.437468 c 10.842861,0.690582 24.302002,-0.67761 38.127106,-3.35969"
       id="path2228"
       sodipodi:nodetypes="ccc" />
    <path
       style="display:inline;fill:none;stroke:#000002;stroke-width:0.799999;stroke-linecap:round;stroke-linejoin:round;stroke-miterlimit:4;stroke-dasharray:none;stroke-opacity:0.9"
       d="m 5.4168264,15.601744 1.359873,8.159247 c 1.435523,0.111001 2.508963,-0.295834 3.5196746,0.239978 3.065711,1.938547 3.517298,5.261584 1.679845,8.479217 -0.757203,0.684482 -1.724322,1.019103 -3.1197116,0.63994 l 0.038538,12.391411"
       id="path2230"
       sodipodi:nodetypes="cccccc" />
    <path
       style="display:inline;fill:none;stroke:#000002;stroke-width:0.799999;stroke-linecap:round;stroke-linejoin:round;stroke-miterlimit:4;stroke-dasharray:none;stroke-opacity:0.9"
       d="m 1.0972224,23.760991 h 3.59967 c 2.886237,1.998858 3.322371,5.416196 2.159799,9.759101 l -4.959541,0.159982"
       id="path2232"
       sodipodi:nodetypes="cccc" />
    <path
       style="display:inline;fill:none;stroke:#000002;stroke-width:0.799999;stroke-linecap:round;stroke-linejoin:round;stroke-miterlimit:4;stroke-dasharray:none;stroke-opacity:0.9"
       d="M 8.8743173,45.431543 22.215274,45.11902"
       id="path2234"
       sodipodi:nodetypes="cc" />
    <path
       style="display:inline;fill:none;stroke:#000002;stroke-width:1.1;stroke-linecap:round;stroke-linejoin:round;stroke-miterlimit:4;stroke-dasharray:none;stroke-opacity:0.9"
       d="m 23.815128,47.59879 c 3.147055,1.785298 6.329065,3.549011 16.558475,0.959914"
       id="path2236"
       sodipodi:nodetypes="cc" />
    <path
       style="display:inline;fill:none;stroke:#000002;stroke-width:0.799999;stroke-linecap:round;stroke-linejoin:round;stroke-miterlimit:4;stroke-dasharray:none;stroke-opacity:0.9"
       d="m 17.575702,51.038474 c 1.755866,-0.09035 1.827564,1.082433 1.919822,2.239793 5.600551,0.284775 10.902969,-0.772065 16.078519,-2.399779 3.10688,0.895761 6.19082,1.676813 8.87918,0.479957 l 0.23998,-3.35969 c 0.96297,0.910364 1.859779,2.834573 4.030719,1.731662"
       id="path2238"
       sodipodi:nodetypes="cccccc" />
    <path
       style="display:inline;fill:none;stroke:#000002;stroke-width:1.1;stroke-linecap:round;stroke-linejoin:round;stroke-miterlimit:4;stroke-dasharray:none;stroke-opacity:0.9"
       d="m 9.5275395,52.669417 2.8486425,7.008261"
       id="path2240"
       sodipodi:nodetypes="cc" />
    <path
       style="display:inline;fill:none;stroke:#000002;stroke-width:1.1;stroke-linecap:round;stroke-linejoin:round;stroke-miterlimit:4;stroke-dasharray:none;stroke-opacity:0.9"
       d="m 13.127208,51.219187 3.088621,9.018439"
       id="path2242"
       sodipodi:nodetypes="cc" />
    <path
       style="display:inline;fill:none;stroke:#000002;stroke-width:1.1;stroke-linecap:round;stroke-linejoin:round;stroke-miterlimit:4;stroke-dasharray:none;stroke-opacity:0.9"
       d="m 51.412583,58.23781 0.31997,-0.399962 1.99981,-5.519492"
       id="path2244" />
    <path
       style="display:inline;fill:none;stroke:#000002;stroke-width:1.1;stroke-linecap:round;stroke-linejoin:round;stroke-miterlimit:4;stroke-dasharray:none;stroke-opacity:0.9"
       d="m 54.932253,58.87775 2.31979,-5.279512"
       id="path2246" />
    <path
       style="display:inline;fill:none;stroke:#000002;stroke-width:1.1;stroke-linecap:round;stroke-linejoin:round;stroke-miterlimit:4;stroke-dasharray:none;stroke-opacity:0.9"
       d="m 17.975665,65.997095 11.278958,-0.639943 -0.71993,-3.919638 9.6791,-0.959911 0.79993,4.879549 9.11916,-2.079807"
       id="path2248" />
    <path
       style="display:inline;fill:none;stroke:#000002;stroke-width:1.1;stroke-linecap:round;stroke-linejoin:round;stroke-miterlimit:4;stroke-dasharray:none;stroke-opacity:0.9"
       d="m 18.11784,71.165523 10.816813,-3.008629 -0.39996,3.519675 9.99908,1.759839 1.11989,-5.039535 9.19915,-1.919824"
       id="path2250"
       sodipodi:nodetypes="cccccc" />
    <path
       style="display:inline;fill:none;stroke:#000002;stroke-width:1.1;stroke-linecap:round;stroke-linejoin:round;stroke-miterlimit:4;stroke-dasharray:none;stroke-opacity:0.9"
       d="m 31.654403,64.397241 5.27951,0.479957 -0.15998,5.519489 -5.27952,-0.799926 z"
       id="path2252" />
    <path
       style="display:inline;fill:none;stroke:#000002;stroke-width:1.1;stroke-linecap:round;stroke-linejoin:round;stroke-miterlimit:4;stroke-dasharray:none;stroke-opacity:0.9"
       d="m 48.612833,86.955161 4.79956,-2.07981"
       id="path2254" />
    <path
       style="display:inline;fill:none;stroke:#000002;stroke-width:1.1;stroke-linecap:round;stroke-linejoin:round;stroke-miterlimit:4;stroke-dasharray:none;stroke-opacity:0.9"
       d="m 50.494128,89.233492 3.718195,-1.478406"
       id="path2256"
       sodipodi:nodetypes="cc" />
    <path
       style="display:inline;fill:none;stroke:#000002;stroke-width:1.1;stroke-linecap:round;stroke-linejoin:round;stroke-miterlimit:4;stroke-dasharray:none;stroke-opacity:0.9"
       d="m 22.535245,85.275313 -5.38768,-1.59985"
       id="path2258"
       sodipodi:nodetypes="cc" />
    <path
       style="display:inline;fill:none;stroke:#000002;stroke-width:1.1;stroke-linecap:round;stroke-linejoin:round;stroke-miterlimit:4;stroke-dasharray:none;stroke-opacity:0.9"
       d="M 22.135283,88.555012 16.667611,86.965523"
       id="path2260"
       sodipodi:nodetypes="cc" />
    <path
       style="opacity:1;fill:none;fill-opacity:0.238606;stroke:#020000;stroke-width:0.799999;stroke-linecap:round;stroke-linejoin:round;stroke-miterlimit:4;stroke-dasharray:none;stroke-opacity:1"
       d="m 18.697696,4.9022225 c 2.642102,-1.2084759 4.088702,-0.4784402 5.665991,-0.07161 0.77739,0.9076902 0.431291,2.4424382 -0.265942,5.3514025 l -4.960273,0.487064 C 18.002273,7.8871069 18.151337,6.7383176 18.697696,4.9022225 Z"
       id="path2313"
       sodipodi:nodetypes="ccccc" />
    <path
       style="opacity:1;fill:none;fill-opacity:0.238606;stroke:#020000;stroke-width:0.799999;stroke-linecap:round;stroke-linejoin:round;stroke-miterlimit:4;stroke-dasharray:none;stroke-opacity:1"
       d="m 35.965701,4.8344399 c 2.1186,-1.2721409 4.30031,-1.3336806 6.4127,-1.3001969 0.922514,2.4718317 1.05664,5.382421 -0.55489,6.798646 l -4.870845,0.530522 C 36.040676,7.6491944 35.610461,6.0421987 35.965701,4.8344399 Z"
       id="path2315"
       sodipodi:nodetypes="ccccc" />
  </g>
  <g
     inkscape:label="Dwgs.User"
     inkscape:groupmode="layer"
     id="g1163" />
  <g
     inkscape:label="Drill"
     inkscape:groupmode="layer"
     id="g1165" />
</svg>
