%TF.GenerationSoftware,KiCad,Pcbnew,8.0.1*%
%TF.CreationDate,2024-04-02T10:22:41+02:00*%
%TF.ProjectId,KatzeV2,4b61747a-6556-4322-9e6b-696361645f70,rev?*%
%TF.SameCoordinates,Original*%
%TF.FileFunction,Legend,Bot*%
%TF.FilePolarity,Positive*%
%FSLAX46Y46*%
G04 Gerber Fmt 4.6, Leading zero omitted, Abs format (unit mm)*
G04 Created by KiCad (PCBNEW 8.0.1) date 2024-04-02 10:22:41*
%MOMM*%
%LPD*%
G01*
G04 APERTURE LIST*
%ADD10C,0.150000*%
%ADD11C,0.050000*%
%ADD12C,0.120000*%
%ADD13C,0.010000*%
G04 APERTURE END LIST*
D10*
X96117506Y-80589819D02*
X96117506Y-81304104D01*
X96117506Y-81304104D02*
X96165125Y-81446961D01*
X96165125Y-81446961D02*
X96260363Y-81542200D01*
X96260363Y-81542200D02*
X96403220Y-81589819D01*
X96403220Y-81589819D02*
X96498458Y-81589819D01*
X95165125Y-81589819D02*
X95641315Y-81589819D01*
X95641315Y-81589819D02*
X95641315Y-80589819D01*
X94260363Y-81494580D02*
X94307982Y-81542200D01*
X94307982Y-81542200D02*
X94450839Y-81589819D01*
X94450839Y-81589819D02*
X94546077Y-81589819D01*
X94546077Y-81589819D02*
X94688934Y-81542200D01*
X94688934Y-81542200D02*
X94784172Y-81446961D01*
X94784172Y-81446961D02*
X94831791Y-81351723D01*
X94831791Y-81351723D02*
X94879410Y-81161247D01*
X94879410Y-81161247D02*
X94879410Y-81018390D01*
X94879410Y-81018390D02*
X94831791Y-80827914D01*
X94831791Y-80827914D02*
X94784172Y-80732676D01*
X94784172Y-80732676D02*
X94688934Y-80637438D01*
X94688934Y-80637438D02*
X94546077Y-80589819D01*
X94546077Y-80589819D02*
X94450839Y-80589819D01*
X94450839Y-80589819D02*
X94307982Y-80637438D01*
X94307982Y-80637438D02*
X94260363Y-80685057D01*
X93546077Y-80589819D02*
X93546077Y-81304104D01*
X93546077Y-81304104D02*
X93593696Y-81446961D01*
X93593696Y-81446961D02*
X93688934Y-81542200D01*
X93688934Y-81542200D02*
X93831791Y-81589819D01*
X93831791Y-81589819D02*
X93927029Y-81589819D01*
X92593696Y-81589819D02*
X93069886Y-81589819D01*
X93069886Y-81589819D02*
X93069886Y-80589819D01*
X91688934Y-81494580D02*
X91736553Y-81542200D01*
X91736553Y-81542200D02*
X91879410Y-81589819D01*
X91879410Y-81589819D02*
X91974648Y-81589819D01*
X91974648Y-81589819D02*
X92117505Y-81542200D01*
X92117505Y-81542200D02*
X92212743Y-81446961D01*
X92212743Y-81446961D02*
X92260362Y-81351723D01*
X92260362Y-81351723D02*
X92307981Y-81161247D01*
X92307981Y-81161247D02*
X92307981Y-81018390D01*
X92307981Y-81018390D02*
X92260362Y-80827914D01*
X92260362Y-80827914D02*
X92212743Y-80732676D01*
X92212743Y-80732676D02*
X92117505Y-80637438D01*
X92117505Y-80637438D02*
X91974648Y-80589819D01*
X91974648Y-80589819D02*
X91879410Y-80589819D01*
X91879410Y-80589819D02*
X91736553Y-80637438D01*
X91736553Y-80637438D02*
X91688934Y-80685057D01*
X90974648Y-80589819D02*
X90974648Y-81304104D01*
X90974648Y-81304104D02*
X91022267Y-81446961D01*
X91022267Y-81446961D02*
X91117505Y-81542200D01*
X91117505Y-81542200D02*
X91260362Y-81589819D01*
X91260362Y-81589819D02*
X91355600Y-81589819D01*
X90022267Y-81589819D02*
X90498457Y-81589819D01*
X90498457Y-81589819D02*
X90498457Y-80589819D01*
X89117505Y-81494580D02*
X89165124Y-81542200D01*
X89165124Y-81542200D02*
X89307981Y-81589819D01*
X89307981Y-81589819D02*
X89403219Y-81589819D01*
X89403219Y-81589819D02*
X89546076Y-81542200D01*
X89546076Y-81542200D02*
X89641314Y-81446961D01*
X89641314Y-81446961D02*
X89688933Y-81351723D01*
X89688933Y-81351723D02*
X89736552Y-81161247D01*
X89736552Y-81161247D02*
X89736552Y-81018390D01*
X89736552Y-81018390D02*
X89688933Y-80827914D01*
X89688933Y-80827914D02*
X89641314Y-80732676D01*
X89641314Y-80732676D02*
X89546076Y-80637438D01*
X89546076Y-80637438D02*
X89403219Y-80589819D01*
X89403219Y-80589819D02*
X89307981Y-80589819D01*
X89307981Y-80589819D02*
X89165124Y-80637438D01*
X89165124Y-80637438D02*
X89117505Y-80685057D01*
X88403219Y-80589819D02*
X88403219Y-81304104D01*
X88403219Y-81304104D02*
X88450838Y-81446961D01*
X88450838Y-81446961D02*
X88546076Y-81542200D01*
X88546076Y-81542200D02*
X88688933Y-81589819D01*
X88688933Y-81589819D02*
X88784171Y-81589819D01*
X87450838Y-81589819D02*
X87927028Y-81589819D01*
X87927028Y-81589819D02*
X87927028Y-80589819D01*
X86546076Y-81494580D02*
X86593695Y-81542200D01*
X86593695Y-81542200D02*
X86736552Y-81589819D01*
X86736552Y-81589819D02*
X86831790Y-81589819D01*
X86831790Y-81589819D02*
X86974647Y-81542200D01*
X86974647Y-81542200D02*
X87069885Y-81446961D01*
X87069885Y-81446961D02*
X87117504Y-81351723D01*
X87117504Y-81351723D02*
X87165123Y-81161247D01*
X87165123Y-81161247D02*
X87165123Y-81018390D01*
X87165123Y-81018390D02*
X87117504Y-80827914D01*
X87117504Y-80827914D02*
X87069885Y-80732676D01*
X87069885Y-80732676D02*
X86974647Y-80637438D01*
X86974647Y-80637438D02*
X86831790Y-80589819D01*
X86831790Y-80589819D02*
X86736552Y-80589819D01*
X86736552Y-80589819D02*
X86593695Y-80637438D01*
X86593695Y-80637438D02*
X86546076Y-80685057D01*
X79213220Y-65734819D02*
X79213220Y-64734819D01*
X78641792Y-65734819D02*
X79070363Y-65163390D01*
X78641792Y-64734819D02*
X79213220Y-65306247D01*
X107927142Y-125191009D02*
X107784285Y-125238628D01*
X107784285Y-125238628D02*
X107736666Y-125286247D01*
X107736666Y-125286247D02*
X107689047Y-125381485D01*
X107689047Y-125381485D02*
X107689047Y-125524342D01*
X107689047Y-125524342D02*
X107736666Y-125619580D01*
X107736666Y-125619580D02*
X107784285Y-125667200D01*
X107784285Y-125667200D02*
X107879523Y-125714819D01*
X107879523Y-125714819D02*
X108260475Y-125714819D01*
X108260475Y-125714819D02*
X108260475Y-124714819D01*
X108260475Y-124714819D02*
X107927142Y-124714819D01*
X107927142Y-124714819D02*
X107831904Y-124762438D01*
X107831904Y-124762438D02*
X107784285Y-124810057D01*
X107784285Y-124810057D02*
X107736666Y-124905295D01*
X107736666Y-124905295D02*
X107736666Y-125000533D01*
X107736666Y-125000533D02*
X107784285Y-125095771D01*
X107784285Y-125095771D02*
X107831904Y-125143390D01*
X107831904Y-125143390D02*
X107927142Y-125191009D01*
X107927142Y-125191009D02*
X108260475Y-125191009D01*
X106689047Y-125619580D02*
X106736666Y-125667200D01*
X106736666Y-125667200D02*
X106879523Y-125714819D01*
X106879523Y-125714819D02*
X106974761Y-125714819D01*
X106974761Y-125714819D02*
X107117618Y-125667200D01*
X107117618Y-125667200D02*
X107212856Y-125571961D01*
X107212856Y-125571961D02*
X107260475Y-125476723D01*
X107260475Y-125476723D02*
X107308094Y-125286247D01*
X107308094Y-125286247D02*
X107308094Y-125143390D01*
X107308094Y-125143390D02*
X107260475Y-124952914D01*
X107260475Y-124952914D02*
X107212856Y-124857676D01*
X107212856Y-124857676D02*
X107117618Y-124762438D01*
X107117618Y-124762438D02*
X106974761Y-124714819D01*
X106974761Y-124714819D02*
X106879523Y-124714819D01*
X106879523Y-124714819D02*
X106736666Y-124762438D01*
X106736666Y-124762438D02*
X106689047Y-124810057D01*
X105784285Y-124714819D02*
X106260475Y-124714819D01*
X106260475Y-124714819D02*
X106308094Y-125191009D01*
X106308094Y-125191009D02*
X106260475Y-125143390D01*
X106260475Y-125143390D02*
X106165237Y-125095771D01*
X106165237Y-125095771D02*
X105927142Y-125095771D01*
X105927142Y-125095771D02*
X105831904Y-125143390D01*
X105831904Y-125143390D02*
X105784285Y-125191009D01*
X105784285Y-125191009D02*
X105736666Y-125286247D01*
X105736666Y-125286247D02*
X105736666Y-125524342D01*
X105736666Y-125524342D02*
X105784285Y-125619580D01*
X105784285Y-125619580D02*
X105831904Y-125667200D01*
X105831904Y-125667200D02*
X105927142Y-125714819D01*
X105927142Y-125714819D02*
X106165237Y-125714819D01*
X106165237Y-125714819D02*
X106260475Y-125667200D01*
X106260475Y-125667200D02*
X106308094Y-125619580D01*
X104879523Y-125048152D02*
X104879523Y-125714819D01*
X105117618Y-124667200D02*
X105355713Y-125381485D01*
X105355713Y-125381485D02*
X104736666Y-125381485D01*
X104212856Y-125143390D02*
X104308094Y-125095771D01*
X104308094Y-125095771D02*
X104355713Y-125048152D01*
X104355713Y-125048152D02*
X104403332Y-124952914D01*
X104403332Y-124952914D02*
X104403332Y-124905295D01*
X104403332Y-124905295D02*
X104355713Y-124810057D01*
X104355713Y-124810057D02*
X104308094Y-124762438D01*
X104308094Y-124762438D02*
X104212856Y-124714819D01*
X104212856Y-124714819D02*
X104022380Y-124714819D01*
X104022380Y-124714819D02*
X103927142Y-124762438D01*
X103927142Y-124762438D02*
X103879523Y-124810057D01*
X103879523Y-124810057D02*
X103831904Y-124905295D01*
X103831904Y-124905295D02*
X103831904Y-124952914D01*
X103831904Y-124952914D02*
X103879523Y-125048152D01*
X103879523Y-125048152D02*
X103927142Y-125095771D01*
X103927142Y-125095771D02*
X104022380Y-125143390D01*
X104022380Y-125143390D02*
X104212856Y-125143390D01*
X104212856Y-125143390D02*
X104308094Y-125191009D01*
X104308094Y-125191009D02*
X104355713Y-125238628D01*
X104355713Y-125238628D02*
X104403332Y-125333866D01*
X104403332Y-125333866D02*
X104403332Y-125524342D01*
X104403332Y-125524342D02*
X104355713Y-125619580D01*
X104355713Y-125619580D02*
X104308094Y-125667200D01*
X104308094Y-125667200D02*
X104212856Y-125714819D01*
X104212856Y-125714819D02*
X104022380Y-125714819D01*
X104022380Y-125714819D02*
X103927142Y-125667200D01*
X103927142Y-125667200D02*
X103879523Y-125619580D01*
X103879523Y-125619580D02*
X103831904Y-125524342D01*
X103831904Y-125524342D02*
X103831904Y-125333866D01*
X103831904Y-125333866D02*
X103879523Y-125238628D01*
X103879523Y-125238628D02*
X103927142Y-125191009D01*
X103927142Y-125191009D02*
X104022380Y-125143390D01*
X81807142Y-126261009D02*
X81664285Y-126308628D01*
X81664285Y-126308628D02*
X81616666Y-126356247D01*
X81616666Y-126356247D02*
X81569047Y-126451485D01*
X81569047Y-126451485D02*
X81569047Y-126594342D01*
X81569047Y-126594342D02*
X81616666Y-126689580D01*
X81616666Y-126689580D02*
X81664285Y-126737200D01*
X81664285Y-126737200D02*
X81759523Y-126784819D01*
X81759523Y-126784819D02*
X82140475Y-126784819D01*
X82140475Y-126784819D02*
X82140475Y-125784819D01*
X82140475Y-125784819D02*
X81807142Y-125784819D01*
X81807142Y-125784819D02*
X81711904Y-125832438D01*
X81711904Y-125832438D02*
X81664285Y-125880057D01*
X81664285Y-125880057D02*
X81616666Y-125975295D01*
X81616666Y-125975295D02*
X81616666Y-126070533D01*
X81616666Y-126070533D02*
X81664285Y-126165771D01*
X81664285Y-126165771D02*
X81711904Y-126213390D01*
X81711904Y-126213390D02*
X81807142Y-126261009D01*
X81807142Y-126261009D02*
X82140475Y-126261009D01*
X80569047Y-126689580D02*
X80616666Y-126737200D01*
X80616666Y-126737200D02*
X80759523Y-126784819D01*
X80759523Y-126784819D02*
X80854761Y-126784819D01*
X80854761Y-126784819D02*
X80997618Y-126737200D01*
X80997618Y-126737200D02*
X81092856Y-126641961D01*
X81092856Y-126641961D02*
X81140475Y-126546723D01*
X81140475Y-126546723D02*
X81188094Y-126356247D01*
X81188094Y-126356247D02*
X81188094Y-126213390D01*
X81188094Y-126213390D02*
X81140475Y-126022914D01*
X81140475Y-126022914D02*
X81092856Y-125927676D01*
X81092856Y-125927676D02*
X80997618Y-125832438D01*
X80997618Y-125832438D02*
X80854761Y-125784819D01*
X80854761Y-125784819D02*
X80759523Y-125784819D01*
X80759523Y-125784819D02*
X80616666Y-125832438D01*
X80616666Y-125832438D02*
X80569047Y-125880057D01*
X79664285Y-125784819D02*
X80140475Y-125784819D01*
X80140475Y-125784819D02*
X80188094Y-126261009D01*
X80188094Y-126261009D02*
X80140475Y-126213390D01*
X80140475Y-126213390D02*
X80045237Y-126165771D01*
X80045237Y-126165771D02*
X79807142Y-126165771D01*
X79807142Y-126165771D02*
X79711904Y-126213390D01*
X79711904Y-126213390D02*
X79664285Y-126261009D01*
X79664285Y-126261009D02*
X79616666Y-126356247D01*
X79616666Y-126356247D02*
X79616666Y-126594342D01*
X79616666Y-126594342D02*
X79664285Y-126689580D01*
X79664285Y-126689580D02*
X79711904Y-126737200D01*
X79711904Y-126737200D02*
X79807142Y-126784819D01*
X79807142Y-126784819D02*
X80045237Y-126784819D01*
X80045237Y-126784819D02*
X80140475Y-126737200D01*
X80140475Y-126737200D02*
X80188094Y-126689580D01*
X78759523Y-126118152D02*
X78759523Y-126784819D01*
X78997618Y-125737200D02*
X79235713Y-126451485D01*
X79235713Y-126451485D02*
X78616666Y-126451485D01*
X78092856Y-126213390D02*
X78188094Y-126165771D01*
X78188094Y-126165771D02*
X78235713Y-126118152D01*
X78235713Y-126118152D02*
X78283332Y-126022914D01*
X78283332Y-126022914D02*
X78283332Y-125975295D01*
X78283332Y-125975295D02*
X78235713Y-125880057D01*
X78235713Y-125880057D02*
X78188094Y-125832438D01*
X78188094Y-125832438D02*
X78092856Y-125784819D01*
X78092856Y-125784819D02*
X77902380Y-125784819D01*
X77902380Y-125784819D02*
X77807142Y-125832438D01*
X77807142Y-125832438D02*
X77759523Y-125880057D01*
X77759523Y-125880057D02*
X77711904Y-125975295D01*
X77711904Y-125975295D02*
X77711904Y-126022914D01*
X77711904Y-126022914D02*
X77759523Y-126118152D01*
X77759523Y-126118152D02*
X77807142Y-126165771D01*
X77807142Y-126165771D02*
X77902380Y-126213390D01*
X77902380Y-126213390D02*
X78092856Y-126213390D01*
X78092856Y-126213390D02*
X78188094Y-126261009D01*
X78188094Y-126261009D02*
X78235713Y-126308628D01*
X78235713Y-126308628D02*
X78283332Y-126403866D01*
X78283332Y-126403866D02*
X78283332Y-126594342D01*
X78283332Y-126594342D02*
X78235713Y-126689580D01*
X78235713Y-126689580D02*
X78188094Y-126737200D01*
X78188094Y-126737200D02*
X78092856Y-126784819D01*
X78092856Y-126784819D02*
X77902380Y-126784819D01*
X77902380Y-126784819D02*
X77807142Y-126737200D01*
X77807142Y-126737200D02*
X77759523Y-126689580D01*
X77759523Y-126689580D02*
X77711904Y-126594342D01*
X77711904Y-126594342D02*
X77711904Y-126403866D01*
X77711904Y-126403866D02*
X77759523Y-126308628D01*
X77759523Y-126308628D02*
X77807142Y-126261009D01*
X77807142Y-126261009D02*
X77902380Y-126213390D01*
X106155238Y-118860057D02*
X106250476Y-118812438D01*
X106250476Y-118812438D02*
X106345714Y-118717200D01*
X106345714Y-118717200D02*
X106488571Y-118574342D01*
X106488571Y-118574342D02*
X106583809Y-118526723D01*
X106583809Y-118526723D02*
X106679047Y-118526723D01*
X106631428Y-118764819D02*
X106726666Y-118717200D01*
X106726666Y-118717200D02*
X106821904Y-118621961D01*
X106821904Y-118621961D02*
X106869523Y-118431485D01*
X106869523Y-118431485D02*
X106869523Y-118098152D01*
X106869523Y-118098152D02*
X106821904Y-117907676D01*
X106821904Y-117907676D02*
X106726666Y-117812438D01*
X106726666Y-117812438D02*
X106631428Y-117764819D01*
X106631428Y-117764819D02*
X106440952Y-117764819D01*
X106440952Y-117764819D02*
X106345714Y-117812438D01*
X106345714Y-117812438D02*
X106250476Y-117907676D01*
X106250476Y-117907676D02*
X106202857Y-118098152D01*
X106202857Y-118098152D02*
X106202857Y-118431485D01*
X106202857Y-118431485D02*
X106250476Y-118621961D01*
X106250476Y-118621961D02*
X106345714Y-118717200D01*
X106345714Y-118717200D02*
X106440952Y-118764819D01*
X106440952Y-118764819D02*
X106631428Y-118764819D01*
X105250476Y-118764819D02*
X105821904Y-118764819D01*
X105536190Y-118764819D02*
X105536190Y-117764819D01*
X105536190Y-117764819D02*
X105631428Y-117907676D01*
X105631428Y-117907676D02*
X105726666Y-118002914D01*
X105726666Y-118002914D02*
X105821904Y-118050533D01*
X98813220Y-61734819D02*
X98813220Y-60734819D01*
X98241792Y-61734819D02*
X98670363Y-61163390D01*
X98241792Y-60734819D02*
X98813220Y-61306247D01*
X79945238Y-120020057D02*
X80040476Y-119972438D01*
X80040476Y-119972438D02*
X80135714Y-119877200D01*
X80135714Y-119877200D02*
X80278571Y-119734342D01*
X80278571Y-119734342D02*
X80373809Y-119686723D01*
X80373809Y-119686723D02*
X80469047Y-119686723D01*
X80421428Y-119924819D02*
X80516666Y-119877200D01*
X80516666Y-119877200D02*
X80611904Y-119781961D01*
X80611904Y-119781961D02*
X80659523Y-119591485D01*
X80659523Y-119591485D02*
X80659523Y-119258152D01*
X80659523Y-119258152D02*
X80611904Y-119067676D01*
X80611904Y-119067676D02*
X80516666Y-118972438D01*
X80516666Y-118972438D02*
X80421428Y-118924819D01*
X80421428Y-118924819D02*
X80230952Y-118924819D01*
X80230952Y-118924819D02*
X80135714Y-118972438D01*
X80135714Y-118972438D02*
X80040476Y-119067676D01*
X80040476Y-119067676D02*
X79992857Y-119258152D01*
X79992857Y-119258152D02*
X79992857Y-119591485D01*
X79992857Y-119591485D02*
X80040476Y-119781961D01*
X80040476Y-119781961D02*
X80135714Y-119877200D01*
X80135714Y-119877200D02*
X80230952Y-119924819D01*
X80230952Y-119924819D02*
X80421428Y-119924819D01*
X79611904Y-119020057D02*
X79564285Y-118972438D01*
X79564285Y-118972438D02*
X79469047Y-118924819D01*
X79469047Y-118924819D02*
X79230952Y-118924819D01*
X79230952Y-118924819D02*
X79135714Y-118972438D01*
X79135714Y-118972438D02*
X79088095Y-119020057D01*
X79088095Y-119020057D02*
X79040476Y-119115295D01*
X79040476Y-119115295D02*
X79040476Y-119210533D01*
X79040476Y-119210533D02*
X79088095Y-119353390D01*
X79088095Y-119353390D02*
X79659523Y-119924819D01*
X79659523Y-119924819D02*
X79040476Y-119924819D01*
X92916666Y-91269819D02*
X93249999Y-90793628D01*
X93488094Y-91269819D02*
X93488094Y-90269819D01*
X93488094Y-90269819D02*
X93107142Y-90269819D01*
X93107142Y-90269819D02*
X93011904Y-90317438D01*
X93011904Y-90317438D02*
X92964285Y-90365057D01*
X92964285Y-90365057D02*
X92916666Y-90460295D01*
X92916666Y-90460295D02*
X92916666Y-90603152D01*
X92916666Y-90603152D02*
X92964285Y-90698390D01*
X92964285Y-90698390D02*
X93011904Y-90746009D01*
X93011904Y-90746009D02*
X93107142Y-90793628D01*
X93107142Y-90793628D02*
X93488094Y-90793628D01*
X92059523Y-90269819D02*
X92249999Y-90269819D01*
X92249999Y-90269819D02*
X92345237Y-90317438D01*
X92345237Y-90317438D02*
X92392856Y-90365057D01*
X92392856Y-90365057D02*
X92488094Y-90507914D01*
X92488094Y-90507914D02*
X92535713Y-90698390D01*
X92535713Y-90698390D02*
X92535713Y-91079342D01*
X92535713Y-91079342D02*
X92488094Y-91174580D01*
X92488094Y-91174580D02*
X92440475Y-91222200D01*
X92440475Y-91222200D02*
X92345237Y-91269819D01*
X92345237Y-91269819D02*
X92154761Y-91269819D01*
X92154761Y-91269819D02*
X92059523Y-91222200D01*
X92059523Y-91222200D02*
X92011904Y-91174580D01*
X92011904Y-91174580D02*
X91964285Y-91079342D01*
X91964285Y-91079342D02*
X91964285Y-90841247D01*
X91964285Y-90841247D02*
X92011904Y-90746009D01*
X92011904Y-90746009D02*
X92059523Y-90698390D01*
X92059523Y-90698390D02*
X92154761Y-90650771D01*
X92154761Y-90650771D02*
X92345237Y-90650771D01*
X92345237Y-90650771D02*
X92440475Y-90698390D01*
X92440475Y-90698390D02*
X92488094Y-90746009D01*
X92488094Y-90746009D02*
X92535713Y-90841247D01*
X93740476Y-88669819D02*
X94311904Y-88669819D01*
X94026190Y-88669819D02*
X94026190Y-87669819D01*
X94026190Y-87669819D02*
X94121428Y-87812676D01*
X94121428Y-87812676D02*
X94216666Y-87907914D01*
X94216666Y-87907914D02*
X94311904Y-87955533D01*
X93121428Y-87669819D02*
X93026190Y-87669819D01*
X93026190Y-87669819D02*
X92930952Y-87717438D01*
X92930952Y-87717438D02*
X92883333Y-87765057D01*
X92883333Y-87765057D02*
X92835714Y-87860295D01*
X92835714Y-87860295D02*
X92788095Y-88050771D01*
X92788095Y-88050771D02*
X92788095Y-88288866D01*
X92788095Y-88288866D02*
X92835714Y-88479342D01*
X92835714Y-88479342D02*
X92883333Y-88574580D01*
X92883333Y-88574580D02*
X92930952Y-88622200D01*
X92930952Y-88622200D02*
X93026190Y-88669819D01*
X93026190Y-88669819D02*
X93121428Y-88669819D01*
X93121428Y-88669819D02*
X93216666Y-88622200D01*
X93216666Y-88622200D02*
X93264285Y-88574580D01*
X93264285Y-88574580D02*
X93311904Y-88479342D01*
X93311904Y-88479342D02*
X93359523Y-88288866D01*
X93359523Y-88288866D02*
X93359523Y-88050771D01*
X93359523Y-88050771D02*
X93311904Y-87860295D01*
X93311904Y-87860295D02*
X93264285Y-87765057D01*
X93264285Y-87765057D02*
X93216666Y-87717438D01*
X93216666Y-87717438D02*
X93121428Y-87669819D01*
X91788095Y-88669819D02*
X92121428Y-88193628D01*
X92359523Y-88669819D02*
X92359523Y-87669819D01*
X92359523Y-87669819D02*
X91978571Y-87669819D01*
X91978571Y-87669819D02*
X91883333Y-87717438D01*
X91883333Y-87717438D02*
X91835714Y-87765057D01*
X91835714Y-87765057D02*
X91788095Y-87860295D01*
X91788095Y-87860295D02*
X91788095Y-88003152D01*
X91788095Y-88003152D02*
X91835714Y-88098390D01*
X91835714Y-88098390D02*
X91883333Y-88146009D01*
X91883333Y-88146009D02*
X91978571Y-88193628D01*
X91978571Y-88193628D02*
X92359523Y-88193628D01*
X92816666Y-109119819D02*
X93149999Y-108643628D01*
X93388094Y-109119819D02*
X93388094Y-108119819D01*
X93388094Y-108119819D02*
X93007142Y-108119819D01*
X93007142Y-108119819D02*
X92911904Y-108167438D01*
X92911904Y-108167438D02*
X92864285Y-108215057D01*
X92864285Y-108215057D02*
X92816666Y-108310295D01*
X92816666Y-108310295D02*
X92816666Y-108453152D01*
X92816666Y-108453152D02*
X92864285Y-108548390D01*
X92864285Y-108548390D02*
X92911904Y-108596009D01*
X92911904Y-108596009D02*
X93007142Y-108643628D01*
X93007142Y-108643628D02*
X93388094Y-108643628D01*
X92483332Y-108119819D02*
X91864285Y-108119819D01*
X91864285Y-108119819D02*
X92197618Y-108500771D01*
X92197618Y-108500771D02*
X92054761Y-108500771D01*
X92054761Y-108500771D02*
X91959523Y-108548390D01*
X91959523Y-108548390D02*
X91911904Y-108596009D01*
X91911904Y-108596009D02*
X91864285Y-108691247D01*
X91864285Y-108691247D02*
X91864285Y-108929342D01*
X91864285Y-108929342D02*
X91911904Y-109024580D01*
X91911904Y-109024580D02*
X91959523Y-109072200D01*
X91959523Y-109072200D02*
X92054761Y-109119819D01*
X92054761Y-109119819D02*
X92340475Y-109119819D01*
X92340475Y-109119819D02*
X92435713Y-109072200D01*
X92435713Y-109072200D02*
X92483332Y-109024580D01*
X93682807Y-105816419D02*
X94158997Y-105816419D01*
X94158997Y-105816419D02*
X94206616Y-106292609D01*
X94206616Y-106292609D02*
X94158997Y-106244990D01*
X94158997Y-106244990D02*
X94063759Y-106197371D01*
X94063759Y-106197371D02*
X93825664Y-106197371D01*
X93825664Y-106197371D02*
X93730426Y-106244990D01*
X93730426Y-106244990D02*
X93682807Y-106292609D01*
X93682807Y-106292609D02*
X93635188Y-106387847D01*
X93635188Y-106387847D02*
X93635188Y-106625942D01*
X93635188Y-106625942D02*
X93682807Y-106721180D01*
X93682807Y-106721180D02*
X93730426Y-106768800D01*
X93730426Y-106768800D02*
X93825664Y-106816419D01*
X93825664Y-106816419D02*
X94063759Y-106816419D01*
X94063759Y-106816419D02*
X94158997Y-106768800D01*
X94158997Y-106768800D02*
X94206616Y-106721180D01*
X92778045Y-105816419D02*
X92968521Y-105816419D01*
X92968521Y-105816419D02*
X93063759Y-105864038D01*
X93063759Y-105864038D02*
X93111378Y-105911657D01*
X93111378Y-105911657D02*
X93206616Y-106054514D01*
X93206616Y-106054514D02*
X93254235Y-106244990D01*
X93254235Y-106244990D02*
X93254235Y-106625942D01*
X93254235Y-106625942D02*
X93206616Y-106721180D01*
X93206616Y-106721180D02*
X93158997Y-106768800D01*
X93158997Y-106768800D02*
X93063759Y-106816419D01*
X93063759Y-106816419D02*
X92873283Y-106816419D01*
X92873283Y-106816419D02*
X92778045Y-106768800D01*
X92778045Y-106768800D02*
X92730426Y-106721180D01*
X92730426Y-106721180D02*
X92682807Y-106625942D01*
X92682807Y-106625942D02*
X92682807Y-106387847D01*
X92682807Y-106387847D02*
X92730426Y-106292609D01*
X92730426Y-106292609D02*
X92778045Y-106244990D01*
X92778045Y-106244990D02*
X92873283Y-106197371D01*
X92873283Y-106197371D02*
X93063759Y-106197371D01*
X93063759Y-106197371D02*
X93158997Y-106244990D01*
X93158997Y-106244990D02*
X93206616Y-106292609D01*
X93206616Y-106292609D02*
X93254235Y-106387847D01*
X92063759Y-105816419D02*
X91968521Y-105816419D01*
X91968521Y-105816419D02*
X91873283Y-105864038D01*
X91873283Y-105864038D02*
X91825664Y-105911657D01*
X91825664Y-105911657D02*
X91778045Y-106006895D01*
X91778045Y-106006895D02*
X91730426Y-106197371D01*
X91730426Y-106197371D02*
X91730426Y-106435466D01*
X91730426Y-106435466D02*
X91778045Y-106625942D01*
X91778045Y-106625942D02*
X91825664Y-106721180D01*
X91825664Y-106721180D02*
X91873283Y-106768800D01*
X91873283Y-106768800D02*
X91968521Y-106816419D01*
X91968521Y-106816419D02*
X92063759Y-106816419D01*
X92063759Y-106816419D02*
X92158997Y-106768800D01*
X92158997Y-106768800D02*
X92206616Y-106721180D01*
X92206616Y-106721180D02*
X92254235Y-106625942D01*
X92254235Y-106625942D02*
X92301854Y-106435466D01*
X92301854Y-106435466D02*
X92301854Y-106197371D01*
X92301854Y-106197371D02*
X92254235Y-106006895D01*
X92254235Y-106006895D02*
X92206616Y-105911657D01*
X92206616Y-105911657D02*
X92158997Y-105864038D01*
X92158997Y-105864038D02*
X92063759Y-105816419D01*
X91301854Y-106816419D02*
X91301854Y-105816419D01*
X91206616Y-106435466D02*
X90920902Y-106816419D01*
X90920902Y-106149752D02*
X91301854Y-106530704D01*
X83504819Y-103826905D02*
X82504819Y-103826905D01*
X82504819Y-103826905D02*
X82504819Y-104065000D01*
X82504819Y-104065000D02*
X82552438Y-104207857D01*
X82552438Y-104207857D02*
X82647676Y-104303095D01*
X82647676Y-104303095D02*
X82742914Y-104350714D01*
X82742914Y-104350714D02*
X82933390Y-104398333D01*
X82933390Y-104398333D02*
X83076247Y-104398333D01*
X83076247Y-104398333D02*
X83266723Y-104350714D01*
X83266723Y-104350714D02*
X83361961Y-104303095D01*
X83361961Y-104303095D02*
X83457200Y-104207857D01*
X83457200Y-104207857D02*
X83504819Y-104065000D01*
X83504819Y-104065000D02*
X83504819Y-103826905D01*
X82504819Y-104731667D02*
X82504819Y-105350714D01*
X82504819Y-105350714D02*
X82885771Y-105017381D01*
X82885771Y-105017381D02*
X82885771Y-105160238D01*
X82885771Y-105160238D02*
X82933390Y-105255476D01*
X82933390Y-105255476D02*
X82981009Y-105303095D01*
X82981009Y-105303095D02*
X83076247Y-105350714D01*
X83076247Y-105350714D02*
X83314342Y-105350714D01*
X83314342Y-105350714D02*
X83409580Y-105303095D01*
X83409580Y-105303095D02*
X83457200Y-105255476D01*
X83457200Y-105255476D02*
X83504819Y-105160238D01*
X83504819Y-105160238D02*
X83504819Y-104874524D01*
X83504819Y-104874524D02*
X83457200Y-104779286D01*
X83457200Y-104779286D02*
X83409580Y-104731667D01*
X85454819Y-102422142D02*
X85454819Y-101850714D01*
X85454819Y-102136428D02*
X84454819Y-102136428D01*
X84454819Y-102136428D02*
X84597676Y-102041190D01*
X84597676Y-102041190D02*
X84692914Y-101945952D01*
X84692914Y-101945952D02*
X84740533Y-101850714D01*
X85454819Y-102850714D02*
X84454819Y-102850714D01*
X84454819Y-102850714D02*
X85454819Y-103422142D01*
X85454819Y-103422142D02*
X84454819Y-103422142D01*
X84788152Y-104326904D02*
X85454819Y-104326904D01*
X84407200Y-104088809D02*
X85121485Y-103850714D01*
X85121485Y-103850714D02*
X85121485Y-104469761D01*
X85454819Y-105374523D02*
X85454819Y-104803095D01*
X85454819Y-105088809D02*
X84454819Y-105088809D01*
X84454819Y-105088809D02*
X84597676Y-104993571D01*
X84597676Y-104993571D02*
X84692914Y-104898333D01*
X84692914Y-104898333D02*
X84740533Y-104803095D01*
X84788152Y-106231666D02*
X85454819Y-106231666D01*
X84407200Y-105993571D02*
X85121485Y-105755476D01*
X85121485Y-105755476D02*
X85121485Y-106374523D01*
X84883390Y-106898333D02*
X84835771Y-106803095D01*
X84835771Y-106803095D02*
X84788152Y-106755476D01*
X84788152Y-106755476D02*
X84692914Y-106707857D01*
X84692914Y-106707857D02*
X84645295Y-106707857D01*
X84645295Y-106707857D02*
X84550057Y-106755476D01*
X84550057Y-106755476D02*
X84502438Y-106803095D01*
X84502438Y-106803095D02*
X84454819Y-106898333D01*
X84454819Y-106898333D02*
X84454819Y-107088809D01*
X84454819Y-107088809D02*
X84502438Y-107184047D01*
X84502438Y-107184047D02*
X84550057Y-107231666D01*
X84550057Y-107231666D02*
X84645295Y-107279285D01*
X84645295Y-107279285D02*
X84692914Y-107279285D01*
X84692914Y-107279285D02*
X84788152Y-107231666D01*
X84788152Y-107231666D02*
X84835771Y-107184047D01*
X84835771Y-107184047D02*
X84883390Y-107088809D01*
X84883390Y-107088809D02*
X84883390Y-106898333D01*
X84883390Y-106898333D02*
X84931009Y-106803095D01*
X84931009Y-106803095D02*
X84978628Y-106755476D01*
X84978628Y-106755476D02*
X85073866Y-106707857D01*
X85073866Y-106707857D02*
X85264342Y-106707857D01*
X85264342Y-106707857D02*
X85359580Y-106755476D01*
X85359580Y-106755476D02*
X85407200Y-106803095D01*
X85407200Y-106803095D02*
X85454819Y-106898333D01*
X85454819Y-106898333D02*
X85454819Y-107088809D01*
X85454819Y-107088809D02*
X85407200Y-107184047D01*
X85407200Y-107184047D02*
X85359580Y-107231666D01*
X85359580Y-107231666D02*
X85264342Y-107279285D01*
X85264342Y-107279285D02*
X85073866Y-107279285D01*
X85073866Y-107279285D02*
X84978628Y-107231666D01*
X84978628Y-107231666D02*
X84931009Y-107184047D01*
X84931009Y-107184047D02*
X84883390Y-107088809D01*
X85204819Y-108403095D02*
X84204819Y-108403095D01*
X85204819Y-108974523D02*
X84633390Y-108545952D01*
X84204819Y-108974523D02*
X84776247Y-108403095D01*
X109807200Y-102753095D02*
X109854819Y-102895952D01*
X109854819Y-102895952D02*
X109854819Y-103134047D01*
X109854819Y-103134047D02*
X109807200Y-103229285D01*
X109807200Y-103229285D02*
X109759580Y-103276904D01*
X109759580Y-103276904D02*
X109664342Y-103324523D01*
X109664342Y-103324523D02*
X109569104Y-103324523D01*
X109569104Y-103324523D02*
X109473866Y-103276904D01*
X109473866Y-103276904D02*
X109426247Y-103229285D01*
X109426247Y-103229285D02*
X109378628Y-103134047D01*
X109378628Y-103134047D02*
X109331009Y-102943571D01*
X109331009Y-102943571D02*
X109283390Y-102848333D01*
X109283390Y-102848333D02*
X109235771Y-102800714D01*
X109235771Y-102800714D02*
X109140533Y-102753095D01*
X109140533Y-102753095D02*
X109045295Y-102753095D01*
X109045295Y-102753095D02*
X108950057Y-102800714D01*
X108950057Y-102800714D02*
X108902438Y-102848333D01*
X108902438Y-102848333D02*
X108854819Y-102943571D01*
X108854819Y-102943571D02*
X108854819Y-103181666D01*
X108854819Y-103181666D02*
X108902438Y-103324523D01*
X109854819Y-104276904D02*
X109854819Y-103705476D01*
X109854819Y-103991190D02*
X108854819Y-103991190D01*
X108854819Y-103991190D02*
X108997676Y-103895952D01*
X108997676Y-103895952D02*
X109092914Y-103800714D01*
X109092914Y-103800714D02*
X109140533Y-103705476D01*
X92746666Y-120969819D02*
X93079999Y-120493628D01*
X93318094Y-120969819D02*
X93318094Y-119969819D01*
X93318094Y-119969819D02*
X92937142Y-119969819D01*
X92937142Y-119969819D02*
X92841904Y-120017438D01*
X92841904Y-120017438D02*
X92794285Y-120065057D01*
X92794285Y-120065057D02*
X92746666Y-120160295D01*
X92746666Y-120160295D02*
X92746666Y-120303152D01*
X92746666Y-120303152D02*
X92794285Y-120398390D01*
X92794285Y-120398390D02*
X92841904Y-120446009D01*
X92841904Y-120446009D02*
X92937142Y-120493628D01*
X92937142Y-120493628D02*
X93318094Y-120493628D01*
X91841904Y-119969819D02*
X92318094Y-119969819D01*
X92318094Y-119969819D02*
X92365713Y-120446009D01*
X92365713Y-120446009D02*
X92318094Y-120398390D01*
X92318094Y-120398390D02*
X92222856Y-120350771D01*
X92222856Y-120350771D02*
X91984761Y-120350771D01*
X91984761Y-120350771D02*
X91889523Y-120398390D01*
X91889523Y-120398390D02*
X91841904Y-120446009D01*
X91841904Y-120446009D02*
X91794285Y-120541247D01*
X91794285Y-120541247D02*
X91794285Y-120779342D01*
X91794285Y-120779342D02*
X91841904Y-120874580D01*
X91841904Y-120874580D02*
X91889523Y-120922200D01*
X91889523Y-120922200D02*
X91984761Y-120969819D01*
X91984761Y-120969819D02*
X92222856Y-120969819D01*
X92222856Y-120969819D02*
X92318094Y-120922200D01*
X92318094Y-120922200D02*
X92365713Y-120874580D01*
X93340476Y-118003152D02*
X93340476Y-118669819D01*
X93578571Y-117622200D02*
X93816666Y-118336485D01*
X93816666Y-118336485D02*
X93197619Y-118336485D01*
X92816666Y-118669819D02*
X92816666Y-117669819D01*
X92721428Y-118288866D02*
X92435714Y-118669819D01*
X92435714Y-118003152D02*
X92816666Y-118384104D01*
X92102380Y-117669819D02*
X91435714Y-117669819D01*
X91435714Y-117669819D02*
X91864285Y-118669819D01*
D11*
X66301714Y-119739019D02*
X66301714Y-120548542D01*
X66301714Y-120548542D02*
X66258857Y-120643780D01*
X66258857Y-120643780D02*
X66216000Y-120691400D01*
X66216000Y-120691400D02*
X66130285Y-120739019D01*
X66130285Y-120739019D02*
X65958857Y-120739019D01*
X65958857Y-120739019D02*
X65873142Y-120691400D01*
X65873142Y-120691400D02*
X65830285Y-120643780D01*
X65830285Y-120643780D02*
X65787428Y-120548542D01*
X65787428Y-120548542D02*
X65787428Y-119739019D01*
X65401714Y-119834257D02*
X65358857Y-119786638D01*
X65358857Y-119786638D02*
X65273143Y-119739019D01*
X65273143Y-119739019D02*
X65058857Y-119739019D01*
X65058857Y-119739019D02*
X64973143Y-119786638D01*
X64973143Y-119786638D02*
X64930285Y-119834257D01*
X64930285Y-119834257D02*
X64887428Y-119929495D01*
X64887428Y-119929495D02*
X64887428Y-120024733D01*
X64887428Y-120024733D02*
X64930285Y-120167590D01*
X64930285Y-120167590D02*
X65444571Y-120739019D01*
X65444571Y-120739019D02*
X64887428Y-120739019D01*
X74394570Y-116095209D02*
X74265998Y-116142828D01*
X74265998Y-116142828D02*
X74223141Y-116190447D01*
X74223141Y-116190447D02*
X74180284Y-116285685D01*
X74180284Y-116285685D02*
X74180284Y-116428542D01*
X74180284Y-116428542D02*
X74223141Y-116523780D01*
X74223141Y-116523780D02*
X74265998Y-116571400D01*
X74265998Y-116571400D02*
X74351713Y-116619019D01*
X74351713Y-116619019D02*
X74694570Y-116619019D01*
X74694570Y-116619019D02*
X74694570Y-115619019D01*
X74694570Y-115619019D02*
X74394570Y-115619019D01*
X74394570Y-115619019D02*
X74308856Y-115666638D01*
X74308856Y-115666638D02*
X74265998Y-115714257D01*
X74265998Y-115714257D02*
X74223141Y-115809495D01*
X74223141Y-115809495D02*
X74223141Y-115904733D01*
X74223141Y-115904733D02*
X74265998Y-115999971D01*
X74265998Y-115999971D02*
X74308856Y-116047590D01*
X74308856Y-116047590D02*
X74394570Y-116095209D01*
X74394570Y-116095209D02*
X74694570Y-116095209D01*
X73837427Y-116333304D02*
X73408856Y-116333304D01*
X73923141Y-116619019D02*
X73623141Y-115619019D01*
X73623141Y-115619019D02*
X73323141Y-116619019D01*
X73151712Y-115619019D02*
X72637427Y-115619019D01*
X72894569Y-116619019D02*
X72894569Y-115619019D01*
X72551713Y-116714257D02*
X71865998Y-116714257D01*
X71651713Y-116619019D02*
X71651713Y-115619019D01*
X71651713Y-116095209D02*
X71137427Y-116095209D01*
X71137427Y-116619019D02*
X71137427Y-115619019D01*
X70280284Y-116619019D02*
X70708856Y-116619019D01*
X70708856Y-116619019D02*
X70708856Y-115619019D01*
X69980285Y-116619019D02*
X69980285Y-115619019D01*
X69980285Y-115619019D02*
X69765999Y-115619019D01*
X69765999Y-115619019D02*
X69637428Y-115666638D01*
X69637428Y-115666638D02*
X69551713Y-115761876D01*
X69551713Y-115761876D02*
X69508856Y-115857114D01*
X69508856Y-115857114D02*
X69465999Y-116047590D01*
X69465999Y-116047590D02*
X69465999Y-116190447D01*
X69465999Y-116190447D02*
X69508856Y-116380923D01*
X69508856Y-116380923D02*
X69551713Y-116476161D01*
X69551713Y-116476161D02*
X69637428Y-116571400D01*
X69637428Y-116571400D02*
X69765999Y-116619019D01*
X69765999Y-116619019D02*
X69980285Y-116619019D01*
X69294571Y-116714257D02*
X68608856Y-116714257D01*
X68437428Y-116571400D02*
X68308857Y-116619019D01*
X68308857Y-116619019D02*
X68094571Y-116619019D01*
X68094571Y-116619019D02*
X68008857Y-116571400D01*
X68008857Y-116571400D02*
X67965999Y-116523780D01*
X67965999Y-116523780D02*
X67923142Y-116428542D01*
X67923142Y-116428542D02*
X67923142Y-116333304D01*
X67923142Y-116333304D02*
X67965999Y-116238066D01*
X67965999Y-116238066D02*
X68008857Y-116190447D01*
X68008857Y-116190447D02*
X68094571Y-116142828D01*
X68094571Y-116142828D02*
X68265999Y-116095209D01*
X68265999Y-116095209D02*
X68351714Y-116047590D01*
X68351714Y-116047590D02*
X68394571Y-115999971D01*
X68394571Y-115999971D02*
X68437428Y-115904733D01*
X68437428Y-115904733D02*
X68437428Y-115809495D01*
X68437428Y-115809495D02*
X68394571Y-115714257D01*
X68394571Y-115714257D02*
X68351714Y-115666638D01*
X68351714Y-115666638D02*
X68265999Y-115619019D01*
X68265999Y-115619019D02*
X68051714Y-115619019D01*
X68051714Y-115619019D02*
X67923142Y-115666638D01*
X67537428Y-116619019D02*
X67537428Y-115619019D01*
X67537428Y-115619019D02*
X67237428Y-116333304D01*
X67237428Y-116333304D02*
X66937428Y-115619019D01*
X66937428Y-115619019D02*
X66937428Y-116619019D01*
X66508857Y-116619019D02*
X66508857Y-115619019D01*
X66508857Y-115619019D02*
X66294571Y-115619019D01*
X66294571Y-115619019D02*
X66166000Y-115666638D01*
X66166000Y-115666638D02*
X66080285Y-115761876D01*
X66080285Y-115761876D02*
X66037428Y-115857114D01*
X66037428Y-115857114D02*
X65994571Y-116047590D01*
X65994571Y-116047590D02*
X65994571Y-116190447D01*
X65994571Y-116190447D02*
X66037428Y-116380923D01*
X66037428Y-116380923D02*
X66080285Y-116476161D01*
X66080285Y-116476161D02*
X66166000Y-116571400D01*
X66166000Y-116571400D02*
X66294571Y-116619019D01*
X66294571Y-116619019D02*
X66508857Y-116619019D01*
D10*
X94327619Y-103069819D02*
X94660952Y-102593628D01*
X94899047Y-103069819D02*
X94899047Y-102069819D01*
X94899047Y-102069819D02*
X94518095Y-102069819D01*
X94518095Y-102069819D02*
X94422857Y-102117438D01*
X94422857Y-102117438D02*
X94375238Y-102165057D01*
X94375238Y-102165057D02*
X94327619Y-102260295D01*
X94327619Y-102260295D02*
X94327619Y-102403152D01*
X94327619Y-102403152D02*
X94375238Y-102498390D01*
X94375238Y-102498390D02*
X94422857Y-102546009D01*
X94422857Y-102546009D02*
X94518095Y-102593628D01*
X94518095Y-102593628D02*
X94899047Y-102593628D01*
X93946666Y-102165057D02*
X93899047Y-102117438D01*
X93899047Y-102117438D02*
X93803809Y-102069819D01*
X93803809Y-102069819D02*
X93565714Y-102069819D01*
X93565714Y-102069819D02*
X93470476Y-102117438D01*
X93470476Y-102117438D02*
X93422857Y-102165057D01*
X93422857Y-102165057D02*
X93375238Y-102260295D01*
X93375238Y-102260295D02*
X93375238Y-102355533D01*
X93375238Y-102355533D02*
X93422857Y-102498390D01*
X93422857Y-102498390D02*
X93994285Y-103069819D01*
X93994285Y-103069819D02*
X93375238Y-103069819D01*
X92803809Y-103069819D02*
X92899047Y-103022200D01*
X92899047Y-103022200D02*
X92946666Y-102974580D01*
X92946666Y-102974580D02*
X92994285Y-102879342D01*
X92994285Y-102879342D02*
X92994285Y-102593628D01*
X92994285Y-102593628D02*
X92946666Y-102498390D01*
X92946666Y-102498390D02*
X92899047Y-102450771D01*
X92899047Y-102450771D02*
X92803809Y-102403152D01*
X92803809Y-102403152D02*
X92660952Y-102403152D01*
X92660952Y-102403152D02*
X92565714Y-102450771D01*
X92565714Y-102450771D02*
X92518095Y-102498390D01*
X92518095Y-102498390D02*
X92470476Y-102593628D01*
X92470476Y-102593628D02*
X92470476Y-102879342D01*
X92470476Y-102879342D02*
X92518095Y-102974580D01*
X92518095Y-102974580D02*
X92565714Y-103022200D01*
X92565714Y-103022200D02*
X92660952Y-103069819D01*
X92660952Y-103069819D02*
X92803809Y-103069819D01*
X92041904Y-102403152D02*
X92041904Y-103069819D01*
X92041904Y-102498390D02*
X91994285Y-102450771D01*
X91994285Y-102450771D02*
X91899047Y-102403152D01*
X91899047Y-102403152D02*
X91756190Y-102403152D01*
X91756190Y-102403152D02*
X91660952Y-102450771D01*
X91660952Y-102450771D02*
X91613333Y-102546009D01*
X91613333Y-102546009D02*
X91613333Y-103069819D01*
X91184761Y-102165057D02*
X91137142Y-102117438D01*
X91137142Y-102117438D02*
X91041904Y-102069819D01*
X91041904Y-102069819D02*
X90803809Y-102069819D01*
X90803809Y-102069819D02*
X90708571Y-102117438D01*
X90708571Y-102117438D02*
X90660952Y-102165057D01*
X90660952Y-102165057D02*
X90613333Y-102260295D01*
X90613333Y-102260295D02*
X90613333Y-102355533D01*
X90613333Y-102355533D02*
X90660952Y-102498390D01*
X90660952Y-102498390D02*
X91232380Y-103069819D01*
X91232380Y-103069819D02*
X90613333Y-103069819D01*
X93640476Y-100719819D02*
X94211904Y-100719819D01*
X93926190Y-100719819D02*
X93926190Y-99719819D01*
X93926190Y-99719819D02*
X94021428Y-99862676D01*
X94021428Y-99862676D02*
X94116666Y-99957914D01*
X94116666Y-99957914D02*
X94211904Y-100005533D01*
X92783333Y-99719819D02*
X92973809Y-99719819D01*
X92973809Y-99719819D02*
X93069047Y-99767438D01*
X93069047Y-99767438D02*
X93116666Y-99815057D01*
X93116666Y-99815057D02*
X93211904Y-99957914D01*
X93211904Y-99957914D02*
X93259523Y-100148390D01*
X93259523Y-100148390D02*
X93259523Y-100529342D01*
X93259523Y-100529342D02*
X93211904Y-100624580D01*
X93211904Y-100624580D02*
X93164285Y-100672200D01*
X93164285Y-100672200D02*
X93069047Y-100719819D01*
X93069047Y-100719819D02*
X92878571Y-100719819D01*
X92878571Y-100719819D02*
X92783333Y-100672200D01*
X92783333Y-100672200D02*
X92735714Y-100624580D01*
X92735714Y-100624580D02*
X92688095Y-100529342D01*
X92688095Y-100529342D02*
X92688095Y-100291247D01*
X92688095Y-100291247D02*
X92735714Y-100196009D01*
X92735714Y-100196009D02*
X92783333Y-100148390D01*
X92783333Y-100148390D02*
X92878571Y-100100771D01*
X92878571Y-100100771D02*
X93069047Y-100100771D01*
X93069047Y-100100771D02*
X93164285Y-100148390D01*
X93164285Y-100148390D02*
X93211904Y-100196009D01*
X93211904Y-100196009D02*
X93259523Y-100291247D01*
X92259523Y-100719819D02*
X92259523Y-99719819D01*
X91688095Y-100719819D02*
X92116666Y-100148390D01*
X91688095Y-99719819D02*
X92259523Y-100291247D01*
X94516667Y-97069819D02*
X94850000Y-96593628D01*
X95088095Y-97069819D02*
X95088095Y-96069819D01*
X95088095Y-96069819D02*
X94707143Y-96069819D01*
X94707143Y-96069819D02*
X94611905Y-96117438D01*
X94611905Y-96117438D02*
X94564286Y-96165057D01*
X94564286Y-96165057D02*
X94516667Y-96260295D01*
X94516667Y-96260295D02*
X94516667Y-96403152D01*
X94516667Y-96403152D02*
X94564286Y-96498390D01*
X94564286Y-96498390D02*
X94611905Y-96546009D01*
X94611905Y-96546009D02*
X94707143Y-96593628D01*
X94707143Y-96593628D02*
X95088095Y-96593628D01*
X93564286Y-97069819D02*
X94135714Y-97069819D01*
X93850000Y-97069819D02*
X93850000Y-96069819D01*
X93850000Y-96069819D02*
X93945238Y-96212676D01*
X93945238Y-96212676D02*
X94040476Y-96307914D01*
X94040476Y-96307914D02*
X94135714Y-96355533D01*
X92992857Y-97069819D02*
X93088095Y-97022200D01*
X93088095Y-97022200D02*
X93135714Y-96974580D01*
X93135714Y-96974580D02*
X93183333Y-96879342D01*
X93183333Y-96879342D02*
X93183333Y-96593628D01*
X93183333Y-96593628D02*
X93135714Y-96498390D01*
X93135714Y-96498390D02*
X93088095Y-96450771D01*
X93088095Y-96450771D02*
X92992857Y-96403152D01*
X92992857Y-96403152D02*
X92850000Y-96403152D01*
X92850000Y-96403152D02*
X92754762Y-96450771D01*
X92754762Y-96450771D02*
X92707143Y-96498390D01*
X92707143Y-96498390D02*
X92659524Y-96593628D01*
X92659524Y-96593628D02*
X92659524Y-96879342D01*
X92659524Y-96879342D02*
X92707143Y-96974580D01*
X92707143Y-96974580D02*
X92754762Y-97022200D01*
X92754762Y-97022200D02*
X92850000Y-97069819D01*
X92850000Y-97069819D02*
X92992857Y-97069819D01*
X92373809Y-96403152D02*
X91992857Y-96403152D01*
X92230952Y-97069819D02*
X92230952Y-96212676D01*
X92230952Y-96212676D02*
X92183333Y-96117438D01*
X92183333Y-96117438D02*
X92088095Y-96069819D01*
X92088095Y-96069819D02*
X91992857Y-96069819D01*
X91802380Y-96403152D02*
X91421428Y-96403152D01*
X91659523Y-97069819D02*
X91659523Y-96212676D01*
X91659523Y-96212676D02*
X91611904Y-96117438D01*
X91611904Y-96117438D02*
X91516666Y-96069819D01*
X91516666Y-96069819D02*
X91421428Y-96069819D01*
X90564285Y-97069819D02*
X91135713Y-97069819D01*
X90849999Y-97069819D02*
X90849999Y-96069819D01*
X90849999Y-96069819D02*
X90945237Y-96212676D01*
X90945237Y-96212676D02*
X91040475Y-96307914D01*
X91040475Y-96307914D02*
X91135713Y-96355533D01*
X93590476Y-94869819D02*
X94161904Y-94869819D01*
X93876190Y-94869819D02*
X93876190Y-93869819D01*
X93876190Y-93869819D02*
X93971428Y-94012676D01*
X93971428Y-94012676D02*
X94066666Y-94107914D01*
X94066666Y-94107914D02*
X94161904Y-94155533D01*
X93209523Y-93965057D02*
X93161904Y-93917438D01*
X93161904Y-93917438D02*
X93066666Y-93869819D01*
X93066666Y-93869819D02*
X92828571Y-93869819D01*
X92828571Y-93869819D02*
X92733333Y-93917438D01*
X92733333Y-93917438D02*
X92685714Y-93965057D01*
X92685714Y-93965057D02*
X92638095Y-94060295D01*
X92638095Y-94060295D02*
X92638095Y-94155533D01*
X92638095Y-94155533D02*
X92685714Y-94298390D01*
X92685714Y-94298390D02*
X93257142Y-94869819D01*
X93257142Y-94869819D02*
X92638095Y-94869819D01*
X92209523Y-94869819D02*
X92209523Y-93869819D01*
X91638095Y-94869819D02*
X92066666Y-94298390D01*
X91638095Y-93869819D02*
X92209523Y-94441247D01*
X92816666Y-115019819D02*
X93149999Y-114543628D01*
X93388094Y-115019819D02*
X93388094Y-114019819D01*
X93388094Y-114019819D02*
X93007142Y-114019819D01*
X93007142Y-114019819D02*
X92911904Y-114067438D01*
X92911904Y-114067438D02*
X92864285Y-114115057D01*
X92864285Y-114115057D02*
X92816666Y-114210295D01*
X92816666Y-114210295D02*
X92816666Y-114353152D01*
X92816666Y-114353152D02*
X92864285Y-114448390D01*
X92864285Y-114448390D02*
X92911904Y-114496009D01*
X92911904Y-114496009D02*
X93007142Y-114543628D01*
X93007142Y-114543628D02*
X93388094Y-114543628D01*
X91959523Y-114353152D02*
X91959523Y-115019819D01*
X92197618Y-113972200D02*
X92435713Y-114686485D01*
X92435713Y-114686485D02*
X91816666Y-114686485D01*
X94090475Y-111619819D02*
X93471428Y-111619819D01*
X93471428Y-111619819D02*
X93804761Y-112000771D01*
X93804761Y-112000771D02*
X93661904Y-112000771D01*
X93661904Y-112000771D02*
X93566666Y-112048390D01*
X93566666Y-112048390D02*
X93519047Y-112096009D01*
X93519047Y-112096009D02*
X93471428Y-112191247D01*
X93471428Y-112191247D02*
X93471428Y-112429342D01*
X93471428Y-112429342D02*
X93519047Y-112524580D01*
X93519047Y-112524580D02*
X93566666Y-112572200D01*
X93566666Y-112572200D02*
X93661904Y-112619819D01*
X93661904Y-112619819D02*
X93947618Y-112619819D01*
X93947618Y-112619819D02*
X94042856Y-112572200D01*
X94042856Y-112572200D02*
X94090475Y-112524580D01*
X92995237Y-112619819D02*
X92804761Y-112619819D01*
X92804761Y-112619819D02*
X92709523Y-112572200D01*
X92709523Y-112572200D02*
X92661904Y-112524580D01*
X92661904Y-112524580D02*
X92566666Y-112381723D01*
X92566666Y-112381723D02*
X92519047Y-112191247D01*
X92519047Y-112191247D02*
X92519047Y-111810295D01*
X92519047Y-111810295D02*
X92566666Y-111715057D01*
X92566666Y-111715057D02*
X92614285Y-111667438D01*
X92614285Y-111667438D02*
X92709523Y-111619819D01*
X92709523Y-111619819D02*
X92899999Y-111619819D01*
X92899999Y-111619819D02*
X92995237Y-111667438D01*
X92995237Y-111667438D02*
X93042856Y-111715057D01*
X93042856Y-111715057D02*
X93090475Y-111810295D01*
X93090475Y-111810295D02*
X93090475Y-112048390D01*
X93090475Y-112048390D02*
X93042856Y-112143628D01*
X93042856Y-112143628D02*
X92995237Y-112191247D01*
X92995237Y-112191247D02*
X92899999Y-112238866D01*
X92899999Y-112238866D02*
X92709523Y-112238866D01*
X92709523Y-112238866D02*
X92614285Y-112191247D01*
X92614285Y-112191247D02*
X92566666Y-112143628D01*
X92566666Y-112143628D02*
X92519047Y-112048390D01*
X91899999Y-111619819D02*
X91804761Y-111619819D01*
X91804761Y-111619819D02*
X91709523Y-111667438D01*
X91709523Y-111667438D02*
X91661904Y-111715057D01*
X91661904Y-111715057D02*
X91614285Y-111810295D01*
X91614285Y-111810295D02*
X91566666Y-112000771D01*
X91566666Y-112000771D02*
X91566666Y-112238866D01*
X91566666Y-112238866D02*
X91614285Y-112429342D01*
X91614285Y-112429342D02*
X91661904Y-112524580D01*
X91661904Y-112524580D02*
X91709523Y-112572200D01*
X91709523Y-112572200D02*
X91804761Y-112619819D01*
X91804761Y-112619819D02*
X91899999Y-112619819D01*
X91899999Y-112619819D02*
X91995237Y-112572200D01*
X91995237Y-112572200D02*
X92042856Y-112524580D01*
X92042856Y-112524580D02*
X92090475Y-112429342D01*
X92090475Y-112429342D02*
X92138094Y-112238866D01*
X92138094Y-112238866D02*
X92138094Y-112000771D01*
X92138094Y-112000771D02*
X92090475Y-111810295D01*
X92090475Y-111810295D02*
X92042856Y-111715057D01*
X92042856Y-111715057D02*
X91995237Y-111667438D01*
X91995237Y-111667438D02*
X91899999Y-111619819D01*
X91138094Y-112619819D02*
X91138094Y-111619819D01*
X91042856Y-112238866D02*
X90757142Y-112619819D01*
X90757142Y-111953152D02*
X91138094Y-112334104D01*
X69761904Y-95419819D02*
X69761904Y-96229342D01*
X69761904Y-96229342D02*
X69714285Y-96324580D01*
X69714285Y-96324580D02*
X69666666Y-96372200D01*
X69666666Y-96372200D02*
X69571428Y-96419819D01*
X69571428Y-96419819D02*
X69380952Y-96419819D01*
X69380952Y-96419819D02*
X69285714Y-96372200D01*
X69285714Y-96372200D02*
X69238095Y-96324580D01*
X69238095Y-96324580D02*
X69190476Y-96229342D01*
X69190476Y-96229342D02*
X69190476Y-95419819D01*
X68190476Y-96419819D02*
X68761904Y-96419819D01*
X68476190Y-96419819D02*
X68476190Y-95419819D01*
X68476190Y-95419819D02*
X68571428Y-95562676D01*
X68571428Y-95562676D02*
X68666666Y-95657914D01*
X68666666Y-95657914D02*
X68761904Y-95705533D01*
X71566666Y-89569819D02*
X71566666Y-88569819D01*
X71566666Y-88569819D02*
X70995238Y-89569819D01*
X70995238Y-89569819D02*
X70995238Y-88569819D01*
X70519047Y-89046009D02*
X70185714Y-89046009D01*
X70042857Y-89569819D02*
X70519047Y-89569819D01*
X70519047Y-89569819D02*
X70519047Y-88569819D01*
X70519047Y-88569819D02*
X70042857Y-88569819D01*
X69138095Y-88569819D02*
X69614285Y-88569819D01*
X69614285Y-88569819D02*
X69661904Y-89046009D01*
X69661904Y-89046009D02*
X69614285Y-88998390D01*
X69614285Y-88998390D02*
X69519047Y-88950771D01*
X69519047Y-88950771D02*
X69280952Y-88950771D01*
X69280952Y-88950771D02*
X69185714Y-88998390D01*
X69185714Y-88998390D02*
X69138095Y-89046009D01*
X69138095Y-89046009D02*
X69090476Y-89141247D01*
X69090476Y-89141247D02*
X69090476Y-89379342D01*
X69090476Y-89379342D02*
X69138095Y-89474580D01*
X69138095Y-89474580D02*
X69185714Y-89522200D01*
X69185714Y-89522200D02*
X69280952Y-89569819D01*
X69280952Y-89569819D02*
X69519047Y-89569819D01*
X69519047Y-89569819D02*
X69614285Y-89522200D01*
X69614285Y-89522200D02*
X69661904Y-89474580D01*
X68185714Y-88569819D02*
X68661904Y-88569819D01*
X68661904Y-88569819D02*
X68709523Y-89046009D01*
X68709523Y-89046009D02*
X68661904Y-88998390D01*
X68661904Y-88998390D02*
X68566666Y-88950771D01*
X68566666Y-88950771D02*
X68328571Y-88950771D01*
X68328571Y-88950771D02*
X68233333Y-88998390D01*
X68233333Y-88998390D02*
X68185714Y-89046009D01*
X68185714Y-89046009D02*
X68138095Y-89141247D01*
X68138095Y-89141247D02*
X68138095Y-89379342D01*
X68138095Y-89379342D02*
X68185714Y-89474580D01*
X68185714Y-89474580D02*
X68233333Y-89522200D01*
X68233333Y-89522200D02*
X68328571Y-89569819D01*
X68328571Y-89569819D02*
X68566666Y-89569819D01*
X68566666Y-89569819D02*
X68661904Y-89522200D01*
X68661904Y-89522200D02*
X68709523Y-89474580D01*
X67233333Y-88569819D02*
X67709523Y-88569819D01*
X67709523Y-88569819D02*
X67757142Y-89046009D01*
X67757142Y-89046009D02*
X67709523Y-88998390D01*
X67709523Y-88998390D02*
X67614285Y-88950771D01*
X67614285Y-88950771D02*
X67376190Y-88950771D01*
X67376190Y-88950771D02*
X67280952Y-88998390D01*
X67280952Y-88998390D02*
X67233333Y-89046009D01*
X67233333Y-89046009D02*
X67185714Y-89141247D01*
X67185714Y-89141247D02*
X67185714Y-89379342D01*
X67185714Y-89379342D02*
X67233333Y-89474580D01*
X67233333Y-89474580D02*
X67280952Y-89522200D01*
X67280952Y-89522200D02*
X67376190Y-89569819D01*
X67376190Y-89569819D02*
X67614285Y-89569819D01*
X67614285Y-89569819D02*
X67709523Y-89522200D01*
X67709523Y-89522200D02*
X67757142Y-89474580D01*
X66757142Y-89569819D02*
X66757142Y-88569819D01*
X66757142Y-88569819D02*
X66376190Y-88569819D01*
X66376190Y-88569819D02*
X66280952Y-88617438D01*
X66280952Y-88617438D02*
X66233333Y-88665057D01*
X66233333Y-88665057D02*
X66185714Y-88760295D01*
X66185714Y-88760295D02*
X66185714Y-88903152D01*
X66185714Y-88903152D02*
X66233333Y-88998390D01*
X66233333Y-88998390D02*
X66280952Y-89046009D01*
X66280952Y-89046009D02*
X66376190Y-89093628D01*
X66376190Y-89093628D02*
X66757142Y-89093628D01*
X77066666Y-100624580D02*
X77114285Y-100672200D01*
X77114285Y-100672200D02*
X77257142Y-100719819D01*
X77257142Y-100719819D02*
X77352380Y-100719819D01*
X77352380Y-100719819D02*
X77495237Y-100672200D01*
X77495237Y-100672200D02*
X77590475Y-100576961D01*
X77590475Y-100576961D02*
X77638094Y-100481723D01*
X77638094Y-100481723D02*
X77685713Y-100291247D01*
X77685713Y-100291247D02*
X77685713Y-100148390D01*
X77685713Y-100148390D02*
X77638094Y-99957914D01*
X77638094Y-99957914D02*
X77590475Y-99862676D01*
X77590475Y-99862676D02*
X77495237Y-99767438D01*
X77495237Y-99767438D02*
X77352380Y-99719819D01*
X77352380Y-99719819D02*
X77257142Y-99719819D01*
X77257142Y-99719819D02*
X77114285Y-99767438D01*
X77114285Y-99767438D02*
X77066666Y-99815057D01*
X76114285Y-100719819D02*
X76685713Y-100719819D01*
X76399999Y-100719819D02*
X76399999Y-99719819D01*
X76399999Y-99719819D02*
X76495237Y-99862676D01*
X76495237Y-99862676D02*
X76590475Y-99957914D01*
X76590475Y-99957914D02*
X76685713Y-100005533D01*
X78066666Y-108853152D02*
X78066666Y-109519819D01*
X78304761Y-108472200D02*
X78542856Y-109186485D01*
X78542856Y-109186485D02*
X77923809Y-109186485D01*
X77638094Y-108519819D02*
X76971428Y-108519819D01*
X76971428Y-108519819D02*
X77399999Y-109519819D01*
X76161904Y-108853152D02*
X76161904Y-109519819D01*
X76590475Y-108853152D02*
X76590475Y-109376961D01*
X76590475Y-109376961D02*
X76542856Y-109472200D01*
X76542856Y-109472200D02*
X76447618Y-109519819D01*
X76447618Y-109519819D02*
X76304761Y-109519819D01*
X76304761Y-109519819D02*
X76209523Y-109472200D01*
X76209523Y-109472200D02*
X76161904Y-109424580D01*
X75352380Y-108996009D02*
X75685713Y-108996009D01*
X75685713Y-109519819D02*
X75685713Y-108519819D01*
X75685713Y-108519819D02*
X75209523Y-108519819D01*
X76209047Y-94760057D02*
X76304285Y-94712438D01*
X76304285Y-94712438D02*
X76399523Y-94617200D01*
X76399523Y-94617200D02*
X76542380Y-94474342D01*
X76542380Y-94474342D02*
X76637618Y-94426723D01*
X76637618Y-94426723D02*
X76732856Y-94426723D01*
X76685237Y-94664819D02*
X76780475Y-94617200D01*
X76780475Y-94617200D02*
X76875713Y-94521961D01*
X76875713Y-94521961D02*
X76923332Y-94331485D01*
X76923332Y-94331485D02*
X76923332Y-93998152D01*
X76923332Y-93998152D02*
X76875713Y-93807676D01*
X76875713Y-93807676D02*
X76780475Y-93712438D01*
X76780475Y-93712438D02*
X76685237Y-93664819D01*
X76685237Y-93664819D02*
X76494761Y-93664819D01*
X76494761Y-93664819D02*
X76399523Y-93712438D01*
X76399523Y-93712438D02*
X76304285Y-93807676D01*
X76304285Y-93807676D02*
X76256666Y-93998152D01*
X76256666Y-93998152D02*
X76256666Y-94331485D01*
X76256666Y-94331485D02*
X76304285Y-94521961D01*
X76304285Y-94521961D02*
X76399523Y-94617200D01*
X76399523Y-94617200D02*
X76494761Y-94664819D01*
X76494761Y-94664819D02*
X76685237Y-94664819D01*
D11*
%TO.C,G\u002A\u002A\u002A*%
X84225000Y-72815000D02*
X84800000Y-73290000D01*
X84800000Y-73290000D02*
X85225000Y-72965000D01*
X85225000Y-72965000D02*
X84225000Y-72815000D01*
D12*
X85550000Y-74403605D02*
X86450000Y-74390000D01*
X85949999Y-75785050D02*
X85549999Y-75785050D01*
X85950000Y-74790000D02*
X85700000Y-74790000D01*
X85950000Y-74840000D02*
X85950000Y-75290000D01*
X85950000Y-75290000D02*
X85650000Y-75290000D01*
X85950000Y-75790000D02*
X85950000Y-76290000D01*
X85950000Y-76290000D02*
X85500000Y-76290000D01*
D11*
X86175000Y-72090000D02*
X86525000Y-70915000D01*
D12*
X86450000Y-74390000D02*
X86500000Y-76840000D01*
X86500000Y-76840000D02*
X85300000Y-76840000D01*
D11*
X86525000Y-70915000D02*
X88325000Y-70965000D01*
D12*
X86775000Y-76840000D02*
X87550000Y-74390000D01*
X87175000Y-76840000D02*
X86775000Y-76840000D01*
X87425000Y-76240000D02*
X87175000Y-76840000D01*
X87500000Y-75840000D02*
X87725000Y-75090000D01*
X87550000Y-74390000D02*
X87875000Y-74390000D01*
X87725000Y-75090000D02*
X88000000Y-75840000D01*
D11*
X87750000Y-73015000D02*
X89425000Y-73115000D01*
D12*
X87875000Y-74390000D02*
X88775000Y-76840000D01*
X88000000Y-75840000D02*
X87500000Y-75840000D01*
X88025000Y-76240000D02*
X87425000Y-76240000D01*
X88275000Y-76840000D02*
X88025000Y-76240000D01*
X88275000Y-76840000D02*
X88775000Y-76840000D01*
D11*
X88325000Y-70965000D02*
X86175000Y-72090000D01*
X88450000Y-72440000D02*
X87750000Y-73015000D01*
D12*
X88950000Y-76365000D02*
X88950000Y-76815000D01*
X88950000Y-76815000D02*
X90200000Y-76815000D01*
D11*
X89450000Y-73115000D02*
X88450000Y-72440000D01*
X89600000Y-72665000D02*
X91225000Y-73790000D01*
X89650000Y-70340000D02*
X90775000Y-71565000D01*
X89675000Y-69940000D02*
X89600000Y-72665000D01*
D12*
X89700000Y-76365000D02*
X88950000Y-76365000D01*
X89725000Y-74365000D02*
X89700000Y-76365000D01*
X90175000Y-74365000D02*
X89725000Y-74365000D01*
X90200000Y-76815000D02*
X90175000Y-74365000D01*
X90375000Y-76815000D02*
X91075000Y-75865000D01*
X90475000Y-76815000D02*
X90375000Y-76815000D01*
D11*
X90775000Y-71565000D02*
X90200000Y-73065000D01*
D12*
X90875000Y-76815000D02*
X90475000Y-76815000D01*
X91116269Y-74359594D02*
X92225000Y-74365000D01*
D11*
X91225000Y-73790000D02*
X92900000Y-73565000D01*
D12*
X91275000Y-74815000D02*
X91725000Y-74815000D01*
X91625000Y-75865000D02*
X90875000Y-76815000D01*
X91725000Y-74815000D02*
X91725000Y-75365000D01*
X91725000Y-75365000D02*
X91225000Y-75365000D01*
X91775000Y-75865000D02*
X91625000Y-75865000D01*
X91775000Y-76815000D02*
X91775000Y-75865000D01*
X92225000Y-74365000D02*
X92225000Y-76815000D01*
X92225000Y-76815000D02*
X91775000Y-76815000D01*
D11*
X92375000Y-74015000D02*
X93350000Y-74365000D01*
D12*
X92675000Y-74365000D02*
X93975000Y-74365000D01*
X92675000Y-74865000D02*
X92675000Y-74365000D01*
X92675000Y-76315000D02*
X93525000Y-76315000D01*
X92675000Y-76815000D02*
X92675000Y-76315000D01*
D11*
X92775000Y-73740000D02*
X92375000Y-74015000D01*
D12*
X92875000Y-75315000D02*
X93525000Y-75315000D01*
X92875000Y-75765000D02*
X92875000Y-75315000D01*
D11*
X92900000Y-73565000D02*
X94725000Y-74465000D01*
X93150000Y-71565000D02*
X89675000Y-69940000D01*
X93150000Y-71565000D02*
X95475000Y-72715000D01*
D12*
X93525000Y-74865000D02*
X92675000Y-74865000D01*
X93525000Y-75315000D02*
X93525000Y-74865000D01*
X93525000Y-75765000D02*
X92875000Y-75765000D01*
X93525000Y-76315000D02*
X93525000Y-75765000D01*
D11*
X93550000Y-74340000D02*
X92775000Y-73740000D01*
X93900000Y-70140000D02*
X93150000Y-71565000D01*
X93900000Y-70140000D02*
X96100000Y-71315000D01*
D12*
X93925000Y-76815000D02*
X92675000Y-76815000D01*
X93975000Y-74365000D02*
X94025000Y-76815000D01*
X94025000Y-76815000D02*
X93925000Y-76815000D01*
X95125000Y-74378605D02*
X96025000Y-74365000D01*
D11*
X95475000Y-72715000D02*
X96950000Y-74440000D01*
X95475000Y-72715000D02*
X101125000Y-75565000D01*
D12*
X95524999Y-75760050D02*
X95124999Y-75760050D01*
X95525000Y-74765000D02*
X95275000Y-74765000D01*
X95525000Y-74815000D02*
X95525000Y-75265000D01*
X95525000Y-75265000D02*
X95225000Y-75265000D01*
X95525000Y-75765000D02*
X95525000Y-76265000D01*
X95525000Y-76265000D02*
X95075000Y-76265000D01*
X96025000Y-74365000D02*
X96075000Y-76815000D01*
X96075000Y-76815000D02*
X94875000Y-76815000D01*
D11*
X96100000Y-71315000D02*
X94525000Y-72215000D01*
X96200000Y-71140000D02*
X95475000Y-72715000D01*
D12*
X96475000Y-75215000D02*
X96475000Y-75915000D01*
D11*
X96775000Y-74540000D02*
X89675000Y-69940000D01*
D12*
X96975000Y-75215000D02*
X96975000Y-75865000D01*
D11*
X97225000Y-71390000D02*
X95475000Y-72715000D01*
X97225000Y-71390000D02*
X96200000Y-71140000D01*
X97300000Y-75465000D02*
X97675000Y-75640000D01*
X97625000Y-75065000D02*
X97300000Y-75465000D01*
D12*
X97675000Y-75215000D02*
X97675000Y-75915000D01*
D11*
X98175000Y-75815000D02*
X98725000Y-76090000D01*
D12*
X98175000Y-75915000D02*
X98175000Y-75215000D01*
D11*
X98225000Y-75090000D02*
X98450000Y-75715000D01*
X98450000Y-75715000D02*
X101125000Y-75565000D01*
X98725000Y-76090000D02*
X98150000Y-75290000D01*
X99800000Y-76040000D02*
X98975000Y-75690000D01*
X101125000Y-75565000D02*
X97225000Y-71390000D01*
X101125000Y-75565000D02*
X98225000Y-75090000D01*
X101125000Y-75565000D02*
X99800000Y-76040000D01*
D12*
X85100001Y-75489999D02*
G75*
G02*
X85550000Y-74403606I449999J449999D01*
G01*
X85300001Y-76839998D02*
G75*
G02*
X85123744Y-75531064I249998J699998D01*
G01*
X85500001Y-76289998D02*
G75*
G02*
X85549999Y-75785051I49999J249998D01*
G01*
X85650000Y-75290000D02*
G75*
G02*
X85710634Y-74797464I0J250000D01*
G01*
X91100001Y-75814998D02*
G75*
G02*
X91116269Y-74359595I249999J724998D01*
G01*
X91225001Y-75364998D02*
G75*
G02*
X91225001Y-74815002I124999J274998D01*
G01*
X94675001Y-75464999D02*
G75*
G02*
X95125000Y-74378606I449999J449999D01*
G01*
X94875001Y-76814998D02*
G75*
G02*
X94698744Y-75506064I249998J699998D01*
G01*
X95075001Y-76264998D02*
G75*
G02*
X95124999Y-75760051I49999J249998D01*
G01*
X95225000Y-75265000D02*
G75*
G02*
X95285634Y-74772464I0J250000D01*
G01*
X96475000Y-75215000D02*
G75*
G02*
X98175000Y-75215000I850000J0D01*
G01*
X96975000Y-75215000D02*
G75*
G02*
X97675000Y-75215000I350000J0D01*
G01*
X97675000Y-75915000D02*
G75*
G02*
X96975000Y-75915000I-350000J0D01*
G01*
X98175000Y-75915000D02*
G75*
G02*
X96475000Y-75915000I-850000J0D01*
G01*
D13*
X106672361Y-129810226D02*
X106608542Y-129874045D01*
X106544723Y-129810226D01*
X106608542Y-129746407D01*
X106672361Y-129810226D01*
G36*
X106672361Y-129810226D02*
G01*
X106608542Y-129874045D01*
X106544723Y-129810226D01*
X106608542Y-129746407D01*
X106672361Y-129810226D01*
G37*
D12*
%TO.C,R6*%
X96820000Y-90815000D02*
X96050000Y-90815000D01*
X96050000Y-92185000D02*
X89510000Y-92185000D01*
X96050000Y-89445000D02*
X96050000Y-92185000D01*
X89510000Y-92185000D02*
X89510000Y-89445000D01*
X89510000Y-89445000D02*
X96050000Y-89445000D01*
X88740000Y-90815000D02*
X89510000Y-90815000D01*
%TO.C,R3*%
X88523760Y-108731600D02*
X89293760Y-108731600D01*
X89293760Y-107361600D02*
X95833760Y-107361600D01*
X89293760Y-110101600D02*
X89293760Y-107361600D01*
X95833760Y-107361600D02*
X95833760Y-110101600D01*
X95833760Y-110101600D02*
X89293760Y-110101600D01*
X96603760Y-108731600D02*
X95833760Y-108731600D01*
%TO.C,D3*%
X82950000Y-107625000D02*
X82950000Y-106975000D01*
X81830000Y-106975000D02*
X81830000Y-102735000D01*
X84070000Y-106975000D02*
X81830000Y-106975000D01*
X84070000Y-106375000D02*
X81830000Y-106375000D01*
X84070000Y-106255000D02*
X81830000Y-106255000D01*
X84070000Y-106135000D02*
X81830000Y-106135000D01*
X81830000Y-102735000D02*
X84070000Y-102735000D01*
X84070000Y-102735000D02*
X84070000Y-106975000D01*
X82950000Y-102085000D02*
X82950000Y-102735000D01*
%TO.C,S1*%
X108030400Y-98427400D02*
X104093400Y-98402000D01*
X104093400Y-98427400D02*
X104093400Y-108384200D01*
X108030400Y-108384200D02*
X108030400Y-98427400D01*
X104093400Y-108384200D02*
X108030400Y-108384200D01*
%TO.C,R5*%
X96620000Y-120487200D02*
X95850000Y-120487200D01*
X95850000Y-121857200D02*
X89310000Y-121857200D01*
X95850000Y-119117200D02*
X95850000Y-121857200D01*
X89310000Y-121857200D02*
X89310000Y-119117200D01*
X89310000Y-119117200D02*
X95850000Y-119117200D01*
X88540000Y-120487200D02*
X89310000Y-120487200D01*
%TO.C,R2on2*%
X96820000Y-102570600D02*
X96050000Y-102570600D01*
X96050000Y-103940600D02*
X89510000Y-103940600D01*
X96050000Y-101200600D02*
X96050000Y-103940600D01*
X89510000Y-103940600D02*
X89510000Y-101200600D01*
X89510000Y-101200600D02*
X96050000Y-101200600D01*
X88740000Y-102570600D02*
X89510000Y-102570600D01*
%TO.C,R1off1*%
X96820000Y-96692800D02*
X96050000Y-96692800D01*
X96050000Y-98062800D02*
X89510000Y-98062800D01*
X96050000Y-95322800D02*
X96050000Y-98062800D01*
X89510000Y-98062800D02*
X89510000Y-95322800D01*
X89510000Y-95322800D02*
X96050000Y-95322800D01*
X88740000Y-96692800D02*
X89510000Y-96692800D01*
%TO.C,R4*%
X96620000Y-114609400D02*
X95850000Y-114609400D01*
X95850000Y-115979400D02*
X89310000Y-115979400D01*
X95850000Y-113239400D02*
X95850000Y-115979400D01*
X89310000Y-115979400D02*
X89310000Y-113239400D01*
X89310000Y-113239400D02*
X95850000Y-113239400D01*
X88540000Y-114609400D02*
X89310000Y-114609400D01*
%TO.C,U1*%
X71740000Y-101095000D02*
X66440000Y-101095000D01*
X71740000Y-90815000D02*
X71740000Y-101095000D01*
X70090000Y-90815000D02*
X71740000Y-90815000D01*
X66440000Y-101095000D02*
X66440000Y-90815000D01*
X66440000Y-90815000D02*
X68090000Y-90815000D01*
X70090000Y-90815000D02*
G75*
G02*
X68090000Y-90815000I-1000000J0D01*
G01*
%TO.C,C1*%
X80400241Y-102826000D02*
X79770241Y-102826000D01*
X80085241Y-102511000D02*
X80085241Y-103141000D01*
X76900000Y-101435000D02*
X76900000Y-107895000D01*
X76860000Y-101435000D02*
X76860000Y-107895000D01*
X76820000Y-101435000D02*
X76820000Y-107895000D01*
X76780000Y-101437000D02*
X76780000Y-107893000D01*
X76740000Y-101438000D02*
X76740000Y-107892000D01*
X76700000Y-101441000D02*
X76700000Y-107889000D01*
X76660000Y-105705000D02*
X76660000Y-107887000D01*
X76660000Y-101443000D02*
X76660000Y-103625000D01*
X76620000Y-105705000D02*
X76620000Y-107883000D01*
X76620000Y-101447000D02*
X76620000Y-103625000D01*
X76580000Y-105705000D02*
X76580000Y-107880000D01*
X76580000Y-101450000D02*
X76580000Y-103625000D01*
X76540000Y-105705000D02*
X76540000Y-107876000D01*
X76540000Y-101454000D02*
X76540000Y-103625000D01*
X76500000Y-105705000D02*
X76500000Y-107871000D01*
X76500000Y-101459000D02*
X76500000Y-103625000D01*
X76460000Y-105705000D02*
X76460000Y-107866000D01*
X76460000Y-101464000D02*
X76460000Y-103625000D01*
X76420000Y-105705000D02*
X76420000Y-107860000D01*
X76420000Y-101470000D02*
X76420000Y-103625000D01*
X76380000Y-105705000D02*
X76380000Y-107854000D01*
X76380000Y-101476000D02*
X76380000Y-103625000D01*
X76340000Y-105705000D02*
X76340000Y-107847000D01*
X76340000Y-101483000D02*
X76340000Y-103625000D01*
X76300000Y-105705000D02*
X76300000Y-107840000D01*
X76300000Y-101490000D02*
X76300000Y-103625000D01*
X76260000Y-105705000D02*
X76260000Y-107832000D01*
X76260000Y-101498000D02*
X76260000Y-103625000D01*
X76220000Y-105705000D02*
X76220000Y-107824000D01*
X76220000Y-101506000D02*
X76220000Y-103625000D01*
X76179000Y-105705000D02*
X76179000Y-107815000D01*
X76179000Y-101515000D02*
X76179000Y-103625000D01*
X76139000Y-105705000D02*
X76139000Y-107806000D01*
X76139000Y-101524000D02*
X76139000Y-103625000D01*
X76099000Y-105705000D02*
X76099000Y-107796000D01*
X76099000Y-101534000D02*
X76099000Y-103625000D01*
X76059000Y-105705000D02*
X76059000Y-107786000D01*
X76059000Y-101544000D02*
X76059000Y-103625000D01*
X76019000Y-105705000D02*
X76019000Y-107775000D01*
X76019000Y-101555000D02*
X76019000Y-103625000D01*
X75979000Y-105705000D02*
X75979000Y-107763000D01*
X75979000Y-101567000D02*
X75979000Y-103625000D01*
X75939000Y-105705000D02*
X75939000Y-107751000D01*
X75939000Y-101579000D02*
X75939000Y-103625000D01*
X75899000Y-105705000D02*
X75899000Y-107739000D01*
X75899000Y-101591000D02*
X75899000Y-103625000D01*
X75859000Y-105705000D02*
X75859000Y-107726000D01*
X75859000Y-101604000D02*
X75859000Y-103625000D01*
X75819000Y-105705000D02*
X75819000Y-107712000D01*
X75819000Y-101618000D02*
X75819000Y-103625000D01*
X75779000Y-105705000D02*
X75779000Y-107698000D01*
X75779000Y-101632000D02*
X75779000Y-103625000D01*
X75739000Y-105705000D02*
X75739000Y-107683000D01*
X75739000Y-101647000D02*
X75739000Y-103625000D01*
X75699000Y-105705000D02*
X75699000Y-107667000D01*
X75699000Y-101663000D02*
X75699000Y-103625000D01*
X75659000Y-105705000D02*
X75659000Y-107651000D01*
X75659000Y-101679000D02*
X75659000Y-103625000D01*
X75619000Y-105705000D02*
X75619000Y-107635000D01*
X75619000Y-101695000D02*
X75619000Y-103625000D01*
X75579000Y-105705000D02*
X75579000Y-107617000D01*
X75579000Y-101713000D02*
X75579000Y-103625000D01*
X75539000Y-105705000D02*
X75539000Y-107599000D01*
X75539000Y-101731000D02*
X75539000Y-103625000D01*
X75499000Y-105705000D02*
X75499000Y-107581000D01*
X75499000Y-101749000D02*
X75499000Y-103625000D01*
X75459000Y-105705000D02*
X75459000Y-107561000D01*
X75459000Y-101769000D02*
X75459000Y-103625000D01*
X75419000Y-105705000D02*
X75419000Y-107541000D01*
X75419000Y-101789000D02*
X75419000Y-103625000D01*
X75379000Y-105705000D02*
X75379000Y-107521000D01*
X75379000Y-101809000D02*
X75379000Y-103625000D01*
X75339000Y-105705000D02*
X75339000Y-107499000D01*
X75339000Y-101831000D02*
X75339000Y-103625000D01*
X75299000Y-105705000D02*
X75299000Y-107477000D01*
X75299000Y-101853000D02*
X75299000Y-103625000D01*
X75259000Y-105705000D02*
X75259000Y-107455000D01*
X75259000Y-101875000D02*
X75259000Y-103625000D01*
X75219000Y-105705000D02*
X75219000Y-107431000D01*
X75219000Y-101899000D02*
X75219000Y-103625000D01*
X75179000Y-105705000D02*
X75179000Y-107407000D01*
X75179000Y-101923000D02*
X75179000Y-103625000D01*
X75139000Y-105705000D02*
X75139000Y-107381000D01*
X75139000Y-101949000D02*
X75139000Y-103625000D01*
X75099000Y-105705000D02*
X75099000Y-107355000D01*
X75099000Y-101975000D02*
X75099000Y-103625000D01*
X75059000Y-105705000D02*
X75059000Y-107329000D01*
X75059000Y-102001000D02*
X75059000Y-103625000D01*
X75019000Y-105705000D02*
X75019000Y-107301000D01*
X75019000Y-102029000D02*
X75019000Y-103625000D01*
X74979000Y-105705000D02*
X74979000Y-107272000D01*
X74979000Y-102058000D02*
X74979000Y-103625000D01*
X74939000Y-105705000D02*
X74939000Y-107243000D01*
X74939000Y-102087000D02*
X74939000Y-103625000D01*
X74899000Y-105705000D02*
X74899000Y-107213000D01*
X74899000Y-102117000D02*
X74899000Y-103625000D01*
X74859000Y-105705000D02*
X74859000Y-107181000D01*
X74859000Y-102149000D02*
X74859000Y-103625000D01*
X74819000Y-105705000D02*
X74819000Y-107149000D01*
X74819000Y-102181000D02*
X74819000Y-103625000D01*
X74779000Y-105705000D02*
X74779000Y-107115000D01*
X74779000Y-102215000D02*
X74779000Y-103625000D01*
X74739000Y-105705000D02*
X74739000Y-107081000D01*
X74739000Y-102249000D02*
X74739000Y-103625000D01*
X74699000Y-105705000D02*
X74699000Y-107045000D01*
X74699000Y-102285000D02*
X74699000Y-103625000D01*
X74659000Y-105705000D02*
X74659000Y-107008000D01*
X74659000Y-102322000D02*
X74659000Y-103625000D01*
X74619000Y-105705000D02*
X74619000Y-106970000D01*
X74619000Y-102360000D02*
X74619000Y-103625000D01*
X74579000Y-102400000D02*
X74579000Y-106930000D01*
X74539000Y-102441000D02*
X74539000Y-106889000D01*
X74499000Y-102483000D02*
X74499000Y-106847000D01*
X74459000Y-102528000D02*
X74459000Y-106802000D01*
X74419000Y-102573000D02*
X74419000Y-106757000D01*
X74379000Y-102621000D02*
X74379000Y-106709000D01*
X74339000Y-102670000D02*
X74339000Y-106660000D01*
X74299000Y-102721000D02*
X74299000Y-106609000D01*
X74259000Y-102775000D02*
X74259000Y-106555000D01*
X74219000Y-102831000D02*
X74219000Y-106499000D01*
X74179000Y-102889000D02*
X74179000Y-106441000D01*
X74139000Y-102951000D02*
X74139000Y-106379000D01*
X74099000Y-103015000D02*
X74099000Y-106315000D01*
X74059000Y-103084000D02*
X74059000Y-106246000D01*
X74019000Y-103156000D02*
X74019000Y-106174000D01*
X73979000Y-103233000D02*
X73979000Y-106097000D01*
X73939000Y-103315000D02*
X73939000Y-106015000D01*
X73899000Y-103403000D02*
X73899000Y-105927000D01*
X73859000Y-103500000D02*
X73859000Y-105830000D01*
X73819000Y-103606000D02*
X73819000Y-105724000D01*
X73779000Y-103725000D02*
X73779000Y-105605000D01*
X73739000Y-103863000D02*
X73739000Y-105467000D01*
X73699000Y-104032000D02*
X73699000Y-105298000D01*
X73659000Y-104263000D02*
X73659000Y-105067000D01*
X80170000Y-104665000D02*
G75*
G02*
X73630000Y-104665000I-3270000J0D01*
G01*
X73630000Y-104665000D02*
G75*
G02*
X80170000Y-104665000I3270000J0D01*
G01*
%TD*%
M02*
