M48
; DRILL file {KiCad 8.0.1} date 2024-04-02T10:22:45+0200
; FORMAT={-:-/ absolute / inch / decimal}
; #@! TF.CreationDate,2024-04-02T10:22:45+02:00
; #@! TF.GenerationSoftware,Kicad,Pcbnew,8.0.1
; #@! TF.FileFunction,Plated,1,2,PTH
FMAT,2
INCH
; #@! TA.AperFunction,Plated,PTH,ViaDrill
T1C0.0157
; #@! TA.AperFunction,Plated,PTH,ComponentDrill
T2C0.0315
; #@! TA.AperFunction,Plated,PTH,ComponentDrill
T3C0.0354
; #@! TA.AperFunction,Plated,PTH,ComponentDrill
T4C0.0394
%
G90
G05
T1
X3.0512Y-3.4494
X3.0512Y-3.5163
T2
X2.5701Y-3.6278
X2.5701Y-3.7278
X2.5701Y-3.8278
X2.5701Y-3.9278
X2.8701Y-3.6278
X2.8701Y-3.7278
X2.8701Y-3.8278
X2.8701Y-3.9278
X2.9783Y-4.1207
X3.0476Y-4.8835
X3.0768Y-4.1207
X3.1476Y-4.7835
X3.2476Y-4.8835
X3.2657Y-3.9781
X3.2657Y-4.2781
X3.4442Y-4.2808
X3.4449Y-4.5122
X3.4449Y-4.7436
X3.4528Y-3.5754
X3.4528Y-3.8068
X3.4528Y-4.0382
X3.8442Y-4.2808
X3.8449Y-4.5122
X3.8449Y-4.7436
X3.8528Y-3.5754
X3.8528Y-3.8068
X3.8528Y-4.0382
X4.0756Y-4.839
X4.1756Y-4.739
X4.2756Y-4.839
T3
X3.1821Y-2.5715
X3.2821Y-2.5715
X3.9537Y-2.4179
X4.0537Y-2.4179
T4
X4.1772Y-3.9691
X4.1772Y-4.0691
X4.1772Y-4.1691
M30
