%TF.GenerationSoftware,KiCad,Pcbnew,8.0.1*%
%TF.CreationDate,2024-04-02T10:22:41+02:00*%
%TF.ProjectId,KatzeV2,4b61747a-6556-4322-9e6b-696361645f70,rev?*%
%TF.SameCoordinates,Original*%
%TF.FileFunction,Copper,L1,Top*%
%TF.FilePolarity,Positive*%
%FSLAX46Y46*%
G04 Gerber Fmt 4.6, Leading zero omitted, Abs format (unit mm)*
G04 Created by KiCad (PCBNEW 8.0.1) date 2024-04-02 10:22:41*
%MOMM*%
%LPD*%
G01*
G04 APERTURE LIST*
%TA.AperFunction,ComponentPad*%
%ADD10R,1.800000X1.800000*%
%TD*%
%TA.AperFunction,ComponentPad*%
%ADD11C,1.800000*%
%TD*%
%TA.AperFunction,ComponentPad*%
%ADD12R,1.500000X1.500000*%
%TD*%
%TA.AperFunction,ComponentPad*%
%ADD13C,1.500000*%
%TD*%
%TA.AperFunction,ComponentPad*%
%ADD14C,1.600000*%
%TD*%
%TA.AperFunction,ComponentPad*%
%ADD15O,1.600000X1.600000*%
%TD*%
%TA.AperFunction,ComponentPad*%
%ADD16R,1.600000X1.600000*%
%TD*%
%TA.AperFunction,ComponentPad*%
%ADD17C,2.000000*%
%TD*%
%TA.AperFunction,ViaPad*%
%ADD18C,0.600000*%
%TD*%
%TA.AperFunction,Conductor*%
%ADD19C,0.250000*%
%TD*%
G04 APERTURE END LIST*
D10*
%TO.P,D2,1,K*%
%TO.N,Net-(D1-K)*%
X100425000Y-61415000D03*
D11*
%TO.P,D2,2,A*%
%TO.N,Net-(D1-A)*%
X102965000Y-61415000D03*
%TD*%
D12*
%TO.P,Q2,1,E*%
%TO.N,Net-(D1-A)*%
X77410000Y-124040000D03*
D13*
%TO.P,Q2,2,B*%
%TO.N,Net-(Q1-C)*%
X79950000Y-121500000D03*
%TO.P,Q2,3,C*%
%TO.N,Net-(Q2-C)*%
X82490000Y-124040000D03*
%TD*%
D12*
%TO.P,Q1,1,E*%
%TO.N,Net-(D1-K)*%
X103520000Y-122910000D03*
D13*
%TO.P,Q1,2,B*%
%TO.N,Net-(Q1-B)*%
X106060000Y-120370000D03*
%TO.P,Q1,3,C*%
%TO.N,Net-(Q1-C)*%
X108600000Y-122910000D03*
%TD*%
D10*
%TO.P,D1,1,K*%
%TO.N,Net-(D1-K)*%
X80825000Y-65315000D03*
D11*
%TO.P,D1,2,A*%
%TO.N,Net-(D1-A)*%
X83365000Y-65315000D03*
%TD*%
D14*
%TO.P,R6,1*%
%TO.N,Net-(S1-E)*%
X97860000Y-90815000D03*
D15*
%TO.P,R6,2*%
%TO.N,Net-(Q2-C)*%
X87700000Y-90815000D03*
%TD*%
D14*
%TO.P,R3,1*%
%TO.N,Net-(D3-K)*%
X87483760Y-108731600D03*
D15*
%TO.P,R3,2*%
%TO.N,Net-(Q1-B)*%
X97643760Y-108731600D03*
%TD*%
D16*
%TO.P,D3,1,K*%
%TO.N,Net-(D3-K)*%
X82950000Y-108665000D03*
D15*
%TO.P,D3,2,A*%
%TO.N,Net-(D3-A)*%
X82950000Y-101045000D03*
%TD*%
D17*
%TO.P,S1,1,A*%
%TO.N,Net-(S1-A-Pad1)*%
X106100000Y-100815000D03*
%TO.P,S1,2,E*%
%TO.N,Net-(S1-E)*%
X106100000Y-103355000D03*
%TO.P,S1,3,A*%
%TO.N,unconnected-(S1-A-Pad3)*%
X106100000Y-105895000D03*
%TD*%
D14*
%TO.P,R5,1*%
%TO.N,Net-(S1-E)*%
X97660000Y-120487200D03*
D15*
%TO.P,R5,2*%
%TO.N,Net-(Q1-C)*%
X87500000Y-120487200D03*
%TD*%
D14*
%TO.P,R2on2,1*%
%TO.N,Net-(D3-K)*%
X97860000Y-102570600D03*
D15*
%TO.P,R2on2,2*%
%TO.N,Net-(D3-A)*%
X87700000Y-102570600D03*
%TD*%
D14*
%TO.P,R1off1,1*%
%TO.N,Net-(S1-E)*%
X97860000Y-96692800D03*
D15*
%TO.P,R1off1,2*%
%TO.N,Net-(D3-A)*%
X87700000Y-96692800D03*
%TD*%
D14*
%TO.P,R4,1*%
%TO.N,Net-(Q1-B)*%
X97660000Y-114609400D03*
D15*
%TO.P,R4,2*%
%TO.N,Net-(D1-K)*%
X87500000Y-114609400D03*
%TD*%
D16*
%TO.P,U1,1,GND*%
%TO.N,Net-(D1-K)*%
X72900000Y-92145000D03*
D15*
%TO.P,U1,2,TR*%
%TO.N,Net-(D3-K)*%
X72900000Y-94685000D03*
%TO.P,U1,3,Q*%
%TO.N,unconnected-(U1-Q-Pad3)*%
X72900000Y-97225000D03*
%TO.P,U1,4,R*%
%TO.N,Net-(S1-E)*%
X72900000Y-99765000D03*
%TO.P,U1,5,CV*%
%TO.N,unconnected-(U1-CV-Pad5)*%
X65280000Y-99765000D03*
%TO.P,U1,6,THR*%
%TO.N,Net-(D3-K)*%
X65280000Y-97225000D03*
%TO.P,U1,7,DIS*%
%TO.N,Net-(D3-A)*%
X65280000Y-94685000D03*
%TO.P,U1,8,VCC*%
%TO.N,Net-(S1-E)*%
X65280000Y-92145000D03*
%TD*%
D16*
%TO.P,C1,1*%
%TO.N,Net-(D3-K)*%
X78150000Y-104665000D03*
D14*
%TO.P,C1,2*%
%TO.N,Net-(D1-K)*%
X75650000Y-104665000D03*
%TD*%
D18*
%TO.N,Net-(D3-A)*%
X77500000Y-89315000D03*
%TO.N,Net-(S1-E)*%
X77500000Y-87615000D03*
%TD*%
D19*
%TO.N,Net-(D3-K)*%
X67390000Y-97225000D02*
X69930000Y-94685000D01*
X65280000Y-97225000D02*
X67390000Y-97225000D01*
X69930000Y-94685000D02*
X72900000Y-94685000D01*
%TO.N,Net-(D1-K)*%
X75630000Y-92145000D02*
X72900000Y-92145000D01*
X77000000Y-93515000D02*
X75630000Y-92145000D01*
X75650000Y-104665000D02*
X75650000Y-101965000D01*
X77000000Y-100615000D02*
X77000000Y-93515000D01*
X75650000Y-101965000D02*
X77000000Y-100615000D01*
%TO.N,Net-(D1-A)*%
X83365000Y-65315000D02*
X81100000Y-67580000D01*
X81100000Y-118380000D02*
X77410000Y-122070000D01*
X81100000Y-67580000D02*
X81100000Y-118380000D01*
X77410000Y-122070000D02*
X77410000Y-124040000D01*
%TO.N,Net-(D3-A)*%
X67630000Y-94685000D02*
X65280000Y-94685000D01*
X69800000Y-89315000D02*
X68500000Y-90615000D01*
X77500000Y-89315000D02*
X69800000Y-89315000D01*
X68500000Y-90615000D02*
X68500000Y-93815000D01*
X68500000Y-93815000D02*
X67630000Y-94685000D01*
%TO.N,Net-(Q1-B)*%
X106060000Y-120370000D02*
X100299400Y-114609400D01*
X100299400Y-114609400D02*
X97660000Y-114609400D01*
%TO.N,Net-(Q2-C)*%
X91130000Y-92730000D02*
X91130000Y-121990000D01*
X91160000Y-92700000D02*
X91130000Y-92730000D01*
X89080000Y-124040000D02*
X82490000Y-124040000D01*
X89275000Y-90815000D02*
X91160000Y-92700000D01*
X87700000Y-90815000D02*
X89275000Y-90815000D01*
X91130000Y-121990000D02*
X89080000Y-124040000D01*
%TO.N,Net-(S1-E)*%
X68400000Y-87615000D02*
X65280000Y-90735000D01*
X65280000Y-90735000D02*
X65280000Y-92145000D01*
X77500000Y-87615000D02*
X68400000Y-87615000D01*
%TD*%
M02*
