%TF.GenerationSoftware,KiCad,Pcbnew,8.0.1*%
%TF.CreationDate,2024-04-02T10:22:41+02:00*%
%TF.ProjectId,KatzeV2,4b61747a-6556-4322-9e6b-696361645f70,rev?*%
%TF.SameCoordinates,Original*%
%TF.FileFunction,Soldermask,Top*%
%TF.FilePolarity,Negative*%
%FSLAX46Y46*%
G04 Gerber Fmt 4.6, Leading zero omitted, Abs format (unit mm)*
G04 Created by KiCad (PCBNEW 8.0.1) date 2024-04-02 10:22:41*
%MOMM*%
%LPD*%
G01*
G04 APERTURE LIST*
G04 Aperture macros list*
%AMRoundRect*
0 Rectangle with rounded corners*
0 $1 Rounding radius*
0 $2 $3 $4 $5 $6 $7 $8 $9 X,Y pos of 4 corners*
0 Add a 4 corners polygon primitive as box body*
4,1,4,$2,$3,$4,$5,$6,$7,$8,$9,$2,$3,0*
0 Add four circle primitives for the rounded corners*
1,1,$1+$1,$2,$3*
1,1,$1+$1,$4,$5*
1,1,$1+$1,$6,$7*
1,1,$1+$1,$8,$9*
0 Add four rect primitives between the rounded corners*
20,1,$1+$1,$2,$3,$4,$5,0*
20,1,$1+$1,$4,$5,$6,$7,0*
20,1,$1+$1,$6,$7,$8,$9,0*
20,1,$1+$1,$8,$9,$2,$3,0*%
G04 Aperture macros list end*
%ADD10RoundRect,0.200000X-0.900000X-0.900000X0.900000X-0.900000X0.900000X0.900000X-0.900000X0.900000X0*%
%ADD11C,2.200000*%
%ADD12RoundRect,0.200000X-0.750000X-0.750000X0.750000X-0.750000X0.750000X0.750000X-0.750000X0.750000X0*%
%ADD13C,1.900000*%
%ADD14C,2.000000*%
%ADD15O,2.000000X2.000000*%
%ADD16RoundRect,0.200000X0.800000X-0.800000X0.800000X0.800000X-0.800000X0.800000X-0.800000X-0.800000X0*%
%ADD17C,2.400000*%
%ADD18RoundRect,0.200000X0.800000X0.800000X-0.800000X0.800000X-0.800000X-0.800000X0.800000X-0.800000X0*%
G04 APERTURE END LIST*
D10*
%TO.C,D2*%
X100425000Y-61415000D03*
D11*
X102965000Y-61415000D03*
%TD*%
D12*
%TO.C,Q2*%
X77410000Y-124040000D03*
D13*
X79950000Y-121500000D03*
X82490000Y-124040000D03*
%TD*%
D12*
%TO.C,Q1*%
X103520000Y-122910000D03*
D13*
X106060000Y-120370000D03*
X108600000Y-122910000D03*
%TD*%
D10*
%TO.C,D1*%
X80825000Y-65315000D03*
D11*
X83365000Y-65315000D03*
%TD*%
D14*
%TO.C,R6*%
X97860000Y-90815000D03*
D15*
X87700000Y-90815000D03*
%TD*%
D14*
%TO.C,R3*%
X87483760Y-108731600D03*
D15*
X97643760Y-108731600D03*
%TD*%
D16*
%TO.C,D3*%
X82950000Y-108665000D03*
D15*
X82950000Y-101045000D03*
%TD*%
D17*
%TO.C,S1*%
X106100000Y-100815000D03*
X106100000Y-103355000D03*
X106100000Y-105895000D03*
%TD*%
D14*
%TO.C,R5*%
X97660000Y-120487200D03*
D15*
X87500000Y-120487200D03*
%TD*%
D14*
%TO.C,R2on2*%
X97860000Y-102570600D03*
D15*
X87700000Y-102570600D03*
%TD*%
D14*
%TO.C,R1off1*%
X97860000Y-96692800D03*
D15*
X87700000Y-96692800D03*
%TD*%
D14*
%TO.C,R4*%
X97660000Y-114609400D03*
D15*
X87500000Y-114609400D03*
%TD*%
D18*
%TO.C,U1*%
X72900000Y-92145000D03*
D15*
X72900000Y-94685000D03*
X72900000Y-97225000D03*
X72900000Y-99765000D03*
X65280000Y-99765000D03*
X65280000Y-97225000D03*
X65280000Y-94685000D03*
X65280000Y-92145000D03*
%TD*%
D18*
%TO.C,C1*%
X78150000Y-104665000D03*
D14*
X75650000Y-104665000D03*
%TD*%
M02*
