%TF.GenerationSoftware,KiCad,Pcbnew,9.0.6*%
%TF.CreationDate,2026-01-25T16:33:18+01:00*%
%TF.ProjectId,Tiger,54696765-722e-46b6-9963-61645f706362,rev?*%
%TF.SameCoordinates,Original*%
%TF.FileFunction,Soldermask,Bot*%
%TF.FilePolarity,Negative*%
%FSLAX46Y46*%
G04 Gerber Fmt 4.6, Leading zero omitted, Abs format (unit mm)*
G04 Created by KiCad (PCBNEW 9.0.6) date 2026-01-25 16:33:18*
%MOMM*%
%LPD*%
G01*
G04 APERTURE LIST*
G04 Aperture macros list*
%AMRoundRect*
0 Rectangle with rounded corners*
0 $1 Rounding radius*
0 $2 $3 $4 $5 $6 $7 $8 $9 X,Y pos of 4 corners*
0 Add a 4 corners polygon primitive as box body*
4,1,4,$2,$3,$4,$5,$6,$7,$8,$9,$2,$3,0*
0 Add four circle primitives for the rounded corners*
1,1,$1+$1,$2,$3*
1,1,$1+$1,$4,$5*
1,1,$1+$1,$6,$7*
1,1,$1+$1,$8,$9*
0 Add four rect primitives between the rounded corners*
20,1,$1+$1,$2,$3,$4,$5,0*
20,1,$1+$1,$4,$5,$6,$7,0*
20,1,$1+$1,$6,$7,$8,$9,0*
20,1,$1+$1,$8,$9,$2,$3,0*%
G04 Aperture macros list end*
%ADD10C,0.300000*%
%ADD11RoundRect,0.200000X-0.900000X-0.900000X0.900000X-0.900000X0.900000X0.900000X-0.900000X0.900000X0*%
%ADD12C,2.200000*%
%ADD13RoundRect,0.200000X-0.750000X-0.750000X0.750000X-0.750000X0.750000X0.750000X-0.750000X0.750000X0*%
%ADD14C,1.900000*%
%ADD15C,3.400000*%
%ADD16C,2.000000*%
%ADD17O,2.000000X2.000000*%
%ADD18RoundRect,0.200000X-0.800000X0.800000X-0.800000X-0.800000X0.800000X-0.800000X0.800000X0.800000X0*%
%ADD19C,2.400000*%
%ADD20RoundRect,0.200000X2.500000X1.000000X-2.500000X1.000000X-2.500000X-1.000000X2.500000X-1.000000X0*%
%ADD21C,18.180000*%
%ADD22RoundRect,0.200000X0.800000X0.800000X-0.800000X0.800000X-0.800000X-0.800000X0.800000X-0.800000X0*%
%ADD23RoundRect,0.312500X-0.687500X0.687500X-0.687500X-0.687500X0.687500X-0.687500X0.687500X0.687500X0*%
G04 APERTURE END LIST*
D10*
X137764489Y-97712528D02*
X137764489Y-96212528D01*
X136907346Y-97712528D02*
X137550203Y-96855385D01*
X136907346Y-96212528D02*
X137764489Y-97069671D01*
X136264489Y-97712528D02*
X136264489Y-96212528D01*
X136264489Y-96926814D02*
X135407346Y-96926814D01*
X135407346Y-97712528D02*
X135407346Y-96212528D01*
X134193060Y-96926814D02*
X134693060Y-96926814D01*
X134693060Y-97712528D02*
X134693060Y-96212528D01*
X134693060Y-96212528D02*
X133978774Y-96212528D01*
X131978774Y-96212528D02*
X131835917Y-96212528D01*
X131835917Y-96212528D02*
X131693060Y-96283957D01*
X131693060Y-96283957D02*
X131621632Y-96355385D01*
X131621632Y-96355385D02*
X131550203Y-96498242D01*
X131550203Y-96498242D02*
X131478774Y-96783957D01*
X131478774Y-96783957D02*
X131478774Y-97141100D01*
X131478774Y-97141100D02*
X131550203Y-97426814D01*
X131550203Y-97426814D02*
X131621632Y-97569671D01*
X131621632Y-97569671D02*
X131693060Y-97641100D01*
X131693060Y-97641100D02*
X131835917Y-97712528D01*
X131835917Y-97712528D02*
X131978774Y-97712528D01*
X131978774Y-97712528D02*
X132121632Y-97641100D01*
X132121632Y-97641100D02*
X132193060Y-97569671D01*
X132193060Y-97569671D02*
X132264489Y-97426814D01*
X132264489Y-97426814D02*
X132335917Y-97141100D01*
X132335917Y-97141100D02*
X132335917Y-96783957D01*
X132335917Y-96783957D02*
X132264489Y-96498242D01*
X132264489Y-96498242D02*
X132193060Y-96355385D01*
X132193060Y-96355385D02*
X132121632Y-96283957D01*
X132121632Y-96283957D02*
X131978774Y-96212528D01*
X130050203Y-97712528D02*
X130907346Y-97712528D01*
X130478775Y-97712528D02*
X130478775Y-96212528D01*
X130478775Y-96212528D02*
X130621632Y-96426814D01*
X130621632Y-96426814D02*
X130764489Y-96569671D01*
X130764489Y-96569671D02*
X130907346Y-96641100D01*
X129407347Y-97569671D02*
X129335918Y-97641100D01*
X129335918Y-97641100D02*
X129407347Y-97712528D01*
X129407347Y-97712528D02*
X129478775Y-97641100D01*
X129478775Y-97641100D02*
X129407347Y-97569671D01*
X129407347Y-97569671D02*
X129407347Y-97712528D01*
X128764489Y-96355385D02*
X128693061Y-96283957D01*
X128693061Y-96283957D02*
X128550204Y-96212528D01*
X128550204Y-96212528D02*
X128193061Y-96212528D01*
X128193061Y-96212528D02*
X128050204Y-96283957D01*
X128050204Y-96283957D02*
X127978775Y-96355385D01*
X127978775Y-96355385D02*
X127907346Y-96498242D01*
X127907346Y-96498242D02*
X127907346Y-96641100D01*
X127907346Y-96641100D02*
X127978775Y-96855385D01*
X127978775Y-96855385D02*
X128835918Y-97712528D01*
X128835918Y-97712528D02*
X127907346Y-97712528D01*
X126978775Y-96212528D02*
X126835918Y-96212528D01*
X126835918Y-96212528D02*
X126693061Y-96283957D01*
X126693061Y-96283957D02*
X126621633Y-96355385D01*
X126621633Y-96355385D02*
X126550204Y-96498242D01*
X126550204Y-96498242D02*
X126478775Y-96783957D01*
X126478775Y-96783957D02*
X126478775Y-97141100D01*
X126478775Y-97141100D02*
X126550204Y-97426814D01*
X126550204Y-97426814D02*
X126621633Y-97569671D01*
X126621633Y-97569671D02*
X126693061Y-97641100D01*
X126693061Y-97641100D02*
X126835918Y-97712528D01*
X126835918Y-97712528D02*
X126978775Y-97712528D01*
X126978775Y-97712528D02*
X127121633Y-97641100D01*
X127121633Y-97641100D02*
X127193061Y-97569671D01*
X127193061Y-97569671D02*
X127264490Y-97426814D01*
X127264490Y-97426814D02*
X127335918Y-97141100D01*
X127335918Y-97141100D02*
X127335918Y-96783957D01*
X127335918Y-96783957D02*
X127264490Y-96498242D01*
X127264490Y-96498242D02*
X127193061Y-96355385D01*
X127193061Y-96355385D02*
X127121633Y-96283957D01*
X127121633Y-96283957D02*
X126978775Y-96212528D01*
X125907347Y-96355385D02*
X125835919Y-96283957D01*
X125835919Y-96283957D02*
X125693062Y-96212528D01*
X125693062Y-96212528D02*
X125335919Y-96212528D01*
X125335919Y-96212528D02*
X125193062Y-96283957D01*
X125193062Y-96283957D02*
X125121633Y-96355385D01*
X125121633Y-96355385D02*
X125050204Y-96498242D01*
X125050204Y-96498242D02*
X125050204Y-96641100D01*
X125050204Y-96641100D02*
X125121633Y-96855385D01*
X125121633Y-96855385D02*
X125978776Y-97712528D01*
X125978776Y-97712528D02*
X125050204Y-97712528D01*
X123764491Y-96212528D02*
X124050205Y-96212528D01*
X124050205Y-96212528D02*
X124193062Y-96283957D01*
X124193062Y-96283957D02*
X124264491Y-96355385D01*
X124264491Y-96355385D02*
X124407348Y-96569671D01*
X124407348Y-96569671D02*
X124478776Y-96855385D01*
X124478776Y-96855385D02*
X124478776Y-97426814D01*
X124478776Y-97426814D02*
X124407348Y-97569671D01*
X124407348Y-97569671D02*
X124335919Y-97641100D01*
X124335919Y-97641100D02*
X124193062Y-97712528D01*
X124193062Y-97712528D02*
X123907348Y-97712528D01*
X123907348Y-97712528D02*
X123764491Y-97641100D01*
X123764491Y-97641100D02*
X123693062Y-97569671D01*
X123693062Y-97569671D02*
X123621633Y-97426814D01*
X123621633Y-97426814D02*
X123621633Y-97069671D01*
X123621633Y-97069671D02*
X123693062Y-96926814D01*
X123693062Y-96926814D02*
X123764491Y-96855385D01*
X123764491Y-96855385D02*
X123907348Y-96783957D01*
X123907348Y-96783957D02*
X124193062Y-96783957D01*
X124193062Y-96783957D02*
X124335919Y-96855385D01*
X124335919Y-96855385D02*
X124407348Y-96926814D01*
X124407348Y-96926814D02*
X124478776Y-97069671D01*
D11*
%TO.C,D1*%
X113836000Y-89047700D03*
D12*
X116376000Y-89047700D03*
%TD*%
D13*
%TO.C,Q2*%
X154222000Y-141117700D03*
D14*
X156762000Y-138577700D03*
X159302000Y-141117700D03*
%TD*%
D15*
%TO.C,*%
X151174000Y-79649700D03*
%TD*%
%TO.C,*%
X110534000Y-79903700D03*
%TD*%
D11*
%TO.C,D2*%
X148888000Y-89047700D03*
D12*
X151428000Y-89047700D03*
%TD*%
D13*
%TO.C,Q1*%
X104438000Y-141879700D03*
D14*
X106978000Y-139339700D03*
X109518000Y-141879700D03*
%TD*%
D16*
%TO.C,R2*%
X136950000Y-119513700D03*
D17*
X126790000Y-119513700D03*
%TD*%
D18*
%TO.C,D3*%
X140760000Y-106573700D03*
D17*
X140760000Y-114193700D03*
%TD*%
D16*
%TO.C,R1*%
X136950000Y-115463700D03*
D17*
X126790000Y-115463700D03*
%TD*%
D19*
%TO.C,S1*%
X157524000Y-106065700D03*
X157524000Y-108605700D03*
X157524000Y-111145700D03*
%TD*%
D20*
%TO.C,U2*%
X145332000Y-75585700D03*
X145332000Y-72029700D03*
X119438000Y-75585700D03*
X119438000Y-72029700D03*
D21*
X132378000Y-73553700D03*
%TD*%
D22*
%TO.C,U1*%
X117128000Y-107345700D03*
D17*
X117128000Y-109885700D03*
X117128000Y-112425700D03*
X117128000Y-114965700D03*
X109508000Y-114965700D03*
X109508000Y-112425700D03*
X109508000Y-109885700D03*
X109508000Y-107345700D03*
%TD*%
D15*
%TO.C,Q*%
X121964000Y-112415700D03*
%TD*%
D16*
%TO.C,R7*%
X136950000Y-135713700D03*
D17*
X126790000Y-135713700D03*
%TD*%
D16*
%TO.C,R3*%
X136950000Y-123563700D03*
D17*
X126790000Y-123563700D03*
%TD*%
D23*
%TO.C,C1*%
X150570000Y-109367700D03*
D16*
X150570000Y-111867700D03*
%TD*%
%TO.C,R4*%
X136950000Y-127613700D03*
D17*
X126790000Y-127613700D03*
%TD*%
D16*
%TO.C,R5*%
X136950000Y-131663700D03*
D17*
X126790000Y-131663700D03*
%TD*%
M02*
