%TF.GenerationSoftware,KiCad,Pcbnew,9.0.6*%
%TF.CreationDate,2026-01-25T16:33:18+01:00*%
%TF.ProjectId,Tiger,54696765-722e-46b6-9963-61645f706362,rev?*%
%TF.SameCoordinates,Original*%
%TF.FileFunction,Legend,Bot*%
%TF.FilePolarity,Positive*%
%FSLAX46Y46*%
G04 Gerber Fmt 4.6, Leading zero omitted, Abs format (unit mm)*
G04 Created by KiCad (PCBNEW 9.0.6) date 2026-01-25 16:33:18*
%MOMM*%
%LPD*%
G01*
G04 APERTURE LIST*
%ADD10C,0.150000*%
%ADD11C,0.200000*%
%ADD12C,0.050000*%
%ADD13C,0.120000*%
%ADD14C,0.010000*%
G04 APERTURE END LIST*
D10*
X105123950Y-143430585D02*
G75*
G02*
X108709749Y-143417233I1785800J1913355D01*
G01*
X155014203Y-142713354D02*
G75*
G02*
X158599999Y-142699999I1785797J1913354D01*
G01*
X105100000Y-143417231D02*
X108709747Y-143417231D01*
X155000000Y-142700000D02*
X158600000Y-142700000D01*
X157524000Y-106065700D02*
X157524000Y-108859700D01*
X128177506Y-147669819D02*
X128177506Y-148384104D01*
X128177506Y-148384104D02*
X128225125Y-148526961D01*
X128225125Y-148526961D02*
X128320363Y-148622200D01*
X128320363Y-148622200D02*
X128463220Y-148669819D01*
X128463220Y-148669819D02*
X128558458Y-148669819D01*
X127225125Y-148669819D02*
X127701315Y-148669819D01*
X127701315Y-148669819D02*
X127701315Y-147669819D01*
X126320363Y-148574580D02*
X126367982Y-148622200D01*
X126367982Y-148622200D02*
X126510839Y-148669819D01*
X126510839Y-148669819D02*
X126606077Y-148669819D01*
X126606077Y-148669819D02*
X126748934Y-148622200D01*
X126748934Y-148622200D02*
X126844172Y-148526961D01*
X126844172Y-148526961D02*
X126891791Y-148431723D01*
X126891791Y-148431723D02*
X126939410Y-148241247D01*
X126939410Y-148241247D02*
X126939410Y-148098390D01*
X126939410Y-148098390D02*
X126891791Y-147907914D01*
X126891791Y-147907914D02*
X126844172Y-147812676D01*
X126844172Y-147812676D02*
X126748934Y-147717438D01*
X126748934Y-147717438D02*
X126606077Y-147669819D01*
X126606077Y-147669819D02*
X126510839Y-147669819D01*
X126510839Y-147669819D02*
X126367982Y-147717438D01*
X126367982Y-147717438D02*
X126320363Y-147765057D01*
X125606077Y-147669819D02*
X125606077Y-148384104D01*
X125606077Y-148384104D02*
X125653696Y-148526961D01*
X125653696Y-148526961D02*
X125748934Y-148622200D01*
X125748934Y-148622200D02*
X125891791Y-148669819D01*
X125891791Y-148669819D02*
X125987029Y-148669819D01*
X124653696Y-148669819D02*
X125129886Y-148669819D01*
X125129886Y-148669819D02*
X125129886Y-147669819D01*
X123748934Y-148574580D02*
X123796553Y-148622200D01*
X123796553Y-148622200D02*
X123939410Y-148669819D01*
X123939410Y-148669819D02*
X124034648Y-148669819D01*
X124034648Y-148669819D02*
X124177505Y-148622200D01*
X124177505Y-148622200D02*
X124272743Y-148526961D01*
X124272743Y-148526961D02*
X124320362Y-148431723D01*
X124320362Y-148431723D02*
X124367981Y-148241247D01*
X124367981Y-148241247D02*
X124367981Y-148098390D01*
X124367981Y-148098390D02*
X124320362Y-147907914D01*
X124320362Y-147907914D02*
X124272743Y-147812676D01*
X124272743Y-147812676D02*
X124177505Y-147717438D01*
X124177505Y-147717438D02*
X124034648Y-147669819D01*
X124034648Y-147669819D02*
X123939410Y-147669819D01*
X123939410Y-147669819D02*
X123796553Y-147717438D01*
X123796553Y-147717438D02*
X123748934Y-147765057D01*
X123034648Y-147669819D02*
X123034648Y-148384104D01*
X123034648Y-148384104D02*
X123082267Y-148526961D01*
X123082267Y-148526961D02*
X123177505Y-148622200D01*
X123177505Y-148622200D02*
X123320362Y-148669819D01*
X123320362Y-148669819D02*
X123415600Y-148669819D01*
X122082267Y-148669819D02*
X122558457Y-148669819D01*
X122558457Y-148669819D02*
X122558457Y-147669819D01*
X121177505Y-148574580D02*
X121225124Y-148622200D01*
X121225124Y-148622200D02*
X121367981Y-148669819D01*
X121367981Y-148669819D02*
X121463219Y-148669819D01*
X121463219Y-148669819D02*
X121606076Y-148622200D01*
X121606076Y-148622200D02*
X121701314Y-148526961D01*
X121701314Y-148526961D02*
X121748933Y-148431723D01*
X121748933Y-148431723D02*
X121796552Y-148241247D01*
X121796552Y-148241247D02*
X121796552Y-148098390D01*
X121796552Y-148098390D02*
X121748933Y-147907914D01*
X121748933Y-147907914D02*
X121701314Y-147812676D01*
X121701314Y-147812676D02*
X121606076Y-147717438D01*
X121606076Y-147717438D02*
X121463219Y-147669819D01*
X121463219Y-147669819D02*
X121367981Y-147669819D01*
X121367981Y-147669819D02*
X121225124Y-147717438D01*
X121225124Y-147717438D02*
X121177505Y-147765057D01*
X120463219Y-147669819D02*
X120463219Y-148384104D01*
X120463219Y-148384104D02*
X120510838Y-148526961D01*
X120510838Y-148526961D02*
X120606076Y-148622200D01*
X120606076Y-148622200D02*
X120748933Y-148669819D01*
X120748933Y-148669819D02*
X120844171Y-148669819D01*
X119510838Y-148669819D02*
X119987028Y-148669819D01*
X119987028Y-148669819D02*
X119987028Y-147669819D01*
X118606076Y-148574580D02*
X118653695Y-148622200D01*
X118653695Y-148622200D02*
X118796552Y-148669819D01*
X118796552Y-148669819D02*
X118891790Y-148669819D01*
X118891790Y-148669819D02*
X119034647Y-148622200D01*
X119034647Y-148622200D02*
X119129885Y-148526961D01*
X119129885Y-148526961D02*
X119177504Y-148431723D01*
X119177504Y-148431723D02*
X119225123Y-148241247D01*
X119225123Y-148241247D02*
X119225123Y-148098390D01*
X119225123Y-148098390D02*
X119177504Y-147907914D01*
X119177504Y-147907914D02*
X119129885Y-147812676D01*
X119129885Y-147812676D02*
X119034647Y-147717438D01*
X119034647Y-147717438D02*
X118891790Y-147669819D01*
X118891790Y-147669819D02*
X118796552Y-147669819D01*
X118796552Y-147669819D02*
X118653695Y-147717438D01*
X118653695Y-147717438D02*
X118606076Y-147765057D01*
X111975220Y-89425519D02*
X111975220Y-88425519D01*
X111403792Y-89425519D02*
X111832363Y-88854090D01*
X111403792Y-88425519D02*
X111975220Y-88996947D01*
X108529887Y-144546009D02*
X108387030Y-144593628D01*
X108387030Y-144593628D02*
X108339411Y-144641247D01*
X108339411Y-144641247D02*
X108291792Y-144736485D01*
X108291792Y-144736485D02*
X108291792Y-144879342D01*
X108291792Y-144879342D02*
X108339411Y-144974580D01*
X108339411Y-144974580D02*
X108387030Y-145022200D01*
X108387030Y-145022200D02*
X108482268Y-145069819D01*
X108482268Y-145069819D02*
X108863220Y-145069819D01*
X108863220Y-145069819D02*
X108863220Y-144069819D01*
X108863220Y-144069819D02*
X108529887Y-144069819D01*
X108529887Y-144069819D02*
X108434649Y-144117438D01*
X108434649Y-144117438D02*
X108387030Y-144165057D01*
X108387030Y-144165057D02*
X108339411Y-144260295D01*
X108339411Y-144260295D02*
X108339411Y-144355533D01*
X108339411Y-144355533D02*
X108387030Y-144450771D01*
X108387030Y-144450771D02*
X108434649Y-144498390D01*
X108434649Y-144498390D02*
X108529887Y-144546009D01*
X108529887Y-144546009D02*
X108863220Y-144546009D01*
X107291792Y-144974580D02*
X107339411Y-145022200D01*
X107339411Y-145022200D02*
X107482268Y-145069819D01*
X107482268Y-145069819D02*
X107577506Y-145069819D01*
X107577506Y-145069819D02*
X107720363Y-145022200D01*
X107720363Y-145022200D02*
X107815601Y-144926961D01*
X107815601Y-144926961D02*
X107863220Y-144831723D01*
X107863220Y-144831723D02*
X107910839Y-144641247D01*
X107910839Y-144641247D02*
X107910839Y-144498390D01*
X107910839Y-144498390D02*
X107863220Y-144307914D01*
X107863220Y-144307914D02*
X107815601Y-144212676D01*
X107815601Y-144212676D02*
X107720363Y-144117438D01*
X107720363Y-144117438D02*
X107577506Y-144069819D01*
X107577506Y-144069819D02*
X107482268Y-144069819D01*
X107482268Y-144069819D02*
X107339411Y-144117438D01*
X107339411Y-144117438D02*
X107291792Y-144165057D01*
X106387030Y-144069819D02*
X106863220Y-144069819D01*
X106863220Y-144069819D02*
X106910839Y-144546009D01*
X106910839Y-144546009D02*
X106863220Y-144498390D01*
X106863220Y-144498390D02*
X106767982Y-144450771D01*
X106767982Y-144450771D02*
X106529887Y-144450771D01*
X106529887Y-144450771D02*
X106434649Y-144498390D01*
X106434649Y-144498390D02*
X106387030Y-144546009D01*
X106387030Y-144546009D02*
X106339411Y-144641247D01*
X106339411Y-144641247D02*
X106339411Y-144879342D01*
X106339411Y-144879342D02*
X106387030Y-144974580D01*
X106387030Y-144974580D02*
X106434649Y-145022200D01*
X106434649Y-145022200D02*
X106529887Y-145069819D01*
X106529887Y-145069819D02*
X106767982Y-145069819D01*
X106767982Y-145069819D02*
X106863220Y-145022200D01*
X106863220Y-145022200D02*
X106910839Y-144974580D01*
X105482268Y-144403152D02*
X105482268Y-145069819D01*
X105720363Y-144022200D02*
X105958458Y-144736485D01*
X105958458Y-144736485D02*
X105339411Y-144736485D01*
X104815601Y-144498390D02*
X104910839Y-144450771D01*
X104910839Y-144450771D02*
X104958458Y-144403152D01*
X104958458Y-144403152D02*
X105006077Y-144307914D01*
X105006077Y-144307914D02*
X105006077Y-144260295D01*
X105006077Y-144260295D02*
X104958458Y-144165057D01*
X104958458Y-144165057D02*
X104910839Y-144117438D01*
X104910839Y-144117438D02*
X104815601Y-144069819D01*
X104815601Y-144069819D02*
X104625125Y-144069819D01*
X104625125Y-144069819D02*
X104529887Y-144117438D01*
X104529887Y-144117438D02*
X104482268Y-144165057D01*
X104482268Y-144165057D02*
X104434649Y-144260295D01*
X104434649Y-144260295D02*
X104434649Y-144307914D01*
X104434649Y-144307914D02*
X104482268Y-144403152D01*
X104482268Y-144403152D02*
X104529887Y-144450771D01*
X104529887Y-144450771D02*
X104625125Y-144498390D01*
X104625125Y-144498390D02*
X104815601Y-144498390D01*
X104815601Y-144498390D02*
X104910839Y-144546009D01*
X104910839Y-144546009D02*
X104958458Y-144593628D01*
X104958458Y-144593628D02*
X105006077Y-144688866D01*
X105006077Y-144688866D02*
X105006077Y-144879342D01*
X105006077Y-144879342D02*
X104958458Y-144974580D01*
X104958458Y-144974580D02*
X104910839Y-145022200D01*
X104910839Y-145022200D02*
X104815601Y-145069819D01*
X104815601Y-145069819D02*
X104625125Y-145069819D01*
X104625125Y-145069819D02*
X104529887Y-145022200D01*
X104529887Y-145022200D02*
X104482268Y-144974580D01*
X104482268Y-144974580D02*
X104434649Y-144879342D01*
X104434649Y-144879342D02*
X104434649Y-144688866D01*
X104434649Y-144688866D02*
X104482268Y-144593628D01*
X104482268Y-144593628D02*
X104529887Y-144546009D01*
X104529887Y-144546009D02*
X104625125Y-144498390D01*
X118817411Y-107713519D02*
X119388839Y-107713519D01*
X119103125Y-107713519D02*
X119103125Y-106713519D01*
X119103125Y-106713519D02*
X119198363Y-106856376D01*
X119198363Y-106856376D02*
X119293601Y-106951614D01*
X119293601Y-106951614D02*
X119388839Y-106999233D01*
X102577220Y-141733709D02*
X102243887Y-141733709D01*
X102101030Y-142257519D02*
X102577220Y-142257519D01*
X102577220Y-142257519D02*
X102577220Y-141257519D01*
X102577220Y-141257519D02*
X102101030Y-141257519D01*
X114851904Y-79406138D02*
X114947142Y-79358519D01*
X114947142Y-79358519D02*
X115089999Y-79358519D01*
X115089999Y-79358519D02*
X115232856Y-79406138D01*
X115232856Y-79406138D02*
X115328094Y-79501376D01*
X115328094Y-79501376D02*
X115375713Y-79596614D01*
X115375713Y-79596614D02*
X115423332Y-79787090D01*
X115423332Y-79787090D02*
X115423332Y-79929947D01*
X115423332Y-79929947D02*
X115375713Y-80120423D01*
X115375713Y-80120423D02*
X115328094Y-80215661D01*
X115328094Y-80215661D02*
X115232856Y-80310900D01*
X115232856Y-80310900D02*
X115089999Y-80358519D01*
X115089999Y-80358519D02*
X114994761Y-80358519D01*
X114994761Y-80358519D02*
X114851904Y-80310900D01*
X114851904Y-80310900D02*
X114804285Y-80263280D01*
X114804285Y-80263280D02*
X114804285Y-79929947D01*
X114804285Y-79929947D02*
X114994761Y-79929947D01*
X114375713Y-80358519D02*
X114375713Y-79358519D01*
X114375713Y-79358519D02*
X113804285Y-80358519D01*
X113804285Y-80358519D02*
X113804285Y-79358519D01*
X113328094Y-80358519D02*
X113328094Y-79358519D01*
X113328094Y-79358519D02*
X113089999Y-79358519D01*
X113089999Y-79358519D02*
X112947142Y-79406138D01*
X112947142Y-79406138D02*
X112851904Y-79501376D01*
X112851904Y-79501376D02*
X112804285Y-79596614D01*
X112804285Y-79596614D02*
X112756666Y-79787090D01*
X112756666Y-79787090D02*
X112756666Y-79929947D01*
X112756666Y-79929947D02*
X112804285Y-80120423D01*
X112804285Y-80120423D02*
X112851904Y-80215661D01*
X112851904Y-80215661D02*
X112947142Y-80310900D01*
X112947142Y-80310900D02*
X113089999Y-80358519D01*
X113089999Y-80358519D02*
X113328094Y-80358519D01*
X158729887Y-143946009D02*
X158587030Y-143993628D01*
X158587030Y-143993628D02*
X158539411Y-144041247D01*
X158539411Y-144041247D02*
X158491792Y-144136485D01*
X158491792Y-144136485D02*
X158491792Y-144279342D01*
X158491792Y-144279342D02*
X158539411Y-144374580D01*
X158539411Y-144374580D02*
X158587030Y-144422200D01*
X158587030Y-144422200D02*
X158682268Y-144469819D01*
X158682268Y-144469819D02*
X159063220Y-144469819D01*
X159063220Y-144469819D02*
X159063220Y-143469819D01*
X159063220Y-143469819D02*
X158729887Y-143469819D01*
X158729887Y-143469819D02*
X158634649Y-143517438D01*
X158634649Y-143517438D02*
X158587030Y-143565057D01*
X158587030Y-143565057D02*
X158539411Y-143660295D01*
X158539411Y-143660295D02*
X158539411Y-143755533D01*
X158539411Y-143755533D02*
X158587030Y-143850771D01*
X158587030Y-143850771D02*
X158634649Y-143898390D01*
X158634649Y-143898390D02*
X158729887Y-143946009D01*
X158729887Y-143946009D02*
X159063220Y-143946009D01*
X157491792Y-144374580D02*
X157539411Y-144422200D01*
X157539411Y-144422200D02*
X157682268Y-144469819D01*
X157682268Y-144469819D02*
X157777506Y-144469819D01*
X157777506Y-144469819D02*
X157920363Y-144422200D01*
X157920363Y-144422200D02*
X158015601Y-144326961D01*
X158015601Y-144326961D02*
X158063220Y-144231723D01*
X158063220Y-144231723D02*
X158110839Y-144041247D01*
X158110839Y-144041247D02*
X158110839Y-143898390D01*
X158110839Y-143898390D02*
X158063220Y-143707914D01*
X158063220Y-143707914D02*
X158015601Y-143612676D01*
X158015601Y-143612676D02*
X157920363Y-143517438D01*
X157920363Y-143517438D02*
X157777506Y-143469819D01*
X157777506Y-143469819D02*
X157682268Y-143469819D01*
X157682268Y-143469819D02*
X157539411Y-143517438D01*
X157539411Y-143517438D02*
X157491792Y-143565057D01*
X156587030Y-143469819D02*
X157063220Y-143469819D01*
X157063220Y-143469819D02*
X157110839Y-143946009D01*
X157110839Y-143946009D02*
X157063220Y-143898390D01*
X157063220Y-143898390D02*
X156967982Y-143850771D01*
X156967982Y-143850771D02*
X156729887Y-143850771D01*
X156729887Y-143850771D02*
X156634649Y-143898390D01*
X156634649Y-143898390D02*
X156587030Y-143946009D01*
X156587030Y-143946009D02*
X156539411Y-144041247D01*
X156539411Y-144041247D02*
X156539411Y-144279342D01*
X156539411Y-144279342D02*
X156587030Y-144374580D01*
X156587030Y-144374580D02*
X156634649Y-144422200D01*
X156634649Y-144422200D02*
X156729887Y-144469819D01*
X156729887Y-144469819D02*
X156967982Y-144469819D01*
X156967982Y-144469819D02*
X157063220Y-144422200D01*
X157063220Y-144422200D02*
X157110839Y-144374580D01*
X155682268Y-143803152D02*
X155682268Y-144469819D01*
X155920363Y-143422200D02*
X156158458Y-144136485D01*
X156158458Y-144136485D02*
X155539411Y-144136485D01*
X155015601Y-143898390D02*
X155110839Y-143850771D01*
X155110839Y-143850771D02*
X155158458Y-143803152D01*
X155158458Y-143803152D02*
X155206077Y-143707914D01*
X155206077Y-143707914D02*
X155206077Y-143660295D01*
X155206077Y-143660295D02*
X155158458Y-143565057D01*
X155158458Y-143565057D02*
X155110839Y-143517438D01*
X155110839Y-143517438D02*
X155015601Y-143469819D01*
X155015601Y-143469819D02*
X154825125Y-143469819D01*
X154825125Y-143469819D02*
X154729887Y-143517438D01*
X154729887Y-143517438D02*
X154682268Y-143565057D01*
X154682268Y-143565057D02*
X154634649Y-143660295D01*
X154634649Y-143660295D02*
X154634649Y-143707914D01*
X154634649Y-143707914D02*
X154682268Y-143803152D01*
X154682268Y-143803152D02*
X154729887Y-143850771D01*
X154729887Y-143850771D02*
X154825125Y-143898390D01*
X154825125Y-143898390D02*
X155015601Y-143898390D01*
X155015601Y-143898390D02*
X155110839Y-143946009D01*
X155110839Y-143946009D02*
X155158458Y-143993628D01*
X155158458Y-143993628D02*
X155206077Y-144088866D01*
X155206077Y-144088866D02*
X155206077Y-144279342D01*
X155206077Y-144279342D02*
X155158458Y-144374580D01*
X155158458Y-144374580D02*
X155110839Y-144422200D01*
X155110839Y-144422200D02*
X155015601Y-144469819D01*
X155015601Y-144469819D02*
X154825125Y-144469819D01*
X154825125Y-144469819D02*
X154729887Y-144422200D01*
X154729887Y-144422200D02*
X154682268Y-144374580D01*
X154682268Y-144374580D02*
X154634649Y-144279342D01*
X154634649Y-144279342D02*
X154634649Y-144088866D01*
X154634649Y-144088866D02*
X154682268Y-143993628D01*
X154682268Y-143993628D02*
X154729887Y-143946009D01*
X154729887Y-143946009D02*
X154825125Y-143898390D01*
X147027220Y-89425519D02*
X147027220Y-88425519D01*
X146455792Y-89425519D02*
X146884363Y-88854090D01*
X146455792Y-88425519D02*
X147027220Y-88996947D01*
X107606077Y-136869819D02*
X107034649Y-136869819D01*
X107320363Y-137869819D02*
X107320363Y-136869819D01*
X106177506Y-137869819D02*
X106748934Y-137869819D01*
X106463220Y-137869819D02*
X106463220Y-136869819D01*
X106463220Y-136869819D02*
X106558458Y-137012676D01*
X106558458Y-137012676D02*
X106653696Y-137107914D01*
X106653696Y-137107914D02*
X106748934Y-137155533D01*
X151853220Y-141225709D02*
X151519887Y-141225709D01*
X151377030Y-141749519D02*
X151853220Y-141749519D01*
X151853220Y-141749519D02*
X151853220Y-140749519D01*
X151853220Y-140749519D02*
X151377030Y-140749519D01*
X157506077Y-136169819D02*
X156934649Y-136169819D01*
X157220363Y-137169819D02*
X157220363Y-136169819D01*
X156648934Y-136265057D02*
X156601315Y-136217438D01*
X156601315Y-136217438D02*
X156506077Y-136169819D01*
X156506077Y-136169819D02*
X156267982Y-136169819D01*
X156267982Y-136169819D02*
X156172744Y-136217438D01*
X156172744Y-136217438D02*
X156125125Y-136265057D01*
X156125125Y-136265057D02*
X156077506Y-136360295D01*
X156077506Y-136360295D02*
X156077506Y-136455533D01*
X156077506Y-136455533D02*
X156125125Y-136598390D01*
X156125125Y-136598390D02*
X156696553Y-137169819D01*
X156696553Y-137169819D02*
X156077506Y-137169819D01*
D11*
X151361904Y-115052933D02*
X149838095Y-115052933D01*
D10*
X155920475Y-79104519D02*
X155587142Y-80104519D01*
X155587142Y-80104519D02*
X155253809Y-79104519D01*
X154491904Y-80056900D02*
X154587142Y-80104519D01*
X154587142Y-80104519D02*
X154777618Y-80104519D01*
X154777618Y-80104519D02*
X154872856Y-80056900D01*
X154872856Y-80056900D02*
X154920475Y-80009280D01*
X154920475Y-80009280D02*
X154968094Y-79914042D01*
X154968094Y-79914042D02*
X154968094Y-79628328D01*
X154968094Y-79628328D02*
X154920475Y-79533090D01*
X154920475Y-79533090D02*
X154872856Y-79485471D01*
X154872856Y-79485471D02*
X154777618Y-79437852D01*
X154777618Y-79437852D02*
X154587142Y-79437852D01*
X154587142Y-79437852D02*
X154491904Y-79485471D01*
X153634761Y-80056900D02*
X153729999Y-80104519D01*
X153729999Y-80104519D02*
X153920475Y-80104519D01*
X153920475Y-80104519D02*
X154015713Y-80056900D01*
X154015713Y-80056900D02*
X154063332Y-80009280D01*
X154063332Y-80009280D02*
X154110951Y-79914042D01*
X154110951Y-79914042D02*
X154110951Y-79628328D01*
X154110951Y-79628328D02*
X154063332Y-79533090D01*
X154063332Y-79533090D02*
X154015713Y-79485471D01*
X154015713Y-79485471D02*
X153920475Y-79437852D01*
X153920475Y-79437852D02*
X153729999Y-79437852D01*
X153729999Y-79437852D02*
X153634761Y-79485471D01*
X132036666Y-119982519D02*
X132369999Y-119506328D01*
X132608094Y-119982519D02*
X132608094Y-118982519D01*
X132608094Y-118982519D02*
X132227142Y-118982519D01*
X132227142Y-118982519D02*
X132131904Y-119030138D01*
X132131904Y-119030138D02*
X132084285Y-119077757D01*
X132084285Y-119077757D02*
X132036666Y-119172995D01*
X132036666Y-119172995D02*
X132036666Y-119315852D01*
X132036666Y-119315852D02*
X132084285Y-119411090D01*
X132084285Y-119411090D02*
X132131904Y-119458709D01*
X132131904Y-119458709D02*
X132227142Y-119506328D01*
X132227142Y-119506328D02*
X132608094Y-119506328D01*
X131655713Y-119077757D02*
X131608094Y-119030138D01*
X131608094Y-119030138D02*
X131512856Y-118982519D01*
X131512856Y-118982519D02*
X131274761Y-118982519D01*
X131274761Y-118982519D02*
X131179523Y-119030138D01*
X131179523Y-119030138D02*
X131131904Y-119077757D01*
X131131904Y-119077757D02*
X131084285Y-119172995D01*
X131084285Y-119172995D02*
X131084285Y-119268233D01*
X131084285Y-119268233D02*
X131131904Y-119411090D01*
X131131904Y-119411090D02*
X131703332Y-119982519D01*
X131703332Y-119982519D02*
X131084285Y-119982519D01*
X124890475Y-118914819D02*
X124271428Y-118914819D01*
X124271428Y-118914819D02*
X124604761Y-119295771D01*
X124604761Y-119295771D02*
X124461904Y-119295771D01*
X124461904Y-119295771D02*
X124366666Y-119343390D01*
X124366666Y-119343390D02*
X124319047Y-119391009D01*
X124319047Y-119391009D02*
X124271428Y-119486247D01*
X124271428Y-119486247D02*
X124271428Y-119724342D01*
X124271428Y-119724342D02*
X124319047Y-119819580D01*
X124319047Y-119819580D02*
X124366666Y-119867200D01*
X124366666Y-119867200D02*
X124461904Y-119914819D01*
X124461904Y-119914819D02*
X124747618Y-119914819D01*
X124747618Y-119914819D02*
X124842856Y-119867200D01*
X124842856Y-119867200D02*
X124890475Y-119819580D01*
X123795237Y-119914819D02*
X123604761Y-119914819D01*
X123604761Y-119914819D02*
X123509523Y-119867200D01*
X123509523Y-119867200D02*
X123461904Y-119819580D01*
X123461904Y-119819580D02*
X123366666Y-119676723D01*
X123366666Y-119676723D02*
X123319047Y-119486247D01*
X123319047Y-119486247D02*
X123319047Y-119105295D01*
X123319047Y-119105295D02*
X123366666Y-119010057D01*
X123366666Y-119010057D02*
X123414285Y-118962438D01*
X123414285Y-118962438D02*
X123509523Y-118914819D01*
X123509523Y-118914819D02*
X123699999Y-118914819D01*
X123699999Y-118914819D02*
X123795237Y-118962438D01*
X123795237Y-118962438D02*
X123842856Y-119010057D01*
X123842856Y-119010057D02*
X123890475Y-119105295D01*
X123890475Y-119105295D02*
X123890475Y-119343390D01*
X123890475Y-119343390D02*
X123842856Y-119438628D01*
X123842856Y-119438628D02*
X123795237Y-119486247D01*
X123795237Y-119486247D02*
X123699999Y-119533866D01*
X123699999Y-119533866D02*
X123509523Y-119533866D01*
X123509523Y-119533866D02*
X123414285Y-119486247D01*
X123414285Y-119486247D02*
X123366666Y-119438628D01*
X123366666Y-119438628D02*
X123319047Y-119343390D01*
X122699999Y-118914819D02*
X122604761Y-118914819D01*
X122604761Y-118914819D02*
X122509523Y-118962438D01*
X122509523Y-118962438D02*
X122461904Y-119010057D01*
X122461904Y-119010057D02*
X122414285Y-119105295D01*
X122414285Y-119105295D02*
X122366666Y-119295771D01*
X122366666Y-119295771D02*
X122366666Y-119533866D01*
X122366666Y-119533866D02*
X122414285Y-119724342D01*
X122414285Y-119724342D02*
X122461904Y-119819580D01*
X122461904Y-119819580D02*
X122509523Y-119867200D01*
X122509523Y-119867200D02*
X122604761Y-119914819D01*
X122604761Y-119914819D02*
X122699999Y-119914819D01*
X122699999Y-119914819D02*
X122795237Y-119867200D01*
X122795237Y-119867200D02*
X122842856Y-119819580D01*
X122842856Y-119819580D02*
X122890475Y-119724342D01*
X122890475Y-119724342D02*
X122938094Y-119533866D01*
X122938094Y-119533866D02*
X122938094Y-119295771D01*
X122938094Y-119295771D02*
X122890475Y-119105295D01*
X122890475Y-119105295D02*
X122842856Y-119010057D01*
X122842856Y-119010057D02*
X122795237Y-118962438D01*
X122795237Y-118962438D02*
X122699999Y-118914819D01*
X121938094Y-119914819D02*
X121938094Y-118914819D01*
X121842856Y-119533866D02*
X121557142Y-119914819D01*
X121557142Y-119248152D02*
X121938094Y-119629104D01*
X141538094Y-104854819D02*
X141538094Y-103854819D01*
X141538094Y-103854819D02*
X141299999Y-103854819D01*
X141299999Y-103854819D02*
X141157142Y-103902438D01*
X141157142Y-103902438D02*
X141061904Y-103997676D01*
X141061904Y-103997676D02*
X141014285Y-104092914D01*
X141014285Y-104092914D02*
X140966666Y-104283390D01*
X140966666Y-104283390D02*
X140966666Y-104426247D01*
X140966666Y-104426247D02*
X141014285Y-104616723D01*
X141014285Y-104616723D02*
X141061904Y-104711961D01*
X141061904Y-104711961D02*
X141157142Y-104807200D01*
X141157142Y-104807200D02*
X141299999Y-104854819D01*
X141299999Y-104854819D02*
X141538094Y-104854819D01*
X140633332Y-103854819D02*
X140014285Y-103854819D01*
X140014285Y-103854819D02*
X140347618Y-104235771D01*
X140347618Y-104235771D02*
X140204761Y-104235771D01*
X140204761Y-104235771D02*
X140109523Y-104283390D01*
X140109523Y-104283390D02*
X140061904Y-104331009D01*
X140061904Y-104331009D02*
X140014285Y-104426247D01*
X140014285Y-104426247D02*
X140014285Y-104664342D01*
X140014285Y-104664342D02*
X140061904Y-104759580D01*
X140061904Y-104759580D02*
X140109523Y-104807200D01*
X140109523Y-104807200D02*
X140204761Y-104854819D01*
X140204761Y-104854819D02*
X140490475Y-104854819D01*
X140490475Y-104854819D02*
X140585713Y-104807200D01*
X140585713Y-104807200D02*
X140633332Y-104759580D01*
X137745180Y-112542857D02*
X137745180Y-113114285D01*
X137745180Y-112828571D02*
X138745180Y-112828571D01*
X138745180Y-112828571D02*
X138602323Y-112923809D01*
X138602323Y-112923809D02*
X138507085Y-113019047D01*
X138507085Y-113019047D02*
X138459466Y-113114285D01*
X137745180Y-112114285D02*
X138745180Y-112114285D01*
X138745180Y-112114285D02*
X137745180Y-111542857D01*
X137745180Y-111542857D02*
X138745180Y-111542857D01*
X138411847Y-110638095D02*
X137745180Y-110638095D01*
X138792800Y-110876190D02*
X138078514Y-111114285D01*
X138078514Y-111114285D02*
X138078514Y-110495238D01*
X137745180Y-109590476D02*
X137745180Y-110161904D01*
X137745180Y-109876190D02*
X138745180Y-109876190D01*
X138745180Y-109876190D02*
X138602323Y-109971428D01*
X138602323Y-109971428D02*
X138507085Y-110066666D01*
X138507085Y-110066666D02*
X138459466Y-110161904D01*
X138411847Y-108733333D02*
X137745180Y-108733333D01*
X138792800Y-108971428D02*
X138078514Y-109209523D01*
X138078514Y-109209523D02*
X138078514Y-108590476D01*
X138316609Y-108066666D02*
X138364228Y-108161904D01*
X138364228Y-108161904D02*
X138411847Y-108209523D01*
X138411847Y-108209523D02*
X138507085Y-108257142D01*
X138507085Y-108257142D02*
X138554704Y-108257142D01*
X138554704Y-108257142D02*
X138649942Y-108209523D01*
X138649942Y-108209523D02*
X138697561Y-108161904D01*
X138697561Y-108161904D02*
X138745180Y-108066666D01*
X138745180Y-108066666D02*
X138745180Y-107876190D01*
X138745180Y-107876190D02*
X138697561Y-107780952D01*
X138697561Y-107780952D02*
X138649942Y-107733333D01*
X138649942Y-107733333D02*
X138554704Y-107685714D01*
X138554704Y-107685714D02*
X138507085Y-107685714D01*
X138507085Y-107685714D02*
X138411847Y-107733333D01*
X138411847Y-107733333D02*
X138364228Y-107780952D01*
X138364228Y-107780952D02*
X138316609Y-107876190D01*
X138316609Y-107876190D02*
X138316609Y-108066666D01*
X138316609Y-108066666D02*
X138268990Y-108161904D01*
X138268990Y-108161904D02*
X138221371Y-108209523D01*
X138221371Y-108209523D02*
X138126133Y-108257142D01*
X138126133Y-108257142D02*
X137935657Y-108257142D01*
X137935657Y-108257142D02*
X137840419Y-108209523D01*
X137840419Y-108209523D02*
X137792800Y-108161904D01*
X137792800Y-108161904D02*
X137745180Y-108066666D01*
X137745180Y-108066666D02*
X137745180Y-107876190D01*
X137745180Y-107876190D02*
X137792800Y-107780952D01*
X137792800Y-107780952D02*
X137840419Y-107733333D01*
X137840419Y-107733333D02*
X137935657Y-107685714D01*
X137935657Y-107685714D02*
X138126133Y-107685714D01*
X138126133Y-107685714D02*
X138221371Y-107733333D01*
X138221371Y-107733333D02*
X138268990Y-107780952D01*
X138268990Y-107780952D02*
X138316609Y-107876190D01*
X139221904Y-107028519D02*
X139221904Y-106028519D01*
X138650476Y-107028519D02*
X139079047Y-106457090D01*
X138650476Y-106028519D02*
X139221904Y-106599947D01*
X132036666Y-115918519D02*
X132369999Y-115442328D01*
X132608094Y-115918519D02*
X132608094Y-114918519D01*
X132608094Y-114918519D02*
X132227142Y-114918519D01*
X132227142Y-114918519D02*
X132131904Y-114966138D01*
X132131904Y-114966138D02*
X132084285Y-115013757D01*
X132084285Y-115013757D02*
X132036666Y-115108995D01*
X132036666Y-115108995D02*
X132036666Y-115251852D01*
X132036666Y-115251852D02*
X132084285Y-115347090D01*
X132084285Y-115347090D02*
X132131904Y-115394709D01*
X132131904Y-115394709D02*
X132227142Y-115442328D01*
X132227142Y-115442328D02*
X132608094Y-115442328D01*
X131084285Y-115918519D02*
X131655713Y-115918519D01*
X131369999Y-115918519D02*
X131369999Y-114918519D01*
X131369999Y-114918519D02*
X131465237Y-115061376D01*
X131465237Y-115061376D02*
X131560475Y-115156614D01*
X131560475Y-115156614D02*
X131655713Y-115204233D01*
X124319047Y-114854819D02*
X124795237Y-114854819D01*
X124795237Y-114854819D02*
X124842856Y-115331009D01*
X124842856Y-115331009D02*
X124795237Y-115283390D01*
X124795237Y-115283390D02*
X124699999Y-115235771D01*
X124699999Y-115235771D02*
X124461904Y-115235771D01*
X124461904Y-115235771D02*
X124366666Y-115283390D01*
X124366666Y-115283390D02*
X124319047Y-115331009D01*
X124319047Y-115331009D02*
X124271428Y-115426247D01*
X124271428Y-115426247D02*
X124271428Y-115664342D01*
X124271428Y-115664342D02*
X124319047Y-115759580D01*
X124319047Y-115759580D02*
X124366666Y-115807200D01*
X124366666Y-115807200D02*
X124461904Y-115854819D01*
X124461904Y-115854819D02*
X124699999Y-115854819D01*
X124699999Y-115854819D02*
X124795237Y-115807200D01*
X124795237Y-115807200D02*
X124842856Y-115759580D01*
X123414285Y-114854819D02*
X123604761Y-114854819D01*
X123604761Y-114854819D02*
X123699999Y-114902438D01*
X123699999Y-114902438D02*
X123747618Y-114950057D01*
X123747618Y-114950057D02*
X123842856Y-115092914D01*
X123842856Y-115092914D02*
X123890475Y-115283390D01*
X123890475Y-115283390D02*
X123890475Y-115664342D01*
X123890475Y-115664342D02*
X123842856Y-115759580D01*
X123842856Y-115759580D02*
X123795237Y-115807200D01*
X123795237Y-115807200D02*
X123699999Y-115854819D01*
X123699999Y-115854819D02*
X123509523Y-115854819D01*
X123509523Y-115854819D02*
X123414285Y-115807200D01*
X123414285Y-115807200D02*
X123366666Y-115759580D01*
X123366666Y-115759580D02*
X123319047Y-115664342D01*
X123319047Y-115664342D02*
X123319047Y-115426247D01*
X123319047Y-115426247D02*
X123366666Y-115331009D01*
X123366666Y-115331009D02*
X123414285Y-115283390D01*
X123414285Y-115283390D02*
X123509523Y-115235771D01*
X123509523Y-115235771D02*
X123699999Y-115235771D01*
X123699999Y-115235771D02*
X123795237Y-115283390D01*
X123795237Y-115283390D02*
X123842856Y-115331009D01*
X123842856Y-115331009D02*
X123890475Y-115426247D01*
X122699999Y-114854819D02*
X122604761Y-114854819D01*
X122604761Y-114854819D02*
X122509523Y-114902438D01*
X122509523Y-114902438D02*
X122461904Y-114950057D01*
X122461904Y-114950057D02*
X122414285Y-115045295D01*
X122414285Y-115045295D02*
X122366666Y-115235771D01*
X122366666Y-115235771D02*
X122366666Y-115473866D01*
X122366666Y-115473866D02*
X122414285Y-115664342D01*
X122414285Y-115664342D02*
X122461904Y-115759580D01*
X122461904Y-115759580D02*
X122509523Y-115807200D01*
X122509523Y-115807200D02*
X122604761Y-115854819D01*
X122604761Y-115854819D02*
X122699999Y-115854819D01*
X122699999Y-115854819D02*
X122795237Y-115807200D01*
X122795237Y-115807200D02*
X122842856Y-115759580D01*
X122842856Y-115759580D02*
X122890475Y-115664342D01*
X122890475Y-115664342D02*
X122938094Y-115473866D01*
X122938094Y-115473866D02*
X122938094Y-115235771D01*
X122938094Y-115235771D02*
X122890475Y-115045295D01*
X122890475Y-115045295D02*
X122842856Y-114950057D01*
X122842856Y-114950057D02*
X122795237Y-114902438D01*
X122795237Y-114902438D02*
X122699999Y-114854819D01*
X121938094Y-115854819D02*
X121938094Y-114854819D01*
X121842856Y-115473866D02*
X121557142Y-115854819D01*
X121557142Y-115188152D02*
X121938094Y-115569104D01*
X158161904Y-102807200D02*
X158019047Y-102854819D01*
X158019047Y-102854819D02*
X157780952Y-102854819D01*
X157780952Y-102854819D02*
X157685714Y-102807200D01*
X157685714Y-102807200D02*
X157638095Y-102759580D01*
X157638095Y-102759580D02*
X157590476Y-102664342D01*
X157590476Y-102664342D02*
X157590476Y-102569104D01*
X157590476Y-102569104D02*
X157638095Y-102473866D01*
X157638095Y-102473866D02*
X157685714Y-102426247D01*
X157685714Y-102426247D02*
X157780952Y-102378628D01*
X157780952Y-102378628D02*
X157971428Y-102331009D01*
X157971428Y-102331009D02*
X158066666Y-102283390D01*
X158066666Y-102283390D02*
X158114285Y-102235771D01*
X158114285Y-102235771D02*
X158161904Y-102140533D01*
X158161904Y-102140533D02*
X158161904Y-102045295D01*
X158161904Y-102045295D02*
X158114285Y-101950057D01*
X158114285Y-101950057D02*
X158066666Y-101902438D01*
X158066666Y-101902438D02*
X157971428Y-101854819D01*
X157971428Y-101854819D02*
X157733333Y-101854819D01*
X157733333Y-101854819D02*
X157590476Y-101902438D01*
X156638095Y-102854819D02*
X157209523Y-102854819D01*
X156923809Y-102854819D02*
X156923809Y-101854819D01*
X156923809Y-101854819D02*
X157019047Y-101997676D01*
X157019047Y-101997676D02*
X157114285Y-102092914D01*
X157114285Y-102092914D02*
X157209523Y-102140533D01*
D12*
X132833714Y-79653719D02*
X132833714Y-80463242D01*
X132833714Y-80463242D02*
X132790857Y-80558480D01*
X132790857Y-80558480D02*
X132748000Y-80606100D01*
X132748000Y-80606100D02*
X132662285Y-80653719D01*
X132662285Y-80653719D02*
X132490857Y-80653719D01*
X132490857Y-80653719D02*
X132405142Y-80606100D01*
X132405142Y-80606100D02*
X132362285Y-80558480D01*
X132362285Y-80558480D02*
X132319428Y-80463242D01*
X132319428Y-80463242D02*
X132319428Y-79653719D01*
X131933714Y-79748957D02*
X131890857Y-79701338D01*
X131890857Y-79701338D02*
X131805143Y-79653719D01*
X131805143Y-79653719D02*
X131590857Y-79653719D01*
X131590857Y-79653719D02*
X131505143Y-79701338D01*
X131505143Y-79701338D02*
X131462285Y-79748957D01*
X131462285Y-79748957D02*
X131419428Y-79844195D01*
X131419428Y-79844195D02*
X131419428Y-79939433D01*
X131419428Y-79939433D02*
X131462285Y-80082290D01*
X131462285Y-80082290D02*
X131976571Y-80653719D01*
X131976571Y-80653719D02*
X131419428Y-80653719D01*
X140926570Y-76009909D02*
X140797998Y-76057528D01*
X140797998Y-76057528D02*
X140755141Y-76105147D01*
X140755141Y-76105147D02*
X140712284Y-76200385D01*
X140712284Y-76200385D02*
X140712284Y-76343242D01*
X140712284Y-76343242D02*
X140755141Y-76438480D01*
X140755141Y-76438480D02*
X140797998Y-76486100D01*
X140797998Y-76486100D02*
X140883713Y-76533719D01*
X140883713Y-76533719D02*
X141226570Y-76533719D01*
X141226570Y-76533719D02*
X141226570Y-75533719D01*
X141226570Y-75533719D02*
X140926570Y-75533719D01*
X140926570Y-75533719D02*
X140840856Y-75581338D01*
X140840856Y-75581338D02*
X140797998Y-75628957D01*
X140797998Y-75628957D02*
X140755141Y-75724195D01*
X140755141Y-75724195D02*
X140755141Y-75819433D01*
X140755141Y-75819433D02*
X140797998Y-75914671D01*
X140797998Y-75914671D02*
X140840856Y-75962290D01*
X140840856Y-75962290D02*
X140926570Y-76009909D01*
X140926570Y-76009909D02*
X141226570Y-76009909D01*
X140369427Y-76248004D02*
X139940856Y-76248004D01*
X140455141Y-76533719D02*
X140155141Y-75533719D01*
X140155141Y-75533719D02*
X139855141Y-76533719D01*
X139683712Y-75533719D02*
X139169427Y-75533719D01*
X139426569Y-76533719D02*
X139426569Y-75533719D01*
X139083713Y-76628957D02*
X138397998Y-76628957D01*
X138183713Y-76533719D02*
X138183713Y-75533719D01*
X138183713Y-76009909D02*
X137669427Y-76009909D01*
X137669427Y-76533719D02*
X137669427Y-75533719D01*
X136812284Y-76533719D02*
X137240856Y-76533719D01*
X137240856Y-76533719D02*
X137240856Y-75533719D01*
X136512285Y-76533719D02*
X136512285Y-75533719D01*
X136512285Y-75533719D02*
X136297999Y-75533719D01*
X136297999Y-75533719D02*
X136169428Y-75581338D01*
X136169428Y-75581338D02*
X136083713Y-75676576D01*
X136083713Y-75676576D02*
X136040856Y-75771814D01*
X136040856Y-75771814D02*
X135997999Y-75962290D01*
X135997999Y-75962290D02*
X135997999Y-76105147D01*
X135997999Y-76105147D02*
X136040856Y-76295623D01*
X136040856Y-76295623D02*
X136083713Y-76390861D01*
X136083713Y-76390861D02*
X136169428Y-76486100D01*
X136169428Y-76486100D02*
X136297999Y-76533719D01*
X136297999Y-76533719D02*
X136512285Y-76533719D01*
X135826571Y-76628957D02*
X135140856Y-76628957D01*
X134969428Y-76486100D02*
X134840857Y-76533719D01*
X134840857Y-76533719D02*
X134626571Y-76533719D01*
X134626571Y-76533719D02*
X134540857Y-76486100D01*
X134540857Y-76486100D02*
X134497999Y-76438480D01*
X134497999Y-76438480D02*
X134455142Y-76343242D01*
X134455142Y-76343242D02*
X134455142Y-76248004D01*
X134455142Y-76248004D02*
X134497999Y-76152766D01*
X134497999Y-76152766D02*
X134540857Y-76105147D01*
X134540857Y-76105147D02*
X134626571Y-76057528D01*
X134626571Y-76057528D02*
X134797999Y-76009909D01*
X134797999Y-76009909D02*
X134883714Y-75962290D01*
X134883714Y-75962290D02*
X134926571Y-75914671D01*
X134926571Y-75914671D02*
X134969428Y-75819433D01*
X134969428Y-75819433D02*
X134969428Y-75724195D01*
X134969428Y-75724195D02*
X134926571Y-75628957D01*
X134926571Y-75628957D02*
X134883714Y-75581338D01*
X134883714Y-75581338D02*
X134797999Y-75533719D01*
X134797999Y-75533719D02*
X134583714Y-75533719D01*
X134583714Y-75533719D02*
X134455142Y-75581338D01*
X134069428Y-76533719D02*
X134069428Y-75533719D01*
X134069428Y-75533719D02*
X133769428Y-76248004D01*
X133769428Y-76248004D02*
X133469428Y-75533719D01*
X133469428Y-75533719D02*
X133469428Y-76533719D01*
X133040857Y-76533719D02*
X133040857Y-75533719D01*
X133040857Y-75533719D02*
X132826571Y-75533719D01*
X132826571Y-75533719D02*
X132698000Y-75581338D01*
X132698000Y-75581338D02*
X132612285Y-75676576D01*
X132612285Y-75676576D02*
X132569428Y-75771814D01*
X132569428Y-75771814D02*
X132526571Y-75962290D01*
X132526571Y-75962290D02*
X132526571Y-76105147D01*
X132526571Y-76105147D02*
X132569428Y-76295623D01*
X132569428Y-76295623D02*
X132612285Y-76390861D01*
X132612285Y-76390861D02*
X132698000Y-76486100D01*
X132698000Y-76486100D02*
X132826571Y-76533719D01*
X132826571Y-76533719D02*
X133040857Y-76533719D01*
D10*
X115984666Y-104954819D02*
X115984666Y-103954819D01*
X115984666Y-103954819D02*
X115413238Y-104954819D01*
X115413238Y-104954819D02*
X115413238Y-103954819D01*
X114937047Y-104431009D02*
X114603714Y-104431009D01*
X114460857Y-104954819D02*
X114937047Y-104954819D01*
X114937047Y-104954819D02*
X114937047Y-103954819D01*
X114937047Y-103954819D02*
X114460857Y-103954819D01*
X113556095Y-103954819D02*
X114032285Y-103954819D01*
X114032285Y-103954819D02*
X114079904Y-104431009D01*
X114079904Y-104431009D02*
X114032285Y-104383390D01*
X114032285Y-104383390D02*
X113937047Y-104335771D01*
X113937047Y-104335771D02*
X113698952Y-104335771D01*
X113698952Y-104335771D02*
X113603714Y-104383390D01*
X113603714Y-104383390D02*
X113556095Y-104431009D01*
X113556095Y-104431009D02*
X113508476Y-104526247D01*
X113508476Y-104526247D02*
X113508476Y-104764342D01*
X113508476Y-104764342D02*
X113556095Y-104859580D01*
X113556095Y-104859580D02*
X113603714Y-104907200D01*
X113603714Y-104907200D02*
X113698952Y-104954819D01*
X113698952Y-104954819D02*
X113937047Y-104954819D01*
X113937047Y-104954819D02*
X114032285Y-104907200D01*
X114032285Y-104907200D02*
X114079904Y-104859580D01*
X112603714Y-103954819D02*
X113079904Y-103954819D01*
X113079904Y-103954819D02*
X113127523Y-104431009D01*
X113127523Y-104431009D02*
X113079904Y-104383390D01*
X113079904Y-104383390D02*
X112984666Y-104335771D01*
X112984666Y-104335771D02*
X112746571Y-104335771D01*
X112746571Y-104335771D02*
X112651333Y-104383390D01*
X112651333Y-104383390D02*
X112603714Y-104431009D01*
X112603714Y-104431009D02*
X112556095Y-104526247D01*
X112556095Y-104526247D02*
X112556095Y-104764342D01*
X112556095Y-104764342D02*
X112603714Y-104859580D01*
X112603714Y-104859580D02*
X112651333Y-104907200D01*
X112651333Y-104907200D02*
X112746571Y-104954819D01*
X112746571Y-104954819D02*
X112984666Y-104954819D01*
X112984666Y-104954819D02*
X113079904Y-104907200D01*
X113079904Y-104907200D02*
X113127523Y-104859580D01*
X111651333Y-103954819D02*
X112127523Y-103954819D01*
X112127523Y-103954819D02*
X112175142Y-104431009D01*
X112175142Y-104431009D02*
X112127523Y-104383390D01*
X112127523Y-104383390D02*
X112032285Y-104335771D01*
X112032285Y-104335771D02*
X111794190Y-104335771D01*
X111794190Y-104335771D02*
X111698952Y-104383390D01*
X111698952Y-104383390D02*
X111651333Y-104431009D01*
X111651333Y-104431009D02*
X111603714Y-104526247D01*
X111603714Y-104526247D02*
X111603714Y-104764342D01*
X111603714Y-104764342D02*
X111651333Y-104859580D01*
X111651333Y-104859580D02*
X111698952Y-104907200D01*
X111698952Y-104907200D02*
X111794190Y-104954819D01*
X111794190Y-104954819D02*
X112032285Y-104954819D01*
X112032285Y-104954819D02*
X112127523Y-104907200D01*
X112127523Y-104907200D02*
X112175142Y-104859580D01*
X111175142Y-104954819D02*
X111175142Y-103954819D01*
X111175142Y-103954819D02*
X110794190Y-103954819D01*
X110794190Y-103954819D02*
X110698952Y-104002438D01*
X110698952Y-104002438D02*
X110651333Y-104050057D01*
X110651333Y-104050057D02*
X110603714Y-104145295D01*
X110603714Y-104145295D02*
X110603714Y-104288152D01*
X110603714Y-104288152D02*
X110651333Y-104383390D01*
X110651333Y-104383390D02*
X110698952Y-104431009D01*
X110698952Y-104431009D02*
X110794190Y-104478628D01*
X110794190Y-104478628D02*
X111175142Y-104478628D01*
X124631047Y-112965757D02*
X124726285Y-112918138D01*
X124726285Y-112918138D02*
X124821523Y-112822900D01*
X124821523Y-112822900D02*
X124964380Y-112680042D01*
X124964380Y-112680042D02*
X125059618Y-112632423D01*
X125059618Y-112632423D02*
X125154856Y-112632423D01*
X125107237Y-112870519D02*
X125202475Y-112822900D01*
X125202475Y-112822900D02*
X125297713Y-112727661D01*
X125297713Y-112727661D02*
X125345332Y-112537185D01*
X125345332Y-112537185D02*
X125345332Y-112203852D01*
X125345332Y-112203852D02*
X125297713Y-112013376D01*
X125297713Y-112013376D02*
X125202475Y-111918138D01*
X125202475Y-111918138D02*
X125107237Y-111870519D01*
X125107237Y-111870519D02*
X124916761Y-111870519D01*
X124916761Y-111870519D02*
X124821523Y-111918138D01*
X124821523Y-111918138D02*
X124726285Y-112013376D01*
X124726285Y-112013376D02*
X124678666Y-112203852D01*
X124678666Y-112203852D02*
X124678666Y-112537185D01*
X124678666Y-112537185D02*
X124726285Y-112727661D01*
X124726285Y-112727661D02*
X124821523Y-112822900D01*
X124821523Y-112822900D02*
X124916761Y-112870519D01*
X124916761Y-112870519D02*
X125107237Y-112870519D01*
X124271429Y-136154819D02*
X124842857Y-136154819D01*
X124557143Y-136154819D02*
X124557143Y-135154819D01*
X124557143Y-135154819D02*
X124652381Y-135297676D01*
X124652381Y-135297676D02*
X124747619Y-135392914D01*
X124747619Y-135392914D02*
X124842857Y-135440533D01*
X123890476Y-135250057D02*
X123842857Y-135202438D01*
X123842857Y-135202438D02*
X123747619Y-135154819D01*
X123747619Y-135154819D02*
X123509524Y-135154819D01*
X123509524Y-135154819D02*
X123414286Y-135202438D01*
X123414286Y-135202438D02*
X123366667Y-135250057D01*
X123366667Y-135250057D02*
X123319048Y-135345295D01*
X123319048Y-135345295D02*
X123319048Y-135440533D01*
X123319048Y-135440533D02*
X123366667Y-135583390D01*
X123366667Y-135583390D02*
X123938095Y-136154819D01*
X123938095Y-136154819D02*
X123319048Y-136154819D01*
X122890476Y-136154819D02*
X122890476Y-135154819D01*
X122319048Y-136154819D02*
X122747619Y-135583390D01*
X122319048Y-135154819D02*
X122890476Y-135726247D01*
X132036666Y-136168519D02*
X132369999Y-135692328D01*
X132608094Y-136168519D02*
X132608094Y-135168519D01*
X132608094Y-135168519D02*
X132227142Y-135168519D01*
X132227142Y-135168519D02*
X132131904Y-135216138D01*
X132131904Y-135216138D02*
X132084285Y-135263757D01*
X132084285Y-135263757D02*
X132036666Y-135358995D01*
X132036666Y-135358995D02*
X132036666Y-135501852D01*
X132036666Y-135501852D02*
X132084285Y-135597090D01*
X132084285Y-135597090D02*
X132131904Y-135644709D01*
X132131904Y-135644709D02*
X132227142Y-135692328D01*
X132227142Y-135692328D02*
X132608094Y-135692328D01*
X131179523Y-135168519D02*
X131369999Y-135168519D01*
X131369999Y-135168519D02*
X131465237Y-135216138D01*
X131465237Y-135216138D02*
X131512856Y-135263757D01*
X131512856Y-135263757D02*
X131608094Y-135406614D01*
X131608094Y-135406614D02*
X131655713Y-135597090D01*
X131655713Y-135597090D02*
X131655713Y-135978042D01*
X131655713Y-135978042D02*
X131608094Y-136073280D01*
X131608094Y-136073280D02*
X131560475Y-136120900D01*
X131560475Y-136120900D02*
X131465237Y-136168519D01*
X131465237Y-136168519D02*
X131274761Y-136168519D01*
X131274761Y-136168519D02*
X131179523Y-136120900D01*
X131179523Y-136120900D02*
X131131904Y-136073280D01*
X131131904Y-136073280D02*
X131084285Y-135978042D01*
X131084285Y-135978042D02*
X131084285Y-135739947D01*
X131084285Y-135739947D02*
X131131904Y-135644709D01*
X131131904Y-135644709D02*
X131179523Y-135597090D01*
X131179523Y-135597090D02*
X131274761Y-135549471D01*
X131274761Y-135549471D02*
X131465237Y-135549471D01*
X131465237Y-135549471D02*
X131560475Y-135597090D01*
X131560475Y-135597090D02*
X131608094Y-135644709D01*
X131608094Y-135644709D02*
X131655713Y-135739947D01*
X132036666Y-124046519D02*
X132369999Y-123570328D01*
X132608094Y-124046519D02*
X132608094Y-123046519D01*
X132608094Y-123046519D02*
X132227142Y-123046519D01*
X132227142Y-123046519D02*
X132131904Y-123094138D01*
X132131904Y-123094138D02*
X132084285Y-123141757D01*
X132084285Y-123141757D02*
X132036666Y-123236995D01*
X132036666Y-123236995D02*
X132036666Y-123379852D01*
X132036666Y-123379852D02*
X132084285Y-123475090D01*
X132084285Y-123475090D02*
X132131904Y-123522709D01*
X132131904Y-123522709D02*
X132227142Y-123570328D01*
X132227142Y-123570328D02*
X132608094Y-123570328D01*
X131703332Y-123046519D02*
X131084285Y-123046519D01*
X131084285Y-123046519D02*
X131417618Y-123427471D01*
X131417618Y-123427471D02*
X131274761Y-123427471D01*
X131274761Y-123427471D02*
X131179523Y-123475090D01*
X131179523Y-123475090D02*
X131131904Y-123522709D01*
X131131904Y-123522709D02*
X131084285Y-123617947D01*
X131084285Y-123617947D02*
X131084285Y-123856042D01*
X131084285Y-123856042D02*
X131131904Y-123951280D01*
X131131904Y-123951280D02*
X131179523Y-123998900D01*
X131179523Y-123998900D02*
X131274761Y-124046519D01*
X131274761Y-124046519D02*
X131560475Y-124046519D01*
X131560475Y-124046519D02*
X131655713Y-123998900D01*
X131655713Y-123998900D02*
X131703332Y-123951280D01*
X124366667Y-123308152D02*
X124366667Y-123974819D01*
X124604762Y-122927200D02*
X124842857Y-123641485D01*
X124842857Y-123641485D02*
X124223810Y-123641485D01*
X123842857Y-123974819D02*
X123842857Y-122974819D01*
X123747619Y-123593866D02*
X123461905Y-123974819D01*
X123461905Y-123308152D02*
X123842857Y-123689104D01*
X123128571Y-122974819D02*
X122461905Y-122974819D01*
X122461905Y-122974819D02*
X122890476Y-123974819D01*
X150666666Y-106559580D02*
X150714285Y-106607200D01*
X150714285Y-106607200D02*
X150857142Y-106654819D01*
X150857142Y-106654819D02*
X150952380Y-106654819D01*
X150952380Y-106654819D02*
X151095237Y-106607200D01*
X151095237Y-106607200D02*
X151190475Y-106511961D01*
X151190475Y-106511961D02*
X151238094Y-106416723D01*
X151238094Y-106416723D02*
X151285713Y-106226247D01*
X151285713Y-106226247D02*
X151285713Y-106083390D01*
X151285713Y-106083390D02*
X151238094Y-105892914D01*
X151238094Y-105892914D02*
X151190475Y-105797676D01*
X151190475Y-105797676D02*
X151095237Y-105702438D01*
X151095237Y-105702438D02*
X150952380Y-105654819D01*
X150952380Y-105654819D02*
X150857142Y-105654819D01*
X150857142Y-105654819D02*
X150714285Y-105702438D01*
X150714285Y-105702438D02*
X150666666Y-105750057D01*
X149714285Y-106654819D02*
X150285713Y-106654819D01*
X149999999Y-106654819D02*
X149999999Y-105654819D01*
X149999999Y-105654819D02*
X150095237Y-105797676D01*
X150095237Y-105797676D02*
X150190475Y-105892914D01*
X150190475Y-105892914D02*
X150285713Y-105940533D01*
X146411847Y-111866666D02*
X145745180Y-111866666D01*
X146792800Y-112104761D02*
X146078514Y-112342856D01*
X146078514Y-112342856D02*
X146078514Y-111723809D01*
X146745180Y-111438094D02*
X146745180Y-110771428D01*
X146745180Y-110771428D02*
X145745180Y-111199999D01*
X146411847Y-109961904D02*
X145745180Y-109961904D01*
X146411847Y-110390475D02*
X145888038Y-110390475D01*
X145888038Y-110390475D02*
X145792800Y-110342856D01*
X145792800Y-110342856D02*
X145745180Y-110247618D01*
X145745180Y-110247618D02*
X145745180Y-110104761D01*
X145745180Y-110104761D02*
X145792800Y-110009523D01*
X145792800Y-110009523D02*
X145840419Y-109961904D01*
X146268990Y-109152380D02*
X146268990Y-109485713D01*
X145745180Y-109485713D02*
X146745180Y-109485713D01*
X146745180Y-109485713D02*
X146745180Y-109009523D01*
X132036666Y-128110519D02*
X132369999Y-127634328D01*
X132608094Y-128110519D02*
X132608094Y-127110519D01*
X132608094Y-127110519D02*
X132227142Y-127110519D01*
X132227142Y-127110519D02*
X132131904Y-127158138D01*
X132131904Y-127158138D02*
X132084285Y-127205757D01*
X132084285Y-127205757D02*
X132036666Y-127300995D01*
X132036666Y-127300995D02*
X132036666Y-127443852D01*
X132036666Y-127443852D02*
X132084285Y-127539090D01*
X132084285Y-127539090D02*
X132131904Y-127586709D01*
X132131904Y-127586709D02*
X132227142Y-127634328D01*
X132227142Y-127634328D02*
X132608094Y-127634328D01*
X131179523Y-127443852D02*
X131179523Y-128110519D01*
X131417618Y-127062900D02*
X131655713Y-127777185D01*
X131655713Y-127777185D02*
X131036666Y-127777185D01*
X124271429Y-128034819D02*
X124842857Y-128034819D01*
X124557143Y-128034819D02*
X124557143Y-127034819D01*
X124557143Y-127034819D02*
X124652381Y-127177676D01*
X124652381Y-127177676D02*
X124747619Y-127272914D01*
X124747619Y-127272914D02*
X124842857Y-127320533D01*
X123652381Y-127034819D02*
X123557143Y-127034819D01*
X123557143Y-127034819D02*
X123461905Y-127082438D01*
X123461905Y-127082438D02*
X123414286Y-127130057D01*
X123414286Y-127130057D02*
X123366667Y-127225295D01*
X123366667Y-127225295D02*
X123319048Y-127415771D01*
X123319048Y-127415771D02*
X123319048Y-127653866D01*
X123319048Y-127653866D02*
X123366667Y-127844342D01*
X123366667Y-127844342D02*
X123414286Y-127939580D01*
X123414286Y-127939580D02*
X123461905Y-127987200D01*
X123461905Y-127987200D02*
X123557143Y-128034819D01*
X123557143Y-128034819D02*
X123652381Y-128034819D01*
X123652381Y-128034819D02*
X123747619Y-127987200D01*
X123747619Y-127987200D02*
X123795238Y-127939580D01*
X123795238Y-127939580D02*
X123842857Y-127844342D01*
X123842857Y-127844342D02*
X123890476Y-127653866D01*
X123890476Y-127653866D02*
X123890476Y-127415771D01*
X123890476Y-127415771D02*
X123842857Y-127225295D01*
X123842857Y-127225295D02*
X123795238Y-127130057D01*
X123795238Y-127130057D02*
X123747619Y-127082438D01*
X123747619Y-127082438D02*
X123652381Y-127034819D01*
X122319048Y-128034819D02*
X122652381Y-127558628D01*
X122890476Y-128034819D02*
X122890476Y-127034819D01*
X122890476Y-127034819D02*
X122509524Y-127034819D01*
X122509524Y-127034819D02*
X122414286Y-127082438D01*
X122414286Y-127082438D02*
X122366667Y-127130057D01*
X122366667Y-127130057D02*
X122319048Y-127225295D01*
X122319048Y-127225295D02*
X122319048Y-127368152D01*
X122319048Y-127368152D02*
X122366667Y-127463390D01*
X122366667Y-127463390D02*
X122414286Y-127511009D01*
X122414286Y-127511009D02*
X122509524Y-127558628D01*
X122509524Y-127558628D02*
X122890476Y-127558628D01*
X132036666Y-132154819D02*
X132369999Y-131678628D01*
X132608094Y-132154819D02*
X132608094Y-131154819D01*
X132608094Y-131154819D02*
X132227142Y-131154819D01*
X132227142Y-131154819D02*
X132131904Y-131202438D01*
X132131904Y-131202438D02*
X132084285Y-131250057D01*
X132084285Y-131250057D02*
X132036666Y-131345295D01*
X132036666Y-131345295D02*
X132036666Y-131488152D01*
X132036666Y-131488152D02*
X132084285Y-131583390D01*
X132084285Y-131583390D02*
X132131904Y-131631009D01*
X132131904Y-131631009D02*
X132227142Y-131678628D01*
X132227142Y-131678628D02*
X132608094Y-131678628D01*
X131131904Y-131154819D02*
X131608094Y-131154819D01*
X131608094Y-131154819D02*
X131655713Y-131631009D01*
X131655713Y-131631009D02*
X131608094Y-131583390D01*
X131608094Y-131583390D02*
X131512856Y-131535771D01*
X131512856Y-131535771D02*
X131274761Y-131535771D01*
X131274761Y-131535771D02*
X131179523Y-131583390D01*
X131179523Y-131583390D02*
X131131904Y-131631009D01*
X131131904Y-131631009D02*
X131084285Y-131726247D01*
X131084285Y-131726247D02*
X131084285Y-131964342D01*
X131084285Y-131964342D02*
X131131904Y-132059580D01*
X131131904Y-132059580D02*
X131179523Y-132107200D01*
X131179523Y-132107200D02*
X131274761Y-132154819D01*
X131274761Y-132154819D02*
X131512856Y-132154819D01*
X131512856Y-132154819D02*
X131608094Y-132107200D01*
X131608094Y-132107200D02*
X131655713Y-132059580D01*
X124271429Y-132094819D02*
X124842857Y-132094819D01*
X124557143Y-132094819D02*
X124557143Y-131094819D01*
X124557143Y-131094819D02*
X124652381Y-131237676D01*
X124652381Y-131237676D02*
X124747619Y-131332914D01*
X124747619Y-131332914D02*
X124842857Y-131380533D01*
X123414286Y-131094819D02*
X123604762Y-131094819D01*
X123604762Y-131094819D02*
X123700000Y-131142438D01*
X123700000Y-131142438D02*
X123747619Y-131190057D01*
X123747619Y-131190057D02*
X123842857Y-131332914D01*
X123842857Y-131332914D02*
X123890476Y-131523390D01*
X123890476Y-131523390D02*
X123890476Y-131904342D01*
X123890476Y-131904342D02*
X123842857Y-131999580D01*
X123842857Y-131999580D02*
X123795238Y-132047200D01*
X123795238Y-132047200D02*
X123700000Y-132094819D01*
X123700000Y-132094819D02*
X123509524Y-132094819D01*
X123509524Y-132094819D02*
X123414286Y-132047200D01*
X123414286Y-132047200D02*
X123366667Y-131999580D01*
X123366667Y-131999580D02*
X123319048Y-131904342D01*
X123319048Y-131904342D02*
X123319048Y-131666247D01*
X123319048Y-131666247D02*
X123366667Y-131571009D01*
X123366667Y-131571009D02*
X123414286Y-131523390D01*
X123414286Y-131523390D02*
X123509524Y-131475771D01*
X123509524Y-131475771D02*
X123700000Y-131475771D01*
X123700000Y-131475771D02*
X123795238Y-131523390D01*
X123795238Y-131523390D02*
X123842857Y-131571009D01*
X123842857Y-131571009D02*
X123890476Y-131666247D01*
X122890476Y-132094819D02*
X122890476Y-131094819D01*
X122319048Y-132094819D02*
X122747619Y-131523390D01*
X122319048Y-131094819D02*
X122890476Y-131666247D01*
D12*
%TO.C,G\u002A\u002A\u002A*%
X123683000Y-90909700D02*
X124258000Y-91384700D01*
X124258000Y-91384700D02*
X124683000Y-91059700D01*
X124683000Y-91059700D02*
X123683000Y-90909700D01*
D13*
X125008000Y-92498305D02*
X125908000Y-92484700D01*
X125407999Y-93879750D02*
X125007999Y-93879750D01*
X125408000Y-92884700D02*
X125158000Y-92884700D01*
X125408000Y-92934700D02*
X125408000Y-93384700D01*
X125408000Y-93384700D02*
X125108000Y-93384700D01*
X125408000Y-93884700D02*
X125408000Y-94384700D01*
X125408000Y-94384700D02*
X124958000Y-94384700D01*
D12*
X125633000Y-90184700D02*
X125983000Y-89009700D01*
D13*
X125908000Y-92484700D02*
X125958000Y-94934700D01*
X125958000Y-94934700D02*
X124758000Y-94934700D01*
D12*
X125983000Y-89009700D02*
X127783000Y-89059700D01*
D13*
X126233000Y-94934700D02*
X127008000Y-92484700D01*
X126633000Y-94934700D02*
X126233000Y-94934700D01*
X126883000Y-94334700D02*
X126633000Y-94934700D01*
X126958000Y-93934700D02*
X127183000Y-93184700D01*
X127008000Y-92484700D02*
X127333000Y-92484700D01*
X127183000Y-93184700D02*
X127458000Y-93934700D01*
D12*
X127208000Y-91109700D02*
X128883000Y-91209700D01*
D13*
X127333000Y-92484700D02*
X128233000Y-94934700D01*
X127458000Y-93934700D02*
X126958000Y-93934700D01*
X127483000Y-94334700D02*
X126883000Y-94334700D01*
X127733000Y-94934700D02*
X127483000Y-94334700D01*
X127733000Y-94934700D02*
X128233000Y-94934700D01*
D12*
X127783000Y-89059700D02*
X125633000Y-90184700D01*
X127908000Y-90534700D02*
X127208000Y-91109700D01*
D13*
X128408000Y-94459700D02*
X128408000Y-94909700D01*
X128408000Y-94909700D02*
X129658000Y-94909700D01*
D12*
X128908000Y-91209700D02*
X127908000Y-90534700D01*
X129058000Y-90759700D02*
X130683000Y-91884700D01*
X129108000Y-88434700D02*
X130233000Y-89659700D01*
X129133000Y-88034700D02*
X129058000Y-90759700D01*
D13*
X129158000Y-94459700D02*
X128408000Y-94459700D01*
X129183000Y-92459700D02*
X129158000Y-94459700D01*
X129633000Y-92459700D02*
X129183000Y-92459700D01*
X129658000Y-94909700D02*
X129633000Y-92459700D01*
X129833000Y-94909700D02*
X130533000Y-93959700D01*
X129933000Y-94909700D02*
X129833000Y-94909700D01*
D12*
X130233000Y-89659700D02*
X129658000Y-91159700D01*
D13*
X130333000Y-94909700D02*
X129933000Y-94909700D01*
X130574269Y-92454294D02*
X131683000Y-92459700D01*
D12*
X130683000Y-91884700D02*
X132358000Y-91659700D01*
D13*
X130733000Y-92909700D02*
X131183000Y-92909700D01*
X131083000Y-93959700D02*
X130333000Y-94909700D01*
X131183000Y-92909700D02*
X131183000Y-93459700D01*
X131183000Y-93459700D02*
X130683000Y-93459700D01*
X131233000Y-93959700D02*
X131083000Y-93959700D01*
X131233000Y-94909700D02*
X131233000Y-93959700D01*
X131683000Y-92459700D02*
X131683000Y-94909700D01*
X131683000Y-94909700D02*
X131233000Y-94909700D01*
D12*
X131833000Y-92109700D02*
X132808000Y-92459700D01*
D13*
X132133000Y-92459700D02*
X133433000Y-92459700D01*
X132133000Y-92959700D02*
X132133000Y-92459700D01*
X132133000Y-94409700D02*
X132983000Y-94409700D01*
X132133000Y-94909700D02*
X132133000Y-94409700D01*
D12*
X132233000Y-91834700D02*
X131833000Y-92109700D01*
D13*
X132333000Y-93409700D02*
X132983000Y-93409700D01*
X132333000Y-93859700D02*
X132333000Y-93409700D01*
D12*
X132358000Y-91659700D02*
X134183000Y-92559700D01*
X132608000Y-89659700D02*
X129133000Y-88034700D01*
X132608000Y-89659700D02*
X134933000Y-90809700D01*
D13*
X132983000Y-92959700D02*
X132133000Y-92959700D01*
X132983000Y-93409700D02*
X132983000Y-92959700D01*
X132983000Y-93859700D02*
X132333000Y-93859700D01*
X132983000Y-94409700D02*
X132983000Y-93859700D01*
D12*
X133008000Y-92434700D02*
X132233000Y-91834700D01*
X133358000Y-88234700D02*
X132608000Y-89659700D01*
X133358000Y-88234700D02*
X135558000Y-89409700D01*
D13*
X133383000Y-94909700D02*
X132133000Y-94909700D01*
X133433000Y-92459700D02*
X133483000Y-94909700D01*
X133483000Y-94909700D02*
X133383000Y-94909700D01*
X134583000Y-92473305D02*
X135483000Y-92459700D01*
D12*
X134933000Y-90809700D02*
X136408000Y-92534700D01*
X134933000Y-90809700D02*
X140583000Y-93659700D01*
D13*
X134982999Y-93854750D02*
X134582999Y-93854750D01*
X134983000Y-92859700D02*
X134733000Y-92859700D01*
X134983000Y-92909700D02*
X134983000Y-93359700D01*
X134983000Y-93359700D02*
X134683000Y-93359700D01*
X134983000Y-93859700D02*
X134983000Y-94359700D01*
X134983000Y-94359700D02*
X134533000Y-94359700D01*
X135483000Y-92459700D02*
X135533000Y-94909700D01*
X135533000Y-94909700D02*
X134333000Y-94909700D01*
D12*
X135558000Y-89409700D02*
X133983000Y-90309700D01*
X135658000Y-89234700D02*
X134933000Y-90809700D01*
D13*
X135933000Y-93309700D02*
X135933000Y-94009700D01*
D12*
X136233000Y-92634700D02*
X129133000Y-88034700D01*
D13*
X136433000Y-93309700D02*
X136433000Y-93959700D01*
D12*
X136683000Y-89484700D02*
X134933000Y-90809700D01*
X136683000Y-89484700D02*
X135658000Y-89234700D01*
X136758000Y-93559700D02*
X137133000Y-93734700D01*
X137083000Y-93159700D02*
X136758000Y-93559700D01*
D13*
X137133000Y-93309700D02*
X137133000Y-94009700D01*
D12*
X137633000Y-93909700D02*
X138183000Y-94184700D01*
D13*
X137633000Y-94009700D02*
X137633000Y-93309700D01*
D12*
X137683000Y-93184700D02*
X137908000Y-93809700D01*
X137908000Y-93809700D02*
X140583000Y-93659700D01*
X138183000Y-94184700D02*
X137608000Y-93384700D01*
X139258000Y-94134700D02*
X138433000Y-93784700D01*
X140583000Y-93659700D02*
X136683000Y-89484700D01*
X140583000Y-93659700D02*
X137683000Y-93184700D01*
X140583000Y-93659700D02*
X139258000Y-94134700D01*
D13*
X124558001Y-93584699D02*
G75*
G02*
X125008000Y-92498305I449999J449999D01*
G01*
X124758001Y-94934699D02*
G75*
G02*
X124581744Y-93625763I249998J699999D01*
G01*
X124958001Y-94384699D02*
G75*
G02*
X125007999Y-93879750I49999J249999D01*
G01*
X125108000Y-93384700D02*
G75*
G02*
X125168634Y-92892164I0J250000D01*
G01*
X130558001Y-93909699D02*
G75*
G02*
X130574269Y-92454294I249999J724999D01*
G01*
X130683001Y-93459699D02*
G75*
G02*
X130683001Y-92909701I124999J274999D01*
G01*
X134133001Y-93559699D02*
G75*
G02*
X134583000Y-92473305I449999J449999D01*
G01*
X134333001Y-94909699D02*
G75*
G02*
X134156744Y-93600763I249998J699999D01*
G01*
X134533001Y-94359699D02*
G75*
G02*
X134582999Y-93854750I49999J249999D01*
G01*
X134683000Y-93359700D02*
G75*
G02*
X134743634Y-92867164I0J250000D01*
G01*
X135933000Y-93309700D02*
G75*
G02*
X137633000Y-93309700I850000J0D01*
G01*
X136433000Y-93309700D02*
G75*
G02*
X137133000Y-93309700I350000J0D01*
G01*
X137133000Y-94009700D02*
G75*
G02*
X136433000Y-94009700I-350000J0D01*
G01*
X137633000Y-94009700D02*
G75*
G02*
X135933000Y-94009700I-850000J0D01*
G01*
D14*
X146130361Y-147904926D02*
X146066542Y-147968745D01*
X146002723Y-147904926D01*
X146066542Y-147841107D01*
X146130361Y-147904926D01*
G36*
X146130361Y-147904926D02*
G01*
X146066542Y-147968745D01*
X146002723Y-147904926D01*
X146066542Y-147841107D01*
X146130361Y-147904926D01*
G37*
D13*
%TO.C,R2*%
X127830000Y-119513700D02*
X128600000Y-119513700D01*
X128600000Y-118143700D02*
X135140000Y-118143700D01*
X128600000Y-120883700D02*
X128600000Y-118143700D01*
X135140000Y-118143700D02*
X135140000Y-120883700D01*
X135140000Y-120883700D02*
X128600000Y-120883700D01*
X135910000Y-119513700D02*
X135140000Y-119513700D01*
%TO.C,D3*%
X139640000Y-108263700D02*
X141880000Y-108263700D01*
X139640000Y-108863700D02*
X141880000Y-108863700D01*
X139640000Y-108983700D02*
X141880000Y-108983700D01*
X139640000Y-109103700D02*
X141880000Y-109103700D01*
X139640000Y-112503700D02*
X139640000Y-108263700D01*
X140760000Y-107613700D02*
X140760000Y-108263700D01*
X140760000Y-113153700D02*
X140760000Y-112503700D01*
X141880000Y-108263700D02*
X141880000Y-112503700D01*
X141880000Y-112503700D02*
X139640000Y-112503700D01*
%TO.C,R1*%
X127830000Y-115463700D02*
X128600000Y-115463700D01*
X128600000Y-114093700D02*
X135140000Y-114093700D01*
X128600000Y-116833700D02*
X128600000Y-114093700D01*
X135140000Y-114093700D02*
X135140000Y-116833700D01*
X135140000Y-116833700D02*
X128600000Y-116833700D01*
X135910000Y-115463700D02*
X135140000Y-115463700D01*
%TO.C,S1*%
X155517400Y-103678100D02*
X155517400Y-113634900D01*
X155517400Y-113634900D02*
X159454400Y-113634900D01*
X159454400Y-103678100D02*
X155517400Y-103652700D01*
X159454400Y-113634900D02*
X159454400Y-103678100D01*
%TO.C,U1*%
X110668000Y-106015700D02*
X112318000Y-106015700D01*
X110668000Y-116295700D02*
X110668000Y-106015700D01*
X114318000Y-106015700D02*
X115968000Y-106015700D01*
X115968000Y-106015700D02*
X115968000Y-116295700D01*
X115968000Y-116295700D02*
X110668000Y-116295700D01*
X114318000Y-106015700D02*
G75*
G02*
X112318000Y-106015700I-1000000J0D01*
G01*
%TO.C,R7*%
X127830000Y-135713700D02*
X128600000Y-135713700D01*
X128600000Y-134343700D02*
X135140000Y-134343700D01*
X128600000Y-137083700D02*
X128600000Y-134343700D01*
X135140000Y-134343700D02*
X135140000Y-137083700D01*
X135140000Y-137083700D02*
X128600000Y-137083700D01*
X135910000Y-135713700D02*
X135140000Y-135713700D01*
%TO.C,R3*%
X127830000Y-123563700D02*
X128600000Y-123563700D01*
X128600000Y-122193700D02*
X135140000Y-122193700D01*
X128600000Y-124933700D02*
X128600000Y-122193700D01*
X135140000Y-122193700D02*
X135140000Y-124933700D01*
X135140000Y-124933700D02*
X128600000Y-124933700D01*
X135910000Y-123563700D02*
X135140000Y-123563700D01*
%TO.C,C1*%
X147340000Y-110617700D02*
X153800000Y-110617700D01*
X147340000Y-110657700D02*
X153800000Y-110657700D01*
X147341000Y-110697700D02*
X153799000Y-110697700D01*
X147342000Y-110737700D02*
X153798000Y-110737700D01*
X147344000Y-110777700D02*
X153796000Y-110777700D01*
X147346000Y-110817700D02*
X153794000Y-110817700D01*
X147349000Y-110857700D02*
X149530000Y-110857700D01*
X147352000Y-110897700D02*
X149530000Y-110897700D01*
X147356000Y-110937700D02*
X149530000Y-110937700D01*
X147360000Y-110977700D02*
X149530000Y-110977700D01*
X147365000Y-111017700D02*
X149530000Y-111017700D01*
X147370000Y-111057700D02*
X149530000Y-111057700D01*
X147375000Y-111097700D02*
X149530000Y-111097700D01*
X147382000Y-111137700D02*
X149530000Y-111137700D01*
X147388000Y-111177700D02*
X149530000Y-111177700D01*
X147396000Y-111217700D02*
X149530000Y-111217700D01*
X147403000Y-111257700D02*
X149530000Y-111257700D01*
X147411000Y-111297700D02*
X149530000Y-111297700D01*
X147420000Y-111337700D02*
X149530000Y-111337700D01*
X147430000Y-111377700D02*
X149530000Y-111377700D01*
X147439000Y-111417700D02*
X149530000Y-111417700D01*
X147450000Y-111457700D02*
X149530000Y-111457700D01*
X147461000Y-111497700D02*
X149530000Y-111497700D01*
X147472000Y-111537700D02*
X149530000Y-111537700D01*
X147484000Y-111577700D02*
X149530000Y-111577700D01*
X147497000Y-111617700D02*
X149530000Y-111617700D01*
X147510000Y-111657700D02*
X149530000Y-111657700D01*
X147523000Y-111697700D02*
X149530000Y-111697700D01*
X147538000Y-111737700D02*
X149530000Y-111737700D01*
X147553000Y-111777700D02*
X149530000Y-111777700D01*
X147568000Y-111817700D02*
X149530000Y-111817700D01*
X147584000Y-111857700D02*
X149530000Y-111857700D01*
X147601000Y-111897700D02*
X149530000Y-111897700D01*
X147618000Y-111937700D02*
X149530000Y-111937700D01*
X147636000Y-111977700D02*
X149530000Y-111977700D01*
X147655000Y-112017700D02*
X149530000Y-112017700D01*
X147674000Y-112057700D02*
X149530000Y-112057700D01*
X147694000Y-112097700D02*
X149530000Y-112097700D01*
X147715000Y-112137700D02*
X149530000Y-112137700D01*
X147736000Y-112177700D02*
X149530000Y-112177700D01*
X147758000Y-112217700D02*
X149530000Y-112217700D01*
X147781000Y-112257700D02*
X149530000Y-112257700D01*
X147805000Y-112297700D02*
X149530000Y-112297700D01*
X147829000Y-112337700D02*
X149530000Y-112337700D01*
X147854000Y-112377700D02*
X149530000Y-112377700D01*
X147880000Y-112417700D02*
X149530000Y-112417700D01*
X147907000Y-112457700D02*
X149530000Y-112457700D01*
X147934000Y-112497700D02*
X149530000Y-112497700D01*
X147963000Y-112537700D02*
X149530000Y-112537700D01*
X147993000Y-112577700D02*
X149530000Y-112577700D01*
X148023000Y-112617700D02*
X149530000Y-112617700D01*
X148054000Y-112657700D02*
X149530000Y-112657700D01*
X148087000Y-112697700D02*
X149530000Y-112697700D01*
X148120000Y-112737700D02*
X149530000Y-112737700D01*
X148155000Y-112777700D02*
X149530000Y-112777700D01*
X148191000Y-112817700D02*
X149530000Y-112817700D01*
X148228000Y-112857700D02*
X149530000Y-112857700D01*
X148266000Y-112897700D02*
X149530000Y-112897700D01*
X148306000Y-112937700D02*
X152834000Y-112937700D01*
X148347000Y-112977700D02*
X152793000Y-112977700D01*
X148389000Y-113017700D02*
X152751000Y-113017700D01*
X148433000Y-113057700D02*
X152707000Y-113057700D01*
X148479000Y-113097700D02*
X152661000Y-113097700D01*
X148526000Y-113137700D02*
X152614000Y-113137700D01*
X148575000Y-113177700D02*
X152565000Y-113177700D01*
X148627000Y-113217700D02*
X152513000Y-113217700D01*
X148680000Y-113257700D02*
X152460000Y-113257700D01*
X148736000Y-113297700D02*
X152404000Y-113297700D01*
X148795000Y-113337700D02*
X152345000Y-113337700D01*
X148856000Y-113377700D02*
X152284000Y-113377700D01*
X148921000Y-113417700D02*
X152219000Y-113417700D01*
X148989000Y-113457700D02*
X152151000Y-113457700D01*
X149061000Y-113497700D02*
X152079000Y-113497700D01*
X149138000Y-113537700D02*
X152002000Y-113537700D01*
X149220000Y-113577700D02*
X151920000Y-113577700D01*
X149309000Y-113617700D02*
X151831000Y-113617700D01*
X149405000Y-113657700D02*
X151735000Y-113657700D01*
X149512000Y-113697700D02*
X151628000Y-113697700D01*
X149631000Y-113737700D02*
X151509000Y-113737700D01*
X149769000Y-113777700D02*
X151371000Y-113777700D01*
X149937000Y-113817700D02*
X151203000Y-113817700D01*
X150168000Y-113857700D02*
X150972000Y-113857700D01*
X151610000Y-110857700D02*
X153791000Y-110857700D01*
X151610000Y-110897700D02*
X153788000Y-110897700D01*
X151610000Y-110937700D02*
X153784000Y-110937700D01*
X151610000Y-110977700D02*
X153780000Y-110977700D01*
X151610000Y-111017700D02*
X153775000Y-111017700D01*
X151610000Y-111057700D02*
X153770000Y-111057700D01*
X151610000Y-111097700D02*
X153765000Y-111097700D01*
X151610000Y-111137700D02*
X153758000Y-111137700D01*
X151610000Y-111177700D02*
X153752000Y-111177700D01*
X151610000Y-111217700D02*
X153744000Y-111217700D01*
X151610000Y-111257700D02*
X153737000Y-111257700D01*
X151610000Y-111297700D02*
X153729000Y-111297700D01*
X151610000Y-111337700D02*
X153720000Y-111337700D01*
X151610000Y-111377700D02*
X153710000Y-111377700D01*
X151610000Y-111417700D02*
X153701000Y-111417700D01*
X151610000Y-111457700D02*
X153690000Y-111457700D01*
X151610000Y-111497700D02*
X153679000Y-111497700D01*
X151610000Y-111537700D02*
X153668000Y-111537700D01*
X151610000Y-111577700D02*
X153656000Y-111577700D01*
X151610000Y-111617700D02*
X153643000Y-111617700D01*
X151610000Y-111657700D02*
X153630000Y-111657700D01*
X151610000Y-111697700D02*
X153617000Y-111697700D01*
X151610000Y-111737700D02*
X153602000Y-111737700D01*
X151610000Y-111777700D02*
X153587000Y-111777700D01*
X151610000Y-111817700D02*
X153572000Y-111817700D01*
X151610000Y-111857700D02*
X153556000Y-111857700D01*
X151610000Y-111897700D02*
X153539000Y-111897700D01*
X151610000Y-111937700D02*
X153522000Y-111937700D01*
X151610000Y-111977700D02*
X153504000Y-111977700D01*
X151610000Y-112017700D02*
X153485000Y-112017700D01*
X151610000Y-112057700D02*
X153466000Y-112057700D01*
X151610000Y-112097700D02*
X153446000Y-112097700D01*
X151610000Y-112137700D02*
X153425000Y-112137700D01*
X151610000Y-112177700D02*
X153404000Y-112177700D01*
X151610000Y-112217700D02*
X153382000Y-112217700D01*
X151610000Y-112257700D02*
X153359000Y-112257700D01*
X151610000Y-112297700D02*
X153335000Y-112297700D01*
X151610000Y-112337700D02*
X153311000Y-112337700D01*
X151610000Y-112377700D02*
X153286000Y-112377700D01*
X151610000Y-112417700D02*
X153260000Y-112417700D01*
X151610000Y-112457700D02*
X153233000Y-112457700D01*
X151610000Y-112497700D02*
X153206000Y-112497700D01*
X151610000Y-112537700D02*
X153177000Y-112537700D01*
X151610000Y-112577700D02*
X153147000Y-112577700D01*
X151610000Y-112617700D02*
X153117000Y-112617700D01*
X151610000Y-112657700D02*
X153086000Y-112657700D01*
X151610000Y-112697700D02*
X153053000Y-112697700D01*
X151610000Y-112737700D02*
X153020000Y-112737700D01*
X151610000Y-112777700D02*
X152985000Y-112777700D01*
X151610000Y-112817700D02*
X152949000Y-112817700D01*
X151610000Y-112857700D02*
X152912000Y-112857700D01*
X151610000Y-112897700D02*
X152874000Y-112897700D01*
X153840000Y-110617700D02*
G75*
G02*
X147300000Y-110617700I-3270000J0D01*
G01*
X147300000Y-110617700D02*
G75*
G02*
X153840000Y-110617700I3270000J0D01*
G01*
%TO.C,R4*%
X127830000Y-127613700D02*
X128600000Y-127613700D01*
X128600000Y-126243700D02*
X135140000Y-126243700D01*
X128600000Y-128983700D02*
X128600000Y-126243700D01*
X135140000Y-126243700D02*
X135140000Y-128983700D01*
X135140000Y-128983700D02*
X128600000Y-128983700D01*
X135910000Y-127613700D02*
X135140000Y-127613700D01*
%TO.C,R5*%
X127830000Y-131663700D02*
X128600000Y-131663700D01*
X128600000Y-130293700D02*
X135140000Y-130293700D01*
X128600000Y-133033700D02*
X128600000Y-130293700D01*
X135140000Y-130293700D02*
X135140000Y-133033700D01*
X135140000Y-133033700D02*
X128600000Y-133033700D01*
X135910000Y-131663700D02*
X135140000Y-131663700D01*
%TD*%
M02*
