%TF.GenerationSoftware,KiCad,Pcbnew,9.0.6*%
%TF.CreationDate,2026-01-25T16:33:18+01:00*%
%TF.ProjectId,Tiger,54696765-722e-46b6-9963-61645f706362,rev?*%
%TF.SameCoordinates,Original*%
%TF.FileFunction,Copper,L1,Top*%
%TF.FilePolarity,Positive*%
%FSLAX46Y46*%
G04 Gerber Fmt 4.6, Leading zero omitted, Abs format (unit mm)*
G04 Created by KiCad (PCBNEW 9.0.6) date 2026-01-25 16:33:18*
%MOMM*%
%LPD*%
G01*
G04 APERTURE LIST*
G04 Aperture macros list*
%AMRoundRect*
0 Rectangle with rounded corners*
0 $1 Rounding radius*
0 $2 $3 $4 $5 $6 $7 $8 $9 X,Y pos of 4 corners*
0 Add a 4 corners polygon primitive as box body*
4,1,4,$2,$3,$4,$5,$6,$7,$8,$9,$2,$3,0*
0 Add four circle primitives for the rounded corners*
1,1,$1+$1,$2,$3*
1,1,$1+$1,$4,$5*
1,1,$1+$1,$6,$7*
1,1,$1+$1,$8,$9*
0 Add four rect primitives between the rounded corners*
20,1,$1+$1,$2,$3,$4,$5,0*
20,1,$1+$1,$4,$5,$6,$7,0*
20,1,$1+$1,$6,$7,$8,$9,0*
20,1,$1+$1,$8,$9,$2,$3,0*%
G04 Aperture macros list end*
%TA.AperFunction,ComponentPad*%
%ADD10R,1.800000X1.800000*%
%TD*%
%TA.AperFunction,ComponentPad*%
%ADD11C,1.800000*%
%TD*%
%TA.AperFunction,ComponentPad*%
%ADD12R,1.500000X1.500000*%
%TD*%
%TA.AperFunction,ComponentPad*%
%ADD13C,1.500000*%
%TD*%
%TA.AperFunction,ComponentPad*%
%ADD14C,1.600000*%
%TD*%
%TA.AperFunction,ComponentPad*%
%ADD15O,1.600000X1.600000*%
%TD*%
%TA.AperFunction,ComponentPad*%
%ADD16R,1.600000X1.600000*%
%TD*%
%TA.AperFunction,ComponentPad*%
%ADD17C,2.000000*%
%TD*%
%TA.AperFunction,ComponentPad*%
%ADD18RoundRect,0.250000X-0.550000X0.550000X-0.550000X-0.550000X0.550000X-0.550000X0.550000X0.550000X0*%
%TD*%
%TA.AperFunction,Conductor*%
%ADD19C,0.250000*%
%TD*%
G04 APERTURE END LIST*
D10*
%TO.P,D1,1,K*%
%TO.N,Net-(D1-K)*%
X113836000Y-89047700D03*
D11*
%TO.P,D1,2,A*%
%TO.N,Net-(D1-A)*%
X116376000Y-89047700D03*
%TD*%
D12*
%TO.P,Q2,1,E*%
%TO.N,Net-(D1-A)*%
X154222000Y-141117700D03*
D13*
%TO.P,Q2,2,B*%
%TO.N,Net-(Q1-C)*%
X156762000Y-138577700D03*
%TO.P,Q2,3,C*%
%TO.N,Net-(Q2-C)*%
X159302000Y-141117700D03*
%TD*%
D10*
%TO.P,D2,1,K*%
%TO.N,Net-(D1-K)*%
X148888000Y-89047700D03*
D11*
%TO.P,D2,2,A*%
%TO.N,Net-(D1-A)*%
X151428000Y-89047700D03*
%TD*%
D12*
%TO.P,Q1,1,E*%
%TO.N,Net-(D1-K)*%
X104438000Y-141879700D03*
D13*
%TO.P,Q1,2,B*%
%TO.N,Net-(Q1-B)*%
X106978000Y-139339700D03*
%TO.P,Q1,3,C*%
%TO.N,Net-(Q1-C)*%
X109518000Y-141879700D03*
%TD*%
D14*
%TO.P,R2,1*%
%TO.N,Net-(Q1-B)*%
X136950000Y-119513700D03*
D15*
%TO.P,R2,2*%
%TO.N,Net-(D1-K)*%
X126790000Y-119513700D03*
%TD*%
D16*
%TO.P,D3,1,K*%
%TO.N,Net-(D3-K)*%
X140760000Y-106573700D03*
D15*
%TO.P,D3,2,A*%
%TO.N,Net-(D3-A)*%
X140760000Y-114193700D03*
%TD*%
D14*
%TO.P,R1,1*%
%TO.N,Net-(D3-K)*%
X136950000Y-115463700D03*
D15*
%TO.P,R1,2*%
%TO.N,Net-(Q1-B)*%
X126790000Y-115463700D03*
%TD*%
D17*
%TO.P,S1,1,A*%
%TO.N,Net-(S1-A-Pad1)*%
X157524000Y-106065700D03*
%TO.P,S1,2,E*%
%TO.N,Net-(S1-E)*%
X157524000Y-108605700D03*
%TO.P,S1,3,A*%
%TO.N,unconnected-(S1-A-Pad3)*%
X157524000Y-111145700D03*
%TD*%
D16*
%TO.P,U1,1,GND*%
%TO.N,Net-(D1-K)*%
X117128000Y-107345700D03*
D15*
%TO.P,U1,2,TR*%
%TO.N,Net-(D3-K)*%
X117128000Y-109885700D03*
%TO.P,U1,3,Q*%
%TO.N,unconnected-(U1-Q-Pad3)*%
X117128000Y-112425700D03*
%TO.P,U1,4,R*%
%TO.N,Net-(S1-E)*%
X117128000Y-114965700D03*
%TO.P,U1,5,CV*%
%TO.N,unconnected-(U1-CV-Pad5)*%
X109508000Y-114965700D03*
%TO.P,U1,6,THR*%
%TO.N,Net-(D3-K)*%
X109508000Y-112425700D03*
%TO.P,U1,7,DIS*%
%TO.N,Net-(D3-A)*%
X109508000Y-109885700D03*
%TO.P,U1,8,VCC*%
%TO.N,Net-(S1-E)*%
X109508000Y-107345700D03*
%TD*%
D14*
%TO.P,R7,1*%
%TO.N,Net-(S1-E)*%
X136950000Y-135713700D03*
D15*
%TO.P,R7,2*%
%TO.N,Net-(D3-A)*%
X126790000Y-135713700D03*
%TD*%
D14*
%TO.P,R3,1*%
%TO.N,Net-(S1-E)*%
X136950000Y-123563700D03*
D15*
%TO.P,R3,2*%
%TO.N,Net-(Q1-C)*%
X126790000Y-123563700D03*
%TD*%
D18*
%TO.P,C1,1*%
%TO.N,Net-(D3-K)*%
X150570000Y-109367700D03*
D14*
%TO.P,C1,2*%
%TO.N,Net-(D1-K)*%
X150570000Y-111867700D03*
%TD*%
%TO.P,R4,1*%
%TO.N,Net-(S1-E)*%
X136950000Y-127613700D03*
D15*
%TO.P,R4,2*%
%TO.N,Net-(Q2-C)*%
X126790000Y-127613700D03*
%TD*%
D14*
%TO.P,R5,1*%
%TO.N,Net-(D3-K)*%
X136950000Y-131663700D03*
D15*
%TO.P,R5,2*%
%TO.N,Net-(D3-A)*%
X126790000Y-131663700D03*
%TD*%
D19*
%TO.N,Net-(D3-K)*%
X139236000Y-117749700D02*
X139236000Y-129377700D01*
X150570000Y-109367700D02*
X147776000Y-106573700D01*
X136950000Y-115463700D02*
X139236000Y-117749700D01*
X139236000Y-129377700D02*
X136950000Y-131663700D01*
X147776000Y-106573700D02*
X140760000Y-106573700D01*
X139490000Y-115463700D02*
X136950000Y-115463700D01*
%TO.N,Net-(D1-K)*%
X117128000Y-107345700D02*
X122218000Y-112435700D01*
X122218000Y-112435700D02*
X122218000Y-117749700D01*
X122218000Y-117749700D02*
X123982000Y-119513700D01*
X123982000Y-119513700D02*
X126790000Y-119513700D01*
%TO.N,Net-(D1-A)*%
X126282000Y-84729700D02*
X148888000Y-84729700D01*
X153460000Y-91079700D02*
X153460000Y-118003700D01*
X151428000Y-87269700D02*
X151428000Y-89047700D01*
X152444000Y-141117700D02*
X154222000Y-141117700D01*
X151428000Y-89047700D02*
X153460000Y-91079700D01*
X116376000Y-89047700D02*
X121964000Y-89047700D01*
X153460000Y-118003700D02*
X151682000Y-119781700D01*
X121964000Y-89047700D02*
X126282000Y-84729700D01*
X148888000Y-84729700D02*
X151428000Y-87269700D01*
X151682000Y-119781700D02*
X151682000Y-140355700D01*
X151682000Y-140355700D02*
X152444000Y-141117700D01*
%TO.N,Net-(D3-A)*%
X113328000Y-113705700D02*
X113328000Y-127909700D01*
X117082000Y-131663700D02*
X126790000Y-131663700D01*
X139744000Y-134005700D02*
X128498000Y-134005700D01*
X109508000Y-109885700D02*
X113328000Y-113705700D01*
X113328000Y-127909700D02*
X117082000Y-131663700D01*
X140760000Y-114193700D02*
X140760000Y-132989700D01*
X128498000Y-134005700D02*
X126790000Y-135713700D01*
X140760000Y-132989700D02*
X139744000Y-134005700D01*
%TO.N,Net-(S1-E)*%
X135454000Y-122067700D02*
X136950000Y-123563700D01*
X117128000Y-114965700D02*
X117128000Y-120533700D01*
X114598000Y-111399700D02*
X114598000Y-114193700D01*
X109508000Y-107345700D02*
X110544000Y-107345700D01*
X118662000Y-122067700D02*
X135454000Y-122067700D01*
X114598000Y-114193700D02*
X115370000Y-114965700D01*
X115370000Y-114965700D02*
X117128000Y-114965700D01*
X110544000Y-107345700D02*
X114598000Y-111399700D01*
X117128000Y-120533700D02*
X118662000Y-122067700D01*
%TD*%
M02*
