%TF.GenerationSoftware,KiCad,Pcbnew,9.0.6*%
%TF.CreationDate,2026-01-25T16:33:18+01:00*%
%TF.ProjectId,Tiger,54696765-722e-46b6-9963-61645f706362,rev?*%
%TF.SameCoordinates,Original*%
%TF.FileFunction,Copper,L2,Bot*%
%TF.FilePolarity,Positive*%
%FSLAX46Y46*%
G04 Gerber Fmt 4.6, Leading zero omitted, Abs format (unit mm)*
G04 Created by KiCad (PCBNEW 9.0.6) date 2026-01-25 16:33:18*
%MOMM*%
%LPD*%
G01*
G04 APERTURE LIST*
G04 Aperture macros list*
%AMRoundRect*
0 Rectangle with rounded corners*
0 $1 Rounding radius*
0 $2 $3 $4 $5 $6 $7 $8 $9 X,Y pos of 4 corners*
0 Add a 4 corners polygon primitive as box body*
4,1,4,$2,$3,$4,$5,$6,$7,$8,$9,$2,$3,0*
0 Add four circle primitives for the rounded corners*
1,1,$1+$1,$2,$3*
1,1,$1+$1,$4,$5*
1,1,$1+$1,$6,$7*
1,1,$1+$1,$8,$9*
0 Add four rect primitives between the rounded corners*
20,1,$1+$1,$2,$3,$4,$5,0*
20,1,$1+$1,$4,$5,$6,$7,0*
20,1,$1+$1,$6,$7,$8,$9,0*
20,1,$1+$1,$8,$9,$2,$3,0*%
G04 Aperture macros list end*
%ADD10C,0.300000*%
%TA.AperFunction,NonConductor*%
%ADD11C,0.300000*%
%TD*%
%TA.AperFunction,ComponentPad*%
%ADD12R,1.800000X1.800000*%
%TD*%
%TA.AperFunction,ComponentPad*%
%ADD13C,1.800000*%
%TD*%
%TA.AperFunction,ComponentPad*%
%ADD14R,1.500000X1.500000*%
%TD*%
%TA.AperFunction,ComponentPad*%
%ADD15C,1.500000*%
%TD*%
%TA.AperFunction,SMDPad,CuDef*%
%ADD16C,3.000000*%
%TD*%
%TA.AperFunction,ComponentPad*%
%ADD17C,1.600000*%
%TD*%
%TA.AperFunction,ComponentPad*%
%ADD18O,1.600000X1.600000*%
%TD*%
%TA.AperFunction,ComponentPad*%
%ADD19R,1.600000X1.600000*%
%TD*%
%TA.AperFunction,ComponentPad*%
%ADD20C,2.000000*%
%TD*%
%TA.AperFunction,SMDPad,CuDef*%
%ADD21R,5.000000X2.000000*%
%TD*%
%TA.AperFunction,SMDPad,CuDef*%
%ADD22C,17.780000*%
%TD*%
%TA.AperFunction,ComponentPad*%
%ADD23RoundRect,0.250000X-0.550000X0.550000X-0.550000X-0.550000X0.550000X-0.550000X0.550000X0.550000X0*%
%TD*%
%TA.AperFunction,Conductor*%
%ADD24C,0.250000*%
%TD*%
G04 APERTURE END LIST*
D10*
D11*
X137764489Y-97712528D02*
X137764489Y-96212528D01*
X136907346Y-97712528D02*
X137550203Y-96855385D01*
X136907346Y-96212528D02*
X137764489Y-97069671D01*
X136264489Y-97712528D02*
X136264489Y-96212528D01*
X136264489Y-96926814D02*
X135407346Y-96926814D01*
X135407346Y-97712528D02*
X135407346Y-96212528D01*
X134193060Y-96926814D02*
X134693060Y-96926814D01*
X134693060Y-97712528D02*
X134693060Y-96212528D01*
X134693060Y-96212528D02*
X133978774Y-96212528D01*
X131978774Y-96212528D02*
X131835917Y-96212528D01*
X131835917Y-96212528D02*
X131693060Y-96283957D01*
X131693060Y-96283957D02*
X131621632Y-96355385D01*
X131621632Y-96355385D02*
X131550203Y-96498242D01*
X131550203Y-96498242D02*
X131478774Y-96783957D01*
X131478774Y-96783957D02*
X131478774Y-97141100D01*
X131478774Y-97141100D02*
X131550203Y-97426814D01*
X131550203Y-97426814D02*
X131621632Y-97569671D01*
X131621632Y-97569671D02*
X131693060Y-97641100D01*
X131693060Y-97641100D02*
X131835917Y-97712528D01*
X131835917Y-97712528D02*
X131978774Y-97712528D01*
X131978774Y-97712528D02*
X132121632Y-97641100D01*
X132121632Y-97641100D02*
X132193060Y-97569671D01*
X132193060Y-97569671D02*
X132264489Y-97426814D01*
X132264489Y-97426814D02*
X132335917Y-97141100D01*
X132335917Y-97141100D02*
X132335917Y-96783957D01*
X132335917Y-96783957D02*
X132264489Y-96498242D01*
X132264489Y-96498242D02*
X132193060Y-96355385D01*
X132193060Y-96355385D02*
X132121632Y-96283957D01*
X132121632Y-96283957D02*
X131978774Y-96212528D01*
X130050203Y-97712528D02*
X130907346Y-97712528D01*
X130478775Y-97712528D02*
X130478775Y-96212528D01*
X130478775Y-96212528D02*
X130621632Y-96426814D01*
X130621632Y-96426814D02*
X130764489Y-96569671D01*
X130764489Y-96569671D02*
X130907346Y-96641100D01*
X129407347Y-97569671D02*
X129335918Y-97641100D01*
X129335918Y-97641100D02*
X129407347Y-97712528D01*
X129407347Y-97712528D02*
X129478775Y-97641100D01*
X129478775Y-97641100D02*
X129407347Y-97569671D01*
X129407347Y-97569671D02*
X129407347Y-97712528D01*
X128764489Y-96355385D02*
X128693061Y-96283957D01*
X128693061Y-96283957D02*
X128550204Y-96212528D01*
X128550204Y-96212528D02*
X128193061Y-96212528D01*
X128193061Y-96212528D02*
X128050204Y-96283957D01*
X128050204Y-96283957D02*
X127978775Y-96355385D01*
X127978775Y-96355385D02*
X127907346Y-96498242D01*
X127907346Y-96498242D02*
X127907346Y-96641100D01*
X127907346Y-96641100D02*
X127978775Y-96855385D01*
X127978775Y-96855385D02*
X128835918Y-97712528D01*
X128835918Y-97712528D02*
X127907346Y-97712528D01*
X126978775Y-96212528D02*
X126835918Y-96212528D01*
X126835918Y-96212528D02*
X126693061Y-96283957D01*
X126693061Y-96283957D02*
X126621633Y-96355385D01*
X126621633Y-96355385D02*
X126550204Y-96498242D01*
X126550204Y-96498242D02*
X126478775Y-96783957D01*
X126478775Y-96783957D02*
X126478775Y-97141100D01*
X126478775Y-97141100D02*
X126550204Y-97426814D01*
X126550204Y-97426814D02*
X126621633Y-97569671D01*
X126621633Y-97569671D02*
X126693061Y-97641100D01*
X126693061Y-97641100D02*
X126835918Y-97712528D01*
X126835918Y-97712528D02*
X126978775Y-97712528D01*
X126978775Y-97712528D02*
X127121633Y-97641100D01*
X127121633Y-97641100D02*
X127193061Y-97569671D01*
X127193061Y-97569671D02*
X127264490Y-97426814D01*
X127264490Y-97426814D02*
X127335918Y-97141100D01*
X127335918Y-97141100D02*
X127335918Y-96783957D01*
X127335918Y-96783957D02*
X127264490Y-96498242D01*
X127264490Y-96498242D02*
X127193061Y-96355385D01*
X127193061Y-96355385D02*
X127121633Y-96283957D01*
X127121633Y-96283957D02*
X126978775Y-96212528D01*
X125907347Y-96355385D02*
X125835919Y-96283957D01*
X125835919Y-96283957D02*
X125693062Y-96212528D01*
X125693062Y-96212528D02*
X125335919Y-96212528D01*
X125335919Y-96212528D02*
X125193062Y-96283957D01*
X125193062Y-96283957D02*
X125121633Y-96355385D01*
X125121633Y-96355385D02*
X125050204Y-96498242D01*
X125050204Y-96498242D02*
X125050204Y-96641100D01*
X125050204Y-96641100D02*
X125121633Y-96855385D01*
X125121633Y-96855385D02*
X125978776Y-97712528D01*
X125978776Y-97712528D02*
X125050204Y-97712528D01*
X123764491Y-96212528D02*
X124050205Y-96212528D01*
X124050205Y-96212528D02*
X124193062Y-96283957D01*
X124193062Y-96283957D02*
X124264491Y-96355385D01*
X124264491Y-96355385D02*
X124407348Y-96569671D01*
X124407348Y-96569671D02*
X124478776Y-96855385D01*
X124478776Y-96855385D02*
X124478776Y-97426814D01*
X124478776Y-97426814D02*
X124407348Y-97569671D01*
X124407348Y-97569671D02*
X124335919Y-97641100D01*
X124335919Y-97641100D02*
X124193062Y-97712528D01*
X124193062Y-97712528D02*
X123907348Y-97712528D01*
X123907348Y-97712528D02*
X123764491Y-97641100D01*
X123764491Y-97641100D02*
X123693062Y-97569671D01*
X123693062Y-97569671D02*
X123621633Y-97426814D01*
X123621633Y-97426814D02*
X123621633Y-97069671D01*
X123621633Y-97069671D02*
X123693062Y-96926814D01*
X123693062Y-96926814D02*
X123764491Y-96855385D01*
X123764491Y-96855385D02*
X123907348Y-96783957D01*
X123907348Y-96783957D02*
X124193062Y-96783957D01*
X124193062Y-96783957D02*
X124335919Y-96855385D01*
X124335919Y-96855385D02*
X124407348Y-96926814D01*
X124407348Y-96926814D02*
X124478776Y-97069671D01*
D12*
%TO.P,D1,1,K*%
%TO.N,Net-(D1-K)*%
X113836000Y-89047700D03*
D13*
%TO.P,D1,2,A*%
%TO.N,Net-(D1-A)*%
X116376000Y-89047700D03*
%TD*%
D14*
%TO.P,Q2,1,E*%
%TO.N,Net-(D1-A)*%
X154222000Y-141117700D03*
D15*
%TO.P,Q2,2,B*%
%TO.N,Net-(Q1-C)*%
X156762000Y-138577700D03*
%TO.P,Q2,3,C*%
%TO.N,Net-(Q2-C)*%
X159302000Y-141117700D03*
%TD*%
D16*
%TO.P,,1*%
%TO.N,Net-(S1-A-Pad1)*%
X151174000Y-79649700D03*
%TD*%
%TO.P,,1*%
%TO.N,Net-(D1-K)*%
X110534000Y-79903700D03*
%TD*%
D12*
%TO.P,D2,1,K*%
%TO.N,Net-(D1-K)*%
X148888000Y-89047700D03*
D13*
%TO.P,D2,2,A*%
%TO.N,Net-(D1-A)*%
X151428000Y-89047700D03*
%TD*%
D14*
%TO.P,Q1,1,E*%
%TO.N,Net-(D1-K)*%
X104438000Y-141879700D03*
D15*
%TO.P,Q1,2,B*%
%TO.N,Net-(Q1-B)*%
X106978000Y-139339700D03*
%TO.P,Q1,3,C*%
%TO.N,Net-(Q1-C)*%
X109518000Y-141879700D03*
%TD*%
D17*
%TO.P,R2,1*%
%TO.N,Net-(Q1-B)*%
X136950000Y-119513700D03*
D18*
%TO.P,R2,2*%
%TO.N,Net-(D1-K)*%
X126790000Y-119513700D03*
%TD*%
D19*
%TO.P,D3,1,K*%
%TO.N,Net-(D3-K)*%
X140760000Y-106573700D03*
D18*
%TO.P,D3,2,A*%
%TO.N,Net-(D3-A)*%
X140760000Y-114193700D03*
%TD*%
D17*
%TO.P,R1,1*%
%TO.N,Net-(D3-K)*%
X136950000Y-115463700D03*
D18*
%TO.P,R1,2*%
%TO.N,Net-(Q1-B)*%
X126790000Y-115463700D03*
%TD*%
D20*
%TO.P,S1,1,A*%
%TO.N,Net-(S1-A-Pad1)*%
X157524000Y-106065700D03*
%TO.P,S1,2,E*%
%TO.N,Net-(S1-E)*%
X157524000Y-108605700D03*
%TO.P,S1,3,A*%
%TO.N,unconnected-(S1-A-Pad3)*%
X157524000Y-111145700D03*
%TD*%
D21*
%TO.P,U2,1*%
%TO.N,Net-(S1-A-Pad1)*%
X145332000Y-75585700D03*
X145332000Y-72029700D03*
X119438000Y-75585700D03*
X119438000Y-72029700D03*
D22*
%TO.P,U2,2*%
%TO.N,Net-(D1-K)*%
X132378000Y-73553700D03*
%TD*%
D19*
%TO.P,U1,1,GND*%
%TO.N,Net-(D1-K)*%
X117128000Y-107345700D03*
D18*
%TO.P,U1,2,TR*%
%TO.N,Net-(D3-K)*%
X117128000Y-109885700D03*
%TO.P,U1,3,Q*%
%TO.N,unconnected-(U1-Q-Pad3)*%
X117128000Y-112425700D03*
%TO.P,U1,4,R*%
%TO.N,Net-(S1-E)*%
X117128000Y-114965700D03*
%TO.P,U1,5,CV*%
%TO.N,unconnected-(U1-CV-Pad5)*%
X109508000Y-114965700D03*
%TO.P,U1,6,THR*%
%TO.N,Net-(D3-K)*%
X109508000Y-112425700D03*
%TO.P,U1,7,DIS*%
%TO.N,Net-(D3-A)*%
X109508000Y-109885700D03*
%TO.P,U1,8,VCC*%
%TO.N,Net-(S1-E)*%
X109508000Y-107345700D03*
%TD*%
D16*
%TO.P,Q,1*%
%TO.N,unconnected-(U1-Q-Pad3)*%
X121964000Y-112415700D03*
%TD*%
D17*
%TO.P,R7,1*%
%TO.N,Net-(S1-E)*%
X136950000Y-135713700D03*
D18*
%TO.P,R7,2*%
%TO.N,Net-(D3-A)*%
X126790000Y-135713700D03*
%TD*%
D17*
%TO.P,R3,1*%
%TO.N,Net-(S1-E)*%
X136950000Y-123563700D03*
D18*
%TO.P,R3,2*%
%TO.N,Net-(Q1-C)*%
X126790000Y-123563700D03*
%TD*%
D23*
%TO.P,C1,1*%
%TO.N,Net-(D3-K)*%
X150570000Y-109367700D03*
D17*
%TO.P,C1,2*%
%TO.N,Net-(D1-K)*%
X150570000Y-111867700D03*
%TD*%
%TO.P,R4,1*%
%TO.N,Net-(S1-E)*%
X136950000Y-127613700D03*
D18*
%TO.P,R4,2*%
%TO.N,Net-(Q2-C)*%
X126790000Y-127613700D03*
%TD*%
D17*
%TO.P,R5,1*%
%TO.N,Net-(D3-K)*%
X136950000Y-131663700D03*
D18*
%TO.P,R5,2*%
%TO.N,Net-(D3-A)*%
X126790000Y-131663700D03*
%TD*%
D24*
%TO.N,Net-(D3-K)*%
X137966000Y-106573700D02*
X134654000Y-109885700D01*
X114334000Y-109885700D02*
X117128000Y-109885700D01*
X140760000Y-106573700D02*
X137966000Y-106573700D01*
X109508000Y-112425700D02*
X111794000Y-112425700D01*
X117128000Y-109885700D02*
X134654000Y-109885700D01*
X136940000Y-112171700D02*
X136950000Y-112181700D01*
X111794000Y-112425700D02*
X114334000Y-109885700D01*
X136950000Y-112181700D02*
X136950000Y-115463700D01*
X134654000Y-109885700D02*
X136940000Y-112171700D01*
%TO.N,Net-(D1-K)*%
X113836000Y-89047700D02*
X113836000Y-87777700D01*
X122726000Y-78887700D02*
X127044000Y-78887700D01*
X147872000Y-89047700D02*
X148888000Y-89047700D01*
X132378000Y-73553700D02*
X147872000Y-89047700D01*
X106978000Y-141879700D02*
X104438000Y-141879700D01*
X113836000Y-89047700D02*
X113836000Y-99969700D01*
X146856000Y-106573700D02*
X146856000Y-110891700D01*
X146856000Y-110891700D02*
X147832000Y-111867700D01*
X110534000Y-79903700D02*
X110534000Y-87777700D01*
X110534000Y-87777700D02*
X111804000Y-89047700D01*
X126790000Y-120543700D02*
X109518000Y-137815700D01*
X113836000Y-99969700D02*
X117128000Y-103261700D01*
X117128000Y-103261700D02*
X117128000Y-107345700D01*
X147832000Y-111867700D02*
X150570000Y-111867700D01*
X126790000Y-119513700D02*
X126790000Y-120543700D01*
X111804000Y-89047700D02*
X113836000Y-89047700D01*
X127044000Y-78887700D02*
X132378000Y-73553700D01*
X148888000Y-89047700D02*
X148888000Y-104541700D01*
X109518000Y-139339700D02*
X106978000Y-141879700D01*
X113836000Y-87777700D02*
X122726000Y-78887700D01*
X148888000Y-104541700D02*
X146856000Y-106573700D01*
X109518000Y-137815700D02*
X109518000Y-139339700D01*
%TO.N,Net-(D3-A)*%
X126790000Y-131663700D02*
X126790000Y-135713700D01*
%TO.N,Net-(Q1-B)*%
X122980000Y-115463700D02*
X126790000Y-115463700D01*
X128060000Y-115463700D02*
X132110000Y-119513700D01*
X132110000Y-119513700D02*
X136950000Y-119513700D01*
X106978000Y-131465700D02*
X122980000Y-115463700D01*
X106978000Y-139339700D02*
X106978000Y-131465700D01*
X126790000Y-115463700D02*
X128060000Y-115463700D01*
%TO.N,Net-(Q1-C)*%
X109518000Y-141879700D02*
X109518000Y-140835700D01*
X148126000Y-138577700D02*
X146602000Y-140101700D01*
X109518000Y-140835700D02*
X126790000Y-123563700D01*
X156762000Y-138577700D02*
X148126000Y-138577700D01*
X135680000Y-140101700D02*
X134664000Y-139085700D01*
X134664000Y-130195700D02*
X128032000Y-123563700D01*
X146602000Y-140101700D02*
X135680000Y-140101700D01*
X128032000Y-123563700D02*
X126790000Y-123563700D01*
X134664000Y-139085700D02*
X134664000Y-130195700D01*
%TO.N,Net-(Q2-C)*%
X157016000Y-145943700D02*
X159302000Y-143657700D01*
X132632000Y-141371700D02*
X137204000Y-145943700D01*
X159302000Y-143657700D02*
X159302000Y-141117700D01*
X126790000Y-127613700D02*
X132632000Y-133455700D01*
X132632000Y-133455700D02*
X132632000Y-141371700D01*
X137204000Y-145943700D02*
X157016000Y-145943700D01*
%TO.N,Net-(S1-E)*%
X141522000Y-134005700D02*
X141522000Y-128925700D01*
X136950000Y-123563700D02*
X136950000Y-127613700D01*
X157524000Y-108605700D02*
X141522000Y-124607700D01*
X139814000Y-135713700D02*
X141522000Y-134005700D01*
X136950000Y-135713700D02*
X139814000Y-135713700D01*
X140210000Y-127613700D02*
X136950000Y-127613700D01*
X141522000Y-124607700D02*
X141522000Y-128925700D01*
X141522000Y-128925700D02*
X140210000Y-127613700D01*
%TO.N,Net-(S1-A-Pad1)*%
X157524000Y-106065700D02*
X157524000Y-78379700D01*
X145332000Y-75585700D02*
X145332000Y-72029700D01*
X145332000Y-75585700D02*
X154476000Y-75585700D01*
X154476000Y-76347700D02*
X154476000Y-75585700D01*
X151174000Y-79649700D02*
X154476000Y-76347700D01*
X154476000Y-75585700D02*
X154730000Y-75585700D01*
X119438000Y-75585700D02*
X119438000Y-72029700D01*
X157524000Y-78379700D02*
X154730000Y-75585700D01*
%TO.N,unconnected-(U1-Q-Pad3)*%
X117128000Y-112425700D02*
X122208000Y-112425700D01*
%TD*%
M02*
