M48
; DRILL file {KiCad 9.0.6} date 2026-01-25T16:33:21+0100
; FORMAT={-:-/ absolute / inch / decimal}
; #@! TF.CreationDate,2026-01-25T16:33:21+01:00
; #@! TF.GenerationSoftware,Kicad,Pcbnew,9.0.6
; #@! TF.FileFunction,Plated,1,2,PTH
FMAT,2
INCH
; #@! TA.AperFunction,Plated,PTH,ComponentDrill
T1C0.0315
; #@! TA.AperFunction,Plated,PTH,ComponentDrill
T2C0.0354
; #@! TA.AperFunction,Plated,PTH,ComponentDrill
T3C0.0394
%
G90
G05
T1
X4.1117Y-5.5858
X4.2117Y-5.4858
X4.3113Y-4.2262
X4.3113Y-4.3262
X4.3113Y-4.4262
X4.3113Y-4.5262
X4.3117Y-5.5858
X4.6113Y-4.2262
X4.6113Y-4.3262
X4.6113Y-4.4262
X4.6113Y-4.5262
X4.9917Y-4.5458
X4.9917Y-4.7053
X4.9917Y-4.8647
X4.9917Y-5.0242
X4.9917Y-5.1836
X4.9917Y-5.3431
X5.3917Y-4.5458
X5.3917Y-4.7053
X5.3917Y-4.8647
X5.3917Y-5.0242
X5.3917Y-5.1836
X5.3917Y-5.3431
X5.5417Y-4.1958
X5.5417Y-4.4958
X5.928Y-4.3058
X5.928Y-4.4042
X6.0717Y-5.5558
X6.1717Y-5.4558
X6.2717Y-5.5558
T2
X4.4817Y-3.5058
X4.5817Y-3.5058
X5.8617Y-3.5058
X5.9617Y-3.5058
T3
X6.2017Y-4.1758
X6.2017Y-4.2758
X6.2017Y-4.3758
M30
