%TF.GenerationSoftware,KiCad,Pcbnew,9.0.6*%
%TF.CreationDate,2025-12-05T08:24:13+01:00*%
%TF.ProjectId,GrumpyDuck,4772756d-7079-4447-9563-6b2e6b696361,rev?*%
%TF.SameCoordinates,Original*%
%TF.FileFunction,Soldermask,Bot*%
%TF.FilePolarity,Negative*%
%FSLAX46Y46*%
G04 Gerber Fmt 4.6, Leading zero omitted, Abs format (unit mm)*
G04 Created by KiCad (PCBNEW 9.0.6) date 2025-12-05 08:24:13*
%MOMM*%
%LPD*%
G01*
G04 APERTURE LIST*
G04 Aperture macros list*
%AMRoundRect*
0 Rectangle with rounded corners*
0 $1 Rounding radius*
0 $2 $3 $4 $5 $6 $7 $8 $9 X,Y pos of 4 corners*
0 Add a 4 corners polygon primitive as box body*
4,1,4,$2,$3,$4,$5,$6,$7,$8,$9,$2,$3,0*
0 Add four circle primitives for the rounded corners*
1,1,$1+$1,$2,$3*
1,1,$1+$1,$4,$5*
1,1,$1+$1,$6,$7*
1,1,$1+$1,$8,$9*
0 Add four rect primitives between the rounded corners*
20,1,$1+$1,$2,$3,$4,$5,0*
20,1,$1+$1,$4,$5,$6,$7,0*
20,1,$1+$1,$6,$7,$8,$9,0*
20,1,$1+$1,$8,$9,$2,$3,0*%
G04 Aperture macros list end*
%ADD10C,0.300000*%
%ADD11C,2.200000*%
%ADD12RoundRect,0.200000X-0.900000X-0.900000X0.900000X-0.900000X0.900000X0.900000X-0.900000X0.900000X0*%
%ADD13RoundRect,0.200000X-2.500000X-1.000000X2.500000X-1.000000X2.500000X1.000000X-2.500000X1.000000X0*%
%ADD14C,18.180000*%
%ADD15RoundRect,0.312500X-0.687500X-0.687500X0.687500X-0.687500X0.687500X0.687500X-0.687500X0.687500X0*%
%ADD16C,2.000000*%
%ADD17C,2.400000*%
%ADD18RoundRect,0.200000X-0.750000X-0.750000X0.750000X-0.750000X0.750000X0.750000X-0.750000X0.750000X0*%
%ADD19C,1.900000*%
%ADD20RoundRect,0.200000X-0.800000X-0.800000X0.800000X-0.800000X0.800000X0.800000X-0.800000X0.800000X0*%
%ADD21O,2.000000X2.000000*%
G04 APERTURE END LIST*
D10*
X130145489Y-75000828D02*
X130145489Y-73500828D01*
X129288346Y-75000828D02*
X129931203Y-74143685D01*
X129288346Y-73500828D02*
X130145489Y-74357971D01*
X128645489Y-75000828D02*
X128645489Y-73500828D01*
X128645489Y-74215114D02*
X127788346Y-74215114D01*
X127788346Y-75000828D02*
X127788346Y-73500828D01*
X126574060Y-74215114D02*
X127074060Y-74215114D01*
X127074060Y-75000828D02*
X127074060Y-73500828D01*
X127074060Y-73500828D02*
X126359774Y-73500828D01*
X123859774Y-75000828D02*
X124716917Y-75000828D01*
X124288346Y-75000828D02*
X124288346Y-73500828D01*
X124288346Y-73500828D02*
X124431203Y-73715114D01*
X124431203Y-73715114D02*
X124574060Y-73857971D01*
X124574060Y-73857971D02*
X124716917Y-73929400D01*
X123288346Y-73643685D02*
X123216918Y-73572257D01*
X123216918Y-73572257D02*
X123074061Y-73500828D01*
X123074061Y-73500828D02*
X122716918Y-73500828D01*
X122716918Y-73500828D02*
X122574061Y-73572257D01*
X122574061Y-73572257D02*
X122502632Y-73643685D01*
X122502632Y-73643685D02*
X122431203Y-73786542D01*
X122431203Y-73786542D02*
X122431203Y-73929400D01*
X122431203Y-73929400D02*
X122502632Y-74143685D01*
X122502632Y-74143685D02*
X123359775Y-75000828D01*
X123359775Y-75000828D02*
X122431203Y-75000828D01*
X121788347Y-74857971D02*
X121716918Y-74929400D01*
X121716918Y-74929400D02*
X121788347Y-75000828D01*
X121788347Y-75000828D02*
X121859775Y-74929400D01*
X121859775Y-74929400D02*
X121788347Y-74857971D01*
X121788347Y-74857971D02*
X121788347Y-75000828D01*
X121145489Y-73643685D02*
X121074061Y-73572257D01*
X121074061Y-73572257D02*
X120931204Y-73500828D01*
X120931204Y-73500828D02*
X120574061Y-73500828D01*
X120574061Y-73500828D02*
X120431204Y-73572257D01*
X120431204Y-73572257D02*
X120359775Y-73643685D01*
X120359775Y-73643685D02*
X120288346Y-73786542D01*
X120288346Y-73786542D02*
X120288346Y-73929400D01*
X120288346Y-73929400D02*
X120359775Y-74143685D01*
X120359775Y-74143685D02*
X121216918Y-75000828D01*
X121216918Y-75000828D02*
X120288346Y-75000828D01*
X119359775Y-73500828D02*
X119216918Y-73500828D01*
X119216918Y-73500828D02*
X119074061Y-73572257D01*
X119074061Y-73572257D02*
X119002633Y-73643685D01*
X119002633Y-73643685D02*
X118931204Y-73786542D01*
X118931204Y-73786542D02*
X118859775Y-74072257D01*
X118859775Y-74072257D02*
X118859775Y-74429400D01*
X118859775Y-74429400D02*
X118931204Y-74715114D01*
X118931204Y-74715114D02*
X119002633Y-74857971D01*
X119002633Y-74857971D02*
X119074061Y-74929400D01*
X119074061Y-74929400D02*
X119216918Y-75000828D01*
X119216918Y-75000828D02*
X119359775Y-75000828D01*
X119359775Y-75000828D02*
X119502633Y-74929400D01*
X119502633Y-74929400D02*
X119574061Y-74857971D01*
X119574061Y-74857971D02*
X119645490Y-74715114D01*
X119645490Y-74715114D02*
X119716918Y-74429400D01*
X119716918Y-74429400D02*
X119716918Y-74072257D01*
X119716918Y-74072257D02*
X119645490Y-73786542D01*
X119645490Y-73786542D02*
X119574061Y-73643685D01*
X119574061Y-73643685D02*
X119502633Y-73572257D01*
X119502633Y-73572257D02*
X119359775Y-73500828D01*
X118288347Y-73643685D02*
X118216919Y-73572257D01*
X118216919Y-73572257D02*
X118074062Y-73500828D01*
X118074062Y-73500828D02*
X117716919Y-73500828D01*
X117716919Y-73500828D02*
X117574062Y-73572257D01*
X117574062Y-73572257D02*
X117502633Y-73643685D01*
X117502633Y-73643685D02*
X117431204Y-73786542D01*
X117431204Y-73786542D02*
X117431204Y-73929400D01*
X117431204Y-73929400D02*
X117502633Y-74143685D01*
X117502633Y-74143685D02*
X118359776Y-75000828D01*
X118359776Y-75000828D02*
X117431204Y-75000828D01*
X116074062Y-73500828D02*
X116788348Y-73500828D01*
X116788348Y-73500828D02*
X116859776Y-74215114D01*
X116859776Y-74215114D02*
X116788348Y-74143685D01*
X116788348Y-74143685D02*
X116645491Y-74072257D01*
X116645491Y-74072257D02*
X116288348Y-74072257D01*
X116288348Y-74072257D02*
X116145491Y-74143685D01*
X116145491Y-74143685D02*
X116074062Y-74215114D01*
X116074062Y-74215114D02*
X116002633Y-74357971D01*
X116002633Y-74357971D02*
X116002633Y-74715114D01*
X116002633Y-74715114D02*
X116074062Y-74857971D01*
X116074062Y-74857971D02*
X116145491Y-74929400D01*
X116145491Y-74929400D02*
X116288348Y-75000828D01*
X116288348Y-75000828D02*
X116645491Y-75000828D01*
X116645491Y-75000828D02*
X116788348Y-74929400D01*
X116788348Y-74929400D02*
X116859776Y-74857971D01*
D11*
%TO.C,D2*%
X131040000Y-68400000D03*
D12*
X128500000Y-68400000D03*
%TD*%
D11*
%TO.C,D1*%
X118640000Y-68500000D03*
D12*
X116100000Y-68500000D03*
%TD*%
D13*
%TO.C,U2*%
X110306000Y-57056000D03*
X110306000Y-53500000D03*
X136200000Y-57056000D03*
X136200000Y-53500000D03*
D14*
X123260000Y-55532000D03*
%TD*%
D15*
%TO.C,U1*%
X126300000Y-112180000D03*
D16*
X126300000Y-109640000D03*
X126300000Y-107100000D03*
X126300000Y-104560000D03*
X133920000Y-104560000D03*
X133920000Y-107100000D03*
X133920000Y-109640000D03*
X133920000Y-112180000D03*
%TD*%
D17*
%TO.C,S1*%
X139500000Y-119200000D03*
X139500000Y-116660000D03*
X139500000Y-114120000D03*
%TD*%
D16*
%TO.C,R7*%
X110800000Y-98350000D03*
X120960000Y-98350000D03*
%TD*%
%TO.C,R6*%
X110800000Y-102400000D03*
X120960000Y-102400000D03*
%TD*%
%TO.C,R5*%
X110800000Y-106450000D03*
X120960000Y-106450000D03*
%TD*%
%TO.C,R4*%
X110800000Y-110500000D03*
X120960000Y-110500000D03*
%TD*%
%TO.C,R3*%
X110800000Y-114550000D03*
X120960000Y-114550000D03*
%TD*%
%TO.C,R1*%
X110800000Y-94300000D03*
X120960000Y-94300000D03*
%TD*%
D18*
%TO.C,T2*%
X113100000Y-122900000D03*
D19*
X115640000Y-120360000D03*
X118180000Y-122900000D03*
%TD*%
D18*
%TO.C,T1*%
X129300000Y-122900000D03*
D19*
X131840000Y-120360000D03*
X134380000Y-122900000D03*
%TD*%
D20*
%TO.C,D3*%
X125900000Y-94200000D03*
D21*
X133520000Y-94200000D03*
%TD*%
D20*
%TO.C,C1*%
X138700000Y-104700000D03*
D16*
X141200000Y-104700000D03*
%TD*%
M02*
