%TF.GenerationSoftware,KiCad,Pcbnew,9.0.6*%
%TF.CreationDate,2025-12-05T08:24:13+01:00*%
%TF.ProjectId,GrumpyDuck,4772756d-7079-4447-9563-6b2e6b696361,rev?*%
%TF.SameCoordinates,Original*%
%TF.FileFunction,Copper,L1,Top*%
%TF.FilePolarity,Positive*%
%FSLAX46Y46*%
G04 Gerber Fmt 4.6, Leading zero omitted, Abs format (unit mm)*
G04 Created by KiCad (PCBNEW 9.0.6) date 2025-12-05 08:24:13*
%MOMM*%
%LPD*%
G01*
G04 APERTURE LIST*
G04 Aperture macros list*
%AMRoundRect*
0 Rectangle with rounded corners*
0 $1 Rounding radius*
0 $2 $3 $4 $5 $6 $7 $8 $9 X,Y pos of 4 corners*
0 Add a 4 corners polygon primitive as box body*
4,1,4,$2,$3,$4,$5,$6,$7,$8,$9,$2,$3,0*
0 Add four circle primitives for the rounded corners*
1,1,$1+$1,$2,$3*
1,1,$1+$1,$4,$5*
1,1,$1+$1,$6,$7*
1,1,$1+$1,$8,$9*
0 Add four rect primitives between the rounded corners*
20,1,$1+$1,$2,$3,$4,$5,0*
20,1,$1+$1,$4,$5,$6,$7,0*
20,1,$1+$1,$6,$7,$8,$9,0*
20,1,$1+$1,$8,$9,$2,$3,0*%
G04 Aperture macros list end*
%TA.AperFunction,ComponentPad*%
%ADD10C,1.800000*%
%TD*%
%TA.AperFunction,ComponentPad*%
%ADD11R,1.800000X1.800000*%
%TD*%
%TA.AperFunction,ComponentPad*%
%ADD12RoundRect,0.250000X-0.550000X-0.550000X0.550000X-0.550000X0.550000X0.550000X-0.550000X0.550000X0*%
%TD*%
%TA.AperFunction,ComponentPad*%
%ADD13C,1.600000*%
%TD*%
%TA.AperFunction,ComponentPad*%
%ADD14C,2.000000*%
%TD*%
%TA.AperFunction,ComponentPad*%
%ADD15R,1.500000X1.500000*%
%TD*%
%TA.AperFunction,ComponentPad*%
%ADD16C,1.500000*%
%TD*%
%TA.AperFunction,ComponentPad*%
%ADD17R,1.600000X1.600000*%
%TD*%
%TA.AperFunction,ComponentPad*%
%ADD18O,1.600000X1.600000*%
%TD*%
%TA.AperFunction,Conductor*%
%ADD19C,0.250000*%
%TD*%
G04 APERTURE END LIST*
D10*
%TO.P,D2,2,A*%
%TO.N,Net-(D1-A)*%
X131040000Y-68400000D03*
D11*
%TO.P,D2,1,K*%
%TO.N,Net-(D1-K)*%
X128500000Y-68400000D03*
%TD*%
D10*
%TO.P,D1,2,A*%
%TO.N,Net-(D1-A)*%
X118640000Y-68500000D03*
D11*
%TO.P,D1,1,K*%
%TO.N,Net-(D1-K)*%
X116100000Y-68500000D03*
%TD*%
D12*
%TO.P,U1,1,GND*%
%TO.N,Net-(D1-K)*%
X126300000Y-112180000D03*
D13*
%TO.P,U1,2,TR*%
%TO.N,Net-(D3-K)*%
X126300000Y-109640000D03*
%TO.P,U1,3,Q*%
%TO.N,unconnected-(U1-Q-Pad3)*%
X126300000Y-107100000D03*
%TO.P,U1,4,R*%
%TO.N,Net-(S1-E)*%
X126300000Y-104560000D03*
%TO.P,U1,5,CV*%
%TO.N,unconnected-(U1-CV-Pad5)*%
X133920000Y-104560000D03*
%TO.P,U1,6,THR*%
%TO.N,Net-(D3-K)*%
X133920000Y-107100000D03*
%TO.P,U1,7,DIS*%
%TO.N,Net-(D3-A)*%
X133920000Y-109640000D03*
%TO.P,U1,8,VCC*%
%TO.N,Net-(S1-E)*%
X133920000Y-112180000D03*
%TD*%
D14*
%TO.P,S1,1,A*%
%TO.N,Net-(S1-A-Pad1)*%
X139500000Y-119200000D03*
%TO.P,S1,2,E*%
%TO.N,Net-(S1-E)*%
X139500000Y-116660000D03*
%TO.P,S1,3,A*%
%TO.N,unconnected-(S1-A-Pad3)*%
X139500000Y-114120000D03*
%TD*%
D13*
%TO.P,R7,1*%
%TO.N,Net-(D3-K)*%
X110800000Y-98350000D03*
%TO.P,R7,2*%
%TO.N,Net-(D3-A)*%
X120960000Y-98350000D03*
%TD*%
%TO.P,R6,1*%
%TO.N,Net-(S1-E)*%
X110800000Y-102400000D03*
%TO.P,R6,2*%
%TO.N,Net-(Q2-C)*%
X120960000Y-102400000D03*
%TD*%
%TO.P,R5,1*%
%TO.N,Net-(S1-E)*%
X110800000Y-106450000D03*
%TO.P,R5,2*%
%TO.N,Net-(Q1-C)*%
X120960000Y-106450000D03*
%TD*%
%TO.P,R4,1*%
%TO.N,Net-(Q1-B)*%
X110800000Y-110500000D03*
%TO.P,R4,2*%
%TO.N,Net-(D1-K)*%
X120960000Y-110500000D03*
%TD*%
%TO.P,R3,1*%
%TO.N,Net-(D3-K)*%
X110800000Y-114550000D03*
%TO.P,R3,2*%
%TO.N,Net-(Q1-B)*%
X120960000Y-114550000D03*
%TD*%
%TO.P,R1,1*%
%TO.N,Net-(S1-E)*%
X110800000Y-94300000D03*
%TO.P,R1,2*%
%TO.N,Net-(D3-A)*%
X120960000Y-94300000D03*
%TD*%
D15*
%TO.P,T2,1,E*%
%TO.N,Net-(D1-A)*%
X113100000Y-122900000D03*
D16*
%TO.P,T2,2,B*%
%TO.N,Net-(Q1-C)*%
X115640000Y-120360000D03*
%TO.P,T2,3,C*%
%TO.N,Net-(Q2-C)*%
X118180000Y-122900000D03*
%TD*%
D15*
%TO.P,T1,1,E*%
%TO.N,Net-(D1-K)*%
X129300000Y-122900000D03*
D16*
%TO.P,T1,2,B*%
%TO.N,Net-(Q1-B)*%
X131840000Y-120360000D03*
%TO.P,T1,3,C*%
%TO.N,Net-(Q1-C)*%
X134380000Y-122900000D03*
%TD*%
D17*
%TO.P,D3,1,K*%
%TO.N,Net-(D3-K)*%
X125900000Y-94200000D03*
D18*
%TO.P,D3,2,A*%
%TO.N,Net-(D3-A)*%
X133520000Y-94200000D03*
%TD*%
D17*
%TO.P,C1,1*%
%TO.N,Net-(D3-K)*%
X138700000Y-104700000D03*
D13*
%TO.P,C1,2*%
%TO.N,Net-(D1-K)*%
X141200000Y-104700000D03*
%TD*%
D19*
%TO.N,Net-(S1-E)*%
X110800000Y-102400000D02*
X110800000Y-106450000D01*
X116240000Y-104560000D02*
X126300000Y-104560000D01*
X114350000Y-106450000D02*
X116240000Y-104560000D01*
X110800000Y-106450000D02*
X114350000Y-106450000D01*
%TO.N,Net-(Q1-C)*%
X115640000Y-111770000D02*
X115640000Y-120360000D01*
X120960000Y-106450000D02*
X115640000Y-111770000D01*
%TO.N,Net-(D3-A)*%
X123410000Y-100800000D02*
X131400000Y-100800000D01*
X120960000Y-98350000D02*
X123410000Y-100800000D01*
X133520000Y-98680000D02*
X131400000Y-100800000D01*
X132340000Y-109640000D02*
X133920000Y-109640000D01*
X130900000Y-108200000D02*
X132340000Y-109640000D01*
X131400000Y-100800000D02*
X130900000Y-101300000D01*
X133520000Y-94200000D02*
X133520000Y-98680000D01*
X130900000Y-101300000D02*
X130900000Y-108200000D01*
%TO.N,Net-(S1-E)*%
X136840000Y-116660000D02*
X139500000Y-116660000D01*
X133920000Y-113820000D02*
X136800000Y-116700000D01*
X136800000Y-116700000D02*
X136840000Y-116660000D01*
X133920000Y-112180000D02*
X133920000Y-113820000D01*
X130200000Y-111700000D02*
X130680000Y-112180000D01*
X130100000Y-111700000D02*
X130200000Y-111700000D01*
X127760000Y-104560000D02*
X130100000Y-106900000D01*
X130680000Y-112180000D02*
X133920000Y-112180000D01*
X126300000Y-104560000D02*
X127760000Y-104560000D01*
X130100000Y-106900000D02*
X130100000Y-111700000D01*
%TO.N,Net-(D1-K)*%
X126300000Y-112180000D02*
X126300000Y-119900000D01*
X126300000Y-119900000D02*
X129300000Y-122900000D01*
X141200000Y-97200000D02*
X132000000Y-88000000D01*
X132000000Y-73800000D02*
X132000000Y-88000000D01*
X128500000Y-70300000D02*
X132000000Y-73800000D01*
X128500000Y-68400000D02*
X128500000Y-70300000D01*
X141200000Y-97200000D02*
X141200000Y-104700000D01*
%TD*%
M02*
