%TF.GenerationSoftware,KiCad,Pcbnew,9.0.6*%
%TF.CreationDate,2025-12-05T08:24:13+01:00*%
%TF.ProjectId,GrumpyDuck,4772756d-7079-4447-9563-6b2e6b696361,rev?*%
%TF.SameCoordinates,Original*%
%TF.FileFunction,Profile,NP*%
%FSLAX46Y46*%
G04 Gerber Fmt 4.6, Leading zero omitted, Abs format (unit mm)*
G04 Created by KiCad (PCBNEW 9.0.6) date 2025-12-05 08:24:13*
%MOMM*%
%LPD*%
G01*
G04 APERTURE LIST*
%TA.AperFunction,Profile*%
%ADD10C,0.100000*%
%TD*%
G04 APERTURE END LIST*
D10*
X105498800Y-93949900D02*
X106006200Y-93407100D01*
X105028100Y-94482500D02*
X105498800Y-93949900D01*
X103073700Y-141236000D02*
X103046200Y-141194000D01*
X103046200Y-141194000D02*
X102966800Y-141147000D01*
X102966800Y-141147000D02*
X102671000Y-141045000D01*
X102671000Y-141045000D02*
X102342700Y-140946000D01*
X102342700Y-140946000D02*
X102119100Y-140860000D01*
X102119100Y-140860000D02*
X101923900Y-140783000D01*
X101923900Y-140783000D02*
X101349900Y-140579000D01*
X101349900Y-140579000D02*
X100657300Y-140304000D01*
X100657300Y-140304000D02*
X100325700Y-140179000D01*
X100325700Y-140179000D02*
X99838600Y-140028000D01*
X99838600Y-140028000D02*
X99296700Y-139880000D01*
X99296700Y-139880000D02*
X98800800Y-139764000D01*
X98800800Y-139764000D02*
X98488400Y-139709000D01*
X98488400Y-139709000D02*
X98178600Y-139675000D01*
X98178600Y-139675000D02*
X97855800Y-139665000D01*
X97855800Y-139665000D02*
X97504200Y-139677000D01*
X97504200Y-139677000D02*
X97108200Y-139715000D01*
X97108200Y-139715000D02*
X96652000Y-139778000D01*
X96652000Y-139778000D02*
X95496400Y-139986000D01*
X95496400Y-139986000D02*
X94688900Y-140135000D01*
X94688900Y-140135000D02*
X93963100Y-140251000D01*
X93963100Y-140251000D02*
X93312500Y-140333000D01*
X93312500Y-140333000D02*
X92730800Y-140382000D01*
X92730800Y-140382000D02*
X92211600Y-140398000D01*
X92211600Y-140398000D02*
X91748500Y-140382000D01*
X91748500Y-140382000D02*
X91335300Y-140334000D01*
X91335300Y-140334000D02*
X90965400Y-140255000D01*
X90965400Y-140255000D02*
X90575300Y-140131000D01*
X90575300Y-140131000D02*
X90240100Y-139983000D01*
X90240100Y-139983000D02*
X89927100Y-139793000D01*
X89927100Y-139793000D02*
X89603900Y-139543000D01*
X89603900Y-139543000D02*
X89332900Y-139288000D01*
X89332900Y-139288000D02*
X89113400Y-139013000D01*
X89113400Y-139013000D02*
X88931600Y-138699000D01*
X88931600Y-138699000D02*
X88773700Y-138326000D01*
X88773700Y-138326000D02*
X88704300Y-138104000D01*
X88704300Y-138104000D02*
X88653500Y-137869000D01*
X88653500Y-137869000D02*
X88621600Y-137626000D01*
X88621600Y-137626000D02*
X88608600Y-137381000D01*
X88608600Y-137381000D02*
X88614500Y-137137000D01*
X88614500Y-137137000D02*
X88639300Y-136899000D01*
X88639300Y-136899000D02*
X88683300Y-136673000D01*
X88683300Y-136673000D02*
X88746400Y-136462000D01*
X88746400Y-136462000D02*
X88815600Y-136258000D01*
X88815600Y-136258000D02*
X88857700Y-136095000D01*
X88857700Y-136095000D02*
X88869800Y-135967000D01*
X88869800Y-135967000D02*
X88849200Y-135866000D01*
X88849200Y-135866000D02*
X88793200Y-135788000D01*
X88793200Y-135788000D02*
X88698900Y-135725000D01*
X88698900Y-135725000D02*
X88563700Y-135671000D01*
X88563700Y-135671000D02*
X88384800Y-135619000D01*
X88384800Y-135619000D02*
X87671600Y-135422000D01*
X87671600Y-135422000D02*
X87067200Y-135231000D01*
X87067200Y-135231000D02*
X86560700Y-135042000D01*
X86560700Y-135042000D02*
X86141300Y-134852000D01*
X86141300Y-134852000D02*
X85837200Y-134663000D01*
X85837200Y-134663000D02*
X85544600Y-134422000D01*
X85544600Y-134422000D02*
X85301700Y-134164000D01*
X85301700Y-134164000D02*
X85210800Y-134040000D01*
X85210800Y-134040000D02*
X85146800Y-133925000D01*
X85146800Y-133925000D02*
X85045700Y-133754000D01*
X85045700Y-133754000D02*
X84996600Y-133701000D01*
X84996600Y-133701000D02*
X84956700Y-133682000D01*
X84956700Y-133682000D02*
X84935100Y-133674000D01*
X84935100Y-133674000D02*
X84917400Y-133647000D01*
X84917400Y-133647000D02*
X84892800Y-133523000D01*
X84892800Y-133523000D02*
X84876300Y-132907000D01*
X84876300Y-132907000D02*
X84892700Y-132295000D01*
X84892700Y-132295000D02*
X84916600Y-132168000D01*
X84916600Y-132168000D02*
X84933400Y-132140000D01*
X84933400Y-132140000D02*
X84953800Y-132131000D01*
X84953800Y-132131000D02*
X84990000Y-132113000D01*
X84990000Y-132113000D02*
X85031300Y-132065000D01*
X85031300Y-132065000D02*
X85108700Y-131907000D01*
X85108700Y-131907000D02*
X85210800Y-131641000D01*
X85210800Y-131641000D02*
X85329900Y-131385000D01*
X85329900Y-131385000D02*
X85465900Y-131139000D01*
X85465900Y-131139000D02*
X85619100Y-130903000D01*
X85619100Y-130903000D02*
X85789500Y-130677000D01*
X85789500Y-130677000D02*
X85977400Y-130460000D01*
X85977400Y-130460000D02*
X86182800Y-130253500D01*
X86182800Y-130253500D02*
X86405900Y-130055900D01*
X86405900Y-130055900D02*
X86646900Y-129867700D01*
X86646900Y-129867700D02*
X86905800Y-129688700D01*
X86905800Y-129688700D02*
X87182800Y-129518800D01*
X87182800Y-129518800D02*
X87478000Y-129357900D01*
X87478000Y-129357900D02*
X87791600Y-129205900D01*
X87791600Y-129205900D02*
X88123700Y-129062600D01*
X88123700Y-129062600D02*
X88844000Y-128802000D01*
X88844000Y-128802000D02*
X89550400Y-128578900D01*
X89550400Y-128578900D02*
X90094300Y-128424700D01*
X90094300Y-128424700D02*
X90684300Y-128285600D01*
X90684300Y-128285600D02*
X91528800Y-128107400D01*
X91528800Y-128107400D02*
X92543100Y-127896600D01*
X92543100Y-127896600D02*
X93550200Y-127696000D01*
X93550200Y-127696000D02*
X94622200Y-127498000D01*
X94622200Y-127498000D02*
X95621400Y-127327200D01*
X95621400Y-127327200D02*
X96409900Y-127208000D01*
X96409900Y-127208000D02*
X96930100Y-127130100D01*
X96930100Y-127130100D02*
X97275000Y-127063800D01*
X97275000Y-127063800D02*
X97632100Y-126996600D01*
X97632100Y-126996600D02*
X98181400Y-126916800D01*
X98181400Y-126916800D02*
X98747100Y-126835900D01*
X98747100Y-126835900D02*
X99143400Y-126766200D01*
X99143400Y-126766200D02*
X99502500Y-126704400D01*
X99502500Y-126704400D02*
X99978700Y-126642700D01*
X99978700Y-126642700D02*
X100403300Y-126590700D01*
X100403300Y-126590700D02*
X100742400Y-126535200D01*
X100742400Y-126535200D02*
X101006100Y-126470900D01*
X101006100Y-126470900D02*
X101204400Y-126392600D01*
X101204400Y-126392600D02*
X101347600Y-126295100D01*
X101347600Y-126295100D02*
X101445800Y-126173100D01*
X101445800Y-126173100D02*
X101509200Y-126021400D01*
X101509200Y-126021400D02*
X101547900Y-125834800D01*
X101547900Y-125834800D02*
X101636100Y-125336900D01*
X101636100Y-125336900D02*
X101764400Y-124764900D01*
X101764400Y-124764900D02*
X101923100Y-124150700D01*
X101923100Y-124150700D02*
X102102600Y-123525900D01*
X102102600Y-123525900D02*
X102293300Y-122922300D01*
X102293300Y-122922300D02*
X102485800Y-122371600D01*
X102485800Y-122371600D02*
X102670400Y-121905700D01*
X102670400Y-121905700D02*
X102837500Y-121556300D01*
X102837500Y-121556300D02*
X102878000Y-121461900D01*
X102878000Y-121461900D02*
X102894800Y-121380600D01*
X102894800Y-121380600D02*
X102847600Y-121282800D01*
X102847600Y-121282800D02*
X102738300Y-121146800D01*
X102738300Y-121146800D02*
X102615200Y-121025900D01*
X102615200Y-121025900D02*
X102526800Y-120973800D01*
X102526800Y-120973800D02*
X102215700Y-120800700D01*
X102215700Y-120800700D02*
X101577300Y-120399500D01*
X101577300Y-120399500D02*
X100886600Y-119946900D01*
X100886600Y-119946900D02*
X100418800Y-119619600D01*
X100418800Y-119619600D02*
X100180000Y-119436500D01*
X100180000Y-119436500D02*
X99681700Y-119060600D01*
X99681700Y-119060600D02*
X99240900Y-118695900D01*
X99240900Y-118695900D02*
X98858200Y-118356200D01*
X98858200Y-118356200D02*
X98500500Y-118012200D01*
X98500500Y-118012200D02*
X98166700Y-117662800D01*
X98166700Y-117662800D02*
X97855700Y-117306700D01*
X97855700Y-117306700D02*
X97566400Y-116942600D01*
X97566400Y-116942600D02*
X97297900Y-116569400D01*
X97297900Y-116569400D02*
X97049100Y-116185700D01*
X97049100Y-116185700D02*
X96818900Y-115790300D01*
X96818900Y-115790300D02*
X96510800Y-115207900D01*
X96510800Y-115207900D02*
X96392900Y-114932200D01*
X96392900Y-114932200D02*
X96272400Y-114651400D01*
X96272400Y-114651400D02*
X96165400Y-114356400D01*
X96165400Y-114356400D02*
X96071800Y-114049500D01*
X96071800Y-114049500D02*
X95992000Y-113733300D01*
X95992000Y-113733300D02*
X95873800Y-113082700D01*
X95873800Y-113082700D02*
X95811700Y-112424000D01*
X95811700Y-112424000D02*
X95806800Y-111776900D01*
X95806800Y-111776900D02*
X95826200Y-111463900D01*
X95826200Y-111463900D02*
X95860200Y-111161100D01*
X95860200Y-111161100D02*
X95908900Y-110871100D01*
X95908900Y-110871100D02*
X95972700Y-110596200D01*
X95972700Y-110596200D02*
X96051400Y-110338900D01*
X96051400Y-110338900D02*
X96145400Y-110101700D01*
X96145400Y-110101700D02*
X96235200Y-109925900D01*
X96235200Y-109925900D02*
X96346800Y-109747300D01*
X96346800Y-109747300D02*
X96615800Y-109403300D01*
X96615800Y-109403300D02*
X96763500Y-109248800D01*
X96763500Y-109248800D02*
X96913700Y-109112900D01*
X96913700Y-109112900D02*
X97061400Y-109001300D01*
X97061400Y-109001300D02*
X97202000Y-108919200D01*
X97202000Y-108919200D02*
X97362900Y-108851400D01*
X97362900Y-108851400D02*
X97524300Y-108815800D01*
X97524300Y-108815800D02*
X97736600Y-108806200D01*
X97736600Y-108806200D02*
X98050200Y-108816700D01*
X98050200Y-108816700D02*
X98363100Y-108837900D01*
X98363100Y-108837900D02*
X98594500Y-108873500D01*
X98594500Y-108873500D02*
X98795400Y-108934700D01*
X98795400Y-108934700D02*
X99016700Y-109032900D01*
X99016700Y-109032900D02*
X99521600Y-109292700D01*
X99521600Y-109292700D02*
X99923100Y-109539300D01*
X99923100Y-109539300D02*
X100076900Y-109609500D01*
X100076900Y-109609500D02*
X100221400Y-109627300D01*
X100221400Y-109627300D02*
X100291000Y-109608100D01*
X100291000Y-109608100D02*
X100335900Y-109567500D01*
X100335900Y-109567500D02*
X100362700Y-109495200D01*
X100362700Y-109495200D02*
X100377800Y-109381000D01*
X100377800Y-109381000D02*
X100363500Y-109138200D01*
X100363500Y-109138200D02*
X100303000Y-108872700D01*
X100303000Y-108872700D02*
X100251500Y-108684800D01*
X100251500Y-108684800D02*
X100207200Y-108456100D01*
X100207200Y-108456100D02*
X100140200Y-107895300D01*
X100140200Y-107895300D02*
X100101700Y-107227900D01*
X100101700Y-107227900D02*
X100091600Y-106491900D01*
X100091600Y-106491900D02*
X100109700Y-105725000D01*
X100109700Y-105725000D02*
X100155700Y-104965100D01*
X100155700Y-104965100D02*
X100229500Y-104249900D01*
X100229500Y-104249900D02*
X100330800Y-103617200D01*
X100330800Y-103617200D02*
X100507400Y-102839900D01*
X100507400Y-102839900D02*
X100726100Y-102032400D01*
X100726100Y-102032400D02*
X100947500Y-101329800D01*
X100947500Y-101329800D02*
X101046800Y-101060000D01*
X101046800Y-101060000D02*
X101132100Y-100867100D01*
X101132100Y-100867100D02*
X101285400Y-100479300D01*
X101285400Y-100479300D02*
X101369900Y-100249400D01*
X101369900Y-100249400D02*
X101465800Y-100031800D01*
X101465800Y-100031800D02*
X101910000Y-99136800D01*
X101910000Y-99136800D02*
X102386900Y-98220600D01*
X102386900Y-98220600D02*
X102799100Y-97525900D01*
X102799100Y-97525900D02*
X103268800Y-96816000D01*
X103268800Y-96816000D02*
X103714400Y-96171900D01*
X103714400Y-96171900D02*
X104148100Y-95578400D01*
X104148100Y-95578400D02*
X104581900Y-95020400D01*
X104581900Y-95020400D02*
X105028100Y-94482500D01*
X106006200Y-93407100D02*
X106562500Y-92839200D01*
X106562500Y-92839200D02*
X107342900Y-92094100D01*
X107342900Y-92094100D02*
X108221500Y-91313100D01*
X108221500Y-91313100D02*
X109084900Y-90593900D01*
X109084900Y-90593900D02*
X109819500Y-90034200D01*
X109819500Y-90034200D02*
X110185400Y-89767000D01*
X110185400Y-89767000D02*
X110402800Y-89585300D01*
X110402800Y-89585300D02*
X110461700Y-89520700D01*
X110461700Y-89520700D02*
X110490500Y-89470500D01*
X110490500Y-89470500D02*
X110491700Y-89432400D01*
X110491700Y-89432400D02*
X110467700Y-89404100D01*
X110467700Y-89404100D02*
X110348700Y-89383000D01*
X110348700Y-89383000D02*
X110083100Y-89372500D01*
X110083100Y-89372500D02*
X109189400Y-89384700D01*
X109189400Y-89384700D02*
X108184900Y-89398900D01*
X108184900Y-89398900D02*
X107269700Y-89371500D01*
X107269700Y-89371500D02*
X106422200Y-89298400D01*
X106422200Y-89298400D02*
X105620800Y-89175700D01*
X105620800Y-89175700D02*
X104844200Y-88999200D01*
X104844200Y-88999200D02*
X104070700Y-88764700D01*
X104070700Y-88764700D02*
X103278900Y-88468400D01*
X103278900Y-88468400D02*
X102447400Y-88106000D01*
X102447400Y-88106000D02*
X101623000Y-87693900D01*
X101623000Y-87693900D02*
X100800100Y-87218700D01*
X100800100Y-87218700D02*
X99963500Y-86671000D01*
X99963500Y-86671000D02*
X99098100Y-86041400D01*
X99098100Y-86041400D02*
X98550200Y-85564300D01*
X98550200Y-85564300D02*
X97787500Y-84839500D01*
X97787500Y-84839500D02*
X97062800Y-84113700D01*
X97062800Y-84113700D02*
X96793700Y-83827500D01*
X96793700Y-83827500D02*
X96629000Y-83633500D01*
X96629000Y-83633500D02*
X96061800Y-82872100D01*
X96061800Y-82872100D02*
X95803600Y-82510600D01*
X95803600Y-82510600D02*
X95560600Y-82138300D01*
X95560600Y-82138300D02*
X95332900Y-81755400D01*
X95332900Y-81755400D02*
X95120400Y-81362000D01*
X95120400Y-81362000D02*
X94923200Y-80958000D01*
X94923200Y-80958000D02*
X94741400Y-80543500D01*
X94741400Y-80543500D02*
X94574900Y-80118600D01*
X94574900Y-80118600D02*
X94423700Y-79683300D01*
X94423700Y-79683300D02*
X94335400Y-79371600D01*
X94335400Y-79371600D02*
X94253400Y-79005600D01*
X94253400Y-79005600D02*
X94118100Y-78184400D01*
X94118100Y-78184400D02*
X94037300Y-77367600D01*
X94037300Y-77367600D02*
X94023400Y-77007100D01*
X94023400Y-77007100D02*
X94030500Y-76703200D01*
X94030500Y-76703200D02*
X94086800Y-76119600D01*
X94086800Y-76119600D02*
X94173900Y-75434700D01*
X94173900Y-75434700D02*
X94263600Y-74849000D01*
X94263600Y-74849000D02*
X94328300Y-74563100D01*
X94328300Y-74563100D02*
X94506800Y-74038000D01*
X94506800Y-74038000D02*
X94649000Y-73591200D01*
X94649000Y-73591200D02*
X94780800Y-73230500D01*
X94780800Y-73230500D02*
X94932400Y-72880400D01*
X94932400Y-72880400D02*
X95134000Y-72465100D01*
X95134000Y-72465100D02*
X95360900Y-72046000D01*
X95360900Y-72046000D02*
X95634200Y-71599300D01*
X95634200Y-71599300D02*
X95944300Y-71137400D01*
X95944300Y-71137400D02*
X96281900Y-70672900D01*
X96281900Y-70672900D02*
X96637700Y-70218100D01*
X96637700Y-70218100D02*
X97002200Y-69785500D01*
X97002200Y-69785500D02*
X97366100Y-69387400D01*
X97366100Y-69387400D02*
X97720100Y-69036400D01*
X97720100Y-69036400D02*
X98166700Y-68618800D01*
X98166700Y-68618800D02*
X98205500Y-67873000D01*
X98205500Y-67873000D02*
X98257300Y-67180400D01*
X98257300Y-67180400D02*
X98341100Y-66427900D01*
X98341100Y-66427900D02*
X98451700Y-65644500D01*
X98451700Y-65644500D02*
X98583700Y-64859900D01*
X98583700Y-64859900D02*
X98731800Y-64103200D01*
X98731800Y-64103200D02*
X98890700Y-63403800D01*
X98890700Y-63403800D02*
X99055000Y-62791100D01*
X99055000Y-62791100D02*
X99219300Y-62294400D01*
X99219300Y-62294400D02*
X99284600Y-62099600D01*
X99284600Y-62099600D02*
X99314400Y-61966300D01*
X99314400Y-61966300D02*
X99351700Y-61833000D01*
X99351700Y-61833000D02*
X99434300Y-61638100D01*
X99434300Y-61638100D02*
X99551600Y-61353400D01*
X99551600Y-61353400D02*
X99762700Y-60773000D01*
X99762700Y-60773000D02*
X100028000Y-60127300D01*
X100028000Y-60127300D02*
X100243900Y-59669200D01*
X100243900Y-59669200D02*
X100598100Y-58925600D01*
X100598100Y-58925600D02*
X100983000Y-58168900D01*
X100983000Y-58168900D02*
X101354500Y-57483700D01*
X101354500Y-57483700D02*
X101668000Y-56954500D01*
X101668000Y-56954500D02*
X102300000Y-56000000D01*
X102300000Y-56000000D02*
X102940500Y-55107700D01*
X102940500Y-55107700D02*
X103599000Y-54267000D01*
X103599000Y-54267000D02*
X104284800Y-53467400D01*
X104284800Y-53467400D02*
X105007400Y-52698700D01*
X105007400Y-52698700D02*
X105776000Y-51950300D01*
X105776000Y-51950300D02*
X106600000Y-51211700D01*
X106600000Y-51211700D02*
X107488900Y-50472600D01*
X107488900Y-50472600D02*
X108104600Y-50000200D01*
X108104600Y-50000200D02*
X109099900Y-49302200D01*
X109099900Y-49302200D02*
X109598800Y-48976400D01*
X109598800Y-48976400D02*
X110257600Y-48565700D01*
X110257600Y-48565700D02*
X110841900Y-48213800D01*
X110841900Y-48213800D02*
X111117500Y-48064600D01*
X111117500Y-48064600D02*
X111243100Y-47981000D01*
X111243100Y-47981000D02*
X111571600Y-47783200D01*
X111571600Y-47783200D02*
X112189500Y-47459600D01*
X112189500Y-47459600D02*
X112873100Y-47123400D01*
X112873100Y-47123400D02*
X113399000Y-46888000D01*
X113399000Y-46888000D02*
X114280100Y-46574200D01*
X114280100Y-46574200D02*
X114625200Y-46446900D01*
X114625200Y-46446900D02*
X114841400Y-46335200D01*
X114841400Y-46335200D02*
X114907600Y-46271400D01*
X114907600Y-46271400D02*
X114917300Y-46240000D01*
X114917300Y-46240000D02*
X114908400Y-46202100D01*
X114908400Y-46202100D02*
X114825300Y-46085600D01*
X114825300Y-46085600D02*
X114639700Y-45879800D01*
X114639700Y-45879800D02*
X114296500Y-45482600D01*
X114296500Y-45482600D02*
X114002900Y-45090700D01*
X114002900Y-45090700D02*
X113757700Y-44701400D01*
X113757700Y-44701400D02*
X113559800Y-44312100D01*
X113559800Y-44312100D02*
X113407900Y-43920100D01*
X113407900Y-43920100D02*
X113300900Y-43522800D01*
X113300900Y-43522800D02*
X113237500Y-43117600D01*
X113237500Y-43117600D02*
X113216700Y-42701800D01*
X113216700Y-42701800D02*
X113224900Y-42452600D01*
X113224900Y-42452600D02*
X113249200Y-42210600D01*
X113249200Y-42210600D02*
X113289400Y-41976100D01*
X113289400Y-41976100D02*
X113345000Y-41749800D01*
X113345000Y-41749800D02*
X113415800Y-41532200D01*
X113415800Y-41532200D02*
X113501400Y-41323700D01*
X113501400Y-41323700D02*
X113601400Y-41125000D01*
X113601400Y-41125000D02*
X113715500Y-40936400D01*
X113715500Y-40936400D02*
X113843400Y-40758600D01*
X113843400Y-40758600D02*
X113984800Y-40592000D01*
X113984800Y-40592000D02*
X114139300Y-40437100D01*
X114139300Y-40437100D02*
X114306500Y-40294510D01*
X114306500Y-40294510D02*
X114486100Y-40164690D01*
X114486100Y-40164690D02*
X114677800Y-40048160D01*
X114677800Y-40048160D02*
X114881200Y-39945430D01*
X114881200Y-39945430D02*
X115096100Y-39857030D01*
X115096100Y-39857030D02*
X115344500Y-39744500D01*
X115344500Y-39744500D02*
X115416700Y-39695060D01*
X115416700Y-39695060D02*
X115439100Y-39658840D01*
X115439100Y-39658840D02*
X115453600Y-39642390D01*
X115453600Y-39642390D02*
X115506500Y-39628480D01*
X115506500Y-39628480D02*
X115735500Y-39607830D01*
X115735500Y-39607830D02*
X116745200Y-39592330D01*
X116745200Y-39592330D02*
X117824800Y-39608970D01*
X117824800Y-39608970D02*
X118045100Y-39635390D01*
X118045100Y-39635390D02*
X118101600Y-39654760D01*
X118101600Y-39654760D02*
X118132400Y-39678860D01*
X118132400Y-39678860D02*
X118201600Y-39720570D01*
X118201600Y-39720570D02*
X118341300Y-39768280D01*
X118341300Y-39768280D02*
X118764000Y-39862040D01*
X118764000Y-39862040D02*
X119268500Y-39962240D01*
X119268500Y-39962240D02*
X119774400Y-40089520D01*
X119774400Y-40089520D02*
X120273900Y-40240920D01*
X120273900Y-40240920D02*
X120759400Y-40413500D01*
X120759400Y-40413500D02*
X121222900Y-40604200D01*
X121222900Y-40604200D02*
X121656900Y-40810100D01*
X121656900Y-40810100D02*
X122053500Y-41028300D01*
X122053500Y-41028300D02*
X122404900Y-41255700D01*
X122404900Y-41255700D02*
X122822500Y-41546000D01*
X122822500Y-41546000D02*
X123116300Y-41802800D01*
X123116300Y-41802800D02*
X123576400Y-42251500D01*
X123576400Y-42251500D02*
X124025800Y-42714400D01*
X124025800Y-42714400D02*
X124287400Y-43014200D01*
X124287400Y-43014200D02*
X124454800Y-43250000D01*
X124454800Y-43250000D02*
X124574900Y-43388600D01*
X124574900Y-43388600D02*
X124673400Y-43454000D01*
X124673400Y-43454000D02*
X124776200Y-43470500D01*
X124776200Y-43470500D02*
X124913300Y-43445500D01*
X124913300Y-43445500D02*
X125025400Y-43385500D01*
X125025400Y-43385500D02*
X125104300Y-43338500D01*
X125104300Y-43338500D02*
X125236500Y-43285500D01*
X125236500Y-43285500D02*
X125601600Y-43176500D01*
X125601600Y-43176500D02*
X126002500Y-43088800D01*
X126002500Y-43088800D02*
X126321100Y-43052800D01*
X126321100Y-43052800D02*
X126510700Y-43063500D01*
X126510700Y-43063500D02*
X126746800Y-43093000D01*
X126746800Y-43093000D02*
X127296400Y-43195600D01*
X127296400Y-43195600D02*
X127845600Y-43333200D01*
X127845600Y-43333200D02*
X128270400Y-43478900D01*
X128270400Y-43478900D02*
X128675000Y-43681600D01*
X128675000Y-43681600D02*
X129065300Y-43929500D01*
X129065300Y-43929500D02*
X129445700Y-44225900D01*
X129445700Y-44225900D02*
X129820800Y-44574000D01*
X129820800Y-44574000D02*
X130027600Y-44794000D01*
X130027600Y-44794000D02*
X130218500Y-45022400D01*
X130218500Y-45022400D02*
X130391400Y-45255700D01*
X130391400Y-45255700D02*
X130544100Y-45490300D01*
X130544100Y-45490300D02*
X130674600Y-45722700D01*
X130674600Y-45722700D02*
X130780600Y-45949400D01*
X130780600Y-45949400D02*
X130860000Y-46166900D01*
X130860000Y-46166900D02*
X130910700Y-46371500D01*
X130910700Y-46371500D02*
X130956500Y-46573900D01*
X130956500Y-46573900D02*
X131014600Y-46709000D01*
X131014600Y-46709000D02*
X131097600Y-46796600D01*
X131097600Y-46796600D02*
X131217900Y-46856500D01*
X131217900Y-46856500D02*
X132363500Y-47295100D01*
X132363500Y-47295100D02*
X132808800Y-47488800D01*
X132808800Y-47488800D02*
X133321800Y-47728600D01*
X133321800Y-47728600D02*
X134438200Y-48329900D01*
X134438200Y-48329900D02*
X135530900Y-48962500D01*
X135530900Y-48962500D02*
X135882100Y-49176900D01*
X135882100Y-49176900D02*
X136274800Y-49431400D01*
X136274800Y-49431400D02*
X136967700Y-49909400D01*
X136967700Y-49909400D02*
X137727600Y-50456800D01*
X137727600Y-50456800D02*
X138465500Y-51036300D01*
X138465500Y-51036300D02*
X139175200Y-51642300D01*
X139175200Y-51642300D02*
X139850900Y-52268800D01*
X139850900Y-52268800D02*
X140486600Y-52910200D01*
X140486600Y-52910200D02*
X141076300Y-53560600D01*
X141076300Y-53560600D02*
X141614100Y-54214300D01*
X141614100Y-54214300D02*
X142094000Y-54865500D01*
X142094000Y-54865500D02*
X142392300Y-55280200D01*
X142392300Y-55280200D02*
X142661400Y-55658800D01*
X142661400Y-55658800D02*
X143036600Y-56238500D01*
X143036600Y-56238500D02*
X143568100Y-57094600D01*
X143568100Y-57094600D02*
X144056500Y-57947000D01*
X144056500Y-57947000D02*
X144579200Y-58937100D01*
X144579200Y-58937100D02*
X145213700Y-60206200D01*
X145213700Y-60206200D02*
X145378300Y-60594000D01*
X145378300Y-60594000D02*
X145641400Y-61250300D01*
X145641400Y-61250300D02*
X145940200Y-62007800D01*
X145940200Y-62007800D02*
X146193500Y-62773200D01*
X146193500Y-62773200D02*
X146407400Y-63567800D01*
X146407400Y-63567800D02*
X146588300Y-64412500D01*
X146588300Y-64412500D02*
X146722800Y-65223400D01*
X146722800Y-65223400D02*
X146851500Y-66176200D01*
X146851500Y-66176200D02*
X146957600Y-67134700D01*
X146957600Y-67134700D02*
X147024400Y-67962500D01*
X147024400Y-67962500D02*
X147070800Y-68463100D01*
X147070800Y-68463100D02*
X147100000Y-68644200D01*
X147100000Y-68644200D02*
X147128800Y-68745100D01*
X147128800Y-68745100D02*
X147263300Y-68908900D01*
X147263300Y-68908900D02*
X147493500Y-69125700D01*
X147493500Y-69125700D02*
X148051300Y-69628900D01*
X148051300Y-69628900D02*
X148556600Y-70141700D01*
X148556600Y-70141700D02*
X149001000Y-70654600D01*
X149001000Y-70654600D02*
X149375500Y-71158300D01*
X149375500Y-71158300D02*
X149591000Y-71513600D01*
X149591000Y-71513600D02*
X149846200Y-71980000D01*
X149846200Y-71980000D02*
X150059400Y-72402300D01*
X150059400Y-72402300D02*
X150148600Y-72625300D01*
X150148600Y-72625300D02*
X150263400Y-72910700D01*
X150263400Y-72910700D02*
X150387700Y-73199700D01*
X150387700Y-73199700D02*
X150511000Y-73537100D01*
X150511000Y-73537100D02*
X150745400Y-74321400D01*
X150745400Y-74321400D02*
X150947700Y-75192300D01*
X150947700Y-75192300D02*
X151099100Y-76078500D01*
X151099100Y-76078500D02*
X151182300Y-76848100D01*
X151182300Y-76848100D02*
X151212700Y-77574600D01*
X151212700Y-77574600D02*
X151189000Y-78265400D01*
X151189000Y-78265400D02*
X151109900Y-78928100D01*
X151109900Y-78928100D02*
X150974400Y-79570100D01*
X150974400Y-79570100D02*
X150781000Y-80198800D01*
X150781000Y-80198800D02*
X150528700Y-80821800D01*
X150528700Y-80821800D02*
X150216100Y-81446500D01*
X150216100Y-81446500D02*
X149936300Y-81908200D01*
X149936300Y-81908200D02*
X149576200Y-82423700D01*
X149576200Y-82423700D02*
X149152300Y-82973600D01*
X149152300Y-82973600D02*
X148681300Y-83538700D01*
X148681300Y-83538700D02*
X148179800Y-84099800D01*
X148179800Y-84099800D02*
X147664300Y-84637700D01*
X147664300Y-84637700D02*
X147151600Y-85133100D01*
X147151600Y-85133100D02*
X146658200Y-85566700D01*
X146658200Y-85566700D02*
X146088500Y-86018900D01*
X146088500Y-86018900D02*
X145498300Y-86453400D01*
X145498300Y-86453400D02*
X144951800Y-86824700D01*
X144951800Y-86824700D02*
X144513300Y-87087100D01*
X144513300Y-87087100D02*
X144033000Y-87351000D01*
X144033000Y-87351000D02*
X143629700Y-87567700D01*
X143629700Y-87567700D02*
X143202400Y-87779800D01*
X143202400Y-87779800D02*
X142310300Y-88175800D01*
X142310300Y-88175800D02*
X141426300Y-88510300D01*
X141426300Y-88510300D02*
X141009000Y-88645500D01*
X141009000Y-88645500D02*
X140619900Y-88754700D01*
X140619900Y-88754700D02*
X140131500Y-88900500D01*
X140131500Y-88900500D02*
X139909500Y-88960300D01*
X139909500Y-88960300D02*
X139457700Y-89053600D01*
X139457700Y-89053600D02*
X138564700Y-89228600D01*
X138564700Y-89228600D02*
X138033200Y-89294800D01*
X138033200Y-89294800D02*
X137139500Y-89375000D01*
X137139500Y-89375000D02*
X136211100Y-89442700D01*
X136211100Y-89442700D02*
X135575700Y-89471200D01*
X135575700Y-89471200D02*
X135386500Y-89474700D01*
X135386500Y-89474700D02*
X135283600Y-89492300D01*
X135283600Y-89492300D02*
X135241000Y-89534900D01*
X135241000Y-89534900D02*
X135232600Y-89613100D01*
X135232600Y-89613100D02*
X135257100Y-89699300D01*
X135257100Y-89699300D02*
X135336700Y-89808000D01*
X135336700Y-89808000D02*
X135481200Y-89949700D01*
X135481200Y-89949700D02*
X135700100Y-90135100D01*
X135700100Y-90135100D02*
X136268400Y-90611100D01*
X136268400Y-90611100D02*
X136902100Y-91164900D01*
X136902100Y-91164900D02*
X138245600Y-92393700D01*
X138245600Y-92393700D02*
X139490200Y-93595500D01*
X139490200Y-93595500D02*
X140000200Y-94115700D01*
X140000200Y-94115700D02*
X140395300Y-94544400D01*
X140395300Y-94544400D02*
X140985800Y-95216900D01*
X140985800Y-95216900D02*
X141433300Y-95761000D01*
X141433300Y-95761000D02*
X141982400Y-96580100D01*
X141982400Y-96580100D02*
X142504000Y-97402500D01*
X142504000Y-97402500D02*
X142747300Y-97827500D01*
X142747300Y-97827500D02*
X142988800Y-98280900D01*
X142988800Y-98280900D02*
X143496200Y-99330300D01*
X143496200Y-99330300D02*
X144085300Y-100665700D01*
X144085300Y-100665700D02*
X144195900Y-100943200D01*
X144195900Y-100943200D02*
X144241900Y-101097100D01*
X144241900Y-101097100D02*
X144284200Y-101253600D01*
X144284200Y-101253600D02*
X144385800Y-101537100D01*
X144385800Y-101537100D02*
X144625900Y-102234600D01*
X144625900Y-102234600D02*
X144838100Y-102997600D01*
X144838100Y-102997600D02*
X145018800Y-103802500D01*
X145018800Y-103802500D02*
X145164400Y-104625700D01*
X145164400Y-104625700D02*
X145271300Y-105443700D01*
X145271300Y-105443700D02*
X145335700Y-106232900D01*
X145335700Y-106232900D02*
X145354200Y-106969700D01*
X145354200Y-106969700D02*
X145323000Y-107630400D01*
X145323000Y-107630400D02*
X145251600Y-108195400D01*
X145251600Y-108195400D02*
X145147800Y-108715800D01*
X145147800Y-108715800D02*
X145015400Y-109177000D01*
X145015400Y-109177000D02*
X144857900Y-109564200D01*
X144857900Y-109564200D02*
X144752800Y-109810700D01*
X144752800Y-109810700D02*
X144722600Y-109923400D01*
X144722600Y-109923400D02*
X144706500Y-110041100D01*
X144706500Y-110041100D02*
X144713600Y-110327300D01*
X144713600Y-110327300D02*
X144768600Y-110741400D01*
X144768600Y-110741400D02*
X144829300Y-111225000D01*
X144829300Y-111225000D02*
X144868200Y-111734300D01*
X144868200Y-111734300D02*
X144885400Y-112260400D01*
X144885400Y-112260400D02*
X144881200Y-112794400D01*
X144881200Y-112794400D02*
X144855900Y-113327200D01*
X144855900Y-113327200D02*
X144809700Y-113849800D01*
X144809700Y-113849800D02*
X144742900Y-114353200D01*
X144742900Y-114353200D02*
X144655700Y-114828400D01*
X144655700Y-114828400D02*
X144507900Y-115474500D01*
X144507900Y-115474500D02*
X144342200Y-116122800D01*
X144342200Y-116122800D02*
X144183900Y-116678700D01*
X144183900Y-116678700D02*
X144058800Y-117047000D01*
X144058800Y-117047000D02*
X143977400Y-117264600D01*
X143977400Y-117264600D02*
X143943600Y-117395000D01*
X143943600Y-117395000D02*
X143909900Y-117529900D01*
X143909900Y-117529900D02*
X143817400Y-117770200D01*
X143817400Y-117770200D02*
X143508400Y-118457400D01*
X143508400Y-118457400D02*
X143121200Y-119236500D01*
X143121200Y-119236500D02*
X142760200Y-119887400D01*
X142760200Y-119887400D02*
X142398300Y-120482600D01*
X142398300Y-120482600D02*
X142229700Y-120790700D01*
X142229700Y-120790700D02*
X142198500Y-120881500D01*
X142198500Y-120881500D02*
X142192300Y-120953800D01*
X142192300Y-120953800D02*
X142224200Y-121113500D01*
X142224200Y-121113500D02*
X142285700Y-121323800D01*
X142285700Y-121323800D02*
X142355500Y-121480900D01*
X142355500Y-121480900D02*
X142466200Y-121710800D01*
X142466200Y-121710800D02*
X142635800Y-122117700D01*
X142635800Y-122117700D02*
X142978300Y-123032200D01*
X142978300Y-123032200D02*
X143161600Y-123589700D01*
X143161600Y-123589700D02*
X143297600Y-124069200D01*
X143297600Y-124069200D02*
X143441300Y-124686400D01*
X143441300Y-124686400D02*
X143647900Y-125657400D01*
X143647900Y-125657400D02*
X143708600Y-125917400D01*
X143708600Y-125917400D02*
X143778500Y-126119300D01*
X143778500Y-126119300D02*
X143873000Y-126272600D01*
X143873000Y-126272600D02*
X144007500Y-126386900D01*
X144007500Y-126386900D02*
X144197600Y-126471600D01*
X144197600Y-126471600D02*
X144458800Y-126536300D01*
X144458800Y-126536300D02*
X144806500Y-126590300D01*
X144806500Y-126590300D02*
X145256200Y-126643300D01*
X145256200Y-126643300D02*
X145717800Y-126703300D01*
X145717800Y-126703300D02*
X146031800Y-126760200D01*
X146031800Y-126760200D02*
X146337000Y-126818200D01*
X146337000Y-126818200D02*
X146777600Y-126880900D01*
X146777600Y-126880900D02*
X147762100Y-127033300D01*
X147762100Y-127033300D02*
X148885000Y-127208000D01*
X148885000Y-127208000D02*
X149376800Y-127279500D01*
X149376800Y-127279500D02*
X149610800Y-127327500D01*
X149610800Y-127327500D02*
X149862500Y-127383500D01*
X149862500Y-127383500D02*
X150397100Y-127474500D01*
X150397100Y-127474500D02*
X151544600Y-127670000D01*
X151544600Y-127670000D02*
X152684300Y-127898200D01*
X152684300Y-127898200D02*
X153668800Y-128101900D01*
X153668800Y-128101900D02*
X154750400Y-128331700D01*
X154750400Y-128331700D02*
X155488500Y-128520300D01*
X155488500Y-128520300D02*
X156519900Y-128842400D01*
X156519900Y-128842400D02*
X157039800Y-129027600D01*
X157039800Y-129027600D02*
X157308300Y-129148300D01*
X157308300Y-129148300D02*
X157660400Y-129312100D01*
X157660400Y-129312100D02*
X158081900Y-129549100D01*
X158081900Y-129549100D02*
X158499100Y-129815300D01*
X158499100Y-129815300D02*
X158839100Y-130066500D01*
X158839100Y-130066500D02*
X159046100Y-130249600D01*
X159046100Y-130249600D02*
X159240100Y-130447000D01*
X159240100Y-130447000D02*
X159422100Y-130658000D01*
X159422100Y-130658000D02*
X159592100Y-130883000D01*
X159592100Y-130883000D02*
X159748100Y-131121000D01*
X159748100Y-131121000D02*
X159892100Y-131372000D01*
X159892100Y-131372000D02*
X160023100Y-131636000D01*
X160023100Y-131636000D02*
X160140100Y-131911000D01*
X160140100Y-131911000D02*
X160221100Y-132061000D01*
X160221100Y-132061000D02*
X160259100Y-132098000D01*
X160259100Y-132098000D02*
X160290100Y-132102000D01*
X160290100Y-132102000D02*
X160304100Y-132106000D01*
X160304100Y-132106000D02*
X160317100Y-132137000D01*
X160317100Y-132137000D02*
X160336100Y-132277000D01*
X160336100Y-132277000D02*
X160351100Y-132873000D01*
X160351100Y-132873000D02*
X160335100Y-133517000D01*
X160335100Y-133517000D02*
X160310100Y-133646000D01*
X160310100Y-133646000D02*
X160292100Y-133674000D01*
X160292100Y-133674000D02*
X160271100Y-133682000D01*
X160271100Y-133682000D02*
X160231100Y-133700000D01*
X160231100Y-133700000D02*
X160184100Y-133748000D01*
X160184100Y-133748000D02*
X160088100Y-133906000D01*
X160088100Y-133906000D02*
X159938100Y-134168000D01*
X159938100Y-134168000D02*
X159732100Y-134407000D01*
X159732100Y-134407000D02*
X159462100Y-134628000D01*
X159462100Y-134628000D02*
X159119100Y-134835000D01*
X159119100Y-134835000D02*
X158695100Y-135034000D01*
X158695100Y-135034000D02*
X158179600Y-135227000D01*
X158179600Y-135227000D02*
X157565200Y-135421000D01*
X157565200Y-135421000D02*
X156842700Y-135619000D01*
X156842700Y-135619000D02*
X156663300Y-135671000D01*
X156663300Y-135671000D02*
X156527500Y-135727000D01*
X156527500Y-135727000D02*
X156432700Y-135792000D01*
X156432700Y-135792000D02*
X156376400Y-135872000D01*
X156376400Y-135872000D02*
X156356000Y-135974000D01*
X156356000Y-135974000D02*
X156369100Y-136104000D01*
X156369100Y-136104000D02*
X156413000Y-136267000D01*
X156413000Y-136267000D02*
X156485200Y-136469000D01*
X156485200Y-136469000D02*
X156549300Y-136676000D01*
X156549300Y-136676000D02*
X156593500Y-136905000D01*
X156593500Y-136905000D02*
X156618100Y-137148000D01*
X156618100Y-137148000D02*
X156623000Y-137400000D01*
X156623000Y-137400000D02*
X156608600Y-137653000D01*
X156608600Y-137653000D02*
X156574800Y-137902000D01*
X156574800Y-137902000D02*
X156521900Y-138139000D01*
X156521900Y-138139000D02*
X156449800Y-138358000D01*
X156449800Y-138358000D02*
X156336000Y-138620000D01*
X156336000Y-138620000D02*
X156206700Y-138861000D01*
X156206700Y-138861000D02*
X156061000Y-139084000D01*
X156061000Y-139084000D02*
X155897700Y-139288000D01*
X155897700Y-139288000D02*
X155715800Y-139475000D01*
X155715800Y-139475000D02*
X155514100Y-139647000D01*
X155514100Y-139647000D02*
X155291700Y-139805000D01*
X155291700Y-139805000D02*
X155047400Y-139949000D01*
X155047400Y-139949000D02*
X154760800Y-140082000D01*
X154760800Y-140082000D02*
X154432400Y-140195000D01*
X154432400Y-140195000D02*
X154071700Y-140286000D01*
X154071700Y-140286000D02*
X153688200Y-140354000D01*
X153688200Y-140354000D02*
X153291500Y-140399000D01*
X153291500Y-140399000D02*
X152891100Y-140417000D01*
X152891100Y-140417000D02*
X152496600Y-140409000D01*
X152496600Y-140409000D02*
X152117500Y-140373000D01*
X152117500Y-140373000D02*
X150589700Y-140148000D01*
X150589700Y-140148000D02*
X150121600Y-140067000D01*
X150121600Y-140067000D02*
X149880100Y-140013000D01*
X149880100Y-140013000D02*
X149561000Y-139943000D01*
X149561000Y-139943000D02*
X149044800Y-139857000D01*
X149044800Y-139857000D02*
X148030600Y-139706000D01*
X148030600Y-139706000D02*
X147655500Y-139665000D01*
X147655500Y-139665000D02*
X147269500Y-139659000D01*
X147269500Y-139659000D02*
X146864500Y-139689000D01*
X146864500Y-139689000D02*
X146432400Y-139756000D01*
X146432400Y-139756000D02*
X145965100Y-139861000D01*
X145965100Y-139861000D02*
X145454600Y-140008000D01*
X145454600Y-140008000D02*
X144892900Y-140196000D01*
X144892900Y-140196000D02*
X144271700Y-140428000D01*
X144271700Y-140428000D02*
X142974700Y-140892000D01*
X142974700Y-140892000D02*
X142390000Y-141112000D01*
X142390000Y-141112000D02*
X142217100Y-141194000D01*
X142217100Y-141194000D02*
X142154300Y-141245000D01*
X142154300Y-141245000D02*
X142141800Y-141264000D01*
X142141800Y-141264000D02*
X142102600Y-141280000D01*
X142102600Y-141280000D02*
X141929900Y-141303000D01*
X141929900Y-141303000D02*
X141109600Y-141319000D01*
X141109600Y-141319000D02*
X140362000Y-141303000D01*
X140362000Y-141303000D02*
X140144000Y-141286000D01*
X140144000Y-141286000D02*
X140065500Y-141264000D01*
X140065500Y-141264000D02*
X140023700Y-141221000D01*
X140023700Y-141221000D02*
X139909900Y-141146000D01*
X139909900Y-141146000D02*
X139535900Y-140942000D01*
X139535900Y-140942000D02*
X139173600Y-140753000D01*
X139173600Y-140753000D02*
X138919900Y-140595000D01*
X138919900Y-140595000D02*
X138688700Y-140406000D01*
X138688700Y-140406000D02*
X138394100Y-140126000D01*
X138394100Y-140126000D02*
X138124400Y-139834000D01*
X138124400Y-139834000D02*
X137916700Y-139540000D01*
X137916700Y-139540000D02*
X137753300Y-139212000D01*
X137753300Y-139212000D02*
X137616200Y-138822000D01*
X137616200Y-138822000D02*
X137544300Y-138548000D01*
X137544300Y-138548000D02*
X137508500Y-138259000D01*
X137508500Y-138259000D02*
X137501000Y-137826000D01*
X137501000Y-137826000D02*
X137514200Y-137121000D01*
X137514200Y-137121000D02*
X137522700Y-136247000D01*
X137522700Y-136247000D02*
X137495700Y-135636000D01*
X137495700Y-135636000D02*
X137467000Y-135410000D01*
X137467000Y-135410000D02*
X137427100Y-135225000D01*
X137427100Y-135225000D02*
X137375400Y-135074000D01*
X137375400Y-135074000D02*
X137311000Y-134949000D01*
X137311000Y-134949000D02*
X137158800Y-134732000D01*
X137158800Y-134732000D02*
X136892700Y-134397000D01*
X136892700Y-134397000D02*
X135927400Y-133259000D01*
X135927400Y-133259000D02*
X135396500Y-132618000D01*
X135396500Y-132618000D02*
X135192900Y-132344000D01*
X135192900Y-132344000D02*
X135022300Y-132089000D01*
X135022300Y-132089000D02*
X134878600Y-131842000D01*
X134878600Y-131842000D02*
X134755600Y-131595000D01*
X134755600Y-131595000D02*
X134647300Y-131336000D01*
X134647300Y-131336000D02*
X134547500Y-131057000D01*
X134547500Y-131057000D02*
X134470600Y-130800000D01*
X134470600Y-130800000D02*
X134425200Y-130557000D01*
X134425200Y-130557000D02*
X134403500Y-130269500D01*
X134403500Y-130269500D02*
X134397800Y-129875200D01*
X134397800Y-129875200D02*
X134417100Y-129278800D01*
X134417100Y-129278800D02*
X134464100Y-128876100D01*
X134464100Y-128876100D02*
X134494000Y-128737000D01*
X134494000Y-128737000D02*
X134500600Y-128635100D01*
X134500600Y-128635100D02*
X134482700Y-128552600D01*
X134482700Y-128552600D02*
X134439300Y-128471600D01*
X134439300Y-128471600D02*
X134345700Y-128392800D01*
X134345700Y-128392800D02*
X134153100Y-128270600D01*
X134153100Y-128270600D02*
X133593900Y-127960700D01*
X133593900Y-127960700D02*
X133006900Y-127670200D01*
X133006900Y-127670200D02*
X132779600Y-127572400D01*
X132779600Y-127572400D02*
X132637300Y-127527700D01*
X132637300Y-127527700D02*
X132421600Y-127555600D01*
X132421600Y-127555600D02*
X132070500Y-127646200D01*
X132070500Y-127646200D02*
X131047800Y-127942100D01*
X131047800Y-127942100D02*
X130161300Y-128153600D01*
X130161300Y-128153600D02*
X129312500Y-128334400D01*
X129312500Y-128334400D02*
X128595800Y-128465000D01*
X128595800Y-128465000D02*
X127684900Y-128598200D01*
X127684900Y-128598200D02*
X126253300Y-128786900D01*
X126253300Y-128786900D02*
X125854300Y-128825300D01*
X125854300Y-128825300D02*
X125308200Y-128858400D01*
X125308200Y-128858400D02*
X123919700Y-128905800D01*
X123919700Y-128905800D02*
X122377900Y-128922700D01*
X122377900Y-128922700D02*
X120973100Y-128902700D01*
X120973100Y-128902700D02*
X120041100Y-128858900D01*
X120041100Y-128858900D02*
X119125200Y-128788700D01*
X119125200Y-128788700D02*
X118223100Y-128691700D01*
X118223100Y-128691700D02*
X117332700Y-128567600D01*
X117332700Y-128567600D02*
X116451700Y-128416100D01*
X116451700Y-128416100D02*
X115578000Y-128236900D01*
X115578000Y-128236900D02*
X114709200Y-128029500D01*
X114709200Y-128029500D02*
X113843200Y-127793700D01*
X113843200Y-127793700D02*
X113094600Y-127577600D01*
X113094600Y-127577600D02*
X112861500Y-127523900D01*
X112861500Y-127523900D02*
X112683000Y-127506700D01*
X112683000Y-127506700D02*
X112529300Y-127526100D01*
X112529300Y-127526100D02*
X112370600Y-127582400D01*
X112370600Y-127582400D02*
X111919400Y-127806500D01*
X111919400Y-127806500D02*
X111219200Y-128169600D01*
X111219200Y-128169600D02*
X110999100Y-128304800D01*
X110999100Y-128304800D02*
X110851700Y-128423000D01*
X110851700Y-128423000D02*
X110766500Y-128534400D01*
X110766500Y-128534400D02*
X110733000Y-128649600D01*
X110733000Y-128649600D02*
X110740700Y-128778900D01*
X110740700Y-128778900D02*
X110779100Y-128932600D01*
X110779100Y-128932600D02*
X110819400Y-129276200D01*
X110819400Y-129276200D02*
X110839200Y-129842300D01*
X110839200Y-129842300D02*
X110836800Y-130241400D01*
X110836800Y-130241400D02*
X110815800Y-130528000D01*
X110815800Y-130528000D02*
X110766600Y-130777000D01*
X110766600Y-130777000D02*
X110679500Y-131062000D01*
X110679500Y-131062000D02*
X110580300Y-131339000D01*
X110580300Y-131339000D02*
X110472700Y-131596000D01*
X110472700Y-131596000D02*
X110350300Y-131842000D01*
X110350300Y-131842000D02*
X110207000Y-132088000D01*
X110207000Y-132088000D02*
X110036600Y-132342000D01*
X110036600Y-132342000D02*
X109832800Y-132616000D01*
X109832800Y-132616000D02*
X109300200Y-133260000D01*
X109300200Y-133260000D02*
X108548900Y-134137000D01*
X108548900Y-134137000D02*
X108107400Y-134679000D01*
X108107400Y-134679000D02*
X107881200Y-135010000D01*
X107881200Y-135010000D02*
X107819200Y-135134000D01*
X107819200Y-135134000D02*
X107775500Y-135252000D01*
X107775500Y-135252000D02*
X107751200Y-135437000D01*
X107751200Y-135437000D02*
X107733800Y-135802000D01*
X107733800Y-135802000D02*
X107724000Y-136934000D01*
X107724000Y-136934000D02*
X107725900Y-137756000D01*
X107725900Y-137756000D02*
X107712500Y-138258000D01*
X107712500Y-138258000D02*
X107675400Y-138576000D01*
X107675400Y-138576000D02*
X107606200Y-138843000D01*
X107606200Y-138843000D02*
X107464200Y-139240000D01*
X107464200Y-139240000D02*
X107383200Y-139412000D01*
X107383200Y-139412000D02*
X107291100Y-139573000D01*
X107291100Y-139573000D02*
X107059500Y-139884000D01*
X107059500Y-139884000D02*
X106741600Y-140219000D01*
X106741600Y-140219000D02*
X106509600Y-140431000D01*
X106509600Y-140431000D02*
X106285500Y-140606000D01*
X106285500Y-140606000D02*
X106045800Y-140758000D01*
X106045800Y-140758000D02*
X105766800Y-140905000D01*
X105766800Y-140905000D02*
X105383100Y-141114000D01*
X105383100Y-141114000D02*
X105266200Y-141195000D01*
X105266200Y-141195000D02*
X105222900Y-141245000D01*
X105222900Y-141245000D02*
X105210100Y-141264000D01*
X105210100Y-141264000D02*
X105169700Y-141280000D01*
X105169700Y-141280000D02*
X104992100Y-141303000D01*
X104992100Y-141303000D02*
X104147900Y-141319000D01*
X104147900Y-141319000D02*
X103282200Y-141303000D01*
X103282200Y-141303000D02*
X103118500Y-141278000D01*
X103118500Y-141278000D02*
X103084100Y-141259000D01*
X103084100Y-141259000D02*
X103074000Y-141236000D01*
X103074000Y-141236000D02*
X103073700Y-141236000D01*
X103073700Y-141236000D02*
X103073700Y-141236000D01*
M02*
