M48
; DRILL file {KiCad 9.0.6} date 2025-12-05T08:24:16+0100
; FORMAT={-:-/ absolute / inch / decimal}
; #@! TF.CreationDate,2025-12-05T08:24:16+01:00
; #@! TF.GenerationSoftware,Kicad,Pcbnew,9.0.6
; #@! TF.FileFunction,Plated,1,2,PTH
FMAT,2
INCH
; #@! TA.AperFunction,Plated,PTH,ComponentDrill
T1C0.0315
; #@! TA.AperFunction,Plated,PTH,ComponentDrill
T2C0.0354
; #@! TA.AperFunction,Plated,PTH,ComponentDrill
T3C0.0394
%
G90
G05
T1
X4.3622Y-3.7126
X4.3622Y-3.872
X4.3622Y-4.0315
X4.3622Y-4.1909
X4.3622Y-4.3504
X4.3622Y-4.5098
X4.4528Y-4.8386
X4.5528Y-4.7386
X4.6528Y-4.8386
X4.7622Y-3.7126
X4.7622Y-3.872
X4.7622Y-4.0315
X4.7622Y-4.1909
X4.7622Y-4.3504
X4.7622Y-4.5098
X4.9567Y-3.7087
X4.9724Y-4.1165
X4.9724Y-4.2165
X4.9724Y-4.3165
X4.9724Y-4.4165
X5.0906Y-4.8386
X5.1906Y-4.7386
X5.2567Y-3.7087
X5.2724Y-4.1165
X5.2724Y-4.2165
X5.2724Y-4.3165
X5.2724Y-4.4165
X5.2906Y-4.8386
X5.4606Y-4.122
X5.5591Y-4.122
T2
X4.5709Y-2.6969
X4.6709Y-2.6969
X5.0591Y-2.6929
X5.1591Y-2.6929
T3
X5.4921Y-4.4929
X5.4921Y-4.5929
X5.4921Y-4.6929
M30
