%TF.GenerationSoftware,KiCad,Pcbnew,9.0.6*%
%TF.CreationDate,2025-12-05T08:24:13+01:00*%
%TF.ProjectId,GrumpyDuck,4772756d-7079-4447-9563-6b2e6b696361,rev?*%
%TF.SameCoordinates,Original*%
%TF.FileFunction,Soldermask,Top*%
%TF.FilePolarity,Negative*%
%FSLAX46Y46*%
G04 Gerber Fmt 4.6, Leading zero omitted, Abs format (unit mm)*
G04 Created by KiCad (PCBNEW 9.0.6) date 2025-12-05 08:24:13*
%MOMM*%
%LPD*%
G01*
G04 APERTURE LIST*
G04 Aperture macros list*
%AMRoundRect*
0 Rectangle with rounded corners*
0 $1 Rounding radius*
0 $2 $3 $4 $5 $6 $7 $8 $9 X,Y pos of 4 corners*
0 Add a 4 corners polygon primitive as box body*
4,1,4,$2,$3,$4,$5,$6,$7,$8,$9,$2,$3,0*
0 Add four circle primitives for the rounded corners*
1,1,$1+$1,$2,$3*
1,1,$1+$1,$4,$5*
1,1,$1+$1,$6,$7*
1,1,$1+$1,$8,$9*
0 Add four rect primitives between the rounded corners*
20,1,$1+$1,$2,$3,$4,$5,0*
20,1,$1+$1,$4,$5,$6,$7,0*
20,1,$1+$1,$6,$7,$8,$9,0*
20,1,$1+$1,$8,$9,$2,$3,0*%
G04 Aperture macros list end*
%ADD10C,2.200000*%
%ADD11RoundRect,0.200000X-0.900000X-0.900000X0.900000X-0.900000X0.900000X0.900000X-0.900000X0.900000X0*%
%ADD12RoundRect,0.312500X-0.687500X-0.687500X0.687500X-0.687500X0.687500X0.687500X-0.687500X0.687500X0*%
%ADD13C,2.000000*%
%ADD14C,2.400000*%
%ADD15RoundRect,0.200000X-0.750000X-0.750000X0.750000X-0.750000X0.750000X0.750000X-0.750000X0.750000X0*%
%ADD16C,1.900000*%
%ADD17RoundRect,0.200000X-0.800000X-0.800000X0.800000X-0.800000X0.800000X0.800000X-0.800000X0.800000X0*%
%ADD18O,2.000000X2.000000*%
G04 APERTURE END LIST*
D10*
%TO.C,D2*%
X131040000Y-68400000D03*
D11*
X128500000Y-68400000D03*
%TD*%
D10*
%TO.C,D1*%
X118640000Y-68500000D03*
D11*
X116100000Y-68500000D03*
%TD*%
D12*
%TO.C,U1*%
X126300000Y-112180000D03*
D13*
X126300000Y-109640000D03*
X126300000Y-107100000D03*
X126300000Y-104560000D03*
X133920000Y-104560000D03*
X133920000Y-107100000D03*
X133920000Y-109640000D03*
X133920000Y-112180000D03*
%TD*%
D14*
%TO.C,S1*%
X139500000Y-119200000D03*
X139500000Y-116660000D03*
X139500000Y-114120000D03*
%TD*%
D13*
%TO.C,R7*%
X110800000Y-98350000D03*
X120960000Y-98350000D03*
%TD*%
%TO.C,R6*%
X110800000Y-102400000D03*
X120960000Y-102400000D03*
%TD*%
%TO.C,R5*%
X110800000Y-106450000D03*
X120960000Y-106450000D03*
%TD*%
%TO.C,R4*%
X110800000Y-110500000D03*
X120960000Y-110500000D03*
%TD*%
%TO.C,R3*%
X110800000Y-114550000D03*
X120960000Y-114550000D03*
%TD*%
%TO.C,R1*%
X110800000Y-94300000D03*
X120960000Y-94300000D03*
%TD*%
D15*
%TO.C,T2*%
X113100000Y-122900000D03*
D16*
X115640000Y-120360000D03*
X118180000Y-122900000D03*
%TD*%
D15*
%TO.C,T1*%
X129300000Y-122900000D03*
D16*
X131840000Y-120360000D03*
X134380000Y-122900000D03*
%TD*%
D17*
%TO.C,D3*%
X125900000Y-94200000D03*
D18*
X133520000Y-94200000D03*
%TD*%
D17*
%TO.C,C1*%
X138700000Y-104700000D03*
D13*
X141200000Y-104700000D03*
%TD*%
M02*
