%TF.GenerationSoftware,KiCad,Pcbnew,9.0.6*%
%TF.CreationDate,2025-12-05T08:24:13+01:00*%
%TF.ProjectId,GrumpyDuck,4772756d-7079-4447-9563-6b2e6b696361,rev?*%
%TF.SameCoordinates,Original*%
%TF.FileFunction,Legend,Bot*%
%TF.FilePolarity,Positive*%
%FSLAX46Y46*%
G04 Gerber Fmt 4.6, Leading zero omitted, Abs format (unit mm)*
G04 Created by KiCad (PCBNEW 9.0.6) date 2025-12-05 08:24:13*
%MOMM*%
%LPD*%
G01*
G04 APERTURE LIST*
%ADD10C,0.150000*%
%ADD11C,0.050000*%
%ADD12C,0.120000*%
%ADD13C,0.010000*%
G04 APERTURE END LIST*
D10*
X113800000Y-124500000D02*
G75*
G02*
X117457937Y-124451295I1800000J2200000D01*
G01*
X130000000Y-124500000D02*
G75*
G02*
X133657937Y-124451295I1800000J2200000D01*
G01*
X130000000Y-124500000D02*
X133700000Y-124500000D01*
X113800000Y-124500000D02*
X117500000Y-124500000D01*
X127677506Y-88369819D02*
X127677506Y-89084104D01*
X127677506Y-89084104D02*
X127725125Y-89226961D01*
X127725125Y-89226961D02*
X127820363Y-89322200D01*
X127820363Y-89322200D02*
X127963220Y-89369819D01*
X127963220Y-89369819D02*
X128058458Y-89369819D01*
X126725125Y-89369819D02*
X127201315Y-89369819D01*
X127201315Y-89369819D02*
X127201315Y-88369819D01*
X125820363Y-89274580D02*
X125867982Y-89322200D01*
X125867982Y-89322200D02*
X126010839Y-89369819D01*
X126010839Y-89369819D02*
X126106077Y-89369819D01*
X126106077Y-89369819D02*
X126248934Y-89322200D01*
X126248934Y-89322200D02*
X126344172Y-89226961D01*
X126344172Y-89226961D02*
X126391791Y-89131723D01*
X126391791Y-89131723D02*
X126439410Y-88941247D01*
X126439410Y-88941247D02*
X126439410Y-88798390D01*
X126439410Y-88798390D02*
X126391791Y-88607914D01*
X126391791Y-88607914D02*
X126344172Y-88512676D01*
X126344172Y-88512676D02*
X126248934Y-88417438D01*
X126248934Y-88417438D02*
X126106077Y-88369819D01*
X126106077Y-88369819D02*
X126010839Y-88369819D01*
X126010839Y-88369819D02*
X125867982Y-88417438D01*
X125867982Y-88417438D02*
X125820363Y-88465057D01*
X125106077Y-88369819D02*
X125106077Y-89084104D01*
X125106077Y-89084104D02*
X125153696Y-89226961D01*
X125153696Y-89226961D02*
X125248934Y-89322200D01*
X125248934Y-89322200D02*
X125391791Y-89369819D01*
X125391791Y-89369819D02*
X125487029Y-89369819D01*
X124153696Y-89369819D02*
X124629886Y-89369819D01*
X124629886Y-89369819D02*
X124629886Y-88369819D01*
X123248934Y-89274580D02*
X123296553Y-89322200D01*
X123296553Y-89322200D02*
X123439410Y-89369819D01*
X123439410Y-89369819D02*
X123534648Y-89369819D01*
X123534648Y-89369819D02*
X123677505Y-89322200D01*
X123677505Y-89322200D02*
X123772743Y-89226961D01*
X123772743Y-89226961D02*
X123820362Y-89131723D01*
X123820362Y-89131723D02*
X123867981Y-88941247D01*
X123867981Y-88941247D02*
X123867981Y-88798390D01*
X123867981Y-88798390D02*
X123820362Y-88607914D01*
X123820362Y-88607914D02*
X123772743Y-88512676D01*
X123772743Y-88512676D02*
X123677505Y-88417438D01*
X123677505Y-88417438D02*
X123534648Y-88369819D01*
X123534648Y-88369819D02*
X123439410Y-88369819D01*
X123439410Y-88369819D02*
X123296553Y-88417438D01*
X123296553Y-88417438D02*
X123248934Y-88465057D01*
X122534648Y-88369819D02*
X122534648Y-89084104D01*
X122534648Y-89084104D02*
X122582267Y-89226961D01*
X122582267Y-89226961D02*
X122677505Y-89322200D01*
X122677505Y-89322200D02*
X122820362Y-89369819D01*
X122820362Y-89369819D02*
X122915600Y-89369819D01*
X121582267Y-89369819D02*
X122058457Y-89369819D01*
X122058457Y-89369819D02*
X122058457Y-88369819D01*
X120677505Y-89274580D02*
X120725124Y-89322200D01*
X120725124Y-89322200D02*
X120867981Y-89369819D01*
X120867981Y-89369819D02*
X120963219Y-89369819D01*
X120963219Y-89369819D02*
X121106076Y-89322200D01*
X121106076Y-89322200D02*
X121201314Y-89226961D01*
X121201314Y-89226961D02*
X121248933Y-89131723D01*
X121248933Y-89131723D02*
X121296552Y-88941247D01*
X121296552Y-88941247D02*
X121296552Y-88798390D01*
X121296552Y-88798390D02*
X121248933Y-88607914D01*
X121248933Y-88607914D02*
X121201314Y-88512676D01*
X121201314Y-88512676D02*
X121106076Y-88417438D01*
X121106076Y-88417438D02*
X120963219Y-88369819D01*
X120963219Y-88369819D02*
X120867981Y-88369819D01*
X120867981Y-88369819D02*
X120725124Y-88417438D01*
X120725124Y-88417438D02*
X120677505Y-88465057D01*
X119963219Y-88369819D02*
X119963219Y-89084104D01*
X119963219Y-89084104D02*
X120010838Y-89226961D01*
X120010838Y-89226961D02*
X120106076Y-89322200D01*
X120106076Y-89322200D02*
X120248933Y-89369819D01*
X120248933Y-89369819D02*
X120344171Y-89369819D01*
X119010838Y-89369819D02*
X119487028Y-89369819D01*
X119487028Y-89369819D02*
X119487028Y-88369819D01*
X118106076Y-89274580D02*
X118153695Y-89322200D01*
X118153695Y-89322200D02*
X118296552Y-89369819D01*
X118296552Y-89369819D02*
X118391790Y-89369819D01*
X118391790Y-89369819D02*
X118534647Y-89322200D01*
X118534647Y-89322200D02*
X118629885Y-89226961D01*
X118629885Y-89226961D02*
X118677504Y-89131723D01*
X118677504Y-89131723D02*
X118725123Y-88941247D01*
X118725123Y-88941247D02*
X118725123Y-88798390D01*
X118725123Y-88798390D02*
X118677504Y-88607914D01*
X118677504Y-88607914D02*
X118629885Y-88512676D01*
X118629885Y-88512676D02*
X118534647Y-88417438D01*
X118534647Y-88417438D02*
X118391790Y-88369819D01*
X118391790Y-88369819D02*
X118296552Y-88369819D01*
X118296552Y-88369819D02*
X118153695Y-88417438D01*
X118153695Y-88417438D02*
X118106076Y-88465057D01*
X126861904Y-67745180D02*
X126861904Y-68745180D01*
X126290476Y-67745180D02*
X126719047Y-68316609D01*
X126290476Y-68745180D02*
X126861904Y-68173752D01*
X114561904Y-67945180D02*
X114561904Y-68945180D01*
X113990476Y-67945180D02*
X114419047Y-68516609D01*
X113990476Y-68945180D02*
X114561904Y-68373752D01*
X127914285Y-122831009D02*
X127580952Y-122831009D01*
X127438095Y-123354819D02*
X127914285Y-123354819D01*
X127914285Y-123354819D02*
X127914285Y-122354819D01*
X127914285Y-122354819D02*
X127438095Y-122354819D01*
X111714285Y-122831009D02*
X111380952Y-122831009D01*
X111238095Y-123354819D02*
X111714285Y-123354819D01*
X111714285Y-123354819D02*
X111714285Y-122354819D01*
X111714285Y-122354819D02*
X111238095Y-122354819D01*
D11*
X124175714Y-48352019D02*
X124175714Y-49161542D01*
X124175714Y-49161542D02*
X124132857Y-49256780D01*
X124132857Y-49256780D02*
X124090000Y-49304400D01*
X124090000Y-49304400D02*
X124004285Y-49352019D01*
X124004285Y-49352019D02*
X123832857Y-49352019D01*
X123832857Y-49352019D02*
X123747142Y-49304400D01*
X123747142Y-49304400D02*
X123704285Y-49256780D01*
X123704285Y-49256780D02*
X123661428Y-49161542D01*
X123661428Y-49161542D02*
X123661428Y-48352019D01*
X123275714Y-48447257D02*
X123232857Y-48399638D01*
X123232857Y-48399638D02*
X123147143Y-48352019D01*
X123147143Y-48352019D02*
X122932857Y-48352019D01*
X122932857Y-48352019D02*
X122847143Y-48399638D01*
X122847143Y-48399638D02*
X122804285Y-48447257D01*
X122804285Y-48447257D02*
X122761428Y-48542495D01*
X122761428Y-48542495D02*
X122761428Y-48637733D01*
X122761428Y-48637733D02*
X122804285Y-48780590D01*
X122804285Y-48780590D02*
X123318571Y-49352019D01*
X123318571Y-49352019D02*
X122761428Y-49352019D01*
X122768570Y-52948209D02*
X122639998Y-52995828D01*
X122639998Y-52995828D02*
X122597141Y-53043447D01*
X122597141Y-53043447D02*
X122554284Y-53138685D01*
X122554284Y-53138685D02*
X122554284Y-53281542D01*
X122554284Y-53281542D02*
X122597141Y-53376780D01*
X122597141Y-53376780D02*
X122639998Y-53424400D01*
X122639998Y-53424400D02*
X122725713Y-53472019D01*
X122725713Y-53472019D02*
X123068570Y-53472019D01*
X123068570Y-53472019D02*
X123068570Y-52472019D01*
X123068570Y-52472019D02*
X122768570Y-52472019D01*
X122768570Y-52472019D02*
X122682856Y-52519638D01*
X122682856Y-52519638D02*
X122639998Y-52567257D01*
X122639998Y-52567257D02*
X122597141Y-52662495D01*
X122597141Y-52662495D02*
X122597141Y-52757733D01*
X122597141Y-52757733D02*
X122639998Y-52852971D01*
X122639998Y-52852971D02*
X122682856Y-52900590D01*
X122682856Y-52900590D02*
X122768570Y-52948209D01*
X122768570Y-52948209D02*
X123068570Y-52948209D01*
X122211427Y-53186304D02*
X121782856Y-53186304D01*
X122297141Y-53472019D02*
X121997141Y-52472019D01*
X121997141Y-52472019D02*
X121697141Y-53472019D01*
X121525712Y-52472019D02*
X121011427Y-52472019D01*
X121268569Y-53472019D02*
X121268569Y-52472019D01*
X120925713Y-53567257D02*
X120239998Y-53567257D01*
X120025713Y-53472019D02*
X120025713Y-52472019D01*
X120025713Y-52948209D02*
X119511427Y-52948209D01*
X119511427Y-53472019D02*
X119511427Y-52472019D01*
X118654284Y-53472019D02*
X119082856Y-53472019D01*
X119082856Y-53472019D02*
X119082856Y-52472019D01*
X118354285Y-53472019D02*
X118354285Y-52472019D01*
X118354285Y-52472019D02*
X118139999Y-52472019D01*
X118139999Y-52472019D02*
X118011428Y-52519638D01*
X118011428Y-52519638D02*
X117925713Y-52614876D01*
X117925713Y-52614876D02*
X117882856Y-52710114D01*
X117882856Y-52710114D02*
X117839999Y-52900590D01*
X117839999Y-52900590D02*
X117839999Y-53043447D01*
X117839999Y-53043447D02*
X117882856Y-53233923D01*
X117882856Y-53233923D02*
X117925713Y-53329161D01*
X117925713Y-53329161D02*
X118011428Y-53424400D01*
X118011428Y-53424400D02*
X118139999Y-53472019D01*
X118139999Y-53472019D02*
X118354285Y-53472019D01*
X117668571Y-53567257D02*
X116982856Y-53567257D01*
X116811428Y-53424400D02*
X116682857Y-53472019D01*
X116682857Y-53472019D02*
X116468571Y-53472019D01*
X116468571Y-53472019D02*
X116382857Y-53424400D01*
X116382857Y-53424400D02*
X116339999Y-53376780D01*
X116339999Y-53376780D02*
X116297142Y-53281542D01*
X116297142Y-53281542D02*
X116297142Y-53186304D01*
X116297142Y-53186304D02*
X116339999Y-53091066D01*
X116339999Y-53091066D02*
X116382857Y-53043447D01*
X116382857Y-53043447D02*
X116468571Y-52995828D01*
X116468571Y-52995828D02*
X116639999Y-52948209D01*
X116639999Y-52948209D02*
X116725714Y-52900590D01*
X116725714Y-52900590D02*
X116768571Y-52852971D01*
X116768571Y-52852971D02*
X116811428Y-52757733D01*
X116811428Y-52757733D02*
X116811428Y-52662495D01*
X116811428Y-52662495D02*
X116768571Y-52567257D01*
X116768571Y-52567257D02*
X116725714Y-52519638D01*
X116725714Y-52519638D02*
X116639999Y-52472019D01*
X116639999Y-52472019D02*
X116425714Y-52472019D01*
X116425714Y-52472019D02*
X116297142Y-52519638D01*
X115911428Y-53472019D02*
X115911428Y-52472019D01*
X115911428Y-52472019D02*
X115611428Y-53186304D01*
X115611428Y-53186304D02*
X115311428Y-52472019D01*
X115311428Y-52472019D02*
X115311428Y-53472019D01*
X114882857Y-53472019D02*
X114882857Y-52472019D01*
X114882857Y-52472019D02*
X114668571Y-52472019D01*
X114668571Y-52472019D02*
X114540000Y-52519638D01*
X114540000Y-52519638D02*
X114454285Y-52614876D01*
X114454285Y-52614876D02*
X114411428Y-52710114D01*
X114411428Y-52710114D02*
X114368571Y-52900590D01*
X114368571Y-52900590D02*
X114368571Y-53043447D01*
X114368571Y-53043447D02*
X114411428Y-53233923D01*
X114411428Y-53233923D02*
X114454285Y-53329161D01*
X114454285Y-53329161D02*
X114540000Y-53424400D01*
X114540000Y-53424400D02*
X114668571Y-53472019D01*
X114668571Y-53472019D02*
X114882857Y-53472019D01*
D10*
X132776666Y-115754819D02*
X132776666Y-114754819D01*
X132776666Y-114754819D02*
X132205238Y-115754819D01*
X132205238Y-115754819D02*
X132205238Y-114754819D01*
X131729047Y-115231009D02*
X131395714Y-115231009D01*
X131252857Y-115754819D02*
X131729047Y-115754819D01*
X131729047Y-115754819D02*
X131729047Y-114754819D01*
X131729047Y-114754819D02*
X131252857Y-114754819D01*
X130348095Y-114754819D02*
X130824285Y-114754819D01*
X130824285Y-114754819D02*
X130871904Y-115231009D01*
X130871904Y-115231009D02*
X130824285Y-115183390D01*
X130824285Y-115183390D02*
X130729047Y-115135771D01*
X130729047Y-115135771D02*
X130490952Y-115135771D01*
X130490952Y-115135771D02*
X130395714Y-115183390D01*
X130395714Y-115183390D02*
X130348095Y-115231009D01*
X130348095Y-115231009D02*
X130300476Y-115326247D01*
X130300476Y-115326247D02*
X130300476Y-115564342D01*
X130300476Y-115564342D02*
X130348095Y-115659580D01*
X130348095Y-115659580D02*
X130395714Y-115707200D01*
X130395714Y-115707200D02*
X130490952Y-115754819D01*
X130490952Y-115754819D02*
X130729047Y-115754819D01*
X130729047Y-115754819D02*
X130824285Y-115707200D01*
X130824285Y-115707200D02*
X130871904Y-115659580D01*
X129395714Y-114754819D02*
X129871904Y-114754819D01*
X129871904Y-114754819D02*
X129919523Y-115231009D01*
X129919523Y-115231009D02*
X129871904Y-115183390D01*
X129871904Y-115183390D02*
X129776666Y-115135771D01*
X129776666Y-115135771D02*
X129538571Y-115135771D01*
X129538571Y-115135771D02*
X129443333Y-115183390D01*
X129443333Y-115183390D02*
X129395714Y-115231009D01*
X129395714Y-115231009D02*
X129348095Y-115326247D01*
X129348095Y-115326247D02*
X129348095Y-115564342D01*
X129348095Y-115564342D02*
X129395714Y-115659580D01*
X129395714Y-115659580D02*
X129443333Y-115707200D01*
X129443333Y-115707200D02*
X129538571Y-115754819D01*
X129538571Y-115754819D02*
X129776666Y-115754819D01*
X129776666Y-115754819D02*
X129871904Y-115707200D01*
X129871904Y-115707200D02*
X129919523Y-115659580D01*
X128443333Y-114754819D02*
X128919523Y-114754819D01*
X128919523Y-114754819D02*
X128967142Y-115231009D01*
X128967142Y-115231009D02*
X128919523Y-115183390D01*
X128919523Y-115183390D02*
X128824285Y-115135771D01*
X128824285Y-115135771D02*
X128586190Y-115135771D01*
X128586190Y-115135771D02*
X128490952Y-115183390D01*
X128490952Y-115183390D02*
X128443333Y-115231009D01*
X128443333Y-115231009D02*
X128395714Y-115326247D01*
X128395714Y-115326247D02*
X128395714Y-115564342D01*
X128395714Y-115564342D02*
X128443333Y-115659580D01*
X128443333Y-115659580D02*
X128490952Y-115707200D01*
X128490952Y-115707200D02*
X128586190Y-115754819D01*
X128586190Y-115754819D02*
X128824285Y-115754819D01*
X128824285Y-115754819D02*
X128919523Y-115707200D01*
X128919523Y-115707200D02*
X128967142Y-115659580D01*
X127967142Y-115754819D02*
X127967142Y-114754819D01*
X127967142Y-114754819D02*
X127586190Y-114754819D01*
X127586190Y-114754819D02*
X127490952Y-114802438D01*
X127490952Y-114802438D02*
X127443333Y-114850057D01*
X127443333Y-114850057D02*
X127395714Y-114945295D01*
X127395714Y-114945295D02*
X127395714Y-115088152D01*
X127395714Y-115088152D02*
X127443333Y-115183390D01*
X127443333Y-115183390D02*
X127490952Y-115231009D01*
X127490952Y-115231009D02*
X127586190Y-115278628D01*
X127586190Y-115278628D02*
X127967142Y-115278628D01*
X137161904Y-117207200D02*
X137019047Y-117254819D01*
X137019047Y-117254819D02*
X136780952Y-117254819D01*
X136780952Y-117254819D02*
X136685714Y-117207200D01*
X136685714Y-117207200D02*
X136638095Y-117159580D01*
X136638095Y-117159580D02*
X136590476Y-117064342D01*
X136590476Y-117064342D02*
X136590476Y-116969104D01*
X136590476Y-116969104D02*
X136638095Y-116873866D01*
X136638095Y-116873866D02*
X136685714Y-116826247D01*
X136685714Y-116826247D02*
X136780952Y-116778628D01*
X136780952Y-116778628D02*
X136971428Y-116731009D01*
X136971428Y-116731009D02*
X137066666Y-116683390D01*
X137066666Y-116683390D02*
X137114285Y-116635771D01*
X137114285Y-116635771D02*
X137161904Y-116540533D01*
X137161904Y-116540533D02*
X137161904Y-116445295D01*
X137161904Y-116445295D02*
X137114285Y-116350057D01*
X137114285Y-116350057D02*
X137066666Y-116302438D01*
X137066666Y-116302438D02*
X136971428Y-116254819D01*
X136971428Y-116254819D02*
X136733333Y-116254819D01*
X136733333Y-116254819D02*
X136590476Y-116302438D01*
X135638095Y-117254819D02*
X136209523Y-117254819D01*
X135923809Y-117254819D02*
X135923809Y-116254819D01*
X135923809Y-116254819D02*
X136019047Y-116397676D01*
X136019047Y-116397676D02*
X136114285Y-116492914D01*
X136114285Y-116492914D02*
X136209523Y-116540533D01*
X115966666Y-98754819D02*
X116299999Y-98278628D01*
X116538094Y-98754819D02*
X116538094Y-97754819D01*
X116538094Y-97754819D02*
X116157142Y-97754819D01*
X116157142Y-97754819D02*
X116061904Y-97802438D01*
X116061904Y-97802438D02*
X116014285Y-97850057D01*
X116014285Y-97850057D02*
X115966666Y-97945295D01*
X115966666Y-97945295D02*
X115966666Y-98088152D01*
X115966666Y-98088152D02*
X116014285Y-98183390D01*
X116014285Y-98183390D02*
X116061904Y-98231009D01*
X116061904Y-98231009D02*
X116157142Y-98278628D01*
X116157142Y-98278628D02*
X116538094Y-98278628D01*
X115633332Y-97754819D02*
X114966666Y-97754819D01*
X114966666Y-97754819D02*
X115395237Y-98754819D01*
X108475238Y-98754819D02*
X109046666Y-98754819D01*
X108760952Y-98754819D02*
X108760952Y-97754819D01*
X108760952Y-97754819D02*
X108856190Y-97897676D01*
X108856190Y-97897676D02*
X108951428Y-97992914D01*
X108951428Y-97992914D02*
X109046666Y-98040533D01*
X107618095Y-97754819D02*
X107808571Y-97754819D01*
X107808571Y-97754819D02*
X107903809Y-97802438D01*
X107903809Y-97802438D02*
X107951428Y-97850057D01*
X107951428Y-97850057D02*
X108046666Y-97992914D01*
X108046666Y-97992914D02*
X108094285Y-98183390D01*
X108094285Y-98183390D02*
X108094285Y-98564342D01*
X108094285Y-98564342D02*
X108046666Y-98659580D01*
X108046666Y-98659580D02*
X107999047Y-98707200D01*
X107999047Y-98707200D02*
X107903809Y-98754819D01*
X107903809Y-98754819D02*
X107713333Y-98754819D01*
X107713333Y-98754819D02*
X107618095Y-98707200D01*
X107618095Y-98707200D02*
X107570476Y-98659580D01*
X107570476Y-98659580D02*
X107522857Y-98564342D01*
X107522857Y-98564342D02*
X107522857Y-98326247D01*
X107522857Y-98326247D02*
X107570476Y-98231009D01*
X107570476Y-98231009D02*
X107618095Y-98183390D01*
X107618095Y-98183390D02*
X107713333Y-98135771D01*
X107713333Y-98135771D02*
X107903809Y-98135771D01*
X107903809Y-98135771D02*
X107999047Y-98183390D01*
X107999047Y-98183390D02*
X108046666Y-98231009D01*
X108046666Y-98231009D02*
X108094285Y-98326247D01*
X107094285Y-98754819D02*
X107094285Y-97754819D01*
X106999047Y-98373866D02*
X106713333Y-98754819D01*
X106713333Y-98088152D02*
X107094285Y-98469104D01*
X116166666Y-102754819D02*
X116499999Y-102278628D01*
X116738094Y-102754819D02*
X116738094Y-101754819D01*
X116738094Y-101754819D02*
X116357142Y-101754819D01*
X116357142Y-101754819D02*
X116261904Y-101802438D01*
X116261904Y-101802438D02*
X116214285Y-101850057D01*
X116214285Y-101850057D02*
X116166666Y-101945295D01*
X116166666Y-101945295D02*
X116166666Y-102088152D01*
X116166666Y-102088152D02*
X116214285Y-102183390D01*
X116214285Y-102183390D02*
X116261904Y-102231009D01*
X116261904Y-102231009D02*
X116357142Y-102278628D01*
X116357142Y-102278628D02*
X116738094Y-102278628D01*
X115309523Y-101754819D02*
X115499999Y-101754819D01*
X115499999Y-101754819D02*
X115595237Y-101802438D01*
X115595237Y-101802438D02*
X115642856Y-101850057D01*
X115642856Y-101850057D02*
X115738094Y-101992914D01*
X115738094Y-101992914D02*
X115785713Y-102183390D01*
X115785713Y-102183390D02*
X115785713Y-102564342D01*
X115785713Y-102564342D02*
X115738094Y-102659580D01*
X115738094Y-102659580D02*
X115690475Y-102707200D01*
X115690475Y-102707200D02*
X115595237Y-102754819D01*
X115595237Y-102754819D02*
X115404761Y-102754819D01*
X115404761Y-102754819D02*
X115309523Y-102707200D01*
X115309523Y-102707200D02*
X115261904Y-102659580D01*
X115261904Y-102659580D02*
X115214285Y-102564342D01*
X115214285Y-102564342D02*
X115214285Y-102326247D01*
X115214285Y-102326247D02*
X115261904Y-102231009D01*
X115261904Y-102231009D02*
X115309523Y-102183390D01*
X115309523Y-102183390D02*
X115404761Y-102135771D01*
X115404761Y-102135771D02*
X115595237Y-102135771D01*
X115595237Y-102135771D02*
X115690475Y-102183390D01*
X115690475Y-102183390D02*
X115738094Y-102231009D01*
X115738094Y-102231009D02*
X115785713Y-102326247D01*
X108475238Y-102854819D02*
X109046666Y-102854819D01*
X108760952Y-102854819D02*
X108760952Y-101854819D01*
X108760952Y-101854819D02*
X108856190Y-101997676D01*
X108856190Y-101997676D02*
X108951428Y-102092914D01*
X108951428Y-102092914D02*
X109046666Y-102140533D01*
X107856190Y-101854819D02*
X107760952Y-101854819D01*
X107760952Y-101854819D02*
X107665714Y-101902438D01*
X107665714Y-101902438D02*
X107618095Y-101950057D01*
X107618095Y-101950057D02*
X107570476Y-102045295D01*
X107570476Y-102045295D02*
X107522857Y-102235771D01*
X107522857Y-102235771D02*
X107522857Y-102473866D01*
X107522857Y-102473866D02*
X107570476Y-102664342D01*
X107570476Y-102664342D02*
X107618095Y-102759580D01*
X107618095Y-102759580D02*
X107665714Y-102807200D01*
X107665714Y-102807200D02*
X107760952Y-102854819D01*
X107760952Y-102854819D02*
X107856190Y-102854819D01*
X107856190Y-102854819D02*
X107951428Y-102807200D01*
X107951428Y-102807200D02*
X107999047Y-102759580D01*
X107999047Y-102759580D02*
X108046666Y-102664342D01*
X108046666Y-102664342D02*
X108094285Y-102473866D01*
X108094285Y-102473866D02*
X108094285Y-102235771D01*
X108094285Y-102235771D02*
X108046666Y-102045295D01*
X108046666Y-102045295D02*
X107999047Y-101950057D01*
X107999047Y-101950057D02*
X107951428Y-101902438D01*
X107951428Y-101902438D02*
X107856190Y-101854819D01*
X106522857Y-102854819D02*
X106856190Y-102378628D01*
X107094285Y-102854819D02*
X107094285Y-101854819D01*
X107094285Y-101854819D02*
X106713333Y-101854819D01*
X106713333Y-101854819D02*
X106618095Y-101902438D01*
X106618095Y-101902438D02*
X106570476Y-101950057D01*
X106570476Y-101950057D02*
X106522857Y-102045295D01*
X106522857Y-102045295D02*
X106522857Y-102188152D01*
X106522857Y-102188152D02*
X106570476Y-102283390D01*
X106570476Y-102283390D02*
X106618095Y-102331009D01*
X106618095Y-102331009D02*
X106713333Y-102378628D01*
X106713333Y-102378628D02*
X107094285Y-102378628D01*
X116166666Y-106854819D02*
X116499999Y-106378628D01*
X116738094Y-106854819D02*
X116738094Y-105854819D01*
X116738094Y-105854819D02*
X116357142Y-105854819D01*
X116357142Y-105854819D02*
X116261904Y-105902438D01*
X116261904Y-105902438D02*
X116214285Y-105950057D01*
X116214285Y-105950057D02*
X116166666Y-106045295D01*
X116166666Y-106045295D02*
X116166666Y-106188152D01*
X116166666Y-106188152D02*
X116214285Y-106283390D01*
X116214285Y-106283390D02*
X116261904Y-106331009D01*
X116261904Y-106331009D02*
X116357142Y-106378628D01*
X116357142Y-106378628D02*
X116738094Y-106378628D01*
X115261904Y-105854819D02*
X115738094Y-105854819D01*
X115738094Y-105854819D02*
X115785713Y-106331009D01*
X115785713Y-106331009D02*
X115738094Y-106283390D01*
X115738094Y-106283390D02*
X115642856Y-106235771D01*
X115642856Y-106235771D02*
X115404761Y-106235771D01*
X115404761Y-106235771D02*
X115309523Y-106283390D01*
X115309523Y-106283390D02*
X115261904Y-106331009D01*
X115261904Y-106331009D02*
X115214285Y-106426247D01*
X115214285Y-106426247D02*
X115214285Y-106664342D01*
X115214285Y-106664342D02*
X115261904Y-106759580D01*
X115261904Y-106759580D02*
X115309523Y-106807200D01*
X115309523Y-106807200D02*
X115404761Y-106854819D01*
X115404761Y-106854819D02*
X115642856Y-106854819D01*
X115642856Y-106854819D02*
X115738094Y-106807200D01*
X115738094Y-106807200D02*
X115785713Y-106759580D01*
X108570476Y-106288152D02*
X108570476Y-106954819D01*
X108808571Y-105907200D02*
X109046666Y-106621485D01*
X109046666Y-106621485D02*
X108427619Y-106621485D01*
X108046666Y-106954819D02*
X108046666Y-105954819D01*
X107951428Y-106573866D02*
X107665714Y-106954819D01*
X107665714Y-106288152D02*
X108046666Y-106669104D01*
X107332380Y-105954819D02*
X106665714Y-105954819D01*
X106665714Y-105954819D02*
X107094285Y-106954819D01*
X116046666Y-110954819D02*
X116379999Y-110478628D01*
X116618094Y-110954819D02*
X116618094Y-109954819D01*
X116618094Y-109954819D02*
X116237142Y-109954819D01*
X116237142Y-109954819D02*
X116141904Y-110002438D01*
X116141904Y-110002438D02*
X116094285Y-110050057D01*
X116094285Y-110050057D02*
X116046666Y-110145295D01*
X116046666Y-110145295D02*
X116046666Y-110288152D01*
X116046666Y-110288152D02*
X116094285Y-110383390D01*
X116094285Y-110383390D02*
X116141904Y-110431009D01*
X116141904Y-110431009D02*
X116237142Y-110478628D01*
X116237142Y-110478628D02*
X116618094Y-110478628D01*
X115189523Y-110288152D02*
X115189523Y-110954819D01*
X115427618Y-109907200D02*
X115665713Y-110621485D01*
X115665713Y-110621485D02*
X115046666Y-110621485D01*
X109094284Y-110054819D02*
X108475237Y-110054819D01*
X108475237Y-110054819D02*
X108808570Y-110435771D01*
X108808570Y-110435771D02*
X108665713Y-110435771D01*
X108665713Y-110435771D02*
X108570475Y-110483390D01*
X108570475Y-110483390D02*
X108522856Y-110531009D01*
X108522856Y-110531009D02*
X108475237Y-110626247D01*
X108475237Y-110626247D02*
X108475237Y-110864342D01*
X108475237Y-110864342D02*
X108522856Y-110959580D01*
X108522856Y-110959580D02*
X108570475Y-111007200D01*
X108570475Y-111007200D02*
X108665713Y-111054819D01*
X108665713Y-111054819D02*
X108951427Y-111054819D01*
X108951427Y-111054819D02*
X109046665Y-111007200D01*
X109046665Y-111007200D02*
X109094284Y-110959580D01*
X107999046Y-111054819D02*
X107808570Y-111054819D01*
X107808570Y-111054819D02*
X107713332Y-111007200D01*
X107713332Y-111007200D02*
X107665713Y-110959580D01*
X107665713Y-110959580D02*
X107570475Y-110816723D01*
X107570475Y-110816723D02*
X107522856Y-110626247D01*
X107522856Y-110626247D02*
X107522856Y-110245295D01*
X107522856Y-110245295D02*
X107570475Y-110150057D01*
X107570475Y-110150057D02*
X107618094Y-110102438D01*
X107618094Y-110102438D02*
X107713332Y-110054819D01*
X107713332Y-110054819D02*
X107903808Y-110054819D01*
X107903808Y-110054819D02*
X107999046Y-110102438D01*
X107999046Y-110102438D02*
X108046665Y-110150057D01*
X108046665Y-110150057D02*
X108094284Y-110245295D01*
X108094284Y-110245295D02*
X108094284Y-110483390D01*
X108094284Y-110483390D02*
X108046665Y-110578628D01*
X108046665Y-110578628D02*
X107999046Y-110626247D01*
X107999046Y-110626247D02*
X107903808Y-110673866D01*
X107903808Y-110673866D02*
X107713332Y-110673866D01*
X107713332Y-110673866D02*
X107618094Y-110626247D01*
X107618094Y-110626247D02*
X107570475Y-110578628D01*
X107570475Y-110578628D02*
X107522856Y-110483390D01*
X106903808Y-110054819D02*
X106808570Y-110054819D01*
X106808570Y-110054819D02*
X106713332Y-110102438D01*
X106713332Y-110102438D02*
X106665713Y-110150057D01*
X106665713Y-110150057D02*
X106618094Y-110245295D01*
X106618094Y-110245295D02*
X106570475Y-110435771D01*
X106570475Y-110435771D02*
X106570475Y-110673866D01*
X106570475Y-110673866D02*
X106618094Y-110864342D01*
X106618094Y-110864342D02*
X106665713Y-110959580D01*
X106665713Y-110959580D02*
X106713332Y-111007200D01*
X106713332Y-111007200D02*
X106808570Y-111054819D01*
X106808570Y-111054819D02*
X106903808Y-111054819D01*
X106903808Y-111054819D02*
X106999046Y-111007200D01*
X106999046Y-111007200D02*
X107046665Y-110959580D01*
X107046665Y-110959580D02*
X107094284Y-110864342D01*
X107094284Y-110864342D02*
X107141903Y-110673866D01*
X107141903Y-110673866D02*
X107141903Y-110435771D01*
X107141903Y-110435771D02*
X107094284Y-110245295D01*
X107094284Y-110245295D02*
X107046665Y-110150057D01*
X107046665Y-110150057D02*
X106999046Y-110102438D01*
X106999046Y-110102438D02*
X106903808Y-110054819D01*
X106141903Y-111054819D02*
X106141903Y-110054819D01*
X106046665Y-110673866D02*
X105760951Y-111054819D01*
X105760951Y-110388152D02*
X106141903Y-110769104D01*
X116066666Y-115054819D02*
X116399999Y-114578628D01*
X116638094Y-115054819D02*
X116638094Y-114054819D01*
X116638094Y-114054819D02*
X116257142Y-114054819D01*
X116257142Y-114054819D02*
X116161904Y-114102438D01*
X116161904Y-114102438D02*
X116114285Y-114150057D01*
X116114285Y-114150057D02*
X116066666Y-114245295D01*
X116066666Y-114245295D02*
X116066666Y-114388152D01*
X116066666Y-114388152D02*
X116114285Y-114483390D01*
X116114285Y-114483390D02*
X116161904Y-114531009D01*
X116161904Y-114531009D02*
X116257142Y-114578628D01*
X116257142Y-114578628D02*
X116638094Y-114578628D01*
X115733332Y-114054819D02*
X115114285Y-114054819D01*
X115114285Y-114054819D02*
X115447618Y-114435771D01*
X115447618Y-114435771D02*
X115304761Y-114435771D01*
X115304761Y-114435771D02*
X115209523Y-114483390D01*
X115209523Y-114483390D02*
X115161904Y-114531009D01*
X115161904Y-114531009D02*
X115114285Y-114626247D01*
X115114285Y-114626247D02*
X115114285Y-114864342D01*
X115114285Y-114864342D02*
X115161904Y-114959580D01*
X115161904Y-114959580D02*
X115209523Y-115007200D01*
X115209523Y-115007200D02*
X115304761Y-115054819D01*
X115304761Y-115054819D02*
X115590475Y-115054819D01*
X115590475Y-115054819D02*
X115685713Y-115007200D01*
X115685713Y-115007200D02*
X115733332Y-114959580D01*
X108522856Y-114054819D02*
X108999046Y-114054819D01*
X108999046Y-114054819D02*
X109046665Y-114531009D01*
X109046665Y-114531009D02*
X108999046Y-114483390D01*
X108999046Y-114483390D02*
X108903808Y-114435771D01*
X108903808Y-114435771D02*
X108665713Y-114435771D01*
X108665713Y-114435771D02*
X108570475Y-114483390D01*
X108570475Y-114483390D02*
X108522856Y-114531009D01*
X108522856Y-114531009D02*
X108475237Y-114626247D01*
X108475237Y-114626247D02*
X108475237Y-114864342D01*
X108475237Y-114864342D02*
X108522856Y-114959580D01*
X108522856Y-114959580D02*
X108570475Y-115007200D01*
X108570475Y-115007200D02*
X108665713Y-115054819D01*
X108665713Y-115054819D02*
X108903808Y-115054819D01*
X108903808Y-115054819D02*
X108999046Y-115007200D01*
X108999046Y-115007200D02*
X109046665Y-114959580D01*
X107618094Y-114054819D02*
X107808570Y-114054819D01*
X107808570Y-114054819D02*
X107903808Y-114102438D01*
X107903808Y-114102438D02*
X107951427Y-114150057D01*
X107951427Y-114150057D02*
X108046665Y-114292914D01*
X108046665Y-114292914D02*
X108094284Y-114483390D01*
X108094284Y-114483390D02*
X108094284Y-114864342D01*
X108094284Y-114864342D02*
X108046665Y-114959580D01*
X108046665Y-114959580D02*
X107999046Y-115007200D01*
X107999046Y-115007200D02*
X107903808Y-115054819D01*
X107903808Y-115054819D02*
X107713332Y-115054819D01*
X107713332Y-115054819D02*
X107618094Y-115007200D01*
X107618094Y-115007200D02*
X107570475Y-114959580D01*
X107570475Y-114959580D02*
X107522856Y-114864342D01*
X107522856Y-114864342D02*
X107522856Y-114626247D01*
X107522856Y-114626247D02*
X107570475Y-114531009D01*
X107570475Y-114531009D02*
X107618094Y-114483390D01*
X107618094Y-114483390D02*
X107713332Y-114435771D01*
X107713332Y-114435771D02*
X107903808Y-114435771D01*
X107903808Y-114435771D02*
X107999046Y-114483390D01*
X107999046Y-114483390D02*
X108046665Y-114531009D01*
X108046665Y-114531009D02*
X108094284Y-114626247D01*
X106903808Y-114054819D02*
X106808570Y-114054819D01*
X106808570Y-114054819D02*
X106713332Y-114102438D01*
X106713332Y-114102438D02*
X106665713Y-114150057D01*
X106665713Y-114150057D02*
X106618094Y-114245295D01*
X106618094Y-114245295D02*
X106570475Y-114435771D01*
X106570475Y-114435771D02*
X106570475Y-114673866D01*
X106570475Y-114673866D02*
X106618094Y-114864342D01*
X106618094Y-114864342D02*
X106665713Y-114959580D01*
X106665713Y-114959580D02*
X106713332Y-115007200D01*
X106713332Y-115007200D02*
X106808570Y-115054819D01*
X106808570Y-115054819D02*
X106903808Y-115054819D01*
X106903808Y-115054819D02*
X106999046Y-115007200D01*
X106999046Y-115007200D02*
X107046665Y-114959580D01*
X107046665Y-114959580D02*
X107094284Y-114864342D01*
X107094284Y-114864342D02*
X107141903Y-114673866D01*
X107141903Y-114673866D02*
X107141903Y-114435771D01*
X107141903Y-114435771D02*
X107094284Y-114245295D01*
X107094284Y-114245295D02*
X107046665Y-114150057D01*
X107046665Y-114150057D02*
X106999046Y-114102438D01*
X106999046Y-114102438D02*
X106903808Y-114054819D01*
X106141903Y-115054819D02*
X106141903Y-114054819D01*
X106046665Y-114673866D02*
X105760951Y-115054819D01*
X105760951Y-114388152D02*
X106141903Y-114769104D01*
X116066666Y-94754819D02*
X116399999Y-94278628D01*
X116638094Y-94754819D02*
X116638094Y-93754819D01*
X116638094Y-93754819D02*
X116257142Y-93754819D01*
X116257142Y-93754819D02*
X116161904Y-93802438D01*
X116161904Y-93802438D02*
X116114285Y-93850057D01*
X116114285Y-93850057D02*
X116066666Y-93945295D01*
X116066666Y-93945295D02*
X116066666Y-94088152D01*
X116066666Y-94088152D02*
X116114285Y-94183390D01*
X116114285Y-94183390D02*
X116161904Y-94231009D01*
X116161904Y-94231009D02*
X116257142Y-94278628D01*
X116257142Y-94278628D02*
X116638094Y-94278628D01*
X115114285Y-94754819D02*
X115685713Y-94754819D01*
X115399999Y-94754819D02*
X115399999Y-93754819D01*
X115399999Y-93754819D02*
X115495237Y-93897676D01*
X115495237Y-93897676D02*
X115590475Y-93992914D01*
X115590475Y-93992914D02*
X115685713Y-94040533D01*
X108475238Y-94954819D02*
X109046666Y-94954819D01*
X108760952Y-94954819D02*
X108760952Y-93954819D01*
X108760952Y-93954819D02*
X108856190Y-94097676D01*
X108856190Y-94097676D02*
X108951428Y-94192914D01*
X108951428Y-94192914D02*
X109046666Y-94240533D01*
X108094285Y-94050057D02*
X108046666Y-94002438D01*
X108046666Y-94002438D02*
X107951428Y-93954819D01*
X107951428Y-93954819D02*
X107713333Y-93954819D01*
X107713333Y-93954819D02*
X107618095Y-94002438D01*
X107618095Y-94002438D02*
X107570476Y-94050057D01*
X107570476Y-94050057D02*
X107522857Y-94145295D01*
X107522857Y-94145295D02*
X107522857Y-94240533D01*
X107522857Y-94240533D02*
X107570476Y-94383390D01*
X107570476Y-94383390D02*
X108141904Y-94954819D01*
X108141904Y-94954819D02*
X107522857Y-94954819D01*
X107094285Y-94954819D02*
X107094285Y-93954819D01*
X106999047Y-94573866D02*
X106713333Y-94954819D01*
X106713333Y-94288152D02*
X107094285Y-94669104D01*
X131852857Y-92534819D02*
X132424285Y-92534819D01*
X132138571Y-92534819D02*
X132138571Y-91534819D01*
X132138571Y-91534819D02*
X132233809Y-91677676D01*
X132233809Y-91677676D02*
X132329047Y-91772914D01*
X132329047Y-91772914D02*
X132424285Y-91820533D01*
X131424285Y-92534819D02*
X131424285Y-91534819D01*
X131424285Y-91534819D02*
X130852857Y-92534819D01*
X130852857Y-92534819D02*
X130852857Y-91534819D01*
X129948095Y-91868152D02*
X129948095Y-92534819D01*
X130186190Y-91487200D02*
X130424285Y-92201485D01*
X130424285Y-92201485D02*
X129805238Y-92201485D01*
X128900476Y-92534819D02*
X129471904Y-92534819D01*
X129186190Y-92534819D02*
X129186190Y-91534819D01*
X129186190Y-91534819D02*
X129281428Y-91677676D01*
X129281428Y-91677676D02*
X129376666Y-91772914D01*
X129376666Y-91772914D02*
X129471904Y-91820533D01*
X128043333Y-91868152D02*
X128043333Y-92534819D01*
X128281428Y-91487200D02*
X128519523Y-92201485D01*
X128519523Y-92201485D02*
X127900476Y-92201485D01*
X127376666Y-91963390D02*
X127471904Y-91915771D01*
X127471904Y-91915771D02*
X127519523Y-91868152D01*
X127519523Y-91868152D02*
X127567142Y-91772914D01*
X127567142Y-91772914D02*
X127567142Y-91725295D01*
X127567142Y-91725295D02*
X127519523Y-91630057D01*
X127519523Y-91630057D02*
X127471904Y-91582438D01*
X127471904Y-91582438D02*
X127376666Y-91534819D01*
X127376666Y-91534819D02*
X127186190Y-91534819D01*
X127186190Y-91534819D02*
X127090952Y-91582438D01*
X127090952Y-91582438D02*
X127043333Y-91630057D01*
X127043333Y-91630057D02*
X126995714Y-91725295D01*
X126995714Y-91725295D02*
X126995714Y-91772914D01*
X126995714Y-91772914D02*
X127043333Y-91868152D01*
X127043333Y-91868152D02*
X127090952Y-91915771D01*
X127090952Y-91915771D02*
X127186190Y-91963390D01*
X127186190Y-91963390D02*
X127376666Y-91963390D01*
X127376666Y-91963390D02*
X127471904Y-92011009D01*
X127471904Y-92011009D02*
X127519523Y-92058628D01*
X127519523Y-92058628D02*
X127567142Y-92153866D01*
X127567142Y-92153866D02*
X127567142Y-92344342D01*
X127567142Y-92344342D02*
X127519523Y-92439580D01*
X127519523Y-92439580D02*
X127471904Y-92487200D01*
X127471904Y-92487200D02*
X127376666Y-92534819D01*
X127376666Y-92534819D02*
X127186190Y-92534819D01*
X127186190Y-92534819D02*
X127090952Y-92487200D01*
X127090952Y-92487200D02*
X127043333Y-92439580D01*
X127043333Y-92439580D02*
X126995714Y-92344342D01*
X126995714Y-92344342D02*
X126995714Y-92153866D01*
X126995714Y-92153866D02*
X127043333Y-92058628D01*
X127043333Y-92058628D02*
X127090952Y-92011009D01*
X127090952Y-92011009D02*
X127186190Y-91963390D01*
X126161904Y-96854819D02*
X126161904Y-95854819D01*
X125590476Y-96854819D02*
X126019047Y-96283390D01*
X125590476Y-95854819D02*
X126161904Y-96426247D01*
X141116666Y-100088152D02*
X141116666Y-100754819D01*
X141354761Y-99707200D02*
X141592856Y-100421485D01*
X141592856Y-100421485D02*
X140973809Y-100421485D01*
X140688094Y-99754819D02*
X140021428Y-99754819D01*
X140021428Y-99754819D02*
X140449999Y-100754819D01*
X139211904Y-100088152D02*
X139211904Y-100754819D01*
X139640475Y-100088152D02*
X139640475Y-100611961D01*
X139640475Y-100611961D02*
X139592856Y-100707200D01*
X139592856Y-100707200D02*
X139497618Y-100754819D01*
X139497618Y-100754819D02*
X139354761Y-100754819D01*
X139354761Y-100754819D02*
X139259523Y-100707200D01*
X139259523Y-100707200D02*
X139211904Y-100659580D01*
X138402380Y-100231009D02*
X138735713Y-100231009D01*
X138735713Y-100754819D02*
X138735713Y-99754819D01*
X138735713Y-99754819D02*
X138259523Y-99754819D01*
D11*
%TO.C,G\u002A\u002A\u002A*%
X125400000Y-79175000D02*
X127600000Y-80350000D01*
X127600000Y-80350000D02*
X126025000Y-81250000D01*
X132625000Y-84600000D02*
X131300000Y-85075000D01*
X129725000Y-84125000D02*
X129950000Y-84750000D01*
X129950000Y-84750000D02*
X132625000Y-84600000D01*
X124400000Y-82600000D02*
X126225000Y-83500000D01*
X122725000Y-82825000D02*
X124400000Y-82600000D01*
X121100000Y-81700000D02*
X122725000Y-82825000D01*
X132625000Y-84600000D02*
X128725000Y-80425000D01*
X132625000Y-84600000D02*
X129725000Y-84125000D01*
D12*
X122775000Y-83850000D02*
X123225000Y-83850000D01*
D11*
X124275000Y-82775000D02*
X123875000Y-83050000D01*
X125050000Y-83375000D02*
X124275000Y-82775000D01*
D12*
X123725000Y-83400000D02*
X123725000Y-85850000D01*
X127025000Y-85300000D02*
X126575000Y-85300000D01*
X127525000Y-83400000D02*
X127575000Y-85850000D01*
D11*
X128725000Y-80425000D02*
X127700000Y-80175000D01*
X116300000Y-82325000D02*
X116725000Y-82000000D01*
D12*
X127025000Y-84800000D02*
X127025000Y-85300000D01*
D11*
X115725000Y-81850000D02*
X116300000Y-82325000D01*
D12*
X122375000Y-85850000D02*
X121975000Y-85850000D01*
X124175000Y-85850000D02*
X124175000Y-85350000D01*
X123275000Y-84900000D02*
X123125000Y-84900000D01*
X123725000Y-85850000D02*
X123275000Y-85850000D01*
D11*
X124650000Y-80600000D02*
X121175000Y-78975000D01*
X119950000Y-81475000D02*
X119250000Y-82050000D01*
X124650000Y-80600000D02*
X126975000Y-81750000D01*
X121175000Y-78975000D02*
X121100000Y-81700000D01*
D12*
X117450000Y-85325000D02*
X117000000Y-85325000D01*
X121875000Y-85850000D02*
X122575000Y-84900000D01*
X123225000Y-83850000D02*
X123225000Y-84400000D01*
X117450000Y-84325000D02*
X117150000Y-84325000D01*
D11*
X118025000Y-79950000D02*
X119825000Y-80000000D01*
X128800000Y-84500000D02*
X129175000Y-84675000D01*
X128275000Y-83575000D02*
X121175000Y-78975000D01*
X119825000Y-80000000D02*
X117675000Y-81125000D01*
X130225000Y-85125000D02*
X129650000Y-84325000D01*
X119250000Y-82050000D02*
X120925000Y-82150000D01*
D12*
X117450000Y-83875000D02*
X117450000Y-84325000D01*
X127025000Y-83800000D02*
X126775000Y-83800000D01*
X123225000Y-84400000D02*
X122725000Y-84400000D01*
X125025000Y-85350000D02*
X125025000Y-84800000D01*
X124175000Y-85350000D02*
X125025000Y-85350000D01*
X128475000Y-84250000D02*
X128475000Y-84900000D01*
D11*
X123875000Y-83050000D02*
X124850000Y-83400000D01*
X128725000Y-80425000D02*
X126975000Y-81750000D01*
X129125000Y-84100000D02*
X128800000Y-84500000D01*
D12*
X126625000Y-83413605D02*
X127525000Y-83400000D01*
D11*
X129675000Y-84850000D02*
X130225000Y-85125000D01*
X116725000Y-82000000D02*
X115725000Y-81850000D01*
D12*
X117450000Y-83825000D02*
X117200000Y-83825000D01*
X127024999Y-84795050D02*
X126624999Y-84795050D01*
X117050000Y-83438605D02*
X117950000Y-83425000D01*
D11*
X126975000Y-81750000D02*
X132625000Y-84600000D01*
D12*
X119225000Y-84125000D02*
X119500000Y-84875000D01*
X119000000Y-84875000D02*
X119225000Y-84125000D01*
X125425000Y-85850000D02*
X124175000Y-85850000D01*
X122616269Y-83394594D02*
X123725000Y-83400000D01*
X117449999Y-84820050D02*
X117049999Y-84820050D01*
X117450000Y-84825000D02*
X117450000Y-85325000D01*
X118000000Y-85875000D02*
X116800000Y-85875000D01*
D11*
X131300000Y-85075000D02*
X130475000Y-84725000D01*
D12*
X127575000Y-85850000D02*
X126375000Y-85850000D01*
X129175000Y-84250000D02*
X129175000Y-84950000D01*
D11*
X122275000Y-80600000D02*
X121700000Y-82100000D01*
X121150000Y-79375000D02*
X122275000Y-80600000D01*
X120950000Y-82150000D02*
X119950000Y-81475000D01*
D12*
X117950000Y-83425000D02*
X118000000Y-85875000D01*
D11*
X125400000Y-79175000D02*
X124650000Y-80600000D01*
X127700000Y-80175000D02*
X126975000Y-81750000D01*
X117675000Y-81125000D02*
X118025000Y-79950000D01*
D12*
X123275000Y-85850000D02*
X123275000Y-84900000D01*
X121975000Y-85850000D02*
X121875000Y-85850000D01*
X123125000Y-84900000D02*
X122375000Y-85850000D01*
X120450000Y-85400000D02*
X120450000Y-85850000D01*
X118925000Y-85275000D02*
X118675000Y-85875000D01*
X119775000Y-85875000D02*
X119525000Y-85275000D01*
X125025000Y-83900000D02*
X124175000Y-83900000D01*
X127025000Y-84300000D02*
X126725000Y-84300000D01*
X119500000Y-84875000D02*
X119000000Y-84875000D01*
X124175000Y-83400000D02*
X125475000Y-83400000D01*
X119375000Y-83425000D02*
X120275000Y-85875000D01*
X125025000Y-84800000D02*
X124375000Y-84800000D01*
X124175000Y-83900000D02*
X124175000Y-83400000D01*
X119775000Y-85875000D02*
X120275000Y-85875000D01*
D11*
X126975000Y-81750000D02*
X128450000Y-83475000D01*
D12*
X121225000Y-83400000D02*
X121200000Y-85400000D01*
X121700000Y-85850000D02*
X121675000Y-83400000D01*
X124375000Y-84800000D02*
X124375000Y-84350000D01*
X118675000Y-85875000D02*
X118275000Y-85875000D01*
X119050000Y-83425000D02*
X119375000Y-83425000D01*
X124375000Y-84350000D02*
X125025000Y-84350000D01*
X127025000Y-83850000D02*
X127025000Y-84300000D01*
X125025000Y-84350000D02*
X125025000Y-83900000D01*
X118275000Y-85875000D02*
X119050000Y-83425000D01*
X125525000Y-85850000D02*
X125425000Y-85850000D01*
X125475000Y-83400000D02*
X125525000Y-85850000D01*
X127975000Y-84250000D02*
X127975000Y-84950000D01*
X129675000Y-84950000D02*
X129675000Y-84250000D01*
X121675000Y-83400000D02*
X121225000Y-83400000D01*
D13*
X138172361Y-138845226D02*
X138108542Y-138909045D01*
X138044723Y-138845226D01*
X138108542Y-138781407D01*
X138172361Y-138845226D01*
G36*
X138172361Y-138845226D02*
G01*
X138108542Y-138909045D01*
X138044723Y-138845226D01*
X138108542Y-138781407D01*
X138172361Y-138845226D01*
G37*
D12*
X120450000Y-85850000D02*
X121700000Y-85850000D01*
X121200000Y-85400000D02*
X120450000Y-85400000D01*
X119525000Y-85275000D02*
X118925000Y-85275000D01*
X126725000Y-84300000D02*
G75*
G02*
X126785634Y-83807464I0J250000D01*
G01*
X126175001Y-84499999D02*
G75*
G02*
X126625000Y-83413605I449999J449999D01*
G01*
X127975000Y-84250000D02*
G75*
G02*
X129675000Y-84250000I850000J0D01*
G01*
X126575001Y-85299999D02*
G75*
G02*
X126624999Y-84795050I49999J249999D01*
G01*
X116600001Y-84524999D02*
G75*
G02*
X117050000Y-83438605I449999J449999D01*
G01*
X126375001Y-85849999D02*
G75*
G02*
X126198744Y-84541063I249999J699999D01*
G01*
X117150000Y-84325000D02*
G75*
G02*
X117210634Y-83832464I0J250000D01*
G01*
X117000001Y-85324999D02*
G75*
G02*
X117049999Y-84820050I49999J249999D01*
G01*
X128475000Y-84250000D02*
G75*
G02*
X129175000Y-84250000I350000J0D01*
G01*
X129175000Y-84950000D02*
G75*
G02*
X128475000Y-84950000I-350000J0D01*
G01*
X122725001Y-84399999D02*
G75*
G02*
X122725001Y-83850001I124999J274999D01*
G01*
X116800001Y-85874999D02*
G75*
G02*
X116623744Y-84566063I249999J699999D01*
G01*
X129675000Y-84950000D02*
G75*
G02*
X127975000Y-84950000I-850000J0D01*
G01*
X122600001Y-84849999D02*
G75*
G02*
X122616269Y-83394594I249999J724999D01*
G01*
%TO.C,U1*%
X127460000Y-113510000D02*
X127460000Y-103230000D01*
X127460000Y-103230000D02*
X132760000Y-103230000D01*
X129110000Y-113510000D02*
X127460000Y-113510000D01*
X132760000Y-113510000D02*
X131110000Y-113510000D01*
X132760000Y-103230000D02*
X132760000Y-113510000D01*
X129110000Y-113510000D02*
G75*
G02*
X131110000Y-113510000I1000000J0D01*
G01*
%TO.C,S1*%
X141506600Y-121587600D02*
X141506600Y-111630800D01*
X137569600Y-121587600D02*
X141506600Y-121613000D01*
X141506600Y-111630800D02*
X137569600Y-111630800D01*
X137569600Y-111630800D02*
X137569600Y-121587600D01*
%TO.C,R7*%
X111840000Y-98350000D02*
X112610000Y-98350000D01*
X119920000Y-98350000D02*
X119150000Y-98350000D01*
X112610000Y-99720000D02*
X119150000Y-99720000D01*
X119150000Y-96980000D01*
X112610000Y-96980000D01*
X112610000Y-99720000D01*
%TO.C,R6*%
X111840000Y-102400000D02*
X112610000Y-102400000D01*
X119920000Y-102400000D02*
X119150000Y-102400000D01*
X112610000Y-103770000D02*
X119150000Y-103770000D01*
X119150000Y-101030000D01*
X112610000Y-101030000D01*
X112610000Y-103770000D01*
%TO.C,R5*%
X111840000Y-106450000D02*
X112610000Y-106450000D01*
X119920000Y-106450000D02*
X119150000Y-106450000D01*
X112610000Y-107820000D02*
X119150000Y-107820000D01*
X119150000Y-105080000D01*
X112610000Y-105080000D01*
X112610000Y-107820000D01*
%TO.C,R4*%
X111840000Y-110500000D02*
X112610000Y-110500000D01*
X119920000Y-110500000D02*
X119150000Y-110500000D01*
X112610000Y-111870000D02*
X119150000Y-111870000D01*
X119150000Y-109130000D01*
X112610000Y-109130000D01*
X112610000Y-111870000D01*
%TO.C,R3*%
X111840000Y-114550000D02*
X112610000Y-114550000D01*
X119920000Y-114550000D02*
X119150000Y-114550000D01*
X112610000Y-115920000D02*
X119150000Y-115920000D01*
X119150000Y-113180000D01*
X112610000Y-113180000D01*
X112610000Y-115920000D01*
%TO.C,R1*%
X111840000Y-94300000D02*
X112610000Y-94300000D01*
X119920000Y-94300000D02*
X119150000Y-94300000D01*
X112610000Y-95670000D02*
X119150000Y-95670000D01*
X119150000Y-92930000D01*
X112610000Y-92930000D01*
X112610000Y-95670000D01*
%TO.C,D3*%
X126940000Y-94200000D02*
X127590000Y-94200000D01*
X127590000Y-95320000D02*
X127590000Y-93080000D01*
X127590000Y-93080000D02*
X131830000Y-93080000D01*
X128190000Y-95320000D02*
X128190000Y-93080000D01*
X128310000Y-95320000D02*
X128310000Y-93080000D01*
X128430000Y-95320000D02*
X128430000Y-93080000D01*
X131830000Y-95320000D02*
X127590000Y-95320000D01*
X131830000Y-93080000D02*
X131830000Y-95320000D01*
X132480000Y-94200000D02*
X131830000Y-94200000D01*
%TO.C,C1*%
X135685000Y-104725000D02*
X136315000Y-104725000D01*
X136000000Y-105040000D02*
X136000000Y-104410000D01*
X139950000Y-107930000D02*
X139950000Y-101470000D01*
X139990000Y-107930000D02*
X139990000Y-101470000D01*
X140030000Y-107930000D02*
X140030000Y-101470000D01*
X140070000Y-107928000D02*
X140070000Y-101472000D01*
X140110000Y-107927000D02*
X140110000Y-101473000D01*
X140150000Y-107924000D02*
X140150000Y-101476000D01*
X140190000Y-107922000D02*
X140190000Y-105740000D01*
X140190000Y-103660000D02*
X140190000Y-101478000D01*
X140230000Y-107918000D02*
X140230000Y-105740000D01*
X140230000Y-103660000D02*
X140230000Y-101482000D01*
X140270000Y-107915000D02*
X140270000Y-105740000D01*
X140270000Y-103660000D02*
X140270000Y-101485000D01*
X140310000Y-107911000D02*
X140310000Y-105740000D01*
X140310000Y-103660000D02*
X140310000Y-101489000D01*
X140350000Y-107906000D02*
X140350000Y-105740000D01*
X140350000Y-103660000D02*
X140350000Y-101494000D01*
X140390000Y-107901000D02*
X140390000Y-105740000D01*
X140390000Y-103660000D02*
X140390000Y-101499000D01*
X140430000Y-107895000D02*
X140430000Y-105740000D01*
X140430000Y-103660000D02*
X140430000Y-101505000D01*
X140470000Y-107889000D02*
X140470000Y-105740000D01*
X140470000Y-103660000D02*
X140470000Y-101511000D01*
X140510000Y-107882000D02*
X140510000Y-105740000D01*
X140510000Y-103660000D02*
X140510000Y-101518000D01*
X140550000Y-107875000D02*
X140550000Y-105740000D01*
X140550000Y-103660000D02*
X140550000Y-101525000D01*
X140590000Y-107867000D02*
X140590000Y-105740000D01*
X140590000Y-103660000D02*
X140590000Y-101533000D01*
X140630000Y-107859000D02*
X140630000Y-105740000D01*
X140630000Y-103660000D02*
X140630000Y-101541000D01*
X140671000Y-107850000D02*
X140671000Y-105740000D01*
X140671000Y-103660000D02*
X140671000Y-101550000D01*
X140711000Y-107841000D02*
X140711000Y-105740000D01*
X140711000Y-103660000D02*
X140711000Y-101559000D01*
X140751000Y-107831000D02*
X140751000Y-105740000D01*
X140751000Y-103660000D02*
X140751000Y-101569000D01*
X140791000Y-107821000D02*
X140791000Y-105740000D01*
X140791000Y-103660000D02*
X140791000Y-101579000D01*
X140831000Y-107810000D02*
X140831000Y-105740000D01*
X140831000Y-103660000D02*
X140831000Y-101590000D01*
X140871000Y-107798000D02*
X140871000Y-105740000D01*
X140871000Y-103660000D02*
X140871000Y-101602000D01*
X140911000Y-107786000D02*
X140911000Y-105740000D01*
X140911000Y-103660000D02*
X140911000Y-101614000D01*
X140951000Y-107774000D02*
X140951000Y-105740000D01*
X140951000Y-103660000D02*
X140951000Y-101626000D01*
X140991000Y-107761000D02*
X140991000Y-105740000D01*
X140991000Y-103660000D02*
X140991000Y-101639000D01*
X141031000Y-107747000D02*
X141031000Y-105740000D01*
X141031000Y-103660000D02*
X141031000Y-101653000D01*
X141071000Y-107733000D02*
X141071000Y-105740000D01*
X141071000Y-103660000D02*
X141071000Y-101667000D01*
X141111000Y-107718000D02*
X141111000Y-105740000D01*
X141111000Y-103660000D02*
X141111000Y-101682000D01*
X141151000Y-107702000D02*
X141151000Y-105740000D01*
X141151000Y-103660000D02*
X141151000Y-101698000D01*
X141191000Y-107686000D02*
X141191000Y-105740000D01*
X141191000Y-103660000D02*
X141191000Y-101714000D01*
X141231000Y-107670000D02*
X141231000Y-105740000D01*
X141231000Y-103660000D02*
X141231000Y-101730000D01*
X141271000Y-107652000D02*
X141271000Y-105740000D01*
X141271000Y-103660000D02*
X141271000Y-101748000D01*
X141311000Y-107634000D02*
X141311000Y-105740000D01*
X141311000Y-103660000D02*
X141311000Y-101766000D01*
X141351000Y-107616000D02*
X141351000Y-105740000D01*
X141351000Y-103660000D02*
X141351000Y-101784000D01*
X141391000Y-107596000D02*
X141391000Y-105740000D01*
X141391000Y-103660000D02*
X141391000Y-101804000D01*
X141431000Y-107576000D02*
X141431000Y-105740000D01*
X141431000Y-103660000D02*
X141431000Y-101824000D01*
X141471000Y-107556000D02*
X141471000Y-105740000D01*
X141471000Y-103660000D02*
X141471000Y-101844000D01*
X141511000Y-107534000D02*
X141511000Y-105740000D01*
X141511000Y-103660000D02*
X141511000Y-101866000D01*
X141551000Y-107512000D02*
X141551000Y-105740000D01*
X141551000Y-103660000D02*
X141551000Y-101888000D01*
X141591000Y-107490000D02*
X141591000Y-105740000D01*
X141591000Y-103660000D02*
X141591000Y-101910000D01*
X141631000Y-107466000D02*
X141631000Y-105740000D01*
X141631000Y-103660000D02*
X141631000Y-101934000D01*
X141671000Y-107442000D02*
X141671000Y-105740000D01*
X141671000Y-103660000D02*
X141671000Y-101958000D01*
X141711000Y-107416000D02*
X141711000Y-105740000D01*
X141711000Y-103660000D02*
X141711000Y-101984000D01*
X141751000Y-107390000D02*
X141751000Y-105740000D01*
X141751000Y-103660000D02*
X141751000Y-102010000D01*
X141791000Y-107364000D02*
X141791000Y-105740000D01*
X141791000Y-103660000D02*
X141791000Y-102036000D01*
X141831000Y-107336000D02*
X141831000Y-105740000D01*
X141831000Y-103660000D02*
X141831000Y-102064000D01*
X141871000Y-107307000D02*
X141871000Y-105740000D01*
X141871000Y-103660000D02*
X141871000Y-102093000D01*
X141911000Y-107278000D02*
X141911000Y-105740000D01*
X141911000Y-103660000D02*
X141911000Y-102122000D01*
X141951000Y-107248000D02*
X141951000Y-105740000D01*
X141951000Y-103660000D02*
X141951000Y-102152000D01*
X141991000Y-107216000D02*
X141991000Y-105740000D01*
X141991000Y-103660000D02*
X141991000Y-102184000D01*
X142031000Y-107184000D02*
X142031000Y-105740000D01*
X142031000Y-103660000D02*
X142031000Y-102216000D01*
X142071000Y-107150000D02*
X142071000Y-105740000D01*
X142071000Y-103660000D02*
X142071000Y-102250000D01*
X142111000Y-107116000D02*
X142111000Y-105740000D01*
X142111000Y-103660000D02*
X142111000Y-102284000D01*
X142151000Y-107080000D02*
X142151000Y-105740000D01*
X142151000Y-103660000D02*
X142151000Y-102320000D01*
X142191000Y-107043000D02*
X142191000Y-105740000D01*
X142191000Y-103660000D02*
X142191000Y-102357000D01*
X142231000Y-107005000D02*
X142231000Y-105740000D01*
X142231000Y-103660000D02*
X142231000Y-102395000D01*
X142271000Y-106965000D02*
X142271000Y-102435000D01*
X142311000Y-106924000D02*
X142311000Y-102476000D01*
X142351000Y-106882000D02*
X142351000Y-102518000D01*
X142391000Y-106837000D02*
X142391000Y-102563000D01*
X142431000Y-106792000D02*
X142431000Y-102608000D01*
X142471000Y-106744000D02*
X142471000Y-102656000D01*
X142511000Y-106695000D02*
X142511000Y-102705000D01*
X142551000Y-106644000D02*
X142551000Y-102756000D01*
X142591000Y-106590000D02*
X142591000Y-102810000D01*
X142631000Y-106534000D02*
X142631000Y-102866000D01*
X142671000Y-106476000D02*
X142671000Y-102924000D01*
X142711000Y-106414000D02*
X142711000Y-102986000D01*
X142751000Y-106350000D02*
X142751000Y-103050000D01*
X142791000Y-106281000D02*
X142791000Y-103119000D01*
X142831000Y-106209000D02*
X142831000Y-103191000D01*
X142871000Y-106132000D02*
X142871000Y-103268000D01*
X142911000Y-106050000D02*
X142911000Y-103350000D01*
X142951000Y-105962000D02*
X142951000Y-103438000D01*
X142991000Y-105865000D02*
X142991000Y-103535000D01*
X143031000Y-105759000D02*
X143031000Y-103641000D01*
X143071000Y-105640000D02*
X143071000Y-103760000D01*
X143111000Y-105502000D02*
X143111000Y-103898000D01*
X143151000Y-105333000D02*
X143151000Y-104067000D01*
X143191000Y-105102000D02*
X143191000Y-104298000D01*
X144070000Y-104700000D02*
X144700000Y-104700000D01*
X143220000Y-104700000D02*
G75*
G02*
X136680000Y-104700000I-3270000J0D01*
G01*
X136680000Y-104700000D02*
G75*
G02*
X143220000Y-104700000I3270000J0D01*
G01*
%TD*%
M02*
