%TF.GenerationSoftware,KiCad,Pcbnew,8.0.1*%
%TF.CreationDate,2024-04-02T10:29:12+02:00*%
%TF.ProjectId,RobiV4,526f6269-5634-42e6-9b69-6361645f7063,rev?*%
%TF.SameCoordinates,Original*%
%TF.FileFunction,Copper,L2,Bot*%
%TF.FilePolarity,Positive*%
%FSLAX46Y46*%
G04 Gerber Fmt 4.6, Leading zero omitted, Abs format (unit mm)*
G04 Created by KiCad (PCBNEW 8.0.1) date 2024-04-02 10:29:12*
%MOMM*%
%LPD*%
G01*
G04 APERTURE LIST*
%ADD10C,0.300000*%
%TA.AperFunction,NonConductor*%
%ADD11C,0.300000*%
%TD*%
%TA.AperFunction,ComponentPad*%
%ADD12R,1.800000X1.800000*%
%TD*%
%TA.AperFunction,ComponentPad*%
%ADD13C,1.800000*%
%TD*%
%TA.AperFunction,ComponentPad*%
%ADD14R,1.600000X1.600000*%
%TD*%
%TA.AperFunction,ComponentPad*%
%ADD15C,1.600000*%
%TD*%
%TA.AperFunction,ComponentPad*%
%ADD16O,1.600000X1.600000*%
%TD*%
%TA.AperFunction,ComponentPad*%
%ADD17C,1.500000*%
%TD*%
%TA.AperFunction,ComponentPad*%
%ADD18R,1.500000X1.500000*%
%TD*%
%TA.AperFunction,ComponentPad*%
%ADD19C,2.000000*%
%TD*%
%TA.AperFunction,SMDPad,CuDef*%
%ADD20R,5.000000X2.000000*%
%TD*%
%TA.AperFunction,SMDPad,CuDef*%
%ADD21C,17.780000*%
%TD*%
%TA.AperFunction,SMDPad,CuDef*%
%ADD22C,3.000000*%
%TD*%
%TA.AperFunction,ViaPad*%
%ADD23C,0.600000*%
%TD*%
%TA.AperFunction,ViaPad*%
%ADD24C,0.300000*%
%TD*%
%TA.AperFunction,Conductor*%
%ADD25C,0.250000*%
%TD*%
G04 APERTURE END LIST*
D10*
D11*
X140005489Y-75780828D02*
X140005489Y-74280828D01*
X139148346Y-75780828D02*
X139791203Y-74923685D01*
X139148346Y-74280828D02*
X140005489Y-75137971D01*
X138505489Y-75780828D02*
X138505489Y-74280828D01*
X138505489Y-74995114D02*
X137648346Y-74995114D01*
X137648346Y-75780828D02*
X137648346Y-74280828D01*
X136434060Y-74995114D02*
X136934060Y-74995114D01*
X136934060Y-75780828D02*
X136934060Y-74280828D01*
X136934060Y-74280828D02*
X136219774Y-74280828D01*
X134219774Y-74280828D02*
X134076917Y-74280828D01*
X134076917Y-74280828D02*
X133934060Y-74352257D01*
X133934060Y-74352257D02*
X133862632Y-74423685D01*
X133862632Y-74423685D02*
X133791203Y-74566542D01*
X133791203Y-74566542D02*
X133719774Y-74852257D01*
X133719774Y-74852257D02*
X133719774Y-75209400D01*
X133719774Y-75209400D02*
X133791203Y-75495114D01*
X133791203Y-75495114D02*
X133862632Y-75637971D01*
X133862632Y-75637971D02*
X133934060Y-75709400D01*
X133934060Y-75709400D02*
X134076917Y-75780828D01*
X134076917Y-75780828D02*
X134219774Y-75780828D01*
X134219774Y-75780828D02*
X134362632Y-75709400D01*
X134362632Y-75709400D02*
X134434060Y-75637971D01*
X134434060Y-75637971D02*
X134505489Y-75495114D01*
X134505489Y-75495114D02*
X134576917Y-75209400D01*
X134576917Y-75209400D02*
X134576917Y-74852257D01*
X134576917Y-74852257D02*
X134505489Y-74566542D01*
X134505489Y-74566542D02*
X134434060Y-74423685D01*
X134434060Y-74423685D02*
X134362632Y-74352257D01*
X134362632Y-74352257D02*
X134219774Y-74280828D01*
X132291203Y-75780828D02*
X133148346Y-75780828D01*
X132719775Y-75780828D02*
X132719775Y-74280828D01*
X132719775Y-74280828D02*
X132862632Y-74495114D01*
X132862632Y-74495114D02*
X133005489Y-74637971D01*
X133005489Y-74637971D02*
X133148346Y-74709400D01*
X131648347Y-75637971D02*
X131576918Y-75709400D01*
X131576918Y-75709400D02*
X131648347Y-75780828D01*
X131648347Y-75780828D02*
X131719775Y-75709400D01*
X131719775Y-75709400D02*
X131648347Y-75637971D01*
X131648347Y-75637971D02*
X131648347Y-75780828D01*
X131005489Y-74423685D02*
X130934061Y-74352257D01*
X130934061Y-74352257D02*
X130791204Y-74280828D01*
X130791204Y-74280828D02*
X130434061Y-74280828D01*
X130434061Y-74280828D02*
X130291204Y-74352257D01*
X130291204Y-74352257D02*
X130219775Y-74423685D01*
X130219775Y-74423685D02*
X130148346Y-74566542D01*
X130148346Y-74566542D02*
X130148346Y-74709400D01*
X130148346Y-74709400D02*
X130219775Y-74923685D01*
X130219775Y-74923685D02*
X131076918Y-75780828D01*
X131076918Y-75780828D02*
X130148346Y-75780828D01*
X129219775Y-74280828D02*
X129076918Y-74280828D01*
X129076918Y-74280828D02*
X128934061Y-74352257D01*
X128934061Y-74352257D02*
X128862633Y-74423685D01*
X128862633Y-74423685D02*
X128791204Y-74566542D01*
X128791204Y-74566542D02*
X128719775Y-74852257D01*
X128719775Y-74852257D02*
X128719775Y-75209400D01*
X128719775Y-75209400D02*
X128791204Y-75495114D01*
X128791204Y-75495114D02*
X128862633Y-75637971D01*
X128862633Y-75637971D02*
X128934061Y-75709400D01*
X128934061Y-75709400D02*
X129076918Y-75780828D01*
X129076918Y-75780828D02*
X129219775Y-75780828D01*
X129219775Y-75780828D02*
X129362633Y-75709400D01*
X129362633Y-75709400D02*
X129434061Y-75637971D01*
X129434061Y-75637971D02*
X129505490Y-75495114D01*
X129505490Y-75495114D02*
X129576918Y-75209400D01*
X129576918Y-75209400D02*
X129576918Y-74852257D01*
X129576918Y-74852257D02*
X129505490Y-74566542D01*
X129505490Y-74566542D02*
X129434061Y-74423685D01*
X129434061Y-74423685D02*
X129362633Y-74352257D01*
X129362633Y-74352257D02*
X129219775Y-74280828D01*
X128148347Y-74423685D02*
X128076919Y-74352257D01*
X128076919Y-74352257D02*
X127934062Y-74280828D01*
X127934062Y-74280828D02*
X127576919Y-74280828D01*
X127576919Y-74280828D02*
X127434062Y-74352257D01*
X127434062Y-74352257D02*
X127362633Y-74423685D01*
X127362633Y-74423685D02*
X127291204Y-74566542D01*
X127291204Y-74566542D02*
X127291204Y-74709400D01*
X127291204Y-74709400D02*
X127362633Y-74923685D01*
X127362633Y-74923685D02*
X128219776Y-75780828D01*
X128219776Y-75780828D02*
X127291204Y-75780828D01*
X126005491Y-74780828D02*
X126005491Y-75780828D01*
X126362633Y-74209400D02*
X126719776Y-75280828D01*
X126719776Y-75280828D02*
X125791205Y-75280828D01*
D12*
%TO.P,D1,1,K*%
%TO.N,Net-(D1-K)*%
X123444000Y-55245000D03*
D13*
%TO.P,D1,2,A*%
%TO.N,Net-(D1-A)*%
X125984000Y-55245000D03*
%TD*%
D12*
%TO.P,D2,1,K*%
%TO.N,Net-(D1-K)*%
X141351000Y-54737000D03*
D13*
%TO.P,D2,2,A*%
%TO.N,Net-(D1-A)*%
X143891000Y-54737000D03*
%TD*%
D14*
%TO.P,C1,1*%
%TO.N,Net-(D3-K)*%
X149733000Y-66294000D03*
D15*
%TO.P,C1,2*%
%TO.N,Net-(D1-K)*%
X152233000Y-66294000D03*
%TD*%
D14*
%TO.P,D3,1,K*%
%TO.N,Net-(D3-K)*%
X113216001Y-67945000D03*
D16*
%TO.P,D3,2,A*%
%TO.N,Net-(D3-A)*%
X120836001Y-67945000D03*
%TD*%
D17*
%TO.P,T1,1,E*%
%TO.N,Net-(Q1-C)*%
X127863600Y-86766400D03*
%TO.P,T1,2,B*%
%TO.N,Net-(Q1-B)*%
X130403600Y-89306400D03*
D18*
%TO.P,T1,e,C*%
%TO.N,Net-(D1-K)*%
X132943600Y-86766400D03*
%TD*%
D17*
%TO.P,T2,1,E*%
%TO.N,Net-(Q2-C)*%
X153974800Y-83642200D03*
%TO.P,T2,2,B*%
%TO.N,Net-(Q1-C)*%
X156514800Y-86182200D03*
D18*
%TO.P,T2,3,C*%
%TO.N,Net-(D1-A)*%
X159054800Y-83642200D03*
%TD*%
D15*
%TO.P,R3,1*%
%TO.N,Net-(D3-K)*%
X111946001Y-80951400D03*
D16*
%TO.P,R3,2*%
%TO.N,Net-(Q1-B)*%
X122106001Y-80951400D03*
%TD*%
D15*
%TO.P,R4,1*%
%TO.N,Net-(Q1-B)*%
X111946001Y-85370200D03*
D16*
%TO.P,R4,2*%
%TO.N,Net-(D1-K)*%
X122106001Y-85370200D03*
%TD*%
D15*
%TO.P,R5,1*%
%TO.N,Net-(S1-E)*%
X111946001Y-76532600D03*
D16*
%TO.P,R5,2*%
%TO.N,Net-(Q1-C)*%
X122106001Y-76532600D03*
%TD*%
D15*
%TO.P,R6,1*%
%TO.N,Net-(S1-E)*%
X111946001Y-89789000D03*
D16*
%TO.P,R6,2*%
%TO.N,Net-(Q2-C)*%
X122106001Y-89789000D03*
%TD*%
D15*
%TO.P,R1on1,1*%
%TO.N,Net-(D3-K)*%
X111946001Y-72113800D03*
D16*
%TO.P,R1on1,2*%
%TO.N,Net-(D3-A)*%
X122106001Y-72113800D03*
%TD*%
D19*
%TO.P,S1,1,A*%
%TO.N,Net-(S1-A-Pad1)*%
X143637000Y-103124000D03*
%TO.P,S1,2,E*%
%TO.N,Net-(S1-E)*%
X146177000Y-103124000D03*
%TO.P,S1,3,A*%
%TO.N,unconnected-(S1-A-Pad3)*%
X148717000Y-103124000D03*
%TD*%
D14*
%TO.P,U1,1,GND*%
%TO.N,Net-(D1-K)*%
X129921000Y-110744000D03*
D16*
%TO.P,U1,2,TR*%
%TO.N,Net-(D3-K)*%
X127381000Y-110744000D03*
%TO.P,U1,3,Q*%
%TO.N,unconnected-(U1-Q-Pad3)*%
X124841000Y-110744000D03*
%TO.P,U1,4,R*%
%TO.N,Net-(S1-E)*%
X122301000Y-110744000D03*
%TO.P,U1,5,CV*%
%TO.N,unconnected-(U1-CV-Pad5)*%
X122301000Y-103124000D03*
%TO.P,U1,6,THR*%
%TO.N,Net-(D3-K)*%
X124841000Y-103124000D03*
%TO.P,U1,7,DIS*%
%TO.N,Net-(D3-A)*%
X127381000Y-103124000D03*
%TO.P,U1,8,VCC*%
%TO.N,Net-(S1-E)*%
X129921000Y-103124000D03*
%TD*%
D20*
%TO.P,U2,1*%
%TO.N,Net-(S1-A-Pad1)*%
X124079000Y-120777000D03*
X124079000Y-124333000D03*
X149973000Y-120777000D03*
X149973000Y-124333000D03*
D21*
%TO.P,U2,2*%
%TO.N,Net-(D1-K)*%
X137033000Y-122809000D03*
%TD*%
D22*
%TO.P,GND,1*%
%TO.N,Net-(D1-K)*%
X137160000Y-111125000D03*
%TD*%
%TO.P,VCC,1*%
%TO.N,Net-(S1-Pad1)*%
X123698000Y-116078000D03*
%TD*%
%TO.P,T2-B,1*%
%TO.N,Net-(Q1-C)*%
X150114000Y-88188800D03*
%TD*%
D15*
%TO.P,R1off1,1*%
%TO.N,Net-(S1-E)*%
X148590000Y-80568800D03*
D16*
%TO.P,R1off1,2*%
%TO.N,Net-(D3-A)*%
X138430000Y-80568800D03*
%TD*%
D22*
%TO.P,Q,1*%
%TO.N,Net-(U1-Pad3)*%
X115697000Y-104775000D03*
%TD*%
%TO.P,T1-B,1*%
%TO.N,Net-(T1-B)*%
X126212600Y-91998800D03*
%TD*%
D23*
%TO.N,Net-(D1-K)*%
X133731000Y-98933000D03*
X134315200Y-112877600D03*
D24*
%TO.N,Net-(S1-E)*%
X146558000Y-92354400D03*
D23*
X146431000Y-105664000D03*
%TO.N,Net-(Q1-C)*%
X132150000Y-83310000D03*
%TD*%
D25*
%TO.N,Net-(D3-K)*%
X115495400Y-80951400D02*
X111946001Y-80951400D01*
X124841000Y-103124000D02*
X124841000Y-98171000D01*
X124841000Y-105410000D02*
X124841000Y-103124000D01*
X124841000Y-98171000D02*
X120269000Y-93599000D01*
X127381000Y-107950000D02*
X124841000Y-105410000D01*
X127381000Y-110744000D02*
X127381000Y-107950000D01*
X116459000Y-91313000D02*
X116459000Y-81915000D01*
X116459000Y-81915000D02*
X115495400Y-80951400D01*
X118745000Y-93599000D02*
X116459000Y-91313000D01*
X120269000Y-93599000D02*
X118745000Y-93599000D01*
%TO.N,Net-(D1-K)*%
X133731000Y-98933000D02*
X133731000Y-108839000D01*
X137160000Y-111125000D02*
X137160000Y-122682000D01*
X124799201Y-56600201D02*
X123444000Y-55245000D01*
X137160000Y-111125000D02*
X135407400Y-112877600D01*
X137160000Y-122682000D02*
X137033000Y-122809000D01*
X124799201Y-82677000D02*
X124799201Y-56600201D01*
X132461000Y-110109000D02*
X130556000Y-110109000D01*
X135407400Y-112877600D02*
X134315200Y-112877600D01*
X133731000Y-108839000D02*
X132461000Y-110109000D01*
X130556000Y-110109000D02*
X129921000Y-110744000D01*
X122106001Y-85370200D02*
X124799201Y-82677000D01*
%TO.N,Net-(D1-A)*%
X125909310Y-55319690D02*
X125984000Y-55245000D01*
X139446000Y-61849000D02*
X127560310Y-61849000D01*
X143891000Y-56896000D02*
X141732000Y-59055000D01*
X159054800Y-82600800D02*
X139636500Y-63182500D01*
X139636500Y-61658500D02*
X139446000Y-61849000D01*
X141732000Y-59055000D02*
X141732000Y-59563000D01*
X159054800Y-83642200D02*
X159054800Y-82600800D01*
X139636500Y-63182500D02*
X139636500Y-61658500D01*
X143891000Y-54737000D02*
X143891000Y-56896000D01*
X125909310Y-60198000D02*
X125909310Y-55319690D01*
X141732000Y-59563000D02*
X139636500Y-61658500D01*
X127560310Y-61849000D02*
X125909310Y-60198000D01*
%TO.N,Net-(D3-A)*%
X120015000Y-87630000D02*
X119507000Y-88138000D01*
X127381000Y-99060000D02*
X127381000Y-100838000D01*
X119507000Y-88138000D02*
X119507000Y-91186000D01*
X127381000Y-100074590D02*
X127381000Y-100838000D01*
X138430000Y-77139800D02*
X138480800Y-77089000D01*
X124206000Y-87630000D02*
X120015000Y-87630000D01*
X119507000Y-91186000D02*
X127381000Y-99060000D01*
X133140999Y-78695001D02*
X124206000Y-87630000D01*
X138480800Y-77089000D02*
X133140999Y-77089000D01*
X127381000Y-100838000D02*
X127381000Y-103124000D01*
X142748000Y-77089000D02*
X138480800Y-77089000D01*
X138430000Y-80568800D02*
X138430000Y-77139800D01*
X133140999Y-77089000D02*
X133140999Y-78695001D01*
%TO.N,Net-(S1-E)*%
X148590000Y-80568800D02*
X148590000Y-83566000D01*
X111946001Y-89789000D02*
X110363000Y-89789000D01*
X108458000Y-77978000D02*
X109903400Y-76532600D01*
X108458000Y-87884000D02*
X108458000Y-77978000D01*
X109903400Y-76532600D02*
X111946001Y-76532600D01*
X146558000Y-85598000D02*
X146558000Y-92354400D01*
X148590000Y-83566000D02*
X146558000Y-85598000D01*
X110363000Y-89789000D02*
X108458000Y-87884000D01*
%TO.N,Net-(S1-Pad1)*%
X125349000Y-112903000D02*
X132334000Y-112903000D01*
X135382000Y-109855000D02*
X135382000Y-104648000D01*
X123698000Y-116078000D02*
X123698000Y-114554000D01*
X136906000Y-103124000D02*
X143637000Y-103124000D01*
X135382000Y-104648000D02*
X136906000Y-103124000D01*
X132334000Y-112903000D02*
X135382000Y-109855000D01*
X124079000Y-116459000D02*
X123698000Y-116078000D01*
X123698000Y-114554000D02*
X125349000Y-112903000D01*
%TO.N,Net-(U1-Pad3)*%
X118745000Y-104775000D02*
X121031000Y-107061000D01*
X115697000Y-104775000D02*
X118745000Y-104775000D01*
X124841000Y-108458000D02*
X124841000Y-110744000D01*
X123444000Y-107061000D02*
X124841000Y-108458000D01*
X121031000Y-107061000D02*
X123444000Y-107061000D01*
%TO.N,Net-(S1-A-Pad1)*%
X147066000Y-117870000D02*
X147066000Y-111353600D01*
X149973000Y-120777000D02*
X147066000Y-117870000D01*
X147066000Y-111353600D02*
X143823396Y-108110996D01*
X149973000Y-124333000D02*
X149973000Y-120777000D01*
X143823396Y-108110996D02*
X143823396Y-103574000D01*
X124079000Y-124333000D02*
X124079000Y-120777000D01*
X143823396Y-103574000D02*
X143955198Y-103442198D01*
%TO.N,Net-(T1-B)*%
X126212600Y-91998800D02*
X128905000Y-89306400D01*
X128905000Y-89306400D02*
X130403600Y-89306400D01*
%TO.N,Net-(Q1-C)*%
X156514800Y-86182200D02*
X156514800Y-87223600D01*
X132150000Y-83310000D02*
X128693600Y-86766400D01*
X155549600Y-88188800D02*
X150114000Y-88188800D01*
X128693600Y-86766400D02*
X127863600Y-86766400D01*
X156514800Y-87223600D02*
X155549600Y-88188800D01*
%TO.N,Net-(Q2-C)*%
X150587800Y-83642200D02*
X147701000Y-86529000D01*
X147701000Y-86529000D02*
X147701000Y-94107000D01*
X124206000Y-94107000D02*
X122106001Y-92007001D01*
X122106001Y-92007001D02*
X122106001Y-89789000D01*
X153974800Y-83642200D02*
X150587800Y-83642200D01*
X147701000Y-94107000D02*
X124206000Y-94107000D01*
%TD*%
M02*
