%TF.GenerationSoftware,KiCad,Pcbnew,8.0.1*%
%TF.CreationDate,2024-04-02T10:29:12+02:00*%
%TF.ProjectId,RobiV4,526f6269-5634-42e6-9b69-6361645f7063,rev?*%
%TF.SameCoordinates,Original*%
%TF.FileFunction,Copper,L1,Top*%
%TF.FilePolarity,Positive*%
%FSLAX46Y46*%
G04 Gerber Fmt 4.6, Leading zero omitted, Abs format (unit mm)*
G04 Created by KiCad (PCBNEW 8.0.1) date 2024-04-02 10:29:12*
%MOMM*%
%LPD*%
G01*
G04 APERTURE LIST*
%TA.AperFunction,ComponentPad*%
%ADD10R,1.800000X1.800000*%
%TD*%
%TA.AperFunction,ComponentPad*%
%ADD11C,1.800000*%
%TD*%
%TA.AperFunction,ComponentPad*%
%ADD12R,1.600000X1.600000*%
%TD*%
%TA.AperFunction,ComponentPad*%
%ADD13C,1.600000*%
%TD*%
%TA.AperFunction,ComponentPad*%
%ADD14O,1.600000X1.600000*%
%TD*%
%TA.AperFunction,ComponentPad*%
%ADD15C,1.500000*%
%TD*%
%TA.AperFunction,ComponentPad*%
%ADD16R,1.500000X1.500000*%
%TD*%
%TA.AperFunction,ComponentPad*%
%ADD17C,2.000000*%
%TD*%
%TA.AperFunction,ViaPad*%
%ADD18C,0.600000*%
%TD*%
%TA.AperFunction,ViaPad*%
%ADD19C,0.300000*%
%TD*%
%TA.AperFunction,Conductor*%
%ADD20C,0.250000*%
%TD*%
G04 APERTURE END LIST*
D10*
%TO.P,D1,1,K*%
%TO.N,Net-(D1-K)*%
X123444000Y-55245000D03*
D11*
%TO.P,D1,2,A*%
%TO.N,Net-(D1-A)*%
X125984000Y-55245000D03*
%TD*%
D10*
%TO.P,D2,1,K*%
%TO.N,Net-(D1-K)*%
X141351000Y-54737000D03*
D11*
%TO.P,D2,2,A*%
%TO.N,Net-(D1-A)*%
X143891000Y-54737000D03*
%TD*%
D12*
%TO.P,C1,1*%
%TO.N,Net-(D3-K)*%
X149733000Y-66294000D03*
D13*
%TO.P,C1,2*%
%TO.N,Net-(D1-K)*%
X152233000Y-66294000D03*
%TD*%
D12*
%TO.P,D3,1,K*%
%TO.N,Net-(D3-K)*%
X113216001Y-67945000D03*
D14*
%TO.P,D3,2,A*%
%TO.N,Net-(D3-A)*%
X120836001Y-67945000D03*
%TD*%
D15*
%TO.P,T1,1,E*%
%TO.N,Net-(Q1-C)*%
X127863600Y-86766400D03*
%TO.P,T1,2,B*%
%TO.N,Net-(Q1-B)*%
X130403600Y-89306400D03*
D16*
%TO.P,T1,e,C*%
%TO.N,Net-(D1-K)*%
X132943600Y-86766400D03*
%TD*%
D15*
%TO.P,T2,1,E*%
%TO.N,Net-(Q2-C)*%
X153974800Y-83642200D03*
%TO.P,T2,2,B*%
%TO.N,Net-(Q1-C)*%
X156514800Y-86182200D03*
D16*
%TO.P,T2,3,C*%
%TO.N,Net-(D1-A)*%
X159054800Y-83642200D03*
%TD*%
D13*
%TO.P,R3,1*%
%TO.N,Net-(D3-K)*%
X111946001Y-80951400D03*
D14*
%TO.P,R3,2*%
%TO.N,Net-(Q1-B)*%
X122106001Y-80951400D03*
%TD*%
D13*
%TO.P,R4,1*%
%TO.N,Net-(Q1-B)*%
X111946001Y-85370200D03*
D14*
%TO.P,R4,2*%
%TO.N,Net-(D1-K)*%
X122106001Y-85370200D03*
%TD*%
D13*
%TO.P,R5,1*%
%TO.N,Net-(S1-E)*%
X111946001Y-76532600D03*
D14*
%TO.P,R5,2*%
%TO.N,Net-(Q1-C)*%
X122106001Y-76532600D03*
%TD*%
D13*
%TO.P,R6,1*%
%TO.N,Net-(S1-E)*%
X111946001Y-89789000D03*
D14*
%TO.P,R6,2*%
%TO.N,Net-(Q2-C)*%
X122106001Y-89789000D03*
%TD*%
D13*
%TO.P,R1on1,1*%
%TO.N,Net-(D3-K)*%
X111946001Y-72113800D03*
D14*
%TO.P,R1on1,2*%
%TO.N,Net-(D3-A)*%
X122106001Y-72113800D03*
%TD*%
D17*
%TO.P,S1,1,A*%
%TO.N,Net-(S1-A-Pad1)*%
X143637000Y-103124000D03*
%TO.P,S1,2,E*%
%TO.N,Net-(S1-E)*%
X146177000Y-103124000D03*
%TO.P,S1,3,A*%
%TO.N,unconnected-(S1-A-Pad3)*%
X148717000Y-103124000D03*
%TD*%
D12*
%TO.P,U1,1,GND*%
%TO.N,Net-(D1-K)*%
X129921000Y-110744000D03*
D14*
%TO.P,U1,2,TR*%
%TO.N,Net-(D3-K)*%
X127381000Y-110744000D03*
%TO.P,U1,3,Q*%
%TO.N,unconnected-(U1-Q-Pad3)*%
X124841000Y-110744000D03*
%TO.P,U1,4,R*%
%TO.N,Net-(S1-E)*%
X122301000Y-110744000D03*
%TO.P,U1,5,CV*%
%TO.N,unconnected-(U1-CV-Pad5)*%
X122301000Y-103124000D03*
%TO.P,U1,6,THR*%
%TO.N,Net-(D3-K)*%
X124841000Y-103124000D03*
%TO.P,U1,7,DIS*%
%TO.N,Net-(D3-A)*%
X127381000Y-103124000D03*
%TO.P,U1,8,VCC*%
%TO.N,Net-(S1-E)*%
X129921000Y-103124000D03*
%TD*%
D13*
%TO.P,R1off1,1*%
%TO.N,Net-(S1-E)*%
X148590000Y-80568800D03*
D14*
%TO.P,R1off1,2*%
%TO.N,Net-(D3-A)*%
X138430000Y-80568800D03*
%TD*%
D18*
%TO.N,Net-(D1-K)*%
X133731000Y-98933000D03*
X134315200Y-112877600D03*
D19*
%TO.N,Net-(S1-E)*%
X146558000Y-92354400D03*
D18*
X146431000Y-105664000D03*
%TO.N,Net-(Q1-C)*%
X132150000Y-83310000D03*
%TD*%
D20*
%TO.N,Net-(D3-K)*%
X112141000Y-67945000D02*
X111379000Y-68707000D01*
X113216001Y-67945000D02*
X112141000Y-67945000D01*
X113216001Y-66488999D02*
X113216001Y-67945000D01*
X114681000Y-73152000D02*
X114681000Y-79121000D01*
X115062000Y-64643000D02*
X113216001Y-66488999D01*
X113642800Y-72113800D02*
X114681000Y-73152000D01*
X112850600Y-80951400D02*
X111946001Y-80951400D01*
X114681000Y-79121000D02*
X112850600Y-80951400D01*
X143510000Y-66294000D02*
X141859000Y-64643000D01*
X111379000Y-71546799D02*
X111946001Y-72113800D01*
X111379000Y-68707000D02*
X111379000Y-71546799D01*
X141859000Y-64643000D02*
X115062000Y-64643000D01*
X149733000Y-66294000D02*
X143510000Y-66294000D01*
X111946001Y-72113800D02*
X113642800Y-72113800D01*
%TO.N,Net-(D1-K)*%
X124587000Y-63119000D02*
X147066000Y-63119000D01*
X133652400Y-86766400D02*
X132943600Y-86766400D01*
X141351000Y-54737000D02*
X141351000Y-59309000D01*
X128700000Y-91110000D02*
X134648000Y-91110000D01*
X123868726Y-62400726D02*
X124587000Y-63119000D01*
X152233000Y-65111000D02*
X152233000Y-66294000D01*
X132181600Y-110744000D02*
X129921000Y-110744000D01*
X130175000Y-110998000D02*
X129921000Y-110744000D01*
X123444000Y-55245000D02*
X123868726Y-55669726D01*
X145161000Y-63119000D02*
X147066000Y-63119000D01*
X135128000Y-97536000D02*
X135128000Y-91590000D01*
X135128000Y-88242000D02*
X133652400Y-86766400D01*
X123868726Y-55669726D02*
X123868726Y-62400726D01*
X122960200Y-85370200D02*
X128700000Y-91110000D01*
X122106001Y-85370200D02*
X122960200Y-85370200D01*
X147066000Y-63119000D02*
X150241000Y-63119000D01*
X141351000Y-59309000D02*
X145161000Y-63119000D01*
X135128000Y-91590000D02*
X135128000Y-88242000D01*
X133731000Y-98933000D02*
X135128000Y-97536000D01*
X134315200Y-112877600D02*
X132181600Y-110744000D01*
X150241000Y-63119000D02*
X152233000Y-65111000D01*
X134648000Y-91110000D02*
X135128000Y-91590000D01*
%TO.N,Net-(D3-A)*%
X142748000Y-77089000D02*
X142748000Y-73533000D01*
X122128201Y-72136000D02*
X122106001Y-72113800D01*
X142748000Y-73533000D02*
X141351000Y-72136000D01*
X120836001Y-67945000D02*
X120836001Y-70843800D01*
X120836001Y-70843800D02*
X122106001Y-72113800D01*
X141351000Y-72136000D02*
X122128201Y-72136000D01*
%TO.N,Net-(S1-E)*%
X129921000Y-103124000D02*
X132715000Y-100330000D01*
X114359001Y-92202000D02*
X121920000Y-92202000D01*
X132715000Y-100330000D02*
X133223000Y-100330000D01*
X127889000Y-107188000D02*
X123698000Y-107188000D01*
X146558000Y-100838000D02*
X146177000Y-101219000D01*
X129921000Y-105156000D02*
X127889000Y-107188000D01*
X130048000Y-100330000D02*
X133223000Y-100330000D01*
X146177000Y-101219000D02*
X146177000Y-103124000D01*
X146177000Y-105410000D02*
X146431000Y-105664000D01*
X146177000Y-103124000D02*
X146177000Y-105410000D01*
X133223000Y-100330000D02*
X145288000Y-100330000D01*
X111946001Y-89789000D02*
X114359001Y-92202000D01*
X146558000Y-92354400D02*
X146558000Y-100838000D01*
X121920000Y-92202000D02*
X130048000Y-100330000D01*
X129921000Y-103124000D02*
X129921000Y-105156000D01*
X145288000Y-100330000D02*
X146177000Y-101219000D01*
X122301000Y-108585000D02*
X122301000Y-110744000D01*
X123698000Y-107188000D02*
X122301000Y-108585000D01*
%TO.N,Net-(Q1-B)*%
X120673800Y-80951400D02*
X116255000Y-85370200D01*
X122106001Y-80951400D02*
X120673800Y-80951400D01*
X130403600Y-89306400D02*
X130403600Y-82296000D01*
X122106001Y-80951400D02*
X129059000Y-80951400D01*
X116255000Y-85370200D02*
X111946001Y-85370200D01*
X130403600Y-82296000D02*
X129059000Y-80951400D01*
%TO.N,Net-(Q1-C)*%
X144830800Y-86106000D02*
X143560800Y-84836000D01*
X135788400Y-82397600D02*
X133062400Y-82397600D01*
X133062400Y-82397600D02*
X132150000Y-83310000D01*
X156514800Y-86182200D02*
X144907000Y-86182200D01*
X135788400Y-84836000D02*
X135788400Y-82397600D01*
X144932400Y-86258400D02*
X144932400Y-86207600D01*
X129999600Y-76532600D02*
X131391000Y-77924000D01*
X131391000Y-77924000D02*
X131391000Y-78000200D01*
X122106001Y-76532600D02*
X129999600Y-76532600D01*
X131391000Y-78000200D02*
X135788400Y-82397600D01*
X144907000Y-86182200D02*
X144830800Y-86106000D01*
X143560800Y-84836000D02*
X135788400Y-84836000D01*
X144932400Y-86207600D02*
X144830800Y-86106000D01*
%TD*%
M02*
