M48
; DRILL file {KiCad 8.0.1} date 2024-04-02T10:29:17+0200
; FORMAT={-:-/ absolute / inch / decimal}
; #@! TF.CreationDate,2024-04-02T10:29:17+02:00
; #@! TF.GenerationSoftware,Kicad,Pcbnew,8.0.1
; #@! TF.FileFunction,Plated,1,2,PTH
FMAT,2
INCH
; #@! TA.AperFunction,Plated,PTH,ViaDrill
T1C0.0039
; #@! TA.AperFunction,Plated,PTH,ViaDrill
T2C0.0157
; #@! TA.AperFunction,Plated,PTH,ComponentDrill
T3C0.0315
; #@! TA.AperFunction,Plated,PTH,ComponentDrill
T4C0.0354
; #@! TA.AperFunction,Plated,PTH,ComponentDrill
T5C0.0394
%
G90
G05
T1
X5.77Y-3.636
T2
X5.2028Y-3.2799
X5.265Y-3.895
X5.288Y-4.444
X5.765Y-4.16
T3
X4.4073Y-2.8391
X4.4073Y-3.0131
X4.4073Y-3.1871
X4.4073Y-3.361
X4.4073Y-3.535
X4.4573Y-2.675
X4.7573Y-2.675
X4.8073Y-2.8391
X4.8073Y-3.0131
X4.8073Y-3.1871
X4.8073Y-3.361
X4.8073Y-3.535
X4.815Y-4.06
X4.815Y-4.36
X4.915Y-4.06
X4.915Y-4.36
X5.015Y-4.06
X5.015Y-4.36
X5.034Y-3.416
X5.115Y-4.06
X5.115Y-4.36
X5.134Y-3.516
X5.234Y-3.416
X5.45Y-3.172
X5.85Y-3.172
X5.895Y-2.61
X5.9934Y-2.61
X6.062Y-3.293
X6.162Y-3.393
X6.262Y-3.293
T4
X4.86Y-2.175
X4.96Y-2.175
X5.565Y-2.155
X5.665Y-2.155
T5
X5.655Y-4.06
X5.755Y-4.06
X5.855Y-4.06
M30
