%TF.GenerationSoftware,KiCad,Pcbnew,8.0.1*%
%TF.CreationDate,2024-04-02T10:29:12+02:00*%
%TF.ProjectId,RobiV4,526f6269-5634-42e6-9b69-6361645f7063,rev?*%
%TF.SameCoordinates,Original*%
%TF.FileFunction,Soldermask,Bot*%
%TF.FilePolarity,Negative*%
%FSLAX46Y46*%
G04 Gerber Fmt 4.6, Leading zero omitted, Abs format (unit mm)*
G04 Created by KiCad (PCBNEW 8.0.1) date 2024-04-02 10:29:12*
%MOMM*%
%LPD*%
G01*
G04 APERTURE LIST*
G04 Aperture macros list*
%AMRoundRect*
0 Rectangle with rounded corners*
0 $1 Rounding radius*
0 $2 $3 $4 $5 $6 $7 $8 $9 X,Y pos of 4 corners*
0 Add a 4 corners polygon primitive as box body*
4,1,4,$2,$3,$4,$5,$6,$7,$8,$9,$2,$3,0*
0 Add four circle primitives for the rounded corners*
1,1,$1+$1,$2,$3*
1,1,$1+$1,$4,$5*
1,1,$1+$1,$6,$7*
1,1,$1+$1,$8,$9*
0 Add four rect primitives between the rounded corners*
20,1,$1+$1,$2,$3,$4,$5,0*
20,1,$1+$1,$4,$5,$6,$7,0*
20,1,$1+$1,$6,$7,$8,$9,0*
20,1,$1+$1,$8,$9,$2,$3,0*%
G04 Aperture macros list end*
%ADD10C,0.300000*%
%ADD11RoundRect,0.200000X-0.900000X-0.900000X0.900000X-0.900000X0.900000X0.900000X-0.900000X0.900000X0*%
%ADD12C,2.200000*%
%ADD13RoundRect,0.200000X-0.800000X-0.800000X0.800000X-0.800000X0.800000X0.800000X-0.800000X0.800000X0*%
%ADD14C,2.000000*%
%ADD15O,2.000000X2.000000*%
%ADD16C,1.900000*%
%ADD17RoundRect,0.200000X-0.750000X-0.750000X0.750000X-0.750000X0.750000X0.750000X-0.750000X0.750000X0*%
%ADD18C,2.400000*%
%ADD19RoundRect,0.200000X0.800000X-0.800000X0.800000X0.800000X-0.800000X0.800000X-0.800000X-0.800000X0*%
%ADD20RoundRect,0.200000X-2.500000X-1.000000X2.500000X-1.000000X2.500000X1.000000X-2.500000X1.000000X0*%
%ADD21C,18.180000*%
%ADD22C,3.400000*%
G04 APERTURE END LIST*
D10*
X140055713Y-75778328D02*
X140055713Y-74278328D01*
X139198570Y-75778328D02*
X139841427Y-74921185D01*
X139198570Y-74278328D02*
X140055713Y-75135471D01*
X138555713Y-75778328D02*
X138555713Y-74278328D01*
X138555713Y-74992614D02*
X137698570Y-74992614D01*
X137698570Y-75778328D02*
X137698570Y-74278328D01*
X136484284Y-74992614D02*
X136984284Y-74992614D01*
X136984284Y-75778328D02*
X136984284Y-74278328D01*
X136984284Y-74278328D02*
X136269998Y-74278328D01*
X134269998Y-74278328D02*
X134127141Y-74278328D01*
X134127141Y-74278328D02*
X133984284Y-74349757D01*
X133984284Y-74349757D02*
X133912856Y-74421185D01*
X133912856Y-74421185D02*
X133841427Y-74564042D01*
X133841427Y-74564042D02*
X133769998Y-74849757D01*
X133769998Y-74849757D02*
X133769998Y-75206900D01*
X133769998Y-75206900D02*
X133841427Y-75492614D01*
X133841427Y-75492614D02*
X133912856Y-75635471D01*
X133912856Y-75635471D02*
X133984284Y-75706900D01*
X133984284Y-75706900D02*
X134127141Y-75778328D01*
X134127141Y-75778328D02*
X134269998Y-75778328D01*
X134269998Y-75778328D02*
X134412856Y-75706900D01*
X134412856Y-75706900D02*
X134484284Y-75635471D01*
X134484284Y-75635471D02*
X134555713Y-75492614D01*
X134555713Y-75492614D02*
X134627141Y-75206900D01*
X134627141Y-75206900D02*
X134627141Y-74849757D01*
X134627141Y-74849757D02*
X134555713Y-74564042D01*
X134555713Y-74564042D02*
X134484284Y-74421185D01*
X134484284Y-74421185D02*
X134412856Y-74349757D01*
X134412856Y-74349757D02*
X134269998Y-74278328D01*
X132341427Y-75778328D02*
X133198570Y-75778328D01*
X132769999Y-75778328D02*
X132769999Y-74278328D01*
X132769999Y-74278328D02*
X132912856Y-74492614D01*
X132912856Y-74492614D02*
X133055713Y-74635471D01*
X133055713Y-74635471D02*
X133198570Y-74706900D01*
X131698571Y-75635471D02*
X131627142Y-75706900D01*
X131627142Y-75706900D02*
X131698571Y-75778328D01*
X131698571Y-75778328D02*
X131769999Y-75706900D01*
X131769999Y-75706900D02*
X131698571Y-75635471D01*
X131698571Y-75635471D02*
X131698571Y-75778328D01*
X131055713Y-74421185D02*
X130984285Y-74349757D01*
X130984285Y-74349757D02*
X130841428Y-74278328D01*
X130841428Y-74278328D02*
X130484285Y-74278328D01*
X130484285Y-74278328D02*
X130341428Y-74349757D01*
X130341428Y-74349757D02*
X130269999Y-74421185D01*
X130269999Y-74421185D02*
X130198570Y-74564042D01*
X130198570Y-74564042D02*
X130198570Y-74706900D01*
X130198570Y-74706900D02*
X130269999Y-74921185D01*
X130269999Y-74921185D02*
X131127142Y-75778328D01*
X131127142Y-75778328D02*
X130198570Y-75778328D01*
X129269999Y-74278328D02*
X129127142Y-74278328D01*
X129127142Y-74278328D02*
X128984285Y-74349757D01*
X128984285Y-74349757D02*
X128912857Y-74421185D01*
X128912857Y-74421185D02*
X128841428Y-74564042D01*
X128841428Y-74564042D02*
X128769999Y-74849757D01*
X128769999Y-74849757D02*
X128769999Y-75206900D01*
X128769999Y-75206900D02*
X128841428Y-75492614D01*
X128841428Y-75492614D02*
X128912857Y-75635471D01*
X128912857Y-75635471D02*
X128984285Y-75706900D01*
X128984285Y-75706900D02*
X129127142Y-75778328D01*
X129127142Y-75778328D02*
X129269999Y-75778328D01*
X129269999Y-75778328D02*
X129412857Y-75706900D01*
X129412857Y-75706900D02*
X129484285Y-75635471D01*
X129484285Y-75635471D02*
X129555714Y-75492614D01*
X129555714Y-75492614D02*
X129627142Y-75206900D01*
X129627142Y-75206900D02*
X129627142Y-74849757D01*
X129627142Y-74849757D02*
X129555714Y-74564042D01*
X129555714Y-74564042D02*
X129484285Y-74421185D01*
X129484285Y-74421185D02*
X129412857Y-74349757D01*
X129412857Y-74349757D02*
X129269999Y-74278328D01*
X128198571Y-74421185D02*
X128127143Y-74349757D01*
X128127143Y-74349757D02*
X127984286Y-74278328D01*
X127984286Y-74278328D02*
X127627143Y-74278328D01*
X127627143Y-74278328D02*
X127484286Y-74349757D01*
X127484286Y-74349757D02*
X127412857Y-74421185D01*
X127412857Y-74421185D02*
X127341428Y-74564042D01*
X127341428Y-74564042D02*
X127341428Y-74706900D01*
X127341428Y-74706900D02*
X127412857Y-74921185D01*
X127412857Y-74921185D02*
X128270000Y-75778328D01*
X128270000Y-75778328D02*
X127341428Y-75778328D01*
X126055715Y-74778328D02*
X126055715Y-75778328D01*
X126412857Y-74206900D02*
X126770000Y-75278328D01*
X126770000Y-75278328D02*
X125841429Y-75278328D01*
D11*
%TO.C,D1*%
X123444000Y-55245000D03*
D12*
X125984000Y-55245000D03*
%TD*%
D11*
%TO.C,D2*%
X141351000Y-54737000D03*
D12*
X143891000Y-54737000D03*
%TD*%
D13*
%TO.C,C1*%
X149733000Y-66294000D03*
D14*
X152233000Y-66294000D03*
%TD*%
D13*
%TO.C,D3*%
X113216001Y-67945000D03*
D15*
X120836001Y-67945000D03*
%TD*%
D16*
%TO.C,T1*%
X127863600Y-86766400D03*
X130403600Y-89306400D03*
D17*
X132943600Y-86766400D03*
%TD*%
D16*
%TO.C,T2*%
X153974800Y-83642200D03*
X156514800Y-86182200D03*
D17*
X159054800Y-83642200D03*
%TD*%
D14*
%TO.C,R3*%
X111946001Y-80951400D03*
D15*
X122106001Y-80951400D03*
%TD*%
D14*
%TO.C,R4*%
X111946001Y-85370200D03*
D15*
X122106001Y-85370200D03*
%TD*%
D14*
%TO.C,R5*%
X111946001Y-76532600D03*
D15*
X122106001Y-76532600D03*
%TD*%
D14*
%TO.C,R6*%
X111946001Y-89789000D03*
D15*
X122106001Y-89789000D03*
%TD*%
D14*
%TO.C,R1on1*%
X111946001Y-72113800D03*
D15*
X122106001Y-72113800D03*
%TD*%
D18*
%TO.C,S1*%
X143637000Y-103124000D03*
X146177000Y-103124000D03*
X148717000Y-103124000D03*
%TD*%
D19*
%TO.C,U1*%
X129921000Y-110744000D03*
D15*
X127381000Y-110744000D03*
X124841000Y-110744000D03*
X122301000Y-110744000D03*
X122301000Y-103124000D03*
X124841000Y-103124000D03*
X127381000Y-103124000D03*
X129921000Y-103124000D03*
%TD*%
D20*
%TO.C,U2*%
X124079000Y-120777000D03*
X124079000Y-124333000D03*
X149973000Y-120777000D03*
X149973000Y-124333000D03*
D21*
X137033000Y-122809000D03*
%TD*%
D22*
%TO.C,GND*%
X137160000Y-111125000D03*
%TD*%
%TO.C,VCC*%
X123698000Y-116078000D03*
%TD*%
%TO.C,T2-B*%
X150114000Y-88188800D03*
%TD*%
D14*
%TO.C,R1off1*%
X148590000Y-80568800D03*
D15*
X138430000Y-80568800D03*
%TD*%
D22*
%TO.C,Q*%
X115697000Y-104775000D03*
%TD*%
%TO.C,T1-B*%
X126212600Y-91998800D03*
%TD*%
M02*
