%TF.GenerationSoftware,KiCad,Pcbnew,8.0.1*%
%TF.CreationDate,2024-04-02T10:29:12+02:00*%
%TF.ProjectId,RobiV4,526f6269-5634-42e6-9b69-6361645f7063,rev?*%
%TF.SameCoordinates,Original*%
%TF.FileFunction,Legend,Bot*%
%TF.FilePolarity,Positive*%
%FSLAX46Y46*%
G04 Gerber Fmt 4.6, Leading zero omitted, Abs format (unit mm)*
G04 Created by KiCad (PCBNEW 8.0.1) date 2024-04-02 10:29:12*
%MOMM*%
%LPD*%
G01*
G04 APERTURE LIST*
%ADD10C,0.150000*%
%ADD11C,0.050000*%
%ADD12C,0.120000*%
%ADD13C,0.010000*%
G04 APERTURE END LIST*
D10*
X146304000Y-103124000D02*
X143637000Y-103124000D01*
X143637000Y-103124000D02*
X146304000Y-103124000D01*
X140877506Y-96369819D02*
X140877506Y-97084104D01*
X140877506Y-97084104D02*
X140925125Y-97226961D01*
X140925125Y-97226961D02*
X141020363Y-97322200D01*
X141020363Y-97322200D02*
X141163220Y-97369819D01*
X141163220Y-97369819D02*
X141258458Y-97369819D01*
X139925125Y-97369819D02*
X140401315Y-97369819D01*
X140401315Y-97369819D02*
X140401315Y-96369819D01*
X139020363Y-97274580D02*
X139067982Y-97322200D01*
X139067982Y-97322200D02*
X139210839Y-97369819D01*
X139210839Y-97369819D02*
X139306077Y-97369819D01*
X139306077Y-97369819D02*
X139448934Y-97322200D01*
X139448934Y-97322200D02*
X139544172Y-97226961D01*
X139544172Y-97226961D02*
X139591791Y-97131723D01*
X139591791Y-97131723D02*
X139639410Y-96941247D01*
X139639410Y-96941247D02*
X139639410Y-96798390D01*
X139639410Y-96798390D02*
X139591791Y-96607914D01*
X139591791Y-96607914D02*
X139544172Y-96512676D01*
X139544172Y-96512676D02*
X139448934Y-96417438D01*
X139448934Y-96417438D02*
X139306077Y-96369819D01*
X139306077Y-96369819D02*
X139210839Y-96369819D01*
X139210839Y-96369819D02*
X139067982Y-96417438D01*
X139067982Y-96417438D02*
X139020363Y-96465057D01*
X138306077Y-96369819D02*
X138306077Y-97084104D01*
X138306077Y-97084104D02*
X138353696Y-97226961D01*
X138353696Y-97226961D02*
X138448934Y-97322200D01*
X138448934Y-97322200D02*
X138591791Y-97369819D01*
X138591791Y-97369819D02*
X138687029Y-97369819D01*
X137353696Y-97369819D02*
X137829886Y-97369819D01*
X137829886Y-97369819D02*
X137829886Y-96369819D01*
X136448934Y-97274580D02*
X136496553Y-97322200D01*
X136496553Y-97322200D02*
X136639410Y-97369819D01*
X136639410Y-97369819D02*
X136734648Y-97369819D01*
X136734648Y-97369819D02*
X136877505Y-97322200D01*
X136877505Y-97322200D02*
X136972743Y-97226961D01*
X136972743Y-97226961D02*
X137020362Y-97131723D01*
X137020362Y-97131723D02*
X137067981Y-96941247D01*
X137067981Y-96941247D02*
X137067981Y-96798390D01*
X137067981Y-96798390D02*
X137020362Y-96607914D01*
X137020362Y-96607914D02*
X136972743Y-96512676D01*
X136972743Y-96512676D02*
X136877505Y-96417438D01*
X136877505Y-96417438D02*
X136734648Y-96369819D01*
X136734648Y-96369819D02*
X136639410Y-96369819D01*
X136639410Y-96369819D02*
X136496553Y-96417438D01*
X136496553Y-96417438D02*
X136448934Y-96465057D01*
X135734648Y-96369819D02*
X135734648Y-97084104D01*
X135734648Y-97084104D02*
X135782267Y-97226961D01*
X135782267Y-97226961D02*
X135877505Y-97322200D01*
X135877505Y-97322200D02*
X136020362Y-97369819D01*
X136020362Y-97369819D02*
X136115600Y-97369819D01*
X134782267Y-97369819D02*
X135258457Y-97369819D01*
X135258457Y-97369819D02*
X135258457Y-96369819D01*
X133877505Y-97274580D02*
X133925124Y-97322200D01*
X133925124Y-97322200D02*
X134067981Y-97369819D01*
X134067981Y-97369819D02*
X134163219Y-97369819D01*
X134163219Y-97369819D02*
X134306076Y-97322200D01*
X134306076Y-97322200D02*
X134401314Y-97226961D01*
X134401314Y-97226961D02*
X134448933Y-97131723D01*
X134448933Y-97131723D02*
X134496552Y-96941247D01*
X134496552Y-96941247D02*
X134496552Y-96798390D01*
X134496552Y-96798390D02*
X134448933Y-96607914D01*
X134448933Y-96607914D02*
X134401314Y-96512676D01*
X134401314Y-96512676D02*
X134306076Y-96417438D01*
X134306076Y-96417438D02*
X134163219Y-96369819D01*
X134163219Y-96369819D02*
X134067981Y-96369819D01*
X134067981Y-96369819D02*
X133925124Y-96417438D01*
X133925124Y-96417438D02*
X133877505Y-96465057D01*
X133163219Y-96369819D02*
X133163219Y-97084104D01*
X133163219Y-97084104D02*
X133210838Y-97226961D01*
X133210838Y-97226961D02*
X133306076Y-97322200D01*
X133306076Y-97322200D02*
X133448933Y-97369819D01*
X133448933Y-97369819D02*
X133544171Y-97369819D01*
X132210838Y-97369819D02*
X132687028Y-97369819D01*
X132687028Y-97369819D02*
X132687028Y-96369819D01*
X131306076Y-97274580D02*
X131353695Y-97322200D01*
X131353695Y-97322200D02*
X131496552Y-97369819D01*
X131496552Y-97369819D02*
X131591790Y-97369819D01*
X131591790Y-97369819D02*
X131734647Y-97322200D01*
X131734647Y-97322200D02*
X131829885Y-97226961D01*
X131829885Y-97226961D02*
X131877504Y-97131723D01*
X131877504Y-97131723D02*
X131925123Y-96941247D01*
X131925123Y-96941247D02*
X131925123Y-96798390D01*
X131925123Y-96798390D02*
X131877504Y-96607914D01*
X131877504Y-96607914D02*
X131829885Y-96512676D01*
X131829885Y-96512676D02*
X131734647Y-96417438D01*
X131734647Y-96417438D02*
X131591790Y-96369819D01*
X131591790Y-96369819D02*
X131496552Y-96369819D01*
X131496552Y-96369819D02*
X131353695Y-96417438D01*
X131353695Y-96417438D02*
X131306076Y-96465057D01*
X150526428Y-130153580D02*
X150574047Y-130201200D01*
X150574047Y-130201200D02*
X150716904Y-130248819D01*
X150716904Y-130248819D02*
X150812142Y-130248819D01*
X150812142Y-130248819D02*
X150954999Y-130201200D01*
X150954999Y-130201200D02*
X151050237Y-130105961D01*
X151050237Y-130105961D02*
X151097856Y-130010723D01*
X151097856Y-130010723D02*
X151145475Y-129820247D01*
X151145475Y-129820247D02*
X151145475Y-129677390D01*
X151145475Y-129677390D02*
X151097856Y-129486914D01*
X151097856Y-129486914D02*
X151050237Y-129391676D01*
X151050237Y-129391676D02*
X150954999Y-129296438D01*
X150954999Y-129296438D02*
X150812142Y-129248819D01*
X150812142Y-129248819D02*
X150716904Y-129248819D01*
X150716904Y-129248819D02*
X150574047Y-129296438D01*
X150574047Y-129296438D02*
X150526428Y-129344057D01*
X149526428Y-130248819D02*
X149859761Y-129772628D01*
X150097856Y-130248819D02*
X150097856Y-129248819D01*
X150097856Y-129248819D02*
X149716904Y-129248819D01*
X149716904Y-129248819D02*
X149621666Y-129296438D01*
X149621666Y-129296438D02*
X149574047Y-129344057D01*
X149574047Y-129344057D02*
X149526428Y-129439295D01*
X149526428Y-129439295D02*
X149526428Y-129582152D01*
X149526428Y-129582152D02*
X149574047Y-129677390D01*
X149574047Y-129677390D02*
X149621666Y-129725009D01*
X149621666Y-129725009D02*
X149716904Y-129772628D01*
X149716904Y-129772628D02*
X150097856Y-129772628D01*
X149145475Y-129344057D02*
X149097856Y-129296438D01*
X149097856Y-129296438D02*
X149002618Y-129248819D01*
X149002618Y-129248819D02*
X148764523Y-129248819D01*
X148764523Y-129248819D02*
X148669285Y-129296438D01*
X148669285Y-129296438D02*
X148621666Y-129344057D01*
X148621666Y-129344057D02*
X148574047Y-129439295D01*
X148574047Y-129439295D02*
X148574047Y-129534533D01*
X148574047Y-129534533D02*
X148621666Y-129677390D01*
X148621666Y-129677390D02*
X149193094Y-130248819D01*
X149193094Y-130248819D02*
X148574047Y-130248819D01*
X147954999Y-129248819D02*
X147859761Y-129248819D01*
X147859761Y-129248819D02*
X147764523Y-129296438D01*
X147764523Y-129296438D02*
X147716904Y-129344057D01*
X147716904Y-129344057D02*
X147669285Y-129439295D01*
X147669285Y-129439295D02*
X147621666Y-129629771D01*
X147621666Y-129629771D02*
X147621666Y-129867866D01*
X147621666Y-129867866D02*
X147669285Y-130058342D01*
X147669285Y-130058342D02*
X147716904Y-130153580D01*
X147716904Y-130153580D02*
X147764523Y-130201200D01*
X147764523Y-130201200D02*
X147859761Y-130248819D01*
X147859761Y-130248819D02*
X147954999Y-130248819D01*
X147954999Y-130248819D02*
X148050237Y-130201200D01*
X148050237Y-130201200D02*
X148097856Y-130153580D01*
X148097856Y-130153580D02*
X148145475Y-130058342D01*
X148145475Y-130058342D02*
X148193094Y-129867866D01*
X148193094Y-129867866D02*
X148193094Y-129629771D01*
X148193094Y-129629771D02*
X148145475Y-129439295D01*
X148145475Y-129439295D02*
X148097856Y-129344057D01*
X148097856Y-129344057D02*
X148050237Y-129296438D01*
X148050237Y-129296438D02*
X147954999Y-129248819D01*
X147240713Y-129344057D02*
X147193094Y-129296438D01*
X147193094Y-129296438D02*
X147097856Y-129248819D01*
X147097856Y-129248819D02*
X146859761Y-129248819D01*
X146859761Y-129248819D02*
X146764523Y-129296438D01*
X146764523Y-129296438D02*
X146716904Y-129344057D01*
X146716904Y-129344057D02*
X146669285Y-129439295D01*
X146669285Y-129439295D02*
X146669285Y-129534533D01*
X146669285Y-129534533D02*
X146716904Y-129677390D01*
X146716904Y-129677390D02*
X147288332Y-130248819D01*
X147288332Y-130248819D02*
X146669285Y-130248819D01*
X146335951Y-129248819D02*
X145716904Y-129248819D01*
X145716904Y-129248819D02*
X146050237Y-129629771D01*
X146050237Y-129629771D02*
X145907380Y-129629771D01*
X145907380Y-129629771D02*
X145812142Y-129677390D01*
X145812142Y-129677390D02*
X145764523Y-129725009D01*
X145764523Y-129725009D02*
X145716904Y-129820247D01*
X145716904Y-129820247D02*
X145716904Y-130058342D01*
X145716904Y-130058342D02*
X145764523Y-130153580D01*
X145764523Y-130153580D02*
X145812142Y-130201200D01*
X145812142Y-130201200D02*
X145907380Y-130248819D01*
X145907380Y-130248819D02*
X146193094Y-130248819D01*
X146193094Y-130248819D02*
X146288332Y-130201200D01*
X146288332Y-130201200D02*
X146335951Y-130153580D01*
X145335951Y-129344057D02*
X145288332Y-129296438D01*
X145288332Y-129296438D02*
X145193094Y-129248819D01*
X145193094Y-129248819D02*
X144954999Y-129248819D01*
X144954999Y-129248819D02*
X144859761Y-129296438D01*
X144859761Y-129296438D02*
X144812142Y-129344057D01*
X144812142Y-129344057D02*
X144764523Y-129439295D01*
X144764523Y-129439295D02*
X144764523Y-129534533D01*
X144764523Y-129534533D02*
X144812142Y-129677390D01*
X144812142Y-129677390D02*
X145383570Y-130248819D01*
X145383570Y-130248819D02*
X144764523Y-130248819D01*
X158709887Y-79296009D02*
X158567030Y-79343628D01*
X158567030Y-79343628D02*
X158519411Y-79391247D01*
X158519411Y-79391247D02*
X158471792Y-79486485D01*
X158471792Y-79486485D02*
X158471792Y-79629342D01*
X158471792Y-79629342D02*
X158519411Y-79724580D01*
X158519411Y-79724580D02*
X158567030Y-79772200D01*
X158567030Y-79772200D02*
X158662268Y-79819819D01*
X158662268Y-79819819D02*
X159043220Y-79819819D01*
X159043220Y-79819819D02*
X159043220Y-78819819D01*
X159043220Y-78819819D02*
X158709887Y-78819819D01*
X158709887Y-78819819D02*
X158614649Y-78867438D01*
X158614649Y-78867438D02*
X158567030Y-78915057D01*
X158567030Y-78915057D02*
X158519411Y-79010295D01*
X158519411Y-79010295D02*
X158519411Y-79105533D01*
X158519411Y-79105533D02*
X158567030Y-79200771D01*
X158567030Y-79200771D02*
X158614649Y-79248390D01*
X158614649Y-79248390D02*
X158709887Y-79296009D01*
X158709887Y-79296009D02*
X159043220Y-79296009D01*
X157471792Y-79724580D02*
X157519411Y-79772200D01*
X157519411Y-79772200D02*
X157662268Y-79819819D01*
X157662268Y-79819819D02*
X157757506Y-79819819D01*
X157757506Y-79819819D02*
X157900363Y-79772200D01*
X157900363Y-79772200D02*
X157995601Y-79676961D01*
X157995601Y-79676961D02*
X158043220Y-79581723D01*
X158043220Y-79581723D02*
X158090839Y-79391247D01*
X158090839Y-79391247D02*
X158090839Y-79248390D01*
X158090839Y-79248390D02*
X158043220Y-79057914D01*
X158043220Y-79057914D02*
X157995601Y-78962676D01*
X157995601Y-78962676D02*
X157900363Y-78867438D01*
X157900363Y-78867438D02*
X157757506Y-78819819D01*
X157757506Y-78819819D02*
X157662268Y-78819819D01*
X157662268Y-78819819D02*
X157519411Y-78867438D01*
X157519411Y-78867438D02*
X157471792Y-78915057D01*
X156567030Y-78819819D02*
X157043220Y-78819819D01*
X157043220Y-78819819D02*
X157090839Y-79296009D01*
X157090839Y-79296009D02*
X157043220Y-79248390D01*
X157043220Y-79248390D02*
X156947982Y-79200771D01*
X156947982Y-79200771D02*
X156709887Y-79200771D01*
X156709887Y-79200771D02*
X156614649Y-79248390D01*
X156614649Y-79248390D02*
X156567030Y-79296009D01*
X156567030Y-79296009D02*
X156519411Y-79391247D01*
X156519411Y-79391247D02*
X156519411Y-79629342D01*
X156519411Y-79629342D02*
X156567030Y-79724580D01*
X156567030Y-79724580D02*
X156614649Y-79772200D01*
X156614649Y-79772200D02*
X156709887Y-79819819D01*
X156709887Y-79819819D02*
X156947982Y-79819819D01*
X156947982Y-79819819D02*
X157043220Y-79772200D01*
X157043220Y-79772200D02*
X157090839Y-79724580D01*
X155662268Y-79153152D02*
X155662268Y-79819819D01*
X155900363Y-78772200D02*
X156138458Y-79486485D01*
X156138458Y-79486485D02*
X155519411Y-79486485D01*
X154995601Y-79248390D02*
X155090839Y-79200771D01*
X155090839Y-79200771D02*
X155138458Y-79153152D01*
X155138458Y-79153152D02*
X155186077Y-79057914D01*
X155186077Y-79057914D02*
X155186077Y-79010295D01*
X155186077Y-79010295D02*
X155138458Y-78915057D01*
X155138458Y-78915057D02*
X155090839Y-78867438D01*
X155090839Y-78867438D02*
X154995601Y-78819819D01*
X154995601Y-78819819D02*
X154805125Y-78819819D01*
X154805125Y-78819819D02*
X154709887Y-78867438D01*
X154709887Y-78867438D02*
X154662268Y-78915057D01*
X154662268Y-78915057D02*
X154614649Y-79010295D01*
X154614649Y-79010295D02*
X154614649Y-79057914D01*
X154614649Y-79057914D02*
X154662268Y-79153152D01*
X154662268Y-79153152D02*
X154709887Y-79200771D01*
X154709887Y-79200771D02*
X154805125Y-79248390D01*
X154805125Y-79248390D02*
X154995601Y-79248390D01*
X154995601Y-79248390D02*
X155090839Y-79296009D01*
X155090839Y-79296009D02*
X155138458Y-79343628D01*
X155138458Y-79343628D02*
X155186077Y-79438866D01*
X155186077Y-79438866D02*
X155186077Y-79629342D01*
X155186077Y-79629342D02*
X155138458Y-79724580D01*
X155138458Y-79724580D02*
X155090839Y-79772200D01*
X155090839Y-79772200D02*
X154995601Y-79819819D01*
X154995601Y-79819819D02*
X154805125Y-79819819D01*
X154805125Y-79819819D02*
X154709887Y-79772200D01*
X154709887Y-79772200D02*
X154662268Y-79724580D01*
X154662268Y-79724580D02*
X154614649Y-79629342D01*
X154614649Y-79629342D02*
X154614649Y-79438866D01*
X154614649Y-79438866D02*
X154662268Y-79343628D01*
X154662268Y-79343628D02*
X154709887Y-79296009D01*
X154709887Y-79296009D02*
X154805125Y-79248390D01*
X132569887Y-82846009D02*
X132427030Y-82893628D01*
X132427030Y-82893628D02*
X132379411Y-82941247D01*
X132379411Y-82941247D02*
X132331792Y-83036485D01*
X132331792Y-83036485D02*
X132331792Y-83179342D01*
X132331792Y-83179342D02*
X132379411Y-83274580D01*
X132379411Y-83274580D02*
X132427030Y-83322200D01*
X132427030Y-83322200D02*
X132522268Y-83369819D01*
X132522268Y-83369819D02*
X132903220Y-83369819D01*
X132903220Y-83369819D02*
X132903220Y-82369819D01*
X132903220Y-82369819D02*
X132569887Y-82369819D01*
X132569887Y-82369819D02*
X132474649Y-82417438D01*
X132474649Y-82417438D02*
X132427030Y-82465057D01*
X132427030Y-82465057D02*
X132379411Y-82560295D01*
X132379411Y-82560295D02*
X132379411Y-82655533D01*
X132379411Y-82655533D02*
X132427030Y-82750771D01*
X132427030Y-82750771D02*
X132474649Y-82798390D01*
X132474649Y-82798390D02*
X132569887Y-82846009D01*
X132569887Y-82846009D02*
X132903220Y-82846009D01*
X131331792Y-83274580D02*
X131379411Y-83322200D01*
X131379411Y-83322200D02*
X131522268Y-83369819D01*
X131522268Y-83369819D02*
X131617506Y-83369819D01*
X131617506Y-83369819D02*
X131760363Y-83322200D01*
X131760363Y-83322200D02*
X131855601Y-83226961D01*
X131855601Y-83226961D02*
X131903220Y-83131723D01*
X131903220Y-83131723D02*
X131950839Y-82941247D01*
X131950839Y-82941247D02*
X131950839Y-82798390D01*
X131950839Y-82798390D02*
X131903220Y-82607914D01*
X131903220Y-82607914D02*
X131855601Y-82512676D01*
X131855601Y-82512676D02*
X131760363Y-82417438D01*
X131760363Y-82417438D02*
X131617506Y-82369819D01*
X131617506Y-82369819D02*
X131522268Y-82369819D01*
X131522268Y-82369819D02*
X131379411Y-82417438D01*
X131379411Y-82417438D02*
X131331792Y-82465057D01*
X130427030Y-82369819D02*
X130903220Y-82369819D01*
X130903220Y-82369819D02*
X130950839Y-82846009D01*
X130950839Y-82846009D02*
X130903220Y-82798390D01*
X130903220Y-82798390D02*
X130807982Y-82750771D01*
X130807982Y-82750771D02*
X130569887Y-82750771D01*
X130569887Y-82750771D02*
X130474649Y-82798390D01*
X130474649Y-82798390D02*
X130427030Y-82846009D01*
X130427030Y-82846009D02*
X130379411Y-82941247D01*
X130379411Y-82941247D02*
X130379411Y-83179342D01*
X130379411Y-83179342D02*
X130427030Y-83274580D01*
X130427030Y-83274580D02*
X130474649Y-83322200D01*
X130474649Y-83322200D02*
X130569887Y-83369819D01*
X130569887Y-83369819D02*
X130807982Y-83369819D01*
X130807982Y-83369819D02*
X130903220Y-83322200D01*
X130903220Y-83322200D02*
X130950839Y-83274580D01*
X129522268Y-82703152D02*
X129522268Y-83369819D01*
X129760363Y-82322200D02*
X129998458Y-83036485D01*
X129998458Y-83036485D02*
X129379411Y-83036485D01*
X128855601Y-82798390D02*
X128950839Y-82750771D01*
X128950839Y-82750771D02*
X128998458Y-82703152D01*
X128998458Y-82703152D02*
X129046077Y-82607914D01*
X129046077Y-82607914D02*
X129046077Y-82560295D01*
X129046077Y-82560295D02*
X128998458Y-82465057D01*
X128998458Y-82465057D02*
X128950839Y-82417438D01*
X128950839Y-82417438D02*
X128855601Y-82369819D01*
X128855601Y-82369819D02*
X128665125Y-82369819D01*
X128665125Y-82369819D02*
X128569887Y-82417438D01*
X128569887Y-82417438D02*
X128522268Y-82465057D01*
X128522268Y-82465057D02*
X128474649Y-82560295D01*
X128474649Y-82560295D02*
X128474649Y-82607914D01*
X128474649Y-82607914D02*
X128522268Y-82703152D01*
X128522268Y-82703152D02*
X128569887Y-82750771D01*
X128569887Y-82750771D02*
X128665125Y-82798390D01*
X128665125Y-82798390D02*
X128855601Y-82798390D01*
X128855601Y-82798390D02*
X128950839Y-82846009D01*
X128950839Y-82846009D02*
X128998458Y-82893628D01*
X128998458Y-82893628D02*
X129046077Y-82988866D01*
X129046077Y-82988866D02*
X129046077Y-83179342D01*
X129046077Y-83179342D02*
X128998458Y-83274580D01*
X128998458Y-83274580D02*
X128950839Y-83322200D01*
X128950839Y-83322200D02*
X128855601Y-83369819D01*
X128855601Y-83369819D02*
X128665125Y-83369819D01*
X128665125Y-83369819D02*
X128569887Y-83322200D01*
X128569887Y-83322200D02*
X128522268Y-83274580D01*
X128522268Y-83274580D02*
X128474649Y-83179342D01*
X128474649Y-83179342D02*
X128474649Y-82988866D01*
X128474649Y-82988866D02*
X128522268Y-82893628D01*
X128522268Y-82893628D02*
X128569887Y-82846009D01*
X128569887Y-82846009D02*
X128665125Y-82798390D01*
X121927904Y-55699819D02*
X121927904Y-54699819D01*
X121356476Y-55699819D02*
X121785047Y-55128390D01*
X121356476Y-54699819D02*
X121927904Y-55271247D01*
X139834904Y-55318819D02*
X139834904Y-54318819D01*
X139263476Y-55318819D02*
X139692047Y-54747390D01*
X139263476Y-54318819D02*
X139834904Y-54890247D01*
X125579094Y-53794819D02*
X125579094Y-52794819D01*
X125579094Y-52794819D02*
X125340999Y-52794819D01*
X125340999Y-52794819D02*
X125198142Y-52842438D01*
X125198142Y-52842438D02*
X125102904Y-52937676D01*
X125102904Y-52937676D02*
X125055285Y-53032914D01*
X125055285Y-53032914D02*
X125007666Y-53223390D01*
X125007666Y-53223390D02*
X125007666Y-53366247D01*
X125007666Y-53366247D02*
X125055285Y-53556723D01*
X125055285Y-53556723D02*
X125102904Y-53651961D01*
X125102904Y-53651961D02*
X125198142Y-53747200D01*
X125198142Y-53747200D02*
X125340999Y-53794819D01*
X125340999Y-53794819D02*
X125579094Y-53794819D01*
X124055285Y-53794819D02*
X124626713Y-53794819D01*
X124340999Y-53794819D02*
X124340999Y-52794819D01*
X124340999Y-52794819D02*
X124436237Y-52937676D01*
X124436237Y-52937676D02*
X124531475Y-53032914D01*
X124531475Y-53032914D02*
X124626713Y-53080533D01*
X143359094Y-53286819D02*
X143359094Y-52286819D01*
X143359094Y-52286819D02*
X143120999Y-52286819D01*
X143120999Y-52286819D02*
X142978142Y-52334438D01*
X142978142Y-52334438D02*
X142882904Y-52429676D01*
X142882904Y-52429676D02*
X142835285Y-52524914D01*
X142835285Y-52524914D02*
X142787666Y-52715390D01*
X142787666Y-52715390D02*
X142787666Y-52858247D01*
X142787666Y-52858247D02*
X142835285Y-53048723D01*
X142835285Y-53048723D02*
X142882904Y-53143961D01*
X142882904Y-53143961D02*
X142978142Y-53239200D01*
X142978142Y-53239200D02*
X143120999Y-53286819D01*
X143120999Y-53286819D02*
X143359094Y-53286819D01*
X142406713Y-52382057D02*
X142359094Y-52334438D01*
X142359094Y-52334438D02*
X142263856Y-52286819D01*
X142263856Y-52286819D02*
X142025761Y-52286819D01*
X142025761Y-52286819D02*
X141930523Y-52334438D01*
X141930523Y-52334438D02*
X141882904Y-52382057D01*
X141882904Y-52382057D02*
X141835285Y-52477295D01*
X141835285Y-52477295D02*
X141835285Y-52572533D01*
X141835285Y-52572533D02*
X141882904Y-52715390D01*
X141882904Y-52715390D02*
X142454332Y-53286819D01*
X142454332Y-53286819D02*
X141835285Y-53286819D01*
X151149666Y-71053580D02*
X151197285Y-71101200D01*
X151197285Y-71101200D02*
X151340142Y-71148819D01*
X151340142Y-71148819D02*
X151435380Y-71148819D01*
X151435380Y-71148819D02*
X151578237Y-71101200D01*
X151578237Y-71101200D02*
X151673475Y-71005961D01*
X151673475Y-71005961D02*
X151721094Y-70910723D01*
X151721094Y-70910723D02*
X151768713Y-70720247D01*
X151768713Y-70720247D02*
X151768713Y-70577390D01*
X151768713Y-70577390D02*
X151721094Y-70386914D01*
X151721094Y-70386914D02*
X151673475Y-70291676D01*
X151673475Y-70291676D02*
X151578237Y-70196438D01*
X151578237Y-70196438D02*
X151435380Y-70148819D01*
X151435380Y-70148819D02*
X151340142Y-70148819D01*
X151340142Y-70148819D02*
X151197285Y-70196438D01*
X151197285Y-70196438D02*
X151149666Y-70244057D01*
X150197285Y-71148819D02*
X150768713Y-71148819D01*
X150482999Y-71148819D02*
X150482999Y-70148819D01*
X150482999Y-70148819D02*
X150578237Y-70291676D01*
X150578237Y-70291676D02*
X150673475Y-70386914D01*
X150673475Y-70386914D02*
X150768713Y-70434533D01*
X152149666Y-61682152D02*
X152149666Y-62348819D01*
X152387761Y-61301200D02*
X152625856Y-62015485D01*
X152625856Y-62015485D02*
X152006809Y-62015485D01*
X151721094Y-61348819D02*
X151054428Y-61348819D01*
X151054428Y-61348819D02*
X151482999Y-62348819D01*
X150244904Y-61682152D02*
X150244904Y-62348819D01*
X150673475Y-61682152D02*
X150673475Y-62205961D01*
X150673475Y-62205961D02*
X150625856Y-62301200D01*
X150625856Y-62301200D02*
X150530618Y-62348819D01*
X150530618Y-62348819D02*
X150387761Y-62348819D01*
X150387761Y-62348819D02*
X150292523Y-62301200D01*
X150292523Y-62301200D02*
X150244904Y-62253580D01*
X149435380Y-61825009D02*
X149768713Y-61825009D01*
X149768713Y-62348819D02*
X149768713Y-61348819D01*
X149768713Y-61348819D02*
X149292523Y-61348819D01*
X118035294Y-68526819D02*
X118035294Y-67526819D01*
X118035294Y-67526819D02*
X117797199Y-67526819D01*
X117797199Y-67526819D02*
X117654342Y-67574438D01*
X117654342Y-67574438D02*
X117559104Y-67669676D01*
X117559104Y-67669676D02*
X117511485Y-67764914D01*
X117511485Y-67764914D02*
X117463866Y-67955390D01*
X117463866Y-67955390D02*
X117463866Y-68098247D01*
X117463866Y-68098247D02*
X117511485Y-68288723D01*
X117511485Y-68288723D02*
X117559104Y-68383961D01*
X117559104Y-68383961D02*
X117654342Y-68479200D01*
X117654342Y-68479200D02*
X117797199Y-68526819D01*
X117797199Y-68526819D02*
X118035294Y-68526819D01*
X117130532Y-67526819D02*
X116511485Y-67526819D01*
X116511485Y-67526819D02*
X116844818Y-67907771D01*
X116844818Y-67907771D02*
X116701961Y-67907771D01*
X116701961Y-67907771D02*
X116606723Y-67955390D01*
X116606723Y-67955390D02*
X116559104Y-68003009D01*
X116559104Y-68003009D02*
X116511485Y-68098247D01*
X116511485Y-68098247D02*
X116511485Y-68336342D01*
X116511485Y-68336342D02*
X116559104Y-68431580D01*
X116559104Y-68431580D02*
X116606723Y-68479200D01*
X116606723Y-68479200D02*
X116701961Y-68526819D01*
X116701961Y-68526819D02*
X116987675Y-68526819D01*
X116987675Y-68526819D02*
X117082913Y-68479200D01*
X117082913Y-68479200D02*
X117130532Y-68431580D01*
X119168858Y-66279819D02*
X119740286Y-66279819D01*
X119454572Y-66279819D02*
X119454572Y-65279819D01*
X119454572Y-65279819D02*
X119549810Y-65422676D01*
X119549810Y-65422676D02*
X119645048Y-65517914D01*
X119645048Y-65517914D02*
X119740286Y-65565533D01*
X118740286Y-66279819D02*
X118740286Y-65279819D01*
X118740286Y-65279819D02*
X118168858Y-66279819D01*
X118168858Y-66279819D02*
X118168858Y-65279819D01*
X117264096Y-65613152D02*
X117264096Y-66279819D01*
X117502191Y-65232200D02*
X117740286Y-65946485D01*
X117740286Y-65946485D02*
X117121239Y-65946485D01*
X116216477Y-66279819D02*
X116787905Y-66279819D01*
X116502191Y-66279819D02*
X116502191Y-65279819D01*
X116502191Y-65279819D02*
X116597429Y-65422676D01*
X116597429Y-65422676D02*
X116692667Y-65517914D01*
X116692667Y-65517914D02*
X116787905Y-65565533D01*
X115359334Y-65613152D02*
X115359334Y-66279819D01*
X115597429Y-65232200D02*
X115835524Y-65946485D01*
X115835524Y-65946485D02*
X115216477Y-65946485D01*
X114692667Y-65708390D02*
X114787905Y-65660771D01*
X114787905Y-65660771D02*
X114835524Y-65613152D01*
X114835524Y-65613152D02*
X114883143Y-65517914D01*
X114883143Y-65517914D02*
X114883143Y-65470295D01*
X114883143Y-65470295D02*
X114835524Y-65375057D01*
X114835524Y-65375057D02*
X114787905Y-65327438D01*
X114787905Y-65327438D02*
X114692667Y-65279819D01*
X114692667Y-65279819D02*
X114502191Y-65279819D01*
X114502191Y-65279819D02*
X114406953Y-65327438D01*
X114406953Y-65327438D02*
X114359334Y-65375057D01*
X114359334Y-65375057D02*
X114311715Y-65470295D01*
X114311715Y-65470295D02*
X114311715Y-65517914D01*
X114311715Y-65517914D02*
X114359334Y-65613152D01*
X114359334Y-65613152D02*
X114406953Y-65660771D01*
X114406953Y-65660771D02*
X114502191Y-65708390D01*
X114502191Y-65708390D02*
X114692667Y-65708390D01*
X114692667Y-65708390D02*
X114787905Y-65756009D01*
X114787905Y-65756009D02*
X114835524Y-65803628D01*
X114835524Y-65803628D02*
X114883143Y-65898866D01*
X114883143Y-65898866D02*
X114883143Y-66089342D01*
X114883143Y-66089342D02*
X114835524Y-66184580D01*
X114835524Y-66184580D02*
X114787905Y-66232200D01*
X114787905Y-66232200D02*
X114692667Y-66279819D01*
X114692667Y-66279819D02*
X114502191Y-66279819D01*
X114502191Y-66279819D02*
X114406953Y-66232200D01*
X114406953Y-66232200D02*
X114359334Y-66184580D01*
X114359334Y-66184580D02*
X114311715Y-66089342D01*
X114311715Y-66089342D02*
X114311715Y-65898866D01*
X114311715Y-65898866D02*
X114359334Y-65803628D01*
X114359334Y-65803628D02*
X114406953Y-65756009D01*
X114406953Y-65756009D02*
X114502191Y-65708390D01*
X111386904Y-68399819D02*
X111386904Y-67399819D01*
X110815476Y-68399819D02*
X111244047Y-67828390D01*
X110815476Y-67399819D02*
X111386904Y-67971247D01*
X131114704Y-86119619D02*
X130543276Y-86119619D01*
X130828990Y-87119619D02*
X130828990Y-86119619D01*
X129686133Y-87119619D02*
X130257561Y-87119619D01*
X129971847Y-87119619D02*
X129971847Y-86119619D01*
X129971847Y-86119619D02*
X130067085Y-86262476D01*
X130067085Y-86262476D02*
X130162323Y-86357714D01*
X130162323Y-86357714D02*
X130257561Y-86405333D01*
X157327504Y-83325619D02*
X156756076Y-83325619D01*
X157041790Y-84325619D02*
X157041790Y-83325619D01*
X156470361Y-83420857D02*
X156422742Y-83373238D01*
X156422742Y-83373238D02*
X156327504Y-83325619D01*
X156327504Y-83325619D02*
X156089409Y-83325619D01*
X156089409Y-83325619D02*
X155994171Y-83373238D01*
X155994171Y-83373238D02*
X155946552Y-83420857D01*
X155946552Y-83420857D02*
X155898933Y-83516095D01*
X155898933Y-83516095D02*
X155898933Y-83611333D01*
X155898933Y-83611333D02*
X155946552Y-83754190D01*
X155946552Y-83754190D02*
X156517980Y-84325619D01*
X156517980Y-84325619D02*
X155898933Y-84325619D01*
X117260666Y-81379219D02*
X117593999Y-80903028D01*
X117832094Y-81379219D02*
X117832094Y-80379219D01*
X117832094Y-80379219D02*
X117451142Y-80379219D01*
X117451142Y-80379219D02*
X117355904Y-80426838D01*
X117355904Y-80426838D02*
X117308285Y-80474457D01*
X117308285Y-80474457D02*
X117260666Y-80569695D01*
X117260666Y-80569695D02*
X117260666Y-80712552D01*
X117260666Y-80712552D02*
X117308285Y-80807790D01*
X117308285Y-80807790D02*
X117355904Y-80855409D01*
X117355904Y-80855409D02*
X117451142Y-80903028D01*
X117451142Y-80903028D02*
X117832094Y-80903028D01*
X116927332Y-80379219D02*
X116308285Y-80379219D01*
X116308285Y-80379219D02*
X116641618Y-80760171D01*
X116641618Y-80760171D02*
X116498761Y-80760171D01*
X116498761Y-80760171D02*
X116403523Y-80807790D01*
X116403523Y-80807790D02*
X116355904Y-80855409D01*
X116355904Y-80855409D02*
X116308285Y-80950647D01*
X116308285Y-80950647D02*
X116308285Y-81188742D01*
X116308285Y-81188742D02*
X116355904Y-81283980D01*
X116355904Y-81283980D02*
X116403523Y-81331600D01*
X116403523Y-81331600D02*
X116498761Y-81379219D01*
X116498761Y-81379219D02*
X116784475Y-81379219D01*
X116784475Y-81379219D02*
X116879713Y-81331600D01*
X116879713Y-81331600D02*
X116927332Y-81283980D01*
X118145048Y-78194819D02*
X118621238Y-78194819D01*
X118621238Y-78194819D02*
X118668857Y-78671009D01*
X118668857Y-78671009D02*
X118621238Y-78623390D01*
X118621238Y-78623390D02*
X118526000Y-78575771D01*
X118526000Y-78575771D02*
X118287905Y-78575771D01*
X118287905Y-78575771D02*
X118192667Y-78623390D01*
X118192667Y-78623390D02*
X118145048Y-78671009D01*
X118145048Y-78671009D02*
X118097429Y-78766247D01*
X118097429Y-78766247D02*
X118097429Y-79004342D01*
X118097429Y-79004342D02*
X118145048Y-79099580D01*
X118145048Y-79099580D02*
X118192667Y-79147200D01*
X118192667Y-79147200D02*
X118287905Y-79194819D01*
X118287905Y-79194819D02*
X118526000Y-79194819D01*
X118526000Y-79194819D02*
X118621238Y-79147200D01*
X118621238Y-79147200D02*
X118668857Y-79099580D01*
X117240286Y-78194819D02*
X117430762Y-78194819D01*
X117430762Y-78194819D02*
X117526000Y-78242438D01*
X117526000Y-78242438D02*
X117573619Y-78290057D01*
X117573619Y-78290057D02*
X117668857Y-78432914D01*
X117668857Y-78432914D02*
X117716476Y-78623390D01*
X117716476Y-78623390D02*
X117716476Y-79004342D01*
X117716476Y-79004342D02*
X117668857Y-79099580D01*
X117668857Y-79099580D02*
X117621238Y-79147200D01*
X117621238Y-79147200D02*
X117526000Y-79194819D01*
X117526000Y-79194819D02*
X117335524Y-79194819D01*
X117335524Y-79194819D02*
X117240286Y-79147200D01*
X117240286Y-79147200D02*
X117192667Y-79099580D01*
X117192667Y-79099580D02*
X117145048Y-79004342D01*
X117145048Y-79004342D02*
X117145048Y-78766247D01*
X117145048Y-78766247D02*
X117192667Y-78671009D01*
X117192667Y-78671009D02*
X117240286Y-78623390D01*
X117240286Y-78623390D02*
X117335524Y-78575771D01*
X117335524Y-78575771D02*
X117526000Y-78575771D01*
X117526000Y-78575771D02*
X117621238Y-78623390D01*
X117621238Y-78623390D02*
X117668857Y-78671009D01*
X117668857Y-78671009D02*
X117716476Y-78766247D01*
X116526000Y-78194819D02*
X116430762Y-78194819D01*
X116430762Y-78194819D02*
X116335524Y-78242438D01*
X116335524Y-78242438D02*
X116287905Y-78290057D01*
X116287905Y-78290057D02*
X116240286Y-78385295D01*
X116240286Y-78385295D02*
X116192667Y-78575771D01*
X116192667Y-78575771D02*
X116192667Y-78813866D01*
X116192667Y-78813866D02*
X116240286Y-79004342D01*
X116240286Y-79004342D02*
X116287905Y-79099580D01*
X116287905Y-79099580D02*
X116335524Y-79147200D01*
X116335524Y-79147200D02*
X116430762Y-79194819D01*
X116430762Y-79194819D02*
X116526000Y-79194819D01*
X116526000Y-79194819D02*
X116621238Y-79147200D01*
X116621238Y-79147200D02*
X116668857Y-79099580D01*
X116668857Y-79099580D02*
X116716476Y-79004342D01*
X116716476Y-79004342D02*
X116764095Y-78813866D01*
X116764095Y-78813866D02*
X116764095Y-78575771D01*
X116764095Y-78575771D02*
X116716476Y-78385295D01*
X116716476Y-78385295D02*
X116668857Y-78290057D01*
X116668857Y-78290057D02*
X116621238Y-78242438D01*
X116621238Y-78242438D02*
X116526000Y-78194819D01*
X115764095Y-79194819D02*
X115764095Y-78194819D01*
X115668857Y-78813866D02*
X115383143Y-79194819D01*
X115383143Y-78528152D02*
X115764095Y-78909104D01*
X117260666Y-85900419D02*
X117593999Y-85424228D01*
X117832094Y-85900419D02*
X117832094Y-84900419D01*
X117832094Y-84900419D02*
X117451142Y-84900419D01*
X117451142Y-84900419D02*
X117355904Y-84948038D01*
X117355904Y-84948038D02*
X117308285Y-84995657D01*
X117308285Y-84995657D02*
X117260666Y-85090895D01*
X117260666Y-85090895D02*
X117260666Y-85233752D01*
X117260666Y-85233752D02*
X117308285Y-85328990D01*
X117308285Y-85328990D02*
X117355904Y-85376609D01*
X117355904Y-85376609D02*
X117451142Y-85424228D01*
X117451142Y-85424228D02*
X117832094Y-85424228D01*
X116403523Y-85233752D02*
X116403523Y-85900419D01*
X116641618Y-84852800D02*
X116879713Y-85567085D01*
X116879713Y-85567085D02*
X116260666Y-85567085D01*
X118716476Y-82639819D02*
X118097429Y-82639819D01*
X118097429Y-82639819D02*
X118430762Y-83020771D01*
X118430762Y-83020771D02*
X118287905Y-83020771D01*
X118287905Y-83020771D02*
X118192667Y-83068390D01*
X118192667Y-83068390D02*
X118145048Y-83116009D01*
X118145048Y-83116009D02*
X118097429Y-83211247D01*
X118097429Y-83211247D02*
X118097429Y-83449342D01*
X118097429Y-83449342D02*
X118145048Y-83544580D01*
X118145048Y-83544580D02*
X118192667Y-83592200D01*
X118192667Y-83592200D02*
X118287905Y-83639819D01*
X118287905Y-83639819D02*
X118573619Y-83639819D01*
X118573619Y-83639819D02*
X118668857Y-83592200D01*
X118668857Y-83592200D02*
X118716476Y-83544580D01*
X117621238Y-83639819D02*
X117430762Y-83639819D01*
X117430762Y-83639819D02*
X117335524Y-83592200D01*
X117335524Y-83592200D02*
X117287905Y-83544580D01*
X117287905Y-83544580D02*
X117192667Y-83401723D01*
X117192667Y-83401723D02*
X117145048Y-83211247D01*
X117145048Y-83211247D02*
X117145048Y-82830295D01*
X117145048Y-82830295D02*
X117192667Y-82735057D01*
X117192667Y-82735057D02*
X117240286Y-82687438D01*
X117240286Y-82687438D02*
X117335524Y-82639819D01*
X117335524Y-82639819D02*
X117526000Y-82639819D01*
X117526000Y-82639819D02*
X117621238Y-82687438D01*
X117621238Y-82687438D02*
X117668857Y-82735057D01*
X117668857Y-82735057D02*
X117716476Y-82830295D01*
X117716476Y-82830295D02*
X117716476Y-83068390D01*
X117716476Y-83068390D02*
X117668857Y-83163628D01*
X117668857Y-83163628D02*
X117621238Y-83211247D01*
X117621238Y-83211247D02*
X117526000Y-83258866D01*
X117526000Y-83258866D02*
X117335524Y-83258866D01*
X117335524Y-83258866D02*
X117240286Y-83211247D01*
X117240286Y-83211247D02*
X117192667Y-83163628D01*
X117192667Y-83163628D02*
X117145048Y-83068390D01*
X116526000Y-82639819D02*
X116430762Y-82639819D01*
X116430762Y-82639819D02*
X116335524Y-82687438D01*
X116335524Y-82687438D02*
X116287905Y-82735057D01*
X116287905Y-82735057D02*
X116240286Y-82830295D01*
X116240286Y-82830295D02*
X116192667Y-83020771D01*
X116192667Y-83020771D02*
X116192667Y-83258866D01*
X116192667Y-83258866D02*
X116240286Y-83449342D01*
X116240286Y-83449342D02*
X116287905Y-83544580D01*
X116287905Y-83544580D02*
X116335524Y-83592200D01*
X116335524Y-83592200D02*
X116430762Y-83639819D01*
X116430762Y-83639819D02*
X116526000Y-83639819D01*
X116526000Y-83639819D02*
X116621238Y-83592200D01*
X116621238Y-83592200D02*
X116668857Y-83544580D01*
X116668857Y-83544580D02*
X116716476Y-83449342D01*
X116716476Y-83449342D02*
X116764095Y-83258866D01*
X116764095Y-83258866D02*
X116764095Y-83020771D01*
X116764095Y-83020771D02*
X116716476Y-82830295D01*
X116716476Y-82830295D02*
X116668857Y-82735057D01*
X116668857Y-82735057D02*
X116621238Y-82687438D01*
X116621238Y-82687438D02*
X116526000Y-82639819D01*
X115764095Y-83639819D02*
X115764095Y-82639819D01*
X115668857Y-83258866D02*
X115383143Y-83639819D01*
X115383143Y-82973152D02*
X115764095Y-83354104D01*
X117057466Y-77010419D02*
X117390799Y-76534228D01*
X117628894Y-77010419D02*
X117628894Y-76010419D01*
X117628894Y-76010419D02*
X117247942Y-76010419D01*
X117247942Y-76010419D02*
X117152704Y-76058038D01*
X117152704Y-76058038D02*
X117105085Y-76105657D01*
X117105085Y-76105657D02*
X117057466Y-76200895D01*
X117057466Y-76200895D02*
X117057466Y-76343752D01*
X117057466Y-76343752D02*
X117105085Y-76438990D01*
X117105085Y-76438990D02*
X117152704Y-76486609D01*
X117152704Y-76486609D02*
X117247942Y-76534228D01*
X117247942Y-76534228D02*
X117628894Y-76534228D01*
X116152704Y-76010419D02*
X116628894Y-76010419D01*
X116628894Y-76010419D02*
X116676513Y-76486609D01*
X116676513Y-76486609D02*
X116628894Y-76438990D01*
X116628894Y-76438990D02*
X116533656Y-76391371D01*
X116533656Y-76391371D02*
X116295561Y-76391371D01*
X116295561Y-76391371D02*
X116200323Y-76438990D01*
X116200323Y-76438990D02*
X116152704Y-76486609D01*
X116152704Y-76486609D02*
X116105085Y-76581847D01*
X116105085Y-76581847D02*
X116105085Y-76819942D01*
X116105085Y-76819942D02*
X116152704Y-76915180D01*
X116152704Y-76915180D02*
X116200323Y-76962800D01*
X116200323Y-76962800D02*
X116295561Y-77010419D01*
X116295561Y-77010419D02*
X116533656Y-77010419D01*
X116533656Y-77010419D02*
X116628894Y-76962800D01*
X116628894Y-76962800D02*
X116676513Y-76915180D01*
X117784476Y-74210152D02*
X117784476Y-74876819D01*
X118022571Y-73829200D02*
X118260666Y-74543485D01*
X118260666Y-74543485D02*
X117641619Y-74543485D01*
X117260666Y-74876819D02*
X117260666Y-73876819D01*
X117165428Y-74495866D02*
X116879714Y-74876819D01*
X116879714Y-74210152D02*
X117260666Y-74591104D01*
X116546380Y-73876819D02*
X115879714Y-73876819D01*
X115879714Y-73876819D02*
X116308285Y-74876819D01*
X117260666Y-90116819D02*
X117593999Y-89640628D01*
X117832094Y-90116819D02*
X117832094Y-89116819D01*
X117832094Y-89116819D02*
X117451142Y-89116819D01*
X117451142Y-89116819D02*
X117355904Y-89164438D01*
X117355904Y-89164438D02*
X117308285Y-89212057D01*
X117308285Y-89212057D02*
X117260666Y-89307295D01*
X117260666Y-89307295D02*
X117260666Y-89450152D01*
X117260666Y-89450152D02*
X117308285Y-89545390D01*
X117308285Y-89545390D02*
X117355904Y-89593009D01*
X117355904Y-89593009D02*
X117451142Y-89640628D01*
X117451142Y-89640628D02*
X117832094Y-89640628D01*
X116403523Y-89116819D02*
X116593999Y-89116819D01*
X116593999Y-89116819D02*
X116689237Y-89164438D01*
X116689237Y-89164438D02*
X116736856Y-89212057D01*
X116736856Y-89212057D02*
X116832094Y-89354914D01*
X116832094Y-89354914D02*
X116879713Y-89545390D01*
X116879713Y-89545390D02*
X116879713Y-89926342D01*
X116879713Y-89926342D02*
X116832094Y-90021580D01*
X116832094Y-90021580D02*
X116784475Y-90069200D01*
X116784475Y-90069200D02*
X116689237Y-90116819D01*
X116689237Y-90116819D02*
X116498761Y-90116819D01*
X116498761Y-90116819D02*
X116403523Y-90069200D01*
X116403523Y-90069200D02*
X116355904Y-90021580D01*
X116355904Y-90021580D02*
X116308285Y-89926342D01*
X116308285Y-89926342D02*
X116308285Y-89688247D01*
X116308285Y-89688247D02*
X116355904Y-89593009D01*
X116355904Y-89593009D02*
X116403523Y-89545390D01*
X116403523Y-89545390D02*
X116498761Y-89497771D01*
X116498761Y-89497771D02*
X116689237Y-89497771D01*
X116689237Y-89497771D02*
X116784475Y-89545390D01*
X116784475Y-89545390D02*
X116832094Y-89593009D01*
X116832094Y-89593009D02*
X116879713Y-89688247D01*
X117911476Y-88084819D02*
X118482904Y-88084819D01*
X118197190Y-88084819D02*
X118197190Y-87084819D01*
X118197190Y-87084819D02*
X118292428Y-87227676D01*
X118292428Y-87227676D02*
X118387666Y-87322914D01*
X118387666Y-87322914D02*
X118482904Y-87370533D01*
X117292428Y-87084819D02*
X117197190Y-87084819D01*
X117197190Y-87084819D02*
X117101952Y-87132438D01*
X117101952Y-87132438D02*
X117054333Y-87180057D01*
X117054333Y-87180057D02*
X117006714Y-87275295D01*
X117006714Y-87275295D02*
X116959095Y-87465771D01*
X116959095Y-87465771D02*
X116959095Y-87703866D01*
X116959095Y-87703866D02*
X117006714Y-87894342D01*
X117006714Y-87894342D02*
X117054333Y-87989580D01*
X117054333Y-87989580D02*
X117101952Y-88037200D01*
X117101952Y-88037200D02*
X117197190Y-88084819D01*
X117197190Y-88084819D02*
X117292428Y-88084819D01*
X117292428Y-88084819D02*
X117387666Y-88037200D01*
X117387666Y-88037200D02*
X117435285Y-87989580D01*
X117435285Y-87989580D02*
X117482904Y-87894342D01*
X117482904Y-87894342D02*
X117530523Y-87703866D01*
X117530523Y-87703866D02*
X117530523Y-87465771D01*
X117530523Y-87465771D02*
X117482904Y-87275295D01*
X117482904Y-87275295D02*
X117435285Y-87180057D01*
X117435285Y-87180057D02*
X117387666Y-87132438D01*
X117387666Y-87132438D02*
X117292428Y-87084819D01*
X115959095Y-88084819D02*
X116292428Y-87608628D01*
X116530523Y-88084819D02*
X116530523Y-87084819D01*
X116530523Y-87084819D02*
X116149571Y-87084819D01*
X116149571Y-87084819D02*
X116054333Y-87132438D01*
X116054333Y-87132438D02*
X116006714Y-87180057D01*
X116006714Y-87180057D02*
X115959095Y-87275295D01*
X115959095Y-87275295D02*
X115959095Y-87418152D01*
X115959095Y-87418152D02*
X116006714Y-87513390D01*
X116006714Y-87513390D02*
X116054333Y-87561009D01*
X116054333Y-87561009D02*
X116149571Y-87608628D01*
X116149571Y-87608628D02*
X116530523Y-87608628D01*
X118438419Y-72438419D02*
X118771752Y-71962228D01*
X119009847Y-72438419D02*
X119009847Y-71438419D01*
X119009847Y-71438419D02*
X118628895Y-71438419D01*
X118628895Y-71438419D02*
X118533657Y-71486038D01*
X118533657Y-71486038D02*
X118486038Y-71533657D01*
X118486038Y-71533657D02*
X118438419Y-71628895D01*
X118438419Y-71628895D02*
X118438419Y-71771752D01*
X118438419Y-71771752D02*
X118486038Y-71866990D01*
X118486038Y-71866990D02*
X118533657Y-71914609D01*
X118533657Y-71914609D02*
X118628895Y-71962228D01*
X118628895Y-71962228D02*
X119009847Y-71962228D01*
X117486038Y-72438419D02*
X118057466Y-72438419D01*
X117771752Y-72438419D02*
X117771752Y-71438419D01*
X117771752Y-71438419D02*
X117866990Y-71581276D01*
X117866990Y-71581276D02*
X117962228Y-71676514D01*
X117962228Y-71676514D02*
X118057466Y-71724133D01*
X116914609Y-72438419D02*
X117009847Y-72390800D01*
X117009847Y-72390800D02*
X117057466Y-72343180D01*
X117057466Y-72343180D02*
X117105085Y-72247942D01*
X117105085Y-72247942D02*
X117105085Y-71962228D01*
X117105085Y-71962228D02*
X117057466Y-71866990D01*
X117057466Y-71866990D02*
X117009847Y-71819371D01*
X117009847Y-71819371D02*
X116914609Y-71771752D01*
X116914609Y-71771752D02*
X116771752Y-71771752D01*
X116771752Y-71771752D02*
X116676514Y-71819371D01*
X116676514Y-71819371D02*
X116628895Y-71866990D01*
X116628895Y-71866990D02*
X116581276Y-71962228D01*
X116581276Y-71962228D02*
X116581276Y-72247942D01*
X116581276Y-72247942D02*
X116628895Y-72343180D01*
X116628895Y-72343180D02*
X116676514Y-72390800D01*
X116676514Y-72390800D02*
X116771752Y-72438419D01*
X116771752Y-72438419D02*
X116914609Y-72438419D01*
X116152704Y-71771752D02*
X116152704Y-72438419D01*
X116152704Y-71866990D02*
X116105085Y-71819371D01*
X116105085Y-71819371D02*
X116009847Y-71771752D01*
X116009847Y-71771752D02*
X115866990Y-71771752D01*
X115866990Y-71771752D02*
X115771752Y-71819371D01*
X115771752Y-71819371D02*
X115724133Y-71914609D01*
X115724133Y-71914609D02*
X115724133Y-72438419D01*
X114724133Y-72438419D02*
X115295561Y-72438419D01*
X115009847Y-72438419D02*
X115009847Y-71438419D01*
X115009847Y-71438419D02*
X115105085Y-71581276D01*
X115105085Y-71581276D02*
X115200323Y-71676514D01*
X115200323Y-71676514D02*
X115295561Y-71724133D01*
X117716477Y-70431819D02*
X118287905Y-70431819D01*
X118002191Y-70431819D02*
X118002191Y-69431819D01*
X118002191Y-69431819D02*
X118097429Y-69574676D01*
X118097429Y-69574676D02*
X118192667Y-69669914D01*
X118192667Y-69669914D02*
X118287905Y-69717533D01*
X116859334Y-69431819D02*
X117049810Y-69431819D01*
X117049810Y-69431819D02*
X117145048Y-69479438D01*
X117145048Y-69479438D02*
X117192667Y-69527057D01*
X117192667Y-69527057D02*
X117287905Y-69669914D01*
X117287905Y-69669914D02*
X117335524Y-69860390D01*
X117335524Y-69860390D02*
X117335524Y-70241342D01*
X117335524Y-70241342D02*
X117287905Y-70336580D01*
X117287905Y-70336580D02*
X117240286Y-70384200D01*
X117240286Y-70384200D02*
X117145048Y-70431819D01*
X117145048Y-70431819D02*
X116954572Y-70431819D01*
X116954572Y-70431819D02*
X116859334Y-70384200D01*
X116859334Y-70384200D02*
X116811715Y-70336580D01*
X116811715Y-70336580D02*
X116764096Y-70241342D01*
X116764096Y-70241342D02*
X116764096Y-70003247D01*
X116764096Y-70003247D02*
X116811715Y-69908009D01*
X116811715Y-69908009D02*
X116859334Y-69860390D01*
X116859334Y-69860390D02*
X116954572Y-69812771D01*
X116954572Y-69812771D02*
X117145048Y-69812771D01*
X117145048Y-69812771D02*
X117240286Y-69860390D01*
X117240286Y-69860390D02*
X117287905Y-69908009D01*
X117287905Y-69908009D02*
X117335524Y-70003247D01*
X116335524Y-70431819D02*
X116335524Y-69431819D01*
X115764096Y-70431819D02*
X116192667Y-69860390D01*
X115764096Y-69431819D02*
X116335524Y-70003247D01*
X146938904Y-107531200D02*
X146796047Y-107578819D01*
X146796047Y-107578819D02*
X146557952Y-107578819D01*
X146557952Y-107578819D02*
X146462714Y-107531200D01*
X146462714Y-107531200D02*
X146415095Y-107483580D01*
X146415095Y-107483580D02*
X146367476Y-107388342D01*
X146367476Y-107388342D02*
X146367476Y-107293104D01*
X146367476Y-107293104D02*
X146415095Y-107197866D01*
X146415095Y-107197866D02*
X146462714Y-107150247D01*
X146462714Y-107150247D02*
X146557952Y-107102628D01*
X146557952Y-107102628D02*
X146748428Y-107055009D01*
X146748428Y-107055009D02*
X146843666Y-107007390D01*
X146843666Y-107007390D02*
X146891285Y-106959771D01*
X146891285Y-106959771D02*
X146938904Y-106864533D01*
X146938904Y-106864533D02*
X146938904Y-106769295D01*
X146938904Y-106769295D02*
X146891285Y-106674057D01*
X146891285Y-106674057D02*
X146843666Y-106626438D01*
X146843666Y-106626438D02*
X146748428Y-106578819D01*
X146748428Y-106578819D02*
X146510333Y-106578819D01*
X146510333Y-106578819D02*
X146367476Y-106626438D01*
X145415095Y-107578819D02*
X145986523Y-107578819D01*
X145700809Y-107578819D02*
X145700809Y-106578819D01*
X145700809Y-106578819D02*
X145796047Y-106721676D01*
X145796047Y-106721676D02*
X145891285Y-106816914D01*
X145891285Y-106816914D02*
X145986523Y-106864533D01*
X126999904Y-106388819D02*
X126999904Y-107198342D01*
X126999904Y-107198342D02*
X126952285Y-107293580D01*
X126952285Y-107293580D02*
X126904666Y-107341200D01*
X126904666Y-107341200D02*
X126809428Y-107388819D01*
X126809428Y-107388819D02*
X126618952Y-107388819D01*
X126618952Y-107388819D02*
X126523714Y-107341200D01*
X126523714Y-107341200D02*
X126476095Y-107293580D01*
X126476095Y-107293580D02*
X126428476Y-107198342D01*
X126428476Y-107198342D02*
X126428476Y-106388819D01*
X125428476Y-107388819D02*
X125999904Y-107388819D01*
X125714190Y-107388819D02*
X125714190Y-106388819D01*
X125714190Y-106388819D02*
X125809428Y-106531676D01*
X125809428Y-106531676D02*
X125904666Y-106626914D01*
X125904666Y-106626914D02*
X125999904Y-106674533D01*
X133042819Y-104394333D02*
X132042819Y-104394333D01*
X132042819Y-104394333D02*
X133042819Y-104965761D01*
X133042819Y-104965761D02*
X132042819Y-104965761D01*
X132519009Y-105441952D02*
X132519009Y-105775285D01*
X133042819Y-105918142D02*
X133042819Y-105441952D01*
X133042819Y-105441952D02*
X132042819Y-105441952D01*
X132042819Y-105441952D02*
X132042819Y-105918142D01*
X132042819Y-106822904D02*
X132042819Y-106346714D01*
X132042819Y-106346714D02*
X132519009Y-106299095D01*
X132519009Y-106299095D02*
X132471390Y-106346714D01*
X132471390Y-106346714D02*
X132423771Y-106441952D01*
X132423771Y-106441952D02*
X132423771Y-106680047D01*
X132423771Y-106680047D02*
X132471390Y-106775285D01*
X132471390Y-106775285D02*
X132519009Y-106822904D01*
X132519009Y-106822904D02*
X132614247Y-106870523D01*
X132614247Y-106870523D02*
X132852342Y-106870523D01*
X132852342Y-106870523D02*
X132947580Y-106822904D01*
X132947580Y-106822904D02*
X132995200Y-106775285D01*
X132995200Y-106775285D02*
X133042819Y-106680047D01*
X133042819Y-106680047D02*
X133042819Y-106441952D01*
X133042819Y-106441952D02*
X132995200Y-106346714D01*
X132995200Y-106346714D02*
X132947580Y-106299095D01*
X132042819Y-107775285D02*
X132042819Y-107299095D01*
X132042819Y-107299095D02*
X132519009Y-107251476D01*
X132519009Y-107251476D02*
X132471390Y-107299095D01*
X132471390Y-107299095D02*
X132423771Y-107394333D01*
X132423771Y-107394333D02*
X132423771Y-107632428D01*
X132423771Y-107632428D02*
X132471390Y-107727666D01*
X132471390Y-107727666D02*
X132519009Y-107775285D01*
X132519009Y-107775285D02*
X132614247Y-107822904D01*
X132614247Y-107822904D02*
X132852342Y-107822904D01*
X132852342Y-107822904D02*
X132947580Y-107775285D01*
X132947580Y-107775285D02*
X132995200Y-107727666D01*
X132995200Y-107727666D02*
X133042819Y-107632428D01*
X133042819Y-107632428D02*
X133042819Y-107394333D01*
X133042819Y-107394333D02*
X132995200Y-107299095D01*
X132995200Y-107299095D02*
X132947580Y-107251476D01*
X132042819Y-108727666D02*
X132042819Y-108251476D01*
X132042819Y-108251476D02*
X132519009Y-108203857D01*
X132519009Y-108203857D02*
X132471390Y-108251476D01*
X132471390Y-108251476D02*
X132423771Y-108346714D01*
X132423771Y-108346714D02*
X132423771Y-108584809D01*
X132423771Y-108584809D02*
X132471390Y-108680047D01*
X132471390Y-108680047D02*
X132519009Y-108727666D01*
X132519009Y-108727666D02*
X132614247Y-108775285D01*
X132614247Y-108775285D02*
X132852342Y-108775285D01*
X132852342Y-108775285D02*
X132947580Y-108727666D01*
X132947580Y-108727666D02*
X132995200Y-108680047D01*
X132995200Y-108680047D02*
X133042819Y-108584809D01*
X133042819Y-108584809D02*
X133042819Y-108346714D01*
X133042819Y-108346714D02*
X132995200Y-108251476D01*
X132995200Y-108251476D02*
X132947580Y-108203857D01*
X133042819Y-109203857D02*
X132042819Y-109203857D01*
X132042819Y-109203857D02*
X132042819Y-109584809D01*
X132042819Y-109584809D02*
X132090438Y-109680047D01*
X132090438Y-109680047D02*
X132138057Y-109727666D01*
X132138057Y-109727666D02*
X132233295Y-109775285D01*
X132233295Y-109775285D02*
X132376152Y-109775285D01*
X132376152Y-109775285D02*
X132471390Y-109727666D01*
X132471390Y-109727666D02*
X132519009Y-109680047D01*
X132519009Y-109680047D02*
X132566628Y-109584809D01*
X132566628Y-109584809D02*
X132566628Y-109203857D01*
D11*
X137948714Y-115629019D02*
X137948714Y-116438542D01*
X137948714Y-116438542D02*
X137905857Y-116533780D01*
X137905857Y-116533780D02*
X137863000Y-116581400D01*
X137863000Y-116581400D02*
X137777285Y-116629019D01*
X137777285Y-116629019D02*
X137605857Y-116629019D01*
X137605857Y-116629019D02*
X137520142Y-116581400D01*
X137520142Y-116581400D02*
X137477285Y-116533780D01*
X137477285Y-116533780D02*
X137434428Y-116438542D01*
X137434428Y-116438542D02*
X137434428Y-115629019D01*
X137048714Y-115724257D02*
X137005857Y-115676638D01*
X137005857Y-115676638D02*
X136920143Y-115629019D01*
X136920143Y-115629019D02*
X136705857Y-115629019D01*
X136705857Y-115629019D02*
X136620143Y-115676638D01*
X136620143Y-115676638D02*
X136577285Y-115724257D01*
X136577285Y-115724257D02*
X136534428Y-115819495D01*
X136534428Y-115819495D02*
X136534428Y-115914733D01*
X136534428Y-115914733D02*
X136577285Y-116057590D01*
X136577285Y-116057590D02*
X137091571Y-116629019D01*
X137091571Y-116629019D02*
X136534428Y-116629019D01*
X141188570Y-122999209D02*
X141059998Y-123046828D01*
X141059998Y-123046828D02*
X141017141Y-123094447D01*
X141017141Y-123094447D02*
X140974284Y-123189685D01*
X140974284Y-123189685D02*
X140974284Y-123332542D01*
X140974284Y-123332542D02*
X141017141Y-123427780D01*
X141017141Y-123427780D02*
X141059998Y-123475400D01*
X141059998Y-123475400D02*
X141145713Y-123523019D01*
X141145713Y-123523019D02*
X141488570Y-123523019D01*
X141488570Y-123523019D02*
X141488570Y-122523019D01*
X141488570Y-122523019D02*
X141188570Y-122523019D01*
X141188570Y-122523019D02*
X141102856Y-122570638D01*
X141102856Y-122570638D02*
X141059998Y-122618257D01*
X141059998Y-122618257D02*
X141017141Y-122713495D01*
X141017141Y-122713495D02*
X141017141Y-122808733D01*
X141017141Y-122808733D02*
X141059998Y-122903971D01*
X141059998Y-122903971D02*
X141102856Y-122951590D01*
X141102856Y-122951590D02*
X141188570Y-122999209D01*
X141188570Y-122999209D02*
X141488570Y-122999209D01*
X140631427Y-123237304D02*
X140202856Y-123237304D01*
X140717141Y-123523019D02*
X140417141Y-122523019D01*
X140417141Y-122523019D02*
X140117141Y-123523019D01*
X139945712Y-122523019D02*
X139431427Y-122523019D01*
X139688569Y-123523019D02*
X139688569Y-122523019D01*
X139345713Y-123618257D02*
X138659998Y-123618257D01*
X138445713Y-123523019D02*
X138445713Y-122523019D01*
X138445713Y-122999209D02*
X137931427Y-122999209D01*
X137931427Y-123523019D02*
X137931427Y-122523019D01*
X137074284Y-123523019D02*
X137502856Y-123523019D01*
X137502856Y-123523019D02*
X137502856Y-122523019D01*
X136774285Y-123523019D02*
X136774285Y-122523019D01*
X136774285Y-122523019D02*
X136559999Y-122523019D01*
X136559999Y-122523019D02*
X136431428Y-122570638D01*
X136431428Y-122570638D02*
X136345713Y-122665876D01*
X136345713Y-122665876D02*
X136302856Y-122761114D01*
X136302856Y-122761114D02*
X136259999Y-122951590D01*
X136259999Y-122951590D02*
X136259999Y-123094447D01*
X136259999Y-123094447D02*
X136302856Y-123284923D01*
X136302856Y-123284923D02*
X136345713Y-123380161D01*
X136345713Y-123380161D02*
X136431428Y-123475400D01*
X136431428Y-123475400D02*
X136559999Y-123523019D01*
X136559999Y-123523019D02*
X136774285Y-123523019D01*
X136088571Y-123618257D02*
X135402856Y-123618257D01*
X135231428Y-123475400D02*
X135102857Y-123523019D01*
X135102857Y-123523019D02*
X134888571Y-123523019D01*
X134888571Y-123523019D02*
X134802857Y-123475400D01*
X134802857Y-123475400D02*
X134759999Y-123427780D01*
X134759999Y-123427780D02*
X134717142Y-123332542D01*
X134717142Y-123332542D02*
X134717142Y-123237304D01*
X134717142Y-123237304D02*
X134759999Y-123142066D01*
X134759999Y-123142066D02*
X134802857Y-123094447D01*
X134802857Y-123094447D02*
X134888571Y-123046828D01*
X134888571Y-123046828D02*
X135059999Y-122999209D01*
X135059999Y-122999209D02*
X135145714Y-122951590D01*
X135145714Y-122951590D02*
X135188571Y-122903971D01*
X135188571Y-122903971D02*
X135231428Y-122808733D01*
X135231428Y-122808733D02*
X135231428Y-122713495D01*
X135231428Y-122713495D02*
X135188571Y-122618257D01*
X135188571Y-122618257D02*
X135145714Y-122570638D01*
X135145714Y-122570638D02*
X135059999Y-122523019D01*
X135059999Y-122523019D02*
X134845714Y-122523019D01*
X134845714Y-122523019D02*
X134717142Y-122570638D01*
X134331428Y-123523019D02*
X134331428Y-122523019D01*
X134331428Y-122523019D02*
X134031428Y-123237304D01*
X134031428Y-123237304D02*
X133731428Y-122523019D01*
X133731428Y-122523019D02*
X133731428Y-123523019D01*
X133302857Y-123523019D02*
X133302857Y-122523019D01*
X133302857Y-122523019D02*
X133088571Y-122523019D01*
X133088571Y-122523019D02*
X132960000Y-122570638D01*
X132960000Y-122570638D02*
X132874285Y-122665876D01*
X132874285Y-122665876D02*
X132831428Y-122761114D01*
X132831428Y-122761114D02*
X132788571Y-122951590D01*
X132788571Y-122951590D02*
X132788571Y-123094447D01*
X132788571Y-123094447D02*
X132831428Y-123284923D01*
X132831428Y-123284923D02*
X132874285Y-123380161D01*
X132874285Y-123380161D02*
X132960000Y-123475400D01*
X132960000Y-123475400D02*
X133088571Y-123523019D01*
X133088571Y-123523019D02*
X133302857Y-123523019D01*
D10*
X141223904Y-110627438D02*
X141319142Y-110579819D01*
X141319142Y-110579819D02*
X141461999Y-110579819D01*
X141461999Y-110579819D02*
X141604856Y-110627438D01*
X141604856Y-110627438D02*
X141700094Y-110722676D01*
X141700094Y-110722676D02*
X141747713Y-110817914D01*
X141747713Y-110817914D02*
X141795332Y-111008390D01*
X141795332Y-111008390D02*
X141795332Y-111151247D01*
X141795332Y-111151247D02*
X141747713Y-111341723D01*
X141747713Y-111341723D02*
X141700094Y-111436961D01*
X141700094Y-111436961D02*
X141604856Y-111532200D01*
X141604856Y-111532200D02*
X141461999Y-111579819D01*
X141461999Y-111579819D02*
X141366761Y-111579819D01*
X141366761Y-111579819D02*
X141223904Y-111532200D01*
X141223904Y-111532200D02*
X141176285Y-111484580D01*
X141176285Y-111484580D02*
X141176285Y-111151247D01*
X141176285Y-111151247D02*
X141366761Y-111151247D01*
X140747713Y-111579819D02*
X140747713Y-110579819D01*
X140747713Y-110579819D02*
X140176285Y-111579819D01*
X140176285Y-111579819D02*
X140176285Y-110579819D01*
X139700094Y-111579819D02*
X139700094Y-110579819D01*
X139700094Y-110579819D02*
X139461999Y-110579819D01*
X139461999Y-110579819D02*
X139319142Y-110627438D01*
X139319142Y-110627438D02*
X139223904Y-110722676D01*
X139223904Y-110722676D02*
X139176285Y-110817914D01*
X139176285Y-110817914D02*
X139128666Y-111008390D01*
X139128666Y-111008390D02*
X139128666Y-111151247D01*
X139128666Y-111151247D02*
X139176285Y-111341723D01*
X139176285Y-111341723D02*
X139223904Y-111436961D01*
X139223904Y-111436961D02*
X139319142Y-111532200D01*
X139319142Y-111532200D02*
X139461999Y-111579819D01*
X139461999Y-111579819D02*
X139700094Y-111579819D01*
X128460332Y-115659819D02*
X128126999Y-116659819D01*
X128126999Y-116659819D02*
X127793666Y-115659819D01*
X126888904Y-116564580D02*
X126936523Y-116612200D01*
X126936523Y-116612200D02*
X127079380Y-116659819D01*
X127079380Y-116659819D02*
X127174618Y-116659819D01*
X127174618Y-116659819D02*
X127317475Y-116612200D01*
X127317475Y-116612200D02*
X127412713Y-116516961D01*
X127412713Y-116516961D02*
X127460332Y-116421723D01*
X127460332Y-116421723D02*
X127507951Y-116231247D01*
X127507951Y-116231247D02*
X127507951Y-116088390D01*
X127507951Y-116088390D02*
X127460332Y-115897914D01*
X127460332Y-115897914D02*
X127412713Y-115802676D01*
X127412713Y-115802676D02*
X127317475Y-115707438D01*
X127317475Y-115707438D02*
X127174618Y-115659819D01*
X127174618Y-115659819D02*
X127079380Y-115659819D01*
X127079380Y-115659819D02*
X126936523Y-115707438D01*
X126936523Y-115707438D02*
X126888904Y-115755057D01*
X125888904Y-116564580D02*
X125936523Y-116612200D01*
X125936523Y-116612200D02*
X126079380Y-116659819D01*
X126079380Y-116659819D02*
X126174618Y-116659819D01*
X126174618Y-116659819D02*
X126317475Y-116612200D01*
X126317475Y-116612200D02*
X126412713Y-116516961D01*
X126412713Y-116516961D02*
X126460332Y-116421723D01*
X126460332Y-116421723D02*
X126507951Y-116231247D01*
X126507951Y-116231247D02*
X126507951Y-116088390D01*
X126507951Y-116088390D02*
X126460332Y-115897914D01*
X126460332Y-115897914D02*
X126412713Y-115802676D01*
X126412713Y-115802676D02*
X126317475Y-115707438D01*
X126317475Y-115707438D02*
X126174618Y-115659819D01*
X126174618Y-115659819D02*
X126079380Y-115659819D01*
X126079380Y-115659819D02*
X125936523Y-115707438D01*
X125936523Y-115707438D02*
X125888904Y-115755057D01*
X148057951Y-87643619D02*
X147486523Y-87643619D01*
X147772237Y-88643619D02*
X147772237Y-87643619D01*
X147200808Y-87738857D02*
X147153189Y-87691238D01*
X147153189Y-87691238D02*
X147057951Y-87643619D01*
X147057951Y-87643619D02*
X146819856Y-87643619D01*
X146819856Y-87643619D02*
X146724618Y-87691238D01*
X146724618Y-87691238D02*
X146676999Y-87738857D01*
X146676999Y-87738857D02*
X146629380Y-87834095D01*
X146629380Y-87834095D02*
X146629380Y-87929333D01*
X146629380Y-87929333D02*
X146676999Y-88072190D01*
X146676999Y-88072190D02*
X147248427Y-88643619D01*
X147248427Y-88643619D02*
X146629380Y-88643619D01*
X146200808Y-88262666D02*
X145438904Y-88262666D01*
X144629380Y-88119809D02*
X144486523Y-88167428D01*
X144486523Y-88167428D02*
X144438904Y-88215047D01*
X144438904Y-88215047D02*
X144391285Y-88310285D01*
X144391285Y-88310285D02*
X144391285Y-88453142D01*
X144391285Y-88453142D02*
X144438904Y-88548380D01*
X144438904Y-88548380D02*
X144486523Y-88596000D01*
X144486523Y-88596000D02*
X144581761Y-88643619D01*
X144581761Y-88643619D02*
X144962713Y-88643619D01*
X144962713Y-88643619D02*
X144962713Y-87643619D01*
X144962713Y-87643619D02*
X144629380Y-87643619D01*
X144629380Y-87643619D02*
X144534142Y-87691238D01*
X144534142Y-87691238D02*
X144486523Y-87738857D01*
X144486523Y-87738857D02*
X144438904Y-87834095D01*
X144438904Y-87834095D02*
X144438904Y-87929333D01*
X144438904Y-87929333D02*
X144486523Y-88024571D01*
X144486523Y-88024571D02*
X144534142Y-88072190D01*
X144534142Y-88072190D02*
X144629380Y-88119809D01*
X144629380Y-88119809D02*
X144962713Y-88119809D01*
X145176667Y-81074419D02*
X145510000Y-80598228D01*
X145748095Y-81074419D02*
X145748095Y-80074419D01*
X145748095Y-80074419D02*
X145367143Y-80074419D01*
X145367143Y-80074419D02*
X145271905Y-80122038D01*
X145271905Y-80122038D02*
X145224286Y-80169657D01*
X145224286Y-80169657D02*
X145176667Y-80264895D01*
X145176667Y-80264895D02*
X145176667Y-80407752D01*
X145176667Y-80407752D02*
X145224286Y-80502990D01*
X145224286Y-80502990D02*
X145271905Y-80550609D01*
X145271905Y-80550609D02*
X145367143Y-80598228D01*
X145367143Y-80598228D02*
X145748095Y-80598228D01*
X144224286Y-81074419D02*
X144795714Y-81074419D01*
X144510000Y-81074419D02*
X144510000Y-80074419D01*
X144510000Y-80074419D02*
X144605238Y-80217276D01*
X144605238Y-80217276D02*
X144700476Y-80312514D01*
X144700476Y-80312514D02*
X144795714Y-80360133D01*
X143652857Y-81074419D02*
X143748095Y-81026800D01*
X143748095Y-81026800D02*
X143795714Y-80979180D01*
X143795714Y-80979180D02*
X143843333Y-80883942D01*
X143843333Y-80883942D02*
X143843333Y-80598228D01*
X143843333Y-80598228D02*
X143795714Y-80502990D01*
X143795714Y-80502990D02*
X143748095Y-80455371D01*
X143748095Y-80455371D02*
X143652857Y-80407752D01*
X143652857Y-80407752D02*
X143510000Y-80407752D01*
X143510000Y-80407752D02*
X143414762Y-80455371D01*
X143414762Y-80455371D02*
X143367143Y-80502990D01*
X143367143Y-80502990D02*
X143319524Y-80598228D01*
X143319524Y-80598228D02*
X143319524Y-80883942D01*
X143319524Y-80883942D02*
X143367143Y-80979180D01*
X143367143Y-80979180D02*
X143414762Y-81026800D01*
X143414762Y-81026800D02*
X143510000Y-81074419D01*
X143510000Y-81074419D02*
X143652857Y-81074419D01*
X143033809Y-80407752D02*
X142652857Y-80407752D01*
X142890952Y-81074419D02*
X142890952Y-80217276D01*
X142890952Y-80217276D02*
X142843333Y-80122038D01*
X142843333Y-80122038D02*
X142748095Y-80074419D01*
X142748095Y-80074419D02*
X142652857Y-80074419D01*
X142462380Y-80407752D02*
X142081428Y-80407752D01*
X142319523Y-81074419D02*
X142319523Y-80217276D01*
X142319523Y-80217276D02*
X142271904Y-80122038D01*
X142271904Y-80122038D02*
X142176666Y-80074419D01*
X142176666Y-80074419D02*
X142081428Y-80074419D01*
X141224285Y-81074419D02*
X141795713Y-81074419D01*
X141509999Y-81074419D02*
X141509999Y-80074419D01*
X141509999Y-80074419D02*
X141605237Y-80217276D01*
X141605237Y-80217276D02*
X141700475Y-80312514D01*
X141700475Y-80312514D02*
X141795713Y-80360133D01*
X144200476Y-83393619D02*
X144771904Y-83393619D01*
X144486190Y-83393619D02*
X144486190Y-82393619D01*
X144486190Y-82393619D02*
X144581428Y-82536476D01*
X144581428Y-82536476D02*
X144676666Y-82631714D01*
X144676666Y-82631714D02*
X144771904Y-82679333D01*
X143819523Y-82488857D02*
X143771904Y-82441238D01*
X143771904Y-82441238D02*
X143676666Y-82393619D01*
X143676666Y-82393619D02*
X143438571Y-82393619D01*
X143438571Y-82393619D02*
X143343333Y-82441238D01*
X143343333Y-82441238D02*
X143295714Y-82488857D01*
X143295714Y-82488857D02*
X143248095Y-82584095D01*
X143248095Y-82584095D02*
X143248095Y-82679333D01*
X143248095Y-82679333D02*
X143295714Y-82822190D01*
X143295714Y-82822190D02*
X143867142Y-83393619D01*
X143867142Y-83393619D02*
X143248095Y-83393619D01*
X142819523Y-83393619D02*
X142819523Y-82393619D01*
X142248095Y-83393619D02*
X142676666Y-82822190D01*
X142248095Y-82393619D02*
X142819523Y-82965047D01*
X117856047Y-105325057D02*
X117951285Y-105277438D01*
X117951285Y-105277438D02*
X118046523Y-105182200D01*
X118046523Y-105182200D02*
X118189380Y-105039342D01*
X118189380Y-105039342D02*
X118284618Y-104991723D01*
X118284618Y-104991723D02*
X118379856Y-104991723D01*
X118332237Y-105229819D02*
X118427475Y-105182200D01*
X118427475Y-105182200D02*
X118522713Y-105086961D01*
X118522713Y-105086961D02*
X118570332Y-104896485D01*
X118570332Y-104896485D02*
X118570332Y-104563152D01*
X118570332Y-104563152D02*
X118522713Y-104372676D01*
X118522713Y-104372676D02*
X118427475Y-104277438D01*
X118427475Y-104277438D02*
X118332237Y-104229819D01*
X118332237Y-104229819D02*
X118141761Y-104229819D01*
X118141761Y-104229819D02*
X118046523Y-104277438D01*
X118046523Y-104277438D02*
X117951285Y-104372676D01*
X117951285Y-104372676D02*
X117903666Y-104563152D01*
X117903666Y-104563152D02*
X117903666Y-104896485D01*
X117903666Y-104896485D02*
X117951285Y-105086961D01*
X117951285Y-105086961D02*
X118046523Y-105182200D01*
X118046523Y-105182200D02*
X118141761Y-105229819D01*
X118141761Y-105229819D02*
X118332237Y-105229819D01*
X132396151Y-92225419D02*
X131824723Y-92225419D01*
X132110437Y-93225419D02*
X132110437Y-92225419D01*
X130967580Y-93225419D02*
X131539008Y-93225419D01*
X131253294Y-93225419D02*
X131253294Y-92225419D01*
X131253294Y-92225419D02*
X131348532Y-92368276D01*
X131348532Y-92368276D02*
X131443770Y-92463514D01*
X131443770Y-92463514D02*
X131539008Y-92511133D01*
X130539008Y-92844466D02*
X129777104Y-92844466D01*
X128967580Y-92701609D02*
X128824723Y-92749228D01*
X128824723Y-92749228D02*
X128777104Y-92796847D01*
X128777104Y-92796847D02*
X128729485Y-92892085D01*
X128729485Y-92892085D02*
X128729485Y-93034942D01*
X128729485Y-93034942D02*
X128777104Y-93130180D01*
X128777104Y-93130180D02*
X128824723Y-93177800D01*
X128824723Y-93177800D02*
X128919961Y-93225419D01*
X128919961Y-93225419D02*
X129300913Y-93225419D01*
X129300913Y-93225419D02*
X129300913Y-92225419D01*
X129300913Y-92225419D02*
X128967580Y-92225419D01*
X128967580Y-92225419D02*
X128872342Y-92273038D01*
X128872342Y-92273038D02*
X128824723Y-92320657D01*
X128824723Y-92320657D02*
X128777104Y-92415895D01*
X128777104Y-92415895D02*
X128777104Y-92511133D01*
X128777104Y-92511133D02*
X128824723Y-92606371D01*
X128824723Y-92606371D02*
X128872342Y-92653990D01*
X128872342Y-92653990D02*
X128967580Y-92701609D01*
X128967580Y-92701609D02*
X129300913Y-92701609D01*
D11*
%TO.C,G\u002A\u002A\u002A*%
X125798000Y-67521000D02*
X126373000Y-67996000D01*
X126373000Y-67996000D02*
X126798000Y-67671000D01*
X126798000Y-67671000D02*
X125798000Y-67521000D01*
D12*
X127123000Y-69109605D02*
X128023000Y-69096000D01*
X127522999Y-70491050D02*
X127122999Y-70491050D01*
X127523000Y-69496000D02*
X127273000Y-69496000D01*
X127523000Y-69546000D02*
X127523000Y-69996000D01*
X127523000Y-69996000D02*
X127223000Y-69996000D01*
X127523000Y-70496000D02*
X127523000Y-70996000D01*
X127523000Y-70996000D02*
X127073000Y-70996000D01*
D11*
X127748000Y-66796000D02*
X128098000Y-65621000D01*
D12*
X128023000Y-69096000D02*
X128073000Y-71546000D01*
X128073000Y-71546000D02*
X126873000Y-71546000D01*
D11*
X128098000Y-65621000D02*
X129898000Y-65671000D01*
D12*
X128348000Y-71546000D02*
X129123000Y-69096000D01*
X128748000Y-71546000D02*
X128348000Y-71546000D01*
X128998000Y-70946000D02*
X128748000Y-71546000D01*
X129073000Y-70546000D02*
X129298000Y-69796000D01*
X129123000Y-69096000D02*
X129448000Y-69096000D01*
X129298000Y-69796000D02*
X129573000Y-70546000D01*
D11*
X129323000Y-67721000D02*
X130998000Y-67821000D01*
D12*
X129448000Y-69096000D02*
X130348000Y-71546000D01*
X129573000Y-70546000D02*
X129073000Y-70546000D01*
X129598000Y-70946000D02*
X128998000Y-70946000D01*
X129848000Y-71546000D02*
X129598000Y-70946000D01*
X129848000Y-71546000D02*
X130348000Y-71546000D01*
D11*
X129898000Y-65671000D02*
X127748000Y-66796000D01*
X130023000Y-67146000D02*
X129323000Y-67721000D01*
D12*
X130523000Y-71071000D02*
X130523000Y-71521000D01*
X130523000Y-71521000D02*
X131773000Y-71521000D01*
D11*
X131023000Y-67821000D02*
X130023000Y-67146000D01*
X131173000Y-67371000D02*
X132798000Y-68496000D01*
X131223000Y-65046000D02*
X132348000Y-66271000D01*
X131248000Y-64646000D02*
X131173000Y-67371000D01*
D12*
X131273000Y-71071000D02*
X130523000Y-71071000D01*
X131298000Y-69071000D02*
X131273000Y-71071000D01*
X131748000Y-69071000D02*
X131298000Y-69071000D01*
X131773000Y-71521000D02*
X131748000Y-69071000D01*
X131948000Y-71521000D02*
X132648000Y-70571000D01*
X132048000Y-71521000D02*
X131948000Y-71521000D01*
D11*
X132348000Y-66271000D02*
X131773000Y-67771000D01*
D12*
X132448000Y-71521000D02*
X132048000Y-71521000D01*
X132689269Y-69065594D02*
X133798000Y-69071000D01*
D11*
X132798000Y-68496000D02*
X134473000Y-68271000D01*
D12*
X132848000Y-69521000D02*
X133298000Y-69521000D01*
X133198000Y-70571000D02*
X132448000Y-71521000D01*
X133298000Y-69521000D02*
X133298000Y-70071000D01*
X133298000Y-70071000D02*
X132798000Y-70071000D01*
X133348000Y-70571000D02*
X133198000Y-70571000D01*
X133348000Y-71521000D02*
X133348000Y-70571000D01*
X133798000Y-69071000D02*
X133798000Y-71521000D01*
X133798000Y-71521000D02*
X133348000Y-71521000D01*
D11*
X133948000Y-68721000D02*
X134923000Y-69071000D01*
D12*
X134248000Y-69071000D02*
X135548000Y-69071000D01*
X134248000Y-69571000D02*
X134248000Y-69071000D01*
X134248000Y-71021000D02*
X135098000Y-71021000D01*
X134248000Y-71521000D02*
X134248000Y-71021000D01*
D11*
X134348000Y-68446000D02*
X133948000Y-68721000D01*
D12*
X134448000Y-70021000D02*
X135098000Y-70021000D01*
X134448000Y-70471000D02*
X134448000Y-70021000D01*
D11*
X134473000Y-68271000D02*
X136298000Y-69171000D01*
X134723000Y-66271000D02*
X131248000Y-64646000D01*
X134723000Y-66271000D02*
X137048000Y-67421000D01*
D12*
X135098000Y-69571000D02*
X134248000Y-69571000D01*
X135098000Y-70021000D02*
X135098000Y-69571000D01*
X135098000Y-70471000D02*
X134448000Y-70471000D01*
X135098000Y-71021000D02*
X135098000Y-70471000D01*
D11*
X135123000Y-69046000D02*
X134348000Y-68446000D01*
X135473000Y-64846000D02*
X134723000Y-66271000D01*
X135473000Y-64846000D02*
X137673000Y-66021000D01*
D12*
X135498000Y-71521000D02*
X134248000Y-71521000D01*
X135548000Y-69071000D02*
X135598000Y-71521000D01*
X135598000Y-71521000D02*
X135498000Y-71521000D01*
X136698000Y-69084605D02*
X137598000Y-69071000D01*
D11*
X137048000Y-67421000D02*
X138523000Y-69146000D01*
X137048000Y-67421000D02*
X142698000Y-70271000D01*
D12*
X137097999Y-70466050D02*
X136697999Y-70466050D01*
X137098000Y-69471000D02*
X136848000Y-69471000D01*
X137098000Y-69521000D02*
X137098000Y-69971000D01*
X137098000Y-69971000D02*
X136798000Y-69971000D01*
X137098000Y-70471000D02*
X137098000Y-70971000D01*
X137098000Y-70971000D02*
X136648000Y-70971000D01*
X137598000Y-69071000D02*
X137648000Y-71521000D01*
X137648000Y-71521000D02*
X136448000Y-71521000D01*
D11*
X137673000Y-66021000D02*
X136098000Y-66921000D01*
X137773000Y-65846000D02*
X137048000Y-67421000D01*
D12*
X138048000Y-69921000D02*
X138048000Y-70621000D01*
D11*
X138348000Y-69246000D02*
X131248000Y-64646000D01*
D12*
X138548000Y-69921000D02*
X138548000Y-70571000D01*
D11*
X138798000Y-66096000D02*
X137048000Y-67421000D01*
X138798000Y-66096000D02*
X137773000Y-65846000D01*
X138873000Y-70171000D02*
X139248000Y-70346000D01*
X139198000Y-69771000D02*
X138873000Y-70171000D01*
D12*
X139248000Y-69921000D02*
X139248000Y-70621000D01*
D11*
X139748000Y-70521000D02*
X140298000Y-70796000D01*
D12*
X139748000Y-70621000D02*
X139748000Y-69921000D01*
D11*
X139798000Y-69796000D02*
X140023000Y-70421000D01*
X140023000Y-70421000D02*
X142698000Y-70271000D01*
X140298000Y-70796000D02*
X139723000Y-69996000D01*
X141373000Y-70746000D02*
X140548000Y-70396000D01*
X142698000Y-70271000D02*
X138798000Y-66096000D01*
X142698000Y-70271000D02*
X139798000Y-69796000D01*
X142698000Y-70271000D02*
X141373000Y-70746000D01*
D12*
X126673001Y-70195999D02*
G75*
G02*
X127123000Y-69109606I449999J449999D01*
G01*
X126873001Y-71545998D02*
G75*
G02*
X126696744Y-70237064I249998J699998D01*
G01*
X127073001Y-70995998D02*
G75*
G02*
X127122999Y-70491051I49999J249998D01*
G01*
X127223000Y-69996000D02*
G75*
G02*
X127283634Y-69503464I0J250000D01*
G01*
X132673001Y-70520998D02*
G75*
G02*
X132689269Y-69065595I249999J724998D01*
G01*
X132798001Y-70070998D02*
G75*
G02*
X132798001Y-69521002I124999J274998D01*
G01*
X136248001Y-70170999D02*
G75*
G02*
X136698000Y-69084606I449999J449999D01*
G01*
X136448001Y-71520998D02*
G75*
G02*
X136271744Y-70212064I249998J699998D01*
G01*
X136648001Y-70970998D02*
G75*
G02*
X136697999Y-70466051I49999J249998D01*
G01*
X136798000Y-69971000D02*
G75*
G02*
X136858634Y-69478464I0J250000D01*
G01*
X138048000Y-69921000D02*
G75*
G02*
X139748000Y-69921000I850000J0D01*
G01*
X138548000Y-69921000D02*
G75*
G02*
X139248000Y-69921000I350000J0D01*
G01*
X139248000Y-70621000D02*
G75*
G02*
X138548000Y-70621000I-350000J0D01*
G01*
X139748000Y-70621000D02*
G75*
G02*
X138048000Y-70621000I-850000J0D01*
G01*
D13*
X148245361Y-124516226D02*
X148181542Y-124580045D01*
X148117723Y-124516226D01*
X148181542Y-124452407D01*
X148245361Y-124516226D01*
G36*
X148245361Y-124516226D02*
G01*
X148181542Y-124580045D01*
X148117723Y-124516226D01*
X148181542Y-124452407D01*
X148245361Y-124516226D01*
G37*
D12*
%TO.C,C1*%
X147482759Y-68133000D02*
X148112759Y-68133000D01*
X147797759Y-68448000D02*
X147797759Y-67818000D01*
X150983000Y-69524000D02*
X150983000Y-63064000D01*
X151023000Y-69524000D02*
X151023000Y-63064000D01*
X151063000Y-69524000D02*
X151063000Y-63064000D01*
X151103000Y-69522000D02*
X151103000Y-63066000D01*
X151143000Y-69521000D02*
X151143000Y-63067000D01*
X151183000Y-69518000D02*
X151183000Y-63070000D01*
X151223000Y-65254000D02*
X151223000Y-63072000D01*
X151223000Y-69516000D02*
X151223000Y-67334000D01*
X151263000Y-65254000D02*
X151263000Y-63076000D01*
X151263000Y-69512000D02*
X151263000Y-67334000D01*
X151303000Y-65254000D02*
X151303000Y-63079000D01*
X151303000Y-69509000D02*
X151303000Y-67334000D01*
X151343000Y-65254000D02*
X151343000Y-63083000D01*
X151343000Y-69505000D02*
X151343000Y-67334000D01*
X151383000Y-65254000D02*
X151383000Y-63088000D01*
X151383000Y-69500000D02*
X151383000Y-67334000D01*
X151423000Y-65254000D02*
X151423000Y-63093000D01*
X151423000Y-69495000D02*
X151423000Y-67334000D01*
X151463000Y-65254000D02*
X151463000Y-63099000D01*
X151463000Y-69489000D02*
X151463000Y-67334000D01*
X151503000Y-65254000D02*
X151503000Y-63105000D01*
X151503000Y-69483000D02*
X151503000Y-67334000D01*
X151543000Y-65254000D02*
X151543000Y-63112000D01*
X151543000Y-69476000D02*
X151543000Y-67334000D01*
X151583000Y-65254000D02*
X151583000Y-63119000D01*
X151583000Y-69469000D02*
X151583000Y-67334000D01*
X151623000Y-65254000D02*
X151623000Y-63127000D01*
X151623000Y-69461000D02*
X151623000Y-67334000D01*
X151663000Y-65254000D02*
X151663000Y-63135000D01*
X151663000Y-69453000D02*
X151663000Y-67334000D01*
X151704000Y-65254000D02*
X151704000Y-63144000D01*
X151704000Y-69444000D02*
X151704000Y-67334000D01*
X151744000Y-65254000D02*
X151744000Y-63153000D01*
X151744000Y-69435000D02*
X151744000Y-67334000D01*
X151784000Y-65254000D02*
X151784000Y-63163000D01*
X151784000Y-69425000D02*
X151784000Y-67334000D01*
X151824000Y-65254000D02*
X151824000Y-63173000D01*
X151824000Y-69415000D02*
X151824000Y-67334000D01*
X151864000Y-65254000D02*
X151864000Y-63184000D01*
X151864000Y-69404000D02*
X151864000Y-67334000D01*
X151904000Y-65254000D02*
X151904000Y-63196000D01*
X151904000Y-69392000D02*
X151904000Y-67334000D01*
X151944000Y-65254000D02*
X151944000Y-63208000D01*
X151944000Y-69380000D02*
X151944000Y-67334000D01*
X151984000Y-65254000D02*
X151984000Y-63220000D01*
X151984000Y-69368000D02*
X151984000Y-67334000D01*
X152024000Y-65254000D02*
X152024000Y-63233000D01*
X152024000Y-69355000D02*
X152024000Y-67334000D01*
X152064000Y-65254000D02*
X152064000Y-63247000D01*
X152064000Y-69341000D02*
X152064000Y-67334000D01*
X152104000Y-65254000D02*
X152104000Y-63261000D01*
X152104000Y-69327000D02*
X152104000Y-67334000D01*
X152144000Y-65254000D02*
X152144000Y-63276000D01*
X152144000Y-69312000D02*
X152144000Y-67334000D01*
X152184000Y-65254000D02*
X152184000Y-63292000D01*
X152184000Y-69296000D02*
X152184000Y-67334000D01*
X152224000Y-65254000D02*
X152224000Y-63308000D01*
X152224000Y-69280000D02*
X152224000Y-67334000D01*
X152264000Y-65254000D02*
X152264000Y-63324000D01*
X152264000Y-69264000D02*
X152264000Y-67334000D01*
X152304000Y-65254000D02*
X152304000Y-63342000D01*
X152304000Y-69246000D02*
X152304000Y-67334000D01*
X152344000Y-65254000D02*
X152344000Y-63360000D01*
X152344000Y-69228000D02*
X152344000Y-67334000D01*
X152384000Y-65254000D02*
X152384000Y-63378000D01*
X152384000Y-69210000D02*
X152384000Y-67334000D01*
X152424000Y-65254000D02*
X152424000Y-63398000D01*
X152424000Y-69190000D02*
X152424000Y-67334000D01*
X152464000Y-65254000D02*
X152464000Y-63418000D01*
X152464000Y-69170000D02*
X152464000Y-67334000D01*
X152504000Y-65254000D02*
X152504000Y-63438000D01*
X152504000Y-69150000D02*
X152504000Y-67334000D01*
X152544000Y-65254000D02*
X152544000Y-63460000D01*
X152544000Y-69128000D02*
X152544000Y-67334000D01*
X152584000Y-65254000D02*
X152584000Y-63482000D01*
X152584000Y-69106000D02*
X152584000Y-67334000D01*
X152624000Y-65254000D02*
X152624000Y-63504000D01*
X152624000Y-69084000D02*
X152624000Y-67334000D01*
X152664000Y-65254000D02*
X152664000Y-63528000D01*
X152664000Y-69060000D02*
X152664000Y-67334000D01*
X152704000Y-65254000D02*
X152704000Y-63552000D01*
X152704000Y-69036000D02*
X152704000Y-67334000D01*
X152744000Y-65254000D02*
X152744000Y-63578000D01*
X152744000Y-69010000D02*
X152744000Y-67334000D01*
X152784000Y-65254000D02*
X152784000Y-63604000D01*
X152784000Y-68984000D02*
X152784000Y-67334000D01*
X152824000Y-65254000D02*
X152824000Y-63630000D01*
X152824000Y-68958000D02*
X152824000Y-67334000D01*
X152864000Y-65254000D02*
X152864000Y-63658000D01*
X152864000Y-68930000D02*
X152864000Y-67334000D01*
X152904000Y-65254000D02*
X152904000Y-63687000D01*
X152904000Y-68901000D02*
X152904000Y-67334000D01*
X152944000Y-65254000D02*
X152944000Y-63716000D01*
X152944000Y-68872000D02*
X152944000Y-67334000D01*
X152984000Y-65254000D02*
X152984000Y-63746000D01*
X152984000Y-68842000D02*
X152984000Y-67334000D01*
X153024000Y-65254000D02*
X153024000Y-63778000D01*
X153024000Y-68810000D02*
X153024000Y-67334000D01*
X153064000Y-65254000D02*
X153064000Y-63810000D01*
X153064000Y-68778000D02*
X153064000Y-67334000D01*
X153104000Y-65254000D02*
X153104000Y-63844000D01*
X153104000Y-68744000D02*
X153104000Y-67334000D01*
X153144000Y-65254000D02*
X153144000Y-63878000D01*
X153144000Y-68710000D02*
X153144000Y-67334000D01*
X153184000Y-65254000D02*
X153184000Y-63914000D01*
X153184000Y-68674000D02*
X153184000Y-67334000D01*
X153224000Y-65254000D02*
X153224000Y-63951000D01*
X153224000Y-68637000D02*
X153224000Y-67334000D01*
X153264000Y-65254000D02*
X153264000Y-63989000D01*
X153264000Y-68599000D02*
X153264000Y-67334000D01*
X153304000Y-68559000D02*
X153304000Y-64029000D01*
X153344000Y-68518000D02*
X153344000Y-64070000D01*
X153384000Y-68476000D02*
X153384000Y-64112000D01*
X153424000Y-68431000D02*
X153424000Y-64157000D01*
X153464000Y-68386000D02*
X153464000Y-64202000D01*
X153504000Y-68338000D02*
X153504000Y-64250000D01*
X153544000Y-68289000D02*
X153544000Y-64299000D01*
X153584000Y-68238000D02*
X153584000Y-64350000D01*
X153624000Y-68184000D02*
X153624000Y-64404000D01*
X153664000Y-68128000D02*
X153664000Y-64460000D01*
X153704000Y-68070000D02*
X153704000Y-64518000D01*
X153744000Y-68008000D02*
X153744000Y-64580000D01*
X153784000Y-67944000D02*
X153784000Y-64644000D01*
X153824000Y-67875000D02*
X153824000Y-64713000D01*
X153864000Y-67803000D02*
X153864000Y-64785000D01*
X153904000Y-67726000D02*
X153904000Y-64862000D01*
X153944000Y-67644000D02*
X153944000Y-64944000D01*
X153984000Y-67556000D02*
X153984000Y-65032000D01*
X154024000Y-67459000D02*
X154024000Y-65129000D01*
X154064000Y-67353000D02*
X154064000Y-65235000D01*
X154104000Y-67234000D02*
X154104000Y-65354000D01*
X154144000Y-67096000D02*
X154144000Y-65492000D01*
X154184000Y-66927000D02*
X154184000Y-65661000D01*
X154224000Y-66696000D02*
X154224000Y-65892000D01*
X154253000Y-66294000D02*
G75*
G02*
X147713000Y-66294000I-3270000J0D01*
G01*
X147713000Y-66294000D02*
G75*
G02*
X154253000Y-66294000I3270000J0D01*
G01*
%TO.C,D3*%
X114256001Y-67945000D02*
X114906001Y-67945000D01*
X114906001Y-66825000D02*
X119146001Y-66825000D01*
X114906001Y-69065000D02*
X114906001Y-66825000D01*
X115506001Y-69065000D02*
X115506001Y-66825000D01*
X115626001Y-69065000D02*
X115626001Y-66825000D01*
X115746001Y-69065000D02*
X115746001Y-66825000D01*
X119146001Y-66825000D02*
X119146001Y-69065000D01*
X119146001Y-69065000D02*
X114906001Y-69065000D01*
X119796001Y-67945000D02*
X119146001Y-67945000D01*
%TO.C,T1*%
X128463600Y-85066400D02*
X132313600Y-85066400D01*
X128080969Y-85644355D02*
G75*
G02*
X128463600Y-85066400I2322631J-1122045D01*
G01*
X129313600Y-89116399D02*
G75*
G02*
X128055826Y-87861186I1090000J2349999D01*
G01*
X132313599Y-85066401D02*
G75*
G02*
X132705982Y-85654136I-1909999J-1699999D01*
G01*
X132740062Y-87855913D02*
G75*
G02*
X131463600Y-89116399I-2336462J1089513D01*
G01*
%TO.C,T2*%
X154574800Y-81942200D02*
X158424800Y-81942200D01*
X154192169Y-82520155D02*
G75*
G02*
X154574800Y-81942200I2322631J-1122045D01*
G01*
X155424800Y-85992199D02*
G75*
G02*
X154167026Y-84736986I1090000J2349999D01*
G01*
X158424799Y-81942201D02*
G75*
G02*
X158817182Y-82529936I-1909999J-1699999D01*
G01*
X158851262Y-84731713D02*
G75*
G02*
X157574800Y-85992199I-2336462J1089513D01*
G01*
%TO.C,R3*%
X112986001Y-80951400D02*
X113756001Y-80951400D01*
X113756001Y-79581400D02*
X120296001Y-79581400D01*
X113756001Y-82321400D02*
X113756001Y-79581400D01*
X120296001Y-79581400D02*
X120296001Y-82321400D01*
X120296001Y-82321400D02*
X113756001Y-82321400D01*
X121066001Y-80951400D02*
X120296001Y-80951400D01*
%TO.C,R4*%
X112986001Y-85370200D02*
X113756001Y-85370200D01*
X113756001Y-84000200D02*
X120296001Y-84000200D01*
X113756001Y-86740200D02*
X113756001Y-84000200D01*
X120296001Y-84000200D02*
X120296001Y-86740200D01*
X120296001Y-86740200D02*
X113756001Y-86740200D01*
X121066001Y-85370200D02*
X120296001Y-85370200D01*
%TO.C,R5*%
X112986001Y-76532600D02*
X113756001Y-76532600D01*
X113756001Y-75162600D02*
X120296001Y-75162600D01*
X113756001Y-77902600D02*
X113756001Y-75162600D01*
X120296001Y-75162600D02*
X120296001Y-77902600D01*
X120296001Y-77902600D02*
X113756001Y-77902600D01*
X121066001Y-76532600D02*
X120296001Y-76532600D01*
%TO.C,R6*%
X112986001Y-89789000D02*
X113756001Y-89789000D01*
X113756001Y-88419000D02*
X120296001Y-88419000D01*
X113756001Y-91159000D02*
X113756001Y-88419000D01*
X120296001Y-88419000D02*
X120296001Y-91159000D01*
X120296001Y-91159000D02*
X113756001Y-91159000D01*
X121066001Y-89789000D02*
X120296001Y-89789000D01*
%TO.C,R1on1*%
X112986001Y-72113800D02*
X113756001Y-72113800D01*
X113756001Y-70743800D02*
X120296001Y-70743800D01*
X113756001Y-73483800D02*
X113756001Y-70743800D01*
X120296001Y-70743800D02*
X120296001Y-73483800D01*
X120296001Y-73483800D02*
X113756001Y-73483800D01*
X121066001Y-72113800D02*
X120296001Y-72113800D01*
%TO.C,S1*%
X141249400Y-101193600D02*
X141224000Y-105130600D01*
X141249400Y-105130600D02*
X151206200Y-105130600D01*
X151206200Y-101193600D02*
X141249400Y-101193600D01*
X151206200Y-105130600D02*
X151206200Y-101193600D01*
%TO.C,U1*%
X120971000Y-109584000D02*
X120971000Y-104284000D01*
X131251000Y-109584000D02*
X120971000Y-109584000D01*
X131251000Y-107934000D02*
X131251000Y-109584000D01*
X120971000Y-104284000D02*
X131251000Y-104284000D01*
X131251000Y-104284000D02*
X131251000Y-105934000D01*
X131251000Y-107934000D02*
G75*
G02*
X131251000Y-105934000I0J1000000D01*
G01*
%TO.C,R1off1*%
X147550000Y-80568800D02*
X146780000Y-80568800D01*
X146780000Y-81938800D02*
X140240000Y-81938800D01*
X146780000Y-79198800D02*
X146780000Y-81938800D01*
X140240000Y-81938800D02*
X140240000Y-79198800D01*
X140240000Y-79198800D02*
X146780000Y-79198800D01*
X139470000Y-80568800D02*
X140240000Y-80568800D01*
%TD*%
M02*
