%TF.GenerationSoftware,KiCad,Pcbnew,8.0.1*%
%TF.CreationDate,2024-04-02T10:29:12+02:00*%
%TF.ProjectId,RobiV4,526f6269-5634-42e6-9b69-6361645f7063,rev?*%
%TF.SameCoordinates,Original*%
%TF.FileFunction,Legend,Top*%
%TF.FilePolarity,Positive*%
%FSLAX46Y46*%
G04 Gerber Fmt 4.6, Leading zero omitted, Abs format (unit mm)*
G04 Created by KiCad (PCBNEW 8.0.1) date 2024-04-02 10:29:12*
%MOMM*%
%LPD*%
G01*
G04 APERTURE LIST*
%ADD10C,0.120000*%
%ADD11C,0.010000*%
G04 APERTURE END LIST*
D10*
%TO.C,D1*%
X122154000Y-53700000D02*
X122154000Y-56790000D01*
X122154001Y-53700170D02*
G75*
G02*
X127703999Y-55245462I2559999J-1544830D01*
G01*
X127704000Y-55244538D02*
G75*
G02*
X122154000Y-56789830I-2990000J-462D01*
G01*
X127214000Y-55245000D02*
G75*
G02*
X122214000Y-55245000I-2500000J0D01*
G01*
X122214000Y-55245000D02*
G75*
G02*
X127214000Y-55245000I2500000J0D01*
G01*
%TO.C,D2*%
X140061000Y-53192000D02*
X140061000Y-56282000D01*
X140061001Y-53192170D02*
G75*
G02*
X145610999Y-54737462I2559999J-1544830D01*
G01*
X145611000Y-54736538D02*
G75*
G02*
X140061000Y-56281830I-2990000J-462D01*
G01*
X145121000Y-54737000D02*
G75*
G02*
X140121000Y-54737000I-2500000J0D01*
G01*
X140121000Y-54737000D02*
G75*
G02*
X145121000Y-54737000I2500000J0D01*
G01*
D11*
%TO.C,G\u002A\u002A\u002A*%
X135169933Y-73847980D02*
X135596617Y-74083100D01*
X135987032Y-74518033D01*
X136309741Y-75148066D01*
X136396573Y-75399781D01*
X136591539Y-76249977D01*
X136648186Y-77048250D01*
X136575838Y-77761721D01*
X136383819Y-78357508D01*
X136081453Y-78802731D01*
X135678062Y-79064511D01*
X135341399Y-79121000D01*
X134937198Y-79046025D01*
X134591271Y-78871661D01*
X134251247Y-78470865D01*
X133969874Y-77885742D01*
X133761810Y-77182122D01*
X133641712Y-76425841D01*
X133628317Y-75856115D01*
X134541644Y-75856115D01*
X134562920Y-76500168D01*
X134677124Y-77134886D01*
X134878339Y-77680952D01*
X135030179Y-77922750D01*
X135220082Y-78140394D01*
X135339541Y-78171584D01*
X135458093Y-78045754D01*
X135584469Y-77778026D01*
X135688391Y-77402606D01*
X135700510Y-77337020D01*
X135717540Y-76748573D01*
X135614571Y-76070643D01*
X135415893Y-75422785D01*
X135237749Y-75059163D01*
X135061854Y-74790819D01*
X134949266Y-74716120D01*
X134839349Y-74807001D01*
X134801539Y-74857276D01*
X134619211Y-75282045D01*
X134541644Y-75856115D01*
X133628317Y-75856115D01*
X133624240Y-75682730D01*
X133724050Y-75018622D01*
X133729210Y-74999891D01*
X133986618Y-74388630D01*
X134333498Y-73996033D01*
X134738415Y-73817387D01*
X135169933Y-73847980D01*
G36*
X135169933Y-73847980D02*
G01*
X135596617Y-74083100D01*
X135987032Y-74518033D01*
X136309741Y-75148066D01*
X136396573Y-75399781D01*
X136591539Y-76249977D01*
X136648186Y-77048250D01*
X136575838Y-77761721D01*
X136383819Y-78357508D01*
X136081453Y-78802731D01*
X135678062Y-79064511D01*
X135341399Y-79121000D01*
X134937198Y-79046025D01*
X134591271Y-78871661D01*
X134251247Y-78470865D01*
X133969874Y-77885742D01*
X133761810Y-77182122D01*
X133641712Y-76425841D01*
X133628317Y-75856115D01*
X134541644Y-75856115D01*
X134562920Y-76500168D01*
X134677124Y-77134886D01*
X134878339Y-77680952D01*
X135030179Y-77922750D01*
X135220082Y-78140394D01*
X135339541Y-78171584D01*
X135458093Y-78045754D01*
X135584469Y-77778026D01*
X135688391Y-77402606D01*
X135700510Y-77337020D01*
X135717540Y-76748573D01*
X135614571Y-76070643D01*
X135415893Y-75422785D01*
X135237749Y-75059163D01*
X135061854Y-74790819D01*
X134949266Y-74716120D01*
X134839349Y-74807001D01*
X134801539Y-74857276D01*
X134619211Y-75282045D01*
X134541644Y-75856115D01*
X133628317Y-75856115D01*
X133624240Y-75682730D01*
X133724050Y-75018622D01*
X133729210Y-74999891D01*
X133986618Y-74388630D01*
X134333498Y-73996033D01*
X134738415Y-73817387D01*
X135169933Y-73847980D01*
G37*
X153939878Y-71878985D02*
X154209963Y-72009814D01*
X154506733Y-72294493D01*
X154920371Y-72922580D01*
X155192437Y-73734856D01*
X155312959Y-74698262D01*
X155318210Y-74984800D01*
X155250868Y-75768566D01*
X155067131Y-76404757D01*
X154786502Y-76873740D01*
X154428484Y-77155882D01*
X154012580Y-77231548D01*
X153558292Y-77081107D01*
X153366083Y-76949995D01*
X152947676Y-76476229D01*
X152629875Y-75830574D01*
X152420047Y-75076220D01*
X152325557Y-74276361D01*
X152330216Y-74147197D01*
X153292915Y-74147197D01*
X153319005Y-74672787D01*
X153400926Y-75151704D01*
X153482215Y-75400588D01*
X153717719Y-75894078D01*
X153915515Y-76142647D01*
X154086450Y-76150690D01*
X154241372Y-75922603D01*
X154311260Y-75736531D01*
X154397974Y-75247629D01*
X154396459Y-74639625D01*
X154386393Y-74528468D01*
X154300821Y-74045194D01*
X154158359Y-73564489D01*
X153985076Y-73149799D01*
X153807040Y-72864573D01*
X153664275Y-72771000D01*
X153508336Y-72886834D01*
X153391710Y-73194576D01*
X153318527Y-73634578D01*
X153292915Y-74147197D01*
X152330216Y-74147197D01*
X152353771Y-73494188D01*
X152512057Y-72792895D01*
X152807780Y-72235672D01*
X152815426Y-72226084D01*
X153112501Y-71962165D01*
X153498085Y-71862184D01*
X153594081Y-71856801D01*
X153939878Y-71878985D01*
G36*
X153939878Y-71878985D02*
G01*
X154209963Y-72009814D01*
X154506733Y-72294493D01*
X154920371Y-72922580D01*
X155192437Y-73734856D01*
X155312959Y-74698262D01*
X155318210Y-74984800D01*
X155250868Y-75768566D01*
X155067131Y-76404757D01*
X154786502Y-76873740D01*
X154428484Y-77155882D01*
X154012580Y-77231548D01*
X153558292Y-77081107D01*
X153366083Y-76949995D01*
X152947676Y-76476229D01*
X152629875Y-75830574D01*
X152420047Y-75076220D01*
X152325557Y-74276361D01*
X152330216Y-74147197D01*
X153292915Y-74147197D01*
X153319005Y-74672787D01*
X153400926Y-75151704D01*
X153482215Y-75400588D01*
X153717719Y-75894078D01*
X153915515Y-76142647D01*
X154086450Y-76150690D01*
X154241372Y-75922603D01*
X154311260Y-75736531D01*
X154397974Y-75247629D01*
X154396459Y-74639625D01*
X154386393Y-74528468D01*
X154300821Y-74045194D01*
X154158359Y-73564489D01*
X153985076Y-73149799D01*
X153807040Y-72864573D01*
X153664275Y-72771000D01*
X153508336Y-72886834D01*
X153391710Y-73194576D01*
X153318527Y-73634578D01*
X153292915Y-74147197D01*
X152330216Y-74147197D01*
X152353771Y-73494188D01*
X152512057Y-72792895D01*
X152807780Y-72235672D01*
X152815426Y-72226084D01*
X153112501Y-71962165D01*
X153498085Y-71862184D01*
X153594081Y-71856801D01*
X153939878Y-71878985D01*
G37*
X126823073Y-94823473D02*
X127083484Y-94903239D01*
X127466065Y-95068321D01*
X128012182Y-95332954D01*
X128326037Y-95490188D01*
X129290570Y-95940091D01*
X130251107Y-96322993D01*
X131107917Y-96599251D01*
X131133070Y-96606037D01*
X131611765Y-96728724D01*
X132031012Y-96817889D01*
X132447251Y-96878861D01*
X132916920Y-96916968D01*
X133496458Y-96937538D01*
X134242305Y-96945900D01*
X134747000Y-96947229D01*
X135918914Y-96931124D01*
X136998279Y-96874637D01*
X138051409Y-96769479D01*
X139144616Y-96607358D01*
X140344213Y-96379982D01*
X141716513Y-96079060D01*
X141747386Y-96071956D01*
X142498639Y-95905464D01*
X143042101Y-95805258D01*
X143415049Y-95770845D01*
X143654755Y-95801732D01*
X143798496Y-95897425D01*
X143878572Y-96043750D01*
X143950289Y-96366703D01*
X143871742Y-96615874D01*
X143614449Y-96818492D01*
X143149928Y-97001788D01*
X142759004Y-97114054D01*
X141811175Y-97340926D01*
X140694913Y-97568272D01*
X139495338Y-97781569D01*
X138297573Y-97966292D01*
X137186741Y-98107917D01*
X136588500Y-98166914D01*
X135740395Y-98232393D01*
X135058317Y-98267065D01*
X134456174Y-98271001D01*
X133847878Y-98244273D01*
X133147337Y-98186951D01*
X132969000Y-98169922D01*
X132360921Y-98098774D01*
X131724124Y-98005464D01*
X131254500Y-97921380D01*
X130615708Y-97753035D01*
X129834475Y-97490394D01*
X128989259Y-97164534D01*
X128158518Y-96806536D01*
X127420711Y-96447476D01*
X127127000Y-96286407D01*
X126691345Y-96021516D01*
X126434686Y-95817673D01*
X126307584Y-95624870D01*
X126262332Y-95411818D01*
X126283770Y-95084382D01*
X126460019Y-94887653D01*
X126503299Y-94862952D01*
X126643467Y-94814789D01*
X126823073Y-94823473D01*
G36*
X126823073Y-94823473D02*
G01*
X127083484Y-94903239D01*
X127466065Y-95068321D01*
X128012182Y-95332954D01*
X128326037Y-95490188D01*
X129290570Y-95940091D01*
X130251107Y-96322993D01*
X131107917Y-96599251D01*
X131133070Y-96606037D01*
X131611765Y-96728724D01*
X132031012Y-96817889D01*
X132447251Y-96878861D01*
X132916920Y-96916968D01*
X133496458Y-96937538D01*
X134242305Y-96945900D01*
X134747000Y-96947229D01*
X135918914Y-96931124D01*
X136998279Y-96874637D01*
X138051409Y-96769479D01*
X139144616Y-96607358D01*
X140344213Y-96379982D01*
X141716513Y-96079060D01*
X141747386Y-96071956D01*
X142498639Y-95905464D01*
X143042101Y-95805258D01*
X143415049Y-95770845D01*
X143654755Y-95801732D01*
X143798496Y-95897425D01*
X143878572Y-96043750D01*
X143950289Y-96366703D01*
X143871742Y-96615874D01*
X143614449Y-96818492D01*
X143149928Y-97001788D01*
X142759004Y-97114054D01*
X141811175Y-97340926D01*
X140694913Y-97568272D01*
X139495338Y-97781569D01*
X138297573Y-97966292D01*
X137186741Y-98107917D01*
X136588500Y-98166914D01*
X135740395Y-98232393D01*
X135058317Y-98267065D01*
X134456174Y-98271001D01*
X133847878Y-98244273D01*
X133147337Y-98186951D01*
X132969000Y-98169922D01*
X132360921Y-98098774D01*
X131724124Y-98005464D01*
X131254500Y-97921380D01*
X130615708Y-97753035D01*
X129834475Y-97490394D01*
X128989259Y-97164534D01*
X128158518Y-96806536D01*
X127420711Y-96447476D01*
X127127000Y-96286407D01*
X126691345Y-96021516D01*
X126434686Y-95817673D01*
X126307584Y-95624870D01*
X126262332Y-95411818D01*
X126283770Y-95084382D01*
X126460019Y-94887653D01*
X126503299Y-94862952D01*
X126643467Y-94814789D01*
X126823073Y-94823473D01*
G37*
X135189883Y-111643621D02*
X135756422Y-111677325D01*
X136434222Y-111728226D01*
X137174673Y-111791630D01*
X137929161Y-111862846D01*
X138649074Y-111937180D01*
X139285802Y-112009940D01*
X139790732Y-112076433D01*
X140115252Y-112131967D01*
X140194734Y-112154186D01*
X140498968Y-112279398D01*
X140429260Y-115289949D01*
X140405908Y-116149711D01*
X140378112Y-116932722D01*
X140347762Y-117600548D01*
X140316750Y-118114755D01*
X140286967Y-118436909D01*
X140270188Y-118522750D01*
X140175573Y-118633467D01*
X139981303Y-118701529D01*
X139662942Y-118725731D01*
X139196057Y-118704872D01*
X138556214Y-118637747D01*
X137718977Y-118523152D01*
X136659912Y-118359884D01*
X136525000Y-118338288D01*
X135773737Y-118211895D01*
X135103641Y-118088256D01*
X134557376Y-117976122D01*
X134177607Y-117884242D01*
X134007789Y-117822041D01*
X133952442Y-117728483D01*
X133914394Y-117534960D01*
X133892866Y-117212413D01*
X133887077Y-116731781D01*
X133889028Y-116589733D01*
X135121708Y-116589733D01*
X135130864Y-116816432D01*
X135140468Y-116847759D01*
X135277353Y-116870171D01*
X135618575Y-116926445D01*
X136117885Y-117008945D01*
X136729036Y-117110031D01*
X136969500Y-117149829D01*
X137627898Y-117257358D01*
X138209025Y-117349560D01*
X138660657Y-117418347D01*
X138930570Y-117455632D01*
X138969750Y-117459569D01*
X139059810Y-117443712D01*
X139123048Y-117355740D01*
X139165083Y-117156996D01*
X139191534Y-116808823D01*
X139208018Y-116272561D01*
X139216694Y-115760500D01*
X139226472Y-115087315D01*
X139235564Y-114471504D01*
X139243041Y-113975411D01*
X139247972Y-113661377D01*
X139248444Y-113633250D01*
X139255500Y-113220500D01*
X137310589Y-113048743D01*
X136635426Y-112993449D01*
X136053500Y-112954000D01*
X135609884Y-112932804D01*
X135349654Y-112932268D01*
X135301235Y-112941430D01*
X135274562Y-113081548D01*
X135244738Y-113417848D01*
X135213945Y-113897372D01*
X135184360Y-114467159D01*
X135158165Y-115074249D01*
X135137538Y-115665682D01*
X135124659Y-116188496D01*
X135121708Y-116589733D01*
X133889028Y-116589733D01*
X133896249Y-116064006D01*
X133919601Y-115180028D01*
X133928877Y-114880262D01*
X133959905Y-114050715D01*
X133997027Y-113298216D01*
X134037540Y-112662868D01*
X134078741Y-112184775D01*
X134117926Y-111904041D01*
X134132806Y-111855250D01*
X134319898Y-111694308D01*
X134689580Y-111633448D01*
X134783218Y-111631805D01*
X135189883Y-111643621D01*
G36*
X135189883Y-111643621D02*
G01*
X135756422Y-111677325D01*
X136434222Y-111728226D01*
X137174673Y-111791630D01*
X137929161Y-111862846D01*
X138649074Y-111937180D01*
X139285802Y-112009940D01*
X139790732Y-112076433D01*
X140115252Y-112131967D01*
X140194734Y-112154186D01*
X140498968Y-112279398D01*
X140429260Y-115289949D01*
X140405908Y-116149711D01*
X140378112Y-116932722D01*
X140347762Y-117600548D01*
X140316750Y-118114755D01*
X140286967Y-118436909D01*
X140270188Y-118522750D01*
X140175573Y-118633467D01*
X139981303Y-118701529D01*
X139662942Y-118725731D01*
X139196057Y-118704872D01*
X138556214Y-118637747D01*
X137718977Y-118523152D01*
X136659912Y-118359884D01*
X136525000Y-118338288D01*
X135773737Y-118211895D01*
X135103641Y-118088256D01*
X134557376Y-117976122D01*
X134177607Y-117884242D01*
X134007789Y-117822041D01*
X133952442Y-117728483D01*
X133914394Y-117534960D01*
X133892866Y-117212413D01*
X133887077Y-116731781D01*
X133889028Y-116589733D01*
X135121708Y-116589733D01*
X135130864Y-116816432D01*
X135140468Y-116847759D01*
X135277353Y-116870171D01*
X135618575Y-116926445D01*
X136117885Y-117008945D01*
X136729036Y-117110031D01*
X136969500Y-117149829D01*
X137627898Y-117257358D01*
X138209025Y-117349560D01*
X138660657Y-117418347D01*
X138930570Y-117455632D01*
X138969750Y-117459569D01*
X139059810Y-117443712D01*
X139123048Y-117355740D01*
X139165083Y-117156996D01*
X139191534Y-116808823D01*
X139208018Y-116272561D01*
X139216694Y-115760500D01*
X139226472Y-115087315D01*
X139235564Y-114471504D01*
X139243041Y-113975411D01*
X139247972Y-113661377D01*
X139248444Y-113633250D01*
X139255500Y-113220500D01*
X137310589Y-113048743D01*
X136635426Y-112993449D01*
X136053500Y-112954000D01*
X135609884Y-112932804D01*
X135349654Y-112932268D01*
X135301235Y-112941430D01*
X135274562Y-113081548D01*
X135244738Y-113417848D01*
X135213945Y-113897372D01*
X135184360Y-114467159D01*
X135158165Y-115074249D01*
X135137538Y-115665682D01*
X135124659Y-116188496D01*
X135121708Y-116589733D01*
X133889028Y-116589733D01*
X133896249Y-116064006D01*
X133919601Y-115180028D01*
X133928877Y-114880262D01*
X133959905Y-114050715D01*
X133997027Y-113298216D01*
X134037540Y-112662868D01*
X134078741Y-112184775D01*
X134117926Y-111904041D01*
X134132806Y-111855250D01*
X134319898Y-111694308D01*
X134689580Y-111633448D01*
X134783218Y-111631805D01*
X135189883Y-111643621D01*
G37*
X124788570Y-51595644D02*
X125539344Y-51669412D01*
X126275607Y-51799770D01*
X126934413Y-51973527D01*
X127452817Y-52177488D01*
X127724990Y-52354309D01*
X128003746Y-52767321D01*
X128175383Y-53370251D01*
X128232442Y-54119383D01*
X128169316Y-54958087D01*
X128030317Y-55825441D01*
X127874061Y-56620437D01*
X127710150Y-57306663D01*
X127548187Y-57847706D01*
X127397775Y-58207156D01*
X127275601Y-58346894D01*
X127082155Y-58380080D01*
X126683129Y-58430480D01*
X126125933Y-58492715D01*
X125457978Y-58561403D01*
X124968000Y-58608742D01*
X124227179Y-58680081D01*
X123541083Y-58749080D01*
X122964609Y-58810000D01*
X122552657Y-58857101D01*
X122405471Y-58876615D01*
X122068356Y-58897174D01*
X121865529Y-58801419D01*
X121750207Y-58651855D01*
X121491773Y-58128534D01*
X121252761Y-57432963D01*
X121053799Y-56646891D01*
X120915519Y-55852065D01*
X120858550Y-55130233D01*
X120858392Y-55118000D01*
X120878500Y-54441884D01*
X121802718Y-54441884D01*
X121821987Y-55469564D01*
X121983684Y-56530584D01*
X122280486Y-57541812D01*
X122288434Y-57562750D01*
X122344017Y-57704948D01*
X122410512Y-57804855D01*
X122525530Y-57865068D01*
X122726686Y-57888185D01*
X123051591Y-57876803D01*
X123537859Y-57833520D01*
X124223102Y-57760933D01*
X124587000Y-57721500D01*
X125234450Y-57652868D01*
X125801900Y-57595324D01*
X126235869Y-57554103D01*
X126482878Y-57534442D01*
X126507195Y-57533524D01*
X126641530Y-57413365D01*
X126780669Y-57089115D01*
X126916524Y-56610356D01*
X127041012Y-56026670D01*
X127146045Y-55387638D01*
X127223539Y-54742843D01*
X127265409Y-54141867D01*
X127263568Y-53634291D01*
X127209931Y-53269696D01*
X127205071Y-53254012D01*
X127118430Y-53109889D01*
X126931936Y-52988429D01*
X126598396Y-52868889D01*
X126070612Y-52730526D01*
X125946631Y-52700906D01*
X124856055Y-52513385D01*
X123880647Y-52505450D01*
X122954571Y-52678492D01*
X122663453Y-52770395D01*
X122297822Y-52917547D01*
X122096293Y-53088401D01*
X121976629Y-53368575D01*
X121933203Y-53530677D01*
X121802718Y-54441884D01*
X120878500Y-54441884D01*
X120880509Y-54374365D01*
X120956641Y-53660340D01*
X121076021Y-53038903D01*
X121227883Y-52573028D01*
X121322286Y-52404657D01*
X121596799Y-52190789D01*
X122066423Y-51985432D01*
X122672420Y-51805864D01*
X123356054Y-51669363D01*
X124058586Y-51593205D01*
X124086230Y-51591659D01*
X124788570Y-51595644D01*
G36*
X124788570Y-51595644D02*
G01*
X125539344Y-51669412D01*
X126275607Y-51799770D01*
X126934413Y-51973527D01*
X127452817Y-52177488D01*
X127724990Y-52354309D01*
X128003746Y-52767321D01*
X128175383Y-53370251D01*
X128232442Y-54119383D01*
X128169316Y-54958087D01*
X128030317Y-55825441D01*
X127874061Y-56620437D01*
X127710150Y-57306663D01*
X127548187Y-57847706D01*
X127397775Y-58207156D01*
X127275601Y-58346894D01*
X127082155Y-58380080D01*
X126683129Y-58430480D01*
X126125933Y-58492715D01*
X125457978Y-58561403D01*
X124968000Y-58608742D01*
X124227179Y-58680081D01*
X123541083Y-58749080D01*
X122964609Y-58810000D01*
X122552657Y-58857101D01*
X122405471Y-58876615D01*
X122068356Y-58897174D01*
X121865529Y-58801419D01*
X121750207Y-58651855D01*
X121491773Y-58128534D01*
X121252761Y-57432963D01*
X121053799Y-56646891D01*
X120915519Y-55852065D01*
X120858550Y-55130233D01*
X120858392Y-55118000D01*
X120878500Y-54441884D01*
X121802718Y-54441884D01*
X121821987Y-55469564D01*
X121983684Y-56530584D01*
X122280486Y-57541812D01*
X122288434Y-57562750D01*
X122344017Y-57704948D01*
X122410512Y-57804855D01*
X122525530Y-57865068D01*
X122726686Y-57888185D01*
X123051591Y-57876803D01*
X123537859Y-57833520D01*
X124223102Y-57760933D01*
X124587000Y-57721500D01*
X125234450Y-57652868D01*
X125801900Y-57595324D01*
X126235869Y-57554103D01*
X126482878Y-57534442D01*
X126507195Y-57533524D01*
X126641530Y-57413365D01*
X126780669Y-57089115D01*
X126916524Y-56610356D01*
X127041012Y-56026670D01*
X127146045Y-55387638D01*
X127223539Y-54742843D01*
X127265409Y-54141867D01*
X127263568Y-53634291D01*
X127209931Y-53269696D01*
X127205071Y-53254012D01*
X127118430Y-53109889D01*
X126931936Y-52988429D01*
X126598396Y-52868889D01*
X126070612Y-52730526D01*
X125946631Y-52700906D01*
X124856055Y-52513385D01*
X123880647Y-52505450D01*
X122954571Y-52678492D01*
X122663453Y-52770395D01*
X122297822Y-52917547D01*
X122096293Y-53088401D01*
X121976629Y-53368575D01*
X121933203Y-53530677D01*
X121802718Y-54441884D01*
X120878500Y-54441884D01*
X120880509Y-54374365D01*
X120956641Y-53660340D01*
X121076021Y-53038903D01*
X121227883Y-52573028D01*
X121322286Y-52404657D01*
X121596799Y-52190789D01*
X122066423Y-51985432D01*
X122672420Y-51805864D01*
X123356054Y-51669363D01*
X124058586Y-51593205D01*
X124086230Y-51591659D01*
X124788570Y-51595644D01*
G37*
X145312420Y-50851270D02*
X145574408Y-50907416D01*
X145602567Y-50924566D01*
X145735509Y-51121212D01*
X145902264Y-51486975D01*
X146068758Y-51946208D01*
X146083177Y-51991485D01*
X146204479Y-52419662D01*
X146286523Y-52837351D01*
X146336349Y-53310942D01*
X146360995Y-53906824D01*
X146367500Y-54673500D01*
X146363342Y-55406372D01*
X146346324Y-55941599D01*
X146309625Y-56335465D01*
X146246426Y-56644253D01*
X146149907Y-56924246D01*
X146073308Y-57101518D01*
X145824409Y-57555593D01*
X145523091Y-57977646D01*
X145374808Y-58140540D01*
X145222999Y-58278854D01*
X145068374Y-58385021D01*
X144870764Y-58468648D01*
X144589997Y-58539346D01*
X144185903Y-58606723D01*
X143618311Y-58680388D01*
X142847052Y-58769950D01*
X142650204Y-58792271D01*
X141697092Y-58901729D01*
X140965028Y-58982839D01*
X140422051Y-59029629D01*
X140036196Y-59036131D01*
X139775500Y-58996374D01*
X139608001Y-58904389D01*
X139501735Y-58754206D01*
X139424738Y-58539854D01*
X139345049Y-58255364D01*
X139320289Y-58170329D01*
X138911817Y-56698266D01*
X138618521Y-55414921D01*
X138440999Y-54326751D01*
X138379852Y-53440212D01*
X138427325Y-52863278D01*
X139319000Y-52863278D01*
X139319000Y-53537836D01*
X139371972Y-54258324D01*
X139528779Y-55192287D01*
X139786254Y-56322835D01*
X139978489Y-57054750D01*
X140075029Y-57418535D01*
X140161761Y-57688631D01*
X140274142Y-57874746D01*
X140447629Y-57986587D01*
X140717680Y-58033863D01*
X141119751Y-58026282D01*
X141689300Y-57973554D01*
X142461784Y-57885385D01*
X142849322Y-57840799D01*
X143575902Y-57755505D01*
X144096990Y-57676242D01*
X144459338Y-57579238D01*
X144709700Y-57440720D01*
X144894828Y-57236918D01*
X145061476Y-56944059D01*
X145207052Y-56642000D01*
X145359352Y-56178596D01*
X145452898Y-55589376D01*
X145492004Y-54919251D01*
X145480987Y-54213130D01*
X145424160Y-53515925D01*
X145325838Y-52872545D01*
X145190336Y-52327901D01*
X145021968Y-51926902D01*
X144825049Y-51714460D01*
X144731514Y-51692276D01*
X143538986Y-51762341D01*
X142319806Y-51933746D01*
X141158952Y-52190362D01*
X140141398Y-52516060D01*
X139922250Y-52605150D01*
X139319000Y-52863278D01*
X138427325Y-52863278D01*
X138435679Y-52761761D01*
X138609080Y-52297853D01*
X138759632Y-52132754D01*
X139073985Y-51951001D01*
X139562436Y-51733456D01*
X140152860Y-51506700D01*
X140773131Y-51297311D01*
X141351125Y-51131870D01*
X141668500Y-51060770D01*
X142257626Y-50969978D01*
X142924659Y-50899091D01*
X143616626Y-50849942D01*
X144280557Y-50824367D01*
X144863479Y-50824198D01*
X145312420Y-50851270D01*
G36*
X145312420Y-50851270D02*
G01*
X145574408Y-50907416D01*
X145602567Y-50924566D01*
X145735509Y-51121212D01*
X145902264Y-51486975D01*
X146068758Y-51946208D01*
X146083177Y-51991485D01*
X146204479Y-52419662D01*
X146286523Y-52837351D01*
X146336349Y-53310942D01*
X146360995Y-53906824D01*
X146367500Y-54673500D01*
X146363342Y-55406372D01*
X146346324Y-55941599D01*
X146309625Y-56335465D01*
X146246426Y-56644253D01*
X146149907Y-56924246D01*
X146073308Y-57101518D01*
X145824409Y-57555593D01*
X145523091Y-57977646D01*
X145374808Y-58140540D01*
X145222999Y-58278854D01*
X145068374Y-58385021D01*
X144870764Y-58468648D01*
X144589997Y-58539346D01*
X144185903Y-58606723D01*
X143618311Y-58680388D01*
X142847052Y-58769950D01*
X142650204Y-58792271D01*
X141697092Y-58901729D01*
X140965028Y-58982839D01*
X140422051Y-59029629D01*
X140036196Y-59036131D01*
X139775500Y-58996374D01*
X139608001Y-58904389D01*
X139501735Y-58754206D01*
X139424738Y-58539854D01*
X139345049Y-58255364D01*
X139320289Y-58170329D01*
X138911817Y-56698266D01*
X138618521Y-55414921D01*
X138440999Y-54326751D01*
X138379852Y-53440212D01*
X138427325Y-52863278D01*
X139319000Y-52863278D01*
X139319000Y-53537836D01*
X139371972Y-54258324D01*
X139528779Y-55192287D01*
X139786254Y-56322835D01*
X139978489Y-57054750D01*
X140075029Y-57418535D01*
X140161761Y-57688631D01*
X140274142Y-57874746D01*
X140447629Y-57986587D01*
X140717680Y-58033863D01*
X141119751Y-58026282D01*
X141689300Y-57973554D01*
X142461784Y-57885385D01*
X142849322Y-57840799D01*
X143575902Y-57755505D01*
X144096990Y-57676242D01*
X144459338Y-57579238D01*
X144709700Y-57440720D01*
X144894828Y-57236918D01*
X145061476Y-56944059D01*
X145207052Y-56642000D01*
X145359352Y-56178596D01*
X145452898Y-55589376D01*
X145492004Y-54919251D01*
X145480987Y-54213130D01*
X145424160Y-53515925D01*
X145325838Y-52872545D01*
X145190336Y-52327901D01*
X145021968Y-51926902D01*
X144825049Y-51714460D01*
X144731514Y-51692276D01*
X143538986Y-51762341D01*
X142319806Y-51933746D01*
X141158952Y-52190362D01*
X140141398Y-52516060D01*
X139922250Y-52605150D01*
X139319000Y-52863278D01*
X138427325Y-52863278D01*
X138435679Y-52761761D01*
X138609080Y-52297853D01*
X138759632Y-52132754D01*
X139073985Y-51951001D01*
X139562436Y-51733456D01*
X140152860Y-51506700D01*
X140773131Y-51297311D01*
X141351125Y-51131870D01*
X141668500Y-51060770D01*
X142257626Y-50969978D01*
X142924659Y-50899091D01*
X143616626Y-50849942D01*
X144280557Y-50824367D01*
X144863479Y-50824198D01*
X145312420Y-50851270D01*
G37*
X133498639Y-71302064D02*
X134655114Y-71516089D01*
X135322981Y-71698937D01*
X135808303Y-71868270D01*
X136177824Y-72059259D01*
X136498290Y-72307075D01*
X136836446Y-72646888D01*
X136870065Y-72683225D01*
X137478144Y-73469119D01*
X137912177Y-74338686D01*
X138196792Y-75348760D01*
X138297676Y-75977750D01*
X138348259Y-77062922D01*
X138231190Y-78089656D01*
X137963137Y-79031094D01*
X137560772Y-79860383D01*
X137040765Y-80550666D01*
X136419786Y-81075087D01*
X135714505Y-81406792D01*
X134941594Y-81518923D01*
X134859265Y-81516949D01*
X134598155Y-81489779D01*
X134135984Y-81424755D01*
X133521601Y-81329434D01*
X132803852Y-81211369D01*
X132098726Y-81089952D01*
X131261332Y-80942717D01*
X130630802Y-80822192D01*
X130164739Y-80706257D01*
X129820746Y-80572796D01*
X129556423Y-80399688D01*
X129329375Y-80164815D01*
X129097202Y-79846060D01*
X128817507Y-79421303D01*
X128774527Y-79355747D01*
X128269729Y-78433690D01*
X127966728Y-77483059D01*
X127842737Y-76425596D01*
X127837042Y-76136500D01*
X127839793Y-76007922D01*
X128744068Y-76007922D01*
X128840853Y-77079377D01*
X129189952Y-78127127D01*
X129791994Y-79157422D01*
X129856194Y-79246221D01*
X130135846Y-79598815D01*
X130383428Y-79800305D01*
X130701790Y-79914791D01*
X131032512Y-79979321D01*
X131620565Y-80078828D01*
X131989320Y-80122845D01*
X132170648Y-80093715D01*
X132196420Y-79973776D01*
X132098504Y-79745370D01*
X131951227Y-79470250D01*
X131572508Y-78663308D01*
X131334930Y-77879778D01*
X131220749Y-77034672D01*
X131213616Y-76205267D01*
X132303669Y-76205267D01*
X132387458Y-77255089D01*
X132634631Y-78213067D01*
X133028411Y-79041591D01*
X133552020Y-79703052D01*
X134028650Y-80072196D01*
X134633235Y-80334292D01*
X135190333Y-80356027D01*
X135716539Y-80147337D01*
X136312466Y-79643381D01*
X136756421Y-78979968D01*
X137051830Y-78198561D01*
X137202118Y-77340621D01*
X137210709Y-76447611D01*
X137081030Y-75560991D01*
X136816504Y-74722225D01*
X136420557Y-73972773D01*
X135896613Y-73354098D01*
X135248099Y-72907661D01*
X135113458Y-72846722D01*
X134543451Y-72730015D01*
X133994072Y-72841502D01*
X133486907Y-73155379D01*
X133043544Y-73645841D01*
X132685571Y-74287086D01*
X132434577Y-75053309D01*
X132312149Y-75918705D01*
X132303669Y-76205267D01*
X131213616Y-76205267D01*
X131212220Y-76043003D01*
X131215845Y-75948099D01*
X131251783Y-75292105D01*
X131307312Y-74807992D01*
X131399093Y-74413659D01*
X131543788Y-74027004D01*
X131655964Y-73779348D01*
X131916528Y-73288707D01*
X132211457Y-72827076D01*
X132444336Y-72531973D01*
X132848249Y-72102447D01*
X132178374Y-72187502D01*
X131160105Y-72380909D01*
X130193553Y-72713465D01*
X130155760Y-72729341D01*
X129881109Y-72880143D01*
X129663194Y-73104715D01*
X129449009Y-73467817D01*
X129304922Y-73768896D01*
X128898967Y-74906512D01*
X128744068Y-76007922D01*
X127839793Y-76007922D01*
X127850914Y-75488179D01*
X127910284Y-74944435D01*
X128034623Y-74423088D01*
X128243406Y-73841961D01*
X128547673Y-73137551D01*
X128805293Y-72642265D01*
X129098530Y-72271454D01*
X129478909Y-71988968D01*
X129997955Y-71758658D01*
X130707195Y-71544374D01*
X130884247Y-71498251D01*
X132194121Y-71279425D01*
X133498639Y-71302064D01*
G36*
X133498639Y-71302064D02*
G01*
X134655114Y-71516089D01*
X135322981Y-71698937D01*
X135808303Y-71868270D01*
X136177824Y-72059259D01*
X136498290Y-72307075D01*
X136836446Y-72646888D01*
X136870065Y-72683225D01*
X137478144Y-73469119D01*
X137912177Y-74338686D01*
X138196792Y-75348760D01*
X138297676Y-75977750D01*
X138348259Y-77062922D01*
X138231190Y-78089656D01*
X137963137Y-79031094D01*
X137560772Y-79860383D01*
X137040765Y-80550666D01*
X136419786Y-81075087D01*
X135714505Y-81406792D01*
X134941594Y-81518923D01*
X134859265Y-81516949D01*
X134598155Y-81489779D01*
X134135984Y-81424755D01*
X133521601Y-81329434D01*
X132803852Y-81211369D01*
X132098726Y-81089952D01*
X131261332Y-80942717D01*
X130630802Y-80822192D01*
X130164739Y-80706257D01*
X129820746Y-80572796D01*
X129556423Y-80399688D01*
X129329375Y-80164815D01*
X129097202Y-79846060D01*
X128817507Y-79421303D01*
X128774527Y-79355747D01*
X128269729Y-78433690D01*
X127966728Y-77483059D01*
X127842737Y-76425596D01*
X127837042Y-76136500D01*
X127839793Y-76007922D01*
X128744068Y-76007922D01*
X128840853Y-77079377D01*
X129189952Y-78127127D01*
X129791994Y-79157422D01*
X129856194Y-79246221D01*
X130135846Y-79598815D01*
X130383428Y-79800305D01*
X130701790Y-79914791D01*
X131032512Y-79979321D01*
X131620565Y-80078828D01*
X131989320Y-80122845D01*
X132170648Y-80093715D01*
X132196420Y-79973776D01*
X132098504Y-79745370D01*
X131951227Y-79470250D01*
X131572508Y-78663308D01*
X131334930Y-77879778D01*
X131220749Y-77034672D01*
X131213616Y-76205267D01*
X132303669Y-76205267D01*
X132387458Y-77255089D01*
X132634631Y-78213067D01*
X133028411Y-79041591D01*
X133552020Y-79703052D01*
X134028650Y-80072196D01*
X134633235Y-80334292D01*
X135190333Y-80356027D01*
X135716539Y-80147337D01*
X136312466Y-79643381D01*
X136756421Y-78979968D01*
X137051830Y-78198561D01*
X137202118Y-77340621D01*
X137210709Y-76447611D01*
X137081030Y-75560991D01*
X136816504Y-74722225D01*
X136420557Y-73972773D01*
X135896613Y-73354098D01*
X135248099Y-72907661D01*
X135113458Y-72846722D01*
X134543451Y-72730015D01*
X133994072Y-72841502D01*
X133486907Y-73155379D01*
X133043544Y-73645841D01*
X132685571Y-74287086D01*
X132434577Y-75053309D01*
X132312149Y-75918705D01*
X132303669Y-76205267D01*
X131213616Y-76205267D01*
X131212220Y-76043003D01*
X131215845Y-75948099D01*
X131251783Y-75292105D01*
X131307312Y-74807992D01*
X131399093Y-74413659D01*
X131543788Y-74027004D01*
X131655964Y-73779348D01*
X131916528Y-73288707D01*
X132211457Y-72827076D01*
X132444336Y-72531973D01*
X132848249Y-72102447D01*
X132178374Y-72187502D01*
X131160105Y-72380909D01*
X130193553Y-72713465D01*
X130155760Y-72729341D01*
X129881109Y-72880143D01*
X129663194Y-73104715D01*
X129449009Y-73467817D01*
X129304922Y-73768896D01*
X128898967Y-74906512D01*
X128744068Y-76007922D01*
X127839793Y-76007922D01*
X127850914Y-75488179D01*
X127910284Y-74944435D01*
X128034623Y-74423088D01*
X128243406Y-73841961D01*
X128547673Y-73137551D01*
X128805293Y-72642265D01*
X129098530Y-72271454D01*
X129478909Y-71988968D01*
X129997955Y-71758658D01*
X130707195Y-71544374D01*
X130884247Y-71498251D01*
X132194121Y-71279425D01*
X133498639Y-71302064D01*
G37*
X151581508Y-69379325D02*
X152532780Y-69471669D01*
X153413804Y-69625095D01*
X154163155Y-69835939D01*
X154678477Y-70074384D01*
X155279037Y-70559506D01*
X155844059Y-71225500D01*
X156316874Y-72000113D01*
X156494720Y-72390000D01*
X156613934Y-72717868D01*
X156694873Y-73046781D01*
X156744655Y-73437026D01*
X156770396Y-73948891D01*
X156779212Y-74642662D01*
X156779565Y-74803000D01*
X156777120Y-75507921D01*
X156762221Y-76018775D01*
X156726307Y-76395463D01*
X156660817Y-76697887D01*
X156557190Y-76985949D01*
X156425612Y-77279500D01*
X155884722Y-78181324D01*
X155202973Y-78876709D01*
X154460128Y-79327035D01*
X154082487Y-79488725D01*
X153801065Y-79593728D01*
X153698128Y-79617778D01*
X153549742Y-79591325D01*
X153193044Y-79524631D01*
X152669143Y-79425473D01*
X152019146Y-79301631D01*
X151320500Y-79167858D01*
X150568104Y-79018451D01*
X149883874Y-78873213D01*
X149314488Y-78742787D01*
X148906624Y-78637815D01*
X148717000Y-78574279D01*
X148471847Y-78373976D01*
X148152313Y-78000705D01*
X147795540Y-77509703D01*
X147438674Y-76956210D01*
X147118857Y-76395461D01*
X146873235Y-75882696D01*
X146824618Y-75760073D01*
X146592386Y-74793049D01*
X146587011Y-74530819D01*
X147497300Y-74530819D01*
X147662645Y-75328323D01*
X148012751Y-76123655D01*
X148553294Y-76965167D01*
X148701380Y-77165334D01*
X148942898Y-77460504D01*
X149182628Y-77670128D01*
X149478067Y-77819873D01*
X149886715Y-77935405D01*
X150466072Y-78042389D01*
X150775504Y-78091157D01*
X150764757Y-78002473D01*
X150643902Y-77758729D01*
X150493194Y-77501750D01*
X150101296Y-76702196D01*
X149857273Y-75794300D01*
X149752400Y-74735718D01*
X149753874Y-74358500D01*
X150840119Y-74358500D01*
X150947333Y-75423415D01*
X151235140Y-76389458D01*
X151687051Y-77219155D01*
X152286575Y-77875032D01*
X152440241Y-77994904D01*
X152806057Y-78231904D01*
X153117141Y-78331733D01*
X153503204Y-78331854D01*
X153582850Y-78324913D01*
X154013139Y-78247514D01*
X154357062Y-78072105D01*
X154694917Y-77778791D01*
X155207005Y-77109302D01*
X155552437Y-76294490D01*
X155730351Y-75381462D01*
X155739884Y-74417324D01*
X155580176Y-73449183D01*
X155250361Y-72524144D01*
X154805032Y-71764155D01*
X154328107Y-71215224D01*
X153837791Y-70892948D01*
X153287339Y-70772183D01*
X152974679Y-70779532D01*
X152594877Y-70833591D01*
X152313073Y-70951032D01*
X152034381Y-71184277D01*
X151809604Y-71423203D01*
X151315859Y-72102662D01*
X151003363Y-72870506D01*
X150856220Y-73774857D01*
X150840119Y-74358500D01*
X149753874Y-74358500D01*
X149755579Y-73922658D01*
X149789796Y-73258050D01*
X149845806Y-72766447D01*
X149939033Y-72366935D01*
X150084904Y-71978600D01*
X150156714Y-71818500D01*
X150412684Y-71336699D01*
X150709082Y-70881930D01*
X150914625Y-70627770D01*
X151320500Y-70199040D01*
X150302252Y-70264488D01*
X149574139Y-70329012D01*
X149049100Y-70434468D01*
X148676398Y-70611923D01*
X148405301Y-70892445D01*
X148185071Y-71307100D01*
X148053086Y-71641753D01*
X147698195Y-72735886D01*
X147511042Y-73682791D01*
X147497300Y-74530819D01*
X146587011Y-74530819D01*
X146570393Y-73720246D01*
X146758052Y-72577552D01*
X146883860Y-72133579D01*
X147136778Y-71354763D01*
X147345763Y-70781006D01*
X147534020Y-70372402D01*
X147724757Y-70089043D01*
X147941179Y-69891024D01*
X148206491Y-69738438D01*
X148302458Y-69694049D01*
X148920465Y-69505425D01*
X149713926Y-69392539D01*
X150621415Y-69351727D01*
X151581508Y-69379325D01*
G36*
X151581508Y-69379325D02*
G01*
X152532780Y-69471669D01*
X153413804Y-69625095D01*
X154163155Y-69835939D01*
X154678477Y-70074384D01*
X155279037Y-70559506D01*
X155844059Y-71225500D01*
X156316874Y-72000113D01*
X156494720Y-72390000D01*
X156613934Y-72717868D01*
X156694873Y-73046781D01*
X156744655Y-73437026D01*
X156770396Y-73948891D01*
X156779212Y-74642662D01*
X156779565Y-74803000D01*
X156777120Y-75507921D01*
X156762221Y-76018775D01*
X156726307Y-76395463D01*
X156660817Y-76697887D01*
X156557190Y-76985949D01*
X156425612Y-77279500D01*
X155884722Y-78181324D01*
X155202973Y-78876709D01*
X154460128Y-79327035D01*
X154082487Y-79488725D01*
X153801065Y-79593728D01*
X153698128Y-79617778D01*
X153549742Y-79591325D01*
X153193044Y-79524631D01*
X152669143Y-79425473D01*
X152019146Y-79301631D01*
X151320500Y-79167858D01*
X150568104Y-79018451D01*
X149883874Y-78873213D01*
X149314488Y-78742787D01*
X148906624Y-78637815D01*
X148717000Y-78574279D01*
X148471847Y-78373976D01*
X148152313Y-78000705D01*
X147795540Y-77509703D01*
X147438674Y-76956210D01*
X147118857Y-76395461D01*
X146873235Y-75882696D01*
X146824618Y-75760073D01*
X146592386Y-74793049D01*
X146587011Y-74530819D01*
X147497300Y-74530819D01*
X147662645Y-75328323D01*
X148012751Y-76123655D01*
X148553294Y-76965167D01*
X148701380Y-77165334D01*
X148942898Y-77460504D01*
X149182628Y-77670128D01*
X149478067Y-77819873D01*
X149886715Y-77935405D01*
X150466072Y-78042389D01*
X150775504Y-78091157D01*
X150764757Y-78002473D01*
X150643902Y-77758729D01*
X150493194Y-77501750D01*
X150101296Y-76702196D01*
X149857273Y-75794300D01*
X149752400Y-74735718D01*
X149753874Y-74358500D01*
X150840119Y-74358500D01*
X150947333Y-75423415D01*
X151235140Y-76389458D01*
X151687051Y-77219155D01*
X152286575Y-77875032D01*
X152440241Y-77994904D01*
X152806057Y-78231904D01*
X153117141Y-78331733D01*
X153503204Y-78331854D01*
X153582850Y-78324913D01*
X154013139Y-78247514D01*
X154357062Y-78072105D01*
X154694917Y-77778791D01*
X155207005Y-77109302D01*
X155552437Y-76294490D01*
X155730351Y-75381462D01*
X155739884Y-74417324D01*
X155580176Y-73449183D01*
X155250361Y-72524144D01*
X154805032Y-71764155D01*
X154328107Y-71215224D01*
X153837791Y-70892948D01*
X153287339Y-70772183D01*
X152974679Y-70779532D01*
X152594877Y-70833591D01*
X152313073Y-70951032D01*
X152034381Y-71184277D01*
X151809604Y-71423203D01*
X151315859Y-72102662D01*
X151003363Y-72870506D01*
X150856220Y-73774857D01*
X150840119Y-74358500D01*
X149753874Y-74358500D01*
X149755579Y-73922658D01*
X149789796Y-73258050D01*
X149845806Y-72766447D01*
X149939033Y-72366935D01*
X150084904Y-71978600D01*
X150156714Y-71818500D01*
X150412684Y-71336699D01*
X150709082Y-70881930D01*
X150914625Y-70627770D01*
X151320500Y-70199040D01*
X150302252Y-70264488D01*
X149574139Y-70329012D01*
X149049100Y-70434468D01*
X148676398Y-70611923D01*
X148405301Y-70892445D01*
X148185071Y-71307100D01*
X148053086Y-71641753D01*
X147698195Y-72735886D01*
X147511042Y-73682791D01*
X147497300Y-74530819D01*
X146587011Y-74530819D01*
X146570393Y-73720246D01*
X146758052Y-72577552D01*
X146883860Y-72133579D01*
X147136778Y-71354763D01*
X147345763Y-70781006D01*
X147534020Y-70372402D01*
X147724757Y-70089043D01*
X147941179Y-69891024D01*
X148206491Y-69738438D01*
X148302458Y-69694049D01*
X148920465Y-69505425D01*
X149713926Y-69392539D01*
X150621415Y-69351727D01*
X151581508Y-69379325D01*
G37*
X151148929Y-82013958D02*
X151402220Y-82281628D01*
X151728156Y-82674197D01*
X152093507Y-83147856D01*
X152465040Y-83658794D01*
X152809524Y-84163202D01*
X153093730Y-84617267D01*
X153212213Y-84829490D01*
X153737798Y-86099562D01*
X154067926Y-87531549D01*
X154118386Y-87902015D01*
X154167690Y-88396797D01*
X154151341Y-88739814D01*
X154031951Y-88971677D01*
X153772134Y-89132998D01*
X153334503Y-89264389D01*
X152745709Y-89393120D01*
X151101225Y-89705056D01*
X149331744Y-89979486D01*
X147416571Y-90218410D01*
X145335011Y-90423826D01*
X143066372Y-90597735D01*
X140589960Y-90742136D01*
X137885079Y-90859027D01*
X137391188Y-90876648D01*
X135018876Y-90958832D01*
X134701792Y-90333098D01*
X134351699Y-89472572D01*
X134079755Y-88455411D01*
X133917706Y-87439500D01*
X133905622Y-87099953D01*
X133912655Y-86804543D01*
X134888092Y-86804543D01*
X134916577Y-87626798D01*
X135003247Y-88311592D01*
X135155067Y-88915250D01*
X135365335Y-89463406D01*
X135596689Y-89986421D01*
X136600594Y-89937362D01*
X137071201Y-89912348D01*
X137427056Y-89889604D01*
X137606762Y-89873174D01*
X137617082Y-89870402D01*
X137622950Y-89729373D01*
X137611628Y-89380154D01*
X137586167Y-88867482D01*
X137549615Y-88236094D01*
X137505021Y-87530726D01*
X137455435Y-86796115D01*
X137403906Y-86076999D01*
X137353482Y-85418112D01*
X137307214Y-84864194D01*
X137268150Y-84459979D01*
X137262828Y-84421227D01*
X138266934Y-84421227D01*
X138351461Y-86184363D01*
X138389792Y-86936255D01*
X138432585Y-87698877D01*
X138474749Y-88385617D01*
X138511195Y-88909864D01*
X138512892Y-88931750D01*
X138589797Y-89916000D01*
X139062769Y-89916000D01*
X139460521Y-89902202D01*
X139970761Y-89866806D01*
X140294615Y-89836681D01*
X141053489Y-89757363D01*
X140771447Y-88153931D01*
X140646408Y-87438461D01*
X140521025Y-86713114D01*
X140410785Y-86067918D01*
X140338103Y-85634944D01*
X140256610Y-85170799D01*
X140162292Y-84875213D01*
X140066575Y-84772500D01*
X141140848Y-84772500D01*
X141561066Y-87185500D01*
X141691570Y-87938236D01*
X141805811Y-88603577D01*
X141897036Y-89141660D01*
X141958492Y-89512624D01*
X141983424Y-89676607D01*
X141983642Y-89679696D01*
X142099842Y-89709842D01*
X142400477Y-89717966D01*
X142817299Y-89707854D01*
X143282058Y-89683291D01*
X143726504Y-89648064D01*
X144082388Y-89605957D01*
X144281461Y-89560757D01*
X144296777Y-89551390D01*
X144295108Y-89408849D01*
X144237464Y-89060262D01*
X144131993Y-88545355D01*
X143986839Y-87903856D01*
X143810151Y-87175491D01*
X143806948Y-87162696D01*
X143228842Y-84853892D01*
X141140848Y-84772500D01*
X140066575Y-84772500D01*
X140036920Y-84740677D01*
X144182050Y-84740677D01*
X144739187Y-86979088D01*
X144920505Y-87704398D01*
X145083074Y-88348743D01*
X145216099Y-88869807D01*
X145308782Y-89225274D01*
X145349025Y-89369342D01*
X145506515Y-89466332D01*
X145821113Y-89468479D01*
X146213795Y-89419239D01*
X146692270Y-89359381D01*
X146849561Y-89339733D01*
X147219486Y-89276077D01*
X147385752Y-89189373D01*
X147398674Y-89053040D01*
X147397848Y-89050096D01*
X147346058Y-88859549D01*
X147241836Y-88469672D01*
X147097494Y-87926743D01*
X146925344Y-87277041D01*
X146800431Y-86804500D01*
X146615880Y-86119155D01*
X146447774Y-85519853D01*
X146308786Y-85049865D01*
X146211592Y-84752465D01*
X146175328Y-84670283D01*
X146014540Y-84631822D01*
X145670772Y-84623908D01*
X145213328Y-84647599D01*
X145134458Y-84654372D01*
X144182050Y-84740677D01*
X140036920Y-84740677D01*
X140000872Y-84701995D01*
X139718069Y-84604952D01*
X139259605Y-84537893D01*
X139015217Y-84509158D01*
X138266934Y-84421227D01*
X137262828Y-84421227D01*
X137250036Y-84328084D01*
X147109974Y-84328084D01*
X148399500Y-89172210D01*
X148844000Y-89105696D01*
X149239112Y-89049303D01*
X149733640Y-88982226D01*
X149966064Y-88951794D01*
X150354628Y-88877120D01*
X150626020Y-88779036D01*
X150701316Y-88714079D01*
X150675005Y-88567682D01*
X150579873Y-88226191D01*
X150430677Y-87734364D01*
X150242176Y-87136963D01*
X150029128Y-86478747D01*
X149806292Y-85804475D01*
X149588426Y-85158909D01*
X149390288Y-84586807D01*
X149226637Y-84132931D01*
X149112231Y-83842038D01*
X149066937Y-83757250D01*
X148939435Y-83781656D01*
X148629837Y-83865849D01*
X148198286Y-83993229D01*
X148072237Y-84031772D01*
X147109974Y-84328084D01*
X137250036Y-84328084D01*
X137239339Y-84250205D01*
X137232741Y-84231407D01*
X137075282Y-84157971D01*
X136736769Y-84042671D01*
X136282090Y-83907118D01*
X136143222Y-83868591D01*
X135646392Y-83737945D01*
X135340184Y-83676699D01*
X135171816Y-83681653D01*
X135088506Y-83749608D01*
X135063430Y-83803153D01*
X135029240Y-84001016D01*
X134991123Y-84400013D01*
X134953131Y-84947403D01*
X134919319Y-85590445D01*
X134910825Y-85788500D01*
X134888092Y-86804543D01*
X133912655Y-86804543D01*
X133917722Y-86591747D01*
X133949643Y-85966678D01*
X133997022Y-85276541D01*
X134055496Y-84573131D01*
X134120704Y-83908243D01*
X134188281Y-83333672D01*
X134253865Y-82901214D01*
X134313094Y-82662664D01*
X134321438Y-82646356D01*
X134456153Y-82577855D01*
X134747729Y-82579090D01*
X135216930Y-82653353D01*
X135884520Y-82803939D01*
X136771264Y-83034142D01*
X136779000Y-83036234D01*
X138343325Y-83416290D01*
X139789599Y-83670541D01*
X141212241Y-83812364D01*
X142557500Y-83854965D01*
X144272482Y-83798537D01*
X145848292Y-83604007D01*
X146848148Y-83374162D01*
X150016123Y-83374162D01*
X150045653Y-83496693D01*
X150147502Y-83824228D01*
X150310225Y-84321981D01*
X150522375Y-84955167D01*
X150772508Y-85688998D01*
X150889131Y-86027516D01*
X151197974Y-86910974D01*
X151440622Y-87578100D01*
X151628198Y-88054509D01*
X151771823Y-88365814D01*
X151882619Y-88537631D01*
X151971709Y-88595575D01*
X152003008Y-88592828D01*
X152262608Y-88531030D01*
X152629213Y-88458316D01*
X152685750Y-88448137D01*
X152998932Y-88370183D01*
X153133000Y-88237244D01*
X153161979Y-87973454D01*
X153162000Y-87960048D01*
X153103066Y-87415359D01*
X152944324Y-86746173D01*
X152712866Y-86048023D01*
X152446863Y-85438170D01*
X152227701Y-85048865D01*
X151939017Y-84594548D01*
X151616500Y-84124344D01*
X151295839Y-83687378D01*
X151012721Y-83332774D01*
X150802835Y-83109656D01*
X150717708Y-83058000D01*
X150542767Y-83109954D01*
X150277355Y-83226342D01*
X150052875Y-83347949D01*
X150016123Y-83374162D01*
X146848148Y-83374162D01*
X147368998Y-83254430D01*
X148918669Y-82732862D01*
X149700079Y-82415337D01*
X150208448Y-82203747D01*
X150633350Y-82036457D01*
X150918338Y-81935167D01*
X151001513Y-81915000D01*
X151148929Y-82013958D01*
G36*
X151148929Y-82013958D02*
G01*
X151402220Y-82281628D01*
X151728156Y-82674197D01*
X152093507Y-83147856D01*
X152465040Y-83658794D01*
X152809524Y-84163202D01*
X153093730Y-84617267D01*
X153212213Y-84829490D01*
X153737798Y-86099562D01*
X154067926Y-87531549D01*
X154118386Y-87902015D01*
X154167690Y-88396797D01*
X154151341Y-88739814D01*
X154031951Y-88971677D01*
X153772134Y-89132998D01*
X153334503Y-89264389D01*
X152745709Y-89393120D01*
X151101225Y-89705056D01*
X149331744Y-89979486D01*
X147416571Y-90218410D01*
X145335011Y-90423826D01*
X143066372Y-90597735D01*
X140589960Y-90742136D01*
X137885079Y-90859027D01*
X137391188Y-90876648D01*
X135018876Y-90958832D01*
X134701792Y-90333098D01*
X134351699Y-89472572D01*
X134079755Y-88455411D01*
X133917706Y-87439500D01*
X133905622Y-87099953D01*
X133912655Y-86804543D01*
X134888092Y-86804543D01*
X134916577Y-87626798D01*
X135003247Y-88311592D01*
X135155067Y-88915250D01*
X135365335Y-89463406D01*
X135596689Y-89986421D01*
X136600594Y-89937362D01*
X137071201Y-89912348D01*
X137427056Y-89889604D01*
X137606762Y-89873174D01*
X137617082Y-89870402D01*
X137622950Y-89729373D01*
X137611628Y-89380154D01*
X137586167Y-88867482D01*
X137549615Y-88236094D01*
X137505021Y-87530726D01*
X137455435Y-86796115D01*
X137403906Y-86076999D01*
X137353482Y-85418112D01*
X137307214Y-84864194D01*
X137268150Y-84459979D01*
X137262828Y-84421227D01*
X138266934Y-84421227D01*
X138351461Y-86184363D01*
X138389792Y-86936255D01*
X138432585Y-87698877D01*
X138474749Y-88385617D01*
X138511195Y-88909864D01*
X138512892Y-88931750D01*
X138589797Y-89916000D01*
X139062769Y-89916000D01*
X139460521Y-89902202D01*
X139970761Y-89866806D01*
X140294615Y-89836681D01*
X141053489Y-89757363D01*
X140771447Y-88153931D01*
X140646408Y-87438461D01*
X140521025Y-86713114D01*
X140410785Y-86067918D01*
X140338103Y-85634944D01*
X140256610Y-85170799D01*
X140162292Y-84875213D01*
X140066575Y-84772500D01*
X141140848Y-84772500D01*
X141561066Y-87185500D01*
X141691570Y-87938236D01*
X141805811Y-88603577D01*
X141897036Y-89141660D01*
X141958492Y-89512624D01*
X141983424Y-89676607D01*
X141983642Y-89679696D01*
X142099842Y-89709842D01*
X142400477Y-89717966D01*
X142817299Y-89707854D01*
X143282058Y-89683291D01*
X143726504Y-89648064D01*
X144082388Y-89605957D01*
X144281461Y-89560757D01*
X144296777Y-89551390D01*
X144295108Y-89408849D01*
X144237464Y-89060262D01*
X144131993Y-88545355D01*
X143986839Y-87903856D01*
X143810151Y-87175491D01*
X143806948Y-87162696D01*
X143228842Y-84853892D01*
X141140848Y-84772500D01*
X140066575Y-84772500D01*
X140036920Y-84740677D01*
X144182050Y-84740677D01*
X144739187Y-86979088D01*
X144920505Y-87704398D01*
X145083074Y-88348743D01*
X145216099Y-88869807D01*
X145308782Y-89225274D01*
X145349025Y-89369342D01*
X145506515Y-89466332D01*
X145821113Y-89468479D01*
X146213795Y-89419239D01*
X146692270Y-89359381D01*
X146849561Y-89339733D01*
X147219486Y-89276077D01*
X147385752Y-89189373D01*
X147398674Y-89053040D01*
X147397848Y-89050096D01*
X147346058Y-88859549D01*
X147241836Y-88469672D01*
X147097494Y-87926743D01*
X146925344Y-87277041D01*
X146800431Y-86804500D01*
X146615880Y-86119155D01*
X146447774Y-85519853D01*
X146308786Y-85049865D01*
X146211592Y-84752465D01*
X146175328Y-84670283D01*
X146014540Y-84631822D01*
X145670772Y-84623908D01*
X145213328Y-84647599D01*
X145134458Y-84654372D01*
X144182050Y-84740677D01*
X140036920Y-84740677D01*
X140000872Y-84701995D01*
X139718069Y-84604952D01*
X139259605Y-84537893D01*
X139015217Y-84509158D01*
X138266934Y-84421227D01*
X137262828Y-84421227D01*
X137250036Y-84328084D01*
X147109974Y-84328084D01*
X148399500Y-89172210D01*
X148844000Y-89105696D01*
X149239112Y-89049303D01*
X149733640Y-88982226D01*
X149966064Y-88951794D01*
X150354628Y-88877120D01*
X150626020Y-88779036D01*
X150701316Y-88714079D01*
X150675005Y-88567682D01*
X150579873Y-88226191D01*
X150430677Y-87734364D01*
X150242176Y-87136963D01*
X150029128Y-86478747D01*
X149806292Y-85804475D01*
X149588426Y-85158909D01*
X149390288Y-84586807D01*
X149226637Y-84132931D01*
X149112231Y-83842038D01*
X149066937Y-83757250D01*
X148939435Y-83781656D01*
X148629837Y-83865849D01*
X148198286Y-83993229D01*
X148072237Y-84031772D01*
X147109974Y-84328084D01*
X137250036Y-84328084D01*
X137239339Y-84250205D01*
X137232741Y-84231407D01*
X137075282Y-84157971D01*
X136736769Y-84042671D01*
X136282090Y-83907118D01*
X136143222Y-83868591D01*
X135646392Y-83737945D01*
X135340184Y-83676699D01*
X135171816Y-83681653D01*
X135088506Y-83749608D01*
X135063430Y-83803153D01*
X135029240Y-84001016D01*
X134991123Y-84400013D01*
X134953131Y-84947403D01*
X134919319Y-85590445D01*
X134910825Y-85788500D01*
X134888092Y-86804543D01*
X133912655Y-86804543D01*
X133917722Y-86591747D01*
X133949643Y-85966678D01*
X133997022Y-85276541D01*
X134055496Y-84573131D01*
X134120704Y-83908243D01*
X134188281Y-83333672D01*
X134253865Y-82901214D01*
X134313094Y-82662664D01*
X134321438Y-82646356D01*
X134456153Y-82577855D01*
X134747729Y-82579090D01*
X135216930Y-82653353D01*
X135884520Y-82803939D01*
X136771264Y-83034142D01*
X136779000Y-83036234D01*
X138343325Y-83416290D01*
X139789599Y-83670541D01*
X141212241Y-83812364D01*
X142557500Y-83854965D01*
X144272482Y-83798537D01*
X145848292Y-83604007D01*
X146848148Y-83374162D01*
X150016123Y-83374162D01*
X150045653Y-83496693D01*
X150147502Y-83824228D01*
X150310225Y-84321981D01*
X150522375Y-84955167D01*
X150772508Y-85688998D01*
X150889131Y-86027516D01*
X151197974Y-86910974D01*
X151440622Y-87578100D01*
X151628198Y-88054509D01*
X151771823Y-88365814D01*
X151882619Y-88537631D01*
X151971709Y-88595575D01*
X152003008Y-88592828D01*
X152262608Y-88531030D01*
X152629213Y-88458316D01*
X152685750Y-88448137D01*
X152998932Y-88370183D01*
X153133000Y-88237244D01*
X153161979Y-87973454D01*
X153162000Y-87960048D01*
X153103066Y-87415359D01*
X152944324Y-86746173D01*
X152712866Y-86048023D01*
X152446863Y-85438170D01*
X152227701Y-85048865D01*
X151939017Y-84594548D01*
X151616500Y-84124344D01*
X151295839Y-83687378D01*
X151012721Y-83332774D01*
X150802835Y-83109656D01*
X150717708Y-83058000D01*
X150542767Y-83109954D01*
X150277355Y-83226342D01*
X150052875Y-83347949D01*
X150016123Y-83374162D01*
X146848148Y-83374162D01*
X147368998Y-83254430D01*
X148918669Y-82732862D01*
X149700079Y-82415337D01*
X150208448Y-82203747D01*
X150633350Y-82036457D01*
X150918338Y-81935167D01*
X151001513Y-81915000D01*
X151148929Y-82013958D01*
G37*
X144539015Y-49558435D02*
X145471408Y-49625410D01*
X146190968Y-49750101D01*
X146735337Y-49948057D01*
X147142156Y-50234826D01*
X147449068Y-50625957D01*
X147544720Y-50800000D01*
X147652685Y-51027863D01*
X147727584Y-51244367D01*
X147773357Y-51497270D01*
X147793942Y-51834332D01*
X147793278Y-52303313D01*
X147775304Y-52951972D01*
X147759436Y-53403500D01*
X147724734Y-54179317D01*
X147678854Y-54942802D01*
X147626835Y-55623326D01*
X147573712Y-56150261D01*
X147552250Y-56308997D01*
X147391879Y-56972619D01*
X147122711Y-57697256D01*
X146785958Y-58391640D01*
X146422832Y-58964505D01*
X146269301Y-59150250D01*
X146005724Y-59436000D01*
X148917112Y-59436748D01*
X150317171Y-59450034D01*
X151502552Y-59492152D01*
X152511416Y-59567671D01*
X153381922Y-59681157D01*
X154152230Y-59837177D01*
X154860501Y-60040298D01*
X155311518Y-60201994D01*
X156066631Y-60547237D01*
X156823314Y-60987160D01*
X157501949Y-61470047D01*
X158022920Y-61944183D01*
X158063818Y-61989738D01*
X158114802Y-62077370D01*
X158178531Y-62244851D01*
X158257792Y-62504882D01*
X158355371Y-62870163D01*
X158474053Y-63353397D01*
X158616625Y-63967285D01*
X158785872Y-64724529D01*
X158984581Y-65637828D01*
X159215537Y-66719886D01*
X159481526Y-67983403D01*
X159785334Y-69441081D01*
X160129748Y-71105621D01*
X160517552Y-72989724D01*
X160951534Y-75106093D01*
X161101637Y-75839451D01*
X163873137Y-89385402D01*
X163647933Y-89975092D01*
X163544774Y-90232152D01*
X163433362Y-90449669D01*
X163290801Y-90635034D01*
X163094195Y-90795637D01*
X162820648Y-90938870D01*
X162447265Y-91072122D01*
X161951149Y-91202785D01*
X161309406Y-91338250D01*
X160499138Y-91485908D01*
X159497450Y-91653148D01*
X158281447Y-91847363D01*
X157435129Y-91980592D01*
X156177467Y-92178722D01*
X155148354Y-92342785D01*
X154325322Y-92477526D01*
X153685903Y-92587686D01*
X153207628Y-92678009D01*
X152868028Y-92753236D01*
X152644636Y-92818110D01*
X152514983Y-92877375D01*
X152456600Y-92935772D01*
X152447020Y-92998044D01*
X152453507Y-93032107D01*
X152496230Y-93267731D01*
X152557045Y-93684782D01*
X152625929Y-94212247D01*
X152661576Y-94506300D01*
X152725984Y-95136645D01*
X152742762Y-95607496D01*
X152709151Y-96009366D01*
X152622392Y-96432765D01*
X152600174Y-96521157D01*
X152494336Y-96960976D01*
X152458770Y-97229732D01*
X152493895Y-97400565D01*
X152600131Y-97546617D01*
X152606086Y-97553223D01*
X152907663Y-97789070D01*
X153430336Y-98084838D01*
X154150997Y-98430586D01*
X155046539Y-98816373D01*
X156093855Y-99232257D01*
X157269837Y-99668297D01*
X158551378Y-100114553D01*
X158590069Y-100127609D01*
X159795853Y-100536593D01*
X160794729Y-100882882D01*
X161621632Y-101181420D01*
X162311499Y-101447150D01*
X162899263Y-101695016D01*
X163419862Y-101939962D01*
X163908229Y-102196932D01*
X164399301Y-102480871D01*
X164928013Y-102806720D01*
X165084889Y-102905814D01*
X165771407Y-103336288D01*
X166520354Y-103798180D01*
X167236720Y-104233286D01*
X167777203Y-104555129D01*
X168690970Y-105125033D01*
X169406606Y-105656870D01*
X169967301Y-106191819D01*
X170416246Y-106771057D01*
X170794795Y-107432092D01*
X171102266Y-108121352D01*
X171341159Y-108842267D01*
X171518437Y-109636890D01*
X171641062Y-110547275D01*
X171715997Y-111615475D01*
X171750204Y-112883544D01*
X171753116Y-113220500D01*
X171749701Y-114279234D01*
X171720066Y-115136164D01*
X171655460Y-115842885D01*
X171547133Y-116450990D01*
X171386336Y-117012075D01*
X171164318Y-117577733D01*
X170927898Y-118086399D01*
X170526987Y-118758675D01*
X169991555Y-119447369D01*
X169385628Y-120082604D01*
X168773235Y-120594500D01*
X168429192Y-120813442D01*
X167345778Y-121278269D01*
X166272821Y-121491887D01*
X165220492Y-121455002D01*
X164198964Y-121168321D01*
X163218409Y-120632553D01*
X162945060Y-120432162D01*
X162309092Y-119819571D01*
X161922185Y-119160489D01*
X161783201Y-118449325D01*
X161891001Y-117680487D01*
X162223401Y-116887040D01*
X162643033Y-116108581D01*
X161744266Y-116050269D01*
X160938692Y-115932434D01*
X160342838Y-115700980D01*
X159963830Y-115362240D01*
X159808795Y-114922545D01*
X159882345Y-114395781D01*
X160096436Y-114004695D01*
X160474046Y-113553628D01*
X160955490Y-113103822D01*
X161481083Y-112716521D01*
X161575750Y-112658185D01*
X161834084Y-112467137D01*
X161999465Y-112231064D01*
X162078080Y-111906771D01*
X162076116Y-111451065D01*
X161999760Y-110820752D01*
X161913612Y-110299500D01*
X161836111Y-109900005D01*
X161739331Y-109638744D01*
X161567932Y-109441801D01*
X161266574Y-109235259D01*
X160995389Y-109073036D01*
X159252134Y-108142657D01*
X157549373Y-107445327D01*
X155853460Y-106971160D01*
X155145953Y-106864013D01*
X158530618Y-106864013D01*
X158746404Y-106954332D01*
X159129199Y-107135943D01*
X159622165Y-107380109D01*
X160168462Y-107658090D01*
X160711250Y-107941150D01*
X161193689Y-108200551D01*
X161387699Y-108308541D01*
X161860981Y-108581663D01*
X162188309Y-108807456D01*
X162407584Y-109043833D01*
X162556706Y-109348708D01*
X162673577Y-109779993D01*
X162796096Y-110395602D01*
X162813458Y-110487143D01*
X162936256Y-111370669D01*
X162921954Y-112071920D01*
X162758398Y-112629762D01*
X162433437Y-113083062D01*
X161934919Y-113470685D01*
X161867785Y-113511689D01*
X161333875Y-113878246D01*
X160930549Y-114249880D01*
X160697139Y-114586195D01*
X160655000Y-114757158D01*
X160749929Y-114959322D01*
X161044866Y-115104501D01*
X161555033Y-115196585D01*
X162295652Y-115239460D01*
X162558084Y-115243261D01*
X163231322Y-115257771D01*
X163669495Y-115310889D01*
X163891424Y-115433587D01*
X163915927Y-115656837D01*
X163761826Y-116011613D01*
X163447939Y-116528885D01*
X163392278Y-116616093D01*
X162973973Y-117315303D01*
X162715915Y-117868632D01*
X162605562Y-118316374D01*
X162630375Y-118698822D01*
X162688807Y-118876363D01*
X162908471Y-119200823D01*
X163290741Y-119578778D01*
X163768107Y-119956201D01*
X164273056Y-120279061D01*
X164686537Y-120475112D01*
X165351189Y-120616557D01*
X166129068Y-120618901D01*
X166926259Y-120490037D01*
X167648845Y-120237857D01*
X167678197Y-120223689D01*
X168585634Y-119642571D01*
X169380211Y-118857808D01*
X170034953Y-117904797D01*
X170522882Y-116818931D01*
X170685671Y-116277604D01*
X170832894Y-115473547D01*
X170921950Y-114489661D01*
X170954758Y-113392819D01*
X170933236Y-112249893D01*
X170859303Y-111127755D01*
X170734876Y-110093279D01*
X170561874Y-109213336D01*
X170474101Y-108902500D01*
X170169824Y-108095182D01*
X169790725Y-107397491D01*
X169303934Y-106774756D01*
X168676586Y-106192310D01*
X167875813Y-105615482D01*
X166868748Y-105009605D01*
X166687500Y-104908329D01*
X166275224Y-104669851D01*
X165724064Y-104337161D01*
X165107591Y-103955257D01*
X164528500Y-103587874D01*
X163934006Y-103225395D01*
X163292340Y-102867272D01*
X162644584Y-102532654D01*
X162031821Y-102240691D01*
X161495132Y-102010530D01*
X161075599Y-101861322D01*
X160814305Y-101812214D01*
X160757034Y-101829939D01*
X160685461Y-101962201D01*
X160533774Y-102281356D01*
X160319960Y-102746736D01*
X160062004Y-103317672D01*
X159777894Y-103953497D01*
X159485614Y-104613543D01*
X159203152Y-105257143D01*
X158948493Y-105843627D01*
X158739623Y-106332329D01*
X158594530Y-106682581D01*
X158531198Y-106853714D01*
X158530618Y-106864013D01*
X155145953Y-106864013D01*
X154130745Y-106710267D01*
X152744546Y-106648463D01*
X152154465Y-106652834D01*
X151663096Y-106665760D01*
X151322702Y-106685227D01*
X151186185Y-106708481D01*
X151209091Y-106834844D01*
X151286351Y-107191386D01*
X151413986Y-107761076D01*
X151588017Y-108526881D01*
X151804467Y-109471769D01*
X152059356Y-110578709D01*
X152348707Y-111830667D01*
X152668541Y-113210613D01*
X153014880Y-114701515D01*
X153383745Y-116286339D01*
X153771159Y-117948055D01*
X154173142Y-119669630D01*
X154585717Y-121434033D01*
X155004905Y-123224230D01*
X155426727Y-125023191D01*
X155847206Y-126813883D01*
X156262363Y-128579275D01*
X156668220Y-130302333D01*
X157060798Y-131966027D01*
X157436119Y-133553324D01*
X157790205Y-135047193D01*
X158119077Y-136430600D01*
X158418757Y-137686515D01*
X158553010Y-138247174D01*
X158636929Y-138395991D01*
X158840163Y-138519846D01*
X159211423Y-138641551D01*
X159603627Y-138739139D01*
X160567883Y-138996501D01*
X161506217Y-139306561D01*
X162350358Y-139643783D01*
X163032037Y-139982632D01*
X163200424Y-140084480D01*
X163705146Y-140483917D01*
X164199904Y-141004038D01*
X164624729Y-141570306D01*
X164919655Y-142108183D01*
X164991039Y-142310137D01*
X165027133Y-142897444D01*
X164838737Y-143502564D01*
X164445999Y-144074986D01*
X164186544Y-144326969D01*
X163671283Y-144649585D01*
X162926300Y-144929426D01*
X161944874Y-145168421D01*
X160720287Y-145368495D01*
X160419008Y-145407303D01*
X159720153Y-145473032D01*
X158815992Y-145526459D01*
X157754963Y-145566728D01*
X156585500Y-145592984D01*
X155356041Y-145604369D01*
X154115021Y-145600029D01*
X152910878Y-145579106D01*
X152114570Y-145554086D01*
X149733641Y-145463135D01*
X149335966Y-145089817D01*
X148740904Y-144455154D01*
X148372711Y-143873844D01*
X148216675Y-143320785D01*
X148209000Y-143167138D01*
X148216334Y-143091308D01*
X148971000Y-143091308D01*
X149046894Y-143328370D01*
X149244365Y-143675552D01*
X149478177Y-144001819D01*
X149985354Y-144643446D01*
X151160927Y-144692496D01*
X151596192Y-144704251D01*
X152240258Y-144713035D01*
X153047941Y-144718656D01*
X153974056Y-144720923D01*
X154973420Y-144719644D01*
X156000849Y-144714630D01*
X156146500Y-144713603D01*
X157383002Y-144700873D01*
X158398595Y-144681536D01*
X159226319Y-144653993D01*
X159899215Y-144616645D01*
X160450324Y-144567893D01*
X160912686Y-144506138D01*
X161099500Y-144473883D01*
X161679530Y-144361830D01*
X162226950Y-144248193D01*
X162648648Y-144152543D01*
X162745895Y-144127849D01*
X163130058Y-143958621D01*
X163532006Y-143678585D01*
X163888136Y-143345918D01*
X164134842Y-143018794D01*
X164211000Y-142787805D01*
X164119700Y-142452836D01*
X163877189Y-142023974D01*
X163530547Y-141566060D01*
X163126854Y-141143933D01*
X162852381Y-140916684D01*
X162161897Y-140504339D01*
X161243810Y-140113821D01*
X160088050Y-139741206D01*
X159283745Y-139526456D01*
X158760786Y-139386829D01*
X158329921Y-139255645D01*
X158052018Y-139152245D01*
X157986396Y-139114196D01*
X157910370Y-138948257D01*
X157796698Y-138591666D01*
X157662524Y-138101789D01*
X157560625Y-137689359D01*
X157428036Y-137145851D01*
X157311589Y-136700503D01*
X157225936Y-136407525D01*
X157190525Y-136320192D01*
X157059794Y-136343077D01*
X156748122Y-136442746D01*
X156309149Y-136598580D01*
X155796515Y-136789959D01*
X155263860Y-136996262D01*
X154764824Y-137196871D01*
X154353049Y-137371166D01*
X154082173Y-137498527D01*
X154011261Y-137542323D01*
X153987643Y-137702987D01*
X154027453Y-138033224D01*
X154113601Y-138426532D01*
X154216825Y-138899496D01*
X154275875Y-139321030D01*
X154280340Y-139555193D01*
X154234064Y-139750896D01*
X154109424Y-139863775D01*
X153841061Y-139930426D01*
X153543000Y-139968029D01*
X153014767Y-140078803D01*
X152403874Y-140313178D01*
X151701537Y-140666529D01*
X151088332Y-141035215D01*
X150487055Y-141459521D01*
X149936718Y-141904801D01*
X149476332Y-142336415D01*
X149144909Y-142719717D01*
X148981462Y-143020064D01*
X148971000Y-143091308D01*
X148216334Y-143091308D01*
X148257317Y-142667566D01*
X148424797Y-142227960D01*
X148745228Y-141788415D01*
X149252402Y-141289030D01*
X149284707Y-141260133D01*
X149778114Y-140872208D01*
X150416156Y-140443979D01*
X151126813Y-140017033D01*
X151838064Y-139632953D01*
X152477886Y-139333324D01*
X152876250Y-139186416D01*
X153200589Y-139084546D01*
X153393077Y-139014910D01*
X153416000Y-139001279D01*
X153371269Y-138828670D01*
X153255928Y-138495825D01*
X153098254Y-138076469D01*
X152926526Y-137644327D01*
X152769019Y-137273124D01*
X152683070Y-137090390D01*
X152451085Y-136725233D01*
X152083689Y-136244979D01*
X151631879Y-135707069D01*
X151146651Y-135168942D01*
X151062405Y-135082308D01*
X152416552Y-135082308D01*
X152462509Y-135188731D01*
X152615425Y-135429675D01*
X152827739Y-135738061D01*
X153051897Y-136046814D01*
X153240339Y-136288855D01*
X153345509Y-136397110D01*
X153349376Y-136398000D01*
X153474940Y-136353959D01*
X153792742Y-136233112D01*
X154258944Y-136052368D01*
X154829706Y-135828638D01*
X155021310Y-135753082D01*
X155624767Y-135510259D01*
X156144743Y-135292510D01*
X156534443Y-135120067D01*
X156747074Y-135013160D01*
X156768512Y-134997720D01*
X156797519Y-134837563D01*
X156777365Y-134523850D01*
X156722053Y-134137414D01*
X156645584Y-133759090D01*
X156561962Y-133469714D01*
X156485190Y-133350119D01*
X156483084Y-133350000D01*
X156353504Y-133397210D01*
X156037646Y-133525563D01*
X155582261Y-133715143D01*
X155034101Y-133946034D01*
X154439918Y-134198320D01*
X153846464Y-134452086D01*
X153300490Y-134687415D01*
X152848749Y-134884392D01*
X152537992Y-135023101D01*
X152416552Y-135082308D01*
X151062405Y-135082308D01*
X150679000Y-134688038D01*
X150279922Y-134321798D01*
X150108097Y-134190026D01*
X149694749Y-133955878D01*
X149261500Y-133776354D01*
X149197847Y-133757242D01*
X148950585Y-133707079D01*
X148709538Y-133717500D01*
X148408715Y-133804256D01*
X147982127Y-133983100D01*
X147689718Y-134117245D01*
X146812356Y-134467108D01*
X146026457Y-134665565D01*
X145856302Y-134688529D01*
X145075740Y-134719834D01*
X144076470Y-134673262D01*
X142880724Y-134551339D01*
X141510729Y-134356594D01*
X139988717Y-134091555D01*
X139128500Y-133923545D01*
X137588225Y-133631508D01*
X135964832Y-133358847D01*
X134313479Y-133112787D01*
X132689329Y-132900551D01*
X131147539Y-132729362D01*
X129743272Y-132606443D01*
X128564652Y-132540163D01*
X126636804Y-132471822D01*
X126564429Y-132815661D01*
X126486834Y-133217897D01*
X126384730Y-133795154D01*
X126266588Y-134494272D01*
X126140877Y-135262091D01*
X126016066Y-136045452D01*
X125900626Y-136791195D01*
X125803025Y-137446161D01*
X125731735Y-137957190D01*
X125695223Y-138271123D01*
X125695213Y-138271250D01*
X125679220Y-138642922D01*
X125696869Y-138884964D01*
X125725852Y-138938000D01*
X125984969Y-138970831D01*
X126416085Y-139057443D01*
X126947498Y-139180007D01*
X127507510Y-139320698D01*
X128024421Y-139461689D01*
X128426530Y-139585153D01*
X128607296Y-139654406D01*
X129004916Y-139929306D01*
X129252516Y-140325052D01*
X129363365Y-140877341D01*
X129350734Y-141621871D01*
X129348519Y-141648342D01*
X129220591Y-142691099D01*
X129033136Y-143558875D01*
X128793012Y-144231898D01*
X128507077Y-144690395D01*
X128220151Y-144901809D01*
X127762672Y-145024128D01*
X127095850Y-145132748D01*
X126264072Y-145225702D01*
X125311723Y-145301021D01*
X124283190Y-145356739D01*
X123222858Y-145390888D01*
X122175115Y-145401500D01*
X121184345Y-145386607D01*
X120294936Y-145344242D01*
X119630668Y-145282590D01*
X118832045Y-145166467D01*
X118054481Y-145021254D01*
X117346924Y-144859035D01*
X116758321Y-144691896D01*
X116337621Y-144531920D01*
X116165068Y-144426975D01*
X115936685Y-144140127D01*
X115668258Y-143682888D01*
X115394651Y-143127568D01*
X115150731Y-142546480D01*
X114971361Y-142011933D01*
X114937647Y-141881273D01*
X114852745Y-141329310D01*
X114831898Y-140866829D01*
X115643246Y-140866829D01*
X115736788Y-141524488D01*
X115978631Y-142294977D01*
X116270494Y-142960559D01*
X116717295Y-143871618D01*
X117572397Y-144065916D01*
X118442422Y-144241738D01*
X119435987Y-144407550D01*
X120422873Y-144542246D01*
X120713500Y-144575064D01*
X121170819Y-144600377D01*
X121822574Y-144605579D01*
X122610193Y-144592998D01*
X123475105Y-144564965D01*
X124358738Y-144523809D01*
X125202521Y-144471862D01*
X125947883Y-144411452D01*
X126536252Y-144344910D01*
X126550774Y-144342857D01*
X127208647Y-144235143D01*
X127648344Y-144127172D01*
X127905496Y-144008803D01*
X127982121Y-143935467D01*
X128210893Y-143455608D01*
X128365247Y-142754837D01*
X128440530Y-141856469D01*
X128446387Y-141608713D01*
X128449307Y-141083898D01*
X128431164Y-140754705D01*
X128376872Y-140562829D01*
X128271348Y-140449962D01*
X128126068Y-140370636D01*
X127857330Y-140274636D01*
X127413486Y-140151574D01*
X126869067Y-140021249D01*
X126565486Y-139956054D01*
X125871205Y-139812079D01*
X125388174Y-139689153D01*
X125080517Y-139549633D01*
X124912358Y-139355876D01*
X124847822Y-139070238D01*
X124851032Y-138655078D01*
X124879341Y-138186852D01*
X124954312Y-136956246D01*
X122449583Y-136232623D01*
X121691949Y-136014753D01*
X121018984Y-135823158D01*
X120468169Y-135668353D01*
X120076985Y-135560848D01*
X119882913Y-135511157D01*
X119869628Y-135509000D01*
X119825877Y-135625425D01*
X119779459Y-135932944D01*
X119739445Y-136368924D01*
X119734533Y-136441891D01*
X119604153Y-137304341D01*
X119319765Y-138015464D01*
X118859266Y-138600428D01*
X118200557Y-139084397D01*
X117321536Y-139492535D01*
X116934801Y-139629777D01*
X116398653Y-139816825D01*
X116055304Y-139966723D01*
X115852852Y-140110408D01*
X115739394Y-140278821D01*
X115706659Y-140361879D01*
X115643246Y-140866829D01*
X114831898Y-140866829D01*
X114825775Y-140730994D01*
X114835339Y-140515046D01*
X114917147Y-140018311D01*
X115094636Y-139640195D01*
X115407432Y-139342129D01*
X115895161Y-139085546D01*
X116548397Y-138847766D01*
X117472622Y-138475415D01*
X118161903Y-138038161D01*
X118610458Y-137539855D01*
X118670201Y-137434320D01*
X118743113Y-137187222D01*
X118823000Y-136742147D01*
X118901707Y-136154663D01*
X118971079Y-135480343D01*
X118989998Y-135255000D01*
X119038218Y-134677123D01*
X119081833Y-134181712D01*
X119925088Y-134181712D01*
X119927366Y-134190574D01*
X120050870Y-134230409D01*
X120382650Y-134329956D01*
X120886888Y-134478672D01*
X121527771Y-134666014D01*
X122269483Y-134881439D01*
X122555000Y-134964043D01*
X125158500Y-135716506D01*
X125253393Y-135390503D01*
X125314530Y-135073521D01*
X125364070Y-134631008D01*
X125380393Y-134383117D01*
X125412500Y-133701735D01*
X122936000Y-132958114D01*
X122173918Y-132732011D01*
X121486521Y-132533218D01*
X120913879Y-132372908D01*
X120496062Y-132262253D01*
X120273142Y-132212427D01*
X120255580Y-132210746D01*
X120145661Y-132257710D01*
X120069276Y-132433717D01*
X120013493Y-132784220D01*
X119977447Y-133188283D01*
X119945292Y-133653994D01*
X119926796Y-134006009D01*
X119925088Y-134181712D01*
X119081833Y-134181712D01*
X119107295Y-133892509D01*
X119192986Y-132947177D01*
X119291048Y-131887146D01*
X119386415Y-130873500D01*
X120240907Y-130873500D01*
X122763203Y-131614306D01*
X123536327Y-131838993D01*
X124237775Y-132038361D01*
X124826968Y-132201236D01*
X125263331Y-132316448D01*
X125506286Y-132372823D01*
X125530703Y-132376306D01*
X125758201Y-132289388D01*
X125855274Y-132080000D01*
X125934641Y-131762500D01*
X128467570Y-131788548D01*
X130283627Y-131854585D01*
X132270210Y-132012522D01*
X134364110Y-132254847D01*
X136502117Y-132574045D01*
X138621020Y-132962605D01*
X139001500Y-133040579D01*
X140410891Y-133323229D01*
X141617921Y-133539492D01*
X142663798Y-133695012D01*
X143589734Y-133795435D01*
X144436937Y-133846406D01*
X144951786Y-133855673D01*
X145546092Y-133850832D01*
X145979016Y-133820322D01*
X146343114Y-133744103D01*
X146730943Y-133602133D01*
X147235057Y-133374370D01*
X147287116Y-133350000D01*
X147812171Y-133123880D01*
X148297954Y-132949535D01*
X148668017Y-132853059D01*
X148775456Y-132842000D01*
X149424126Y-132938474D01*
X150109333Y-133198449D01*
X150721367Y-133577757D01*
X150832119Y-133670018D01*
X151126785Y-133916998D01*
X151344907Y-134075635D01*
X151410314Y-134106713D01*
X151549615Y-134060273D01*
X151884501Y-133927781D01*
X152377688Y-133724616D01*
X152991892Y-133466156D01*
X153689827Y-133167779D01*
X153759814Y-133137622D01*
X154465494Y-132831349D01*
X155091338Y-132555961D01*
X155599721Y-132328320D01*
X155953020Y-132165289D01*
X156113611Y-132083732D01*
X156117207Y-132081064D01*
X156102201Y-131950285D01*
X156034077Y-131596858D01*
X155918495Y-131045241D01*
X155761113Y-130319893D01*
X155567589Y-129445271D01*
X155343581Y-128445834D01*
X155094748Y-127346040D01*
X154826748Y-126170347D01*
X154545239Y-124943214D01*
X154255879Y-123689099D01*
X153964328Y-122432459D01*
X153676242Y-121197754D01*
X153397281Y-120009441D01*
X153133102Y-118891978D01*
X152889365Y-117869825D01*
X152671726Y-116967438D01*
X152485845Y-116209277D01*
X152337380Y-115619799D01*
X152231989Y-115223462D01*
X152176509Y-115047212D01*
X152129588Y-114997302D01*
X152027940Y-114970333D01*
X151847659Y-114970131D01*
X151564843Y-115000520D01*
X151155585Y-115065324D01*
X150595982Y-115168366D01*
X149862129Y-115313472D01*
X148930121Y-115504465D01*
X147776055Y-115745169D01*
X147654993Y-115770552D01*
X146630862Y-115986477D01*
X145687533Y-116187525D01*
X144853345Y-116367490D01*
X144156641Y-116520166D01*
X143625761Y-116639346D01*
X143289048Y-116718825D01*
X143175071Y-116751595D01*
X143132693Y-116886395D01*
X143046245Y-117229976D01*
X142925066Y-117742798D01*
X142778494Y-118385323D01*
X142615870Y-119118009D01*
X142612568Y-119133079D01*
X142444410Y-119877171D01*
X142284600Y-120540897D01*
X142144084Y-121082083D01*
X142033807Y-121458554D01*
X141965190Y-121627573D01*
X141748621Y-121744419D01*
X141430699Y-121790031D01*
X141217199Y-121767712D01*
X140793897Y-121706072D01*
X140193492Y-121610898D01*
X139448682Y-121487974D01*
X138592166Y-121343088D01*
X137656645Y-121182026D01*
X136674816Y-121010573D01*
X135679380Y-120834515D01*
X134703034Y-120659639D01*
X133778478Y-120491731D01*
X132938412Y-120336577D01*
X132215533Y-120199962D01*
X131642542Y-120087673D01*
X131252138Y-120005497D01*
X131077019Y-119959218D01*
X131073423Y-119957323D01*
X130972665Y-119751779D01*
X130943673Y-119306959D01*
X130986450Y-118627240D01*
X131072517Y-117916040D01*
X131130135Y-117448229D01*
X131160561Y-117087594D01*
X131158685Y-116899041D01*
X131153518Y-116887185D01*
X131023378Y-116908054D01*
X130674732Y-116990454D01*
X130133692Y-117127530D01*
X129426374Y-117312426D01*
X128578891Y-117538286D01*
X127617356Y-117798254D01*
X126567885Y-118085475D01*
X126146955Y-118201584D01*
X121194909Y-119570500D01*
X121114749Y-121031000D01*
X121079158Y-121575287D01*
X121022425Y-122316524D01*
X120949261Y-123198979D01*
X120864378Y-124166920D01*
X120772487Y-125164615D01*
X120712128Y-125793500D01*
X120620349Y-126738276D01*
X120532712Y-127649599D01*
X120453582Y-128481379D01*
X120387323Y-129187524D01*
X120338300Y-129721943D01*
X120315288Y-129984500D01*
X120240907Y-130873500D01*
X119386415Y-130873500D01*
X119397241Y-130758435D01*
X119507320Y-129607065D01*
X119575370Y-128905000D01*
X119688797Y-127734943D01*
X119804005Y-126534830D01*
X119916168Y-125355741D01*
X120020463Y-124248757D01*
X120112066Y-123264959D01*
X120186153Y-122455427D01*
X120217021Y-122110500D01*
X120314325Y-120806895D01*
X120388079Y-119391860D01*
X120438356Y-117908132D01*
X120444601Y-117557318D01*
X121301750Y-117557318D01*
X121310063Y-117975713D01*
X121326173Y-118206057D01*
X121336987Y-118237000D01*
X121468889Y-118203953D01*
X121819964Y-118109488D01*
X122364776Y-117960615D01*
X123077890Y-117764346D01*
X123933871Y-117527692D01*
X124907281Y-117257664D01*
X125972687Y-116961273D01*
X126635477Y-116776500D01*
X127747779Y-116467219D01*
X128787057Y-116180261D01*
X129727230Y-115922677D01*
X130542218Y-115701523D01*
X131205938Y-115523851D01*
X131692309Y-115396715D01*
X131975252Y-115327170D01*
X132035725Y-115316000D01*
X132221455Y-115413534D01*
X132381390Y-115601750D01*
X132455752Y-115756982D01*
X132492796Y-115961342D01*
X132492364Y-116264985D01*
X132454300Y-116718063D01*
X132378446Y-117370731D01*
X132375776Y-117392374D01*
X132306965Y-117979422D01*
X132256852Y-118466589D01*
X132230152Y-118803283D01*
X132231580Y-118938911D01*
X132231650Y-118938984D01*
X132358484Y-118967727D01*
X132700545Y-119034553D01*
X133222974Y-119133149D01*
X133890906Y-119257204D01*
X134669482Y-119400406D01*
X135523839Y-119556443D01*
X136419114Y-119719004D01*
X137320447Y-119881775D01*
X138192975Y-120038447D01*
X139001836Y-120182707D01*
X139712169Y-120308242D01*
X140289111Y-120408742D01*
X140697801Y-120477895D01*
X140903377Y-120509389D01*
X140908561Y-120509950D01*
X140974831Y-120396237D01*
X141081460Y-120072103D01*
X141217884Y-119575973D01*
X141373538Y-118946270D01*
X141537859Y-118221416D01*
X141538246Y-118219636D01*
X141704819Y-117480949D01*
X141864303Y-116824197D01*
X142005559Y-116291469D01*
X142117447Y-115924855D01*
X142187086Y-115768056D01*
X142341052Y-115709632D01*
X142715808Y-115607124D01*
X143283238Y-115467082D01*
X144015231Y-115296052D01*
X144883672Y-115100581D01*
X145860448Y-114887218D01*
X146917444Y-114662510D01*
X147081901Y-114628078D01*
X148141742Y-114406303D01*
X149120271Y-114200909D01*
X149990387Y-114017631D01*
X150724993Y-113862205D01*
X151296991Y-113740368D01*
X151679282Y-113657856D01*
X151844767Y-113620404D01*
X151849420Y-113618908D01*
X151832147Y-113496772D01*
X151767532Y-113188796D01*
X151668526Y-112755880D01*
X151643195Y-112649000D01*
X151518532Y-112162931D01*
X151415202Y-111878627D01*
X151307858Y-111748179D01*
X151171152Y-111723678D01*
X151154466Y-111725257D01*
X150973813Y-111759393D01*
X150575148Y-111843847D01*
X149988009Y-111972071D01*
X149241935Y-112137513D01*
X148366465Y-112333624D01*
X147391139Y-112553855D01*
X146362489Y-112787778D01*
X145183740Y-113056276D01*
X144227718Y-113272002D01*
X143469612Y-113439113D01*
X142884612Y-113561769D01*
X142447906Y-113644126D01*
X142134683Y-113690344D01*
X141920134Y-113704579D01*
X141779447Y-113690992D01*
X141687811Y-113653739D01*
X141620416Y-113596978D01*
X141608482Y-113584521D01*
X141499700Y-113386477D01*
X141382935Y-113004552D01*
X141253453Y-112418815D01*
X141106521Y-111609339D01*
X141031832Y-111156750D01*
X140894662Y-110333557D01*
X140782646Y-109733167D01*
X140688509Y-109326465D01*
X140604975Y-109084331D01*
X140524769Y-108977649D01*
X140484429Y-108966000D01*
X140317975Y-108978214D01*
X139936889Y-109012347D01*
X139379237Y-109064635D01*
X138683083Y-109131316D01*
X137886494Y-109208626D01*
X137027536Y-109292800D01*
X136144274Y-109380076D01*
X135274775Y-109466690D01*
X134457104Y-109548878D01*
X133729326Y-109622878D01*
X133129508Y-109684925D01*
X132695716Y-109731255D01*
X132466014Y-109758107D01*
X132451817Y-109760174D01*
X132374667Y-109797468D01*
X132336799Y-109905418D01*
X132340600Y-110123308D01*
X132388460Y-110490417D01*
X132482768Y-111046028D01*
X132553882Y-111438452D01*
X132691691Y-112243294D01*
X132765858Y-112834840D01*
X132774551Y-113246159D01*
X132715936Y-113510318D01*
X132588182Y-113660388D01*
X132427315Y-113722208D01*
X132240830Y-113742220D01*
X131829745Y-113773305D01*
X131223138Y-113813677D01*
X130450084Y-113861548D01*
X129539659Y-113915132D01*
X128520938Y-113972640D01*
X127422998Y-114032287D01*
X127127000Y-114047985D01*
X126008400Y-114107924D01*
X124957345Y-114165996D01*
X124003638Y-114220422D01*
X123177080Y-114269427D01*
X122507475Y-114311235D01*
X122024625Y-114344068D01*
X121758332Y-114366151D01*
X121729500Y-114369721D01*
X121348500Y-114426759D01*
X121310913Y-116331879D01*
X121301833Y-116994748D01*
X121301750Y-117557318D01*
X120444601Y-117557318D01*
X120465232Y-116398451D01*
X120468781Y-114905555D01*
X120449076Y-113472183D01*
X120406194Y-112141073D01*
X120340206Y-110954964D01*
X120251189Y-109956595D01*
X120195134Y-109521146D01*
X120117777Y-108996793D01*
X118706468Y-108715604D01*
X117606371Y-108515061D01*
X116705739Y-108395502D01*
X115964022Y-108354796D01*
X115340668Y-108390811D01*
X114795129Y-108501415D01*
X114769938Y-108508640D01*
X114467269Y-108597387D01*
X114255234Y-108686494D01*
X114123927Y-108816623D01*
X114063442Y-109028440D01*
X114063875Y-109362608D01*
X114115318Y-109859792D01*
X114207867Y-110560655D01*
X114229962Y-110725289D01*
X114316768Y-111735216D01*
X114276681Y-112535096D01*
X114107943Y-113135915D01*
X113808798Y-113548663D01*
X113773637Y-113578406D01*
X113379657Y-113746231D01*
X112888115Y-113737362D01*
X112376773Y-113558893D01*
X112170783Y-113432207D01*
X111807673Y-113173650D01*
X111901565Y-113832075D01*
X111962081Y-114425456D01*
X111994347Y-115106938D01*
X111998659Y-115800849D01*
X111975309Y-116431521D01*
X111924591Y-116923283D01*
X111888902Y-117094000D01*
X111610104Y-117686124D01*
X111144472Y-118237482D01*
X110557137Y-118675208D01*
X110402940Y-118756404D01*
X109704381Y-118978330D01*
X108886026Y-119051768D01*
X108037116Y-118972519D01*
X107666250Y-118885162D01*
X107363699Y-118783092D01*
X107130387Y-118646374D01*
X106911948Y-118424236D01*
X106654012Y-118065907D01*
X106445112Y-117744805D01*
X105889823Y-116849079D01*
X105465360Y-116082502D01*
X105144782Y-115375161D01*
X104901148Y-114657146D01*
X104707517Y-113858542D01*
X104536947Y-112909438D01*
X104505881Y-112712500D01*
X104316276Y-111070680D01*
X104254734Y-109454239D01*
X104271206Y-109026276D01*
X105075868Y-109026276D01*
X105096294Y-110362834D01*
X105200474Y-111730192D01*
X105381308Y-113040363D01*
X105631696Y-114205361D01*
X105675198Y-114363500D01*
X105867683Y-114906612D01*
X106146876Y-115523534D01*
X106483873Y-116166397D01*
X106849772Y-116787333D01*
X107215671Y-117338474D01*
X107552668Y-117771952D01*
X107831860Y-118039898D01*
X107926516Y-118092145D01*
X108455578Y-118203233D01*
X109072017Y-118214085D01*
X109651565Y-118128549D01*
X109935461Y-118029939D01*
X110299238Y-117794127D01*
X110661653Y-117465096D01*
X110741894Y-117373900D01*
X110969866Y-117030833D01*
X111120657Y-116625398D01*
X111197776Y-116118829D01*
X111204734Y-115472359D01*
X111145040Y-114647223D01*
X111057986Y-113882589D01*
X110983463Y-113234065D01*
X110931177Y-112666280D01*
X110905013Y-112231682D01*
X110908858Y-111982716D01*
X110915184Y-111955040D01*
X111091484Y-111779913D01*
X111396225Y-111810207D01*
X111814707Y-112041520D01*
X112184008Y-112335161D01*
X112621888Y-112683080D01*
X112960810Y-112860192D01*
X113206962Y-112854860D01*
X113366530Y-112655444D01*
X113445700Y-112250307D01*
X113450658Y-111627810D01*
X113387590Y-110776315D01*
X113324268Y-110189982D01*
X113235913Y-109423721D01*
X113186269Y-108869286D01*
X113189082Y-108485732D01*
X113258098Y-108232116D01*
X113407064Y-108067492D01*
X113649726Y-107950916D01*
X113999830Y-107841445D01*
X114125078Y-107804691D01*
X114479459Y-107676990D01*
X114630602Y-107547521D01*
X114634797Y-107406036D01*
X114572428Y-107230782D01*
X114427138Y-106853523D01*
X114212059Y-106307388D01*
X113940328Y-105625508D01*
X113625078Y-104841014D01*
X113279444Y-103987036D01*
X113274590Y-103975085D01*
X111974626Y-100774500D01*
X111327563Y-100752543D01*
X110858810Y-100736419D01*
X110269364Y-100715851D01*
X109728000Y-100696748D01*
X109158693Y-100694212D01*
X108746732Y-100744819D01*
X108398350Y-100863500D01*
X108261791Y-100930251D01*
X107536424Y-101446680D01*
X106890170Y-102193001D01*
X106329087Y-103155839D01*
X105859232Y-104321821D01*
X105486664Y-105677570D01*
X105217442Y-107209712D01*
X105146294Y-107808502D01*
X105075868Y-109026276D01*
X104271206Y-109026276D01*
X104315057Y-107887050D01*
X104491049Y-106392991D01*
X104776509Y-104995937D01*
X105165241Y-103719764D01*
X105651046Y-102588347D01*
X106227725Y-101625563D01*
X106889081Y-100855287D01*
X107374443Y-100491910D01*
X113255306Y-100491910D01*
X113310787Y-100657490D01*
X113449899Y-101025829D01*
X113659940Y-101564664D01*
X113928209Y-102241729D01*
X114242005Y-103024760D01*
X114588627Y-103881494D01*
X114620556Y-103960022D01*
X114967849Y-104819720D01*
X115281332Y-105607011D01*
X115548676Y-106290013D01*
X115757547Y-106836843D01*
X115895617Y-107215619D01*
X115950552Y-107394460D01*
X115951000Y-107399956D01*
X116048878Y-107510700D01*
X116358982Y-107566649D01*
X116617750Y-107576318D01*
X117124766Y-107602253D01*
X117624150Y-107659099D01*
X117792500Y-107688714D01*
X118132761Y-107758328D01*
X118357622Y-107802929D01*
X118387512Y-107808395D01*
X118368961Y-107696738D01*
X118276024Y-107373171D01*
X118117716Y-106865702D01*
X117903052Y-106202338D01*
X117641047Y-105411086D01*
X117340717Y-104519955D01*
X117135163Y-103917750D01*
X116808468Y-102964138D01*
X116506644Y-102081123D01*
X116240023Y-101299084D01*
X116018935Y-100648399D01*
X115853711Y-100159447D01*
X115754680Y-99862607D01*
X115731588Y-99790250D01*
X115676171Y-99658948D01*
X115574934Y-99594246D01*
X115383978Y-99600452D01*
X115059402Y-99681875D01*
X114557305Y-99842826D01*
X114294255Y-99931343D01*
X113739913Y-100133759D01*
X113405517Y-100295142D01*
X113263273Y-100430490D01*
X113255306Y-100491910D01*
X107374443Y-100491910D01*
X107628916Y-100301394D01*
X107743834Y-100239695D01*
X108368746Y-100013109D01*
X109134297Y-99872223D01*
X109938433Y-99827809D01*
X110679095Y-99890641D01*
X110807500Y-99916322D01*
X111024483Y-99950164D01*
X111263448Y-99946824D01*
X111567379Y-99896813D01*
X111979263Y-99790646D01*
X112542088Y-99618836D01*
X113298838Y-99371895D01*
X113347500Y-99355759D01*
X113852066Y-99187000D01*
X116925206Y-99187000D01*
X116950341Y-99317599D01*
X117049791Y-99660590D01*
X117214652Y-100188384D01*
X117436022Y-100873392D01*
X117704998Y-101688025D01*
X118012676Y-102604694D01*
X118311807Y-103483877D01*
X118649070Y-104473544D01*
X118958529Y-105390196D01*
X119230798Y-106205372D01*
X119456494Y-106890610D01*
X119626233Y-107417450D01*
X119730629Y-107757432D01*
X119761000Y-107879083D01*
X119873093Y-108001692D01*
X120154979Y-108118676D01*
X120295650Y-108154205D01*
X120507686Y-108205323D01*
X120671351Y-108278682D01*
X120796074Y-108406458D01*
X120891288Y-108620828D01*
X120966423Y-108953968D01*
X121030909Y-109438053D01*
X121094177Y-110105260D01*
X121165659Y-110987766D01*
X121180117Y-111171855D01*
X121338232Y-113187210D01*
X122232366Y-113114030D01*
X122582633Y-113089091D01*
X123147111Y-113053450D01*
X123886346Y-113009394D01*
X124760879Y-112959208D01*
X125731256Y-112905181D01*
X126758020Y-112849598D01*
X127190500Y-112826661D01*
X128183220Y-112771515D01*
X129095101Y-112715446D01*
X129895030Y-112660790D01*
X130551892Y-112609885D01*
X131034577Y-112565070D01*
X131311969Y-112528680D01*
X131365939Y-112512946D01*
X131389217Y-112353116D01*
X131364308Y-111993827D01*
X131296225Y-111483989D01*
X131207189Y-110963622D01*
X131067726Y-110190036D01*
X130981800Y-109627310D01*
X130949670Y-109237956D01*
X130971597Y-108984485D01*
X131047839Y-108829407D01*
X131178656Y-108735233D01*
X131222750Y-108715640D01*
X131402097Y-108680343D01*
X131800030Y-108625173D01*
X132382215Y-108553649D01*
X133114319Y-108469294D01*
X133962007Y-108375629D01*
X134890946Y-108276176D01*
X135866800Y-108174454D01*
X136855237Y-108073988D01*
X137821922Y-107978296D01*
X138732521Y-107890902D01*
X139552701Y-107815326D01*
X140248127Y-107755090D01*
X140784466Y-107713715D01*
X141127382Y-107694723D01*
X141184754Y-107693899D01*
X141493272Y-107736336D01*
X141676341Y-107835850D01*
X141678422Y-107839054D01*
X141727301Y-108006522D01*
X141807223Y-108380702D01*
X141909673Y-108917406D01*
X142026136Y-109572445D01*
X142121214Y-110137018D01*
X142239554Y-110844464D01*
X142346224Y-111459402D01*
X142433701Y-111940247D01*
X142494460Y-112245411D01*
X142518866Y-112335199D01*
X142644319Y-112315727D01*
X142982883Y-112247689D01*
X143499975Y-112138762D01*
X144161012Y-111996622D01*
X144931409Y-111828945D01*
X145776584Y-111643409D01*
X146661952Y-111447689D01*
X147552930Y-111249463D01*
X148414934Y-111056405D01*
X149213382Y-110876194D01*
X149913688Y-110716504D01*
X150481271Y-110585014D01*
X150881545Y-110489398D01*
X151079928Y-110437334D01*
X151094455Y-110431697D01*
X151076280Y-110308592D01*
X151007717Y-109981597D01*
X150898290Y-109493656D01*
X150757519Y-108887713D01*
X150674222Y-108536593D01*
X150518939Y-107854091D01*
X150392421Y-107235207D01*
X150304451Y-106732954D01*
X150264814Y-106400346D01*
X150265266Y-106320882D01*
X150322841Y-106103900D01*
X150478540Y-105982590D01*
X150483224Y-105981500D01*
X155242941Y-105981500D01*
X156000625Y-106136384D01*
X156426872Y-106228032D01*
X156757705Y-106307365D01*
X156896904Y-106348608D01*
X157147093Y-106413055D01*
X157176077Y-106415973D01*
X157266259Y-106307842D01*
X157439389Y-105999710D01*
X157678732Y-105525198D01*
X157967552Y-104917927D01*
X158289113Y-104211517D01*
X158415768Y-103925540D01*
X158734722Y-103186317D01*
X159008348Y-102525755D01*
X159223123Y-101978748D01*
X159365527Y-101580192D01*
X159422038Y-101364981D01*
X159418190Y-101338542D01*
X159229651Y-101237724D01*
X158884784Y-101105676D01*
X158451884Y-100962774D01*
X157999247Y-100829392D01*
X157595167Y-100725905D01*
X157307939Y-100672688D01*
X157208749Y-100679389D01*
X157140114Y-100822157D01*
X157000352Y-101168268D01*
X156803218Y-101681667D01*
X156562466Y-102326297D01*
X156291851Y-103066104D01*
X156179259Y-103378000D01*
X155242941Y-105981500D01*
X150483224Y-105981500D01*
X150804470Y-105906748D01*
X150876000Y-105895663D01*
X151269457Y-105855241D01*
X151818000Y-105822571D01*
X152422726Y-105803057D01*
X152619322Y-105800413D01*
X153176566Y-105791148D01*
X153536928Y-105765513D01*
X153757504Y-105710487D01*
X153895391Y-105613051D01*
X153989740Y-105487904D01*
X154081838Y-105297089D01*
X154240184Y-104917212D01*
X154448452Y-104392030D01*
X154690313Y-103765301D01*
X154949441Y-103080782D01*
X155209509Y-102382229D01*
X155454188Y-101713399D01*
X155667152Y-101118050D01*
X155832074Y-100639939D01*
X155932625Y-100322822D01*
X155956000Y-100218354D01*
X155845942Y-100123642D01*
X155557695Y-99980300D01*
X155162250Y-99822610D01*
X154226204Y-99442232D01*
X153300850Y-98992313D01*
X152490783Y-98524893D01*
X152298650Y-98397818D01*
X151952276Y-98179434D01*
X151707365Y-98096772D01*
X151468042Y-98125638D01*
X151358949Y-98160702D01*
X150584203Y-98304951D01*
X149820649Y-98197769D01*
X149078674Y-97841723D01*
X148619132Y-97483711D01*
X148325880Y-97225643D01*
X148166041Y-97123674D01*
X148085963Y-97162080D01*
X148035341Y-97312620D01*
X147993754Y-97592007D01*
X147965141Y-98020390D01*
X147956734Y-98393250D01*
X147934465Y-98891761D01*
X147858530Y-99212906D01*
X147711226Y-99430756D01*
X147707998Y-99434001D01*
X147321453Y-99683378D01*
X146732049Y-99889449D01*
X145988194Y-100046058D01*
X145138296Y-100147049D01*
X144230765Y-100186266D01*
X143314009Y-100157554D01*
X142610794Y-100082169D01*
X142035395Y-99983761D01*
X141318254Y-99840338D01*
X140562765Y-99673403D01*
X140042028Y-99547936D01*
X138537788Y-99169357D01*
X136483644Y-99744208D01*
X133987983Y-100378797D01*
X131502233Y-100886940D01*
X129071356Y-101261999D01*
X126740315Y-101497336D01*
X124554074Y-101586316D01*
X124015500Y-101584665D01*
X123289686Y-101571373D01*
X122776122Y-101539753D01*
X122433063Y-101469515D01*
X122218768Y-101340368D01*
X122091491Y-101132022D01*
X122009491Y-100824187D01*
X121965543Y-100588238D01*
X121832691Y-100032410D01*
X121636554Y-99664703D01*
X121323030Y-99435307D01*
X120838016Y-99294412D01*
X120500749Y-99239681D01*
X120087439Y-99197182D01*
X119552609Y-99163752D01*
X118952202Y-99140216D01*
X118342159Y-99127399D01*
X117778424Y-99126124D01*
X117316938Y-99137216D01*
X117013643Y-99161500D01*
X116925206Y-99187000D01*
X113852066Y-99187000D01*
X114040904Y-99123841D01*
X114663974Y-98911970D01*
X115170507Y-98736127D01*
X115514302Y-98612290D01*
X115633500Y-98565056D01*
X115950230Y-98473133D01*
X116452222Y-98386174D01*
X117070743Y-98310488D01*
X117737058Y-98252381D01*
X118382432Y-98218160D01*
X118938133Y-98214133D01*
X119245438Y-98233622D01*
X120015000Y-98322939D01*
X120015000Y-95383350D01*
X119665750Y-95435218D01*
X119366138Y-95482316D01*
X118912984Y-95556444D01*
X118403101Y-95641761D01*
X118391018Y-95643807D01*
X117904662Y-95719716D01*
X117592897Y-95740976D01*
X117381087Y-95701952D01*
X117194597Y-95597005D01*
X117127854Y-95548412D01*
X116784328Y-95140833D01*
X116639869Y-94649164D01*
X117485955Y-94649164D01*
X117564801Y-94841249D01*
X117633750Y-94862935D01*
X117819887Y-94845326D01*
X118197585Y-94802538D01*
X118706455Y-94741583D01*
X119126000Y-94689652D01*
X119689942Y-94625365D01*
X120164779Y-94583197D01*
X120491141Y-94567715D01*
X120601995Y-94576066D01*
X120720155Y-94749549D01*
X120810550Y-95161697D01*
X120871473Y-95798519D01*
X120901215Y-96646019D01*
X120904000Y-97049711D01*
X120915668Y-97692640D01*
X120952670Y-98107193D01*
X121018003Y-98318009D01*
X121062750Y-98354878D01*
X121297861Y-98416951D01*
X121590091Y-98485166D01*
X122007678Y-98685700D01*
X122394257Y-99051270D01*
X122671401Y-99497375D01*
X122745645Y-99730186D01*
X122808898Y-100057045D01*
X122872644Y-100288119D01*
X122977282Y-100439909D01*
X123163211Y-100528915D01*
X123470828Y-100571637D01*
X123940532Y-100584575D01*
X124612721Y-100584230D01*
X124836102Y-100584000D01*
X125647089Y-100574207D01*
X126504677Y-100547467D01*
X127312298Y-100507730D01*
X127973386Y-100458952D01*
X128034293Y-100453076D01*
X130172387Y-100175242D01*
X132468704Y-99754814D01*
X134877847Y-99201034D01*
X136988635Y-98630004D01*
X138531771Y-98184108D01*
X140290635Y-98628244D01*
X141637502Y-98942186D01*
X142792377Y-99151421D01*
X143792990Y-99259610D01*
X144677072Y-99270418D01*
X145482351Y-99187508D01*
X145680823Y-99151574D01*
X146197296Y-99031024D01*
X146611070Y-98899069D01*
X146857056Y-98777474D01*
X146887007Y-98748239D01*
X146950354Y-98549551D01*
X147015734Y-98155745D01*
X147075095Y-97625504D01*
X147117318Y-97070120D01*
X147157459Y-96477684D01*
X147200120Y-95978800D01*
X147240056Y-95627858D01*
X147270531Y-95481297D01*
X147472422Y-95358147D01*
X147794119Y-95451516D01*
X148237955Y-95762621D01*
X148783906Y-96270069D01*
X149363247Y-96814716D01*
X149843282Y-97164410D01*
X150264346Y-97336369D01*
X150666772Y-97347812D01*
X151045426Y-97235489D01*
X151413694Y-97009191D01*
X151673049Y-96668588D01*
X151827613Y-96189520D01*
X151881506Y-95547825D01*
X151838850Y-94719343D01*
X151703767Y-93679912D01*
X151678758Y-93522627D01*
X151597015Y-92973492D01*
X151543336Y-92522656D01*
X151523482Y-92225370D01*
X151534220Y-92136446D01*
X151690289Y-92070166D01*
X152003261Y-91983517D01*
X152160211Y-91947555D01*
X152717500Y-91827368D01*
X152082500Y-91892546D01*
X151774202Y-91927006D01*
X151259105Y-91987768D01*
X150582412Y-92069359D01*
X149789327Y-92166307D01*
X148925055Y-92273140D01*
X148463000Y-92330721D01*
X146010166Y-92624382D01*
X143730216Y-92868158D01*
X141567004Y-93065314D01*
X139464388Y-93219117D01*
X137366223Y-93332833D01*
X135216366Y-93409728D01*
X132958673Y-93453067D01*
X130536999Y-93466117D01*
X129032000Y-93461075D01*
X127709099Y-93453955D01*
X126363021Y-93448398D01*
X125036328Y-93444466D01*
X123771582Y-93442220D01*
X122611347Y-93441723D01*
X121598184Y-93443036D01*
X120774657Y-93446222D01*
X120440173Y-93448597D01*
X117753847Y-93472000D01*
X117614423Y-93871951D01*
X117502116Y-94306577D01*
X117485955Y-94649164D01*
X116639869Y-94649164D01*
X116624468Y-94596747D01*
X116635044Y-94150053D01*
X116646564Y-93861630D01*
X116529955Y-93721079D01*
X116353931Y-93662447D01*
X116116739Y-93636190D01*
X115675741Y-93618212D01*
X115081025Y-93609396D01*
X114382675Y-93610621D01*
X113841894Y-93618253D01*
X112970204Y-93632608D01*
X112319996Y-93628669D01*
X111858807Y-93593479D01*
X111554175Y-93514085D01*
X111373638Y-93377530D01*
X111284734Y-93170862D01*
X111254999Y-92881124D01*
X111252000Y-92584703D01*
X111252000Y-91855507D01*
X110689221Y-91640581D01*
X110219561Y-91417044D01*
X109611964Y-91063353D01*
X108919961Y-90616250D01*
X108197084Y-90112481D01*
X107496867Y-89588789D01*
X106872840Y-89081918D01*
X106570772Y-88813702D01*
X105636045Y-87947500D01*
X105394136Y-86677500D01*
X105277301Y-86034756D01*
X105141968Y-85244480D01*
X105005554Y-84410585D01*
X104893891Y-83693000D01*
X104788587Y-83038921D01*
X104682433Y-82457030D01*
X104586502Y-82003181D01*
X104511863Y-81733227D01*
X104499797Y-81704859D01*
X104425541Y-81440515D01*
X104448123Y-81295170D01*
X104465451Y-81124436D01*
X104453604Y-80752951D01*
X104415647Y-80231910D01*
X104354645Y-79612507D01*
X104339032Y-79473310D01*
X104235555Y-78510712D01*
X104131925Y-77436018D01*
X104029745Y-76275805D01*
X103930618Y-75056650D01*
X103836148Y-73805130D01*
X103747938Y-72547821D01*
X103712926Y-72009000D01*
X104513926Y-72009000D01*
X104583580Y-72802750D01*
X104617536Y-73197959D01*
X104667020Y-73784721D01*
X104726881Y-74501433D01*
X104791967Y-75286491D01*
X104837614Y-75840503D01*
X104910483Y-76706413D01*
X104989745Y-77613321D01*
X105067923Y-78477848D01*
X105137537Y-79216614D01*
X105168326Y-79527890D01*
X105314659Y-80971273D01*
X107362579Y-80920955D01*
X108055795Y-80901490D01*
X108654428Y-80880059D01*
X109114869Y-80858594D01*
X109393513Y-80839027D01*
X109456562Y-80828172D01*
X109528429Y-80655239D01*
X109615844Y-80287055D01*
X109709222Y-79781126D01*
X109798975Y-79194956D01*
X109875519Y-78586048D01*
X109929267Y-78011906D01*
X109931685Y-77978000D01*
X109937639Y-76578250D01*
X109746464Y-75330911D01*
X109354327Y-74223607D01*
X108757393Y-73243965D01*
X108300107Y-72713108D01*
X107618124Y-72009000D01*
X104513926Y-72009000D01*
X103712926Y-72009000D01*
X103667590Y-71311301D01*
X103596710Y-70122145D01*
X103536900Y-69006932D01*
X103489763Y-67992237D01*
X103456902Y-67104638D01*
X103439922Y-66370711D01*
X103440140Y-66130733D01*
X104186015Y-66130733D01*
X104191095Y-66153347D01*
X104216049Y-66347618D01*
X104246681Y-66745384D01*
X104279783Y-67296297D01*
X104312144Y-67950006D01*
X104325537Y-68262500D01*
X104357956Y-68974813D01*
X104394112Y-69634857D01*
X104430301Y-70182896D01*
X104462814Y-70559193D01*
X104473290Y-70643750D01*
X104543326Y-71120000D01*
X108070528Y-71120000D01*
X108811642Y-71850250D01*
X109594278Y-72754688D01*
X110173685Y-73743951D01*
X110585443Y-74880889D01*
X110636251Y-75073205D01*
X110751983Y-75577150D01*
X110823800Y-76036361D01*
X110857508Y-76528301D01*
X110858911Y-77130435D01*
X110839220Y-77781997D01*
X110783523Y-78660452D01*
X110688661Y-79524451D01*
X110563847Y-80318033D01*
X110418292Y-80985238D01*
X110261211Y-81470105D01*
X110216324Y-81565750D01*
X110128260Y-81668287D01*
X109960911Y-81734175D01*
X109665879Y-81771049D01*
X109194763Y-81786545D01*
X108802781Y-81788761D01*
X108101579Y-81797861D01*
X107352505Y-81821471D01*
X106682826Y-81855174D01*
X106479786Y-81869385D01*
X105454072Y-81949248D01*
X105686711Y-83455105D01*
X105809308Y-84217559D01*
X105951032Y-85051199D01*
X106090661Y-85833041D01*
X106167172Y-86239383D01*
X106282899Y-86818294D01*
X106382798Y-87213703D01*
X106498756Y-87491584D01*
X106662662Y-87717915D01*
X106906404Y-87958669D01*
X107069494Y-88106256D01*
X107675326Y-88626209D01*
X108333694Y-89149361D01*
X109006840Y-89649936D01*
X109657003Y-90102157D01*
X110246426Y-90480246D01*
X110737350Y-90758428D01*
X111092014Y-90910925D01*
X111208770Y-90932000D01*
X111252238Y-90892661D01*
X111287961Y-90760836D01*
X111316628Y-90515814D01*
X111338927Y-90136882D01*
X111355544Y-89603328D01*
X111367167Y-88894439D01*
X111374485Y-87989504D01*
X111378184Y-86867810D01*
X111379000Y-85804050D01*
X111380435Y-84483071D01*
X111385199Y-83394952D01*
X111393978Y-82518567D01*
X111407461Y-81832788D01*
X111426335Y-81316490D01*
X111451285Y-80948546D01*
X111483001Y-80707830D01*
X111522168Y-80573215D01*
X111550432Y-80533824D01*
X111808619Y-80454266D01*
X112264517Y-80493272D01*
X112319472Y-80503192D01*
X112990551Y-80544672D01*
X113661882Y-80443965D01*
X114223045Y-80218762D01*
X114267268Y-80191109D01*
X114550465Y-79899589D01*
X114845049Y-79411195D01*
X115123795Y-78780099D01*
X115359477Y-78060475D01*
X115384047Y-77968932D01*
X115547772Y-76891863D01*
X115490043Y-75821807D01*
X115225960Y-74798040D01*
X114770625Y-73859838D01*
X114139139Y-73046477D01*
X113346603Y-72397234D01*
X113209571Y-72313381D01*
X112950309Y-72172446D01*
X112705607Y-72079598D01*
X112414511Y-72025437D01*
X112016068Y-72000564D01*
X111449323Y-71995579D01*
X111158381Y-71997073D01*
X110556377Y-71992574D01*
X110040717Y-71972622D01*
X109668470Y-71940482D01*
X109500550Y-71902225D01*
X109424883Y-71742984D01*
X109320122Y-71359041D01*
X109192183Y-70777269D01*
X109046981Y-70024540D01*
X108892616Y-69140791D01*
X108726817Y-68179167D01*
X108587862Y-67445252D01*
X108470087Y-66914842D01*
X108367828Y-66563734D01*
X108275420Y-66367725D01*
X108232873Y-66321604D01*
X107944632Y-66170377D01*
X107494528Y-66002602D01*
X106971083Y-65844422D01*
X106462821Y-65721982D01*
X106058264Y-65661425D01*
X105989303Y-65659000D01*
X105629709Y-65684633D01*
X105154157Y-65750294D01*
X104856867Y-65804097D01*
X104438784Y-65904645D01*
X104229804Y-66005845D01*
X104186015Y-66130733D01*
X103440140Y-66130733D01*
X103440425Y-65817033D01*
X103460016Y-65470181D01*
X103487721Y-65362319D01*
X103751505Y-65199213D01*
X104208059Y-65068158D01*
X104797683Y-64973373D01*
X105460675Y-64919077D01*
X106137336Y-64909490D01*
X106767965Y-64948830D01*
X107292862Y-65041317D01*
X107431063Y-65083641D01*
X107960061Y-65270282D01*
X107890850Y-64861391D01*
X107768067Y-64101282D01*
X107726139Y-63785243D01*
X109019423Y-63785243D01*
X109024436Y-63920636D01*
X109067346Y-64274592D01*
X109143460Y-64815270D01*
X109248089Y-65510830D01*
X109376543Y-66329429D01*
X109524131Y-67239227D01*
X109561553Y-67465649D01*
X110162272Y-71087467D01*
X111564386Y-71071983D01*
X112191314Y-71069276D01*
X112629778Y-71084923D01*
X112945206Y-71129967D01*
X113203030Y-71215450D01*
X113468679Y-71352413D01*
X113568073Y-71410120D01*
X114458341Y-72068014D01*
X115240620Y-72911936D01*
X115858313Y-73879169D01*
X115933367Y-74031212D01*
X116157929Y-74532039D01*
X116299333Y-74947512D01*
X116380592Y-75376815D01*
X116424717Y-75919135D01*
X116437741Y-76205209D01*
X116416390Y-77124757D01*
X116290452Y-78050103D01*
X116075543Y-78931303D01*
X115787277Y-79718411D01*
X115441273Y-80361480D01*
X115053145Y-80810567D01*
X114980240Y-80866785D01*
X114462603Y-81150290D01*
X113835787Y-81372294D01*
X113210589Y-81500295D01*
X112779027Y-81512522D01*
X112268000Y-81463787D01*
X112268000Y-83256206D01*
X112270971Y-83862598D01*
X112279355Y-84669597D01*
X112292354Y-85623886D01*
X112309169Y-86672147D01*
X112329005Y-87761064D01*
X112351063Y-88837318D01*
X112352359Y-88896663D01*
X112436719Y-92744701D01*
X116003609Y-92662246D01*
X117097084Y-92636050D01*
X118257900Y-92606636D01*
X119417347Y-92575857D01*
X120506715Y-92545565D01*
X121457294Y-92517611D01*
X121986489Y-92500976D01*
X124402479Y-92422162D01*
X122081778Y-79135831D01*
X121766515Y-77332276D01*
X121462979Y-75598463D01*
X121174077Y-73950858D01*
X120902716Y-72405929D01*
X120651806Y-70980144D01*
X120424253Y-69689970D01*
X120222967Y-68551875D01*
X120050855Y-67582326D01*
X119910825Y-66797791D01*
X119805785Y-66214737D01*
X119738644Y-65849632D01*
X119712541Y-65719459D01*
X119588512Y-65675862D01*
X120722599Y-65675862D01*
X120739970Y-65802032D01*
X120797619Y-66158666D01*
X120892130Y-66726016D01*
X121020085Y-67484331D01*
X121178066Y-68413862D01*
X121362658Y-69494861D01*
X121570441Y-70707578D01*
X121798000Y-72032265D01*
X122041916Y-73449171D01*
X122298774Y-74938548D01*
X122565154Y-76480646D01*
X122837641Y-78055717D01*
X123112817Y-79644011D01*
X123387265Y-81225779D01*
X123657567Y-82781272D01*
X123920306Y-84290741D01*
X124172066Y-85734436D01*
X124409428Y-87092609D01*
X124628976Y-88345509D01*
X124827292Y-89473389D01*
X125000960Y-90456499D01*
X125146561Y-91275089D01*
X125260679Y-91909410D01*
X125283868Y-92036770D01*
X125344434Y-92275541D01*
X125460931Y-92402689D01*
X125705039Y-92462282D01*
X126020289Y-92489527D01*
X126540162Y-92514607D01*
X127272155Y-92533797D01*
X128174461Y-92547235D01*
X129205271Y-92555059D01*
X130322777Y-92557408D01*
X131485170Y-92554421D01*
X132650644Y-92546235D01*
X133777389Y-92532989D01*
X134823599Y-92514822D01*
X135747463Y-92491871D01*
X136507175Y-92464275D01*
X136715500Y-92454132D01*
X139849202Y-92258222D01*
X142989370Y-91999710D01*
X145201635Y-91773416D01*
X153017376Y-91773416D01*
X153186061Y-91795403D01*
X153225500Y-91796241D01*
X153442393Y-91782514D01*
X153461489Y-91742757D01*
X153450167Y-91737696D01*
X153198048Y-91712572D01*
X153069167Y-91732990D01*
X153017376Y-91773416D01*
X145201635Y-91773416D01*
X146174217Y-91673930D01*
X146400280Y-91646416D01*
X153779376Y-91646416D01*
X153948061Y-91668403D01*
X153987500Y-91669241D01*
X154204393Y-91655514D01*
X154223489Y-91615757D01*
X154212167Y-91610696D01*
X153960048Y-91585572D01*
X153831167Y-91605990D01*
X153779376Y-91646416D01*
X146400280Y-91646416D01*
X147363003Y-91529244D01*
X154638295Y-91529244D01*
X154813000Y-91546947D01*
X154993293Y-91526989D01*
X154971750Y-91482890D01*
X154711736Y-91466116D01*
X154654250Y-91482890D01*
X154638295Y-91529244D01*
X147363003Y-91529244D01*
X148487226Y-91392416D01*
X155430376Y-91392416D01*
X155599061Y-91414403D01*
X155638500Y-91415241D01*
X155855393Y-91401514D01*
X155874489Y-91361757D01*
X155863167Y-91356696D01*
X155611048Y-91331572D01*
X155482167Y-91351990D01*
X155430376Y-91392416D01*
X148487226Y-91392416D01*
X149441956Y-91276217D01*
X149519126Y-91265416D01*
X156192376Y-91265416D01*
X156361061Y-91287403D01*
X156400500Y-91288241D01*
X156617393Y-91274514D01*
X156636489Y-91234757D01*
X156625167Y-91229696D01*
X156373048Y-91204572D01*
X156244167Y-91224990D01*
X156192376Y-91265416D01*
X149519126Y-91265416D01*
X150426512Y-91138416D01*
X156954376Y-91138416D01*
X157123061Y-91160403D01*
X157162500Y-91161241D01*
X157379393Y-91147514D01*
X157398489Y-91107757D01*
X157387167Y-91102696D01*
X157135048Y-91077572D01*
X157006167Y-91097990D01*
X156954376Y-91138416D01*
X150426512Y-91138416D01*
X151143269Y-91038097D01*
X157720947Y-91038097D01*
X157858653Y-91041914D01*
X158218791Y-91002848D01*
X158809539Y-90919946D01*
X159639073Y-90792254D01*
X159982701Y-90737547D01*
X160855180Y-90595690D01*
X161503714Y-90484661D01*
X161955691Y-90398571D01*
X162238496Y-90331531D01*
X162379519Y-90277652D01*
X162406146Y-90231046D01*
X162396806Y-90218472D01*
X162264860Y-90224838D01*
X161931329Y-90268623D01*
X161444510Y-90341703D01*
X160852700Y-90435950D01*
X160204198Y-90543237D01*
X159547299Y-90655439D01*
X158930302Y-90764429D01*
X158401505Y-90862080D01*
X158009203Y-90940266D01*
X157801697Y-90990860D01*
X157797500Y-90992349D01*
X157720947Y-91038097D01*
X151143269Y-91038097D01*
X152830802Y-90801906D01*
X156378969Y-90246332D01*
X160124670Y-89604832D01*
X160274000Y-89578236D01*
X161053156Y-89438382D01*
X161742604Y-89312914D01*
X162304980Y-89208772D01*
X162702917Y-89132899D01*
X162899051Y-89092236D01*
X162912885Y-89087995D01*
X162892232Y-88963757D01*
X162824361Y-88610575D01*
X162713326Y-88048276D01*
X162563184Y-87296687D01*
X162377989Y-86375635D01*
X162161795Y-85304948D01*
X161918658Y-84104452D01*
X161652633Y-82793975D01*
X161367775Y-81393343D01*
X161068139Y-79922383D01*
X160757780Y-78400924D01*
X160440752Y-76848791D01*
X160121111Y-75285812D01*
X159802912Y-73731814D01*
X159490210Y-72206624D01*
X159187059Y-70730069D01*
X158897516Y-69321977D01*
X158625634Y-68002173D01*
X158375468Y-66790487D01*
X158151075Y-65706743D01*
X157956508Y-64770770D01*
X157795823Y-64002395D01*
X157673075Y-63421444D01*
X157592318Y-63047746D01*
X157557608Y-62901126D01*
X157556933Y-62899790D01*
X157428597Y-62904685D01*
X157064183Y-62927707D01*
X156480867Y-62967562D01*
X155695829Y-63022957D01*
X154726245Y-63092595D01*
X153589292Y-63175182D01*
X152302150Y-63269424D01*
X150881995Y-63374027D01*
X149346005Y-63487695D01*
X147711358Y-63609133D01*
X145995231Y-63737049D01*
X144214802Y-63870145D01*
X142387249Y-64007129D01*
X140529749Y-64146705D01*
X138659481Y-64287579D01*
X136793621Y-64428456D01*
X134949348Y-64568042D01*
X133143838Y-64705041D01*
X131394271Y-64838160D01*
X129717823Y-64966104D01*
X128131672Y-65087577D01*
X126652996Y-65201287D01*
X125298973Y-65305937D01*
X124086779Y-65400233D01*
X123033594Y-65482880D01*
X122156594Y-65552585D01*
X121472957Y-65608052D01*
X120999861Y-65647987D01*
X120754483Y-65671095D01*
X120722599Y-65675862D01*
X119588512Y-65675862D01*
X119583137Y-65673973D01*
X119234801Y-65591859D01*
X118699050Y-65478818D01*
X118007398Y-65340551D01*
X117191363Y-65182758D01*
X116282459Y-65011139D01*
X115312204Y-64831397D01*
X114312113Y-64649231D01*
X113313703Y-64470342D01*
X112348488Y-64300431D01*
X111447987Y-64145199D01*
X110643714Y-64010346D01*
X109967185Y-63901574D01*
X109449917Y-63824583D01*
X109123426Y-63785073D01*
X109019423Y-63785243D01*
X107726139Y-63785243D01*
X107695270Y-63552569D01*
X107669852Y-63178153D01*
X107674601Y-63119950D01*
X111252000Y-63119950D01*
X111387410Y-63148115D01*
X111743936Y-63216300D01*
X112292776Y-63319158D01*
X113005130Y-63451344D01*
X113852196Y-63607508D01*
X114805175Y-63782305D01*
X115697000Y-63945190D01*
X117145727Y-64204037D01*
X118349786Y-64407723D01*
X119312341Y-64556719D01*
X120036557Y-64651495D01*
X120525596Y-64692521D01*
X120713500Y-64691054D01*
X120915430Y-64675407D01*
X121355368Y-64642177D01*
X122018010Y-64592501D01*
X122888054Y-64527517D01*
X123950197Y-64448361D01*
X125189138Y-64356171D01*
X126589574Y-64252084D01*
X128136202Y-64137237D01*
X129813720Y-64012766D01*
X131606826Y-63879810D01*
X133500217Y-63739505D01*
X135478591Y-63592988D01*
X137526645Y-63441396D01*
X138493500Y-63369861D01*
X140566976Y-63216239D01*
X142576796Y-63066881D01*
X144507749Y-62922939D01*
X146344625Y-62785567D01*
X148072215Y-62655916D01*
X149675308Y-62535140D01*
X151138696Y-62424390D01*
X152447169Y-62324818D01*
X153585516Y-62237578D01*
X154538528Y-62163822D01*
X155290996Y-62104702D01*
X155827710Y-62061371D01*
X156133459Y-62034981D01*
X156193019Y-62028761D01*
X156747539Y-61956006D01*
X156272461Y-61633182D01*
X155498317Y-61204543D01*
X154530760Y-60827722D01*
X153428702Y-60525407D01*
X153351602Y-60508394D01*
X153028701Y-60447619D01*
X152649424Y-60396498D01*
X152185862Y-60353613D01*
X151610108Y-60317541D01*
X150894252Y-60286864D01*
X150010387Y-60260161D01*
X148930605Y-60236011D01*
X147626997Y-60212995D01*
X147510500Y-60211133D01*
X142684500Y-60134500D01*
X142644988Y-59792235D01*
X142628363Y-59655764D01*
X142639426Y-59554421D01*
X142714328Y-59471667D01*
X142889222Y-59390964D01*
X143200261Y-59295773D01*
X143683595Y-59169557D01*
X144375377Y-58995777D01*
X144399000Y-58989839D01*
X145001875Y-58818048D01*
X145421720Y-58633323D01*
X145727460Y-58390575D01*
X145988020Y-58044716D01*
X146082836Y-57888333D01*
X146334836Y-57415693D01*
X146527958Y-56939362D01*
X146671162Y-56412967D01*
X146773408Y-55790132D01*
X146843655Y-55024483D01*
X146890864Y-54069645D01*
X146905062Y-53632686D01*
X146972410Y-51321872D01*
X146602320Y-50951782D01*
X146197524Y-50685824D01*
X145601457Y-50477044D01*
X144873393Y-50340873D01*
X144072608Y-50292746D01*
X144071097Y-50292748D01*
X143453858Y-50327257D01*
X142704354Y-50421404D01*
X141872122Y-50563539D01*
X141006704Y-50742008D01*
X140157638Y-50945158D01*
X139374464Y-51161337D01*
X138706720Y-51378892D01*
X138203948Y-51586171D01*
X137962798Y-51729546D01*
X137634674Y-51987649D01*
X137723364Y-53394074D01*
X137838744Y-54692639D01*
X138014723Y-55805382D01*
X138263305Y-56795786D01*
X138493493Y-57467500D01*
X138691969Y-57988994D01*
X138882854Y-58492814D01*
X139021295Y-58860485D01*
X139141871Y-59424833D01*
X139087126Y-59940713D01*
X138866140Y-60336330D01*
X138830278Y-60371053D01*
X138734254Y-60425198D01*
X138555398Y-60477726D01*
X138272842Y-60530921D01*
X137865717Y-60587064D01*
X137313157Y-60648438D01*
X136594292Y-60717326D01*
X135688256Y-60796010D01*
X134574180Y-60886774D01*
X133231197Y-60991898D01*
X132971062Y-61011944D01*
X131797930Y-61100657D01*
X130700933Y-61180699D01*
X129706399Y-61250360D01*
X128840658Y-61307930D01*
X128130041Y-61351699D01*
X127600875Y-61379958D01*
X127279491Y-61390997D01*
X127191375Y-61387262D01*
X127076954Y-61239898D01*
X126932970Y-60917265D01*
X126782292Y-60492624D01*
X126647789Y-60039237D01*
X126552331Y-59630364D01*
X126518786Y-59339266D01*
X126529584Y-59267238D01*
X126699471Y-59110703D01*
X126955347Y-59032409D01*
X127307655Y-58872287D01*
X127664646Y-58497187D01*
X128007094Y-57945005D01*
X128315771Y-57253635D01*
X128571449Y-56460973D01*
X128754901Y-55604912D01*
X128780385Y-55435500D01*
X128810371Y-54936114D01*
X128790294Y-54321921D01*
X128729092Y-53674106D01*
X128635703Y-53073852D01*
X128519065Y-52602344D01*
X128449475Y-52429680D01*
X128130857Y-52020820D01*
X127606936Y-51649458D01*
X126862623Y-51301922D01*
X126163031Y-51116136D01*
X125272782Y-51027259D01*
X124236238Y-51035849D01*
X123097760Y-51142468D01*
X122428000Y-51245945D01*
X121645080Y-51412177D01*
X121070703Y-51615681D01*
X120659431Y-51890676D01*
X120365824Y-52271383D01*
X120144443Y-52792020D01*
X120074170Y-53018599D01*
X119947688Y-53763573D01*
X119939485Y-54648919D01*
X120036790Y-55609735D01*
X120226832Y-56581122D01*
X120496839Y-57498179D01*
X120834042Y-58296007D01*
X121225669Y-58909704D01*
X121235794Y-58921827D01*
X121449934Y-59129341D01*
X121712655Y-59256752D01*
X122106938Y-59336846D01*
X122364602Y-59367824D01*
X122803743Y-59423012D01*
X123096629Y-59505240D01*
X123329877Y-59663357D01*
X123590105Y-59946212D01*
X123762876Y-60156397D01*
X124062472Y-60567311D01*
X124265948Y-60931815D01*
X124333000Y-61162141D01*
X124321668Y-61398068D01*
X124301250Y-61474090D01*
X124172870Y-61490341D01*
X123815977Y-61534748D01*
X123254149Y-61604394D01*
X122510963Y-61696365D01*
X121609998Y-61807744D01*
X120574832Y-61935616D01*
X119429045Y-62077065D01*
X118196214Y-62229176D01*
X117729000Y-62286802D01*
X116473934Y-62442225D01*
X115300347Y-62588800D01*
X114231367Y-62723549D01*
X113290123Y-62843499D01*
X112499745Y-62945674D01*
X111883360Y-63027099D01*
X111464098Y-63084799D01*
X111265087Y-63115799D01*
X111252000Y-63119950D01*
X107674601Y-63119950D01*
X107689209Y-62940934D01*
X107746715Y-62808843D01*
X107856375Y-62758470D01*
X108124822Y-62694239D01*
X108563878Y-62614468D01*
X109185365Y-62517471D01*
X110001103Y-62401565D01*
X111022915Y-62265066D01*
X112262622Y-62106289D01*
X113732046Y-61923551D01*
X115316000Y-61730520D01*
X116666948Y-61567607D01*
X117946382Y-61414219D01*
X119131407Y-61273040D01*
X120199128Y-61146755D01*
X121126648Y-61038049D01*
X121891073Y-60949606D01*
X122469507Y-60884113D01*
X122839054Y-60844253D01*
X122973678Y-60832513D01*
X123122432Y-60817748D01*
X123114821Y-60728461D01*
X122973678Y-60529009D01*
X122779194Y-60340737D01*
X122499550Y-60232668D01*
X122053480Y-60174540D01*
X122013837Y-60171553D01*
X121547334Y-60114165D01*
X121219820Y-59994364D01*
X120916735Y-59764827D01*
X120828277Y-59681793D01*
X120377335Y-59182672D01*
X120015478Y-58620384D01*
X119726899Y-57953546D01*
X119495789Y-57140773D01*
X119306342Y-56140678D01*
X119206354Y-55435500D01*
X119111911Y-54465231D01*
X119111181Y-53668323D01*
X119211208Y-52979378D01*
X119419039Y-52332999D01*
X119578816Y-51978131D01*
X119831849Y-51530671D01*
X120123093Y-51188525D01*
X120496732Y-50927357D01*
X120996947Y-50722830D01*
X121667920Y-50550606D01*
X122430938Y-50407089D01*
X123985983Y-50212594D01*
X125357691Y-50191451D01*
X126548730Y-50344038D01*
X127561765Y-50670733D01*
X128399462Y-51171917D01*
X128523227Y-51273302D01*
X128892890Y-51624035D01*
X129151640Y-51975851D01*
X129331620Y-52397347D01*
X129464978Y-52957123D01*
X129546057Y-53456031D01*
X129642474Y-54650240D01*
X129559637Y-55790395D01*
X129288733Y-56969616D01*
X129181440Y-57309077D01*
X128803815Y-58275327D01*
X128389830Y-59017076D01*
X127946863Y-59521914D01*
X127801210Y-59630736D01*
X127578868Y-59835207D01*
X127551226Y-60085937D01*
X127570630Y-60176250D01*
X127645253Y-60437268D01*
X127693269Y-60552602D01*
X127824112Y-60552315D01*
X128175707Y-60533774D01*
X128715654Y-60499462D01*
X129411553Y-60451860D01*
X130231002Y-60393451D01*
X131141602Y-60326716D01*
X132110953Y-60254139D01*
X133106655Y-60178200D01*
X134096306Y-60101383D01*
X135047508Y-60026169D01*
X135927859Y-59955040D01*
X136704959Y-59890479D01*
X137346409Y-59834968D01*
X137819807Y-59790989D01*
X138092754Y-59761023D01*
X138144250Y-59751966D01*
X138276384Y-59618166D01*
X138275540Y-59336157D01*
X138138282Y-58883519D01*
X137938017Y-58405816D01*
X137466511Y-57107479D01*
X137131558Y-55625602D01*
X136939735Y-53994869D01*
X136895352Y-52907799D01*
X136901323Y-52269279D01*
X136958020Y-51774579D01*
X137095893Y-51392354D01*
X137345395Y-51091258D01*
X137736979Y-50839944D01*
X138301096Y-50607066D01*
X139068199Y-50361278D01*
X139489368Y-50237636D01*
X141024250Y-49852119D01*
X142446788Y-49624982D01*
X143834435Y-49545807D01*
X144539015Y-49558435D01*
G36*
X144539015Y-49558435D02*
G01*
X145471408Y-49625410D01*
X146190968Y-49750101D01*
X146735337Y-49948057D01*
X147142156Y-50234826D01*
X147449068Y-50625957D01*
X147544720Y-50800000D01*
X147652685Y-51027863D01*
X147727584Y-51244367D01*
X147773357Y-51497270D01*
X147793942Y-51834332D01*
X147793278Y-52303313D01*
X147775304Y-52951972D01*
X147759436Y-53403500D01*
X147724734Y-54179317D01*
X147678854Y-54942802D01*
X147626835Y-55623326D01*
X147573712Y-56150261D01*
X147552250Y-56308997D01*
X147391879Y-56972619D01*
X147122711Y-57697256D01*
X146785958Y-58391640D01*
X146422832Y-58964505D01*
X146269301Y-59150250D01*
X146005724Y-59436000D01*
X148917112Y-59436748D01*
X150317171Y-59450034D01*
X151502552Y-59492152D01*
X152511416Y-59567671D01*
X153381922Y-59681157D01*
X154152230Y-59837177D01*
X154860501Y-60040298D01*
X155311518Y-60201994D01*
X156066631Y-60547237D01*
X156823314Y-60987160D01*
X157501949Y-61470047D01*
X158022920Y-61944183D01*
X158063818Y-61989738D01*
X158114802Y-62077370D01*
X158178531Y-62244851D01*
X158257792Y-62504882D01*
X158355371Y-62870163D01*
X158474053Y-63353397D01*
X158616625Y-63967285D01*
X158785872Y-64724529D01*
X158984581Y-65637828D01*
X159215537Y-66719886D01*
X159481526Y-67983403D01*
X159785334Y-69441081D01*
X160129748Y-71105621D01*
X160517552Y-72989724D01*
X160951534Y-75106093D01*
X161101637Y-75839451D01*
X163873137Y-89385402D01*
X163647933Y-89975092D01*
X163544774Y-90232152D01*
X163433362Y-90449669D01*
X163290801Y-90635034D01*
X163094195Y-90795637D01*
X162820648Y-90938870D01*
X162447265Y-91072122D01*
X161951149Y-91202785D01*
X161309406Y-91338250D01*
X160499138Y-91485908D01*
X159497450Y-91653148D01*
X158281447Y-91847363D01*
X157435129Y-91980592D01*
X156177467Y-92178722D01*
X155148354Y-92342785D01*
X154325322Y-92477526D01*
X153685903Y-92587686D01*
X153207628Y-92678009D01*
X152868028Y-92753236D01*
X152644636Y-92818110D01*
X152514983Y-92877375D01*
X152456600Y-92935772D01*
X152447020Y-92998044D01*
X152453507Y-93032107D01*
X152496230Y-93267731D01*
X152557045Y-93684782D01*
X152625929Y-94212247D01*
X152661576Y-94506300D01*
X152725984Y-95136645D01*
X152742762Y-95607496D01*
X152709151Y-96009366D01*
X152622392Y-96432765D01*
X152600174Y-96521157D01*
X152494336Y-96960976D01*
X152458770Y-97229732D01*
X152493895Y-97400565D01*
X152600131Y-97546617D01*
X152606086Y-97553223D01*
X152907663Y-97789070D01*
X153430336Y-98084838D01*
X154150997Y-98430586D01*
X155046539Y-98816373D01*
X156093855Y-99232257D01*
X157269837Y-99668297D01*
X158551378Y-100114553D01*
X158590069Y-100127609D01*
X159795853Y-100536593D01*
X160794729Y-100882882D01*
X161621632Y-101181420D01*
X162311499Y-101447150D01*
X162899263Y-101695016D01*
X163419862Y-101939962D01*
X163908229Y-102196932D01*
X164399301Y-102480871D01*
X164928013Y-102806720D01*
X165084889Y-102905814D01*
X165771407Y-103336288D01*
X166520354Y-103798180D01*
X167236720Y-104233286D01*
X167777203Y-104555129D01*
X168690970Y-105125033D01*
X169406606Y-105656870D01*
X169967301Y-106191819D01*
X170416246Y-106771057D01*
X170794795Y-107432092D01*
X171102266Y-108121352D01*
X171341159Y-108842267D01*
X171518437Y-109636890D01*
X171641062Y-110547275D01*
X171715997Y-111615475D01*
X171750204Y-112883544D01*
X171753116Y-113220500D01*
X171749701Y-114279234D01*
X171720066Y-115136164D01*
X171655460Y-115842885D01*
X171547133Y-116450990D01*
X171386336Y-117012075D01*
X171164318Y-117577733D01*
X170927898Y-118086399D01*
X170526987Y-118758675D01*
X169991555Y-119447369D01*
X169385628Y-120082604D01*
X168773235Y-120594500D01*
X168429192Y-120813442D01*
X167345778Y-121278269D01*
X166272821Y-121491887D01*
X165220492Y-121455002D01*
X164198964Y-121168321D01*
X163218409Y-120632553D01*
X162945060Y-120432162D01*
X162309092Y-119819571D01*
X161922185Y-119160489D01*
X161783201Y-118449325D01*
X161891001Y-117680487D01*
X162223401Y-116887040D01*
X162643033Y-116108581D01*
X161744266Y-116050269D01*
X160938692Y-115932434D01*
X160342838Y-115700980D01*
X159963830Y-115362240D01*
X159808795Y-114922545D01*
X159882345Y-114395781D01*
X160096436Y-114004695D01*
X160474046Y-113553628D01*
X160955490Y-113103822D01*
X161481083Y-112716521D01*
X161575750Y-112658185D01*
X161834084Y-112467137D01*
X161999465Y-112231064D01*
X162078080Y-111906771D01*
X162076116Y-111451065D01*
X161999760Y-110820752D01*
X161913612Y-110299500D01*
X161836111Y-109900005D01*
X161739331Y-109638744D01*
X161567932Y-109441801D01*
X161266574Y-109235259D01*
X160995389Y-109073036D01*
X159252134Y-108142657D01*
X157549373Y-107445327D01*
X155853460Y-106971160D01*
X155145953Y-106864013D01*
X158530618Y-106864013D01*
X158746404Y-106954332D01*
X159129199Y-107135943D01*
X159622165Y-107380109D01*
X160168462Y-107658090D01*
X160711250Y-107941150D01*
X161193689Y-108200551D01*
X161387699Y-108308541D01*
X161860981Y-108581663D01*
X162188309Y-108807456D01*
X162407584Y-109043833D01*
X162556706Y-109348708D01*
X162673577Y-109779993D01*
X162796096Y-110395602D01*
X162813458Y-110487143D01*
X162936256Y-111370669D01*
X162921954Y-112071920D01*
X162758398Y-112629762D01*
X162433437Y-113083062D01*
X161934919Y-113470685D01*
X161867785Y-113511689D01*
X161333875Y-113878246D01*
X160930549Y-114249880D01*
X160697139Y-114586195D01*
X160655000Y-114757158D01*
X160749929Y-114959322D01*
X161044866Y-115104501D01*
X161555033Y-115196585D01*
X162295652Y-115239460D01*
X162558084Y-115243261D01*
X163231322Y-115257771D01*
X163669495Y-115310889D01*
X163891424Y-115433587D01*
X163915927Y-115656837D01*
X163761826Y-116011613D01*
X163447939Y-116528885D01*
X163392278Y-116616093D01*
X162973973Y-117315303D01*
X162715915Y-117868632D01*
X162605562Y-118316374D01*
X162630375Y-118698822D01*
X162688807Y-118876363D01*
X162908471Y-119200823D01*
X163290741Y-119578778D01*
X163768107Y-119956201D01*
X164273056Y-120279061D01*
X164686537Y-120475112D01*
X165351189Y-120616557D01*
X166129068Y-120618901D01*
X166926259Y-120490037D01*
X167648845Y-120237857D01*
X167678197Y-120223689D01*
X168585634Y-119642571D01*
X169380211Y-118857808D01*
X170034953Y-117904797D01*
X170522882Y-116818931D01*
X170685671Y-116277604D01*
X170832894Y-115473547D01*
X170921950Y-114489661D01*
X170954758Y-113392819D01*
X170933236Y-112249893D01*
X170859303Y-111127755D01*
X170734876Y-110093279D01*
X170561874Y-109213336D01*
X170474101Y-108902500D01*
X170169824Y-108095182D01*
X169790725Y-107397491D01*
X169303934Y-106774756D01*
X168676586Y-106192310D01*
X167875813Y-105615482D01*
X166868748Y-105009605D01*
X166687500Y-104908329D01*
X166275224Y-104669851D01*
X165724064Y-104337161D01*
X165107591Y-103955257D01*
X164528500Y-103587874D01*
X163934006Y-103225395D01*
X163292340Y-102867272D01*
X162644584Y-102532654D01*
X162031821Y-102240691D01*
X161495132Y-102010530D01*
X161075599Y-101861322D01*
X160814305Y-101812214D01*
X160757034Y-101829939D01*
X160685461Y-101962201D01*
X160533774Y-102281356D01*
X160319960Y-102746736D01*
X160062004Y-103317672D01*
X159777894Y-103953497D01*
X159485614Y-104613543D01*
X159203152Y-105257143D01*
X158948493Y-105843627D01*
X158739623Y-106332329D01*
X158594530Y-106682581D01*
X158531198Y-106853714D01*
X158530618Y-106864013D01*
X155145953Y-106864013D01*
X154130745Y-106710267D01*
X152744546Y-106648463D01*
X152154465Y-106652834D01*
X151663096Y-106665760D01*
X151322702Y-106685227D01*
X151186185Y-106708481D01*
X151209091Y-106834844D01*
X151286351Y-107191386D01*
X151413986Y-107761076D01*
X151588017Y-108526881D01*
X151804467Y-109471769D01*
X152059356Y-110578709D01*
X152348707Y-111830667D01*
X152668541Y-113210613D01*
X153014880Y-114701515D01*
X153383745Y-116286339D01*
X153771159Y-117948055D01*
X154173142Y-119669630D01*
X154585717Y-121434033D01*
X155004905Y-123224230D01*
X155426727Y-125023191D01*
X155847206Y-126813883D01*
X156262363Y-128579275D01*
X156668220Y-130302333D01*
X157060798Y-131966027D01*
X157436119Y-133553324D01*
X157790205Y-135047193D01*
X158119077Y-136430600D01*
X158418757Y-137686515D01*
X158553010Y-138247174D01*
X158636929Y-138395991D01*
X158840163Y-138519846D01*
X159211423Y-138641551D01*
X159603627Y-138739139D01*
X160567883Y-138996501D01*
X161506217Y-139306561D01*
X162350358Y-139643783D01*
X163032037Y-139982632D01*
X163200424Y-140084480D01*
X163705146Y-140483917D01*
X164199904Y-141004038D01*
X164624729Y-141570306D01*
X164919655Y-142108183D01*
X164991039Y-142310137D01*
X165027133Y-142897444D01*
X164838737Y-143502564D01*
X164445999Y-144074986D01*
X164186544Y-144326969D01*
X163671283Y-144649585D01*
X162926300Y-144929426D01*
X161944874Y-145168421D01*
X160720287Y-145368495D01*
X160419008Y-145407303D01*
X159720153Y-145473032D01*
X158815992Y-145526459D01*
X157754963Y-145566728D01*
X156585500Y-145592984D01*
X155356041Y-145604369D01*
X154115021Y-145600029D01*
X152910878Y-145579106D01*
X152114570Y-145554086D01*
X149733641Y-145463135D01*
X149335966Y-145089817D01*
X148740904Y-144455154D01*
X148372711Y-143873844D01*
X148216675Y-143320785D01*
X148209000Y-143167138D01*
X148216334Y-143091308D01*
X148971000Y-143091308D01*
X149046894Y-143328370D01*
X149244365Y-143675552D01*
X149478177Y-144001819D01*
X149985354Y-144643446D01*
X151160927Y-144692496D01*
X151596192Y-144704251D01*
X152240258Y-144713035D01*
X153047941Y-144718656D01*
X153974056Y-144720923D01*
X154973420Y-144719644D01*
X156000849Y-144714630D01*
X156146500Y-144713603D01*
X157383002Y-144700873D01*
X158398595Y-144681536D01*
X159226319Y-144653993D01*
X159899215Y-144616645D01*
X160450324Y-144567893D01*
X160912686Y-144506138D01*
X161099500Y-144473883D01*
X161679530Y-144361830D01*
X162226950Y-144248193D01*
X162648648Y-144152543D01*
X162745895Y-144127849D01*
X163130058Y-143958621D01*
X163532006Y-143678585D01*
X163888136Y-143345918D01*
X164134842Y-143018794D01*
X164211000Y-142787805D01*
X164119700Y-142452836D01*
X163877189Y-142023974D01*
X163530547Y-141566060D01*
X163126854Y-141143933D01*
X162852381Y-140916684D01*
X162161897Y-140504339D01*
X161243810Y-140113821D01*
X160088050Y-139741206D01*
X159283745Y-139526456D01*
X158760786Y-139386829D01*
X158329921Y-139255645D01*
X158052018Y-139152245D01*
X157986396Y-139114196D01*
X157910370Y-138948257D01*
X157796698Y-138591666D01*
X157662524Y-138101789D01*
X157560625Y-137689359D01*
X157428036Y-137145851D01*
X157311589Y-136700503D01*
X157225936Y-136407525D01*
X157190525Y-136320192D01*
X157059794Y-136343077D01*
X156748122Y-136442746D01*
X156309149Y-136598580D01*
X155796515Y-136789959D01*
X155263860Y-136996262D01*
X154764824Y-137196871D01*
X154353049Y-137371166D01*
X154082173Y-137498527D01*
X154011261Y-137542323D01*
X153987643Y-137702987D01*
X154027453Y-138033224D01*
X154113601Y-138426532D01*
X154216825Y-138899496D01*
X154275875Y-139321030D01*
X154280340Y-139555193D01*
X154234064Y-139750896D01*
X154109424Y-139863775D01*
X153841061Y-139930426D01*
X153543000Y-139968029D01*
X153014767Y-140078803D01*
X152403874Y-140313178D01*
X151701537Y-140666529D01*
X151088332Y-141035215D01*
X150487055Y-141459521D01*
X149936718Y-141904801D01*
X149476332Y-142336415D01*
X149144909Y-142719717D01*
X148981462Y-143020064D01*
X148971000Y-143091308D01*
X148216334Y-143091308D01*
X148257317Y-142667566D01*
X148424797Y-142227960D01*
X148745228Y-141788415D01*
X149252402Y-141289030D01*
X149284707Y-141260133D01*
X149778114Y-140872208D01*
X150416156Y-140443979D01*
X151126813Y-140017033D01*
X151838064Y-139632953D01*
X152477886Y-139333324D01*
X152876250Y-139186416D01*
X153200589Y-139084546D01*
X153393077Y-139014910D01*
X153416000Y-139001279D01*
X153371269Y-138828670D01*
X153255928Y-138495825D01*
X153098254Y-138076469D01*
X152926526Y-137644327D01*
X152769019Y-137273124D01*
X152683070Y-137090390D01*
X152451085Y-136725233D01*
X152083689Y-136244979D01*
X151631879Y-135707069D01*
X151146651Y-135168942D01*
X151062405Y-135082308D01*
X152416552Y-135082308D01*
X152462509Y-135188731D01*
X152615425Y-135429675D01*
X152827739Y-135738061D01*
X153051897Y-136046814D01*
X153240339Y-136288855D01*
X153345509Y-136397110D01*
X153349376Y-136398000D01*
X153474940Y-136353959D01*
X153792742Y-136233112D01*
X154258944Y-136052368D01*
X154829706Y-135828638D01*
X155021310Y-135753082D01*
X155624767Y-135510259D01*
X156144743Y-135292510D01*
X156534443Y-135120067D01*
X156747074Y-135013160D01*
X156768512Y-134997720D01*
X156797519Y-134837563D01*
X156777365Y-134523850D01*
X156722053Y-134137414D01*
X156645584Y-133759090D01*
X156561962Y-133469714D01*
X156485190Y-133350119D01*
X156483084Y-133350000D01*
X156353504Y-133397210D01*
X156037646Y-133525563D01*
X155582261Y-133715143D01*
X155034101Y-133946034D01*
X154439918Y-134198320D01*
X153846464Y-134452086D01*
X153300490Y-134687415D01*
X152848749Y-134884392D01*
X152537992Y-135023101D01*
X152416552Y-135082308D01*
X151062405Y-135082308D01*
X150679000Y-134688038D01*
X150279922Y-134321798D01*
X150108097Y-134190026D01*
X149694749Y-133955878D01*
X149261500Y-133776354D01*
X149197847Y-133757242D01*
X148950585Y-133707079D01*
X148709538Y-133717500D01*
X148408715Y-133804256D01*
X147982127Y-133983100D01*
X147689718Y-134117245D01*
X146812356Y-134467108D01*
X146026457Y-134665565D01*
X145856302Y-134688529D01*
X145075740Y-134719834D01*
X144076470Y-134673262D01*
X142880724Y-134551339D01*
X141510729Y-134356594D01*
X139988717Y-134091555D01*
X139128500Y-133923545D01*
X137588225Y-133631508D01*
X135964832Y-133358847D01*
X134313479Y-133112787D01*
X132689329Y-132900551D01*
X131147539Y-132729362D01*
X129743272Y-132606443D01*
X128564652Y-132540163D01*
X126636804Y-132471822D01*
X126564429Y-132815661D01*
X126486834Y-133217897D01*
X126384730Y-133795154D01*
X126266588Y-134494272D01*
X126140877Y-135262091D01*
X126016066Y-136045452D01*
X125900626Y-136791195D01*
X125803025Y-137446161D01*
X125731735Y-137957190D01*
X125695223Y-138271123D01*
X125695213Y-138271250D01*
X125679220Y-138642922D01*
X125696869Y-138884964D01*
X125725852Y-138938000D01*
X125984969Y-138970831D01*
X126416085Y-139057443D01*
X126947498Y-139180007D01*
X127507510Y-139320698D01*
X128024421Y-139461689D01*
X128426530Y-139585153D01*
X128607296Y-139654406D01*
X129004916Y-139929306D01*
X129252516Y-140325052D01*
X129363365Y-140877341D01*
X129350734Y-141621871D01*
X129348519Y-141648342D01*
X129220591Y-142691099D01*
X129033136Y-143558875D01*
X128793012Y-144231898D01*
X128507077Y-144690395D01*
X128220151Y-144901809D01*
X127762672Y-145024128D01*
X127095850Y-145132748D01*
X126264072Y-145225702D01*
X125311723Y-145301021D01*
X124283190Y-145356739D01*
X123222858Y-145390888D01*
X122175115Y-145401500D01*
X121184345Y-145386607D01*
X120294936Y-145344242D01*
X119630668Y-145282590D01*
X118832045Y-145166467D01*
X118054481Y-145021254D01*
X117346924Y-144859035D01*
X116758321Y-144691896D01*
X116337621Y-144531920D01*
X116165068Y-144426975D01*
X115936685Y-144140127D01*
X115668258Y-143682888D01*
X115394651Y-143127568D01*
X115150731Y-142546480D01*
X114971361Y-142011933D01*
X114937647Y-141881273D01*
X114852745Y-141329310D01*
X114831898Y-140866829D01*
X115643246Y-140866829D01*
X115736788Y-141524488D01*
X115978631Y-142294977D01*
X116270494Y-142960559D01*
X116717295Y-143871618D01*
X117572397Y-144065916D01*
X118442422Y-144241738D01*
X119435987Y-144407550D01*
X120422873Y-144542246D01*
X120713500Y-144575064D01*
X121170819Y-144600377D01*
X121822574Y-144605579D01*
X122610193Y-144592998D01*
X123475105Y-144564965D01*
X124358738Y-144523809D01*
X125202521Y-144471862D01*
X125947883Y-144411452D01*
X126536252Y-144344910D01*
X126550774Y-144342857D01*
X127208647Y-144235143D01*
X127648344Y-144127172D01*
X127905496Y-144008803D01*
X127982121Y-143935467D01*
X128210893Y-143455608D01*
X128365247Y-142754837D01*
X128440530Y-141856469D01*
X128446387Y-141608713D01*
X128449307Y-141083898D01*
X128431164Y-140754705D01*
X128376872Y-140562829D01*
X128271348Y-140449962D01*
X128126068Y-140370636D01*
X127857330Y-140274636D01*
X127413486Y-140151574D01*
X126869067Y-140021249D01*
X126565486Y-139956054D01*
X125871205Y-139812079D01*
X125388174Y-139689153D01*
X125080517Y-139549633D01*
X124912358Y-139355876D01*
X124847822Y-139070238D01*
X124851032Y-138655078D01*
X124879341Y-138186852D01*
X124954312Y-136956246D01*
X122449583Y-136232623D01*
X121691949Y-136014753D01*
X121018984Y-135823158D01*
X120468169Y-135668353D01*
X120076985Y-135560848D01*
X119882913Y-135511157D01*
X119869628Y-135509000D01*
X119825877Y-135625425D01*
X119779459Y-135932944D01*
X119739445Y-136368924D01*
X119734533Y-136441891D01*
X119604153Y-137304341D01*
X119319765Y-138015464D01*
X118859266Y-138600428D01*
X118200557Y-139084397D01*
X117321536Y-139492535D01*
X116934801Y-139629777D01*
X116398653Y-139816825D01*
X116055304Y-139966723D01*
X115852852Y-140110408D01*
X115739394Y-140278821D01*
X115706659Y-140361879D01*
X115643246Y-140866829D01*
X114831898Y-140866829D01*
X114825775Y-140730994D01*
X114835339Y-140515046D01*
X114917147Y-140018311D01*
X115094636Y-139640195D01*
X115407432Y-139342129D01*
X115895161Y-139085546D01*
X116548397Y-138847766D01*
X117472622Y-138475415D01*
X118161903Y-138038161D01*
X118610458Y-137539855D01*
X118670201Y-137434320D01*
X118743113Y-137187222D01*
X118823000Y-136742147D01*
X118901707Y-136154663D01*
X118971079Y-135480343D01*
X118989998Y-135255000D01*
X119038218Y-134677123D01*
X119081833Y-134181712D01*
X119925088Y-134181712D01*
X119927366Y-134190574D01*
X120050870Y-134230409D01*
X120382650Y-134329956D01*
X120886888Y-134478672D01*
X121527771Y-134666014D01*
X122269483Y-134881439D01*
X122555000Y-134964043D01*
X125158500Y-135716506D01*
X125253393Y-135390503D01*
X125314530Y-135073521D01*
X125364070Y-134631008D01*
X125380393Y-134383117D01*
X125412500Y-133701735D01*
X122936000Y-132958114D01*
X122173918Y-132732011D01*
X121486521Y-132533218D01*
X120913879Y-132372908D01*
X120496062Y-132262253D01*
X120273142Y-132212427D01*
X120255580Y-132210746D01*
X120145661Y-132257710D01*
X120069276Y-132433717D01*
X120013493Y-132784220D01*
X119977447Y-133188283D01*
X119945292Y-133653994D01*
X119926796Y-134006009D01*
X119925088Y-134181712D01*
X119081833Y-134181712D01*
X119107295Y-133892509D01*
X119192986Y-132947177D01*
X119291048Y-131887146D01*
X119386415Y-130873500D01*
X120240907Y-130873500D01*
X122763203Y-131614306D01*
X123536327Y-131838993D01*
X124237775Y-132038361D01*
X124826968Y-132201236D01*
X125263331Y-132316448D01*
X125506286Y-132372823D01*
X125530703Y-132376306D01*
X125758201Y-132289388D01*
X125855274Y-132080000D01*
X125934641Y-131762500D01*
X128467570Y-131788548D01*
X130283627Y-131854585D01*
X132270210Y-132012522D01*
X134364110Y-132254847D01*
X136502117Y-132574045D01*
X138621020Y-132962605D01*
X139001500Y-133040579D01*
X140410891Y-133323229D01*
X141617921Y-133539492D01*
X142663798Y-133695012D01*
X143589734Y-133795435D01*
X144436937Y-133846406D01*
X144951786Y-133855673D01*
X145546092Y-133850832D01*
X145979016Y-133820322D01*
X146343114Y-133744103D01*
X146730943Y-133602133D01*
X147235057Y-133374370D01*
X147287116Y-133350000D01*
X147812171Y-133123880D01*
X148297954Y-132949535D01*
X148668017Y-132853059D01*
X148775456Y-132842000D01*
X149424126Y-132938474D01*
X150109333Y-133198449D01*
X150721367Y-133577757D01*
X150832119Y-133670018D01*
X151126785Y-133916998D01*
X151344907Y-134075635D01*
X151410314Y-134106713D01*
X151549615Y-134060273D01*
X151884501Y-133927781D01*
X152377688Y-133724616D01*
X152991892Y-133466156D01*
X153689827Y-133167779D01*
X153759814Y-133137622D01*
X154465494Y-132831349D01*
X155091338Y-132555961D01*
X155599721Y-132328320D01*
X155953020Y-132165289D01*
X156113611Y-132083732D01*
X156117207Y-132081064D01*
X156102201Y-131950285D01*
X156034077Y-131596858D01*
X155918495Y-131045241D01*
X155761113Y-130319893D01*
X155567589Y-129445271D01*
X155343581Y-128445834D01*
X155094748Y-127346040D01*
X154826748Y-126170347D01*
X154545239Y-124943214D01*
X154255879Y-123689099D01*
X153964328Y-122432459D01*
X153676242Y-121197754D01*
X153397281Y-120009441D01*
X153133102Y-118891978D01*
X152889365Y-117869825D01*
X152671726Y-116967438D01*
X152485845Y-116209277D01*
X152337380Y-115619799D01*
X152231989Y-115223462D01*
X152176509Y-115047212D01*
X152129588Y-114997302D01*
X152027940Y-114970333D01*
X151847659Y-114970131D01*
X151564843Y-115000520D01*
X151155585Y-115065324D01*
X150595982Y-115168366D01*
X149862129Y-115313472D01*
X148930121Y-115504465D01*
X147776055Y-115745169D01*
X147654993Y-115770552D01*
X146630862Y-115986477D01*
X145687533Y-116187525D01*
X144853345Y-116367490D01*
X144156641Y-116520166D01*
X143625761Y-116639346D01*
X143289048Y-116718825D01*
X143175071Y-116751595D01*
X143132693Y-116886395D01*
X143046245Y-117229976D01*
X142925066Y-117742798D01*
X142778494Y-118385323D01*
X142615870Y-119118009D01*
X142612568Y-119133079D01*
X142444410Y-119877171D01*
X142284600Y-120540897D01*
X142144084Y-121082083D01*
X142033807Y-121458554D01*
X141965190Y-121627573D01*
X141748621Y-121744419D01*
X141430699Y-121790031D01*
X141217199Y-121767712D01*
X140793897Y-121706072D01*
X140193492Y-121610898D01*
X139448682Y-121487974D01*
X138592166Y-121343088D01*
X137656645Y-121182026D01*
X136674816Y-121010573D01*
X135679380Y-120834515D01*
X134703034Y-120659639D01*
X133778478Y-120491731D01*
X132938412Y-120336577D01*
X132215533Y-120199962D01*
X131642542Y-120087673D01*
X131252138Y-120005497D01*
X131077019Y-119959218D01*
X131073423Y-119957323D01*
X130972665Y-119751779D01*
X130943673Y-119306959D01*
X130986450Y-118627240D01*
X131072517Y-117916040D01*
X131130135Y-117448229D01*
X131160561Y-117087594D01*
X131158685Y-116899041D01*
X131153518Y-116887185D01*
X131023378Y-116908054D01*
X130674732Y-116990454D01*
X130133692Y-117127530D01*
X129426374Y-117312426D01*
X128578891Y-117538286D01*
X127617356Y-117798254D01*
X126567885Y-118085475D01*
X126146955Y-118201584D01*
X121194909Y-119570500D01*
X121114749Y-121031000D01*
X121079158Y-121575287D01*
X121022425Y-122316524D01*
X120949261Y-123198979D01*
X120864378Y-124166920D01*
X120772487Y-125164615D01*
X120712128Y-125793500D01*
X120620349Y-126738276D01*
X120532712Y-127649599D01*
X120453582Y-128481379D01*
X120387323Y-129187524D01*
X120338300Y-129721943D01*
X120315288Y-129984500D01*
X120240907Y-130873500D01*
X119386415Y-130873500D01*
X119397241Y-130758435D01*
X119507320Y-129607065D01*
X119575370Y-128905000D01*
X119688797Y-127734943D01*
X119804005Y-126534830D01*
X119916168Y-125355741D01*
X120020463Y-124248757D01*
X120112066Y-123264959D01*
X120186153Y-122455427D01*
X120217021Y-122110500D01*
X120314325Y-120806895D01*
X120388079Y-119391860D01*
X120438356Y-117908132D01*
X120444601Y-117557318D01*
X121301750Y-117557318D01*
X121310063Y-117975713D01*
X121326173Y-118206057D01*
X121336987Y-118237000D01*
X121468889Y-118203953D01*
X121819964Y-118109488D01*
X122364776Y-117960615D01*
X123077890Y-117764346D01*
X123933871Y-117527692D01*
X124907281Y-117257664D01*
X125972687Y-116961273D01*
X126635477Y-116776500D01*
X127747779Y-116467219D01*
X128787057Y-116180261D01*
X129727230Y-115922677D01*
X130542218Y-115701523D01*
X131205938Y-115523851D01*
X131692309Y-115396715D01*
X131975252Y-115327170D01*
X132035725Y-115316000D01*
X132221455Y-115413534D01*
X132381390Y-115601750D01*
X132455752Y-115756982D01*
X132492796Y-115961342D01*
X132492364Y-116264985D01*
X132454300Y-116718063D01*
X132378446Y-117370731D01*
X132375776Y-117392374D01*
X132306965Y-117979422D01*
X132256852Y-118466589D01*
X132230152Y-118803283D01*
X132231580Y-118938911D01*
X132231650Y-118938984D01*
X132358484Y-118967727D01*
X132700545Y-119034553D01*
X133222974Y-119133149D01*
X133890906Y-119257204D01*
X134669482Y-119400406D01*
X135523839Y-119556443D01*
X136419114Y-119719004D01*
X137320447Y-119881775D01*
X138192975Y-120038447D01*
X139001836Y-120182707D01*
X139712169Y-120308242D01*
X140289111Y-120408742D01*
X140697801Y-120477895D01*
X140903377Y-120509389D01*
X140908561Y-120509950D01*
X140974831Y-120396237D01*
X141081460Y-120072103D01*
X141217884Y-119575973D01*
X141373538Y-118946270D01*
X141537859Y-118221416D01*
X141538246Y-118219636D01*
X141704819Y-117480949D01*
X141864303Y-116824197D01*
X142005559Y-116291469D01*
X142117447Y-115924855D01*
X142187086Y-115768056D01*
X142341052Y-115709632D01*
X142715808Y-115607124D01*
X143283238Y-115467082D01*
X144015231Y-115296052D01*
X144883672Y-115100581D01*
X145860448Y-114887218D01*
X146917444Y-114662510D01*
X147081901Y-114628078D01*
X148141742Y-114406303D01*
X149120271Y-114200909D01*
X149990387Y-114017631D01*
X150724993Y-113862205D01*
X151296991Y-113740368D01*
X151679282Y-113657856D01*
X151844767Y-113620404D01*
X151849420Y-113618908D01*
X151832147Y-113496772D01*
X151767532Y-113188796D01*
X151668526Y-112755880D01*
X151643195Y-112649000D01*
X151518532Y-112162931D01*
X151415202Y-111878627D01*
X151307858Y-111748179D01*
X151171152Y-111723678D01*
X151154466Y-111725257D01*
X150973813Y-111759393D01*
X150575148Y-111843847D01*
X149988009Y-111972071D01*
X149241935Y-112137513D01*
X148366465Y-112333624D01*
X147391139Y-112553855D01*
X146362489Y-112787778D01*
X145183740Y-113056276D01*
X144227718Y-113272002D01*
X143469612Y-113439113D01*
X142884612Y-113561769D01*
X142447906Y-113644126D01*
X142134683Y-113690344D01*
X141920134Y-113704579D01*
X141779447Y-113690992D01*
X141687811Y-113653739D01*
X141620416Y-113596978D01*
X141608482Y-113584521D01*
X141499700Y-113386477D01*
X141382935Y-113004552D01*
X141253453Y-112418815D01*
X141106521Y-111609339D01*
X141031832Y-111156750D01*
X140894662Y-110333557D01*
X140782646Y-109733167D01*
X140688509Y-109326465D01*
X140604975Y-109084331D01*
X140524769Y-108977649D01*
X140484429Y-108966000D01*
X140317975Y-108978214D01*
X139936889Y-109012347D01*
X139379237Y-109064635D01*
X138683083Y-109131316D01*
X137886494Y-109208626D01*
X137027536Y-109292800D01*
X136144274Y-109380076D01*
X135274775Y-109466690D01*
X134457104Y-109548878D01*
X133729326Y-109622878D01*
X133129508Y-109684925D01*
X132695716Y-109731255D01*
X132466014Y-109758107D01*
X132451817Y-109760174D01*
X132374667Y-109797468D01*
X132336799Y-109905418D01*
X132340600Y-110123308D01*
X132388460Y-110490417D01*
X132482768Y-111046028D01*
X132553882Y-111438452D01*
X132691691Y-112243294D01*
X132765858Y-112834840D01*
X132774551Y-113246159D01*
X132715936Y-113510318D01*
X132588182Y-113660388D01*
X132427315Y-113722208D01*
X132240830Y-113742220D01*
X131829745Y-113773305D01*
X131223138Y-113813677D01*
X130450084Y-113861548D01*
X129539659Y-113915132D01*
X128520938Y-113972640D01*
X127422998Y-114032287D01*
X127127000Y-114047985D01*
X126008400Y-114107924D01*
X124957345Y-114165996D01*
X124003638Y-114220422D01*
X123177080Y-114269427D01*
X122507475Y-114311235D01*
X122024625Y-114344068D01*
X121758332Y-114366151D01*
X121729500Y-114369721D01*
X121348500Y-114426759D01*
X121310913Y-116331879D01*
X121301833Y-116994748D01*
X121301750Y-117557318D01*
X120444601Y-117557318D01*
X120465232Y-116398451D01*
X120468781Y-114905555D01*
X120449076Y-113472183D01*
X120406194Y-112141073D01*
X120340206Y-110954964D01*
X120251189Y-109956595D01*
X120195134Y-109521146D01*
X120117777Y-108996793D01*
X118706468Y-108715604D01*
X117606371Y-108515061D01*
X116705739Y-108395502D01*
X115964022Y-108354796D01*
X115340668Y-108390811D01*
X114795129Y-108501415D01*
X114769938Y-108508640D01*
X114467269Y-108597387D01*
X114255234Y-108686494D01*
X114123927Y-108816623D01*
X114063442Y-109028440D01*
X114063875Y-109362608D01*
X114115318Y-109859792D01*
X114207867Y-110560655D01*
X114229962Y-110725289D01*
X114316768Y-111735216D01*
X114276681Y-112535096D01*
X114107943Y-113135915D01*
X113808798Y-113548663D01*
X113773637Y-113578406D01*
X113379657Y-113746231D01*
X112888115Y-113737362D01*
X112376773Y-113558893D01*
X112170783Y-113432207D01*
X111807673Y-113173650D01*
X111901565Y-113832075D01*
X111962081Y-114425456D01*
X111994347Y-115106938D01*
X111998659Y-115800849D01*
X111975309Y-116431521D01*
X111924591Y-116923283D01*
X111888902Y-117094000D01*
X111610104Y-117686124D01*
X111144472Y-118237482D01*
X110557137Y-118675208D01*
X110402940Y-118756404D01*
X109704381Y-118978330D01*
X108886026Y-119051768D01*
X108037116Y-118972519D01*
X107666250Y-118885162D01*
X107363699Y-118783092D01*
X107130387Y-118646374D01*
X106911948Y-118424236D01*
X106654012Y-118065907D01*
X106445112Y-117744805D01*
X105889823Y-116849079D01*
X105465360Y-116082502D01*
X105144782Y-115375161D01*
X104901148Y-114657146D01*
X104707517Y-113858542D01*
X104536947Y-112909438D01*
X104505881Y-112712500D01*
X104316276Y-111070680D01*
X104254734Y-109454239D01*
X104271206Y-109026276D01*
X105075868Y-109026276D01*
X105096294Y-110362834D01*
X105200474Y-111730192D01*
X105381308Y-113040363D01*
X105631696Y-114205361D01*
X105675198Y-114363500D01*
X105867683Y-114906612D01*
X106146876Y-115523534D01*
X106483873Y-116166397D01*
X106849772Y-116787333D01*
X107215671Y-117338474D01*
X107552668Y-117771952D01*
X107831860Y-118039898D01*
X107926516Y-118092145D01*
X108455578Y-118203233D01*
X109072017Y-118214085D01*
X109651565Y-118128549D01*
X109935461Y-118029939D01*
X110299238Y-117794127D01*
X110661653Y-117465096D01*
X110741894Y-117373900D01*
X110969866Y-117030833D01*
X111120657Y-116625398D01*
X111197776Y-116118829D01*
X111204734Y-115472359D01*
X111145040Y-114647223D01*
X111057986Y-113882589D01*
X110983463Y-113234065D01*
X110931177Y-112666280D01*
X110905013Y-112231682D01*
X110908858Y-111982716D01*
X110915184Y-111955040D01*
X111091484Y-111779913D01*
X111396225Y-111810207D01*
X111814707Y-112041520D01*
X112184008Y-112335161D01*
X112621888Y-112683080D01*
X112960810Y-112860192D01*
X113206962Y-112854860D01*
X113366530Y-112655444D01*
X113445700Y-112250307D01*
X113450658Y-111627810D01*
X113387590Y-110776315D01*
X113324268Y-110189982D01*
X113235913Y-109423721D01*
X113186269Y-108869286D01*
X113189082Y-108485732D01*
X113258098Y-108232116D01*
X113407064Y-108067492D01*
X113649726Y-107950916D01*
X113999830Y-107841445D01*
X114125078Y-107804691D01*
X114479459Y-107676990D01*
X114630602Y-107547521D01*
X114634797Y-107406036D01*
X114572428Y-107230782D01*
X114427138Y-106853523D01*
X114212059Y-106307388D01*
X113940328Y-105625508D01*
X113625078Y-104841014D01*
X113279444Y-103987036D01*
X113274590Y-103975085D01*
X111974626Y-100774500D01*
X111327563Y-100752543D01*
X110858810Y-100736419D01*
X110269364Y-100715851D01*
X109728000Y-100696748D01*
X109158693Y-100694212D01*
X108746732Y-100744819D01*
X108398350Y-100863500D01*
X108261791Y-100930251D01*
X107536424Y-101446680D01*
X106890170Y-102193001D01*
X106329087Y-103155839D01*
X105859232Y-104321821D01*
X105486664Y-105677570D01*
X105217442Y-107209712D01*
X105146294Y-107808502D01*
X105075868Y-109026276D01*
X104271206Y-109026276D01*
X104315057Y-107887050D01*
X104491049Y-106392991D01*
X104776509Y-104995937D01*
X105165241Y-103719764D01*
X105651046Y-102588347D01*
X106227725Y-101625563D01*
X106889081Y-100855287D01*
X107374443Y-100491910D01*
X113255306Y-100491910D01*
X113310787Y-100657490D01*
X113449899Y-101025829D01*
X113659940Y-101564664D01*
X113928209Y-102241729D01*
X114242005Y-103024760D01*
X114588627Y-103881494D01*
X114620556Y-103960022D01*
X114967849Y-104819720D01*
X115281332Y-105607011D01*
X115548676Y-106290013D01*
X115757547Y-106836843D01*
X115895617Y-107215619D01*
X115950552Y-107394460D01*
X115951000Y-107399956D01*
X116048878Y-107510700D01*
X116358982Y-107566649D01*
X116617750Y-107576318D01*
X117124766Y-107602253D01*
X117624150Y-107659099D01*
X117792500Y-107688714D01*
X118132761Y-107758328D01*
X118357622Y-107802929D01*
X118387512Y-107808395D01*
X118368961Y-107696738D01*
X118276024Y-107373171D01*
X118117716Y-106865702D01*
X117903052Y-106202338D01*
X117641047Y-105411086D01*
X117340717Y-104519955D01*
X117135163Y-103917750D01*
X116808468Y-102964138D01*
X116506644Y-102081123D01*
X116240023Y-101299084D01*
X116018935Y-100648399D01*
X115853711Y-100159447D01*
X115754680Y-99862607D01*
X115731588Y-99790250D01*
X115676171Y-99658948D01*
X115574934Y-99594246D01*
X115383978Y-99600452D01*
X115059402Y-99681875D01*
X114557305Y-99842826D01*
X114294255Y-99931343D01*
X113739913Y-100133759D01*
X113405517Y-100295142D01*
X113263273Y-100430490D01*
X113255306Y-100491910D01*
X107374443Y-100491910D01*
X107628916Y-100301394D01*
X107743834Y-100239695D01*
X108368746Y-100013109D01*
X109134297Y-99872223D01*
X109938433Y-99827809D01*
X110679095Y-99890641D01*
X110807500Y-99916322D01*
X111024483Y-99950164D01*
X111263448Y-99946824D01*
X111567379Y-99896813D01*
X111979263Y-99790646D01*
X112542088Y-99618836D01*
X113298838Y-99371895D01*
X113347500Y-99355759D01*
X113852066Y-99187000D01*
X116925206Y-99187000D01*
X116950341Y-99317599D01*
X117049791Y-99660590D01*
X117214652Y-100188384D01*
X117436022Y-100873392D01*
X117704998Y-101688025D01*
X118012676Y-102604694D01*
X118311807Y-103483877D01*
X118649070Y-104473544D01*
X118958529Y-105390196D01*
X119230798Y-106205372D01*
X119456494Y-106890610D01*
X119626233Y-107417450D01*
X119730629Y-107757432D01*
X119761000Y-107879083D01*
X119873093Y-108001692D01*
X120154979Y-108118676D01*
X120295650Y-108154205D01*
X120507686Y-108205323D01*
X120671351Y-108278682D01*
X120796074Y-108406458D01*
X120891288Y-108620828D01*
X120966423Y-108953968D01*
X121030909Y-109438053D01*
X121094177Y-110105260D01*
X121165659Y-110987766D01*
X121180117Y-111171855D01*
X121338232Y-113187210D01*
X122232366Y-113114030D01*
X122582633Y-113089091D01*
X123147111Y-113053450D01*
X123886346Y-113009394D01*
X124760879Y-112959208D01*
X125731256Y-112905181D01*
X126758020Y-112849598D01*
X127190500Y-112826661D01*
X128183220Y-112771515D01*
X129095101Y-112715446D01*
X129895030Y-112660790D01*
X130551892Y-112609885D01*
X131034577Y-112565070D01*
X131311969Y-112528680D01*
X131365939Y-112512946D01*
X131389217Y-112353116D01*
X131364308Y-111993827D01*
X131296225Y-111483989D01*
X131207189Y-110963622D01*
X131067726Y-110190036D01*
X130981800Y-109627310D01*
X130949670Y-109237956D01*
X130971597Y-108984485D01*
X131047839Y-108829407D01*
X131178656Y-108735233D01*
X131222750Y-108715640D01*
X131402097Y-108680343D01*
X131800030Y-108625173D01*
X132382215Y-108553649D01*
X133114319Y-108469294D01*
X133962007Y-108375629D01*
X134890946Y-108276176D01*
X135866800Y-108174454D01*
X136855237Y-108073988D01*
X137821922Y-107978296D01*
X138732521Y-107890902D01*
X139552701Y-107815326D01*
X140248127Y-107755090D01*
X140784466Y-107713715D01*
X141127382Y-107694723D01*
X141184754Y-107693899D01*
X141493272Y-107736336D01*
X141676341Y-107835850D01*
X141678422Y-107839054D01*
X141727301Y-108006522D01*
X141807223Y-108380702D01*
X141909673Y-108917406D01*
X142026136Y-109572445D01*
X142121214Y-110137018D01*
X142239554Y-110844464D01*
X142346224Y-111459402D01*
X142433701Y-111940247D01*
X142494460Y-112245411D01*
X142518866Y-112335199D01*
X142644319Y-112315727D01*
X142982883Y-112247689D01*
X143499975Y-112138762D01*
X144161012Y-111996622D01*
X144931409Y-111828945D01*
X145776584Y-111643409D01*
X146661952Y-111447689D01*
X147552930Y-111249463D01*
X148414934Y-111056405D01*
X149213382Y-110876194D01*
X149913688Y-110716504D01*
X150481271Y-110585014D01*
X150881545Y-110489398D01*
X151079928Y-110437334D01*
X151094455Y-110431697D01*
X151076280Y-110308592D01*
X151007717Y-109981597D01*
X150898290Y-109493656D01*
X150757519Y-108887713D01*
X150674222Y-108536593D01*
X150518939Y-107854091D01*
X150392421Y-107235207D01*
X150304451Y-106732954D01*
X150264814Y-106400346D01*
X150265266Y-106320882D01*
X150322841Y-106103900D01*
X150478540Y-105982590D01*
X150483224Y-105981500D01*
X155242941Y-105981500D01*
X156000625Y-106136384D01*
X156426872Y-106228032D01*
X156757705Y-106307365D01*
X156896904Y-106348608D01*
X157147093Y-106413055D01*
X157176077Y-106415973D01*
X157266259Y-106307842D01*
X157439389Y-105999710D01*
X157678732Y-105525198D01*
X157967552Y-104917927D01*
X158289113Y-104211517D01*
X158415768Y-103925540D01*
X158734722Y-103186317D01*
X159008348Y-102525755D01*
X159223123Y-101978748D01*
X159365527Y-101580192D01*
X159422038Y-101364981D01*
X159418190Y-101338542D01*
X159229651Y-101237724D01*
X158884784Y-101105676D01*
X158451884Y-100962774D01*
X157999247Y-100829392D01*
X157595167Y-100725905D01*
X157307939Y-100672688D01*
X157208749Y-100679389D01*
X157140114Y-100822157D01*
X157000352Y-101168268D01*
X156803218Y-101681667D01*
X156562466Y-102326297D01*
X156291851Y-103066104D01*
X156179259Y-103378000D01*
X155242941Y-105981500D01*
X150483224Y-105981500D01*
X150804470Y-105906748D01*
X150876000Y-105895663D01*
X151269457Y-105855241D01*
X151818000Y-105822571D01*
X152422726Y-105803057D01*
X152619322Y-105800413D01*
X153176566Y-105791148D01*
X153536928Y-105765513D01*
X153757504Y-105710487D01*
X153895391Y-105613051D01*
X153989740Y-105487904D01*
X154081838Y-105297089D01*
X154240184Y-104917212D01*
X154448452Y-104392030D01*
X154690313Y-103765301D01*
X154949441Y-103080782D01*
X155209509Y-102382229D01*
X155454188Y-101713399D01*
X155667152Y-101118050D01*
X155832074Y-100639939D01*
X155932625Y-100322822D01*
X155956000Y-100218354D01*
X155845942Y-100123642D01*
X155557695Y-99980300D01*
X155162250Y-99822610D01*
X154226204Y-99442232D01*
X153300850Y-98992313D01*
X152490783Y-98524893D01*
X152298650Y-98397818D01*
X151952276Y-98179434D01*
X151707365Y-98096772D01*
X151468042Y-98125638D01*
X151358949Y-98160702D01*
X150584203Y-98304951D01*
X149820649Y-98197769D01*
X149078674Y-97841723D01*
X148619132Y-97483711D01*
X148325880Y-97225643D01*
X148166041Y-97123674D01*
X148085963Y-97162080D01*
X148035341Y-97312620D01*
X147993754Y-97592007D01*
X147965141Y-98020390D01*
X147956734Y-98393250D01*
X147934465Y-98891761D01*
X147858530Y-99212906D01*
X147711226Y-99430756D01*
X147707998Y-99434001D01*
X147321453Y-99683378D01*
X146732049Y-99889449D01*
X145988194Y-100046058D01*
X145138296Y-100147049D01*
X144230765Y-100186266D01*
X143314009Y-100157554D01*
X142610794Y-100082169D01*
X142035395Y-99983761D01*
X141318254Y-99840338D01*
X140562765Y-99673403D01*
X140042028Y-99547936D01*
X138537788Y-99169357D01*
X136483644Y-99744208D01*
X133987983Y-100378797D01*
X131502233Y-100886940D01*
X129071356Y-101261999D01*
X126740315Y-101497336D01*
X124554074Y-101586316D01*
X124015500Y-101584665D01*
X123289686Y-101571373D01*
X122776122Y-101539753D01*
X122433063Y-101469515D01*
X122218768Y-101340368D01*
X122091491Y-101132022D01*
X122009491Y-100824187D01*
X121965543Y-100588238D01*
X121832691Y-100032410D01*
X121636554Y-99664703D01*
X121323030Y-99435307D01*
X120838016Y-99294412D01*
X120500749Y-99239681D01*
X120087439Y-99197182D01*
X119552609Y-99163752D01*
X118952202Y-99140216D01*
X118342159Y-99127399D01*
X117778424Y-99126124D01*
X117316938Y-99137216D01*
X117013643Y-99161500D01*
X116925206Y-99187000D01*
X113852066Y-99187000D01*
X114040904Y-99123841D01*
X114663974Y-98911970D01*
X115170507Y-98736127D01*
X115514302Y-98612290D01*
X115633500Y-98565056D01*
X115950230Y-98473133D01*
X116452222Y-98386174D01*
X117070743Y-98310488D01*
X117737058Y-98252381D01*
X118382432Y-98218160D01*
X118938133Y-98214133D01*
X119245438Y-98233622D01*
X120015000Y-98322939D01*
X120015000Y-95383350D01*
X119665750Y-95435218D01*
X119366138Y-95482316D01*
X118912984Y-95556444D01*
X118403101Y-95641761D01*
X118391018Y-95643807D01*
X117904662Y-95719716D01*
X117592897Y-95740976D01*
X117381087Y-95701952D01*
X117194597Y-95597005D01*
X117127854Y-95548412D01*
X116784328Y-95140833D01*
X116639869Y-94649164D01*
X117485955Y-94649164D01*
X117564801Y-94841249D01*
X117633750Y-94862935D01*
X117819887Y-94845326D01*
X118197585Y-94802538D01*
X118706455Y-94741583D01*
X119126000Y-94689652D01*
X119689942Y-94625365D01*
X120164779Y-94583197D01*
X120491141Y-94567715D01*
X120601995Y-94576066D01*
X120720155Y-94749549D01*
X120810550Y-95161697D01*
X120871473Y-95798519D01*
X120901215Y-96646019D01*
X120904000Y-97049711D01*
X120915668Y-97692640D01*
X120952670Y-98107193D01*
X121018003Y-98318009D01*
X121062750Y-98354878D01*
X121297861Y-98416951D01*
X121590091Y-98485166D01*
X122007678Y-98685700D01*
X122394257Y-99051270D01*
X122671401Y-99497375D01*
X122745645Y-99730186D01*
X122808898Y-100057045D01*
X122872644Y-100288119D01*
X122977282Y-100439909D01*
X123163211Y-100528915D01*
X123470828Y-100571637D01*
X123940532Y-100584575D01*
X124612721Y-100584230D01*
X124836102Y-100584000D01*
X125647089Y-100574207D01*
X126504677Y-100547467D01*
X127312298Y-100507730D01*
X127973386Y-100458952D01*
X128034293Y-100453076D01*
X130172387Y-100175242D01*
X132468704Y-99754814D01*
X134877847Y-99201034D01*
X136988635Y-98630004D01*
X138531771Y-98184108D01*
X140290635Y-98628244D01*
X141637502Y-98942186D01*
X142792377Y-99151421D01*
X143792990Y-99259610D01*
X144677072Y-99270418D01*
X145482351Y-99187508D01*
X145680823Y-99151574D01*
X146197296Y-99031024D01*
X146611070Y-98899069D01*
X146857056Y-98777474D01*
X146887007Y-98748239D01*
X146950354Y-98549551D01*
X147015734Y-98155745D01*
X147075095Y-97625504D01*
X147117318Y-97070120D01*
X147157459Y-96477684D01*
X147200120Y-95978800D01*
X147240056Y-95627858D01*
X147270531Y-95481297D01*
X147472422Y-95358147D01*
X147794119Y-95451516D01*
X148237955Y-95762621D01*
X148783906Y-96270069D01*
X149363247Y-96814716D01*
X149843282Y-97164410D01*
X150264346Y-97336369D01*
X150666772Y-97347812D01*
X151045426Y-97235489D01*
X151413694Y-97009191D01*
X151673049Y-96668588D01*
X151827613Y-96189520D01*
X151881506Y-95547825D01*
X151838850Y-94719343D01*
X151703767Y-93679912D01*
X151678758Y-93522627D01*
X151597015Y-92973492D01*
X151543336Y-92522656D01*
X151523482Y-92225370D01*
X151534220Y-92136446D01*
X151690289Y-92070166D01*
X152003261Y-91983517D01*
X152160211Y-91947555D01*
X152717500Y-91827368D01*
X152082500Y-91892546D01*
X151774202Y-91927006D01*
X151259105Y-91987768D01*
X150582412Y-92069359D01*
X149789327Y-92166307D01*
X148925055Y-92273140D01*
X148463000Y-92330721D01*
X146010166Y-92624382D01*
X143730216Y-92868158D01*
X141567004Y-93065314D01*
X139464388Y-93219117D01*
X137366223Y-93332833D01*
X135216366Y-93409728D01*
X132958673Y-93453067D01*
X130536999Y-93466117D01*
X129032000Y-93461075D01*
X127709099Y-93453955D01*
X126363021Y-93448398D01*
X125036328Y-93444466D01*
X123771582Y-93442220D01*
X122611347Y-93441723D01*
X121598184Y-93443036D01*
X120774657Y-93446222D01*
X120440173Y-93448597D01*
X117753847Y-93472000D01*
X117614423Y-93871951D01*
X117502116Y-94306577D01*
X117485955Y-94649164D01*
X116639869Y-94649164D01*
X116624468Y-94596747D01*
X116635044Y-94150053D01*
X116646564Y-93861630D01*
X116529955Y-93721079D01*
X116353931Y-93662447D01*
X116116739Y-93636190D01*
X115675741Y-93618212D01*
X115081025Y-93609396D01*
X114382675Y-93610621D01*
X113841894Y-93618253D01*
X112970204Y-93632608D01*
X112319996Y-93628669D01*
X111858807Y-93593479D01*
X111554175Y-93514085D01*
X111373638Y-93377530D01*
X111284734Y-93170862D01*
X111254999Y-92881124D01*
X111252000Y-92584703D01*
X111252000Y-91855507D01*
X110689221Y-91640581D01*
X110219561Y-91417044D01*
X109611964Y-91063353D01*
X108919961Y-90616250D01*
X108197084Y-90112481D01*
X107496867Y-89588789D01*
X106872840Y-89081918D01*
X106570772Y-88813702D01*
X105636045Y-87947500D01*
X105394136Y-86677500D01*
X105277301Y-86034756D01*
X105141968Y-85244480D01*
X105005554Y-84410585D01*
X104893891Y-83693000D01*
X104788587Y-83038921D01*
X104682433Y-82457030D01*
X104586502Y-82003181D01*
X104511863Y-81733227D01*
X104499797Y-81704859D01*
X104425541Y-81440515D01*
X104448123Y-81295170D01*
X104465451Y-81124436D01*
X104453604Y-80752951D01*
X104415647Y-80231910D01*
X104354645Y-79612507D01*
X104339032Y-79473310D01*
X104235555Y-78510712D01*
X104131925Y-77436018D01*
X104029745Y-76275805D01*
X103930618Y-75056650D01*
X103836148Y-73805130D01*
X103747938Y-72547821D01*
X103712926Y-72009000D01*
X104513926Y-72009000D01*
X104583580Y-72802750D01*
X104617536Y-73197959D01*
X104667020Y-73784721D01*
X104726881Y-74501433D01*
X104791967Y-75286491D01*
X104837614Y-75840503D01*
X104910483Y-76706413D01*
X104989745Y-77613321D01*
X105067923Y-78477848D01*
X105137537Y-79216614D01*
X105168326Y-79527890D01*
X105314659Y-80971273D01*
X107362579Y-80920955D01*
X108055795Y-80901490D01*
X108654428Y-80880059D01*
X109114869Y-80858594D01*
X109393513Y-80839027D01*
X109456562Y-80828172D01*
X109528429Y-80655239D01*
X109615844Y-80287055D01*
X109709222Y-79781126D01*
X109798975Y-79194956D01*
X109875519Y-78586048D01*
X109929267Y-78011906D01*
X109931685Y-77978000D01*
X109937639Y-76578250D01*
X109746464Y-75330911D01*
X109354327Y-74223607D01*
X108757393Y-73243965D01*
X108300107Y-72713108D01*
X107618124Y-72009000D01*
X104513926Y-72009000D01*
X103712926Y-72009000D01*
X103667590Y-71311301D01*
X103596710Y-70122145D01*
X103536900Y-69006932D01*
X103489763Y-67992237D01*
X103456902Y-67104638D01*
X103439922Y-66370711D01*
X103440140Y-66130733D01*
X104186015Y-66130733D01*
X104191095Y-66153347D01*
X104216049Y-66347618D01*
X104246681Y-66745384D01*
X104279783Y-67296297D01*
X104312144Y-67950006D01*
X104325537Y-68262500D01*
X104357956Y-68974813D01*
X104394112Y-69634857D01*
X104430301Y-70182896D01*
X104462814Y-70559193D01*
X104473290Y-70643750D01*
X104543326Y-71120000D01*
X108070528Y-71120000D01*
X108811642Y-71850250D01*
X109594278Y-72754688D01*
X110173685Y-73743951D01*
X110585443Y-74880889D01*
X110636251Y-75073205D01*
X110751983Y-75577150D01*
X110823800Y-76036361D01*
X110857508Y-76528301D01*
X110858911Y-77130435D01*
X110839220Y-77781997D01*
X110783523Y-78660452D01*
X110688661Y-79524451D01*
X110563847Y-80318033D01*
X110418292Y-80985238D01*
X110261211Y-81470105D01*
X110216324Y-81565750D01*
X110128260Y-81668287D01*
X109960911Y-81734175D01*
X109665879Y-81771049D01*
X109194763Y-81786545D01*
X108802781Y-81788761D01*
X108101579Y-81797861D01*
X107352505Y-81821471D01*
X106682826Y-81855174D01*
X106479786Y-81869385D01*
X105454072Y-81949248D01*
X105686711Y-83455105D01*
X105809308Y-84217559D01*
X105951032Y-85051199D01*
X106090661Y-85833041D01*
X106167172Y-86239383D01*
X106282899Y-86818294D01*
X106382798Y-87213703D01*
X106498756Y-87491584D01*
X106662662Y-87717915D01*
X106906404Y-87958669D01*
X107069494Y-88106256D01*
X107675326Y-88626209D01*
X108333694Y-89149361D01*
X109006840Y-89649936D01*
X109657003Y-90102157D01*
X110246426Y-90480246D01*
X110737350Y-90758428D01*
X111092014Y-90910925D01*
X111208770Y-90932000D01*
X111252238Y-90892661D01*
X111287961Y-90760836D01*
X111316628Y-90515814D01*
X111338927Y-90136882D01*
X111355544Y-89603328D01*
X111367167Y-88894439D01*
X111374485Y-87989504D01*
X111378184Y-86867810D01*
X111379000Y-85804050D01*
X111380435Y-84483071D01*
X111385199Y-83394952D01*
X111393978Y-82518567D01*
X111407461Y-81832788D01*
X111426335Y-81316490D01*
X111451285Y-80948546D01*
X111483001Y-80707830D01*
X111522168Y-80573215D01*
X111550432Y-80533824D01*
X111808619Y-80454266D01*
X112264517Y-80493272D01*
X112319472Y-80503192D01*
X112990551Y-80544672D01*
X113661882Y-80443965D01*
X114223045Y-80218762D01*
X114267268Y-80191109D01*
X114550465Y-79899589D01*
X114845049Y-79411195D01*
X115123795Y-78780099D01*
X115359477Y-78060475D01*
X115384047Y-77968932D01*
X115547772Y-76891863D01*
X115490043Y-75821807D01*
X115225960Y-74798040D01*
X114770625Y-73859838D01*
X114139139Y-73046477D01*
X113346603Y-72397234D01*
X113209571Y-72313381D01*
X112950309Y-72172446D01*
X112705607Y-72079598D01*
X112414511Y-72025437D01*
X112016068Y-72000564D01*
X111449323Y-71995579D01*
X111158381Y-71997073D01*
X110556377Y-71992574D01*
X110040717Y-71972622D01*
X109668470Y-71940482D01*
X109500550Y-71902225D01*
X109424883Y-71742984D01*
X109320122Y-71359041D01*
X109192183Y-70777269D01*
X109046981Y-70024540D01*
X108892616Y-69140791D01*
X108726817Y-68179167D01*
X108587862Y-67445252D01*
X108470087Y-66914842D01*
X108367828Y-66563734D01*
X108275420Y-66367725D01*
X108232873Y-66321604D01*
X107944632Y-66170377D01*
X107494528Y-66002602D01*
X106971083Y-65844422D01*
X106462821Y-65721982D01*
X106058264Y-65661425D01*
X105989303Y-65659000D01*
X105629709Y-65684633D01*
X105154157Y-65750294D01*
X104856867Y-65804097D01*
X104438784Y-65904645D01*
X104229804Y-66005845D01*
X104186015Y-66130733D01*
X103440140Y-66130733D01*
X103440425Y-65817033D01*
X103460016Y-65470181D01*
X103487721Y-65362319D01*
X103751505Y-65199213D01*
X104208059Y-65068158D01*
X104797683Y-64973373D01*
X105460675Y-64919077D01*
X106137336Y-64909490D01*
X106767965Y-64948830D01*
X107292862Y-65041317D01*
X107431063Y-65083641D01*
X107960061Y-65270282D01*
X107890850Y-64861391D01*
X107768067Y-64101282D01*
X107726139Y-63785243D01*
X109019423Y-63785243D01*
X109024436Y-63920636D01*
X109067346Y-64274592D01*
X109143460Y-64815270D01*
X109248089Y-65510830D01*
X109376543Y-66329429D01*
X109524131Y-67239227D01*
X109561553Y-67465649D01*
X110162272Y-71087467D01*
X111564386Y-71071983D01*
X112191314Y-71069276D01*
X112629778Y-71084923D01*
X112945206Y-71129967D01*
X113203030Y-71215450D01*
X113468679Y-71352413D01*
X113568073Y-71410120D01*
X114458341Y-72068014D01*
X115240620Y-72911936D01*
X115858313Y-73879169D01*
X115933367Y-74031212D01*
X116157929Y-74532039D01*
X116299333Y-74947512D01*
X116380592Y-75376815D01*
X116424717Y-75919135D01*
X116437741Y-76205209D01*
X116416390Y-77124757D01*
X116290452Y-78050103D01*
X116075543Y-78931303D01*
X115787277Y-79718411D01*
X115441273Y-80361480D01*
X115053145Y-80810567D01*
X114980240Y-80866785D01*
X114462603Y-81150290D01*
X113835787Y-81372294D01*
X113210589Y-81500295D01*
X112779027Y-81512522D01*
X112268000Y-81463787D01*
X112268000Y-83256206D01*
X112270971Y-83862598D01*
X112279355Y-84669597D01*
X112292354Y-85623886D01*
X112309169Y-86672147D01*
X112329005Y-87761064D01*
X112351063Y-88837318D01*
X112352359Y-88896663D01*
X112436719Y-92744701D01*
X116003609Y-92662246D01*
X117097084Y-92636050D01*
X118257900Y-92606636D01*
X119417347Y-92575857D01*
X120506715Y-92545565D01*
X121457294Y-92517611D01*
X121986489Y-92500976D01*
X124402479Y-92422162D01*
X122081778Y-79135831D01*
X121766515Y-77332276D01*
X121462979Y-75598463D01*
X121174077Y-73950858D01*
X120902716Y-72405929D01*
X120651806Y-70980144D01*
X120424253Y-69689970D01*
X120222967Y-68551875D01*
X120050855Y-67582326D01*
X119910825Y-66797791D01*
X119805785Y-66214737D01*
X119738644Y-65849632D01*
X119712541Y-65719459D01*
X119588512Y-65675862D01*
X120722599Y-65675862D01*
X120739970Y-65802032D01*
X120797619Y-66158666D01*
X120892130Y-66726016D01*
X121020085Y-67484331D01*
X121178066Y-68413862D01*
X121362658Y-69494861D01*
X121570441Y-70707578D01*
X121798000Y-72032265D01*
X122041916Y-73449171D01*
X122298774Y-74938548D01*
X122565154Y-76480646D01*
X122837641Y-78055717D01*
X123112817Y-79644011D01*
X123387265Y-81225779D01*
X123657567Y-82781272D01*
X123920306Y-84290741D01*
X124172066Y-85734436D01*
X124409428Y-87092609D01*
X124628976Y-88345509D01*
X124827292Y-89473389D01*
X125000960Y-90456499D01*
X125146561Y-91275089D01*
X125260679Y-91909410D01*
X125283868Y-92036770D01*
X125344434Y-92275541D01*
X125460931Y-92402689D01*
X125705039Y-92462282D01*
X126020289Y-92489527D01*
X126540162Y-92514607D01*
X127272155Y-92533797D01*
X128174461Y-92547235D01*
X129205271Y-92555059D01*
X130322777Y-92557408D01*
X131485170Y-92554421D01*
X132650644Y-92546235D01*
X133777389Y-92532989D01*
X134823599Y-92514822D01*
X135747463Y-92491871D01*
X136507175Y-92464275D01*
X136715500Y-92454132D01*
X139849202Y-92258222D01*
X142989370Y-91999710D01*
X145201635Y-91773416D01*
X153017376Y-91773416D01*
X153186061Y-91795403D01*
X153225500Y-91796241D01*
X153442393Y-91782514D01*
X153461489Y-91742757D01*
X153450167Y-91737696D01*
X153198048Y-91712572D01*
X153069167Y-91732990D01*
X153017376Y-91773416D01*
X145201635Y-91773416D01*
X146174217Y-91673930D01*
X146400280Y-91646416D01*
X153779376Y-91646416D01*
X153948061Y-91668403D01*
X153987500Y-91669241D01*
X154204393Y-91655514D01*
X154223489Y-91615757D01*
X154212167Y-91610696D01*
X153960048Y-91585572D01*
X153831167Y-91605990D01*
X153779376Y-91646416D01*
X146400280Y-91646416D01*
X147363003Y-91529244D01*
X154638295Y-91529244D01*
X154813000Y-91546947D01*
X154993293Y-91526989D01*
X154971750Y-91482890D01*
X154711736Y-91466116D01*
X154654250Y-91482890D01*
X154638295Y-91529244D01*
X147363003Y-91529244D01*
X148487226Y-91392416D01*
X155430376Y-91392416D01*
X155599061Y-91414403D01*
X155638500Y-91415241D01*
X155855393Y-91401514D01*
X155874489Y-91361757D01*
X155863167Y-91356696D01*
X155611048Y-91331572D01*
X155482167Y-91351990D01*
X155430376Y-91392416D01*
X148487226Y-91392416D01*
X149441956Y-91276217D01*
X149519126Y-91265416D01*
X156192376Y-91265416D01*
X156361061Y-91287403D01*
X156400500Y-91288241D01*
X156617393Y-91274514D01*
X156636489Y-91234757D01*
X156625167Y-91229696D01*
X156373048Y-91204572D01*
X156244167Y-91224990D01*
X156192376Y-91265416D01*
X149519126Y-91265416D01*
X150426512Y-91138416D01*
X156954376Y-91138416D01*
X157123061Y-91160403D01*
X157162500Y-91161241D01*
X157379393Y-91147514D01*
X157398489Y-91107757D01*
X157387167Y-91102696D01*
X157135048Y-91077572D01*
X157006167Y-91097990D01*
X156954376Y-91138416D01*
X150426512Y-91138416D01*
X151143269Y-91038097D01*
X157720947Y-91038097D01*
X157858653Y-91041914D01*
X158218791Y-91002848D01*
X158809539Y-90919946D01*
X159639073Y-90792254D01*
X159982701Y-90737547D01*
X160855180Y-90595690D01*
X161503714Y-90484661D01*
X161955691Y-90398571D01*
X162238496Y-90331531D01*
X162379519Y-90277652D01*
X162406146Y-90231046D01*
X162396806Y-90218472D01*
X162264860Y-90224838D01*
X161931329Y-90268623D01*
X161444510Y-90341703D01*
X160852700Y-90435950D01*
X160204198Y-90543237D01*
X159547299Y-90655439D01*
X158930302Y-90764429D01*
X158401505Y-90862080D01*
X158009203Y-90940266D01*
X157801697Y-90990860D01*
X157797500Y-90992349D01*
X157720947Y-91038097D01*
X151143269Y-91038097D01*
X152830802Y-90801906D01*
X156378969Y-90246332D01*
X160124670Y-89604832D01*
X160274000Y-89578236D01*
X161053156Y-89438382D01*
X161742604Y-89312914D01*
X162304980Y-89208772D01*
X162702917Y-89132899D01*
X162899051Y-89092236D01*
X162912885Y-89087995D01*
X162892232Y-88963757D01*
X162824361Y-88610575D01*
X162713326Y-88048276D01*
X162563184Y-87296687D01*
X162377989Y-86375635D01*
X162161795Y-85304948D01*
X161918658Y-84104452D01*
X161652633Y-82793975D01*
X161367775Y-81393343D01*
X161068139Y-79922383D01*
X160757780Y-78400924D01*
X160440752Y-76848791D01*
X160121111Y-75285812D01*
X159802912Y-73731814D01*
X159490210Y-72206624D01*
X159187059Y-70730069D01*
X158897516Y-69321977D01*
X158625634Y-68002173D01*
X158375468Y-66790487D01*
X158151075Y-65706743D01*
X157956508Y-64770770D01*
X157795823Y-64002395D01*
X157673075Y-63421444D01*
X157592318Y-63047746D01*
X157557608Y-62901126D01*
X157556933Y-62899790D01*
X157428597Y-62904685D01*
X157064183Y-62927707D01*
X156480867Y-62967562D01*
X155695829Y-63022957D01*
X154726245Y-63092595D01*
X153589292Y-63175182D01*
X152302150Y-63269424D01*
X150881995Y-63374027D01*
X149346005Y-63487695D01*
X147711358Y-63609133D01*
X145995231Y-63737049D01*
X144214802Y-63870145D01*
X142387249Y-64007129D01*
X140529749Y-64146705D01*
X138659481Y-64287579D01*
X136793621Y-64428456D01*
X134949348Y-64568042D01*
X133143838Y-64705041D01*
X131394271Y-64838160D01*
X129717823Y-64966104D01*
X128131672Y-65087577D01*
X126652996Y-65201287D01*
X125298973Y-65305937D01*
X124086779Y-65400233D01*
X123033594Y-65482880D01*
X122156594Y-65552585D01*
X121472957Y-65608052D01*
X120999861Y-65647987D01*
X120754483Y-65671095D01*
X120722599Y-65675862D01*
X119588512Y-65675862D01*
X119583137Y-65673973D01*
X119234801Y-65591859D01*
X118699050Y-65478818D01*
X118007398Y-65340551D01*
X117191363Y-65182758D01*
X116282459Y-65011139D01*
X115312204Y-64831397D01*
X114312113Y-64649231D01*
X113313703Y-64470342D01*
X112348488Y-64300431D01*
X111447987Y-64145199D01*
X110643714Y-64010346D01*
X109967185Y-63901574D01*
X109449917Y-63824583D01*
X109123426Y-63785073D01*
X109019423Y-63785243D01*
X107726139Y-63785243D01*
X107695270Y-63552569D01*
X107669852Y-63178153D01*
X107674601Y-63119950D01*
X111252000Y-63119950D01*
X111387410Y-63148115D01*
X111743936Y-63216300D01*
X112292776Y-63319158D01*
X113005130Y-63451344D01*
X113852196Y-63607508D01*
X114805175Y-63782305D01*
X115697000Y-63945190D01*
X117145727Y-64204037D01*
X118349786Y-64407723D01*
X119312341Y-64556719D01*
X120036557Y-64651495D01*
X120525596Y-64692521D01*
X120713500Y-64691054D01*
X120915430Y-64675407D01*
X121355368Y-64642177D01*
X122018010Y-64592501D01*
X122888054Y-64527517D01*
X123950197Y-64448361D01*
X125189138Y-64356171D01*
X126589574Y-64252084D01*
X128136202Y-64137237D01*
X129813720Y-64012766D01*
X131606826Y-63879810D01*
X133500217Y-63739505D01*
X135478591Y-63592988D01*
X137526645Y-63441396D01*
X138493500Y-63369861D01*
X140566976Y-63216239D01*
X142576796Y-63066881D01*
X144507749Y-62922939D01*
X146344625Y-62785567D01*
X148072215Y-62655916D01*
X149675308Y-62535140D01*
X151138696Y-62424390D01*
X152447169Y-62324818D01*
X153585516Y-62237578D01*
X154538528Y-62163822D01*
X155290996Y-62104702D01*
X155827710Y-62061371D01*
X156133459Y-62034981D01*
X156193019Y-62028761D01*
X156747539Y-61956006D01*
X156272461Y-61633182D01*
X155498317Y-61204543D01*
X154530760Y-60827722D01*
X153428702Y-60525407D01*
X153351602Y-60508394D01*
X153028701Y-60447619D01*
X152649424Y-60396498D01*
X152185862Y-60353613D01*
X151610108Y-60317541D01*
X150894252Y-60286864D01*
X150010387Y-60260161D01*
X148930605Y-60236011D01*
X147626997Y-60212995D01*
X147510500Y-60211133D01*
X142684500Y-60134500D01*
X142644988Y-59792235D01*
X142628363Y-59655764D01*
X142639426Y-59554421D01*
X142714328Y-59471667D01*
X142889222Y-59390964D01*
X143200261Y-59295773D01*
X143683595Y-59169557D01*
X144375377Y-58995777D01*
X144399000Y-58989839D01*
X145001875Y-58818048D01*
X145421720Y-58633323D01*
X145727460Y-58390575D01*
X145988020Y-58044716D01*
X146082836Y-57888333D01*
X146334836Y-57415693D01*
X146527958Y-56939362D01*
X146671162Y-56412967D01*
X146773408Y-55790132D01*
X146843655Y-55024483D01*
X146890864Y-54069645D01*
X146905062Y-53632686D01*
X146972410Y-51321872D01*
X146602320Y-50951782D01*
X146197524Y-50685824D01*
X145601457Y-50477044D01*
X144873393Y-50340873D01*
X144072608Y-50292746D01*
X144071097Y-50292748D01*
X143453858Y-50327257D01*
X142704354Y-50421404D01*
X141872122Y-50563539D01*
X141006704Y-50742008D01*
X140157638Y-50945158D01*
X139374464Y-51161337D01*
X138706720Y-51378892D01*
X138203948Y-51586171D01*
X137962798Y-51729546D01*
X137634674Y-51987649D01*
X137723364Y-53394074D01*
X137838744Y-54692639D01*
X138014723Y-55805382D01*
X138263305Y-56795786D01*
X138493493Y-57467500D01*
X138691969Y-57988994D01*
X138882854Y-58492814D01*
X139021295Y-58860485D01*
X139141871Y-59424833D01*
X139087126Y-59940713D01*
X138866140Y-60336330D01*
X138830278Y-60371053D01*
X138734254Y-60425198D01*
X138555398Y-60477726D01*
X138272842Y-60530921D01*
X137865717Y-60587064D01*
X137313157Y-60648438D01*
X136594292Y-60717326D01*
X135688256Y-60796010D01*
X134574180Y-60886774D01*
X133231197Y-60991898D01*
X132971062Y-61011944D01*
X131797930Y-61100657D01*
X130700933Y-61180699D01*
X129706399Y-61250360D01*
X128840658Y-61307930D01*
X128130041Y-61351699D01*
X127600875Y-61379958D01*
X127279491Y-61390997D01*
X127191375Y-61387262D01*
X127076954Y-61239898D01*
X126932970Y-60917265D01*
X126782292Y-60492624D01*
X126647789Y-60039237D01*
X126552331Y-59630364D01*
X126518786Y-59339266D01*
X126529584Y-59267238D01*
X126699471Y-59110703D01*
X126955347Y-59032409D01*
X127307655Y-58872287D01*
X127664646Y-58497187D01*
X128007094Y-57945005D01*
X128315771Y-57253635D01*
X128571449Y-56460973D01*
X128754901Y-55604912D01*
X128780385Y-55435500D01*
X128810371Y-54936114D01*
X128790294Y-54321921D01*
X128729092Y-53674106D01*
X128635703Y-53073852D01*
X128519065Y-52602344D01*
X128449475Y-52429680D01*
X128130857Y-52020820D01*
X127606936Y-51649458D01*
X126862623Y-51301922D01*
X126163031Y-51116136D01*
X125272782Y-51027259D01*
X124236238Y-51035849D01*
X123097760Y-51142468D01*
X122428000Y-51245945D01*
X121645080Y-51412177D01*
X121070703Y-51615681D01*
X120659431Y-51890676D01*
X120365824Y-52271383D01*
X120144443Y-52792020D01*
X120074170Y-53018599D01*
X119947688Y-53763573D01*
X119939485Y-54648919D01*
X120036790Y-55609735D01*
X120226832Y-56581122D01*
X120496839Y-57498179D01*
X120834042Y-58296007D01*
X121225669Y-58909704D01*
X121235794Y-58921827D01*
X121449934Y-59129341D01*
X121712655Y-59256752D01*
X122106938Y-59336846D01*
X122364602Y-59367824D01*
X122803743Y-59423012D01*
X123096629Y-59505240D01*
X123329877Y-59663357D01*
X123590105Y-59946212D01*
X123762876Y-60156397D01*
X124062472Y-60567311D01*
X124265948Y-60931815D01*
X124333000Y-61162141D01*
X124321668Y-61398068D01*
X124301250Y-61474090D01*
X124172870Y-61490341D01*
X123815977Y-61534748D01*
X123254149Y-61604394D01*
X122510963Y-61696365D01*
X121609998Y-61807744D01*
X120574832Y-61935616D01*
X119429045Y-62077065D01*
X118196214Y-62229176D01*
X117729000Y-62286802D01*
X116473934Y-62442225D01*
X115300347Y-62588800D01*
X114231367Y-62723549D01*
X113290123Y-62843499D01*
X112499745Y-62945674D01*
X111883360Y-63027099D01*
X111464098Y-63084799D01*
X111265087Y-63115799D01*
X111252000Y-63119950D01*
X107674601Y-63119950D01*
X107689209Y-62940934D01*
X107746715Y-62808843D01*
X107856375Y-62758470D01*
X108124822Y-62694239D01*
X108563878Y-62614468D01*
X109185365Y-62517471D01*
X110001103Y-62401565D01*
X111022915Y-62265066D01*
X112262622Y-62106289D01*
X113732046Y-61923551D01*
X115316000Y-61730520D01*
X116666948Y-61567607D01*
X117946382Y-61414219D01*
X119131407Y-61273040D01*
X120199128Y-61146755D01*
X121126648Y-61038049D01*
X121891073Y-60949606D01*
X122469507Y-60884113D01*
X122839054Y-60844253D01*
X122973678Y-60832513D01*
X123122432Y-60817748D01*
X123114821Y-60728461D01*
X122973678Y-60529009D01*
X122779194Y-60340737D01*
X122499550Y-60232668D01*
X122053480Y-60174540D01*
X122013837Y-60171553D01*
X121547334Y-60114165D01*
X121219820Y-59994364D01*
X120916735Y-59764827D01*
X120828277Y-59681793D01*
X120377335Y-59182672D01*
X120015478Y-58620384D01*
X119726899Y-57953546D01*
X119495789Y-57140773D01*
X119306342Y-56140678D01*
X119206354Y-55435500D01*
X119111911Y-54465231D01*
X119111181Y-53668323D01*
X119211208Y-52979378D01*
X119419039Y-52332999D01*
X119578816Y-51978131D01*
X119831849Y-51530671D01*
X120123093Y-51188525D01*
X120496732Y-50927357D01*
X120996947Y-50722830D01*
X121667920Y-50550606D01*
X122430938Y-50407089D01*
X123985983Y-50212594D01*
X125357691Y-50191451D01*
X126548730Y-50344038D01*
X127561765Y-50670733D01*
X128399462Y-51171917D01*
X128523227Y-51273302D01*
X128892890Y-51624035D01*
X129151640Y-51975851D01*
X129331620Y-52397347D01*
X129464978Y-52957123D01*
X129546057Y-53456031D01*
X129642474Y-54650240D01*
X129559637Y-55790395D01*
X129288733Y-56969616D01*
X129181440Y-57309077D01*
X128803815Y-58275327D01*
X128389830Y-59017076D01*
X127946863Y-59521914D01*
X127801210Y-59630736D01*
X127578868Y-59835207D01*
X127551226Y-60085937D01*
X127570630Y-60176250D01*
X127645253Y-60437268D01*
X127693269Y-60552602D01*
X127824112Y-60552315D01*
X128175707Y-60533774D01*
X128715654Y-60499462D01*
X129411553Y-60451860D01*
X130231002Y-60393451D01*
X131141602Y-60326716D01*
X132110953Y-60254139D01*
X133106655Y-60178200D01*
X134096306Y-60101383D01*
X135047508Y-60026169D01*
X135927859Y-59955040D01*
X136704959Y-59890479D01*
X137346409Y-59834968D01*
X137819807Y-59790989D01*
X138092754Y-59761023D01*
X138144250Y-59751966D01*
X138276384Y-59618166D01*
X138275540Y-59336157D01*
X138138282Y-58883519D01*
X137938017Y-58405816D01*
X137466511Y-57107479D01*
X137131558Y-55625602D01*
X136939735Y-53994869D01*
X136895352Y-52907799D01*
X136901323Y-52269279D01*
X136958020Y-51774579D01*
X137095893Y-51392354D01*
X137345395Y-51091258D01*
X137736979Y-50839944D01*
X138301096Y-50607066D01*
X139068199Y-50361278D01*
X139489368Y-50237636D01*
X141024250Y-49852119D01*
X142446788Y-49624982D01*
X143834435Y-49545807D01*
X144539015Y-49558435D01*
G37*
%TD*%
M02*
