<?xml version="1.0" encoding="UTF-8" standalone="no"?>
<!-- Created with Inkscape (http://www.inkscape.org/) -->

<svg
   width="98.0mm"
   height="98.0mm"
   viewBox="0 0 98.000000 98.000000"
   version="1.1"
   id="svg8"
   inkscape:version="1.4.2 (f4327f4, 2025-05-13)"
   sodipodi:docname="Seegeist.svg"
   xmlns:inkscape="http://www.inkscape.org/namespaces/inkscape"
   xmlns:sodipodi="http://sodipodi.sourceforge.net/DTD/sodipodi-0.dtd"
   xmlns="http://www.w3.org/2000/svg"
   xmlns:svg="http://www.w3.org/2000/svg"
   xmlns:rdf="http://www.w3.org/1999/02/22-rdf-syntax-ns#"
   xmlns:cc="http://creativecommons.org/ns#"
   xmlns:dc="http://purl.org/dc/elements/1.1/">
  <sodipodi:namedview
     id="base"
     pagecolor="#ffffff"
     bordercolor="#666666"
     borderopacity="1.0"
     inkscape:pageopacity="0.0"
     inkscape:pageshadow="2"
     inkscape:zoom="1.979899"
     inkscape:cx="158.34141"
     inkscape:cy="201.77797"
     inkscape:document-units="mm"
     inkscape:current-layer="g837"
     showgrid="false"
     inkscape:window-width="1920"
     inkscape:window-height="1009"
     inkscape:window-x="-8"
     inkscape:window-y="-8"
     inkscape:window-maximized="1"
     borderlayer="true"
     inkscape:showpageshadow="2"
     inkscape:pagecheckerboard="0"
     inkscape:deskcolor="#d1d1d1"
     showguides="true">
    <inkscape:grid
       spacingx="2.54"
       spacingy="2.54"
       empspacing="1"
       type="xygrid"
       units="mm"
       id="grid816"
       originx="0"
       originy="0"
       visible="false" />
    <sodipodi:guide
       position="-60.135643,90.182365"
       orientation="1,0"
       id="guide1"
       inkscape:locked="false" />
  </sodipodi:namedview>
  <defs
     id="defs2" />
  <metadata
     id="metadata5">
    <rdf:RDF>
      <cc:Work
         rdf:about="">
        <dc:format>image/svg+xml</dc:format>
        <dc:type
           rdf:resource="http://purl.org/dc/dcmitype/StillImage" />
      </cc:Work>
    </rdf:RDF>
  </metadata>
  <g
     style="display:inline"
     inkscape:label="Edge.Cuts"
     inkscape:groupmode="layer"
     id="g825">
    <path
       id="path897-9-8-2"
       style="display:inline;fill:none;fill-opacity:1;stroke:#000000;stroke-width:0.149449;stroke-opacity:1"
       d="M 49.0305 5.1734 L 48.4693 5.20214 L 47.9107 5.24954 L 46.8025 5.39871 L 45.7087 5.61841 L 44.632 5.90617 L 43.5754 6.25936 L 42.5417 6.67538 L 41.5335 7.15186 L 40.554 7.6862 L 39.6055 8.27589 L 38.6911 8.91833 L 37.8136 9.61091 L 36.9757 10.3513 L 36.1804 11.1367 L 35.4303 11.9648 L 34.7283 12.833 L 34.0773 13.7386 L 33.6274 14.3816 L 33.2075 15.0404 L 32.8159 15.7139 L 32.4509 16.4007 L 32.1109 17.0999 L 31.7943 17.8103 L 31.4994 18.5306 L 31.2247 19.2596 L 30.9686 19.9965 L 30.7293 20.7397 L 30.295 22.2411 L 29.9087 23.7545 L 29.5577 25.2706 L 29.3574 26.0137 L 29.0947 26.7567 L 28.9382 27.1206 L 28.7638 27.4755 L 28.5707 27.8184 L 28.3584 28.1463 L 28.1257 28.4564 L 27.8721 28.7452 L 27.5966 29.0102 L 27.2988 29.2482 L 26.9776 29.4562 L 26.6323 29.6313 L 26.2622 29.7704 L 25.8666 29.8705 L 25.1996 30.0117 L 24.5249 30.1318 L 23.8438 30.2256 L 23.158 30.2884 L 22.4689 30.3151 L 21.7782 30.3008 L 21.0872 30.2406 L 20.3976 30.1294 L 19.2798 29.9631 L 18.1601 29.7795 L 15.9142 29.4176 L 14.7878 29.2674 L 13.6587 29.1561 L 12.527 29.0982 L 11.9599 29.0935 L 11.3922 29.1074 L 10.9273 29.2153 L 10.4885 29.3695 L 10.0755 29.5671 L 9.68809 29.8041 L 9.32606 30.0773 L 8.98917 30.3832 L 8.67728 30.7182 L 8.39027 31.079 L 8.12764 31.4619 L 7.88952 31.8637 L 7.67554 32.2807 L 7.48545 32.7094 L 7.31911 33.1466 L 7.17642 33.5884 L 7.05686 34.0317 L 6.96057 34.4729 L 5.82398 39.1303 L 4.74178 43.8012 L 3.70583 48.4823 L 2.70793 53.1701 L 2.68365 53.3895 L 2.67885 53.6071 L 2.72514 54.0334 L 2.84162 54.4413 L 3.0231 54.8229 L 3.26439 55.1701 L 3.56028 55.4753 L 3.9056 55.7305 L 4.09517 55.8368 L 4.29514 55.9276 L 4.8562 56.2367 L 5.42908 56.5305 L 6.01246 56.807 L 6.60489 57.0631 L 7.20491 57.2966 L 7.8114 57.5049 L 8.42274 57.6854 L 9.03769 57.8354 L 9.30541 57.7542 L 9.54975 57.6441 L 9.77281 57.5081 L 9.97672 57.349 L 10.1636 57.1695 L 10.3355 56.9725 L 10.643 56.5372 L 10.9159 56.0659 L 11.171 55.5808 L 11.4253 55.1044 L 11.6955 54.6597 L 13.1171 51.9365 L 13.8024 50.5619 L 14.4683 49.1779 L 13.7067 52.2723 L 12.9582 55.3697 L 12.2559 58.4769 L 11.9325 60.0361 L 11.6332 61.6 L 11.4432 62.2738 L 11.2881 62.9762 L 11.1872 63.6927 L 11.1631 64.0517 L 11.1597 64.4089 L 11.1796 64.7623 L 11.2251 65.1103 L 11.2986 65.4509 L 11.4027 65.7825 L 11.5395 66.1031 L 11.7117 66.4109 L 11.9216 66.7042 L 12.1715 66.9812 L 12.39 67.1914 L 12.6209 67.3871 L 13.1165 67.7346 L 13.6498 68.0244 L 14.2128 68.2578 L 14.7968 68.4356 L 15.3935 68.5587 L 15.9947 68.6281 L 16.5918 68.6449 L 16.8582 68.5573 L 17.107 68.4448 L 17.3395 68.3102 L 17.5577 68.1558 L 17.7633 67.9839 L 17.9576 67.797 L 18.3195 67.3881 L 18.6569 66.9486 L 18.9827 66.498 L 19.3105 66.0558 L 19.6533 65.6415 L 20.3446 64.6772 L 20.9979 63.686 L 21.6112 62.6691 L 22.1824 61.628 L 22.7093 60.5642 L 23.1902 59.479 L 23.623 58.3737 L 24.0054 57.2498 L 23.643 59.166 L 23.2416 61.0709 L 22.8086 62.967 L 22.3519 64.8569 L 21.3972 68.6288 L 20.4385 72.4072 L 20.3044 72.9657 L 20.2202 73.5392 L 20.1939 74.1176 L 20.2334 74.6907 L 20.2803 74.9721 L 20.3466 75.2484 L 20.4332 75.5183 L 20.5412 75.7805 L 20.6715 76.0338 L 20.8252 76.277 L 21.0032 76.5087 L 21.2065 76.7277 L 21.4324 76.977 L 21.6765 77.2028 L 21.9373 77.4051 L 22.2127 77.5838 L 22.5012 77.7392 L 22.801 77.8711 L 23.1103 77.9796 L 23.4273 78.0647 L 23.7503 78.1265 L 24.0776 78.1649 L 24.4073 78.1802 L 24.7378 78.1721 L 25.0672 78.1409 L 25.3939 78.0865 L 25.716 78.009 L 26.032 77.9084 L 26.5208 77.7638 L 26.9851 77.5797 L 27.4256 77.3593 L 27.8437 77.1051 L 28.2401 76.8202 L 28.6161 76.5076 L 28.9728 76.17 L 29.311 75.8105 L 29.632 75.4321 L 29.9369 75.0376 L 30.5021 74.2117 L 31.0152 73.3567 L 31.4847 72.4957 L 32.0447 71.3248 L 32.5739 70.1399 L 33.075 68.9422 L 33.5509 67.7339 L 34.0042 66.5167 L 34.4379 65.2924 L 35.2568 62.8295 L 35.2551 63.0769 L 35.2032 63.5805 L 35.0755 64.6506 L 34.8654 66.3866 L 34.6288 68.1169 L 34.3701 69.8425 L 34.0947 71.5652 L 33.5126 75.0065 L 32.9213 78.4511 L 32.8471 79.0598 L 32.7323 79.6622 L 32.5875 80.2598 L 32.4233 80.8545 L 32.0785 82.0415 L 31.9192 82.6371 L 31.7827 83.2365 L 31.7342 83.5077 L 31.7061 83.7808 L 31.6982 84.0544 L 31.7101 84.327 L 31.7418 84.5974 L 31.793 84.8642 L 31.8634 85.1258 L 31.9527 85.3811 L 32.0608 85.6285 L 32.1875 85.8668 L 32.3323 86.0944 L 32.4951 86.3102 L 32.6759 86.5126 L 32.8741 86.7002 L 33.0897 86.8719 L 33.3222 87.0259 L 33.853 87.3918 L 34.4014 87.7185 L 34.9656 88.0089 L 35.5441 88.2661 L 36.1353 88.4929 L 36.7376 88.6921 L 37.3493 88.8665 L 37.9689 89.0193 L 39.2253 89.2708 L 40.4941 89.47 L 43.0167 89.8033 L 44.5139 89.9054 L 46.0132 89.9713 L 47.5136 90.0054 L 49.015 90.013 L 50.5166 89.9984 L 52.0178 89.9666 L 55.0177 89.8708 L 56.3073 89.7566 L 57.6018 89.6179 L 58.894 89.442 L 60.1771 89.216 L 61.4445 88.9277 L 62.07 88.756 L 62.6889 88.5639 L 63.3005 88.3498 L 63.9038 88.1123 L 64.4979 87.8495 L 65.082 87.56 L 65.3577 87.408 L 65.6256 87.2377 L 65.8837 87.0498 L 66.1302 86.8457 L 66.3629 86.626 L 66.58 86.3917 L 66.7796 86.144 L 66.9594 85.8838 L 67.1176 85.6118 L 67.2522 85.3294 L 67.3613 85.0372 L 67.4428 84.7364 L 67.4948 84.4278 L 67.5152 84.1126 L 67.5021 83.7916 L 67.4536 83.4656 L 67.3254 82.7731 L 67.1575 82.0893 L 66.7675 80.7343 L 66.5772 80.056 L 66.4115 79.3728 L 66.2861 78.6809 L 66.2173 77.9771 L 65.5386 74.1308 L 64.9092 70.279 L 64.6211 68.3503 L 64.3549 66.4194 L 64.1139 64.486 L 63.9012 62.5496 L 64.2729 63.7918 L 64.6748 65.0247 L 65.1051 66.2485 L 65.5614 67.4631 L 66.0415 68.6686 L 66.5432 69.8651 L 67.0646 71.0528 L 67.6035 72.2316 L 68.0652 73.0955 L 68.5676 73.9586 L 69.1197 74.7975 L 69.4173 75.2004 L 69.7307 75.5884 L 70.0611 75.9585 L 70.4094 76.3078 L 70.7772 76.6334 L 71.1652 76.9322 L 71.5746 77.2013 L 72.0068 77.4378 L 72.4627 77.6388 L 72.9434 77.8011 L 73.5578 77.9791 L 74.1927 78.0895 L 74.514 78.1174 L 74.8356 78.126 L 75.1561 78.1144 L 75.4738 78.082 L 75.7873 78.028 L 76.0949 77.9517 L 76.3949 77.852 L 76.6859 77.7285 L 76.9664 77.58 L 77.2346 77.4061 L 77.4891 77.2058 L 77.7282 76.9783 L 77.9426 76.772 L 78.1383 76.5511 L 78.3153 76.3169 L 78.4733 76.0709 L 78.612 75.8143 L 78.7315 75.5486 L 78.8312 75.275 L 78.9111 74.995 L 78.9711 74.7097 L 79.0106 74.4208 L 79.0299 74.1295 L 79.0284 73.837 L 79.006 73.5447 L 78.9626 73.2541 L 78.8979 72.9665 L 78.8117 72.6832 L 78.4173 70.9615 L 77.9934 69.2467 L 77.1082 65.8259 L 76.6717 64.114 L 76.2562 62.3972 L 75.8742 60.6726 L 75.5381 58.9373 L 75.322 57.8433 L 75.2592 57.4581 L 75.2655 57.4455 L 75.2838 57.4786 L 75.3627 57.707 L 75.6287 58.4391 L 75.9134 59.1646 L 76.2171 59.8828 L 76.5393 60.593 L 76.8801 61.2948 L 77.2391 61.9875 L 77.6164 62.6702 L 78.0118 63.3428 L 78.4252 64.0043 L 78.8563 64.6541 L 79.305 65.2916 L 79.7714 65.9164 L 80.255 66.5276 L 80.756 67.1248 L 81.274 67.7073 L 81.809 68.2743 L 82.0592 68.4175 L 82.3147 68.5233 L 82.5748 68.5948 L 82.8387 68.6351 L 83.1056 68.6471 L 83.3744 68.6339 L 83.6445 68.5985 L 83.9151 68.5441 L 84.4539 68.3897 L 84.9844 68.1951 L 85.993 67.7819 L 86.3193 67.5926 L 86.6197 67.3731 L 86.8937 67.1264 L 87.1405 66.8551 L 87.3601 66.562 L 87.5518 66.2497 L 87.715 65.9209 L 87.8495 65.5785 L 87.9546 65.2252 L 88.0301 64.8636 L 88.0753 64.4964 L 88.0897 64.1265 L 88.0732 63.7565 L 88.0248 63.3891 L 87.9444 63.0271 L 87.8316 62.6732 L 87.2883 60.0217 L 86.7224 57.376 L 86.1184 54.7388 L 85.461 52.1131 L 84.7468 49.1563 L 85.7381 51.2169 L 86.7711 53.2603 L 87.3124 54.2684 L 87.8751 55.2636 L 88.4628 56.2431 L 89.0792 57.204 L 89.3215 57.4394 L 89.5958 57.6116 L 89.8938 57.7231 L 90.207 57.7764 L 90.5271 57.7741 L 90.846 57.7189 L 91.1552 57.6133 L 91.4461 57.4599 L 92.7308 56.9554 L 93.3804 56.6944 L 94.0185 56.4099 L 94.6327 56.0885 L 95.2106 55.7173 L 95.4821 55.5086 L 95.74 55.2827 L 95.9826 55.0375 L 96.2084 54.7717 L 96.3303 54.5001 L 96.4182 54.2255 L 96.4752 53.9481 L 96.5046 53.6684 L 96.5103 53.3866 L 96.4946 53.1033 L 96.4136 52.5337 L 96.2887 51.9624 L 96.1465 51.3926 L 96.0133 50.8274 L 95.9156 50.27 L 94.9202 45.8573 L 93.9424 41.4396 L 93.4355 39.2353 L 92.9037 37.0377 L 92.3369 34.8491 L 91.7256 32.6722 L 91.5651 32.2796 L 91.3755 31.8949 L 91.1584 31.5212 L 90.9153 31.1614 L 90.6476 30.8188 L 90.3566 30.4963 L 90.0439 30.1971 L 89.711 29.9243 L 89.3593 29.6807 L 88.9901 29.4696 L 88.605 29.2939 L 88.2054 29.1569 L 87.7929 29.0615 L 87.3687 29.0109 L 86.9342 29.0079 L 86.4912 29.0559 L 85.2876 29.1462 L 84.089 29.2841 L 82.8941 29.4548 L 81.7014 29.6442 L 79.3171 30.0218 L 78.1228 30.1812 L 76.9251 30.302 L 75.2699 30.1756 L 74.4246 30.0748 L 74.0069 30.0038 L 73.596 29.9146 L 73.1944 29.8041 L 72.805 29.6691 L 72.4303 29.5063 L 72.0728 29.3124 L 71.7356 29.0844 L 71.4206 28.8187 L 71.1312 28.5124 L 70.87 28.1622 L 70.6081 27.7223 L 70.3759 27.2707 L 70.1702 26.8089 L 69.9875 26.3379 L 69.8247 25.8592 L 69.6785 25.374 L 69.4228 24.3892 L 68.9669 22.3974 L 68.7143 21.4108 L 68.4104 20.444 L 68.0242 19.2836 L 67.578 18.1411 L 67.073 17.0203 L 66.5107 15.9252 L 65.8924 14.8602 L 65.2194 13.8291 L 64.4932 12.8359 L 63.7149 11.885 L 62.886 10.9803 L 62.0079 10.1257 L 61.0819 9.32552 L 60.6013 8.94707 L 60.1091 8.5838 L 59.6058 8.23608 L 59.0914 7.90441 L 58.5659 7.58953 L 58.0295 7.2917 L 57.4826 7.01153 L 56.9253 6.74953 L 56.3576 6.50618 L 55.7797 6.28213 L 54.9675 5.99798 L 54.142 5.75414 L 53.3056 5.55148 L 52.4604 5.39037 L 51.6081 5.27144 L 50.751 5.19529 L 49.8911 5.16232 L 49.0305 5.17339 L 49.0305 5.17339" />
  </g>
  <g
     inkscape:label="B.Cu-disabled"
     inkscape:groupmode="layer"
     id="g827" />
  <g
     inkscape:label="B.Mask-disabled"
     inkscape:groupmode="layer"
     id="g829" />
  <g
     style="display:inline"
     inkscape:label="B.Silk"
     inkscape:groupmode="layer"
     id="g831" />
  <g
     inkscape:label="F.Cu"
     inkscape:groupmode="layer"
     id="g833"
     style="display:inline" />
  <g
     inkscape:label="F.Mask-disabled"
     inkscape:groupmode="layer"
     id="g835" />
  <g
     style="display:inline"
     inkscape:label="F.SilkS"
     inkscape:groupmode="layer"
     id="g837">
    <path
       id="path897-9-8"
       style="display:inline;fill:#1d0606;fill-opacity:1;stroke:#000000;stroke-width:0.149449;stroke-opacity:1"
       d="m 49.134894,5.9869819 c -1.14528,0.047298 -2.104937,0.1971589 -2.697591,0.323377 -5.336479,1.1365984 -9.494233,4.2517941 -12.628405,9.4634271 -1.364258,2.268519 -2.134803,4.388699 -3.115473,8.568516 -0.687118,2.928659 -1.245904,4.156786 -2.345285,5.156026 -1.04744,0.952029 -1.781199,1.212319 -4.263685,1.511447 -1.627293,0.196082 -2.178191,0.208974 -2.893674,0.06815 -0.486062,-0.09562 -1.541045,-0.274556 -2.343999,-0.397952 -6.376156,-0.979897 -7.106742,-1.018587 -8.251569,-0.438455 -0.8859963,0.448966 -1.654471,1.355549 -2.2321353,2.633302 -0.4231233,0.935924 -1.4351658,5.128951 -3.6227184,15.005833 -0.2366737,1.068553 -0.5994161,2.682556 -0.8055477,3.586716 -0.206144,0.90416 -0.3742315,1.896971 -0.3735225,2.206419 0.00248,0.945081 0.6435176,1.471293 3.0550419,2.505364 1.1452004,0.491067 2.2348316,0.892339 2.4211455,0.892339 0.4144902,0 0.8176499,-0.515613 1.8155385,-2.323425 1.751701,-3.17345 3.771145,-7.390192 4.606993,-9.618365 0.203307,-0.541979 0.518244,-1.287503 0.69947,-1.657385 0.286871,-0.585545 0.335823,-0.627307 0.379951,-0.319519 0.09555,0.666085 -0.553669,3.657058 -2.453291,11.304037 -0.694234,2.794681 -1.260677,5.286396 -1.259433,5.537263 0.0012,0.250867 -0.203177,1.281199 -0.453883,2.289995 -0.526744,2.119571 -0.498696,2.771546 0.165866,3.819445 0.493016,0.777409 1.376807,1.286317 2.897532,1.668315 1.268601,0.318657 1.438364,0.242051 2.57544,-1.160428 1.617714,-1.995286 2.553604,-3.417164 3.867663,-5.877997 0.68234,-1.277804 2.23283,-5.759404 2.844171,-8.220067 0.579355,-2.331921 1.140759,-4.10939 1.297363,-4.10939 0.08286,0 0.104279,0.266054 0.05078,0.634538 -0.05063,0.349336 -0.157915,1.274472 -0.237872,2.055339 -0.467699,4.567583 -2.034265,12.262804 -3.666435,18.009442 -0.666876,2.347953 -1.114061,4.431365 -1.116711,5.199742 -0.0025,0.677585 0.310279,1.343932 0.948916,2.023193 1.109619,1.180198 2.392306,1.379209 4.370405,0.67697 0.996844,-0.353877 1.315014,-0.559659 2.154344,-1.393157 1.599066,-1.587962 3.087541,-4.522807 5.051233,-9.957814 1.156795,-3.201723 1.468029,-4.405726 2.274566,-8.804459 0.180852,-0.986361 0.396387,-2.062148 0.478957,-2.39093 0.142472,-0.567397 0.158401,-0.580462 0.307305,-0.253943 0.239063,0.524169 -0.216159,7.067871 -0.81262,11.686561 -0.137745,1.066657 -0.637925,4.435325 -1.1765,7.920478 -0.0698,0.452065 -0.270692,1.494404 -0.44617,2.316354 -0.175477,0.821974 -0.383417,2.066439 -0.462242,2.765094 -0.07875,0.69868 -0.235736,1.538815 -0.348449,1.867614 -1.080048,3.150498 -1.081401,4.170058 -0.0083,5.243458 1.434026,1.434032 4.203893,2.373691 8.51387,2.88853 1.863532,0.503123 14.005263,0.426595 15.591511,-0.03088 4.309977,-0.514839 7.079844,-1.455141 8.51387,-2.889173 1.073043,-1.073401 1.07169,-2.092318 -0.0083,-5.242816 -0.112713,-0.328799 -0.269699,-1.168932 -0.348449,-1.867612 -0.07882,-0.698655 -0.286765,-1.943122 -0.462242,-2.765097 -0.175477,-0.821949 -0.376376,-1.864929 -0.44617,-2.316995 -0.538623,-3.485133 -1.038803,-6.853803 -1.176548,-7.920459 -0.596461,-4.618692 -1.051683,-11.162392 -0.81262,-11.686561 0.148904,-0.326519 0.164832,-0.313454 0.307304,0.253943 0.08257,0.328782 0.298106,1.40457 0.478958,2.390931 0.806537,4.398733 1.117771,5.602735 2.274566,8.804458 1.963691,5.435007 3.452167,8.369852 5.051233,9.957815 0.83933,0.833497 1.1575,1.039278 2.154344,1.393155 1.978099,0.702239 3.260786,0.503872 4.370405,-0.676326 0.638637,-0.679261 0.951404,-1.34561 0.948916,-2.023193 -0.0026,-0.768377 -0.449835,-2.85179 -1.116711,-5.199742 -1.63217,-5.746638 -3.198736,-13.44186 -3.666435,-18.009444 -0.07996,-0.780865 -0.187238,-1.706001 -0.237872,-2.055338 -0.05349,-0.368484 -0.03207,-0.635181 0.05078,-0.635181 0.156604,0 0.718008,1.778114 1.297363,4.110035 0.611341,2.460663 2.161831,6.942262 2.844171,8.220066 1.314058,2.460833 2.249948,3.882069 3.867661,5.877355 1.137076,1.402479 1.306842,1.479083 2.575442,1.160426 1.520725,-0.381999 2.404516,-0.890262 2.897531,-1.667671 0.664563,-1.047898 0.692611,-1.699874 0.165867,-3.819445 -0.250707,-1.008796 -0.455127,-2.03977 -0.453884,-2.290638 0.0012,-0.250866 -0.565199,-2.742583 -1.259433,-5.537263 -1.899623,-7.646979 -2.548835,-10.637309 -2.45329,-11.303396 0.04413,-0.307786 0.09309,-0.266668 0.379951,0.318877 0.181226,0.369882 0.496163,1.11605 0.699471,1.658028 0.835847,2.228174 2.855291,6.444916 4.606992,9.618366 0.997888,1.807812 1.401048,2.323426 1.815543,2.323426 0.18631,0 1.275941,-0.401916 2.421143,-0.892982 2.41152,-1.034072 3.052551,-1.559641 3.055044,-2.504723 7.08e-4,-0.309448 -0.167383,-1.302259 -0.373527,-2.206418 -0.206134,-0.90416 -0.568875,-2.518163 -0.805552,-3.586717 -2.187583,-9.87688 -3.199619,-14.07055 -3.622748,-15.006473 -0.577659,-1.277754 -1.346138,-2.183693 -2.232134,-2.632659 -1.144827,-0.580132 -1.875412,-0.542084 -8.251568,0.437812 -0.802955,0.123401 -1.857937,0.302976 -2.343999,0.398596 -0.715483,0.140826 -1.266382,0.127935 -2.893674,-0.06815 -2.482502,-0.299131 -3.21626,-0.559421 -4.263702,-1.511452 -1.099379,-0.99924 -1.658167,-2.227366 -2.345285,-5.156025 -0.98067,-4.179816 -1.751215,-6.299997 -3.115472,-8.568517 C 62.440213,10.531289 58.28246,7.4160939 52.945981,6.2794955 51.610857,5.9951542 50.280175,5.9396776 49.134894,5.9869781 Z m 8.196922,10.4104131 c 0.556316,-0.01119 1.154893,0.169972 1.87147,0.535533 1.231241,0.628135 2.241232,2.325079 2.243708,3.769941 0.0038,1.774518 -0.928096,3.300104 -2.453935,4.021956 -0.886456,0.419379 -0.961109,0.428882 -3.223479,0.407597 -1.27405,-0.01244 -2.801616,-0.06689 -3.394491,-0.121509 -1.158176,-0.106742 -1.686959,-0.405444 -1.686959,-0.954058 0,-0.799246 3.082279,-5.298988 4.54656,-6.637257 0.736595,-0.673221 1.38188,-1.007412 2.097126,-1.022203 z M 41.279349,16.59605 c 0.730897,-0.0062 0.982786,0.06358 1.492162,0.416596 1.206756,0.83627 2.87587,2.947725 4.487413,5.676129 0.847616,1.435046 0.916908,1.973383 0.290588,2.262993 -0.50588,0.233948 -6.631365,0.391874 -7.302011,0.188368 -1.239364,-0.37606 -2.303676,-1.459734 -2.791454,-2.842242 -0.91206,-2.585048 1.160947,-5.676763 3.823302,-5.701844 z m 22.840163,8.72924 c 0.268286,-0.0112 0.548207,0.09487 0.810048,0.33752 0.700665,0.649347 0.925461,1.793328 0.911626,4.647495 -0.01816,3.734142 -0.435368,5.085951 -2.558725,8.294643 -1.924528,2.908222 -3.73293,4.438644 -5.943572,5.028089 -1.685678,0.449449 -2.24364,0.173931 -2.963751,-1.465804 -0.383599,-0.873467 -0.933299,-1.383966 -1.39637,-1.294791 -0.377192,0.07266 -0.892179,1.070019 -0.993273,1.923544 -0.0474,0.400059 -0.204693,0.907894 -0.349094,1.128282 -0.539009,0.822648 -1.898193,1.040168 -3.021609,0.484101 -0.818294,-0.405046 -1.206514,-1.174396 -1.211216,-2.400573 -0.0038,-0.787526 -0.03353,-0.864048 -0.376737,-0.9502 -0.569664,-0.14297 -0.775879,0.0047 -1.206717,0.865338 -0.763317,1.525216 -1.571279,2.061767 -3.104544,2.061767 -0.822958,0 -1.131937,-0.08555 -2.165916,-0.603037 -1.461818,-0.731668 -2.250375,-1.561999 -3.58093,-3.768012 -1.158959,-1.921531 -1.422813,-2.610926 -1.911972,-5.004945 -0.721728,-3.532339 -0.293318,-7.149596 0.981702,-8.295929 0.993086,-0.892838 2.243063,-0.302374 2.461649,1.162356 0.304314,2.039158 1.388011,2.667291 2.043764,1.184858 0.508903,-1.150463 1.395162,-1.545184 2.354286,-1.049207 0.641758,0.331871 0.783897,0.592298 0.919341,1.684387 0.10164,0.819513 0.200577,1.078085 0.517531,1.350725 0.793587,0.682614 1.356855,0.407061 1.994906,-0.977202 0.680462,-1.4763 1.207784,-1.849729 2.168487,-1.532664 0.669502,0.220949 1.201413,0.809034 1.650315,1.824539 0.205571,0.465074 0.455575,0.896196 0.555462,0.957915 0.269853,0.166769 0.664668,-0.405524 1.024132,-1.485733 0.41989,-1.261745 0.855374,-1.662529 1.807182,-1.662529 0.920121,0 1.186118,0.24996 1.744175,1.643242 0.332617,0.83046 0.490661,1.056701 0.767619,1.096138 0.684716,0.09754 1.214784,-0.699583 1.442015,-2.169774 0.122914,-0.795278 0.657915,-1.39187 1.248504,-1.39187 0.436324,0 1.519056,0.736121 2.185845,1.486375 0.925035,1.040773 1.642556,0.475781 1.933833,-1.52302 0.14073,-0.965791 0.671762,-1.560756 1.262004,-1.586024 z" />
  </g>
  <g
     inkscape:label="Drill"
     inkscape:groupmode="layer"
     id="g839" />
</svg>
