%TF.GenerationSoftware,KiCad,Pcbnew,9.0.6*%
%TF.CreationDate,2025-11-30T13:40:04+01:00*%
%TF.ProjectId,Pinguin,50696e67-7569-46e2-9e6b-696361645f70,rev?*%
%TF.SameCoordinates,Original*%
%TF.FileFunction,Copper,L1,Top*%
%TF.FilePolarity,Positive*%
%FSLAX46Y46*%
G04 Gerber Fmt 4.6, Leading zero omitted, Abs format (unit mm)*
G04 Created by KiCad (PCBNEW 9.0.6) date 2025-11-30 13:40:04*
%MOMM*%
%LPD*%
G01*
G04 APERTURE LIST*
G04 Aperture macros list*
%AMRoundRect*
0 Rectangle with rounded corners*
0 $1 Rounding radius*
0 $2 $3 $4 $5 $6 $7 $8 $9 X,Y pos of 4 corners*
0 Add a 4 corners polygon primitive as box body*
4,1,4,$2,$3,$4,$5,$6,$7,$8,$9,$2,$3,0*
0 Add four circle primitives for the rounded corners*
1,1,$1+$1,$2,$3*
1,1,$1+$1,$4,$5*
1,1,$1+$1,$6,$7*
1,1,$1+$1,$8,$9*
0 Add four rect primitives between the rounded corners*
20,1,$1+$1,$2,$3,$4,$5,0*
20,1,$1+$1,$4,$5,$6,$7,0*
20,1,$1+$1,$6,$7,$8,$9,0*
20,1,$1+$1,$8,$9,$2,$3,0*%
G04 Aperture macros list end*
%TA.AperFunction,ComponentPad*%
%ADD10RoundRect,0.250000X-0.550000X-0.550000X0.550000X-0.550000X0.550000X0.550000X-0.550000X0.550000X0*%
%TD*%
%TA.AperFunction,ComponentPad*%
%ADD11C,1.600000*%
%TD*%
%TA.AperFunction,ComponentPad*%
%ADD12C,2.000000*%
%TD*%
%TA.AperFunction,ComponentPad*%
%ADD13R,1.500000X1.500000*%
%TD*%
%TA.AperFunction,ComponentPad*%
%ADD14C,1.500000*%
%TD*%
%TA.AperFunction,ComponentPad*%
%ADD15R,1.600000X1.600000*%
%TD*%
%TA.AperFunction,ComponentPad*%
%ADD16O,1.600000X1.600000*%
%TD*%
%TA.AperFunction,ComponentPad*%
%ADD17R,1.800000X1.800000*%
%TD*%
%TA.AperFunction,ComponentPad*%
%ADD18C,1.800000*%
%TD*%
%TA.AperFunction,Conductor*%
%ADD19C,0.250000*%
%TD*%
G04 APERTURE END LIST*
D10*
%TO.P,NE555,1,GND*%
%TO.N,Net-(D1-K)*%
X113800000Y-102250000D03*
D11*
%TO.P,NE555,2,TR*%
%TO.N,Net-(D3-K)*%
X113800000Y-99710000D03*
%TO.P,NE555,3,Q*%
%TO.N,unconnected-(U1-Q-Pad3)*%
X113800000Y-97170000D03*
%TO.P,NE555,4,R*%
%TO.N,Net-(S1-E)*%
X113800000Y-94630000D03*
%TO.P,NE555,5,CV*%
%TO.N,unconnected-(U1-CV-Pad5)*%
X121420000Y-94630000D03*
%TO.P,NE555,6,THR*%
%TO.N,Net-(D3-K)*%
X121420000Y-97170000D03*
%TO.P,NE555,7,DIS*%
%TO.N,Net-(D3-A)*%
X121420000Y-99710000D03*
%TO.P,NE555,8,VCC*%
%TO.N,Net-(S1-E)*%
X121420000Y-102250000D03*
%TD*%
D12*
%TO.P,S1,1,A*%
%TO.N,Net-(S1-A-Pad1)*%
X132450000Y-122700000D03*
%TO.P,S1,2,E*%
%TO.N,Net-(S1-E)*%
X132450000Y-120160000D03*
%TO.P,S1,3,A*%
%TO.N,unconnected-(S1-A-Pad3)*%
X132450000Y-117620000D03*
%TD*%
D11*
%TO.P,R7,1*%
%TO.N,Net-(D3-K)*%
X97220000Y-95900000D03*
%TO.P,R7,2*%
%TO.N,Net-(D3-A)*%
X107380000Y-95900000D03*
%TD*%
%TO.P,R6,1*%
%TO.N,Net-(S1-E)*%
X97220000Y-99950000D03*
%TO.P,R6,2*%
%TO.N,Net-(Q2-C)*%
X107380000Y-99950000D03*
%TD*%
%TO.P,R5,1*%
%TO.N,Net-(S1-E)*%
X97220000Y-104000000D03*
%TO.P,R5,2*%
%TO.N,Net-(Q1-C)*%
X107380000Y-104000000D03*
%TD*%
%TO.P,R4,1*%
%TO.N,Net-(Q1-B)*%
X97220000Y-108050000D03*
%TO.P,R4,2*%
%TO.N,Net-(D1-K)*%
X107380000Y-108050000D03*
%TD*%
%TO.P,R3,1*%
%TO.N,Net-(D3-K)*%
X97220000Y-112100000D03*
%TO.P,R3,2*%
%TO.N,Net-(Q1-B)*%
X107380000Y-112100000D03*
%TD*%
%TO.P,R1off1,1*%
%TO.N,Net-(S1-E)*%
X97220000Y-91850000D03*
%TO.P,R1off1,2*%
%TO.N,Net-(D3-A)*%
X107380000Y-91850000D03*
%TD*%
D13*
%TO.P,Q2,1,E*%
%TO.N,Net-(D1-A)*%
X83650000Y-106800000D03*
D14*
%TO.P,Q2,2,B*%
%TO.N,Net-(Q1-C)*%
X86190000Y-109340000D03*
%TO.P,Q2,3,C*%
%TO.N,Net-(Q2-C)*%
X88730000Y-106800000D03*
%TD*%
D13*
%TO.P,Q1,1,E*%
%TO.N,Net-(D1-K)*%
X83650000Y-112742385D03*
D14*
%TO.P,Q1,2,B*%
%TO.N,Net-(Q1-B)*%
X86190000Y-115282385D03*
%TO.P,Q1,3,C*%
%TO.N,Net-(Q1-C)*%
X88730000Y-112742385D03*
%TD*%
D15*
%TO.P,1N4148,1,K*%
%TO.N,Net-(D3-K)*%
X130400000Y-97300000D03*
D16*
%TO.P,1N4148,2,A*%
%TO.N,Net-(D3-A)*%
X130400000Y-104920000D03*
%TD*%
D17*
%TO.P,D2,1,K*%
%TO.N,Net-(D1-K)*%
X87250000Y-69500000D03*
D18*
%TO.P,D2,2,A*%
%TO.N,Net-(D1-A)*%
X89790000Y-69500000D03*
%TD*%
D17*
%TO.P,D1,1,K*%
%TO.N,Net-(D1-K)*%
X106950000Y-66500000D03*
D18*
%TO.P,D1,2,A*%
%TO.N,Net-(D1-A)*%
X109490000Y-66500000D03*
%TD*%
D10*
%TO.P,C1,1*%
%TO.N,Net-(D3-K)*%
X114350000Y-111550000D03*
D11*
%TO.P,C1,2*%
%TO.N,Net-(D1-K)*%
X116850000Y-111550000D03*
%TD*%
D19*
%TO.N,Net-(D1-K)*%
X106950000Y-74750000D02*
X106950000Y-66500000D01*
X109575000Y-77375000D02*
X106950000Y-74750000D01*
X120875000Y-77375000D02*
X109575000Y-77375000D01*
X127000000Y-83500000D02*
X120875000Y-77375000D01*
X127000000Y-104275000D02*
X127000000Y-83500000D01*
X125600000Y-105675000D02*
X127000000Y-104275000D01*
X125575000Y-105650000D02*
X125600000Y-105675000D01*
X116175000Y-105650000D02*
X125575000Y-105650000D01*
X113800000Y-103275000D02*
X116175000Y-105650000D01*
X113800000Y-102250000D02*
X113800000Y-103275000D01*
%TO.N,Net-(D3-A)*%
X123525000Y-99325000D02*
X123140000Y-99710000D01*
X123525000Y-91425000D02*
X123525000Y-99325000D01*
X123140000Y-99710000D02*
X121420000Y-99710000D01*
X111855000Y-91425000D02*
X123525000Y-91425000D01*
X107380000Y-95900000D02*
X111855000Y-91425000D01*
%TO.N,Net-(D3-K)*%
X109175000Y-106375000D02*
X109175000Y-106000000D01*
X114350000Y-111550000D02*
X109175000Y-106375000D01*
X110850000Y-104175000D02*
X110850000Y-99625000D01*
X103320000Y-106000000D02*
X109175000Y-106000000D01*
X97220000Y-112100000D02*
X103320000Y-106000000D01*
X109175000Y-106000000D02*
X109175000Y-105850000D01*
X110850000Y-99625000D02*
X109175000Y-97950000D01*
X109175000Y-105850000D02*
X110850000Y-104175000D01*
X97475000Y-96850000D02*
X97475000Y-96155000D01*
X97500000Y-96850000D02*
X97475000Y-96850000D01*
X98600000Y-97950000D02*
X97500000Y-96850000D01*
X109175000Y-97950000D02*
X98600000Y-97950000D01*
X97475000Y-96155000D02*
X97220000Y-95900000D01*
X110935000Y-99710000D02*
X110850000Y-99625000D01*
X113800000Y-99710000D02*
X110935000Y-99710000D01*
%TO.N,Net-(Q1-C)*%
X89900000Y-108950000D02*
X89900000Y-111572385D01*
X92425000Y-106425000D02*
X89900000Y-108950000D01*
X89900000Y-111572385D02*
X88730000Y-112742385D01*
X102225000Y-106425000D02*
X92425000Y-106425000D01*
X107380000Y-104000000D02*
X104650000Y-104000000D01*
X104650000Y-104000000D02*
X102225000Y-106425000D01*
%TO.N,Net-(S1-E)*%
X118075000Y-101275000D02*
X118925000Y-102125000D01*
X118075000Y-96425000D02*
X118075000Y-101275000D01*
X119525000Y-102125000D02*
X119650000Y-102250000D01*
X119650000Y-102250000D02*
X121420000Y-102250000D01*
X118925000Y-102125000D02*
X119525000Y-102125000D01*
X116275000Y-94625000D02*
X118075000Y-96425000D01*
X116270000Y-94630000D02*
X116275000Y-94625000D01*
X113800000Y-94630000D02*
X116270000Y-94630000D01*
%TD*%
M02*
