%TF.GenerationSoftware,KiCad,Pcbnew,9.0.6*%
%TF.CreationDate,2025-11-30T13:40:04+01:00*%
%TF.ProjectId,Pinguin,50696e67-7569-46e2-9e6b-696361645f70,rev?*%
%TF.SameCoordinates,Original*%
%TF.FileFunction,Soldermask,Bot*%
%TF.FilePolarity,Negative*%
%FSLAX46Y46*%
G04 Gerber Fmt 4.6, Leading zero omitted, Abs format (unit mm)*
G04 Created by KiCad (PCBNEW 9.0.6) date 2025-11-30 13:40:04*
%MOMM*%
%LPD*%
G01*
G04 APERTURE LIST*
G04 Aperture macros list*
%AMRoundRect*
0 Rectangle with rounded corners*
0 $1 Rounding radius*
0 $2 $3 $4 $5 $6 $7 $8 $9 X,Y pos of 4 corners*
0 Add a 4 corners polygon primitive as box body*
4,1,4,$2,$3,$4,$5,$6,$7,$8,$9,$2,$3,0*
0 Add four circle primitives for the rounded corners*
1,1,$1+$1,$2,$3*
1,1,$1+$1,$4,$5*
1,1,$1+$1,$6,$7*
1,1,$1+$1,$8,$9*
0 Add four rect primitives between the rounded corners*
20,1,$1+$1,$2,$3,$4,$5,0*
20,1,$1+$1,$4,$5,$6,$7,0*
20,1,$1+$1,$6,$7,$8,$9,0*
20,1,$1+$1,$8,$9,$2,$3,0*%
G04 Aperture macros list end*
%ADD10C,0.200000*%
%ADD11RoundRect,0.200000X-2.500000X-1.000000X2.500000X-1.000000X2.500000X1.000000X-2.500000X1.000000X0*%
%ADD12C,18.180000*%
%ADD13RoundRect,0.312500X-0.687500X-0.687500X0.687500X-0.687500X0.687500X0.687500X-0.687500X0.687500X0*%
%ADD14C,2.000000*%
%ADD15C,2.400000*%
%ADD16RoundRect,0.200000X-0.750000X-0.750000X0.750000X-0.750000X0.750000X0.750000X-0.750000X0.750000X0*%
%ADD17C,1.900000*%
%ADD18RoundRect,0.200000X-0.800000X0.800000X-0.800000X-0.800000X0.800000X-0.800000X0.800000X0.800000X0*%
%ADD19O,2.000000X2.000000*%
%ADD20RoundRect,0.200000X-0.900000X-0.900000X0.900000X-0.900000X0.900000X0.900000X-0.900000X0.900000X0*%
%ADD21C,2.200000*%
G04 APERTURE END LIST*
D10*
X105430326Y-52417219D02*
X105430326Y-51417219D01*
X104858898Y-52417219D02*
X105287469Y-51845790D01*
X104858898Y-51417219D02*
X105430326Y-51988647D01*
X104430326Y-52417219D02*
X104430326Y-51417219D01*
X104430326Y-51893409D02*
X103858898Y-51893409D01*
X103858898Y-52417219D02*
X103858898Y-51417219D01*
X103049374Y-51893409D02*
X103382707Y-51893409D01*
X103382707Y-52417219D02*
X103382707Y-51417219D01*
X103382707Y-51417219D02*
X102906517Y-51417219D01*
X101239850Y-52417219D02*
X101811278Y-52417219D01*
X101525564Y-52417219D02*
X101525564Y-51417219D01*
X101525564Y-51417219D02*
X101620802Y-51560076D01*
X101620802Y-51560076D02*
X101716040Y-51655314D01*
X101716040Y-51655314D02*
X101811278Y-51702933D01*
X100858897Y-51512457D02*
X100811278Y-51464838D01*
X100811278Y-51464838D02*
X100716040Y-51417219D01*
X100716040Y-51417219D02*
X100477945Y-51417219D01*
X100477945Y-51417219D02*
X100382707Y-51464838D01*
X100382707Y-51464838D02*
X100335088Y-51512457D01*
X100335088Y-51512457D02*
X100287469Y-51607695D01*
X100287469Y-51607695D02*
X100287469Y-51702933D01*
X100287469Y-51702933D02*
X100335088Y-51845790D01*
X100335088Y-51845790D02*
X100906516Y-52417219D01*
X100906516Y-52417219D02*
X100287469Y-52417219D01*
X99858897Y-52321980D02*
X99811278Y-52369600D01*
X99811278Y-52369600D02*
X99858897Y-52417219D01*
X99858897Y-52417219D02*
X99906516Y-52369600D01*
X99906516Y-52369600D02*
X99858897Y-52321980D01*
X99858897Y-52321980D02*
X99858897Y-52417219D01*
X99430326Y-51512457D02*
X99382707Y-51464838D01*
X99382707Y-51464838D02*
X99287469Y-51417219D01*
X99287469Y-51417219D02*
X99049374Y-51417219D01*
X99049374Y-51417219D02*
X98954136Y-51464838D01*
X98954136Y-51464838D02*
X98906517Y-51512457D01*
X98906517Y-51512457D02*
X98858898Y-51607695D01*
X98858898Y-51607695D02*
X98858898Y-51702933D01*
X98858898Y-51702933D02*
X98906517Y-51845790D01*
X98906517Y-51845790D02*
X99477945Y-52417219D01*
X99477945Y-52417219D02*
X98858898Y-52417219D01*
X98239850Y-51417219D02*
X98144612Y-51417219D01*
X98144612Y-51417219D02*
X98049374Y-51464838D01*
X98049374Y-51464838D02*
X98001755Y-51512457D01*
X98001755Y-51512457D02*
X97954136Y-51607695D01*
X97954136Y-51607695D02*
X97906517Y-51798171D01*
X97906517Y-51798171D02*
X97906517Y-52036266D01*
X97906517Y-52036266D02*
X97954136Y-52226742D01*
X97954136Y-52226742D02*
X98001755Y-52321980D01*
X98001755Y-52321980D02*
X98049374Y-52369600D01*
X98049374Y-52369600D02*
X98144612Y-52417219D01*
X98144612Y-52417219D02*
X98239850Y-52417219D01*
X98239850Y-52417219D02*
X98335088Y-52369600D01*
X98335088Y-52369600D02*
X98382707Y-52321980D01*
X98382707Y-52321980D02*
X98430326Y-52226742D01*
X98430326Y-52226742D02*
X98477945Y-52036266D01*
X98477945Y-52036266D02*
X98477945Y-51798171D01*
X98477945Y-51798171D02*
X98430326Y-51607695D01*
X98430326Y-51607695D02*
X98382707Y-51512457D01*
X98382707Y-51512457D02*
X98335088Y-51464838D01*
X98335088Y-51464838D02*
X98239850Y-51417219D01*
X97525564Y-51512457D02*
X97477945Y-51464838D01*
X97477945Y-51464838D02*
X97382707Y-51417219D01*
X97382707Y-51417219D02*
X97144612Y-51417219D01*
X97144612Y-51417219D02*
X97049374Y-51464838D01*
X97049374Y-51464838D02*
X97001755Y-51512457D01*
X97001755Y-51512457D02*
X96954136Y-51607695D01*
X96954136Y-51607695D02*
X96954136Y-51702933D01*
X96954136Y-51702933D02*
X97001755Y-51845790D01*
X97001755Y-51845790D02*
X97573183Y-52417219D01*
X97573183Y-52417219D02*
X96954136Y-52417219D01*
X96049374Y-51417219D02*
X96525564Y-51417219D01*
X96525564Y-51417219D02*
X96573183Y-51893409D01*
X96573183Y-51893409D02*
X96525564Y-51845790D01*
X96525564Y-51845790D02*
X96430326Y-51798171D01*
X96430326Y-51798171D02*
X96192231Y-51798171D01*
X96192231Y-51798171D02*
X96096993Y-51845790D01*
X96096993Y-51845790D02*
X96049374Y-51893409D01*
X96049374Y-51893409D02*
X96001755Y-51988647D01*
X96001755Y-51988647D02*
X96001755Y-52226742D01*
X96001755Y-52226742D02*
X96049374Y-52321980D01*
X96049374Y-52321980D02*
X96096993Y-52369600D01*
X96096993Y-52369600D02*
X96192231Y-52417219D01*
X96192231Y-52417219D02*
X96430326Y-52417219D01*
X96430326Y-52417219D02*
X96525564Y-52369600D01*
X96525564Y-52369600D02*
X96573183Y-52321980D01*
D11*
%TO.C,U2*%
X90446000Y-126974000D03*
X90446000Y-123418000D03*
X116340000Y-126974000D03*
X116340000Y-123418000D03*
D12*
X103400000Y-125450000D03*
%TD*%
D13*
%TO.C,NE555*%
X113800000Y-102250000D03*
D14*
X113800000Y-99710000D03*
X113800000Y-97170000D03*
X113800000Y-94630000D03*
X121420000Y-94630000D03*
X121420000Y-97170000D03*
X121420000Y-99710000D03*
X121420000Y-102250000D03*
%TD*%
D15*
%TO.C,S1*%
X132450000Y-122700000D03*
X132450000Y-120160000D03*
X132450000Y-117620000D03*
%TD*%
D14*
%TO.C,R7*%
X97220000Y-95900000D03*
X107380000Y-95900000D03*
%TD*%
%TO.C,R6*%
X97220000Y-99950000D03*
X107380000Y-99950000D03*
%TD*%
%TO.C,R5*%
X97220000Y-104000000D03*
X107380000Y-104000000D03*
%TD*%
%TO.C,R4*%
X97220000Y-108050000D03*
X107380000Y-108050000D03*
%TD*%
%TO.C,R3*%
X97220000Y-112100000D03*
X107380000Y-112100000D03*
%TD*%
%TO.C,R1off1*%
X97220000Y-91850000D03*
X107380000Y-91850000D03*
%TD*%
D16*
%TO.C,Q2*%
X83650000Y-106800000D03*
D17*
X86190000Y-109340000D03*
X88730000Y-106800000D03*
%TD*%
D16*
%TO.C,Q1*%
X83650000Y-112742385D03*
D17*
X86190000Y-115282385D03*
X88730000Y-112742385D03*
%TD*%
D18*
%TO.C,1N4148*%
X130400000Y-97300000D03*
D19*
X130400000Y-104920000D03*
%TD*%
D20*
%TO.C,D2*%
X87250000Y-69500000D03*
D21*
X89790000Y-69500000D03*
%TD*%
D20*
%TO.C,D1*%
X106950000Y-66500000D03*
D21*
X109490000Y-66500000D03*
%TD*%
D13*
%TO.C,C1*%
X114350000Y-111550000D03*
D14*
X116850000Y-111550000D03*
%TD*%
M02*
