M48
; DRILL file {KiCad 9.0.6} date 2025-11-30T13:40:10+0100
; FORMAT={-:-/ absolute / inch / decimal}
; #@! TF.CreationDate,2025-11-30T13:40:10+01:00
; #@! TF.GenerationSoftware,Kicad,Pcbnew,9.0.6
; #@! TF.FileFunction,Plated,1,2,PTH
FMAT,2
INCH
; #@! TA.AperFunction,Plated,PTH,ComponentDrill
T1C0.0315
; #@! TA.AperFunction,Plated,PTH,ComponentDrill
T2C0.0354
; #@! TA.AperFunction,Plated,PTH,ComponentDrill
T3C0.0394
%
G90
G05
T1
X3.2933Y-4.2047
X3.2933Y-4.4387
X3.3933Y-4.3047
X3.3933Y-4.5387
X3.4933Y-4.2047
X3.4933Y-4.4387
X3.8276Y-3.6161
X3.8276Y-3.7756
X3.8276Y-3.935
X3.8276Y-4.0945
X3.8276Y-4.2539
X3.8276Y-4.4134
X4.2276Y-3.6161
X4.2276Y-3.7756
X4.2276Y-3.935
X4.2276Y-4.0945
X4.2276Y-4.2539
X4.2276Y-4.4134
X4.4803Y-3.7256
X4.4803Y-3.8256
X4.4803Y-3.9256
X4.4803Y-4.0256
X4.502Y-4.3917
X4.6004Y-4.3917
X4.7803Y-3.7256
X4.7803Y-3.8256
X4.7803Y-3.9256
X4.7803Y-4.0256
X5.1339Y-3.8307
X5.1339Y-4.1307
T2
X3.435Y-2.7362
X3.535Y-2.7362
X4.2106Y-2.6181
X4.3106Y-2.6181
T3
X5.2146Y-4.6307
X5.2146Y-4.7307
X5.2146Y-4.8307
M30
