<?xml version="1.0" encoding="UTF-8" standalone="no"?>
<!-- Created with Inkscape (http://www.inkscape.org/) -->

<svg
   width="110.0mm"
   height="110.0mm"
   viewBox="0 0 110.0 110.0"
   version="1.1"
   id="svg5"
   inkscape:version="1.1 (c68e22c387, 2021-05-23)"
   sodipodi:docname="KatzeV1.svg"
   xmlns:inkscape="http://www.inkscape.org/namespaces/inkscape"
   xmlns:sodipodi="http://sodipodi.sourceforge.net/DTD/sodipodi-0.dtd"
   xmlns="http://www.w3.org/2000/svg"
   xmlns:svg="http://www.w3.org/2000/svg">
  <sodipodi:namedview
     id="namedview7"
     pagecolor="#ffffff"
     bordercolor="#666666"
     borderopacity="1.0"
     inkscape:pageshadow="2"
     inkscape:pageopacity="0.0"
     inkscape:pagecheckerboard="0"
     inkscape:document-units="mm"
     showgrid="false"
     inkscape:zoom="1.3416247"
     inkscape:cx="126.71204"
     inkscape:cy="238.88947"
     inkscape:window-width="1920"
     inkscape:window-height="1017"
     inkscape:window-x="-8"
     inkscape:window-y="-8"
     inkscape:window-maximized="1"
     inkscape:current-layer="g30604"
     inkscape:snap-global="false"
     borderlayer="true">
    <inkscape:grid
       spacingx="2.54"
       spacingy="2.54"
       empspacing="1"
       type="xygrid"
       units="mm"
       id="grid30579" />
  </sodipodi:namedview>
  <defs
     id="defs2">
    <linearGradient
       id="linearGradient7077"
       inkscape:swatch="solid">
      <stop
         style="stop-color:#000000;stop-opacity:1;"
         offset="0"
         id="stop7075" />
    </linearGradient>
  </defs>
  <g
     inkscape:label="Ebene 1"
     inkscape:groupmode="layer"
     id="layer1" />
  <g
     inkscape:label="[fixed] BG"
     inkscape:groupmode="layer"
     sodipodi:insensitive="true"
     id="g30602">
    <rect
       x="0"
       y="0"
       width="110.0"
       height="110.0"
       style="fill:#FFFFFF;fill-opacity:1;stroke:none"
       id="rect30600" />
  </g>
  <g
     inkscape:label="Edge.Cuts"
     inkscape:groupmode="layer"
     id="g30604"
     style="display:inline">
    <path
       id="path854-4-0-8"
       style="fill:none;stroke:#000001;stroke-width:0.203635;stroke-miterlimit:4;stroke-dasharray:none;stroke-opacity:1"
       d="M 84.7012 5.49414 L 84.3595 5.58249 L 84.029 5.69363 L 83.7085 5.8252 L 83.3968 5.97487 L 83.093 6.1403 L 82.7958 6.31914 L 82.2167 6.70769 L 81.0886 7.54269 L 80.5214 7.95165 L 79.9402 8.32995 L 70.0332 15.3359 L 68.6708 14.9026 L 67.2935 14.4963 L 65.9029 14.1308 L 65.2032 13.9677 L 64.5009 13.82 L 63.7961 13.6894 L 63.0892 13.5777 L 62.3803 13.4866 L 61.6697 13.4179 L 60.9575 13.3732 L 60.2441 13.3542 L 59.5296 13.3628 L 58.8143 13.4007 L 58.3157 13.4338 L 57.8206 13.4863 L 57.3288 13.5568 L 56.8402 13.644 L 55.8722 13.8633 L 54.9156 14.1339 L 53.9694 14.4452 L 53.0326 14.7868 L 51.1836 15.5195 L 49.2562 14.5085 L 47.3393 13.4774 L 43.5199 11.3876 L 41.6089 10.3454 L 39.6915 9.31597 L 37.7634 8.30746 L 35.8203 7.32812 L 35.6061 7.25758 L 35.3866 7.21159 L 35.1639 7.18946 L 34.9403 7.19051 L 34.7182 7.21404 L 34.4998 7.25937 L 34.2874 7.32582 L 34.0832 7.4127 L 33.8895 7.51932 L 33.7086 7.64499 L 33.5428 7.78903 L 33.3943 7.95075 L 33.2655 8.12946 L 33.1586 8.32449 L 33.0758 8.53513 L 33.0195 8.7607 L 32.6129 9.90547 L 32.257 11.066 L 31.9468 12.2397 L 31.6773 13.4242 L 31.4435 14.617 L 31.2404 15.8156 L 31.063 17.0174 L 30.9062 18.2201 L 30.8161 19.5329 L 30.7565 20.8479 L 30.7274 22.1641 L 30.7287 23.4808 L 30.7602 24.797 L 30.8219 26.112 L 30.9135 27.425 L 31.035 28.735 L 31.16 29.5866 L 31.3135 30.4341 L 31.4874 31.2783 L 31.6737 32.1202 L 32.0516 33.8006 L 32.2272 34.641 L 32.383 35.4829 L 32.2325 35.8921 L 32.0466 36.2845 L 31.8326 36.6634 L 31.5981 37.032 L 31.0977 37.7519 L 30.6055 38.4707 L 30.1992 38.9429 L 29.7622 39.3851 L 29.3037 39.8059 L 28.8326 40.2138 L 27.8884 41.0249 L 27.4335 41.4452 L 27.002 41.8867 L 26.8975 42.1016 L 26.8257 42.3196 L 26.7846 42.5394 L 26.7722 42.7598 L 26.7864 42.9796 L 26.8254 43.1974 L 26.887 43.4122 L 26.9692 43.6227 L 27.0702 43.8276 L 27.1879 44.0257 L 27.3202 44.2159 L 27.4653 44.3968 L 27.7855 44.7259 L 28.1326 45.0034 L 28.2387 45.1255 L 28.3861 45.2409 L 28.7107 45.4654 L 28.8409 45.5815 L 28.8876 45.642 L 28.9181 45.7048 L 28.9296 45.7703 L 28.9189 45.8388 L 28.8833 45.911 L 28.8197 45.9871 L 28.5983 46.2968 L 28.4022 46.6338 L 28.2427 46.9908 L 28.1314 47.3606 L 28.0974 47.5481 L 28.0797 47.7361 L 28.0797 47.9237 L 28.099 48.1099 L 28.1389 48.294 L 28.2008 48.475 L 28.2862 48.652 L 28.3965 48.824 L 28.7636 49.4818 L 29.1524 50.1246 L 29.5615 50.7532 L 29.9896 51.3682 L 30.4352 51.9706 L 30.897 52.5609 L 31.3736 53.14 L 31.8636 53.7085 L 32.8781 54.8172 L 33.9293 55.8928 L 35.0062 56.9413 L 36.0977 57.9688 L 35.5218 58.632 L 34.9581 59.3056 L 33.8657 60.6819 L 32.8169 62.093 L 31.8081 63.5348 L 30.836 65.0027 L 29.8968 66.4923 L 28.9872 67.9992 L 28.1035 69.519 L 27.4746 70.6383 L 26.8562 71.7658 L 26.257 72.9043 L 25.686 74.0563 L 25.152 75.2246 L 24.664 76.4118 L 24.44 77.0133 L 24.2308 77.6206 L 24.0376 78.2338 L 23.8613 78.8535 L 23.5209 78.29 L 23.213 77.7125 L 22.9362 77.1225 L 22.6888 76.5211 L 22.4695 75.9097 L 22.2766 75.2896 L 22.1087 74.6619 L 21.9643 74.0282 L 21.8418 73.3895 L 21.7397 72.7473 L 21.6565 72.1027 L 21.5908 71.4572 L 21.5054 70.1682 L 21.4715 68.8906 L 21.4957 68.0139 L 21.5339 67.1349 L 21.6372 65.3717 L 21.7501 63.6039 L 21.8414 61.8343 L 21.8692 60.9498 L 21.8798 60.066 L 21.8694 59.1831 L 21.834 58.3016 L 21.7698 57.4219 L 21.6729 56.5443 L 21.5393 55.6691 L 21.3651 54.7968 L 21.1899 54.0232 L 20.9674 53.2454 L 20.8358 52.8602 L 20.6892 52.4804 L 20.5266 52.1082 L 20.347 51.7457 L 20.1494 51.395 L 19.9327 51.0583 L 19.6958 50.7378 L 19.4379 50.4356 L 19.1577 50.1539 L 18.8543 49.8948 L 18.5267 49.6605 L 18.1738 49.4531 L 17.9098 49.3301 L 17.641 49.2234 L 17.3679 49.133 L 17.0912 49.0585 L 16.8115 48.9996 L 16.5295 48.9561 L 15.961 48.9141 L 15.3907 48.9305 L 14.8236 49.003 L 14.2648 49.1295 L 13.7193 49.3079 L 13.192 49.5361 L 12.6882 49.8119 L 12.2127 50.1333 L 11.7707 50.4979 L 11.3671 50.9038 L 11.1813 51.1216 L 11.0069 51.3488 L 10.8448 51.5853 L 10.6954 51.8307 L 10.5593 52.0849 L 10.4373 52.3475 L 10.0783 53.0666 L 9.75773 53.7988 L 9.47321 54.5431 L 9.2225 55.2983 L 9.00328 56.063 L 8.81328 56.8363 L 8.65021 57.6168 L 8.51176 58.4035 L 8.39564 59.1951 L 8.29957 59.9904 L 8.22125 60.7882 L 8.15838 61.5875 L 8.06985 63.1854 L 8.01563 64.7746 L 8.02852 66.4033 L 8.09088 68.0355 L 8.14342 68.8513 L 8.2117 69.666 L 8.29685 70.4787 L 8.39999 71.289 L 8.52225 72.0961 L 8.66475 72.8992 L 8.82862 73.6977 L 9.01498 74.491 L 9.22496 75.2783 L 9.45968 76.0589 L 9.72028 76.8322 L 10.0079 77.5975 L 10.408 78.512 L 10.8426 79.4074 L 11.3096 80.2843 L 11.8069 81.1434 L 12.3325 81.9854 L 12.8844 82.811 L 13.4605 83.6208 L 14.0588 84.4156 L 14.6772 85.196 L 15.3137 85.9627 L 15.9663 86.7165 L 16.6329 87.4579 L 17.3114 88.1878 L 17.9999 88.9067 L 19.3984 90.3145 L 20.112 90.9618 L 20.8486 91.5813 L 21.6054 92.1756 L 22.3796 92.7471 L 23.1685 93.2984 L 23.9693 93.832 L 24.7794 94.3504 L 25.5958 94.8563 L 25.9956 95.2901 L 26.3648 95.749 L 26.7145 96.2238 L 27.0562 96.7054 L 27.4009 97.1845 L 27.76 97.6519 L 28.1448 98.0983 L 28.5664 98.5147 L 29.2396 99.1811 L 29.9469 99.804 L 30.686 100.384 L 31.4545 100.922 L 32.25 101.419 L 33.07 101.874 L 33.9121 102.29 L 34.7739 102.666 L 35.6531 103.004 L 36.5471 103.304 L 37.4536 103.566 L 38.3701 103.792 L 39.2943 103.982 L 40.2238 104.136 L 41.156 104.256 L 42.0887 104.343 L 44.4677 104.579 L 46.8501 104.766 L 49.2354 104.908 L 51.623 105.013 L 54.012 105.087 L 56.4019 105.135 L 58.792 105.164 L 61.1816 105.18 L 61.4588 105.476 L 61.7566 105.75 L 62.0733 106 L 62.4071 106.227 L 62.7562 106.43 L 63.1187 106.609 L 63.4929 106.764 L 63.8768 106.895 L 64.2687 107 L 64.6668 107.081 L 65.0693 107.137 L 65.4743 107.168 L 65.88 107.172 L 66.2845 107.151 L 66.6862 107.104 L 67.0831 107.03 L 67.9883 106.787 L 68.4416 106.642 L 68.8859 106.474 L 69.3142 106.275 L 69.7197 106.041 L 70.0951 105.763 L 70.2694 105.607 L 70.4336 105.437 L 70.5993 105.19 L 70.6808 105.086 L 70.764 105.013 L 70.8509 104.982 L 70.9436 105.004 L 71.0441 105.094 L 71.1543 105.262 L 71.5407 105.538 L 71.9426 105.784 L 72.3586 105.999 L 72.7869 106.185 L 73.2261 106.343 L 73.6745 106.473 L 74.1306 106.576 L 74.5928 106.652 L 75.0595 106.703 L 75.5292 106.729 L 76.0002 106.731 L 76.4711 106.71 L 76.9403 106.666 L 77.406 106.6 L 77.8669 106.513 L 78.3213 106.406 L 78.6142 106.357 L 78.8954 106.282 L 79.1647 106.183 L 79.4219 106.06 L 79.6665 105.916 L 79.8984 105.752 L 80.1172 105.57 L 80.3226 105.372 L 80.5143 105.159 L 80.6921 104.932 L 80.8557 104.694 L 81.0046 104.445 L 81.1388 104.189 L 81.2578 103.925 L 81.3614 103.657 L 81.4492 103.385 L 82.0665 100.875 L 82.6272 98.3513 L 83.1313 95.8154 L 83.5786 93.2687 L 83.9692 90.7126 L 84.3027 88.1484 L 84.5793 85.5776 L 84.7987 83.0015 L 84.8681 81.734 L 84.9156 80.4642 L 84.9403 79.193 L 84.9414 77.9209 L 84.9181 76.6489 L 84.8695 75.3776 L 84.7947 74.1077 L 84.6928 72.8401 L 84.563 71.5754 L 84.4044 70.3144 L 84.2162 69.0579 L 83.9975 67.8065 L 83.7475 66.5611 L 83.4652 65.3223 L 83.1498 64.091 L 82.8005 62.8678 L 82.2638 61.3255 L 81.7324 59.7812 L 82.8759 58.8828 L 83.998 57.9536 L 85.0922 56.9907 L 86.1525 55.9914 L 86.6679 55.4771 L 87.1725 54.9527 L 87.6655 54.4178 L 88.146 53.8719 L 88.6134 53.3148 L 89.0668 52.7461 L 89.5054 52.1655 L 89.9285 51.5725 L 90.0983 51.3237 L 90.2469 51.0609 L 90.3686 50.7867 L 90.4573 50.5036 L 90.5071 50.2142 L 90.5122 49.9211 L 90.4665 49.6268 L 90.3641 49.3338 L 90.2521 49.0428 L 90.1217 48.7595 L 89.8438 48.2012 L 90.2647 47.9926 L 90.6846 47.76 L 91.0904 47.4992 L 91.4691 47.2059 L 91.6442 47.0457 L 91.8077 46.8758 L 91.9579 46.6957 L 92.0932 46.5048 L 92.212 46.3027 L 92.3127 46.0887 L 92.3936 45.8623 L 92.4531 45.623 L 90.967 42.7097 L 89.5099 39.7815 L 88.7985 38.3092 L 88.102 36.8298 L 87.4229 35.3424 L 86.7637 33.8457 L 87.0434 32.7955 L 87.2999 31.7395 L 87.5329 30.6783 L 87.7424 29.6123 L 87.9284 28.542 L 88.0907 27.468 L 88.2293 26.3906 L 88.344 25.3105 L 88.4349 24.2281 L 88.5017 23.1439 L 88.5445 22.0585 L 88.5631 20.9722 L 88.5575 19.8857 L 88.5275 18.7993 L 88.4731 17.7137 L 88.3943 16.6292 L 88.2793 15.4065 L 88.1364 14.1851 L 87.9626 12.9671 L 87.7551 11.7545 L 87.511 10.5493 L 87.2273 9.35356 L 86.9012 8.16926 L 86.5298 6.99841 L 86.4007 6.7137 L 86.2429 6.4343 L 86.0567 6.17136 L 85.842 5.93604 L 85.599 5.7395 L 85.4669 5.65926 L 85.3278 5.5929 L 85.1817 5.54181 L 85.0285 5.50739 L 84.8683 5.49104 L 84.7012 5.49414 L 84.7012 5.49414" />
  </g>
  <g
     inkscape:label="B.SilkS"
     inkscape:groupmode="layer"
     id="g30606"
     style="display:inline" />
  <g
     inkscape:label="F.SilkS"
     inkscape:groupmode="layer"
     id="g30608"
     style="display:inline">
    <path
       d="m 31.424551,45.24846 c 0.82983,-0.52099 4.66046,-1.72922 6.187157,-2.00756 2.01444,-0.36727 2.67149,-0.26661 3.05108,0.46744 0.55075,1.06501 -0.0654,1.75656 -2.8187,3.16383 -1.01681,0.51969 -2.171997,1.13384 -2.567107,1.36475 -0.95178,0.55624 -2.20945,1.49142 -2.20745,1.64142 0.003,0.18209 1.96356,2.63406 2.10678,2.63406 0.0689,0 0.38908,-0.32857 0.7116,-0.73013 0.660467,-0.82242 1.465497,-1.57683 2.845937,-2.667 1.71686,-1.35584 2.77841,-1.67878 3.30747,-1.00616 0.19983,0.25404 0.23915,0.4184 0.17802,0.74427 -0.0917,0.48861 -0.25165,0.72958 -1.57041,2.36546 -1.07876,1.33817 -1.70503,2.23498 -2.31877,3.32047 l -0.40138,0.70989 0.5656,0.51207 c 0.94025,0.85126 2.98738,2.33003 4.41507,3.18926 6.11731,3.68164 12.97995,5.32259 20.14483,4.81689 h -1.3e-4 c 8.13138,-0.57392 16.14251,-4.28729 21.7764,-10.09395 0.7382,-0.76084 0.71289,-0.88913 -0.42107,-2.13522 -0.98454,-1.08188 -1.21177,-1.53181 -1.21369,-2.40313 -0.002,-0.7232 0.22308,-1.13881 0.76799,-1.4206 0.61196,-0.31645 1.28613,-0.0529 2.29736,0.89796 0.46029,0.43282 0.98995,0.99707 1.17703,1.25389 0.1871,0.25683 0.34019,0.43911 0.34019,0.40508 0,-0.034 -0.26837,-0.56743 -0.59637,-1.18533 -0.65884,-1.24119 -0.72266,-1.63393 -0.35044,-2.15666 0.24003,-0.33711 1.71713,-1.1818 2.06658,-1.1818 0.0923,0 0.23388,-0.0795 0.3145,-0.17661 0.11994,-0.14452 0.0828,-0.24041 -0.20443,-0.52763 -0.40394,-0.40393 -0.99662,-0.50794 -2.66662,-0.46793 -0.57854,0.0138 -1.20975,-0.0414 -1.46276,-0.12809 -1.00744,-0.34514 -1.369,-1.41709 -0.73291,-2.17302 0.40473,-0.48102 0.70369,-0.59207 1.94032,-0.72084 0.551,-0.0574 1.02278,-0.12527 1.04839,-0.1509 0.0256,-0.0256 0.0181,-0.0816 -0.36809,-0.82187 -1.14101,-0.17159 -2.23657,-0.11593 -3.2516,0.34239 -0.16287,0 -0.93054,1.15191 -1.08855,1.65648 -0.14124,0.45106 -0.19408,1.63581 0.99389,2.17708 0.84655,0.2294 3.30261,0.66745 3.2183,0.80458 -0.1011,0.16442 -1.44311,0.7563 -1.04121,1.60915 -0.21161,-0.47503 -0.81469,-0.67603 -1.65648,-0.70992 -1.42426,0.10781 -1.77507,1.08783 -2.22441,1.98777 0.0378,1.40122 -0.0282,2.79725 1.23051,4.25951 -2.99151,3.03957 -7.13618,5.13564 -11.50068,7.05186 -5.04293,1.52203 -10.11847,2.47304 -15.28692,1.79846 -4.20744,-0.49366 -7.98649,-1.92201 -11.50069,-3.92822 -1.90764,-0.75293 -3.45802,-2.0775 -5.06408,-3.31296 1.38811,-1.69108 2.4004,-3.44116 3.41945,-5.19422 0.12774,-0.54207 0.062,-2.4089 -1.76298,-2.11794 -1.0221,0.0995 -4.01716,1.83334 -6.057957,4.09387 0,0 -1.27785,-1.32518 -1.08854,-1.32518 0.18931,0 6.578567,-3.59693 6.578567,-3.59693 0.43279,-0.30301 0.77799,-0.74615 1.05306,-1.30151 0.0997,-1.08772 -0.23078,-1.8756 -1.13588,-2.55571 -1.85406,-0.0116 -3.21816,-0.26578 -5.135087,0.41412 -0.61132,0.11016 -1.88523,0.54492 -2.49655,0.84008 -0.28968,0.19745 -1.7806,0.4332 -2.0108,0.66039 0.27152,0.58622 0.0401,1.28238 0.46666,1.01454 z m 6.546197,8.50148 c 0.29633,-0.53545 1.15078,-1.73338 1.89875,-2.66207 1.47496,-1.83131 1.81967,-2.38815 1.60888,-2.59893 -0.42635,-0.42636 -3.53922,1.89592 -5.146067,3.83913 l -0.6397,0.77359 0.806617,0.81283 c 0.44364,0.44705 0.83497,0.81196 0.86967,0.81091 0.0347,-10e-4 0.30552,-0.44002 0.60185,-0.97546 z m 48.68482,-2.0867 0.57195,-0.66947 -0.28101,-0.52971 c -0.54732,-1.03168 -2.11317,-2.3096 -2.62927,-2.1458 -0.32469,0.10305 -0.50877,0.73187 -0.3788,1.29401 0.1148,0.49649 0.16288,0.56596 1.00582,1.45328 0.31803,0.33477 0.66637,0.75683 0.77413,0.93791 0.10775,0.18109 0.23401,0.32926 0.28056,0.32926 0.0466,0 0.34204,-0.30127 0.65662,-0.66948 z m -53.075147,-3.1492 c 0.93391,-0.67387 1.43677,-0.96283 4.248937,-2.44155 1.72415,-0.9066 2.29653,-1.32802 2.29653,-1.69078 0,-0.38923 -0.29827,-0.66954 -0.71245,-0.66954 -0.60908,0 -2.92463,0.45064 -3.717557,0.72347 -1.33809,0.46043 -2.51431,1.12902 -2.51431,1.42917 0,0.0829 -0.29633,0.57357 -0.65851,1.09045 -0.36219,0.51687 -0.65852,1.0032 -0.65852,1.08072 0,0.13612 0.61762,1.18312 0.69817,1.18356 0.0218,1.1e-4 0.47979,-0.31736 1.01771,-0.7055 z m 54.796347,-4.64993 c 1.2e-4,-0.0152 -0.17403,-0.38104 -0.38701,-0.81294 -0.24222,-0.49118 -0.47761,-0.8078 -0.62858,-0.84545 -0.13274,-0.0331 -0.72027,-0.005 -1.30564,0.0612 -1.17543,0.13399 -1.50989,0.3224 -1.50989,0.85057 0,0.64555 0.50564,0.81022 2.42428,0.78952 0.77364,-0.008 1.40671,-0.0276 1.40684,-0.0428 z"
       style="fill:#000000;fill-opacity:1;stroke:#000000;stroke-width:0.167659;stroke-miterlimit:4;stroke-dasharray:none;stroke-opacity:1"
       id="path21399-5"
       sodipodi:nodetypes="ssssscssssssscssccsscssssssssssssssccscscccccccccccsccccccssssscscsscsssssssssssssssssssscssss" />
    <path
       d="m 84.745408,29.17211 c 0.71679,-3.78597 0.93083,-6.45233 0.7875,-9.81003 -0.10424,-2.44171 -0.44308,-5.53849 -0.77704,-7.10181 -0.37409,-1.75113 -0.67703,-2.93322 -0.75066,-2.92911 -0.042,0.002 -1.47725,1.00126 -3.18937,2.21983 -1.71213,1.21856 -4.31005,3.06197 -5.77313,4.09647 -1.46307,1.03451 -2.66082,1.90787 -2.66168,1.94079 0,0.0329 0.33886,0.25886 0.75491,0.50209 0.95675,0.55931 2.40809,1.63546 3.48936,2.58731 0.46095,0.40578 0.86868,0.73873 0.90603,0.73987 0.0373,0.001 0.16367,-0.30772 0.28069,-0.68637 0.64193,-2.07713 2.23068,-4.67359 3.9404,-6.43968 0.95579,-0.98732 1.15067,-1.13494 1.49716,-1.13414 0.53429,10e-4 1.09829,0.55303 1.09829,1.07454 0,0.30461 -0.18643,0.57038 -1.00871,1.43805 -1.16169,1.2258 -2.01401,2.43957 -2.75716,3.92644 -0.49095,0.98231 -1.26278,3.16155 -1.26278,3.5655 0,0.10059 0.39809,0.67914 0.88467,1.28566 1.0755,1.34067 2.54489,3.57355 3.42894,5.21068 0.36034,0.66727 0.6854,1.21477 0.72235,1.21665 0.0369,0.002 0.21255,-0.76437 0.39023,-1.70274 z"
       style="fill:#000000;fill-opacity:1;stroke:#000000;stroke-width:0.0316785;stroke-opacity:1"
       id="path8988"
       sodipodi:nodetypes="ssscsscsscsscsssssscs" />
    <path
       d="m 34.918921,30.52137 c -0.7168,-3.78597 -0.93084,-6.45232 -0.78751,-9.81003 0.10424,-2.4417 0.44309,-5.53848 0.77704,-7.1018 0.3741,-1.75113 0.67703,-2.93323 0.75067,-2.92912 0.042,0.002 1.477237,1.00127 3.189367,2.21983 1.71213,1.21856 4.31004,3.06197 5.77312,4.09648 1.46307,1.0345 2.66082,1.90786 2.66169,1.94078 0,0.0329 -0.33887,0.25887 -0.75491,0.50209 -0.95676,0.55932 -2.4081,1.63547 -3.48937,2.58731 -0.46095,0.40578 -0.86868,0.73873 -0.90603,0.73987 -0.0373,10e-4 -0.16367,-0.30772 -0.28069,-0.68636 -0.64193,-2.07713 -2.23068,-4.67359 -3.9404,-6.43968 -0.95578,-0.98732 -1.15066,-1.13495 -1.497147,-1.13415 -0.5343,0.001 -1.0983,0.55303 -1.0983,1.07454 0,0.30461 0.18644,0.57038 1.00872,1.43805 1.161687,1.2258 2.014007,2.43958 2.757147,3.92645 0.49096,0.98231 1.26278,3.16155 1.26278,3.56549 0,0.1006 -0.39808,0.67914 -0.88466,1.28566 -1.07551,1.34067 -2.5449,3.57355 -3.428947,5.21068 -0.36034,0.66728 -0.6854,1.21477 -0.72235,1.21665 -0.0369,0.002 -0.21254,-0.76436 -0.39022,-1.70274 z"
       style="fill:#000000;fill-opacity:1;stroke:#000000;stroke-width:0.0316785;stroke-opacity:1"
       id="path8988-3"
       sodipodi:nodetypes="ssscsscsscsscsssssscs" />
    <path
       d="m 57.853452,51.839162 c -1.61796,-0.34418 -2.75227,-1.71868 -2.75227,-3.33508 0,-0.47669 0.0578,-0.63659 0.3168,-0.87665 0.34432,-0.3191 0.74748,-0.37284 1.15776,-0.15432 0.35818,0.19078 0.5525,0.46722 0.55703,0.79246 0.0111,0.80214 0.74302,1.58117 1.4863,1.58214 0.51419,6.8e-4 1.0851,-0.41175 1.33396,-0.96361 0.45842,-1.01658 1.30781,-1.05784 2.11322,-0.10268 0.33303,0.39494 0.64929,0.63546 0.95674,0.72757 0.9305,0.27879 1.89027,-0.32319 2.07038,-1.29856 0.12091,-0.65474 0.48064,-0.99633 1.04925,-0.99633 0.33885,0 0.54676,0.0833 0.77307,0.30958 0.27698,0.27697 0.3027,0.37609 0.24437,0.94139 -0.26469,2.56446 -3.15016,4.01439 -5.46355,2.7454 l -0.52859,-0.28995 -0.42925,0.29638 c -0.93328,0.64442 -1.85081,0.8423 -2.88522,0.62226 z m 2.28347,-5.07406 c -0.41756,-0.31278 -0.93144,-0.66788 -1.14199,-0.78908 -0.44177,-0.25434 -0.78247,-0.76957 -0.77698,-1.17499 0.007,-0.52608 0.27762,-0.71185 1.21385,-0.83369 0.48269,-0.0628 1.17719,-0.16616 1.54334,-0.22966 0.36615,-0.0635 1.04918,-0.11547 1.51786,-0.11547 0.77797,0 0.87373,0.0274 1.10029,0.31547 0.49806,0.63316 0.36591,0.951 -0.92802,2.23184 -0.85108,0.84249 -1.25813,1.1643 -1.47267,1.1643 -0.16733,0 -0.6272,-0.24773 -1.05568,-0.56872 z"
       style="fill:#000000;fill-opacity:1;stroke:#000000;stroke-width:0.0316785;stroke-opacity:1"
       id="path4703" />
    <path
       style="fill:none;stroke:#000001;stroke-width:0.203635;stroke-miterlimit:4;stroke-dasharray:none;stroke-opacity:1"
       d="m 62.420758,105.1176 c -0.15112,-0.0839 -0.37932,-0.32442 -0.5071,-0.53454 l -0.23232,-0.38204 h -3.68897 c -7.05913,0 -15.53111,-0.56107 -19.01047,-1.259 -5.194567,-1.04199 -9.070997,-3.55563 -11.782347,-7.64017 -0.67691,-1.01975 -0.74816,-1.08495 -2.02797,-1.85581 -2.98978,-1.80085 -4.91679,-3.40268 -7.46064,-6.2017 -5.78548,-6.3658 -7.85088,-10.56799 -8.525627,-17.3459 -0.800577,-8.04201 0.402814,-15.51047 2.972247,-18.44634 1.67037,-1.90858 4.98082,-2.14565 6.52773,-0.46745 1.85496,2.01239 2.61982,6.99444 2.05731,13.4007 -0.45473,5.17883 -0.31457,7.59303 0.6607,11.37985 0.23099,0.89693 0.77993,2.17416 1.33792,3.11297 0.44981,0.75682 1.47132,2.12504 1.53729,2.05908 0.0213,-0.0213 0.19496,-0.65497 0.38586,-1.40811 0.81526,-3.21635 2.06681,-5.88887 5.32307,-11.36678 2.24082,-3.76964 3.74751,-5.9165 6.28761,-8.95905 l 1.132237,-1.35621 -0.64589,-0.54908 c -1.234317,-1.04934 -4.026137,-3.92953 -4.995497,-5.15362 -1.52522,-1.92602 -2.77431,-3.88333 -2.77431,-4.3473 0,-0.27423 0.17907,-0.65029 0.59865,-1.25724 0.32926,-0.47629 0.59531,-0.91105 0.59123,-0.96614 -0.004,-0.0551 -0.496,-0.50424 -1.09316,-0.99813 -1.13097,-0.93537 -1.49852,-1.45354 -1.37109,-1.93297 0.10691,-0.40225 0.14592,-0.44245 1.28555,-1.32489 1.49472,-1.15737 2.51767,-2.3255 3.54227,-4.04499 1.02322,-1.71718 1.00344,-1.54361 0.42313,-3.71229 -0.43313,-1.61869 -0.7672,-3.31536 -1.06084,-5.38785 -0.30975,-2.18623 -0.31205,-8.53987 -0.004,-10.65595 0.63272,-4.34414 1.8018,-8.76785 2.42506,-9.17622 0.65178,-0.42706 1.0059,-0.30791 4.121687,1.38681 1.61336,0.87752 3.25665,1.77062 3.65176,1.98465 0.39511,0.21404 1.55349,0.84539 2.57419,1.40302 4.09763,2.2386 6.35372,3.44391 6.44634,3.44391 0.0536,0 0.57823,-0.20821 1.16579,-0.46269 1.39238,-0.60306 3.44271,-1.27117 4.72004,-1.53805 1.59757,-0.33379 5.03376,-0.30155 6.76473,0.0635 2.08256,0.43917 4.10034,0.98056 5.25782,1.41074 0.58699,0.21816 1.12578,0.3622 1.1973,0.3201 0.0715,-0.0421 1.4231,-0.99255 3.00353,-2.11208 1.58043,-1.11953 3.49312,-2.47409 4.25041,-3.01015 0.75729,-0.53606 2.58405,-1.83007 4.05947,-2.87559 3.03499,-2.15067 3.24301,-2.23243 3.84511,-1.51121 0.5662,0.67822 1.56197,5.12683 1.98709,8.87735 0.20357,1.79601 0.27683,7.01671 0.11845,8.44095 -0.0439,0.39511 -0.1299,1.25716 -0.19104,1.91568 -0.15875,1.71011 -0.53427,3.78161 -1.0803,5.95926 l -0.4735,1.88845 0.90613,2.06263 c 0.94876,2.15966 3.39319,7.1583 4.26583,8.72325 l 0.50942,0.91358 -0.20283,0.42533 c -0.16218,0.34011 -0.42592,0.54652 -1.31609,1.03003 -0.61231,0.33257 -1.16716,0.62598 -1.23301,0.652 -0.0658,0.026 0.11013,0.49836 0.39106,1.04964 0.28724,0.56363 0.50995,1.16836 0.50885,1.38169 -0.001,0.29273 -0.24005,0.68568 -1.04462,1.72067 -1.89953,2.44353 -4.50044,4.98687 -6.81596,6.66509 -0.87861,0.63679 -1.11151,0.86522 -1.07331,1.05272 0.0268,0.1317 0.32131,0.97235 0.65442,1.86812 1.08374,2.91426 1.54626,4.83401 2.10282,8.72797 0.45598,3.19033 0.57591,4.91978 0.57703,8.32122 0.001,3.95327 -0.22273,6.77644 -0.93582,11.79338 -0.67133,4.72304 -1.07914,6.87944 -2.04799,10.82917 -0.76395,4.23473 -1.82371,4.37699 -5.05391,4.62928 -2.44335,0.14295 -3.87512,-1.08094 -4.04504,-1.15835 -0.44713,-0.20372 -0.63822,-0.48739 -0.63822,-1.06967 0,-0.4181 -0.0147,-0.4331 -0.38911,-0.39699 -0.32562,0.0314 -0.41114,0.10564 -0.52406,0.455 -0.2388,0.73883 -0.54203,2.1365 -4.27542,2.60039 -1.88664,0.23443 -3.30713,-0.92452 -3.33018,-0.92685 -0.0231,-0.002 -0.16554,-0.0729 -0.31667,-0.15675 z"
       id="path854-4-0"
       sodipodi:nodetypes="cscssssssssssssssscssssssssssscsssssssssssssssssscsscsssscsssssssccsssssccc" />
    <path
       d="m 24.965261,90.0551 c -0.33739,-0.87063 -0.71328,-3.00685 -0.83747,-4.75926 -0.0847,-1.19546 -0.19219,-1.97599 -0.28588,-2.0761 -0.12348,-0.13195 -0.29621,-0.0145 -0.97319,0.66194 -0.86608,0.86534 -1.63372,1.36228 -2.58502,1.67343 -0.31502,0.10304 -0.57277,0.22778 -0.57277,0.2772 0,0.34868 4.87574,4.55205 5.2802,4.55205 0.0559,0 0.0443,-0.14817 -0.0259,-0.32926 z m -4.21981,-5.47469 c 0.87438,-0.43173 2.10933,-1.50995 2.25497,-1.96879 0.0567,-0.17884 -0.0449,-0.39246 -0.37447,-0.78672 l -0.45241,-0.5412 -0.66259,0.64494 c -0.94424,0.9191 -1.55885,1.32307 -2.57893,1.69511 l -0.89383,0.326 0.49854,0.59545 c 0.46474,0.55509 0.52753,0.59077 0.92618,0.52639 0.23517,-0.0379 0.81232,-0.25901 1.28254,-0.49118 z m -1.55784,-1.86665 c 0.9994,-0.48085 2.0194,-1.28762 2.30676,-1.82456 0.14436,-0.26974 0.13402,-0.34308 -0.0935,-0.66252 -0.14067,-0.19756 -0.48494,-0.78813 -0.76505,-1.31236 l -0.50928,-0.95316 -0.76622,0.46331 c -1.11634,0.67499 -1.9604,0.96829 -3.99769,1.38912 l -0.45707,0.0944 0.62844,0.89798 c 0.34562,0.49388 0.91925,1.25944 1.27474,1.70124 0.59893,0.74438 0.67416,0.79857 1.02592,0.73906 0.20878,-0.0354 0.81758,-0.27496 1.35291,-0.53252 z m -2.1694,-4.00723 c 0.94778,-0.30938 2.03189,-0.83302 2.53939,-1.22654 l 0.26573,-0.20605 -0.25303,-0.8381 c -0.13917,-0.46097 -0.26907,-0.8574 -0.28864,-0.88098 -0.0196,-0.0236 -0.3491,0.14756 -0.73223,0.38031 -1.21843,0.74015 -2.41603,1.0745 -3.89631,1.08778 -0.70747,0.006 -1.28666,0.0587 -1.2871,0.11642 0,0.0577 0.22822,0.53459 0.50808,1.05977 l 0.50884,0.95488 0.84112,-0.0682 c 0.4626,-0.0375 1.26998,-0.20819 1.79415,-0.3793 z m -0.50648,-2.61829 c 0.72131,-0.22925 2.16045,-0.9809 2.41357,-1.2606 0.17333,-0.19153 0.17475,-0.28571 0.0147,-0.97809 -0.0974,-0.42138 -0.26102,-1.40914 -0.36369,-2.19501 -0.10268,-0.78588 -0.20447,-1.44667 -0.22622,-1.46842 -0.0217,-0.0217 -0.3395,0.0978 -0.70613,0.26563 -1.37035,0.62737 -3.31471,0.82058 -4.87745,0.48467 -0.42803,-0.092 -0.87253,-0.20459 -0.98778,-0.25019 -0.17003,-0.0673 -0.20944,-0.0185 -0.20912,0.25916 0,0.64915 0.44732,2.64257 0.88877,3.96738 0.36076,1.08269 0.49126,1.33965 0.70471,1.38749 0.50268,0.11268 2.78074,-0.0316 3.34854,-0.21202 z m 0.31068,-6.0496 c 0.35395,-0.142 0.85232,-0.3647 1.10751,-0.49489 l 0.46398,-0.2367 v -0.89554 c 0,-0.49255 -0.045,-0.89554 -0.1,-0.89554 -0.055,0 -0.41865,0.10354 -0.80817,0.23009 -1.60431,0.52123 -3.72681,0.64337 -5.32785,0.30658 -0.47508,-0.0999 -0.88049,-0.16499 -0.90091,-0.14457 -0.0204,0.0204 -0.004,0.42824 0.0357,0.90626 0.0824,0.98232 0.15086,1.05157 1.38168,1.39645 0.95002,0.26621 3.29832,0.16876 4.148,-0.17214 z m 0.32002,-2.89602 c 0.61925,-0.20533 1.1734,-0.43432 1.23145,-0.50885 0.10361,-0.13302 0.37921,-3.03095 0.37921,-3.98733 v -0.48688 l -0.68846,0.16185 c -1.70587,0.40102 -3.93215,0.32454 -5.88269,-0.20209 -0.4862,-0.13127 -0.91723,-0.20555 -0.95785,-0.16507 -0.096,0.0957 -0.17356,4.54857 -0.0854,4.89992 0.0999,0.3981 1.2989,0.63554 3.28277,0.6501 1.48193,0.0109 1.67487,-0.0148 2.72093,-0.36165 z m -0.005,-5.37966 c 0.46095,-0.0665 1.04014,-0.17529 1.28709,-0.2417 l 0.44898,-0.12074 v -0.93561 -0.9356 l -0.98776,0.17408 c -1.34788,0.23753 -3.97818,0.13761 -5.34556,-0.20307 -0.55293,-0.13776 -1.03239,-0.22341 -1.06548,-0.19034 -0.0331,0.0331 -0.0855,0.45541 -0.11649,0.93852 l -0.0564,0.87838 0.88238,0.26184 c 1.6017,0.47528 3.34207,0.60677 4.95322,0.37424 z m 0.87451,-2.79839 c 0.41511,-0.089 0.78597,-0.19311 0.82412,-0.23125 0.11547,-0.11544 -0.20634,-2.65112 -0.50314,-3.96462 -0.35323,-1.56333 -0.69907,-2.36569 -1.21475,-2.81848 -0.36752,-0.32268 -0.48805,-0.35805 -1.21213,-0.35568 -0.99078,0.003 -1.63573,0.27405 -2.16664,0.90981 -0.45015,0.53905 -1.21232,2.08786 -1.49529,3.03864 -0.1998,0.67132 -0.67409,2.68389 -0.67409,2.86038 0,0.0997 1.07295,0.41691 2.0354,0.60179 0.85393,0.16402 3.56921,0.13902 4.40654,-0.0406 z"
       style="fill:#000000;fill-opacity:1;stroke:#000000;stroke-width:0.0316785;stroke-opacity:1"
       id="path4106"
       sodipodi:nodetypes="sssssssssssscsscssssssscsscsscssscscsccsccssssssssscsssssscssssscsssssscsssssssscccsssccssssssscssssss" />
    <path
       d="m 38.603948,76.95687 c 0.8601,-1.06217 -0.82556,-3.01355 -4.697567,-5.43806 -1.39863,-0.87578 -2.27372,-1.71882 -2.63727,-2.5407 -0.13082,-0.29573 -0.28717,-0.5072 -0.34746,-0.46994 -0.11029,0.0682 -1.83408,3.06748 -1.97697,3.43985 -0.11185,0.29149 0.87849,1.52116 1.84828,2.29495 2.28358,1.82202 5.16407,3.09872 6.823217,3.0242 0.62944,-0.0283 0.80372,-0.083 0.98777,-0.3103 z m 3.5568,-8.10381 c 0.45734,-0.32034 0.53976,-0.7248 0.26304,-1.29081 -0.26484,-0.5417 -0.69514,-1.01254 -2.80315,-3.06725 -1.43624,-1.39991 -2.1596,-2.26552 -2.85831,-3.42043 -0.21416,-0.35397 -0.416317,-0.64457 -0.449247,-0.64575 -0.0329,-0.001 -0.42726,0.49065 -0.8763,1.09299 -0.93118,1.24909 -0.93299,1.26784 -0.23489,2.41748 0.90163,1.48481 2.827697,3.5956 3.704607,4.05994 0.18697,0.099 0.69018,0.37351 1.1182,0.61003 0.87521,0.48361 1.66499,0.57375 2.13605,0.2438 z m -0.36236,0.67397 c -0.67322,-0.36529 -1.25385,0.10492 -2.47294,-0.56577 -1.88682,-1.03804 -3.792407,-2.98377 -4.994017,-5.09925 l -0.26618,-0.46861 -0.77301,1.17938 c -0.42515,0.64866 -0.99594,1.55795 -1.26843,2.02065 -0.46834,0.7953 -0.48826,0.86727 -0.36439,1.31703 0.36833,1.33749 0.96833,2.01374 2.736,3.08366 1.44972,0.87746 4.236007,4.4901 5.045517,3.75523 0.91324,-0.82902 1.76436,-1.7556 2.33932,-3.11588 0.32062,-0.75856 1.00673,-1.57003 0.0181,-2.10644 z"
       style="fill:#000000;fill-opacity:1;stroke:#000000;stroke-width:0.0316785;stroke-opacity:1"
       id="path4875"
       sodipodi:nodetypes="ssscssssscsssssscsssscssssssss" />
    <path
       d="m 66.230018,105.51751 c 1.4869,-0.37011 1.79688,-1.31005 1.85816,-1.51706 0.0537,-0.18141 0.001,-0.5449 -0.061,-1.25956 -0.5822,-6.67485 -1.07479,-12.17326 -1.12779,-12.58828 -0.0599,-0.46967 -0.26873,-0.73104 -2.48645,-3.11298 -4.26288,-4.57853 -5.04084,-5.53362 -5.93905,-7.29107 -0.69767,-1.36511 -0.96965,-2.38638 -1.04655,-3.92974 -0.11126,-2.23324 0.44,-4.26307 2.00997,-7.40085 0.32332,-0.6462 0.58786,-1.19845 0.58786,-1.22723 0,-0.0288 -0.33673,-0.0529 -0.74831,-0.0536 -0.41158,-6.8e-4 -1.39454,-0.18803 -2.18507,-0.12426 -10.6703,0.86077 0.0907,42.04657 3.4911,36.37369 0.64509,-1.07622 -3.13759,-8.18386 -3.84699,-12.33951 -0.33466,-1.96036 -0.37789,-3.02652 -0.13567,-3.34562 0.2403,-0.31659 0.81163,-0.48013 1.18344,-0.33876 0.43124,0.16396 0.64796,0.55163 0.74185,1.32706 0.32451,2.68037 1.16326,6.4174 2.0557,9.15933 0.39024,1.19894 2.14863,5.17887 2.71105,6.13615 0.12573,0.21402 0.29108,0.39504 0.34148,0.46603 0.78895,1.08075 1.15165,1.08959 2.59633,1.06622 z m 10.008,-0.58595 c 1.56931,0.17179 2.27145,-1.1497 2.31898,-1.44887 0.0928,-0.0928 0.86422,-3.25367 1.22195,-5.00678 0.72587,-3.55717 1.56413,-9.35672 1.93365,-13.37803 0.1939,-2.11023 0.19393,-8.38575 3e-5,-10.2369 -0.33818,-3.22846 -0.96135,-6.82488 -1.51164,-8.72386 -0.27304,-0.94215 -1.35115,-4.03162 -1.44001,-4.1265 -0.0202,-0.0216 -0.47542,0.21373 -1.0115,0.52295 -0.76904,0.44358 -3.24219,1.64778 -3.89505,1.89653 -0.0661,0.0252 0.18017,0.36202 0.54735,0.74849 5.08544,5.35247 6.1593,9.30999 4.03336,14.86437 -0.25912,0.67699 -1.48841,3.27646 -2.73174,5.7766 l -2.26061,4.5457 -0.008,4.4603 c -0.005,2.45317 -0.006,5.49747 -0.004,6.7651 l 0.004,2.3048 c 0.25136,1.05583 1.57905,1.26829 2.80331,1.0361 z m -5.23056,-2.54757 0.26654,-0.0715 0.0328,-6.82202 0.0328,-6.822 0.28267,-0.22883 c 0.37246,-0.30153 0.98313,-0.29081 1.38372,0.0243 0.17697,0.13921 0.3427,0.23218 0.36828,0.2066 0.0256,-0.0256 0.9053,-1.76929 1.95494,-3.87493 2.96194,-5.94182 3.29083,-6.90363 3.29478,-9.63533 0.002,-1.5758 -0.0281,-1.83004 -0.32899,-2.75378 -0.38338,-1.17694 -1.05419,-2.48267 -1.84486,-3.59107 -0.78049,-1.09411 -2.53374,-3.09939 -3.11918,-3.56756 l -0.49255,-0.39389 -1.52765,0.48859 c -3.1231,0.99886 -5.90481,1.53389 -9.04856,1.74042 l -1.29495,0.0851 -0.27973,0.44313 c -0.49879,0.79015 -1.34035,2.55284 -1.77494,3.71774 -1.07465,2.88064 -1.07101,5.39129 0.0111,7.70069 0.89397,1.90769 1.49162,2.67055 5.34502,6.82254 l 2.50759,2.70191 0.40003,-0.35121 c 0.49949,-0.43857 0.88394,-0.44484 1.34738,-0.022 l 0.36082,0.32926 0.47496,5.32797 c 0.26121,2.93039 0.53998,6.0688 0.61947,6.97427 l 0.14454,1.64628 0.30867,-0.001 c 0.16977,-6.8e-4 0.42861,-0.0338 0.57522,-0.0731 z"
       style="fill:#000000;fill-opacity:1;fill-rule:nonzero;stroke:#000000;stroke-width:0.0316785;stroke-opacity:1"
       id="path6411"
       sodipodi:nodetypes="cscsssssscsscccscsccccssssssccssscsccssssssssscssccccsssccccsssscss" />
    <path
       d="m 63.351835,24.719253 c 0.462811,-0.48672 0.775299,-1.437858 0.790407,-2.405676 0.02775,-1.78151 -0.397523,-4.896589 -0.850585,-6.229715 l -0.156294,-0.459977 -1.525796,-0.08351 c -1.686518,-0.09232 -4.09109,-0.0092 -4.367331,0.150901 -0.157754,0.09143 -0.129452,0.193597 0.254831,0.920151 0.427063,0.807461 1.014037,2.494206 1.731005,4.974365 0.452214,1.564204 1.196312,2.848285 1.984958,3.425407 0.506183,0.370393 0.550899,0.379245 1.158963,0.229327 0.441044,-0.108696 0.737647,-0.266525 0.979852,-0.521262 z m 5.652737,-2.574399 c 0.275296,-0.298306 0.333448,-0.673444 0.375427,-2.421761 0.01437,-0.598361 0.08791,-1.368966 0.163484,-1.712479 0.07554,-0.343499 0.09932,-0.690136 0.05284,-0.770311 -0.07506,-0.129582 -2.469925,-0.950078 -3.236786,-1.108994 -0.291824,-0.06047 -0.29471,-0.05017 -0.171478,0.612715 0.06858,0.370871 0.203403,1.426478 0.298868,2.3459 0.191217,1.842403 0.511189,2.788954 1.09778,3.247671 0.37103,0.290117 1.06066,0.196517 1.419885,-0.192724 z m -13.423749,1.971214 c 0.366916,-0.271048 0.558692,-0.869283 0.583851,-1.821477 0.02586,-0.977876 -0.562737,-3.896206 -1.010201,-5.009029 l -0.359582,-0.894189 -0.444961,0.146291 c -0.44989,0.147891 -2.695063,1.28795 -3.015133,1.531049 -0.157112,0.119379 -0.134073,0.220304 0.244431,1.070301 0.22986,0.51619 0.529779,1.397613 0.666486,1.958716 0.136755,0.561095 0.366708,1.266202 0.511093,1.566896 0.469589,0.977939 1.596435,1.81293 2.305571,1.708413 0.117183,-0.01778 0.350555,-0.132876 0.518444,-0.25692 z"
       style="fill:#000000;fill-opacity:1;stroke:#000000;stroke-width:0.0316785;stroke-opacity:1"
       id="path8208"
       sodipodi:nodetypes="ssscsssssssssssssssssssscssssscs" />
    <path
       id="path9546-1"
       style="opacity:0.98062;fill:#000000;fill-opacity:1;fill-rule:nonzero;stroke:#000000;stroke-width:0.135757;stroke-linecap:round;stroke-linejoin:round;stroke-miterlimit:4;stroke-dasharray:none;stroke-opacity:1"
       d="m 75.150978,26.90491 c -0.18685,0.0275 -0.73254,0.2383 -1.04455,0.44574 l -10.18989,8.19927 c -0.19838,0.13884 -0.7797,-0.32908 -0.83487,-0.50486 l -0.69946,-2.02396 -0.19145,0.17423 c 0.31317,0.75768 0.32469,1.69598 0.4598,2.13024 0.007,0.52061 0.11999,0.77331 0.48492,1.29391 0.27316,0.54869 0.67399,1.07623 1.32486,1.56198 1.152803,1.000982 2.867949,2.088842 4.52789,2.10689 1.03838,0.0219 2.23101,-0.41959 2.23101,-0.41959 1.21923,-0.53554 2.2929,-1.04271 3.45333,-2.10744 0.66987,-0.52037 1.22681,-1.27438 1.59368,-2.46136 0.44233,-0.98272 0.0973,-1.74809 -0.0573,-2.85019 -0.30404,-1.29254 -1.60405,-2.65441 -2.72766,-3.50564 0.22488,-0.38636 1.51809,-1.20088 1.93221,-1.20874 0.65448,0.0225 1.32316,-0.12882 2.03125,0.88297 0.8744,1.28231 1.10769,1.30589 0.1955,-0.68719 -0.91612,-1.42374 -2.09697,-0.94165 -2.48928,-1.02626 z m -2.43184,2.75888 c 0.95463,0.84196 2.28136,1.16002 2.66095,3.29585 0.053,0.2984 -0.005,0.77513 0.013,1.15298 -0.73896,2.52126 -2.33756,3.53882 -4.18855,4.54355 -0.505504,0.243629 -1.23176,0.439995 -1.94582,0.52676 -0.74008,0.0126 -1.42159,-0.1053 -1.77917,-0.25369 -0.64261,-0.13752 -3.12892,-2.41724 -2.99543,-2.49732 2.85053,-2.52859 5.30901,-4.53261 8.23504,-6.76813 z"
       sodipodi:nodetypes="sccccccccccccccccccscccccccsc" />
    <path
       d="m 49.901338,35.25813 c -1.97291,-0.48462 -5.84978,-1.46583 -7.13228,-2.3441 -0.10036,-0.14329 -0.0102,-0.22092 0.1899,-0.16354 0.3352,0.0961 0.35092,-0.0131 0.0316,-0.2194 -0.24667,-0.15932 -0.29303,-0.25841 -0.17958,-0.38377 0.10604,-0.11718 0.21999,-0.10286 0.49342,0.062 4.08264,1.68792 6.83436,2.09718 10.74095,3.0682 0.20066,0.0508 0.60533,0.16775 1.48096,0.21849 0.49855,0.0289 0.50923,0.0382 0.72325,-0.0703 0.17333,-0.0878 0.20192,-0.10248 0.30581,-0.28407 0.0728,-0.12723 0.1087,-0.24189 0.1087,-0.31262 0,-0.16786 -0.0998,-0.41119 -0.21616,-0.5686 -0.18554,-0.25097 0.20748,-0.48891 0.41969,-0.25729 0.19859,0.21675 0.38335,0.46653 0.3844,0.80318 6.8e-4,0.36106 -0.0188,0.50033 -0.33844,0.87138 -0.21004,0.24383 -0.32219,0.36084 -1.02217,0.50097 -0.640421,0.130352 -1.343963,0.01467 -1.93306,-0.0729 -2.048876,-0.412996 -1.800961,-0.365416 -4.05699,-0.84763 z"
       style="fill:#000000;stroke-width:0.0113338"
       id="path13337-1"
       sodipodi:nodetypes="ccsssccsssssscsccc" />
    <path
       style="opacity:0.98062;fill:#000000;fill-opacity:1;fill-rule:nonzero;stroke:#000000;stroke-width:0.882418;stroke-linecap:round;stroke-linejoin:round;stroke-miterlimit:4;stroke-dasharray:none;stroke-opacity:1"
       d="m 44.637058,35.08513 c -0.0324,-0.273 -0.32076,-0.27133 0.18931,-0.28396 2.11338,4.70691 6.83244,4.47307 11.07474,2.53205 0.52199,-0.16348 0.25904,-0.0478 -0.0237,0.28397 -4.32737,2.20304 -8.81826,1.71859 -11.24039,-2.53206 z"
       id="path14063-8"
       sodipodi:nodetypes="ccccc" />
  </g>
</svg>
