%TF.GenerationSoftware,KiCad,Pcbnew,9.0.6*%
%TF.CreationDate,2025-12-31T17:09:58+01:00*%
%TF.ProjectId,Panda,50616e64-612e-46b6-9963-61645f706362,rev?*%
%TF.SameCoordinates,Original*%
%TF.FileFunction,Copper,L1,Top*%
%TF.FilePolarity,Positive*%
%FSLAX46Y46*%
G04 Gerber Fmt 4.6, Leading zero omitted, Abs format (unit mm)*
G04 Created by KiCad (PCBNEW 9.0.6) date 2025-12-31 17:09:58*
%MOMM*%
%LPD*%
G01*
G04 APERTURE LIST*
G04 Aperture macros list*
%AMRoundRect*
0 Rectangle with rounded corners*
0 $1 Rounding radius*
0 $2 $3 $4 $5 $6 $7 $8 $9 X,Y pos of 4 corners*
0 Add a 4 corners polygon primitive as box body*
4,1,4,$2,$3,$4,$5,$6,$7,$8,$9,$2,$3,0*
0 Add four circle primitives for the rounded corners*
1,1,$1+$1,$2,$3*
1,1,$1+$1,$4,$5*
1,1,$1+$1,$6,$7*
1,1,$1+$1,$8,$9*
0 Add four rect primitives between the rounded corners*
20,1,$1+$1,$2,$3,$4,$5,0*
20,1,$1+$1,$4,$5,$6,$7,0*
20,1,$1+$1,$6,$7,$8,$9,0*
20,1,$1+$1,$8,$9,$2,$3,0*%
G04 Aperture macros list end*
%TA.AperFunction,ComponentPad*%
%ADD10R,1.800000X1.800000*%
%TD*%
%TA.AperFunction,ComponentPad*%
%ADD11C,1.800000*%
%TD*%
%TA.AperFunction,ComponentPad*%
%ADD12RoundRect,0.250000X0.550000X0.550000X-0.550000X0.550000X-0.550000X-0.550000X0.550000X-0.550000X0*%
%TD*%
%TA.AperFunction,ComponentPad*%
%ADD13C,1.600000*%
%TD*%
%TA.AperFunction,ComponentPad*%
%ADD14C,2.000000*%
%TD*%
%TA.AperFunction,ComponentPad*%
%ADD15R,1.500000X1.500000*%
%TD*%
%TA.AperFunction,ComponentPad*%
%ADD16C,1.500000*%
%TD*%
%TA.AperFunction,ComponentPad*%
%ADD17O,1.600000X1.600000*%
%TD*%
%TA.AperFunction,ComponentPad*%
%ADD18R,1.600000X1.600000*%
%TD*%
%TA.AperFunction,Conductor*%
%ADD19C,0.250000*%
%TD*%
G04 APERTURE END LIST*
D10*
%TO.P,D2,1,K*%
%TO.N,Net-(D1-K)*%
X101600000Y-80000000D03*
D11*
%TO.P,D2,2,A*%
%TO.N,Net-(D1-A)*%
X104140000Y-80000000D03*
%TD*%
D10*
%TO.P,D1,1,K*%
%TO.N,Net-(D1-K)*%
X79300000Y-79900000D03*
D11*
%TO.P,D1,2,A*%
%TO.N,Net-(D1-A)*%
X81840000Y-79900000D03*
%TD*%
D12*
%TO.P,U1,1,GND*%
%TO.N,Net-(D1-K)*%
X118600000Y-119380000D03*
D13*
%TO.P,U1,2,TR*%
%TO.N,Net-(D3-K)*%
X118600000Y-121920000D03*
%TO.P,U1,3,Q*%
%TO.N,unconnected-(U1-Q-Pad3)*%
X118600000Y-124460000D03*
%TO.P,U1,4,R*%
%TO.N,Net-(S1-E)*%
X118600000Y-127000000D03*
%TO.P,U1,5,CV*%
%TO.N,unconnected-(U1-CV-Pad5)*%
X110980000Y-127000000D03*
%TO.P,U1,6,THR*%
%TO.N,Net-(D3-K)*%
X110980000Y-124460000D03*
%TO.P,U1,7,DIS*%
%TO.N,Net-(D3-A)*%
X110980000Y-121920000D03*
%TO.P,U1,8,VCC*%
%TO.N,Net-(S1-E)*%
X110980000Y-119380000D03*
%TD*%
D14*
%TO.P,S1,1,A*%
%TO.N,Net-(S1-A-Pad1)*%
X126100000Y-56720000D03*
%TO.P,S1,2,E*%
%TO.N,Net-(S1-E)*%
X126100000Y-59260000D03*
%TO.P,S1,3,A*%
%TO.N,unconnected-(S1-A-Pad3)*%
X126100000Y-61800000D03*
%TD*%
D13*
%TO.P,R7,1*%
%TO.N,Net-(D3-K)*%
X86340000Y-109400000D03*
%TO.P,R7,2*%
%TO.N,Net-(D3-A)*%
X96500000Y-109400000D03*
%TD*%
%TO.P,R6,1*%
%TO.N,Net-(S1-E)*%
X86340000Y-113450000D03*
%TO.P,R6,2*%
%TO.N,Net-(Q2-C)*%
X96500000Y-113450000D03*
%TD*%
%TO.P,R5,1*%
%TO.N,Net-(S1-E)*%
X86340000Y-117500000D03*
%TO.P,R5,2*%
%TO.N,Net-(Q1-C)*%
X96500000Y-117500000D03*
%TD*%
%TO.P,R4,1*%
%TO.N,Net-(Q1-B)*%
X86340000Y-121550000D03*
%TO.P,R4,2*%
%TO.N,Net-(D1-K)*%
X96500000Y-121550000D03*
%TD*%
%TO.P,R3,1*%
%TO.N,Net-(D3-K)*%
X86340000Y-125600000D03*
%TO.P,R3,2*%
%TO.N,Net-(Q1-B)*%
X96500000Y-125600000D03*
%TD*%
%TO.P,R8,1*%
%TO.N,Net-(S1-E)*%
X86340000Y-105350000D03*
%TO.P,R8,2*%
%TO.N,Net-(D3-A)*%
X96500000Y-105350000D03*
%TD*%
D15*
%TO.P,Q2,1,E*%
%TO.N,Net-(D1-A)*%
X64760000Y-120681193D03*
D16*
%TO.P,Q2,2,B*%
%TO.N,Net-(Q1-C)*%
X67300000Y-123221193D03*
%TO.P,Q2,3,C*%
%TO.N,Net-(Q2-C)*%
X69840000Y-120681193D03*
%TD*%
D15*
%TO.P,Q1,1,E*%
%TO.N,Net-(D1-K)*%
X64760000Y-126623578D03*
D16*
%TO.P,Q1,2,B*%
%TO.N,Net-(Q1-B)*%
X67300000Y-129163578D03*
%TO.P,Q1,3,C*%
%TO.N,Net-(Q1-C)*%
X69840000Y-126623578D03*
%TD*%
D17*
%TO.P,D3,2,A*%
%TO.N,Net-(D3-A)*%
X78500000Y-112790000D03*
D18*
%TO.P,D3,1,K*%
%TO.N,Net-(D3-K)*%
X78500000Y-120410000D03*
%TD*%
%TO.P,C1,1*%
%TO.N,Net-(D3-K)*%
X71292500Y-109500000D03*
D13*
%TO.P,C1,2*%
%TO.N,Net-(D1-K)*%
X68792500Y-109500000D03*
%TD*%
D19*
%TO.N,Net-(D1-K)*%
X118600000Y-112100000D02*
X118600000Y-119380000D01*
X107400000Y-100900000D02*
X118600000Y-112100000D01*
X77392500Y-100900000D02*
X107400000Y-100900000D01*
X68792500Y-109500000D02*
X77392500Y-100900000D01*
%TO.N,Net-(D1-A)*%
X64760000Y-104740000D02*
X64760000Y-120681193D01*
X64800000Y-102700000D02*
X64800000Y-104700000D01*
X81840000Y-85660000D02*
X64800000Y-102700000D01*
X64800000Y-104700000D02*
X64760000Y-104740000D01*
X81840000Y-79900000D02*
X81840000Y-85660000D01*
%TO.N,Net-(Q2-C)*%
X83284000Y-119284000D02*
X71237193Y-119284000D01*
X71237193Y-119284000D02*
X69840000Y-120681193D01*
X83600000Y-119600000D02*
X83284000Y-119284000D01*
X87900000Y-119600000D02*
X83600000Y-119600000D01*
X96500000Y-113450000D02*
X94050000Y-113450000D01*
X94050000Y-113450000D02*
X87900000Y-119600000D01*
%TO.N,Net-(Q1-C)*%
X94200000Y-117500000D02*
X96500000Y-117500000D01*
X93200000Y-118500000D02*
X94200000Y-117500000D01*
X93200000Y-124800000D02*
X93200000Y-118500000D01*
X87600000Y-130400000D02*
X93200000Y-124800000D01*
X78800000Y-130400000D02*
X87600000Y-130400000D01*
X75023578Y-126623578D02*
X78800000Y-130400000D01*
X69840000Y-126623578D02*
X75023578Y-126623578D01*
%TO.N,Net-(S1-E)*%
X86340000Y-113450000D02*
X86340000Y-117500000D01*
X89150000Y-113450000D02*
X86340000Y-113450000D01*
X89900000Y-112800000D02*
X89200000Y-113500000D01*
X89900000Y-108910000D02*
X89900000Y-112800000D01*
X86340000Y-105350000D02*
X89900000Y-108910000D01*
X89200000Y-113500000D02*
X89150000Y-113450000D01*
%TO.N,Net-(D3-K)*%
X80200000Y-125600000D02*
X86340000Y-125600000D01*
X78500000Y-123900000D02*
X80200000Y-125600000D01*
X78500000Y-120410000D02*
X78500000Y-123900000D01*
%TO.N,Net-(D1-K)*%
X116920000Y-119380000D02*
X118600000Y-119380000D01*
X113100000Y-123200000D02*
X116920000Y-119380000D01*
X102050000Y-121550000D02*
X103700000Y-123200000D01*
X96500000Y-121550000D02*
X102050000Y-121550000D01*
X103700000Y-123200000D02*
X113100000Y-123200000D01*
%TO.N,Net-(D3-A)*%
X103500000Y-120000000D02*
X103500000Y-114800000D01*
X103500000Y-114800000D02*
X98100000Y-109400000D01*
X105420000Y-121920000D02*
X103500000Y-120000000D01*
X98100000Y-109400000D02*
X96500000Y-109400000D01*
X110980000Y-121920000D02*
X105420000Y-121920000D01*
%TO.N,Net-(D3-K)*%
X116780000Y-121920000D02*
X114240000Y-124460000D01*
X118600000Y-121920000D02*
X116780000Y-121920000D01*
X114240000Y-124460000D02*
X110980000Y-124460000D01*
%TD*%
M02*
