%TF.GenerationSoftware,KiCad,Pcbnew,9.0.6*%
%TF.CreationDate,2025-12-31T17:09:58+01:00*%
%TF.ProjectId,Panda,50616e64-612e-46b6-9963-61645f706362,rev?*%
%TF.SameCoordinates,Original*%
%TF.FileFunction,Copper,L2,Bot*%
%TF.FilePolarity,Positive*%
%FSLAX46Y46*%
G04 Gerber Fmt 4.6, Leading zero omitted, Abs format (unit mm)*
G04 Created by KiCad (PCBNEW 9.0.6) date 2025-12-31 17:09:58*
%MOMM*%
%LPD*%
G01*
G04 APERTURE LIST*
G04 Aperture macros list*
%AMRoundRect*
0 Rectangle with rounded corners*
0 $1 Rounding radius*
0 $2 $3 $4 $5 $6 $7 $8 $9 X,Y pos of 4 corners*
0 Add a 4 corners polygon primitive as box body*
4,1,4,$2,$3,$4,$5,$6,$7,$8,$9,$2,$3,0*
0 Add four circle primitives for the rounded corners*
1,1,$1+$1,$2,$3*
1,1,$1+$1,$4,$5*
1,1,$1+$1,$6,$7*
1,1,$1+$1,$8,$9*
0 Add four rect primitives between the rounded corners*
20,1,$1+$1,$2,$3,$4,$5,0*
20,1,$1+$1,$4,$5,$6,$7,0*
20,1,$1+$1,$6,$7,$8,$9,0*
20,1,$1+$1,$8,$9,$2,$3,0*%
G04 Aperture macros list end*
%ADD10C,0.300000*%
%TA.AperFunction,NonConductor*%
%ADD11C,0.300000*%
%TD*%
%TA.AperFunction,ComponentPad*%
%ADD12R,1.800000X1.800000*%
%TD*%
%TA.AperFunction,ComponentPad*%
%ADD13C,1.800000*%
%TD*%
%TA.AperFunction,SMDPad,CuDef*%
%ADD14R,5.000000X2.000000*%
%TD*%
%TA.AperFunction,SMDPad,CuDef*%
%ADD15C,17.780000*%
%TD*%
%TA.AperFunction,ComponentPad*%
%ADD16RoundRect,0.250000X0.550000X0.550000X-0.550000X0.550000X-0.550000X-0.550000X0.550000X-0.550000X0*%
%TD*%
%TA.AperFunction,ComponentPad*%
%ADD17C,1.600000*%
%TD*%
%TA.AperFunction,ComponentPad*%
%ADD18C,2.000000*%
%TD*%
%TA.AperFunction,ComponentPad*%
%ADD19R,1.500000X1.500000*%
%TD*%
%TA.AperFunction,ComponentPad*%
%ADD20C,1.500000*%
%TD*%
%TA.AperFunction,ComponentPad*%
%ADD21O,1.600000X1.600000*%
%TD*%
%TA.AperFunction,ComponentPad*%
%ADD22R,1.600000X1.600000*%
%TD*%
%TA.AperFunction,Conductor*%
%ADD23C,0.250000*%
%TD*%
G04 APERTURE END LIST*
D10*
D11*
X97845489Y-74000828D02*
X97845489Y-72500828D01*
X96988346Y-74000828D02*
X97631203Y-73143685D01*
X96988346Y-72500828D02*
X97845489Y-73357971D01*
X96345489Y-74000828D02*
X96345489Y-72500828D01*
X96345489Y-73215114D02*
X95488346Y-73215114D01*
X95488346Y-74000828D02*
X95488346Y-72500828D01*
X94274060Y-73215114D02*
X94774060Y-73215114D01*
X94774060Y-74000828D02*
X94774060Y-72500828D01*
X94774060Y-72500828D02*
X94059774Y-72500828D01*
X91559774Y-74000828D02*
X92416917Y-74000828D01*
X91988346Y-74000828D02*
X91988346Y-72500828D01*
X91988346Y-72500828D02*
X92131203Y-72715114D01*
X92131203Y-72715114D02*
X92274060Y-72857971D01*
X92274060Y-72857971D02*
X92416917Y-72929400D01*
X90988346Y-72643685D02*
X90916918Y-72572257D01*
X90916918Y-72572257D02*
X90774061Y-72500828D01*
X90774061Y-72500828D02*
X90416918Y-72500828D01*
X90416918Y-72500828D02*
X90274061Y-72572257D01*
X90274061Y-72572257D02*
X90202632Y-72643685D01*
X90202632Y-72643685D02*
X90131203Y-72786542D01*
X90131203Y-72786542D02*
X90131203Y-72929400D01*
X90131203Y-72929400D02*
X90202632Y-73143685D01*
X90202632Y-73143685D02*
X91059775Y-74000828D01*
X91059775Y-74000828D02*
X90131203Y-74000828D01*
X89488347Y-73857971D02*
X89416918Y-73929400D01*
X89416918Y-73929400D02*
X89488347Y-74000828D01*
X89488347Y-74000828D02*
X89559775Y-73929400D01*
X89559775Y-73929400D02*
X89488347Y-73857971D01*
X89488347Y-73857971D02*
X89488347Y-74000828D01*
X88845489Y-72643685D02*
X88774061Y-72572257D01*
X88774061Y-72572257D02*
X88631204Y-72500828D01*
X88631204Y-72500828D02*
X88274061Y-72500828D01*
X88274061Y-72500828D02*
X88131204Y-72572257D01*
X88131204Y-72572257D02*
X88059775Y-72643685D01*
X88059775Y-72643685D02*
X87988346Y-72786542D01*
X87988346Y-72786542D02*
X87988346Y-72929400D01*
X87988346Y-72929400D02*
X88059775Y-73143685D01*
X88059775Y-73143685D02*
X88916918Y-74000828D01*
X88916918Y-74000828D02*
X87988346Y-74000828D01*
X87059775Y-72500828D02*
X86916918Y-72500828D01*
X86916918Y-72500828D02*
X86774061Y-72572257D01*
X86774061Y-72572257D02*
X86702633Y-72643685D01*
X86702633Y-72643685D02*
X86631204Y-72786542D01*
X86631204Y-72786542D02*
X86559775Y-73072257D01*
X86559775Y-73072257D02*
X86559775Y-73429400D01*
X86559775Y-73429400D02*
X86631204Y-73715114D01*
X86631204Y-73715114D02*
X86702633Y-73857971D01*
X86702633Y-73857971D02*
X86774061Y-73929400D01*
X86774061Y-73929400D02*
X86916918Y-74000828D01*
X86916918Y-74000828D02*
X87059775Y-74000828D01*
X87059775Y-74000828D02*
X87202633Y-73929400D01*
X87202633Y-73929400D02*
X87274061Y-73857971D01*
X87274061Y-73857971D02*
X87345490Y-73715114D01*
X87345490Y-73715114D02*
X87416918Y-73429400D01*
X87416918Y-73429400D02*
X87416918Y-73072257D01*
X87416918Y-73072257D02*
X87345490Y-72786542D01*
X87345490Y-72786542D02*
X87274061Y-72643685D01*
X87274061Y-72643685D02*
X87202633Y-72572257D01*
X87202633Y-72572257D02*
X87059775Y-72500828D01*
X85988347Y-72643685D02*
X85916919Y-72572257D01*
X85916919Y-72572257D02*
X85774062Y-72500828D01*
X85774062Y-72500828D02*
X85416919Y-72500828D01*
X85416919Y-72500828D02*
X85274062Y-72572257D01*
X85274062Y-72572257D02*
X85202633Y-72643685D01*
X85202633Y-72643685D02*
X85131204Y-72786542D01*
X85131204Y-72786542D02*
X85131204Y-72929400D01*
X85131204Y-72929400D02*
X85202633Y-73143685D01*
X85202633Y-73143685D02*
X86059776Y-74000828D01*
X86059776Y-74000828D02*
X85131204Y-74000828D01*
X83774062Y-72500828D02*
X84488348Y-72500828D01*
X84488348Y-72500828D02*
X84559776Y-73215114D01*
X84559776Y-73215114D02*
X84488348Y-73143685D01*
X84488348Y-73143685D02*
X84345491Y-73072257D01*
X84345491Y-73072257D02*
X83988348Y-73072257D01*
X83988348Y-73072257D02*
X83845491Y-73143685D01*
X83845491Y-73143685D02*
X83774062Y-73215114D01*
X83774062Y-73215114D02*
X83702633Y-73357971D01*
X83702633Y-73357971D02*
X83702633Y-73715114D01*
X83702633Y-73715114D02*
X83774062Y-73857971D01*
X83774062Y-73857971D02*
X83845491Y-73929400D01*
X83845491Y-73929400D02*
X83988348Y-74000828D01*
X83988348Y-74000828D02*
X84345491Y-74000828D01*
X84345491Y-74000828D02*
X84488348Y-73929400D01*
X84488348Y-73929400D02*
X84559776Y-73857971D01*
D12*
%TO.P,D2,1,K*%
%TO.N,Net-(D1-K)*%
X101600000Y-80000000D03*
D13*
%TO.P,D2,2,A*%
%TO.N,Net-(D1-A)*%
X104140000Y-80000000D03*
%TD*%
D12*
%TO.P,D1,1,K*%
%TO.N,Net-(D1-K)*%
X79300000Y-79900000D03*
D13*
%TO.P,D1,2,A*%
%TO.N,Net-(D1-A)*%
X81840000Y-79900000D03*
%TD*%
D14*
%TO.P,U2,*%
%TO.N,*%
X78500000Y-55448000D03*
X78500000Y-51892000D03*
%TO.P,U2,1*%
%TO.N,Net-(S1-A-Pad1)*%
X104394000Y-55448000D03*
X104394000Y-51892000D03*
D15*
%TO.P,U2,2*%
%TO.N,Net-(D1-K)*%
X91454000Y-53924000D03*
%TD*%
D16*
%TO.P,U1,1,GND*%
%TO.N,Net-(D1-K)*%
X118600000Y-119380000D03*
D17*
%TO.P,U1,2,TR*%
%TO.N,Net-(D3-K)*%
X118600000Y-121920000D03*
%TO.P,U1,3,Q*%
%TO.N,unconnected-(U1-Q-Pad3)*%
X118600000Y-124460000D03*
%TO.P,U1,4,R*%
%TO.N,Net-(S1-E)*%
X118600000Y-127000000D03*
%TO.P,U1,5,CV*%
%TO.N,unconnected-(U1-CV-Pad5)*%
X110980000Y-127000000D03*
%TO.P,U1,6,THR*%
%TO.N,Net-(D3-K)*%
X110980000Y-124460000D03*
%TO.P,U1,7,DIS*%
%TO.N,Net-(D3-A)*%
X110980000Y-121920000D03*
%TO.P,U1,8,VCC*%
%TO.N,Net-(S1-E)*%
X110980000Y-119380000D03*
%TD*%
D18*
%TO.P,S1,1,A*%
%TO.N,Net-(S1-A-Pad1)*%
X126100000Y-56720000D03*
%TO.P,S1,2,E*%
%TO.N,Net-(S1-E)*%
X126100000Y-59260000D03*
%TO.P,S1,3,A*%
%TO.N,unconnected-(S1-A-Pad3)*%
X126100000Y-61800000D03*
%TD*%
D17*
%TO.P,R7,1*%
%TO.N,Net-(D3-K)*%
X86340000Y-109400000D03*
%TO.P,R7,2*%
%TO.N,Net-(D3-A)*%
X96500000Y-109400000D03*
%TD*%
%TO.P,R6,1*%
%TO.N,Net-(S1-E)*%
X86340000Y-113450000D03*
%TO.P,R6,2*%
%TO.N,Net-(Q2-C)*%
X96500000Y-113450000D03*
%TD*%
%TO.P,R5,1*%
%TO.N,Net-(S1-E)*%
X86340000Y-117500000D03*
%TO.P,R5,2*%
%TO.N,Net-(Q1-C)*%
X96500000Y-117500000D03*
%TD*%
%TO.P,R4,1*%
%TO.N,Net-(Q1-B)*%
X86340000Y-121550000D03*
%TO.P,R4,2*%
%TO.N,Net-(D1-K)*%
X96500000Y-121550000D03*
%TD*%
%TO.P,R3,1*%
%TO.N,Net-(D3-K)*%
X86340000Y-125600000D03*
%TO.P,R3,2*%
%TO.N,Net-(Q1-B)*%
X96500000Y-125600000D03*
%TD*%
%TO.P,R8,1*%
%TO.N,Net-(S1-E)*%
X86340000Y-105350000D03*
%TO.P,R8,2*%
%TO.N,Net-(D3-A)*%
X96500000Y-105350000D03*
%TD*%
D19*
%TO.P,Q2,1,E*%
%TO.N,Net-(D1-A)*%
X64760000Y-120681193D03*
D20*
%TO.P,Q2,2,B*%
%TO.N,Net-(Q1-C)*%
X67300000Y-123221193D03*
%TO.P,Q2,3,C*%
%TO.N,Net-(Q2-C)*%
X69840000Y-120681193D03*
%TD*%
D19*
%TO.P,Q1,1,E*%
%TO.N,Net-(D1-K)*%
X64760000Y-126623578D03*
D20*
%TO.P,Q1,2,B*%
%TO.N,Net-(Q1-B)*%
X67300000Y-129163578D03*
%TO.P,Q1,3,C*%
%TO.N,Net-(Q1-C)*%
X69840000Y-126623578D03*
%TD*%
D21*
%TO.P,D3,2,A*%
%TO.N,Net-(D3-A)*%
X78500000Y-112790000D03*
D22*
%TO.P,D3,1,K*%
%TO.N,Net-(D3-K)*%
X78500000Y-120410000D03*
%TD*%
%TO.P,C1,1*%
%TO.N,Net-(D3-K)*%
X71292500Y-109500000D03*
D17*
%TO.P,C1,2*%
%TO.N,Net-(D1-K)*%
X68792500Y-109500000D03*
%TD*%
D23*
%TO.N,Net-(D1-K)*%
X75600000Y-79900000D02*
X68792500Y-86707500D01*
X79300000Y-79900000D02*
X75600000Y-79900000D01*
X68792500Y-86707500D02*
X68792500Y-109500000D01*
%TO.N,Net-(S1-E)*%
X88200000Y-114300000D02*
X87190000Y-114300000D01*
X87190000Y-114300000D02*
X86340000Y-113450000D01*
X89500000Y-115600000D02*
X88200000Y-114300000D01*
X103800000Y-115600000D02*
X89500000Y-115600000D01*
X110980000Y-119380000D02*
X107580000Y-119380000D01*
X107580000Y-119380000D02*
X103800000Y-115600000D01*
%TO.N,Net-(D3-A)*%
X96500000Y-109400000D02*
X96500000Y-105350000D01*
X93000000Y-111200000D02*
X94800000Y-109400000D01*
X82510000Y-112790000D02*
X84100000Y-111200000D01*
X78500000Y-112790000D02*
X82510000Y-112790000D01*
X84100000Y-111200000D02*
X93000000Y-111200000D01*
X94800000Y-109400000D02*
X96500000Y-109400000D01*
%TO.N,Net-(D3-K)*%
X86240000Y-109500000D02*
X86340000Y-109400000D01*
X71292500Y-109500000D02*
X86240000Y-109500000D01*
X75990000Y-120410000D02*
X78500000Y-120410000D01*
X75900000Y-120500000D02*
X75990000Y-120410000D01*
X71292500Y-115892500D02*
X75900000Y-120500000D01*
X71292500Y-109500000D02*
X71292500Y-115892500D01*
%TO.N,Net-(D1-K)*%
X59400000Y-125400000D02*
X60623578Y-126623578D01*
X59300000Y-125400000D02*
X59400000Y-125400000D01*
X59300000Y-115600000D02*
X59300000Y-125400000D01*
X60623578Y-126623578D02*
X64760000Y-126623578D01*
X65400000Y-109500000D02*
X59300000Y-115600000D01*
X68792500Y-109500000D02*
X65400000Y-109500000D01*
%TO.N,Net-(Q1-B)*%
X78726422Y-129163578D02*
X86340000Y-121550000D01*
X67300000Y-129163578D02*
X78726422Y-129163578D01*
X88850000Y-121550000D02*
X92900000Y-125600000D01*
X86340000Y-121550000D02*
X88850000Y-121550000D01*
X92900000Y-125600000D02*
X96500000Y-125600000D01*
%TO.N,Net-(D3-K)*%
X108400000Y-127100000D02*
X108400000Y-125300000D01*
X108400000Y-125300000D02*
X109240000Y-124460000D01*
X88800000Y-130200000D02*
X105300000Y-130200000D01*
X105300000Y-130200000D02*
X108400000Y-127100000D01*
X86340000Y-127740000D02*
X88800000Y-130200000D01*
X109240000Y-124460000D02*
X110980000Y-124460000D01*
X86340000Y-125600000D02*
X86340000Y-127740000D01*
%TO.N,Net-(S1-E)*%
X112880000Y-119380000D02*
X110980000Y-119380000D01*
X114900000Y-121400000D02*
X112880000Y-119380000D01*
X114900000Y-125300000D02*
X114900000Y-121400000D01*
X118600000Y-127000000D02*
X116600000Y-127000000D01*
X116600000Y-127000000D02*
X114900000Y-125300000D01*
X86340000Y-101460000D02*
X86340000Y-105350000D01*
X95000000Y-95100000D02*
X92700000Y-95100000D01*
X111600000Y-67500000D02*
X111600000Y-78500000D01*
X111600000Y-78500000D02*
X95000000Y-95100000D01*
X126100000Y-59260000D02*
X119840000Y-59260000D01*
X119840000Y-59260000D02*
X111600000Y-67500000D01*
X92700000Y-95100000D02*
X86340000Y-101460000D01*
%TO.N,Net-(S1-A-Pad1)*%
X125152000Y-55772000D02*
X126100000Y-56720000D01*
X125152000Y-55448000D02*
X125152000Y-55772000D01*
X126100000Y-55900000D02*
X126100000Y-56720000D01*
X104394000Y-55448000D02*
X125152000Y-55448000D01*
X104394000Y-51892000D02*
X104394000Y-55448000D01*
%TO.N,Net-(D1-A)*%
X81840000Y-82340000D02*
X81840000Y-79900000D01*
X82100000Y-82600000D02*
X81840000Y-82340000D01*
X103000000Y-82600000D02*
X82100000Y-82600000D01*
X104140000Y-81460000D02*
X103000000Y-82600000D01*
X104140000Y-80000000D02*
X104140000Y-81460000D01*
%TO.N,Net-(D1-K)*%
X79300000Y-78400000D02*
X79300000Y-79900000D01*
X79800000Y-77900000D02*
X79300000Y-78400000D01*
X99600000Y-77900000D02*
X79800000Y-77900000D01*
X99600000Y-78000000D02*
X99600000Y-77900000D01*
X101600000Y-80000000D02*
X99600000Y-78000000D01*
X101600000Y-64070000D02*
X101600000Y-80000000D01*
X91454000Y-53924000D02*
X101600000Y-64070000D01*
%TD*%
M02*
