%TF.GenerationSoftware,KiCad,Pcbnew,9.0.6*%
%TF.CreationDate,2025-12-31T17:09:58+01:00*%
%TF.ProjectId,Panda,50616e64-612e-46b6-9963-61645f706362,rev?*%
%TF.SameCoordinates,Original*%
%TF.FileFunction,Legend,Bot*%
%TF.FilePolarity,Positive*%
%FSLAX46Y46*%
G04 Gerber Fmt 4.6, Leading zero omitted, Abs format (unit mm)*
G04 Created by KiCad (PCBNEW 9.0.6) date 2025-12-31 17:09:58*
%MOMM*%
%LPD*%
G01*
G04 APERTURE LIST*
%ADD10C,0.100000*%
%ADD11C,0.150000*%
%ADD12C,0.050000*%
%ADD13C,0.120000*%
%ADD14C,0.010000*%
G04 APERTURE END LIST*
D10*
X95610401Y-132672419D02*
X95610401Y-133386704D01*
X95610401Y-133386704D02*
X95658020Y-133529561D01*
X95658020Y-133529561D02*
X95753258Y-133624800D01*
X95753258Y-133624800D02*
X95896115Y-133672419D01*
X95896115Y-133672419D02*
X95991353Y-133672419D01*
X94658020Y-133672419D02*
X95134210Y-133672419D01*
X95134210Y-133672419D02*
X95134210Y-132672419D01*
X93753258Y-133577180D02*
X93800877Y-133624800D01*
X93800877Y-133624800D02*
X93943734Y-133672419D01*
X93943734Y-133672419D02*
X94038972Y-133672419D01*
X94038972Y-133672419D02*
X94181829Y-133624800D01*
X94181829Y-133624800D02*
X94277067Y-133529561D01*
X94277067Y-133529561D02*
X94324686Y-133434323D01*
X94324686Y-133434323D02*
X94372305Y-133243847D01*
X94372305Y-133243847D02*
X94372305Y-133100990D01*
X94372305Y-133100990D02*
X94324686Y-132910514D01*
X94324686Y-132910514D02*
X94277067Y-132815276D01*
X94277067Y-132815276D02*
X94181829Y-132720038D01*
X94181829Y-132720038D02*
X94038972Y-132672419D01*
X94038972Y-132672419D02*
X93943734Y-132672419D01*
X93943734Y-132672419D02*
X93800877Y-132720038D01*
X93800877Y-132720038D02*
X93753258Y-132767657D01*
X93038972Y-132672419D02*
X93038972Y-133386704D01*
X93038972Y-133386704D02*
X93086591Y-133529561D01*
X93086591Y-133529561D02*
X93181829Y-133624800D01*
X93181829Y-133624800D02*
X93324686Y-133672419D01*
X93324686Y-133672419D02*
X93419924Y-133672419D01*
X92086591Y-133672419D02*
X92562781Y-133672419D01*
X92562781Y-133672419D02*
X92562781Y-132672419D01*
X91181829Y-133577180D02*
X91229448Y-133624800D01*
X91229448Y-133624800D02*
X91372305Y-133672419D01*
X91372305Y-133672419D02*
X91467543Y-133672419D01*
X91467543Y-133672419D02*
X91610400Y-133624800D01*
X91610400Y-133624800D02*
X91705638Y-133529561D01*
X91705638Y-133529561D02*
X91753257Y-133434323D01*
X91753257Y-133434323D02*
X91800876Y-133243847D01*
X91800876Y-133243847D02*
X91800876Y-133100990D01*
X91800876Y-133100990D02*
X91753257Y-132910514D01*
X91753257Y-132910514D02*
X91705638Y-132815276D01*
X91705638Y-132815276D02*
X91610400Y-132720038D01*
X91610400Y-132720038D02*
X91467543Y-132672419D01*
X91467543Y-132672419D02*
X91372305Y-132672419D01*
X91372305Y-132672419D02*
X91229448Y-132720038D01*
X91229448Y-132720038D02*
X91181829Y-132767657D01*
X90467543Y-132672419D02*
X90467543Y-133386704D01*
X90467543Y-133386704D02*
X90515162Y-133529561D01*
X90515162Y-133529561D02*
X90610400Y-133624800D01*
X90610400Y-133624800D02*
X90753257Y-133672419D01*
X90753257Y-133672419D02*
X90848495Y-133672419D01*
X89515162Y-133672419D02*
X89991352Y-133672419D01*
X89991352Y-133672419D02*
X89991352Y-132672419D01*
X88610400Y-133577180D02*
X88658019Y-133624800D01*
X88658019Y-133624800D02*
X88800876Y-133672419D01*
X88800876Y-133672419D02*
X88896114Y-133672419D01*
X88896114Y-133672419D02*
X89038971Y-133624800D01*
X89038971Y-133624800D02*
X89134209Y-133529561D01*
X89134209Y-133529561D02*
X89181828Y-133434323D01*
X89181828Y-133434323D02*
X89229447Y-133243847D01*
X89229447Y-133243847D02*
X89229447Y-133100990D01*
X89229447Y-133100990D02*
X89181828Y-132910514D01*
X89181828Y-132910514D02*
X89134209Y-132815276D01*
X89134209Y-132815276D02*
X89038971Y-132720038D01*
X89038971Y-132720038D02*
X88896114Y-132672419D01*
X88896114Y-132672419D02*
X88800876Y-132672419D01*
X88800876Y-132672419D02*
X88658019Y-132720038D01*
X88658019Y-132720038D02*
X88610400Y-132767657D01*
X87896114Y-132672419D02*
X87896114Y-133386704D01*
X87896114Y-133386704D02*
X87943733Y-133529561D01*
X87943733Y-133529561D02*
X88038971Y-133624800D01*
X88038971Y-133624800D02*
X88181828Y-133672419D01*
X88181828Y-133672419D02*
X88277066Y-133672419D01*
X86943733Y-133672419D02*
X87419923Y-133672419D01*
X87419923Y-133672419D02*
X87419923Y-132672419D01*
X86038971Y-133577180D02*
X86086590Y-133624800D01*
X86086590Y-133624800D02*
X86229447Y-133672419D01*
X86229447Y-133672419D02*
X86324685Y-133672419D01*
X86324685Y-133672419D02*
X86467542Y-133624800D01*
X86467542Y-133624800D02*
X86562780Y-133529561D01*
X86562780Y-133529561D02*
X86610399Y-133434323D01*
X86610399Y-133434323D02*
X86658018Y-133243847D01*
X86658018Y-133243847D02*
X86658018Y-133100990D01*
X86658018Y-133100990D02*
X86610399Y-132910514D01*
X86610399Y-132910514D02*
X86562780Y-132815276D01*
X86562780Y-132815276D02*
X86467542Y-132720038D01*
X86467542Y-132720038D02*
X86324685Y-132672419D01*
X86324685Y-132672419D02*
X86229447Y-132672419D01*
X86229447Y-132672419D02*
X86086590Y-132720038D01*
X86086590Y-132720038D02*
X86038971Y-132767657D01*
D11*
X101861904Y-78354819D02*
X101861904Y-77354819D01*
X101290476Y-78354819D02*
X101719047Y-77783390D01*
X101290476Y-77354819D02*
X101861904Y-77926247D01*
X79561904Y-78254819D02*
X79561904Y-77254819D01*
X78990476Y-78254819D02*
X79419047Y-77683390D01*
X78990476Y-77254819D02*
X79561904Y-77826247D01*
X63314285Y-126531009D02*
X62980952Y-126531009D01*
X62838095Y-127054819D02*
X63314285Y-127054819D01*
X63314285Y-127054819D02*
X63314285Y-126054819D01*
X63314285Y-126054819D02*
X62838095Y-126054819D01*
X63314285Y-120631009D02*
X62980952Y-120631009D01*
X62838095Y-121154819D02*
X63314285Y-121154819D01*
X63314285Y-121154819D02*
X63314285Y-120154819D01*
X63314285Y-120154819D02*
X62838095Y-120154819D01*
X72761904Y-120254819D02*
X72190476Y-120254819D01*
X72476190Y-121254819D02*
X72476190Y-120254819D01*
X71904761Y-120350057D02*
X71857142Y-120302438D01*
X71857142Y-120302438D02*
X71761904Y-120254819D01*
X71761904Y-120254819D02*
X71523809Y-120254819D01*
X71523809Y-120254819D02*
X71428571Y-120302438D01*
X71428571Y-120302438D02*
X71380952Y-120350057D01*
X71380952Y-120350057D02*
X71333333Y-120445295D01*
X71333333Y-120445295D02*
X71333333Y-120540533D01*
X71333333Y-120540533D02*
X71380952Y-120683390D01*
X71380952Y-120683390D02*
X71952380Y-121254819D01*
X71952380Y-121254819D02*
X71333333Y-121254819D01*
X72661904Y-126054819D02*
X72090476Y-126054819D01*
X72376190Y-127054819D02*
X72376190Y-126054819D01*
X71233333Y-127054819D02*
X71804761Y-127054819D01*
X71519047Y-127054819D02*
X71519047Y-126054819D01*
X71519047Y-126054819D02*
X71614285Y-126197676D01*
X71614285Y-126197676D02*
X71709523Y-126292914D01*
X71709523Y-126292914D02*
X71804761Y-126340533D01*
X69247652Y-119409768D02*
G75*
G02*
X65300000Y-119500000I-1947652J-1190232D01*
G01*
X65300000Y-119400000D02*
X69300000Y-119400000D01*
X69247652Y-125409768D02*
G75*
G02*
X65300000Y-125500000I-1947652J-1190232D01*
G01*
X65300000Y-125400000D02*
X69300000Y-125400000D01*
D12*
X92369714Y-46744019D02*
X92369714Y-47553542D01*
X92369714Y-47553542D02*
X92326857Y-47648780D01*
X92326857Y-47648780D02*
X92284000Y-47696400D01*
X92284000Y-47696400D02*
X92198285Y-47744019D01*
X92198285Y-47744019D02*
X92026857Y-47744019D01*
X92026857Y-47744019D02*
X91941142Y-47696400D01*
X91941142Y-47696400D02*
X91898285Y-47648780D01*
X91898285Y-47648780D02*
X91855428Y-47553542D01*
X91855428Y-47553542D02*
X91855428Y-46744019D01*
X91469714Y-46839257D02*
X91426857Y-46791638D01*
X91426857Y-46791638D02*
X91341143Y-46744019D01*
X91341143Y-46744019D02*
X91126857Y-46744019D01*
X91126857Y-46744019D02*
X91041143Y-46791638D01*
X91041143Y-46791638D02*
X90998285Y-46839257D01*
X90998285Y-46839257D02*
X90955428Y-46934495D01*
X90955428Y-46934495D02*
X90955428Y-47029733D01*
X90955428Y-47029733D02*
X90998285Y-47172590D01*
X90998285Y-47172590D02*
X91512571Y-47744019D01*
X91512571Y-47744019D02*
X90955428Y-47744019D01*
D11*
X117366666Y-117154819D02*
X117366666Y-116154819D01*
X117366666Y-116154819D02*
X116795238Y-117154819D01*
X116795238Y-117154819D02*
X116795238Y-116154819D01*
X116319047Y-116631009D02*
X115985714Y-116631009D01*
X115842857Y-117154819D02*
X116319047Y-117154819D01*
X116319047Y-117154819D02*
X116319047Y-116154819D01*
X116319047Y-116154819D02*
X115842857Y-116154819D01*
X114938095Y-116154819D02*
X115414285Y-116154819D01*
X115414285Y-116154819D02*
X115461904Y-116631009D01*
X115461904Y-116631009D02*
X115414285Y-116583390D01*
X115414285Y-116583390D02*
X115319047Y-116535771D01*
X115319047Y-116535771D02*
X115080952Y-116535771D01*
X115080952Y-116535771D02*
X114985714Y-116583390D01*
X114985714Y-116583390D02*
X114938095Y-116631009D01*
X114938095Y-116631009D02*
X114890476Y-116726247D01*
X114890476Y-116726247D02*
X114890476Y-116964342D01*
X114890476Y-116964342D02*
X114938095Y-117059580D01*
X114938095Y-117059580D02*
X114985714Y-117107200D01*
X114985714Y-117107200D02*
X115080952Y-117154819D01*
X115080952Y-117154819D02*
X115319047Y-117154819D01*
X115319047Y-117154819D02*
X115414285Y-117107200D01*
X115414285Y-117107200D02*
X115461904Y-117059580D01*
X113985714Y-116154819D02*
X114461904Y-116154819D01*
X114461904Y-116154819D02*
X114509523Y-116631009D01*
X114509523Y-116631009D02*
X114461904Y-116583390D01*
X114461904Y-116583390D02*
X114366666Y-116535771D01*
X114366666Y-116535771D02*
X114128571Y-116535771D01*
X114128571Y-116535771D02*
X114033333Y-116583390D01*
X114033333Y-116583390D02*
X113985714Y-116631009D01*
X113985714Y-116631009D02*
X113938095Y-116726247D01*
X113938095Y-116726247D02*
X113938095Y-116964342D01*
X113938095Y-116964342D02*
X113985714Y-117059580D01*
X113985714Y-117059580D02*
X114033333Y-117107200D01*
X114033333Y-117107200D02*
X114128571Y-117154819D01*
X114128571Y-117154819D02*
X114366666Y-117154819D01*
X114366666Y-117154819D02*
X114461904Y-117107200D01*
X114461904Y-117107200D02*
X114509523Y-117059580D01*
X113033333Y-116154819D02*
X113509523Y-116154819D01*
X113509523Y-116154819D02*
X113557142Y-116631009D01*
X113557142Y-116631009D02*
X113509523Y-116583390D01*
X113509523Y-116583390D02*
X113414285Y-116535771D01*
X113414285Y-116535771D02*
X113176190Y-116535771D01*
X113176190Y-116535771D02*
X113080952Y-116583390D01*
X113080952Y-116583390D02*
X113033333Y-116631009D01*
X113033333Y-116631009D02*
X112985714Y-116726247D01*
X112985714Y-116726247D02*
X112985714Y-116964342D01*
X112985714Y-116964342D02*
X113033333Y-117059580D01*
X113033333Y-117059580D02*
X113080952Y-117107200D01*
X113080952Y-117107200D02*
X113176190Y-117154819D01*
X113176190Y-117154819D02*
X113414285Y-117154819D01*
X113414285Y-117154819D02*
X113509523Y-117107200D01*
X113509523Y-117107200D02*
X113557142Y-117059580D01*
X112557142Y-117154819D02*
X112557142Y-116154819D01*
X112557142Y-116154819D02*
X112176190Y-116154819D01*
X112176190Y-116154819D02*
X112080952Y-116202438D01*
X112080952Y-116202438D02*
X112033333Y-116250057D01*
X112033333Y-116250057D02*
X111985714Y-116345295D01*
X111985714Y-116345295D02*
X111985714Y-116488152D01*
X111985714Y-116488152D02*
X112033333Y-116583390D01*
X112033333Y-116583390D02*
X112080952Y-116631009D01*
X112080952Y-116631009D02*
X112176190Y-116678628D01*
X112176190Y-116678628D02*
X112557142Y-116678628D01*
X121692800Y-60021904D02*
X121645180Y-59879047D01*
X121645180Y-59879047D02*
X121645180Y-59640952D01*
X121645180Y-59640952D02*
X121692800Y-59545714D01*
X121692800Y-59545714D02*
X121740419Y-59498095D01*
X121740419Y-59498095D02*
X121835657Y-59450476D01*
X121835657Y-59450476D02*
X121930895Y-59450476D01*
X121930895Y-59450476D02*
X122026133Y-59498095D01*
X122026133Y-59498095D02*
X122073752Y-59545714D01*
X122073752Y-59545714D02*
X122121371Y-59640952D01*
X122121371Y-59640952D02*
X122168990Y-59831428D01*
X122168990Y-59831428D02*
X122216609Y-59926666D01*
X122216609Y-59926666D02*
X122264228Y-59974285D01*
X122264228Y-59974285D02*
X122359466Y-60021904D01*
X122359466Y-60021904D02*
X122454704Y-60021904D01*
X122454704Y-60021904D02*
X122549942Y-59974285D01*
X122549942Y-59974285D02*
X122597561Y-59926666D01*
X122597561Y-59926666D02*
X122645180Y-59831428D01*
X122645180Y-59831428D02*
X122645180Y-59593333D01*
X122645180Y-59593333D02*
X122597561Y-59450476D01*
X121645180Y-58498095D02*
X121645180Y-59069523D01*
X121645180Y-58783809D02*
X122645180Y-58783809D01*
X122645180Y-58783809D02*
X122502323Y-58879047D01*
X122502323Y-58879047D02*
X122407085Y-58974285D01*
X122407085Y-58974285D02*
X122359466Y-59069523D01*
X91586666Y-109854819D02*
X91919999Y-109378628D01*
X92158094Y-109854819D02*
X92158094Y-108854819D01*
X92158094Y-108854819D02*
X91777142Y-108854819D01*
X91777142Y-108854819D02*
X91681904Y-108902438D01*
X91681904Y-108902438D02*
X91634285Y-108950057D01*
X91634285Y-108950057D02*
X91586666Y-109045295D01*
X91586666Y-109045295D02*
X91586666Y-109188152D01*
X91586666Y-109188152D02*
X91634285Y-109283390D01*
X91634285Y-109283390D02*
X91681904Y-109331009D01*
X91681904Y-109331009D02*
X91777142Y-109378628D01*
X91777142Y-109378628D02*
X92158094Y-109378628D01*
X91253332Y-108854819D02*
X90586666Y-108854819D01*
X90586666Y-108854819D02*
X91015237Y-109854819D01*
X101190476Y-110034819D02*
X101761904Y-110034819D01*
X101476190Y-110034819D02*
X101476190Y-109034819D01*
X101476190Y-109034819D02*
X101571428Y-109177676D01*
X101571428Y-109177676D02*
X101666666Y-109272914D01*
X101666666Y-109272914D02*
X101761904Y-109320533D01*
X100333333Y-109034819D02*
X100523809Y-109034819D01*
X100523809Y-109034819D02*
X100619047Y-109082438D01*
X100619047Y-109082438D02*
X100666666Y-109130057D01*
X100666666Y-109130057D02*
X100761904Y-109272914D01*
X100761904Y-109272914D02*
X100809523Y-109463390D01*
X100809523Y-109463390D02*
X100809523Y-109844342D01*
X100809523Y-109844342D02*
X100761904Y-109939580D01*
X100761904Y-109939580D02*
X100714285Y-109987200D01*
X100714285Y-109987200D02*
X100619047Y-110034819D01*
X100619047Y-110034819D02*
X100428571Y-110034819D01*
X100428571Y-110034819D02*
X100333333Y-109987200D01*
X100333333Y-109987200D02*
X100285714Y-109939580D01*
X100285714Y-109939580D02*
X100238095Y-109844342D01*
X100238095Y-109844342D02*
X100238095Y-109606247D01*
X100238095Y-109606247D02*
X100285714Y-109511009D01*
X100285714Y-109511009D02*
X100333333Y-109463390D01*
X100333333Y-109463390D02*
X100428571Y-109415771D01*
X100428571Y-109415771D02*
X100619047Y-109415771D01*
X100619047Y-109415771D02*
X100714285Y-109463390D01*
X100714285Y-109463390D02*
X100761904Y-109511009D01*
X100761904Y-109511009D02*
X100809523Y-109606247D01*
X99809523Y-110034819D02*
X99809523Y-109034819D01*
X99238095Y-110034819D02*
X99666666Y-109463390D01*
X99238095Y-109034819D02*
X99809523Y-109606247D01*
X91586666Y-113904819D02*
X91919999Y-113428628D01*
X92158094Y-113904819D02*
X92158094Y-112904819D01*
X92158094Y-112904819D02*
X91777142Y-112904819D01*
X91777142Y-112904819D02*
X91681904Y-112952438D01*
X91681904Y-112952438D02*
X91634285Y-113000057D01*
X91634285Y-113000057D02*
X91586666Y-113095295D01*
X91586666Y-113095295D02*
X91586666Y-113238152D01*
X91586666Y-113238152D02*
X91634285Y-113333390D01*
X91634285Y-113333390D02*
X91681904Y-113381009D01*
X91681904Y-113381009D02*
X91777142Y-113428628D01*
X91777142Y-113428628D02*
X92158094Y-113428628D01*
X90729523Y-112904819D02*
X90919999Y-112904819D01*
X90919999Y-112904819D02*
X91015237Y-112952438D01*
X91015237Y-112952438D02*
X91062856Y-113000057D01*
X91062856Y-113000057D02*
X91158094Y-113142914D01*
X91158094Y-113142914D02*
X91205713Y-113333390D01*
X91205713Y-113333390D02*
X91205713Y-113714342D01*
X91205713Y-113714342D02*
X91158094Y-113809580D01*
X91158094Y-113809580D02*
X91110475Y-113857200D01*
X91110475Y-113857200D02*
X91015237Y-113904819D01*
X91015237Y-113904819D02*
X90824761Y-113904819D01*
X90824761Y-113904819D02*
X90729523Y-113857200D01*
X90729523Y-113857200D02*
X90681904Y-113809580D01*
X90681904Y-113809580D02*
X90634285Y-113714342D01*
X90634285Y-113714342D02*
X90634285Y-113476247D01*
X90634285Y-113476247D02*
X90681904Y-113381009D01*
X90681904Y-113381009D02*
X90729523Y-113333390D01*
X90729523Y-113333390D02*
X90824761Y-113285771D01*
X90824761Y-113285771D02*
X91015237Y-113285771D01*
X91015237Y-113285771D02*
X91110475Y-113333390D01*
X91110475Y-113333390D02*
X91158094Y-113381009D01*
X91158094Y-113381009D02*
X91205713Y-113476247D01*
X101190476Y-114014819D02*
X101761904Y-114014819D01*
X101476190Y-114014819D02*
X101476190Y-113014819D01*
X101476190Y-113014819D02*
X101571428Y-113157676D01*
X101571428Y-113157676D02*
X101666666Y-113252914D01*
X101666666Y-113252914D02*
X101761904Y-113300533D01*
X100571428Y-113014819D02*
X100476190Y-113014819D01*
X100476190Y-113014819D02*
X100380952Y-113062438D01*
X100380952Y-113062438D02*
X100333333Y-113110057D01*
X100333333Y-113110057D02*
X100285714Y-113205295D01*
X100285714Y-113205295D02*
X100238095Y-113395771D01*
X100238095Y-113395771D02*
X100238095Y-113633866D01*
X100238095Y-113633866D02*
X100285714Y-113824342D01*
X100285714Y-113824342D02*
X100333333Y-113919580D01*
X100333333Y-113919580D02*
X100380952Y-113967200D01*
X100380952Y-113967200D02*
X100476190Y-114014819D01*
X100476190Y-114014819D02*
X100571428Y-114014819D01*
X100571428Y-114014819D02*
X100666666Y-113967200D01*
X100666666Y-113967200D02*
X100714285Y-113919580D01*
X100714285Y-113919580D02*
X100761904Y-113824342D01*
X100761904Y-113824342D02*
X100809523Y-113633866D01*
X100809523Y-113633866D02*
X100809523Y-113395771D01*
X100809523Y-113395771D02*
X100761904Y-113205295D01*
X100761904Y-113205295D02*
X100714285Y-113110057D01*
X100714285Y-113110057D02*
X100666666Y-113062438D01*
X100666666Y-113062438D02*
X100571428Y-113014819D01*
X99238095Y-114014819D02*
X99571428Y-113538628D01*
X99809523Y-114014819D02*
X99809523Y-113014819D01*
X99809523Y-113014819D02*
X99428571Y-113014819D01*
X99428571Y-113014819D02*
X99333333Y-113062438D01*
X99333333Y-113062438D02*
X99285714Y-113110057D01*
X99285714Y-113110057D02*
X99238095Y-113205295D01*
X99238095Y-113205295D02*
X99238095Y-113348152D01*
X99238095Y-113348152D02*
X99285714Y-113443390D01*
X99285714Y-113443390D02*
X99333333Y-113491009D01*
X99333333Y-113491009D02*
X99428571Y-113538628D01*
X99428571Y-113538628D02*
X99809523Y-113538628D01*
X91586666Y-117954819D02*
X91919999Y-117478628D01*
X92158094Y-117954819D02*
X92158094Y-116954819D01*
X92158094Y-116954819D02*
X91777142Y-116954819D01*
X91777142Y-116954819D02*
X91681904Y-117002438D01*
X91681904Y-117002438D02*
X91634285Y-117050057D01*
X91634285Y-117050057D02*
X91586666Y-117145295D01*
X91586666Y-117145295D02*
X91586666Y-117288152D01*
X91586666Y-117288152D02*
X91634285Y-117383390D01*
X91634285Y-117383390D02*
X91681904Y-117431009D01*
X91681904Y-117431009D02*
X91777142Y-117478628D01*
X91777142Y-117478628D02*
X92158094Y-117478628D01*
X90681904Y-116954819D02*
X91158094Y-116954819D01*
X91158094Y-116954819D02*
X91205713Y-117431009D01*
X91205713Y-117431009D02*
X91158094Y-117383390D01*
X91158094Y-117383390D02*
X91062856Y-117335771D01*
X91062856Y-117335771D02*
X90824761Y-117335771D01*
X90824761Y-117335771D02*
X90729523Y-117383390D01*
X90729523Y-117383390D02*
X90681904Y-117431009D01*
X90681904Y-117431009D02*
X90634285Y-117526247D01*
X90634285Y-117526247D02*
X90634285Y-117764342D01*
X90634285Y-117764342D02*
X90681904Y-117859580D01*
X90681904Y-117859580D02*
X90729523Y-117907200D01*
X90729523Y-117907200D02*
X90824761Y-117954819D01*
X90824761Y-117954819D02*
X91062856Y-117954819D01*
X91062856Y-117954819D02*
X91158094Y-117907200D01*
X91158094Y-117907200D02*
X91205713Y-117859580D01*
X101095238Y-117328152D02*
X101095238Y-117994819D01*
X101333333Y-116947200D02*
X101571428Y-117661485D01*
X101571428Y-117661485D02*
X100952381Y-117661485D01*
X100571428Y-117994819D02*
X100571428Y-116994819D01*
X100476190Y-117613866D02*
X100190476Y-117994819D01*
X100190476Y-117328152D02*
X100571428Y-117709104D01*
X99857142Y-116994819D02*
X99190476Y-116994819D01*
X99190476Y-116994819D02*
X99619047Y-117994819D01*
X91586666Y-122004819D02*
X91919999Y-121528628D01*
X92158094Y-122004819D02*
X92158094Y-121004819D01*
X92158094Y-121004819D02*
X91777142Y-121004819D01*
X91777142Y-121004819D02*
X91681904Y-121052438D01*
X91681904Y-121052438D02*
X91634285Y-121100057D01*
X91634285Y-121100057D02*
X91586666Y-121195295D01*
X91586666Y-121195295D02*
X91586666Y-121338152D01*
X91586666Y-121338152D02*
X91634285Y-121433390D01*
X91634285Y-121433390D02*
X91681904Y-121481009D01*
X91681904Y-121481009D02*
X91777142Y-121528628D01*
X91777142Y-121528628D02*
X92158094Y-121528628D01*
X90729523Y-121338152D02*
X90729523Y-122004819D01*
X90967618Y-120957200D02*
X91205713Y-121671485D01*
X91205713Y-121671485D02*
X90586666Y-121671485D01*
X102571427Y-120974819D02*
X101952380Y-120974819D01*
X101952380Y-120974819D02*
X102285713Y-121355771D01*
X102285713Y-121355771D02*
X102142856Y-121355771D01*
X102142856Y-121355771D02*
X102047618Y-121403390D01*
X102047618Y-121403390D02*
X101999999Y-121451009D01*
X101999999Y-121451009D02*
X101952380Y-121546247D01*
X101952380Y-121546247D02*
X101952380Y-121784342D01*
X101952380Y-121784342D02*
X101999999Y-121879580D01*
X101999999Y-121879580D02*
X102047618Y-121927200D01*
X102047618Y-121927200D02*
X102142856Y-121974819D01*
X102142856Y-121974819D02*
X102428570Y-121974819D01*
X102428570Y-121974819D02*
X102523808Y-121927200D01*
X102523808Y-121927200D02*
X102571427Y-121879580D01*
X101476189Y-121974819D02*
X101285713Y-121974819D01*
X101285713Y-121974819D02*
X101190475Y-121927200D01*
X101190475Y-121927200D02*
X101142856Y-121879580D01*
X101142856Y-121879580D02*
X101047618Y-121736723D01*
X101047618Y-121736723D02*
X100999999Y-121546247D01*
X100999999Y-121546247D02*
X100999999Y-121165295D01*
X100999999Y-121165295D02*
X101047618Y-121070057D01*
X101047618Y-121070057D02*
X101095237Y-121022438D01*
X101095237Y-121022438D02*
X101190475Y-120974819D01*
X101190475Y-120974819D02*
X101380951Y-120974819D01*
X101380951Y-120974819D02*
X101476189Y-121022438D01*
X101476189Y-121022438D02*
X101523808Y-121070057D01*
X101523808Y-121070057D02*
X101571427Y-121165295D01*
X101571427Y-121165295D02*
X101571427Y-121403390D01*
X101571427Y-121403390D02*
X101523808Y-121498628D01*
X101523808Y-121498628D02*
X101476189Y-121546247D01*
X101476189Y-121546247D02*
X101380951Y-121593866D01*
X101380951Y-121593866D02*
X101190475Y-121593866D01*
X101190475Y-121593866D02*
X101095237Y-121546247D01*
X101095237Y-121546247D02*
X101047618Y-121498628D01*
X101047618Y-121498628D02*
X100999999Y-121403390D01*
X100380951Y-120974819D02*
X100285713Y-120974819D01*
X100285713Y-120974819D02*
X100190475Y-121022438D01*
X100190475Y-121022438D02*
X100142856Y-121070057D01*
X100142856Y-121070057D02*
X100095237Y-121165295D01*
X100095237Y-121165295D02*
X100047618Y-121355771D01*
X100047618Y-121355771D02*
X100047618Y-121593866D01*
X100047618Y-121593866D02*
X100095237Y-121784342D01*
X100095237Y-121784342D02*
X100142856Y-121879580D01*
X100142856Y-121879580D02*
X100190475Y-121927200D01*
X100190475Y-121927200D02*
X100285713Y-121974819D01*
X100285713Y-121974819D02*
X100380951Y-121974819D01*
X100380951Y-121974819D02*
X100476189Y-121927200D01*
X100476189Y-121927200D02*
X100523808Y-121879580D01*
X100523808Y-121879580D02*
X100571427Y-121784342D01*
X100571427Y-121784342D02*
X100619046Y-121593866D01*
X100619046Y-121593866D02*
X100619046Y-121355771D01*
X100619046Y-121355771D02*
X100571427Y-121165295D01*
X100571427Y-121165295D02*
X100523808Y-121070057D01*
X100523808Y-121070057D02*
X100476189Y-121022438D01*
X100476189Y-121022438D02*
X100380951Y-120974819D01*
X99619046Y-121974819D02*
X99619046Y-120974819D01*
X99523808Y-121593866D02*
X99238094Y-121974819D01*
X99238094Y-121308152D02*
X99619046Y-121689104D01*
X91586666Y-126054819D02*
X91919999Y-125578628D01*
X92158094Y-126054819D02*
X92158094Y-125054819D01*
X92158094Y-125054819D02*
X91777142Y-125054819D01*
X91777142Y-125054819D02*
X91681904Y-125102438D01*
X91681904Y-125102438D02*
X91634285Y-125150057D01*
X91634285Y-125150057D02*
X91586666Y-125245295D01*
X91586666Y-125245295D02*
X91586666Y-125388152D01*
X91586666Y-125388152D02*
X91634285Y-125483390D01*
X91634285Y-125483390D02*
X91681904Y-125531009D01*
X91681904Y-125531009D02*
X91777142Y-125578628D01*
X91777142Y-125578628D02*
X92158094Y-125578628D01*
X91253332Y-125054819D02*
X90634285Y-125054819D01*
X90634285Y-125054819D02*
X90967618Y-125435771D01*
X90967618Y-125435771D02*
X90824761Y-125435771D01*
X90824761Y-125435771D02*
X90729523Y-125483390D01*
X90729523Y-125483390D02*
X90681904Y-125531009D01*
X90681904Y-125531009D02*
X90634285Y-125626247D01*
X90634285Y-125626247D02*
X90634285Y-125864342D01*
X90634285Y-125864342D02*
X90681904Y-125959580D01*
X90681904Y-125959580D02*
X90729523Y-126007200D01*
X90729523Y-126007200D02*
X90824761Y-126054819D01*
X90824761Y-126054819D02*
X91110475Y-126054819D01*
X91110475Y-126054819D02*
X91205713Y-126007200D01*
X91205713Y-126007200D02*
X91253332Y-125959580D01*
X101999999Y-124954819D02*
X102476189Y-124954819D01*
X102476189Y-124954819D02*
X102523808Y-125431009D01*
X102523808Y-125431009D02*
X102476189Y-125383390D01*
X102476189Y-125383390D02*
X102380951Y-125335771D01*
X102380951Y-125335771D02*
X102142856Y-125335771D01*
X102142856Y-125335771D02*
X102047618Y-125383390D01*
X102047618Y-125383390D02*
X101999999Y-125431009D01*
X101999999Y-125431009D02*
X101952380Y-125526247D01*
X101952380Y-125526247D02*
X101952380Y-125764342D01*
X101952380Y-125764342D02*
X101999999Y-125859580D01*
X101999999Y-125859580D02*
X102047618Y-125907200D01*
X102047618Y-125907200D02*
X102142856Y-125954819D01*
X102142856Y-125954819D02*
X102380951Y-125954819D01*
X102380951Y-125954819D02*
X102476189Y-125907200D01*
X102476189Y-125907200D02*
X102523808Y-125859580D01*
X101095237Y-124954819D02*
X101285713Y-124954819D01*
X101285713Y-124954819D02*
X101380951Y-125002438D01*
X101380951Y-125002438D02*
X101428570Y-125050057D01*
X101428570Y-125050057D02*
X101523808Y-125192914D01*
X101523808Y-125192914D02*
X101571427Y-125383390D01*
X101571427Y-125383390D02*
X101571427Y-125764342D01*
X101571427Y-125764342D02*
X101523808Y-125859580D01*
X101523808Y-125859580D02*
X101476189Y-125907200D01*
X101476189Y-125907200D02*
X101380951Y-125954819D01*
X101380951Y-125954819D02*
X101190475Y-125954819D01*
X101190475Y-125954819D02*
X101095237Y-125907200D01*
X101095237Y-125907200D02*
X101047618Y-125859580D01*
X101047618Y-125859580D02*
X100999999Y-125764342D01*
X100999999Y-125764342D02*
X100999999Y-125526247D01*
X100999999Y-125526247D02*
X101047618Y-125431009D01*
X101047618Y-125431009D02*
X101095237Y-125383390D01*
X101095237Y-125383390D02*
X101190475Y-125335771D01*
X101190475Y-125335771D02*
X101380951Y-125335771D01*
X101380951Y-125335771D02*
X101476189Y-125383390D01*
X101476189Y-125383390D02*
X101523808Y-125431009D01*
X101523808Y-125431009D02*
X101571427Y-125526247D01*
X100380951Y-124954819D02*
X100285713Y-124954819D01*
X100285713Y-124954819D02*
X100190475Y-125002438D01*
X100190475Y-125002438D02*
X100142856Y-125050057D01*
X100142856Y-125050057D02*
X100095237Y-125145295D01*
X100095237Y-125145295D02*
X100047618Y-125335771D01*
X100047618Y-125335771D02*
X100047618Y-125573866D01*
X100047618Y-125573866D02*
X100095237Y-125764342D01*
X100095237Y-125764342D02*
X100142856Y-125859580D01*
X100142856Y-125859580D02*
X100190475Y-125907200D01*
X100190475Y-125907200D02*
X100285713Y-125954819D01*
X100285713Y-125954819D02*
X100380951Y-125954819D01*
X100380951Y-125954819D02*
X100476189Y-125907200D01*
X100476189Y-125907200D02*
X100523808Y-125859580D01*
X100523808Y-125859580D02*
X100571427Y-125764342D01*
X100571427Y-125764342D02*
X100619046Y-125573866D01*
X100619046Y-125573866D02*
X100619046Y-125335771D01*
X100619046Y-125335771D02*
X100571427Y-125145295D01*
X100571427Y-125145295D02*
X100523808Y-125050057D01*
X100523808Y-125050057D02*
X100476189Y-125002438D01*
X100476189Y-125002438D02*
X100380951Y-124954819D01*
X99619046Y-125954819D02*
X99619046Y-124954819D01*
X99523808Y-125573866D02*
X99238094Y-125954819D01*
X99238094Y-125288152D02*
X99619046Y-125669104D01*
X91586666Y-105804819D02*
X91919999Y-105328628D01*
X92158094Y-105804819D02*
X92158094Y-104804819D01*
X92158094Y-104804819D02*
X91777142Y-104804819D01*
X91777142Y-104804819D02*
X91681904Y-104852438D01*
X91681904Y-104852438D02*
X91634285Y-104900057D01*
X91634285Y-104900057D02*
X91586666Y-104995295D01*
X91586666Y-104995295D02*
X91586666Y-105138152D01*
X91586666Y-105138152D02*
X91634285Y-105233390D01*
X91634285Y-105233390D02*
X91681904Y-105281009D01*
X91681904Y-105281009D02*
X91777142Y-105328628D01*
X91777142Y-105328628D02*
X92158094Y-105328628D01*
X91015237Y-105233390D02*
X91110475Y-105185771D01*
X91110475Y-105185771D02*
X91158094Y-105138152D01*
X91158094Y-105138152D02*
X91205713Y-105042914D01*
X91205713Y-105042914D02*
X91205713Y-104995295D01*
X91205713Y-104995295D02*
X91158094Y-104900057D01*
X91158094Y-104900057D02*
X91110475Y-104852438D01*
X91110475Y-104852438D02*
X91015237Y-104804819D01*
X91015237Y-104804819D02*
X90824761Y-104804819D01*
X90824761Y-104804819D02*
X90729523Y-104852438D01*
X90729523Y-104852438D02*
X90681904Y-104900057D01*
X90681904Y-104900057D02*
X90634285Y-104995295D01*
X90634285Y-104995295D02*
X90634285Y-105042914D01*
X90634285Y-105042914D02*
X90681904Y-105138152D01*
X90681904Y-105138152D02*
X90729523Y-105185771D01*
X90729523Y-105185771D02*
X90824761Y-105233390D01*
X90824761Y-105233390D02*
X91015237Y-105233390D01*
X91015237Y-105233390D02*
X91110475Y-105281009D01*
X91110475Y-105281009D02*
X91158094Y-105328628D01*
X91158094Y-105328628D02*
X91205713Y-105423866D01*
X91205713Y-105423866D02*
X91205713Y-105614342D01*
X91205713Y-105614342D02*
X91158094Y-105709580D01*
X91158094Y-105709580D02*
X91110475Y-105757200D01*
X91110475Y-105757200D02*
X91015237Y-105804819D01*
X91015237Y-105804819D02*
X90824761Y-105804819D01*
X90824761Y-105804819D02*
X90729523Y-105757200D01*
X90729523Y-105757200D02*
X90681904Y-105709580D01*
X90681904Y-105709580D02*
X90634285Y-105614342D01*
X90634285Y-105614342D02*
X90634285Y-105423866D01*
X90634285Y-105423866D02*
X90681904Y-105328628D01*
X90681904Y-105328628D02*
X90729523Y-105281009D01*
X90729523Y-105281009D02*
X90824761Y-105233390D01*
X101190476Y-106054819D02*
X101761904Y-106054819D01*
X101476190Y-106054819D02*
X101476190Y-105054819D01*
X101476190Y-105054819D02*
X101571428Y-105197676D01*
X101571428Y-105197676D02*
X101666666Y-105292914D01*
X101666666Y-105292914D02*
X101761904Y-105340533D01*
X100809523Y-105150057D02*
X100761904Y-105102438D01*
X100761904Y-105102438D02*
X100666666Y-105054819D01*
X100666666Y-105054819D02*
X100428571Y-105054819D01*
X100428571Y-105054819D02*
X100333333Y-105102438D01*
X100333333Y-105102438D02*
X100285714Y-105150057D01*
X100285714Y-105150057D02*
X100238095Y-105245295D01*
X100238095Y-105245295D02*
X100238095Y-105340533D01*
X100238095Y-105340533D02*
X100285714Y-105483390D01*
X100285714Y-105483390D02*
X100857142Y-106054819D01*
X100857142Y-106054819D02*
X100238095Y-106054819D01*
X99809523Y-106054819D02*
X99809523Y-105054819D01*
X99238095Y-106054819D02*
X99666666Y-105483390D01*
X99238095Y-105054819D02*
X99809523Y-105626247D01*
X78145180Y-117138094D02*
X79145180Y-117138094D01*
X79145180Y-117138094D02*
X79145180Y-116899999D01*
X79145180Y-116899999D02*
X79097561Y-116757142D01*
X79097561Y-116757142D02*
X79002323Y-116661904D01*
X79002323Y-116661904D02*
X78907085Y-116614285D01*
X78907085Y-116614285D02*
X78716609Y-116566666D01*
X78716609Y-116566666D02*
X78573752Y-116566666D01*
X78573752Y-116566666D02*
X78383276Y-116614285D01*
X78383276Y-116614285D02*
X78288038Y-116661904D01*
X78288038Y-116661904D02*
X78192800Y-116757142D01*
X78192800Y-116757142D02*
X78145180Y-116899999D01*
X78145180Y-116899999D02*
X78145180Y-117138094D01*
X79145180Y-116233332D02*
X79145180Y-115614285D01*
X79145180Y-115614285D02*
X78764228Y-115947618D01*
X78764228Y-115947618D02*
X78764228Y-115804761D01*
X78764228Y-115804761D02*
X78716609Y-115709523D01*
X78716609Y-115709523D02*
X78668990Y-115661904D01*
X78668990Y-115661904D02*
X78573752Y-115614285D01*
X78573752Y-115614285D02*
X78335657Y-115614285D01*
X78335657Y-115614285D02*
X78240419Y-115661904D01*
X78240419Y-115661904D02*
X78192800Y-115709523D01*
X78192800Y-115709523D02*
X78145180Y-115804761D01*
X78145180Y-115804761D02*
X78145180Y-116090475D01*
X78145180Y-116090475D02*
X78192800Y-116185713D01*
X78192800Y-116185713D02*
X78240419Y-116233332D01*
X75925180Y-118742857D02*
X75925180Y-119314285D01*
X75925180Y-119028571D02*
X76925180Y-119028571D01*
X76925180Y-119028571D02*
X76782323Y-119123809D01*
X76782323Y-119123809D02*
X76687085Y-119219047D01*
X76687085Y-119219047D02*
X76639466Y-119314285D01*
X75925180Y-118314285D02*
X76925180Y-118314285D01*
X76925180Y-118314285D02*
X75925180Y-117742857D01*
X75925180Y-117742857D02*
X76925180Y-117742857D01*
X76591847Y-116838095D02*
X75925180Y-116838095D01*
X76972800Y-117076190D02*
X76258514Y-117314285D01*
X76258514Y-117314285D02*
X76258514Y-116695238D01*
X75925180Y-115790476D02*
X75925180Y-116361904D01*
X75925180Y-116076190D02*
X76925180Y-116076190D01*
X76925180Y-116076190D02*
X76782323Y-116171428D01*
X76782323Y-116171428D02*
X76687085Y-116266666D01*
X76687085Y-116266666D02*
X76639466Y-116361904D01*
X76591847Y-114933333D02*
X75925180Y-114933333D01*
X76972800Y-115171428D02*
X76258514Y-115409523D01*
X76258514Y-115409523D02*
X76258514Y-114790476D01*
X76496609Y-114266666D02*
X76544228Y-114361904D01*
X76544228Y-114361904D02*
X76591847Y-114409523D01*
X76591847Y-114409523D02*
X76687085Y-114457142D01*
X76687085Y-114457142D02*
X76734704Y-114457142D01*
X76734704Y-114457142D02*
X76829942Y-114409523D01*
X76829942Y-114409523D02*
X76877561Y-114361904D01*
X76877561Y-114361904D02*
X76925180Y-114266666D01*
X76925180Y-114266666D02*
X76925180Y-114076190D01*
X76925180Y-114076190D02*
X76877561Y-113980952D01*
X76877561Y-113980952D02*
X76829942Y-113933333D01*
X76829942Y-113933333D02*
X76734704Y-113885714D01*
X76734704Y-113885714D02*
X76687085Y-113885714D01*
X76687085Y-113885714D02*
X76591847Y-113933333D01*
X76591847Y-113933333D02*
X76544228Y-113980952D01*
X76544228Y-113980952D02*
X76496609Y-114076190D01*
X76496609Y-114076190D02*
X76496609Y-114266666D01*
X76496609Y-114266666D02*
X76448990Y-114361904D01*
X76448990Y-114361904D02*
X76401371Y-114409523D01*
X76401371Y-114409523D02*
X76306133Y-114457142D01*
X76306133Y-114457142D02*
X76115657Y-114457142D01*
X76115657Y-114457142D02*
X76020419Y-114409523D01*
X76020419Y-114409523D02*
X75972800Y-114361904D01*
X75972800Y-114361904D02*
X75925180Y-114266666D01*
X75925180Y-114266666D02*
X75925180Y-114076190D01*
X75925180Y-114076190D02*
X75972800Y-113980952D01*
X75972800Y-113980952D02*
X76020419Y-113933333D01*
X76020419Y-113933333D02*
X76115657Y-113885714D01*
X76115657Y-113885714D02*
X76306133Y-113885714D01*
X76306133Y-113885714D02*
X76401371Y-113933333D01*
X76401371Y-113933333D02*
X76448990Y-113980952D01*
X76448990Y-113980952D02*
X76496609Y-114076190D01*
X78761904Y-122854819D02*
X78761904Y-121854819D01*
X78190476Y-122854819D02*
X78619047Y-122283390D01*
X78190476Y-121854819D02*
X78761904Y-122426247D01*
X70209166Y-105459580D02*
X70256785Y-105507200D01*
X70256785Y-105507200D02*
X70399642Y-105554819D01*
X70399642Y-105554819D02*
X70494880Y-105554819D01*
X70494880Y-105554819D02*
X70637737Y-105507200D01*
X70637737Y-105507200D02*
X70732975Y-105411961D01*
X70732975Y-105411961D02*
X70780594Y-105316723D01*
X70780594Y-105316723D02*
X70828213Y-105126247D01*
X70828213Y-105126247D02*
X70828213Y-104983390D01*
X70828213Y-104983390D02*
X70780594Y-104792914D01*
X70780594Y-104792914D02*
X70732975Y-104697676D01*
X70732975Y-104697676D02*
X70637737Y-104602438D01*
X70637737Y-104602438D02*
X70494880Y-104554819D01*
X70494880Y-104554819D02*
X70399642Y-104554819D01*
X70399642Y-104554819D02*
X70256785Y-104602438D01*
X70256785Y-104602438D02*
X70209166Y-104650057D01*
X69256785Y-105554819D02*
X69828213Y-105554819D01*
X69542499Y-105554819D02*
X69542499Y-104554819D01*
X69542499Y-104554819D02*
X69637737Y-104697676D01*
X69637737Y-104697676D02*
X69732975Y-104792914D01*
X69732975Y-104792914D02*
X69828213Y-104840533D01*
X71209166Y-113688152D02*
X71209166Y-114354819D01*
X71447261Y-113307200D02*
X71685356Y-114021485D01*
X71685356Y-114021485D02*
X71066309Y-114021485D01*
X70780594Y-113354819D02*
X70113928Y-113354819D01*
X70113928Y-113354819D02*
X70542499Y-114354819D01*
X69304404Y-113688152D02*
X69304404Y-114354819D01*
X69732975Y-113688152D02*
X69732975Y-114211961D01*
X69732975Y-114211961D02*
X69685356Y-114307200D01*
X69685356Y-114307200D02*
X69590118Y-114354819D01*
X69590118Y-114354819D02*
X69447261Y-114354819D01*
X69447261Y-114354819D02*
X69352023Y-114307200D01*
X69352023Y-114307200D02*
X69304404Y-114259580D01*
X68494880Y-113831009D02*
X68828213Y-113831009D01*
X68828213Y-114354819D02*
X68828213Y-113354819D01*
X68828213Y-113354819D02*
X68352023Y-113354819D01*
D12*
%TO.C,G\u002A\u002A\u002A*%
X82625000Y-54950000D02*
X83200000Y-55425000D01*
X83200000Y-55425000D02*
X83625000Y-55100000D01*
X83625000Y-55100000D02*
X82625000Y-54950000D01*
D13*
X83950000Y-56538605D02*
X84850000Y-56525000D01*
X84349999Y-57920050D02*
X83949999Y-57920050D01*
X84350000Y-56925000D02*
X84100000Y-56925000D01*
X84350000Y-56975000D02*
X84350000Y-57425000D01*
X84350000Y-57425000D02*
X84050000Y-57425000D01*
X84350000Y-57925000D02*
X84350000Y-58425000D01*
X84350000Y-58425000D02*
X83900000Y-58425000D01*
D12*
X84575000Y-54225000D02*
X84925000Y-53050000D01*
D13*
X84850000Y-56525000D02*
X84900000Y-58975000D01*
X84900000Y-58975000D02*
X83700000Y-58975000D01*
D12*
X84925000Y-53050000D02*
X86725000Y-53100000D01*
D13*
X85175000Y-58975000D02*
X85950000Y-56525000D01*
X85575000Y-58975000D02*
X85175000Y-58975000D01*
X85825000Y-58375000D02*
X85575000Y-58975000D01*
X85900000Y-57975000D02*
X86125000Y-57225000D01*
X85950000Y-56525000D02*
X86275000Y-56525000D01*
X86125000Y-57225000D02*
X86400000Y-57975000D01*
D12*
X86150000Y-55150000D02*
X87825000Y-55250000D01*
D13*
X86275000Y-56525000D02*
X87175000Y-58975000D01*
X86400000Y-57975000D02*
X85900000Y-57975000D01*
X86425000Y-58375000D02*
X85825000Y-58375000D01*
X86675000Y-58975000D02*
X86425000Y-58375000D01*
X86675000Y-58975000D02*
X87175000Y-58975000D01*
D12*
X86725000Y-53100000D02*
X84575000Y-54225000D01*
X86850000Y-54575000D02*
X86150000Y-55150000D01*
D13*
X87350000Y-58500000D02*
X87350000Y-58950000D01*
X87350000Y-58950000D02*
X88600000Y-58950000D01*
D12*
X87850000Y-55250000D02*
X86850000Y-54575000D01*
X88000000Y-54800000D02*
X89625000Y-55925000D01*
X88050000Y-52475000D02*
X89175000Y-53700000D01*
X88075000Y-52075000D02*
X88000000Y-54800000D01*
D13*
X88100000Y-58500000D02*
X87350000Y-58500000D01*
X88125000Y-56500000D02*
X88100000Y-58500000D01*
X88575000Y-56500000D02*
X88125000Y-56500000D01*
X88600000Y-58950000D02*
X88575000Y-56500000D01*
X88775000Y-58950000D02*
X89475000Y-58000000D01*
X88875000Y-58950000D02*
X88775000Y-58950000D01*
D12*
X89175000Y-53700000D02*
X88600000Y-55200000D01*
D13*
X89275000Y-58950000D02*
X88875000Y-58950000D01*
X89516269Y-56494594D02*
X90625000Y-56500000D01*
D12*
X89625000Y-55925000D02*
X91300000Y-55700000D01*
D13*
X89675000Y-56950000D02*
X90125000Y-56950000D01*
X90025000Y-58000000D02*
X89275000Y-58950000D01*
X90125000Y-56950000D02*
X90125000Y-57500000D01*
X90125000Y-57500000D02*
X89625000Y-57500000D01*
X90175000Y-58000000D02*
X90025000Y-58000000D01*
X90175000Y-58950000D02*
X90175000Y-58000000D01*
X90625000Y-56500000D02*
X90625000Y-58950000D01*
X90625000Y-58950000D02*
X90175000Y-58950000D01*
D12*
X90775000Y-56150000D02*
X91750000Y-56500000D01*
D13*
X91075000Y-56500000D02*
X92375000Y-56500000D01*
X91075000Y-57000000D02*
X91075000Y-56500000D01*
X91075000Y-58450000D02*
X91925000Y-58450000D01*
X91075000Y-58950000D02*
X91075000Y-58450000D01*
D12*
X91175000Y-55875000D02*
X90775000Y-56150000D01*
D13*
X91275000Y-57450000D02*
X91925000Y-57450000D01*
X91275000Y-57900000D02*
X91275000Y-57450000D01*
D12*
X91300000Y-55700000D02*
X93125000Y-56600000D01*
X91550000Y-53700000D02*
X88075000Y-52075000D01*
X91550000Y-53700000D02*
X93875000Y-54850000D01*
D13*
X91925000Y-57000000D02*
X91075000Y-57000000D01*
X91925000Y-57450000D02*
X91925000Y-57000000D01*
X91925000Y-57900000D02*
X91275000Y-57900000D01*
X91925000Y-58450000D02*
X91925000Y-57900000D01*
D12*
X91950000Y-56475000D02*
X91175000Y-55875000D01*
X92300000Y-52275000D02*
X91550000Y-53700000D01*
X92300000Y-52275000D02*
X94500000Y-53450000D01*
D13*
X92325000Y-58950000D02*
X91075000Y-58950000D01*
X92375000Y-56500000D02*
X92425000Y-58950000D01*
X92425000Y-58950000D02*
X92325000Y-58950000D01*
X93525000Y-56513605D02*
X94425000Y-56500000D01*
D12*
X93875000Y-54850000D02*
X95350000Y-56575000D01*
X93875000Y-54850000D02*
X99525000Y-57700000D01*
D13*
X93924999Y-57895050D02*
X93524999Y-57895050D01*
X93925000Y-56900000D02*
X93675000Y-56900000D01*
X93925000Y-56950000D02*
X93925000Y-57400000D01*
X93925000Y-57400000D02*
X93625000Y-57400000D01*
X93925000Y-57900000D02*
X93925000Y-58400000D01*
X93925000Y-58400000D02*
X93475000Y-58400000D01*
X94425000Y-56500000D02*
X94475000Y-58950000D01*
X94475000Y-58950000D02*
X93275000Y-58950000D01*
D12*
X94500000Y-53450000D02*
X92925000Y-54350000D01*
X94600000Y-53275000D02*
X93875000Y-54850000D01*
D13*
X94875000Y-57350000D02*
X94875000Y-58050000D01*
D12*
X95175000Y-56675000D02*
X88075000Y-52075000D01*
D13*
X95375000Y-57350000D02*
X95375000Y-58000000D01*
D12*
X95625000Y-53525000D02*
X93875000Y-54850000D01*
X95625000Y-53525000D02*
X94600000Y-53275000D01*
X95700000Y-57600000D02*
X96075000Y-57775000D01*
X96025000Y-57200000D02*
X95700000Y-57600000D01*
D13*
X96075000Y-57350000D02*
X96075000Y-58050000D01*
D12*
X96575000Y-57950000D02*
X97125000Y-58225000D01*
D13*
X96575000Y-58050000D02*
X96575000Y-57350000D01*
D12*
X96625000Y-57225000D02*
X96850000Y-57850000D01*
X96850000Y-57850000D02*
X99525000Y-57700000D01*
X97125000Y-58225000D02*
X96550000Y-57425000D01*
X98200000Y-58175000D02*
X97375000Y-57825000D01*
X99525000Y-57700000D02*
X95625000Y-53525000D01*
X99525000Y-57700000D02*
X96625000Y-57225000D01*
X99525000Y-57700000D02*
X98200000Y-58175000D01*
D13*
X83500001Y-57624999D02*
G75*
G02*
X83950000Y-56538605I449999J449999D01*
G01*
X83700001Y-58974999D02*
G75*
G02*
X83523744Y-57666063I249998J699999D01*
G01*
X83900001Y-58424999D02*
G75*
G02*
X83949999Y-57920050I49999J249999D01*
G01*
X84050000Y-57425000D02*
G75*
G02*
X84110634Y-56932464I0J250000D01*
G01*
X89500001Y-57949999D02*
G75*
G02*
X89516269Y-56494594I249999J724999D01*
G01*
X89625001Y-57499999D02*
G75*
G02*
X89625001Y-56950001I124999J274999D01*
G01*
X93075001Y-57599999D02*
G75*
G02*
X93525000Y-56513605I449999J449999D01*
G01*
X93275001Y-58949999D02*
G75*
G02*
X93098744Y-57641063I249998J699999D01*
G01*
X93475001Y-58399999D02*
G75*
G02*
X93524999Y-57895050I49999J249999D01*
G01*
X93625000Y-57400000D02*
G75*
G02*
X93685634Y-56907464I0J250000D01*
G01*
X94875000Y-57350000D02*
G75*
G02*
X96575000Y-57350000I850000J0D01*
G01*
X95375000Y-57350000D02*
G75*
G02*
X96075000Y-57350000I350000J0D01*
G01*
X96075000Y-58050000D02*
G75*
G02*
X95375000Y-58050000I-350000J0D01*
G01*
X96575000Y-58050000D02*
G75*
G02*
X94875000Y-58050000I-850000J0D01*
G01*
D14*
X105072361Y-111945226D02*
X105008542Y-112009045D01*
X104944723Y-111945226D01*
X105008542Y-111881407D01*
X105072361Y-111945226D01*
G36*
X105072361Y-111945226D02*
G01*
X105008542Y-112009045D01*
X104944723Y-111945226D01*
X105008542Y-111881407D01*
X105072361Y-111945226D01*
G37*
D12*
X93300000Y-64275000D02*
X95500000Y-65450000D01*
X95500000Y-65450000D02*
X93925000Y-66350000D01*
X100525000Y-69700000D02*
X99200000Y-70175000D01*
X97625000Y-69225000D02*
X97850000Y-69850000D01*
X97850000Y-69850000D02*
X100525000Y-69700000D01*
X92300000Y-67700000D02*
X94125000Y-68600000D01*
X90625000Y-67925000D02*
X92300000Y-67700000D01*
X89000000Y-66800000D02*
X90625000Y-67925000D01*
X100525000Y-69700000D02*
X96625000Y-65525000D01*
X100525000Y-69700000D02*
X97625000Y-69225000D01*
D13*
X90675000Y-68950000D02*
X91125000Y-68950000D01*
D12*
X92175000Y-67875000D02*
X91775000Y-68150000D01*
X92950000Y-68475000D02*
X92175000Y-67875000D01*
D13*
X91625000Y-68500000D02*
X91625000Y-70950000D01*
X94925000Y-70400000D02*
X94475000Y-70400000D01*
X95425000Y-68500000D02*
X95475000Y-70950000D01*
D12*
X96625000Y-65525000D02*
X95600000Y-65275000D01*
X84200000Y-67425000D02*
X84625000Y-67100000D01*
D13*
X94925000Y-69900000D02*
X94925000Y-70400000D01*
D12*
X83625000Y-66950000D02*
X84200000Y-67425000D01*
D13*
X90275000Y-70950000D02*
X89875000Y-70950000D01*
X92075000Y-70950000D02*
X92075000Y-70450000D01*
X91175000Y-70000000D02*
X91025000Y-70000000D01*
X91625000Y-70950000D02*
X91175000Y-70950000D01*
D12*
X92550000Y-65700000D02*
X89075000Y-64075000D01*
X87850000Y-66575000D02*
X87150000Y-67150000D01*
X92550000Y-65700000D02*
X94875000Y-66850000D01*
X89075000Y-64075000D02*
X89000000Y-66800000D01*
D13*
X85350000Y-70425000D02*
X84900000Y-70425000D01*
X89775000Y-70950000D02*
X90475000Y-70000000D01*
X91125000Y-68950000D02*
X91125000Y-69500000D01*
X85350000Y-69425000D02*
X85050000Y-69425000D01*
D12*
X85925000Y-65050000D02*
X87725000Y-65100000D01*
X96700000Y-69600000D02*
X97075000Y-69775000D01*
X96175000Y-68675000D02*
X89075000Y-64075000D01*
X87725000Y-65100000D02*
X85575000Y-66225000D01*
X98125000Y-70225000D02*
X97550000Y-69425000D01*
X87150000Y-67150000D02*
X88825000Y-67250000D01*
D13*
X85350000Y-68975000D02*
X85350000Y-69425000D01*
X94925000Y-68900000D02*
X94675000Y-68900000D01*
X91125000Y-69500000D02*
X90625000Y-69500000D01*
X92925000Y-70450000D02*
X92925000Y-69900000D01*
X92075000Y-70450000D02*
X92925000Y-70450000D01*
X96375000Y-69350000D02*
X96375000Y-70000000D01*
D12*
X91775000Y-68150000D02*
X92750000Y-68500000D01*
X96625000Y-65525000D02*
X94875000Y-66850000D01*
X97025000Y-69200000D02*
X96700000Y-69600000D01*
D13*
X94525000Y-68513605D02*
X95425000Y-68500000D01*
D12*
X97575000Y-69950000D02*
X98125000Y-70225000D01*
X84625000Y-67100000D02*
X83625000Y-66950000D01*
D13*
X85350000Y-68925000D02*
X85100000Y-68925000D01*
X94924999Y-69895050D02*
X94524999Y-69895050D01*
X84950000Y-68538605D02*
X85850000Y-68525000D01*
D12*
X94875000Y-66850000D02*
X100525000Y-69700000D01*
D13*
X87125000Y-69225000D02*
X87400000Y-69975000D01*
X86900000Y-69975000D02*
X87125000Y-69225000D01*
X93325000Y-70950000D02*
X92075000Y-70950000D01*
X90516269Y-68494594D02*
X91625000Y-68500000D01*
X85349999Y-69920050D02*
X84949999Y-69920050D01*
X85350000Y-69925000D02*
X85350000Y-70425000D01*
X85900000Y-70975000D02*
X84700000Y-70975000D01*
D12*
X99200000Y-70175000D02*
X98375000Y-69825000D01*
D13*
X95475000Y-70950000D02*
X94275000Y-70950000D01*
X97075000Y-69350000D02*
X97075000Y-70050000D01*
D12*
X90175000Y-65700000D02*
X89600000Y-67200000D01*
X89050000Y-64475000D02*
X90175000Y-65700000D01*
X88850000Y-67250000D02*
X87850000Y-66575000D01*
D13*
X85850000Y-68525000D02*
X85900000Y-70975000D01*
D12*
X93300000Y-64275000D02*
X92550000Y-65700000D01*
X95600000Y-65275000D02*
X94875000Y-66850000D01*
X85575000Y-66225000D02*
X85925000Y-65050000D01*
D13*
X91175000Y-70950000D02*
X91175000Y-70000000D01*
X89875000Y-70950000D02*
X89775000Y-70950000D01*
X91025000Y-70000000D02*
X90275000Y-70950000D01*
X88350000Y-70500000D02*
X88350000Y-70950000D01*
X86825000Y-70375000D02*
X86575000Y-70975000D01*
X87675000Y-70975000D02*
X87425000Y-70375000D01*
X92925000Y-69000000D02*
X92075000Y-69000000D01*
X94925000Y-69400000D02*
X94625000Y-69400000D01*
X87400000Y-69975000D02*
X86900000Y-69975000D01*
X92075000Y-68500000D02*
X93375000Y-68500000D01*
X87275000Y-68525000D02*
X88175000Y-70975000D01*
X92925000Y-69900000D02*
X92275000Y-69900000D01*
X92075000Y-69000000D02*
X92075000Y-68500000D01*
X87675000Y-70975000D02*
X88175000Y-70975000D01*
D12*
X94875000Y-66850000D02*
X96350000Y-68575000D01*
D13*
X89125000Y-68500000D02*
X89100000Y-70500000D01*
X89600000Y-70950000D02*
X89575000Y-68500000D01*
X92275000Y-69900000D02*
X92275000Y-69450000D01*
X86575000Y-70975000D02*
X86175000Y-70975000D01*
X86950000Y-68525000D02*
X87275000Y-68525000D01*
X92275000Y-69450000D02*
X92925000Y-69450000D01*
X94925000Y-68950000D02*
X94925000Y-69400000D01*
X92925000Y-69450000D02*
X92925000Y-69000000D01*
X86175000Y-70975000D02*
X86950000Y-68525000D01*
X93425000Y-70950000D02*
X93325000Y-70950000D01*
X93375000Y-68500000D02*
X93425000Y-70950000D01*
X95875000Y-69350000D02*
X95875000Y-70050000D01*
X97575000Y-70050000D02*
X97575000Y-69350000D01*
X89575000Y-68500000D02*
X89125000Y-68500000D01*
D14*
X106072361Y-123945226D02*
X106008542Y-124009045D01*
X105944723Y-123945226D01*
X106008542Y-123881407D01*
X106072361Y-123945226D01*
G36*
X106072361Y-123945226D02*
G01*
X106008542Y-124009045D01*
X105944723Y-123945226D01*
X106008542Y-123881407D01*
X106072361Y-123945226D01*
G37*
D13*
X88350000Y-70950000D02*
X89600000Y-70950000D01*
X89100000Y-70500000D02*
X88350000Y-70500000D01*
X87425000Y-70375000D02*
X86825000Y-70375000D01*
X94625000Y-69400000D02*
G75*
G02*
X94685634Y-68907464I0J250000D01*
G01*
X94075001Y-69599999D02*
G75*
G02*
X94525000Y-68513605I449999J449999D01*
G01*
X95875000Y-69350000D02*
G75*
G02*
X97575000Y-69350000I850000J0D01*
G01*
X94475001Y-70399999D02*
G75*
G02*
X94524999Y-69895050I49999J249999D01*
G01*
X84500001Y-69624999D02*
G75*
G02*
X84950000Y-68538605I449999J449999D01*
G01*
X94275001Y-70949999D02*
G75*
G02*
X94098744Y-69641063I249999J699999D01*
G01*
X85050000Y-69425000D02*
G75*
G02*
X85110634Y-68932464I0J250000D01*
G01*
X84900001Y-70424999D02*
G75*
G02*
X84949999Y-69920050I49999J249999D01*
G01*
X96375000Y-69350000D02*
G75*
G02*
X97075000Y-69350000I350000J0D01*
G01*
X97075000Y-70050000D02*
G75*
G02*
X96375000Y-70050000I-350000J0D01*
G01*
X90625001Y-69499999D02*
G75*
G02*
X90625001Y-68950001I124999J274999D01*
G01*
X84700001Y-70974999D02*
G75*
G02*
X84523744Y-69666063I249999J699999D01*
G01*
X97575000Y-70050000D02*
G75*
G02*
X95875000Y-70050000I-850000J0D01*
G01*
X90500001Y-69949999D02*
G75*
G02*
X90516269Y-68494594I249999J724999D01*
G01*
%TO.C,U1*%
X117440000Y-118050000D02*
X117440000Y-128330000D01*
X117440000Y-128330000D02*
X112140000Y-128330000D01*
X115790000Y-118050000D02*
X117440000Y-118050000D01*
X112140000Y-118050000D02*
X113790000Y-118050000D01*
X112140000Y-128330000D02*
X112140000Y-118050000D01*
X115790000Y-118050000D02*
G75*
G02*
X113790000Y-118050000I-1000000J0D01*
G01*
%TO.C,S1*%
X124093400Y-54332400D02*
X124093400Y-64289200D01*
X128030400Y-54332400D02*
X124093400Y-54307000D01*
X124093400Y-64289200D02*
X128030400Y-64289200D01*
X128030400Y-64289200D02*
X128030400Y-54332400D01*
%TO.C,R7*%
X87380000Y-109400000D02*
X88150000Y-109400000D01*
X95460000Y-109400000D02*
X94690000Y-109400000D01*
X88150000Y-110770000D02*
X94690000Y-110770000D01*
X94690000Y-108030000D01*
X88150000Y-108030000D01*
X88150000Y-110770000D01*
%TO.C,R6*%
X87380000Y-113450000D02*
X88150000Y-113450000D01*
X95460000Y-113450000D02*
X94690000Y-113450000D01*
X88150000Y-114820000D02*
X94690000Y-114820000D01*
X94690000Y-112080000D01*
X88150000Y-112080000D01*
X88150000Y-114820000D01*
%TO.C,R5*%
X87380000Y-117500000D02*
X88150000Y-117500000D01*
X95460000Y-117500000D02*
X94690000Y-117500000D01*
X88150000Y-118870000D02*
X94690000Y-118870000D01*
X94690000Y-116130000D01*
X88150000Y-116130000D01*
X88150000Y-118870000D01*
%TO.C,R4*%
X87380000Y-121550000D02*
X88150000Y-121550000D01*
X95460000Y-121550000D02*
X94690000Y-121550000D01*
X88150000Y-122920000D02*
X94690000Y-122920000D01*
X94690000Y-120180000D01*
X88150000Y-120180000D01*
X88150000Y-122920000D01*
%TO.C,R3*%
X87380000Y-125600000D02*
X88150000Y-125600000D01*
X95460000Y-125600000D02*
X94690000Y-125600000D01*
X88150000Y-126970000D02*
X94690000Y-126970000D01*
X94690000Y-124230000D01*
X88150000Y-124230000D01*
X88150000Y-126970000D01*
%TO.C,R8*%
X87380000Y-105350000D02*
X88150000Y-105350000D01*
X95460000Y-105350000D02*
X94690000Y-105350000D01*
X88150000Y-106720000D02*
X94690000Y-106720000D01*
X94690000Y-103980000D01*
X88150000Y-103980000D01*
X88150000Y-106720000D01*
%TO.C,D3*%
X78500000Y-113830000D02*
X78500000Y-114480000D01*
X77380000Y-114480000D02*
X79620000Y-114480000D01*
X79620000Y-114480000D02*
X79620000Y-118720000D01*
X79620000Y-117880000D02*
X77380000Y-117880000D01*
X79620000Y-118000000D02*
X77380000Y-118000000D01*
X79620000Y-118120000D02*
X77380000Y-118120000D01*
X77380000Y-118720000D02*
X77380000Y-114480000D01*
X79620000Y-118720000D02*
X77380000Y-118720000D01*
X78500000Y-119370000D02*
X78500000Y-118720000D01*
%TO.C,C1*%
X74307500Y-109475000D02*
X73677500Y-109475000D01*
X73992500Y-109160000D02*
X73992500Y-109790000D01*
X70042500Y-106270000D02*
X70042500Y-112730000D01*
X70002500Y-106270000D02*
X70002500Y-112730000D01*
X69962500Y-106270000D02*
X69962500Y-112730000D01*
X69922500Y-106272000D02*
X69922500Y-112728000D01*
X69882500Y-106273000D02*
X69882500Y-112727000D01*
X69842500Y-106276000D02*
X69842500Y-112724000D01*
X69802500Y-106278000D02*
X69802500Y-108460000D01*
X69802500Y-110540000D02*
X69802500Y-112722000D01*
X69762500Y-106282000D02*
X69762500Y-108460000D01*
X69762500Y-110540000D02*
X69762500Y-112718000D01*
X69722500Y-106285000D02*
X69722500Y-108460000D01*
X69722500Y-110540000D02*
X69722500Y-112715000D01*
X69682500Y-106289000D02*
X69682500Y-108460000D01*
X69682500Y-110540000D02*
X69682500Y-112711000D01*
X69642500Y-106294000D02*
X69642500Y-108460000D01*
X69642500Y-110540000D02*
X69642500Y-112706000D01*
X69602500Y-106299000D02*
X69602500Y-108460000D01*
X69602500Y-110540000D02*
X69602500Y-112701000D01*
X69562500Y-106305000D02*
X69562500Y-108460000D01*
X69562500Y-110540000D02*
X69562500Y-112695000D01*
X69522500Y-106311000D02*
X69522500Y-108460000D01*
X69522500Y-110540000D02*
X69522500Y-112689000D01*
X69482500Y-106318000D02*
X69482500Y-108460000D01*
X69482500Y-110540000D02*
X69482500Y-112682000D01*
X69442500Y-106325000D02*
X69442500Y-108460000D01*
X69442500Y-110540000D02*
X69442500Y-112675000D01*
X69402500Y-106333000D02*
X69402500Y-108460000D01*
X69402500Y-110540000D02*
X69402500Y-112667000D01*
X69362500Y-106341000D02*
X69362500Y-108460000D01*
X69362500Y-110540000D02*
X69362500Y-112659000D01*
X69321500Y-106350000D02*
X69321500Y-108460000D01*
X69321500Y-110540000D02*
X69321500Y-112650000D01*
X69281500Y-106359000D02*
X69281500Y-108460000D01*
X69281500Y-110540000D02*
X69281500Y-112641000D01*
X69241500Y-106369000D02*
X69241500Y-108460000D01*
X69241500Y-110540000D02*
X69241500Y-112631000D01*
X69201500Y-106379000D02*
X69201500Y-108460000D01*
X69201500Y-110540000D02*
X69201500Y-112621000D01*
X69161500Y-106390000D02*
X69161500Y-108460000D01*
X69161500Y-110540000D02*
X69161500Y-112610000D01*
X69121500Y-106402000D02*
X69121500Y-108460000D01*
X69121500Y-110540000D02*
X69121500Y-112598000D01*
X69081500Y-106414000D02*
X69081500Y-108460000D01*
X69081500Y-110540000D02*
X69081500Y-112586000D01*
X69041500Y-106426000D02*
X69041500Y-108460000D01*
X69041500Y-110540000D02*
X69041500Y-112574000D01*
X69001500Y-106439000D02*
X69001500Y-108460000D01*
X69001500Y-110540000D02*
X69001500Y-112561000D01*
X68961500Y-106453000D02*
X68961500Y-108460000D01*
X68961500Y-110540000D02*
X68961500Y-112547000D01*
X68921500Y-106467000D02*
X68921500Y-108460000D01*
X68921500Y-110540000D02*
X68921500Y-112533000D01*
X68881500Y-106482000D02*
X68881500Y-108460000D01*
X68881500Y-110540000D02*
X68881500Y-112518000D01*
X68841500Y-106498000D02*
X68841500Y-108460000D01*
X68841500Y-110540000D02*
X68841500Y-112502000D01*
X68801500Y-106514000D02*
X68801500Y-108460000D01*
X68801500Y-110540000D02*
X68801500Y-112486000D01*
X68761500Y-106530000D02*
X68761500Y-108460000D01*
X68761500Y-110540000D02*
X68761500Y-112470000D01*
X68721500Y-106548000D02*
X68721500Y-108460000D01*
X68721500Y-110540000D02*
X68721500Y-112452000D01*
X68681500Y-106566000D02*
X68681500Y-108460000D01*
X68681500Y-110540000D02*
X68681500Y-112434000D01*
X68641500Y-106584000D02*
X68641500Y-108460000D01*
X68641500Y-110540000D02*
X68641500Y-112416000D01*
X68601500Y-106604000D02*
X68601500Y-108460000D01*
X68601500Y-110540000D02*
X68601500Y-112396000D01*
X68561500Y-106624000D02*
X68561500Y-108460000D01*
X68561500Y-110540000D02*
X68561500Y-112376000D01*
X68521500Y-106644000D02*
X68521500Y-108460000D01*
X68521500Y-110540000D02*
X68521500Y-112356000D01*
X68481500Y-106666000D02*
X68481500Y-108460000D01*
X68481500Y-110540000D02*
X68481500Y-112334000D01*
X68441500Y-106688000D02*
X68441500Y-108460000D01*
X68441500Y-110540000D02*
X68441500Y-112312000D01*
X68401500Y-106710000D02*
X68401500Y-108460000D01*
X68401500Y-110540000D02*
X68401500Y-112290000D01*
X68361500Y-106734000D02*
X68361500Y-108460000D01*
X68361500Y-110540000D02*
X68361500Y-112266000D01*
X68321500Y-106758000D02*
X68321500Y-108460000D01*
X68321500Y-110540000D02*
X68321500Y-112242000D01*
X68281500Y-106784000D02*
X68281500Y-108460000D01*
X68281500Y-110540000D02*
X68281500Y-112216000D01*
X68241500Y-106810000D02*
X68241500Y-108460000D01*
X68241500Y-110540000D02*
X68241500Y-112190000D01*
X68201500Y-106836000D02*
X68201500Y-108460000D01*
X68201500Y-110540000D02*
X68201500Y-112164000D01*
X68161500Y-106864000D02*
X68161500Y-108460000D01*
X68161500Y-110540000D02*
X68161500Y-112136000D01*
X68121500Y-106893000D02*
X68121500Y-108460000D01*
X68121500Y-110540000D02*
X68121500Y-112107000D01*
X68081500Y-106922000D02*
X68081500Y-108460000D01*
X68081500Y-110540000D02*
X68081500Y-112078000D01*
X68041500Y-106952000D02*
X68041500Y-108460000D01*
X68041500Y-110540000D02*
X68041500Y-112048000D01*
X68001500Y-106984000D02*
X68001500Y-108460000D01*
X68001500Y-110540000D02*
X68001500Y-112016000D01*
X67961500Y-107016000D02*
X67961500Y-108460000D01*
X67961500Y-110540000D02*
X67961500Y-111984000D01*
X67921500Y-107050000D02*
X67921500Y-108460000D01*
X67921500Y-110540000D02*
X67921500Y-111950000D01*
X67881500Y-107084000D02*
X67881500Y-108460000D01*
X67881500Y-110540000D02*
X67881500Y-111916000D01*
X67841500Y-107120000D02*
X67841500Y-108460000D01*
X67841500Y-110540000D02*
X67841500Y-111880000D01*
X67801500Y-107157000D02*
X67801500Y-108460000D01*
X67801500Y-110540000D02*
X67801500Y-111843000D01*
X67761500Y-107195000D02*
X67761500Y-108460000D01*
X67761500Y-110540000D02*
X67761500Y-111805000D01*
X67721500Y-107235000D02*
X67721500Y-111765000D01*
X67681500Y-107276000D02*
X67681500Y-111724000D01*
X67641500Y-107318000D02*
X67641500Y-111682000D01*
X67601500Y-107363000D02*
X67601500Y-111637000D01*
X67561500Y-107408000D02*
X67561500Y-111592000D01*
X67521500Y-107456000D02*
X67521500Y-111544000D01*
X67481500Y-107505000D02*
X67481500Y-111495000D01*
X67441500Y-107556000D02*
X67441500Y-111444000D01*
X67401500Y-107610000D02*
X67401500Y-111390000D01*
X67361500Y-107666000D02*
X67361500Y-111334000D01*
X67321500Y-107724000D02*
X67321500Y-111276000D01*
X67281500Y-107786000D02*
X67281500Y-111214000D01*
X67241500Y-107850000D02*
X67241500Y-111150000D01*
X67201500Y-107919000D02*
X67201500Y-111081000D01*
X67161500Y-107991000D02*
X67161500Y-111009000D01*
X67121500Y-108068000D02*
X67121500Y-110932000D01*
X67081500Y-108150000D02*
X67081500Y-110850000D01*
X67041500Y-108238000D02*
X67041500Y-110762000D01*
X67001500Y-108335000D02*
X67001500Y-110665000D01*
X66961500Y-108441000D02*
X66961500Y-110559000D01*
X66921500Y-108560000D02*
X66921500Y-110440000D01*
X66881500Y-108698000D02*
X66881500Y-110302000D01*
X66841500Y-108867000D02*
X66841500Y-110133000D01*
X66801500Y-109098000D02*
X66801500Y-109902000D01*
X65922500Y-109500000D02*
X65292500Y-109500000D01*
X73312500Y-109500000D02*
G75*
G02*
X66772500Y-109500000I-3270000J0D01*
G01*
X66772500Y-109500000D02*
G75*
G02*
X73312500Y-109500000I3270000J0D01*
G01*
%TD*%
M02*
