%TF.GenerationSoftware,KiCad,Pcbnew,9.0.6*%
%TF.CreationDate,2025-12-31T17:09:59+01:00*%
%TF.ProjectId,Panda,50616e64-612e-46b6-9963-61645f706362,rev?*%
%TF.SameCoordinates,Original*%
%TF.FileFunction,Profile,NP*%
%FSLAX46Y46*%
G04 Gerber Fmt 4.6, Leading zero omitted, Abs format (unit mm)*
G04 Created by KiCad (PCBNEW 9.0.6) date 2025-12-31 17:09:59*
%MOMM*%
%LPD*%
G01*
G04 APERTURE LIST*
%TA.AperFunction,Profile*%
%ADD10C,0.100000*%
%TD*%
G04 APERTURE END LIST*
D10*
X90939300Y-36607750D02*
X90594400Y-36618950D01*
X90594400Y-36618950D02*
X90257600Y-36651450D01*
X90257600Y-36651450D02*
X89929000Y-36704650D01*
X89929000Y-36704650D02*
X89608800Y-36777750D01*
X89608800Y-36777750D02*
X89297200Y-36869950D01*
X89297200Y-36869950D02*
X88994200Y-36980450D01*
X88994200Y-36980450D02*
X88700000Y-37108450D01*
X88700000Y-37108450D02*
X88414700Y-37253250D01*
X88414700Y-37253250D02*
X88138500Y-37414150D01*
X88138500Y-37414150D02*
X87871400Y-37590250D01*
X87871400Y-37590250D02*
X87613700Y-37780850D01*
X87613700Y-37780850D02*
X87365400Y-37985250D01*
X87365400Y-37985250D02*
X87126800Y-38202450D01*
X87126800Y-38202450D02*
X86897800Y-38431950D01*
X86897800Y-38431950D02*
X86469700Y-38924250D01*
X86469700Y-38924250D02*
X86082000Y-39456150D01*
X86082000Y-39456150D02*
X85736000Y-40021350D01*
X85736000Y-40021350D02*
X85432600Y-40613750D01*
X85432600Y-40613750D02*
X85172900Y-41227150D01*
X85172900Y-41227150D02*
X84958100Y-41855450D01*
X84958100Y-41855450D02*
X84789100Y-42492550D01*
X84789100Y-42492550D02*
X84667100Y-43132250D01*
X84667100Y-43132250D02*
X84593100Y-43768350D01*
X84593100Y-43768350D02*
X84527000Y-44062950D01*
X84527000Y-44062950D02*
X84431800Y-44338950D01*
X84431800Y-44338950D02*
X84309700Y-44595850D01*
X84309700Y-44595850D02*
X84162700Y-44833150D01*
X84162700Y-44833150D02*
X83992800Y-45050250D01*
X83992800Y-45050250D02*
X83802100Y-45246650D01*
X83802100Y-45246650D02*
X83592600Y-45421750D01*
X83592600Y-45421750D02*
X83366300Y-45575150D01*
X83366300Y-45575150D02*
X83125300Y-45706150D01*
X83125300Y-45706150D02*
X82871500Y-45814350D01*
X82871500Y-45814350D02*
X82607200Y-45899150D01*
X82607200Y-45899150D02*
X82334200Y-45960050D01*
X82334200Y-45960050D02*
X82054700Y-45996450D01*
X82054700Y-45996450D02*
X81770600Y-46007850D01*
X81770600Y-46007850D02*
X81484000Y-45993750D01*
X81484000Y-45993750D02*
X81197000Y-45953550D01*
X81197000Y-45953550D02*
X80880800Y-46014950D01*
X80880800Y-46014950D02*
X80570800Y-46098750D01*
X80570800Y-46098750D02*
X80265900Y-46200950D01*
X80265900Y-46200950D02*
X79965100Y-46317850D01*
X79965100Y-46317850D02*
X79371900Y-46580450D01*
X79371900Y-46580450D02*
X78783100Y-46856350D01*
X78783100Y-46856350D02*
X78190800Y-47114950D01*
X78190800Y-47114950D02*
X77890800Y-47228350D01*
X77890800Y-47228350D02*
X77586800Y-47326050D01*
X77586800Y-47326050D02*
X77278000Y-47404150D01*
X77278000Y-47404150D02*
X76963300Y-47459050D01*
X76963300Y-47459050D02*
X76641700Y-47486850D01*
X76641700Y-47486850D02*
X76312100Y-47483750D01*
X76312100Y-47483750D02*
X76187300Y-47049350D01*
X76187300Y-47049350D02*
X76041400Y-46626950D01*
X76041400Y-46626950D02*
X75875100Y-46216550D01*
X75875100Y-46216550D02*
X75689200Y-45818150D01*
X75689200Y-45818150D02*
X75484400Y-45431750D01*
X75484400Y-45431750D02*
X75261500Y-45057550D01*
X75261500Y-45057550D02*
X75021200Y-44695450D01*
X75021200Y-44695450D02*
X74764400Y-44345450D01*
X74764400Y-44345450D02*
X74491700Y-44007750D01*
X74491700Y-44007750D02*
X74204000Y-43682250D01*
X74204000Y-43682250D02*
X73902000Y-43368950D01*
X73902000Y-43368950D02*
X73586400Y-43068050D01*
X73586400Y-43068050D02*
X73258100Y-42779350D01*
X73258100Y-42779350D02*
X72917700Y-42503150D01*
X72917700Y-42503150D02*
X72566100Y-42239350D01*
X72566100Y-42239350D02*
X72203900Y-41987950D01*
X72203900Y-41987950D02*
X71832100Y-41749050D01*
X71832100Y-41749050D02*
X71451200Y-41522650D01*
X71451200Y-41522650D02*
X70665700Y-41107550D01*
X70665700Y-41107550D02*
X69853400Y-40742850D01*
X69853400Y-40742850D02*
X69020300Y-40428950D01*
X69020300Y-40428950D02*
X68172700Y-40166050D01*
X68172700Y-40166050D02*
X67316600Y-39954450D01*
X67316600Y-39954450D02*
X66458100Y-39794450D01*
X66458100Y-39794450D02*
X65603200Y-39686350D01*
X65603200Y-39686350D02*
X65023300Y-39635050D01*
X65023300Y-39635050D02*
X64443400Y-39607850D01*
X64443400Y-39607850D02*
X63864100Y-39604450D01*
X63864100Y-39604450D02*
X63286200Y-39624350D01*
X63286200Y-39624350D02*
X62710400Y-39667350D01*
X62710400Y-39667350D02*
X62137400Y-39733050D01*
X62137400Y-39733050D02*
X61567900Y-39820950D01*
X61567900Y-39820950D02*
X61002600Y-39930850D01*
X61002600Y-39930850D02*
X60442200Y-40062350D01*
X60442200Y-40062350D02*
X59887400Y-40214950D01*
X59887400Y-40214950D02*
X59338900Y-40388350D01*
X59338900Y-40388350D02*
X58797400Y-40582250D01*
X58797400Y-40582250D02*
X58263600Y-40796250D01*
X58263600Y-40796250D02*
X57738200Y-41029950D01*
X57738200Y-41029950D02*
X57222000Y-41282950D01*
X57222000Y-41282950D02*
X56715600Y-41554950D01*
X56715600Y-41554950D02*
X56219800Y-41845550D01*
X56219800Y-41845550D02*
X55735100Y-42154450D01*
X55735100Y-42154450D02*
X55262500Y-42481150D01*
X55262500Y-42481150D02*
X54802400Y-42825450D01*
X54802400Y-42825450D02*
X54355700Y-43186750D01*
X54355700Y-43186750D02*
X53923100Y-43564950D01*
X53923100Y-43564950D02*
X53505200Y-43959450D01*
X53505200Y-43959450D02*
X53102800Y-44370050D01*
X53102800Y-44370050D02*
X52716600Y-44796250D01*
X52716600Y-44796250D02*
X52347200Y-45237850D01*
X52347200Y-45237850D02*
X51995400Y-45694250D01*
X51995400Y-45694250D02*
X51661900Y-46165250D01*
X51661900Y-46165250D02*
X51347400Y-46650450D01*
X51347400Y-46650450D02*
X51052600Y-47149550D01*
X51052600Y-47149550D02*
X50778100Y-47661950D01*
X50778100Y-47661950D02*
X50524800Y-48187550D01*
X50524800Y-48187550D02*
X50178500Y-48913950D01*
X50178500Y-48913950D02*
X49869200Y-49657650D01*
X49869200Y-49657650D02*
X49596700Y-50416850D01*
X49596700Y-50416850D02*
X49360900Y-51189550D01*
X49360900Y-51189550D02*
X49161700Y-51973950D01*
X49161700Y-51973950D02*
X48998900Y-52768150D01*
X48998900Y-52768150D02*
X48872400Y-53570250D01*
X48872400Y-53570250D02*
X48781900Y-54378450D01*
X48781900Y-54378450D02*
X48727500Y-55190750D01*
X48727500Y-55190750D02*
X48708800Y-56005450D01*
X48708800Y-56005450D02*
X48725900Y-56820550D01*
X48725900Y-56820550D02*
X48778500Y-57634150D01*
X48778500Y-57634150D02*
X48866400Y-58444450D01*
X48866400Y-58444450D02*
X48989600Y-59249550D01*
X48989600Y-59249550D02*
X49147900Y-60047550D01*
X49147900Y-60047550D02*
X49341100Y-60836650D01*
X49341100Y-60836650D02*
X49569200Y-61614850D01*
X49569200Y-61614850D02*
X49831900Y-62380350D01*
X49831900Y-62380350D02*
X50129100Y-63131350D01*
X50129100Y-63131350D02*
X50460600Y-63865750D01*
X50460600Y-63865750D02*
X50826400Y-64581950D01*
X50826400Y-64581950D02*
X51226200Y-65277850D01*
X51226200Y-65277850D02*
X51660000Y-65951650D01*
X51660000Y-65951650D02*
X52127600Y-66601550D01*
X52127600Y-66601550D02*
X52628700Y-67225550D01*
X52628700Y-67225550D02*
X53163400Y-67821850D01*
X53163400Y-67821850D02*
X53731400Y-68388550D01*
X53731400Y-68388550D02*
X54332600Y-68923850D01*
X54332600Y-68923850D02*
X54966800Y-69425750D01*
X54966800Y-69425750D02*
X55634000Y-69892350D01*
X55634000Y-69892350D02*
X56333900Y-70321950D01*
X56333900Y-70321950D02*
X57066400Y-70712550D01*
X57066400Y-70712550D02*
X57197600Y-70882450D01*
X57197600Y-70882450D02*
X57310500Y-71055650D01*
X57310500Y-71055650D02*
X57405900Y-71231850D01*
X57405900Y-71231850D02*
X57484800Y-71410950D01*
X57484800Y-71410950D02*
X57548100Y-71592750D01*
X57548100Y-71592750D02*
X57596700Y-71777150D01*
X57596700Y-71777150D02*
X57653600Y-72152750D01*
X57653600Y-72152750D02*
X57662700Y-72536650D01*
X57662700Y-72536650D02*
X57631400Y-72927150D01*
X57631400Y-72927150D02*
X57567100Y-73323150D01*
X57567100Y-73323150D02*
X57477100Y-73723050D01*
X57477100Y-73723050D02*
X57249500Y-74529450D01*
X57249500Y-74529450D02*
X57007400Y-75335450D01*
X57007400Y-75335450D02*
X56899300Y-75734850D01*
X56899300Y-75734850D02*
X56809600Y-76130050D01*
X56809600Y-76130050D02*
X56745600Y-76519650D01*
X56745600Y-76519650D02*
X56714800Y-76902250D01*
X56714800Y-76902250D02*
X56675800Y-77514550D01*
X56675800Y-77514550D02*
X56654000Y-78127650D01*
X56654000Y-78127650D02*
X56649500Y-78740950D01*
X56649500Y-78740950D02*
X56661900Y-79354150D01*
X56661900Y-79354150D02*
X56691300Y-79966650D01*
X56691300Y-79966650D02*
X56737600Y-80578050D01*
X56737600Y-80578050D02*
X56800600Y-81187950D01*
X56800600Y-81187950D02*
X56880200Y-81795850D01*
X56880200Y-81795850D02*
X56976400Y-82401350D01*
X56976400Y-82401350D02*
X57088900Y-83003950D01*
X57088900Y-83003950D02*
X57217800Y-83603250D01*
X57217800Y-83603250D02*
X57362900Y-84198650D01*
X57362900Y-84198650D02*
X57524200Y-84789850D01*
X57524200Y-84789850D02*
X57701400Y-85376450D01*
X57701400Y-85376450D02*
X57894500Y-85957850D01*
X57894500Y-85957850D02*
X58103300Y-86533650D01*
X58103300Y-86533650D02*
X58327900Y-87103350D01*
X58327900Y-87103350D02*
X58568100Y-87666650D01*
X58568100Y-87666650D02*
X58823700Y-88222950D01*
X58823700Y-88222950D02*
X59094700Y-88771850D01*
X59094700Y-88771850D02*
X59380900Y-89312950D01*
X59380900Y-89312950D02*
X59682300Y-89845750D01*
X59682300Y-89845750D02*
X59998800Y-90369750D01*
X59998800Y-90369750D02*
X60330200Y-90884550D01*
X60330200Y-90884550D02*
X60676400Y-91389750D01*
X60676400Y-91389750D02*
X61037400Y-91884850D01*
X61037400Y-91884850D02*
X61413000Y-92369350D01*
X61413000Y-92369350D02*
X61803100Y-92842850D01*
X61803100Y-92842850D02*
X62207700Y-93304950D01*
X62207700Y-93304950D02*
X62626500Y-93755150D01*
X62626500Y-93755150D02*
X63059600Y-94192950D01*
X63059600Y-94192950D02*
X63506700Y-94617950D01*
X63506700Y-94617950D02*
X63938900Y-94968650D01*
X63938900Y-94968650D02*
X64348300Y-95311050D01*
X64348300Y-95311050D02*
X64699000Y-95652250D01*
X64699000Y-95652250D02*
X64841100Y-95824450D01*
X64841100Y-95824450D02*
X64955200Y-95998950D01*
X64955200Y-95998950D02*
X65036600Y-96176550D01*
X65036600Y-96176550D02*
X65081000Y-96358150D01*
X65081000Y-96358150D02*
X65083900Y-96544550D01*
X65083900Y-96544550D02*
X65040700Y-96736650D01*
X65040700Y-96736650D02*
X64946900Y-96935350D01*
X64946900Y-96935350D02*
X64798200Y-97141550D01*
X64798200Y-97141550D02*
X64590000Y-97355950D01*
X64590000Y-97355950D02*
X64317800Y-97579550D01*
X64317800Y-97579550D02*
X63874900Y-98199850D01*
X63874900Y-98199850D02*
X63452900Y-98836850D01*
X63452900Y-98836850D02*
X63053200Y-99489550D01*
X63053200Y-99489550D02*
X62677300Y-100156850D01*
X62677300Y-100156850D02*
X62326700Y-100837750D01*
X62326700Y-100837750D02*
X62002800Y-101531250D01*
X62002800Y-101531250D02*
X61707100Y-102236350D01*
X61707100Y-102236350D02*
X61441200Y-102952050D01*
X61441200Y-102952050D02*
X61206300Y-103677250D01*
X61206300Y-103677250D02*
X61004200Y-104411150D01*
X61004200Y-104411150D02*
X60836100Y-105152150D01*
X60836100Y-105152150D02*
X60703700Y-105900150D01*
X60703700Y-105900150D02*
X60608300Y-106653150D01*
X60608300Y-106653150D02*
X60551500Y-107411150D01*
X60551500Y-107411150D02*
X60534600Y-108172150D01*
X60534600Y-108172150D02*
X60559300Y-108935150D01*
X60559300Y-108935150D02*
X60414400Y-109182150D01*
X60414400Y-109182150D02*
X60256700Y-109415150D01*
X60256700Y-109415150D02*
X60086900Y-109635150D01*
X60086900Y-109635150D02*
X59906000Y-109844150D01*
X59906000Y-109844150D02*
X59514200Y-110229150D01*
X59514200Y-110229150D02*
X59088400Y-110578150D01*
X59088400Y-110578150D02*
X58635600Y-110899150D01*
X58635600Y-110899150D02*
X58162900Y-111198150D01*
X58162900Y-111198150D02*
X57185700Y-111766150D01*
X57185700Y-111766150D02*
X56695300Y-112049150D01*
X56695300Y-112049150D02*
X56213000Y-112341150D01*
X56213000Y-112341150D02*
X55746000Y-112651150D01*
X55746000Y-112651150D02*
X55301200Y-112985150D01*
X55301200Y-112985150D02*
X54885700Y-113351150D01*
X54885700Y-113351150D02*
X54691100Y-113548150D01*
X54691100Y-113548150D02*
X54506500Y-113757150D01*
X54506500Y-113757150D02*
X54332700Y-113977150D01*
X54332700Y-113977150D02*
X54170700Y-114210150D01*
X54170700Y-114210150D02*
X54021200Y-114456150D01*
X54021200Y-114456150D02*
X53885200Y-114718150D01*
X53885200Y-114718150D02*
X53623200Y-115245150D01*
X53623200Y-115245150D02*
X53388300Y-115781150D01*
X53388300Y-115781150D02*
X53180200Y-116326150D01*
X53180200Y-116326150D02*
X52998500Y-116877150D01*
X52998500Y-116877150D02*
X52843000Y-117436150D01*
X52843000Y-117436150D02*
X52713300Y-118000150D01*
X52713300Y-118000150D02*
X52609100Y-118568150D01*
X52609100Y-118568150D02*
X52530100Y-119141150D01*
X52530100Y-119141150D02*
X52476000Y-119716150D01*
X52476000Y-119716150D02*
X52446500Y-120293150D01*
X52446500Y-120293150D02*
X52441300Y-120871150D01*
X52441300Y-120871150D02*
X52460000Y-121450150D01*
X52460000Y-121450150D02*
X52502300Y-122027150D01*
X52502300Y-122027150D02*
X52568000Y-122603150D01*
X52568000Y-122603150D02*
X52656700Y-123176150D01*
X52656700Y-123176150D02*
X52768000Y-123746150D01*
X52768000Y-123746150D02*
X52901800Y-124312150D01*
X52901800Y-124312150D02*
X53057600Y-124872150D01*
X53057600Y-124872150D02*
X53235200Y-125426150D01*
X53235200Y-125426150D02*
X53434200Y-125973150D01*
X53434200Y-125973150D02*
X53654400Y-126512150D01*
X53654400Y-126512150D02*
X53895400Y-127042150D01*
X53895400Y-127042150D02*
X54156900Y-127562150D01*
X54156900Y-127562150D02*
X54438500Y-128071150D01*
X54438500Y-128071150D02*
X54740100Y-128569150D01*
X54740100Y-128569150D02*
X55061200Y-129055150D01*
X55061200Y-129055150D02*
X55401500Y-129526150D01*
X55401500Y-129526150D02*
X55760800Y-129984150D01*
X55760800Y-129984150D02*
X56138700Y-130426150D01*
X56138700Y-130426150D02*
X56535000Y-130852150D01*
X56535000Y-130852150D02*
X56949200Y-131262150D01*
X56949200Y-131262150D02*
X57381100Y-131653150D01*
X57381100Y-131653150D02*
X57927000Y-132147150D01*
X57927000Y-132147150D02*
X58493100Y-132615150D01*
X58493100Y-132615150D02*
X59078300Y-133057150D01*
X59078300Y-133057150D02*
X59681400Y-133473150D01*
X59681400Y-133473150D02*
X60301300Y-133863150D01*
X60301300Y-133863150D02*
X60936900Y-134226150D01*
X60936900Y-134226150D02*
X61586900Y-134563150D01*
X61586900Y-134563150D02*
X62250200Y-134872150D01*
X62250200Y-134872150D02*
X62925700Y-135156150D01*
X62925700Y-135156150D02*
X63612200Y-135412150D01*
X63612200Y-135412150D02*
X64308500Y-135641150D01*
X64308500Y-135641150D02*
X65013500Y-135843150D01*
X65013500Y-135843150D02*
X65726100Y-136018150D01*
X65726100Y-136018150D02*
X66445000Y-136166150D01*
X66445000Y-136166150D02*
X67169100Y-136285150D01*
X67169100Y-136285150D02*
X67897300Y-136378150D01*
X67897300Y-136378150D02*
X68628400Y-136442150D01*
X68628400Y-136442150D02*
X69361200Y-136479150D01*
X69361200Y-136479150D02*
X70094600Y-136488150D01*
X70094600Y-136488150D02*
X70827500Y-136468150D01*
X70827500Y-136468150D02*
X71558600Y-136421150D01*
X71558600Y-136421150D02*
X72286900Y-136345150D01*
X72286900Y-136345150D02*
X73011100Y-136241150D01*
X73011100Y-136241150D02*
X73730100Y-136108150D01*
X73730100Y-136108150D02*
X74442800Y-135946150D01*
X74442800Y-135946150D02*
X75148000Y-135756150D01*
X75148000Y-135756150D02*
X75844500Y-135536150D01*
X75844500Y-135536150D02*
X76531200Y-135288150D01*
X76531200Y-135288150D02*
X77206900Y-135011150D01*
X77206900Y-135011150D02*
X77870500Y-134704150D01*
X77870500Y-134704150D02*
X78520800Y-134368150D01*
X78520800Y-134368150D02*
X79156700Y-134002150D01*
X79156700Y-134002150D02*
X79489900Y-133975150D01*
X79489900Y-133975150D02*
X79821700Y-133963150D01*
X79821700Y-133963150D02*
X80481100Y-133979150D01*
X80481100Y-133979150D02*
X81135800Y-134041150D01*
X81135800Y-134041150D02*
X81786600Y-134142150D01*
X81786600Y-134142150D02*
X82434400Y-134274150D01*
X82434400Y-134274150D02*
X83079900Y-134426150D01*
X83079900Y-134426150D02*
X84367600Y-134763150D01*
X84367600Y-134763150D02*
X85656400Y-135086150D01*
X85656400Y-135086150D02*
X86303300Y-135221150D01*
X86303300Y-135221150D02*
X86953000Y-135327150D01*
X86953000Y-135327150D02*
X87606300Y-135396150D01*
X87606300Y-135396150D02*
X88264000Y-135419150D01*
X88264000Y-135419150D02*
X88927000Y-135389150D01*
X88927000Y-135389150D02*
X89260700Y-135351150D01*
X89260700Y-135351150D02*
X89596100Y-135296150D01*
X89596100Y-135296150D02*
X91499600Y-135306150D01*
X91499600Y-135306150D02*
X93406400Y-135268150D01*
X93406400Y-135268150D02*
X94359600Y-135227150D01*
X94359600Y-135227150D02*
X95311900Y-135171150D01*
X95311900Y-135171150D02*
X96262800Y-135098150D01*
X96262800Y-135098150D02*
X97211600Y-135006150D01*
X97211600Y-135006150D02*
X98157800Y-134895150D01*
X98157800Y-134895150D02*
X99100800Y-134763150D01*
X99100800Y-134763150D02*
X100040100Y-134608150D01*
X100040100Y-134608150D02*
X100975100Y-134430150D01*
X100975100Y-134430150D02*
X101905200Y-134228150D01*
X101905200Y-134228150D02*
X102829800Y-134000150D01*
X102829800Y-134000150D02*
X103748400Y-133744150D01*
X103748400Y-133744150D02*
X104660400Y-133460150D01*
X104660400Y-133460150D02*
X105431700Y-133981150D01*
X105431700Y-133981150D02*
X106227700Y-134452150D01*
X106227700Y-134452150D02*
X107046700Y-134871150D01*
X107046700Y-134871150D02*
X107885700Y-135240150D01*
X107885700Y-135240150D02*
X108741700Y-135560150D01*
X108741700Y-135560150D02*
X109614700Y-135831150D01*
X109614700Y-135831150D02*
X110500700Y-136053150D01*
X110500700Y-136053150D02*
X111397700Y-136228150D01*
X111397700Y-136228150D02*
X112303700Y-136356150D01*
X112303700Y-136356150D02*
X113216700Y-136438150D01*
X113216700Y-136438150D02*
X114133700Y-136474150D01*
X114133700Y-136474150D02*
X115053700Y-136464150D01*
X115053700Y-136464150D02*
X115972700Y-136410150D01*
X115972700Y-136410150D02*
X116889700Y-136313150D01*
X116889700Y-136313150D02*
X117802700Y-136172150D01*
X117802700Y-136172150D02*
X118707700Y-135988150D01*
X118707700Y-135988150D02*
X119603700Y-135762150D01*
X119603700Y-135762150D02*
X120488700Y-135495150D01*
X120488700Y-135495150D02*
X121360700Y-135187150D01*
X121360700Y-135187150D02*
X122215700Y-134839150D01*
X122215700Y-134839150D02*
X123052700Y-134451150D01*
X123052700Y-134451150D02*
X123869700Y-134025150D01*
X123869700Y-134025150D02*
X124663700Y-133560150D01*
X124663700Y-133560150D02*
X125432700Y-133058150D01*
X125432700Y-133058150D02*
X126174700Y-132518150D01*
X126174700Y-132518150D02*
X126886700Y-131942150D01*
X126886700Y-131942150D02*
X127566700Y-131330150D01*
X127566700Y-131330150D02*
X128213700Y-130683150D01*
X128213700Y-130683150D02*
X128823700Y-130002150D01*
X128823700Y-130002150D02*
X129395700Y-129286150D01*
X129395700Y-129286150D02*
X129926700Y-128537150D01*
X129926700Y-128537150D02*
X130414700Y-127756150D01*
X130414700Y-127756150D02*
X130645700Y-127294150D01*
X130645700Y-127294150D02*
X130858700Y-126821150D01*
X130858700Y-126821150D02*
X131055700Y-126339150D01*
X131055700Y-126339150D02*
X131233700Y-125848150D01*
X131233700Y-125848150D02*
X131394700Y-125349150D01*
X131394700Y-125349150D02*
X131537700Y-124843150D01*
X131537700Y-124843150D02*
X131662700Y-124332150D01*
X131662700Y-124332150D02*
X131768700Y-123816150D01*
X131768700Y-123816150D02*
X131855700Y-123296150D01*
X131855700Y-123296150D02*
X131923700Y-122773150D01*
X131923700Y-122773150D02*
X131972700Y-122248150D01*
X131972700Y-122248150D02*
X132000700Y-121723150D01*
X132000700Y-121723150D02*
X132009700Y-121197150D01*
X132009700Y-121197150D02*
X131998700Y-120673150D01*
X131998700Y-120673150D02*
X131966700Y-120150150D01*
X131966700Y-120150150D02*
X131913700Y-119630150D01*
X131913700Y-119630150D02*
X131839700Y-119115150D01*
X131839700Y-119115150D02*
X131744700Y-118604150D01*
X131744700Y-118604150D02*
X131628700Y-118099150D01*
X131628700Y-118099150D02*
X131489700Y-117601150D01*
X131489700Y-117601150D02*
X131328700Y-117111150D01*
X131328700Y-117111150D02*
X131145700Y-116629150D01*
X131145700Y-116629150D02*
X130939700Y-116158150D01*
X130939700Y-116158150D02*
X130710700Y-115697150D01*
X130710700Y-115697150D02*
X130458700Y-115247150D01*
X130458700Y-115247150D02*
X130182700Y-114811150D01*
X130182700Y-114811150D02*
X129882700Y-114388150D01*
X129882700Y-114388150D02*
X129559700Y-113979150D01*
X129559700Y-113979150D02*
X129211700Y-113587150D01*
X129211700Y-113587150D02*
X128838700Y-113210150D01*
X128838700Y-113210150D02*
X128441700Y-112852150D01*
X128441700Y-112852150D02*
X128018700Y-112511150D01*
X128018700Y-112511150D02*
X127525700Y-112093150D01*
X127525700Y-112093150D02*
X127017700Y-111693150D01*
X127017700Y-111693150D02*
X126495700Y-111312150D01*
X126495700Y-111312150D02*
X125962700Y-110947150D01*
X125962700Y-110947150D02*
X125417700Y-110598150D01*
X125417700Y-110598150D02*
X124864700Y-110263150D01*
X124864700Y-110263150D02*
X123736700Y-109631150D01*
X123736700Y-109631150D02*
X123795700Y-109122150D01*
X123795700Y-109122150D02*
X123836700Y-108615150D01*
X123836700Y-108615150D02*
X123858700Y-108108150D01*
X123858700Y-108108150D02*
X123862700Y-107603150D01*
X123862700Y-107603150D02*
X123848700Y-107099150D01*
X123848700Y-107099150D02*
X123818700Y-106598150D01*
X123818700Y-106598150D02*
X123771700Y-106098150D01*
X123771700Y-106098150D02*
X123707700Y-105600150D01*
X123707700Y-105600150D02*
X123628700Y-105105150D01*
X123628700Y-105105150D02*
X123533700Y-104612150D01*
X123533700Y-104612150D02*
X123299700Y-103635350D01*
X123299700Y-103635350D02*
X123009700Y-102671850D01*
X123009700Y-102671850D02*
X122665700Y-101723250D01*
X122665700Y-101723250D02*
X122272700Y-100791350D01*
X122272700Y-100791350D02*
X121834700Y-99877750D01*
X121834700Y-99877750D02*
X121352700Y-98984350D01*
X121352700Y-98984350D02*
X120831700Y-98112850D01*
X120831700Y-98112850D02*
X120275700Y-97264950D01*
X120275700Y-97264950D02*
X119686700Y-96442450D01*
X119686700Y-96442450D02*
X119068700Y-95647150D01*
X119068700Y-95647150D02*
X118425700Y-94880650D01*
X118425700Y-94880650D02*
X119063700Y-94142450D01*
X119063700Y-94142450D02*
X119682700Y-93382350D01*
X119682700Y-93382350D02*
X120279700Y-92600850D01*
X120279700Y-92600850D02*
X120851700Y-91798650D01*
X120851700Y-91798650D02*
X121393700Y-90976550D01*
X121393700Y-90976550D02*
X121903700Y-90135050D01*
X121903700Y-90135050D02*
X122376700Y-89274950D01*
X122376700Y-89274950D02*
X122810700Y-88396750D01*
X122810700Y-88396750D02*
X123200700Y-87501350D01*
X123200700Y-87501350D02*
X123543700Y-86589350D01*
X123543700Y-86589350D02*
X123836700Y-85661250D01*
X123836700Y-85661250D02*
X124076700Y-84717950D01*
X124076700Y-84717950D02*
X124174700Y-84240750D01*
X124174700Y-84240750D02*
X124257700Y-83760050D01*
X124257700Y-83760050D02*
X124325700Y-83275750D01*
X124325700Y-83275750D02*
X124378700Y-82788150D01*
X124378700Y-82788150D02*
X124414700Y-82297150D01*
X124414700Y-82297150D02*
X124434700Y-81802950D01*
X124434700Y-81802950D02*
X124436700Y-81305550D01*
X124436700Y-81305550D02*
X124421700Y-80805150D01*
X124421700Y-80805150D02*
X124428700Y-80148250D01*
X124428700Y-80148250D02*
X124419700Y-79492150D01*
X124419700Y-79492150D02*
X124359700Y-78182450D01*
X124359700Y-78182450D02*
X124245700Y-76876550D01*
X124245700Y-76876550D02*
X124086700Y-75574750D01*
X124086700Y-75574750D02*
X123888700Y-74277450D01*
X123888700Y-74277450D02*
X123656700Y-72985150D01*
X123656700Y-72985150D02*
X123399700Y-71698250D01*
X123399700Y-71698250D02*
X123121700Y-70417150D01*
X123121700Y-70417150D02*
X123837700Y-69941350D01*
X123837700Y-69941350D02*
X124518700Y-69428250D01*
X124518700Y-69428250D02*
X125165700Y-68879650D01*
X125165700Y-68879650D02*
X125778700Y-68297750D01*
X125778700Y-68297750D02*
X126355700Y-67684450D01*
X126355700Y-67684450D02*
X126896700Y-67041750D01*
X126896700Y-67041750D02*
X127403700Y-66371550D01*
X127403700Y-66371550D02*
X127873700Y-65676050D01*
X127873700Y-65676050D02*
X128307700Y-64956950D01*
X128307700Y-64956950D02*
X128705700Y-64216450D01*
X128705700Y-64216450D02*
X129066700Y-63456550D01*
X129066700Y-63456550D02*
X129390700Y-62679150D01*
X129390700Y-62679150D02*
X129676700Y-61886150D01*
X129676700Y-61886150D02*
X129925700Y-61079750D01*
X129925700Y-61079750D02*
X130137700Y-60261850D01*
X130137700Y-60261850D02*
X130310700Y-59434350D01*
X130310700Y-59434350D02*
X130445700Y-58599450D01*
X130445700Y-58599450D02*
X130541700Y-57758850D01*
X130541700Y-57758850D02*
X130599700Y-56914750D01*
X130599700Y-56914750D02*
X130617700Y-56069150D01*
X130617700Y-56069150D02*
X130595700Y-55223850D01*
X130595700Y-55223850D02*
X130534700Y-54381050D01*
X130534700Y-54381050D02*
X130434700Y-53542550D01*
X130434700Y-53542550D02*
X130292700Y-52710550D01*
X130292700Y-52710550D02*
X130111700Y-51886850D01*
X130111700Y-51886850D02*
X129888700Y-51073550D01*
X129888700Y-51073550D02*
X129624700Y-50272550D01*
X129624700Y-50272550D02*
X129319700Y-49485950D01*
X129319700Y-49485950D02*
X128973700Y-48715650D01*
X128973700Y-48715650D02*
X128584700Y-47963750D01*
X128584700Y-47963750D02*
X128153700Y-47232050D01*
X128153700Y-47232050D02*
X127680700Y-46522650D01*
X127680700Y-46522650D02*
X127295700Y-45944650D01*
X127295700Y-45944650D02*
X126882700Y-45386950D01*
X126882700Y-45386950D02*
X126443700Y-44850150D01*
X126443700Y-44850150D02*
X125978700Y-44334950D01*
X125978700Y-44334950D02*
X125489700Y-43842050D01*
X125489700Y-43842050D02*
X124978700Y-43371950D01*
X124978700Y-43371950D02*
X124446700Y-42925350D01*
X124446700Y-42925350D02*
X123894700Y-42502850D01*
X123894700Y-42502850D02*
X123323700Y-42105150D01*
X123323700Y-42105150D02*
X122735700Y-41732850D01*
X122735700Y-41732850D02*
X122132700Y-41386550D01*
X122132700Y-41386550D02*
X121514700Y-41066950D01*
X121514700Y-41066950D02*
X120883700Y-40774650D01*
X120883700Y-40774650D02*
X120240700Y-40510250D01*
X120240700Y-40510250D02*
X119587700Y-40274450D01*
X119587700Y-40274450D02*
X118925700Y-40067850D01*
X118925700Y-40067850D02*
X118256700Y-39891050D01*
X118256700Y-39891050D02*
X117580700Y-39744750D01*
X117580700Y-39744750D02*
X116899700Y-39629650D01*
X116899700Y-39629650D02*
X116214700Y-39546150D01*
X116214700Y-39546150D02*
X115527700Y-39495150D01*
X115527700Y-39495150D02*
X114840700Y-39477150D01*
X114840700Y-39477150D02*
X114153700Y-39492750D01*
X114153700Y-39492750D02*
X113467700Y-39542650D01*
X113467700Y-39542650D02*
X112785700Y-39627550D01*
X112785700Y-39627550D02*
X112108700Y-39747850D01*
X112108700Y-39747850D02*
X111436700Y-39904450D01*
X111436700Y-39904450D02*
X110772700Y-40097950D01*
X110772700Y-40097950D02*
X110116700Y-40328750D01*
X110116700Y-40328750D02*
X109470700Y-40597750D01*
X109470700Y-40597750D02*
X108835700Y-40905450D01*
X108835700Y-40905450D02*
X108213700Y-41252550D01*
X108213700Y-41252550D02*
X107785700Y-41505650D01*
X107785700Y-41505650D02*
X107367700Y-41775150D01*
X107367700Y-41775150D02*
X106959700Y-42060550D01*
X106959700Y-42060550D02*
X106562700Y-42361450D01*
X106562700Y-42361450D02*
X106177700Y-42677450D01*
X106177700Y-42677450D02*
X105805700Y-43008050D01*
X105805700Y-43008050D02*
X105446000Y-43352650D01*
X105446000Y-43352650D02*
X105100400Y-43710950D01*
X105100400Y-43710950D02*
X104769100Y-44082450D01*
X104769100Y-44082450D02*
X104452800Y-44466650D01*
X104452800Y-44466650D02*
X104152200Y-44863150D01*
X104152200Y-44863150D02*
X103868000Y-45271350D01*
X103868000Y-45271350D02*
X103600600Y-45690950D01*
X103600600Y-45690950D02*
X103350900Y-46121350D01*
X103350900Y-46121350D02*
X103119300Y-46562150D01*
X103119300Y-46562150D02*
X102906700Y-47012950D01*
X102906700Y-47012950D02*
X102587700Y-47034550D01*
X102587700Y-47034550D02*
X102350400Y-47020850D01*
X102350400Y-47020850D02*
X102186700Y-46975250D01*
X102186700Y-46975250D02*
X102088300Y-46901150D01*
X102088300Y-46901150D02*
X102047100Y-46801850D01*
X102047100Y-46801850D02*
X102055100Y-46680750D01*
X102055100Y-46680750D02*
X102103900Y-46541150D01*
X102103900Y-46541150D02*
X102185600Y-46386450D01*
X102185600Y-46386450D02*
X102414500Y-46045050D01*
X102414500Y-46045050D02*
X102676700Y-45683450D01*
X102676700Y-45683450D02*
X102907000Y-45328250D01*
X102907000Y-45328250D02*
X102989700Y-45161550D01*
X102989700Y-45161550D02*
X103040000Y-45006550D01*
X103040000Y-45006550D02*
X103115300Y-44732250D01*
X103115300Y-44732250D02*
X103168000Y-44461550D01*
X103168000Y-44461550D02*
X103198900Y-44194650D01*
X103198900Y-44194650D02*
X103208700Y-43932150D01*
X103208700Y-43932150D02*
X103198300Y-43674250D01*
X103198300Y-43674250D02*
X103168500Y-43421450D01*
X103168500Y-43421450D02*
X103120100Y-43174050D01*
X103120100Y-43174050D02*
X103053800Y-42932550D01*
X103053800Y-42932550D02*
X102970400Y-42697350D01*
X102970400Y-42697350D02*
X102870700Y-42468750D01*
X102870700Y-42468750D02*
X102755500Y-42247250D01*
X102755500Y-42247250D02*
X102625600Y-42033150D01*
X102625600Y-42033150D02*
X102481800Y-41826850D01*
X102481800Y-41826850D02*
X102324800Y-41628750D01*
X102324800Y-41628750D02*
X101974700Y-41258750D01*
X101974700Y-41258750D02*
X101581500Y-40926350D01*
X101581500Y-40926350D02*
X101151600Y-40634750D01*
X101151600Y-40634750D02*
X100691200Y-40386850D01*
X100691200Y-40386850D02*
X100206700Y-40186050D01*
X100206700Y-40186050D02*
X99704300Y-40035350D01*
X99704300Y-40035350D02*
X99190400Y-39937850D01*
X99190400Y-39937850D02*
X98671400Y-39896850D01*
X98671400Y-39896850D02*
X98411900Y-39898450D01*
X98411900Y-39898450D02*
X98153400Y-39915350D01*
X98153400Y-39915350D02*
X97608800Y-39964250D01*
X97608800Y-39964250D02*
X97054900Y-40028450D01*
X97054900Y-40028450D02*
X96515600Y-40071350D01*
X96515600Y-40071350D02*
X96258700Y-40073450D01*
X96258700Y-40073450D02*
X96014400Y-40056350D01*
X96014400Y-40056350D02*
X95785500Y-40015650D01*
X95785500Y-40015650D02*
X95575000Y-39946650D01*
X95575000Y-39946650D02*
X95385800Y-39844950D01*
X95385800Y-39844950D02*
X95221000Y-39705850D01*
X95221000Y-39705850D02*
X95083400Y-39524750D01*
X95083400Y-39524750D02*
X94976100Y-39297150D01*
X94976100Y-39297150D02*
X94902000Y-39018350D01*
X94902000Y-39018350D02*
X94864000Y-38683950D01*
X94864000Y-38683950D02*
X94713600Y-38431350D01*
X94713600Y-38431350D02*
X94544200Y-38192250D01*
X94544200Y-38192250D02*
X94357200Y-37967250D01*
X94357200Y-37967250D02*
X94153900Y-37757050D01*
X94153900Y-37757050D02*
X93935700Y-37562250D01*
X93935700Y-37562250D02*
X93704000Y-37383350D01*
X93704000Y-37383350D02*
X93460000Y-37221050D01*
X93460000Y-37221050D02*
X93205200Y-37075950D01*
X93205200Y-37075950D02*
X92941000Y-36948650D01*
X92941000Y-36948650D02*
X92668600Y-36839850D01*
X92668600Y-36839850D02*
X92389400Y-36749950D01*
X92389400Y-36749950D02*
X92104800Y-36679750D01*
X92104800Y-36679750D02*
X91816100Y-36629850D01*
X91816100Y-36629850D02*
X91524800Y-36600750D01*
X91524800Y-36600750D02*
X91232000Y-36593250D01*
X91232000Y-36593250D02*
X90939300Y-36607750D01*
X90939300Y-36607750D02*
X90939300Y-36607750D01*
X90939300Y-36607750D02*
X90939300Y-36607750D01*
M02*
