M48
; DRILL file {KiCad 9.0.6} date 2025-12-31T17:10:03+0100
; FORMAT={-:-/ absolute / inch / decimal}
; #@! TF.CreationDate,2025-12-31T17:10:03+01:00
; #@! TF.GenerationSoftware,Kicad,Pcbnew,9.0.6
; #@! TF.FileFunction,Plated,1,2,PTH
FMAT,2
INCH
; #@! TA.AperFunction,Plated,PTH,ComponentDrill
T1C0.0315
; #@! TA.AperFunction,Plated,PTH,ComponentDrill
T2C0.0354
; #@! TA.AperFunction,Plated,PTH,ComponentDrill
T3C0.0394
%
G90
G05
T1
X2.5496Y-4.7512
X2.5496Y-4.9852
X2.6496Y-4.8512
X2.6496Y-5.0852
X2.7084Y-4.311
X2.7496Y-4.7512
X2.7496Y-4.9852
X2.8068Y-4.311
X3.0906Y-4.4406
X3.0906Y-4.7406
X3.3992Y-4.1476
X3.3992Y-4.3071
X3.3992Y-4.4665
X3.3992Y-4.626
X3.3992Y-4.7854
X3.3992Y-4.9449
X3.7992Y-4.1476
X3.7992Y-4.3071
X3.7992Y-4.4665
X3.7992Y-4.626
X3.7992Y-4.7854
X3.7992Y-4.9449
X4.3693Y-4.7
X4.3693Y-4.8
X4.3693Y-4.9
X4.3693Y-5.0
X4.6693Y-4.7
X4.6693Y-4.8
X4.6693Y-4.9
X4.6693Y-5.0
T2
X3.122Y-3.1457
X3.222Y-3.1457
X4.0Y-3.1496
X4.1Y-3.1496
T3
X4.9646Y-2.2331
X4.9646Y-2.3331
X4.9646Y-2.4331
M30
