%TF.GenerationSoftware,KiCad,Pcbnew,9.0.6*%
%TF.CreationDate,2025-12-31T17:09:58+01:00*%
%TF.ProjectId,Panda,50616e64-612e-46b6-9963-61645f706362,rev?*%
%TF.SameCoordinates,Original*%
%TF.FileFunction,Legend,Top*%
%TF.FilePolarity,Positive*%
%FSLAX46Y46*%
G04 Gerber Fmt 4.6, Leading zero omitted, Abs format (unit mm)*
G04 Created by KiCad (PCBNEW 9.0.6) date 2025-12-31 17:09:58*
%MOMM*%
%LPD*%
G01*
G04 APERTURE LIST*
%ADD10C,0.150000*%
%ADD11C,0.010000*%
G04 APERTURE END LIST*
D10*
X67405238Y-125381250D02*
X67500476Y-125333631D01*
X67500476Y-125333631D02*
X67595714Y-125238393D01*
X67595714Y-125238393D02*
X67738571Y-125095535D01*
X67738571Y-125095535D02*
X67833809Y-125047916D01*
X67833809Y-125047916D02*
X67929047Y-125047916D01*
X67881428Y-125286012D02*
X67976666Y-125238393D01*
X67976666Y-125238393D02*
X68071904Y-125143154D01*
X68071904Y-125143154D02*
X68119523Y-124952678D01*
X68119523Y-124952678D02*
X68119523Y-124619345D01*
X68119523Y-124619345D02*
X68071904Y-124428869D01*
X68071904Y-124428869D02*
X67976666Y-124333631D01*
X67976666Y-124333631D02*
X67881428Y-124286012D01*
X67881428Y-124286012D02*
X67690952Y-124286012D01*
X67690952Y-124286012D02*
X67595714Y-124333631D01*
X67595714Y-124333631D02*
X67500476Y-124428869D01*
X67500476Y-124428869D02*
X67452857Y-124619345D01*
X67452857Y-124619345D02*
X67452857Y-124952678D01*
X67452857Y-124952678D02*
X67500476Y-125143154D01*
X67500476Y-125143154D02*
X67595714Y-125238393D01*
X67595714Y-125238393D02*
X67690952Y-125286012D01*
X67690952Y-125286012D02*
X67881428Y-125286012D01*
X67071904Y-124381250D02*
X67024285Y-124333631D01*
X67024285Y-124333631D02*
X66929047Y-124286012D01*
X66929047Y-124286012D02*
X66690952Y-124286012D01*
X66690952Y-124286012D02*
X66595714Y-124333631D01*
X66595714Y-124333631D02*
X66548095Y-124381250D01*
X66548095Y-124381250D02*
X66500476Y-124476488D01*
X66500476Y-124476488D02*
X66500476Y-124571726D01*
X66500476Y-124571726D02*
X66548095Y-124714583D01*
X66548095Y-124714583D02*
X67119523Y-125286012D01*
X67119523Y-125286012D02*
X66500476Y-125286012D01*
X67405238Y-131323635D02*
X67500476Y-131276016D01*
X67500476Y-131276016D02*
X67595714Y-131180778D01*
X67595714Y-131180778D02*
X67738571Y-131037920D01*
X67738571Y-131037920D02*
X67833809Y-130990301D01*
X67833809Y-130990301D02*
X67929047Y-130990301D01*
X67881428Y-131228397D02*
X67976666Y-131180778D01*
X67976666Y-131180778D02*
X68071904Y-131085539D01*
X68071904Y-131085539D02*
X68119523Y-130895063D01*
X68119523Y-130895063D02*
X68119523Y-130561730D01*
X68119523Y-130561730D02*
X68071904Y-130371254D01*
X68071904Y-130371254D02*
X67976666Y-130276016D01*
X67976666Y-130276016D02*
X67881428Y-130228397D01*
X67881428Y-130228397D02*
X67690952Y-130228397D01*
X67690952Y-130228397D02*
X67595714Y-130276016D01*
X67595714Y-130276016D02*
X67500476Y-130371254D01*
X67500476Y-130371254D02*
X67452857Y-130561730D01*
X67452857Y-130561730D02*
X67452857Y-130895063D01*
X67452857Y-130895063D02*
X67500476Y-131085539D01*
X67500476Y-131085539D02*
X67595714Y-131180778D01*
X67595714Y-131180778D02*
X67690952Y-131228397D01*
X67690952Y-131228397D02*
X67881428Y-131228397D01*
X66500476Y-131228397D02*
X67071904Y-131228397D01*
X66786190Y-131228397D02*
X66786190Y-130228397D01*
X66786190Y-130228397D02*
X66881428Y-130371254D01*
X66881428Y-130371254D02*
X66976666Y-130466492D01*
X66976666Y-130466492D02*
X67071904Y-130514111D01*
D11*
%TO.C,G\u002A\u002A\u002A*%
X91553832Y-37137795D02*
X92318572Y-37292371D01*
X93005079Y-37586477D01*
X93584679Y-38003141D01*
X94077873Y-38544701D01*
X94416641Y-39143306D01*
X94557356Y-39565288D01*
X94705565Y-40064228D01*
X94854608Y-40398583D01*
X95006731Y-40573093D01*
X95043263Y-40591456D01*
X95173559Y-40602877D01*
X95431844Y-40597608D01*
X95777760Y-40577195D01*
X96083561Y-40551648D01*
X96539374Y-40520628D01*
X97092997Y-40500679D01*
X97673163Y-40493539D01*
X98188033Y-40500322D01*
X98689024Y-40518626D01*
X99070907Y-40544747D01*
X99383909Y-40586601D01*
X99678255Y-40652101D01*
X100004170Y-40749163D01*
X100220033Y-40820537D01*
X100620352Y-40961418D01*
X100909122Y-41085243D01*
X101137468Y-41221973D01*
X101356516Y-41401572D01*
X101582109Y-41618796D01*
X101995661Y-42092110D01*
X102273039Y-42571234D01*
X102432612Y-43101439D01*
X102492748Y-43727997D01*
X102494458Y-43867483D01*
X102481884Y-44255901D01*
X102447847Y-44629511D01*
X102399181Y-44917790D01*
X102388879Y-44956976D01*
X102216477Y-45321176D01*
X101913559Y-45713618D01*
X101508253Y-46103333D01*
X101028690Y-46459356D01*
X101017835Y-46466371D01*
X100770555Y-46632045D01*
X100591568Y-46764102D01*
X100517426Y-46835461D01*
X100517107Y-46837329D01*
X100593444Y-46901238D01*
X100800882Y-46990785D01*
X101104881Y-47096438D01*
X101470902Y-47208663D01*
X101864405Y-47317927D01*
X102250851Y-47414697D01*
X102595699Y-47489439D01*
X102864411Y-47532620D01*
X103022447Y-47534708D01*
X103032620Y-47531635D01*
X103122194Y-47439301D01*
X103259142Y-47232267D01*
X103418825Y-46949086D01*
X103476743Y-46836697D01*
X104037049Y-45858036D01*
X104718074Y-44892983D01*
X105485489Y-43983186D01*
X106304964Y-43170291D01*
X106920621Y-42658730D01*
X108136905Y-41839076D01*
X109442051Y-41160872D01*
X110824923Y-40628914D01*
X112274381Y-40248000D01*
X112707360Y-40166166D01*
X113275147Y-40093922D01*
X113959799Y-40047354D01*
X114710807Y-40026462D01*
X115477658Y-40031246D01*
X116209844Y-40061705D01*
X116856854Y-40117841D01*
X117196707Y-40166166D01*
X118704365Y-40511283D01*
X120155665Y-41013721D01*
X121543817Y-41668889D01*
X122862033Y-42472194D01*
X124103525Y-43419042D01*
X125261505Y-44504841D01*
X126329185Y-45724997D01*
X127213284Y-46943267D01*
X128070653Y-48386486D01*
X128772977Y-49893476D01*
X129317563Y-51455323D01*
X129701714Y-53063115D01*
X129922737Y-54707938D01*
X129980367Y-56094853D01*
X129919062Y-57743049D01*
X129730926Y-59292634D01*
X129409630Y-60763963D01*
X128948843Y-62177394D01*
X128342234Y-63553284D01*
X127583472Y-64911990D01*
X126929644Y-65905003D01*
X126576896Y-66366112D01*
X126122004Y-66895762D01*
X125596558Y-67462368D01*
X125032148Y-68034341D01*
X124460366Y-68580098D01*
X123912801Y-69068050D01*
X123421045Y-69466613D01*
X123224404Y-69609759D01*
X122873073Y-69860147D01*
X122645203Y-70041080D01*
X122520333Y-70172319D01*
X122478003Y-70273627D01*
X122483034Y-70325817D01*
X122553926Y-70620023D01*
X122646322Y-71049444D01*
X122754252Y-71582203D01*
X122871748Y-72186426D01*
X122992841Y-72830237D01*
X123111561Y-73481761D01*
X123221941Y-74109122D01*
X123318010Y-74680444D01*
X123393799Y-75163852D01*
X123410532Y-75278817D01*
X123610732Y-76860847D01*
X123740609Y-78321383D01*
X123800178Y-79692966D01*
X123789451Y-81008134D01*
X123708442Y-82299430D01*
X123557163Y-83599393D01*
X123414275Y-84504270D01*
X123218404Y-85461148D01*
X122964254Y-86384649D01*
X122642559Y-87292881D01*
X122244051Y-88203951D01*
X121759463Y-89135964D01*
X121179527Y-90107027D01*
X120494977Y-91135246D01*
X119696545Y-92238729D01*
X118970412Y-93186805D01*
X118562680Y-93707214D01*
X118248021Y-94110446D01*
X118017193Y-94414248D01*
X117860950Y-94636367D01*
X117770048Y-94794552D01*
X117735245Y-94906549D01*
X117747294Y-94990106D01*
X117796953Y-95062971D01*
X117874978Y-95142892D01*
X117924776Y-95194292D01*
X118695778Y-96093637D01*
X119461471Y-97123487D01*
X120199496Y-98245876D01*
X120887495Y-99422837D01*
X121503111Y-100616402D01*
X122023985Y-101788606D01*
X122384855Y-102768128D01*
X122615452Y-103492747D01*
X122796144Y-104121679D01*
X122932927Y-104693985D01*
X123031797Y-105248723D01*
X123098752Y-105824953D01*
X123139786Y-106461735D01*
X123160897Y-107198128D01*
X123167383Y-107865441D01*
X123176643Y-109929732D01*
X124059671Y-110438617D01*
X125422267Y-111272072D01*
X126624730Y-112111165D01*
X127676252Y-112963481D01*
X128586023Y-113836603D01*
X129363232Y-114738117D01*
X129520622Y-114945439D01*
X130065663Y-115745549D01*
X130502254Y-116539505D01*
X130837633Y-117353888D01*
X131079038Y-118215276D01*
X131233706Y-119150250D01*
X131308875Y-120185390D01*
X131311783Y-121347275D01*
X131307300Y-121506817D01*
X131233571Y-122741854D01*
X131087447Y-123860298D01*
X130859305Y-124902823D01*
X130539524Y-125910102D01*
X130118483Y-126922810D01*
X129935377Y-127306483D01*
X129293277Y-128427580D01*
X128496974Y-129506183D01*
X127558314Y-130533006D01*
X126489139Y-131498765D01*
X125301293Y-132394173D01*
X124006619Y-133209947D01*
X122616961Y-133936799D01*
X121144163Y-134565445D01*
X120286033Y-134871616D01*
X118578538Y-135361207D01*
X116881235Y-135693916D01*
X115202287Y-135870567D01*
X113549854Y-135891986D01*
X111932099Y-135758998D01*
X110357183Y-135472428D01*
X108833267Y-135033103D01*
X107368513Y-134441847D01*
X105971083Y-133699486D01*
X105448913Y-133371041D01*
X104666460Y-132856206D01*
X103491367Y-133193359D01*
X101528918Y-133695562D01*
X99491565Y-134095777D01*
X97357573Y-134397585D01*
X95105210Y-134604564D01*
X94801367Y-134624770D01*
X94402845Y-134644707D01*
X93863843Y-134663533D01*
X93213211Y-134680665D01*
X92479801Y-134695520D01*
X91692465Y-134707513D01*
X90880054Y-134716063D01*
X90071419Y-134720585D01*
X90060033Y-134720618D01*
X89140184Y-134722592D01*
X88365623Y-134721155D01*
X87712303Y-134713737D01*
X87156182Y-134697768D01*
X86673215Y-134670681D01*
X86239357Y-134629905D01*
X85830564Y-134572872D01*
X85422791Y-134497012D01*
X84991995Y-134399756D01*
X84514131Y-134278534D01*
X83965155Y-134130779D01*
X83598413Y-134030185D01*
X82825488Y-133821560D01*
X82185421Y-133658973D01*
X81649682Y-133537211D01*
X81189737Y-133451062D01*
X80777053Y-133395313D01*
X80383099Y-133364752D01*
X79979343Y-133354166D01*
X79896989Y-133353985D01*
X79458557Y-133362288D01*
X79100961Y-133395102D01*
X78781349Y-133465833D01*
X78456866Y-133587888D01*
X78084661Y-133774672D01*
X77621879Y-134039592D01*
X77528458Y-134094942D01*
X76954550Y-134422258D01*
X76444930Y-134676827D01*
X75932115Y-134888141D01*
X75348623Y-135085694D01*
X75061579Y-135173044D01*
X73615526Y-135528636D01*
X72088571Y-135766459D01*
X70524870Y-135882910D01*
X68968578Y-135874390D01*
X67725606Y-135771225D01*
X66019739Y-135486952D01*
X64367561Y-135056425D01*
X62780642Y-134485534D01*
X61270549Y-133780169D01*
X59848852Y-132946221D01*
X58527118Y-131989580D01*
X57316916Y-130916136D01*
X56508617Y-130059949D01*
X55615335Y-128931237D01*
X54836359Y-127726738D01*
X54178280Y-126465061D01*
X53647690Y-125164812D01*
X53251183Y-123844600D01*
X52995351Y-122523032D01*
X52886785Y-121218717D01*
X52930948Y-119961650D01*
X53044348Y-119060449D01*
X53204269Y-118142355D01*
X53399579Y-117260573D01*
X53619146Y-116468309D01*
X53733834Y-116124368D01*
X53943156Y-115579502D01*
X54165828Y-115097728D01*
X54417736Y-114662882D01*
X54714768Y-114258800D01*
X55072811Y-113869319D01*
X55507752Y-113478275D01*
X56035479Y-113069503D01*
X56671878Y-112626841D01*
X57432837Y-112134125D01*
X58008693Y-111775098D01*
X58829881Y-111253585D01*
X59514371Y-110786886D01*
X60057814Y-110378304D01*
X60455862Y-110031140D01*
X60704165Y-109748699D01*
X60730880Y-109707832D01*
X60855052Y-109475371D01*
X60948386Y-109217881D01*
X61015331Y-108906876D01*
X61060331Y-108513873D01*
X61087834Y-108010389D01*
X61102285Y-107367939D01*
X61102825Y-107325150D01*
X61117745Y-106658425D01*
X61147039Y-106114954D01*
X61194683Y-105648974D01*
X61264653Y-105214726D01*
X61302535Y-105026639D01*
X61651849Y-103717691D01*
X62152898Y-102359199D01*
X62799670Y-100963183D01*
X63586154Y-99541660D01*
X64506338Y-98106649D01*
X65347679Y-96939866D01*
X65998031Y-96081098D01*
X65752365Y-95903696D01*
X65432102Y-95654427D01*
X65026650Y-95311440D01*
X64567835Y-94903419D01*
X64087484Y-94459042D01*
X63617425Y-94006991D01*
X63335871Y-93726069D01*
X62178932Y-92459050D01*
X61120759Y-91111780D01*
X60179316Y-89710679D01*
X59372571Y-88282164D01*
X58805219Y-87063855D01*
X58545513Y-86432008D01*
X58326345Y-85865395D01*
X58141053Y-85336729D01*
X57982974Y-84818725D01*
X57845443Y-84284097D01*
X57721798Y-83705558D01*
X57605375Y-83055822D01*
X57489511Y-82307603D01*
X57367543Y-81433615D01*
X57293159Y-80871945D01*
X57189071Y-80045097D01*
X57113780Y-79353788D01*
X57067867Y-78766589D01*
X57051915Y-78252072D01*
X57066503Y-77778810D01*
X57112214Y-77315375D01*
X57189627Y-76830340D01*
X57299325Y-76292275D01*
X57384834Y-75913817D01*
X57589139Y-75018550D01*
X57753442Y-74268147D01*
X57880980Y-73643749D01*
X57974990Y-73126501D01*
X58038709Y-72697544D01*
X58075375Y-72338022D01*
X58088224Y-72029079D01*
X58084911Y-71835869D01*
X58049299Y-71416879D01*
X57967617Y-71078323D01*
X57818865Y-70792046D01*
X57582046Y-70529895D01*
X57236163Y-70263713D01*
X56760218Y-69965346D01*
X56635357Y-69892233D01*
X55351403Y-69049616D01*
X54169974Y-68074219D01*
X53096462Y-66971969D01*
X52136262Y-65748794D01*
X51294766Y-64410619D01*
X50827501Y-63510150D01*
X50243361Y-62158438D01*
X49794715Y-60809710D01*
X49474661Y-59432407D01*
X49276298Y-57994969D01*
X49199520Y-56590140D01*
X49372302Y-56590140D01*
X49498940Y-58260666D01*
X49787013Y-59923238D01*
X50236865Y-61562817D01*
X50623345Y-62590309D01*
X51115510Y-63654771D01*
X51683004Y-64698509D01*
X52295468Y-65663828D01*
X52656444Y-66161271D01*
X53348386Y-66981404D01*
X54141908Y-67781554D01*
X54996991Y-68526806D01*
X55873618Y-69182244D01*
X56719408Y-69706182D01*
X57286148Y-70047603D01*
X57707864Y-70377966D01*
X58005385Y-70720377D01*
X58199537Y-71097944D01*
X58297574Y-71457046D01*
X58318978Y-71786050D01*
X58288634Y-72263766D01*
X58208243Y-72878228D01*
X58079509Y-73617471D01*
X57904134Y-74469532D01*
X57807866Y-74897817D01*
X57634070Y-75664554D01*
X57498754Y-76295612D01*
X57398007Y-76819251D01*
X57327916Y-77263731D01*
X57284569Y-77657313D01*
X57264053Y-78028258D01*
X57262455Y-78404827D01*
X57273388Y-78758479D01*
X57306095Y-79258852D01*
X57364869Y-79884994D01*
X57444417Y-80596271D01*
X57539446Y-81352048D01*
X57644663Y-82111690D01*
X57754775Y-82834563D01*
X57864488Y-83480031D01*
X57938888Y-83867332D01*
X58142722Y-84675237D01*
X58437323Y-85578168D01*
X58807298Y-86539230D01*
X59237251Y-87521526D01*
X59711789Y-88488162D01*
X60215515Y-89402243D01*
X60325623Y-89587483D01*
X60940997Y-90525289D01*
X61677489Y-91508237D01*
X62506060Y-92503197D01*
X63397671Y-93477040D01*
X64323284Y-94396634D01*
X65253858Y-95228852D01*
X65316200Y-95281114D01*
X65643880Y-95556774D01*
X65919169Y-95792489D01*
X66118673Y-95967911D01*
X66219003Y-96062689D01*
X66226367Y-96072920D01*
X66178340Y-96147972D01*
X66045292Y-96335681D01*
X65843771Y-96613214D01*
X65590325Y-96957739D01*
X65369039Y-97255863D01*
X64342646Y-98711668D01*
X63470357Y-100119015D01*
X62747316Y-101487789D01*
X62168663Y-102827880D01*
X61729540Y-104149174D01*
X61482179Y-105166150D01*
X61402316Y-105611107D01*
X61345924Y-106067768D01*
X61309195Y-106581442D01*
X61288320Y-107197438D01*
X61282883Y-107536817D01*
X61274613Y-108084562D01*
X61262305Y-108494423D01*
X61242447Y-108797847D01*
X61211530Y-109026284D01*
X61166043Y-109211181D01*
X61102477Y-109383985D01*
X61067701Y-109464686D01*
X60946901Y-109700325D01*
X60789652Y-109931086D01*
X60582676Y-110167412D01*
X60312695Y-110419748D01*
X59966430Y-110698536D01*
X59530603Y-111014222D01*
X58991937Y-111377248D01*
X58337151Y-111798058D01*
X57552969Y-112287097D01*
X57214626Y-112495241D01*
X56339750Y-113081315D01*
X55586158Y-113688944D01*
X54966505Y-114305991D01*
X54493443Y-114920316D01*
X54263937Y-115326150D01*
X53962970Y-116052064D01*
X53687346Y-116922461D01*
X53434066Y-117947309D01*
X53339445Y-118397223D01*
X53264707Y-118801435D01*
X53211487Y-119182329D01*
X53176464Y-119583278D01*
X53156317Y-120047655D01*
X53147727Y-120618834D01*
X53146753Y-120914150D01*
X53154858Y-121658014D01*
X53179849Y-122289572D01*
X53220635Y-122788528D01*
X53262820Y-123073150D01*
X53644087Y-124570453D01*
X54178017Y-126006054D01*
X54856852Y-127372469D01*
X55672836Y-128662213D01*
X56618211Y-129867802D01*
X57685221Y-130981751D01*
X58866108Y-131996577D01*
X60153117Y-132904794D01*
X61538489Y-133698919D01*
X63014469Y-134371466D01*
X64573299Y-134914951D01*
X65887700Y-135254624D01*
X67506813Y-135546188D01*
X69074807Y-135694737D01*
X70627280Y-135702701D01*
X71560367Y-135641533D01*
X72725518Y-135495922D01*
X73861371Y-135277897D01*
X74937417Y-134995992D01*
X75923151Y-134658743D01*
X76788066Y-134274688D01*
X77148367Y-134077975D01*
X77669120Y-133778001D01*
X78081929Y-133555799D01*
X78420504Y-133396368D01*
X78718557Y-133284706D01*
X79009798Y-133205809D01*
X79191782Y-133168611D01*
X79701015Y-133123545D01*
X80339188Y-133148944D01*
X81082593Y-133241976D01*
X81907522Y-133399810D01*
X82651700Y-133581892D01*
X83154449Y-133716678D01*
X83680451Y-133857787D01*
X84167619Y-133988559D01*
X84553866Y-134092333D01*
X84556700Y-134093095D01*
X85005805Y-134208570D01*
X85426584Y-134302934D01*
X85842951Y-134378222D01*
X86278820Y-134436469D01*
X86758108Y-134479709D01*
X87304727Y-134509979D01*
X87942594Y-134529311D01*
X88695622Y-134539743D01*
X89587726Y-134543307D01*
X89848367Y-134543359D01*
X91386039Y-134534743D01*
X92779396Y-134509063D01*
X94052753Y-134464701D01*
X95230420Y-134400039D01*
X96336713Y-134313458D01*
X97395942Y-134203342D01*
X98432423Y-134068070D01*
X99470466Y-133906027D01*
X99500367Y-133900991D01*
X100175235Y-133776262D01*
X100944691Y-133616104D01*
X101758324Y-133432389D01*
X102565722Y-133236984D01*
X103316473Y-133041761D01*
X103960165Y-132858589D01*
X104068792Y-132825324D01*
X104700217Y-132629152D01*
X105492735Y-133166480D01*
X106756231Y-133924003D01*
X108128556Y-134556515D01*
X109612499Y-135065085D01*
X111210849Y-135450785D01*
X111650552Y-135531950D01*
X112223025Y-135605957D01*
X112918525Y-135655916D01*
X113692460Y-135681827D01*
X114500241Y-135683692D01*
X115297277Y-135661510D01*
X116038977Y-135615284D01*
X116680752Y-135545015D01*
X116769348Y-135531826D01*
X118607161Y-135163638D01*
X120384084Y-134638630D01*
X122110781Y-133953456D01*
X122741367Y-133657551D01*
X124082964Y-132931593D01*
X125345840Y-132109073D01*
X126511123Y-131205563D01*
X127559943Y-130236634D01*
X128473428Y-129217855D01*
X129035035Y-128464708D01*
X129703275Y-127342826D01*
X130251372Y-126116529D01*
X130675021Y-124804913D01*
X130969915Y-123427077D01*
X131131748Y-122002118D01*
X131156215Y-120549135D01*
X131077097Y-119407979D01*
X130905106Y-118347580D01*
X130619779Y-117357086D01*
X130210880Y-116417235D01*
X129668174Y-115508764D01*
X128981423Y-114612409D01*
X128140392Y-113708908D01*
X127949756Y-113522752D01*
X127431622Y-113040371D01*
X126915447Y-112596620D01*
X126376286Y-112173867D01*
X125789197Y-111754479D01*
X125129236Y-111320825D01*
X124371459Y-110855274D01*
X123490923Y-110340192D01*
X123262780Y-110209651D01*
X123025973Y-110062293D01*
X122914159Y-109949646D01*
X122897851Y-109837073D01*
X122908554Y-109793537D01*
X122930123Y-109649693D01*
X122953887Y-109369528D01*
X122977699Y-108985999D01*
X122999413Y-108532064D01*
X123011410Y-108214150D01*
X123017009Y-107124875D01*
X122950556Y-106118786D01*
X122804193Y-105122374D01*
X122570062Y-104062129D01*
X122565680Y-104044726D01*
X122097422Y-102507104D01*
X121469786Y-100964062D01*
X120691368Y-99431602D01*
X119770765Y-97925729D01*
X118716570Y-96462445D01*
X118058204Y-95652391D01*
X117829559Y-95389232D01*
X117661691Y-95189154D01*
X117559465Y-95025883D01*
X117527745Y-94873145D01*
X117571396Y-94704666D01*
X117695283Y-94494172D01*
X117904270Y-94215388D01*
X118203223Y-93842041D01*
X118450608Y-93533042D01*
X119368910Y-92351712D01*
X120167938Y-91264580D01*
X120856434Y-90255003D01*
X121443142Y-89306340D01*
X121936803Y-88401948D01*
X122346160Y-87525185D01*
X122679956Y-86659408D01*
X122946932Y-85787975D01*
X123155832Y-84894244D01*
X123246339Y-84403782D01*
X123432353Y-83120607D01*
X123553165Y-81840742D01*
X123607733Y-80543959D01*
X123595015Y-79210030D01*
X123513971Y-77818726D01*
X123363560Y-76349819D01*
X123142739Y-74783080D01*
X122850469Y-73098282D01*
X122598472Y-71816678D01*
X122244459Y-70090206D01*
X122418145Y-69954011D01*
X122559700Y-69847603D01*
X122800192Y-69671380D01*
X123100642Y-69453785D01*
X123300992Y-69309817D01*
X124065544Y-68704452D01*
X124853239Y-67975498D01*
X125631093Y-67159129D01*
X126366123Y-66291515D01*
X127025345Y-65408830D01*
X127448580Y-64761292D01*
X128218904Y-63337667D01*
X128840718Y-61843689D01*
X129311850Y-60294210D01*
X129630128Y-58704076D01*
X129793378Y-57088138D01*
X129799430Y-55461244D01*
X129646111Y-53838243D01*
X129331247Y-52233984D01*
X129299536Y-52108919D01*
X128816618Y-50552281D01*
X128192580Y-49064870D01*
X127436201Y-47656631D01*
X126556257Y-46337511D01*
X125561528Y-45117455D01*
X124460790Y-44006411D01*
X123262823Y-43014323D01*
X121976403Y-42151140D01*
X120610309Y-41426807D01*
X119449709Y-40948100D01*
X118197980Y-40575924D01*
X116864438Y-40329285D01*
X115483563Y-40210636D01*
X114089835Y-40222428D01*
X112717733Y-40367115D01*
X112300604Y-40439633D01*
X110989093Y-40771689D01*
X109716930Y-41253226D01*
X108500602Y-41872006D01*
X107356595Y-42615789D01*
X106301398Y-43472337D01*
X105351495Y-44429411D01*
X104523375Y-45474771D01*
X103833524Y-46596178D01*
X103725007Y-46805759D01*
X103505765Y-47223370D01*
X103335046Y-47503450D01*
X103199149Y-47665955D01*
X103090910Y-47729337D01*
X102874668Y-47735512D01*
X102535411Y-47687359D01*
X102107636Y-47592706D01*
X101625841Y-47459386D01*
X101124522Y-47295228D01*
X101032240Y-47262048D01*
X100609280Y-47107437D01*
X100337055Y-46993424D01*
X100209413Y-46896891D01*
X100220202Y-46794718D01*
X100363269Y-46663787D01*
X100632461Y-46480979D01*
X100795855Y-46373822D01*
X101355656Y-45971178D01*
X101769748Y-45584467D01*
X102055531Y-45184144D01*
X102230409Y-44740668D01*
X102311783Y-44224496D01*
X102322111Y-43782817D01*
X102234182Y-43105270D01*
X102003362Y-42480636D01*
X101644543Y-41934526D01*
X101172615Y-41492555D01*
X100885124Y-41311127D01*
X100377690Y-41066284D01*
X99872104Y-40890812D01*
X99326637Y-40775973D01*
X98699559Y-40713031D01*
X97949141Y-40693247D01*
X97934033Y-40693233D01*
X97398287Y-40697973D01*
X96838732Y-40711469D01*
X96316446Y-40731741D01*
X95892504Y-40756809D01*
X95837225Y-40761188D01*
X95010417Y-40829892D01*
X94773303Y-40591854D01*
X94589334Y-40332591D01*
X94456242Y-39960259D01*
X94421364Y-39810459D01*
X94201263Y-39165392D01*
X93837459Y-38581378D01*
X93351221Y-38081295D01*
X92763820Y-37688024D01*
X92244072Y-37468501D01*
X91770363Y-37365757D01*
X91201000Y-37320126D01*
X90599707Y-37331509D01*
X90030206Y-37399810D01*
X89715276Y-37472353D01*
X88886237Y-37795995D01*
X88100379Y-38265232D01*
X87383562Y-38857213D01*
X86761648Y-39549088D01*
X86260499Y-40318007D01*
X86081142Y-40683363D01*
X85991948Y-40921794D01*
X85875095Y-41287966D01*
X85741505Y-41744739D01*
X85602098Y-42254975D01*
X85486828Y-42704415D01*
X85242682Y-43614190D01*
X84997256Y-44369026D01*
X84742177Y-44983172D01*
X84469074Y-45470874D01*
X84169574Y-45846379D01*
X83835306Y-46123933D01*
X83457898Y-46317785D01*
X83338287Y-46360675D01*
X83102136Y-46419552D01*
X82745219Y-46485831D01*
X82315400Y-46551506D01*
X81860544Y-46608573D01*
X81847367Y-46610030D01*
X81430900Y-46657614D01*
X81093806Y-46704325D01*
X80801222Y-46760541D01*
X80518287Y-46836641D01*
X80210138Y-46943003D01*
X79841914Y-47090006D01*
X79378752Y-47288029D01*
X78970160Y-47466603D01*
X78263501Y-47758159D01*
X77611791Y-47991357D01*
X77039922Y-48158600D01*
X76572787Y-48252291D01*
X76336986Y-48270150D01*
X76042829Y-48196853D01*
X75743667Y-48002422D01*
X75491854Y-47725041D01*
X75415340Y-47597922D01*
X75339790Y-47410140D01*
X75243336Y-47112805D01*
X75143552Y-46761269D01*
X75116100Y-46655507D01*
X74990349Y-46212281D01*
X74846985Y-45840722D01*
X74660994Y-45495717D01*
X74407363Y-45132151D01*
X74061076Y-44704908D01*
X73984955Y-44615398D01*
X73080269Y-43683520D01*
X72044196Y-42844605D01*
X70892228Y-42107353D01*
X69639860Y-41480467D01*
X68302584Y-40972646D01*
X66895894Y-40592593D01*
X66776700Y-40567104D01*
X66142611Y-40462856D01*
X65394925Y-40386035D01*
X64587488Y-40338844D01*
X63774148Y-40323488D01*
X63008751Y-40342169D01*
X62416367Y-40388656D01*
X60887415Y-40644533D01*
X59416106Y-41056973D01*
X58011158Y-41620427D01*
X56681294Y-42329347D01*
X55435233Y-43178182D01*
X54281697Y-44161383D01*
X53229405Y-45273402D01*
X52287080Y-46508688D01*
X51925208Y-47064518D01*
X51112260Y-48533557D01*
X50452455Y-50065844D01*
X49947174Y-51649513D01*
X49597801Y-53272697D01*
X49405716Y-54923528D01*
X49372302Y-56590140D01*
X49199520Y-56590140D01*
X49192726Y-56465837D01*
X49188956Y-56017150D01*
X49235317Y-54647882D01*
X49378179Y-53358225D01*
X49627031Y-52092852D01*
X49991361Y-50796438D01*
X50182137Y-50226400D01*
X50632187Y-49103859D01*
X51200921Y-47952612D01*
X51858948Y-46823507D01*
X52576882Y-45767389D01*
X53245256Y-44926741D01*
X54209131Y-43934493D01*
X55302457Y-43028595D01*
X56502001Y-42222175D01*
X57784532Y-41528362D01*
X59126816Y-40960283D01*
X60505621Y-40531067D01*
X61358033Y-40342420D01*
X61899665Y-40266153D01*
X62557606Y-40212669D01*
X63292525Y-40181719D01*
X64065090Y-40173055D01*
X64835968Y-40186428D01*
X65565827Y-40221590D01*
X66215334Y-40278291D01*
X66745159Y-40356283D01*
X66845592Y-40377126D01*
X68353321Y-40787253D01*
X69761130Y-41322586D01*
X71062918Y-41979528D01*
X72252582Y-42754480D01*
X73324020Y-43643848D01*
X74271130Y-44644033D01*
X74444281Y-44856030D01*
X74674243Y-45156806D01*
X74852436Y-45428134D01*
X74998078Y-45711218D01*
X75130392Y-46047261D01*
X75268597Y-46477466D01*
X75381648Y-46865510D01*
X75520323Y-47285699D01*
X75670281Y-47586989D01*
X75856477Y-47819263D01*
X75861163Y-47823969D01*
X76053283Y-47998940D01*
X76209556Y-48072322D01*
X76404224Y-48071185D01*
X76500981Y-48057277D01*
X77002938Y-47960644D01*
X77505860Y-47824454D01*
X78051714Y-47634983D01*
X78682467Y-47378504D01*
X78998926Y-47240349D01*
X79565644Y-46992921D01*
X80020553Y-46807319D01*
X80404365Y-46671816D01*
X80757794Y-46574681D01*
X81121553Y-46504188D01*
X81536356Y-46448606D01*
X81870369Y-46413141D01*
X82481665Y-46341470D01*
X82955708Y-46257495D01*
X83324570Y-46150647D01*
X83620324Y-46010356D01*
X83875040Y-45826054D01*
X83999805Y-45711386D01*
X84248322Y-45427674D01*
X84473427Y-45077587D01*
X84683696Y-44640802D01*
X84887703Y-44096998D01*
X85094022Y-43425853D01*
X85311228Y-42607045D01*
X85313624Y-42597483D01*
X85541336Y-41748510D01*
X85767120Y-41041080D01*
X86002845Y-40447966D01*
X86260376Y-39941940D01*
X86551582Y-39495775D01*
X86803621Y-39178921D01*
X87514503Y-38456528D01*
X88274666Y-37893802D01*
X89093457Y-37485857D01*
X89980222Y-37227804D01*
X90725944Y-37127370D01*
X91553832Y-37137795D01*
G36*
X91553832Y-37137795D02*
G01*
X92318572Y-37292371D01*
X93005079Y-37586477D01*
X93584679Y-38003141D01*
X94077873Y-38544701D01*
X94416641Y-39143306D01*
X94557356Y-39565288D01*
X94705565Y-40064228D01*
X94854608Y-40398583D01*
X95006731Y-40573093D01*
X95043263Y-40591456D01*
X95173559Y-40602877D01*
X95431844Y-40597608D01*
X95777760Y-40577195D01*
X96083561Y-40551648D01*
X96539374Y-40520628D01*
X97092997Y-40500679D01*
X97673163Y-40493539D01*
X98188033Y-40500322D01*
X98689024Y-40518626D01*
X99070907Y-40544747D01*
X99383909Y-40586601D01*
X99678255Y-40652101D01*
X100004170Y-40749163D01*
X100220033Y-40820537D01*
X100620352Y-40961418D01*
X100909122Y-41085243D01*
X101137468Y-41221973D01*
X101356516Y-41401572D01*
X101582109Y-41618796D01*
X101995661Y-42092110D01*
X102273039Y-42571234D01*
X102432612Y-43101439D01*
X102492748Y-43727997D01*
X102494458Y-43867483D01*
X102481884Y-44255901D01*
X102447847Y-44629511D01*
X102399181Y-44917790D01*
X102388879Y-44956976D01*
X102216477Y-45321176D01*
X101913559Y-45713618D01*
X101508253Y-46103333D01*
X101028690Y-46459356D01*
X101017835Y-46466371D01*
X100770555Y-46632045D01*
X100591568Y-46764102D01*
X100517426Y-46835461D01*
X100517107Y-46837329D01*
X100593444Y-46901238D01*
X100800882Y-46990785D01*
X101104881Y-47096438D01*
X101470902Y-47208663D01*
X101864405Y-47317927D01*
X102250851Y-47414697D01*
X102595699Y-47489439D01*
X102864411Y-47532620D01*
X103022447Y-47534708D01*
X103032620Y-47531635D01*
X103122194Y-47439301D01*
X103259142Y-47232267D01*
X103418825Y-46949086D01*
X103476743Y-46836697D01*
X104037049Y-45858036D01*
X104718074Y-44892983D01*
X105485489Y-43983186D01*
X106304964Y-43170291D01*
X106920621Y-42658730D01*
X108136905Y-41839076D01*
X109442051Y-41160872D01*
X110824923Y-40628914D01*
X112274381Y-40248000D01*
X112707360Y-40166166D01*
X113275147Y-40093922D01*
X113959799Y-40047354D01*
X114710807Y-40026462D01*
X115477658Y-40031246D01*
X116209844Y-40061705D01*
X116856854Y-40117841D01*
X117196707Y-40166166D01*
X118704365Y-40511283D01*
X120155665Y-41013721D01*
X121543817Y-41668889D01*
X122862033Y-42472194D01*
X124103525Y-43419042D01*
X125261505Y-44504841D01*
X126329185Y-45724997D01*
X127213284Y-46943267D01*
X128070653Y-48386486D01*
X128772977Y-49893476D01*
X129317563Y-51455323D01*
X129701714Y-53063115D01*
X129922737Y-54707938D01*
X129980367Y-56094853D01*
X129919062Y-57743049D01*
X129730926Y-59292634D01*
X129409630Y-60763963D01*
X128948843Y-62177394D01*
X128342234Y-63553284D01*
X127583472Y-64911990D01*
X126929644Y-65905003D01*
X126576896Y-66366112D01*
X126122004Y-66895762D01*
X125596558Y-67462368D01*
X125032148Y-68034341D01*
X124460366Y-68580098D01*
X123912801Y-69068050D01*
X123421045Y-69466613D01*
X123224404Y-69609759D01*
X122873073Y-69860147D01*
X122645203Y-70041080D01*
X122520333Y-70172319D01*
X122478003Y-70273627D01*
X122483034Y-70325817D01*
X122553926Y-70620023D01*
X122646322Y-71049444D01*
X122754252Y-71582203D01*
X122871748Y-72186426D01*
X122992841Y-72830237D01*
X123111561Y-73481761D01*
X123221941Y-74109122D01*
X123318010Y-74680444D01*
X123393799Y-75163852D01*
X123410532Y-75278817D01*
X123610732Y-76860847D01*
X123740609Y-78321383D01*
X123800178Y-79692966D01*
X123789451Y-81008134D01*
X123708442Y-82299430D01*
X123557163Y-83599393D01*
X123414275Y-84504270D01*
X123218404Y-85461148D01*
X122964254Y-86384649D01*
X122642559Y-87292881D01*
X122244051Y-88203951D01*
X121759463Y-89135964D01*
X121179527Y-90107027D01*
X120494977Y-91135246D01*
X119696545Y-92238729D01*
X118970412Y-93186805D01*
X118562680Y-93707214D01*
X118248021Y-94110446D01*
X118017193Y-94414248D01*
X117860950Y-94636367D01*
X117770048Y-94794552D01*
X117735245Y-94906549D01*
X117747294Y-94990106D01*
X117796953Y-95062971D01*
X117874978Y-95142892D01*
X117924776Y-95194292D01*
X118695778Y-96093637D01*
X119461471Y-97123487D01*
X120199496Y-98245876D01*
X120887495Y-99422837D01*
X121503111Y-100616402D01*
X122023985Y-101788606D01*
X122384855Y-102768128D01*
X122615452Y-103492747D01*
X122796144Y-104121679D01*
X122932927Y-104693985D01*
X123031797Y-105248723D01*
X123098752Y-105824953D01*
X123139786Y-106461735D01*
X123160897Y-107198128D01*
X123167383Y-107865441D01*
X123176643Y-109929732D01*
X124059671Y-110438617D01*
X125422267Y-111272072D01*
X126624730Y-112111165D01*
X127676252Y-112963481D01*
X128586023Y-113836603D01*
X129363232Y-114738117D01*
X129520622Y-114945439D01*
X130065663Y-115745549D01*
X130502254Y-116539505D01*
X130837633Y-117353888D01*
X131079038Y-118215276D01*
X131233706Y-119150250D01*
X131308875Y-120185390D01*
X131311783Y-121347275D01*
X131307300Y-121506817D01*
X131233571Y-122741854D01*
X131087447Y-123860298D01*
X130859305Y-124902823D01*
X130539524Y-125910102D01*
X130118483Y-126922810D01*
X129935377Y-127306483D01*
X129293277Y-128427580D01*
X128496974Y-129506183D01*
X127558314Y-130533006D01*
X126489139Y-131498765D01*
X125301293Y-132394173D01*
X124006619Y-133209947D01*
X122616961Y-133936799D01*
X121144163Y-134565445D01*
X120286033Y-134871616D01*
X118578538Y-135361207D01*
X116881235Y-135693916D01*
X115202287Y-135870567D01*
X113549854Y-135891986D01*
X111932099Y-135758998D01*
X110357183Y-135472428D01*
X108833267Y-135033103D01*
X107368513Y-134441847D01*
X105971083Y-133699486D01*
X105448913Y-133371041D01*
X104666460Y-132856206D01*
X103491367Y-133193359D01*
X101528918Y-133695562D01*
X99491565Y-134095777D01*
X97357573Y-134397585D01*
X95105210Y-134604564D01*
X94801367Y-134624770D01*
X94402845Y-134644707D01*
X93863843Y-134663533D01*
X93213211Y-134680665D01*
X92479801Y-134695520D01*
X91692465Y-134707513D01*
X90880054Y-134716063D01*
X90071419Y-134720585D01*
X90060033Y-134720618D01*
X89140184Y-134722592D01*
X88365623Y-134721155D01*
X87712303Y-134713737D01*
X87156182Y-134697768D01*
X86673215Y-134670681D01*
X86239357Y-134629905D01*
X85830564Y-134572872D01*
X85422791Y-134497012D01*
X84991995Y-134399756D01*
X84514131Y-134278534D01*
X83965155Y-134130779D01*
X83598413Y-134030185D01*
X82825488Y-133821560D01*
X82185421Y-133658973D01*
X81649682Y-133537211D01*
X81189737Y-133451062D01*
X80777053Y-133395313D01*
X80383099Y-133364752D01*
X79979343Y-133354166D01*
X79896989Y-133353985D01*
X79458557Y-133362288D01*
X79100961Y-133395102D01*
X78781349Y-133465833D01*
X78456866Y-133587888D01*
X78084661Y-133774672D01*
X77621879Y-134039592D01*
X77528458Y-134094942D01*
X76954550Y-134422258D01*
X76444930Y-134676827D01*
X75932115Y-134888141D01*
X75348623Y-135085694D01*
X75061579Y-135173044D01*
X73615526Y-135528636D01*
X72088571Y-135766459D01*
X70524870Y-135882910D01*
X68968578Y-135874390D01*
X67725606Y-135771225D01*
X66019739Y-135486952D01*
X64367561Y-135056425D01*
X62780642Y-134485534D01*
X61270549Y-133780169D01*
X59848852Y-132946221D01*
X58527118Y-131989580D01*
X57316916Y-130916136D01*
X56508617Y-130059949D01*
X55615335Y-128931237D01*
X54836359Y-127726738D01*
X54178280Y-126465061D01*
X53647690Y-125164812D01*
X53251183Y-123844600D01*
X52995351Y-122523032D01*
X52886785Y-121218717D01*
X52930948Y-119961650D01*
X53044348Y-119060449D01*
X53204269Y-118142355D01*
X53399579Y-117260573D01*
X53619146Y-116468309D01*
X53733834Y-116124368D01*
X53943156Y-115579502D01*
X54165828Y-115097728D01*
X54417736Y-114662882D01*
X54714768Y-114258800D01*
X55072811Y-113869319D01*
X55507752Y-113478275D01*
X56035479Y-113069503D01*
X56671878Y-112626841D01*
X57432837Y-112134125D01*
X58008693Y-111775098D01*
X58829881Y-111253585D01*
X59514371Y-110786886D01*
X60057814Y-110378304D01*
X60455862Y-110031140D01*
X60704165Y-109748699D01*
X60730880Y-109707832D01*
X60855052Y-109475371D01*
X60948386Y-109217881D01*
X61015331Y-108906876D01*
X61060331Y-108513873D01*
X61087834Y-108010389D01*
X61102285Y-107367939D01*
X61102825Y-107325150D01*
X61117745Y-106658425D01*
X61147039Y-106114954D01*
X61194683Y-105648974D01*
X61264653Y-105214726D01*
X61302535Y-105026639D01*
X61651849Y-103717691D01*
X62152898Y-102359199D01*
X62799670Y-100963183D01*
X63586154Y-99541660D01*
X64506338Y-98106649D01*
X65347679Y-96939866D01*
X65998031Y-96081098D01*
X65752365Y-95903696D01*
X65432102Y-95654427D01*
X65026650Y-95311440D01*
X64567835Y-94903419D01*
X64087484Y-94459042D01*
X63617425Y-94006991D01*
X63335871Y-93726069D01*
X62178932Y-92459050D01*
X61120759Y-91111780D01*
X60179316Y-89710679D01*
X59372571Y-88282164D01*
X58805219Y-87063855D01*
X58545513Y-86432008D01*
X58326345Y-85865395D01*
X58141053Y-85336729D01*
X57982974Y-84818725D01*
X57845443Y-84284097D01*
X57721798Y-83705558D01*
X57605375Y-83055822D01*
X57489511Y-82307603D01*
X57367543Y-81433615D01*
X57293159Y-80871945D01*
X57189071Y-80045097D01*
X57113780Y-79353788D01*
X57067867Y-78766589D01*
X57051915Y-78252072D01*
X57066503Y-77778810D01*
X57112214Y-77315375D01*
X57189627Y-76830340D01*
X57299325Y-76292275D01*
X57384834Y-75913817D01*
X57589139Y-75018550D01*
X57753442Y-74268147D01*
X57880980Y-73643749D01*
X57974990Y-73126501D01*
X58038709Y-72697544D01*
X58075375Y-72338022D01*
X58088224Y-72029079D01*
X58084911Y-71835869D01*
X58049299Y-71416879D01*
X57967617Y-71078323D01*
X57818865Y-70792046D01*
X57582046Y-70529895D01*
X57236163Y-70263713D01*
X56760218Y-69965346D01*
X56635357Y-69892233D01*
X55351403Y-69049616D01*
X54169974Y-68074219D01*
X53096462Y-66971969D01*
X52136262Y-65748794D01*
X51294766Y-64410619D01*
X50827501Y-63510150D01*
X50243361Y-62158438D01*
X49794715Y-60809710D01*
X49474661Y-59432407D01*
X49276298Y-57994969D01*
X49199520Y-56590140D01*
X49372302Y-56590140D01*
X49498940Y-58260666D01*
X49787013Y-59923238D01*
X50236865Y-61562817D01*
X50623345Y-62590309D01*
X51115510Y-63654771D01*
X51683004Y-64698509D01*
X52295468Y-65663828D01*
X52656444Y-66161271D01*
X53348386Y-66981404D01*
X54141908Y-67781554D01*
X54996991Y-68526806D01*
X55873618Y-69182244D01*
X56719408Y-69706182D01*
X57286148Y-70047603D01*
X57707864Y-70377966D01*
X58005385Y-70720377D01*
X58199537Y-71097944D01*
X58297574Y-71457046D01*
X58318978Y-71786050D01*
X58288634Y-72263766D01*
X58208243Y-72878228D01*
X58079509Y-73617471D01*
X57904134Y-74469532D01*
X57807866Y-74897817D01*
X57634070Y-75664554D01*
X57498754Y-76295612D01*
X57398007Y-76819251D01*
X57327916Y-77263731D01*
X57284569Y-77657313D01*
X57264053Y-78028258D01*
X57262455Y-78404827D01*
X57273388Y-78758479D01*
X57306095Y-79258852D01*
X57364869Y-79884994D01*
X57444417Y-80596271D01*
X57539446Y-81352048D01*
X57644663Y-82111690D01*
X57754775Y-82834563D01*
X57864488Y-83480031D01*
X57938888Y-83867332D01*
X58142722Y-84675237D01*
X58437323Y-85578168D01*
X58807298Y-86539230D01*
X59237251Y-87521526D01*
X59711789Y-88488162D01*
X60215515Y-89402243D01*
X60325623Y-89587483D01*
X60940997Y-90525289D01*
X61677489Y-91508237D01*
X62506060Y-92503197D01*
X63397671Y-93477040D01*
X64323284Y-94396634D01*
X65253858Y-95228852D01*
X65316200Y-95281114D01*
X65643880Y-95556774D01*
X65919169Y-95792489D01*
X66118673Y-95967911D01*
X66219003Y-96062689D01*
X66226367Y-96072920D01*
X66178340Y-96147972D01*
X66045292Y-96335681D01*
X65843771Y-96613214D01*
X65590325Y-96957739D01*
X65369039Y-97255863D01*
X64342646Y-98711668D01*
X63470357Y-100119015D01*
X62747316Y-101487789D01*
X62168663Y-102827880D01*
X61729540Y-104149174D01*
X61482179Y-105166150D01*
X61402316Y-105611107D01*
X61345924Y-106067768D01*
X61309195Y-106581442D01*
X61288320Y-107197438D01*
X61282883Y-107536817D01*
X61274613Y-108084562D01*
X61262305Y-108494423D01*
X61242447Y-108797847D01*
X61211530Y-109026284D01*
X61166043Y-109211181D01*
X61102477Y-109383985D01*
X61067701Y-109464686D01*
X60946901Y-109700325D01*
X60789652Y-109931086D01*
X60582676Y-110167412D01*
X60312695Y-110419748D01*
X59966430Y-110698536D01*
X59530603Y-111014222D01*
X58991937Y-111377248D01*
X58337151Y-111798058D01*
X57552969Y-112287097D01*
X57214626Y-112495241D01*
X56339750Y-113081315D01*
X55586158Y-113688944D01*
X54966505Y-114305991D01*
X54493443Y-114920316D01*
X54263937Y-115326150D01*
X53962970Y-116052064D01*
X53687346Y-116922461D01*
X53434066Y-117947309D01*
X53339445Y-118397223D01*
X53264707Y-118801435D01*
X53211487Y-119182329D01*
X53176464Y-119583278D01*
X53156317Y-120047655D01*
X53147727Y-120618834D01*
X53146753Y-120914150D01*
X53154858Y-121658014D01*
X53179849Y-122289572D01*
X53220635Y-122788528D01*
X53262820Y-123073150D01*
X53644087Y-124570453D01*
X54178017Y-126006054D01*
X54856852Y-127372469D01*
X55672836Y-128662213D01*
X56618211Y-129867802D01*
X57685221Y-130981751D01*
X58866108Y-131996577D01*
X60153117Y-132904794D01*
X61538489Y-133698919D01*
X63014469Y-134371466D01*
X64573299Y-134914951D01*
X65887700Y-135254624D01*
X67506813Y-135546188D01*
X69074807Y-135694737D01*
X70627280Y-135702701D01*
X71560367Y-135641533D01*
X72725518Y-135495922D01*
X73861371Y-135277897D01*
X74937417Y-134995992D01*
X75923151Y-134658743D01*
X76788066Y-134274688D01*
X77148367Y-134077975D01*
X77669120Y-133778001D01*
X78081929Y-133555799D01*
X78420504Y-133396368D01*
X78718557Y-133284706D01*
X79009798Y-133205809D01*
X79191782Y-133168611D01*
X79701015Y-133123545D01*
X80339188Y-133148944D01*
X81082593Y-133241976D01*
X81907522Y-133399810D01*
X82651700Y-133581892D01*
X83154449Y-133716678D01*
X83680451Y-133857787D01*
X84167619Y-133988559D01*
X84553866Y-134092333D01*
X84556700Y-134093095D01*
X85005805Y-134208570D01*
X85426584Y-134302934D01*
X85842951Y-134378222D01*
X86278820Y-134436469D01*
X86758108Y-134479709D01*
X87304727Y-134509979D01*
X87942594Y-134529311D01*
X88695622Y-134539743D01*
X89587726Y-134543307D01*
X89848367Y-134543359D01*
X91386039Y-134534743D01*
X92779396Y-134509063D01*
X94052753Y-134464701D01*
X95230420Y-134400039D01*
X96336713Y-134313458D01*
X97395942Y-134203342D01*
X98432423Y-134068070D01*
X99470466Y-133906027D01*
X99500367Y-133900991D01*
X100175235Y-133776262D01*
X100944691Y-133616104D01*
X101758324Y-133432389D01*
X102565722Y-133236984D01*
X103316473Y-133041761D01*
X103960165Y-132858589D01*
X104068792Y-132825324D01*
X104700217Y-132629152D01*
X105492735Y-133166480D01*
X106756231Y-133924003D01*
X108128556Y-134556515D01*
X109612499Y-135065085D01*
X111210849Y-135450785D01*
X111650552Y-135531950D01*
X112223025Y-135605957D01*
X112918525Y-135655916D01*
X113692460Y-135681827D01*
X114500241Y-135683692D01*
X115297277Y-135661510D01*
X116038977Y-135615284D01*
X116680752Y-135545015D01*
X116769348Y-135531826D01*
X118607161Y-135163638D01*
X120384084Y-134638630D01*
X122110781Y-133953456D01*
X122741367Y-133657551D01*
X124082964Y-132931593D01*
X125345840Y-132109073D01*
X126511123Y-131205563D01*
X127559943Y-130236634D01*
X128473428Y-129217855D01*
X129035035Y-128464708D01*
X129703275Y-127342826D01*
X130251372Y-126116529D01*
X130675021Y-124804913D01*
X130969915Y-123427077D01*
X131131748Y-122002118D01*
X131156215Y-120549135D01*
X131077097Y-119407979D01*
X130905106Y-118347580D01*
X130619779Y-117357086D01*
X130210880Y-116417235D01*
X129668174Y-115508764D01*
X128981423Y-114612409D01*
X128140392Y-113708908D01*
X127949756Y-113522752D01*
X127431622Y-113040371D01*
X126915447Y-112596620D01*
X126376286Y-112173867D01*
X125789197Y-111754479D01*
X125129236Y-111320825D01*
X124371459Y-110855274D01*
X123490923Y-110340192D01*
X123262780Y-110209651D01*
X123025973Y-110062293D01*
X122914159Y-109949646D01*
X122897851Y-109837073D01*
X122908554Y-109793537D01*
X122930123Y-109649693D01*
X122953887Y-109369528D01*
X122977699Y-108985999D01*
X122999413Y-108532064D01*
X123011410Y-108214150D01*
X123017009Y-107124875D01*
X122950556Y-106118786D01*
X122804193Y-105122374D01*
X122570062Y-104062129D01*
X122565680Y-104044726D01*
X122097422Y-102507104D01*
X121469786Y-100964062D01*
X120691368Y-99431602D01*
X119770765Y-97925729D01*
X118716570Y-96462445D01*
X118058204Y-95652391D01*
X117829559Y-95389232D01*
X117661691Y-95189154D01*
X117559465Y-95025883D01*
X117527745Y-94873145D01*
X117571396Y-94704666D01*
X117695283Y-94494172D01*
X117904270Y-94215388D01*
X118203223Y-93842041D01*
X118450608Y-93533042D01*
X119368910Y-92351712D01*
X120167938Y-91264580D01*
X120856434Y-90255003D01*
X121443142Y-89306340D01*
X121936803Y-88401948D01*
X122346160Y-87525185D01*
X122679956Y-86659408D01*
X122946932Y-85787975D01*
X123155832Y-84894244D01*
X123246339Y-84403782D01*
X123432353Y-83120607D01*
X123553165Y-81840742D01*
X123607733Y-80543959D01*
X123595015Y-79210030D01*
X123513971Y-77818726D01*
X123363560Y-76349819D01*
X123142739Y-74783080D01*
X122850469Y-73098282D01*
X122598472Y-71816678D01*
X122244459Y-70090206D01*
X122418145Y-69954011D01*
X122559700Y-69847603D01*
X122800192Y-69671380D01*
X123100642Y-69453785D01*
X123300992Y-69309817D01*
X124065544Y-68704452D01*
X124853239Y-67975498D01*
X125631093Y-67159129D01*
X126366123Y-66291515D01*
X127025345Y-65408830D01*
X127448580Y-64761292D01*
X128218904Y-63337667D01*
X128840718Y-61843689D01*
X129311850Y-60294210D01*
X129630128Y-58704076D01*
X129793378Y-57088138D01*
X129799430Y-55461244D01*
X129646111Y-53838243D01*
X129331247Y-52233984D01*
X129299536Y-52108919D01*
X128816618Y-50552281D01*
X128192580Y-49064870D01*
X127436201Y-47656631D01*
X126556257Y-46337511D01*
X125561528Y-45117455D01*
X124460790Y-44006411D01*
X123262823Y-43014323D01*
X121976403Y-42151140D01*
X120610309Y-41426807D01*
X119449709Y-40948100D01*
X118197980Y-40575924D01*
X116864438Y-40329285D01*
X115483563Y-40210636D01*
X114089835Y-40222428D01*
X112717733Y-40367115D01*
X112300604Y-40439633D01*
X110989093Y-40771689D01*
X109716930Y-41253226D01*
X108500602Y-41872006D01*
X107356595Y-42615789D01*
X106301398Y-43472337D01*
X105351495Y-44429411D01*
X104523375Y-45474771D01*
X103833524Y-46596178D01*
X103725007Y-46805759D01*
X103505765Y-47223370D01*
X103335046Y-47503450D01*
X103199149Y-47665955D01*
X103090910Y-47729337D01*
X102874668Y-47735512D01*
X102535411Y-47687359D01*
X102107636Y-47592706D01*
X101625841Y-47459386D01*
X101124522Y-47295228D01*
X101032240Y-47262048D01*
X100609280Y-47107437D01*
X100337055Y-46993424D01*
X100209413Y-46896891D01*
X100220202Y-46794718D01*
X100363269Y-46663787D01*
X100632461Y-46480979D01*
X100795855Y-46373822D01*
X101355656Y-45971178D01*
X101769748Y-45584467D01*
X102055531Y-45184144D01*
X102230409Y-44740668D01*
X102311783Y-44224496D01*
X102322111Y-43782817D01*
X102234182Y-43105270D01*
X102003362Y-42480636D01*
X101644543Y-41934526D01*
X101172615Y-41492555D01*
X100885124Y-41311127D01*
X100377690Y-41066284D01*
X99872104Y-40890812D01*
X99326637Y-40775973D01*
X98699559Y-40713031D01*
X97949141Y-40693247D01*
X97934033Y-40693233D01*
X97398287Y-40697973D01*
X96838732Y-40711469D01*
X96316446Y-40731741D01*
X95892504Y-40756809D01*
X95837225Y-40761188D01*
X95010417Y-40829892D01*
X94773303Y-40591854D01*
X94589334Y-40332591D01*
X94456242Y-39960259D01*
X94421364Y-39810459D01*
X94201263Y-39165392D01*
X93837459Y-38581378D01*
X93351221Y-38081295D01*
X92763820Y-37688024D01*
X92244072Y-37468501D01*
X91770363Y-37365757D01*
X91201000Y-37320126D01*
X90599707Y-37331509D01*
X90030206Y-37399810D01*
X89715276Y-37472353D01*
X88886237Y-37795995D01*
X88100379Y-38265232D01*
X87383562Y-38857213D01*
X86761648Y-39549088D01*
X86260499Y-40318007D01*
X86081142Y-40683363D01*
X85991948Y-40921794D01*
X85875095Y-41287966D01*
X85741505Y-41744739D01*
X85602098Y-42254975D01*
X85486828Y-42704415D01*
X85242682Y-43614190D01*
X84997256Y-44369026D01*
X84742177Y-44983172D01*
X84469074Y-45470874D01*
X84169574Y-45846379D01*
X83835306Y-46123933D01*
X83457898Y-46317785D01*
X83338287Y-46360675D01*
X83102136Y-46419552D01*
X82745219Y-46485831D01*
X82315400Y-46551506D01*
X81860544Y-46608573D01*
X81847367Y-46610030D01*
X81430900Y-46657614D01*
X81093806Y-46704325D01*
X80801222Y-46760541D01*
X80518287Y-46836641D01*
X80210138Y-46943003D01*
X79841914Y-47090006D01*
X79378752Y-47288029D01*
X78970160Y-47466603D01*
X78263501Y-47758159D01*
X77611791Y-47991357D01*
X77039922Y-48158600D01*
X76572787Y-48252291D01*
X76336986Y-48270150D01*
X76042829Y-48196853D01*
X75743667Y-48002422D01*
X75491854Y-47725041D01*
X75415340Y-47597922D01*
X75339790Y-47410140D01*
X75243336Y-47112805D01*
X75143552Y-46761269D01*
X75116100Y-46655507D01*
X74990349Y-46212281D01*
X74846985Y-45840722D01*
X74660994Y-45495717D01*
X74407363Y-45132151D01*
X74061076Y-44704908D01*
X73984955Y-44615398D01*
X73080269Y-43683520D01*
X72044196Y-42844605D01*
X70892228Y-42107353D01*
X69639860Y-41480467D01*
X68302584Y-40972646D01*
X66895894Y-40592593D01*
X66776700Y-40567104D01*
X66142611Y-40462856D01*
X65394925Y-40386035D01*
X64587488Y-40338844D01*
X63774148Y-40323488D01*
X63008751Y-40342169D01*
X62416367Y-40388656D01*
X60887415Y-40644533D01*
X59416106Y-41056973D01*
X58011158Y-41620427D01*
X56681294Y-42329347D01*
X55435233Y-43178182D01*
X54281697Y-44161383D01*
X53229405Y-45273402D01*
X52287080Y-46508688D01*
X51925208Y-47064518D01*
X51112260Y-48533557D01*
X50452455Y-50065844D01*
X49947174Y-51649513D01*
X49597801Y-53272697D01*
X49405716Y-54923528D01*
X49372302Y-56590140D01*
X49199520Y-56590140D01*
X49192726Y-56465837D01*
X49188956Y-56017150D01*
X49235317Y-54647882D01*
X49378179Y-53358225D01*
X49627031Y-52092852D01*
X49991361Y-50796438D01*
X50182137Y-50226400D01*
X50632187Y-49103859D01*
X51200921Y-47952612D01*
X51858948Y-46823507D01*
X52576882Y-45767389D01*
X53245256Y-44926741D01*
X54209131Y-43934493D01*
X55302457Y-43028595D01*
X56502001Y-42222175D01*
X57784532Y-41528362D01*
X59126816Y-40960283D01*
X60505621Y-40531067D01*
X61358033Y-40342420D01*
X61899665Y-40266153D01*
X62557606Y-40212669D01*
X63292525Y-40181719D01*
X64065090Y-40173055D01*
X64835968Y-40186428D01*
X65565827Y-40221590D01*
X66215334Y-40278291D01*
X66745159Y-40356283D01*
X66845592Y-40377126D01*
X68353321Y-40787253D01*
X69761130Y-41322586D01*
X71062918Y-41979528D01*
X72252582Y-42754480D01*
X73324020Y-43643848D01*
X74271130Y-44644033D01*
X74444281Y-44856030D01*
X74674243Y-45156806D01*
X74852436Y-45428134D01*
X74998078Y-45711218D01*
X75130392Y-46047261D01*
X75268597Y-46477466D01*
X75381648Y-46865510D01*
X75520323Y-47285699D01*
X75670281Y-47586989D01*
X75856477Y-47819263D01*
X75861163Y-47823969D01*
X76053283Y-47998940D01*
X76209556Y-48072322D01*
X76404224Y-48071185D01*
X76500981Y-48057277D01*
X77002938Y-47960644D01*
X77505860Y-47824454D01*
X78051714Y-47634983D01*
X78682467Y-47378504D01*
X78998926Y-47240349D01*
X79565644Y-46992921D01*
X80020553Y-46807319D01*
X80404365Y-46671816D01*
X80757794Y-46574681D01*
X81121553Y-46504188D01*
X81536356Y-46448606D01*
X81870369Y-46413141D01*
X82481665Y-46341470D01*
X82955708Y-46257495D01*
X83324570Y-46150647D01*
X83620324Y-46010356D01*
X83875040Y-45826054D01*
X83999805Y-45711386D01*
X84248322Y-45427674D01*
X84473427Y-45077587D01*
X84683696Y-44640802D01*
X84887703Y-44096998D01*
X85094022Y-43425853D01*
X85311228Y-42607045D01*
X85313624Y-42597483D01*
X85541336Y-41748510D01*
X85767120Y-41041080D01*
X86002845Y-40447966D01*
X86260376Y-39941940D01*
X86551582Y-39495775D01*
X86803621Y-39178921D01*
X87514503Y-38456528D01*
X88274666Y-37893802D01*
X89093457Y-37485857D01*
X89980222Y-37227804D01*
X90725944Y-37127370D01*
X91553832Y-37137795D01*
G37*
X128315327Y-117019483D02*
X128746467Y-118052048D01*
X129050433Y-119050599D01*
X129238756Y-120067564D01*
X129322966Y-121155370D01*
X129330075Y-121633817D01*
X129246749Y-123017248D01*
X129005192Y-124375980D01*
X128614613Y-125697241D01*
X128084221Y-126968263D01*
X127423225Y-128176274D01*
X126640833Y-129308506D01*
X125746256Y-130352187D01*
X124748701Y-131294550D01*
X123657378Y-132122823D01*
X122481495Y-132824237D01*
X121230262Y-133386022D01*
X120726993Y-133563488D01*
X119955407Y-133779735D01*
X119058920Y-133971738D01*
X118080878Y-134134376D01*
X117064630Y-134262531D01*
X116053523Y-134351086D01*
X115090906Y-134394920D01*
X114220126Y-134388914D01*
X113893700Y-134370410D01*
X112970977Y-134249660D01*
X112139843Y-134035653D01*
X111420554Y-133735153D01*
X110833367Y-133354926D01*
X110819826Y-133343859D01*
X110582286Y-133148483D01*
X113021160Y-133148483D01*
X113933565Y-133143999D01*
X114709364Y-133128403D01*
X115381096Y-133098476D01*
X115981304Y-133051003D01*
X116542530Y-132982765D01*
X117097314Y-132890545D01*
X117678199Y-132771127D01*
X118293299Y-132627256D01*
X119755825Y-132202051D01*
X121104962Y-131669117D01*
X122335935Y-131032545D01*
X123443966Y-130296425D01*
X124424279Y-129464849D01*
X125272096Y-128541908D01*
X125982642Y-127531693D01*
X126551140Y-126438294D01*
X126972813Y-125265803D01*
X126999440Y-125170965D01*
X127227268Y-124343150D01*
X127227984Y-120956483D01*
X127228403Y-120109305D01*
X127229856Y-119413815D01*
X127233221Y-118852368D01*
X127239381Y-118407321D01*
X127249214Y-118061027D01*
X127263601Y-117795843D01*
X127283422Y-117594123D01*
X127309558Y-117438223D01*
X127342889Y-117310497D01*
X127384295Y-117193302D01*
X127420172Y-117104150D01*
X127555058Y-116808125D01*
X127696687Y-116545962D01*
X127775576Y-116426817D01*
X127939509Y-116215150D01*
X128315327Y-117019483D01*
G36*
X128315327Y-117019483D02*
G01*
X128746467Y-118052048D01*
X129050433Y-119050599D01*
X129238756Y-120067564D01*
X129322966Y-121155370D01*
X129330075Y-121633817D01*
X129246749Y-123017248D01*
X129005192Y-124375980D01*
X128614613Y-125697241D01*
X128084221Y-126968263D01*
X127423225Y-128176274D01*
X126640833Y-129308506D01*
X125746256Y-130352187D01*
X124748701Y-131294550D01*
X123657378Y-132122823D01*
X122481495Y-132824237D01*
X121230262Y-133386022D01*
X120726993Y-133563488D01*
X119955407Y-133779735D01*
X119058920Y-133971738D01*
X118080878Y-134134376D01*
X117064630Y-134262531D01*
X116053523Y-134351086D01*
X115090906Y-134394920D01*
X114220126Y-134388914D01*
X113893700Y-134370410D01*
X112970977Y-134249660D01*
X112139843Y-134035653D01*
X111420554Y-133735153D01*
X110833367Y-133354926D01*
X110819826Y-133343859D01*
X110582286Y-133148483D01*
X113021160Y-133148483D01*
X113933565Y-133143999D01*
X114709364Y-133128403D01*
X115381096Y-133098476D01*
X115981304Y-133051003D01*
X116542530Y-132982765D01*
X117097314Y-132890545D01*
X117678199Y-132771127D01*
X118293299Y-132627256D01*
X119755825Y-132202051D01*
X121104962Y-131669117D01*
X122335935Y-131032545D01*
X123443966Y-130296425D01*
X124424279Y-129464849D01*
X125272096Y-128541908D01*
X125982642Y-127531693D01*
X126551140Y-126438294D01*
X126972813Y-125265803D01*
X126999440Y-125170965D01*
X127227268Y-124343150D01*
X127227984Y-120956483D01*
X127228403Y-120109305D01*
X127229856Y-119413815D01*
X127233221Y-118852368D01*
X127239381Y-118407321D01*
X127249214Y-118061027D01*
X127263601Y-117795843D01*
X127283422Y-117594123D01*
X127309558Y-117438223D01*
X127342889Y-117310497D01*
X127384295Y-117193302D01*
X127420172Y-117104150D01*
X127555058Y-116808125D01*
X127696687Y-116545962D01*
X127775576Y-116426817D01*
X127939509Y-116215150D01*
X128315327Y-117019483D01*
G37*
X72803545Y-114689050D02*
X73475839Y-114840668D01*
X74213886Y-115094093D01*
X74967867Y-115427375D01*
X75687959Y-115818562D01*
X76307226Y-116232787D01*
X76756551Y-116610470D01*
X77248665Y-117090648D01*
X77742895Y-117628480D01*
X78198568Y-118179127D01*
X78575010Y-118697747D01*
X78653164Y-118819048D01*
X79252235Y-119927298D01*
X79711702Y-121099100D01*
X80029156Y-122313833D01*
X80202191Y-123550875D01*
X80228401Y-124789604D01*
X80105376Y-126009397D01*
X79830712Y-127189632D01*
X79682118Y-127634347D01*
X79458550Y-128170882D01*
X79148610Y-128803189D01*
X78772112Y-129495137D01*
X78348869Y-130210595D01*
X77898693Y-130913432D01*
X77819042Y-131031817D01*
X77406971Y-131592053D01*
X76940717Y-132147032D01*
X76458504Y-132655144D01*
X75998557Y-133074777D01*
X75798222Y-133231600D01*
X75552581Y-133381414D01*
X75236626Y-133534941D01*
X74907423Y-133668555D01*
X74622037Y-133758635D01*
X74465068Y-133783483D01*
X74383236Y-133766372D01*
X74411855Y-133689863D01*
X74489411Y-133593414D01*
X74626904Y-133434788D01*
X74833267Y-133200524D01*
X75064183Y-132940929D01*
X75067474Y-132937248D01*
X75921354Y-131896819D01*
X76708579Y-130768554D01*
X77405465Y-129591851D01*
X77988325Y-128406110D01*
X78366373Y-127449525D01*
X78636548Y-126577636D01*
X78811489Y-125762957D01*
X78903697Y-124932059D01*
X78926367Y-124160894D01*
X78890223Y-123234165D01*
X78775136Y-122390245D01*
X78571124Y-121613125D01*
X78268203Y-120886798D01*
X77856392Y-120195255D01*
X77325707Y-119522488D01*
X76666166Y-118852490D01*
X75867785Y-118169251D01*
X74920583Y-117456765D01*
X74608367Y-117236632D01*
X73979372Y-116785760D01*
X73483602Y-116397366D01*
X73104971Y-116054051D01*
X72827394Y-115738414D01*
X72634786Y-115433054D01*
X72511062Y-115120572D01*
X72461658Y-114914400D01*
X72407433Y-114629650D01*
X72803545Y-114689050D01*
G36*
X72803545Y-114689050D02*
G01*
X73475839Y-114840668D01*
X74213886Y-115094093D01*
X74967867Y-115427375D01*
X75687959Y-115818562D01*
X76307226Y-116232787D01*
X76756551Y-116610470D01*
X77248665Y-117090648D01*
X77742895Y-117628480D01*
X78198568Y-118179127D01*
X78575010Y-118697747D01*
X78653164Y-118819048D01*
X79252235Y-119927298D01*
X79711702Y-121099100D01*
X80029156Y-122313833D01*
X80202191Y-123550875D01*
X80228401Y-124789604D01*
X80105376Y-126009397D01*
X79830712Y-127189632D01*
X79682118Y-127634347D01*
X79458550Y-128170882D01*
X79148610Y-128803189D01*
X78772112Y-129495137D01*
X78348869Y-130210595D01*
X77898693Y-130913432D01*
X77819042Y-131031817D01*
X77406971Y-131592053D01*
X76940717Y-132147032D01*
X76458504Y-132655144D01*
X75998557Y-133074777D01*
X75798222Y-133231600D01*
X75552581Y-133381414D01*
X75236626Y-133534941D01*
X74907423Y-133668555D01*
X74622037Y-133758635D01*
X74465068Y-133783483D01*
X74383236Y-133766372D01*
X74411855Y-133689863D01*
X74489411Y-133593414D01*
X74626904Y-133434788D01*
X74833267Y-133200524D01*
X75064183Y-132940929D01*
X75067474Y-132937248D01*
X75921354Y-131896819D01*
X76708579Y-130768554D01*
X77405465Y-129591851D01*
X77988325Y-128406110D01*
X78366373Y-127449525D01*
X78636548Y-126577636D01*
X78811489Y-125762957D01*
X78903697Y-124932059D01*
X78926367Y-124160894D01*
X78890223Y-123234165D01*
X78775136Y-122390245D01*
X78571124Y-121613125D01*
X78268203Y-120886798D01*
X77856392Y-120195255D01*
X77325707Y-119522488D01*
X76666166Y-118852490D01*
X75867785Y-118169251D01*
X74920583Y-117456765D01*
X74608367Y-117236632D01*
X73979372Y-116785760D01*
X73483602Y-116397366D01*
X73104971Y-116054051D01*
X72827394Y-115738414D01*
X72634786Y-115433054D01*
X72511062Y-115120572D01*
X72461658Y-114914400D01*
X72407433Y-114629650D01*
X72803545Y-114689050D01*
G37*
X82822141Y-103320966D02*
X83727494Y-103512651D01*
X84493397Y-103670443D01*
X85145607Y-103797609D01*
X85709879Y-103897418D01*
X86211970Y-103973136D01*
X86677635Y-104028032D01*
X87132630Y-104065374D01*
X87602712Y-104088430D01*
X88113635Y-104100466D01*
X88691157Y-104104753D01*
X89001700Y-104105016D01*
X89860819Y-104096931D01*
X90585150Y-104070605D01*
X91208666Y-104021734D01*
X91765338Y-103946013D01*
X92289138Y-103839138D01*
X92814037Y-103696804D01*
X93203917Y-103572562D01*
X93592012Y-103451572D01*
X93856317Y-103407440D01*
X94030812Y-103455532D01*
X94149480Y-103611209D01*
X94246300Y-103889836D01*
X94293257Y-104065062D01*
X94555299Y-104850723D01*
X94917000Y-105603627D01*
X95355311Y-106285582D01*
X95847185Y-106858392D01*
X96132871Y-107113615D01*
X96919476Y-107635667D01*
X97820685Y-108041081D01*
X98823979Y-108325083D01*
X99658367Y-108458043D01*
X100012011Y-108501564D01*
X100251021Y-108552245D01*
X100429425Y-108632303D01*
X100601250Y-108763951D01*
X100759034Y-108910605D01*
X101416882Y-109514680D01*
X102077001Y-110068696D01*
X102773630Y-110598022D01*
X103541010Y-111128030D01*
X104413379Y-111684088D01*
X104908240Y-111984979D01*
X105376200Y-112268232D01*
X105808603Y-112534523D01*
X106178994Y-112767203D01*
X106460920Y-112949620D01*
X106627924Y-113065124D01*
X106642480Y-113076500D01*
X106884261Y-113272446D01*
X105917098Y-114489798D01*
X105113285Y-115520280D01*
X104421845Y-116450239D01*
X103833316Y-117296753D01*
X103338236Y-118076902D01*
X102927142Y-118807762D01*
X102590572Y-119506413D01*
X102319066Y-120189933D01*
X102103160Y-120875401D01*
X101933393Y-121579894D01*
X101901606Y-121737543D01*
X101825640Y-122270799D01*
X101777365Y-122914816D01*
X101757401Y-123613197D01*
X101766369Y-124309549D01*
X101804889Y-124947477D01*
X101861300Y-125401483D01*
X102123165Y-126636309D01*
X102500134Y-127936378D01*
X102978219Y-129257348D01*
X103366301Y-130172380D01*
X103493741Y-130479196D01*
X103576467Y-130727506D01*
X103602251Y-130878138D01*
X103594070Y-130902100D01*
X103479874Y-130953667D01*
X103227829Y-131037681D01*
X102864669Y-131146767D01*
X102417131Y-131273551D01*
X101911948Y-131410659D01*
X101375856Y-131550716D01*
X100835591Y-131686348D01*
X100317887Y-131810181D01*
X100220033Y-131832740D01*
X98227953Y-132239383D01*
X96230991Y-132545107D01*
X94175561Y-132757189D01*
X92717738Y-132851598D01*
X92090837Y-132882069D01*
X91586116Y-132902690D01*
X91156732Y-132913887D01*
X90755846Y-132916084D01*
X90336614Y-132909707D01*
X89852196Y-132895180D01*
X89467367Y-132881081D01*
X87358161Y-132745034D01*
X85200237Y-132499837D01*
X83048531Y-132153823D01*
X80957974Y-131715322D01*
X79730700Y-131404479D01*
X79294060Y-131285147D01*
X78919760Y-131181263D01*
X78636128Y-131100817D01*
X78471493Y-131051800D01*
X78441744Y-131040973D01*
X78479395Y-130969245D01*
X78596171Y-130793852D01*
X78770241Y-130547077D01*
X78851975Y-130434305D01*
X79616352Y-129257420D01*
X80215226Y-128046878D01*
X80649367Y-126801071D01*
X80721986Y-126525562D01*
X80826264Y-125956222D01*
X80892243Y-125274464D01*
X80919481Y-124532915D01*
X80907536Y-123784203D01*
X80855966Y-123080959D01*
X80764328Y-122475809D01*
X80756329Y-122438150D01*
X80464264Y-121369470D01*
X80048529Y-120253490D01*
X79528130Y-119134107D01*
X78922078Y-118055218D01*
X78720832Y-117737460D01*
X78523319Y-117428372D01*
X78366443Y-117171316D01*
X78269998Y-116999416D01*
X78249033Y-116947909D01*
X78323766Y-116892646D01*
X78516132Y-116820150D01*
X78693533Y-116769818D01*
X79270935Y-116608252D01*
X79917391Y-116401661D01*
X80580178Y-116168914D01*
X81206572Y-115928878D01*
X81743850Y-115700420D01*
X81937032Y-115609120D01*
X82562360Y-115271303D01*
X83103388Y-114906738D01*
X83608278Y-114477568D01*
X84125192Y-113945936D01*
X84292754Y-113757442D01*
X84787897Y-113146296D01*
X85151630Y-112579432D01*
X85398594Y-112015434D01*
X85543426Y-111412887D01*
X85600765Y-110730377D01*
X85592667Y-110079760D01*
X85488029Y-109073190D01*
X85267394Y-108035971D01*
X84944478Y-107003011D01*
X84533000Y-106009220D01*
X84046678Y-105089506D01*
X83499229Y-104278778D01*
X83149057Y-103861279D01*
X82904891Y-103589955D01*
X82768338Y-103420617D01*
X82728137Y-103334655D01*
X82773030Y-103313461D01*
X82822141Y-103320966D01*
G36*
X82822141Y-103320966D02*
G01*
X83727494Y-103512651D01*
X84493397Y-103670443D01*
X85145607Y-103797609D01*
X85709879Y-103897418D01*
X86211970Y-103973136D01*
X86677635Y-104028032D01*
X87132630Y-104065374D01*
X87602712Y-104088430D01*
X88113635Y-104100466D01*
X88691157Y-104104753D01*
X89001700Y-104105016D01*
X89860819Y-104096931D01*
X90585150Y-104070605D01*
X91208666Y-104021734D01*
X91765338Y-103946013D01*
X92289138Y-103839138D01*
X92814037Y-103696804D01*
X93203917Y-103572562D01*
X93592012Y-103451572D01*
X93856317Y-103407440D01*
X94030812Y-103455532D01*
X94149480Y-103611209D01*
X94246300Y-103889836D01*
X94293257Y-104065062D01*
X94555299Y-104850723D01*
X94917000Y-105603627D01*
X95355311Y-106285582D01*
X95847185Y-106858392D01*
X96132871Y-107113615D01*
X96919476Y-107635667D01*
X97820685Y-108041081D01*
X98823979Y-108325083D01*
X99658367Y-108458043D01*
X100012011Y-108501564D01*
X100251021Y-108552245D01*
X100429425Y-108632303D01*
X100601250Y-108763951D01*
X100759034Y-108910605D01*
X101416882Y-109514680D01*
X102077001Y-110068696D01*
X102773630Y-110598022D01*
X103541010Y-111128030D01*
X104413379Y-111684088D01*
X104908240Y-111984979D01*
X105376200Y-112268232D01*
X105808603Y-112534523D01*
X106178994Y-112767203D01*
X106460920Y-112949620D01*
X106627924Y-113065124D01*
X106642480Y-113076500D01*
X106884261Y-113272446D01*
X105917098Y-114489798D01*
X105113285Y-115520280D01*
X104421845Y-116450239D01*
X103833316Y-117296753D01*
X103338236Y-118076902D01*
X102927142Y-118807762D01*
X102590572Y-119506413D01*
X102319066Y-120189933D01*
X102103160Y-120875401D01*
X101933393Y-121579894D01*
X101901606Y-121737543D01*
X101825640Y-122270799D01*
X101777365Y-122914816D01*
X101757401Y-123613197D01*
X101766369Y-124309549D01*
X101804889Y-124947477D01*
X101861300Y-125401483D01*
X102123165Y-126636309D01*
X102500134Y-127936378D01*
X102978219Y-129257348D01*
X103366301Y-130172380D01*
X103493741Y-130479196D01*
X103576467Y-130727506D01*
X103602251Y-130878138D01*
X103594070Y-130902100D01*
X103479874Y-130953667D01*
X103227829Y-131037681D01*
X102864669Y-131146767D01*
X102417131Y-131273551D01*
X101911948Y-131410659D01*
X101375856Y-131550716D01*
X100835591Y-131686348D01*
X100317887Y-131810181D01*
X100220033Y-131832740D01*
X98227953Y-132239383D01*
X96230991Y-132545107D01*
X94175561Y-132757189D01*
X92717738Y-132851598D01*
X92090837Y-132882069D01*
X91586116Y-132902690D01*
X91156732Y-132913887D01*
X90755846Y-132916084D01*
X90336614Y-132909707D01*
X89852196Y-132895180D01*
X89467367Y-132881081D01*
X87358161Y-132745034D01*
X85200237Y-132499837D01*
X83048531Y-132153823D01*
X80957974Y-131715322D01*
X79730700Y-131404479D01*
X79294060Y-131285147D01*
X78919760Y-131181263D01*
X78636128Y-131100817D01*
X78471493Y-131051800D01*
X78441744Y-131040973D01*
X78479395Y-130969245D01*
X78596171Y-130793852D01*
X78770241Y-130547077D01*
X78851975Y-130434305D01*
X79616352Y-129257420D01*
X80215226Y-128046878D01*
X80649367Y-126801071D01*
X80721986Y-126525562D01*
X80826264Y-125956222D01*
X80892243Y-125274464D01*
X80919481Y-124532915D01*
X80907536Y-123784203D01*
X80855966Y-123080959D01*
X80764328Y-122475809D01*
X80756329Y-122438150D01*
X80464264Y-121369470D01*
X80048529Y-120253490D01*
X79528130Y-119134107D01*
X78922078Y-118055218D01*
X78720832Y-117737460D01*
X78523319Y-117428372D01*
X78366443Y-117171316D01*
X78269998Y-116999416D01*
X78249033Y-116947909D01*
X78323766Y-116892646D01*
X78516132Y-116820150D01*
X78693533Y-116769818D01*
X79270935Y-116608252D01*
X79917391Y-116401661D01*
X80580178Y-116168914D01*
X81206572Y-115928878D01*
X81743850Y-115700420D01*
X81937032Y-115609120D01*
X82562360Y-115271303D01*
X83103388Y-114906738D01*
X83608278Y-114477568D01*
X84125192Y-113945936D01*
X84292754Y-113757442D01*
X84787897Y-113146296D01*
X85151630Y-112579432D01*
X85398594Y-112015434D01*
X85543426Y-111412887D01*
X85600765Y-110730377D01*
X85592667Y-110079760D01*
X85488029Y-109073190D01*
X85267394Y-108035971D01*
X84944478Y-107003011D01*
X84533000Y-106009220D01*
X84046678Y-105089506D01*
X83499229Y-104278778D01*
X83149057Y-103861279D01*
X82904891Y-103589955D01*
X82768338Y-103420617D01*
X82728137Y-103334655D01*
X82773030Y-103313461D01*
X82822141Y-103320966D01*
G37*
X62549354Y-111658900D02*
X62559326Y-111765763D01*
X62539897Y-111875983D01*
X62448506Y-112196522D01*
X62310188Y-112477203D01*
X62104195Y-112739229D01*
X61809779Y-113003800D01*
X61406192Y-113292119D01*
X60872688Y-113625387D01*
X60765367Y-113689349D01*
X60342116Y-113947417D01*
X59908600Y-114223763D01*
X59520143Y-114482495D01*
X59267953Y-114660835D01*
X58476283Y-115341605D01*
X57762210Y-116142856D01*
X57148580Y-117031511D01*
X56658238Y-117974496D01*
X56314664Y-118936423D01*
X56196176Y-119511939D01*
X56116956Y-120197119D01*
X56078841Y-120936480D01*
X56083666Y-121674543D01*
X56133268Y-122355825D01*
X56188998Y-122734483D01*
X56504479Y-124003664D01*
X56977655Y-125287003D01*
X57599824Y-126567251D01*
X58362285Y-127827156D01*
X59256338Y-129049469D01*
X59561781Y-129421527D01*
X59937427Y-129866721D01*
X60216372Y-130198480D01*
X60410467Y-130433331D01*
X60531563Y-130587802D01*
X60591509Y-130678422D01*
X60602157Y-130721717D01*
X60575357Y-130734216D01*
X60522958Y-130732447D01*
X60501051Y-130731523D01*
X60329873Y-130699177D01*
X60078806Y-130621814D01*
X59953209Y-130575437D01*
X59343387Y-130260120D01*
X58724866Y-129787005D01*
X58095668Y-129153910D01*
X57453815Y-128358649D01*
X56797329Y-127399039D01*
X56239918Y-126476191D01*
X55759190Y-125582466D01*
X55390613Y-124757556D01*
X55119582Y-123957990D01*
X54931494Y-123140300D01*
X54811748Y-122261017D01*
X54806902Y-122210512D01*
X54771134Y-120954224D01*
X54894192Y-119699235D01*
X55168693Y-118465461D01*
X55587249Y-117272820D01*
X56142478Y-116141229D01*
X56826993Y-115090604D01*
X57633409Y-114140862D01*
X57895461Y-113881008D01*
X58787387Y-113137101D01*
X59762561Y-112517831D01*
X60792579Y-112039303D01*
X61606812Y-111776456D01*
X62026166Y-111670470D01*
X62306934Y-111613831D01*
X62473276Y-111609115D01*
X62549354Y-111658900D01*
G36*
X62549354Y-111658900D02*
G01*
X62559326Y-111765763D01*
X62539897Y-111875983D01*
X62448506Y-112196522D01*
X62310188Y-112477203D01*
X62104195Y-112739229D01*
X61809779Y-113003800D01*
X61406192Y-113292119D01*
X60872688Y-113625387D01*
X60765367Y-113689349D01*
X60342116Y-113947417D01*
X59908600Y-114223763D01*
X59520143Y-114482495D01*
X59267953Y-114660835D01*
X58476283Y-115341605D01*
X57762210Y-116142856D01*
X57148580Y-117031511D01*
X56658238Y-117974496D01*
X56314664Y-118936423D01*
X56196176Y-119511939D01*
X56116956Y-120197119D01*
X56078841Y-120936480D01*
X56083666Y-121674543D01*
X56133268Y-122355825D01*
X56188998Y-122734483D01*
X56504479Y-124003664D01*
X56977655Y-125287003D01*
X57599824Y-126567251D01*
X58362285Y-127827156D01*
X59256338Y-129049469D01*
X59561781Y-129421527D01*
X59937427Y-129866721D01*
X60216372Y-130198480D01*
X60410467Y-130433331D01*
X60531563Y-130587802D01*
X60591509Y-130678422D01*
X60602157Y-130721717D01*
X60575357Y-130734216D01*
X60522958Y-130732447D01*
X60501051Y-130731523D01*
X60329873Y-130699177D01*
X60078806Y-130621814D01*
X59953209Y-130575437D01*
X59343387Y-130260120D01*
X58724866Y-129787005D01*
X58095668Y-129153910D01*
X57453815Y-128358649D01*
X56797329Y-127399039D01*
X56239918Y-126476191D01*
X55759190Y-125582466D01*
X55390613Y-124757556D01*
X55119582Y-123957990D01*
X54931494Y-123140300D01*
X54811748Y-122261017D01*
X54806902Y-122210512D01*
X54771134Y-120954224D01*
X54894192Y-119699235D01*
X55168693Y-118465461D01*
X55587249Y-117272820D01*
X56142478Y-116141229D01*
X56826993Y-115090604D01*
X57633409Y-114140862D01*
X57895461Y-113881008D01*
X58787387Y-113137101D01*
X59762561Y-112517831D01*
X60792579Y-112039303D01*
X61606812Y-111776456D01*
X62026166Y-111670470D01*
X62306934Y-111613831D01*
X62473276Y-111609115D01*
X62549354Y-111658900D01*
G37*
X67387098Y-118942684D02*
X67780979Y-118980397D01*
X68093928Y-119034367D01*
X68131367Y-119043988D01*
X68929880Y-119348614D01*
X69686157Y-119802117D01*
X70384471Y-120386124D01*
X71009090Y-121082267D01*
X71544285Y-121872173D01*
X71974328Y-122737474D01*
X72283487Y-123659798D01*
X72357578Y-123979747D01*
X72483284Y-124937962D01*
X72463853Y-125856681D01*
X72304467Y-126721446D01*
X72010309Y-127517804D01*
X71586559Y-128231299D01*
X71038399Y-128847475D01*
X70449534Y-129302673D01*
X69860710Y-129598194D01*
X69174386Y-129807995D01*
X68444576Y-129921964D01*
X67725298Y-129929990D01*
X67344386Y-129883935D01*
X66444067Y-129641531D01*
X65611747Y-129253572D01*
X64858116Y-128733844D01*
X64193861Y-128096135D01*
X63629672Y-127354228D01*
X63176237Y-126521911D01*
X62844244Y-125612970D01*
X62644383Y-124641189D01*
X62586293Y-123747105D01*
X62600850Y-123279441D01*
X62640763Y-122826144D01*
X62699452Y-122456728D01*
X62714530Y-122392438D01*
X63005376Y-121563721D01*
X63423566Y-120826001D01*
X63954023Y-120191497D01*
X64581669Y-119672427D01*
X65291427Y-119281011D01*
X66068219Y-119029468D01*
X66896969Y-118930015D01*
X66988367Y-118928889D01*
X67387098Y-118942684D01*
G36*
X67387098Y-118942684D02*
G01*
X67780979Y-118980397D01*
X68093928Y-119034367D01*
X68131367Y-119043988D01*
X68929880Y-119348614D01*
X69686157Y-119802117D01*
X70384471Y-120386124D01*
X71009090Y-121082267D01*
X71544285Y-121872173D01*
X71974328Y-122737474D01*
X72283487Y-123659798D01*
X72357578Y-123979747D01*
X72483284Y-124937962D01*
X72463853Y-125856681D01*
X72304467Y-126721446D01*
X72010309Y-127517804D01*
X71586559Y-128231299D01*
X71038399Y-128847475D01*
X70449534Y-129302673D01*
X69860710Y-129598194D01*
X69174386Y-129807995D01*
X68444576Y-129921964D01*
X67725298Y-129929990D01*
X67344386Y-129883935D01*
X66444067Y-129641531D01*
X65611747Y-129253572D01*
X64858116Y-128733844D01*
X64193861Y-128096135D01*
X63629672Y-127354228D01*
X63176237Y-126521911D01*
X62844244Y-125612970D01*
X62644383Y-124641189D01*
X62586293Y-123747105D01*
X62600850Y-123279441D01*
X62640763Y-122826144D01*
X62699452Y-122456728D01*
X62714530Y-122392438D01*
X63005376Y-121563721D01*
X63423566Y-120826001D01*
X63954023Y-120191497D01*
X64581669Y-119672427D01*
X65291427Y-119281011D01*
X66068219Y-119029468D01*
X66896969Y-118930015D01*
X66988367Y-118928889D01*
X67387098Y-118942684D01*
G37*
X116550778Y-118540816D02*
X117324884Y-118767906D01*
X118026091Y-119129728D01*
X118644139Y-119613135D01*
X119168770Y-120204979D01*
X119589724Y-120892112D01*
X119896741Y-121661386D01*
X120079563Y-122499653D01*
X120127928Y-123393766D01*
X120075586Y-124051078D01*
X119940073Y-124756650D01*
X119729146Y-125482613D01*
X119464794Y-126162432D01*
X119216292Y-126651266D01*
X118930662Y-127064651D01*
X118550228Y-127511380D01*
X118113537Y-127954336D01*
X117659134Y-128356403D01*
X117225566Y-128680465D01*
X116928319Y-128854388D01*
X116073721Y-129194842D01*
X115205850Y-129394199D01*
X114352294Y-129448653D01*
X113540642Y-129354401D01*
X113451118Y-129333828D01*
X112696207Y-129066107D01*
X112007419Y-128654195D01*
X111403589Y-128116495D01*
X110903554Y-127471414D01*
X110526151Y-126737356D01*
X110389081Y-126341891D01*
X110213850Y-125454481D01*
X110188795Y-124534105D01*
X110304082Y-123603214D01*
X110549879Y-122684255D01*
X110916352Y-121799677D01*
X111393666Y-120971930D01*
X111971990Y-120223462D01*
X112641488Y-119576721D01*
X113392328Y-119054158D01*
X113639700Y-118921071D01*
X114200949Y-118679614D01*
X114757026Y-118533611D01*
X115373879Y-118468453D01*
X115714033Y-118461607D01*
X116550778Y-118540816D01*
G36*
X116550778Y-118540816D02*
G01*
X117324884Y-118767906D01*
X118026091Y-119129728D01*
X118644139Y-119613135D01*
X119168770Y-120204979D01*
X119589724Y-120892112D01*
X119896741Y-121661386D01*
X120079563Y-122499653D01*
X120127928Y-123393766D01*
X120075586Y-124051078D01*
X119940073Y-124756650D01*
X119729146Y-125482613D01*
X119464794Y-126162432D01*
X119216292Y-126651266D01*
X118930662Y-127064651D01*
X118550228Y-127511380D01*
X118113537Y-127954336D01*
X117659134Y-128356403D01*
X117225566Y-128680465D01*
X116928319Y-128854388D01*
X116073721Y-129194842D01*
X115205850Y-129394199D01*
X114352294Y-129448653D01*
X113540642Y-129354401D01*
X113451118Y-129333828D01*
X112696207Y-129066107D01*
X112007419Y-128654195D01*
X111403589Y-128116495D01*
X110903554Y-127471414D01*
X110526151Y-126737356D01*
X110389081Y-126341891D01*
X110213850Y-125454481D01*
X110188795Y-124534105D01*
X110304082Y-123603214D01*
X110549879Y-122684255D01*
X110916352Y-121799677D01*
X111393666Y-120971930D01*
X111971990Y-120223462D01*
X112641488Y-119576721D01*
X113392328Y-119054158D01*
X113639700Y-118921071D01*
X114200949Y-118679614D01*
X114757026Y-118533611D01*
X115373879Y-118468453D01*
X115714033Y-118461607D01*
X116550778Y-118540816D01*
G37*
X118618793Y-110631384D02*
X119315698Y-110651777D01*
X119948449Y-110685571D01*
X120480244Y-110732479D01*
X120823795Y-110782144D01*
X121966520Y-111046365D01*
X122967884Y-111383410D01*
X123842458Y-111800086D01*
X124604818Y-112303201D01*
X125196700Y-112825120D01*
X125494724Y-113139325D01*
X125766257Y-113451917D01*
X125976003Y-113720840D01*
X126069951Y-113865650D01*
X126181872Y-114080679D01*
X126213250Y-114186966D01*
X126168191Y-114222427D01*
X126108906Y-114225483D01*
X125821962Y-114188725D01*
X125414372Y-114076876D01*
X124879410Y-113887580D01*
X124210354Y-113618478D01*
X123488453Y-113306305D01*
X122678692Y-112953194D01*
X121989755Y-112667002D01*
X121391948Y-112437067D01*
X120855578Y-112252731D01*
X120350952Y-112103333D01*
X119848375Y-111978213D01*
X119692657Y-111943621D01*
X118368627Y-111741258D01*
X117035767Y-111698926D01*
X115705674Y-111808559D01*
X114389948Y-112062094D01*
X113100185Y-112451465D01*
X111847985Y-112968607D01*
X110644946Y-113605454D01*
X109502666Y-114353942D01*
X108432743Y-115206005D01*
X107446776Y-116153578D01*
X106556363Y-117188597D01*
X105773101Y-118302995D01*
X105108590Y-119488707D01*
X104574427Y-120737670D01*
X104182212Y-122041816D01*
X104020832Y-122841431D01*
X103972288Y-123176707D01*
X103939416Y-123518050D01*
X103921163Y-123899347D01*
X103916476Y-124354486D01*
X103924302Y-124917354D01*
X103939048Y-125474041D01*
X103955889Y-126137010D01*
X103961407Y-126645138D01*
X103955282Y-127012555D01*
X103937194Y-127253397D01*
X103906825Y-127381794D01*
X103895516Y-127400207D01*
X103768499Y-127506100D01*
X103645204Y-127469543D01*
X103545365Y-127369983D01*
X103353759Y-127090642D01*
X103193877Y-126715893D01*
X103057469Y-126221375D01*
X102936284Y-125582727D01*
X102932906Y-125561768D01*
X102893964Y-125177024D01*
X102875145Y-124669142D01*
X102875090Y-124082952D01*
X102892441Y-123463280D01*
X102925839Y-122854956D01*
X102973925Y-122302807D01*
X103035340Y-121851661D01*
X103047335Y-121786549D01*
X103401439Y-120400642D01*
X103915335Y-119069454D01*
X104587900Y-117794983D01*
X105418010Y-116579224D01*
X106404542Y-115424173D01*
X106921951Y-114902817D01*
X108148876Y-113835668D01*
X109457026Y-112917038D01*
X110845439Y-112147398D01*
X112313154Y-111527215D01*
X113859208Y-111056958D01*
X115460033Y-110740439D01*
X115925676Y-110689538D01*
X116511176Y-110653468D01*
X117179730Y-110631943D01*
X117894536Y-110624677D01*
X118618793Y-110631384D01*
G36*
X118618793Y-110631384D02*
G01*
X119315698Y-110651777D01*
X119948449Y-110685571D01*
X120480244Y-110732479D01*
X120823795Y-110782144D01*
X121966520Y-111046365D01*
X122967884Y-111383410D01*
X123842458Y-111800086D01*
X124604818Y-112303201D01*
X125196700Y-112825120D01*
X125494724Y-113139325D01*
X125766257Y-113451917D01*
X125976003Y-113720840D01*
X126069951Y-113865650D01*
X126181872Y-114080679D01*
X126213250Y-114186966D01*
X126168191Y-114222427D01*
X126108906Y-114225483D01*
X125821962Y-114188725D01*
X125414372Y-114076876D01*
X124879410Y-113887580D01*
X124210354Y-113618478D01*
X123488453Y-113306305D01*
X122678692Y-112953194D01*
X121989755Y-112667002D01*
X121391948Y-112437067D01*
X120855578Y-112252731D01*
X120350952Y-112103333D01*
X119848375Y-111978213D01*
X119692657Y-111943621D01*
X118368627Y-111741258D01*
X117035767Y-111698926D01*
X115705674Y-111808559D01*
X114389948Y-112062094D01*
X113100185Y-112451465D01*
X111847985Y-112968607D01*
X110644946Y-113605454D01*
X109502666Y-114353942D01*
X108432743Y-115206005D01*
X107446776Y-116153578D01*
X106556363Y-117188597D01*
X105773101Y-118302995D01*
X105108590Y-119488707D01*
X104574427Y-120737670D01*
X104182212Y-122041816D01*
X104020832Y-122841431D01*
X103972288Y-123176707D01*
X103939416Y-123518050D01*
X103921163Y-123899347D01*
X103916476Y-124354486D01*
X103924302Y-124917354D01*
X103939048Y-125474041D01*
X103955889Y-126137010D01*
X103961407Y-126645138D01*
X103955282Y-127012555D01*
X103937194Y-127253397D01*
X103906825Y-127381794D01*
X103895516Y-127400207D01*
X103768499Y-127506100D01*
X103645204Y-127469543D01*
X103545365Y-127369983D01*
X103353759Y-127090642D01*
X103193877Y-126715893D01*
X103057469Y-126221375D01*
X102936284Y-125582727D01*
X102932906Y-125561768D01*
X102893964Y-125177024D01*
X102875145Y-124669142D01*
X102875090Y-124082952D01*
X102892441Y-123463280D01*
X102925839Y-122854956D01*
X102973925Y-122302807D01*
X103035340Y-121851661D01*
X103047335Y-121786549D01*
X103401439Y-120400642D01*
X103915335Y-119069454D01*
X104587900Y-117794983D01*
X105418010Y-116579224D01*
X106404542Y-115424173D01*
X106921951Y-114902817D01*
X108148876Y-113835668D01*
X109457026Y-112917038D01*
X110845439Y-112147398D01*
X112313154Y-111527215D01*
X113859208Y-111056958D01*
X115460033Y-110740439D01*
X115925676Y-110689538D01*
X116511176Y-110653468D01*
X117179730Y-110631943D01*
X117894536Y-110624677D01*
X118618793Y-110631384D01*
G37*
X60029198Y-120390393D02*
X60505993Y-120533022D01*
X60907508Y-120759461D01*
X61036075Y-120871592D01*
X61206106Y-121064453D01*
X61289070Y-121247653D01*
X61314728Y-121498569D01*
X61315700Y-121598619D01*
X61262384Y-122031970D01*
X61118959Y-122452741D01*
X60910205Y-122796570D01*
X60816065Y-122896247D01*
X60531707Y-123058124D01*
X60184926Y-123078121D01*
X59763697Y-122955944D01*
X59569074Y-122865895D01*
X59032354Y-122552165D01*
X58598883Y-122210852D01*
X58278325Y-121857501D01*
X58080344Y-121507656D01*
X58014605Y-121176862D01*
X58090773Y-120880665D01*
X58227451Y-120707967D01*
X58576249Y-120490360D01*
X59021415Y-120366562D01*
X59520035Y-120334073D01*
X60029198Y-120390393D01*
G36*
X60029198Y-120390393D02*
G01*
X60505993Y-120533022D01*
X60907508Y-120759461D01*
X61036075Y-120871592D01*
X61206106Y-121064453D01*
X61289070Y-121247653D01*
X61314728Y-121498569D01*
X61315700Y-121598619D01*
X61262384Y-122031970D01*
X61118959Y-122452741D01*
X60910205Y-122796570D01*
X60816065Y-122896247D01*
X60531707Y-123058124D01*
X60184926Y-123078121D01*
X59763697Y-122955944D01*
X59569074Y-122865895D01*
X59032354Y-122552165D01*
X58598883Y-122210852D01*
X58278325Y-121857501D01*
X58080344Y-121507656D01*
X58014605Y-121176862D01*
X58090773Y-120880665D01*
X58227451Y-120707967D01*
X58576249Y-120490360D01*
X59021415Y-120366562D01*
X59520035Y-120334073D01*
X60029198Y-120390393D01*
G37*
X123788128Y-119919004D02*
X124216358Y-120061619D01*
X124517541Y-120284761D01*
X124643264Y-120483327D01*
X124681367Y-120789378D01*
X124568098Y-121131656D01*
X124312777Y-121492988D01*
X123924723Y-121856200D01*
X123878662Y-121892206D01*
X123344165Y-122261968D01*
X122875709Y-122492446D01*
X122453817Y-122590509D01*
X122059007Y-122563022D01*
X122009991Y-122550942D01*
X121867409Y-122442228D01*
X121708971Y-122214724D01*
X121556490Y-121914731D01*
X121431779Y-121588550D01*
X121356651Y-121282482D01*
X121344367Y-121138078D01*
X121422209Y-120736324D01*
X121644775Y-120397517D01*
X121995620Y-120132652D01*
X122458300Y-119952727D01*
X123016370Y-119868736D01*
X123249367Y-119864251D01*
X123788128Y-119919004D01*
G36*
X123788128Y-119919004D02*
G01*
X124216358Y-120061619D01*
X124517541Y-120284761D01*
X124643264Y-120483327D01*
X124681367Y-120789378D01*
X124568098Y-121131656D01*
X124312777Y-121492988D01*
X123924723Y-121856200D01*
X123878662Y-121892206D01*
X123344165Y-122261968D01*
X122875709Y-122492446D01*
X122453817Y-122590509D01*
X122059007Y-122563022D01*
X122009991Y-122550942D01*
X121867409Y-122442228D01*
X121708971Y-122214724D01*
X121556490Y-121914731D01*
X121431779Y-121588550D01*
X121356651Y-121282482D01*
X121344367Y-121138078D01*
X121422209Y-120736324D01*
X121644775Y-120397517D01*
X121995620Y-120132652D01*
X122458300Y-119952727D01*
X123016370Y-119868736D01*
X123249367Y-119864251D01*
X123788128Y-119919004D01*
G37*
X61627638Y-116438942D02*
X61781367Y-116500562D01*
X62164033Y-116746223D01*
X62530098Y-117106425D01*
X62850555Y-117538494D01*
X63096399Y-117999758D01*
X63238623Y-118447545D01*
X63262206Y-118679129D01*
X63184079Y-119087858D01*
X62969760Y-119455318D01*
X62652325Y-119744982D01*
X62264850Y-119920321D01*
X62112703Y-119948639D01*
X61868820Y-119947005D01*
X61585369Y-119878728D01*
X61213916Y-119731598D01*
X61164558Y-119709605D01*
X60610918Y-119428411D01*
X60203754Y-119142801D01*
X59920753Y-118834773D01*
X59784605Y-118596229D01*
X59642823Y-118113297D01*
X59646168Y-117650583D01*
X59775244Y-117228444D01*
X60010651Y-116867240D01*
X60332991Y-116587329D01*
X60722868Y-116409069D01*
X61160883Y-116352821D01*
X61627638Y-116438942D01*
G36*
X61627638Y-116438942D02*
G01*
X61781367Y-116500562D01*
X62164033Y-116746223D01*
X62530098Y-117106425D01*
X62850555Y-117538494D01*
X63096399Y-117999758D01*
X63238623Y-118447545D01*
X63262206Y-118679129D01*
X63184079Y-119087858D01*
X62969760Y-119455318D01*
X62652325Y-119744982D01*
X62264850Y-119920321D01*
X62112703Y-119948639D01*
X61868820Y-119947005D01*
X61585369Y-119878728D01*
X61213916Y-119731598D01*
X61164558Y-119709605D01*
X60610918Y-119428411D01*
X60203754Y-119142801D01*
X59920753Y-118834773D01*
X59784605Y-118596229D01*
X59642823Y-118113297D01*
X59646168Y-117650583D01*
X59775244Y-117228444D01*
X60010651Y-116867240D01*
X60332991Y-116587329D01*
X60722868Y-116409069D01*
X61160883Y-116352821D01*
X61627638Y-116438942D01*
G37*
X122006559Y-115933078D02*
X122158529Y-115996127D01*
X122570949Y-116264143D01*
X122850523Y-116635113D01*
X122999784Y-117112926D01*
X123022853Y-117323182D01*
X123001935Y-117796873D01*
X122865563Y-118203244D01*
X122601200Y-118557631D01*
X122196310Y-118875367D01*
X121638357Y-119171787D01*
X121441029Y-119258101D01*
X120971284Y-119419758D01*
X120589732Y-119463436D01*
X120263707Y-119389760D01*
X120073506Y-119284317D01*
X119692672Y-118952257D01*
X119474413Y-118581113D01*
X119417054Y-118163747D01*
X119518920Y-117693022D01*
X119636186Y-117420892D01*
X119943625Y-116877926D01*
X120268040Y-116472964D01*
X120637010Y-116175009D01*
X120852857Y-116053456D01*
X121269819Y-115887435D01*
X121635143Y-115848153D01*
X122006559Y-115933078D01*
G36*
X122006559Y-115933078D02*
G01*
X122158529Y-115996127D01*
X122570949Y-116264143D01*
X122850523Y-116635113D01*
X122999784Y-117112926D01*
X123022853Y-117323182D01*
X123001935Y-117796873D01*
X122865563Y-118203244D01*
X122601200Y-118557631D01*
X122196310Y-118875367D01*
X121638357Y-119171787D01*
X121441029Y-119258101D01*
X120971284Y-119419758D01*
X120589732Y-119463436D01*
X120263707Y-119389760D01*
X120073506Y-119284317D01*
X119692672Y-118952257D01*
X119474413Y-118581113D01*
X119417054Y-118163747D01*
X119518920Y-117693022D01*
X119636186Y-117420892D01*
X119943625Y-116877926D01*
X120268040Y-116472964D01*
X120637010Y-116175009D01*
X120852857Y-116053456D01*
X121269819Y-115887435D01*
X121635143Y-115848153D01*
X122006559Y-115933078D01*
G37*
X64930007Y-114604381D02*
X65409232Y-114772213D01*
X65823609Y-115070949D01*
X66155556Y-115482684D01*
X66387491Y-115989516D01*
X66501832Y-116573538D01*
X66510006Y-116730426D01*
X66502817Y-117072716D01*
X66452768Y-117308968D01*
X66347348Y-117499370D01*
X66026911Y-117803214D01*
X65622519Y-117984549D01*
X65172446Y-118038058D01*
X64714963Y-117958424D01*
X64342465Y-117777865D01*
X63856611Y-117388832D01*
X63448526Y-116930497D01*
X63162285Y-116452480D01*
X63159351Y-116445881D01*
X63035932Y-115990286D01*
X63068428Y-115566456D01*
X63243870Y-115193782D01*
X63549292Y-114891653D01*
X63971728Y-114679461D01*
X64403516Y-114585356D01*
X64930007Y-114604381D01*
G36*
X64930007Y-114604381D02*
G01*
X65409232Y-114772213D01*
X65823609Y-115070949D01*
X66155556Y-115482684D01*
X66387491Y-115989516D01*
X66501832Y-116573538D01*
X66510006Y-116730426D01*
X66502817Y-117072716D01*
X66452768Y-117308968D01*
X66347348Y-117499370D01*
X66026911Y-117803214D01*
X65622519Y-117984549D01*
X65172446Y-118038058D01*
X64714963Y-117958424D01*
X64342465Y-117777865D01*
X63856611Y-117388832D01*
X63448526Y-116930497D01*
X63162285Y-116452480D01*
X63159351Y-116445881D01*
X63035932Y-115990286D01*
X63068428Y-115566456D01*
X63243870Y-115193782D01*
X63549292Y-114891653D01*
X63971728Y-114679461D01*
X64403516Y-114585356D01*
X64930007Y-114604381D01*
G37*
X69153799Y-114334477D02*
X69307720Y-114420884D01*
X69497300Y-114595658D01*
X69563699Y-114661868D01*
X69893939Y-115092189D01*
X70112682Y-115589589D01*
X70212937Y-116114697D01*
X70187714Y-116628143D01*
X70030023Y-117090557D01*
X70003371Y-117138187D01*
X69716737Y-117528464D01*
X69406029Y-117753874D01*
X69061707Y-117818258D01*
X68674231Y-117725456D01*
X68612050Y-117698331D01*
X68035277Y-117367411D01*
X67613896Y-116976741D01*
X67349668Y-116528580D01*
X67244353Y-116025184D01*
X67242367Y-115941201D01*
X67314347Y-115408142D01*
X67520712Y-114963569D01*
X67847097Y-114623500D01*
X68279138Y-114403953D01*
X68690877Y-114325879D01*
X68970024Y-114311215D01*
X69153799Y-114334477D01*
G36*
X69153799Y-114334477D02*
G01*
X69307720Y-114420884D01*
X69497300Y-114595658D01*
X69563699Y-114661868D01*
X69893939Y-115092189D01*
X70112682Y-115589589D01*
X70212937Y-116114697D01*
X70187714Y-116628143D01*
X70030023Y-117090557D01*
X70003371Y-117138187D01*
X69716737Y-117528464D01*
X69406029Y-117753874D01*
X69061707Y-117818258D01*
X68674231Y-117725456D01*
X68612050Y-117698331D01*
X68035277Y-117367411D01*
X67613896Y-116976741D01*
X67349668Y-116528580D01*
X67244353Y-116025184D01*
X67242367Y-115941201D01*
X67314347Y-115408142D01*
X67520712Y-114963569D01*
X67847097Y-114623500D01*
X68279138Y-114403953D01*
X68690877Y-114325879D01*
X68970024Y-114311215D01*
X69153799Y-114334477D01*
G37*
X118363068Y-114097468D02*
X118879913Y-114260232D01*
X119267130Y-114518727D01*
X119520419Y-114854816D01*
X119635478Y-115250360D01*
X119608010Y-115687220D01*
X119433713Y-116147257D01*
X119108287Y-116612334D01*
X118989698Y-116740785D01*
X118499272Y-117178202D01*
X118034613Y-117454136D01*
X117585214Y-117572510D01*
X117140569Y-117537242D01*
X116984033Y-117489294D01*
X116688667Y-117328751D01*
X116420719Y-117092841D01*
X116227979Y-116830529D01*
X116161644Y-116646703D01*
X116157031Y-116354815D01*
X116201600Y-115978009D01*
X116282344Y-115588866D01*
X116386255Y-115259968D01*
X116425925Y-115172056D01*
X116722910Y-114744213D01*
X117114318Y-114405758D01*
X117563735Y-114176891D01*
X118034750Y-114077810D01*
X118363068Y-114097468D01*
G36*
X118363068Y-114097468D02*
G01*
X118879913Y-114260232D01*
X119267130Y-114518727D01*
X119520419Y-114854816D01*
X119635478Y-115250360D01*
X119608010Y-115687220D01*
X119433713Y-116147257D01*
X119108287Y-116612334D01*
X118989698Y-116740785D01*
X118499272Y-117178202D01*
X118034613Y-117454136D01*
X117585214Y-117572510D01*
X117140569Y-117537242D01*
X116984033Y-117489294D01*
X116688667Y-117328751D01*
X116420719Y-117092841D01*
X116227979Y-116830529D01*
X116161644Y-116646703D01*
X116157031Y-116354815D01*
X116201600Y-115978009D01*
X116282344Y-115588866D01*
X116386255Y-115259968D01*
X116425925Y-115172056D01*
X116722910Y-114744213D01*
X117114318Y-114405758D01*
X117563735Y-114176891D01*
X118034750Y-114077810D01*
X118363068Y-114097468D01*
G37*
X114366505Y-113880582D02*
X114771535Y-114096353D01*
X115102957Y-114420172D01*
X115339040Y-114822752D01*
X115458056Y-115274803D01*
X115438275Y-115747036D01*
X115417541Y-115834739D01*
X115255632Y-116188414D01*
X114976162Y-116555401D01*
X114620408Y-116890323D01*
X114229647Y-117147803D01*
X114217414Y-117154060D01*
X113856314Y-117306955D01*
X113568819Y-117345627D01*
X113304109Y-117270713D01*
X113129360Y-117167650D01*
X112916772Y-116973770D01*
X112710777Y-116708425D01*
X112643602Y-116596150D01*
X112528968Y-116353054D01*
X112476389Y-116132648D01*
X112473335Y-115860269D01*
X112487699Y-115667185D01*
X112592381Y-115095886D01*
X112789191Y-114604353D01*
X113062682Y-114212849D01*
X113397407Y-113941635D01*
X113777919Y-113810972D01*
X113909594Y-113802150D01*
X114366505Y-113880582D01*
G36*
X114366505Y-113880582D02*
G01*
X114771535Y-114096353D01*
X115102957Y-114420172D01*
X115339040Y-114822752D01*
X115458056Y-115274803D01*
X115438275Y-115747036D01*
X115417541Y-115834739D01*
X115255632Y-116188414D01*
X114976162Y-116555401D01*
X114620408Y-116890323D01*
X114229647Y-117147803D01*
X114217414Y-117154060D01*
X113856314Y-117306955D01*
X113568819Y-117345627D01*
X113304109Y-117270713D01*
X113129360Y-117167650D01*
X112916772Y-116973770D01*
X112710777Y-116708425D01*
X112643602Y-116596150D01*
X112528968Y-116353054D01*
X112476389Y-116132648D01*
X112473335Y-115860269D01*
X112487699Y-115667185D01*
X112592381Y-115095886D01*
X112789191Y-114604353D01*
X113062682Y-114212849D01*
X113397407Y-113941635D01*
X113777919Y-113810972D01*
X113909594Y-113802150D01*
X114366505Y-113880582D01*
G37*
X78913398Y-112489326D02*
X79195730Y-112604109D01*
X79535014Y-112775716D01*
X79906844Y-112988031D01*
X80286817Y-113224938D01*
X80650529Y-113470319D01*
X80973575Y-113708060D01*
X81231550Y-113922043D01*
X81400052Y-114096152D01*
X81454674Y-114214271D01*
X81434860Y-114245353D01*
X81285744Y-114282402D01*
X81014028Y-114299701D01*
X80665138Y-114298499D01*
X80284500Y-114280042D01*
X79917541Y-114245579D01*
X79609687Y-114196357D01*
X79603700Y-114195069D01*
X79026735Y-114048977D01*
X78602618Y-113888686D01*
X78314887Y-113702926D01*
X78147082Y-113480429D01*
X78082741Y-113209924D01*
X78080856Y-113152479D01*
X78142947Y-112938056D01*
X78298847Y-112712626D01*
X78499400Y-112531058D01*
X78695452Y-112448224D01*
X78712422Y-112447483D01*
X78913398Y-112489326D01*
G36*
X78913398Y-112489326D02*
G01*
X79195730Y-112604109D01*
X79535014Y-112775716D01*
X79906844Y-112988031D01*
X80286817Y-113224938D01*
X80650529Y-113470319D01*
X80973575Y-113708060D01*
X81231550Y-113922043D01*
X81400052Y-114096152D01*
X81454674Y-114214271D01*
X81434860Y-114245353D01*
X81285744Y-114282402D01*
X81014028Y-114299701D01*
X80665138Y-114298499D01*
X80284500Y-114280042D01*
X79917541Y-114245579D01*
X79609687Y-114196357D01*
X79603700Y-114195069D01*
X79026735Y-114048977D01*
X78602618Y-113888686D01*
X78314887Y-113702926D01*
X78147082Y-113480429D01*
X78082741Y-113209924D01*
X78080856Y-113152479D01*
X78142947Y-112938056D01*
X78298847Y-112712626D01*
X78499400Y-112531058D01*
X78695452Y-112448224D01*
X78712422Y-112447483D01*
X78913398Y-112489326D01*
G37*
X91758653Y-37971806D02*
X92165527Y-38215210D01*
X92486183Y-38602907D01*
X92718203Y-39133062D01*
X92816739Y-39533857D01*
X92883641Y-40237607D01*
X92846264Y-41026586D01*
X92714154Y-41860649D01*
X92496854Y-42699653D01*
X92203909Y-43503454D01*
X91844864Y-44231908D01*
X91611864Y-44601520D01*
X91445961Y-44844657D01*
X91374802Y-44964509D01*
X91393400Y-44974640D01*
X91496771Y-44888615D01*
X91511102Y-44875678D01*
X92404785Y-44077861D01*
X93197606Y-43396730D01*
X93902282Y-42823376D01*
X94531529Y-42348891D01*
X95098063Y-41964367D01*
X95614599Y-41660895D01*
X96093855Y-41429566D01*
X96548545Y-41261473D01*
X96754131Y-41202626D01*
X97147505Y-41116503D01*
X97502748Y-41083519D01*
X97871651Y-41105980D01*
X98306006Y-41186191D01*
X98723450Y-41290301D01*
X99471014Y-41527689D01*
X100077988Y-41802944D01*
X100534671Y-42110959D01*
X100783421Y-42374941D01*
X100977489Y-42782509D01*
X101031087Y-43257085D01*
X100943567Y-43770155D01*
X100822433Y-44085929D01*
X100598116Y-44460625D01*
X100258176Y-44890748D01*
X99832185Y-45344591D01*
X99349716Y-45790447D01*
X98883754Y-46164560D01*
X98457262Y-46457038D01*
X97960235Y-46758840D01*
X97439283Y-47044909D01*
X96941017Y-47290192D01*
X96512048Y-47469631D01*
X96363174Y-47519509D01*
X96140549Y-47606727D01*
X96035977Y-47689452D01*
X96064469Y-47747951D01*
X96177200Y-47764009D01*
X96437917Y-47823190D01*
X96768873Y-47978103D01*
X97122650Y-48202701D01*
X97433808Y-48454248D01*
X97808870Y-48877007D01*
X98065181Y-49331874D01*
X98201347Y-49794093D01*
X98215976Y-50238910D01*
X98107674Y-50641569D01*
X97875047Y-50977314D01*
X97587609Y-51186875D01*
X97260154Y-51313755D01*
X96891244Y-51362766D01*
X96457687Y-51331397D01*
X95936289Y-51217135D01*
X95303857Y-51017471D01*
X94996200Y-50906297D01*
X94549657Y-50745619D01*
X94127913Y-50603620D01*
X93771340Y-50493228D01*
X93520309Y-50427368D01*
X93472200Y-50418317D01*
X93249322Y-50387002D01*
X93167215Y-50396907D01*
X93199353Y-50463060D01*
X93263124Y-50536775D01*
X93451594Y-50691737D01*
X93761490Y-50883758D01*
X94154730Y-51093056D01*
X94593232Y-51299852D01*
X95038912Y-51484367D01*
X95205838Y-51545801D01*
X95489786Y-51637295D01*
X95766706Y-51702604D01*
X96079609Y-51747764D01*
X96471507Y-51778807D01*
X96985412Y-51801769D01*
X97045266Y-51803856D01*
X97653575Y-51816421D01*
X98117412Y-51802746D01*
X98460461Y-51756519D01*
X98706407Y-51671427D01*
X98878935Y-51541157D01*
X99001728Y-51359398D01*
X99041865Y-51271728D01*
X99108060Y-51052713D01*
X99126443Y-50802501D01*
X99092906Y-50494252D01*
X99003341Y-50101127D01*
X98853639Y-49596286D01*
X98725662Y-49205999D01*
X98546184Y-48636801D01*
X98439569Y-48206404D01*
X98405285Y-47901011D01*
X98442801Y-47706822D01*
X98551582Y-47610039D01*
X98663455Y-47592817D01*
X98859357Y-47616163D01*
X99183553Y-47680551D01*
X99602402Y-47777506D01*
X100082267Y-47898550D01*
X100589508Y-48035207D01*
X101090488Y-48179001D01*
X101538960Y-48317387D01*
X103568454Y-49057164D01*
X105519620Y-49943790D01*
X107395777Y-50979353D01*
X109200244Y-52165942D01*
X110936339Y-53505644D01*
X112607380Y-55000548D01*
X113387602Y-55774104D01*
X114228048Y-56656970D01*
X114960532Y-57479629D01*
X115614455Y-58280891D01*
X116219222Y-59099565D01*
X116804234Y-59974462D01*
X117398895Y-60944392D01*
X117711374Y-61481204D01*
X118918134Y-63746844D01*
X119961917Y-66054823D01*
X120844727Y-68411159D01*
X121568566Y-70821869D01*
X122135437Y-73292972D01*
X122547343Y-75830488D01*
X122584702Y-76125483D01*
X122628484Y-76536619D01*
X122663493Y-76997359D01*
X122690507Y-77529435D01*
X122710305Y-78154579D01*
X122723665Y-78894521D01*
X122731366Y-79770995D01*
X122733356Y-80274150D01*
X122734911Y-81079035D01*
X122734159Y-81736835D01*
X122730053Y-82269796D01*
X122721548Y-82700160D01*
X122707598Y-83050173D01*
X122687157Y-83342078D01*
X122659180Y-83598120D01*
X122622621Y-83840543D01*
X122576434Y-84091592D01*
X122546952Y-84239411D01*
X122148587Y-85788743D01*
X121588670Y-87317512D01*
X120874854Y-88811824D01*
X120014789Y-90257783D01*
X119016128Y-91641491D01*
X117886520Y-92949054D01*
X117571582Y-93275578D01*
X117015894Y-93814654D01*
X116402959Y-94368259D01*
X115777019Y-94898649D01*
X115182314Y-95368077D01*
X114764665Y-95670325D01*
X114431507Y-95922085D01*
X114078078Y-96224608D01*
X113851367Y-96441737D01*
X113267838Y-96959019D01*
X112668658Y-97321137D01*
X112206166Y-97496344D01*
X111814218Y-97587756D01*
X111426321Y-97623579D01*
X111019557Y-97598514D01*
X110571007Y-97507258D01*
X110057750Y-97344510D01*
X109456867Y-97104968D01*
X108745440Y-96783332D01*
X108389690Y-96613571D01*
X107868001Y-96366101D01*
X107352597Y-96129725D01*
X106879443Y-95920343D01*
X106484503Y-95753859D01*
X106203740Y-95646173D01*
X106195058Y-95643199D01*
X105219487Y-95398131D01*
X104191491Y-95299828D01*
X103129155Y-95341102D01*
X102050565Y-95514762D01*
X100973806Y-95813620D01*
X99916963Y-96230486D01*
X98898122Y-96758171D01*
X97935368Y-97389485D01*
X97046786Y-98117240D01*
X96250462Y-98934246D01*
X95564481Y-99833313D01*
X95532385Y-99881841D01*
X95171332Y-100503840D01*
X94852998Y-101189155D01*
X94606833Y-101869429D01*
X94498344Y-102281793D01*
X94408376Y-102701300D01*
X93969871Y-102789679D01*
X93147412Y-102926258D01*
X92201328Y-103034132D01*
X91175154Y-103111649D01*
X90112422Y-103157155D01*
X89056668Y-103168996D01*
X88051424Y-103145521D01*
X87140225Y-103085074D01*
X86885033Y-103058727D01*
X84916723Y-102784932D01*
X82949832Y-102408465D01*
X80954692Y-101922293D01*
X78901633Y-101319380D01*
X77317700Y-100790455D01*
X75554382Y-100151073D01*
X73951051Y-99522450D01*
X72498996Y-98900689D01*
X71189505Y-98281893D01*
X70013868Y-97662167D01*
X69048903Y-97091540D01*
X68188439Y-96552035D01*
X68131893Y-96853453D01*
X68045804Y-97145961D01*
X67880064Y-97556249D01*
X67646605Y-98059667D01*
X67357360Y-98631564D01*
X67024262Y-99247291D01*
X66695015Y-99821650D01*
X66218116Y-100675234D01*
X65839704Y-101458269D01*
X65538489Y-102219902D01*
X65293183Y-103009282D01*
X65258673Y-103137747D01*
X64998743Y-104396511D01*
X64884554Y-105630711D01*
X64912730Y-106828391D01*
X65079895Y-107977597D01*
X65382675Y-109066375D01*
X65817693Y-110082769D01*
X66381574Y-111014824D01*
X67070943Y-111850586D01*
X67882423Y-112578100D01*
X67935671Y-112618612D01*
X68601512Y-113120338D01*
X68429939Y-113291911D01*
X68180642Y-113429510D01*
X67860174Y-113446608D01*
X67618482Y-113382201D01*
X67346970Y-113244219D01*
X66989652Y-113023951D01*
X66586746Y-112750480D01*
X66178467Y-112452889D01*
X65805032Y-112160261D01*
X65506659Y-111901677D01*
X65353608Y-111744355D01*
X64661282Y-110795490D01*
X64124950Y-109780812D01*
X63744630Y-108700438D01*
X63520345Y-107554483D01*
X63452114Y-106343062D01*
X63539959Y-105066292D01*
X63783900Y-103724288D01*
X63862382Y-103405273D01*
X64199011Y-102296403D01*
X64633760Y-101178697D01*
X65149086Y-100085228D01*
X65727442Y-99049068D01*
X66351285Y-98103289D01*
X67003070Y-97280963D01*
X67258464Y-97003539D01*
X67884377Y-96354898D01*
X67161205Y-95829861D01*
X66359735Y-95211582D01*
X65508546Y-94490169D01*
X64646430Y-93702423D01*
X63812175Y-92885144D01*
X63044574Y-92075132D01*
X62382417Y-91309186D01*
X62337123Y-91253347D01*
X61310001Y-89856848D01*
X61241746Y-89744858D01*
X84192958Y-89744858D01*
X84208112Y-90321752D01*
X84355124Y-90826039D01*
X84649674Y-91307249D01*
X84712791Y-91386945D01*
X85180607Y-91860590D01*
X85722222Y-92214509D01*
X86355409Y-92455829D01*
X87097944Y-92591681D01*
X87810812Y-92629451D01*
X88517334Y-92605677D01*
X89077791Y-92524465D01*
X89198224Y-92494077D01*
X89692836Y-92291538D01*
X90086302Y-91984114D01*
X90384643Y-91561494D01*
X90593881Y-91013364D01*
X90720041Y-90329413D01*
X90759752Y-89820317D01*
X90774827Y-89491260D01*
X91118367Y-89491260D01*
X91160046Y-90158519D01*
X91278163Y-90785135D01*
X91462335Y-91341663D01*
X91702179Y-91798660D01*
X91987311Y-92126682D01*
X92069511Y-92188508D01*
X92461097Y-92377918D01*
X92972560Y-92516770D01*
X93560881Y-92600738D01*
X94183036Y-92625495D01*
X94796004Y-92586716D01*
X95246736Y-92508012D01*
X95963852Y-92273693D01*
X96578636Y-91939850D01*
X97078170Y-91519775D01*
X97449541Y-91026761D01*
X97679832Y-90474101D01*
X97755980Y-89925497D01*
X97719370Y-89569260D01*
X97612989Y-89227716D01*
X97456850Y-88930719D01*
X97270963Y-88708123D01*
X97075339Y-88589783D01*
X96889991Y-88605554D01*
X96876457Y-88613348D01*
X96798189Y-88757921D01*
X96827753Y-89019001D01*
X96918033Y-89278091D01*
X97000934Y-89589852D01*
X97038384Y-89975761D01*
X97030152Y-90369598D01*
X96976006Y-90705147D01*
X96923514Y-90846884D01*
X96684033Y-91172663D01*
X96326789Y-91488600D01*
X95900798Y-91755540D01*
X95637943Y-91873862D01*
X95297486Y-91981288D01*
X94930597Y-92044088D01*
X94474635Y-92071916D01*
X94335700Y-92074589D01*
X93805939Y-92071533D01*
X93403462Y-92039713D01*
X93087257Y-91969070D01*
X92816311Y-91849539D01*
X92549610Y-91671060D01*
X92484230Y-91620355D01*
X92137657Y-91268096D01*
X91890241Y-90826870D01*
X91730057Y-90271164D01*
X91671975Y-89882328D01*
X91622918Y-89464781D01*
X91579184Y-89187423D01*
X91530576Y-89021819D01*
X91466898Y-88939539D01*
X91377950Y-88912149D01*
X91323306Y-88910150D01*
X91215377Y-88919955D01*
X91154037Y-88974177D01*
X91126161Y-89110030D01*
X91118627Y-89364724D01*
X91118367Y-89491260D01*
X90774827Y-89491260D01*
X90801451Y-88910150D01*
X90578909Y-88910150D01*
X90414633Y-88935845D01*
X90356367Y-88988690D01*
X90345762Y-89105039D01*
X90317662Y-89342613D01*
X90277634Y-89654883D01*
X90267708Y-89729523D01*
X90178637Y-90288641D01*
X90071782Y-90715801D01*
X89931642Y-91048365D01*
X89742712Y-91323693D01*
X89506523Y-91563927D01*
X89169196Y-91822826D01*
X88811943Y-91993544D01*
X88390358Y-92090026D01*
X87860032Y-92126219D01*
X87711996Y-92127483D01*
X86951497Y-92069320D01*
X86280738Y-91899172D01*
X85715254Y-91623554D01*
X85270580Y-91248980D01*
X85102951Y-91033468D01*
X84947690Y-90763787D01*
X84872860Y-90506707D01*
X84853044Y-90173686D01*
X84853033Y-90162915D01*
X84875584Y-89827534D01*
X84933318Y-89509538D01*
X84980033Y-89362757D01*
X85095235Y-89008620D01*
X85094428Y-88776012D01*
X84977709Y-88665785D01*
X84899675Y-88656150D01*
X84667622Y-88735102D01*
X84459337Y-88949116D01*
X84297062Y-89263927D01*
X84203040Y-89645270D01*
X84192958Y-89744858D01*
X61241746Y-89744858D01*
X60401917Y-88366902D01*
X59624440Y-86807525D01*
X58989141Y-85202734D01*
X58507589Y-83576544D01*
X58387838Y-83055496D01*
X58275171Y-82388112D01*
X58189569Y-81589011D01*
X58131950Y-80693782D01*
X58103234Y-79738010D01*
X58104342Y-78757283D01*
X58107216Y-78669743D01*
X67193052Y-78669743D01*
X67206132Y-79741392D01*
X67325571Y-80724088D01*
X67401961Y-81078483D01*
X67744562Y-82162065D01*
X68216560Y-83181989D01*
X68804383Y-84125907D01*
X69494456Y-84981473D01*
X70273204Y-85736338D01*
X71127055Y-86378155D01*
X72042434Y-86894577D01*
X73005768Y-87273255D01*
X74003482Y-87501843D01*
X74523700Y-87556812D01*
X75544353Y-87607706D01*
X76408381Y-87620810D01*
X77124223Y-87596119D01*
X77553748Y-87554787D01*
X78788909Y-87331356D01*
X79904577Y-86995004D01*
X80911760Y-86540714D01*
X81421062Y-86217541D01*
X86901418Y-86217541D01*
X86999204Y-86702460D01*
X87102394Y-86942421D01*
X87436522Y-87440426D01*
X87904734Y-87856483D01*
X88513833Y-88195228D01*
X89270622Y-88461298D01*
X89371019Y-88488388D01*
X89930981Y-88591870D01*
X90576225Y-88642566D01*
X91236792Y-88639382D01*
X91842720Y-88581222D01*
X92103388Y-88531170D01*
X92784086Y-88317789D01*
X93400073Y-88021777D01*
X93923972Y-87661321D01*
X94328408Y-87254605D01*
X94547966Y-86907261D01*
X94674873Y-86456083D01*
X94665860Y-85968322D01*
X94524138Y-85503916D01*
X94467030Y-85396233D01*
X94087104Y-84908805D01*
X93583459Y-84505794D01*
X92980235Y-84189084D01*
X92301570Y-83960559D01*
X91571604Y-83822103D01*
X90814476Y-83775601D01*
X90054326Y-83822936D01*
X89315293Y-83965993D01*
X88621516Y-84206656D01*
X87997135Y-84546808D01*
X87597879Y-84860079D01*
X87198891Y-85304187D01*
X86967359Y-85754062D01*
X86901418Y-86217541D01*
X81421062Y-86217541D01*
X81821465Y-85963469D01*
X82644700Y-85258251D01*
X82689367Y-85213976D01*
X83486991Y-84299834D01*
X84144844Y-83294115D01*
X84659266Y-82205979D01*
X85026598Y-81044584D01*
X85243179Y-79819090D01*
X85282684Y-79095755D01*
X98240153Y-79095755D01*
X98242184Y-79903171D01*
X98286239Y-80609516D01*
X98349715Y-81059423D01*
X98493741Y-81682120D01*
X98692813Y-82355186D01*
X98924606Y-83011229D01*
X99166793Y-83582858D01*
X99225574Y-83703150D01*
X99771431Y-84625791D01*
X100433781Y-85480788D01*
X101188730Y-86245057D01*
X102012384Y-86895517D01*
X102880848Y-87409084D01*
X103224791Y-87566553D01*
X103578186Y-87696085D01*
X104045777Y-87840983D01*
X104575018Y-87987093D01*
X105113364Y-88120264D01*
X105608271Y-88226342D01*
X105808033Y-88262335D01*
X106014413Y-88279364D01*
X106352585Y-88287996D01*
X106790689Y-88289101D01*
X107296867Y-88283550D01*
X107839258Y-88272214D01*
X108386003Y-88255961D01*
X108905243Y-88235664D01*
X109365118Y-88212193D01*
X109733769Y-88186417D01*
X109979337Y-88159208D01*
X110041367Y-88146681D01*
X111154351Y-87752177D01*
X112189491Y-87213842D01*
X113136080Y-86543301D01*
X113983411Y-85752177D01*
X114720780Y-84852094D01*
X115337481Y-83854676D01*
X115822807Y-82771546D01*
X116166054Y-81614330D01*
X116199358Y-81460613D01*
X116313851Y-80627690D01*
X116341041Y-79686128D01*
X116284520Y-78670156D01*
X116147881Y-77614004D01*
X115934717Y-76551903D01*
X115648619Y-75518083D01*
X115542214Y-75198718D01*
X114994886Y-73827249D01*
X114346354Y-72557564D01*
X113604360Y-71397820D01*
X112776648Y-70356173D01*
X111870960Y-69440779D01*
X110895038Y-68659795D01*
X109856626Y-68021378D01*
X108763465Y-67533683D01*
X108051700Y-67307912D01*
X107379931Y-67174492D01*
X106642007Y-67107755D01*
X105893313Y-67107695D01*
X105189236Y-67174302D01*
X104585161Y-67307569D01*
X104582502Y-67308398D01*
X103578175Y-67709000D01*
X102653035Y-68258601D01*
X101807973Y-68956053D01*
X101043884Y-69800208D01*
X100361660Y-70789920D01*
X99762194Y-71924039D01*
X99246379Y-73201419D01*
X98815109Y-74620912D01*
X98777022Y-74769228D01*
X98604648Y-75556305D01*
X98462393Y-76417542D01*
X98352638Y-77317894D01*
X98277765Y-78222314D01*
X98240153Y-79095755D01*
X85282684Y-79095755D01*
X85306184Y-78665483D01*
X85251355Y-77214179D01*
X85092612Y-75795560D01*
X84835595Y-74424909D01*
X84485945Y-73117508D01*
X84049301Y-71888638D01*
X83531305Y-70753581D01*
X82937596Y-69727620D01*
X82273815Y-68826036D01*
X81545603Y-68064111D01*
X81321828Y-67870344D01*
X80734101Y-67445014D01*
X80064616Y-67060624D01*
X79372228Y-66746837D01*
X78715795Y-66533315D01*
X78627805Y-66512597D01*
X78103212Y-66435420D01*
X77476441Y-66404491D01*
X76807703Y-66418072D01*
X76157212Y-66474427D01*
X75585183Y-66571819D01*
X75455033Y-66604107D01*
X74357056Y-66986069D01*
X73301192Y-67524948D01*
X72296404Y-68211602D01*
X71351655Y-69036893D01*
X70475909Y-69991680D01*
X69678129Y-71066822D01*
X68967277Y-72253179D01*
X68352318Y-73541611D01*
X68144502Y-74059063D01*
X67762055Y-75203803D01*
X67474004Y-76372677D01*
X67283339Y-77537415D01*
X67193052Y-78669743D01*
X58107216Y-78669743D01*
X58136193Y-77787188D01*
X58199708Y-76863310D01*
X58221808Y-76632249D01*
X58556762Y-74149918D01*
X59048989Y-71728237D01*
X59697413Y-69369781D01*
X60500961Y-67077123D01*
X61458556Y-64852837D01*
X62565067Y-62707364D01*
X76612144Y-62707364D01*
X76646812Y-63059800D01*
X76739203Y-63361830D01*
X76871900Y-63568170D01*
X76966234Y-63628021D01*
X77206001Y-63660393D01*
X77561816Y-63660283D01*
X77984504Y-63632292D01*
X78424892Y-63581021D01*
X78833803Y-63511069D01*
X79162065Y-63427038D01*
X79180367Y-63420879D01*
X79888558Y-63091180D01*
X80518278Y-62624176D01*
X80834151Y-62298616D01*
X81050826Y-61964097D01*
X103987700Y-61964097D01*
X104011673Y-62145008D01*
X104100909Y-62322817D01*
X104281383Y-62540264D01*
X104432200Y-62695497D01*
X104718455Y-62958259D01*
X105026347Y-63205047D01*
X105266156Y-63367905D01*
X105770062Y-63601633D01*
X106361892Y-63779537D01*
X106983662Y-63890904D01*
X107577389Y-63925020D01*
X108040971Y-63880596D01*
X108208863Y-63825285D01*
X108316666Y-63711686D01*
X108404625Y-63491489D01*
X108427499Y-63416583D01*
X108513273Y-62971127D01*
X108469023Y-62594688D01*
X108283273Y-62242561D01*
X108059491Y-61983092D01*
X107618978Y-61622319D01*
X107097559Y-61369620D01*
X106470865Y-61215633D01*
X105914885Y-61159170D01*
X105247869Y-61158799D01*
X104717667Y-61236522D01*
X104328376Y-61390628D01*
X104084092Y-61619406D01*
X103988910Y-61921146D01*
X103987700Y-61964097D01*
X81050826Y-61964097D01*
X81053411Y-61960107D01*
X81115294Y-61654017D01*
X81029987Y-61388343D01*
X80807678Y-61171082D01*
X80458553Y-61010231D01*
X79992799Y-60913788D01*
X79420603Y-60889751D01*
X79065586Y-60910168D01*
X78381169Y-61023028D01*
X77786743Y-61224901D01*
X77297468Y-61504680D01*
X76928505Y-61851260D01*
X76695016Y-62253534D01*
X76612163Y-62700398D01*
X76612144Y-62707364D01*
X62565067Y-62707364D01*
X62569124Y-62699498D01*
X63831591Y-60619678D01*
X65244881Y-58615953D01*
X66300716Y-57287150D01*
X66759162Y-56762241D01*
X67317765Y-56163471D01*
X67944204Y-55522447D01*
X68606157Y-54870775D01*
X69271303Y-54240060D01*
X69907322Y-53661908D01*
X70481890Y-53167927D01*
X70668865Y-53015667D01*
X71724607Y-52204252D01*
X72748595Y-51489336D01*
X73792768Y-50838200D01*
X74909064Y-50218121D01*
X75920700Y-49706944D01*
X77382963Y-49018526D01*
X78734075Y-48433376D01*
X79992286Y-47945542D01*
X81175846Y-47549074D01*
X82303009Y-47238020D01*
X83392023Y-47006432D01*
X84461142Y-46848356D01*
X84797106Y-46812799D01*
X85244431Y-46768125D01*
X85553109Y-46729835D01*
X85753209Y-46689859D01*
X85874800Y-46640127D01*
X85947949Y-46572570D01*
X85996695Y-46490871D01*
X86089937Y-46241461D01*
X86175206Y-45864090D01*
X86254352Y-45347411D01*
X86329226Y-44680077D01*
X86376170Y-44163817D01*
X86479377Y-43142937D01*
X86606754Y-42271839D01*
X86764531Y-41531924D01*
X86958935Y-40904595D01*
X87196194Y-40371252D01*
X87482536Y-39913298D01*
X87824191Y-39512134D01*
X87986419Y-39355427D01*
X88340208Y-39076209D01*
X88797414Y-38779742D01*
X89310614Y-38491057D01*
X89832387Y-38235187D01*
X90315311Y-38037164D01*
X90695927Y-37925212D01*
X91267981Y-37874529D01*
X91758653Y-37971806D01*
G36*
X91758653Y-37971806D02*
G01*
X92165527Y-38215210D01*
X92486183Y-38602907D01*
X92718203Y-39133062D01*
X92816739Y-39533857D01*
X92883641Y-40237607D01*
X92846264Y-41026586D01*
X92714154Y-41860649D01*
X92496854Y-42699653D01*
X92203909Y-43503454D01*
X91844864Y-44231908D01*
X91611864Y-44601520D01*
X91445961Y-44844657D01*
X91374802Y-44964509D01*
X91393400Y-44974640D01*
X91496771Y-44888615D01*
X91511102Y-44875678D01*
X92404785Y-44077861D01*
X93197606Y-43396730D01*
X93902282Y-42823376D01*
X94531529Y-42348891D01*
X95098063Y-41964367D01*
X95614599Y-41660895D01*
X96093855Y-41429566D01*
X96548545Y-41261473D01*
X96754131Y-41202626D01*
X97147505Y-41116503D01*
X97502748Y-41083519D01*
X97871651Y-41105980D01*
X98306006Y-41186191D01*
X98723450Y-41290301D01*
X99471014Y-41527689D01*
X100077988Y-41802944D01*
X100534671Y-42110959D01*
X100783421Y-42374941D01*
X100977489Y-42782509D01*
X101031087Y-43257085D01*
X100943567Y-43770155D01*
X100822433Y-44085929D01*
X100598116Y-44460625D01*
X100258176Y-44890748D01*
X99832185Y-45344591D01*
X99349716Y-45790447D01*
X98883754Y-46164560D01*
X98457262Y-46457038D01*
X97960235Y-46758840D01*
X97439283Y-47044909D01*
X96941017Y-47290192D01*
X96512048Y-47469631D01*
X96363174Y-47519509D01*
X96140549Y-47606727D01*
X96035977Y-47689452D01*
X96064469Y-47747951D01*
X96177200Y-47764009D01*
X96437917Y-47823190D01*
X96768873Y-47978103D01*
X97122650Y-48202701D01*
X97433808Y-48454248D01*
X97808870Y-48877007D01*
X98065181Y-49331874D01*
X98201347Y-49794093D01*
X98215976Y-50238910D01*
X98107674Y-50641569D01*
X97875047Y-50977314D01*
X97587609Y-51186875D01*
X97260154Y-51313755D01*
X96891244Y-51362766D01*
X96457687Y-51331397D01*
X95936289Y-51217135D01*
X95303857Y-51017471D01*
X94996200Y-50906297D01*
X94549657Y-50745619D01*
X94127913Y-50603620D01*
X93771340Y-50493228D01*
X93520309Y-50427368D01*
X93472200Y-50418317D01*
X93249322Y-50387002D01*
X93167215Y-50396907D01*
X93199353Y-50463060D01*
X93263124Y-50536775D01*
X93451594Y-50691737D01*
X93761490Y-50883758D01*
X94154730Y-51093056D01*
X94593232Y-51299852D01*
X95038912Y-51484367D01*
X95205838Y-51545801D01*
X95489786Y-51637295D01*
X95766706Y-51702604D01*
X96079609Y-51747764D01*
X96471507Y-51778807D01*
X96985412Y-51801769D01*
X97045266Y-51803856D01*
X97653575Y-51816421D01*
X98117412Y-51802746D01*
X98460461Y-51756519D01*
X98706407Y-51671427D01*
X98878935Y-51541157D01*
X99001728Y-51359398D01*
X99041865Y-51271728D01*
X99108060Y-51052713D01*
X99126443Y-50802501D01*
X99092906Y-50494252D01*
X99003341Y-50101127D01*
X98853639Y-49596286D01*
X98725662Y-49205999D01*
X98546184Y-48636801D01*
X98439569Y-48206404D01*
X98405285Y-47901011D01*
X98442801Y-47706822D01*
X98551582Y-47610039D01*
X98663455Y-47592817D01*
X98859357Y-47616163D01*
X99183553Y-47680551D01*
X99602402Y-47777506D01*
X100082267Y-47898550D01*
X100589508Y-48035207D01*
X101090488Y-48179001D01*
X101538960Y-48317387D01*
X103568454Y-49057164D01*
X105519620Y-49943790D01*
X107395777Y-50979353D01*
X109200244Y-52165942D01*
X110936339Y-53505644D01*
X112607380Y-55000548D01*
X113387602Y-55774104D01*
X114228048Y-56656970D01*
X114960532Y-57479629D01*
X115614455Y-58280891D01*
X116219222Y-59099565D01*
X116804234Y-59974462D01*
X117398895Y-60944392D01*
X117711374Y-61481204D01*
X118918134Y-63746844D01*
X119961917Y-66054823D01*
X120844727Y-68411159D01*
X121568566Y-70821869D01*
X122135437Y-73292972D01*
X122547343Y-75830488D01*
X122584702Y-76125483D01*
X122628484Y-76536619D01*
X122663493Y-76997359D01*
X122690507Y-77529435D01*
X122710305Y-78154579D01*
X122723665Y-78894521D01*
X122731366Y-79770995D01*
X122733356Y-80274150D01*
X122734911Y-81079035D01*
X122734159Y-81736835D01*
X122730053Y-82269796D01*
X122721548Y-82700160D01*
X122707598Y-83050173D01*
X122687157Y-83342078D01*
X122659180Y-83598120D01*
X122622621Y-83840543D01*
X122576434Y-84091592D01*
X122546952Y-84239411D01*
X122148587Y-85788743D01*
X121588670Y-87317512D01*
X120874854Y-88811824D01*
X120014789Y-90257783D01*
X119016128Y-91641491D01*
X117886520Y-92949054D01*
X117571582Y-93275578D01*
X117015894Y-93814654D01*
X116402959Y-94368259D01*
X115777019Y-94898649D01*
X115182314Y-95368077D01*
X114764665Y-95670325D01*
X114431507Y-95922085D01*
X114078078Y-96224608D01*
X113851367Y-96441737D01*
X113267838Y-96959019D01*
X112668658Y-97321137D01*
X112206166Y-97496344D01*
X111814218Y-97587756D01*
X111426321Y-97623579D01*
X111019557Y-97598514D01*
X110571007Y-97507258D01*
X110057750Y-97344510D01*
X109456867Y-97104968D01*
X108745440Y-96783332D01*
X108389690Y-96613571D01*
X107868001Y-96366101D01*
X107352597Y-96129725D01*
X106879443Y-95920343D01*
X106484503Y-95753859D01*
X106203740Y-95646173D01*
X106195058Y-95643199D01*
X105219487Y-95398131D01*
X104191491Y-95299828D01*
X103129155Y-95341102D01*
X102050565Y-95514762D01*
X100973806Y-95813620D01*
X99916963Y-96230486D01*
X98898122Y-96758171D01*
X97935368Y-97389485D01*
X97046786Y-98117240D01*
X96250462Y-98934246D01*
X95564481Y-99833313D01*
X95532385Y-99881841D01*
X95171332Y-100503840D01*
X94852998Y-101189155D01*
X94606833Y-101869429D01*
X94498344Y-102281793D01*
X94408376Y-102701300D01*
X93969871Y-102789679D01*
X93147412Y-102926258D01*
X92201328Y-103034132D01*
X91175154Y-103111649D01*
X90112422Y-103157155D01*
X89056668Y-103168996D01*
X88051424Y-103145521D01*
X87140225Y-103085074D01*
X86885033Y-103058727D01*
X84916723Y-102784932D01*
X82949832Y-102408465D01*
X80954692Y-101922293D01*
X78901633Y-101319380D01*
X77317700Y-100790455D01*
X75554382Y-100151073D01*
X73951051Y-99522450D01*
X72498996Y-98900689D01*
X71189505Y-98281893D01*
X70013868Y-97662167D01*
X69048903Y-97091540D01*
X68188439Y-96552035D01*
X68131893Y-96853453D01*
X68045804Y-97145961D01*
X67880064Y-97556249D01*
X67646605Y-98059667D01*
X67357360Y-98631564D01*
X67024262Y-99247291D01*
X66695015Y-99821650D01*
X66218116Y-100675234D01*
X65839704Y-101458269D01*
X65538489Y-102219902D01*
X65293183Y-103009282D01*
X65258673Y-103137747D01*
X64998743Y-104396511D01*
X64884554Y-105630711D01*
X64912730Y-106828391D01*
X65079895Y-107977597D01*
X65382675Y-109066375D01*
X65817693Y-110082769D01*
X66381574Y-111014824D01*
X67070943Y-111850586D01*
X67882423Y-112578100D01*
X67935671Y-112618612D01*
X68601512Y-113120338D01*
X68429939Y-113291911D01*
X68180642Y-113429510D01*
X67860174Y-113446608D01*
X67618482Y-113382201D01*
X67346970Y-113244219D01*
X66989652Y-113023951D01*
X66586746Y-112750480D01*
X66178467Y-112452889D01*
X65805032Y-112160261D01*
X65506659Y-111901677D01*
X65353608Y-111744355D01*
X64661282Y-110795490D01*
X64124950Y-109780812D01*
X63744630Y-108700438D01*
X63520345Y-107554483D01*
X63452114Y-106343062D01*
X63539959Y-105066292D01*
X63783900Y-103724288D01*
X63862382Y-103405273D01*
X64199011Y-102296403D01*
X64633760Y-101178697D01*
X65149086Y-100085228D01*
X65727442Y-99049068D01*
X66351285Y-98103289D01*
X67003070Y-97280963D01*
X67258464Y-97003539D01*
X67884377Y-96354898D01*
X67161205Y-95829861D01*
X66359735Y-95211582D01*
X65508546Y-94490169D01*
X64646430Y-93702423D01*
X63812175Y-92885144D01*
X63044574Y-92075132D01*
X62382417Y-91309186D01*
X62337123Y-91253347D01*
X61310001Y-89856848D01*
X61241746Y-89744858D01*
X84192958Y-89744858D01*
X84208112Y-90321752D01*
X84355124Y-90826039D01*
X84649674Y-91307249D01*
X84712791Y-91386945D01*
X85180607Y-91860590D01*
X85722222Y-92214509D01*
X86355409Y-92455829D01*
X87097944Y-92591681D01*
X87810812Y-92629451D01*
X88517334Y-92605677D01*
X89077791Y-92524465D01*
X89198224Y-92494077D01*
X89692836Y-92291538D01*
X90086302Y-91984114D01*
X90384643Y-91561494D01*
X90593881Y-91013364D01*
X90720041Y-90329413D01*
X90759752Y-89820317D01*
X90774827Y-89491260D01*
X91118367Y-89491260D01*
X91160046Y-90158519D01*
X91278163Y-90785135D01*
X91462335Y-91341663D01*
X91702179Y-91798660D01*
X91987311Y-92126682D01*
X92069511Y-92188508D01*
X92461097Y-92377918D01*
X92972560Y-92516770D01*
X93560881Y-92600738D01*
X94183036Y-92625495D01*
X94796004Y-92586716D01*
X95246736Y-92508012D01*
X95963852Y-92273693D01*
X96578636Y-91939850D01*
X97078170Y-91519775D01*
X97449541Y-91026761D01*
X97679832Y-90474101D01*
X97755980Y-89925497D01*
X97719370Y-89569260D01*
X97612989Y-89227716D01*
X97456850Y-88930719D01*
X97270963Y-88708123D01*
X97075339Y-88589783D01*
X96889991Y-88605554D01*
X96876457Y-88613348D01*
X96798189Y-88757921D01*
X96827753Y-89019001D01*
X96918033Y-89278091D01*
X97000934Y-89589852D01*
X97038384Y-89975761D01*
X97030152Y-90369598D01*
X96976006Y-90705147D01*
X96923514Y-90846884D01*
X96684033Y-91172663D01*
X96326789Y-91488600D01*
X95900798Y-91755540D01*
X95637943Y-91873862D01*
X95297486Y-91981288D01*
X94930597Y-92044088D01*
X94474635Y-92071916D01*
X94335700Y-92074589D01*
X93805939Y-92071533D01*
X93403462Y-92039713D01*
X93087257Y-91969070D01*
X92816311Y-91849539D01*
X92549610Y-91671060D01*
X92484230Y-91620355D01*
X92137657Y-91268096D01*
X91890241Y-90826870D01*
X91730057Y-90271164D01*
X91671975Y-89882328D01*
X91622918Y-89464781D01*
X91579184Y-89187423D01*
X91530576Y-89021819D01*
X91466898Y-88939539D01*
X91377950Y-88912149D01*
X91323306Y-88910150D01*
X91215377Y-88919955D01*
X91154037Y-88974177D01*
X91126161Y-89110030D01*
X91118627Y-89364724D01*
X91118367Y-89491260D01*
X90774827Y-89491260D01*
X90801451Y-88910150D01*
X90578909Y-88910150D01*
X90414633Y-88935845D01*
X90356367Y-88988690D01*
X90345762Y-89105039D01*
X90317662Y-89342613D01*
X90277634Y-89654883D01*
X90267708Y-89729523D01*
X90178637Y-90288641D01*
X90071782Y-90715801D01*
X89931642Y-91048365D01*
X89742712Y-91323693D01*
X89506523Y-91563927D01*
X89169196Y-91822826D01*
X88811943Y-91993544D01*
X88390358Y-92090026D01*
X87860032Y-92126219D01*
X87711996Y-92127483D01*
X86951497Y-92069320D01*
X86280738Y-91899172D01*
X85715254Y-91623554D01*
X85270580Y-91248980D01*
X85102951Y-91033468D01*
X84947690Y-90763787D01*
X84872860Y-90506707D01*
X84853044Y-90173686D01*
X84853033Y-90162915D01*
X84875584Y-89827534D01*
X84933318Y-89509538D01*
X84980033Y-89362757D01*
X85095235Y-89008620D01*
X85094428Y-88776012D01*
X84977709Y-88665785D01*
X84899675Y-88656150D01*
X84667622Y-88735102D01*
X84459337Y-88949116D01*
X84297062Y-89263927D01*
X84203040Y-89645270D01*
X84192958Y-89744858D01*
X61241746Y-89744858D01*
X60401917Y-88366902D01*
X59624440Y-86807525D01*
X58989141Y-85202734D01*
X58507589Y-83576544D01*
X58387838Y-83055496D01*
X58275171Y-82388112D01*
X58189569Y-81589011D01*
X58131950Y-80693782D01*
X58103234Y-79738010D01*
X58104342Y-78757283D01*
X58107216Y-78669743D01*
X67193052Y-78669743D01*
X67206132Y-79741392D01*
X67325571Y-80724088D01*
X67401961Y-81078483D01*
X67744562Y-82162065D01*
X68216560Y-83181989D01*
X68804383Y-84125907D01*
X69494456Y-84981473D01*
X70273204Y-85736338D01*
X71127055Y-86378155D01*
X72042434Y-86894577D01*
X73005768Y-87273255D01*
X74003482Y-87501843D01*
X74523700Y-87556812D01*
X75544353Y-87607706D01*
X76408381Y-87620810D01*
X77124223Y-87596119D01*
X77553748Y-87554787D01*
X78788909Y-87331356D01*
X79904577Y-86995004D01*
X80911760Y-86540714D01*
X81421062Y-86217541D01*
X86901418Y-86217541D01*
X86999204Y-86702460D01*
X87102394Y-86942421D01*
X87436522Y-87440426D01*
X87904734Y-87856483D01*
X88513833Y-88195228D01*
X89270622Y-88461298D01*
X89371019Y-88488388D01*
X89930981Y-88591870D01*
X90576225Y-88642566D01*
X91236792Y-88639382D01*
X91842720Y-88581222D01*
X92103388Y-88531170D01*
X92784086Y-88317789D01*
X93400073Y-88021777D01*
X93923972Y-87661321D01*
X94328408Y-87254605D01*
X94547966Y-86907261D01*
X94674873Y-86456083D01*
X94665860Y-85968322D01*
X94524138Y-85503916D01*
X94467030Y-85396233D01*
X94087104Y-84908805D01*
X93583459Y-84505794D01*
X92980235Y-84189084D01*
X92301570Y-83960559D01*
X91571604Y-83822103D01*
X90814476Y-83775601D01*
X90054326Y-83822936D01*
X89315293Y-83965993D01*
X88621516Y-84206656D01*
X87997135Y-84546808D01*
X87597879Y-84860079D01*
X87198891Y-85304187D01*
X86967359Y-85754062D01*
X86901418Y-86217541D01*
X81421062Y-86217541D01*
X81821465Y-85963469D01*
X82644700Y-85258251D01*
X82689367Y-85213976D01*
X83486991Y-84299834D01*
X84144844Y-83294115D01*
X84659266Y-82205979D01*
X85026598Y-81044584D01*
X85243179Y-79819090D01*
X85282684Y-79095755D01*
X98240153Y-79095755D01*
X98242184Y-79903171D01*
X98286239Y-80609516D01*
X98349715Y-81059423D01*
X98493741Y-81682120D01*
X98692813Y-82355186D01*
X98924606Y-83011229D01*
X99166793Y-83582858D01*
X99225574Y-83703150D01*
X99771431Y-84625791D01*
X100433781Y-85480788D01*
X101188730Y-86245057D01*
X102012384Y-86895517D01*
X102880848Y-87409084D01*
X103224791Y-87566553D01*
X103578186Y-87696085D01*
X104045777Y-87840983D01*
X104575018Y-87987093D01*
X105113364Y-88120264D01*
X105608271Y-88226342D01*
X105808033Y-88262335D01*
X106014413Y-88279364D01*
X106352585Y-88287996D01*
X106790689Y-88289101D01*
X107296867Y-88283550D01*
X107839258Y-88272214D01*
X108386003Y-88255961D01*
X108905243Y-88235664D01*
X109365118Y-88212193D01*
X109733769Y-88186417D01*
X109979337Y-88159208D01*
X110041367Y-88146681D01*
X111154351Y-87752177D01*
X112189491Y-87213842D01*
X113136080Y-86543301D01*
X113983411Y-85752177D01*
X114720780Y-84852094D01*
X115337481Y-83854676D01*
X115822807Y-82771546D01*
X116166054Y-81614330D01*
X116199358Y-81460613D01*
X116313851Y-80627690D01*
X116341041Y-79686128D01*
X116284520Y-78670156D01*
X116147881Y-77614004D01*
X115934717Y-76551903D01*
X115648619Y-75518083D01*
X115542214Y-75198718D01*
X114994886Y-73827249D01*
X114346354Y-72557564D01*
X113604360Y-71397820D01*
X112776648Y-70356173D01*
X111870960Y-69440779D01*
X110895038Y-68659795D01*
X109856626Y-68021378D01*
X108763465Y-67533683D01*
X108051700Y-67307912D01*
X107379931Y-67174492D01*
X106642007Y-67107755D01*
X105893313Y-67107695D01*
X105189236Y-67174302D01*
X104585161Y-67307569D01*
X104582502Y-67308398D01*
X103578175Y-67709000D01*
X102653035Y-68258601D01*
X101807973Y-68956053D01*
X101043884Y-69800208D01*
X100361660Y-70789920D01*
X99762194Y-71924039D01*
X99246379Y-73201419D01*
X98815109Y-74620912D01*
X98777022Y-74769228D01*
X98604648Y-75556305D01*
X98462393Y-76417542D01*
X98352638Y-77317894D01*
X98277765Y-78222314D01*
X98240153Y-79095755D01*
X85282684Y-79095755D01*
X85306184Y-78665483D01*
X85251355Y-77214179D01*
X85092612Y-75795560D01*
X84835595Y-74424909D01*
X84485945Y-73117508D01*
X84049301Y-71888638D01*
X83531305Y-70753581D01*
X82937596Y-69727620D01*
X82273815Y-68826036D01*
X81545603Y-68064111D01*
X81321828Y-67870344D01*
X80734101Y-67445014D01*
X80064616Y-67060624D01*
X79372228Y-66746837D01*
X78715795Y-66533315D01*
X78627805Y-66512597D01*
X78103212Y-66435420D01*
X77476441Y-66404491D01*
X76807703Y-66418072D01*
X76157212Y-66474427D01*
X75585183Y-66571819D01*
X75455033Y-66604107D01*
X74357056Y-66986069D01*
X73301192Y-67524948D01*
X72296404Y-68211602D01*
X71351655Y-69036893D01*
X70475909Y-69991680D01*
X69678129Y-71066822D01*
X68967277Y-72253179D01*
X68352318Y-73541611D01*
X68144502Y-74059063D01*
X67762055Y-75203803D01*
X67474004Y-76372677D01*
X67283339Y-77537415D01*
X67193052Y-78669743D01*
X58107216Y-78669743D01*
X58136193Y-77787188D01*
X58199708Y-76863310D01*
X58221808Y-76632249D01*
X58556762Y-74149918D01*
X59048989Y-71728237D01*
X59697413Y-69369781D01*
X60500961Y-67077123D01*
X61458556Y-64852837D01*
X62565067Y-62707364D01*
X76612144Y-62707364D01*
X76646812Y-63059800D01*
X76739203Y-63361830D01*
X76871900Y-63568170D01*
X76966234Y-63628021D01*
X77206001Y-63660393D01*
X77561816Y-63660283D01*
X77984504Y-63632292D01*
X78424892Y-63581021D01*
X78833803Y-63511069D01*
X79162065Y-63427038D01*
X79180367Y-63420879D01*
X79888558Y-63091180D01*
X80518278Y-62624176D01*
X80834151Y-62298616D01*
X81050826Y-61964097D01*
X103987700Y-61964097D01*
X104011673Y-62145008D01*
X104100909Y-62322817D01*
X104281383Y-62540264D01*
X104432200Y-62695497D01*
X104718455Y-62958259D01*
X105026347Y-63205047D01*
X105266156Y-63367905D01*
X105770062Y-63601633D01*
X106361892Y-63779537D01*
X106983662Y-63890904D01*
X107577389Y-63925020D01*
X108040971Y-63880596D01*
X108208863Y-63825285D01*
X108316666Y-63711686D01*
X108404625Y-63491489D01*
X108427499Y-63416583D01*
X108513273Y-62971127D01*
X108469023Y-62594688D01*
X108283273Y-62242561D01*
X108059491Y-61983092D01*
X107618978Y-61622319D01*
X107097559Y-61369620D01*
X106470865Y-61215633D01*
X105914885Y-61159170D01*
X105247869Y-61158799D01*
X104717667Y-61236522D01*
X104328376Y-61390628D01*
X104084092Y-61619406D01*
X103988910Y-61921146D01*
X103987700Y-61964097D01*
X81050826Y-61964097D01*
X81053411Y-61960107D01*
X81115294Y-61654017D01*
X81029987Y-61388343D01*
X80807678Y-61171082D01*
X80458553Y-61010231D01*
X79992799Y-60913788D01*
X79420603Y-60889751D01*
X79065586Y-60910168D01*
X78381169Y-61023028D01*
X77786743Y-61224901D01*
X77297468Y-61504680D01*
X76928505Y-61851260D01*
X76695016Y-62253534D01*
X76612163Y-62700398D01*
X76612144Y-62707364D01*
X62565067Y-62707364D01*
X62569124Y-62699498D01*
X63831591Y-60619678D01*
X65244881Y-58615953D01*
X66300716Y-57287150D01*
X66759162Y-56762241D01*
X67317765Y-56163471D01*
X67944204Y-55522447D01*
X68606157Y-54870775D01*
X69271303Y-54240060D01*
X69907322Y-53661908D01*
X70481890Y-53167927D01*
X70668865Y-53015667D01*
X71724607Y-52204252D01*
X72748595Y-51489336D01*
X73792768Y-50838200D01*
X74909064Y-50218121D01*
X75920700Y-49706944D01*
X77382963Y-49018526D01*
X78734075Y-48433376D01*
X79992286Y-47945542D01*
X81175846Y-47549074D01*
X82303009Y-47238020D01*
X83392023Y-47006432D01*
X84461142Y-46848356D01*
X84797106Y-46812799D01*
X85244431Y-46768125D01*
X85553109Y-46729835D01*
X85753209Y-46689859D01*
X85874800Y-46640127D01*
X85947949Y-46572570D01*
X85996695Y-46490871D01*
X86089937Y-46241461D01*
X86175206Y-45864090D01*
X86254352Y-45347411D01*
X86329226Y-44680077D01*
X86376170Y-44163817D01*
X86479377Y-43142937D01*
X86606754Y-42271839D01*
X86764531Y-41531924D01*
X86958935Y-40904595D01*
X87196194Y-40371252D01*
X87482536Y-39913298D01*
X87824191Y-39512134D01*
X87986419Y-39355427D01*
X88340208Y-39076209D01*
X88797414Y-38779742D01*
X89310614Y-38491057D01*
X89832387Y-38235187D01*
X90315311Y-38037164D01*
X90695927Y-37925212D01*
X91267981Y-37874529D01*
X91758653Y-37971806D01*
G37*
X80172548Y-110373775D02*
X80544202Y-110509025D01*
X80960979Y-110703575D01*
X81391316Y-110945349D01*
X81531004Y-111033492D01*
X81854473Y-111254764D01*
X82193666Y-111505083D01*
X82520426Y-111761341D01*
X82806595Y-112000429D01*
X83024018Y-112199239D01*
X83144537Y-112334663D01*
X83159700Y-112370144D01*
X83081345Y-112412573D01*
X82869431Y-112437401D01*
X82558687Y-112445834D01*
X82183838Y-112439075D01*
X81779614Y-112418331D01*
X81380741Y-112384804D01*
X81021946Y-112339701D01*
X80746700Y-112286442D01*
X80197517Y-112128864D01*
X79753669Y-111960643D01*
X79433898Y-111790609D01*
X79256945Y-111627594D01*
X79231910Y-111572689D01*
X79188327Y-111144956D01*
X79284941Y-110761845D01*
X79509528Y-110456469D01*
X79690867Y-110329478D01*
X79877582Y-110309901D01*
X80172548Y-110373775D01*
G36*
X80172548Y-110373775D02*
G01*
X80544202Y-110509025D01*
X80960979Y-110703575D01*
X81391316Y-110945349D01*
X81531004Y-111033492D01*
X81854473Y-111254764D01*
X82193666Y-111505083D01*
X82520426Y-111761341D01*
X82806595Y-112000429D01*
X83024018Y-112199239D01*
X83144537Y-112334663D01*
X83159700Y-112370144D01*
X83081345Y-112412573D01*
X82869431Y-112437401D01*
X82558687Y-112445834D01*
X82183838Y-112439075D01*
X81779614Y-112418331D01*
X81380741Y-112384804D01*
X81021946Y-112339701D01*
X80746700Y-112286442D01*
X80197517Y-112128864D01*
X79753669Y-111960643D01*
X79433898Y-111790609D01*
X79256945Y-111627594D01*
X79231910Y-111572689D01*
X79188327Y-111144956D01*
X79284941Y-110761845D01*
X79509528Y-110456469D01*
X79690867Y-110329478D01*
X79877582Y-110309901D01*
X80172548Y-110373775D01*
G37*
X81405111Y-108347648D02*
X81514428Y-108381252D01*
X81997578Y-108581021D01*
X82542582Y-108884560D01*
X83103921Y-109264703D01*
X83456033Y-109540042D01*
X84048700Y-110031300D01*
X83710033Y-110091513D01*
X83210496Y-110142692D01*
X82736367Y-110107518D01*
X82232082Y-110016772D01*
X81754113Y-109899661D01*
X81335169Y-109767001D01*
X81007962Y-109629606D01*
X80805200Y-109498292D01*
X80770862Y-109457647D01*
X80699375Y-109202735D01*
X80743392Y-108898182D01*
X80891230Y-108606138D01*
X80942928Y-108542491D01*
X81103385Y-108377206D01*
X81231728Y-108319515D01*
X81405111Y-108347648D01*
G36*
X81405111Y-108347648D02*
G01*
X81514428Y-108381252D01*
X81997578Y-108581021D01*
X82542582Y-108884560D01*
X83103921Y-109264703D01*
X83456033Y-109540042D01*
X84048700Y-110031300D01*
X83710033Y-110091513D01*
X83210496Y-110142692D01*
X82736367Y-110107518D01*
X82232082Y-110016772D01*
X81754113Y-109899661D01*
X81335169Y-109767001D01*
X81007962Y-109629606D01*
X80805200Y-109498292D01*
X80770862Y-109457647D01*
X80699375Y-109202735D01*
X80743392Y-108898182D01*
X80891230Y-108606138D01*
X80942928Y-108542491D01*
X81103385Y-108377206D01*
X81231728Y-108319515D01*
X81405111Y-108347648D01*
G37*
X118117342Y-97463053D02*
X118285261Y-97600255D01*
X118507425Y-97810063D01*
X118606148Y-97910060D01*
X119659487Y-99110159D01*
X120557940Y-100374322D01*
X121300102Y-101700087D01*
X121884570Y-103084994D01*
X122258239Y-104314372D01*
X122336001Y-104634957D01*
X122393649Y-104915675D01*
X122434194Y-105191358D01*
X122460647Y-105496840D01*
X122476019Y-105866953D01*
X122483322Y-106336530D01*
X122485566Y-106940405D01*
X122485570Y-106944150D01*
X122478232Y-107636672D01*
X122455940Y-108265707D01*
X122420510Y-108812813D01*
X122373756Y-109259547D01*
X122317493Y-109587466D01*
X122253535Y-109778127D01*
X122202613Y-109820021D01*
X122109106Y-109781947D01*
X121900998Y-109681718D01*
X121613293Y-109536503D01*
X121408582Y-109430514D01*
X120932396Y-109154263D01*
X120495807Y-108834764D01*
X120038471Y-108426914D01*
X119945592Y-108337023D01*
X119647966Y-108032231D01*
X119388145Y-107740760D01*
X119196056Y-107497776D01*
X119106267Y-107350697D01*
X118964030Y-106876492D01*
X118920233Y-106355215D01*
X118976677Y-105764411D01*
X119135164Y-105081623D01*
X119339308Y-104446483D01*
X119466471Y-104065284D01*
X119545706Y-103755131D01*
X119587631Y-103449672D01*
X119602870Y-103082557D01*
X119603576Y-102795483D01*
X119555500Y-101993993D01*
X119414554Y-101168757D01*
X119174092Y-100295553D01*
X118827467Y-99350158D01*
X118378407Y-98330367D01*
X118221711Y-97982998D01*
X118104476Y-97694738D01*
X118038848Y-97497548D01*
X118034072Y-97424276D01*
X118117342Y-97463053D01*
G36*
X118117342Y-97463053D02*
G01*
X118285261Y-97600255D01*
X118507425Y-97810063D01*
X118606148Y-97910060D01*
X119659487Y-99110159D01*
X120557940Y-100374322D01*
X121300102Y-101700087D01*
X121884570Y-103084994D01*
X122258239Y-104314372D01*
X122336001Y-104634957D01*
X122393649Y-104915675D01*
X122434194Y-105191358D01*
X122460647Y-105496840D01*
X122476019Y-105866953D01*
X122483322Y-106336530D01*
X122485566Y-106940405D01*
X122485570Y-106944150D01*
X122478232Y-107636672D01*
X122455940Y-108265707D01*
X122420510Y-108812813D01*
X122373756Y-109259547D01*
X122317493Y-109587466D01*
X122253535Y-109778127D01*
X122202613Y-109820021D01*
X122109106Y-109781947D01*
X121900998Y-109681718D01*
X121613293Y-109536503D01*
X121408582Y-109430514D01*
X120932396Y-109154263D01*
X120495807Y-108834764D01*
X120038471Y-108426914D01*
X119945592Y-108337023D01*
X119647966Y-108032231D01*
X119388145Y-107740760D01*
X119196056Y-107497776D01*
X119106267Y-107350697D01*
X118964030Y-106876492D01*
X118920233Y-106355215D01*
X118976677Y-105764411D01*
X119135164Y-105081623D01*
X119339308Y-104446483D01*
X119466471Y-104065284D01*
X119545706Y-103755131D01*
X119587631Y-103449672D01*
X119602870Y-103082557D01*
X119603576Y-102795483D01*
X119555500Y-101993993D01*
X119414554Y-101168757D01*
X119174092Y-100295553D01*
X118827467Y-99350158D01*
X118378407Y-98330367D01*
X118221711Y-97982998D01*
X118104476Y-97694738D01*
X118038848Y-97497548D01*
X118034072Y-97424276D01*
X118117342Y-97463053D01*
G37*
X109156789Y-98067716D02*
X109415180Y-98293897D01*
X109660269Y-98644108D01*
X109877762Y-99104115D01*
X109963375Y-99344857D01*
X110074743Y-99723898D01*
X110144273Y-100067199D01*
X110181309Y-100440313D01*
X110195194Y-100908793D01*
X110195752Y-100975150D01*
X110192786Y-101429344D01*
X110171111Y-101773835D01*
X110122420Y-102067931D01*
X110038410Y-102370941D01*
X109972948Y-102566319D01*
X109543896Y-103605624D01*
X109009977Y-104572590D01*
X108385190Y-105453443D01*
X107683536Y-106234410D01*
X106919014Y-106901717D01*
X106105625Y-107441593D01*
X105257369Y-107840263D01*
X104388246Y-108083955D01*
X104358957Y-108089270D01*
X103911973Y-108161181D01*
X103561760Y-108193236D01*
X103240849Y-108186782D01*
X102881768Y-108143167D01*
X102747053Y-108121460D01*
X102425821Y-108052891D01*
X102095712Y-107958270D01*
X101793836Y-107851647D01*
X101557303Y-107747070D01*
X101423224Y-107658590D01*
X101409358Y-107615024D01*
X101506759Y-107587548D01*
X101742511Y-107564295D01*
X102085649Y-107547122D01*
X102505208Y-107537888D01*
X102712893Y-107536817D01*
X103968092Y-107536817D01*
X104634063Y-107201328D01*
X105505022Y-106668342D01*
X106302716Y-105985602D01*
X107022343Y-105158227D01*
X107659101Y-104191340D01*
X107930546Y-103685865D01*
X108395589Y-102621990D01*
X108706714Y-101591202D01*
X108862773Y-100600412D01*
X108862614Y-99656530D01*
X108731932Y-98868580D01*
X108644419Y-98500589D01*
X108602765Y-98263078D01*
X108604099Y-98124357D01*
X108645550Y-98052735D01*
X108657280Y-98044377D01*
X108899391Y-97979798D01*
X109156789Y-98067716D01*
G36*
X109156789Y-98067716D02*
G01*
X109415180Y-98293897D01*
X109660269Y-98644108D01*
X109877762Y-99104115D01*
X109963375Y-99344857D01*
X110074743Y-99723898D01*
X110144273Y-100067199D01*
X110181309Y-100440313D01*
X110195194Y-100908793D01*
X110195752Y-100975150D01*
X110192786Y-101429344D01*
X110171111Y-101773835D01*
X110122420Y-102067931D01*
X110038410Y-102370941D01*
X109972948Y-102566319D01*
X109543896Y-103605624D01*
X109009977Y-104572590D01*
X108385190Y-105453443D01*
X107683536Y-106234410D01*
X106919014Y-106901717D01*
X106105625Y-107441593D01*
X105257369Y-107840263D01*
X104388246Y-108083955D01*
X104358957Y-108089270D01*
X103911973Y-108161181D01*
X103561760Y-108193236D01*
X103240849Y-108186782D01*
X102881768Y-108143167D01*
X102747053Y-108121460D01*
X102425821Y-108052891D01*
X102095712Y-107958270D01*
X101793836Y-107851647D01*
X101557303Y-107747070D01*
X101423224Y-107658590D01*
X101409358Y-107615024D01*
X101506759Y-107587548D01*
X101742511Y-107564295D01*
X102085649Y-107547122D01*
X102505208Y-107537888D01*
X102712893Y-107536817D01*
X103968092Y-107536817D01*
X104634063Y-107201328D01*
X105505022Y-106668342D01*
X106302716Y-105985602D01*
X107022343Y-105158227D01*
X107659101Y-104191340D01*
X107930546Y-103685865D01*
X108395589Y-102621990D01*
X108706714Y-101591202D01*
X108862773Y-100600412D01*
X108862614Y-99656530D01*
X108731932Y-98868580D01*
X108644419Y-98500589D01*
X108602765Y-98263078D01*
X108604099Y-98124357D01*
X108645550Y-98052735D01*
X108657280Y-98044377D01*
X108899391Y-97979798D01*
X109156789Y-98067716D01*
G37*
X100543823Y-103048638D02*
X100719772Y-103188885D01*
X100930814Y-103395378D01*
X101221642Y-103746288D01*
X101516039Y-104193928D01*
X101775967Y-104672933D01*
X101963385Y-105117937D01*
X101998280Y-105229650D01*
X102011064Y-105367520D01*
X101935414Y-105411343D01*
X101755715Y-105359767D01*
X101456354Y-105211445D01*
X101394078Y-105177416D01*
X100852011Y-104852855D01*
X100391264Y-104525876D01*
X100029565Y-104212290D01*
X99784641Y-103927909D01*
X99674218Y-103688545D01*
X99669700Y-103639280D01*
X99745913Y-103393519D01*
X99944079Y-103171966D01*
X100218491Y-103022559D01*
X100272529Y-103007009D01*
X100407400Y-102995481D01*
X100543823Y-103048638D01*
G36*
X100543823Y-103048638D02*
G01*
X100719772Y-103188885D01*
X100930814Y-103395378D01*
X101221642Y-103746288D01*
X101516039Y-104193928D01*
X101775967Y-104672933D01*
X101963385Y-105117937D01*
X101998280Y-105229650D01*
X102011064Y-105367520D01*
X101935414Y-105411343D01*
X101755715Y-105359767D01*
X101456354Y-105211445D01*
X101394078Y-105177416D01*
X100852011Y-104852855D01*
X100391264Y-104525876D01*
X100029565Y-104212290D01*
X99784641Y-103927909D01*
X99674218Y-103688545D01*
X99669700Y-103639280D01*
X99745913Y-103393519D01*
X99944079Y-103171966D01*
X100218491Y-103022559D01*
X100272529Y-103007009D01*
X100407400Y-102995481D01*
X100543823Y-103048638D01*
G37*
X77068254Y-102013462D02*
X78142071Y-102174775D01*
X79144346Y-102464699D01*
X80061302Y-102880715D01*
X80879163Y-103420307D01*
X81241016Y-103730411D01*
X81509110Y-103987644D01*
X81723250Y-104206169D01*
X81857345Y-104358550D01*
X81889700Y-104412513D01*
X81864193Y-104459753D01*
X81771897Y-104472891D01*
X81589151Y-104448711D01*
X81292290Y-104384002D01*
X80857654Y-104275549D01*
X80831367Y-104268788D01*
X80454173Y-104177803D01*
X79969163Y-104069674D01*
X79435199Y-103957102D01*
X78911147Y-103852786D01*
X78841700Y-103839521D01*
X78359718Y-103751136D01*
X77966798Y-103689795D01*
X77613146Y-103651875D01*
X77248970Y-103633752D01*
X76824477Y-103631803D01*
X76289874Y-103642406D01*
X76174700Y-103645460D01*
X75566297Y-103659622D01*
X74892447Y-103671489D01*
X74224214Y-103680034D01*
X73632661Y-103684228D01*
X73479602Y-103684483D01*
X72988250Y-103682614D01*
X72638588Y-103674867D01*
X72402993Y-103658033D01*
X72253843Y-103628905D01*
X72163515Y-103584274D01*
X72107397Y-103525096D01*
X72035419Y-103380669D01*
X72066458Y-103225941D01*
X72106076Y-103144096D01*
X72303047Y-102883034D01*
X72610543Y-102663935D01*
X73048943Y-102475299D01*
X73555329Y-102326350D01*
X74761106Y-102086733D01*
X75936673Y-101983275D01*
X77068254Y-102013462D01*
G36*
X77068254Y-102013462D02*
G01*
X78142071Y-102174775D01*
X79144346Y-102464699D01*
X80061302Y-102880715D01*
X80879163Y-103420307D01*
X81241016Y-103730411D01*
X81509110Y-103987644D01*
X81723250Y-104206169D01*
X81857345Y-104358550D01*
X81889700Y-104412513D01*
X81864193Y-104459753D01*
X81771897Y-104472891D01*
X81589151Y-104448711D01*
X81292290Y-104384002D01*
X80857654Y-104275549D01*
X80831367Y-104268788D01*
X80454173Y-104177803D01*
X79969163Y-104069674D01*
X79435199Y-103957102D01*
X78911147Y-103852786D01*
X78841700Y-103839521D01*
X78359718Y-103751136D01*
X77966798Y-103689795D01*
X77613146Y-103651875D01*
X77248970Y-103633752D01*
X76824477Y-103631803D01*
X76289874Y-103642406D01*
X76174700Y-103645460D01*
X75566297Y-103659622D01*
X74892447Y-103671489D01*
X74224214Y-103680034D01*
X73632661Y-103684228D01*
X73479602Y-103684483D01*
X72988250Y-103682614D01*
X72638588Y-103674867D01*
X72402993Y-103658033D01*
X72253843Y-103628905D01*
X72163515Y-103584274D01*
X72107397Y-103525096D01*
X72035419Y-103380669D01*
X72066458Y-103225941D01*
X72106076Y-103144096D01*
X72303047Y-102883034D01*
X72610543Y-102663935D01*
X73048943Y-102475299D01*
X73555329Y-102326350D01*
X74761106Y-102086733D01*
X75936673Y-101983275D01*
X77068254Y-102013462D01*
G37*
X101864609Y-101086555D02*
X102124036Y-101277996D01*
X102418531Y-101568146D01*
X102722763Y-101933346D01*
X102883057Y-102154704D01*
X103084667Y-102477886D01*
X103271238Y-102830621D01*
X103431113Y-103182624D01*
X103552634Y-103503608D01*
X103624141Y-103763288D01*
X103633979Y-103931376D01*
X103585533Y-103979626D01*
X103486778Y-103941032D01*
X103278699Y-103839213D01*
X102999898Y-103693349D01*
X102891057Y-103634518D01*
X102561417Y-103450029D01*
X102257113Y-103271406D01*
X102034217Y-103131742D01*
X102002057Y-103109801D01*
X101730620Y-102899880D01*
X101445480Y-102647454D01*
X101176888Y-102383539D01*
X100955096Y-102139148D01*
X100810355Y-101945295D01*
X100770367Y-101847057D01*
X100848160Y-101523981D01*
X101055987Y-101254527D01*
X101355519Y-101074215D01*
X101665578Y-101017483D01*
X101864609Y-101086555D01*
G36*
X101864609Y-101086555D02*
G01*
X102124036Y-101277996D01*
X102418531Y-101568146D01*
X102722763Y-101933346D01*
X102883057Y-102154704D01*
X103084667Y-102477886D01*
X103271238Y-102830621D01*
X103431113Y-103182624D01*
X103552634Y-103503608D01*
X103624141Y-103763288D01*
X103633979Y-103931376D01*
X103585533Y-103979626D01*
X103486778Y-103941032D01*
X103278699Y-103839213D01*
X102999898Y-103693349D01*
X102891057Y-103634518D01*
X102561417Y-103450029D01*
X102257113Y-103271406D01*
X102034217Y-103131742D01*
X102002057Y-103109801D01*
X101730620Y-102899880D01*
X101445480Y-102647454D01*
X101176888Y-102383539D01*
X100955096Y-102139148D01*
X100810355Y-101945295D01*
X100770367Y-101847057D01*
X100848160Y-101523981D01*
X101055987Y-101254527D01*
X101355519Y-101074215D01*
X101665578Y-101017483D01*
X101864609Y-101086555D01*
G37*
X103110502Y-99481163D02*
X103341082Y-99679605D01*
X103601262Y-99976242D01*
X103870629Y-100343176D01*
X104128772Y-100752507D01*
X104355277Y-101176337D01*
X104529731Y-101586767D01*
X104535665Y-101603438D01*
X104597081Y-101805791D01*
X104592476Y-101914605D01*
X104502845Y-101931544D01*
X104309185Y-101858269D01*
X103992489Y-101696444D01*
X103919616Y-101657320D01*
X103471830Y-101392613D01*
X103038759Y-101094989D01*
X102660035Y-100794694D01*
X102375291Y-100521970D01*
X102282276Y-100407838D01*
X102170219Y-100217904D01*
X102161625Y-100058459D01*
X102213011Y-99908823D01*
X102383377Y-99671228D01*
X102641024Y-99487924D01*
X102913951Y-99409125D01*
X102929936Y-99408817D01*
X103110502Y-99481163D01*
G36*
X103110502Y-99481163D02*
G01*
X103341082Y-99679605D01*
X103601262Y-99976242D01*
X103870629Y-100343176D01*
X104128772Y-100752507D01*
X104355277Y-101176337D01*
X104529731Y-101586767D01*
X104535665Y-101603438D01*
X104597081Y-101805791D01*
X104592476Y-101914605D01*
X104502845Y-101931544D01*
X104309185Y-101858269D01*
X103992489Y-101696444D01*
X103919616Y-101657320D01*
X103471830Y-101392613D01*
X103038759Y-101094989D01*
X102660035Y-100794694D01*
X102375291Y-100521970D01*
X102282276Y-100407838D01*
X102170219Y-100217904D01*
X102161625Y-100058459D01*
X102213011Y-99908823D01*
X102383377Y-99671228D01*
X102641024Y-99487924D01*
X102913951Y-99409125D01*
X102929936Y-99408817D01*
X103110502Y-99481163D01*
G37*
X113380623Y-97960413D02*
X113873123Y-98051164D01*
X114403136Y-98193569D01*
X114942276Y-98381407D01*
X115462160Y-98608458D01*
X115841033Y-98811727D01*
X116389503Y-99197570D01*
X116889309Y-99665647D01*
X117312912Y-100182145D01*
X117632774Y-100713248D01*
X117821356Y-101225141D01*
X117826995Y-101250317D01*
X117859732Y-101434709D01*
X117861020Y-101521273D01*
X117858594Y-101522254D01*
X117784154Y-101471337D01*
X117614389Y-101340341D01*
X117384790Y-101156705D01*
X117365033Y-101140669D01*
X116337449Y-100381081D01*
X115290515Y-99752389D01*
X114274700Y-99280433D01*
X113625901Y-99020515D01*
X113123361Y-98808241D01*
X112753679Y-98634834D01*
X112503456Y-98491516D01*
X112359294Y-98369510D01*
X112307793Y-98260038D01*
X112335553Y-98154324D01*
X112412041Y-98060285D01*
X112621697Y-97958753D01*
X112954020Y-97927536D01*
X113380623Y-97960413D01*
G36*
X113380623Y-97960413D02*
G01*
X113873123Y-98051164D01*
X114403136Y-98193569D01*
X114942276Y-98381407D01*
X115462160Y-98608458D01*
X115841033Y-98811727D01*
X116389503Y-99197570D01*
X116889309Y-99665647D01*
X117312912Y-100182145D01*
X117632774Y-100713248D01*
X117821356Y-101225141D01*
X117826995Y-101250317D01*
X117859732Y-101434709D01*
X117861020Y-101521273D01*
X117858594Y-101522254D01*
X117784154Y-101471337D01*
X117614389Y-101340341D01*
X117384790Y-101156705D01*
X117365033Y-101140669D01*
X116337449Y-100381081D01*
X115290515Y-99752389D01*
X114274700Y-99280433D01*
X113625901Y-99020515D01*
X113123361Y-98808241D01*
X112753679Y-98634834D01*
X112503456Y-98491516D01*
X112359294Y-98369510D01*
X112307793Y-98260038D01*
X112335553Y-98154324D01*
X112412041Y-98060285D01*
X112621697Y-97958753D01*
X112954020Y-97927536D01*
X113380623Y-97960413D01*
G37*
X65431191Y-50032262D02*
X66113260Y-50115789D01*
X66843211Y-50233716D01*
X67583681Y-50378999D01*
X68297308Y-50544598D01*
X68946728Y-50723469D01*
X69494579Y-50908572D01*
X69738669Y-51010301D01*
X70002071Y-51140833D01*
X70143219Y-51248068D01*
X70198530Y-51367855D01*
X70205700Y-51470096D01*
X70191939Y-51593578D01*
X70144015Y-51732891D01*
X70051967Y-51899826D01*
X69905835Y-52106175D01*
X69695658Y-52363729D01*
X69411476Y-52684282D01*
X69043327Y-53079623D01*
X68581251Y-53561547D01*
X68015286Y-54141844D01*
X67544814Y-54620150D01*
X66654767Y-55531433D01*
X65879558Y-56345313D01*
X65207332Y-57076734D01*
X64626230Y-57740639D01*
X64124395Y-58351972D01*
X63689970Y-58925676D01*
X63311097Y-59476695D01*
X62975919Y-60019972D01*
X62672579Y-60570451D01*
X62419113Y-61079935D01*
X62201038Y-61518836D01*
X62023960Y-61826044D01*
X61870141Y-62028687D01*
X61721842Y-62153892D01*
X61713414Y-62159119D01*
X61332135Y-62300986D01*
X60929402Y-62297085D01*
X60596030Y-62169282D01*
X60229312Y-61870460D01*
X59854384Y-61426189D01*
X59483897Y-60859064D01*
X59130503Y-60191679D01*
X58806851Y-59446629D01*
X58525592Y-58646509D01*
X58417078Y-58277587D01*
X58310235Y-57729272D01*
X58253497Y-57074848D01*
X58247383Y-56370116D01*
X58292414Y-55670879D01*
X58386925Y-55043483D01*
X58656880Y-54142049D01*
X59075331Y-53292743D01*
X59625808Y-52509481D01*
X60291840Y-51806179D01*
X61056959Y-51196753D01*
X61904694Y-50695118D01*
X62818575Y-50315190D01*
X63782134Y-50070884D01*
X64360151Y-49996575D01*
X64834367Y-49990177D01*
X65431191Y-50032262D01*
G36*
X65431191Y-50032262D02*
G01*
X66113260Y-50115789D01*
X66843211Y-50233716D01*
X67583681Y-50378999D01*
X68297308Y-50544598D01*
X68946728Y-50723469D01*
X69494579Y-50908572D01*
X69738669Y-51010301D01*
X70002071Y-51140833D01*
X70143219Y-51248068D01*
X70198530Y-51367855D01*
X70205700Y-51470096D01*
X70191939Y-51593578D01*
X70144015Y-51732891D01*
X70051967Y-51899826D01*
X69905835Y-52106175D01*
X69695658Y-52363729D01*
X69411476Y-52684282D01*
X69043327Y-53079623D01*
X68581251Y-53561547D01*
X68015286Y-54141844D01*
X67544814Y-54620150D01*
X66654767Y-55531433D01*
X65879558Y-56345313D01*
X65207332Y-57076734D01*
X64626230Y-57740639D01*
X64124395Y-58351972D01*
X63689970Y-58925676D01*
X63311097Y-59476695D01*
X62975919Y-60019972D01*
X62672579Y-60570451D01*
X62419113Y-61079935D01*
X62201038Y-61518836D01*
X62023960Y-61826044D01*
X61870141Y-62028687D01*
X61721842Y-62153892D01*
X61713414Y-62159119D01*
X61332135Y-62300986D01*
X60929402Y-62297085D01*
X60596030Y-62169282D01*
X60229312Y-61870460D01*
X59854384Y-61426189D01*
X59483897Y-60859064D01*
X59130503Y-60191679D01*
X58806851Y-59446629D01*
X58525592Y-58646509D01*
X58417078Y-58277587D01*
X58310235Y-57729272D01*
X58253497Y-57074848D01*
X58247383Y-56370116D01*
X58292414Y-55670879D01*
X58386925Y-55043483D01*
X58656880Y-54142049D01*
X59075331Y-53292743D01*
X59625808Y-52509481D01*
X60291840Y-51806179D01*
X61056959Y-51196753D01*
X61904694Y-50695118D01*
X62818575Y-50315190D01*
X63782134Y-50070884D01*
X64360151Y-49996575D01*
X64834367Y-49990177D01*
X65431191Y-50032262D01*
G37*
X116913081Y-49017898D02*
X117852533Y-49302621D01*
X118766398Y-49743339D01*
X119450188Y-50182028D01*
X120157963Y-50777553D01*
X120783443Y-51490193D01*
X121302455Y-52285153D01*
X121690824Y-53127640D01*
X121849530Y-53635394D01*
X122013116Y-54492036D01*
X122081120Y-55374832D01*
X122050716Y-56221463D01*
X121987154Y-56669913D01*
X121790763Y-57523737D01*
X121537423Y-58326584D01*
X121237406Y-59059083D01*
X120900982Y-59701865D01*
X120538424Y-60235559D01*
X120160001Y-60640795D01*
X119775986Y-60898203D01*
X119735700Y-60915891D01*
X119509148Y-60989336D01*
X119308764Y-60983575D01*
X119103941Y-60923839D01*
X118904158Y-60840362D01*
X118737135Y-60725349D01*
X118578974Y-60550610D01*
X118405774Y-60287956D01*
X118193635Y-59909196D01*
X118109287Y-59750658D01*
X117817740Y-59227764D01*
X117498651Y-58717192D01*
X117140904Y-58206740D01*
X116733381Y-57684208D01*
X116264965Y-57137395D01*
X115724538Y-56554100D01*
X115100984Y-55922122D01*
X114383185Y-55229259D01*
X113560024Y-54463310D01*
X112620383Y-53612076D01*
X112061990Y-53113859D01*
X111432651Y-52547878D01*
X110925269Y-52074554D01*
X110528993Y-51681486D01*
X110232974Y-51356278D01*
X110026362Y-51086531D01*
X109898308Y-50859846D01*
X109837963Y-50663825D01*
X109829700Y-50562935D01*
X109909724Y-50419906D01*
X110137350Y-50251890D01*
X110493909Y-50065952D01*
X110960730Y-49869159D01*
X111519145Y-49668576D01*
X112150482Y-49471269D01*
X112836073Y-49284306D01*
X113557248Y-49114752D01*
X113779623Y-49067953D01*
X114892785Y-48903738D01*
X115931885Y-48885995D01*
X116913081Y-49017898D01*
G36*
X116913081Y-49017898D02*
G01*
X117852533Y-49302621D01*
X118766398Y-49743339D01*
X119450188Y-50182028D01*
X120157963Y-50777553D01*
X120783443Y-51490193D01*
X121302455Y-52285153D01*
X121690824Y-53127640D01*
X121849530Y-53635394D01*
X122013116Y-54492036D01*
X122081120Y-55374832D01*
X122050716Y-56221463D01*
X121987154Y-56669913D01*
X121790763Y-57523737D01*
X121537423Y-58326584D01*
X121237406Y-59059083D01*
X120900982Y-59701865D01*
X120538424Y-60235559D01*
X120160001Y-60640795D01*
X119775986Y-60898203D01*
X119735700Y-60915891D01*
X119509148Y-60989336D01*
X119308764Y-60983575D01*
X119103941Y-60923839D01*
X118904158Y-60840362D01*
X118737135Y-60725349D01*
X118578974Y-60550610D01*
X118405774Y-60287956D01*
X118193635Y-59909196D01*
X118109287Y-59750658D01*
X117817740Y-59227764D01*
X117498651Y-58717192D01*
X117140904Y-58206740D01*
X116733381Y-57684208D01*
X116264965Y-57137395D01*
X115724538Y-56554100D01*
X115100984Y-55922122D01*
X114383185Y-55229259D01*
X113560024Y-54463310D01*
X112620383Y-53612076D01*
X112061990Y-53113859D01*
X111432651Y-52547878D01*
X110925269Y-52074554D01*
X110528993Y-51681486D01*
X110232974Y-51356278D01*
X110026362Y-51086531D01*
X109898308Y-50859846D01*
X109837963Y-50663825D01*
X109829700Y-50562935D01*
X109909724Y-50419906D01*
X110137350Y-50251890D01*
X110493909Y-50065952D01*
X110960730Y-49869159D01*
X111519145Y-49668576D01*
X112150482Y-49471269D01*
X112836073Y-49284306D01*
X113557248Y-49114752D01*
X113779623Y-49067953D01*
X114892785Y-48903738D01*
X115931885Y-48885995D01*
X116913081Y-49017898D01*
G37*
X118299800Y-42836046D02*
X119128321Y-42934896D01*
X119608700Y-43037245D01*
X120748267Y-43381619D01*
X121755255Y-43799359D01*
X122655520Y-44304062D01*
X123474918Y-44909324D01*
X123910412Y-45299475D01*
X124700252Y-46158479D01*
X125336058Y-47075510D01*
X125815491Y-48042009D01*
X126136211Y-49049419D01*
X126295878Y-50089182D01*
X126292152Y-51152738D01*
X126122693Y-52231531D01*
X125963823Y-52809900D01*
X125802253Y-53276665D01*
X125663240Y-53583908D01*
X125548243Y-53728943D01*
X125469543Y-53721770D01*
X125450247Y-53621507D01*
X125433451Y-53379535D01*
X125420186Y-53023470D01*
X125411481Y-52580931D01*
X125408367Y-52081406D01*
X125404295Y-51447573D01*
X125390858Y-50955545D01*
X125366225Y-50577961D01*
X125328564Y-50287462D01*
X125276042Y-50056686D01*
X125271847Y-50042350D01*
X124912451Y-49122830D01*
X124403853Y-48257795D01*
X123760408Y-47457866D01*
X122996468Y-46733666D01*
X122126386Y-46095820D01*
X121164516Y-45554948D01*
X120125211Y-45121674D01*
X119022824Y-44806621D01*
X117958226Y-44629541D01*
X117191834Y-44577041D01*
X116478951Y-44602350D01*
X115771843Y-44712604D01*
X115022773Y-44914941D01*
X114278521Y-45179646D01*
X113735488Y-45382929D01*
X113324150Y-45519134D01*
X113022667Y-45592593D01*
X112809194Y-45607639D01*
X112661889Y-45568607D01*
X112589689Y-45514711D01*
X112486704Y-45392420D01*
X112470059Y-45278027D01*
X112545346Y-45117373D01*
X112646785Y-44961662D01*
X112966361Y-44591587D01*
X113418973Y-44212547D01*
X113970872Y-43844857D01*
X114588312Y-43508830D01*
X115237545Y-43224781D01*
X115883367Y-43013411D01*
X116618269Y-42874926D01*
X117443431Y-42815930D01*
X118299800Y-42836046D01*
G36*
X118299800Y-42836046D02*
G01*
X119128321Y-42934896D01*
X119608700Y-43037245D01*
X120748267Y-43381619D01*
X121755255Y-43799359D01*
X122655520Y-44304062D01*
X123474918Y-44909324D01*
X123910412Y-45299475D01*
X124700252Y-46158479D01*
X125336058Y-47075510D01*
X125815491Y-48042009D01*
X126136211Y-49049419D01*
X126295878Y-50089182D01*
X126292152Y-51152738D01*
X126122693Y-52231531D01*
X125963823Y-52809900D01*
X125802253Y-53276665D01*
X125663240Y-53583908D01*
X125548243Y-53728943D01*
X125469543Y-53721770D01*
X125450247Y-53621507D01*
X125433451Y-53379535D01*
X125420186Y-53023470D01*
X125411481Y-52580931D01*
X125408367Y-52081406D01*
X125404295Y-51447573D01*
X125390858Y-50955545D01*
X125366225Y-50577961D01*
X125328564Y-50287462D01*
X125276042Y-50056686D01*
X125271847Y-50042350D01*
X124912451Y-49122830D01*
X124403853Y-48257795D01*
X123760408Y-47457866D01*
X122996468Y-46733666D01*
X122126386Y-46095820D01*
X121164516Y-45554948D01*
X120125211Y-45121674D01*
X119022824Y-44806621D01*
X117958226Y-44629541D01*
X117191834Y-44577041D01*
X116478951Y-44602350D01*
X115771843Y-44712604D01*
X115022773Y-44914941D01*
X114278521Y-45179646D01*
X113735488Y-45382929D01*
X113324150Y-45519134D01*
X113022667Y-45592593D01*
X112809194Y-45607639D01*
X112661889Y-45568607D01*
X112589689Y-45514711D01*
X112486704Y-45392420D01*
X112470059Y-45278027D01*
X112545346Y-45117373D01*
X112646785Y-44961662D01*
X112966361Y-44591587D01*
X113418973Y-44212547D01*
X113970872Y-43844857D01*
X114588312Y-43508830D01*
X115237545Y-43224781D01*
X115883367Y-43013411D01*
X116618269Y-42874926D01*
X117443431Y-42815930D01*
X118299800Y-42836046D01*
G37*
X62019628Y-41884235D02*
X62430009Y-41900461D01*
X62761119Y-41933418D01*
X63057902Y-41987619D01*
X63365301Y-42067577D01*
X63373031Y-42069806D01*
X63948377Y-42266449D01*
X64518342Y-42516503D01*
X65061661Y-42805012D01*
X65557072Y-43117023D01*
X65983312Y-43437581D01*
X66319116Y-43751732D01*
X66543222Y-44044522D01*
X66634366Y-44300997D01*
X66633344Y-44362742D01*
X66604520Y-44495886D01*
X66527597Y-44561359D01*
X66356303Y-44581696D01*
X66184033Y-44581542D01*
X65820876Y-44534273D01*
X65349780Y-44397640D01*
X64914033Y-44233190D01*
X64340711Y-44010154D01*
X63864769Y-43852117D01*
X63432114Y-43748387D01*
X62988649Y-43688274D01*
X62480281Y-43661085D01*
X61993033Y-43655854D01*
X61187479Y-43679114D01*
X60481984Y-43756784D01*
X59812688Y-43900784D01*
X59115734Y-44123035D01*
X58753894Y-44260507D01*
X57637082Y-44777216D01*
X56644086Y-45392614D01*
X55781474Y-46101071D01*
X55055813Y-46896953D01*
X54473670Y-47774629D01*
X54325316Y-48058483D01*
X54107369Y-48521899D01*
X53945206Y-48927964D01*
X53831165Y-49316148D01*
X53757583Y-49725924D01*
X53716796Y-50196763D01*
X53701141Y-50768136D01*
X53701193Y-51273269D01*
X53700105Y-51802105D01*
X53689692Y-52231173D01*
X53670930Y-52540654D01*
X53644794Y-52710727D01*
X53629112Y-52737346D01*
X53559603Y-52678948D01*
X53455394Y-52499616D01*
X53338789Y-52237865D01*
X53336420Y-52231894D01*
X53153629Y-51733682D01*
X53027004Y-51284671D01*
X52947587Y-50832004D01*
X52906422Y-50322822D01*
X52894552Y-49704268D01*
X52894658Y-49624817D01*
X52910024Y-48965442D01*
X52960332Y-48417744D01*
X53058232Y-47925540D01*
X53216377Y-47432647D01*
X53447417Y-46882882D01*
X53572500Y-46614641D01*
X54137087Y-45620916D01*
X54834321Y-44730368D01*
X55660315Y-43946009D01*
X56611184Y-43270853D01*
X57683041Y-42707916D01*
X58872000Y-42260209D01*
X59374053Y-42115509D01*
X59764193Y-42017892D01*
X60100536Y-41951369D01*
X60434782Y-41910179D01*
X60818632Y-41888559D01*
X61303784Y-41880748D01*
X61485033Y-41880226D01*
X62019628Y-41884235D01*
G36*
X62019628Y-41884235D02*
G01*
X62430009Y-41900461D01*
X62761119Y-41933418D01*
X63057902Y-41987619D01*
X63365301Y-42067577D01*
X63373031Y-42069806D01*
X63948377Y-42266449D01*
X64518342Y-42516503D01*
X65061661Y-42805012D01*
X65557072Y-43117023D01*
X65983312Y-43437581D01*
X66319116Y-43751732D01*
X66543222Y-44044522D01*
X66634366Y-44300997D01*
X66633344Y-44362742D01*
X66604520Y-44495886D01*
X66527597Y-44561359D01*
X66356303Y-44581696D01*
X66184033Y-44581542D01*
X65820876Y-44534273D01*
X65349780Y-44397640D01*
X64914033Y-44233190D01*
X64340711Y-44010154D01*
X63864769Y-43852117D01*
X63432114Y-43748387D01*
X62988649Y-43688274D01*
X62480281Y-43661085D01*
X61993033Y-43655854D01*
X61187479Y-43679114D01*
X60481984Y-43756784D01*
X59812688Y-43900784D01*
X59115734Y-44123035D01*
X58753894Y-44260507D01*
X57637082Y-44777216D01*
X56644086Y-45392614D01*
X55781474Y-46101071D01*
X55055813Y-46896953D01*
X54473670Y-47774629D01*
X54325316Y-48058483D01*
X54107369Y-48521899D01*
X53945206Y-48927964D01*
X53831165Y-49316148D01*
X53757583Y-49725924D01*
X53716796Y-50196763D01*
X53701141Y-50768136D01*
X53701193Y-51273269D01*
X53700105Y-51802105D01*
X53689692Y-52231173D01*
X53670930Y-52540654D01*
X53644794Y-52710727D01*
X53629112Y-52737346D01*
X53559603Y-52678948D01*
X53455394Y-52499616D01*
X53338789Y-52237865D01*
X53336420Y-52231894D01*
X53153629Y-51733682D01*
X53027004Y-51284671D01*
X52947587Y-50832004D01*
X52906422Y-50322822D01*
X52894552Y-49704268D01*
X52894658Y-49624817D01*
X52910024Y-48965442D01*
X52960332Y-48417744D01*
X53058232Y-47925540D01*
X53216377Y-47432647D01*
X53447417Y-46882882D01*
X53572500Y-46614641D01*
X54137087Y-45620916D01*
X54834321Y-44730368D01*
X55660315Y-43946009D01*
X56611184Y-43270853D01*
X57683041Y-42707916D01*
X58872000Y-42260209D01*
X59374053Y-42115509D01*
X59764193Y-42017892D01*
X60100536Y-41951369D01*
X60434782Y-41910179D01*
X60818632Y-41888559D01*
X61303784Y-41880748D01*
X61485033Y-41880226D01*
X62019628Y-41884235D01*
G37*
X91176236Y-84465188D02*
X91513344Y-84513740D01*
X91681568Y-84550033D01*
X92068114Y-84658736D01*
X92460875Y-84802951D01*
X92824645Y-84965666D01*
X93124223Y-85129871D01*
X93324405Y-85278554D01*
X93389408Y-85375317D01*
X93380749Y-85494468D01*
X93347075Y-85513188D01*
X93241690Y-85490156D01*
X93006954Y-85435174D01*
X92677990Y-85356562D01*
X92303700Y-85265995D01*
X91479198Y-85100059D01*
X90729476Y-85030107D01*
X89991652Y-85053518D01*
X89340367Y-85142483D01*
X88933419Y-85212324D01*
X88664805Y-85251948D01*
X88506557Y-85263033D01*
X88430705Y-85247261D01*
X88409281Y-85206309D01*
X88409033Y-85198407D01*
X88486807Y-85103413D01*
X88698535Y-84987766D01*
X89011831Y-84862497D01*
X89394307Y-84738636D01*
X89813576Y-84627217D01*
X90237249Y-84539268D01*
X90435263Y-84508273D01*
X90845235Y-84464316D01*
X91176236Y-84465188D01*
G36*
X91176236Y-84465188D02*
G01*
X91513344Y-84513740D01*
X91681568Y-84550033D01*
X92068114Y-84658736D01*
X92460875Y-84802951D01*
X92824645Y-84965666D01*
X93124223Y-85129871D01*
X93324405Y-85278554D01*
X93389408Y-85375317D01*
X93380749Y-85494468D01*
X93347075Y-85513188D01*
X93241690Y-85490156D01*
X93006954Y-85435174D01*
X92677990Y-85356562D01*
X92303700Y-85265995D01*
X91479198Y-85100059D01*
X90729476Y-85030107D01*
X89991652Y-85053518D01*
X89340367Y-85142483D01*
X88933419Y-85212324D01*
X88664805Y-85251948D01*
X88506557Y-85263033D01*
X88430705Y-85247261D01*
X88409281Y-85206309D01*
X88409033Y-85198407D01*
X88486807Y-85103413D01*
X88698535Y-84987766D01*
X89011831Y-84862497D01*
X89394307Y-84738636D01*
X89813576Y-84627217D01*
X90237249Y-84539268D01*
X90435263Y-84508273D01*
X90845235Y-84464316D01*
X91176236Y-84465188D01*
G37*
X105067326Y-74870750D02*
X105828121Y-75148572D01*
X106533261Y-75565067D01*
X107161204Y-76110094D01*
X107678339Y-76755238D01*
X108068671Y-77490827D01*
X108327704Y-78306328D01*
X108454111Y-79173110D01*
X108446562Y-80062540D01*
X108303728Y-80945989D01*
X108024282Y-81794822D01*
X107922654Y-82019736D01*
X107609453Y-82552112D01*
X107204122Y-83065630D01*
X106747268Y-83516652D01*
X106279496Y-83861542D01*
X106133038Y-83942921D01*
X105412890Y-84238207D01*
X104626458Y-84440740D01*
X103823360Y-84543399D01*
X103053218Y-84539063D01*
X102524426Y-84460718D01*
X102034803Y-84342125D01*
X101713205Y-84243630D01*
X101559552Y-84164964D01*
X101573765Y-84105861D01*
X101755764Y-84066051D01*
X102105470Y-84045267D01*
X102400185Y-84041817D01*
X102994289Y-84020502D01*
X103487219Y-83944656D01*
X103937049Y-83796425D01*
X104401853Y-83557955D01*
X104805267Y-83302429D01*
X105460430Y-82776238D01*
X106043524Y-82135861D01*
X106511136Y-81430725D01*
X106601232Y-81257602D01*
X106920897Y-80454544D01*
X107076896Y-79686881D01*
X107072741Y-78963069D01*
X106911941Y-78291567D01*
X106598007Y-77680830D01*
X106134451Y-77139315D01*
X105524783Y-76675480D01*
X104772515Y-76297782D01*
X104499773Y-76195633D01*
X104271323Y-76125102D01*
X104049636Y-76082527D01*
X103790383Y-76064769D01*
X103449233Y-76068688D01*
X103005528Y-76089820D01*
X102401295Y-76110562D01*
X101949148Y-76094437D01*
X101635278Y-76038540D01*
X101445878Y-75939962D01*
X101367141Y-75795798D01*
X101363033Y-75744062D01*
X101444725Y-75530219D01*
X101677903Y-75323620D01*
X102044727Y-75132518D01*
X102527352Y-74965169D01*
X103107937Y-74829826D01*
X103464934Y-74771687D01*
X104272416Y-74741741D01*
X105067326Y-74870750D01*
G36*
X105067326Y-74870750D02*
G01*
X105828121Y-75148572D01*
X106533261Y-75565067D01*
X107161204Y-76110094D01*
X107678339Y-76755238D01*
X108068671Y-77490827D01*
X108327704Y-78306328D01*
X108454111Y-79173110D01*
X108446562Y-80062540D01*
X108303728Y-80945989D01*
X108024282Y-81794822D01*
X107922654Y-82019736D01*
X107609453Y-82552112D01*
X107204122Y-83065630D01*
X106747268Y-83516652D01*
X106279496Y-83861542D01*
X106133038Y-83942921D01*
X105412890Y-84238207D01*
X104626458Y-84440740D01*
X103823360Y-84543399D01*
X103053218Y-84539063D01*
X102524426Y-84460718D01*
X102034803Y-84342125D01*
X101713205Y-84243630D01*
X101559552Y-84164964D01*
X101573765Y-84105861D01*
X101755764Y-84066051D01*
X102105470Y-84045267D01*
X102400185Y-84041817D01*
X102994289Y-84020502D01*
X103487219Y-83944656D01*
X103937049Y-83796425D01*
X104401853Y-83557955D01*
X104805267Y-83302429D01*
X105460430Y-82776238D01*
X106043524Y-82135861D01*
X106511136Y-81430725D01*
X106601232Y-81257602D01*
X106920897Y-80454544D01*
X107076896Y-79686881D01*
X107072741Y-78963069D01*
X106911941Y-78291567D01*
X106598007Y-77680830D01*
X106134451Y-77139315D01*
X105524783Y-76675480D01*
X104772515Y-76297782D01*
X104499773Y-76195633D01*
X104271323Y-76125102D01*
X104049636Y-76082527D01*
X103790383Y-76064769D01*
X103449233Y-76068688D01*
X103005528Y-76089820D01*
X102401295Y-76110562D01*
X101949148Y-76094437D01*
X101635278Y-76038540D01*
X101445878Y-75939962D01*
X101367141Y-75795798D01*
X101363033Y-75744062D01*
X101444725Y-75530219D01*
X101677903Y-75323620D01*
X102044727Y-75132518D01*
X102527352Y-74965169D01*
X103107937Y-74829826D01*
X103464934Y-74771687D01*
X104272416Y-74741741D01*
X105067326Y-74870750D01*
G37*
X79175758Y-75048566D02*
X79697395Y-75166176D01*
X80151800Y-75318648D01*
X80520427Y-75496251D01*
X80784728Y-75689249D01*
X80926156Y-75887909D01*
X80926165Y-76082498D01*
X80874766Y-76166532D01*
X80704437Y-76262467D01*
X80399375Y-76325912D01*
X79991573Y-76353962D01*
X79513028Y-76343710D01*
X79206382Y-76318085D01*
X78784208Y-76285193D01*
X78454312Y-76294140D01*
X78143956Y-76348784D01*
X78021049Y-76380928D01*
X77227501Y-76671023D01*
X76556487Y-77060487D01*
X76014916Y-77539738D01*
X75609699Y-78099195D01*
X75347743Y-78729275D01*
X75235959Y-79420396D01*
X75281256Y-80162977D01*
X75283625Y-80177180D01*
X75492035Y-80962347D01*
X75833870Y-81702066D01*
X76290193Y-82380642D01*
X76842070Y-82982377D01*
X77470564Y-83491572D01*
X78156738Y-83892532D01*
X78881658Y-84169558D01*
X79626387Y-84306954D01*
X80259867Y-84302330D01*
X80575159Y-84283152D01*
X80741965Y-84300429D01*
X80775299Y-84346571D01*
X80690180Y-84413989D01*
X80501625Y-84495091D01*
X80224650Y-84582287D01*
X79874272Y-84667988D01*
X79465509Y-84744603D01*
X79349700Y-84762364D01*
X78976038Y-84811402D01*
X78701491Y-84829391D01*
X78459030Y-84818001D01*
X78249033Y-84789792D01*
X77804420Y-84704181D01*
X77319598Y-84585835D01*
X76859372Y-84452335D01*
X76488549Y-84321261D01*
X76428700Y-84295954D01*
X75784238Y-83922379D01*
X75215746Y-83414960D01*
X74732859Y-82795655D01*
X74345216Y-82086419D01*
X74062453Y-81309211D01*
X73894208Y-80485987D01*
X73850117Y-79638704D01*
X73939818Y-78789319D01*
X73962444Y-78676905D01*
X74216623Y-77844417D01*
X74598403Y-77092352D01*
X75091815Y-76433440D01*
X75680891Y-75880412D01*
X76349664Y-75445995D01*
X77082164Y-75142920D01*
X77862425Y-74983917D01*
X78605436Y-74975554D01*
X79175758Y-75048566D01*
G36*
X79175758Y-75048566D02*
G01*
X79697395Y-75166176D01*
X80151800Y-75318648D01*
X80520427Y-75496251D01*
X80784728Y-75689249D01*
X80926156Y-75887909D01*
X80926165Y-76082498D01*
X80874766Y-76166532D01*
X80704437Y-76262467D01*
X80399375Y-76325912D01*
X79991573Y-76353962D01*
X79513028Y-76343710D01*
X79206382Y-76318085D01*
X78784208Y-76285193D01*
X78454312Y-76294140D01*
X78143956Y-76348784D01*
X78021049Y-76380928D01*
X77227501Y-76671023D01*
X76556487Y-77060487D01*
X76014916Y-77539738D01*
X75609699Y-78099195D01*
X75347743Y-78729275D01*
X75235959Y-79420396D01*
X75281256Y-80162977D01*
X75283625Y-80177180D01*
X75492035Y-80962347D01*
X75833870Y-81702066D01*
X76290193Y-82380642D01*
X76842070Y-82982377D01*
X77470564Y-83491572D01*
X78156738Y-83892532D01*
X78881658Y-84169558D01*
X79626387Y-84306954D01*
X80259867Y-84302330D01*
X80575159Y-84283152D01*
X80741965Y-84300429D01*
X80775299Y-84346571D01*
X80690180Y-84413989D01*
X80501625Y-84495091D01*
X80224650Y-84582287D01*
X79874272Y-84667988D01*
X79465509Y-84744603D01*
X79349700Y-84762364D01*
X78976038Y-84811402D01*
X78701491Y-84829391D01*
X78459030Y-84818001D01*
X78249033Y-84789792D01*
X77804420Y-84704181D01*
X77319598Y-84585835D01*
X76859372Y-84452335D01*
X76488549Y-84321261D01*
X76428700Y-84295954D01*
X75784238Y-83922379D01*
X75215746Y-83414960D01*
X74732859Y-82795655D01*
X74345216Y-82086419D01*
X74062453Y-81309211D01*
X73894208Y-80485987D01*
X73850117Y-79638704D01*
X73939818Y-78789319D01*
X73962444Y-78676905D01*
X74216623Y-77844417D01*
X74598403Y-77092352D01*
X75091815Y-76433440D01*
X75680891Y-75880412D01*
X76349664Y-75445995D01*
X77082164Y-75142920D01*
X77862425Y-74983917D01*
X78605436Y-74975554D01*
X79175758Y-75048566D01*
G37*
%TD*%
M02*
