%TF.GenerationSoftware,KiCad,Pcbnew,9.0.6*%
%TF.CreationDate,2025-12-31T17:09:58+01:00*%
%TF.ProjectId,Panda,50616e64-612e-46b6-9963-61645f706362,rev?*%
%TF.SameCoordinates,Original*%
%TF.FileFunction,Soldermask,Bot*%
%TF.FilePolarity,Negative*%
%FSLAX46Y46*%
G04 Gerber Fmt 4.6, Leading zero omitted, Abs format (unit mm)*
G04 Created by KiCad (PCBNEW 9.0.6) date 2025-12-31 17:09:58*
%MOMM*%
%LPD*%
G01*
G04 APERTURE LIST*
G04 Aperture macros list*
%AMRoundRect*
0 Rectangle with rounded corners*
0 $1 Rounding radius*
0 $2 $3 $4 $5 $6 $7 $8 $9 X,Y pos of 4 corners*
0 Add a 4 corners polygon primitive as box body*
4,1,4,$2,$3,$4,$5,$6,$7,$8,$9,$2,$3,0*
0 Add four circle primitives for the rounded corners*
1,1,$1+$1,$2,$3*
1,1,$1+$1,$4,$5*
1,1,$1+$1,$6,$7*
1,1,$1+$1,$8,$9*
0 Add four rect primitives between the rounded corners*
20,1,$1+$1,$2,$3,$4,$5,0*
20,1,$1+$1,$4,$5,$6,$7,0*
20,1,$1+$1,$6,$7,$8,$9,0*
20,1,$1+$1,$8,$9,$2,$3,0*%
G04 Aperture macros list end*
%ADD10C,0.300000*%
%ADD11RoundRect,0.200000X-0.900000X-0.900000X0.900000X-0.900000X0.900000X0.900000X-0.900000X0.900000X0*%
%ADD12C,2.200000*%
%ADD13RoundRect,0.200000X-2.500000X-1.000000X2.500000X-1.000000X2.500000X1.000000X-2.500000X1.000000X0*%
%ADD14C,18.180000*%
%ADD15RoundRect,0.312500X0.687500X0.687500X-0.687500X0.687500X-0.687500X-0.687500X0.687500X-0.687500X0*%
%ADD16C,2.000000*%
%ADD17C,2.400000*%
%ADD18RoundRect,0.200000X-0.750000X-0.750000X0.750000X-0.750000X0.750000X0.750000X-0.750000X0.750000X0*%
%ADD19C,1.900000*%
%ADD20O,2.000000X2.000000*%
%ADD21RoundRect,0.200000X0.800000X-0.800000X0.800000X0.800000X-0.800000X0.800000X-0.800000X-0.800000X0*%
%ADD22RoundRect,0.200000X0.800000X0.800000X-0.800000X0.800000X-0.800000X-0.800000X0.800000X-0.800000X0*%
G04 APERTURE END LIST*
D10*
X97845489Y-74000828D02*
X97845489Y-72500828D01*
X96988346Y-74000828D02*
X97631203Y-73143685D01*
X96988346Y-72500828D02*
X97845489Y-73357971D01*
X96345489Y-74000828D02*
X96345489Y-72500828D01*
X96345489Y-73215114D02*
X95488346Y-73215114D01*
X95488346Y-74000828D02*
X95488346Y-72500828D01*
X94274060Y-73215114D02*
X94774060Y-73215114D01*
X94774060Y-74000828D02*
X94774060Y-72500828D01*
X94774060Y-72500828D02*
X94059774Y-72500828D01*
X91559774Y-74000828D02*
X92416917Y-74000828D01*
X91988346Y-74000828D02*
X91988346Y-72500828D01*
X91988346Y-72500828D02*
X92131203Y-72715114D01*
X92131203Y-72715114D02*
X92274060Y-72857971D01*
X92274060Y-72857971D02*
X92416917Y-72929400D01*
X90988346Y-72643685D02*
X90916918Y-72572257D01*
X90916918Y-72572257D02*
X90774061Y-72500828D01*
X90774061Y-72500828D02*
X90416918Y-72500828D01*
X90416918Y-72500828D02*
X90274061Y-72572257D01*
X90274061Y-72572257D02*
X90202632Y-72643685D01*
X90202632Y-72643685D02*
X90131203Y-72786542D01*
X90131203Y-72786542D02*
X90131203Y-72929400D01*
X90131203Y-72929400D02*
X90202632Y-73143685D01*
X90202632Y-73143685D02*
X91059775Y-74000828D01*
X91059775Y-74000828D02*
X90131203Y-74000828D01*
X89488347Y-73857971D02*
X89416918Y-73929400D01*
X89416918Y-73929400D02*
X89488347Y-74000828D01*
X89488347Y-74000828D02*
X89559775Y-73929400D01*
X89559775Y-73929400D02*
X89488347Y-73857971D01*
X89488347Y-73857971D02*
X89488347Y-74000828D01*
X88845489Y-72643685D02*
X88774061Y-72572257D01*
X88774061Y-72572257D02*
X88631204Y-72500828D01*
X88631204Y-72500828D02*
X88274061Y-72500828D01*
X88274061Y-72500828D02*
X88131204Y-72572257D01*
X88131204Y-72572257D02*
X88059775Y-72643685D01*
X88059775Y-72643685D02*
X87988346Y-72786542D01*
X87988346Y-72786542D02*
X87988346Y-72929400D01*
X87988346Y-72929400D02*
X88059775Y-73143685D01*
X88059775Y-73143685D02*
X88916918Y-74000828D01*
X88916918Y-74000828D02*
X87988346Y-74000828D01*
X87059775Y-72500828D02*
X86916918Y-72500828D01*
X86916918Y-72500828D02*
X86774061Y-72572257D01*
X86774061Y-72572257D02*
X86702633Y-72643685D01*
X86702633Y-72643685D02*
X86631204Y-72786542D01*
X86631204Y-72786542D02*
X86559775Y-73072257D01*
X86559775Y-73072257D02*
X86559775Y-73429400D01*
X86559775Y-73429400D02*
X86631204Y-73715114D01*
X86631204Y-73715114D02*
X86702633Y-73857971D01*
X86702633Y-73857971D02*
X86774061Y-73929400D01*
X86774061Y-73929400D02*
X86916918Y-74000828D01*
X86916918Y-74000828D02*
X87059775Y-74000828D01*
X87059775Y-74000828D02*
X87202633Y-73929400D01*
X87202633Y-73929400D02*
X87274061Y-73857971D01*
X87274061Y-73857971D02*
X87345490Y-73715114D01*
X87345490Y-73715114D02*
X87416918Y-73429400D01*
X87416918Y-73429400D02*
X87416918Y-73072257D01*
X87416918Y-73072257D02*
X87345490Y-72786542D01*
X87345490Y-72786542D02*
X87274061Y-72643685D01*
X87274061Y-72643685D02*
X87202633Y-72572257D01*
X87202633Y-72572257D02*
X87059775Y-72500828D01*
X85988347Y-72643685D02*
X85916919Y-72572257D01*
X85916919Y-72572257D02*
X85774062Y-72500828D01*
X85774062Y-72500828D02*
X85416919Y-72500828D01*
X85416919Y-72500828D02*
X85274062Y-72572257D01*
X85274062Y-72572257D02*
X85202633Y-72643685D01*
X85202633Y-72643685D02*
X85131204Y-72786542D01*
X85131204Y-72786542D02*
X85131204Y-72929400D01*
X85131204Y-72929400D02*
X85202633Y-73143685D01*
X85202633Y-73143685D02*
X86059776Y-74000828D01*
X86059776Y-74000828D02*
X85131204Y-74000828D01*
X83774062Y-72500828D02*
X84488348Y-72500828D01*
X84488348Y-72500828D02*
X84559776Y-73215114D01*
X84559776Y-73215114D02*
X84488348Y-73143685D01*
X84488348Y-73143685D02*
X84345491Y-73072257D01*
X84345491Y-73072257D02*
X83988348Y-73072257D01*
X83988348Y-73072257D02*
X83845491Y-73143685D01*
X83845491Y-73143685D02*
X83774062Y-73215114D01*
X83774062Y-73215114D02*
X83702633Y-73357971D01*
X83702633Y-73357971D02*
X83702633Y-73715114D01*
X83702633Y-73715114D02*
X83774062Y-73857971D01*
X83774062Y-73857971D02*
X83845491Y-73929400D01*
X83845491Y-73929400D02*
X83988348Y-74000828D01*
X83988348Y-74000828D02*
X84345491Y-74000828D01*
X84345491Y-74000828D02*
X84488348Y-73929400D01*
X84488348Y-73929400D02*
X84559776Y-73857971D01*
D11*
%TO.C,D2*%
X101600000Y-80000000D03*
D12*
X104140000Y-80000000D03*
%TD*%
D11*
%TO.C,D1*%
X79300000Y-79900000D03*
D12*
X81840000Y-79900000D03*
%TD*%
D13*
%TO.C,U2*%
X78500000Y-55448000D03*
X78500000Y-51892000D03*
X104394000Y-55448000D03*
X104394000Y-51892000D03*
D14*
X91454000Y-53924000D03*
%TD*%
D15*
%TO.C,U1*%
X118600000Y-119380000D03*
D16*
X118600000Y-121920000D03*
X118600000Y-124460000D03*
X118600000Y-127000000D03*
X110980000Y-127000000D03*
X110980000Y-124460000D03*
X110980000Y-121920000D03*
X110980000Y-119380000D03*
%TD*%
D17*
%TO.C,S1*%
X126100000Y-56720000D03*
X126100000Y-59260000D03*
X126100000Y-61800000D03*
%TD*%
D16*
%TO.C,R7*%
X86340000Y-109400000D03*
X96500000Y-109400000D03*
%TD*%
%TO.C,R6*%
X86340000Y-113450000D03*
X96500000Y-113450000D03*
%TD*%
%TO.C,R5*%
X86340000Y-117500000D03*
X96500000Y-117500000D03*
%TD*%
%TO.C,R4*%
X86340000Y-121550000D03*
X96500000Y-121550000D03*
%TD*%
%TO.C,R3*%
X86340000Y-125600000D03*
X96500000Y-125600000D03*
%TD*%
%TO.C,R8*%
X86340000Y-105350000D03*
X96500000Y-105350000D03*
%TD*%
D18*
%TO.C,Q2*%
X64760000Y-120681193D03*
D19*
X67300000Y-123221193D03*
X69840000Y-120681193D03*
%TD*%
D18*
%TO.C,Q1*%
X64760000Y-126623578D03*
D19*
X67300000Y-129163578D03*
X69840000Y-126623578D03*
%TD*%
D20*
%TO.C,D3*%
X78500000Y-112790000D03*
D21*
X78500000Y-120410000D03*
%TD*%
D22*
%TO.C,C1*%
X71292500Y-109500000D03*
D16*
X68792500Y-109500000D03*
%TD*%
M02*
