M48
; DRILL file {KiCad 9.0.6} date 2025-12-13T06:14:30+0100
; FORMAT={-:-/ absolute / inch / decimal}
; #@! TF.CreationDate,2025-12-13T06:14:30+01:00
; #@! TF.GenerationSoftware,Kicad,Pcbnew,9.0.6
; #@! TF.FileFunction,Plated,1,2,PTH
FMAT,2
INCH
; #@! TA.AperFunction,Plated,PTH,ComponentDrill
T1C0.0315
; #@! TA.AperFunction,Plated,PTH,ComponentDrill
T2C0.0354
; #@! TA.AperFunction,Plated,PTH,ComponentDrill
T3C0.0394
%
G90
G05
T1
X5.226Y-4.3543
X5.226Y-4.5138
X5.226Y-4.6732
X5.226Y-4.8327
X5.226Y-4.9921
X5.226Y-5.1516
X5.626Y-4.3543
X5.626Y-4.5138
X5.626Y-4.6732
X5.626Y-4.8327
X5.626Y-4.9921
X5.626Y-5.1516
X6.0324Y-3.9131
X6.0328Y-4.0635
X6.0328Y-4.1635
X6.0328Y-4.2635
X6.0328Y-4.3635
X6.1102Y-4.6969
X6.2087Y-4.6969
X6.3324Y-3.9131
X6.3328Y-4.0635
X6.3328Y-4.1635
X6.3328Y-4.2635
X6.3328Y-4.3635
X6.5535Y-5.0834
X6.6535Y-4.9834
X6.6819Y-4.685
X6.7535Y-5.0834
X6.7819Y-4.585
X6.8819Y-4.685
T2
X5.6654Y-3.0315
X5.7654Y-3.0315
X6.6732Y-3.0433
X6.7732Y-3.0433
T3
X7.0157Y-4.0795
X7.0157Y-4.1795
X7.0157Y-4.2795
M30
