%TF.GenerationSoftware,KiCad,Pcbnew,9.0.6*%
%TF.CreationDate,2025-12-08T21:37:25+01:00*%
%TF.ProjectId,Rocket,526f636b-6574-42e6-9b69-6361645f7063,rev?*%
%TF.SameCoordinates,Original*%
%TF.FileFunction,Soldermask,Top*%
%TF.FilePolarity,Negative*%
%FSLAX46Y46*%
G04 Gerber Fmt 4.6, Leading zero omitted, Abs format (unit mm)*
G04 Created by KiCad (PCBNEW 9.0.6) date 2025-12-08 21:37:25*
%MOMM*%
%LPD*%
G01*
G04 APERTURE LIST*
G04 Aperture macros list*
%AMRoundRect*
0 Rectangle with rounded corners*
0 $1 Rounding radius*
0 $2 $3 $4 $5 $6 $7 $8 $9 X,Y pos of 4 corners*
0 Add a 4 corners polygon primitive as box body*
4,1,4,$2,$3,$4,$5,$6,$7,$8,$9,$2,$3,0*
0 Add four circle primitives for the rounded corners*
1,1,$1+$1,$2,$3*
1,1,$1+$1,$4,$5*
1,1,$1+$1,$6,$7*
1,1,$1+$1,$8,$9*
0 Add four rect primitives between the rounded corners*
20,1,$1+$1,$2,$3,$4,$5,0*
20,1,$1+$1,$4,$5,$6,$7,0*
20,1,$1+$1,$6,$7,$8,$9,0*
20,1,$1+$1,$8,$9,$2,$3,0*%
G04 Aperture macros list end*
%ADD10RoundRect,0.200000X-0.900000X-0.900000X0.900000X-0.900000X0.900000X0.900000X-0.900000X0.900000X0*%
%ADD11C,2.200000*%
%ADD12RoundRect,0.200000X-0.750000X-0.750000X0.750000X-0.750000X0.750000X0.750000X-0.750000X0.750000X0*%
%ADD13C,1.900000*%
%ADD14RoundRect,0.200000X-0.800000X-0.800000X0.800000X-0.800000X0.800000X0.800000X-0.800000X0.800000X0*%
%ADD15C,2.000000*%
%ADD16O,2.000000X2.000000*%
%ADD17C,2.400000*%
%ADD18RoundRect,0.312500X-0.687500X-0.687500X0.687500X-0.687500X0.687500X0.687500X-0.687500X0.687500X0*%
G04 APERTURE END LIST*
D10*
%TO.C,D1*%
X164100000Y-70600000D03*
D11*
X166640000Y-70600000D03*
%TD*%
D10*
%TO.C,D2*%
X138500000Y-70300000D03*
D11*
X141040000Y-70300000D03*
%TD*%
D12*
%TO.C,Q2*%
X161060000Y-122418808D03*
D13*
X163600000Y-119878808D03*
X166140000Y-122418808D03*
%TD*%
D12*
%TO.C,Q1*%
X164320000Y-112300000D03*
D13*
X166860000Y-109760000D03*
X169400000Y-112300000D03*
%TD*%
D14*
%TO.C,C1*%
X149800000Y-112600000D03*
D15*
X152300000Y-112600000D03*
%TD*%
D14*
%TO.C,D3*%
X147823900Y-92693500D03*
D16*
X155443900Y-92693500D03*
%TD*%
D15*
%TO.C,R5*%
X127340000Y-116050000D03*
X137500000Y-116050000D03*
%TD*%
%TO.C,R4*%
X127340000Y-120100000D03*
X137500000Y-120100000D03*
%TD*%
%TO.C,R6*%
X127340000Y-112000000D03*
X137500000Y-112000000D03*
%TD*%
%TO.C,R8*%
X127340000Y-103900000D03*
X137500000Y-103900000D03*
%TD*%
D17*
%TO.C,S1*%
X172800000Y-102000000D03*
X172800000Y-99460000D03*
X172800000Y-96920000D03*
%TD*%
D15*
%TO.C,R3*%
X127340000Y-124150000D03*
X137500000Y-124150000D03*
%TD*%
D18*
%TO.C,U1*%
X147833900Y-104133500D03*
D15*
X147833900Y-101593500D03*
X147833900Y-99053500D03*
X147833900Y-96513500D03*
X155453900Y-96513500D03*
X155453900Y-99053500D03*
X155453900Y-101593500D03*
X155453900Y-104133500D03*
%TD*%
%TO.C,R7*%
X127340000Y-107950000D03*
X137500000Y-107950000D03*
%TD*%
M02*
