%TF.GenerationSoftware,KiCad,Pcbnew,9.0.6*%
%TF.CreationDate,2025-12-07T14:23:17+01:00*%
%TF.ProjectId,Rocket,526f636b-6574-42e6-9b69-6361645f7063,rev?*%
%TF.SameCoordinates,Original*%
%TF.FileFunction,Copper,L2,Bot*%
%TF.FilePolarity,Positive*%
%FSLAX46Y46*%
G04 Gerber Fmt 4.6, Leading zero omitted, Abs format (unit mm)*
G04 Created by KiCad (PCBNEW 9.0.6) date 2025-12-07 14:23:17*
%MOMM*%
%LPD*%
G01*
G04 APERTURE LIST*
G04 Aperture macros list*
%AMRoundRect*
0 Rectangle with rounded corners*
0 $1 Rounding radius*
0 $2 $3 $4 $5 $6 $7 $8 $9 X,Y pos of 4 corners*
0 Add a 4 corners polygon primitive as box body*
4,1,4,$2,$3,$4,$5,$6,$7,$8,$9,$2,$3,0*
0 Add four circle primitives for the rounded corners*
1,1,$1+$1,$2,$3*
1,1,$1+$1,$4,$5*
1,1,$1+$1,$6,$7*
1,1,$1+$1,$8,$9*
0 Add four rect primitives between the rounded corners*
20,1,$1+$1,$2,$3,$4,$5,0*
20,1,$1+$1,$4,$5,$6,$7,0*
20,1,$1+$1,$6,$7,$8,$9,0*
20,1,$1+$1,$8,$9,$2,$3,0*%
G04 Aperture macros list end*
%ADD10C,0.200000*%
%TA.AperFunction,NonConductor*%
%ADD11C,0.200000*%
%TD*%
%TA.AperFunction,SMDPad,CuDef*%
%ADD12R,5.000000X2.000000*%
%TD*%
%TA.AperFunction,SMDPad,CuDef*%
%ADD13C,17.780000*%
%TD*%
%TA.AperFunction,ComponentPad*%
%ADD14C,2.000000*%
%TD*%
%TA.AperFunction,ComponentPad*%
%ADD15C,1.600000*%
%TD*%
%TA.AperFunction,ComponentPad*%
%ADD16RoundRect,0.250000X-0.550000X-0.550000X0.550000X-0.550000X0.550000X0.550000X-0.550000X0.550000X0*%
%TD*%
%TA.AperFunction,ComponentPad*%
%ADD17R,1.500000X1.500000*%
%TD*%
%TA.AperFunction,ComponentPad*%
%ADD18C,1.500000*%
%TD*%
%TA.AperFunction,ComponentPad*%
%ADD19R,1.600000X1.600000*%
%TD*%
%TA.AperFunction,ComponentPad*%
%ADD20O,1.600000X1.600000*%
%TD*%
%TA.AperFunction,ComponentPad*%
%ADD21R,1.800000X1.800000*%
%TD*%
%TA.AperFunction,ComponentPad*%
%ADD22C,1.800000*%
%TD*%
%TA.AperFunction,Conductor*%
%ADD23C,0.250000*%
%TD*%
G04 APERTURE END LIST*
D10*
D11*
X126555624Y-90689308D02*
X126555624Y-89189308D01*
X125698481Y-90689308D02*
X126341338Y-89832165D01*
X125698481Y-89189308D02*
X126555624Y-90046451D01*
X125055624Y-90689308D02*
X125055624Y-89189308D01*
X125055624Y-89903594D02*
X124198481Y-89903594D01*
X124198481Y-90689308D02*
X124198481Y-89189308D01*
X122984195Y-89903594D02*
X123484195Y-89903594D01*
X123484195Y-90689308D02*
X123484195Y-89189308D01*
X123484195Y-89189308D02*
X122769909Y-89189308D01*
X120269909Y-90689308D02*
X121127052Y-90689308D01*
X120698481Y-90689308D02*
X120698481Y-89189308D01*
X120698481Y-89189308D02*
X120841338Y-89403594D01*
X120841338Y-89403594D02*
X120984195Y-89546451D01*
X120984195Y-89546451D02*
X121127052Y-89617880D01*
X119698481Y-89332165D02*
X119627053Y-89260737D01*
X119627053Y-89260737D02*
X119484196Y-89189308D01*
X119484196Y-89189308D02*
X119127053Y-89189308D01*
X119127053Y-89189308D02*
X118984196Y-89260737D01*
X118984196Y-89260737D02*
X118912767Y-89332165D01*
X118912767Y-89332165D02*
X118841338Y-89475022D01*
X118841338Y-89475022D02*
X118841338Y-89617880D01*
X118841338Y-89617880D02*
X118912767Y-89832165D01*
X118912767Y-89832165D02*
X119769910Y-90689308D01*
X119769910Y-90689308D02*
X118841338Y-90689308D01*
X118198482Y-90546451D02*
X118127053Y-90617880D01*
X118127053Y-90617880D02*
X118198482Y-90689308D01*
X118198482Y-90689308D02*
X118269910Y-90617880D01*
X118269910Y-90617880D02*
X118198482Y-90546451D01*
X118198482Y-90546451D02*
X118198482Y-90689308D01*
X117555624Y-89332165D02*
X117484196Y-89260737D01*
X117484196Y-89260737D02*
X117341339Y-89189308D01*
X117341339Y-89189308D02*
X116984196Y-89189308D01*
X116984196Y-89189308D02*
X116841339Y-89260737D01*
X116841339Y-89260737D02*
X116769910Y-89332165D01*
X116769910Y-89332165D02*
X116698481Y-89475022D01*
X116698481Y-89475022D02*
X116698481Y-89617880D01*
X116698481Y-89617880D02*
X116769910Y-89832165D01*
X116769910Y-89832165D02*
X117627053Y-90689308D01*
X117627053Y-90689308D02*
X116698481Y-90689308D01*
X115769910Y-89189308D02*
X115627053Y-89189308D01*
X115627053Y-89189308D02*
X115484196Y-89260737D01*
X115484196Y-89260737D02*
X115412768Y-89332165D01*
X115412768Y-89332165D02*
X115341339Y-89475022D01*
X115341339Y-89475022D02*
X115269910Y-89760737D01*
X115269910Y-89760737D02*
X115269910Y-90117880D01*
X115269910Y-90117880D02*
X115341339Y-90403594D01*
X115341339Y-90403594D02*
X115412768Y-90546451D01*
X115412768Y-90546451D02*
X115484196Y-90617880D01*
X115484196Y-90617880D02*
X115627053Y-90689308D01*
X115627053Y-90689308D02*
X115769910Y-90689308D01*
X115769910Y-90689308D02*
X115912768Y-90617880D01*
X115912768Y-90617880D02*
X115984196Y-90546451D01*
X115984196Y-90546451D02*
X116055625Y-90403594D01*
X116055625Y-90403594D02*
X116127053Y-90117880D01*
X116127053Y-90117880D02*
X116127053Y-89760737D01*
X116127053Y-89760737D02*
X116055625Y-89475022D01*
X116055625Y-89475022D02*
X115984196Y-89332165D01*
X115984196Y-89332165D02*
X115912768Y-89260737D01*
X115912768Y-89260737D02*
X115769910Y-89189308D01*
X114698482Y-89332165D02*
X114627054Y-89260737D01*
X114627054Y-89260737D02*
X114484197Y-89189308D01*
X114484197Y-89189308D02*
X114127054Y-89189308D01*
X114127054Y-89189308D02*
X113984197Y-89260737D01*
X113984197Y-89260737D02*
X113912768Y-89332165D01*
X113912768Y-89332165D02*
X113841339Y-89475022D01*
X113841339Y-89475022D02*
X113841339Y-89617880D01*
X113841339Y-89617880D02*
X113912768Y-89832165D01*
X113912768Y-89832165D02*
X114769911Y-90689308D01*
X114769911Y-90689308D02*
X113841339Y-90689308D01*
X112484197Y-89189308D02*
X113198483Y-89189308D01*
X113198483Y-89189308D02*
X113269911Y-89903594D01*
X113269911Y-89903594D02*
X113198483Y-89832165D01*
X113198483Y-89832165D02*
X113055626Y-89760737D01*
X113055626Y-89760737D02*
X112698483Y-89760737D01*
X112698483Y-89760737D02*
X112555626Y-89832165D01*
X112555626Y-89832165D02*
X112484197Y-89903594D01*
X112484197Y-89903594D02*
X112412768Y-90046451D01*
X112412768Y-90046451D02*
X112412768Y-90403594D01*
X112412768Y-90403594D02*
X112484197Y-90546451D01*
X112484197Y-90546451D02*
X112555626Y-90617880D01*
X112555626Y-90617880D02*
X112698483Y-90689308D01*
X112698483Y-90689308D02*
X113055626Y-90689308D01*
X113055626Y-90689308D02*
X113198483Y-90617880D01*
X113198483Y-90617880D02*
X113269911Y-90546451D01*
D12*
%TO.P,U2,*%
%TO.N,*%
X128790345Y-55851280D03*
X128790345Y-59407280D03*
%TO.P,U2,1*%
%TO.N,Net-(S1-A-Pad1)*%
X154684345Y-55851280D03*
X154684345Y-59407280D03*
D13*
%TO.P,U2,2*%
%TO.N,Net-(D1-K)*%
X141744345Y-57883280D03*
%TD*%
D14*
%TO.P,S1,1,A*%
%TO.N,Net-(S1-A-Pad1)*%
X143544345Y-129963280D03*
%TO.P,S1,2,E*%
%TO.N,Net-(S1-E)*%
X143544345Y-127423280D03*
%TO.P,S1,3,A*%
%TO.N,unconnected-(S1-A-Pad3)*%
X143544345Y-124883280D03*
%TD*%
D15*
%TO.P,R1off1,1*%
%TO.N,Net-(S1-E)*%
X94764345Y-110783280D03*
%TO.P,R1off1,2*%
%TO.N,Net-(D3-A)*%
X104924345Y-110783280D03*
%TD*%
%TO.P,R7,1*%
%TO.N,Net-(D3-K)*%
X94764345Y-114833280D03*
%TO.P,R7,2*%
%TO.N,Net-(D3-A)*%
X104924345Y-114833280D03*
%TD*%
D16*
%TO.P,U1,1,GND*%
%TO.N,Net-(D1-K)*%
X116444345Y-119823280D03*
D15*
%TO.P,U1,2,TR*%
%TO.N,Net-(D3-K)*%
X116444345Y-117283280D03*
%TO.P,U1,3,Q*%
%TO.N,unconnected-(U1-Q-Pad3)*%
X116444345Y-114743280D03*
%TO.P,U1,4,R*%
%TO.N,Net-(S1-E)*%
X116444345Y-112203280D03*
%TO.P,U1,5,CV*%
%TO.N,unconnected-(U1-CV-Pad5)*%
X124064345Y-112203280D03*
%TO.P,U1,6,THR*%
%TO.N,Net-(D3-K)*%
X124064345Y-114743280D03*
%TO.P,U1,7,DIS*%
%TO.N,Net-(D3-A)*%
X124064345Y-117283280D03*
%TO.P,U1,8,VCC*%
%TO.N,Net-(S1-E)*%
X124064345Y-119823280D03*
%TD*%
%TO.P,R3,1*%
%TO.N,Net-(D3-K)*%
X94764345Y-131033280D03*
%TO.P,R3,2*%
%TO.N,Net-(Q1-B)*%
X104924345Y-131033280D03*
%TD*%
%TO.P,R6,1*%
%TO.N,Net-(S1-E)*%
X94764345Y-118883280D03*
%TO.P,R6,2*%
%TO.N,Net-(Q2-C)*%
X104924345Y-118883280D03*
%TD*%
%TO.P,R4,1*%
%TO.N,Net-(Q1-B)*%
X94764345Y-126983280D03*
%TO.P,R4,2*%
%TO.N,Net-(D1-K)*%
X104924345Y-126983280D03*
%TD*%
D17*
%TO.P,T2,1,E*%
%TO.N,Net-(D1-A)*%
X133604345Y-114723280D03*
D18*
%TO.P,T2,2,B*%
%TO.N,Net-(Q1-C)*%
X136144345Y-112183280D03*
%TO.P,T2,3,C*%
%TO.N,Net-(Q2-C)*%
X138684345Y-114723280D03*
%TD*%
D17*
%TO.P,T1,1,E*%
%TO.N,Net-(D1-K)*%
X134144345Y-107383280D03*
D18*
%TO.P,T1,2,B*%
%TO.N,Net-(Q1-B)*%
X136684345Y-104843280D03*
%TO.P,T1,3,C*%
%TO.N,Net-(Q1-C)*%
X139224345Y-107383280D03*
%TD*%
D15*
%TO.P,R5,1*%
%TO.N,Net-(S1-E)*%
X94764345Y-122933280D03*
%TO.P,R5,2*%
%TO.N,Net-(Q1-C)*%
X104924345Y-122933280D03*
%TD*%
D19*
%TO.P,47uF,1*%
%TO.N,Net-(D3-K)*%
X146744345Y-117983280D03*
D15*
%TO.P,47uF,2*%
%TO.N,Net-(D1-K)*%
X149244345Y-117983280D03*
%TD*%
D19*
%TO.P,D3,1,K*%
%TO.N,Net-(D3-K)*%
X116434345Y-108383280D03*
D20*
%TO.P,D3,2,A*%
%TO.N,Net-(D3-A)*%
X124054345Y-108383280D03*
%TD*%
D21*
%TO.P,D1,1,K*%
%TO.N,Net-(D1-K)*%
X135360000Y-76300000D03*
D22*
%TO.P,D1,2,A*%
%TO.N,Net-(D1-A)*%
X137900000Y-76300000D03*
%TD*%
D21*
%TO.P,D2,1,K*%
%TO.N,Net-(D1-K)*%
X155344345Y-75400000D03*
D22*
%TO.P,D2,2,A*%
%TO.N,Net-(D1-A)*%
X157884345Y-75400000D03*
%TD*%
D23*
%TO.N,Net-(D1-A)*%
X151044345Y-84438935D02*
X156400000Y-79083280D01*
X151044345Y-119383280D02*
X151044345Y-84438935D01*
X137944345Y-120283280D02*
X150144345Y-120283280D01*
X150144345Y-120283280D02*
X151044345Y-119383280D01*
X156400000Y-79083280D02*
X156444345Y-79083280D01*
X133604345Y-114723280D02*
X133604345Y-115943280D01*
X133604345Y-115943280D02*
X137944345Y-120283280D01*
%TO.N,Net-(D1-K)*%
X153127625Y-73183280D02*
X137244345Y-73183280D01*
X155344345Y-75400000D02*
X153127625Y-73183280D01*
X137613813Y-72813813D02*
X137244345Y-73183280D01*
X135360000Y-76300000D02*
X135360000Y-75067626D01*
X135360000Y-75067626D02*
X137613813Y-72813813D01*
X135360000Y-91567624D02*
X134963812Y-91963812D01*
X135360000Y-76300000D02*
X135360000Y-91567624D01*
X134963812Y-91963812D02*
X131444345Y-95483280D01*
X104924345Y-126983280D02*
X106544345Y-126983280D01*
X93344345Y-125383280D02*
X103444345Y-125383280D01*
X149244345Y-107983280D02*
X149244345Y-117983280D01*
%TO.N,Net-(D1-A)*%
X140384345Y-79083280D02*
X156400000Y-79083280D01*
%TO.N,Net-(D1-K)*%
X91544345Y-110683280D02*
X91544345Y-123583280D01*
X139644345Y-104283280D02*
X145744345Y-104283280D01*
X98344345Y-103883280D02*
X91544345Y-110683280D01*
X145744345Y-104283280D02*
X149344345Y-107883280D01*
X134144345Y-107383280D02*
X136544345Y-107383280D01*
X153244345Y-73183280D02*
X153127625Y-73183280D01*
X131444345Y-95483280D02*
X131444345Y-106183280D01*
X103444345Y-125503280D02*
X104924345Y-126983280D01*
X135544345Y-74683280D02*
X135544345Y-76783280D01*
X132644345Y-107383280D02*
X134144345Y-107383280D01*
X149344345Y-107883280D02*
X149244345Y-107983280D01*
X137244345Y-73183280D02*
X137044345Y-73183280D01*
X106544345Y-126983280D02*
X113704345Y-119823280D01*
X103444345Y-125383280D02*
X103444345Y-125503280D01*
X125644345Y-103883280D02*
X98344345Y-103883280D01*
X136544345Y-107383280D02*
X139644345Y-104283280D01*
X135544345Y-91383280D02*
X134963812Y-91963812D01*
X141744345Y-68683280D02*
X137613813Y-72813813D01*
X91544345Y-123583280D02*
X93344345Y-125383280D01*
%TO.N,Net-(D1-A)*%
X138084345Y-76783280D02*
X140384345Y-79083280D01*
%TO.N,Net-(D1-K)*%
X113704345Y-119823280D02*
X116444345Y-119823280D01*
%TO.N,Net-(D1-A)*%
X156444345Y-79083280D02*
X157884345Y-77643280D01*
%TO.N,Net-(D1-K)*%
X155344345Y-75783280D02*
X155344345Y-75283280D01*
X129144345Y-107383280D02*
X125644345Y-103883280D01*
X141744345Y-57883280D02*
X141744345Y-68683280D01*
X134144345Y-107383280D02*
X129144345Y-107383280D01*
X131444345Y-106183280D02*
X132644345Y-107383280D01*
%TO.N,Net-(S1-A-Pad1)*%
X152544345Y-98183280D02*
X152544345Y-119283280D01*
%TO.N,Net-(Q1-B)*%
X98444345Y-126983280D02*
X94764345Y-126983280D01*
%TO.N,Net-(S1-A-Pad1)*%
X165944345Y-84783280D02*
X152544345Y-98183280D01*
%TO.N,Net-(S1-E)*%
X94764345Y-122933280D02*
X94764345Y-118883280D01*
%TO.N,Net-(S1-A-Pad1)*%
X165944345Y-74083280D02*
X165944345Y-84783280D01*
X147244345Y-126883280D02*
X147244345Y-129583280D01*
X152544345Y-119283280D02*
X150444345Y-121383280D01*
%TO.N,Net-(S1-E)*%
X116444345Y-112203280D02*
X119064345Y-112203280D01*
%TO.N,Net-(S1-A-Pad1)*%
X150444345Y-123683280D02*
X147244345Y-126883280D01*
%TO.N,Net-(S1-E)*%
X92044345Y-113503280D02*
X92044345Y-117883280D01*
X121584345Y-119823280D02*
X124064345Y-119823280D01*
%TO.N,Net-(Q1-C)*%
X139224345Y-109103280D02*
X139224345Y-107383280D01*
X136144345Y-112183280D02*
X139224345Y-109103280D01*
%TO.N,Net-(S1-E)*%
X124064345Y-121203280D02*
X124064345Y-119823280D01*
X119344345Y-117583280D02*
X121584345Y-119823280D01*
X94764345Y-110783280D02*
X92044345Y-113503280D01*
X119064345Y-112203280D02*
X119344345Y-112483280D01*
X143544345Y-127423280D02*
X130284345Y-127423280D01*
%TO.N,Net-(Q1-B)*%
X102494345Y-131033280D02*
X98444345Y-126983280D01*
X104924345Y-131033280D02*
X102494345Y-131033280D01*
%TO.N,Net-(S1-A-Pad1)*%
X154684345Y-55851280D02*
X154684345Y-59407280D01*
X147244345Y-129583280D02*
X146864345Y-129963280D01*
%TO.N,Net-(S1-E)*%
X92044345Y-117883280D02*
X93044345Y-118883280D01*
%TO.N,Net-(S1-A-Pad1)*%
X154684345Y-59407280D02*
X154684345Y-62823280D01*
X146864345Y-129963280D02*
X143544345Y-129963280D01*
X150444345Y-121383280D02*
X150444345Y-123683280D01*
%TO.N,Net-(S1-E)*%
X130284345Y-127423280D02*
X124064345Y-121203280D01*
X93044345Y-118883280D02*
X94764345Y-118883280D01*
X119344345Y-112483280D02*
X119344345Y-117583280D01*
%TO.N,Net-(S1-A-Pad1)*%
X154684345Y-62823280D02*
X165944345Y-74083280D01*
%TO.N,Net-(D3-A)*%
X125644345Y-117283280D02*
X124064345Y-117283280D01*
X106844345Y-105583280D02*
X104924345Y-107503280D01*
X124054345Y-108383280D02*
X126544345Y-110873280D01*
X104924345Y-110783280D02*
X104924345Y-114833280D01*
X124054345Y-108383280D02*
X121254345Y-105583280D01*
X104924345Y-107503280D02*
X104924345Y-110783280D01*
X126544345Y-110873280D02*
X126544345Y-116383280D01*
X121254345Y-105583280D02*
X106844345Y-105583280D01*
X126544345Y-116383280D02*
X125644345Y-117283280D01*
%TO.N,Net-(D1-A)*%
X157884345Y-77643280D02*
X157884345Y-75783280D01*
%TD*%
M02*
