%TF.GenerationSoftware,KiCad,Pcbnew,9.0.6*%
%TF.CreationDate,2025-12-07T10:25:39+01:00*%
%TF.ProjectId,Rocket,526f636b-6574-42e6-9b69-6361645f7063,rev?*%
%TF.SameCoordinates,Original*%
%TF.FileFunction,Copper,L1,Top*%
%TF.FilePolarity,Positive*%
%FSLAX46Y46*%
G04 Gerber Fmt 4.6, Leading zero omitted, Abs format (unit mm)*
G04 Created by KiCad (PCBNEW 9.0.6) date 2025-12-07 10:25:39*
%MOMM*%
%LPD*%
G01*
G04 APERTURE LIST*
G04 Aperture macros list*
%AMRoundRect*
0 Rectangle with rounded corners*
0 $1 Rounding radius*
0 $2 $3 $4 $5 $6 $7 $8 $9 X,Y pos of 4 corners*
0 Add a 4 corners polygon primitive as box body*
4,1,4,$2,$3,$4,$5,$6,$7,$8,$9,$2,$3,0*
0 Add four circle primitives for the rounded corners*
1,1,$1+$1,$2,$3*
1,1,$1+$1,$4,$5*
1,1,$1+$1,$6,$7*
1,1,$1+$1,$8,$9*
0 Add four rect primitives between the rounded corners*
20,1,$1+$1,$2,$3,$4,$5,0*
20,1,$1+$1,$4,$5,$6,$7,0*
20,1,$1+$1,$6,$7,$8,$9,0*
20,1,$1+$1,$8,$9,$2,$3,0*%
G04 Aperture macros list end*
%TA.AperFunction,ComponentPad*%
%ADD10RoundRect,0.250000X-0.550000X-0.550000X0.550000X-0.550000X0.550000X0.550000X-0.550000X0.550000X0*%
%TD*%
%TA.AperFunction,ComponentPad*%
%ADD11C,1.600000*%
%TD*%
%TA.AperFunction,ComponentPad*%
%ADD12C,2.000000*%
%TD*%
%TA.AperFunction,ComponentPad*%
%ADD13R,1.500000X1.500000*%
%TD*%
%TA.AperFunction,ComponentPad*%
%ADD14C,1.500000*%
%TD*%
%TA.AperFunction,ComponentPad*%
%ADD15R,1.600000X1.600000*%
%TD*%
%TA.AperFunction,ComponentPad*%
%ADD16O,1.600000X1.600000*%
%TD*%
%TA.AperFunction,ComponentPad*%
%ADD17R,1.800000X1.800000*%
%TD*%
%TA.AperFunction,ComponentPad*%
%ADD18C,1.800000*%
%TD*%
%TA.AperFunction,Conductor*%
%ADD19C,0.250000*%
%TD*%
G04 APERTURE END LIST*
D10*
%TO.P,U1,1,GND*%
%TO.N,Net-(D1-K)*%
X134400000Y-123840000D03*
D11*
%TO.P,U1,2,TR*%
%TO.N,Net-(D3-K)*%
X134400000Y-121300000D03*
%TO.P,U1,3,Q*%
%TO.N,unconnected-(U1-Q-Pad3)*%
X134400000Y-118760000D03*
%TO.P,U1,4,R*%
%TO.N,Net-(S1-E)*%
X134400000Y-116220000D03*
%TO.P,U1,5,CV*%
%TO.N,unconnected-(U1-CV-Pad5)*%
X142020000Y-116220000D03*
%TO.P,U1,6,THR*%
%TO.N,Net-(D3-K)*%
X142020000Y-118760000D03*
%TO.P,U1,7,DIS*%
%TO.N,Net-(D3-A)*%
X142020000Y-121300000D03*
%TO.P,U1,8,VCC*%
%TO.N,Net-(S1-E)*%
X142020000Y-123840000D03*
%TD*%
D12*
%TO.P,S1,1,A*%
%TO.N,Net-(S1-A-Pad1)*%
X161500000Y-133980000D03*
%TO.P,S1,2,E*%
%TO.N,Net-(S1-E)*%
X161500000Y-131440000D03*
%TO.P,S1,3,A*%
%TO.N,unconnected-(S1-A-Pad3)*%
X161500000Y-128900000D03*
%TD*%
D11*
%TO.P,R7,1*%
%TO.N,Net-(D3-K)*%
X112720000Y-118850000D03*
%TO.P,R7,2*%
%TO.N,Net-(D3-A)*%
X122880000Y-118850000D03*
%TD*%
%TO.P,R6,1*%
%TO.N,Net-(S1-E)*%
X112720000Y-122900000D03*
%TO.P,R6,2*%
%TO.N,Net-(Q2-C)*%
X122880000Y-122900000D03*
%TD*%
%TO.P,R5,1*%
%TO.N,Net-(S1-E)*%
X112720000Y-126950000D03*
%TO.P,R5,2*%
%TO.N,Net-(Q1-C)*%
X122880000Y-126950000D03*
%TD*%
%TO.P,R4,1*%
%TO.N,Net-(Q1-B)*%
X112720000Y-131000000D03*
%TO.P,R4,2*%
%TO.N,Net-(D1-K)*%
X122880000Y-131000000D03*
%TD*%
%TO.P,R3,1*%
%TO.N,Net-(D3-K)*%
X112720000Y-135050000D03*
%TO.P,R3,2*%
%TO.N,Net-(Q1-B)*%
X122880000Y-135050000D03*
%TD*%
%TO.P,R1off1,1*%
%TO.N,Net-(S1-E)*%
X112720000Y-114800000D03*
%TO.P,R1off1,2*%
%TO.N,Net-(D3-A)*%
X122880000Y-114800000D03*
%TD*%
D13*
%TO.P,T2,1,E*%
%TO.N,Net-(D1-A)*%
X151560000Y-118740000D03*
D14*
%TO.P,T2,2,B*%
%TO.N,Net-(Q1-C)*%
X154100000Y-116200000D03*
%TO.P,T2,3,C*%
%TO.N,Net-(Q2-C)*%
X156640000Y-118740000D03*
%TD*%
D15*
%TO.P,D3,1,K*%
%TO.N,Net-(D3-K)*%
X134390000Y-112400000D03*
D16*
%TO.P,D3,2,A*%
%TO.N,Net-(D3-A)*%
X142010000Y-112400000D03*
%TD*%
D17*
%TO.P,D2,1,K*%
%TO.N,Net-(D1-K)*%
X173300000Y-79800000D03*
D18*
%TO.P,D2,2,A*%
%TO.N,Net-(D1-A)*%
X175840000Y-79800000D03*
%TD*%
D17*
%TO.P,D1,1,K*%
%TO.N,Net-(D1-K)*%
X153500000Y-80800000D03*
D18*
%TO.P,D1,2,A*%
%TO.N,Net-(D1-A)*%
X156040000Y-80800000D03*
%TD*%
D15*
%TO.P,47uF,1*%
%TO.N,Net-(D3-K)*%
X164700000Y-122000000D03*
D11*
%TO.P,47uF,2*%
%TO.N,Net-(D1-K)*%
X167200000Y-122000000D03*
%TD*%
D13*
%TO.P,T1,1,E*%
%TO.N,Net-(D1-K)*%
X152100000Y-111400000D03*
D14*
%TO.P,T1,2,B*%
%TO.N,Net-(Q1-B)*%
X154640000Y-108860000D03*
%TO.P,T1,3,C*%
%TO.N,Net-(Q1-C)*%
X157180000Y-111400000D03*
%TD*%
D19*
%TO.N,Net-(Q1-B)*%
X159800000Y-132200000D02*
X156950000Y-135050000D01*
X159800000Y-111400000D02*
X159800000Y-132200000D01*
X156950000Y-135050000D02*
X122880000Y-135050000D01*
X157260000Y-108860000D02*
X159800000Y-111400000D01*
X154640000Y-108860000D02*
X157260000Y-108860000D01*
%TO.N,Net-(D1-K)*%
X134400000Y-125100000D02*
X134400000Y-123840000D01*
X134900000Y-125600000D02*
X134400000Y-125100000D01*
X134900000Y-125900000D02*
X134900000Y-125600000D01*
X145100000Y-125900000D02*
X134900000Y-125900000D01*
X145600000Y-125400000D02*
X145100000Y-125900000D01*
X145600000Y-122300000D02*
X145600000Y-125400000D01*
X152100000Y-115800000D02*
X145600000Y-122300000D01*
X152100000Y-111400000D02*
X152100000Y-115800000D01*
%TO.N,Net-(D3-K)*%
X164700000Y-108700000D02*
X164700000Y-122000000D01*
X147600000Y-116300000D02*
X147600000Y-106700000D01*
X145140000Y-118760000D02*
X147600000Y-116300000D01*
X147600000Y-106700000D02*
X162700000Y-106700000D01*
X142020000Y-118760000D02*
X145140000Y-118760000D01*
X162700000Y-106700000D02*
X164700000Y-108700000D01*
X137540000Y-118760000D02*
X142020000Y-118760000D01*
X137300000Y-119000000D02*
X137540000Y-118760000D01*
X136700000Y-119000000D02*
X137300000Y-119000000D01*
X134400000Y-121300000D02*
X136700000Y-119000000D01*
%TO.N,Net-(Q2-C)*%
X122880000Y-124280000D02*
X122880000Y-122900000D01*
X125400000Y-126800000D02*
X122880000Y-124280000D01*
X152100000Y-126800000D02*
X125400000Y-126800000D01*
X156640000Y-122260000D02*
X152100000Y-126800000D01*
X156640000Y-118740000D02*
X156640000Y-122260000D01*
%TO.N,Net-(D3-K)*%
X115800000Y-120900000D02*
X115600000Y-120700000D01*
X115800000Y-134200000D02*
X115800000Y-120900000D01*
X114570000Y-120700000D02*
X115600000Y-120700000D01*
X114950000Y-135050000D02*
X115800000Y-134200000D01*
X112720000Y-135050000D02*
X114950000Y-135050000D01*
X115600000Y-120700000D02*
X129100000Y-120700000D01*
X112720000Y-118850000D02*
X114570000Y-120700000D01*
X129700000Y-120100000D02*
X129700000Y-120500000D01*
X129100000Y-120700000D02*
X129700000Y-120100000D01*
X131100000Y-121300000D02*
X134400000Y-121300000D01*
X131000000Y-121400000D02*
X131100000Y-121300000D01*
X130600000Y-121400000D02*
X131000000Y-121400000D01*
X129700000Y-120500000D02*
X130600000Y-121400000D01*
X129700000Y-116300000D02*
X129700000Y-120100000D01*
X133600000Y-112400000D02*
X129700000Y-116300000D01*
X134390000Y-112400000D02*
X133600000Y-112400000D01*
%TO.N,Net-(Q1-C)*%
X124500000Y-127800000D02*
X124500000Y-127100000D01*
X157900000Y-128600000D02*
X125300000Y-128600000D01*
X125300000Y-128600000D02*
X124500000Y-127800000D01*
X157900000Y-112120000D02*
X157900000Y-128600000D01*
X124500000Y-127100000D02*
X124350000Y-126950000D01*
X157180000Y-111400000D02*
X157900000Y-112120000D01*
X124350000Y-126950000D02*
X122880000Y-126950000D01*
%TD*%
M02*
