%TF.GenerationSoftware,KiCad,Pcbnew,9.0.6*%
%TF.CreationDate,2025-12-07T14:23:17+01:00*%
%TF.ProjectId,Rocket,526f636b-6574-42e6-9b69-6361645f7063,rev?*%
%TF.SameCoordinates,Original*%
%TF.FileFunction,Copper,L1,Top*%
%TF.FilePolarity,Positive*%
%FSLAX46Y46*%
G04 Gerber Fmt 4.6, Leading zero omitted, Abs format (unit mm)*
G04 Created by KiCad (PCBNEW 9.0.6) date 2025-12-07 14:23:17*
%MOMM*%
%LPD*%
G01*
G04 APERTURE LIST*
G04 Aperture macros list*
%AMRoundRect*
0 Rectangle with rounded corners*
0 $1 Rounding radius*
0 $2 $3 $4 $5 $6 $7 $8 $9 X,Y pos of 4 corners*
0 Add a 4 corners polygon primitive as box body*
4,1,4,$2,$3,$4,$5,$6,$7,$8,$9,$2,$3,0*
0 Add four circle primitives for the rounded corners*
1,1,$1+$1,$2,$3*
1,1,$1+$1,$4,$5*
1,1,$1+$1,$6,$7*
1,1,$1+$1,$8,$9*
0 Add four rect primitives between the rounded corners*
20,1,$1+$1,$2,$3,$4,$5,0*
20,1,$1+$1,$4,$5,$6,$7,0*
20,1,$1+$1,$6,$7,$8,$9,0*
20,1,$1+$1,$8,$9,$2,$3,0*%
G04 Aperture macros list end*
%TA.AperFunction,ComponentPad*%
%ADD10C,2.000000*%
%TD*%
%TA.AperFunction,ComponentPad*%
%ADD11C,1.600000*%
%TD*%
%TA.AperFunction,ComponentPad*%
%ADD12RoundRect,0.250000X-0.550000X-0.550000X0.550000X-0.550000X0.550000X0.550000X-0.550000X0.550000X0*%
%TD*%
%TA.AperFunction,ComponentPad*%
%ADD13R,1.500000X1.500000*%
%TD*%
%TA.AperFunction,ComponentPad*%
%ADD14C,1.500000*%
%TD*%
%TA.AperFunction,ComponentPad*%
%ADD15R,1.600000X1.600000*%
%TD*%
%TA.AperFunction,ComponentPad*%
%ADD16O,1.600000X1.600000*%
%TD*%
%TA.AperFunction,ComponentPad*%
%ADD17R,1.800000X1.800000*%
%TD*%
%TA.AperFunction,ComponentPad*%
%ADD18C,1.800000*%
%TD*%
%TA.AperFunction,Conductor*%
%ADD19C,0.250000*%
%TD*%
G04 APERTURE END LIST*
D10*
%TO.P,S1,1,A*%
%TO.N,Net-(S1-A-Pad1)*%
X143544345Y-129963280D03*
%TO.P,S1,2,E*%
%TO.N,Net-(S1-E)*%
X143544345Y-127423280D03*
%TO.P,S1,3,A*%
%TO.N,unconnected-(S1-A-Pad3)*%
X143544345Y-124883280D03*
%TD*%
D11*
%TO.P,R1off1,1*%
%TO.N,Net-(S1-E)*%
X94764345Y-110783280D03*
%TO.P,R1off1,2*%
%TO.N,Net-(D3-A)*%
X104924345Y-110783280D03*
%TD*%
%TO.P,R7,1*%
%TO.N,Net-(D3-K)*%
X94764345Y-114833280D03*
%TO.P,R7,2*%
%TO.N,Net-(D3-A)*%
X104924345Y-114833280D03*
%TD*%
D12*
%TO.P,U1,1,GND*%
%TO.N,Net-(D1-K)*%
X116444345Y-119823280D03*
D11*
%TO.P,U1,2,TR*%
%TO.N,Net-(D3-K)*%
X116444345Y-117283280D03*
%TO.P,U1,3,Q*%
%TO.N,unconnected-(U1-Q-Pad3)*%
X116444345Y-114743280D03*
%TO.P,U1,4,R*%
%TO.N,Net-(S1-E)*%
X116444345Y-112203280D03*
%TO.P,U1,5,CV*%
%TO.N,unconnected-(U1-CV-Pad5)*%
X124064345Y-112203280D03*
%TO.P,U1,6,THR*%
%TO.N,Net-(D3-K)*%
X124064345Y-114743280D03*
%TO.P,U1,7,DIS*%
%TO.N,Net-(D3-A)*%
X124064345Y-117283280D03*
%TO.P,U1,8,VCC*%
%TO.N,Net-(S1-E)*%
X124064345Y-119823280D03*
%TD*%
%TO.P,R3,1*%
%TO.N,Net-(D3-K)*%
X94764345Y-131033280D03*
%TO.P,R3,2*%
%TO.N,Net-(Q1-B)*%
X104924345Y-131033280D03*
%TD*%
%TO.P,R6,1*%
%TO.N,Net-(S1-E)*%
X94764345Y-118883280D03*
%TO.P,R6,2*%
%TO.N,Net-(Q2-C)*%
X104924345Y-118883280D03*
%TD*%
%TO.P,R4,1*%
%TO.N,Net-(Q1-B)*%
X94764345Y-126983280D03*
%TO.P,R4,2*%
%TO.N,Net-(D1-K)*%
X104924345Y-126983280D03*
%TD*%
D13*
%TO.P,T2,1,E*%
%TO.N,Net-(D1-A)*%
X133604345Y-114723280D03*
D14*
%TO.P,T2,2,B*%
%TO.N,Net-(Q1-C)*%
X136144345Y-112183280D03*
%TO.P,T2,3,C*%
%TO.N,Net-(Q2-C)*%
X138684345Y-114723280D03*
%TD*%
D13*
%TO.P,T1,1,E*%
%TO.N,Net-(D1-K)*%
X134144345Y-107383280D03*
D14*
%TO.P,T1,2,B*%
%TO.N,Net-(Q1-B)*%
X136684345Y-104843280D03*
%TO.P,T1,3,C*%
%TO.N,Net-(Q1-C)*%
X139224345Y-107383280D03*
%TD*%
D11*
%TO.P,R5,1*%
%TO.N,Net-(S1-E)*%
X94764345Y-122933280D03*
%TO.P,R5,2*%
%TO.N,Net-(Q1-C)*%
X104924345Y-122933280D03*
%TD*%
D15*
%TO.P,47uF,1*%
%TO.N,Net-(D3-K)*%
X146744345Y-117983280D03*
D11*
%TO.P,47uF,2*%
%TO.N,Net-(D1-K)*%
X149244345Y-117983280D03*
%TD*%
D15*
%TO.P,D3,1,K*%
%TO.N,Net-(D3-K)*%
X116434345Y-108383280D03*
D16*
%TO.P,D3,2,A*%
%TO.N,Net-(D3-A)*%
X124054345Y-108383280D03*
%TD*%
D17*
%TO.P,D1,1,K*%
%TO.N,Net-(D1-K)*%
X135360000Y-76300000D03*
D18*
%TO.P,D1,2,A*%
%TO.N,Net-(D1-A)*%
X137900000Y-76300000D03*
%TD*%
D17*
%TO.P,D2,1,K*%
%TO.N,Net-(D1-K)*%
X155344345Y-75400000D03*
D18*
%TO.P,D2,2,A*%
%TO.N,Net-(D1-A)*%
X157884345Y-75400000D03*
%TD*%
D19*
%TO.N,Net-(D1-K)*%
X127644345Y-118283280D02*
X127644345Y-121383280D01*
X134144345Y-107383280D02*
X134144345Y-111783280D01*
%TO.N,Net-(Q1-C)*%
X107344345Y-124583280D02*
X106544345Y-123783280D01*
X139944345Y-108103280D02*
X139944345Y-124583280D01*
X139944345Y-124583280D02*
X107344345Y-124583280D01*
%TO.N,Net-(Q2-C)*%
X104924345Y-120263280D02*
X104924345Y-118883280D01*
X107444345Y-122783280D02*
X104924345Y-120263280D01*
X138684345Y-114723280D02*
X138684345Y-118243280D01*
%TO.N,Net-(Q1-C)*%
X106544345Y-123083280D02*
X106394345Y-122933280D01*
X106394345Y-122933280D02*
X104924345Y-122933280D01*
X139224345Y-107383280D02*
X139944345Y-108103280D01*
%TO.N,Net-(Q2-C)*%
X138684345Y-118243280D02*
X134144345Y-122783280D01*
%TO.N,Net-(Q1-C)*%
X106544345Y-123783280D02*
X106544345Y-123083280D01*
%TO.N,Net-(Q1-B)*%
X136684345Y-104843280D02*
X139304345Y-104843280D01*
%TO.N,Net-(Q2-C)*%
X134144345Y-122783280D02*
X107444345Y-122783280D01*
%TO.N,Net-(D3-K)*%
X113144345Y-117283280D02*
X116444345Y-117283280D01*
X116444345Y-117283280D02*
X118744345Y-114983280D01*
X111744345Y-112283280D02*
X111744345Y-116083280D01*
X115644345Y-108383280D02*
X111744345Y-112283280D01*
X96994345Y-131033280D02*
X97844345Y-130183280D01*
X119584345Y-114743280D02*
X124064345Y-114743280D01*
X97844345Y-116883280D02*
X97644345Y-116683280D01*
X129644345Y-102683280D02*
X144744345Y-102683280D01*
X127184345Y-114743280D02*
X129644345Y-112283280D01*
X124064345Y-114743280D02*
X127184345Y-114743280D01*
X97644345Y-116683280D02*
X111144345Y-116683280D01*
X94764345Y-131033280D02*
X96994345Y-131033280D01*
X111144345Y-116683280D02*
X111744345Y-116083280D01*
X111744345Y-116083280D02*
X111744345Y-116483280D01*
X116434345Y-108383280D02*
X115644345Y-108383280D01*
X144744345Y-102683280D02*
X146744345Y-104683280D01*
X129644345Y-112283280D02*
X129644345Y-102683280D01*
%TO.N,Net-(Q1-B)*%
X139304345Y-104843280D02*
X141844345Y-107383280D01*
X141844345Y-128183280D02*
X138994345Y-131033280D01*
%TO.N,Net-(D3-K)*%
X119344345Y-114983280D02*
X119584345Y-114743280D01*
X97844345Y-130183280D02*
X97844345Y-116883280D01*
X112644345Y-117383280D02*
X113044345Y-117383280D01*
X146744345Y-104683280D02*
X146744345Y-117983280D01*
%TO.N,Net-(Q1-B)*%
X138994345Y-131033280D02*
X104924345Y-131033280D01*
X141844345Y-107383280D02*
X141844345Y-128183280D01*
%TO.N,Net-(D3-K)*%
X113044345Y-117383280D02*
X113144345Y-117283280D01*
X96614345Y-116683280D02*
X97644345Y-116683280D01*
X94764345Y-114833280D02*
X96614345Y-116683280D01*
X111744345Y-116483280D02*
X112644345Y-117383280D01*
X118744345Y-114983280D02*
X119344345Y-114983280D01*
%TO.N,Net-(D1-K)*%
X127644345Y-121383280D02*
X127144345Y-121883280D01*
X116944345Y-121883280D02*
X116944345Y-121583280D01*
X134144345Y-111783280D02*
X127644345Y-118283280D01*
X127144345Y-121883280D02*
X116944345Y-121883280D01*
X116444345Y-121083280D02*
X116444345Y-119823280D01*
X116944345Y-121583280D02*
X116444345Y-121083280D01*
%TD*%
M02*
