M48
; DRILL file {KiCad 9.0.6} date 2025-12-07T11:24:18+0100
; FORMAT={-:-/ absolute / inch / decimal}
; #@! TF.CreationDate,2025-12-07T11:24:18+01:00
; #@! TF.GenerationSoftware,Kicad,Pcbnew,9.0.6
; #@! TF.FileFunction,Plated,1,2,PTH
FMAT,2
INCH
; #@! TA.AperFunction,Plated,PTH,ComponentDrill
T1C0.0315
; #@! TA.AperFunction,Plated,PTH,ComponentDrill
T2C0.0354
; #@! TA.AperFunction,Plated,PTH,ComponentDrill
T3C0.0394
%
G90
G05
T1
X4.989Y-4.4252
X4.989Y-4.5846
X4.989Y-4.7441
X4.989Y-4.9035
X4.989Y-5.063
X4.989Y-5.2224
X5.389Y-4.4252
X5.389Y-4.5846
X5.389Y-4.7441
X5.389Y-4.9035
X5.389Y-5.063
X5.389Y-5.2224
X5.8421Y-4.3307
X5.8425Y-4.4811
X5.8425Y-4.5811
X5.8425Y-4.6811
X5.8425Y-4.7811
X6.1421Y-4.3307
X6.1425Y-4.4811
X6.1425Y-4.5811
X6.1425Y-4.6811
X6.1425Y-4.7811
X6.5181Y-4.5803
X6.5394Y-4.2913
X6.6181Y-4.4803
X6.6394Y-4.1913
X6.7181Y-4.5803
X6.7394Y-4.2913
X7.0354Y-4.7087
X7.1339Y-4.7087
T2
X6.5945Y-3.0866
X6.6945Y-3.0866
X7.374Y-3.0472
X7.474Y-3.0472
T3
X6.9094Y-4.9803
X6.9094Y-5.0803
X6.9094Y-5.1803
M30
