M48
; DRILL file {KiCad 9.0.6} date 2025-12-30T06:04:09+0100
; FORMAT={-:-/ absolute / inch / decimal}
; #@! TF.CreationDate,2025-12-30T06:04:09+01:00
; #@! TF.GenerationSoftware,Kicad,Pcbnew,9.0.6
; #@! TF.FileFunction,Plated,1,2,PTH
FMAT,2
INCH
; #@! TA.AperFunction,Plated,PTH,ComponentDrill
T1C0.0315
; #@! TA.AperFunction,Plated,PTH,ComponentDrill
T2C0.0354
; #@! TA.AperFunction,Plated,PTH,ComponentDrill
T3C0.0394
%
G90
G05
T1
X5.0055Y-4.437
X5.0055Y-4.5965
X5.0055Y-4.7559
X5.0055Y-4.9154
X5.0055Y-5.0748
X5.0055Y-5.2343
X5.4055Y-4.437
X5.4055Y-4.5965
X5.4055Y-4.7559
X5.4055Y-4.9154
X5.4055Y-5.0748
X5.4055Y-5.2343
X5.812Y-3.9958
X5.8124Y-4.1462
X5.8124Y-4.2462
X5.8124Y-4.3462
X5.8124Y-4.4462
X5.8898Y-4.7795
X5.9882Y-4.7795
X6.112Y-3.9958
X6.1124Y-4.1462
X6.1124Y-4.2462
X6.1124Y-4.3462
X6.1124Y-4.4462
X6.3331Y-5.1661
X6.4331Y-5.0661
X6.4614Y-4.7677
X6.5331Y-5.1661
X6.5614Y-4.6677
X6.6614Y-4.7677
T2
X5.4449Y-3.1142
X5.5449Y-3.1142
X6.3961Y-3.0906
X6.4961Y-3.0906
T3
X6.7953Y-4.1622
X6.7953Y-4.2622
X6.7953Y-4.3622
M30
