M48
; DRILL file {KiCad 9.0.6} date 2025-12-07T10:25:43+0100
; FORMAT={-:-/ absolute / inch / decimal}
; #@! TF.CreationDate,2025-12-07T10:25:43+01:00
; #@! TF.GenerationSoftware,Kicad,Pcbnew,9.0.6
; #@! TF.FileFunction,Plated,1,2,PTH
FMAT,2
INCH
; #@! TA.AperFunction,Plated,PTH,ComponentDrill
T1C0.0315
; #@! TA.AperFunction,Plated,PTH,ComponentDrill
T2C0.0354
; #@! TA.AperFunction,Plated,PTH,ComponentDrill
T3C0.0394
%
G90
G05
T1
X4.4378Y-4.5197
X4.4378Y-4.6791
X4.4378Y-4.8386
X4.4378Y-4.998
X4.4378Y-5.1575
X4.4378Y-5.3169
X4.8378Y-4.5197
X4.8378Y-4.6791
X4.8378Y-4.8386
X4.8378Y-4.998
X4.8378Y-5.1575
X4.8378Y-5.3169
X5.2909Y-4.4252
X5.2913Y-4.5756
X5.2913Y-4.6756
X5.2913Y-4.7756
X5.2913Y-4.8756
X5.5909Y-4.4252
X5.5913Y-4.5756
X5.5913Y-4.6756
X5.5913Y-4.7756
X5.5913Y-4.8756
X5.9669Y-4.6748
X5.9882Y-4.3858
X6.0669Y-4.5748
X6.0882Y-4.2858
X6.1669Y-4.6748
X6.1882Y-4.3858
X6.4843Y-4.8031
X6.5827Y-4.8031
T2
X6.0433Y-3.1811
X6.1433Y-3.1811
X6.8228Y-3.1417
X6.9228Y-3.1417
T3
X6.3583Y-5.0748
X6.3583Y-5.1748
X6.3583Y-5.2748
M30
