%TF.GenerationSoftware,KiCad,Pcbnew,9.0.6*%
%TF.CreationDate,2025-12-08T21:35:20+01:00*%
%TF.ProjectId,Rocket,526f636b-6574-42e6-9b69-6361645f7063,rev?*%
%TF.SameCoordinates,Original*%
%TF.FileFunction,Soldermask,Bot*%
%TF.FilePolarity,Negative*%
%FSLAX46Y46*%
G04 Gerber Fmt 4.6, Leading zero omitted, Abs format (unit mm)*
G04 Created by KiCad (PCBNEW 9.0.6) date 2025-12-08 21:35:20*
%MOMM*%
%LPD*%
G01*
G04 APERTURE LIST*
G04 Aperture macros list*
%AMRoundRect*
0 Rectangle with rounded corners*
0 $1 Rounding radius*
0 $2 $3 $4 $5 $6 $7 $8 $9 X,Y pos of 4 corners*
0 Add a 4 corners polygon primitive as box body*
4,1,4,$2,$3,$4,$5,$6,$7,$8,$9,$2,$3,0*
0 Add four circle primitives for the rounded corners*
1,1,$1+$1,$2,$3*
1,1,$1+$1,$4,$5*
1,1,$1+$1,$6,$7*
1,1,$1+$1,$8,$9*
0 Add four rect primitives between the rounded corners*
20,1,$1+$1,$2,$3,$4,$5,0*
20,1,$1+$1,$4,$5,$6,$7,0*
20,1,$1+$1,$6,$7,$8,$9,0*
20,1,$1+$1,$8,$9,$2,$3,0*%
G04 Aperture macros list end*
%ADD10C,0.300000*%
%ADD11RoundRect,0.200000X-0.900000X-0.900000X0.900000X-0.900000X0.900000X0.900000X-0.900000X0.900000X0*%
%ADD12C,2.200000*%
%ADD13RoundRect,0.200000X-0.750000X-0.750000X0.750000X-0.750000X0.750000X0.750000X-0.750000X0.750000X0*%
%ADD14C,1.900000*%
%ADD15RoundRect,0.200000X-0.800000X-0.800000X0.800000X-0.800000X0.800000X0.800000X-0.800000X0.800000X0*%
%ADD16C,2.000000*%
%ADD17RoundRect,0.200000X-2.500000X-1.000000X2.500000X-1.000000X2.500000X1.000000X-2.500000X1.000000X0*%
%ADD18C,18.180000*%
%ADD19O,2.000000X2.000000*%
%ADD20C,2.400000*%
%ADD21RoundRect,0.312500X-0.687500X-0.687500X0.687500X-0.687500X0.687500X0.687500X-0.687500X0.687500X0*%
G04 APERTURE END LIST*
D10*
X159945489Y-61300828D02*
X159945489Y-59800828D01*
X159088346Y-61300828D02*
X159731203Y-60443685D01*
X159088346Y-59800828D02*
X159945489Y-60657971D01*
X158445489Y-61300828D02*
X158445489Y-59800828D01*
X158445489Y-60515114D02*
X157588346Y-60515114D01*
X157588346Y-61300828D02*
X157588346Y-59800828D01*
X156374060Y-60515114D02*
X156874060Y-60515114D01*
X156874060Y-61300828D02*
X156874060Y-59800828D01*
X156874060Y-59800828D02*
X156159774Y-59800828D01*
X153659774Y-61300828D02*
X154516917Y-61300828D01*
X154088346Y-61300828D02*
X154088346Y-59800828D01*
X154088346Y-59800828D02*
X154231203Y-60015114D01*
X154231203Y-60015114D02*
X154374060Y-60157971D01*
X154374060Y-60157971D02*
X154516917Y-60229400D01*
X153088346Y-59943685D02*
X153016918Y-59872257D01*
X153016918Y-59872257D02*
X152874061Y-59800828D01*
X152874061Y-59800828D02*
X152516918Y-59800828D01*
X152516918Y-59800828D02*
X152374061Y-59872257D01*
X152374061Y-59872257D02*
X152302632Y-59943685D01*
X152302632Y-59943685D02*
X152231203Y-60086542D01*
X152231203Y-60086542D02*
X152231203Y-60229400D01*
X152231203Y-60229400D02*
X152302632Y-60443685D01*
X152302632Y-60443685D02*
X153159775Y-61300828D01*
X153159775Y-61300828D02*
X152231203Y-61300828D01*
X151588347Y-61157971D02*
X151516918Y-61229400D01*
X151516918Y-61229400D02*
X151588347Y-61300828D01*
X151588347Y-61300828D02*
X151659775Y-61229400D01*
X151659775Y-61229400D02*
X151588347Y-61157971D01*
X151588347Y-61157971D02*
X151588347Y-61300828D01*
X150945489Y-59943685D02*
X150874061Y-59872257D01*
X150874061Y-59872257D02*
X150731204Y-59800828D01*
X150731204Y-59800828D02*
X150374061Y-59800828D01*
X150374061Y-59800828D02*
X150231204Y-59872257D01*
X150231204Y-59872257D02*
X150159775Y-59943685D01*
X150159775Y-59943685D02*
X150088346Y-60086542D01*
X150088346Y-60086542D02*
X150088346Y-60229400D01*
X150088346Y-60229400D02*
X150159775Y-60443685D01*
X150159775Y-60443685D02*
X151016918Y-61300828D01*
X151016918Y-61300828D02*
X150088346Y-61300828D01*
X149159775Y-59800828D02*
X149016918Y-59800828D01*
X149016918Y-59800828D02*
X148874061Y-59872257D01*
X148874061Y-59872257D02*
X148802633Y-59943685D01*
X148802633Y-59943685D02*
X148731204Y-60086542D01*
X148731204Y-60086542D02*
X148659775Y-60372257D01*
X148659775Y-60372257D02*
X148659775Y-60729400D01*
X148659775Y-60729400D02*
X148731204Y-61015114D01*
X148731204Y-61015114D02*
X148802633Y-61157971D01*
X148802633Y-61157971D02*
X148874061Y-61229400D01*
X148874061Y-61229400D02*
X149016918Y-61300828D01*
X149016918Y-61300828D02*
X149159775Y-61300828D01*
X149159775Y-61300828D02*
X149302633Y-61229400D01*
X149302633Y-61229400D02*
X149374061Y-61157971D01*
X149374061Y-61157971D02*
X149445490Y-61015114D01*
X149445490Y-61015114D02*
X149516918Y-60729400D01*
X149516918Y-60729400D02*
X149516918Y-60372257D01*
X149516918Y-60372257D02*
X149445490Y-60086542D01*
X149445490Y-60086542D02*
X149374061Y-59943685D01*
X149374061Y-59943685D02*
X149302633Y-59872257D01*
X149302633Y-59872257D02*
X149159775Y-59800828D01*
X148088347Y-59943685D02*
X148016919Y-59872257D01*
X148016919Y-59872257D02*
X147874062Y-59800828D01*
X147874062Y-59800828D02*
X147516919Y-59800828D01*
X147516919Y-59800828D02*
X147374062Y-59872257D01*
X147374062Y-59872257D02*
X147302633Y-59943685D01*
X147302633Y-59943685D02*
X147231204Y-60086542D01*
X147231204Y-60086542D02*
X147231204Y-60229400D01*
X147231204Y-60229400D02*
X147302633Y-60443685D01*
X147302633Y-60443685D02*
X148159776Y-61300828D01*
X148159776Y-61300828D02*
X147231204Y-61300828D01*
X145874062Y-59800828D02*
X146588348Y-59800828D01*
X146588348Y-59800828D02*
X146659776Y-60515114D01*
X146659776Y-60515114D02*
X146588348Y-60443685D01*
X146588348Y-60443685D02*
X146445491Y-60372257D01*
X146445491Y-60372257D02*
X146088348Y-60372257D01*
X146088348Y-60372257D02*
X145945491Y-60443685D01*
X145945491Y-60443685D02*
X145874062Y-60515114D01*
X145874062Y-60515114D02*
X145802633Y-60657971D01*
X145802633Y-60657971D02*
X145802633Y-61015114D01*
X145802633Y-61015114D02*
X145874062Y-61157971D01*
X145874062Y-61157971D02*
X145945491Y-61229400D01*
X145945491Y-61229400D02*
X146088348Y-61300828D01*
X146088348Y-61300828D02*
X146445491Y-61300828D01*
X146445491Y-61300828D02*
X146588348Y-61229400D01*
X146588348Y-61229400D02*
X146659776Y-61157971D01*
D11*
%TO.C,D1*%
X164100000Y-70600000D03*
D12*
X166640000Y-70600000D03*
%TD*%
D11*
%TO.C,D2*%
X138500000Y-70300000D03*
D12*
X141040000Y-70300000D03*
%TD*%
D13*
%TO.C,Q2*%
X161060000Y-122418808D03*
D14*
X163600000Y-119878808D03*
X166140000Y-122418808D03*
%TD*%
D13*
%TO.C,Q1*%
X164320000Y-112300000D03*
D14*
X166860000Y-109760000D03*
X169400000Y-112300000D03*
%TD*%
D15*
%TO.C,C1*%
X149800000Y-112600000D03*
D16*
X152300000Y-112600000D03*
%TD*%
D17*
%TO.C,U2*%
X139600000Y-45800000D03*
X139600000Y-49356000D03*
X165494000Y-45800000D03*
X165494000Y-49356000D03*
D18*
X152554000Y-47832000D03*
%TD*%
D15*
%TO.C,D3*%
X147823900Y-92693500D03*
D19*
X155443900Y-92693500D03*
%TD*%
D16*
%TO.C,R5*%
X127340000Y-116050000D03*
X137500000Y-116050000D03*
%TD*%
%TO.C,R4*%
X127340000Y-120100000D03*
X137500000Y-120100000D03*
%TD*%
%TO.C,R6*%
X127340000Y-112000000D03*
X137500000Y-112000000D03*
%TD*%
%TO.C,R8*%
X127340000Y-103900000D03*
X137500000Y-103900000D03*
%TD*%
D20*
%TO.C,S1*%
X172800000Y-102000000D03*
X172800000Y-99460000D03*
X172800000Y-96920000D03*
%TD*%
D16*
%TO.C,R3*%
X127340000Y-124150000D03*
X137500000Y-124150000D03*
%TD*%
D21*
%TO.C,U1*%
X147833900Y-104133500D03*
D16*
X147833900Y-101593500D03*
X147833900Y-99053500D03*
X147833900Y-96513500D03*
X155453900Y-96513500D03*
X155453900Y-99053500D03*
X155453900Y-101593500D03*
X155453900Y-104133500D03*
%TD*%
%TO.C,R7*%
X127340000Y-107950000D03*
X137500000Y-107950000D03*
%TD*%
M02*
