%TF.GenerationSoftware,KiCad,Pcbnew,9.0.6*%
%TF.CreationDate,2025-12-30T06:04:06+01:00*%
%TF.ProjectId,Rocket,526f636b-6574-42e6-9b69-6361645f7063,rev?*%
%TF.SameCoordinates,Original*%
%TF.FileFunction,Copper,L1,Top*%
%TF.FilePolarity,Positive*%
%FSLAX46Y46*%
G04 Gerber Fmt 4.6, Leading zero omitted, Abs format (unit mm)*
G04 Created by KiCad (PCBNEW 9.0.6) date 2025-12-30 06:04:06*
%MOMM*%
%LPD*%
G01*
G04 APERTURE LIST*
G04 Aperture macros list*
%AMRoundRect*
0 Rectangle with rounded corners*
0 $1 Rounding radius*
0 $2 $3 $4 $5 $6 $7 $8 $9 X,Y pos of 4 corners*
0 Add a 4 corners polygon primitive as box body*
4,1,4,$2,$3,$4,$5,$6,$7,$8,$9,$2,$3,0*
0 Add four circle primitives for the rounded corners*
1,1,$1+$1,$2,$3*
1,1,$1+$1,$4,$5*
1,1,$1+$1,$6,$7*
1,1,$1+$1,$8,$9*
0 Add four rect primitives between the rounded corners*
20,1,$1+$1,$2,$3,$4,$5,0*
20,1,$1+$1,$4,$5,$6,$7,0*
20,1,$1+$1,$6,$7,$8,$9,0*
20,1,$1+$1,$8,$9,$2,$3,0*%
G04 Aperture macros list end*
%TA.AperFunction,ComponentPad*%
%ADD10R,1.800000X1.800000*%
%TD*%
%TA.AperFunction,ComponentPad*%
%ADD11C,1.800000*%
%TD*%
%TA.AperFunction,ComponentPad*%
%ADD12R,1.500000X1.500000*%
%TD*%
%TA.AperFunction,ComponentPad*%
%ADD13C,1.500000*%
%TD*%
%TA.AperFunction,ComponentPad*%
%ADD14R,1.600000X1.600000*%
%TD*%
%TA.AperFunction,ComponentPad*%
%ADD15C,1.600000*%
%TD*%
%TA.AperFunction,ComponentPad*%
%ADD16C,2.000000*%
%TD*%
%TA.AperFunction,ComponentPad*%
%ADD17O,1.600000X1.600000*%
%TD*%
%TA.AperFunction,ComponentPad*%
%ADD18RoundRect,0.250000X-0.550000X-0.550000X0.550000X-0.550000X0.550000X0.550000X-0.550000X0.550000X0*%
%TD*%
%TA.AperFunction,Conductor*%
%ADD19C,0.250000*%
%TD*%
G04 APERTURE END LIST*
D10*
%TO.P,D1,1,K*%
%TO.N,Net-(D1-K)*%
X162460000Y-78500000D03*
D11*
%TO.P,D1,2,A*%
%TO.N,Net-(D1-A)*%
X165000000Y-78500000D03*
%TD*%
D10*
%TO.P,D2,1,K*%
%TO.N,Net-(D1-K)*%
X138300000Y-79100000D03*
D11*
%TO.P,D2,2,A*%
%TO.N,Net-(D1-A)*%
X140840000Y-79100000D03*
%TD*%
D12*
%TO.P,Q1,1,E*%
%TO.N,Net-(D1-K)*%
X164120000Y-121100000D03*
D13*
%TO.P,Q1,2,B*%
%TO.N,Net-(Q1-B)*%
X166660000Y-118560000D03*
%TO.P,Q1,3,C*%
%TO.N,Net-(Q1-C)*%
X169200000Y-121100000D03*
%TD*%
D12*
%TO.P,Q2,1,E*%
%TO.N,Net-(D1-A)*%
X160860000Y-131218808D03*
D13*
%TO.P,Q2,2,B*%
%TO.N,Net-(Q1-C)*%
X163400000Y-128678808D03*
%TO.P,Q2,3,C*%
%TO.N,Net-(Q2-C)*%
X165940000Y-131218808D03*
%TD*%
D14*
%TO.P,C1,1*%
%TO.N,Net-(D3-K)*%
X149600000Y-121400000D03*
D15*
%TO.P,C1,2*%
%TO.N,Net-(D1-K)*%
X152100000Y-121400000D03*
%TD*%
D16*
%TO.P,S1,1,A*%
%TO.N,Net-(S1-A-Pad1)*%
X172600000Y-110800000D03*
%TO.P,S1,2,E*%
%TO.N,Net-(S1-E)*%
X172600000Y-108260000D03*
%TO.P,S1,3,A*%
%TO.N,unconnected-(S1-A-Pad3)*%
X172600000Y-105720000D03*
%TD*%
D14*
%TO.P,D3,1,K*%
%TO.N,Net-(D3-K)*%
X147623900Y-101493500D03*
D17*
%TO.P,D3,2,A*%
%TO.N,Net-(D3-A)*%
X155243900Y-101493500D03*
%TD*%
D15*
%TO.P,R6,1*%
%TO.N,Net-(S1-E)*%
X127140000Y-120800000D03*
%TO.P,R6,2*%
%TO.N,Net-(Q2-C)*%
X137300000Y-120800000D03*
%TD*%
%TO.P,R5,1*%
%TO.N,Net-(S1-E)*%
X127140000Y-124850000D03*
%TO.P,R5,2*%
%TO.N,Net-(Q1-C)*%
X137300000Y-124850000D03*
%TD*%
D18*
%TO.P,U1,1,GND*%
%TO.N,Net-(D1-K)*%
X147633900Y-112933500D03*
D15*
%TO.P,U1,2,TR*%
%TO.N,Net-(D3-K)*%
X147633900Y-110393500D03*
%TO.P,U1,3,Q*%
%TO.N,unconnected-(U1-Q-Pad3)*%
X147633900Y-107853500D03*
%TO.P,U1,4,R*%
%TO.N,Net-(S1-E)*%
X147633900Y-105313500D03*
%TO.P,U1,5,CV*%
%TO.N,unconnected-(U1-CV-Pad5)*%
X155253900Y-105313500D03*
%TO.P,U1,6,THR*%
%TO.N,Net-(D3-K)*%
X155253900Y-107853500D03*
%TO.P,U1,7,DIS*%
%TO.N,Net-(D3-A)*%
X155253900Y-110393500D03*
%TO.P,U1,8,VCC*%
%TO.N,Net-(S1-E)*%
X155253900Y-112933500D03*
%TD*%
%TO.P,R7,1*%
%TO.N,Net-(D3-K)*%
X127140000Y-116750000D03*
%TO.P,R7,2*%
%TO.N,Net-(D3-A)*%
X137300000Y-116750000D03*
%TD*%
%TO.P,R8,1*%
%TO.N,Net-(S1-E)*%
X127140000Y-112700000D03*
%TO.P,R8,2*%
%TO.N,Net-(D3-A)*%
X137300000Y-112700000D03*
%TD*%
%TO.P,R4,1*%
%TO.N,Net-(Q1-B)*%
X127140000Y-128900000D03*
%TO.P,R4,2*%
%TO.N,Net-(D1-K)*%
X137300000Y-128900000D03*
%TD*%
%TO.P,R3,1*%
%TO.N,Net-(D3-K)*%
X127140000Y-132950000D03*
%TO.P,R3,2*%
%TO.N,Net-(Q1-B)*%
X137300000Y-132950000D03*
%TD*%
D19*
%TO.N,Net-(D3-K)*%
X155253900Y-107853500D02*
X153853500Y-107853500D01*
X152817400Y-96300000D02*
X162300000Y-96300000D01*
X123300000Y-104300000D02*
X123300000Y-116300000D01*
X123750000Y-116750000D02*
X127140000Y-116750000D01*
X163800000Y-97800000D02*
X163800000Y-104300000D01*
X147633900Y-110393500D02*
X152713900Y-110393500D01*
X123800000Y-103800000D02*
X123300000Y-104300000D01*
X149800000Y-103800000D02*
X123800000Y-103800000D01*
X153853500Y-107853500D02*
X149800000Y-103800000D01*
X162300000Y-96300000D02*
X163800000Y-97800000D01*
X123300000Y-116300000D02*
X123750000Y-116750000D01*
X147623900Y-101493500D02*
X152817400Y-96300000D01*
X160246500Y-107853500D02*
X155253900Y-107853500D01*
X163800000Y-104300000D02*
X160246500Y-107853500D01*
X152713900Y-110393500D02*
X155253900Y-107853500D01*
%TO.N,Net-(D1-K)*%
X152100000Y-121400000D02*
X163820000Y-121400000D01*
X163820000Y-121400000D02*
X164120000Y-121100000D01*
%TO.N,Net-(S1-E)*%
X155253900Y-112933500D02*
X160166500Y-112933500D01*
X160166500Y-112933500D02*
X164840000Y-108260000D01*
X164840000Y-108260000D02*
X172600000Y-108260000D01*
%TO.N,Net-(Q2-C)*%
X165940000Y-132660000D02*
X165940000Y-131218808D01*
X137300000Y-120800000D02*
X140800000Y-120800000D01*
X163800000Y-134800000D02*
X165940000Y-132660000D01*
X140800000Y-120800000D02*
X154800000Y-134800000D01*
X154800000Y-134800000D02*
X163800000Y-134800000D01*
%TO.N,Net-(Q1-C)*%
X168300000Y-137300000D02*
X149800000Y-137300000D01*
X168300000Y-130300000D02*
X168300000Y-137300000D01*
X163400000Y-128678808D02*
X166678808Y-128678808D01*
X142800000Y-130300000D02*
X142800000Y-125800000D01*
X141850000Y-124850000D02*
X137300000Y-124850000D01*
X166678808Y-128678808D02*
X168300000Y-130300000D01*
X149800000Y-137300000D02*
X142800000Y-130300000D01*
X142800000Y-125800000D02*
X141850000Y-124850000D01*
%TO.N,Net-(D3-A)*%
X141300000Y-112700000D02*
X137300000Y-112700000D01*
X143900000Y-115300000D02*
X141300000Y-112700000D01*
X153706500Y-110393500D02*
X148800000Y-115300000D01*
X155253900Y-110393500D02*
X153706500Y-110393500D01*
X148800000Y-115300000D02*
X143900000Y-115300000D01*
X141400000Y-112700000D02*
X141300000Y-112700000D01*
%TD*%
M02*
