%TF.GenerationSoftware,KiCad,Pcbnew,9.0.6*%
%TF.CreationDate,2025-12-07T10:25:39+01:00*%
%TF.ProjectId,Rocket,526f636b-6574-42e6-9b69-6361645f7063,rev?*%
%TF.SameCoordinates,Original*%
%TF.FileFunction,Legend,Bot*%
%TF.FilePolarity,Positive*%
%FSLAX46Y46*%
G04 Gerber Fmt 4.6, Leading zero omitted, Abs format (unit mm)*
G04 Created by KiCad (PCBNEW 9.0.6) date 2025-12-07 10:25:39*
%MOMM*%
%LPD*%
G01*
G04 APERTURE LIST*
%ADD10C,0.150000*%
%ADD11C,0.050000*%
%ADD12C,0.120000*%
%ADD13C,0.010000*%
G04 APERTURE END LIST*
D10*
X144577506Y-144769819D02*
X144577506Y-145484104D01*
X144577506Y-145484104D02*
X144625125Y-145626961D01*
X144625125Y-145626961D02*
X144720363Y-145722200D01*
X144720363Y-145722200D02*
X144863220Y-145769819D01*
X144863220Y-145769819D02*
X144958458Y-145769819D01*
X143625125Y-145769819D02*
X144101315Y-145769819D01*
X144101315Y-145769819D02*
X144101315Y-144769819D01*
X142720363Y-145674580D02*
X142767982Y-145722200D01*
X142767982Y-145722200D02*
X142910839Y-145769819D01*
X142910839Y-145769819D02*
X143006077Y-145769819D01*
X143006077Y-145769819D02*
X143148934Y-145722200D01*
X143148934Y-145722200D02*
X143244172Y-145626961D01*
X143244172Y-145626961D02*
X143291791Y-145531723D01*
X143291791Y-145531723D02*
X143339410Y-145341247D01*
X143339410Y-145341247D02*
X143339410Y-145198390D01*
X143339410Y-145198390D02*
X143291791Y-145007914D01*
X143291791Y-145007914D02*
X143244172Y-144912676D01*
X143244172Y-144912676D02*
X143148934Y-144817438D01*
X143148934Y-144817438D02*
X143006077Y-144769819D01*
X143006077Y-144769819D02*
X142910839Y-144769819D01*
X142910839Y-144769819D02*
X142767982Y-144817438D01*
X142767982Y-144817438D02*
X142720363Y-144865057D01*
X142006077Y-144769819D02*
X142006077Y-145484104D01*
X142006077Y-145484104D02*
X142053696Y-145626961D01*
X142053696Y-145626961D02*
X142148934Y-145722200D01*
X142148934Y-145722200D02*
X142291791Y-145769819D01*
X142291791Y-145769819D02*
X142387029Y-145769819D01*
X141053696Y-145769819D02*
X141529886Y-145769819D01*
X141529886Y-145769819D02*
X141529886Y-144769819D01*
X140148934Y-145674580D02*
X140196553Y-145722200D01*
X140196553Y-145722200D02*
X140339410Y-145769819D01*
X140339410Y-145769819D02*
X140434648Y-145769819D01*
X140434648Y-145769819D02*
X140577505Y-145722200D01*
X140577505Y-145722200D02*
X140672743Y-145626961D01*
X140672743Y-145626961D02*
X140720362Y-145531723D01*
X140720362Y-145531723D02*
X140767981Y-145341247D01*
X140767981Y-145341247D02*
X140767981Y-145198390D01*
X140767981Y-145198390D02*
X140720362Y-145007914D01*
X140720362Y-145007914D02*
X140672743Y-144912676D01*
X140672743Y-144912676D02*
X140577505Y-144817438D01*
X140577505Y-144817438D02*
X140434648Y-144769819D01*
X140434648Y-144769819D02*
X140339410Y-144769819D01*
X140339410Y-144769819D02*
X140196553Y-144817438D01*
X140196553Y-144817438D02*
X140148934Y-144865057D01*
X139434648Y-144769819D02*
X139434648Y-145484104D01*
X139434648Y-145484104D02*
X139482267Y-145626961D01*
X139482267Y-145626961D02*
X139577505Y-145722200D01*
X139577505Y-145722200D02*
X139720362Y-145769819D01*
X139720362Y-145769819D02*
X139815600Y-145769819D01*
X138482267Y-145769819D02*
X138958457Y-145769819D01*
X138958457Y-145769819D02*
X138958457Y-144769819D01*
X137577505Y-145674580D02*
X137625124Y-145722200D01*
X137625124Y-145722200D02*
X137767981Y-145769819D01*
X137767981Y-145769819D02*
X137863219Y-145769819D01*
X137863219Y-145769819D02*
X138006076Y-145722200D01*
X138006076Y-145722200D02*
X138101314Y-145626961D01*
X138101314Y-145626961D02*
X138148933Y-145531723D01*
X138148933Y-145531723D02*
X138196552Y-145341247D01*
X138196552Y-145341247D02*
X138196552Y-145198390D01*
X138196552Y-145198390D02*
X138148933Y-145007914D01*
X138148933Y-145007914D02*
X138101314Y-144912676D01*
X138101314Y-144912676D02*
X138006076Y-144817438D01*
X138006076Y-144817438D02*
X137863219Y-144769819D01*
X137863219Y-144769819D02*
X137767981Y-144769819D01*
X137767981Y-144769819D02*
X137625124Y-144817438D01*
X137625124Y-144817438D02*
X137577505Y-144865057D01*
X136863219Y-144769819D02*
X136863219Y-145484104D01*
X136863219Y-145484104D02*
X136910838Y-145626961D01*
X136910838Y-145626961D02*
X137006076Y-145722200D01*
X137006076Y-145722200D02*
X137148933Y-145769819D01*
X137148933Y-145769819D02*
X137244171Y-145769819D01*
X135910838Y-145769819D02*
X136387028Y-145769819D01*
X136387028Y-145769819D02*
X136387028Y-144769819D01*
X135006076Y-145674580D02*
X135053695Y-145722200D01*
X135053695Y-145722200D02*
X135196552Y-145769819D01*
X135196552Y-145769819D02*
X135291790Y-145769819D01*
X135291790Y-145769819D02*
X135434647Y-145722200D01*
X135434647Y-145722200D02*
X135529885Y-145626961D01*
X135529885Y-145626961D02*
X135577504Y-145531723D01*
X135577504Y-145531723D02*
X135625123Y-145341247D01*
X135625123Y-145341247D02*
X135625123Y-145198390D01*
X135625123Y-145198390D02*
X135577504Y-145007914D01*
X135577504Y-145007914D02*
X135529885Y-144912676D01*
X135529885Y-144912676D02*
X135434647Y-144817438D01*
X135434647Y-144817438D02*
X135291790Y-144769819D01*
X135291790Y-144769819D02*
X135196552Y-144769819D01*
X135196552Y-144769819D02*
X135053695Y-144817438D01*
X135053695Y-144817438D02*
X135006076Y-144865057D01*
X171861904Y-79345180D02*
X171861904Y-80345180D01*
X171290476Y-79345180D02*
X171719047Y-79916609D01*
X171290476Y-80345180D02*
X171861904Y-79773752D01*
X152061904Y-80145180D02*
X152061904Y-81145180D01*
X151490476Y-80145180D02*
X151919047Y-80716609D01*
X151490476Y-81145180D02*
X152061904Y-80573752D01*
X152238281Y-120286811D02*
G75*
G02*
X156050000Y-120300000I1911719J1686811D01*
G01*
X152350000Y-120300000D02*
X156050000Y-120300000D01*
X152688281Y-112886811D02*
G75*
G02*
X156500000Y-112900000I1911719J1686811D01*
G01*
X152800000Y-112900000D02*
X156500000Y-112900000D01*
X150514285Y-111431009D02*
X150180952Y-111431009D01*
X150038095Y-111954819D02*
X150514285Y-111954819D01*
X150514285Y-111954819D02*
X150514285Y-110954819D01*
X150514285Y-110954819D02*
X150038095Y-110954819D01*
X149914285Y-118631009D02*
X149580952Y-118631009D01*
X149438095Y-119154819D02*
X149914285Y-119154819D01*
X149914285Y-119154819D02*
X149914285Y-118154819D01*
X149914285Y-118154819D02*
X149438095Y-118154819D01*
D11*
X160615714Y-54720019D02*
X160615714Y-55529542D01*
X160615714Y-55529542D02*
X160572857Y-55624780D01*
X160572857Y-55624780D02*
X160530000Y-55672400D01*
X160530000Y-55672400D02*
X160444285Y-55720019D01*
X160444285Y-55720019D02*
X160272857Y-55720019D01*
X160272857Y-55720019D02*
X160187142Y-55672400D01*
X160187142Y-55672400D02*
X160144285Y-55624780D01*
X160144285Y-55624780D02*
X160101428Y-55529542D01*
X160101428Y-55529542D02*
X160101428Y-54720019D01*
X159715714Y-54815257D02*
X159672857Y-54767638D01*
X159672857Y-54767638D02*
X159587143Y-54720019D01*
X159587143Y-54720019D02*
X159372857Y-54720019D01*
X159372857Y-54720019D02*
X159287143Y-54767638D01*
X159287143Y-54767638D02*
X159244285Y-54815257D01*
X159244285Y-54815257D02*
X159201428Y-54910495D01*
X159201428Y-54910495D02*
X159201428Y-55005733D01*
X159201428Y-55005733D02*
X159244285Y-55148590D01*
X159244285Y-55148590D02*
X159758571Y-55720019D01*
X159758571Y-55720019D02*
X159201428Y-55720019D01*
X159208570Y-59316209D02*
X159079998Y-59363828D01*
X159079998Y-59363828D02*
X159037141Y-59411447D01*
X159037141Y-59411447D02*
X158994284Y-59506685D01*
X158994284Y-59506685D02*
X158994284Y-59649542D01*
X158994284Y-59649542D02*
X159037141Y-59744780D01*
X159037141Y-59744780D02*
X159079998Y-59792400D01*
X159079998Y-59792400D02*
X159165713Y-59840019D01*
X159165713Y-59840019D02*
X159508570Y-59840019D01*
X159508570Y-59840019D02*
X159508570Y-58840019D01*
X159508570Y-58840019D02*
X159208570Y-58840019D01*
X159208570Y-58840019D02*
X159122856Y-58887638D01*
X159122856Y-58887638D02*
X159079998Y-58935257D01*
X159079998Y-58935257D02*
X159037141Y-59030495D01*
X159037141Y-59030495D02*
X159037141Y-59125733D01*
X159037141Y-59125733D02*
X159079998Y-59220971D01*
X159079998Y-59220971D02*
X159122856Y-59268590D01*
X159122856Y-59268590D02*
X159208570Y-59316209D01*
X159208570Y-59316209D02*
X159508570Y-59316209D01*
X158651427Y-59554304D02*
X158222856Y-59554304D01*
X158737141Y-59840019D02*
X158437141Y-58840019D01*
X158437141Y-58840019D02*
X158137141Y-59840019D01*
X157965712Y-58840019D02*
X157451427Y-58840019D01*
X157708569Y-59840019D02*
X157708569Y-58840019D01*
X157365713Y-59935257D02*
X156679998Y-59935257D01*
X156465713Y-59840019D02*
X156465713Y-58840019D01*
X156465713Y-59316209D02*
X155951427Y-59316209D01*
X155951427Y-59840019D02*
X155951427Y-58840019D01*
X155094284Y-59840019D02*
X155522856Y-59840019D01*
X155522856Y-59840019D02*
X155522856Y-58840019D01*
X154794285Y-59840019D02*
X154794285Y-58840019D01*
X154794285Y-58840019D02*
X154579999Y-58840019D01*
X154579999Y-58840019D02*
X154451428Y-58887638D01*
X154451428Y-58887638D02*
X154365713Y-58982876D01*
X154365713Y-58982876D02*
X154322856Y-59078114D01*
X154322856Y-59078114D02*
X154279999Y-59268590D01*
X154279999Y-59268590D02*
X154279999Y-59411447D01*
X154279999Y-59411447D02*
X154322856Y-59601923D01*
X154322856Y-59601923D02*
X154365713Y-59697161D01*
X154365713Y-59697161D02*
X154451428Y-59792400D01*
X154451428Y-59792400D02*
X154579999Y-59840019D01*
X154579999Y-59840019D02*
X154794285Y-59840019D01*
X154108571Y-59935257D02*
X153422856Y-59935257D01*
X153251428Y-59792400D02*
X153122857Y-59840019D01*
X153122857Y-59840019D02*
X152908571Y-59840019D01*
X152908571Y-59840019D02*
X152822857Y-59792400D01*
X152822857Y-59792400D02*
X152779999Y-59744780D01*
X152779999Y-59744780D02*
X152737142Y-59649542D01*
X152737142Y-59649542D02*
X152737142Y-59554304D01*
X152737142Y-59554304D02*
X152779999Y-59459066D01*
X152779999Y-59459066D02*
X152822857Y-59411447D01*
X152822857Y-59411447D02*
X152908571Y-59363828D01*
X152908571Y-59363828D02*
X153079999Y-59316209D01*
X153079999Y-59316209D02*
X153165714Y-59268590D01*
X153165714Y-59268590D02*
X153208571Y-59220971D01*
X153208571Y-59220971D02*
X153251428Y-59125733D01*
X153251428Y-59125733D02*
X153251428Y-59030495D01*
X153251428Y-59030495D02*
X153208571Y-58935257D01*
X153208571Y-58935257D02*
X153165714Y-58887638D01*
X153165714Y-58887638D02*
X153079999Y-58840019D01*
X153079999Y-58840019D02*
X152865714Y-58840019D01*
X152865714Y-58840019D02*
X152737142Y-58887638D01*
X152351428Y-59840019D02*
X152351428Y-58840019D01*
X152351428Y-58840019D02*
X152051428Y-59554304D01*
X152051428Y-59554304D02*
X151751428Y-58840019D01*
X151751428Y-58840019D02*
X151751428Y-59840019D01*
X151322857Y-59840019D02*
X151322857Y-58840019D01*
X151322857Y-58840019D02*
X151108571Y-58840019D01*
X151108571Y-58840019D02*
X150980000Y-58887638D01*
X150980000Y-58887638D02*
X150894285Y-58982876D01*
X150894285Y-58982876D02*
X150851428Y-59078114D01*
X150851428Y-59078114D02*
X150808571Y-59268590D01*
X150808571Y-59268590D02*
X150808571Y-59411447D01*
X150808571Y-59411447D02*
X150851428Y-59601923D01*
X150851428Y-59601923D02*
X150894285Y-59697161D01*
X150894285Y-59697161D02*
X150980000Y-59792400D01*
X150980000Y-59792400D02*
X151108571Y-59840019D01*
X151108571Y-59840019D02*
X151322857Y-59840019D01*
D10*
X141066666Y-127154819D02*
X141066666Y-126154819D01*
X141066666Y-126154819D02*
X140495238Y-127154819D01*
X140495238Y-127154819D02*
X140495238Y-126154819D01*
X140019047Y-126631009D02*
X139685714Y-126631009D01*
X139542857Y-127154819D02*
X140019047Y-127154819D01*
X140019047Y-127154819D02*
X140019047Y-126154819D01*
X140019047Y-126154819D02*
X139542857Y-126154819D01*
X138638095Y-126154819D02*
X139114285Y-126154819D01*
X139114285Y-126154819D02*
X139161904Y-126631009D01*
X139161904Y-126631009D02*
X139114285Y-126583390D01*
X139114285Y-126583390D02*
X139019047Y-126535771D01*
X139019047Y-126535771D02*
X138780952Y-126535771D01*
X138780952Y-126535771D02*
X138685714Y-126583390D01*
X138685714Y-126583390D02*
X138638095Y-126631009D01*
X138638095Y-126631009D02*
X138590476Y-126726247D01*
X138590476Y-126726247D02*
X138590476Y-126964342D01*
X138590476Y-126964342D02*
X138638095Y-127059580D01*
X138638095Y-127059580D02*
X138685714Y-127107200D01*
X138685714Y-127107200D02*
X138780952Y-127154819D01*
X138780952Y-127154819D02*
X139019047Y-127154819D01*
X139019047Y-127154819D02*
X139114285Y-127107200D01*
X139114285Y-127107200D02*
X139161904Y-127059580D01*
X137685714Y-126154819D02*
X138161904Y-126154819D01*
X138161904Y-126154819D02*
X138209523Y-126631009D01*
X138209523Y-126631009D02*
X138161904Y-126583390D01*
X138161904Y-126583390D02*
X138066666Y-126535771D01*
X138066666Y-126535771D02*
X137828571Y-126535771D01*
X137828571Y-126535771D02*
X137733333Y-126583390D01*
X137733333Y-126583390D02*
X137685714Y-126631009D01*
X137685714Y-126631009D02*
X137638095Y-126726247D01*
X137638095Y-126726247D02*
X137638095Y-126964342D01*
X137638095Y-126964342D02*
X137685714Y-127059580D01*
X137685714Y-127059580D02*
X137733333Y-127107200D01*
X137733333Y-127107200D02*
X137828571Y-127154819D01*
X137828571Y-127154819D02*
X138066666Y-127154819D01*
X138066666Y-127154819D02*
X138161904Y-127107200D01*
X138161904Y-127107200D02*
X138209523Y-127059580D01*
X136733333Y-126154819D02*
X137209523Y-126154819D01*
X137209523Y-126154819D02*
X137257142Y-126631009D01*
X137257142Y-126631009D02*
X137209523Y-126583390D01*
X137209523Y-126583390D02*
X137114285Y-126535771D01*
X137114285Y-126535771D02*
X136876190Y-126535771D01*
X136876190Y-126535771D02*
X136780952Y-126583390D01*
X136780952Y-126583390D02*
X136733333Y-126631009D01*
X136733333Y-126631009D02*
X136685714Y-126726247D01*
X136685714Y-126726247D02*
X136685714Y-126964342D01*
X136685714Y-126964342D02*
X136733333Y-127059580D01*
X136733333Y-127059580D02*
X136780952Y-127107200D01*
X136780952Y-127107200D02*
X136876190Y-127154819D01*
X136876190Y-127154819D02*
X137114285Y-127154819D01*
X137114285Y-127154819D02*
X137209523Y-127107200D01*
X137209523Y-127107200D02*
X137257142Y-127059580D01*
X136257142Y-127154819D02*
X136257142Y-126154819D01*
X136257142Y-126154819D02*
X135876190Y-126154819D01*
X135876190Y-126154819D02*
X135780952Y-126202438D01*
X135780952Y-126202438D02*
X135733333Y-126250057D01*
X135733333Y-126250057D02*
X135685714Y-126345295D01*
X135685714Y-126345295D02*
X135685714Y-126488152D01*
X135685714Y-126488152D02*
X135733333Y-126583390D01*
X135733333Y-126583390D02*
X135780952Y-126631009D01*
X135780952Y-126631009D02*
X135876190Y-126678628D01*
X135876190Y-126678628D02*
X136257142Y-126678628D01*
X158761904Y-131907200D02*
X158619047Y-131954819D01*
X158619047Y-131954819D02*
X158380952Y-131954819D01*
X158380952Y-131954819D02*
X158285714Y-131907200D01*
X158285714Y-131907200D02*
X158238095Y-131859580D01*
X158238095Y-131859580D02*
X158190476Y-131764342D01*
X158190476Y-131764342D02*
X158190476Y-131669104D01*
X158190476Y-131669104D02*
X158238095Y-131573866D01*
X158238095Y-131573866D02*
X158285714Y-131526247D01*
X158285714Y-131526247D02*
X158380952Y-131478628D01*
X158380952Y-131478628D02*
X158571428Y-131431009D01*
X158571428Y-131431009D02*
X158666666Y-131383390D01*
X158666666Y-131383390D02*
X158714285Y-131335771D01*
X158714285Y-131335771D02*
X158761904Y-131240533D01*
X158761904Y-131240533D02*
X158761904Y-131145295D01*
X158761904Y-131145295D02*
X158714285Y-131050057D01*
X158714285Y-131050057D02*
X158666666Y-131002438D01*
X158666666Y-131002438D02*
X158571428Y-130954819D01*
X158571428Y-130954819D02*
X158333333Y-130954819D01*
X158333333Y-130954819D02*
X158190476Y-131002438D01*
X157238095Y-131954819D02*
X157809523Y-131954819D01*
X157523809Y-131954819D02*
X157523809Y-130954819D01*
X157523809Y-130954819D02*
X157619047Y-131097676D01*
X157619047Y-131097676D02*
X157714285Y-131192914D01*
X157714285Y-131192914D02*
X157809523Y-131240533D01*
X117966666Y-119354819D02*
X118299999Y-118878628D01*
X118538094Y-119354819D02*
X118538094Y-118354819D01*
X118538094Y-118354819D02*
X118157142Y-118354819D01*
X118157142Y-118354819D02*
X118061904Y-118402438D01*
X118061904Y-118402438D02*
X118014285Y-118450057D01*
X118014285Y-118450057D02*
X117966666Y-118545295D01*
X117966666Y-118545295D02*
X117966666Y-118688152D01*
X117966666Y-118688152D02*
X118014285Y-118783390D01*
X118014285Y-118783390D02*
X118061904Y-118831009D01*
X118061904Y-118831009D02*
X118157142Y-118878628D01*
X118157142Y-118878628D02*
X118538094Y-118878628D01*
X117633332Y-118354819D02*
X116966666Y-118354819D01*
X116966666Y-118354819D02*
X117395237Y-119354819D01*
X126890476Y-119334819D02*
X127461904Y-119334819D01*
X127176190Y-119334819D02*
X127176190Y-118334819D01*
X127176190Y-118334819D02*
X127271428Y-118477676D01*
X127271428Y-118477676D02*
X127366666Y-118572914D01*
X127366666Y-118572914D02*
X127461904Y-118620533D01*
X126033333Y-118334819D02*
X126223809Y-118334819D01*
X126223809Y-118334819D02*
X126319047Y-118382438D01*
X126319047Y-118382438D02*
X126366666Y-118430057D01*
X126366666Y-118430057D02*
X126461904Y-118572914D01*
X126461904Y-118572914D02*
X126509523Y-118763390D01*
X126509523Y-118763390D02*
X126509523Y-119144342D01*
X126509523Y-119144342D02*
X126461904Y-119239580D01*
X126461904Y-119239580D02*
X126414285Y-119287200D01*
X126414285Y-119287200D02*
X126319047Y-119334819D01*
X126319047Y-119334819D02*
X126128571Y-119334819D01*
X126128571Y-119334819D02*
X126033333Y-119287200D01*
X126033333Y-119287200D02*
X125985714Y-119239580D01*
X125985714Y-119239580D02*
X125938095Y-119144342D01*
X125938095Y-119144342D02*
X125938095Y-118906247D01*
X125938095Y-118906247D02*
X125985714Y-118811009D01*
X125985714Y-118811009D02*
X126033333Y-118763390D01*
X126033333Y-118763390D02*
X126128571Y-118715771D01*
X126128571Y-118715771D02*
X126319047Y-118715771D01*
X126319047Y-118715771D02*
X126414285Y-118763390D01*
X126414285Y-118763390D02*
X126461904Y-118811009D01*
X126461904Y-118811009D02*
X126509523Y-118906247D01*
X125509523Y-119334819D02*
X125509523Y-118334819D01*
X124938095Y-119334819D02*
X125366666Y-118763390D01*
X124938095Y-118334819D02*
X125509523Y-118906247D01*
X117966666Y-123454819D02*
X118299999Y-122978628D01*
X118538094Y-123454819D02*
X118538094Y-122454819D01*
X118538094Y-122454819D02*
X118157142Y-122454819D01*
X118157142Y-122454819D02*
X118061904Y-122502438D01*
X118061904Y-122502438D02*
X118014285Y-122550057D01*
X118014285Y-122550057D02*
X117966666Y-122645295D01*
X117966666Y-122645295D02*
X117966666Y-122788152D01*
X117966666Y-122788152D02*
X118014285Y-122883390D01*
X118014285Y-122883390D02*
X118061904Y-122931009D01*
X118061904Y-122931009D02*
X118157142Y-122978628D01*
X118157142Y-122978628D02*
X118538094Y-122978628D01*
X117109523Y-122454819D02*
X117299999Y-122454819D01*
X117299999Y-122454819D02*
X117395237Y-122502438D01*
X117395237Y-122502438D02*
X117442856Y-122550057D01*
X117442856Y-122550057D02*
X117538094Y-122692914D01*
X117538094Y-122692914D02*
X117585713Y-122883390D01*
X117585713Y-122883390D02*
X117585713Y-123264342D01*
X117585713Y-123264342D02*
X117538094Y-123359580D01*
X117538094Y-123359580D02*
X117490475Y-123407200D01*
X117490475Y-123407200D02*
X117395237Y-123454819D01*
X117395237Y-123454819D02*
X117204761Y-123454819D01*
X117204761Y-123454819D02*
X117109523Y-123407200D01*
X117109523Y-123407200D02*
X117061904Y-123359580D01*
X117061904Y-123359580D02*
X117014285Y-123264342D01*
X117014285Y-123264342D02*
X117014285Y-123026247D01*
X117014285Y-123026247D02*
X117061904Y-122931009D01*
X117061904Y-122931009D02*
X117109523Y-122883390D01*
X117109523Y-122883390D02*
X117204761Y-122835771D01*
X117204761Y-122835771D02*
X117395237Y-122835771D01*
X117395237Y-122835771D02*
X117490475Y-122883390D01*
X117490475Y-122883390D02*
X117538094Y-122931009D01*
X117538094Y-122931009D02*
X117585713Y-123026247D01*
X126890476Y-123314819D02*
X127461904Y-123314819D01*
X127176190Y-123314819D02*
X127176190Y-122314819D01*
X127176190Y-122314819D02*
X127271428Y-122457676D01*
X127271428Y-122457676D02*
X127366666Y-122552914D01*
X127366666Y-122552914D02*
X127461904Y-122600533D01*
X126271428Y-122314819D02*
X126176190Y-122314819D01*
X126176190Y-122314819D02*
X126080952Y-122362438D01*
X126080952Y-122362438D02*
X126033333Y-122410057D01*
X126033333Y-122410057D02*
X125985714Y-122505295D01*
X125985714Y-122505295D02*
X125938095Y-122695771D01*
X125938095Y-122695771D02*
X125938095Y-122933866D01*
X125938095Y-122933866D02*
X125985714Y-123124342D01*
X125985714Y-123124342D02*
X126033333Y-123219580D01*
X126033333Y-123219580D02*
X126080952Y-123267200D01*
X126080952Y-123267200D02*
X126176190Y-123314819D01*
X126176190Y-123314819D02*
X126271428Y-123314819D01*
X126271428Y-123314819D02*
X126366666Y-123267200D01*
X126366666Y-123267200D02*
X126414285Y-123219580D01*
X126414285Y-123219580D02*
X126461904Y-123124342D01*
X126461904Y-123124342D02*
X126509523Y-122933866D01*
X126509523Y-122933866D02*
X126509523Y-122695771D01*
X126509523Y-122695771D02*
X126461904Y-122505295D01*
X126461904Y-122505295D02*
X126414285Y-122410057D01*
X126414285Y-122410057D02*
X126366666Y-122362438D01*
X126366666Y-122362438D02*
X126271428Y-122314819D01*
X124938095Y-123314819D02*
X125271428Y-122838628D01*
X125509523Y-123314819D02*
X125509523Y-122314819D01*
X125509523Y-122314819D02*
X125128571Y-122314819D01*
X125128571Y-122314819D02*
X125033333Y-122362438D01*
X125033333Y-122362438D02*
X124985714Y-122410057D01*
X124985714Y-122410057D02*
X124938095Y-122505295D01*
X124938095Y-122505295D02*
X124938095Y-122648152D01*
X124938095Y-122648152D02*
X124985714Y-122743390D01*
X124985714Y-122743390D02*
X125033333Y-122791009D01*
X125033333Y-122791009D02*
X125128571Y-122838628D01*
X125128571Y-122838628D02*
X125509523Y-122838628D01*
X117966666Y-127454819D02*
X118299999Y-126978628D01*
X118538094Y-127454819D02*
X118538094Y-126454819D01*
X118538094Y-126454819D02*
X118157142Y-126454819D01*
X118157142Y-126454819D02*
X118061904Y-126502438D01*
X118061904Y-126502438D02*
X118014285Y-126550057D01*
X118014285Y-126550057D02*
X117966666Y-126645295D01*
X117966666Y-126645295D02*
X117966666Y-126788152D01*
X117966666Y-126788152D02*
X118014285Y-126883390D01*
X118014285Y-126883390D02*
X118061904Y-126931009D01*
X118061904Y-126931009D02*
X118157142Y-126978628D01*
X118157142Y-126978628D02*
X118538094Y-126978628D01*
X117061904Y-126454819D02*
X117538094Y-126454819D01*
X117538094Y-126454819D02*
X117585713Y-126931009D01*
X117585713Y-126931009D02*
X117538094Y-126883390D01*
X117538094Y-126883390D02*
X117442856Y-126835771D01*
X117442856Y-126835771D02*
X117204761Y-126835771D01*
X117204761Y-126835771D02*
X117109523Y-126883390D01*
X117109523Y-126883390D02*
X117061904Y-126931009D01*
X117061904Y-126931009D02*
X117014285Y-127026247D01*
X117014285Y-127026247D02*
X117014285Y-127264342D01*
X117014285Y-127264342D02*
X117061904Y-127359580D01*
X117061904Y-127359580D02*
X117109523Y-127407200D01*
X117109523Y-127407200D02*
X117204761Y-127454819D01*
X117204761Y-127454819D02*
X117442856Y-127454819D01*
X117442856Y-127454819D02*
X117538094Y-127407200D01*
X117538094Y-127407200D02*
X117585713Y-127359580D01*
X126795238Y-126628152D02*
X126795238Y-127294819D01*
X127033333Y-126247200D02*
X127271428Y-126961485D01*
X127271428Y-126961485D02*
X126652381Y-126961485D01*
X126271428Y-127294819D02*
X126271428Y-126294819D01*
X126176190Y-126913866D02*
X125890476Y-127294819D01*
X125890476Y-126628152D02*
X126271428Y-127009104D01*
X125557142Y-126294819D02*
X124890476Y-126294819D01*
X124890476Y-126294819D02*
X125319047Y-127294819D01*
X118066666Y-131354819D02*
X118399999Y-130878628D01*
X118638094Y-131354819D02*
X118638094Y-130354819D01*
X118638094Y-130354819D02*
X118257142Y-130354819D01*
X118257142Y-130354819D02*
X118161904Y-130402438D01*
X118161904Y-130402438D02*
X118114285Y-130450057D01*
X118114285Y-130450057D02*
X118066666Y-130545295D01*
X118066666Y-130545295D02*
X118066666Y-130688152D01*
X118066666Y-130688152D02*
X118114285Y-130783390D01*
X118114285Y-130783390D02*
X118161904Y-130831009D01*
X118161904Y-130831009D02*
X118257142Y-130878628D01*
X118257142Y-130878628D02*
X118638094Y-130878628D01*
X117209523Y-130688152D02*
X117209523Y-131354819D01*
X117447618Y-130307200D02*
X117685713Y-131021485D01*
X117685713Y-131021485D02*
X117066666Y-131021485D01*
X128271427Y-130274819D02*
X127652380Y-130274819D01*
X127652380Y-130274819D02*
X127985713Y-130655771D01*
X127985713Y-130655771D02*
X127842856Y-130655771D01*
X127842856Y-130655771D02*
X127747618Y-130703390D01*
X127747618Y-130703390D02*
X127699999Y-130751009D01*
X127699999Y-130751009D02*
X127652380Y-130846247D01*
X127652380Y-130846247D02*
X127652380Y-131084342D01*
X127652380Y-131084342D02*
X127699999Y-131179580D01*
X127699999Y-131179580D02*
X127747618Y-131227200D01*
X127747618Y-131227200D02*
X127842856Y-131274819D01*
X127842856Y-131274819D02*
X128128570Y-131274819D01*
X128128570Y-131274819D02*
X128223808Y-131227200D01*
X128223808Y-131227200D02*
X128271427Y-131179580D01*
X127176189Y-131274819D02*
X126985713Y-131274819D01*
X126985713Y-131274819D02*
X126890475Y-131227200D01*
X126890475Y-131227200D02*
X126842856Y-131179580D01*
X126842856Y-131179580D02*
X126747618Y-131036723D01*
X126747618Y-131036723D02*
X126699999Y-130846247D01*
X126699999Y-130846247D02*
X126699999Y-130465295D01*
X126699999Y-130465295D02*
X126747618Y-130370057D01*
X126747618Y-130370057D02*
X126795237Y-130322438D01*
X126795237Y-130322438D02*
X126890475Y-130274819D01*
X126890475Y-130274819D02*
X127080951Y-130274819D01*
X127080951Y-130274819D02*
X127176189Y-130322438D01*
X127176189Y-130322438D02*
X127223808Y-130370057D01*
X127223808Y-130370057D02*
X127271427Y-130465295D01*
X127271427Y-130465295D02*
X127271427Y-130703390D01*
X127271427Y-130703390D02*
X127223808Y-130798628D01*
X127223808Y-130798628D02*
X127176189Y-130846247D01*
X127176189Y-130846247D02*
X127080951Y-130893866D01*
X127080951Y-130893866D02*
X126890475Y-130893866D01*
X126890475Y-130893866D02*
X126795237Y-130846247D01*
X126795237Y-130846247D02*
X126747618Y-130798628D01*
X126747618Y-130798628D02*
X126699999Y-130703390D01*
X126080951Y-130274819D02*
X125985713Y-130274819D01*
X125985713Y-130274819D02*
X125890475Y-130322438D01*
X125890475Y-130322438D02*
X125842856Y-130370057D01*
X125842856Y-130370057D02*
X125795237Y-130465295D01*
X125795237Y-130465295D02*
X125747618Y-130655771D01*
X125747618Y-130655771D02*
X125747618Y-130893866D01*
X125747618Y-130893866D02*
X125795237Y-131084342D01*
X125795237Y-131084342D02*
X125842856Y-131179580D01*
X125842856Y-131179580D02*
X125890475Y-131227200D01*
X125890475Y-131227200D02*
X125985713Y-131274819D01*
X125985713Y-131274819D02*
X126080951Y-131274819D01*
X126080951Y-131274819D02*
X126176189Y-131227200D01*
X126176189Y-131227200D02*
X126223808Y-131179580D01*
X126223808Y-131179580D02*
X126271427Y-131084342D01*
X126271427Y-131084342D02*
X126319046Y-130893866D01*
X126319046Y-130893866D02*
X126319046Y-130655771D01*
X126319046Y-130655771D02*
X126271427Y-130465295D01*
X126271427Y-130465295D02*
X126223808Y-130370057D01*
X126223808Y-130370057D02*
X126176189Y-130322438D01*
X126176189Y-130322438D02*
X126080951Y-130274819D01*
X125319046Y-131274819D02*
X125319046Y-130274819D01*
X125223808Y-130893866D02*
X124938094Y-131274819D01*
X124938094Y-130608152D02*
X125319046Y-130989104D01*
X118066666Y-135454819D02*
X118399999Y-134978628D01*
X118638094Y-135454819D02*
X118638094Y-134454819D01*
X118638094Y-134454819D02*
X118257142Y-134454819D01*
X118257142Y-134454819D02*
X118161904Y-134502438D01*
X118161904Y-134502438D02*
X118114285Y-134550057D01*
X118114285Y-134550057D02*
X118066666Y-134645295D01*
X118066666Y-134645295D02*
X118066666Y-134788152D01*
X118066666Y-134788152D02*
X118114285Y-134883390D01*
X118114285Y-134883390D02*
X118161904Y-134931009D01*
X118161904Y-134931009D02*
X118257142Y-134978628D01*
X118257142Y-134978628D02*
X118638094Y-134978628D01*
X117733332Y-134454819D02*
X117114285Y-134454819D01*
X117114285Y-134454819D02*
X117447618Y-134835771D01*
X117447618Y-134835771D02*
X117304761Y-134835771D01*
X117304761Y-134835771D02*
X117209523Y-134883390D01*
X117209523Y-134883390D02*
X117161904Y-134931009D01*
X117161904Y-134931009D02*
X117114285Y-135026247D01*
X117114285Y-135026247D02*
X117114285Y-135264342D01*
X117114285Y-135264342D02*
X117161904Y-135359580D01*
X117161904Y-135359580D02*
X117209523Y-135407200D01*
X117209523Y-135407200D02*
X117304761Y-135454819D01*
X117304761Y-135454819D02*
X117590475Y-135454819D01*
X117590475Y-135454819D02*
X117685713Y-135407200D01*
X117685713Y-135407200D02*
X117733332Y-135359580D01*
X127699999Y-134254819D02*
X128176189Y-134254819D01*
X128176189Y-134254819D02*
X128223808Y-134731009D01*
X128223808Y-134731009D02*
X128176189Y-134683390D01*
X128176189Y-134683390D02*
X128080951Y-134635771D01*
X128080951Y-134635771D02*
X127842856Y-134635771D01*
X127842856Y-134635771D02*
X127747618Y-134683390D01*
X127747618Y-134683390D02*
X127699999Y-134731009D01*
X127699999Y-134731009D02*
X127652380Y-134826247D01*
X127652380Y-134826247D02*
X127652380Y-135064342D01*
X127652380Y-135064342D02*
X127699999Y-135159580D01*
X127699999Y-135159580D02*
X127747618Y-135207200D01*
X127747618Y-135207200D02*
X127842856Y-135254819D01*
X127842856Y-135254819D02*
X128080951Y-135254819D01*
X128080951Y-135254819D02*
X128176189Y-135207200D01*
X128176189Y-135207200D02*
X128223808Y-135159580D01*
X126795237Y-134254819D02*
X126985713Y-134254819D01*
X126985713Y-134254819D02*
X127080951Y-134302438D01*
X127080951Y-134302438D02*
X127128570Y-134350057D01*
X127128570Y-134350057D02*
X127223808Y-134492914D01*
X127223808Y-134492914D02*
X127271427Y-134683390D01*
X127271427Y-134683390D02*
X127271427Y-135064342D01*
X127271427Y-135064342D02*
X127223808Y-135159580D01*
X127223808Y-135159580D02*
X127176189Y-135207200D01*
X127176189Y-135207200D02*
X127080951Y-135254819D01*
X127080951Y-135254819D02*
X126890475Y-135254819D01*
X126890475Y-135254819D02*
X126795237Y-135207200D01*
X126795237Y-135207200D02*
X126747618Y-135159580D01*
X126747618Y-135159580D02*
X126699999Y-135064342D01*
X126699999Y-135064342D02*
X126699999Y-134826247D01*
X126699999Y-134826247D02*
X126747618Y-134731009D01*
X126747618Y-134731009D02*
X126795237Y-134683390D01*
X126795237Y-134683390D02*
X126890475Y-134635771D01*
X126890475Y-134635771D02*
X127080951Y-134635771D01*
X127080951Y-134635771D02*
X127176189Y-134683390D01*
X127176189Y-134683390D02*
X127223808Y-134731009D01*
X127223808Y-134731009D02*
X127271427Y-134826247D01*
X126080951Y-134254819D02*
X125985713Y-134254819D01*
X125985713Y-134254819D02*
X125890475Y-134302438D01*
X125890475Y-134302438D02*
X125842856Y-134350057D01*
X125842856Y-134350057D02*
X125795237Y-134445295D01*
X125795237Y-134445295D02*
X125747618Y-134635771D01*
X125747618Y-134635771D02*
X125747618Y-134873866D01*
X125747618Y-134873866D02*
X125795237Y-135064342D01*
X125795237Y-135064342D02*
X125842856Y-135159580D01*
X125842856Y-135159580D02*
X125890475Y-135207200D01*
X125890475Y-135207200D02*
X125985713Y-135254819D01*
X125985713Y-135254819D02*
X126080951Y-135254819D01*
X126080951Y-135254819D02*
X126176189Y-135207200D01*
X126176189Y-135207200D02*
X126223808Y-135159580D01*
X126223808Y-135159580D02*
X126271427Y-135064342D01*
X126271427Y-135064342D02*
X126319046Y-134873866D01*
X126319046Y-134873866D02*
X126319046Y-134635771D01*
X126319046Y-134635771D02*
X126271427Y-134445295D01*
X126271427Y-134445295D02*
X126223808Y-134350057D01*
X126223808Y-134350057D02*
X126176189Y-134302438D01*
X126176189Y-134302438D02*
X126080951Y-134254819D01*
X125319046Y-135254819D02*
X125319046Y-134254819D01*
X125223808Y-134873866D02*
X124938094Y-135254819D01*
X124938094Y-134588152D02*
X125319046Y-134969104D01*
X126890476Y-115354819D02*
X127461904Y-115354819D01*
X127176190Y-115354819D02*
X127176190Y-114354819D01*
X127176190Y-114354819D02*
X127271428Y-114497676D01*
X127271428Y-114497676D02*
X127366666Y-114592914D01*
X127366666Y-114592914D02*
X127461904Y-114640533D01*
X126509523Y-114450057D02*
X126461904Y-114402438D01*
X126461904Y-114402438D02*
X126366666Y-114354819D01*
X126366666Y-114354819D02*
X126128571Y-114354819D01*
X126128571Y-114354819D02*
X126033333Y-114402438D01*
X126033333Y-114402438D02*
X125985714Y-114450057D01*
X125985714Y-114450057D02*
X125938095Y-114545295D01*
X125938095Y-114545295D02*
X125938095Y-114640533D01*
X125938095Y-114640533D02*
X125985714Y-114783390D01*
X125985714Y-114783390D02*
X126557142Y-115354819D01*
X126557142Y-115354819D02*
X125938095Y-115354819D01*
X125509523Y-115354819D02*
X125509523Y-114354819D01*
X124938095Y-115354819D02*
X125366666Y-114783390D01*
X124938095Y-114354819D02*
X125509523Y-114926247D01*
X117966666Y-115254819D02*
X118299999Y-114778628D01*
X118538094Y-115254819D02*
X118538094Y-114254819D01*
X118538094Y-114254819D02*
X118157142Y-114254819D01*
X118157142Y-114254819D02*
X118061904Y-114302438D01*
X118061904Y-114302438D02*
X118014285Y-114350057D01*
X118014285Y-114350057D02*
X117966666Y-114445295D01*
X117966666Y-114445295D02*
X117966666Y-114588152D01*
X117966666Y-114588152D02*
X118014285Y-114683390D01*
X118014285Y-114683390D02*
X118061904Y-114731009D01*
X118061904Y-114731009D02*
X118157142Y-114778628D01*
X118157142Y-114778628D02*
X118538094Y-114778628D01*
X117395237Y-114683390D02*
X117490475Y-114635771D01*
X117490475Y-114635771D02*
X117538094Y-114588152D01*
X117538094Y-114588152D02*
X117585713Y-114492914D01*
X117585713Y-114492914D02*
X117585713Y-114445295D01*
X117585713Y-114445295D02*
X117538094Y-114350057D01*
X117538094Y-114350057D02*
X117490475Y-114302438D01*
X117490475Y-114302438D02*
X117395237Y-114254819D01*
X117395237Y-114254819D02*
X117204761Y-114254819D01*
X117204761Y-114254819D02*
X117109523Y-114302438D01*
X117109523Y-114302438D02*
X117061904Y-114350057D01*
X117061904Y-114350057D02*
X117014285Y-114445295D01*
X117014285Y-114445295D02*
X117014285Y-114492914D01*
X117014285Y-114492914D02*
X117061904Y-114588152D01*
X117061904Y-114588152D02*
X117109523Y-114635771D01*
X117109523Y-114635771D02*
X117204761Y-114683390D01*
X117204761Y-114683390D02*
X117395237Y-114683390D01*
X117395237Y-114683390D02*
X117490475Y-114731009D01*
X117490475Y-114731009D02*
X117538094Y-114778628D01*
X117538094Y-114778628D02*
X117585713Y-114873866D01*
X117585713Y-114873866D02*
X117585713Y-115064342D01*
X117585713Y-115064342D02*
X117538094Y-115159580D01*
X117538094Y-115159580D02*
X117490475Y-115207200D01*
X117490475Y-115207200D02*
X117395237Y-115254819D01*
X117395237Y-115254819D02*
X117204761Y-115254819D01*
X117204761Y-115254819D02*
X117109523Y-115207200D01*
X117109523Y-115207200D02*
X117061904Y-115159580D01*
X117061904Y-115159580D02*
X117014285Y-115064342D01*
X117014285Y-115064342D02*
X117014285Y-114873866D01*
X117014285Y-114873866D02*
X117061904Y-114778628D01*
X117061904Y-114778628D02*
X117109523Y-114731009D01*
X117109523Y-114731009D02*
X117204761Y-114683390D01*
X160061904Y-118254819D02*
X159490476Y-118254819D01*
X159776190Y-119254819D02*
X159776190Y-118254819D01*
X159204761Y-118350057D02*
X159157142Y-118302438D01*
X159157142Y-118302438D02*
X159061904Y-118254819D01*
X159061904Y-118254819D02*
X158823809Y-118254819D01*
X158823809Y-118254819D02*
X158728571Y-118302438D01*
X158728571Y-118302438D02*
X158680952Y-118350057D01*
X158680952Y-118350057D02*
X158633333Y-118445295D01*
X158633333Y-118445295D02*
X158633333Y-118540533D01*
X158633333Y-118540533D02*
X158680952Y-118683390D01*
X158680952Y-118683390D02*
X159252380Y-119254819D01*
X159252380Y-119254819D02*
X158633333Y-119254819D01*
X140342857Y-110734819D02*
X140914285Y-110734819D01*
X140628571Y-110734819D02*
X140628571Y-109734819D01*
X140628571Y-109734819D02*
X140723809Y-109877676D01*
X140723809Y-109877676D02*
X140819047Y-109972914D01*
X140819047Y-109972914D02*
X140914285Y-110020533D01*
X139914285Y-110734819D02*
X139914285Y-109734819D01*
X139914285Y-109734819D02*
X139342857Y-110734819D01*
X139342857Y-110734819D02*
X139342857Y-109734819D01*
X138438095Y-110068152D02*
X138438095Y-110734819D01*
X138676190Y-109687200D02*
X138914285Y-110401485D01*
X138914285Y-110401485D02*
X138295238Y-110401485D01*
X137390476Y-110734819D02*
X137961904Y-110734819D01*
X137676190Y-110734819D02*
X137676190Y-109734819D01*
X137676190Y-109734819D02*
X137771428Y-109877676D01*
X137771428Y-109877676D02*
X137866666Y-109972914D01*
X137866666Y-109972914D02*
X137961904Y-110020533D01*
X136533333Y-110068152D02*
X136533333Y-110734819D01*
X136771428Y-109687200D02*
X137009523Y-110401485D01*
X137009523Y-110401485D02*
X136390476Y-110401485D01*
X135866666Y-110163390D02*
X135961904Y-110115771D01*
X135961904Y-110115771D02*
X136009523Y-110068152D01*
X136009523Y-110068152D02*
X136057142Y-109972914D01*
X136057142Y-109972914D02*
X136057142Y-109925295D01*
X136057142Y-109925295D02*
X136009523Y-109830057D01*
X136009523Y-109830057D02*
X135961904Y-109782438D01*
X135961904Y-109782438D02*
X135866666Y-109734819D01*
X135866666Y-109734819D02*
X135676190Y-109734819D01*
X135676190Y-109734819D02*
X135580952Y-109782438D01*
X135580952Y-109782438D02*
X135533333Y-109830057D01*
X135533333Y-109830057D02*
X135485714Y-109925295D01*
X135485714Y-109925295D02*
X135485714Y-109972914D01*
X135485714Y-109972914D02*
X135533333Y-110068152D01*
X135533333Y-110068152D02*
X135580952Y-110115771D01*
X135580952Y-110115771D02*
X135676190Y-110163390D01*
X135676190Y-110163390D02*
X135866666Y-110163390D01*
X135866666Y-110163390D02*
X135961904Y-110211009D01*
X135961904Y-110211009D02*
X136009523Y-110258628D01*
X136009523Y-110258628D02*
X136057142Y-110353866D01*
X136057142Y-110353866D02*
X136057142Y-110544342D01*
X136057142Y-110544342D02*
X136009523Y-110639580D01*
X136009523Y-110639580D02*
X135961904Y-110687200D01*
X135961904Y-110687200D02*
X135866666Y-110734819D01*
X135866666Y-110734819D02*
X135676190Y-110734819D01*
X135676190Y-110734819D02*
X135580952Y-110687200D01*
X135580952Y-110687200D02*
X135533333Y-110639580D01*
X135533333Y-110639580D02*
X135485714Y-110544342D01*
X135485714Y-110544342D02*
X135485714Y-110353866D01*
X135485714Y-110353866D02*
X135533333Y-110258628D01*
X135533333Y-110258628D02*
X135580952Y-110211009D01*
X135580952Y-110211009D02*
X135676190Y-110163390D01*
X132261904Y-112854819D02*
X132261904Y-111854819D01*
X131690476Y-112854819D02*
X132119047Y-112283390D01*
X131690476Y-111854819D02*
X132261904Y-112426247D01*
X167116666Y-126188152D02*
X167116666Y-126854819D01*
X167354761Y-125807200D02*
X167592856Y-126521485D01*
X167592856Y-126521485D02*
X166973809Y-126521485D01*
X166688094Y-125854819D02*
X166021428Y-125854819D01*
X166021428Y-125854819D02*
X166449999Y-126854819D01*
X165211904Y-126188152D02*
X165211904Y-126854819D01*
X165640475Y-126188152D02*
X165640475Y-126711961D01*
X165640475Y-126711961D02*
X165592856Y-126807200D01*
X165592856Y-126807200D02*
X165497618Y-126854819D01*
X165497618Y-126854819D02*
X165354761Y-126854819D01*
X165354761Y-126854819D02*
X165259523Y-126807200D01*
X165259523Y-126807200D02*
X165211904Y-126759580D01*
X164402380Y-126331009D02*
X164735713Y-126331009D01*
X164735713Y-126854819D02*
X164735713Y-125854819D01*
X164735713Y-125854819D02*
X164259523Y-125854819D01*
X160461904Y-110854819D02*
X159890476Y-110854819D01*
X160176190Y-111854819D02*
X160176190Y-110854819D01*
X159033333Y-111854819D02*
X159604761Y-111854819D01*
X159319047Y-111854819D02*
X159319047Y-110854819D01*
X159319047Y-110854819D02*
X159414285Y-110997676D01*
X159414285Y-110997676D02*
X159509523Y-111092914D01*
X159509523Y-111092914D02*
X159604761Y-111140533D01*
D11*
%TO.C,G\u002A\u002A\u002A*%
X139400000Y-82375000D02*
X141600000Y-83550000D01*
X141600000Y-83550000D02*
X140025000Y-84450000D01*
X146625000Y-87800000D02*
X145300000Y-88275000D01*
X143725000Y-87325000D02*
X143950000Y-87950000D01*
X143950000Y-87950000D02*
X146625000Y-87800000D01*
X138400000Y-85800000D02*
X140225000Y-86700000D01*
X136725000Y-86025000D02*
X138400000Y-85800000D01*
X135100000Y-84900000D02*
X136725000Y-86025000D01*
X146625000Y-87800000D02*
X142725000Y-83625000D01*
X146625000Y-87800000D02*
X143725000Y-87325000D01*
D12*
X136775000Y-87050000D02*
X137225000Y-87050000D01*
D11*
X138275000Y-85975000D02*
X137875000Y-86250000D01*
X139050000Y-86575000D02*
X138275000Y-85975000D01*
D12*
X137725000Y-86600000D02*
X137725000Y-89050000D01*
X141025000Y-88500000D02*
X140575000Y-88500000D01*
X141525000Y-86600000D02*
X141575000Y-89050000D01*
D11*
X142725000Y-83625000D02*
X141700000Y-83375000D01*
X130300000Y-85525000D02*
X130725000Y-85200000D01*
D12*
X141025000Y-88000000D02*
X141025000Y-88500000D01*
D11*
X129725000Y-85050000D02*
X130300000Y-85525000D01*
D12*
X136375000Y-89050000D02*
X135975000Y-89050000D01*
X138175000Y-89050000D02*
X138175000Y-88550000D01*
X137275000Y-88100000D02*
X137125000Y-88100000D01*
X137725000Y-89050000D02*
X137275000Y-89050000D01*
D11*
X138650000Y-83800000D02*
X135175000Y-82175000D01*
X133950000Y-84675000D02*
X133250000Y-85250000D01*
X138650000Y-83800000D02*
X140975000Y-84950000D01*
X135175000Y-82175000D02*
X135100000Y-84900000D01*
D12*
X131450000Y-88525000D02*
X131000000Y-88525000D01*
X135875000Y-89050000D02*
X136575000Y-88100000D01*
X137225000Y-87050000D02*
X137225000Y-87600000D01*
X131450000Y-87525000D02*
X131150000Y-87525000D01*
D11*
X132025000Y-83150000D02*
X133825000Y-83200000D01*
X142800000Y-87700000D02*
X143175000Y-87875000D01*
X142275000Y-86775000D02*
X135175000Y-82175000D01*
X133825000Y-83200000D02*
X131675000Y-84325000D01*
X144225000Y-88325000D02*
X143650000Y-87525000D01*
X133250000Y-85250000D02*
X134925000Y-85350000D01*
D12*
X131450000Y-87075000D02*
X131450000Y-87525000D01*
X141025000Y-87000000D02*
X140775000Y-87000000D01*
X137225000Y-87600000D02*
X136725000Y-87600000D01*
X139025000Y-88550000D02*
X139025000Y-88000000D01*
X138175000Y-88550000D02*
X139025000Y-88550000D01*
X142475000Y-87450000D02*
X142475000Y-88100000D01*
D11*
X137875000Y-86250000D02*
X138850000Y-86600000D01*
X142725000Y-83625000D02*
X140975000Y-84950000D01*
X143125000Y-87300000D02*
X142800000Y-87700000D01*
D12*
X140625000Y-86613605D02*
X141525000Y-86600000D01*
D11*
X143675000Y-88050000D02*
X144225000Y-88325000D01*
X130725000Y-85200000D02*
X129725000Y-85050000D01*
D12*
X131450000Y-87025000D02*
X131200000Y-87025000D01*
X141024999Y-87995050D02*
X140624999Y-87995050D01*
X131050000Y-86638605D02*
X131950000Y-86625000D01*
D11*
X140975000Y-84950000D02*
X146625000Y-87800000D01*
D12*
X133225000Y-87325000D02*
X133500000Y-88075000D01*
X133000000Y-88075000D02*
X133225000Y-87325000D01*
X139425000Y-89050000D02*
X138175000Y-89050000D01*
X136616269Y-86594594D02*
X137725000Y-86600000D01*
X131449999Y-88020050D02*
X131049999Y-88020050D01*
X131450000Y-88025000D02*
X131450000Y-88525000D01*
X132000000Y-89075000D02*
X130800000Y-89075000D01*
D11*
X145300000Y-88275000D02*
X144475000Y-87925000D01*
D12*
X141575000Y-89050000D02*
X140375000Y-89050000D01*
X143175000Y-87450000D02*
X143175000Y-88150000D01*
D11*
X136275000Y-83800000D02*
X135700000Y-85300000D01*
X135150000Y-82575000D02*
X136275000Y-83800000D01*
X134950000Y-85350000D02*
X133950000Y-84675000D01*
D12*
X131950000Y-86625000D02*
X132000000Y-89075000D01*
D11*
X139400000Y-82375000D02*
X138650000Y-83800000D01*
X141700000Y-83375000D02*
X140975000Y-84950000D01*
X131675000Y-84325000D02*
X132025000Y-83150000D01*
D12*
X137275000Y-89050000D02*
X137275000Y-88100000D01*
X135975000Y-89050000D02*
X135875000Y-89050000D01*
X137125000Y-88100000D02*
X136375000Y-89050000D01*
X134450000Y-88600000D02*
X134450000Y-89050000D01*
X132925000Y-88475000D02*
X132675000Y-89075000D01*
X133775000Y-89075000D02*
X133525000Y-88475000D01*
X139025000Y-87100000D02*
X138175000Y-87100000D01*
X141025000Y-87500000D02*
X140725000Y-87500000D01*
X133500000Y-88075000D02*
X133000000Y-88075000D01*
X138175000Y-86600000D02*
X139475000Y-86600000D01*
X133375000Y-86625000D02*
X134275000Y-89075000D01*
X139025000Y-88000000D02*
X138375000Y-88000000D01*
X138175000Y-87100000D02*
X138175000Y-86600000D01*
X133775000Y-89075000D02*
X134275000Y-89075000D01*
D11*
X140975000Y-84950000D02*
X142450000Y-86675000D01*
D12*
X135225000Y-86600000D02*
X135200000Y-88600000D01*
X135700000Y-89050000D02*
X135675000Y-86600000D01*
X138375000Y-88000000D02*
X138375000Y-87550000D01*
X132675000Y-89075000D02*
X132275000Y-89075000D01*
X133050000Y-86625000D02*
X133375000Y-86625000D01*
X138375000Y-87550000D02*
X139025000Y-87550000D01*
X141025000Y-87050000D02*
X141025000Y-87500000D01*
X139025000Y-87550000D02*
X139025000Y-87100000D01*
X132275000Y-89075000D02*
X133050000Y-86625000D01*
X139525000Y-89050000D02*
X139425000Y-89050000D01*
X139475000Y-86600000D02*
X139525000Y-89050000D01*
X141975000Y-87450000D02*
X141975000Y-88150000D01*
X143675000Y-88150000D02*
X143675000Y-87450000D01*
X135675000Y-86600000D02*
X135225000Y-86600000D01*
D13*
X152172361Y-142045226D02*
X152108542Y-142109045D01*
X152044723Y-142045226D01*
X152108542Y-141981407D01*
X152172361Y-142045226D01*
G36*
X152172361Y-142045226D02*
G01*
X152108542Y-142109045D01*
X152044723Y-142045226D01*
X152108542Y-141981407D01*
X152172361Y-142045226D01*
G37*
D12*
X134450000Y-89050000D02*
X135700000Y-89050000D01*
X135200000Y-88600000D02*
X134450000Y-88600000D01*
X133525000Y-88475000D02*
X132925000Y-88475000D01*
X140725000Y-87500000D02*
G75*
G02*
X140785634Y-87007464I0J250000D01*
G01*
X140175001Y-87699999D02*
G75*
G02*
X140625000Y-86613605I449999J449999D01*
G01*
X141975000Y-87450000D02*
G75*
G02*
X143675000Y-87450000I850000J0D01*
G01*
X140575001Y-88499999D02*
G75*
G02*
X140624999Y-87995050I49999J249999D01*
G01*
X130600001Y-87724999D02*
G75*
G02*
X131050000Y-86638605I449999J449999D01*
G01*
X140375001Y-89049999D02*
G75*
G02*
X140198744Y-87741063I249999J699999D01*
G01*
X131150000Y-87525000D02*
G75*
G02*
X131210634Y-87032464I0J250000D01*
G01*
X131000001Y-88524999D02*
G75*
G02*
X131049999Y-88020050I49999J249999D01*
G01*
X142475000Y-87450000D02*
G75*
G02*
X143175000Y-87450000I350000J0D01*
G01*
X143175000Y-88150000D02*
G75*
G02*
X142475000Y-88150000I-350000J0D01*
G01*
X136725001Y-87599999D02*
G75*
G02*
X136725001Y-87050001I124999J274999D01*
G01*
X130800001Y-89074999D02*
G75*
G02*
X130623744Y-87766063I249999J699999D01*
G01*
X143675000Y-88150000D02*
G75*
G02*
X141975000Y-88150000I-850000J0D01*
G01*
X136600001Y-88049999D02*
G75*
G02*
X136616269Y-86594594I249999J724999D01*
G01*
%TO.C,U1*%
X135560000Y-125170000D02*
X135560000Y-114890000D01*
X135560000Y-114890000D02*
X140860000Y-114890000D01*
X137210000Y-125170000D02*
X135560000Y-125170000D01*
X140860000Y-125170000D02*
X139210000Y-125170000D01*
X140860000Y-114890000D02*
X140860000Y-125170000D01*
X137210000Y-125170000D02*
G75*
G02*
X139210000Y-125170000I1000000J0D01*
G01*
%TO.C,S1*%
X163506600Y-136367600D02*
X163506600Y-126410800D01*
X159569600Y-136367600D02*
X163506600Y-136393000D01*
X163506600Y-126410800D02*
X159569600Y-126410800D01*
X159569600Y-126410800D02*
X159569600Y-136367600D01*
%TO.C,R7*%
X113760000Y-118850000D02*
X114530000Y-118850000D01*
X121840000Y-118850000D02*
X121070000Y-118850000D01*
X114530000Y-120220000D02*
X121070000Y-120220000D01*
X121070000Y-117480000D01*
X114530000Y-117480000D01*
X114530000Y-120220000D01*
%TO.C,R6*%
X113760000Y-122900000D02*
X114530000Y-122900000D01*
X121840000Y-122900000D02*
X121070000Y-122900000D01*
X114530000Y-124270000D02*
X121070000Y-124270000D01*
X121070000Y-121530000D01*
X114530000Y-121530000D01*
X114530000Y-124270000D01*
%TO.C,R5*%
X113760000Y-126950000D02*
X114530000Y-126950000D01*
X121840000Y-126950000D02*
X121070000Y-126950000D01*
X114530000Y-128320000D02*
X121070000Y-128320000D01*
X121070000Y-125580000D01*
X114530000Y-125580000D01*
X114530000Y-128320000D01*
%TO.C,R4*%
X113760000Y-131000000D02*
X114530000Y-131000000D01*
X121840000Y-131000000D02*
X121070000Y-131000000D01*
X114530000Y-132370000D02*
X121070000Y-132370000D01*
X121070000Y-129630000D01*
X114530000Y-129630000D01*
X114530000Y-132370000D01*
%TO.C,R3*%
X113760000Y-135050000D02*
X114530000Y-135050000D01*
X121840000Y-135050000D02*
X121070000Y-135050000D01*
X114530000Y-136420000D02*
X121070000Y-136420000D01*
X121070000Y-133680000D01*
X114530000Y-133680000D01*
X114530000Y-136420000D01*
%TO.C,R1off1*%
X113760000Y-114800000D02*
X114530000Y-114800000D01*
X121840000Y-114800000D02*
X121070000Y-114800000D01*
X114530000Y-116170000D02*
X121070000Y-116170000D01*
X121070000Y-113430000D01*
X114530000Y-113430000D01*
X114530000Y-116170000D01*
%TO.C,D3*%
X135430000Y-112400000D02*
X136080000Y-112400000D01*
X136080000Y-113520000D02*
X136080000Y-111280000D01*
X136080000Y-111280000D02*
X140320000Y-111280000D01*
X136680000Y-113520000D02*
X136680000Y-111280000D01*
X136800000Y-113520000D02*
X136800000Y-111280000D01*
X136920000Y-113520000D02*
X136920000Y-111280000D01*
X140320000Y-113520000D02*
X136080000Y-113520000D01*
X140320000Y-111280000D02*
X140320000Y-113520000D01*
X140970000Y-112400000D02*
X140320000Y-112400000D01*
%TO.C,47uF*%
X161685000Y-122025000D02*
X162315000Y-122025000D01*
X162000000Y-122340000D02*
X162000000Y-121710000D01*
X165950000Y-125230000D02*
X165950000Y-118770000D01*
X165990000Y-125230000D02*
X165990000Y-118770000D01*
X166030000Y-125230000D02*
X166030000Y-118770000D01*
X166070000Y-125228000D02*
X166070000Y-118772000D01*
X166110000Y-125227000D02*
X166110000Y-118773000D01*
X166150000Y-125224000D02*
X166150000Y-118776000D01*
X166190000Y-125222000D02*
X166190000Y-123040000D01*
X166190000Y-120960000D02*
X166190000Y-118778000D01*
X166230000Y-125218000D02*
X166230000Y-123040000D01*
X166230000Y-120960000D02*
X166230000Y-118782000D01*
X166270000Y-125215000D02*
X166270000Y-123040000D01*
X166270000Y-120960000D02*
X166270000Y-118785000D01*
X166310000Y-125211000D02*
X166310000Y-123040000D01*
X166310000Y-120960000D02*
X166310000Y-118789000D01*
X166350000Y-125206000D02*
X166350000Y-123040000D01*
X166350000Y-120960000D02*
X166350000Y-118794000D01*
X166390000Y-125201000D02*
X166390000Y-123040000D01*
X166390000Y-120960000D02*
X166390000Y-118799000D01*
X166430000Y-125195000D02*
X166430000Y-123040000D01*
X166430000Y-120960000D02*
X166430000Y-118805000D01*
X166470000Y-125189000D02*
X166470000Y-123040000D01*
X166470000Y-120960000D02*
X166470000Y-118811000D01*
X166510000Y-125182000D02*
X166510000Y-123040000D01*
X166510000Y-120960000D02*
X166510000Y-118818000D01*
X166550000Y-125175000D02*
X166550000Y-123040000D01*
X166550000Y-120960000D02*
X166550000Y-118825000D01*
X166590000Y-125167000D02*
X166590000Y-123040000D01*
X166590000Y-120960000D02*
X166590000Y-118833000D01*
X166630000Y-125159000D02*
X166630000Y-123040000D01*
X166630000Y-120960000D02*
X166630000Y-118841000D01*
X166671000Y-125150000D02*
X166671000Y-123040000D01*
X166671000Y-120960000D02*
X166671000Y-118850000D01*
X166711000Y-125141000D02*
X166711000Y-123040000D01*
X166711000Y-120960000D02*
X166711000Y-118859000D01*
X166751000Y-125131000D02*
X166751000Y-123040000D01*
X166751000Y-120960000D02*
X166751000Y-118869000D01*
X166791000Y-125121000D02*
X166791000Y-123040000D01*
X166791000Y-120960000D02*
X166791000Y-118879000D01*
X166831000Y-125110000D02*
X166831000Y-123040000D01*
X166831000Y-120960000D02*
X166831000Y-118890000D01*
X166871000Y-125098000D02*
X166871000Y-123040000D01*
X166871000Y-120960000D02*
X166871000Y-118902000D01*
X166911000Y-125086000D02*
X166911000Y-123040000D01*
X166911000Y-120960000D02*
X166911000Y-118914000D01*
X166951000Y-125074000D02*
X166951000Y-123040000D01*
X166951000Y-120960000D02*
X166951000Y-118926000D01*
X166991000Y-125061000D02*
X166991000Y-123040000D01*
X166991000Y-120960000D02*
X166991000Y-118939000D01*
X167031000Y-125047000D02*
X167031000Y-123040000D01*
X167031000Y-120960000D02*
X167031000Y-118953000D01*
X167071000Y-125033000D02*
X167071000Y-123040000D01*
X167071000Y-120960000D02*
X167071000Y-118967000D01*
X167111000Y-125018000D02*
X167111000Y-123040000D01*
X167111000Y-120960000D02*
X167111000Y-118982000D01*
X167151000Y-125002000D02*
X167151000Y-123040000D01*
X167151000Y-120960000D02*
X167151000Y-118998000D01*
X167191000Y-124986000D02*
X167191000Y-123040000D01*
X167191000Y-120960000D02*
X167191000Y-119014000D01*
X167231000Y-124970000D02*
X167231000Y-123040000D01*
X167231000Y-120960000D02*
X167231000Y-119030000D01*
X167271000Y-124952000D02*
X167271000Y-123040000D01*
X167271000Y-120960000D02*
X167271000Y-119048000D01*
X167311000Y-124934000D02*
X167311000Y-123040000D01*
X167311000Y-120960000D02*
X167311000Y-119066000D01*
X167351000Y-124916000D02*
X167351000Y-123040000D01*
X167351000Y-120960000D02*
X167351000Y-119084000D01*
X167391000Y-124896000D02*
X167391000Y-123040000D01*
X167391000Y-120960000D02*
X167391000Y-119104000D01*
X167431000Y-124876000D02*
X167431000Y-123040000D01*
X167431000Y-120960000D02*
X167431000Y-119124000D01*
X167471000Y-124856000D02*
X167471000Y-123040000D01*
X167471000Y-120960000D02*
X167471000Y-119144000D01*
X167511000Y-124834000D02*
X167511000Y-123040000D01*
X167511000Y-120960000D02*
X167511000Y-119166000D01*
X167551000Y-124812000D02*
X167551000Y-123040000D01*
X167551000Y-120960000D02*
X167551000Y-119188000D01*
X167591000Y-124790000D02*
X167591000Y-123040000D01*
X167591000Y-120960000D02*
X167591000Y-119210000D01*
X167631000Y-124766000D02*
X167631000Y-123040000D01*
X167631000Y-120960000D02*
X167631000Y-119234000D01*
X167671000Y-124742000D02*
X167671000Y-123040000D01*
X167671000Y-120960000D02*
X167671000Y-119258000D01*
X167711000Y-124716000D02*
X167711000Y-123040000D01*
X167711000Y-120960000D02*
X167711000Y-119284000D01*
X167751000Y-124690000D02*
X167751000Y-123040000D01*
X167751000Y-120960000D02*
X167751000Y-119310000D01*
X167791000Y-124664000D02*
X167791000Y-123040000D01*
X167791000Y-120960000D02*
X167791000Y-119336000D01*
X167831000Y-124636000D02*
X167831000Y-123040000D01*
X167831000Y-120960000D02*
X167831000Y-119364000D01*
X167871000Y-124607000D02*
X167871000Y-123040000D01*
X167871000Y-120960000D02*
X167871000Y-119393000D01*
X167911000Y-124578000D02*
X167911000Y-123040000D01*
X167911000Y-120960000D02*
X167911000Y-119422000D01*
X167951000Y-124548000D02*
X167951000Y-123040000D01*
X167951000Y-120960000D02*
X167951000Y-119452000D01*
X167991000Y-124516000D02*
X167991000Y-123040000D01*
X167991000Y-120960000D02*
X167991000Y-119484000D01*
X168031000Y-124484000D02*
X168031000Y-123040000D01*
X168031000Y-120960000D02*
X168031000Y-119516000D01*
X168071000Y-124450000D02*
X168071000Y-123040000D01*
X168071000Y-120960000D02*
X168071000Y-119550000D01*
X168111000Y-124416000D02*
X168111000Y-123040000D01*
X168111000Y-120960000D02*
X168111000Y-119584000D01*
X168151000Y-124380000D02*
X168151000Y-123040000D01*
X168151000Y-120960000D02*
X168151000Y-119620000D01*
X168191000Y-124343000D02*
X168191000Y-123040000D01*
X168191000Y-120960000D02*
X168191000Y-119657000D01*
X168231000Y-124305000D02*
X168231000Y-123040000D01*
X168231000Y-120960000D02*
X168231000Y-119695000D01*
X168271000Y-124265000D02*
X168271000Y-119735000D01*
X168311000Y-124224000D02*
X168311000Y-119776000D01*
X168351000Y-124182000D02*
X168351000Y-119818000D01*
X168391000Y-124137000D02*
X168391000Y-119863000D01*
X168431000Y-124092000D02*
X168431000Y-119908000D01*
X168471000Y-124044000D02*
X168471000Y-119956000D01*
X168511000Y-123995000D02*
X168511000Y-120005000D01*
X168551000Y-123944000D02*
X168551000Y-120056000D01*
X168591000Y-123890000D02*
X168591000Y-120110000D01*
X168631000Y-123834000D02*
X168631000Y-120166000D01*
X168671000Y-123776000D02*
X168671000Y-120224000D01*
X168711000Y-123714000D02*
X168711000Y-120286000D01*
X168751000Y-123650000D02*
X168751000Y-120350000D01*
X168791000Y-123581000D02*
X168791000Y-120419000D01*
X168831000Y-123509000D02*
X168831000Y-120491000D01*
X168871000Y-123432000D02*
X168871000Y-120568000D01*
X168911000Y-123350000D02*
X168911000Y-120650000D01*
X168951000Y-123262000D02*
X168951000Y-120738000D01*
X168991000Y-123165000D02*
X168991000Y-120835000D01*
X169031000Y-123059000D02*
X169031000Y-120941000D01*
X169071000Y-122940000D02*
X169071000Y-121060000D01*
X169111000Y-122802000D02*
X169111000Y-121198000D01*
X169151000Y-122633000D02*
X169151000Y-121367000D01*
X169191000Y-122402000D02*
X169191000Y-121598000D01*
X170070000Y-122000000D02*
X170700000Y-122000000D01*
X169220000Y-122000000D02*
G75*
G02*
X162680000Y-122000000I-3270000J0D01*
G01*
X162680000Y-122000000D02*
G75*
G02*
X169220000Y-122000000I3270000J0D01*
G01*
%TD*%
M02*
