M48
; DRILL file {KiCad 9.0.6} date 2025-12-08T21:37:27+0100
; FORMAT={-:-/ absolute / inch / decimal}
; #@! TF.CreationDate,2025-12-08T21:37:27+01:00
; #@! TF.GenerationSoftware,Kicad,Pcbnew,9.0.6
; #@! TF.FileFunction,Plated,1,2,PTH
FMAT,2
INCH
; #@! TA.AperFunction,Plated,PTH,ComponentDrill
T1C0.0315
; #@! TA.AperFunction,Plated,PTH,ComponentDrill
T2C0.0354
; #@! TA.AperFunction,Plated,PTH,ComponentDrill
T3C0.0394
%
G90
G05
T1
X5.0134Y-4.0906
X5.0134Y-4.25
X5.0134Y-4.4094
X5.0134Y-4.5689
X5.0134Y-4.7283
X5.0134Y-4.8878
X5.4134Y-4.0906
X5.4134Y-4.25
X5.4134Y-4.4094
X5.4134Y-4.5689
X5.4134Y-4.7283
X5.4134Y-4.8878
X5.8198Y-3.6494
X5.8202Y-3.7997
X5.8202Y-3.8997
X5.8202Y-3.9997
X5.8202Y-4.0997
X5.8976Y-4.4331
X5.9961Y-4.4331
X6.1198Y-3.6494
X6.1202Y-3.7997
X6.1202Y-3.8997
X6.1202Y-3.9997
X6.1202Y-4.0997
X6.3409Y-4.8196
X6.4409Y-4.7196
X6.4693Y-4.4213
X6.5409Y-4.8196
X6.5693Y-4.3213
X6.6693Y-4.4213
T2
X5.4528Y-2.7677
X5.5528Y-2.7677
X6.4606Y-2.7795
X6.5606Y-2.7795
T3
X6.8031Y-3.8157
X6.8031Y-3.9157
X6.8031Y-4.0157
M30
