M48
; DRILL file {KiCad 9.0.6} date 2025-12-07T14:23:19+0100
; FORMAT={-:-/ absolute / inch / decimal}
; #@! TF.CreationDate,2025-12-07T14:23:19+01:00
; #@! TF.GenerationSoftware,Kicad,Pcbnew,9.0.6
; #@! TF.FileFunction,Plated,1,2,PTH
FMAT,2
INCH
; #@! TA.AperFunction,Plated,PTH,ComponentDrill
T1C0.0315
; #@! TA.AperFunction,Plated,PTH,ComponentDrill
T2C0.0354
; #@! TA.AperFunction,Plated,PTH,ComponentDrill
T3C0.0394
%
G90
G05
T1
X3.7309Y-4.3615
X3.7309Y-4.521
X3.7309Y-4.6804
X3.7309Y-4.8399
X3.7309Y-4.9993
X3.7309Y-5.1588
X4.1309Y-4.3615
X4.1309Y-4.521
X4.1309Y-4.6804
X4.1309Y-4.8399
X4.1309Y-4.9993
X4.1309Y-5.1588
X4.584Y-4.2671
X4.5844Y-4.4175
X4.5844Y-4.5175
X4.5844Y-4.6175
X4.5844Y-4.7175
X4.884Y-4.2671
X4.8844Y-4.4175
X4.8844Y-4.5175
X4.8844Y-4.6175
X4.8844Y-4.7175
X5.26Y-4.5167
X5.2813Y-4.2277
X5.36Y-4.4167
X5.3813Y-4.1277
X5.46Y-4.5167
X5.4813Y-4.2277
X5.7773Y-4.645
X5.8758Y-4.645
T2
X5.3291Y-3.0039
X5.4291Y-3.0039
X6.1159Y-2.9685
X6.2159Y-2.9685
T3
X5.6514Y-4.9167
X5.6514Y-5.0167
X5.6514Y-5.1167
M30
