%TF.GenerationSoftware,KiCad,Pcbnew,9.0.6*%
%TF.CreationDate,2025-12-08T21:37:25+01:00*%
%TF.ProjectId,Rocket,526f636b-6574-42e6-9b69-6361645f7063,rev?*%
%TF.SameCoordinates,Original*%
%TF.FileFunction,Copper,L1,Top*%
%TF.FilePolarity,Positive*%
%FSLAX46Y46*%
G04 Gerber Fmt 4.6, Leading zero omitted, Abs format (unit mm)*
G04 Created by KiCad (PCBNEW 9.0.6) date 2025-12-08 21:37:25*
%MOMM*%
%LPD*%
G01*
G04 APERTURE LIST*
G04 Aperture macros list*
%AMRoundRect*
0 Rectangle with rounded corners*
0 $1 Rounding radius*
0 $2 $3 $4 $5 $6 $7 $8 $9 X,Y pos of 4 corners*
0 Add a 4 corners polygon primitive as box body*
4,1,4,$2,$3,$4,$5,$6,$7,$8,$9,$2,$3,0*
0 Add four circle primitives for the rounded corners*
1,1,$1+$1,$2,$3*
1,1,$1+$1,$4,$5*
1,1,$1+$1,$6,$7*
1,1,$1+$1,$8,$9*
0 Add four rect primitives between the rounded corners*
20,1,$1+$1,$2,$3,$4,$5,0*
20,1,$1+$1,$4,$5,$6,$7,0*
20,1,$1+$1,$6,$7,$8,$9,0*
20,1,$1+$1,$8,$9,$2,$3,0*%
G04 Aperture macros list end*
%TA.AperFunction,ComponentPad*%
%ADD10R,1.800000X1.800000*%
%TD*%
%TA.AperFunction,ComponentPad*%
%ADD11C,1.800000*%
%TD*%
%TA.AperFunction,ComponentPad*%
%ADD12R,1.500000X1.500000*%
%TD*%
%TA.AperFunction,ComponentPad*%
%ADD13C,1.500000*%
%TD*%
%TA.AperFunction,ComponentPad*%
%ADD14R,1.600000X1.600000*%
%TD*%
%TA.AperFunction,ComponentPad*%
%ADD15C,1.600000*%
%TD*%
%TA.AperFunction,ComponentPad*%
%ADD16O,1.600000X1.600000*%
%TD*%
%TA.AperFunction,ComponentPad*%
%ADD17C,2.000000*%
%TD*%
%TA.AperFunction,ComponentPad*%
%ADD18RoundRect,0.250000X-0.550000X-0.550000X0.550000X-0.550000X0.550000X0.550000X-0.550000X0.550000X0*%
%TD*%
%TA.AperFunction,Conductor*%
%ADD19C,0.250000*%
%TD*%
G04 APERTURE END LIST*
D10*
%TO.P,D1,1,K*%
%TO.N,Net-(D1-K)*%
X164100000Y-70600000D03*
D11*
%TO.P,D1,2,A*%
%TO.N,Net-(D1-A)*%
X166640000Y-70600000D03*
%TD*%
D10*
%TO.P,D2,1,K*%
%TO.N,Net-(D1-K)*%
X138500000Y-70300000D03*
D11*
%TO.P,D2,2,A*%
%TO.N,Net-(D1-A)*%
X141040000Y-70300000D03*
%TD*%
D12*
%TO.P,Q2,1,E*%
%TO.N,Net-(D1-A)*%
X161060000Y-122418808D03*
D13*
%TO.P,Q2,2,B*%
%TO.N,Net-(Q1-C)*%
X163600000Y-119878808D03*
%TO.P,Q2,3,C*%
%TO.N,Net-(Q2-C)*%
X166140000Y-122418808D03*
%TD*%
D12*
%TO.P,Q1,1,E*%
%TO.N,Net-(D1-K)*%
X164320000Y-112300000D03*
D13*
%TO.P,Q1,2,B*%
%TO.N,Net-(Q1-B)*%
X166860000Y-109760000D03*
%TO.P,Q1,3,C*%
%TO.N,Net-(Q1-C)*%
X169400000Y-112300000D03*
%TD*%
D14*
%TO.P,C1,1*%
%TO.N,Net-(D3-K)*%
X149800000Y-112600000D03*
D15*
%TO.P,C1,2*%
%TO.N,Net-(D1-K)*%
X152300000Y-112600000D03*
%TD*%
D14*
%TO.P,D3,1,K*%
%TO.N,Net-(D3-K)*%
X147823900Y-92693500D03*
D16*
%TO.P,D3,2,A*%
%TO.N,Net-(D3-A)*%
X155443900Y-92693500D03*
%TD*%
D15*
%TO.P,R5,1*%
%TO.N,Net-(S1-E)*%
X127340000Y-116050000D03*
%TO.P,R5,2*%
%TO.N,Net-(Q1-C)*%
X137500000Y-116050000D03*
%TD*%
%TO.P,R4,1*%
%TO.N,Net-(Q1-B)*%
X127340000Y-120100000D03*
%TO.P,R4,2*%
%TO.N,Net-(D1-K)*%
X137500000Y-120100000D03*
%TD*%
%TO.P,R6,1*%
%TO.N,Net-(S1-E)*%
X127340000Y-112000000D03*
%TO.P,R6,2*%
%TO.N,Net-(Q2-C)*%
X137500000Y-112000000D03*
%TD*%
%TO.P,R8,1*%
%TO.N,Net-(S1-E)*%
X127340000Y-103900000D03*
%TO.P,R8,2*%
%TO.N,Net-(D3-A)*%
X137500000Y-103900000D03*
%TD*%
D17*
%TO.P,S1,1,A*%
%TO.N,Net-(S1-A-Pad1)*%
X172800000Y-102000000D03*
%TO.P,S1,2,E*%
%TO.N,Net-(S1-E)*%
X172800000Y-99460000D03*
%TO.P,S1,3,A*%
%TO.N,unconnected-(S1-A-Pad3)*%
X172800000Y-96920000D03*
%TD*%
D15*
%TO.P,R3,1*%
%TO.N,Net-(D3-K)*%
X127340000Y-124150000D03*
%TO.P,R3,2*%
%TO.N,Net-(Q1-B)*%
X137500000Y-124150000D03*
%TD*%
D18*
%TO.P,U1,1,GND*%
%TO.N,Net-(D1-K)*%
X147833900Y-104133500D03*
D15*
%TO.P,U1,2,TR*%
%TO.N,Net-(D3-K)*%
X147833900Y-101593500D03*
%TO.P,U1,3,Q*%
%TO.N,unconnected-(U1-Q-Pad3)*%
X147833900Y-99053500D03*
%TO.P,U1,4,R*%
%TO.N,Net-(S1-E)*%
X147833900Y-96513500D03*
%TO.P,U1,5,CV*%
%TO.N,unconnected-(U1-CV-Pad5)*%
X155453900Y-96513500D03*
%TO.P,U1,6,THR*%
%TO.N,Net-(D3-K)*%
X155453900Y-99053500D03*
%TO.P,U1,7,DIS*%
%TO.N,Net-(D3-A)*%
X155453900Y-101593500D03*
%TO.P,U1,8,VCC*%
%TO.N,Net-(S1-E)*%
X155453900Y-104133500D03*
%TD*%
%TO.P,R7,1*%
%TO.N,Net-(D3-K)*%
X127340000Y-107950000D03*
%TO.P,R7,2*%
%TO.N,Net-(D3-A)*%
X137500000Y-107950000D03*
%TD*%
D19*
%TO.N,Net-(D3-K)*%
X150000000Y-95000000D02*
X124000000Y-95000000D01*
X123500000Y-95500000D02*
X123500000Y-107500000D01*
X123500000Y-107500000D02*
X123950000Y-107950000D01*
X147823900Y-92693500D02*
X153017400Y-87500000D01*
X123950000Y-107950000D02*
X127340000Y-107950000D01*
X154053500Y-99053500D02*
X150000000Y-95000000D01*
X152913900Y-101593500D02*
X155453900Y-99053500D01*
X160446500Y-99053500D02*
X155453900Y-99053500D01*
X164000000Y-89000000D02*
X164000000Y-95500000D01*
X162500000Y-87500000D02*
X164000000Y-89000000D01*
X153017400Y-87500000D02*
X162500000Y-87500000D01*
X155453900Y-99053500D02*
X154053500Y-99053500D01*
X147833900Y-101593500D02*
X152913900Y-101593500D01*
X164000000Y-95500000D02*
X160446500Y-99053500D01*
X124000000Y-95000000D02*
X123500000Y-95500000D01*
%TO.N,Net-(D1-K)*%
X152300000Y-112600000D02*
X164020000Y-112600000D01*
X164020000Y-112600000D02*
X164320000Y-112300000D01*
%TO.N,Net-(D3-A)*%
X153906500Y-101593500D02*
X149000000Y-106500000D01*
X141600000Y-103900000D02*
X141500000Y-103900000D01*
X144100000Y-106500000D02*
X141500000Y-103900000D01*
X149000000Y-106500000D02*
X144100000Y-106500000D01*
X155453900Y-101593500D02*
X153906500Y-101593500D01*
X141500000Y-103900000D02*
X137500000Y-103900000D01*
%TO.N,Net-(Q1-C)*%
X143000000Y-121500000D02*
X143000000Y-117000000D01*
X166878808Y-119878808D02*
X168500000Y-121500000D01*
X143000000Y-117000000D02*
X142050000Y-116050000D01*
X142050000Y-116050000D02*
X137500000Y-116050000D01*
X150000000Y-128500000D02*
X143000000Y-121500000D01*
X168500000Y-121500000D02*
X168500000Y-128500000D01*
X168500000Y-128500000D02*
X150000000Y-128500000D01*
X163600000Y-119878808D02*
X166878808Y-119878808D01*
%TO.N,Net-(Q2-C)*%
X164000000Y-126000000D02*
X166140000Y-123860000D01*
X141000000Y-112000000D02*
X155000000Y-126000000D01*
X155000000Y-126000000D02*
X164000000Y-126000000D01*
X166140000Y-123860000D02*
X166140000Y-122418808D01*
X137500000Y-112000000D02*
X141000000Y-112000000D01*
%TO.N,Net-(S1-E)*%
X165040000Y-99460000D02*
X172800000Y-99460000D01*
X155453900Y-104133500D02*
X160366500Y-104133500D01*
X160366500Y-104133500D02*
X165040000Y-99460000D01*
%TD*%
M02*
