%TF.GenerationSoftware,KiCad,Pcbnew,9.0.6*%
%TF.CreationDate,2025-12-07T10:25:39+01:00*%
%TF.ProjectId,Rocket,526f636b-6574-42e6-9b69-6361645f7063,rev?*%
%TF.SameCoordinates,Original*%
%TF.FileFunction,Profile,NP*%
%FSLAX46Y46*%
G04 Gerber Fmt 4.6, Leading zero omitted, Abs format (unit mm)*
G04 Created by KiCad (PCBNEW 9.0.6) date 2025-12-07 10:25:39*
%MOMM*%
%LPD*%
G01*
G04 APERTURE LIST*
%TA.AperFunction,Profile*%
%ADD10C,0.100000*%
%TD*%
G04 APERTURE END LIST*
D10*
X154993100Y-44837100D02*
X154854100Y-45171000D01*
X154854100Y-45171000D02*
X154748100Y-45508600D01*
X154748100Y-45508600D02*
X154675100Y-45849100D01*
X154675100Y-45849100D02*
X154631100Y-46191900D01*
X154631100Y-46191900D02*
X154614100Y-46536300D01*
X154614100Y-46536300D02*
X154621100Y-46881800D01*
X154621100Y-46881800D02*
X154652100Y-47227500D01*
X154652100Y-47227500D02*
X154702100Y-47572900D01*
X154702100Y-47572900D02*
X154771100Y-47917300D01*
X154771100Y-47917300D02*
X154855100Y-48260100D01*
X154855100Y-48260100D02*
X155061100Y-48938000D01*
X155061100Y-48938000D02*
X155301100Y-49601400D01*
X155301100Y-49601400D02*
X155558100Y-50245100D01*
X155558100Y-50245100D02*
X155683100Y-50561800D01*
X155683100Y-50561800D02*
X155748100Y-50726700D01*
X155748100Y-50726700D02*
X155792100Y-50871500D01*
X155792100Y-50871500D02*
X155798100Y-50977600D01*
X155798100Y-50977600D02*
X155783100Y-51010400D01*
X155783100Y-51010400D02*
X155751100Y-51026700D01*
X155751100Y-51026700D02*
X155703100Y-51024100D01*
X155703100Y-51024100D02*
X155634100Y-51000300D01*
X155634100Y-51000300D02*
X155431100Y-50880000D01*
X155431100Y-50880000D02*
X155094100Y-50698700D01*
X155094100Y-50698700D02*
X154752100Y-50531700D01*
X154752100Y-50531700D02*
X154053100Y-50235600D01*
X154053100Y-50235600D02*
X153338100Y-49980700D01*
X153338100Y-49980700D02*
X152611100Y-49756000D01*
X152611100Y-49756000D02*
X151141100Y-49353600D01*
X151141100Y-49353600D02*
X150406100Y-49154000D01*
X150406100Y-49154000D02*
X149677100Y-48940700D01*
X149677100Y-48940700D02*
X149059100Y-48786300D01*
X149059100Y-48786300D02*
X148433100Y-48657400D01*
X148433100Y-48657400D02*
X147802100Y-48558400D01*
X147802100Y-48558400D02*
X147167100Y-48493300D01*
X147167100Y-48493300D02*
X146531100Y-48466200D01*
X146531100Y-48466200D02*
X145895100Y-48481500D01*
X145895100Y-48481500D02*
X145260100Y-48543200D01*
X145260100Y-48543200D02*
X144630100Y-48655400D01*
X144630100Y-48655400D02*
X144666100Y-48983900D01*
X144666100Y-48983900D02*
X144733100Y-49300500D01*
X144733100Y-49300500D02*
X144828100Y-49605200D01*
X144828100Y-49605200D02*
X144948100Y-49897800D01*
X144948100Y-49897800D02*
X145094100Y-50178100D01*
X145094100Y-50178100D02*
X145261100Y-50446200D01*
X145261100Y-50446200D02*
X145449100Y-50701600D01*
X145449100Y-50701600D02*
X145655100Y-50944500D01*
X145655100Y-50944500D02*
X145878100Y-51174500D01*
X145878100Y-51174500D02*
X146116100Y-51391600D01*
X146116100Y-51391600D02*
X146366100Y-51595600D01*
X146366100Y-51595600D02*
X146627100Y-51786400D01*
X146627100Y-51786400D02*
X146897100Y-51963800D01*
X146897100Y-51963800D02*
X147174100Y-52127700D01*
X147174100Y-52127700D02*
X147742100Y-52414500D01*
X147742100Y-52414500D02*
X148139100Y-52636800D01*
X148139100Y-52636800D02*
X148527100Y-52874900D01*
X148527100Y-52874900D02*
X149282100Y-53384000D01*
X149282100Y-53384000D02*
X148368100Y-53426300D01*
X148368100Y-53426300D02*
X147440100Y-53452200D01*
X147440100Y-53452200D02*
X146508100Y-53486400D01*
X146508100Y-53486400D02*
X145580100Y-53553400D01*
X145580100Y-53553400D02*
X145120100Y-53606900D01*
X145120100Y-53606900D02*
X144665100Y-53677800D01*
X144665100Y-53677800D02*
X144216100Y-53769200D01*
X144216100Y-53769200D02*
X143773100Y-53884100D01*
X143773100Y-53884100D02*
X143338300Y-54025700D01*
X143338300Y-54025700D02*
X142912400Y-54197000D01*
X142912400Y-54197000D02*
X142496600Y-54401100D01*
X142496600Y-54401100D02*
X142092000Y-54641100D01*
X142092000Y-54641100D02*
X141978200Y-54699800D01*
X141978200Y-54699800D02*
X141886800Y-54771400D01*
X141886800Y-54771400D02*
X141816200Y-54854500D01*
X141816200Y-54854500D02*
X141764700Y-54947400D01*
X141764700Y-54947400D02*
X141730900Y-55048700D01*
X141730900Y-55048700D02*
X141713000Y-55156900D01*
X141713000Y-55156900D02*
X141718900Y-55387700D01*
X141718900Y-55387700D02*
X141769600Y-55627800D01*
X141769600Y-55627800D02*
X141852400Y-55865000D01*
X141852400Y-55865000D02*
X141954500Y-56087200D01*
X141954500Y-56087200D02*
X142063200Y-56282300D01*
X142063200Y-56282300D02*
X142190900Y-56467400D01*
X142190900Y-56467400D02*
X142346000Y-56635100D01*
X142346000Y-56635100D02*
X142522600Y-56784500D01*
X142522600Y-56784500D02*
X142714600Y-56914500D01*
X142714600Y-56914500D02*
X142916000Y-57024300D01*
X142916000Y-57024300D02*
X143120800Y-57112700D01*
X143120800Y-57112700D02*
X143323000Y-57178900D01*
X143323000Y-57178900D02*
X143516700Y-57221800D01*
X143516700Y-57221800D02*
X142901000Y-57515500D01*
X142901000Y-57515500D02*
X142261000Y-57806000D01*
X142261000Y-57806000D02*
X141602500Y-58067700D01*
X141602500Y-58067700D02*
X141268200Y-58179700D01*
X141268200Y-58179700D02*
X140931500Y-58274900D01*
X140931500Y-58274900D02*
X140593100Y-58350000D01*
X140593100Y-58350000D02*
X140253700Y-58401800D01*
X140253700Y-58401800D02*
X139914200Y-58427200D01*
X139914200Y-58427200D02*
X139575200Y-58422800D01*
X139575200Y-58422800D02*
X139237500Y-58385500D01*
X139237500Y-58385500D02*
X138901800Y-58312100D01*
X138901800Y-58312100D02*
X138568900Y-58199400D01*
X138568900Y-58199400D02*
X138239500Y-58044100D01*
X138239500Y-58044100D02*
X137141600Y-57603400D01*
X137141600Y-57603400D02*
X136036300Y-57181700D01*
X136036300Y-57181700D02*
X134924700Y-56776200D01*
X134924700Y-56776200D02*
X133808000Y-56384100D01*
X133808000Y-56384100D02*
X131564100Y-55628800D01*
X131564100Y-55628800D02*
X129314200Y-54893400D01*
X129314200Y-54893400D02*
X127998800Y-54506700D01*
X127998800Y-54506700D02*
X126674100Y-54149900D01*
X126674100Y-54149900D02*
X125340700Y-53827100D01*
X125340700Y-53827100D02*
X123999000Y-53542400D01*
X123999000Y-53542400D02*
X122649600Y-53300000D01*
X122649600Y-53300000D02*
X121292900Y-53104100D01*
X121292900Y-53104100D02*
X119929400Y-52958800D01*
X119929400Y-52958800D02*
X118559600Y-52868300D01*
X118559600Y-52868300D02*
X118279700Y-53219500D01*
X118279700Y-53219500D02*
X118014400Y-53579700D01*
X118014400Y-53579700D02*
X117763500Y-53948400D01*
X117763500Y-53948400D02*
X117527000Y-54325100D01*
X117527000Y-54325100D02*
X117304800Y-54709400D01*
X117304800Y-54709400D02*
X117096900Y-55100900D01*
X117096900Y-55100900D02*
X116903100Y-55499100D01*
X116903100Y-55499100D02*
X116723400Y-55903600D01*
X116723400Y-55903600D02*
X116557800Y-56313900D01*
X116557800Y-56313900D02*
X116406000Y-56729600D01*
X116406000Y-56729600D02*
X116144000Y-57575300D01*
X116144000Y-57575300D02*
X115936800Y-58437300D01*
X115936800Y-58437300D02*
X115783800Y-59311800D01*
X115783800Y-59311800D02*
X115684400Y-60195300D01*
X115684400Y-60195300D02*
X115638000Y-61084400D01*
X115638000Y-61084400D02*
X115643900Y-61975300D01*
X115643900Y-61975300D02*
X115701700Y-62864600D01*
X115701700Y-62864600D02*
X115810500Y-63748700D01*
X115810500Y-63748700D02*
X115969900Y-64623900D01*
X115969900Y-64623900D02*
X116179300Y-65486800D01*
X116179300Y-65486800D02*
X116438000Y-66333800D01*
X116438000Y-66333800D02*
X116633900Y-66923700D01*
X116633900Y-66923700D02*
X116852900Y-67503700D01*
X116852900Y-67503700D02*
X117094000Y-68073600D01*
X117094000Y-68073600D02*
X117356500Y-68633400D01*
X117356500Y-68633400D02*
X117639200Y-69182800D01*
X117639200Y-69182800D02*
X117941400Y-69721700D01*
X117941400Y-69721700D02*
X118262200Y-70250100D01*
X118262200Y-70250100D02*
X118600500Y-70767800D01*
X118600500Y-70767800D02*
X118955500Y-71274700D01*
X118955500Y-71274700D02*
X119326300Y-71770700D01*
X119326300Y-71770700D02*
X119711900Y-72255500D01*
X119711900Y-72255500D02*
X120111500Y-72729200D01*
X120111500Y-72729200D02*
X120524200Y-73191600D01*
X120524200Y-73191600D02*
X120948900Y-73642600D01*
X120948900Y-73642600D02*
X121384900Y-74082000D01*
X121384900Y-74082000D02*
X121831100Y-74509700D01*
X121831100Y-74509700D02*
X122712800Y-75375700D01*
X122712800Y-75375700D02*
X123618600Y-76216200D01*
X123618600Y-76216200D02*
X124543300Y-77036300D01*
X124543300Y-77036300D02*
X125481500Y-77841000D01*
X125481500Y-77841000D02*
X125144400Y-78271500D01*
X125144400Y-78271500D02*
X124831600Y-78720100D01*
X124831600Y-78720100D02*
X124538400Y-79183000D01*
X124538400Y-79183000D02*
X124260100Y-79656600D01*
X124260100Y-79656600D02*
X123729100Y-80620500D01*
X123729100Y-80620500D02*
X123200800Y-81582300D01*
X123200800Y-81582300D02*
X122925800Y-82053200D01*
X122925800Y-82053200D02*
X122637200Y-82512300D01*
X122637200Y-82512300D02*
X122330300Y-82956000D01*
X122330300Y-82956000D02*
X122000400Y-83380600D01*
X122000400Y-83380600D02*
X121642700Y-83782400D01*
X121642700Y-83782400D02*
X121252500Y-84157700D01*
X121252500Y-84157700D02*
X120825100Y-84502700D01*
X120825100Y-84502700D02*
X120355600Y-84813700D01*
X120355600Y-84813700D02*
X119886600Y-85210100D01*
X119886600Y-85210100D02*
X119450500Y-85640800D01*
X119450500Y-85640800D02*
X119043600Y-86100500D01*
X119043600Y-86100500D02*
X118662000Y-86583700D01*
X118662000Y-86583700D02*
X118301900Y-87084900D01*
X118301900Y-87084900D02*
X117959600Y-87598700D01*
X117959600Y-87598700D02*
X117313100Y-88642700D01*
X117313100Y-88642700D02*
X117054400Y-89122200D01*
X117054400Y-89122200D02*
X116816700Y-89612300D01*
X116816700Y-89612300D02*
X116600800Y-90112300D01*
X116600800Y-90112300D02*
X116407200Y-90621300D01*
X116407200Y-90621300D02*
X116236800Y-91138400D01*
X116236800Y-91138400D02*
X116090000Y-91662800D01*
X116090000Y-91662800D02*
X115967600Y-92193500D01*
X115967600Y-92193500D02*
X115870200Y-92729700D01*
X115870200Y-92729700D02*
X116019900Y-92905300D01*
X116019900Y-92905300D02*
X116182300Y-93052700D01*
X116182300Y-93052700D02*
X116356000Y-93174500D01*
X116356000Y-93174500D02*
X116539700Y-93273500D01*
X116539700Y-93273500D02*
X116732200Y-93352200D01*
X116732200Y-93352200D02*
X116932300Y-93413400D01*
X116932300Y-93413400D02*
X117350000Y-93494000D01*
X117350000Y-93494000D02*
X117782700Y-93536400D01*
X117782700Y-93536400D02*
X118220200Y-93562300D01*
X118220200Y-93562300D02*
X118652500Y-93592900D01*
X118652500Y-93592900D02*
X119069400Y-93649600D01*
X119069400Y-93649600D02*
X119104700Y-93677800D01*
X119104700Y-93677800D02*
X119119800Y-93710800D01*
X119119800Y-93710800D02*
X119099000Y-93789400D01*
X119099000Y-93789400D02*
X119026400Y-93881900D01*
X119026400Y-93881900D02*
X118921300Y-93985100D01*
X118921300Y-93985100D02*
X118691100Y-94209900D01*
X118691100Y-94209900D02*
X118604700Y-94324800D01*
X118604700Y-94324800D02*
X118563100Y-94436900D01*
X118563100Y-94436900D02*
X118462900Y-94575300D01*
X118462900Y-94575300D02*
X118377200Y-94726500D01*
X118377200Y-94726500D02*
X118306500Y-94888000D01*
X118306500Y-94888000D02*
X118251600Y-95057100D01*
X118251600Y-95057100D02*
X118213000Y-95231400D01*
X118213000Y-95231400D02*
X118191300Y-95408300D01*
X118191300Y-95408300D02*
X118187100Y-95585100D01*
X118187100Y-95585100D02*
X118201100Y-95759300D01*
X118201100Y-95759300D02*
X118233800Y-95928400D01*
X118233800Y-95928400D02*
X118285800Y-96089700D01*
X118285800Y-96089700D02*
X118357800Y-96240700D01*
X118357800Y-96240700D02*
X118450300Y-96378900D01*
X118450300Y-96378900D02*
X118564000Y-96501500D01*
X118564000Y-96501500D02*
X118699500Y-96606200D01*
X118699500Y-96606200D02*
X118857300Y-96690300D01*
X118857300Y-96690300D02*
X119038100Y-96751100D01*
X119038100Y-96751100D02*
X119275000Y-96816100D01*
X119275000Y-96816100D02*
X119515100Y-96864500D01*
X119515100Y-96864500D02*
X120003200Y-96922600D01*
X120003200Y-96922600D02*
X120497700Y-96946600D01*
X120497700Y-96946600D02*
X120994000Y-96957800D01*
X120994000Y-96957800D02*
X121487600Y-96977600D01*
X121487600Y-96977600D02*
X121973700Y-97027000D01*
X121973700Y-97027000D02*
X122212600Y-97069500D01*
X122212600Y-97069500D02*
X122447800Y-97127400D01*
X122447800Y-97127400D02*
X122679000Y-97203300D01*
X122679000Y-97203300D02*
X122905300Y-97300000D01*
X122905300Y-97300000D02*
X122934100Y-97428400D01*
X122934100Y-97428400D02*
X122942100Y-97556400D01*
X122942100Y-97556400D02*
X122932800Y-97684000D01*
X122932800Y-97684000D02*
X122909300Y-97811400D01*
X122909300Y-97811400D02*
X122832700Y-98066000D01*
X122832700Y-98066000D02*
X122738400Y-98321100D01*
X122738400Y-98321100D02*
X122652400Y-98577600D01*
X122652400Y-98577600D02*
X122600700Y-98836300D01*
X122600700Y-98836300D02*
X122595800Y-98966900D01*
X122595800Y-98966900D02*
X122609300Y-99098300D01*
X122609300Y-99098300D02*
X122644300Y-99230800D01*
X122644300Y-99230800D02*
X122704200Y-99364400D01*
X122704200Y-99364400D02*
X122805100Y-99540500D01*
X122805100Y-99540500D02*
X122931000Y-99696000D01*
X122931000Y-99696000D02*
X123078200Y-99831400D01*
X123078200Y-99831400D02*
X123242600Y-99947300D01*
X123242600Y-99947300D02*
X123420300Y-100044300D01*
X123420300Y-100044300D02*
X123607600Y-100123000D01*
X123607600Y-100123000D02*
X123800500Y-100183900D01*
X123800500Y-100183900D02*
X123995200Y-100227700D01*
X123995200Y-100227700D02*
X123052400Y-100978000D01*
X123052400Y-100978000D02*
X122095900Y-101716000D01*
X122095900Y-101716000D02*
X120157600Y-103170500D01*
X120157600Y-103170500D02*
X118211600Y-104622200D01*
X118211600Y-104622200D02*
X117245600Y-105356600D01*
X117245600Y-105356600D02*
X116289400Y-106101900D01*
X116289400Y-106101900D02*
X115346900Y-106862000D01*
X115346900Y-106862000D02*
X114422200Y-107640600D01*
X114422200Y-107640600D02*
X113519100Y-108441800D01*
X113519100Y-108441800D02*
X112641500Y-109269200D01*
X112641500Y-109269200D02*
X111793400Y-110126900D01*
X111793400Y-110126900D02*
X110978600Y-111018700D01*
X110978600Y-111018700D02*
X110201200Y-111948300D01*
X110201200Y-111948300D02*
X109827700Y-112428600D01*
X109827700Y-112428600D02*
X109465000Y-112919800D01*
X109465000Y-112919800D02*
X108840000Y-113846800D01*
X108840000Y-113846800D02*
X108252500Y-114799500D01*
X108252500Y-114799500D02*
X107707600Y-115777100D01*
X107707600Y-115777100D02*
X107210100Y-116778700D01*
X107210100Y-116778700D02*
X106980700Y-117288400D01*
X106980700Y-117288400D02*
X106765000Y-117803800D01*
X106765000Y-117803800D02*
X106563600Y-118324500D01*
X106563600Y-118324500D02*
X106377200Y-118851500D01*
X106377200Y-118851500D02*
X106206300Y-119383500D01*
X106206300Y-119383500D02*
X106051500Y-119920500D01*
X106051500Y-119920500D02*
X105913600Y-120463500D01*
X105913600Y-120463500D02*
X105793000Y-121011500D01*
X105793000Y-121011500D02*
X105594700Y-121756500D01*
X105594700Y-121756500D02*
X105375200Y-122504500D01*
X105375200Y-122504500D02*
X105122700Y-123245500D01*
X105122700Y-123245500D02*
X104825300Y-123967500D01*
X104825300Y-123967500D02*
X102793900Y-123804500D01*
X102793900Y-123804500D02*
X100756000Y-123675500D01*
X100756000Y-123675500D02*
X98713400Y-123583500D01*
X98713400Y-123583500D02*
X96667800Y-123530500D01*
X96667800Y-123530500D02*
X94620900Y-123519500D01*
X94620900Y-123519500D02*
X92574500Y-123553500D01*
X92574500Y-123553500D02*
X90530400Y-123636500D01*
X90530400Y-123636500D02*
X88490300Y-123770500D01*
X88490300Y-123770500D02*
X86456000Y-123957500D01*
X86456000Y-123957500D02*
X84429200Y-124201500D01*
X84429200Y-124201500D02*
X83419100Y-124346500D01*
X83419100Y-124346500D02*
X82411600Y-124505500D01*
X82411600Y-124505500D02*
X81406900Y-124681500D01*
X81406900Y-124681500D02*
X80405100Y-124872500D01*
X80405100Y-124872500D02*
X79406600Y-125079500D01*
X79406600Y-125079500D02*
X78411400Y-125303500D01*
X78411400Y-125303500D02*
X77419900Y-125545500D01*
X77419900Y-125545500D02*
X76432200Y-125803500D01*
X76432200Y-125803500D02*
X75448600Y-126080500D01*
X75448600Y-126080500D02*
X74469300Y-126375500D01*
X74469300Y-126375500D02*
X73494500Y-126688500D01*
X73494500Y-126688500D02*
X72524500Y-127020500D01*
X72524500Y-127020500D02*
X71743600Y-127301500D01*
X71743600Y-127301500D02*
X70968700Y-127598500D01*
X70968700Y-127598500D02*
X70200000Y-127909500D01*
X70200000Y-127909500D02*
X69437300Y-128234500D01*
X69437300Y-128234500D02*
X67930600Y-128926500D01*
X67930600Y-128926500D02*
X66449100Y-129670500D01*
X66449100Y-129670500D02*
X64993000Y-130464500D01*
X64993000Y-130464500D02*
X63562900Y-131304500D01*
X63562900Y-131304500D02*
X62159000Y-132187500D01*
X62159000Y-132187500D02*
X60781900Y-133111500D01*
X60781900Y-133111500D02*
X60406000Y-133310500D01*
X60406000Y-133310500D02*
X60027000Y-133545500D01*
X60027000Y-133545500D02*
X59665900Y-133815500D01*
X59665900Y-133815500D02*
X59498700Y-133964500D01*
X59498700Y-133964500D02*
X59344000Y-134122500D01*
X59344000Y-134122500D02*
X59204300Y-134290500D01*
X59204300Y-134290500D02*
X59082300Y-134466500D01*
X59082300Y-134466500D02*
X58980600Y-134652500D01*
X58980600Y-134652500D02*
X58902000Y-134847500D01*
X58902000Y-134847500D02*
X58848900Y-135051500D01*
X58848900Y-135051500D02*
X58824200Y-135264500D01*
X58824200Y-135264500D02*
X58830400Y-135487500D01*
X58830400Y-135487500D02*
X58870200Y-135719500D01*
X58870200Y-135719500D02*
X58986700Y-135998500D01*
X58986700Y-135998500D02*
X59122200Y-136264500D01*
X59122200Y-136264500D02*
X59274800Y-136517500D01*
X59274800Y-136517500D02*
X59442600Y-136761500D01*
X59442600Y-136761500D02*
X59816900Y-137219500D01*
X59816900Y-137219500D02*
X60230500Y-137650500D01*
X60230500Y-137650500D02*
X60668700Y-138061500D01*
X60668700Y-138061500D02*
X61116900Y-138463500D01*
X61116900Y-138463500D02*
X61560700Y-138865500D01*
X61560700Y-138865500D02*
X61985400Y-139276500D01*
X61985400Y-139276500D02*
X62536900Y-139742500D01*
X62536900Y-139742500D02*
X63098600Y-140194500D01*
X63098600Y-140194500D02*
X63670100Y-140631500D01*
X63670100Y-140631500D02*
X64251100Y-141054500D01*
X64251100Y-141054500D02*
X64841200Y-141462500D01*
X64841200Y-141462500D02*
X65440200Y-141856500D01*
X65440200Y-141856500D02*
X66047500Y-142237500D01*
X66047500Y-142237500D02*
X66663100Y-142604500D01*
X66663100Y-142604500D02*
X67286400Y-142957500D01*
X67286400Y-142957500D02*
X67917100Y-143297500D01*
X67917100Y-143297500D02*
X69199600Y-143937500D01*
X69199600Y-143937500D02*
X70507800Y-144527500D01*
X70507800Y-144527500D02*
X71839000Y-145066500D01*
X71839000Y-145066500D02*
X73190500Y-145557500D01*
X73190500Y-145557500D02*
X74559500Y-146001500D01*
X74559500Y-146001500D02*
X75943500Y-146399500D01*
X75943500Y-146399500D02*
X77339600Y-146753500D01*
X77339600Y-146753500D02*
X78745200Y-147064500D01*
X78745200Y-147064500D02*
X80157600Y-147333500D01*
X80157600Y-147333500D02*
X81573900Y-147563500D01*
X81573900Y-147563500D02*
X82991600Y-147754500D01*
X82991600Y-147754500D02*
X84667500Y-147930500D01*
X84667500Y-147930500D02*
X86347000Y-148074500D01*
X86347000Y-148074500D02*
X88029300Y-148186500D01*
X88029300Y-148186500D02*
X89713500Y-148266500D01*
X89713500Y-148266500D02*
X91399000Y-148313500D01*
X91399000Y-148313500D02*
X93084900Y-148330500D01*
X93084900Y-148330500D02*
X94770400Y-148315500D01*
X94770400Y-148315500D02*
X96454700Y-148268500D01*
X96454700Y-148268500D02*
X97698500Y-148206500D01*
X97698500Y-148206500D02*
X98941000Y-148128500D01*
X98941000Y-148128500D02*
X101422600Y-147932500D01*
X101422600Y-147932500D02*
X103900700Y-147696500D01*
X103900700Y-147696500D02*
X106376800Y-147434500D01*
X106376800Y-147434500D02*
X111327300Y-146891500D01*
X111327300Y-146891500D02*
X113804300Y-146640500D01*
X113804300Y-146640500D02*
X116284200Y-146421500D01*
X116284200Y-146421500D02*
X116469300Y-146620500D01*
X116469300Y-146620500D02*
X116669100Y-146794500D01*
X116669100Y-146794500D02*
X116882200Y-146944500D01*
X116882200Y-146944500D02*
X117107000Y-147074500D01*
X117107000Y-147074500D02*
X117342200Y-147185500D01*
X117342200Y-147185500D02*
X117586300Y-147279500D01*
X117586300Y-147279500D02*
X118095400Y-147425500D01*
X118095400Y-147425500D02*
X118622600Y-147532500D01*
X118622600Y-147532500D02*
X119156200Y-147615500D01*
X119156200Y-147615500D02*
X119684500Y-147692500D01*
X119684500Y-147692500D02*
X120196100Y-147780500D01*
X120196100Y-147780500D02*
X121768000Y-148003500D01*
X121768000Y-148003500D02*
X122545500Y-148135500D01*
X122545500Y-148135500D02*
X123314200Y-148293500D01*
X123314200Y-148293500D02*
X124071600Y-148487500D01*
X124071600Y-148487500D02*
X124815200Y-148729500D01*
X124815200Y-148729500D02*
X125181000Y-148870500D01*
X125181000Y-148870500D02*
X125542500Y-149026500D01*
X125542500Y-149026500D02*
X125899400Y-149199500D01*
X125899400Y-149199500D02*
X126251300Y-149390500D01*
X126251300Y-149390500D02*
X126512600Y-149478500D01*
X126512600Y-149478500D02*
X126777700Y-149550500D01*
X126777700Y-149550500D02*
X127046000Y-149604500D01*
X127046000Y-149604500D02*
X127316700Y-149642500D01*
X127316700Y-149642500D02*
X127589100Y-149665500D01*
X127589100Y-149665500D02*
X127862500Y-149672500D01*
X127862500Y-149672500D02*
X128409500Y-149641500D01*
X128409500Y-149641500D02*
X128951900Y-149555500D01*
X128951900Y-149555500D02*
X129484200Y-149417500D01*
X129484200Y-149417500D02*
X130000500Y-149229500D01*
X130000500Y-149229500D02*
X130495200Y-148997500D01*
X130495200Y-148997500D02*
X131406600Y-149220500D01*
X131406600Y-149220500D02*
X131868000Y-149323500D01*
X131868000Y-149323500D02*
X132332100Y-149407500D01*
X132332100Y-149407500D02*
X132798000Y-149464500D01*
X132798000Y-149464500D02*
X133264900Y-149486500D01*
X133264900Y-149486500D02*
X133731900Y-149464500D01*
X133731900Y-149464500D02*
X134198300Y-149389500D01*
X134198300Y-149389500D02*
X134162700Y-149740500D01*
X134162700Y-149740500D02*
X134170000Y-150107500D01*
X134170000Y-150107500D02*
X134225200Y-150472500D01*
X134225200Y-150472500D02*
X134272400Y-150649500D01*
X134272400Y-150649500D02*
X134333300Y-150819500D01*
X134333300Y-150819500D02*
X134408700Y-150979500D01*
X134408700Y-150979500D02*
X134499100Y-151129500D01*
X134499100Y-151129500D02*
X134605300Y-151265500D01*
X134605300Y-151265500D02*
X134727700Y-151385500D01*
X134727700Y-151385500D02*
X134867000Y-151488500D01*
X134867000Y-151488500D02*
X135023900Y-151570500D01*
X135023900Y-151570500D02*
X135199000Y-151631500D01*
X135199000Y-151631500D02*
X135392700Y-151667500D01*
X135392700Y-151667500D02*
X136152100Y-151860500D01*
X136152100Y-151860500D02*
X136914200Y-152053500D01*
X136914200Y-152053500D02*
X137298200Y-152122500D01*
X137298200Y-152122500D02*
X137685200Y-152159500D01*
X137685200Y-152159500D02*
X138075800Y-152155500D01*
X138075800Y-152155500D02*
X138471000Y-152097500D01*
X138471000Y-152097500D02*
X138842300Y-152038500D01*
X138842300Y-152038500D02*
X139209200Y-151957500D01*
X139209200Y-151957500D02*
X139570900Y-151856500D01*
X139570900Y-151856500D02*
X139926700Y-151735500D01*
X139926700Y-151735500D02*
X140276100Y-151596500D01*
X140276100Y-151596500D02*
X140618300Y-151440500D01*
X140618300Y-151440500D02*
X140952600Y-151268500D01*
X140952600Y-151268500D02*
X141278400Y-151081500D01*
X141278400Y-151081500D02*
X141592900Y-151316500D01*
X141592900Y-151316500D02*
X141924500Y-151507500D01*
X141924500Y-151507500D02*
X142270500Y-151656500D01*
X142270500Y-151656500D02*
X142628300Y-151765500D01*
X142628300Y-151765500D02*
X142995400Y-151836500D01*
X142995400Y-151836500D02*
X143369200Y-151871500D01*
X143369200Y-151871500D02*
X143747100Y-151872500D01*
X143747100Y-151872500D02*
X144127100Y-151841500D01*
X144127100Y-151841500D02*
X144505100Y-151780500D01*
X144505100Y-151780500D02*
X144880100Y-151690500D01*
X144880100Y-151690500D02*
X145249100Y-151575500D01*
X145249100Y-151575500D02*
X145609100Y-151435500D01*
X145609100Y-151435500D02*
X145958100Y-151272500D01*
X145958100Y-151272500D02*
X146293100Y-151089500D01*
X146293100Y-151089500D02*
X146612100Y-150888500D01*
X146612100Y-150888500D02*
X146911100Y-150671500D01*
X146911100Y-150671500D02*
X147319100Y-150727500D01*
X147319100Y-150727500D02*
X147734100Y-150752500D01*
X147734100Y-150752500D02*
X148152100Y-150745500D01*
X148152100Y-150745500D02*
X148570100Y-150707500D01*
X148570100Y-150707500D02*
X148985100Y-150639500D01*
X148985100Y-150639500D02*
X149395100Y-150539500D01*
X149395100Y-150539500D02*
X149795100Y-150410500D01*
X149795100Y-150410500D02*
X150184100Y-150250500D01*
X150184100Y-150250500D02*
X150557100Y-150062500D01*
X150557100Y-150062500D02*
X150911100Y-149843500D01*
X150911100Y-149843500D02*
X151244100Y-149597500D01*
X151244100Y-149597500D02*
X151553100Y-149321500D01*
X151553100Y-149321500D02*
X151834100Y-149018500D01*
X151834100Y-149018500D02*
X152084100Y-148686500D01*
X152084100Y-148686500D02*
X152300100Y-148328500D01*
X152300100Y-148328500D02*
X152479100Y-147942500D01*
X152479100Y-147942500D02*
X152568100Y-147703500D01*
X152568100Y-147703500D02*
X152631100Y-147463500D01*
X152631100Y-147463500D02*
X152668100Y-147222500D01*
X152668100Y-147222500D02*
X152681100Y-146980500D01*
X152681100Y-146980500D02*
X152671100Y-146739500D01*
X152671100Y-146739500D02*
X152639100Y-146500500D01*
X152639100Y-146500500D02*
X152587100Y-146263500D01*
X152587100Y-146263500D02*
X152516100Y-146029500D01*
X152516100Y-146029500D02*
X152428100Y-145800500D01*
X152428100Y-145800500D02*
X152324100Y-145577500D01*
X152324100Y-145577500D02*
X152205100Y-145360500D01*
X152205100Y-145360500D02*
X152073100Y-145150500D01*
X152073100Y-145150500D02*
X151776100Y-144755500D01*
X151776100Y-144755500D02*
X151442100Y-144401500D01*
X151442100Y-144401500D02*
X151200100Y-144156500D01*
X151200100Y-144156500D02*
X151081100Y-144006500D01*
X151081100Y-144006500D02*
X150987100Y-143850500D01*
X150987100Y-143850500D02*
X150938100Y-143700500D01*
X150938100Y-143700500D02*
X150935100Y-143629500D01*
X150935100Y-143629500D02*
X150951100Y-143563500D01*
X150951100Y-143563500D02*
X150987100Y-143504500D01*
X150987100Y-143504500D02*
X151045100Y-143451500D01*
X151045100Y-143451500D02*
X151129100Y-143408500D01*
X151129100Y-143408500D02*
X151239100Y-143374500D01*
X151239100Y-143374500D02*
X151687100Y-143323500D01*
X151687100Y-143323500D02*
X152138100Y-143289500D01*
X152138100Y-143289500D02*
X153045100Y-143229500D01*
X153045100Y-143229500D02*
X153497100Y-143182500D01*
X153497100Y-143182500D02*
X153944100Y-143111500D01*
X153944100Y-143111500D02*
X154384100Y-143006500D01*
X154384100Y-143006500D02*
X154816100Y-142856500D01*
X154816100Y-142856500D02*
X155141100Y-142727500D01*
X155141100Y-142727500D02*
X155455100Y-142578500D01*
X155455100Y-142578500D02*
X155760100Y-142410500D01*
X155760100Y-142410500D02*
X156054100Y-142223500D01*
X156054100Y-142223500D02*
X156337100Y-142019500D01*
X156337100Y-142019500D02*
X156606100Y-141798500D01*
X156606100Y-141798500D02*
X156863100Y-141562500D01*
X156863100Y-141562500D02*
X157104100Y-141311500D01*
X157104100Y-141311500D02*
X156966100Y-141669500D01*
X156966100Y-141669500D02*
X156813100Y-142027500D01*
X156813100Y-142027500D02*
X156661100Y-142385500D01*
X156661100Y-142385500D02*
X156523100Y-142747500D01*
X156523100Y-142747500D02*
X156413100Y-143114500D01*
X156413100Y-143114500D02*
X156343100Y-143488500D01*
X156343100Y-143488500D02*
X156328100Y-143679500D01*
X156328100Y-143679500D02*
X156328100Y-143871500D01*
X156328100Y-143871500D02*
X156345100Y-144067500D01*
X156345100Y-144067500D02*
X156381100Y-144265500D01*
X156381100Y-144265500D02*
X156467100Y-144696500D01*
X156467100Y-144696500D02*
X156602100Y-145105500D01*
X156602100Y-145105500D02*
X156781100Y-145493500D01*
X156781100Y-145493500D02*
X157001100Y-145857500D01*
X157001100Y-145857500D02*
X157258100Y-146195500D01*
X157258100Y-146195500D02*
X157549100Y-146505500D01*
X157549100Y-146505500D02*
X157870100Y-146787500D01*
X157870100Y-146787500D02*
X158217100Y-147038500D01*
X158217100Y-147038500D02*
X158586100Y-147257500D01*
X158586100Y-147257500D02*
X158975100Y-147441500D01*
X158975100Y-147441500D02*
X159379100Y-147590500D01*
X159379100Y-147590500D02*
X159795100Y-147702500D01*
X159795100Y-147702500D02*
X160219100Y-147775500D01*
X160219100Y-147775500D02*
X160647100Y-147806500D01*
X160647100Y-147806500D02*
X161076100Y-147796500D01*
X161076100Y-147796500D02*
X161503100Y-147741500D01*
X161503100Y-147741500D02*
X163096100Y-147562500D01*
X163096100Y-147562500D02*
X163892100Y-147459500D01*
X163892100Y-147459500D02*
X164685100Y-147338500D01*
X164685100Y-147338500D02*
X165473100Y-147192500D01*
X165473100Y-147192500D02*
X166254100Y-147016500D01*
X166254100Y-147016500D02*
X167026100Y-146802500D01*
X167026100Y-146802500D02*
X167788100Y-146543500D01*
X167788100Y-146543500D02*
X168863100Y-146140500D01*
X168863100Y-146140500D02*
X169400100Y-145912500D01*
X169400100Y-145912500D02*
X169917100Y-145651500D01*
X169917100Y-145651500D02*
X170163100Y-145504500D01*
X170163100Y-145504500D02*
X170399100Y-145345500D01*
X170399100Y-145345500D02*
X170624100Y-145172500D01*
X170624100Y-145172500D02*
X170834100Y-144984500D01*
X170834100Y-144984500D02*
X171029100Y-144778500D01*
X171029100Y-144778500D02*
X171206100Y-144554500D01*
X171206100Y-144554500D02*
X171364100Y-144310500D01*
X171364100Y-144310500D02*
X171502100Y-144046500D01*
X171502100Y-144046500D02*
X171670100Y-143704500D01*
X171670100Y-143704500D02*
X171804100Y-143345500D01*
X171804100Y-143345500D02*
X171903100Y-142973500D01*
X171903100Y-142973500D02*
X171967100Y-142592500D01*
X171967100Y-142592500D02*
X171996100Y-142206500D01*
X171996100Y-142206500D02*
X171991100Y-141819500D01*
X171991100Y-141819500D02*
X171951100Y-141435500D01*
X171951100Y-141435500D02*
X171876100Y-141058500D01*
X171876100Y-141058500D02*
X171766100Y-140691500D01*
X171766100Y-140691500D02*
X171622100Y-140339500D01*
X171622100Y-140339500D02*
X171444100Y-140005500D01*
X171444100Y-140005500D02*
X171230100Y-139694500D01*
X171230100Y-139694500D02*
X170982100Y-139409500D01*
X170982100Y-139409500D02*
X170700100Y-139154500D01*
X170700100Y-139154500D02*
X170382100Y-138934500D01*
X170382100Y-138934500D02*
X170031100Y-138752500D01*
X170031100Y-138752500D02*
X169451100Y-138481500D01*
X169451100Y-138481500D02*
X168855100Y-138257500D01*
X168855100Y-138257500D02*
X168245100Y-138076500D01*
X168245100Y-138076500D02*
X167624100Y-137931500D01*
X167624100Y-137931500D02*
X166995100Y-137816500D01*
X166995100Y-137816500D02*
X166361100Y-137725500D01*
X166361100Y-137725500D02*
X165093100Y-137592500D01*
X165093100Y-137592500D02*
X165340100Y-136781500D01*
X165340100Y-136781500D02*
X165604100Y-135976500D01*
X165604100Y-135976500D02*
X165882100Y-135178500D01*
X165882100Y-135178500D02*
X166174100Y-134385500D01*
X166174100Y-134385500D02*
X166796100Y-132814500D01*
X166796100Y-132814500D02*
X167460100Y-131261500D01*
X167460100Y-131261500D02*
X168159100Y-129722500D01*
X168159100Y-129722500D02*
X168884100Y-128194500D01*
X168884100Y-128194500D02*
X170378100Y-125156500D01*
X170378100Y-125156500D02*
X171876100Y-122120500D01*
X171876100Y-122120500D02*
X172606100Y-120594500D01*
X172606100Y-120594500D02*
X173311100Y-119058500D01*
X173311100Y-119058500D02*
X173984100Y-117508800D01*
X173984100Y-117508800D02*
X174617100Y-115942800D01*
X174617100Y-115942800D02*
X175200100Y-114356500D01*
X175200100Y-114356500D02*
X175470100Y-113554700D01*
X175470100Y-113554700D02*
X175725100Y-112746600D01*
X175725100Y-112746600D02*
X175959100Y-111740400D01*
X175959100Y-111740400D02*
X176157100Y-110724600D01*
X176157100Y-110724600D02*
X176315100Y-109701200D01*
X176315100Y-109701200D02*
X176427100Y-108672500D01*
X176427100Y-108672500D02*
X176489100Y-107640700D01*
X176489100Y-107640700D02*
X176493100Y-106607800D01*
X176493100Y-106607800D02*
X176473100Y-106091700D01*
X176473100Y-106091700D02*
X176437100Y-105576200D01*
X176437100Y-105576200D02*
X176384100Y-105061600D01*
X176384100Y-105061600D02*
X176313100Y-104548000D01*
X176313100Y-104548000D02*
X177230100Y-104347800D01*
X177230100Y-104347800D02*
X178134100Y-104111800D01*
X178134100Y-104111800D02*
X179027100Y-103841900D01*
X179027100Y-103841900D02*
X179909100Y-103540600D01*
X179909100Y-103540600D02*
X180780100Y-103209800D01*
X180780100Y-103209800D02*
X181641100Y-102851900D01*
X181641100Y-102851900D02*
X182491100Y-102468900D01*
X182491100Y-102468900D02*
X183332100Y-102063100D01*
X183332100Y-102063100D02*
X184163100Y-101636600D01*
X184163100Y-101636600D02*
X184986100Y-101191600D01*
X184986100Y-101191600D02*
X185800100Y-100730300D01*
X185800100Y-100730300D02*
X186607100Y-100254900D01*
X186607100Y-100254900D02*
X188197100Y-99270200D01*
X188197100Y-99270200D02*
X189759100Y-98255000D01*
X189759100Y-98255000D02*
X189717100Y-98935500D01*
X189717100Y-98935500D02*
X189719100Y-99293300D01*
X189719100Y-99293300D02*
X189752100Y-99645900D01*
X189752100Y-99645900D02*
X189828100Y-99980800D01*
X189828100Y-99980800D02*
X189887100Y-100137700D01*
X189887100Y-100137700D02*
X189961100Y-100285400D01*
X189961100Y-100285400D02*
X190052100Y-100422400D01*
X190052100Y-100422400D02*
X190162100Y-100547000D01*
X190162100Y-100547000D02*
X190292100Y-100657800D01*
X190292100Y-100657800D02*
X190444100Y-100753100D01*
X190444100Y-100753100D02*
X190631100Y-100793200D01*
X190631100Y-100793200D02*
X190810100Y-100802700D01*
X190810100Y-100802700D02*
X190982100Y-100784600D01*
X190982100Y-100784600D02*
X191146100Y-100741400D01*
X191146100Y-100741400D02*
X191303100Y-100676000D01*
X191303100Y-100676000D02*
X191453100Y-100590900D01*
X191453100Y-100590900D02*
X191597100Y-100489000D01*
X191597100Y-100489000D02*
X191735100Y-100373000D01*
X191735100Y-100373000D02*
X191995100Y-100109500D01*
X191995100Y-100109500D02*
X192234100Y-99822100D01*
X192234100Y-99822100D02*
X192664100Y-99263000D01*
X192664100Y-99263000D02*
X193494100Y-98089600D01*
X193494100Y-98089600D02*
X194339100Y-96926500D01*
X194339100Y-96926500D02*
X195209100Y-95783300D01*
X195209100Y-95783300D02*
X196118100Y-94669500D01*
X196118100Y-94669500D02*
X196442100Y-94244000D01*
X196442100Y-94244000D02*
X196758100Y-93805200D01*
X196758100Y-93805200D02*
X197062100Y-93353800D01*
X197062100Y-93353800D02*
X197352100Y-92890500D01*
X197352100Y-92890500D02*
X197626100Y-92416100D01*
X197626100Y-92416100D02*
X197880100Y-91931500D01*
X197880100Y-91931500D02*
X198112100Y-91437200D01*
X198112100Y-91437200D02*
X198319100Y-90934200D01*
X198319100Y-90934200D02*
X198498100Y-90423100D01*
X198498100Y-90423100D02*
X198647100Y-89904600D01*
X198647100Y-89904600D02*
X198763100Y-89379700D01*
X198763100Y-89379700D02*
X198844100Y-88848900D01*
X198844100Y-88848900D02*
X198886100Y-88313100D01*
X198886100Y-88313100D02*
X198886100Y-87773000D01*
X198886100Y-87773000D02*
X198844100Y-87229400D01*
X198844100Y-87229400D02*
X198754100Y-86682900D01*
X198754100Y-86682900D02*
X198675100Y-86351200D01*
X198675100Y-86351200D02*
X198571100Y-86028200D01*
X198571100Y-86028200D02*
X198446100Y-85712400D01*
X198446100Y-85712400D02*
X198305100Y-85402200D01*
X198305100Y-85402200D02*
X198000100Y-84792600D01*
X198000100Y-84792600D02*
X197700100Y-84186700D01*
X197700100Y-84186700D02*
X197880100Y-84137800D01*
X197880100Y-84137800D02*
X198061100Y-84109400D01*
X198061100Y-84109400D02*
X198243100Y-84098900D01*
X198243100Y-84098900D02*
X198426100Y-84104200D01*
X198426100Y-84104200D02*
X198794100Y-84152500D01*
X198794100Y-84152500D02*
X199165100Y-84235600D01*
X199165100Y-84235600D02*
X199909100Y-84431400D01*
X199909100Y-84431400D02*
X200281100Y-84506700D01*
X200281100Y-84506700D02*
X200652100Y-84542100D01*
X200652100Y-84542100D02*
X200903100Y-84567600D01*
X200903100Y-84567600D02*
X201158100Y-84542000D01*
X201158100Y-84542000D02*
X201401100Y-84468300D01*
X201401100Y-84468300D02*
X201620100Y-84349500D01*
X201620100Y-84349500D02*
X201715100Y-84274000D01*
X201715100Y-84274000D02*
X201798100Y-84188400D01*
X201798100Y-84188400D02*
X201867100Y-84093000D01*
X201867100Y-84093000D02*
X201921100Y-83988100D01*
X201921100Y-83988100D02*
X201957100Y-83874100D01*
X201957100Y-83874100D02*
X201975100Y-83751500D01*
X201975100Y-83751500D02*
X201971100Y-83620500D01*
X201971100Y-83620500D02*
X201944100Y-83481600D01*
X201944100Y-83481600D02*
X201854100Y-83262400D01*
X201854100Y-83262400D02*
X201745100Y-83058000D01*
X201745100Y-83058000D02*
X201619100Y-82866800D01*
X201619100Y-82866800D02*
X201478100Y-82687400D01*
X201478100Y-82687400D02*
X201158100Y-82357900D01*
X201158100Y-82357900D02*
X200801100Y-82057700D01*
X200801100Y-82057700D02*
X200041100Y-81497400D01*
X200041100Y-81497400D02*
X199669100Y-81213600D01*
X199669100Y-81213600D02*
X199323100Y-80911400D01*
X199323100Y-80911400D02*
X198174100Y-79974900D01*
X198174100Y-79974900D02*
X197046100Y-79009800D01*
X197046100Y-79009800D02*
X195946100Y-78012000D01*
X195946100Y-78012000D02*
X194882100Y-76977400D01*
X194882100Y-76977400D02*
X194366100Y-76445100D01*
X194366100Y-76445100D02*
X193862100Y-75902000D01*
X193862100Y-75902000D02*
X193371100Y-75347700D01*
X193371100Y-75347700D02*
X192893100Y-74781600D01*
X192893100Y-74781600D02*
X192430100Y-74203300D01*
X192430100Y-74203300D02*
X191982100Y-73612300D01*
X191982100Y-73612300D02*
X191551100Y-73007900D01*
X191551100Y-73007900D02*
X191138100Y-72389800D01*
X191138100Y-72389800D02*
X190986100Y-72171200D01*
X190986100Y-72171200D02*
X190820100Y-71962800D01*
X190820100Y-71962800D02*
X190465100Y-71562200D01*
X190465100Y-71562200D02*
X190119100Y-71159900D01*
X190119100Y-71159900D02*
X189963100Y-70949300D01*
X189963100Y-70949300D02*
X189827100Y-70727700D01*
X189827100Y-70727700D02*
X189831100Y-70579700D01*
X189831100Y-70579700D02*
X189856100Y-70442100D01*
X189856100Y-70442100D02*
X189900100Y-70313700D01*
X189900100Y-70313700D02*
X189960100Y-70193300D01*
X189960100Y-70193300D02*
X190119100Y-69971400D01*
X190119100Y-69971400D02*
X190314100Y-69766600D01*
X190314100Y-69766600D02*
X190735100Y-69368400D01*
X190735100Y-69368400D02*
X190923100Y-69155200D01*
X190923100Y-69155200D02*
X191003100Y-69040800D01*
X191003100Y-69040800D02*
X191070100Y-68919500D01*
X191070100Y-68919500D02*
X191522100Y-68269500D01*
X191522100Y-68269500D02*
X191927100Y-67597100D01*
X191927100Y-67597100D02*
X192287100Y-66904200D01*
X192287100Y-66904200D02*
X192605100Y-66192900D01*
X192605100Y-66192900D02*
X192882100Y-65465200D01*
X192882100Y-65465200D02*
X193119100Y-64723000D01*
X193119100Y-64723000D02*
X193318100Y-63968500D01*
X193318100Y-63968500D02*
X193481100Y-63203700D01*
X193481100Y-63203700D02*
X193610100Y-62430500D01*
X193610100Y-62430500D02*
X193707100Y-61651100D01*
X193707100Y-61651100D02*
X193772100Y-60867400D01*
X193772100Y-60867400D02*
X193807100Y-60081500D01*
X193807100Y-60081500D02*
X193816100Y-59295400D01*
X193816100Y-59295400D02*
X193798100Y-58511200D01*
X193798100Y-58511200D02*
X193755100Y-57730800D01*
X193755100Y-57730800D02*
X193690100Y-56956200D01*
X193690100Y-56956200D02*
X193594100Y-55992100D01*
X193594100Y-55992100D02*
X193473100Y-55031500D01*
X193473100Y-55031500D02*
X193332100Y-54074000D01*
X193332100Y-54074000D02*
X193174100Y-53119100D01*
X193174100Y-53119100D02*
X192822100Y-51215100D01*
X192822100Y-51215100D02*
X192446100Y-49315600D01*
X192446100Y-49315600D02*
X191214100Y-49455500D01*
X191214100Y-49455500D02*
X189990100Y-49639000D01*
X189990100Y-49639000D02*
X188776100Y-49863800D01*
X188776100Y-49863800D02*
X187570100Y-50127700D01*
X187570100Y-50127700D02*
X186374100Y-50428400D01*
X186374100Y-50428400D02*
X185186100Y-50763800D01*
X185186100Y-50763800D02*
X184007100Y-51131600D01*
X184007100Y-51131600D02*
X182838100Y-51529600D01*
X182838100Y-51529600D02*
X181677100Y-51955500D01*
X181677100Y-51955500D02*
X180525100Y-52407200D01*
X180525100Y-52407200D02*
X179382100Y-52882300D01*
X179382100Y-52882300D02*
X178248100Y-53378700D01*
X178248100Y-53378700D02*
X177122100Y-53894200D01*
X177122100Y-53894200D02*
X176006100Y-54426400D01*
X176006100Y-54426400D02*
X174899100Y-54973200D01*
X174899100Y-54973200D02*
X173800100Y-55532400D01*
X173800100Y-55532400D02*
X173350100Y-55364300D01*
X173350100Y-55364300D02*
X172895100Y-55211100D01*
X172895100Y-55211100D02*
X171978100Y-54922500D01*
X171978100Y-54922500D02*
X171522100Y-54773800D01*
X171522100Y-54773800D02*
X171070100Y-54613200D01*
X171070100Y-54613200D02*
X170625100Y-54434000D01*
X170625100Y-54434000D02*
X170190100Y-54229700D01*
X170190100Y-54229700D02*
X170878100Y-53767700D01*
X170878100Y-53767700D02*
X171221100Y-53502600D01*
X171221100Y-53502600D02*
X171535100Y-53210400D01*
X171535100Y-53210400D02*
X171674100Y-53053300D01*
X171674100Y-53053300D02*
X171796100Y-52888200D01*
X171796100Y-52888200D02*
X171900100Y-52714800D01*
X171900100Y-52714800D02*
X171983100Y-52532800D01*
X171983100Y-52532800D02*
X172042100Y-52341700D01*
X172042100Y-52341700D02*
X172073100Y-52141200D01*
X172073100Y-52141200D02*
X172075100Y-51930800D01*
X172075100Y-51930800D02*
X172044100Y-51710100D01*
X172044100Y-51710100D02*
X171992100Y-51552900D01*
X171992100Y-51552900D02*
X171925100Y-51408900D01*
X171925100Y-51408900D02*
X171842100Y-51277800D01*
X171842100Y-51277800D02*
X171746100Y-51159400D01*
X171746100Y-51159400D02*
X171638100Y-51053500D01*
X171638100Y-51053500D02*
X171519100Y-50960000D01*
X171519100Y-50960000D02*
X171255100Y-50808900D01*
X171255100Y-50808900D02*
X170963100Y-50704500D01*
X170963100Y-50704500D02*
X170655100Y-50645100D01*
X170655100Y-50645100D02*
X170342100Y-50629000D01*
X170342100Y-50629000D02*
X170033100Y-50654500D01*
X170033100Y-50654500D02*
X169637100Y-50659200D01*
X169637100Y-50659200D02*
X169242100Y-50681000D01*
X169242100Y-50681000D02*
X168848100Y-50719100D01*
X168848100Y-50719100D02*
X168455100Y-50772800D01*
X168455100Y-50772800D02*
X167678100Y-50923800D01*
X167678100Y-50923800D02*
X166913100Y-51128100D01*
X166913100Y-51128100D02*
X167373100Y-50390900D01*
X167373100Y-50390900D02*
X167600100Y-50004400D01*
X167600100Y-50004400D02*
X167801100Y-49607000D01*
X167801100Y-49607000D02*
X167961100Y-49199500D01*
X167961100Y-49199500D02*
X168019100Y-48992100D01*
X168019100Y-48992100D02*
X168060100Y-48782500D01*
X168060100Y-48782500D02*
X168083100Y-48570600D01*
X168083100Y-48570600D02*
X168083100Y-48356700D01*
X168083100Y-48356700D02*
X168061100Y-48140800D01*
X168061100Y-48140800D02*
X168013100Y-47923000D01*
X168013100Y-47923000D02*
X167903100Y-47743300D01*
X167903100Y-47743300D02*
X167773100Y-47589800D01*
X167773100Y-47589800D02*
X167626100Y-47461100D01*
X167626100Y-47461100D02*
X167464100Y-47355900D01*
X167464100Y-47355900D02*
X167289100Y-47273000D01*
X167289100Y-47273000D02*
X167103100Y-47211100D01*
X167103100Y-47211100D02*
X166909100Y-47168800D01*
X166909100Y-47168800D02*
X166708100Y-47144900D01*
X166708100Y-47144900D02*
X166503100Y-47138000D01*
X166503100Y-47138000D02*
X166296100Y-47146900D01*
X166296100Y-47146900D02*
X165884100Y-47206900D01*
X165884100Y-47206900D02*
X165491100Y-47314400D01*
X165491100Y-47314400D02*
X165134100Y-47459100D01*
X165134100Y-47459100D02*
X164811100Y-47654400D01*
X164811100Y-47654400D02*
X164514100Y-47881500D01*
X164514100Y-47881500D02*
X164233100Y-48130400D01*
X164233100Y-48130400D02*
X163962100Y-48391000D01*
X163962100Y-48391000D02*
X163415100Y-48908000D01*
X163415100Y-48908000D02*
X163124100Y-49144400D01*
X163124100Y-49144400D02*
X162811100Y-49352700D01*
X162811100Y-49352700D02*
X162735100Y-49082400D01*
X162735100Y-49082400D02*
X162670100Y-48803700D01*
X162670100Y-48803700D02*
X162534100Y-48246100D01*
X162534100Y-48246100D02*
X162442100Y-47979400D01*
X162442100Y-47979400D02*
X162318100Y-47729000D01*
X162318100Y-47729000D02*
X162153100Y-47501200D01*
X162153100Y-47501200D02*
X162052100Y-47397600D01*
X162052100Y-47397600D02*
X161936100Y-47302000D01*
X161936100Y-47302000D02*
X161783100Y-47169700D01*
X161783100Y-47169700D02*
X161615100Y-47060900D01*
X161615100Y-47060900D02*
X161434100Y-46975300D01*
X161434100Y-46975300D02*
X161243100Y-46912900D01*
X161243100Y-46912900D02*
X161045100Y-46873600D01*
X161045100Y-46873600D02*
X160844100Y-46857400D01*
X160844100Y-46857400D02*
X160643100Y-46864000D01*
X160643100Y-46864000D02*
X160446100Y-46893400D01*
X160446100Y-46893400D02*
X160255100Y-46945600D01*
X160255100Y-46945600D02*
X160074100Y-47020400D01*
X160074100Y-47020400D02*
X159906100Y-47117700D01*
X159906100Y-47117700D02*
X159754100Y-47237400D01*
X159754100Y-47237400D02*
X159622100Y-47379400D01*
X159622100Y-47379400D02*
X159513100Y-47543700D01*
X159513100Y-47543700D02*
X159430100Y-47730200D01*
X159430100Y-47730200D02*
X159376100Y-47938600D01*
X159376100Y-47938600D02*
X159347100Y-48062000D01*
X159347100Y-48062000D02*
X159323100Y-48081700D01*
X159323100Y-48081700D02*
X159293100Y-48077900D01*
X159293100Y-48077900D02*
X159219100Y-48013200D01*
X159219100Y-48013200D02*
X159131100Y-47895000D01*
X159131100Y-47895000D02*
X158939100Y-47605500D01*
X158939100Y-47605500D02*
X158847100Y-47488100D01*
X158847100Y-47488100D02*
X158765100Y-47425000D01*
X158765100Y-47425000D02*
X157896100Y-46618700D01*
X157896100Y-46618700D02*
X157481100Y-46199400D01*
X157481100Y-46199400D02*
X157093100Y-45747800D01*
X157093100Y-45747800D02*
X156888100Y-45533400D01*
X156888100Y-45533400D02*
X156669100Y-45333600D01*
X156669100Y-45333600D02*
X156436100Y-45150400D01*
X156436100Y-45150400D02*
X156191100Y-44986100D01*
X156191100Y-44986100D02*
X155933100Y-44842700D01*
X155933100Y-44842700D02*
X155663100Y-44722500D01*
X155663100Y-44722500D02*
X155383100Y-44627400D01*
X155383100Y-44627400D02*
X155093100Y-44559700D01*
X155093100Y-44559700D02*
X154993100Y-44837100D01*
X154993100Y-44837100D02*
X154993100Y-44837100D01*
X154993100Y-44837100D02*
X154993100Y-44837100D01*
M02*
