%TF.GenerationSoftware,KiCad,Pcbnew,9.0.6*%
%TF.CreationDate,2025-12-30T06:04:07+01:00*%
%TF.ProjectId,Rocket,526f636b-6574-42e6-9b69-6361645f7063,rev?*%
%TF.SameCoordinates,Original*%
%TF.FileFunction,Legend,Bot*%
%TF.FilePolarity,Positive*%
%FSLAX46Y46*%
G04 Gerber Fmt 4.6, Leading zero omitted, Abs format (unit mm)*
G04 Created by KiCad (PCBNEW 9.0.6) date 2025-12-30 06:04:07*
%MOMM*%
%LPD*%
G01*
G04 APERTURE LIST*
%ADD10C,0.150000*%
%ADD11C,0.050000*%
%ADD12C,0.120000*%
%ADD13C,0.010000*%
G04 APERTURE END LIST*
D10*
X161514047Y-132816532D02*
X165300000Y-132800000D01*
X161514046Y-132816532D02*
G75*
G02*
X165300000Y-132800000I1885954J1616532D01*
G01*
X164724893Y-122700456D02*
G75*
G02*
X168510850Y-122683927I1885957J1616536D01*
G01*
X164724894Y-122700456D02*
X168510847Y-122683924D01*
X159463220Y-131146009D02*
X159129887Y-131146009D01*
X158987030Y-131669819D02*
X159463220Y-131669819D01*
X159463220Y-131669819D02*
X159463220Y-130669819D01*
X159463220Y-130669819D02*
X158987030Y-130669819D01*
X164106077Y-125669819D02*
X163534649Y-125669819D01*
X163820363Y-126669819D02*
X163820363Y-125669819D01*
X163248934Y-125765057D02*
X163201315Y-125717438D01*
X163201315Y-125717438D02*
X163106077Y-125669819D01*
X163106077Y-125669819D02*
X162867982Y-125669819D01*
X162867982Y-125669819D02*
X162772744Y-125717438D01*
X162772744Y-125717438D02*
X162725125Y-125765057D01*
X162725125Y-125765057D02*
X162677506Y-125860295D01*
X162677506Y-125860295D02*
X162677506Y-125955533D01*
X162677506Y-125955533D02*
X162725125Y-126098390D01*
X162725125Y-126098390D02*
X163296553Y-126669819D01*
X163296553Y-126669819D02*
X162677506Y-126669819D01*
X160961904Y-78545180D02*
X160961904Y-79545180D01*
X160390476Y-78545180D02*
X160819047Y-79116609D01*
X160390476Y-79545180D02*
X160961904Y-78973752D01*
X136661904Y-78645180D02*
X136661904Y-79645180D01*
X136090476Y-78645180D02*
X136519047Y-79216609D01*
X136090476Y-79645180D02*
X136661904Y-79073752D01*
X162463220Y-121146009D02*
X162129887Y-121146009D01*
X161987030Y-121669819D02*
X162463220Y-121669819D01*
X162463220Y-121669819D02*
X162463220Y-120669819D01*
X162463220Y-120669819D02*
X161987030Y-120669819D01*
X167106077Y-115669819D02*
X166534649Y-115669819D01*
X166820363Y-116669819D02*
X166820363Y-115669819D01*
X165677506Y-116669819D02*
X166248934Y-116669819D01*
X165963220Y-116669819D02*
X165963220Y-115669819D01*
X165963220Y-115669819D02*
X166058458Y-115812676D01*
X166058458Y-115812676D02*
X166153696Y-115907914D01*
X166153696Y-115907914D02*
X166248934Y-115955533D01*
X151866666Y-125988152D02*
X151866666Y-126654819D01*
X152104761Y-125607200D02*
X152342856Y-126321485D01*
X152342856Y-126321485D02*
X151723809Y-126321485D01*
X151438094Y-125654819D02*
X150771428Y-125654819D01*
X150771428Y-125654819D02*
X151199999Y-126654819D01*
X149961904Y-125988152D02*
X149961904Y-126654819D01*
X150390475Y-125988152D02*
X150390475Y-126511961D01*
X150390475Y-126511961D02*
X150342856Y-126607200D01*
X150342856Y-126607200D02*
X150247618Y-126654819D01*
X150247618Y-126654819D02*
X150104761Y-126654819D01*
X150104761Y-126654819D02*
X150009523Y-126607200D01*
X150009523Y-126607200D02*
X149961904Y-126559580D01*
X149152380Y-126131009D02*
X149485713Y-126131009D01*
X149485713Y-126654819D02*
X149485713Y-125654819D01*
X149485713Y-125654819D02*
X149009523Y-125654819D01*
X177361904Y-108667200D02*
X177219047Y-108714819D01*
X177219047Y-108714819D02*
X176980952Y-108714819D01*
X176980952Y-108714819D02*
X176885714Y-108667200D01*
X176885714Y-108667200D02*
X176838095Y-108619580D01*
X176838095Y-108619580D02*
X176790476Y-108524342D01*
X176790476Y-108524342D02*
X176790476Y-108429104D01*
X176790476Y-108429104D02*
X176838095Y-108333866D01*
X176838095Y-108333866D02*
X176885714Y-108286247D01*
X176885714Y-108286247D02*
X176980952Y-108238628D01*
X176980952Y-108238628D02*
X177171428Y-108191009D01*
X177171428Y-108191009D02*
X177266666Y-108143390D01*
X177266666Y-108143390D02*
X177314285Y-108095771D01*
X177314285Y-108095771D02*
X177361904Y-108000533D01*
X177361904Y-108000533D02*
X177361904Y-107905295D01*
X177361904Y-107905295D02*
X177314285Y-107810057D01*
X177314285Y-107810057D02*
X177266666Y-107762438D01*
X177266666Y-107762438D02*
X177171428Y-107714819D01*
X177171428Y-107714819D02*
X176933333Y-107714819D01*
X176933333Y-107714819D02*
X176790476Y-107762438D01*
X175838095Y-108714819D02*
X176409523Y-108714819D01*
X176123809Y-108714819D02*
X176123809Y-107714819D01*
X176123809Y-107714819D02*
X176219047Y-107857676D01*
X176219047Y-107857676D02*
X176314285Y-107952914D01*
X176314285Y-107952914D02*
X176409523Y-108000533D01*
X153576757Y-99828319D02*
X154148185Y-99828319D01*
X153862471Y-99828319D02*
X153862471Y-98828319D01*
X153862471Y-98828319D02*
X153957709Y-98971176D01*
X153957709Y-98971176D02*
X154052947Y-99066414D01*
X154052947Y-99066414D02*
X154148185Y-99114033D01*
X153148185Y-99828319D02*
X153148185Y-98828319D01*
X153148185Y-98828319D02*
X152576757Y-99828319D01*
X152576757Y-99828319D02*
X152576757Y-98828319D01*
X151671995Y-99161652D02*
X151671995Y-99828319D01*
X151910090Y-98780700D02*
X152148185Y-99494985D01*
X152148185Y-99494985D02*
X151529138Y-99494985D01*
X150624376Y-99828319D02*
X151195804Y-99828319D01*
X150910090Y-99828319D02*
X150910090Y-98828319D01*
X150910090Y-98828319D02*
X151005328Y-98971176D01*
X151005328Y-98971176D02*
X151100566Y-99066414D01*
X151100566Y-99066414D02*
X151195804Y-99114033D01*
X149767233Y-99161652D02*
X149767233Y-99828319D01*
X150005328Y-98780700D02*
X150243423Y-99494985D01*
X150243423Y-99494985D02*
X149624376Y-99494985D01*
X149100566Y-99256890D02*
X149195804Y-99209271D01*
X149195804Y-99209271D02*
X149243423Y-99161652D01*
X149243423Y-99161652D02*
X149291042Y-99066414D01*
X149291042Y-99066414D02*
X149291042Y-99018795D01*
X149291042Y-99018795D02*
X149243423Y-98923557D01*
X149243423Y-98923557D02*
X149195804Y-98875938D01*
X149195804Y-98875938D02*
X149100566Y-98828319D01*
X149100566Y-98828319D02*
X148910090Y-98828319D01*
X148910090Y-98828319D02*
X148814852Y-98875938D01*
X148814852Y-98875938D02*
X148767233Y-98923557D01*
X148767233Y-98923557D02*
X148719614Y-99018795D01*
X148719614Y-99018795D02*
X148719614Y-99066414D01*
X148719614Y-99066414D02*
X148767233Y-99161652D01*
X148767233Y-99161652D02*
X148814852Y-99209271D01*
X148814852Y-99209271D02*
X148910090Y-99256890D01*
X148910090Y-99256890D02*
X149100566Y-99256890D01*
X149100566Y-99256890D02*
X149195804Y-99304509D01*
X149195804Y-99304509D02*
X149243423Y-99352128D01*
X149243423Y-99352128D02*
X149291042Y-99447366D01*
X149291042Y-99447366D02*
X149291042Y-99637842D01*
X149291042Y-99637842D02*
X149243423Y-99733080D01*
X149243423Y-99733080D02*
X149195804Y-99780700D01*
X149195804Y-99780700D02*
X149100566Y-99828319D01*
X149100566Y-99828319D02*
X148910090Y-99828319D01*
X148910090Y-99828319D02*
X148814852Y-99780700D01*
X148814852Y-99780700D02*
X148767233Y-99733080D01*
X148767233Y-99733080D02*
X148719614Y-99637842D01*
X148719614Y-99637842D02*
X148719614Y-99447366D01*
X148719614Y-99447366D02*
X148767233Y-99352128D01*
X148767233Y-99352128D02*
X148814852Y-99304509D01*
X148814852Y-99304509D02*
X148910090Y-99256890D01*
X146161904Y-102054819D02*
X146161904Y-101054819D01*
X145590476Y-102054819D02*
X146019047Y-101483390D01*
X145590476Y-101054819D02*
X146161904Y-101626247D01*
X132366666Y-121254819D02*
X132699999Y-120778628D01*
X132938094Y-121254819D02*
X132938094Y-120254819D01*
X132938094Y-120254819D02*
X132557142Y-120254819D01*
X132557142Y-120254819D02*
X132461904Y-120302438D01*
X132461904Y-120302438D02*
X132414285Y-120350057D01*
X132414285Y-120350057D02*
X132366666Y-120445295D01*
X132366666Y-120445295D02*
X132366666Y-120588152D01*
X132366666Y-120588152D02*
X132414285Y-120683390D01*
X132414285Y-120683390D02*
X132461904Y-120731009D01*
X132461904Y-120731009D02*
X132557142Y-120778628D01*
X132557142Y-120778628D02*
X132938094Y-120778628D01*
X131509523Y-120254819D02*
X131699999Y-120254819D01*
X131699999Y-120254819D02*
X131795237Y-120302438D01*
X131795237Y-120302438D02*
X131842856Y-120350057D01*
X131842856Y-120350057D02*
X131938094Y-120492914D01*
X131938094Y-120492914D02*
X131985713Y-120683390D01*
X131985713Y-120683390D02*
X131985713Y-121064342D01*
X131985713Y-121064342D02*
X131938094Y-121159580D01*
X131938094Y-121159580D02*
X131890475Y-121207200D01*
X131890475Y-121207200D02*
X131795237Y-121254819D01*
X131795237Y-121254819D02*
X131604761Y-121254819D01*
X131604761Y-121254819D02*
X131509523Y-121207200D01*
X131509523Y-121207200D02*
X131461904Y-121159580D01*
X131461904Y-121159580D02*
X131414285Y-121064342D01*
X131414285Y-121064342D02*
X131414285Y-120826247D01*
X131414285Y-120826247D02*
X131461904Y-120731009D01*
X131461904Y-120731009D02*
X131509523Y-120683390D01*
X131509523Y-120683390D02*
X131604761Y-120635771D01*
X131604761Y-120635771D02*
X131795237Y-120635771D01*
X131795237Y-120635771D02*
X131890475Y-120683390D01*
X131890475Y-120683390D02*
X131938094Y-120731009D01*
X131938094Y-120731009D02*
X131985713Y-120826247D01*
X124890476Y-121354819D02*
X125461904Y-121354819D01*
X125176190Y-121354819D02*
X125176190Y-120354819D01*
X125176190Y-120354819D02*
X125271428Y-120497676D01*
X125271428Y-120497676D02*
X125366666Y-120592914D01*
X125366666Y-120592914D02*
X125461904Y-120640533D01*
X124271428Y-120354819D02*
X124176190Y-120354819D01*
X124176190Y-120354819D02*
X124080952Y-120402438D01*
X124080952Y-120402438D02*
X124033333Y-120450057D01*
X124033333Y-120450057D02*
X123985714Y-120545295D01*
X123985714Y-120545295D02*
X123938095Y-120735771D01*
X123938095Y-120735771D02*
X123938095Y-120973866D01*
X123938095Y-120973866D02*
X123985714Y-121164342D01*
X123985714Y-121164342D02*
X124033333Y-121259580D01*
X124033333Y-121259580D02*
X124080952Y-121307200D01*
X124080952Y-121307200D02*
X124176190Y-121354819D01*
X124176190Y-121354819D02*
X124271428Y-121354819D01*
X124271428Y-121354819D02*
X124366666Y-121307200D01*
X124366666Y-121307200D02*
X124414285Y-121259580D01*
X124414285Y-121259580D02*
X124461904Y-121164342D01*
X124461904Y-121164342D02*
X124509523Y-120973866D01*
X124509523Y-120973866D02*
X124509523Y-120735771D01*
X124509523Y-120735771D02*
X124461904Y-120545295D01*
X124461904Y-120545295D02*
X124414285Y-120450057D01*
X124414285Y-120450057D02*
X124366666Y-120402438D01*
X124366666Y-120402438D02*
X124271428Y-120354819D01*
X122938095Y-121354819D02*
X123271428Y-120878628D01*
X123509523Y-121354819D02*
X123509523Y-120354819D01*
X123509523Y-120354819D02*
X123128571Y-120354819D01*
X123128571Y-120354819D02*
X123033333Y-120402438D01*
X123033333Y-120402438D02*
X122985714Y-120450057D01*
X122985714Y-120450057D02*
X122938095Y-120545295D01*
X122938095Y-120545295D02*
X122938095Y-120688152D01*
X122938095Y-120688152D02*
X122985714Y-120783390D01*
X122985714Y-120783390D02*
X123033333Y-120831009D01*
X123033333Y-120831009D02*
X123128571Y-120878628D01*
X123128571Y-120878628D02*
X123509523Y-120878628D01*
X132386666Y-125354819D02*
X132719999Y-124878628D01*
X132958094Y-125354819D02*
X132958094Y-124354819D01*
X132958094Y-124354819D02*
X132577142Y-124354819D01*
X132577142Y-124354819D02*
X132481904Y-124402438D01*
X132481904Y-124402438D02*
X132434285Y-124450057D01*
X132434285Y-124450057D02*
X132386666Y-124545295D01*
X132386666Y-124545295D02*
X132386666Y-124688152D01*
X132386666Y-124688152D02*
X132434285Y-124783390D01*
X132434285Y-124783390D02*
X132481904Y-124831009D01*
X132481904Y-124831009D02*
X132577142Y-124878628D01*
X132577142Y-124878628D02*
X132958094Y-124878628D01*
X131481904Y-124354819D02*
X131958094Y-124354819D01*
X131958094Y-124354819D02*
X132005713Y-124831009D01*
X132005713Y-124831009D02*
X131958094Y-124783390D01*
X131958094Y-124783390D02*
X131862856Y-124735771D01*
X131862856Y-124735771D02*
X131624761Y-124735771D01*
X131624761Y-124735771D02*
X131529523Y-124783390D01*
X131529523Y-124783390D02*
X131481904Y-124831009D01*
X131481904Y-124831009D02*
X131434285Y-124926247D01*
X131434285Y-124926247D02*
X131434285Y-125164342D01*
X131434285Y-125164342D02*
X131481904Y-125259580D01*
X131481904Y-125259580D02*
X131529523Y-125307200D01*
X131529523Y-125307200D02*
X131624761Y-125354819D01*
X131624761Y-125354819D02*
X131862856Y-125354819D01*
X131862856Y-125354819D02*
X131958094Y-125307200D01*
X131958094Y-125307200D02*
X132005713Y-125259580D01*
X124990476Y-124988152D02*
X124990476Y-125654819D01*
X125228571Y-124607200D02*
X125466666Y-125321485D01*
X125466666Y-125321485D02*
X124847619Y-125321485D01*
X124466666Y-125654819D02*
X124466666Y-124654819D01*
X124371428Y-125273866D02*
X124085714Y-125654819D01*
X124085714Y-124988152D02*
X124466666Y-125369104D01*
X123752380Y-124654819D02*
X123085714Y-124654819D01*
X123085714Y-124654819D02*
X123514285Y-125654819D01*
X153966666Y-116254819D02*
X153966666Y-115254819D01*
X153966666Y-115254819D02*
X153395238Y-116254819D01*
X153395238Y-116254819D02*
X153395238Y-115254819D01*
X152919047Y-115731009D02*
X152585714Y-115731009D01*
X152442857Y-116254819D02*
X152919047Y-116254819D01*
X152919047Y-116254819D02*
X152919047Y-115254819D01*
X152919047Y-115254819D02*
X152442857Y-115254819D01*
X151538095Y-115254819D02*
X152014285Y-115254819D01*
X152014285Y-115254819D02*
X152061904Y-115731009D01*
X152061904Y-115731009D02*
X152014285Y-115683390D01*
X152014285Y-115683390D02*
X151919047Y-115635771D01*
X151919047Y-115635771D02*
X151680952Y-115635771D01*
X151680952Y-115635771D02*
X151585714Y-115683390D01*
X151585714Y-115683390D02*
X151538095Y-115731009D01*
X151538095Y-115731009D02*
X151490476Y-115826247D01*
X151490476Y-115826247D02*
X151490476Y-116064342D01*
X151490476Y-116064342D02*
X151538095Y-116159580D01*
X151538095Y-116159580D02*
X151585714Y-116207200D01*
X151585714Y-116207200D02*
X151680952Y-116254819D01*
X151680952Y-116254819D02*
X151919047Y-116254819D01*
X151919047Y-116254819D02*
X152014285Y-116207200D01*
X152014285Y-116207200D02*
X152061904Y-116159580D01*
X150585714Y-115254819D02*
X151061904Y-115254819D01*
X151061904Y-115254819D02*
X151109523Y-115731009D01*
X151109523Y-115731009D02*
X151061904Y-115683390D01*
X151061904Y-115683390D02*
X150966666Y-115635771D01*
X150966666Y-115635771D02*
X150728571Y-115635771D01*
X150728571Y-115635771D02*
X150633333Y-115683390D01*
X150633333Y-115683390D02*
X150585714Y-115731009D01*
X150585714Y-115731009D02*
X150538095Y-115826247D01*
X150538095Y-115826247D02*
X150538095Y-116064342D01*
X150538095Y-116064342D02*
X150585714Y-116159580D01*
X150585714Y-116159580D02*
X150633333Y-116207200D01*
X150633333Y-116207200D02*
X150728571Y-116254819D01*
X150728571Y-116254819D02*
X150966666Y-116254819D01*
X150966666Y-116254819D02*
X151061904Y-116207200D01*
X151061904Y-116207200D02*
X151109523Y-116159580D01*
X149633333Y-115254819D02*
X150109523Y-115254819D01*
X150109523Y-115254819D02*
X150157142Y-115731009D01*
X150157142Y-115731009D02*
X150109523Y-115683390D01*
X150109523Y-115683390D02*
X150014285Y-115635771D01*
X150014285Y-115635771D02*
X149776190Y-115635771D01*
X149776190Y-115635771D02*
X149680952Y-115683390D01*
X149680952Y-115683390D02*
X149633333Y-115731009D01*
X149633333Y-115731009D02*
X149585714Y-115826247D01*
X149585714Y-115826247D02*
X149585714Y-116064342D01*
X149585714Y-116064342D02*
X149633333Y-116159580D01*
X149633333Y-116159580D02*
X149680952Y-116207200D01*
X149680952Y-116207200D02*
X149776190Y-116254819D01*
X149776190Y-116254819D02*
X150014285Y-116254819D01*
X150014285Y-116254819D02*
X150109523Y-116207200D01*
X150109523Y-116207200D02*
X150157142Y-116159580D01*
X149157142Y-116254819D02*
X149157142Y-115254819D01*
X149157142Y-115254819D02*
X148776190Y-115254819D01*
X148776190Y-115254819D02*
X148680952Y-115302438D01*
X148680952Y-115302438D02*
X148633333Y-115350057D01*
X148633333Y-115350057D02*
X148585714Y-115445295D01*
X148585714Y-115445295D02*
X148585714Y-115588152D01*
X148585714Y-115588152D02*
X148633333Y-115683390D01*
X148633333Y-115683390D02*
X148680952Y-115731009D01*
X148680952Y-115731009D02*
X148776190Y-115778628D01*
X148776190Y-115778628D02*
X149157142Y-115778628D01*
X132466666Y-117254819D02*
X132799999Y-116778628D01*
X133038094Y-117254819D02*
X133038094Y-116254819D01*
X133038094Y-116254819D02*
X132657142Y-116254819D01*
X132657142Y-116254819D02*
X132561904Y-116302438D01*
X132561904Y-116302438D02*
X132514285Y-116350057D01*
X132514285Y-116350057D02*
X132466666Y-116445295D01*
X132466666Y-116445295D02*
X132466666Y-116588152D01*
X132466666Y-116588152D02*
X132514285Y-116683390D01*
X132514285Y-116683390D02*
X132561904Y-116731009D01*
X132561904Y-116731009D02*
X132657142Y-116778628D01*
X132657142Y-116778628D02*
X133038094Y-116778628D01*
X132133332Y-116254819D02*
X131466666Y-116254819D01*
X131466666Y-116254819D02*
X131895237Y-117254819D01*
X124890476Y-117354819D02*
X125461904Y-117354819D01*
X125176190Y-117354819D02*
X125176190Y-116354819D01*
X125176190Y-116354819D02*
X125271428Y-116497676D01*
X125271428Y-116497676D02*
X125366666Y-116592914D01*
X125366666Y-116592914D02*
X125461904Y-116640533D01*
X124033333Y-116354819D02*
X124223809Y-116354819D01*
X124223809Y-116354819D02*
X124319047Y-116402438D01*
X124319047Y-116402438D02*
X124366666Y-116450057D01*
X124366666Y-116450057D02*
X124461904Y-116592914D01*
X124461904Y-116592914D02*
X124509523Y-116783390D01*
X124509523Y-116783390D02*
X124509523Y-117164342D01*
X124509523Y-117164342D02*
X124461904Y-117259580D01*
X124461904Y-117259580D02*
X124414285Y-117307200D01*
X124414285Y-117307200D02*
X124319047Y-117354819D01*
X124319047Y-117354819D02*
X124128571Y-117354819D01*
X124128571Y-117354819D02*
X124033333Y-117307200D01*
X124033333Y-117307200D02*
X123985714Y-117259580D01*
X123985714Y-117259580D02*
X123938095Y-117164342D01*
X123938095Y-117164342D02*
X123938095Y-116926247D01*
X123938095Y-116926247D02*
X123985714Y-116831009D01*
X123985714Y-116831009D02*
X124033333Y-116783390D01*
X124033333Y-116783390D02*
X124128571Y-116735771D01*
X124128571Y-116735771D02*
X124319047Y-116735771D01*
X124319047Y-116735771D02*
X124414285Y-116783390D01*
X124414285Y-116783390D02*
X124461904Y-116831009D01*
X124461904Y-116831009D02*
X124509523Y-116926247D01*
X123509523Y-117354819D02*
X123509523Y-116354819D01*
X122938095Y-117354819D02*
X123366666Y-116783390D01*
X122938095Y-116354819D02*
X123509523Y-116926247D01*
X132386666Y-113254819D02*
X132719999Y-112778628D01*
X132958094Y-113254819D02*
X132958094Y-112254819D01*
X132958094Y-112254819D02*
X132577142Y-112254819D01*
X132577142Y-112254819D02*
X132481904Y-112302438D01*
X132481904Y-112302438D02*
X132434285Y-112350057D01*
X132434285Y-112350057D02*
X132386666Y-112445295D01*
X132386666Y-112445295D02*
X132386666Y-112588152D01*
X132386666Y-112588152D02*
X132434285Y-112683390D01*
X132434285Y-112683390D02*
X132481904Y-112731009D01*
X132481904Y-112731009D02*
X132577142Y-112778628D01*
X132577142Y-112778628D02*
X132958094Y-112778628D01*
X131815237Y-112683390D02*
X131910475Y-112635771D01*
X131910475Y-112635771D02*
X131958094Y-112588152D01*
X131958094Y-112588152D02*
X132005713Y-112492914D01*
X132005713Y-112492914D02*
X132005713Y-112445295D01*
X132005713Y-112445295D02*
X131958094Y-112350057D01*
X131958094Y-112350057D02*
X131910475Y-112302438D01*
X131910475Y-112302438D02*
X131815237Y-112254819D01*
X131815237Y-112254819D02*
X131624761Y-112254819D01*
X131624761Y-112254819D02*
X131529523Y-112302438D01*
X131529523Y-112302438D02*
X131481904Y-112350057D01*
X131481904Y-112350057D02*
X131434285Y-112445295D01*
X131434285Y-112445295D02*
X131434285Y-112492914D01*
X131434285Y-112492914D02*
X131481904Y-112588152D01*
X131481904Y-112588152D02*
X131529523Y-112635771D01*
X131529523Y-112635771D02*
X131624761Y-112683390D01*
X131624761Y-112683390D02*
X131815237Y-112683390D01*
X131815237Y-112683390D02*
X131910475Y-112731009D01*
X131910475Y-112731009D02*
X131958094Y-112778628D01*
X131958094Y-112778628D02*
X132005713Y-112873866D01*
X132005713Y-112873866D02*
X132005713Y-113064342D01*
X132005713Y-113064342D02*
X131958094Y-113159580D01*
X131958094Y-113159580D02*
X131910475Y-113207200D01*
X131910475Y-113207200D02*
X131815237Y-113254819D01*
X131815237Y-113254819D02*
X131624761Y-113254819D01*
X131624761Y-113254819D02*
X131529523Y-113207200D01*
X131529523Y-113207200D02*
X131481904Y-113159580D01*
X131481904Y-113159580D02*
X131434285Y-113064342D01*
X131434285Y-113064342D02*
X131434285Y-112873866D01*
X131434285Y-112873866D02*
X131481904Y-112778628D01*
X131481904Y-112778628D02*
X131529523Y-112731009D01*
X131529523Y-112731009D02*
X131624761Y-112683390D01*
X124890476Y-113354819D02*
X125461904Y-113354819D01*
X125176190Y-113354819D02*
X125176190Y-112354819D01*
X125176190Y-112354819D02*
X125271428Y-112497676D01*
X125271428Y-112497676D02*
X125366666Y-112592914D01*
X125366666Y-112592914D02*
X125461904Y-112640533D01*
X124509523Y-112450057D02*
X124461904Y-112402438D01*
X124461904Y-112402438D02*
X124366666Y-112354819D01*
X124366666Y-112354819D02*
X124128571Y-112354819D01*
X124128571Y-112354819D02*
X124033333Y-112402438D01*
X124033333Y-112402438D02*
X123985714Y-112450057D01*
X123985714Y-112450057D02*
X123938095Y-112545295D01*
X123938095Y-112545295D02*
X123938095Y-112640533D01*
X123938095Y-112640533D02*
X123985714Y-112783390D01*
X123985714Y-112783390D02*
X124557142Y-113354819D01*
X124557142Y-113354819D02*
X123938095Y-113354819D01*
X123509523Y-113354819D02*
X123509523Y-112354819D01*
X122938095Y-113354819D02*
X123366666Y-112783390D01*
X122938095Y-112354819D02*
X123509523Y-112926247D01*
X132366666Y-129354819D02*
X132699999Y-128878628D01*
X132938094Y-129354819D02*
X132938094Y-128354819D01*
X132938094Y-128354819D02*
X132557142Y-128354819D01*
X132557142Y-128354819D02*
X132461904Y-128402438D01*
X132461904Y-128402438D02*
X132414285Y-128450057D01*
X132414285Y-128450057D02*
X132366666Y-128545295D01*
X132366666Y-128545295D02*
X132366666Y-128688152D01*
X132366666Y-128688152D02*
X132414285Y-128783390D01*
X132414285Y-128783390D02*
X132461904Y-128831009D01*
X132461904Y-128831009D02*
X132557142Y-128878628D01*
X132557142Y-128878628D02*
X132938094Y-128878628D01*
X131509523Y-128688152D02*
X131509523Y-129354819D01*
X131747618Y-128307200D02*
X131985713Y-129021485D01*
X131985713Y-129021485D02*
X131366666Y-129021485D01*
X125490475Y-128654819D02*
X124871428Y-128654819D01*
X124871428Y-128654819D02*
X125204761Y-129035771D01*
X125204761Y-129035771D02*
X125061904Y-129035771D01*
X125061904Y-129035771D02*
X124966666Y-129083390D01*
X124966666Y-129083390D02*
X124919047Y-129131009D01*
X124919047Y-129131009D02*
X124871428Y-129226247D01*
X124871428Y-129226247D02*
X124871428Y-129464342D01*
X124871428Y-129464342D02*
X124919047Y-129559580D01*
X124919047Y-129559580D02*
X124966666Y-129607200D01*
X124966666Y-129607200D02*
X125061904Y-129654819D01*
X125061904Y-129654819D02*
X125347618Y-129654819D01*
X125347618Y-129654819D02*
X125442856Y-129607200D01*
X125442856Y-129607200D02*
X125490475Y-129559580D01*
X124395237Y-129654819D02*
X124204761Y-129654819D01*
X124204761Y-129654819D02*
X124109523Y-129607200D01*
X124109523Y-129607200D02*
X124061904Y-129559580D01*
X124061904Y-129559580D02*
X123966666Y-129416723D01*
X123966666Y-129416723D02*
X123919047Y-129226247D01*
X123919047Y-129226247D02*
X123919047Y-128845295D01*
X123919047Y-128845295D02*
X123966666Y-128750057D01*
X123966666Y-128750057D02*
X124014285Y-128702438D01*
X124014285Y-128702438D02*
X124109523Y-128654819D01*
X124109523Y-128654819D02*
X124299999Y-128654819D01*
X124299999Y-128654819D02*
X124395237Y-128702438D01*
X124395237Y-128702438D02*
X124442856Y-128750057D01*
X124442856Y-128750057D02*
X124490475Y-128845295D01*
X124490475Y-128845295D02*
X124490475Y-129083390D01*
X124490475Y-129083390D02*
X124442856Y-129178628D01*
X124442856Y-129178628D02*
X124395237Y-129226247D01*
X124395237Y-129226247D02*
X124299999Y-129273866D01*
X124299999Y-129273866D02*
X124109523Y-129273866D01*
X124109523Y-129273866D02*
X124014285Y-129226247D01*
X124014285Y-129226247D02*
X123966666Y-129178628D01*
X123966666Y-129178628D02*
X123919047Y-129083390D01*
X123299999Y-128654819D02*
X123204761Y-128654819D01*
X123204761Y-128654819D02*
X123109523Y-128702438D01*
X123109523Y-128702438D02*
X123061904Y-128750057D01*
X123061904Y-128750057D02*
X123014285Y-128845295D01*
X123014285Y-128845295D02*
X122966666Y-129035771D01*
X122966666Y-129035771D02*
X122966666Y-129273866D01*
X122966666Y-129273866D02*
X123014285Y-129464342D01*
X123014285Y-129464342D02*
X123061904Y-129559580D01*
X123061904Y-129559580D02*
X123109523Y-129607200D01*
X123109523Y-129607200D02*
X123204761Y-129654819D01*
X123204761Y-129654819D02*
X123299999Y-129654819D01*
X123299999Y-129654819D02*
X123395237Y-129607200D01*
X123395237Y-129607200D02*
X123442856Y-129559580D01*
X123442856Y-129559580D02*
X123490475Y-129464342D01*
X123490475Y-129464342D02*
X123538094Y-129273866D01*
X123538094Y-129273866D02*
X123538094Y-129035771D01*
X123538094Y-129035771D02*
X123490475Y-128845295D01*
X123490475Y-128845295D02*
X123442856Y-128750057D01*
X123442856Y-128750057D02*
X123395237Y-128702438D01*
X123395237Y-128702438D02*
X123299999Y-128654819D01*
X122538094Y-129654819D02*
X122538094Y-128654819D01*
X122442856Y-129273866D02*
X122157142Y-129654819D01*
X122157142Y-128988152D02*
X122538094Y-129369104D01*
D11*
X153269714Y-49452019D02*
X153269714Y-50261542D01*
X153269714Y-50261542D02*
X153226857Y-50356780D01*
X153226857Y-50356780D02*
X153184000Y-50404400D01*
X153184000Y-50404400D02*
X153098285Y-50452019D01*
X153098285Y-50452019D02*
X152926857Y-50452019D01*
X152926857Y-50452019D02*
X152841142Y-50404400D01*
X152841142Y-50404400D02*
X152798285Y-50356780D01*
X152798285Y-50356780D02*
X152755428Y-50261542D01*
X152755428Y-50261542D02*
X152755428Y-49452019D01*
X152369714Y-49547257D02*
X152326857Y-49499638D01*
X152326857Y-49499638D02*
X152241143Y-49452019D01*
X152241143Y-49452019D02*
X152026857Y-49452019D01*
X152026857Y-49452019D02*
X151941143Y-49499638D01*
X151941143Y-49499638D02*
X151898285Y-49547257D01*
X151898285Y-49547257D02*
X151855428Y-49642495D01*
X151855428Y-49642495D02*
X151855428Y-49737733D01*
X151855428Y-49737733D02*
X151898285Y-49880590D01*
X151898285Y-49880590D02*
X152412571Y-50452019D01*
X152412571Y-50452019D02*
X151855428Y-50452019D01*
X151862570Y-54048209D02*
X151733998Y-54095828D01*
X151733998Y-54095828D02*
X151691141Y-54143447D01*
X151691141Y-54143447D02*
X151648284Y-54238685D01*
X151648284Y-54238685D02*
X151648284Y-54381542D01*
X151648284Y-54381542D02*
X151691141Y-54476780D01*
X151691141Y-54476780D02*
X151733998Y-54524400D01*
X151733998Y-54524400D02*
X151819713Y-54572019D01*
X151819713Y-54572019D02*
X152162570Y-54572019D01*
X152162570Y-54572019D02*
X152162570Y-53572019D01*
X152162570Y-53572019D02*
X151862570Y-53572019D01*
X151862570Y-53572019D02*
X151776856Y-53619638D01*
X151776856Y-53619638D02*
X151733998Y-53667257D01*
X151733998Y-53667257D02*
X151691141Y-53762495D01*
X151691141Y-53762495D02*
X151691141Y-53857733D01*
X151691141Y-53857733D02*
X151733998Y-53952971D01*
X151733998Y-53952971D02*
X151776856Y-54000590D01*
X151776856Y-54000590D02*
X151862570Y-54048209D01*
X151862570Y-54048209D02*
X152162570Y-54048209D01*
X151305427Y-54286304D02*
X150876856Y-54286304D01*
X151391141Y-54572019D02*
X151091141Y-53572019D01*
X151091141Y-53572019D02*
X150791141Y-54572019D01*
X150619712Y-53572019D02*
X150105427Y-53572019D01*
X150362569Y-54572019D02*
X150362569Y-53572019D01*
X150019713Y-54667257D02*
X149333998Y-54667257D01*
X149119713Y-54572019D02*
X149119713Y-53572019D01*
X149119713Y-54048209D02*
X148605427Y-54048209D01*
X148605427Y-54572019D02*
X148605427Y-53572019D01*
X147748284Y-54572019D02*
X148176856Y-54572019D01*
X148176856Y-54572019D02*
X148176856Y-53572019D01*
X147448285Y-54572019D02*
X147448285Y-53572019D01*
X147448285Y-53572019D02*
X147233999Y-53572019D01*
X147233999Y-53572019D02*
X147105428Y-53619638D01*
X147105428Y-53619638D02*
X147019713Y-53714876D01*
X147019713Y-53714876D02*
X146976856Y-53810114D01*
X146976856Y-53810114D02*
X146933999Y-54000590D01*
X146933999Y-54000590D02*
X146933999Y-54143447D01*
X146933999Y-54143447D02*
X146976856Y-54333923D01*
X146976856Y-54333923D02*
X147019713Y-54429161D01*
X147019713Y-54429161D02*
X147105428Y-54524400D01*
X147105428Y-54524400D02*
X147233999Y-54572019D01*
X147233999Y-54572019D02*
X147448285Y-54572019D01*
X146762571Y-54667257D02*
X146076856Y-54667257D01*
X145905428Y-54524400D02*
X145776857Y-54572019D01*
X145776857Y-54572019D02*
X145562571Y-54572019D01*
X145562571Y-54572019D02*
X145476857Y-54524400D01*
X145476857Y-54524400D02*
X145433999Y-54476780D01*
X145433999Y-54476780D02*
X145391142Y-54381542D01*
X145391142Y-54381542D02*
X145391142Y-54286304D01*
X145391142Y-54286304D02*
X145433999Y-54191066D01*
X145433999Y-54191066D02*
X145476857Y-54143447D01*
X145476857Y-54143447D02*
X145562571Y-54095828D01*
X145562571Y-54095828D02*
X145733999Y-54048209D01*
X145733999Y-54048209D02*
X145819714Y-54000590D01*
X145819714Y-54000590D02*
X145862571Y-53952971D01*
X145862571Y-53952971D02*
X145905428Y-53857733D01*
X145905428Y-53857733D02*
X145905428Y-53762495D01*
X145905428Y-53762495D02*
X145862571Y-53667257D01*
X145862571Y-53667257D02*
X145819714Y-53619638D01*
X145819714Y-53619638D02*
X145733999Y-53572019D01*
X145733999Y-53572019D02*
X145519714Y-53572019D01*
X145519714Y-53572019D02*
X145391142Y-53619638D01*
X145005428Y-54572019D02*
X145005428Y-53572019D01*
X145005428Y-53572019D02*
X144705428Y-54286304D01*
X144705428Y-54286304D02*
X144405428Y-53572019D01*
X144405428Y-53572019D02*
X144405428Y-54572019D01*
X143976857Y-54572019D02*
X143976857Y-53572019D01*
X143976857Y-53572019D02*
X143762571Y-53572019D01*
X143762571Y-53572019D02*
X143634000Y-53619638D01*
X143634000Y-53619638D02*
X143548285Y-53714876D01*
X143548285Y-53714876D02*
X143505428Y-53810114D01*
X143505428Y-53810114D02*
X143462571Y-54000590D01*
X143462571Y-54000590D02*
X143462571Y-54143447D01*
X143462571Y-54143447D02*
X143505428Y-54333923D01*
X143505428Y-54333923D02*
X143548285Y-54429161D01*
X143548285Y-54429161D02*
X143634000Y-54524400D01*
X143634000Y-54524400D02*
X143762571Y-54572019D01*
X143762571Y-54572019D02*
X143976857Y-54572019D01*
D10*
X132386666Y-133354819D02*
X132719999Y-132878628D01*
X132958094Y-133354819D02*
X132958094Y-132354819D01*
X132958094Y-132354819D02*
X132577142Y-132354819D01*
X132577142Y-132354819D02*
X132481904Y-132402438D01*
X132481904Y-132402438D02*
X132434285Y-132450057D01*
X132434285Y-132450057D02*
X132386666Y-132545295D01*
X132386666Y-132545295D02*
X132386666Y-132688152D01*
X132386666Y-132688152D02*
X132434285Y-132783390D01*
X132434285Y-132783390D02*
X132481904Y-132831009D01*
X132481904Y-132831009D02*
X132577142Y-132878628D01*
X132577142Y-132878628D02*
X132958094Y-132878628D01*
X132053332Y-132354819D02*
X131434285Y-132354819D01*
X131434285Y-132354819D02*
X131767618Y-132735771D01*
X131767618Y-132735771D02*
X131624761Y-132735771D01*
X131624761Y-132735771D02*
X131529523Y-132783390D01*
X131529523Y-132783390D02*
X131481904Y-132831009D01*
X131481904Y-132831009D02*
X131434285Y-132926247D01*
X131434285Y-132926247D02*
X131434285Y-133164342D01*
X131434285Y-133164342D02*
X131481904Y-133259580D01*
X131481904Y-133259580D02*
X131529523Y-133307200D01*
X131529523Y-133307200D02*
X131624761Y-133354819D01*
X131624761Y-133354819D02*
X131910475Y-133354819D01*
X131910475Y-133354819D02*
X132005713Y-133307200D01*
X132005713Y-133307200D02*
X132053332Y-133259580D01*
X124919047Y-132554819D02*
X125395237Y-132554819D01*
X125395237Y-132554819D02*
X125442856Y-133031009D01*
X125442856Y-133031009D02*
X125395237Y-132983390D01*
X125395237Y-132983390D02*
X125299999Y-132935771D01*
X125299999Y-132935771D02*
X125061904Y-132935771D01*
X125061904Y-132935771D02*
X124966666Y-132983390D01*
X124966666Y-132983390D02*
X124919047Y-133031009D01*
X124919047Y-133031009D02*
X124871428Y-133126247D01*
X124871428Y-133126247D02*
X124871428Y-133364342D01*
X124871428Y-133364342D02*
X124919047Y-133459580D01*
X124919047Y-133459580D02*
X124966666Y-133507200D01*
X124966666Y-133507200D02*
X125061904Y-133554819D01*
X125061904Y-133554819D02*
X125299999Y-133554819D01*
X125299999Y-133554819D02*
X125395237Y-133507200D01*
X125395237Y-133507200D02*
X125442856Y-133459580D01*
X124014285Y-132554819D02*
X124204761Y-132554819D01*
X124204761Y-132554819D02*
X124299999Y-132602438D01*
X124299999Y-132602438D02*
X124347618Y-132650057D01*
X124347618Y-132650057D02*
X124442856Y-132792914D01*
X124442856Y-132792914D02*
X124490475Y-132983390D01*
X124490475Y-132983390D02*
X124490475Y-133364342D01*
X124490475Y-133364342D02*
X124442856Y-133459580D01*
X124442856Y-133459580D02*
X124395237Y-133507200D01*
X124395237Y-133507200D02*
X124299999Y-133554819D01*
X124299999Y-133554819D02*
X124109523Y-133554819D01*
X124109523Y-133554819D02*
X124014285Y-133507200D01*
X124014285Y-133507200D02*
X123966666Y-133459580D01*
X123966666Y-133459580D02*
X123919047Y-133364342D01*
X123919047Y-133364342D02*
X123919047Y-133126247D01*
X123919047Y-133126247D02*
X123966666Y-133031009D01*
X123966666Y-133031009D02*
X124014285Y-132983390D01*
X124014285Y-132983390D02*
X124109523Y-132935771D01*
X124109523Y-132935771D02*
X124299999Y-132935771D01*
X124299999Y-132935771D02*
X124395237Y-132983390D01*
X124395237Y-132983390D02*
X124442856Y-133031009D01*
X124442856Y-133031009D02*
X124490475Y-133126247D01*
X123299999Y-132554819D02*
X123204761Y-132554819D01*
X123204761Y-132554819D02*
X123109523Y-132602438D01*
X123109523Y-132602438D02*
X123061904Y-132650057D01*
X123061904Y-132650057D02*
X123014285Y-132745295D01*
X123014285Y-132745295D02*
X122966666Y-132935771D01*
X122966666Y-132935771D02*
X122966666Y-133173866D01*
X122966666Y-133173866D02*
X123014285Y-133364342D01*
X123014285Y-133364342D02*
X123061904Y-133459580D01*
X123061904Y-133459580D02*
X123109523Y-133507200D01*
X123109523Y-133507200D02*
X123204761Y-133554819D01*
X123204761Y-133554819D02*
X123299999Y-133554819D01*
X123299999Y-133554819D02*
X123395237Y-133507200D01*
X123395237Y-133507200D02*
X123442856Y-133459580D01*
X123442856Y-133459580D02*
X123490475Y-133364342D01*
X123490475Y-133364342D02*
X123538094Y-133173866D01*
X123538094Y-133173866D02*
X123538094Y-132935771D01*
X123538094Y-132935771D02*
X123490475Y-132745295D01*
X123490475Y-132745295D02*
X123442856Y-132650057D01*
X123442856Y-132650057D02*
X123395237Y-132602438D01*
X123395237Y-132602438D02*
X123299999Y-132554819D01*
X122538094Y-133554819D02*
X122538094Y-132554819D01*
X122442856Y-133173866D02*
X122157142Y-133554819D01*
X122157142Y-132888152D02*
X122538094Y-133269104D01*
D11*
%TO.C,G\u002A\u002A\u002A*%
X142825000Y-74850000D02*
X143400000Y-75325000D01*
X143400000Y-75325000D02*
X143825000Y-75000000D01*
X143825000Y-75000000D02*
X142825000Y-74850000D01*
D12*
X144150000Y-76438605D02*
X145050000Y-76425000D01*
X144549999Y-77820050D02*
X144149999Y-77820050D01*
X144550000Y-76825000D02*
X144300000Y-76825000D01*
X144550000Y-76875000D02*
X144550000Y-77325000D01*
X144550000Y-77325000D02*
X144250000Y-77325000D01*
X144550000Y-77825000D02*
X144550000Y-78325000D01*
X144550000Y-78325000D02*
X144100000Y-78325000D01*
D11*
X144775000Y-74125000D02*
X145125000Y-72950000D01*
D12*
X145050000Y-76425000D02*
X145100000Y-78875000D01*
X145100000Y-78875000D02*
X143900000Y-78875000D01*
D11*
X145125000Y-72950000D02*
X146925000Y-73000000D01*
D12*
X145375000Y-78875000D02*
X146150000Y-76425000D01*
X145775000Y-78875000D02*
X145375000Y-78875000D01*
X146025000Y-78275000D02*
X145775000Y-78875000D01*
X146100000Y-77875000D02*
X146325000Y-77125000D01*
X146150000Y-76425000D02*
X146475000Y-76425000D01*
X146325000Y-77125000D02*
X146600000Y-77875000D01*
D11*
X146350000Y-75050000D02*
X148025000Y-75150000D01*
D12*
X146475000Y-76425000D02*
X147375000Y-78875000D01*
X146600000Y-77875000D02*
X146100000Y-77875000D01*
X146625000Y-78275000D02*
X146025000Y-78275000D01*
X146875000Y-78875000D02*
X146625000Y-78275000D01*
X146875000Y-78875000D02*
X147375000Y-78875000D01*
D11*
X146925000Y-73000000D02*
X144775000Y-74125000D01*
X147050000Y-74475000D02*
X146350000Y-75050000D01*
D12*
X147550000Y-78400000D02*
X147550000Y-78850000D01*
X147550000Y-78850000D02*
X148800000Y-78850000D01*
D11*
X148050000Y-75150000D02*
X147050000Y-74475000D01*
X148200000Y-74700000D02*
X149825000Y-75825000D01*
X148250000Y-72375000D02*
X149375000Y-73600000D01*
X148275000Y-71975000D02*
X148200000Y-74700000D01*
D12*
X148300000Y-78400000D02*
X147550000Y-78400000D01*
X148325000Y-76400000D02*
X148300000Y-78400000D01*
X148775000Y-76400000D02*
X148325000Y-76400000D01*
X148800000Y-78850000D02*
X148775000Y-76400000D01*
X148975000Y-78850000D02*
X149675000Y-77900000D01*
X149075000Y-78850000D02*
X148975000Y-78850000D01*
D11*
X149375000Y-73600000D02*
X148800000Y-75100000D01*
D12*
X149475000Y-78850000D02*
X149075000Y-78850000D01*
X149716269Y-76394594D02*
X150825000Y-76400000D01*
D11*
X149825000Y-75825000D02*
X151500000Y-75600000D01*
D12*
X149875000Y-76850000D02*
X150325000Y-76850000D01*
X150225000Y-77900000D02*
X149475000Y-78850000D01*
X150325000Y-76850000D02*
X150325000Y-77400000D01*
X150325000Y-77400000D02*
X149825000Y-77400000D01*
X150375000Y-77900000D02*
X150225000Y-77900000D01*
X150375000Y-78850000D02*
X150375000Y-77900000D01*
X150825000Y-76400000D02*
X150825000Y-78850000D01*
X150825000Y-78850000D02*
X150375000Y-78850000D01*
D11*
X150975000Y-76050000D02*
X151950000Y-76400000D01*
D12*
X151275000Y-76400000D02*
X152575000Y-76400000D01*
X151275000Y-76900000D02*
X151275000Y-76400000D01*
X151275000Y-78350000D02*
X152125000Y-78350000D01*
X151275000Y-78850000D02*
X151275000Y-78350000D01*
D11*
X151375000Y-75775000D02*
X150975000Y-76050000D01*
D12*
X151475000Y-77350000D02*
X152125000Y-77350000D01*
X151475000Y-77800000D02*
X151475000Y-77350000D01*
D11*
X151500000Y-75600000D02*
X153325000Y-76500000D01*
X151750000Y-73600000D02*
X148275000Y-71975000D01*
X151750000Y-73600000D02*
X154075000Y-74750000D01*
D12*
X152125000Y-76900000D02*
X151275000Y-76900000D01*
X152125000Y-77350000D02*
X152125000Y-76900000D01*
X152125000Y-77800000D02*
X151475000Y-77800000D01*
X152125000Y-78350000D02*
X152125000Y-77800000D01*
D11*
X152150000Y-76375000D02*
X151375000Y-75775000D01*
X152500000Y-72175000D02*
X151750000Y-73600000D01*
X152500000Y-72175000D02*
X154700000Y-73350000D01*
D12*
X152525000Y-78850000D02*
X151275000Y-78850000D01*
X152575000Y-76400000D02*
X152625000Y-78850000D01*
X152625000Y-78850000D02*
X152525000Y-78850000D01*
X153725000Y-76413605D02*
X154625000Y-76400000D01*
D11*
X154075000Y-74750000D02*
X155550000Y-76475000D01*
X154075000Y-74750000D02*
X159725000Y-77600000D01*
D12*
X154124999Y-77795050D02*
X153724999Y-77795050D01*
X154125000Y-76800000D02*
X153875000Y-76800000D01*
X154125000Y-76850000D02*
X154125000Y-77300000D01*
X154125000Y-77300000D02*
X153825000Y-77300000D01*
X154125000Y-77800000D02*
X154125000Y-78300000D01*
X154125000Y-78300000D02*
X153675000Y-78300000D01*
X154625000Y-76400000D02*
X154675000Y-78850000D01*
X154675000Y-78850000D02*
X153475000Y-78850000D01*
D11*
X154700000Y-73350000D02*
X153125000Y-74250000D01*
X154800000Y-73175000D02*
X154075000Y-74750000D01*
D12*
X155075000Y-77250000D02*
X155075000Y-77950000D01*
D11*
X155375000Y-76575000D02*
X148275000Y-71975000D01*
D12*
X155575000Y-77250000D02*
X155575000Y-77900000D01*
D11*
X155825000Y-73425000D02*
X154075000Y-74750000D01*
X155825000Y-73425000D02*
X154800000Y-73175000D01*
X155900000Y-77500000D02*
X156275000Y-77675000D01*
X156225000Y-77100000D02*
X155900000Y-77500000D01*
D12*
X156275000Y-77250000D02*
X156275000Y-77950000D01*
D11*
X156775000Y-77850000D02*
X157325000Y-78125000D01*
D12*
X156775000Y-77950000D02*
X156775000Y-77250000D01*
D11*
X156825000Y-77125000D02*
X157050000Y-77750000D01*
X157050000Y-77750000D02*
X159725000Y-77600000D01*
X157325000Y-78125000D02*
X156750000Y-77325000D01*
X158400000Y-78075000D02*
X157575000Y-77725000D01*
X159725000Y-77600000D02*
X155825000Y-73425000D01*
X159725000Y-77600000D02*
X156825000Y-77125000D01*
X159725000Y-77600000D02*
X158400000Y-78075000D01*
D12*
X143700001Y-77524999D02*
G75*
G02*
X144150000Y-76438605I449999J449999D01*
G01*
X143900001Y-78874999D02*
G75*
G02*
X143723744Y-77566063I249998J699999D01*
G01*
X144100001Y-78324999D02*
G75*
G02*
X144149999Y-77820050I49999J249999D01*
G01*
X144250000Y-77325000D02*
G75*
G02*
X144310634Y-76832464I0J250000D01*
G01*
X149700001Y-77849999D02*
G75*
G02*
X149716269Y-76394594I249999J724999D01*
G01*
X149825001Y-77399999D02*
G75*
G02*
X149825001Y-76850001I124999J274999D01*
G01*
X153275001Y-77499999D02*
G75*
G02*
X153725000Y-76413605I449999J449999D01*
G01*
X153475001Y-78849999D02*
G75*
G02*
X153298744Y-77541063I249998J699999D01*
G01*
X153675001Y-78299999D02*
G75*
G02*
X153724999Y-77795050I49999J249999D01*
G01*
X153825000Y-77300000D02*
G75*
G02*
X153885634Y-76807464I0J250000D01*
G01*
X155075000Y-77250000D02*
G75*
G02*
X156775000Y-77250000I850000J0D01*
G01*
X155575000Y-77250000D02*
G75*
G02*
X156275000Y-77250000I350000J0D01*
G01*
X156275000Y-77950000D02*
G75*
G02*
X155575000Y-77950000I-350000J0D01*
G01*
X156775000Y-77950000D02*
G75*
G02*
X155075000Y-77950000I-850000J0D01*
G01*
D13*
X165272361Y-131845226D02*
X165208542Y-131909045D01*
X165144723Y-131845226D01*
X165208542Y-131781407D01*
X165272361Y-131845226D01*
G36*
X165272361Y-131845226D02*
G01*
X165208542Y-131909045D01*
X165144723Y-131845226D01*
X165208542Y-131781407D01*
X165272361Y-131845226D01*
G37*
D12*
%TO.C,C1*%
X146585000Y-121425000D02*
X147215000Y-121425000D01*
X146900000Y-121740000D02*
X146900000Y-121110000D01*
X150850000Y-124630000D02*
X150850000Y-118170000D01*
X150890000Y-124630000D02*
X150890000Y-118170000D01*
X150930000Y-124630000D02*
X150930000Y-118170000D01*
X150970000Y-124628000D02*
X150970000Y-118172000D01*
X151010000Y-124627000D02*
X151010000Y-118173000D01*
X151050000Y-124624000D02*
X151050000Y-118176000D01*
X151090000Y-120360000D02*
X151090000Y-118178000D01*
X151090000Y-124622000D02*
X151090000Y-122440000D01*
X151130000Y-120360000D02*
X151130000Y-118182000D01*
X151130000Y-124618000D02*
X151130000Y-122440000D01*
X151170000Y-120360000D02*
X151170000Y-118185000D01*
X151170000Y-124615000D02*
X151170000Y-122440000D01*
X151210000Y-120360000D02*
X151210000Y-118189000D01*
X151210000Y-124611000D02*
X151210000Y-122440000D01*
X151250000Y-120360000D02*
X151250000Y-118194000D01*
X151250000Y-124606000D02*
X151250000Y-122440000D01*
X151290000Y-120360000D02*
X151290000Y-118199000D01*
X151290000Y-124601000D02*
X151290000Y-122440000D01*
X151330000Y-120360000D02*
X151330000Y-118205000D01*
X151330000Y-124595000D02*
X151330000Y-122440000D01*
X151370000Y-120360000D02*
X151370000Y-118211000D01*
X151370000Y-124589000D02*
X151370000Y-122440000D01*
X151410000Y-120360000D02*
X151410000Y-118218000D01*
X151410000Y-124582000D02*
X151410000Y-122440000D01*
X151450000Y-120360000D02*
X151450000Y-118225000D01*
X151450000Y-124575000D02*
X151450000Y-122440000D01*
X151490000Y-120360000D02*
X151490000Y-118233000D01*
X151490000Y-124567000D02*
X151490000Y-122440000D01*
X151530000Y-120360000D02*
X151530000Y-118241000D01*
X151530000Y-124559000D02*
X151530000Y-122440000D01*
X151571000Y-120360000D02*
X151571000Y-118250000D01*
X151571000Y-124550000D02*
X151571000Y-122440000D01*
X151611000Y-120360000D02*
X151611000Y-118259000D01*
X151611000Y-124541000D02*
X151611000Y-122440000D01*
X151651000Y-120360000D02*
X151651000Y-118269000D01*
X151651000Y-124531000D02*
X151651000Y-122440000D01*
X151691000Y-120360000D02*
X151691000Y-118279000D01*
X151691000Y-124521000D02*
X151691000Y-122440000D01*
X151731000Y-120360000D02*
X151731000Y-118290000D01*
X151731000Y-124510000D02*
X151731000Y-122440000D01*
X151771000Y-120360000D02*
X151771000Y-118302000D01*
X151771000Y-124498000D02*
X151771000Y-122440000D01*
X151811000Y-120360000D02*
X151811000Y-118314000D01*
X151811000Y-124486000D02*
X151811000Y-122440000D01*
X151851000Y-120360000D02*
X151851000Y-118326000D01*
X151851000Y-124474000D02*
X151851000Y-122440000D01*
X151891000Y-120360000D02*
X151891000Y-118339000D01*
X151891000Y-124461000D02*
X151891000Y-122440000D01*
X151931000Y-120360000D02*
X151931000Y-118353000D01*
X151931000Y-124447000D02*
X151931000Y-122440000D01*
X151971000Y-120360000D02*
X151971000Y-118367000D01*
X151971000Y-124433000D02*
X151971000Y-122440000D01*
X152011000Y-120360000D02*
X152011000Y-118382000D01*
X152011000Y-124418000D02*
X152011000Y-122440000D01*
X152051000Y-120360000D02*
X152051000Y-118398000D01*
X152051000Y-124402000D02*
X152051000Y-122440000D01*
X152091000Y-120360000D02*
X152091000Y-118414000D01*
X152091000Y-124386000D02*
X152091000Y-122440000D01*
X152131000Y-120360000D02*
X152131000Y-118430000D01*
X152131000Y-124370000D02*
X152131000Y-122440000D01*
X152171000Y-120360000D02*
X152171000Y-118448000D01*
X152171000Y-124352000D02*
X152171000Y-122440000D01*
X152211000Y-120360000D02*
X152211000Y-118466000D01*
X152211000Y-124334000D02*
X152211000Y-122440000D01*
X152251000Y-120360000D02*
X152251000Y-118484000D01*
X152251000Y-124316000D02*
X152251000Y-122440000D01*
X152291000Y-120360000D02*
X152291000Y-118504000D01*
X152291000Y-124296000D02*
X152291000Y-122440000D01*
X152331000Y-120360000D02*
X152331000Y-118524000D01*
X152331000Y-124276000D02*
X152331000Y-122440000D01*
X152371000Y-120360000D02*
X152371000Y-118544000D01*
X152371000Y-124256000D02*
X152371000Y-122440000D01*
X152411000Y-120360000D02*
X152411000Y-118566000D01*
X152411000Y-124234000D02*
X152411000Y-122440000D01*
X152451000Y-120360000D02*
X152451000Y-118588000D01*
X152451000Y-124212000D02*
X152451000Y-122440000D01*
X152491000Y-120360000D02*
X152491000Y-118610000D01*
X152491000Y-124190000D02*
X152491000Y-122440000D01*
X152531000Y-120360000D02*
X152531000Y-118634000D01*
X152531000Y-124166000D02*
X152531000Y-122440000D01*
X152571000Y-120360000D02*
X152571000Y-118658000D01*
X152571000Y-124142000D02*
X152571000Y-122440000D01*
X152611000Y-120360000D02*
X152611000Y-118684000D01*
X152611000Y-124116000D02*
X152611000Y-122440000D01*
X152651000Y-120360000D02*
X152651000Y-118710000D01*
X152651000Y-124090000D02*
X152651000Y-122440000D01*
X152691000Y-120360000D02*
X152691000Y-118736000D01*
X152691000Y-124064000D02*
X152691000Y-122440000D01*
X152731000Y-120360000D02*
X152731000Y-118764000D01*
X152731000Y-124036000D02*
X152731000Y-122440000D01*
X152771000Y-120360000D02*
X152771000Y-118793000D01*
X152771000Y-124007000D02*
X152771000Y-122440000D01*
X152811000Y-120360000D02*
X152811000Y-118822000D01*
X152811000Y-123978000D02*
X152811000Y-122440000D01*
X152851000Y-120360000D02*
X152851000Y-118852000D01*
X152851000Y-123948000D02*
X152851000Y-122440000D01*
X152891000Y-120360000D02*
X152891000Y-118884000D01*
X152891000Y-123916000D02*
X152891000Y-122440000D01*
X152931000Y-120360000D02*
X152931000Y-118916000D01*
X152931000Y-123884000D02*
X152931000Y-122440000D01*
X152971000Y-120360000D02*
X152971000Y-118950000D01*
X152971000Y-123850000D02*
X152971000Y-122440000D01*
X153011000Y-120360000D02*
X153011000Y-118984000D01*
X153011000Y-123816000D02*
X153011000Y-122440000D01*
X153051000Y-120360000D02*
X153051000Y-119020000D01*
X153051000Y-123780000D02*
X153051000Y-122440000D01*
X153091000Y-120360000D02*
X153091000Y-119057000D01*
X153091000Y-123743000D02*
X153091000Y-122440000D01*
X153131000Y-120360000D02*
X153131000Y-119095000D01*
X153131000Y-123705000D02*
X153131000Y-122440000D01*
X153171000Y-123665000D02*
X153171000Y-119135000D01*
X153211000Y-123624000D02*
X153211000Y-119176000D01*
X153251000Y-123582000D02*
X153251000Y-119218000D01*
X153291000Y-123537000D02*
X153291000Y-119263000D01*
X153331000Y-123492000D02*
X153331000Y-119308000D01*
X153371000Y-123444000D02*
X153371000Y-119356000D01*
X153411000Y-123395000D02*
X153411000Y-119405000D01*
X153451000Y-123344000D02*
X153451000Y-119456000D01*
X153491000Y-123290000D02*
X153491000Y-119510000D01*
X153531000Y-123234000D02*
X153531000Y-119566000D01*
X153571000Y-123176000D02*
X153571000Y-119624000D01*
X153611000Y-123114000D02*
X153611000Y-119686000D01*
X153651000Y-123050000D02*
X153651000Y-119750000D01*
X153691000Y-122981000D02*
X153691000Y-119819000D01*
X153731000Y-122909000D02*
X153731000Y-119891000D01*
X153771000Y-122832000D02*
X153771000Y-119968000D01*
X153811000Y-122750000D02*
X153811000Y-120050000D01*
X153851000Y-122662000D02*
X153851000Y-120138000D01*
X153891000Y-122565000D02*
X153891000Y-120235000D01*
X153931000Y-122459000D02*
X153931000Y-120341000D01*
X153971000Y-122340000D02*
X153971000Y-120460000D01*
X154011000Y-122202000D02*
X154011000Y-120598000D01*
X154051000Y-122033000D02*
X154051000Y-120767000D01*
X154091000Y-121802000D02*
X154091000Y-120998000D01*
X154970000Y-121400000D02*
X155600000Y-121400000D01*
X154120000Y-121400000D02*
G75*
G02*
X147580000Y-121400000I-3270000J0D01*
G01*
X147580000Y-121400000D02*
G75*
G02*
X154120000Y-121400000I3270000J0D01*
G01*
%TO.C,S1*%
X170669600Y-103230800D02*
X170669600Y-113187600D01*
X170669600Y-113187600D02*
X174606600Y-113213000D01*
X174606600Y-103230800D02*
X170669600Y-103230800D01*
X174606600Y-113187600D02*
X174606600Y-103230800D01*
%TO.C,D3*%
X148663900Y-101493500D02*
X149313900Y-101493500D01*
X149313900Y-100373500D02*
X153553900Y-100373500D01*
X149313900Y-102613500D02*
X149313900Y-100373500D01*
X149913900Y-102613500D02*
X149913900Y-100373500D01*
X150033900Y-102613500D02*
X150033900Y-100373500D01*
X150153900Y-102613500D02*
X150153900Y-100373500D01*
X153553900Y-100373500D02*
X153553900Y-102613500D01*
X153553900Y-102613500D02*
X149313900Y-102613500D01*
X154203900Y-101493500D02*
X153553900Y-101493500D01*
%TO.C,R6*%
X128180000Y-120800000D02*
X128950000Y-120800000D01*
X136260000Y-120800000D02*
X135490000Y-120800000D01*
X128950000Y-122170000D02*
X135490000Y-122170000D01*
X135490000Y-119430000D01*
X128950000Y-119430000D01*
X128950000Y-122170000D01*
%TO.C,R5*%
X128180000Y-124850000D02*
X128950000Y-124850000D01*
X136260000Y-124850000D02*
X135490000Y-124850000D01*
X128950000Y-126220000D02*
X135490000Y-126220000D01*
X135490000Y-123480000D01*
X128950000Y-123480000D01*
X128950000Y-126220000D01*
%TO.C,U1*%
X148793900Y-103983500D02*
X154093900Y-103983500D01*
X148793900Y-114263500D02*
X148793900Y-103983500D01*
X150443900Y-114263500D02*
X148793900Y-114263500D01*
X154093900Y-103983500D02*
X154093900Y-114263500D01*
X154093900Y-114263500D02*
X152443900Y-114263500D01*
X150443900Y-114263500D02*
G75*
G02*
X152443900Y-114263500I1000000J0D01*
G01*
%TO.C,R7*%
X128180000Y-116750000D02*
X128950000Y-116750000D01*
X136260000Y-116750000D02*
X135490000Y-116750000D01*
X128950000Y-118120000D02*
X135490000Y-118120000D01*
X135490000Y-115380000D01*
X128950000Y-115380000D01*
X128950000Y-118120000D01*
%TO.C,R8*%
X128180000Y-112700000D02*
X128950000Y-112700000D01*
X136260000Y-112700000D02*
X135490000Y-112700000D01*
X128950000Y-114070000D02*
X135490000Y-114070000D01*
X135490000Y-111330000D01*
X128950000Y-111330000D01*
X128950000Y-114070000D01*
%TO.C,R4*%
X128180000Y-128900000D02*
X128950000Y-128900000D01*
X136260000Y-128900000D02*
X135490000Y-128900000D01*
X128950000Y-130270000D02*
X135490000Y-130270000D01*
X135490000Y-127530000D01*
X128950000Y-127530000D01*
X128950000Y-130270000D01*
%TO.C,R3*%
X128180000Y-132950000D02*
X128950000Y-132950000D01*
X136260000Y-132950000D02*
X135490000Y-132950000D01*
X128950000Y-134320000D02*
X135490000Y-134320000D01*
X135490000Y-131580000D01*
X128950000Y-131580000D01*
X128950000Y-134320000D01*
%TD*%
M02*
