%TF.GenerationSoftware,KiCad,Pcbnew,9.0.6*%
%TF.CreationDate,2026-01-09T10:34:40+01:00*%
%TF.ProjectId,Rocket,526f636b-6574-42e6-9b69-6361645f7063,rev?*%
%TF.SameCoordinates,Original*%
%TF.FileFunction,Legend,Bot*%
%TF.FilePolarity,Positive*%
%FSLAX46Y46*%
G04 Gerber Fmt 4.6, Leading zero omitted, Abs format (unit mm)*
G04 Created by KiCad (PCBNEW 9.0.6) date 2026-01-09 10:34:40*
%MOMM*%
%LPD*%
G01*
G04 APERTURE LIST*
%ADD10C,0.150000*%
%ADD11C,0.050000*%
%ADD12C,0.120000*%
%ADD13C,0.010000*%
G04 APERTURE END LIST*
D10*
X124507046Y-134631532D02*
G75*
G02*
X128293000Y-134615000I1885954J1616532D01*
G01*
X127717893Y-124515456D02*
G75*
G02*
X131503850Y-124498927I1885957J1616536D01*
G01*
X127717894Y-124515456D02*
X131503847Y-124498924D01*
X124507047Y-134631532D02*
X128293000Y-134615000D01*
X103861904Y-78845180D02*
X103861904Y-79845180D01*
X103290476Y-78845180D02*
X103719047Y-79416609D01*
X103290476Y-79845180D02*
X103861904Y-79273752D01*
X125561904Y-78545180D02*
X125561904Y-79545180D01*
X124990476Y-78545180D02*
X125419047Y-79116609D01*
X124990476Y-79545180D02*
X125561904Y-78973752D01*
X122456220Y-132961009D02*
X122122887Y-132961009D01*
X121980030Y-133484819D02*
X122456220Y-133484819D01*
X122456220Y-133484819D02*
X122456220Y-132484819D01*
X122456220Y-132484819D02*
X121980030Y-132484819D01*
X127099077Y-127484819D02*
X126527649Y-127484819D01*
X126813363Y-128484819D02*
X126813363Y-127484819D01*
X126241934Y-127580057D02*
X126194315Y-127532438D01*
X126194315Y-127532438D02*
X126099077Y-127484819D01*
X126099077Y-127484819D02*
X125860982Y-127484819D01*
X125860982Y-127484819D02*
X125765744Y-127532438D01*
X125765744Y-127532438D02*
X125718125Y-127580057D01*
X125718125Y-127580057D02*
X125670506Y-127675295D01*
X125670506Y-127675295D02*
X125670506Y-127770533D01*
X125670506Y-127770533D02*
X125718125Y-127913390D01*
X125718125Y-127913390D02*
X126289553Y-128484819D01*
X126289553Y-128484819D02*
X125670506Y-128484819D01*
X125456220Y-122961009D02*
X125122887Y-122961009D01*
X124980030Y-123484819D02*
X125456220Y-123484819D01*
X125456220Y-123484819D02*
X125456220Y-122484819D01*
X125456220Y-122484819D02*
X124980030Y-122484819D01*
X130099077Y-117484819D02*
X129527649Y-117484819D01*
X129813363Y-118484819D02*
X129813363Y-117484819D01*
X128670506Y-118484819D02*
X129241934Y-118484819D01*
X128956220Y-118484819D02*
X128956220Y-117484819D01*
X128956220Y-117484819D02*
X129051458Y-117627676D01*
X129051458Y-117627676D02*
X129146696Y-117722914D01*
X129146696Y-117722914D02*
X129241934Y-117770533D01*
X95379666Y-135169819D02*
X95712999Y-134693628D01*
X95951094Y-135169819D02*
X95951094Y-134169819D01*
X95951094Y-134169819D02*
X95570142Y-134169819D01*
X95570142Y-134169819D02*
X95474904Y-134217438D01*
X95474904Y-134217438D02*
X95427285Y-134265057D01*
X95427285Y-134265057D02*
X95379666Y-134360295D01*
X95379666Y-134360295D02*
X95379666Y-134503152D01*
X95379666Y-134503152D02*
X95427285Y-134598390D01*
X95427285Y-134598390D02*
X95474904Y-134646009D01*
X95474904Y-134646009D02*
X95570142Y-134693628D01*
X95570142Y-134693628D02*
X95951094Y-134693628D01*
X95046332Y-134169819D02*
X94427285Y-134169819D01*
X94427285Y-134169819D02*
X94760618Y-134550771D01*
X94760618Y-134550771D02*
X94617761Y-134550771D01*
X94617761Y-134550771D02*
X94522523Y-134598390D01*
X94522523Y-134598390D02*
X94474904Y-134646009D01*
X94474904Y-134646009D02*
X94427285Y-134741247D01*
X94427285Y-134741247D02*
X94427285Y-134979342D01*
X94427285Y-134979342D02*
X94474904Y-135074580D01*
X94474904Y-135074580D02*
X94522523Y-135122200D01*
X94522523Y-135122200D02*
X94617761Y-135169819D01*
X94617761Y-135169819D02*
X94903475Y-135169819D01*
X94903475Y-135169819D02*
X94998713Y-135122200D01*
X94998713Y-135122200D02*
X95046332Y-135074580D01*
X87912047Y-134369819D02*
X88388237Y-134369819D01*
X88388237Y-134369819D02*
X88435856Y-134846009D01*
X88435856Y-134846009D02*
X88388237Y-134798390D01*
X88388237Y-134798390D02*
X88292999Y-134750771D01*
X88292999Y-134750771D02*
X88054904Y-134750771D01*
X88054904Y-134750771D02*
X87959666Y-134798390D01*
X87959666Y-134798390D02*
X87912047Y-134846009D01*
X87912047Y-134846009D02*
X87864428Y-134941247D01*
X87864428Y-134941247D02*
X87864428Y-135179342D01*
X87864428Y-135179342D02*
X87912047Y-135274580D01*
X87912047Y-135274580D02*
X87959666Y-135322200D01*
X87959666Y-135322200D02*
X88054904Y-135369819D01*
X88054904Y-135369819D02*
X88292999Y-135369819D01*
X88292999Y-135369819D02*
X88388237Y-135322200D01*
X88388237Y-135322200D02*
X88435856Y-135274580D01*
X87007285Y-134369819D02*
X87197761Y-134369819D01*
X87197761Y-134369819D02*
X87292999Y-134417438D01*
X87292999Y-134417438D02*
X87340618Y-134465057D01*
X87340618Y-134465057D02*
X87435856Y-134607914D01*
X87435856Y-134607914D02*
X87483475Y-134798390D01*
X87483475Y-134798390D02*
X87483475Y-135179342D01*
X87483475Y-135179342D02*
X87435856Y-135274580D01*
X87435856Y-135274580D02*
X87388237Y-135322200D01*
X87388237Y-135322200D02*
X87292999Y-135369819D01*
X87292999Y-135369819D02*
X87102523Y-135369819D01*
X87102523Y-135369819D02*
X87007285Y-135322200D01*
X87007285Y-135322200D02*
X86959666Y-135274580D01*
X86959666Y-135274580D02*
X86912047Y-135179342D01*
X86912047Y-135179342D02*
X86912047Y-134941247D01*
X86912047Y-134941247D02*
X86959666Y-134846009D01*
X86959666Y-134846009D02*
X87007285Y-134798390D01*
X87007285Y-134798390D02*
X87102523Y-134750771D01*
X87102523Y-134750771D02*
X87292999Y-134750771D01*
X87292999Y-134750771D02*
X87388237Y-134798390D01*
X87388237Y-134798390D02*
X87435856Y-134846009D01*
X87435856Y-134846009D02*
X87483475Y-134941247D01*
X86292999Y-134369819D02*
X86197761Y-134369819D01*
X86197761Y-134369819D02*
X86102523Y-134417438D01*
X86102523Y-134417438D02*
X86054904Y-134465057D01*
X86054904Y-134465057D02*
X86007285Y-134560295D01*
X86007285Y-134560295D02*
X85959666Y-134750771D01*
X85959666Y-134750771D02*
X85959666Y-134988866D01*
X85959666Y-134988866D02*
X86007285Y-135179342D01*
X86007285Y-135179342D02*
X86054904Y-135274580D01*
X86054904Y-135274580D02*
X86102523Y-135322200D01*
X86102523Y-135322200D02*
X86197761Y-135369819D01*
X86197761Y-135369819D02*
X86292999Y-135369819D01*
X86292999Y-135369819D02*
X86388237Y-135322200D01*
X86388237Y-135322200D02*
X86435856Y-135274580D01*
X86435856Y-135274580D02*
X86483475Y-135179342D01*
X86483475Y-135179342D02*
X86531094Y-134988866D01*
X86531094Y-134988866D02*
X86531094Y-134750771D01*
X86531094Y-134750771D02*
X86483475Y-134560295D01*
X86483475Y-134560295D02*
X86435856Y-134465057D01*
X86435856Y-134465057D02*
X86388237Y-134417438D01*
X86388237Y-134417438D02*
X86292999Y-134369819D01*
X85531094Y-135369819D02*
X85531094Y-134369819D01*
X85435856Y-134988866D02*
X85150142Y-135369819D01*
X85150142Y-134703152D02*
X85531094Y-135084104D01*
X95379666Y-127169819D02*
X95712999Y-126693628D01*
X95951094Y-127169819D02*
X95951094Y-126169819D01*
X95951094Y-126169819D02*
X95570142Y-126169819D01*
X95570142Y-126169819D02*
X95474904Y-126217438D01*
X95474904Y-126217438D02*
X95427285Y-126265057D01*
X95427285Y-126265057D02*
X95379666Y-126360295D01*
X95379666Y-126360295D02*
X95379666Y-126503152D01*
X95379666Y-126503152D02*
X95427285Y-126598390D01*
X95427285Y-126598390D02*
X95474904Y-126646009D01*
X95474904Y-126646009D02*
X95570142Y-126693628D01*
X95570142Y-126693628D02*
X95951094Y-126693628D01*
X94474904Y-126169819D02*
X94951094Y-126169819D01*
X94951094Y-126169819D02*
X94998713Y-126646009D01*
X94998713Y-126646009D02*
X94951094Y-126598390D01*
X94951094Y-126598390D02*
X94855856Y-126550771D01*
X94855856Y-126550771D02*
X94617761Y-126550771D01*
X94617761Y-126550771D02*
X94522523Y-126598390D01*
X94522523Y-126598390D02*
X94474904Y-126646009D01*
X94474904Y-126646009D02*
X94427285Y-126741247D01*
X94427285Y-126741247D02*
X94427285Y-126979342D01*
X94427285Y-126979342D02*
X94474904Y-127074580D01*
X94474904Y-127074580D02*
X94522523Y-127122200D01*
X94522523Y-127122200D02*
X94617761Y-127169819D01*
X94617761Y-127169819D02*
X94855856Y-127169819D01*
X94855856Y-127169819D02*
X94951094Y-127122200D01*
X94951094Y-127122200D02*
X94998713Y-127074580D01*
X87983476Y-126803152D02*
X87983476Y-127469819D01*
X88221571Y-126422200D02*
X88459666Y-127136485D01*
X88459666Y-127136485D02*
X87840619Y-127136485D01*
X87459666Y-127469819D02*
X87459666Y-126469819D01*
X87364428Y-127088866D02*
X87078714Y-127469819D01*
X87078714Y-126803152D02*
X87459666Y-127184104D01*
X86745380Y-126469819D02*
X86078714Y-126469819D01*
X86078714Y-126469819D02*
X86507285Y-127469819D01*
X95359666Y-123069819D02*
X95692999Y-122593628D01*
X95931094Y-123069819D02*
X95931094Y-122069819D01*
X95931094Y-122069819D02*
X95550142Y-122069819D01*
X95550142Y-122069819D02*
X95454904Y-122117438D01*
X95454904Y-122117438D02*
X95407285Y-122165057D01*
X95407285Y-122165057D02*
X95359666Y-122260295D01*
X95359666Y-122260295D02*
X95359666Y-122403152D01*
X95359666Y-122403152D02*
X95407285Y-122498390D01*
X95407285Y-122498390D02*
X95454904Y-122546009D01*
X95454904Y-122546009D02*
X95550142Y-122593628D01*
X95550142Y-122593628D02*
X95931094Y-122593628D01*
X94502523Y-122069819D02*
X94692999Y-122069819D01*
X94692999Y-122069819D02*
X94788237Y-122117438D01*
X94788237Y-122117438D02*
X94835856Y-122165057D01*
X94835856Y-122165057D02*
X94931094Y-122307914D01*
X94931094Y-122307914D02*
X94978713Y-122498390D01*
X94978713Y-122498390D02*
X94978713Y-122879342D01*
X94978713Y-122879342D02*
X94931094Y-122974580D01*
X94931094Y-122974580D02*
X94883475Y-123022200D01*
X94883475Y-123022200D02*
X94788237Y-123069819D01*
X94788237Y-123069819D02*
X94597761Y-123069819D01*
X94597761Y-123069819D02*
X94502523Y-123022200D01*
X94502523Y-123022200D02*
X94454904Y-122974580D01*
X94454904Y-122974580D02*
X94407285Y-122879342D01*
X94407285Y-122879342D02*
X94407285Y-122641247D01*
X94407285Y-122641247D02*
X94454904Y-122546009D01*
X94454904Y-122546009D02*
X94502523Y-122498390D01*
X94502523Y-122498390D02*
X94597761Y-122450771D01*
X94597761Y-122450771D02*
X94788237Y-122450771D01*
X94788237Y-122450771D02*
X94883475Y-122498390D01*
X94883475Y-122498390D02*
X94931094Y-122546009D01*
X94931094Y-122546009D02*
X94978713Y-122641247D01*
X87883476Y-123169819D02*
X88454904Y-123169819D01*
X88169190Y-123169819D02*
X88169190Y-122169819D01*
X88169190Y-122169819D02*
X88264428Y-122312676D01*
X88264428Y-122312676D02*
X88359666Y-122407914D01*
X88359666Y-122407914D02*
X88454904Y-122455533D01*
X87264428Y-122169819D02*
X87169190Y-122169819D01*
X87169190Y-122169819D02*
X87073952Y-122217438D01*
X87073952Y-122217438D02*
X87026333Y-122265057D01*
X87026333Y-122265057D02*
X86978714Y-122360295D01*
X86978714Y-122360295D02*
X86931095Y-122550771D01*
X86931095Y-122550771D02*
X86931095Y-122788866D01*
X86931095Y-122788866D02*
X86978714Y-122979342D01*
X86978714Y-122979342D02*
X87026333Y-123074580D01*
X87026333Y-123074580D02*
X87073952Y-123122200D01*
X87073952Y-123122200D02*
X87169190Y-123169819D01*
X87169190Y-123169819D02*
X87264428Y-123169819D01*
X87264428Y-123169819D02*
X87359666Y-123122200D01*
X87359666Y-123122200D02*
X87407285Y-123074580D01*
X87407285Y-123074580D02*
X87454904Y-122979342D01*
X87454904Y-122979342D02*
X87502523Y-122788866D01*
X87502523Y-122788866D02*
X87502523Y-122550771D01*
X87502523Y-122550771D02*
X87454904Y-122360295D01*
X87454904Y-122360295D02*
X87407285Y-122265057D01*
X87407285Y-122265057D02*
X87359666Y-122217438D01*
X87359666Y-122217438D02*
X87264428Y-122169819D01*
X85931095Y-123169819D02*
X86264428Y-122693628D01*
X86502523Y-123169819D02*
X86502523Y-122169819D01*
X86502523Y-122169819D02*
X86121571Y-122169819D01*
X86121571Y-122169819D02*
X86026333Y-122217438D01*
X86026333Y-122217438D02*
X85978714Y-122265057D01*
X85978714Y-122265057D02*
X85931095Y-122360295D01*
X85931095Y-122360295D02*
X85931095Y-122503152D01*
X85931095Y-122503152D02*
X85978714Y-122598390D01*
X85978714Y-122598390D02*
X86026333Y-122646009D01*
X86026333Y-122646009D02*
X86121571Y-122693628D01*
X86121571Y-122693628D02*
X86502523Y-122693628D01*
X132961904Y-110607200D02*
X132819047Y-110654819D01*
X132819047Y-110654819D02*
X132580952Y-110654819D01*
X132580952Y-110654819D02*
X132485714Y-110607200D01*
X132485714Y-110607200D02*
X132438095Y-110559580D01*
X132438095Y-110559580D02*
X132390476Y-110464342D01*
X132390476Y-110464342D02*
X132390476Y-110369104D01*
X132390476Y-110369104D02*
X132438095Y-110273866D01*
X132438095Y-110273866D02*
X132485714Y-110226247D01*
X132485714Y-110226247D02*
X132580952Y-110178628D01*
X132580952Y-110178628D02*
X132771428Y-110131009D01*
X132771428Y-110131009D02*
X132866666Y-110083390D01*
X132866666Y-110083390D02*
X132914285Y-110035771D01*
X132914285Y-110035771D02*
X132961904Y-109940533D01*
X132961904Y-109940533D02*
X132961904Y-109845295D01*
X132961904Y-109845295D02*
X132914285Y-109750057D01*
X132914285Y-109750057D02*
X132866666Y-109702438D01*
X132866666Y-109702438D02*
X132771428Y-109654819D01*
X132771428Y-109654819D02*
X132533333Y-109654819D01*
X132533333Y-109654819D02*
X132390476Y-109702438D01*
X131438095Y-110654819D02*
X132009523Y-110654819D01*
X131723809Y-110654819D02*
X131723809Y-109654819D01*
X131723809Y-109654819D02*
X131819047Y-109797676D01*
X131819047Y-109797676D02*
X131914285Y-109892914D01*
X131914285Y-109892914D02*
X132009523Y-109940533D01*
X116959666Y-118069819D02*
X116959666Y-117069819D01*
X116959666Y-117069819D02*
X116388238Y-118069819D01*
X116388238Y-118069819D02*
X116388238Y-117069819D01*
X115912047Y-117546009D02*
X115578714Y-117546009D01*
X115435857Y-118069819D02*
X115912047Y-118069819D01*
X115912047Y-118069819D02*
X115912047Y-117069819D01*
X115912047Y-117069819D02*
X115435857Y-117069819D01*
X114531095Y-117069819D02*
X115007285Y-117069819D01*
X115007285Y-117069819D02*
X115054904Y-117546009D01*
X115054904Y-117546009D02*
X115007285Y-117498390D01*
X115007285Y-117498390D02*
X114912047Y-117450771D01*
X114912047Y-117450771D02*
X114673952Y-117450771D01*
X114673952Y-117450771D02*
X114578714Y-117498390D01*
X114578714Y-117498390D02*
X114531095Y-117546009D01*
X114531095Y-117546009D02*
X114483476Y-117641247D01*
X114483476Y-117641247D02*
X114483476Y-117879342D01*
X114483476Y-117879342D02*
X114531095Y-117974580D01*
X114531095Y-117974580D02*
X114578714Y-118022200D01*
X114578714Y-118022200D02*
X114673952Y-118069819D01*
X114673952Y-118069819D02*
X114912047Y-118069819D01*
X114912047Y-118069819D02*
X115007285Y-118022200D01*
X115007285Y-118022200D02*
X115054904Y-117974580D01*
X113578714Y-117069819D02*
X114054904Y-117069819D01*
X114054904Y-117069819D02*
X114102523Y-117546009D01*
X114102523Y-117546009D02*
X114054904Y-117498390D01*
X114054904Y-117498390D02*
X113959666Y-117450771D01*
X113959666Y-117450771D02*
X113721571Y-117450771D01*
X113721571Y-117450771D02*
X113626333Y-117498390D01*
X113626333Y-117498390D02*
X113578714Y-117546009D01*
X113578714Y-117546009D02*
X113531095Y-117641247D01*
X113531095Y-117641247D02*
X113531095Y-117879342D01*
X113531095Y-117879342D02*
X113578714Y-117974580D01*
X113578714Y-117974580D02*
X113626333Y-118022200D01*
X113626333Y-118022200D02*
X113721571Y-118069819D01*
X113721571Y-118069819D02*
X113959666Y-118069819D01*
X113959666Y-118069819D02*
X114054904Y-118022200D01*
X114054904Y-118022200D02*
X114102523Y-117974580D01*
X112626333Y-117069819D02*
X113102523Y-117069819D01*
X113102523Y-117069819D02*
X113150142Y-117546009D01*
X113150142Y-117546009D02*
X113102523Y-117498390D01*
X113102523Y-117498390D02*
X113007285Y-117450771D01*
X113007285Y-117450771D02*
X112769190Y-117450771D01*
X112769190Y-117450771D02*
X112673952Y-117498390D01*
X112673952Y-117498390D02*
X112626333Y-117546009D01*
X112626333Y-117546009D02*
X112578714Y-117641247D01*
X112578714Y-117641247D02*
X112578714Y-117879342D01*
X112578714Y-117879342D02*
X112626333Y-117974580D01*
X112626333Y-117974580D02*
X112673952Y-118022200D01*
X112673952Y-118022200D02*
X112769190Y-118069819D01*
X112769190Y-118069819D02*
X113007285Y-118069819D01*
X113007285Y-118069819D02*
X113102523Y-118022200D01*
X113102523Y-118022200D02*
X113150142Y-117974580D01*
X112150142Y-118069819D02*
X112150142Y-117069819D01*
X112150142Y-117069819D02*
X111769190Y-117069819D01*
X111769190Y-117069819D02*
X111673952Y-117117438D01*
X111673952Y-117117438D02*
X111626333Y-117165057D01*
X111626333Y-117165057D02*
X111578714Y-117260295D01*
X111578714Y-117260295D02*
X111578714Y-117403152D01*
X111578714Y-117403152D02*
X111626333Y-117498390D01*
X111626333Y-117498390D02*
X111673952Y-117546009D01*
X111673952Y-117546009D02*
X111769190Y-117593628D01*
X111769190Y-117593628D02*
X112150142Y-117593628D01*
D11*
X116262714Y-51267019D02*
X116262714Y-52076542D01*
X116262714Y-52076542D02*
X116219857Y-52171780D01*
X116219857Y-52171780D02*
X116177000Y-52219400D01*
X116177000Y-52219400D02*
X116091285Y-52267019D01*
X116091285Y-52267019D02*
X115919857Y-52267019D01*
X115919857Y-52267019D02*
X115834142Y-52219400D01*
X115834142Y-52219400D02*
X115791285Y-52171780D01*
X115791285Y-52171780D02*
X115748428Y-52076542D01*
X115748428Y-52076542D02*
X115748428Y-51267019D01*
X115362714Y-51362257D02*
X115319857Y-51314638D01*
X115319857Y-51314638D02*
X115234143Y-51267019D01*
X115234143Y-51267019D02*
X115019857Y-51267019D01*
X115019857Y-51267019D02*
X114934143Y-51314638D01*
X114934143Y-51314638D02*
X114891285Y-51362257D01*
X114891285Y-51362257D02*
X114848428Y-51457495D01*
X114848428Y-51457495D02*
X114848428Y-51552733D01*
X114848428Y-51552733D02*
X114891285Y-51695590D01*
X114891285Y-51695590D02*
X115405571Y-52267019D01*
X115405571Y-52267019D02*
X114848428Y-52267019D01*
X114855570Y-55863209D02*
X114726998Y-55910828D01*
X114726998Y-55910828D02*
X114684141Y-55958447D01*
X114684141Y-55958447D02*
X114641284Y-56053685D01*
X114641284Y-56053685D02*
X114641284Y-56196542D01*
X114641284Y-56196542D02*
X114684141Y-56291780D01*
X114684141Y-56291780D02*
X114726998Y-56339400D01*
X114726998Y-56339400D02*
X114812713Y-56387019D01*
X114812713Y-56387019D02*
X115155570Y-56387019D01*
X115155570Y-56387019D02*
X115155570Y-55387019D01*
X115155570Y-55387019D02*
X114855570Y-55387019D01*
X114855570Y-55387019D02*
X114769856Y-55434638D01*
X114769856Y-55434638D02*
X114726998Y-55482257D01*
X114726998Y-55482257D02*
X114684141Y-55577495D01*
X114684141Y-55577495D02*
X114684141Y-55672733D01*
X114684141Y-55672733D02*
X114726998Y-55767971D01*
X114726998Y-55767971D02*
X114769856Y-55815590D01*
X114769856Y-55815590D02*
X114855570Y-55863209D01*
X114855570Y-55863209D02*
X115155570Y-55863209D01*
X114298427Y-56101304D02*
X113869856Y-56101304D01*
X114384141Y-56387019D02*
X114084141Y-55387019D01*
X114084141Y-55387019D02*
X113784141Y-56387019D01*
X113612712Y-55387019D02*
X113098427Y-55387019D01*
X113355569Y-56387019D02*
X113355569Y-55387019D01*
X113012713Y-56482257D02*
X112326998Y-56482257D01*
X112112713Y-56387019D02*
X112112713Y-55387019D01*
X112112713Y-55863209D02*
X111598427Y-55863209D01*
X111598427Y-56387019D02*
X111598427Y-55387019D01*
X110741284Y-56387019D02*
X111169856Y-56387019D01*
X111169856Y-56387019D02*
X111169856Y-55387019D01*
X110441285Y-56387019D02*
X110441285Y-55387019D01*
X110441285Y-55387019D02*
X110226999Y-55387019D01*
X110226999Y-55387019D02*
X110098428Y-55434638D01*
X110098428Y-55434638D02*
X110012713Y-55529876D01*
X110012713Y-55529876D02*
X109969856Y-55625114D01*
X109969856Y-55625114D02*
X109926999Y-55815590D01*
X109926999Y-55815590D02*
X109926999Y-55958447D01*
X109926999Y-55958447D02*
X109969856Y-56148923D01*
X109969856Y-56148923D02*
X110012713Y-56244161D01*
X110012713Y-56244161D02*
X110098428Y-56339400D01*
X110098428Y-56339400D02*
X110226999Y-56387019D01*
X110226999Y-56387019D02*
X110441285Y-56387019D01*
X109755571Y-56482257D02*
X109069856Y-56482257D01*
X108898428Y-56339400D02*
X108769857Y-56387019D01*
X108769857Y-56387019D02*
X108555571Y-56387019D01*
X108555571Y-56387019D02*
X108469857Y-56339400D01*
X108469857Y-56339400D02*
X108426999Y-56291780D01*
X108426999Y-56291780D02*
X108384142Y-56196542D01*
X108384142Y-56196542D02*
X108384142Y-56101304D01*
X108384142Y-56101304D02*
X108426999Y-56006066D01*
X108426999Y-56006066D02*
X108469857Y-55958447D01*
X108469857Y-55958447D02*
X108555571Y-55910828D01*
X108555571Y-55910828D02*
X108726999Y-55863209D01*
X108726999Y-55863209D02*
X108812714Y-55815590D01*
X108812714Y-55815590D02*
X108855571Y-55767971D01*
X108855571Y-55767971D02*
X108898428Y-55672733D01*
X108898428Y-55672733D02*
X108898428Y-55577495D01*
X108898428Y-55577495D02*
X108855571Y-55482257D01*
X108855571Y-55482257D02*
X108812714Y-55434638D01*
X108812714Y-55434638D02*
X108726999Y-55387019D01*
X108726999Y-55387019D02*
X108512714Y-55387019D01*
X108512714Y-55387019D02*
X108384142Y-55434638D01*
X107998428Y-56387019D02*
X107998428Y-55387019D01*
X107998428Y-55387019D02*
X107698428Y-56101304D01*
X107698428Y-56101304D02*
X107398428Y-55387019D01*
X107398428Y-55387019D02*
X107398428Y-56387019D01*
X106969857Y-56387019D02*
X106969857Y-55387019D01*
X106969857Y-55387019D02*
X106755571Y-55387019D01*
X106755571Y-55387019D02*
X106627000Y-55434638D01*
X106627000Y-55434638D02*
X106541285Y-55529876D01*
X106541285Y-55529876D02*
X106498428Y-55625114D01*
X106498428Y-55625114D02*
X106455571Y-55815590D01*
X106455571Y-55815590D02*
X106455571Y-55958447D01*
X106455571Y-55958447D02*
X106498428Y-56148923D01*
X106498428Y-56148923D02*
X106541285Y-56244161D01*
X106541285Y-56244161D02*
X106627000Y-56339400D01*
X106627000Y-56339400D02*
X106755571Y-56387019D01*
X106755571Y-56387019D02*
X106969857Y-56387019D01*
D10*
X114859666Y-127803152D02*
X114859666Y-128469819D01*
X115097761Y-127422200D02*
X115335856Y-128136485D01*
X115335856Y-128136485D02*
X114716809Y-128136485D01*
X114431094Y-127469819D02*
X113764428Y-127469819D01*
X113764428Y-127469819D02*
X114192999Y-128469819D01*
X112954904Y-127803152D02*
X112954904Y-128469819D01*
X113383475Y-127803152D02*
X113383475Y-128326961D01*
X113383475Y-128326961D02*
X113335856Y-128422200D01*
X113335856Y-128422200D02*
X113240618Y-128469819D01*
X113240618Y-128469819D02*
X113097761Y-128469819D01*
X113097761Y-128469819D02*
X113002523Y-128422200D01*
X113002523Y-128422200D02*
X112954904Y-128374580D01*
X112145380Y-127946009D02*
X112478713Y-127946009D01*
X112478713Y-128469819D02*
X112478713Y-127469819D01*
X112478713Y-127469819D02*
X112002523Y-127469819D01*
X95359666Y-131169819D02*
X95692999Y-130693628D01*
X95931094Y-131169819D02*
X95931094Y-130169819D01*
X95931094Y-130169819D02*
X95550142Y-130169819D01*
X95550142Y-130169819D02*
X95454904Y-130217438D01*
X95454904Y-130217438D02*
X95407285Y-130265057D01*
X95407285Y-130265057D02*
X95359666Y-130360295D01*
X95359666Y-130360295D02*
X95359666Y-130503152D01*
X95359666Y-130503152D02*
X95407285Y-130598390D01*
X95407285Y-130598390D02*
X95454904Y-130646009D01*
X95454904Y-130646009D02*
X95550142Y-130693628D01*
X95550142Y-130693628D02*
X95931094Y-130693628D01*
X94502523Y-130503152D02*
X94502523Y-131169819D01*
X94740618Y-130122200D02*
X94978713Y-130836485D01*
X94978713Y-130836485D02*
X94359666Y-130836485D01*
X88483475Y-130469819D02*
X87864428Y-130469819D01*
X87864428Y-130469819D02*
X88197761Y-130850771D01*
X88197761Y-130850771D02*
X88054904Y-130850771D01*
X88054904Y-130850771D02*
X87959666Y-130898390D01*
X87959666Y-130898390D02*
X87912047Y-130946009D01*
X87912047Y-130946009D02*
X87864428Y-131041247D01*
X87864428Y-131041247D02*
X87864428Y-131279342D01*
X87864428Y-131279342D02*
X87912047Y-131374580D01*
X87912047Y-131374580D02*
X87959666Y-131422200D01*
X87959666Y-131422200D02*
X88054904Y-131469819D01*
X88054904Y-131469819D02*
X88340618Y-131469819D01*
X88340618Y-131469819D02*
X88435856Y-131422200D01*
X88435856Y-131422200D02*
X88483475Y-131374580D01*
X87388237Y-131469819D02*
X87197761Y-131469819D01*
X87197761Y-131469819D02*
X87102523Y-131422200D01*
X87102523Y-131422200D02*
X87054904Y-131374580D01*
X87054904Y-131374580D02*
X86959666Y-131231723D01*
X86959666Y-131231723D02*
X86912047Y-131041247D01*
X86912047Y-131041247D02*
X86912047Y-130660295D01*
X86912047Y-130660295D02*
X86959666Y-130565057D01*
X86959666Y-130565057D02*
X87007285Y-130517438D01*
X87007285Y-130517438D02*
X87102523Y-130469819D01*
X87102523Y-130469819D02*
X87292999Y-130469819D01*
X87292999Y-130469819D02*
X87388237Y-130517438D01*
X87388237Y-130517438D02*
X87435856Y-130565057D01*
X87435856Y-130565057D02*
X87483475Y-130660295D01*
X87483475Y-130660295D02*
X87483475Y-130898390D01*
X87483475Y-130898390D02*
X87435856Y-130993628D01*
X87435856Y-130993628D02*
X87388237Y-131041247D01*
X87388237Y-131041247D02*
X87292999Y-131088866D01*
X87292999Y-131088866D02*
X87102523Y-131088866D01*
X87102523Y-131088866D02*
X87007285Y-131041247D01*
X87007285Y-131041247D02*
X86959666Y-130993628D01*
X86959666Y-130993628D02*
X86912047Y-130898390D01*
X86292999Y-130469819D02*
X86197761Y-130469819D01*
X86197761Y-130469819D02*
X86102523Y-130517438D01*
X86102523Y-130517438D02*
X86054904Y-130565057D01*
X86054904Y-130565057D02*
X86007285Y-130660295D01*
X86007285Y-130660295D02*
X85959666Y-130850771D01*
X85959666Y-130850771D02*
X85959666Y-131088866D01*
X85959666Y-131088866D02*
X86007285Y-131279342D01*
X86007285Y-131279342D02*
X86054904Y-131374580D01*
X86054904Y-131374580D02*
X86102523Y-131422200D01*
X86102523Y-131422200D02*
X86197761Y-131469819D01*
X86197761Y-131469819D02*
X86292999Y-131469819D01*
X86292999Y-131469819D02*
X86388237Y-131422200D01*
X86388237Y-131422200D02*
X86435856Y-131374580D01*
X86435856Y-131374580D02*
X86483475Y-131279342D01*
X86483475Y-131279342D02*
X86531094Y-131088866D01*
X86531094Y-131088866D02*
X86531094Y-130850771D01*
X86531094Y-130850771D02*
X86483475Y-130660295D01*
X86483475Y-130660295D02*
X86435856Y-130565057D01*
X86435856Y-130565057D02*
X86388237Y-130517438D01*
X86388237Y-130517438D02*
X86292999Y-130469819D01*
X85531094Y-131469819D02*
X85531094Y-130469819D01*
X85435856Y-131088866D02*
X85150142Y-131469819D01*
X85150142Y-130803152D02*
X85531094Y-131184104D01*
X95459666Y-119069819D02*
X95792999Y-118593628D01*
X96031094Y-119069819D02*
X96031094Y-118069819D01*
X96031094Y-118069819D02*
X95650142Y-118069819D01*
X95650142Y-118069819D02*
X95554904Y-118117438D01*
X95554904Y-118117438D02*
X95507285Y-118165057D01*
X95507285Y-118165057D02*
X95459666Y-118260295D01*
X95459666Y-118260295D02*
X95459666Y-118403152D01*
X95459666Y-118403152D02*
X95507285Y-118498390D01*
X95507285Y-118498390D02*
X95554904Y-118546009D01*
X95554904Y-118546009D02*
X95650142Y-118593628D01*
X95650142Y-118593628D02*
X96031094Y-118593628D01*
X95126332Y-118069819D02*
X94459666Y-118069819D01*
X94459666Y-118069819D02*
X94888237Y-119069819D01*
X87883476Y-119169819D02*
X88454904Y-119169819D01*
X88169190Y-119169819D02*
X88169190Y-118169819D01*
X88169190Y-118169819D02*
X88264428Y-118312676D01*
X88264428Y-118312676D02*
X88359666Y-118407914D01*
X88359666Y-118407914D02*
X88454904Y-118455533D01*
X87026333Y-118169819D02*
X87216809Y-118169819D01*
X87216809Y-118169819D02*
X87312047Y-118217438D01*
X87312047Y-118217438D02*
X87359666Y-118265057D01*
X87359666Y-118265057D02*
X87454904Y-118407914D01*
X87454904Y-118407914D02*
X87502523Y-118598390D01*
X87502523Y-118598390D02*
X87502523Y-118979342D01*
X87502523Y-118979342D02*
X87454904Y-119074580D01*
X87454904Y-119074580D02*
X87407285Y-119122200D01*
X87407285Y-119122200D02*
X87312047Y-119169819D01*
X87312047Y-119169819D02*
X87121571Y-119169819D01*
X87121571Y-119169819D02*
X87026333Y-119122200D01*
X87026333Y-119122200D02*
X86978714Y-119074580D01*
X86978714Y-119074580D02*
X86931095Y-118979342D01*
X86931095Y-118979342D02*
X86931095Y-118741247D01*
X86931095Y-118741247D02*
X86978714Y-118646009D01*
X86978714Y-118646009D02*
X87026333Y-118598390D01*
X87026333Y-118598390D02*
X87121571Y-118550771D01*
X87121571Y-118550771D02*
X87312047Y-118550771D01*
X87312047Y-118550771D02*
X87407285Y-118598390D01*
X87407285Y-118598390D02*
X87454904Y-118646009D01*
X87454904Y-118646009D02*
X87502523Y-118741247D01*
X86502523Y-119169819D02*
X86502523Y-118169819D01*
X85931095Y-119169819D02*
X86359666Y-118598390D01*
X85931095Y-118169819D02*
X86502523Y-118741247D01*
X95379666Y-115069819D02*
X95712999Y-114593628D01*
X95951094Y-115069819D02*
X95951094Y-114069819D01*
X95951094Y-114069819D02*
X95570142Y-114069819D01*
X95570142Y-114069819D02*
X95474904Y-114117438D01*
X95474904Y-114117438D02*
X95427285Y-114165057D01*
X95427285Y-114165057D02*
X95379666Y-114260295D01*
X95379666Y-114260295D02*
X95379666Y-114403152D01*
X95379666Y-114403152D02*
X95427285Y-114498390D01*
X95427285Y-114498390D02*
X95474904Y-114546009D01*
X95474904Y-114546009D02*
X95570142Y-114593628D01*
X95570142Y-114593628D02*
X95951094Y-114593628D01*
X94808237Y-114498390D02*
X94903475Y-114450771D01*
X94903475Y-114450771D02*
X94951094Y-114403152D01*
X94951094Y-114403152D02*
X94998713Y-114307914D01*
X94998713Y-114307914D02*
X94998713Y-114260295D01*
X94998713Y-114260295D02*
X94951094Y-114165057D01*
X94951094Y-114165057D02*
X94903475Y-114117438D01*
X94903475Y-114117438D02*
X94808237Y-114069819D01*
X94808237Y-114069819D02*
X94617761Y-114069819D01*
X94617761Y-114069819D02*
X94522523Y-114117438D01*
X94522523Y-114117438D02*
X94474904Y-114165057D01*
X94474904Y-114165057D02*
X94427285Y-114260295D01*
X94427285Y-114260295D02*
X94427285Y-114307914D01*
X94427285Y-114307914D02*
X94474904Y-114403152D01*
X94474904Y-114403152D02*
X94522523Y-114450771D01*
X94522523Y-114450771D02*
X94617761Y-114498390D01*
X94617761Y-114498390D02*
X94808237Y-114498390D01*
X94808237Y-114498390D02*
X94903475Y-114546009D01*
X94903475Y-114546009D02*
X94951094Y-114593628D01*
X94951094Y-114593628D02*
X94998713Y-114688866D01*
X94998713Y-114688866D02*
X94998713Y-114879342D01*
X94998713Y-114879342D02*
X94951094Y-114974580D01*
X94951094Y-114974580D02*
X94903475Y-115022200D01*
X94903475Y-115022200D02*
X94808237Y-115069819D01*
X94808237Y-115069819D02*
X94617761Y-115069819D01*
X94617761Y-115069819D02*
X94522523Y-115022200D01*
X94522523Y-115022200D02*
X94474904Y-114974580D01*
X94474904Y-114974580D02*
X94427285Y-114879342D01*
X94427285Y-114879342D02*
X94427285Y-114688866D01*
X94427285Y-114688866D02*
X94474904Y-114593628D01*
X94474904Y-114593628D02*
X94522523Y-114546009D01*
X94522523Y-114546009D02*
X94617761Y-114498390D01*
X87883476Y-115169819D02*
X88454904Y-115169819D01*
X88169190Y-115169819D02*
X88169190Y-114169819D01*
X88169190Y-114169819D02*
X88264428Y-114312676D01*
X88264428Y-114312676D02*
X88359666Y-114407914D01*
X88359666Y-114407914D02*
X88454904Y-114455533D01*
X87502523Y-114265057D02*
X87454904Y-114217438D01*
X87454904Y-114217438D02*
X87359666Y-114169819D01*
X87359666Y-114169819D02*
X87121571Y-114169819D01*
X87121571Y-114169819D02*
X87026333Y-114217438D01*
X87026333Y-114217438D02*
X86978714Y-114265057D01*
X86978714Y-114265057D02*
X86931095Y-114360295D01*
X86931095Y-114360295D02*
X86931095Y-114455533D01*
X86931095Y-114455533D02*
X86978714Y-114598390D01*
X86978714Y-114598390D02*
X87550142Y-115169819D01*
X87550142Y-115169819D02*
X86931095Y-115169819D01*
X86502523Y-115169819D02*
X86502523Y-114169819D01*
X85931095Y-115169819D02*
X86359666Y-114598390D01*
X85931095Y-114169819D02*
X86502523Y-114741247D01*
X116569757Y-101643319D02*
X117141185Y-101643319D01*
X116855471Y-101643319D02*
X116855471Y-100643319D01*
X116855471Y-100643319D02*
X116950709Y-100786176D01*
X116950709Y-100786176D02*
X117045947Y-100881414D01*
X117045947Y-100881414D02*
X117141185Y-100929033D01*
X116141185Y-101643319D02*
X116141185Y-100643319D01*
X116141185Y-100643319D02*
X115569757Y-101643319D01*
X115569757Y-101643319D02*
X115569757Y-100643319D01*
X114664995Y-100976652D02*
X114664995Y-101643319D01*
X114903090Y-100595700D02*
X115141185Y-101309985D01*
X115141185Y-101309985D02*
X114522138Y-101309985D01*
X113617376Y-101643319D02*
X114188804Y-101643319D01*
X113903090Y-101643319D02*
X113903090Y-100643319D01*
X113903090Y-100643319D02*
X113998328Y-100786176D01*
X113998328Y-100786176D02*
X114093566Y-100881414D01*
X114093566Y-100881414D02*
X114188804Y-100929033D01*
X112760233Y-100976652D02*
X112760233Y-101643319D01*
X112998328Y-100595700D02*
X113236423Y-101309985D01*
X113236423Y-101309985D02*
X112617376Y-101309985D01*
X112093566Y-101071890D02*
X112188804Y-101024271D01*
X112188804Y-101024271D02*
X112236423Y-100976652D01*
X112236423Y-100976652D02*
X112284042Y-100881414D01*
X112284042Y-100881414D02*
X112284042Y-100833795D01*
X112284042Y-100833795D02*
X112236423Y-100738557D01*
X112236423Y-100738557D02*
X112188804Y-100690938D01*
X112188804Y-100690938D02*
X112093566Y-100643319D01*
X112093566Y-100643319D02*
X111903090Y-100643319D01*
X111903090Y-100643319D02*
X111807852Y-100690938D01*
X111807852Y-100690938D02*
X111760233Y-100738557D01*
X111760233Y-100738557D02*
X111712614Y-100833795D01*
X111712614Y-100833795D02*
X111712614Y-100881414D01*
X111712614Y-100881414D02*
X111760233Y-100976652D01*
X111760233Y-100976652D02*
X111807852Y-101024271D01*
X111807852Y-101024271D02*
X111903090Y-101071890D01*
X111903090Y-101071890D02*
X112093566Y-101071890D01*
X112093566Y-101071890D02*
X112188804Y-101119509D01*
X112188804Y-101119509D02*
X112236423Y-101167128D01*
X112236423Y-101167128D02*
X112284042Y-101262366D01*
X112284042Y-101262366D02*
X112284042Y-101452842D01*
X112284042Y-101452842D02*
X112236423Y-101548080D01*
X112236423Y-101548080D02*
X112188804Y-101595700D01*
X112188804Y-101595700D02*
X112093566Y-101643319D01*
X112093566Y-101643319D02*
X111903090Y-101643319D01*
X111903090Y-101643319D02*
X111807852Y-101595700D01*
X111807852Y-101595700D02*
X111760233Y-101548080D01*
X111760233Y-101548080D02*
X111712614Y-101452842D01*
X111712614Y-101452842D02*
X111712614Y-101262366D01*
X111712614Y-101262366D02*
X111760233Y-101167128D01*
X111760233Y-101167128D02*
X111807852Y-101119509D01*
X111807852Y-101119509D02*
X111903090Y-101071890D01*
X109154904Y-103869819D02*
X109154904Y-102869819D01*
X108583476Y-103869819D02*
X109012047Y-103298390D01*
X108583476Y-102869819D02*
X109154904Y-103441247D01*
D11*
%TO.C,G\u002A\u002A\u002A*%
X108125000Y-87550000D02*
X108700000Y-88025000D01*
X108700000Y-88025000D02*
X109125000Y-87700000D01*
X109125000Y-87700000D02*
X108125000Y-87550000D01*
D12*
X109450000Y-89138605D02*
X110350000Y-89125000D01*
X109849999Y-90520050D02*
X109449999Y-90520050D01*
X109850000Y-89525000D02*
X109600000Y-89525000D01*
X109850000Y-89575000D02*
X109850000Y-90025000D01*
X109850000Y-90025000D02*
X109550000Y-90025000D01*
X109850000Y-90525000D02*
X109850000Y-91025000D01*
X109850000Y-91025000D02*
X109400000Y-91025000D01*
D11*
X110075000Y-86825000D02*
X110425000Y-85650000D01*
D12*
X110350000Y-89125000D02*
X110400000Y-91575000D01*
X110400000Y-91575000D02*
X109200000Y-91575000D01*
D11*
X110425000Y-85650000D02*
X112225000Y-85700000D01*
D12*
X110675000Y-91575000D02*
X111450000Y-89125000D01*
X111075000Y-91575000D02*
X110675000Y-91575000D01*
X111325000Y-90975000D02*
X111075000Y-91575000D01*
X111400000Y-90575000D02*
X111625000Y-89825000D01*
X111450000Y-89125000D02*
X111775000Y-89125000D01*
X111625000Y-89825000D02*
X111900000Y-90575000D01*
D11*
X111650000Y-87750000D02*
X113325000Y-87850000D01*
D12*
X111775000Y-89125000D02*
X112675000Y-91575000D01*
X111900000Y-90575000D02*
X111400000Y-90575000D01*
X111925000Y-90975000D02*
X111325000Y-90975000D01*
X112175000Y-91575000D02*
X111925000Y-90975000D01*
X112175000Y-91575000D02*
X112675000Y-91575000D01*
D11*
X112225000Y-85700000D02*
X110075000Y-86825000D01*
X112350000Y-87175000D02*
X111650000Y-87750000D01*
D12*
X112850000Y-91100000D02*
X112850000Y-91550000D01*
X112850000Y-91550000D02*
X114100000Y-91550000D01*
D11*
X113350000Y-87850000D02*
X112350000Y-87175000D01*
X113500000Y-87400000D02*
X115125000Y-88525000D01*
X113550000Y-85075000D02*
X114675000Y-86300000D01*
X113575000Y-84675000D02*
X113500000Y-87400000D01*
D12*
X113600000Y-91100000D02*
X112850000Y-91100000D01*
X113625000Y-89100000D02*
X113600000Y-91100000D01*
X114075000Y-89100000D02*
X113625000Y-89100000D01*
X114100000Y-91550000D02*
X114075000Y-89100000D01*
X114275000Y-91550000D02*
X114975000Y-90600000D01*
X114375000Y-91550000D02*
X114275000Y-91550000D01*
D11*
X114675000Y-86300000D02*
X114100000Y-87800000D01*
D12*
X114775000Y-91550000D02*
X114375000Y-91550000D01*
X115016269Y-89094594D02*
X116125000Y-89100000D01*
D11*
X115125000Y-88525000D02*
X116800000Y-88300000D01*
D12*
X115175000Y-89550000D02*
X115625000Y-89550000D01*
X115525000Y-90600000D02*
X114775000Y-91550000D01*
X115625000Y-89550000D02*
X115625000Y-90100000D01*
X115625000Y-90100000D02*
X115125000Y-90100000D01*
X115675000Y-90600000D02*
X115525000Y-90600000D01*
X115675000Y-91550000D02*
X115675000Y-90600000D01*
X116125000Y-89100000D02*
X116125000Y-91550000D01*
X116125000Y-91550000D02*
X115675000Y-91550000D01*
D11*
X116275000Y-88750000D02*
X117250000Y-89100000D01*
D12*
X116575000Y-89100000D02*
X117875000Y-89100000D01*
X116575000Y-89600000D02*
X116575000Y-89100000D01*
X116575000Y-91050000D02*
X117425000Y-91050000D01*
X116575000Y-91550000D02*
X116575000Y-91050000D01*
D11*
X116675000Y-88475000D02*
X116275000Y-88750000D01*
D12*
X116775000Y-90050000D02*
X117425000Y-90050000D01*
X116775000Y-90500000D02*
X116775000Y-90050000D01*
D11*
X116800000Y-88300000D02*
X118625000Y-89200000D01*
X117050000Y-86300000D02*
X113575000Y-84675000D01*
X117050000Y-86300000D02*
X119375000Y-87450000D01*
D12*
X117425000Y-89600000D02*
X116575000Y-89600000D01*
X117425000Y-90050000D02*
X117425000Y-89600000D01*
X117425000Y-90500000D02*
X116775000Y-90500000D01*
X117425000Y-91050000D02*
X117425000Y-90500000D01*
D11*
X117450000Y-89075000D02*
X116675000Y-88475000D01*
X117800000Y-84875000D02*
X117050000Y-86300000D01*
X117800000Y-84875000D02*
X120000000Y-86050000D01*
D12*
X117825000Y-91550000D02*
X116575000Y-91550000D01*
X117875000Y-89100000D02*
X117925000Y-91550000D01*
X117925000Y-91550000D02*
X117825000Y-91550000D01*
X119025000Y-89113605D02*
X119925000Y-89100000D01*
D11*
X119375000Y-87450000D02*
X120850000Y-89175000D01*
X119375000Y-87450000D02*
X125025000Y-90300000D01*
D12*
X119424999Y-90495050D02*
X119024999Y-90495050D01*
X119425000Y-89500000D02*
X119175000Y-89500000D01*
X119425000Y-89550000D02*
X119425000Y-90000000D01*
X119425000Y-90000000D02*
X119125000Y-90000000D01*
X119425000Y-90500000D02*
X119425000Y-91000000D01*
X119425000Y-91000000D02*
X118975000Y-91000000D01*
X119925000Y-89100000D02*
X119975000Y-91550000D01*
X119975000Y-91550000D02*
X118775000Y-91550000D01*
D11*
X120000000Y-86050000D02*
X118425000Y-86950000D01*
X120100000Y-85875000D02*
X119375000Y-87450000D01*
D12*
X120375000Y-89950000D02*
X120375000Y-90650000D01*
D11*
X120675000Y-89275000D02*
X113575000Y-84675000D01*
D12*
X120875000Y-89950000D02*
X120875000Y-90600000D01*
D11*
X121125000Y-86125000D02*
X119375000Y-87450000D01*
X121125000Y-86125000D02*
X120100000Y-85875000D01*
X121200000Y-90200000D02*
X121575000Y-90375000D01*
X121525000Y-89800000D02*
X121200000Y-90200000D01*
D12*
X121575000Y-89950000D02*
X121575000Y-90650000D01*
D11*
X122075000Y-90550000D02*
X122625000Y-90825000D01*
D12*
X122075000Y-90650000D02*
X122075000Y-89950000D01*
D11*
X122125000Y-89825000D02*
X122350000Y-90450000D01*
X122350000Y-90450000D02*
X125025000Y-90300000D01*
X122625000Y-90825000D02*
X122050000Y-90025000D01*
X123700000Y-90775000D02*
X122875000Y-90425000D01*
X125025000Y-90300000D02*
X121125000Y-86125000D01*
X125025000Y-90300000D02*
X122125000Y-89825000D01*
X125025000Y-90300000D02*
X123700000Y-90775000D01*
D12*
X109000001Y-90224999D02*
G75*
G02*
X109450000Y-89138605I449999J449999D01*
G01*
X109200001Y-91574999D02*
G75*
G02*
X109023744Y-90266063I249998J699999D01*
G01*
X109400001Y-91024999D02*
G75*
G02*
X109449999Y-90520050I49999J249999D01*
G01*
X109550000Y-90025000D02*
G75*
G02*
X109610634Y-89532464I0J250000D01*
G01*
X115000001Y-90549999D02*
G75*
G02*
X115016269Y-89094594I249999J724999D01*
G01*
X115125001Y-90099999D02*
G75*
G02*
X115125001Y-89550001I124999J274999D01*
G01*
X118575001Y-90199999D02*
G75*
G02*
X119025000Y-89113605I449999J449999D01*
G01*
X118775001Y-91549999D02*
G75*
G02*
X118598744Y-90241063I249998J699999D01*
G01*
X118975001Y-90999999D02*
G75*
G02*
X119024999Y-90495050I49999J249999D01*
G01*
X119125000Y-90000000D02*
G75*
G02*
X119185634Y-89507464I0J250000D01*
G01*
X120375000Y-89950000D02*
G75*
G02*
X122075000Y-89950000I850000J0D01*
G01*
X120875000Y-89950000D02*
G75*
G02*
X121575000Y-89950000I350000J0D01*
G01*
X121575000Y-90650000D02*
G75*
G02*
X120875000Y-90650000I-350000J0D01*
G01*
X122075000Y-90650000D02*
G75*
G02*
X120375000Y-90650000I-850000J0D01*
G01*
D13*
X130572361Y-144545226D02*
X130508542Y-144609045D01*
X130444723Y-144545226D01*
X130508542Y-144481407D01*
X130572361Y-144545226D01*
G36*
X130572361Y-144545226D02*
G01*
X130508542Y-144609045D01*
X130444723Y-144545226D01*
X130508542Y-144481407D01*
X130572361Y-144545226D01*
G37*
D12*
%TO.C,R3*%
X91173000Y-134765000D02*
X91943000Y-134765000D01*
X99253000Y-134765000D02*
X98483000Y-134765000D01*
X91943000Y-136135000D02*
X98483000Y-136135000D01*
X98483000Y-133395000D01*
X91943000Y-133395000D01*
X91943000Y-136135000D01*
%TO.C,R5*%
X91173000Y-126665000D02*
X91943000Y-126665000D01*
X99253000Y-126665000D02*
X98483000Y-126665000D01*
X91943000Y-128035000D02*
X98483000Y-128035000D01*
X98483000Y-125295000D01*
X91943000Y-125295000D01*
X91943000Y-128035000D01*
%TO.C,R6*%
X91173000Y-122615000D02*
X91943000Y-122615000D01*
X99253000Y-122615000D02*
X98483000Y-122615000D01*
X91943000Y-123985000D02*
X98483000Y-123985000D01*
X98483000Y-121245000D01*
X91943000Y-121245000D01*
X91943000Y-123985000D01*
%TO.C,S1*%
X133662600Y-105045800D02*
X133662600Y-115002600D01*
X133662600Y-115002600D02*
X137599600Y-115028000D01*
X137599600Y-105045800D02*
X133662600Y-105045800D01*
X137599600Y-115002600D02*
X137599600Y-105045800D01*
%TO.C,U1*%
X111786900Y-105798500D02*
X117086900Y-105798500D01*
X111786900Y-116078500D02*
X111786900Y-105798500D01*
X113436900Y-116078500D02*
X111786900Y-116078500D01*
X117086900Y-105798500D02*
X117086900Y-116078500D01*
X117086900Y-116078500D02*
X115436900Y-116078500D01*
X113436900Y-116078500D02*
G75*
G02*
X115436900Y-116078500I1000000J0D01*
G01*
%TO.C,C1*%
X109578000Y-123240000D02*
X110208000Y-123240000D01*
X109893000Y-123555000D02*
X109893000Y-122925000D01*
X113843000Y-126445000D02*
X113843000Y-119985000D01*
X113883000Y-126445000D02*
X113883000Y-119985000D01*
X113923000Y-126445000D02*
X113923000Y-119985000D01*
X113963000Y-126443000D02*
X113963000Y-119987000D01*
X114003000Y-126442000D02*
X114003000Y-119988000D01*
X114043000Y-126439000D02*
X114043000Y-119991000D01*
X114083000Y-122175000D02*
X114083000Y-119993000D01*
X114083000Y-126437000D02*
X114083000Y-124255000D01*
X114123000Y-122175000D02*
X114123000Y-119997000D01*
X114123000Y-126433000D02*
X114123000Y-124255000D01*
X114163000Y-122175000D02*
X114163000Y-120000000D01*
X114163000Y-126430000D02*
X114163000Y-124255000D01*
X114203000Y-122175000D02*
X114203000Y-120004000D01*
X114203000Y-126426000D02*
X114203000Y-124255000D01*
X114243000Y-122175000D02*
X114243000Y-120009000D01*
X114243000Y-126421000D02*
X114243000Y-124255000D01*
X114283000Y-122175000D02*
X114283000Y-120014000D01*
X114283000Y-126416000D02*
X114283000Y-124255000D01*
X114323000Y-122175000D02*
X114323000Y-120020000D01*
X114323000Y-126410000D02*
X114323000Y-124255000D01*
X114363000Y-122175000D02*
X114363000Y-120026000D01*
X114363000Y-126404000D02*
X114363000Y-124255000D01*
X114403000Y-122175000D02*
X114403000Y-120033000D01*
X114403000Y-126397000D02*
X114403000Y-124255000D01*
X114443000Y-122175000D02*
X114443000Y-120040000D01*
X114443000Y-126390000D02*
X114443000Y-124255000D01*
X114483000Y-122175000D02*
X114483000Y-120048000D01*
X114483000Y-126382000D02*
X114483000Y-124255000D01*
X114523000Y-122175000D02*
X114523000Y-120056000D01*
X114523000Y-126374000D02*
X114523000Y-124255000D01*
X114564000Y-122175000D02*
X114564000Y-120065000D01*
X114564000Y-126365000D02*
X114564000Y-124255000D01*
X114604000Y-122175000D02*
X114604000Y-120074000D01*
X114604000Y-126356000D02*
X114604000Y-124255000D01*
X114644000Y-122175000D02*
X114644000Y-120084000D01*
X114644000Y-126346000D02*
X114644000Y-124255000D01*
X114684000Y-122175000D02*
X114684000Y-120094000D01*
X114684000Y-126336000D02*
X114684000Y-124255000D01*
X114724000Y-122175000D02*
X114724000Y-120105000D01*
X114724000Y-126325000D02*
X114724000Y-124255000D01*
X114764000Y-122175000D02*
X114764000Y-120117000D01*
X114764000Y-126313000D02*
X114764000Y-124255000D01*
X114804000Y-122175000D02*
X114804000Y-120129000D01*
X114804000Y-126301000D02*
X114804000Y-124255000D01*
X114844000Y-122175000D02*
X114844000Y-120141000D01*
X114844000Y-126289000D02*
X114844000Y-124255000D01*
X114884000Y-122175000D02*
X114884000Y-120154000D01*
X114884000Y-126276000D02*
X114884000Y-124255000D01*
X114924000Y-122175000D02*
X114924000Y-120168000D01*
X114924000Y-126262000D02*
X114924000Y-124255000D01*
X114964000Y-122175000D02*
X114964000Y-120182000D01*
X114964000Y-126248000D02*
X114964000Y-124255000D01*
X115004000Y-122175000D02*
X115004000Y-120197000D01*
X115004000Y-126233000D02*
X115004000Y-124255000D01*
X115044000Y-122175000D02*
X115044000Y-120213000D01*
X115044000Y-126217000D02*
X115044000Y-124255000D01*
X115084000Y-122175000D02*
X115084000Y-120229000D01*
X115084000Y-126201000D02*
X115084000Y-124255000D01*
X115124000Y-122175000D02*
X115124000Y-120245000D01*
X115124000Y-126185000D02*
X115124000Y-124255000D01*
X115164000Y-122175000D02*
X115164000Y-120263000D01*
X115164000Y-126167000D02*
X115164000Y-124255000D01*
X115204000Y-122175000D02*
X115204000Y-120281000D01*
X115204000Y-126149000D02*
X115204000Y-124255000D01*
X115244000Y-122175000D02*
X115244000Y-120299000D01*
X115244000Y-126131000D02*
X115244000Y-124255000D01*
X115284000Y-122175000D02*
X115284000Y-120319000D01*
X115284000Y-126111000D02*
X115284000Y-124255000D01*
X115324000Y-122175000D02*
X115324000Y-120339000D01*
X115324000Y-126091000D02*
X115324000Y-124255000D01*
X115364000Y-122175000D02*
X115364000Y-120359000D01*
X115364000Y-126071000D02*
X115364000Y-124255000D01*
X115404000Y-122175000D02*
X115404000Y-120381000D01*
X115404000Y-126049000D02*
X115404000Y-124255000D01*
X115444000Y-122175000D02*
X115444000Y-120403000D01*
X115444000Y-126027000D02*
X115444000Y-124255000D01*
X115484000Y-122175000D02*
X115484000Y-120425000D01*
X115484000Y-126005000D02*
X115484000Y-124255000D01*
X115524000Y-122175000D02*
X115524000Y-120449000D01*
X115524000Y-125981000D02*
X115524000Y-124255000D01*
X115564000Y-122175000D02*
X115564000Y-120473000D01*
X115564000Y-125957000D02*
X115564000Y-124255000D01*
X115604000Y-122175000D02*
X115604000Y-120499000D01*
X115604000Y-125931000D02*
X115604000Y-124255000D01*
X115644000Y-122175000D02*
X115644000Y-120525000D01*
X115644000Y-125905000D02*
X115644000Y-124255000D01*
X115684000Y-122175000D02*
X115684000Y-120551000D01*
X115684000Y-125879000D02*
X115684000Y-124255000D01*
X115724000Y-122175000D02*
X115724000Y-120579000D01*
X115724000Y-125851000D02*
X115724000Y-124255000D01*
X115764000Y-122175000D02*
X115764000Y-120608000D01*
X115764000Y-125822000D02*
X115764000Y-124255000D01*
X115804000Y-122175000D02*
X115804000Y-120637000D01*
X115804000Y-125793000D02*
X115804000Y-124255000D01*
X115844000Y-122175000D02*
X115844000Y-120667000D01*
X115844000Y-125763000D02*
X115844000Y-124255000D01*
X115884000Y-122175000D02*
X115884000Y-120699000D01*
X115884000Y-125731000D02*
X115884000Y-124255000D01*
X115924000Y-122175000D02*
X115924000Y-120731000D01*
X115924000Y-125699000D02*
X115924000Y-124255000D01*
X115964000Y-122175000D02*
X115964000Y-120765000D01*
X115964000Y-125665000D02*
X115964000Y-124255000D01*
X116004000Y-122175000D02*
X116004000Y-120799000D01*
X116004000Y-125631000D02*
X116004000Y-124255000D01*
X116044000Y-122175000D02*
X116044000Y-120835000D01*
X116044000Y-125595000D02*
X116044000Y-124255000D01*
X116084000Y-122175000D02*
X116084000Y-120872000D01*
X116084000Y-125558000D02*
X116084000Y-124255000D01*
X116124000Y-122175000D02*
X116124000Y-120910000D01*
X116124000Y-125520000D02*
X116124000Y-124255000D01*
X116164000Y-125480000D02*
X116164000Y-120950000D01*
X116204000Y-125439000D02*
X116204000Y-120991000D01*
X116244000Y-125397000D02*
X116244000Y-121033000D01*
X116284000Y-125352000D02*
X116284000Y-121078000D01*
X116324000Y-125307000D02*
X116324000Y-121123000D01*
X116364000Y-125259000D02*
X116364000Y-121171000D01*
X116404000Y-125210000D02*
X116404000Y-121220000D01*
X116444000Y-125159000D02*
X116444000Y-121271000D01*
X116484000Y-125105000D02*
X116484000Y-121325000D01*
X116524000Y-125049000D02*
X116524000Y-121381000D01*
X116564000Y-124991000D02*
X116564000Y-121439000D01*
X116604000Y-124929000D02*
X116604000Y-121501000D01*
X116644000Y-124865000D02*
X116644000Y-121565000D01*
X116684000Y-124796000D02*
X116684000Y-121634000D01*
X116724000Y-124724000D02*
X116724000Y-121706000D01*
X116764000Y-124647000D02*
X116764000Y-121783000D01*
X116804000Y-124565000D02*
X116804000Y-121865000D01*
X116844000Y-124477000D02*
X116844000Y-121953000D01*
X116884000Y-124380000D02*
X116884000Y-122050000D01*
X116924000Y-124274000D02*
X116924000Y-122156000D01*
X116964000Y-124155000D02*
X116964000Y-122275000D01*
X117004000Y-124017000D02*
X117004000Y-122413000D01*
X117044000Y-123848000D02*
X117044000Y-122582000D01*
X117084000Y-123617000D02*
X117084000Y-122813000D01*
X117963000Y-123215000D02*
X118593000Y-123215000D01*
X117113000Y-123215000D02*
G75*
G02*
X110573000Y-123215000I-3270000J0D01*
G01*
X110573000Y-123215000D02*
G75*
G02*
X117113000Y-123215000I3270000J0D01*
G01*
%TO.C,R4*%
X91173000Y-130715000D02*
X91943000Y-130715000D01*
X99253000Y-130715000D02*
X98483000Y-130715000D01*
X91943000Y-132085000D02*
X98483000Y-132085000D01*
X98483000Y-129345000D01*
X91943000Y-129345000D01*
X91943000Y-132085000D01*
%TO.C,R7*%
X91173000Y-118565000D02*
X91943000Y-118565000D01*
X99253000Y-118565000D02*
X98483000Y-118565000D01*
X91943000Y-119935000D02*
X98483000Y-119935000D01*
X98483000Y-117195000D01*
X91943000Y-117195000D01*
X91943000Y-119935000D01*
%TO.C,R8*%
X91173000Y-114515000D02*
X91943000Y-114515000D01*
X99253000Y-114515000D02*
X98483000Y-114515000D01*
X91943000Y-115885000D02*
X98483000Y-115885000D01*
X98483000Y-113145000D01*
X91943000Y-113145000D01*
X91943000Y-115885000D01*
%TO.C,D3*%
X111656900Y-103308500D02*
X112306900Y-103308500D01*
X112306900Y-102188500D02*
X116546900Y-102188500D01*
X112306900Y-104428500D02*
X112306900Y-102188500D01*
X112906900Y-104428500D02*
X112906900Y-102188500D01*
X113026900Y-104428500D02*
X113026900Y-102188500D01*
X113146900Y-104428500D02*
X113146900Y-102188500D01*
X116546900Y-102188500D02*
X116546900Y-104428500D01*
X116546900Y-104428500D02*
X112306900Y-104428500D01*
X117196900Y-103308500D02*
X116546900Y-103308500D01*
%TD*%
M02*
