M48
; DRILL file {KiCad 9.0.6} date 2026-01-09T10:34:42+0100
; FORMAT={-:-/ absolute / inch / decimal}
; #@! TF.CreationDate,2026-01-09T10:34:42+01:00
; #@! TF.GenerationSoftware,Kicad,Pcbnew,9.0.6
; #@! TF.FileFunction,Plated,1,2,PTH
FMAT,2
INCH
; #@! TA.AperFunction,Plated,PTH,ComponentDrill
T1C0.0315
; #@! TA.AperFunction,Plated,PTH,ComponentDrill
T2C0.0354
; #@! TA.AperFunction,Plated,PTH,ComponentDrill
T3C0.0394
%
G90
G05
T1
X3.5485Y-4.5085
X3.5485Y-4.6679
X3.5485Y-4.8274
X3.5485Y-4.9868
X3.5485Y-5.1463
X3.5485Y-5.3057
X3.9485Y-4.5085
X3.9485Y-4.6679
X3.9485Y-4.8274
X3.9485Y-4.9868
X3.9485Y-5.1463
X3.9485Y-5.3057
X4.355Y-4.0673
X4.3554Y-4.2177
X4.3554Y-4.3177
X4.3554Y-4.4177
X4.3554Y-4.5177
X4.4328Y-4.851
X4.5312Y-4.851
X4.655Y-4.0673
X4.6554Y-4.2177
X4.6554Y-4.3177
X4.6554Y-4.4177
X4.6554Y-4.5177
X4.8761Y-5.2376
X4.9761Y-5.1376
X5.0044Y-4.8392
X5.0761Y-5.2376
X5.1044Y-4.7392
X5.2044Y-4.8392
T2
X4.1469Y-3.126
X4.2469Y-3.126
X4.9972Y-3.1142
X5.0972Y-3.1142
T3
X5.3383Y-4.2337
X5.3383Y-4.3337
X5.3383Y-4.4337
M30
