%TF.GenerationSoftware,KiCad,Pcbnew,9.0.6*%
%TF.CreationDate,2025-12-07T14:23:17+01:00*%
%TF.ProjectId,Rocket,526f636b-6574-42e6-9b69-6361645f7063,rev?*%
%TF.SameCoordinates,Original*%
%TF.FileFunction,Profile,NP*%
%FSLAX46Y46*%
G04 Gerber Fmt 4.6, Leading zero omitted, Abs format (unit mm)*
G04 Created by KiCad (PCBNEW 9.0.6) date 2025-12-07 14:23:17*
%MOMM*%
%LPD*%
G01*
G04 APERTURE LIST*
%TA.AperFunction,Profile*%
%ADD10C,0.100000*%
%TD*%
G04 APERTURE END LIST*
D10*
X137205800Y-40232200D02*
X137108800Y-40247700D01*
X137108800Y-40247700D02*
X137026800Y-40291100D01*
X137026800Y-40291100D02*
X136961800Y-40366500D01*
X136961800Y-40366500D02*
X136915800Y-40477100D01*
X136915800Y-40477100D02*
X136737800Y-40861100D01*
X136737800Y-40861100D02*
X136615800Y-41251200D01*
X136615800Y-41251200D02*
X136543800Y-41646600D01*
X136543800Y-41646600D02*
X136516800Y-42045500D01*
X136516800Y-42045500D02*
X136528800Y-42447000D01*
X136528800Y-42447000D02*
X136574800Y-42850100D01*
X136574800Y-42850100D02*
X136647800Y-43252700D01*
X136647800Y-43252700D02*
X136743800Y-43654200D01*
X136743800Y-43654200D02*
X136978800Y-44448500D01*
X136978800Y-44448500D02*
X137233800Y-45221500D01*
X137233800Y-45221500D02*
X137464800Y-45963600D01*
X137464800Y-45963600D02*
X137556800Y-46319700D01*
X137556800Y-46319700D02*
X137625800Y-46664300D01*
X137625800Y-46664300D02*
X136323800Y-46099500D01*
X136323800Y-46099500D02*
X134986800Y-45568300D01*
X134986800Y-45568300D02*
X134306800Y-45322300D01*
X134306800Y-45322300D02*
X133620800Y-45092300D01*
X133620800Y-45092300D02*
X132927800Y-44882000D01*
X132927800Y-44882000D02*
X132230800Y-44693400D01*
X132230800Y-44693400D02*
X131528800Y-44529600D01*
X131528800Y-44529600D02*
X130822800Y-44393200D01*
X130822800Y-44393200D02*
X130114800Y-44286200D01*
X130114800Y-44286200D02*
X129403800Y-44212300D01*
X129403800Y-44212300D02*
X128691800Y-44173500D01*
X128691800Y-44173500D02*
X127978800Y-44172500D01*
X127978800Y-44172500D02*
X127264800Y-44212300D01*
X127264800Y-44212300D02*
X126552800Y-44295500D01*
X126552800Y-44295500D02*
X126573800Y-44533700D01*
X126573800Y-44533700D02*
X126608800Y-44762600D01*
X126608800Y-44762600D02*
X126656800Y-44981800D01*
X126656800Y-44981800D02*
X126718800Y-45192600D01*
X126718800Y-45192600D02*
X126878800Y-45588400D01*
X126878800Y-45588400D02*
X127083800Y-45953800D01*
X127083800Y-45953800D02*
X127328800Y-46290700D01*
X127328800Y-46290700D02*
X127607800Y-46603400D01*
X127607800Y-46603400D02*
X127916800Y-46894300D01*
X127916800Y-46894300D02*
X128250800Y-47166100D01*
X128250800Y-47166100D02*
X128604800Y-47421900D01*
X128604800Y-47421900D02*
X128972800Y-47665300D01*
X128972800Y-47665300D02*
X129731800Y-48125200D01*
X129731800Y-48125200D02*
X130489800Y-48570200D01*
X130489800Y-48570200D02*
X131204800Y-49024400D01*
X131204800Y-49024400D02*
X130731800Y-49062100D01*
X130731800Y-49062100D02*
X130240800Y-49086400D01*
X130240800Y-49086400D02*
X129222800Y-49112800D01*
X129222800Y-49112800D02*
X128180800Y-49143800D01*
X128180800Y-49143800D02*
X127659800Y-49173700D01*
X127659800Y-49173700D02*
X127143800Y-49220300D01*
X127143800Y-49220300D02*
X126635800Y-49288500D01*
X126635800Y-49288500D02*
X126140800Y-49383600D01*
X126140800Y-49383600D02*
X125661900Y-49510200D01*
X125661900Y-49510200D02*
X125202500Y-49673500D01*
X125202500Y-49673500D02*
X124766400Y-49878600D01*
X124766400Y-49878600D02*
X124357600Y-50130800D01*
X124357600Y-50130800D02*
X124164300Y-50276500D01*
X124164300Y-50276500D02*
X123979300Y-50435700D01*
X123979300Y-50435700D02*
X123803100Y-50608800D01*
X123803100Y-50608800D02*
X123636200Y-50796900D01*
X123636200Y-50796900D02*
X123660500Y-50977800D01*
X123660500Y-50977800D02*
X123699800Y-51148800D01*
X123699800Y-51148800D02*
X123815000Y-51462000D01*
X123815000Y-51462000D02*
X123968500Y-51740000D01*
X123968500Y-51740000D02*
X124147300Y-51986500D01*
X124147300Y-51986500D02*
X124338500Y-52204600D01*
X124338500Y-52204600D02*
X124528700Y-52397800D01*
X124528700Y-52397800D02*
X124855300Y-52723400D01*
X124855300Y-52723400D02*
X124965300Y-52861900D01*
X124965300Y-52861900D02*
X125022700Y-52989500D01*
X125022700Y-52989500D02*
X125027300Y-53050500D01*
X125027300Y-53050500D02*
X125013900Y-53109400D01*
X125013900Y-53109400D02*
X124980800Y-53167300D01*
X124980800Y-53167300D02*
X124926600Y-53224700D01*
X124926600Y-53224700D02*
X124746700Y-53338400D01*
X124746700Y-53338400D02*
X124462000Y-53455100D01*
X124462000Y-53455100D02*
X124059400Y-53577100D01*
X124059400Y-53577100D02*
X123525600Y-53707800D01*
X123525600Y-53707800D02*
X123226400Y-53802400D01*
X123226400Y-53802400D02*
X122929300Y-53875300D01*
X122929300Y-53875300D02*
X122633700Y-53928500D01*
X122633700Y-53928500D02*
X122339600Y-53962100D01*
X122339600Y-53962100D02*
X122047200Y-53977600D01*
X122047200Y-53977600D02*
X121756200Y-53976600D01*
X121756200Y-53976600D02*
X121466800Y-53959500D01*
X121466800Y-53959500D02*
X121178000Y-53927500D01*
X121178000Y-53927500D02*
X120604900Y-53824100D01*
X120604900Y-53824100D02*
X120034900Y-53674200D01*
X120034900Y-53674200D02*
X119468000Y-53487200D01*
X119468000Y-53487200D02*
X118903700Y-53272200D01*
X118903700Y-53272200D02*
X117777600Y-52790100D01*
X117777600Y-52790100D02*
X116651100Y-52299100D01*
X116651100Y-52299100D02*
X116085800Y-52071200D01*
X116085800Y-52071200D02*
X115517800Y-51867600D01*
X115517800Y-51867600D02*
X114946300Y-51696600D01*
X114946300Y-51696600D02*
X114371100Y-51566400D01*
X114371100Y-51566400D02*
X112682400Y-50995900D01*
X112682400Y-50995900D02*
X110979600Y-50460500D01*
X110979600Y-50460500D02*
X109262900Y-49970600D01*
X109262900Y-49970600D02*
X108399400Y-49744800D01*
X108399400Y-49744800D02*
X107532800Y-49533900D01*
X107532800Y-49533900D02*
X106662600Y-49338600D01*
X106662600Y-49338600D02*
X105789200Y-49160800D01*
X105789200Y-49160800D02*
X104912800Y-49000100D01*
X104912800Y-49000100D02*
X104032800Y-48859000D01*
X104032800Y-48859000D02*
X103150100Y-48738100D01*
X103150100Y-48738100D02*
X102263900Y-48638900D01*
X102263900Y-48638900D02*
X101375000Y-48561900D01*
X101375000Y-48561900D02*
X100482600Y-48508700D01*
X100482600Y-48508700D02*
X100011300Y-49120500D01*
X100011300Y-49120500D02*
X99583900Y-49751500D01*
X99583900Y-49751500D02*
X99200000Y-50400000D01*
X99200000Y-50400000D02*
X98859400Y-51064100D01*
X98859400Y-51064100D02*
X98560200Y-51742600D01*
X98560200Y-51742600D02*
X98302400Y-52434000D01*
X98302400Y-52434000D02*
X98084800Y-53136300D01*
X98084800Y-53136300D02*
X97907000Y-53848900D01*
X97907000Y-53848900D02*
X97768000Y-54569800D01*
X97768000Y-54569800D02*
X97667200Y-55297400D01*
X97667200Y-55297400D02*
X97603700Y-56030200D01*
X97603700Y-56030200D02*
X97577300Y-56766600D01*
X97577300Y-56766600D02*
X97586600Y-57505500D01*
X97586600Y-57505500D02*
X97630600Y-58245000D01*
X97630600Y-58245000D02*
X97709100Y-58984000D01*
X97709100Y-58984000D02*
X97821800Y-59720900D01*
X97821800Y-59720900D02*
X97966500Y-60453700D01*
X97966500Y-60453700D02*
X98143700Y-61181300D01*
X98143700Y-61181300D02*
X98352500Y-61902200D01*
X98352500Y-61902200D02*
X98591200Y-62614800D01*
X98591200Y-62614800D02*
X98860500Y-63317600D01*
X98860500Y-63317600D02*
X99158100Y-64009000D01*
X99158100Y-64009000D02*
X99484200Y-64687500D01*
X99484200Y-64687500D02*
X99837700Y-65352100D01*
X99837700Y-65352100D02*
X100218500Y-66000600D01*
X100218500Y-66000600D02*
X100624700Y-66631600D01*
X100624700Y-66631600D02*
X101056700Y-67244000D01*
X101056700Y-67244000D02*
X101512500Y-67836200D01*
X101512500Y-67836200D02*
X101992600Y-68406200D01*
X101992600Y-68406200D02*
X102495400Y-68952900D01*
X102495400Y-68952900D02*
X103020400Y-69474800D01*
X103020400Y-69474800D02*
X103567100Y-69970400D01*
X103567100Y-69970400D02*
X103753700Y-70230900D01*
X103753700Y-70230900D02*
X103979500Y-70486100D01*
X103979500Y-70486100D02*
X104237400Y-70736300D01*
X104237400Y-70736300D02*
X104519500Y-70981700D01*
X104519500Y-70981700D02*
X105126200Y-71464900D01*
X105126200Y-71464900D02*
X105740700Y-71941300D01*
X105740700Y-71941300D02*
X106031600Y-72178500D01*
X106031600Y-72178500D02*
X106301900Y-72417300D01*
X106301900Y-72417300D02*
X106543700Y-72657600D01*
X106543700Y-72657600D02*
X106749900Y-72899900D01*
X106749900Y-72899900D02*
X106913200Y-73146400D01*
X106913200Y-73146400D02*
X107025300Y-73396000D01*
X107025300Y-73396000D02*
X107060000Y-73522600D01*
X107060000Y-73522600D02*
X107079100Y-73651300D01*
X107079100Y-73651300D02*
X107082200Y-73780500D01*
X107082200Y-73780500D02*
X107067700Y-73911800D01*
X107067700Y-73911800D02*
X105841900Y-75917900D01*
X105841900Y-75917900D02*
X105218700Y-76923000D01*
X105218700Y-76923000D02*
X104571200Y-77920300D01*
X104571200Y-77920300D02*
X103886000Y-78903700D01*
X103886000Y-78903700D02*
X103525800Y-79387900D01*
X103525800Y-79387900D02*
X103151200Y-79865900D01*
X103151200Y-79865900D02*
X102760500Y-80337200D01*
X102760500Y-80337200D02*
X102352700Y-80800800D01*
X102352700Y-80800800D02*
X101925900Y-81255500D01*
X101925900Y-81255500D02*
X101478900Y-81701000D01*
X101478900Y-81701000D02*
X100842800Y-82468900D01*
X100842800Y-82468900D02*
X100209200Y-83255400D01*
X100209200Y-83255400D02*
X99605100Y-84063600D01*
X99605100Y-84063600D02*
X99321900Y-84477000D01*
X99321900Y-84477000D02*
X99056300Y-84896600D01*
X99056300Y-84896600D02*
X98810800Y-85323500D01*
X98810800Y-85323500D02*
X98589200Y-85758100D01*
X98589200Y-85758100D02*
X98394900Y-86200400D01*
X98394900Y-86200400D02*
X98230500Y-86651000D01*
X98230500Y-86651000D02*
X98099800Y-87110500D01*
X98099800Y-87110500D02*
X98006200Y-87579200D01*
X98006200Y-87579200D02*
X97953000Y-88057200D01*
X97953000Y-88057200D02*
X97943200Y-88545500D01*
X97943200Y-88545500D02*
X98073400Y-88716000D01*
X98073400Y-88716000D02*
X98235200Y-88849400D01*
X98235200Y-88849400D02*
X98422800Y-88950100D01*
X98422800Y-88950100D02*
X98631500Y-89023500D01*
X98631500Y-89023500D02*
X98855800Y-89073600D01*
X98855800Y-89073600D02*
X99091500Y-89106200D01*
X99091500Y-89106200D02*
X99575700Y-89137200D01*
X99575700Y-89137200D02*
X100043800Y-89155300D01*
X100043800Y-89155300D02*
X100259300Y-89171800D01*
X100259300Y-89171800D02*
X100455700Y-89199700D01*
X100455700Y-89199700D02*
X100627800Y-89243700D01*
X100627800Y-89243700D02*
X100770900Y-89308800D01*
X100770900Y-89308800D02*
X100880000Y-89400200D01*
X100880000Y-89400200D02*
X100949700Y-89522200D01*
X100949700Y-89522200D02*
X100710500Y-89708700D01*
X100710500Y-89708700D02*
X100513600Y-89925800D01*
X100513600Y-89925800D02*
X100359100Y-90166100D01*
X100359100Y-90166100D02*
X100246400Y-90424500D01*
X100246400Y-90424500D02*
X100174600Y-90693200D01*
X100174600Y-90693200D02*
X100143600Y-90967100D01*
X100143600Y-90967100D02*
X100151900Y-91239400D01*
X100151900Y-91239400D02*
X100199900Y-91503500D01*
X100199900Y-91503500D02*
X100286200Y-91753100D01*
X100286200Y-91753100D02*
X100410800Y-91982000D01*
X100410800Y-91982000D02*
X100573000Y-92183500D01*
X100573000Y-92183500D02*
X100772000Y-92352000D01*
X100772000Y-92352000D02*
X101007600Y-92480100D01*
X101007600Y-92480100D02*
X101278900Y-92562300D01*
X101278900Y-92562300D02*
X101585400Y-92592300D01*
X101585400Y-92592300D02*
X101751800Y-92585100D01*
X101751800Y-92585100D02*
X101926400Y-92562800D01*
X101926400Y-92562800D02*
X102978000Y-92577300D01*
X102978000Y-92577300D02*
X103567100Y-92615500D01*
X103567100Y-92615500D02*
X103849800Y-92654300D01*
X103849800Y-92654300D02*
X104113400Y-92710600D01*
X104113400Y-92710600D02*
X104350000Y-92788100D01*
X104350000Y-92788100D02*
X104551600Y-92891000D01*
X104551600Y-92891000D02*
X104710200Y-93021200D01*
X104710200Y-93021200D02*
X104770700Y-93098200D01*
X104770700Y-93098200D02*
X104817700Y-93183500D01*
X104817700Y-93183500D02*
X104849800Y-93277500D01*
X104849800Y-93277500D02*
X104866300Y-93380900D01*
X104866300Y-93380900D02*
X104865800Y-93494000D01*
X104865800Y-93494000D02*
X104847200Y-93616500D01*
X104847200Y-93616500D02*
X104810500Y-93750400D01*
X104810500Y-93750400D02*
X104753600Y-93894500D01*
X104753600Y-93894500D02*
X104575900Y-94218000D01*
X104575900Y-94218000D02*
X104598600Y-94514600D01*
X104598600Y-94514600D02*
X104665800Y-94776600D01*
X104665800Y-94776600D02*
X104767100Y-95007600D01*
X104767100Y-95007600D02*
X104892100Y-95211800D01*
X104892100Y-95211800D02*
X105030100Y-95393100D01*
X105030100Y-95393100D02*
X105171200Y-95556400D01*
X105171200Y-95556400D02*
X105418200Y-95842200D01*
X105418200Y-95842200D02*
X105504000Y-95973500D01*
X105504000Y-95973500D02*
X105550000Y-96102700D01*
X105550000Y-96102700D02*
X105545800Y-96233400D01*
X105545800Y-96233400D02*
X105481200Y-96369800D01*
X105481200Y-96369800D02*
X105345800Y-96516600D01*
X105345800Y-96516600D02*
X105128800Y-96676800D01*
X105128800Y-96676800D02*
X104819800Y-96855600D01*
X104819800Y-96855600D02*
X104407900Y-97056600D01*
X104407900Y-97056600D02*
X101832900Y-98946400D01*
X101832900Y-98946400D02*
X100535800Y-99915400D01*
X100535800Y-99915400D02*
X99244900Y-100907000D01*
X99244900Y-100907000D02*
X97970600Y-101924500D01*
X97970600Y-101924500D02*
X96722100Y-102972500D01*
X96722100Y-102972500D02*
X95509800Y-104055700D01*
X95509800Y-104055700D02*
X94919600Y-104612200D01*
X94919600Y-104612200D02*
X94342900Y-105178600D01*
X94342900Y-105178600D02*
X93779600Y-105756300D01*
X93779600Y-105756300D02*
X93231900Y-106345500D01*
X93231900Y-106345500D02*
X92700100Y-106946400D01*
X92700100Y-106946400D02*
X92186400Y-107559800D01*
X92186400Y-107559800D02*
X91690900Y-108186700D01*
X91690900Y-108186700D02*
X91216000Y-108827000D01*
X91216000Y-108827000D02*
X90762200Y-109481700D01*
X90762200Y-109481700D02*
X90330700Y-110151400D01*
X90330700Y-110151400D02*
X89923000Y-110836100D01*
X89923000Y-110836100D02*
X89540100Y-111536500D01*
X89540100Y-111536500D02*
X89184000Y-112253500D01*
X89184000Y-112253500D02*
X88854900Y-112987500D01*
X88854900Y-112987500D02*
X88554100Y-113738500D01*
X88554100Y-113738500D02*
X88283800Y-114508500D01*
X88283800Y-114508500D02*
X88044100Y-115296500D01*
X88044100Y-115296500D02*
X87837400Y-116103500D01*
X87837400Y-116103500D02*
X87672500Y-116742500D01*
X87672500Y-116742500D02*
X87518500Y-117438500D01*
X87518500Y-117438500D02*
X87341800Y-118133500D01*
X87341800Y-118133500D02*
X87234800Y-118460500D01*
X87234800Y-118460500D02*
X87109800Y-118765500D01*
X87109800Y-118765500D02*
X86962500Y-119038500D01*
X86962500Y-119038500D02*
X86788800Y-119274500D01*
X86788800Y-119274500D02*
X86585200Y-119464500D01*
X86585200Y-119464500D02*
X86470000Y-119539500D01*
X86470000Y-119539500D02*
X86346000Y-119600500D01*
X86346000Y-119600500D02*
X86212600Y-119646500D01*
X86212600Y-119646500D02*
X86068500Y-119676500D01*
X86068500Y-119676500D02*
X85914000Y-119689500D01*
X85914000Y-119689500D02*
X85747600Y-119684500D01*
X85747600Y-119684500D02*
X85570300Y-119659500D01*
X85570300Y-119659500D02*
X85380100Y-119615500D01*
X85380100Y-119615500D02*
X85177100Y-119550500D01*
X85177100Y-119550500D02*
X84961000Y-119464500D01*
X84961000Y-119464500D02*
X83596300Y-119365500D01*
X83596300Y-119365500D02*
X82226300Y-119283500D01*
X82226300Y-119283500D02*
X80851700Y-119220500D01*
X80851700Y-119220500D02*
X79473500Y-119176500D01*
X79473500Y-119176500D02*
X78091700Y-119151500D01*
X78091700Y-119151500D02*
X76708300Y-119147500D01*
X76708300Y-119147500D02*
X75323400Y-119165500D01*
X75323400Y-119165500D02*
X73937900Y-119204500D01*
X73937900Y-119204500D02*
X72553000Y-119266500D01*
X72553000Y-119266500D02*
X71169100Y-119352500D01*
X71169100Y-119352500D02*
X69787300Y-119462500D01*
X69787300Y-119462500D02*
X68408600Y-119598500D01*
X68408600Y-119598500D02*
X67032900Y-119759500D01*
X67032900Y-119759500D02*
X65662500Y-119946500D01*
X65662500Y-119946500D02*
X64296700Y-120162500D01*
X64296700Y-120162500D02*
X62937600Y-120405500D01*
X62937600Y-120405500D02*
X61585200Y-120677500D01*
X61585200Y-120677500D02*
X60240600Y-120979500D01*
X60240600Y-120979500D02*
X58904800Y-121311500D01*
X58904800Y-121311500D02*
X57578700Y-121675500D01*
X57578700Y-121675500D02*
X56262500Y-122071500D01*
X56262500Y-122071500D02*
X54957700Y-122499500D01*
X54957700Y-122499500D02*
X53664800Y-122961500D01*
X53664800Y-122961500D02*
X52385300Y-123457500D01*
X52385300Y-123457500D02*
X51118700Y-123988500D01*
X51118700Y-123988500D02*
X49866500Y-124555500D01*
X49866500Y-124555500D02*
X48629900Y-125158500D01*
X48629900Y-125158500D02*
X47409300Y-125799500D01*
X47409300Y-125799500D02*
X46205800Y-126478500D01*
X46205800Y-126478500D02*
X45020300Y-127196500D01*
X45020300Y-127196500D02*
X43853000Y-127953500D01*
X43853000Y-127953500D02*
X42705700Y-128751500D01*
X42705700Y-128751500D02*
X42375000Y-128874500D01*
X42375000Y-128874500D02*
X42069600Y-129033500D01*
X42069600Y-129033500D02*
X41791100Y-129225500D01*
X41791100Y-129225500D02*
X41542500Y-129445500D01*
X41542500Y-129445500D02*
X41326500Y-129691500D01*
X41326500Y-129691500D02*
X41144600Y-129957500D01*
X41144600Y-129957500D02*
X40999400Y-130239500D01*
X40999400Y-130239500D02*
X40893500Y-130534500D01*
X40893500Y-130534500D02*
X40828900Y-130838500D01*
X40828900Y-130838500D02*
X40808700Y-131146500D01*
X40808700Y-131146500D02*
X40834500Y-131454500D01*
X40834500Y-131454500D02*
X40909000Y-131758500D01*
X40909000Y-131758500D02*
X41034000Y-132055500D01*
X41034000Y-132055500D02*
X41213300Y-132340500D01*
X41213300Y-132340500D02*
X41447400Y-132610500D01*
X41447400Y-132610500D02*
X41740400Y-132859500D01*
X41740400Y-132859500D02*
X42547600Y-133680500D01*
X42547600Y-133680500D02*
X43380100Y-134463500D01*
X43380100Y-134463500D02*
X44237400Y-135208500D01*
X44237400Y-135208500D02*
X45117500Y-135916500D01*
X45117500Y-135916500D02*
X46020300Y-136587500D01*
X46020300Y-136587500D02*
X46943700Y-137223500D01*
X46943700Y-137223500D02*
X47887900Y-137825500D01*
X47887900Y-137825500D02*
X48851100Y-138392500D01*
X48851100Y-138392500D02*
X49832400Y-138927500D01*
X49832400Y-138927500D02*
X50830800Y-139429500D01*
X50830800Y-139429500D02*
X51845200Y-139900500D01*
X51845200Y-139900500D02*
X52874600Y-140340500D01*
X52874600Y-140340500D02*
X53918000Y-140751500D01*
X53918000Y-140751500D02*
X54974200Y-141132500D01*
X54974200Y-141132500D02*
X56042400Y-141485500D01*
X56042400Y-141485500D02*
X57121400Y-141811500D01*
X57121400Y-141811500D02*
X58210200Y-142111500D01*
X58210200Y-142111500D02*
X59307300Y-142385500D01*
X59307300Y-142385500D02*
X60412700Y-142633500D01*
X60412700Y-142633500D02*
X61524800Y-142858500D01*
X61524800Y-142858500D02*
X62642000Y-143060500D01*
X62642000Y-143060500D02*
X63763900Y-143239500D01*
X63763900Y-143239500D02*
X64889900Y-143396500D01*
X64889900Y-143396500D02*
X66018000Y-143532500D01*
X66018000Y-143532500D02*
X67147700Y-143649500D01*
X67147700Y-143649500D02*
X68277300Y-143746500D01*
X68277300Y-143746500D02*
X69407000Y-143824500D01*
X69407000Y-143824500D02*
X70534500Y-143885500D01*
X70534500Y-143885500D02*
X71659500Y-143930500D01*
X71659500Y-143930500D02*
X72780900Y-143958500D01*
X72780900Y-143958500D02*
X75008200Y-143970500D01*
X75008200Y-143970500D02*
X76465400Y-143959500D01*
X76465400Y-143959500D02*
X77920600Y-143919500D01*
X77920600Y-143919500D02*
X79373800Y-143854500D01*
X79373800Y-143854500D02*
X80825900Y-143767500D01*
X80825900Y-143767500D02*
X82277000Y-143660500D01*
X82277000Y-143660500D02*
X83726500Y-143537500D01*
X83726500Y-143537500D02*
X86623500Y-143254500D01*
X86623500Y-143254500D02*
X92413300Y-142622500D01*
X92413300Y-142622500D02*
X95309300Y-142321500D01*
X95309300Y-142321500D02*
X98207800Y-142061500D01*
X98207800Y-142061500D02*
X98476000Y-142254500D01*
X98476000Y-142254500D02*
X98751900Y-142428500D01*
X98751900Y-142428500D02*
X99034600Y-142585500D01*
X99034600Y-142585500D02*
X99323500Y-142726500D01*
X99323500Y-142726500D02*
X99618500Y-142853500D01*
X99618500Y-142853500D02*
X99918800Y-142966500D01*
X99918800Y-142966500D02*
X100533700Y-143156500D01*
X100533700Y-143156500D02*
X101165700Y-143305500D01*
X101165700Y-143305500D02*
X101810100Y-143424500D01*
X101810100Y-143424500D02*
X102463900Y-143522500D01*
X102463900Y-143522500D02*
X103123800Y-143609500D01*
X103123800Y-143609500D02*
X104445600Y-143786500D01*
X104445600Y-143786500D02*
X105100900Y-143895500D01*
X105100900Y-143895500D02*
X105747400Y-144031500D01*
X105747400Y-144031500D02*
X106381400Y-144202500D01*
X106381400Y-144202500D02*
X107000000Y-144420500D01*
X107000000Y-144420500D02*
X107301800Y-144549500D01*
X107301800Y-144549500D02*
X107598900Y-144693500D01*
X107598900Y-144693500D02*
X107889900Y-144853500D01*
X107889900Y-144853500D02*
X108174600Y-145030500D01*
X108174600Y-145030500D02*
X108370000Y-145116500D01*
X108370000Y-145116500D02*
X108564300Y-145185500D01*
X108564300Y-145185500D02*
X108951800Y-145279500D01*
X108951800Y-145279500D02*
X109336300Y-145320500D01*
X109336300Y-145320500D02*
X109719200Y-145318500D01*
X109719200Y-145318500D02*
X110100600Y-145281500D01*
X110100600Y-145281500D02*
X110479900Y-145218500D01*
X110479900Y-145218500D02*
X111235900Y-145048500D01*
X111235900Y-145048500D02*
X111988900Y-144876500D01*
X111988900Y-144876500D02*
X112365100Y-144812500D01*
X112365100Y-144812500D02*
X112741800Y-144773500D01*
X112741800Y-144773500D02*
X113119000Y-144768500D01*
X113119000Y-144768500D02*
X113496800Y-144807500D01*
X113496800Y-144807500D02*
X113875600Y-144897500D01*
X113875600Y-144897500D02*
X114065200Y-144964500D01*
X114065200Y-144964500D02*
X114255400Y-145047500D01*
X114255400Y-145047500D02*
X114605200Y-144988500D01*
X114605200Y-144988500D02*
X114903400Y-144961500D01*
X114903400Y-144961500D02*
X115156100Y-144964500D01*
X115156100Y-144964500D02*
X115368000Y-144996500D01*
X115368000Y-144996500D02*
X115544700Y-145056500D01*
X115544700Y-145056500D02*
X115691000Y-145140500D01*
X115691000Y-145140500D02*
X115812400Y-145249500D01*
X115812400Y-145249500D02*
X115914200Y-145380500D01*
X115914200Y-145380500D02*
X116002000Y-145531500D01*
X116002000Y-145531500D02*
X116080100Y-145701500D01*
X116080100Y-145701500D02*
X116229900Y-146091500D01*
X116229900Y-146091500D02*
X116406200Y-146537500D01*
X116406200Y-146537500D02*
X116517300Y-146776500D01*
X116517300Y-146776500D02*
X116650600Y-147025500D01*
X116650600Y-147025500D02*
X117040700Y-147208500D01*
X117040700Y-147208500D02*
X117440700Y-147366500D01*
X117440700Y-147366500D02*
X117849500Y-147497500D01*
X117849500Y-147497500D02*
X118265000Y-147602500D01*
X118265000Y-147602500D02*
X118686100Y-147680500D01*
X118686100Y-147680500D02*
X119110900Y-147731500D01*
X119110900Y-147731500D02*
X119538300Y-147755500D01*
X119538300Y-147755500D02*
X119965600Y-147752500D01*
X119965600Y-147752500D02*
X120391400Y-147722500D01*
X120391400Y-147722500D02*
X120814700Y-147663500D01*
X120814700Y-147663500D02*
X121233300Y-147577500D01*
X121233300Y-147577500D02*
X121646100Y-147463500D01*
X121646100Y-147463500D02*
X122050800Y-147320500D01*
X122050800Y-147320500D02*
X122446100Y-147149500D01*
X122446100Y-147149500D02*
X122830100Y-146950500D01*
X122830100Y-146950500D02*
X123201600Y-146721500D01*
X123201600Y-146721500D02*
X123371600Y-146864500D01*
X123371600Y-146864500D02*
X123545300Y-146991500D01*
X123545300Y-146991500D02*
X123902300Y-147199500D01*
X123902300Y-147199500D02*
X124271300Y-147351500D01*
X124271300Y-147351500D02*
X124649600Y-147450500D01*
X124649600Y-147450500D02*
X125035100Y-147501500D01*
X125035100Y-147501500D02*
X125426300Y-147511500D01*
X125426300Y-147511500D02*
X125820800Y-147483500D01*
X125820800Y-147483500D02*
X126215800Y-147423500D01*
X126215800Y-147423500D02*
X126611800Y-147335500D01*
X126611800Y-147335500D02*
X127003800Y-147224500D01*
X127003800Y-147224500D02*
X127391800Y-147096500D01*
X127391800Y-147096500D02*
X127772800Y-146954500D01*
X127772800Y-146954500D02*
X128506800Y-146653500D01*
X128506800Y-146653500D02*
X129188800Y-146360500D01*
X129188800Y-146360500D02*
X129467800Y-146405500D01*
X129467800Y-146405500D02*
X129750800Y-146428500D01*
X129750800Y-146428500D02*
X130036800Y-146431500D01*
X130036800Y-146431500D02*
X130324800Y-146415500D01*
X130324800Y-146415500D02*
X130614800Y-146378500D01*
X130614800Y-146378500D02*
X130902800Y-146324500D01*
X130902800Y-146324500D02*
X131189800Y-146252500D01*
X131189800Y-146252500D02*
X131473800Y-146163500D01*
X131473800Y-146163500D02*
X131753800Y-146057500D01*
X131753800Y-146057500D02*
X132027800Y-145936500D01*
X132027800Y-145936500D02*
X132294800Y-145800500D01*
X132294800Y-145800500D02*
X132552800Y-145650500D01*
X132552800Y-145650500D02*
X132801800Y-145486500D01*
X132801800Y-145486500D02*
X133039800Y-145310500D01*
X133039800Y-145310500D02*
X133265800Y-145122500D01*
X133265800Y-145122500D02*
X133478800Y-144923500D01*
X133478800Y-144923500D02*
X133676800Y-144713500D01*
X133676800Y-144713500D02*
X133858800Y-144493500D01*
X133858800Y-144493500D02*
X134022800Y-144264500D01*
X134022800Y-144264500D02*
X134168800Y-144027500D01*
X134168800Y-144027500D02*
X134294800Y-143782500D01*
X134294800Y-143782500D02*
X134399800Y-143530500D01*
X134399800Y-143530500D02*
X134481800Y-143272500D01*
X134481800Y-143272500D02*
X134540800Y-143009500D01*
X134540800Y-143009500D02*
X134573800Y-142741500D01*
X134573800Y-142741500D02*
X134580800Y-142468500D01*
X134580800Y-142468500D02*
X134559800Y-142193500D01*
X134559800Y-142193500D02*
X134509800Y-141914500D01*
X134509800Y-141914500D02*
X134430800Y-141634500D01*
X134430800Y-141634500D02*
X134318800Y-141353500D01*
X134318800Y-141353500D02*
X134174800Y-141071500D01*
X134174800Y-141071500D02*
X133995800Y-140790500D01*
X133995800Y-140790500D02*
X133779800Y-140619500D01*
X133779800Y-140619500D02*
X133584800Y-140441500D01*
X133584800Y-140441500D02*
X133414800Y-140257500D01*
X133414800Y-140257500D02*
X133270800Y-140071500D01*
X133270800Y-140071500D02*
X133156800Y-139888500D01*
X133156800Y-139888500D02*
X133072800Y-139709500D01*
X133072800Y-139709500D02*
X133021800Y-139538500D01*
X133021800Y-139538500D02*
X133005800Y-139379500D01*
X133005800Y-139379500D02*
X133027800Y-139234500D01*
X133027800Y-139234500D02*
X133089800Y-139107500D01*
X133089800Y-139107500D02*
X133193800Y-139001500D01*
X133193800Y-139001500D02*
X133341800Y-138920500D01*
X133341800Y-138920500D02*
X133535800Y-138867500D01*
X133535800Y-138867500D02*
X133778800Y-138844500D01*
X133778800Y-138844500D02*
X134071800Y-138856500D01*
X134071800Y-138856500D02*
X134418800Y-138905500D01*
X134418800Y-138905500D02*
X134733800Y-138946500D01*
X134733800Y-138946500D02*
X135065800Y-138940500D01*
X135065800Y-138940500D02*
X135408800Y-138894500D01*
X135408800Y-138894500D02*
X135759800Y-138814500D01*
X135759800Y-138814500D02*
X136113800Y-138706500D01*
X136113800Y-138706500D02*
X136465800Y-138574500D01*
X136465800Y-138574500D02*
X136811800Y-138426500D01*
X136811800Y-138426500D02*
X137146800Y-138266500D01*
X137146800Y-138266500D02*
X137766800Y-137937500D01*
X137766800Y-137937500D02*
X138289800Y-137633500D01*
X138289800Y-137633500D02*
X138678800Y-137400500D01*
X138678800Y-137400500D02*
X138897800Y-137286500D01*
X138897800Y-137286500D02*
X138712800Y-137581500D01*
X138712800Y-137581500D02*
X138560800Y-137880500D01*
X138560800Y-137880500D02*
X138440800Y-138181500D01*
X138440800Y-138181500D02*
X138351800Y-138484500D01*
X138351800Y-138484500D02*
X138291800Y-138788500D01*
X138291800Y-138788500D02*
X138260800Y-139091500D01*
X138260800Y-139091500D02*
X138256800Y-139392500D01*
X138256800Y-139392500D02*
X138279800Y-139691500D01*
X138279800Y-139691500D02*
X138327800Y-139987500D01*
X138327800Y-139987500D02*
X138398800Y-140277500D01*
X138398800Y-140277500D02*
X138493800Y-140562500D01*
X138493800Y-140562500D02*
X138609800Y-140840500D01*
X138609800Y-140840500D02*
X138747800Y-141110500D01*
X138747800Y-141110500D02*
X138903800Y-141371500D01*
X138903800Y-141371500D02*
X139078800Y-141622500D01*
X139078800Y-141622500D02*
X139271800Y-141862500D01*
X139271800Y-141862500D02*
X139479800Y-142090500D01*
X139479800Y-142090500D02*
X139703800Y-142304500D01*
X139703800Y-142304500D02*
X139940800Y-142505500D01*
X139940800Y-142505500D02*
X140190800Y-142690500D01*
X140190800Y-142690500D02*
X140452800Y-142859500D01*
X140452800Y-142859500D02*
X140725800Y-143011500D01*
X140725800Y-143011500D02*
X141007800Y-143144500D01*
X141007800Y-143144500D02*
X141297800Y-143258500D01*
X141297800Y-143258500D02*
X141594800Y-143351500D01*
X141594800Y-143351500D02*
X141898800Y-143423500D01*
X141898800Y-143423500D02*
X142206800Y-143472500D01*
X142206800Y-143472500D02*
X142518800Y-143497500D01*
X142518800Y-143497500D02*
X142833800Y-143498500D01*
X142833800Y-143498500D02*
X143149800Y-143473500D01*
X143149800Y-143473500D02*
X143466800Y-143421500D01*
X143466800Y-143421500D02*
X143782800Y-143341500D01*
X143782800Y-143341500D02*
X145065800Y-143166500D01*
X145065800Y-143166500D02*
X146397800Y-142983500D01*
X146397800Y-142983500D02*
X147069800Y-142876500D01*
X147069800Y-142876500D02*
X147740800Y-142754500D01*
X147740800Y-142754500D02*
X148406800Y-142612500D01*
X148406800Y-142612500D02*
X149061800Y-142445500D01*
X149061800Y-142445500D02*
X149702800Y-142249500D01*
X149702800Y-142249500D02*
X150325800Y-142020500D01*
X150325800Y-142020500D02*
X150924800Y-141752500D01*
X150924800Y-141752500D02*
X151496800Y-141442500D01*
X151496800Y-141442500D02*
X151771800Y-141270500D01*
X151771800Y-141270500D02*
X152037800Y-141085500D01*
X152037800Y-141085500D02*
X152294800Y-140887500D01*
X152294800Y-140887500D02*
X152541800Y-140676500D01*
X152541800Y-140676500D02*
X152778800Y-140451500D01*
X152778800Y-140451500D02*
X153005800Y-140211500D01*
X153005800Y-140211500D02*
X153220800Y-139956500D01*
X153220800Y-139956500D02*
X153424800Y-139686500D01*
X153424800Y-139686500D02*
X153554800Y-139449500D01*
X153554800Y-139449500D02*
X153665800Y-139209500D01*
X153665800Y-139209500D02*
X153756800Y-138966500D01*
X153756800Y-138966500D02*
X153829800Y-138720500D01*
X153829800Y-138720500D02*
X153884800Y-138473500D01*
X153884800Y-138473500D02*
X153921800Y-138226500D01*
X153921800Y-138226500D02*
X153941800Y-137978500D01*
X153941800Y-137978500D02*
X153945800Y-137730500D01*
X153945800Y-137730500D02*
X153931800Y-137484500D01*
X153931800Y-137484500D02*
X153902800Y-137240500D01*
X153902800Y-137240500D02*
X153858800Y-136998500D01*
X153858800Y-136998500D02*
X153799800Y-136760500D01*
X153799800Y-136760500D02*
X153637800Y-136295500D01*
X153637800Y-136295500D02*
X153421800Y-135852500D01*
X153421800Y-135852500D02*
X153154800Y-135435500D01*
X153154800Y-135435500D02*
X152840800Y-135050500D01*
X152840800Y-135050500D02*
X152482800Y-134703500D01*
X152482800Y-134703500D02*
X152084800Y-134398500D01*
X152084800Y-134398500D02*
X151872800Y-134263500D01*
X151872800Y-134263500D02*
X151650800Y-134142500D01*
X151650800Y-134142500D02*
X151421800Y-134033500D01*
X151421800Y-134033500D02*
X151184800Y-133939500D01*
X151184800Y-133939500D02*
X150939800Y-133859500D01*
X150939800Y-133859500D02*
X150688800Y-133795500D01*
X150688800Y-133795500D02*
X150430800Y-133747500D01*
X150430800Y-133747500D02*
X150167800Y-133716500D01*
X150167800Y-133716500D02*
X149354800Y-133639500D01*
X149354800Y-133639500D02*
X148977800Y-133590500D01*
X148977800Y-133590500D02*
X148625800Y-133530500D01*
X148625800Y-133530500D02*
X148303800Y-133456500D01*
X148303800Y-133456500D02*
X148014800Y-133364500D01*
X148014800Y-133364500D02*
X147761800Y-133253500D01*
X147761800Y-133253500D02*
X147550800Y-133117500D01*
X147550800Y-133117500D02*
X147383800Y-132955500D01*
X147383800Y-132955500D02*
X147318800Y-132863500D01*
X147318800Y-132863500D02*
X147265800Y-132764500D01*
X147265800Y-132764500D02*
X147226800Y-132656500D01*
X147226800Y-132656500D02*
X147200800Y-132539500D01*
X147200800Y-132539500D02*
X147189800Y-132414500D01*
X147189800Y-132414500D02*
X147192800Y-132279500D01*
X147192800Y-132279500D02*
X147244800Y-131980500D01*
X147244800Y-131980500D02*
X147361800Y-131639500D01*
X147361800Y-131639500D02*
X147546800Y-131253500D01*
X147546800Y-131253500D02*
X147804800Y-130818500D01*
X147804800Y-130818500D02*
X148104800Y-129967500D01*
X148104800Y-129967500D02*
X148423800Y-129123500D01*
X148423800Y-129123500D02*
X148759800Y-128284500D01*
X148759800Y-128284500D02*
X149109800Y-127450500D01*
X149109800Y-127450500D02*
X149849800Y-125795500D01*
X149849800Y-125795500D02*
X150629800Y-124154500D01*
X150629800Y-124154500D02*
X151436800Y-122521500D01*
X151436800Y-122521500D02*
X152258800Y-120894500D01*
X152258800Y-120894500D02*
X153080800Y-119268500D01*
X153080800Y-119268500D02*
X153891800Y-117638500D01*
X153891800Y-117638500D02*
X154676800Y-116000500D01*
X154676800Y-116000500D02*
X155424800Y-114350500D01*
X155424800Y-114350500D02*
X155779800Y-113519500D01*
X155779800Y-113519500D02*
X156120800Y-112684500D01*
X156120800Y-112684500D02*
X156444800Y-111843500D01*
X156444800Y-111843500D02*
X156751800Y-110996800D01*
X156751800Y-110996800D02*
X157039800Y-110144200D01*
X157039800Y-110144200D02*
X157305800Y-109284800D01*
X157305800Y-109284800D02*
X157549800Y-108417700D01*
X157549800Y-108417700D02*
X157768800Y-107543300D01*
X157768800Y-107543300D02*
X157962800Y-106659600D01*
X157962800Y-106659600D02*
X158128800Y-105767700D01*
X158128800Y-105767700D02*
X158265800Y-104866000D01*
X158265800Y-104866000D02*
X158371800Y-103954400D01*
X158371800Y-103954400D02*
X158423800Y-103615900D01*
X158423800Y-103615900D02*
X158440800Y-103261400D01*
X158440800Y-103261400D02*
X158431800Y-102897100D01*
X158431800Y-102897100D02*
X158406800Y-102528600D01*
X158406800Y-102528600D02*
X158340800Y-101799000D01*
X158340800Y-101799000D02*
X158318800Y-101449600D01*
X158318800Y-101449600D02*
X158315800Y-101117900D01*
X158315800Y-101117900D02*
X158340800Y-100808800D01*
X158340800Y-100808800D02*
X158402800Y-100528200D01*
X158402800Y-100528200D02*
X158450800Y-100400600D01*
X158450800Y-100400600D02*
X158510800Y-100281700D01*
X158510800Y-100281700D02*
X158584800Y-100173200D01*
X158584800Y-100173200D02*
X158673800Y-100075000D01*
X158673800Y-100075000D02*
X158778800Y-99987700D01*
X158778800Y-99987700D02*
X158900800Y-99912800D01*
X158900800Y-99912800D02*
X159041800Y-99850800D01*
X159041800Y-99850800D02*
X159201800Y-99801100D01*
X159201800Y-99801100D02*
X159381800Y-99766500D01*
X159381800Y-99766500D02*
X159583800Y-99745900D01*
X159583800Y-99745900D02*
X159807800Y-99740700D01*
X159807800Y-99740700D02*
X160056800Y-99752100D01*
X160056800Y-99752100D02*
X160840800Y-99515900D01*
X160840800Y-99515900D02*
X161615800Y-99256000D01*
X161615800Y-99256000D02*
X162381800Y-98973800D01*
X162381800Y-98973800D02*
X163138800Y-98670500D01*
X163138800Y-98670500D02*
X163887800Y-98347000D01*
X163887800Y-98347000D02*
X164628800Y-98005400D01*
X164628800Y-98005400D02*
X165361800Y-97647300D01*
X165361800Y-97647300D02*
X166088800Y-97273100D01*
X166088800Y-97273100D02*
X167520800Y-96484600D01*
X167520800Y-96484600D02*
X168927800Y-95651500D01*
X168927800Y-95651500D02*
X170313800Y-94784400D01*
X170313800Y-94784400D02*
X171681800Y-93895000D01*
X171681800Y-93895000D02*
X171598800Y-94142100D01*
X171598800Y-94142100D02*
X171553800Y-94404600D01*
X171553800Y-94404600D02*
X171543800Y-94676400D01*
X171543800Y-94676400D02*
X171567800Y-94950300D01*
X171567800Y-94950300D02*
X171622800Y-95220500D01*
X171622800Y-95220500D02*
X171705800Y-95479400D01*
X171705800Y-95479400D02*
X171816800Y-95720800D01*
X171816800Y-95720800D02*
X171951800Y-95938300D01*
X171951800Y-95938300D02*
X172108800Y-96124900D01*
X172108800Y-96124900D02*
X172286800Y-96274200D01*
X172286800Y-96274200D02*
X172482800Y-96379700D01*
X172482800Y-96379700D02*
X172694800Y-96434400D01*
X172694800Y-96434400D02*
X172805800Y-96440600D01*
X172805800Y-96440600D02*
X172919800Y-96431800D01*
X172919800Y-96431800D02*
X173037800Y-96406500D01*
X173037800Y-96406500D02*
X173156800Y-96364700D01*
X173156800Y-96364700D02*
X173279800Y-96305800D01*
X173279800Y-96305800D02*
X173403800Y-96227700D01*
X173403800Y-96227700D02*
X173657800Y-96013300D01*
X173657800Y-96013300D02*
X174124800Y-95347700D01*
X174124800Y-95347700D02*
X174612800Y-94691400D01*
X174612800Y-94691400D02*
X175634800Y-93397400D01*
X175634800Y-93397400D02*
X176677800Y-92109600D01*
X176677800Y-92109600D02*
X177699800Y-90806900D01*
X177699800Y-90806900D02*
X178188800Y-90143300D01*
X178188800Y-90143300D02*
X178654800Y-89467900D01*
X178654800Y-89467900D02*
X179094800Y-88778000D01*
X179094800Y-88778000D02*
X179500800Y-88071600D01*
X179500800Y-88071600D02*
X179868800Y-87344500D01*
X179868800Y-87344500D02*
X180192800Y-86595800D01*
X180192800Y-86595800D02*
X180466800Y-85821600D01*
X180466800Y-85821600D02*
X180583800Y-85424200D01*
X180583800Y-85424200D02*
X180685800Y-85020100D01*
X180685800Y-85020100D02*
X180778800Y-84679100D01*
X180778800Y-84679100D02*
X180833800Y-84332800D01*
X180833800Y-84332800D02*
X180856800Y-83982000D01*
X180856800Y-83982000D02*
X180849800Y-83629000D01*
X180849800Y-83629000D02*
X180815800Y-83275000D01*
X180815800Y-83275000D02*
X180760800Y-82921600D01*
X180760800Y-82921600D02*
X180687800Y-82570700D01*
X180687800Y-82570700D02*
X180598800Y-82223900D01*
X180598800Y-82223900D02*
X180392800Y-81547500D01*
X180392800Y-81547500D02*
X180170800Y-80906200D01*
X180170800Y-80906200D02*
X179964800Y-80311900D01*
X179964800Y-80311900D02*
X179802800Y-79778100D01*
X179802800Y-79778100D02*
X180051800Y-79745500D01*
X180051800Y-79745500D02*
X180322800Y-79751200D01*
X180322800Y-79751200D02*
X180611800Y-79786900D01*
X180611800Y-79786900D02*
X180913800Y-79844700D01*
X180913800Y-79844700D02*
X181537800Y-79993100D01*
X181537800Y-79993100D02*
X182159800Y-80131000D01*
X182159800Y-80131000D02*
X182457800Y-80175500D01*
X182457800Y-80175500D02*
X182742800Y-80192000D01*
X182742800Y-80192000D02*
X183007800Y-80173400D01*
X183007800Y-80173400D02*
X183249800Y-80111400D01*
X183249800Y-80111400D02*
X183360800Y-80061300D01*
X183360800Y-80061300D02*
X183463800Y-79997200D01*
X183463800Y-79997200D02*
X183559800Y-79918100D01*
X183559800Y-79918100D02*
X183645800Y-79822500D01*
X183645800Y-79822500D02*
X183722800Y-79710400D01*
X183722800Y-79710400D02*
X183790800Y-79580200D01*
X183790800Y-79580200D02*
X183847800Y-79430300D01*
X183847800Y-79430300D02*
X183893800Y-79260800D01*
X183893800Y-79260800D02*
X183626800Y-78825200D01*
X183626800Y-78825200D02*
X183326800Y-78416400D01*
X183326800Y-78416400D02*
X182997800Y-78030400D01*
X182997800Y-78030400D02*
X182643800Y-77664500D01*
X182643800Y-77664500D02*
X182269800Y-77315200D01*
X182269800Y-77315200D02*
X181877800Y-76978800D01*
X181877800Y-76978800D02*
X181057800Y-76334400D01*
X181057800Y-76334400D02*
X180215800Y-75705500D01*
X180215800Y-75705500D02*
X179382800Y-75065700D01*
X179382800Y-75065700D02*
X178979800Y-74733900D01*
X178979800Y-74733900D02*
X178590800Y-74389800D01*
X178590800Y-74389800D02*
X178218800Y-74030600D01*
X178218800Y-74030600D02*
X177868800Y-73652400D01*
X177868800Y-73652400D02*
X176996800Y-72803300D01*
X176996800Y-72803300D02*
X176143800Y-71917600D01*
X176143800Y-71917600D02*
X175315800Y-70998800D01*
X175315800Y-70998800D02*
X174518800Y-70053100D01*
X174518800Y-70053100D02*
X173760800Y-69083600D01*
X173760800Y-69083600D02*
X173046800Y-68095600D01*
X173046800Y-68095600D02*
X172383800Y-67093600D01*
X172383800Y-67093600D02*
X171778800Y-66082300D01*
X171778800Y-66082300D02*
X172195800Y-65631100D01*
X172195800Y-65631100D02*
X172585800Y-65165500D01*
X172585800Y-65165500D02*
X172949800Y-64687000D01*
X172949800Y-64687000D02*
X173287800Y-64195600D01*
X173287800Y-64195600D02*
X173599800Y-63692800D01*
X173599800Y-63692800D02*
X173888800Y-63178600D01*
X173888800Y-63178600D02*
X174153800Y-62653500D01*
X174153800Y-62653500D02*
X174394800Y-62118700D01*
X174394800Y-62118700D02*
X174614800Y-61575100D01*
X174614800Y-61575100D02*
X174811800Y-61022100D01*
X174811800Y-61022100D02*
X174987800Y-60461900D01*
X174987800Y-60461900D02*
X175143800Y-59894000D01*
X175143800Y-59894000D02*
X175279800Y-59319900D01*
X175279800Y-59319900D02*
X175396800Y-58739600D01*
X175396800Y-58739600D02*
X175494800Y-58154600D01*
X175494800Y-58154600D02*
X175575800Y-57564400D01*
X175575800Y-57564400D02*
X175638800Y-56970700D01*
X175638800Y-56970700D02*
X175685800Y-56373800D01*
X175685800Y-56373800D02*
X175716800Y-55774400D01*
X175716800Y-55774400D02*
X175731800Y-55172900D01*
X175731800Y-55172900D02*
X175719800Y-53967300D01*
X175719800Y-53967300D02*
X175654800Y-52761600D01*
X175654800Y-52761600D02*
X175541800Y-51562700D01*
X175541800Y-51562700D02*
X175385800Y-50374700D01*
X175385800Y-50374700D02*
X175191800Y-49203200D01*
X175191800Y-49203200D02*
X174966800Y-48053900D01*
X174966800Y-48053900D02*
X174957800Y-47608500D01*
X174957800Y-47608500D02*
X174925800Y-47190900D01*
X174925800Y-47190900D02*
X174870800Y-46802800D01*
X174870800Y-46802800D02*
X174790800Y-46445700D01*
X174790800Y-46445700D02*
X174685800Y-46122300D01*
X174685800Y-46122300D02*
X174553800Y-45834400D01*
X174553800Y-45834400D02*
X174393800Y-45583800D01*
X174393800Y-45583800D02*
X174206800Y-45372900D01*
X174206800Y-45372900D02*
X173988800Y-45203400D01*
X173988800Y-45203400D02*
X173740800Y-45077400D01*
X173740800Y-45077400D02*
X173461800Y-44996200D01*
X173461800Y-44996200D02*
X173149800Y-44963200D01*
X173149800Y-44963200D02*
X172804800Y-44979200D01*
X172804800Y-44979200D02*
X172425800Y-45046900D01*
X172425800Y-45046900D02*
X172010800Y-45167800D01*
X172010800Y-45167800D02*
X171559800Y-45344500D01*
X171559800Y-45344500D02*
X170518800Y-45545000D01*
X170518800Y-45545000D02*
X169483800Y-45773400D01*
X169483800Y-45773400D02*
X168457800Y-46029200D01*
X168457800Y-46029200D02*
X167437800Y-46310400D01*
X167437800Y-46310400D02*
X166424800Y-46615200D01*
X166424800Y-46615200D02*
X165419800Y-46943400D01*
X165419800Y-46943400D02*
X164420800Y-47293200D01*
X164420800Y-47293200D02*
X163428800Y-47662700D01*
X163428800Y-47662700D02*
X162443800Y-48050800D01*
X162443800Y-48050800D02*
X161464800Y-48456000D01*
X161464800Y-48456000D02*
X160491800Y-48877600D01*
X160491800Y-48877600D02*
X159525800Y-49313300D01*
X159525800Y-49313300D02*
X157612800Y-50222300D01*
X157612800Y-50222300D02*
X155722800Y-51172600D01*
X155722800Y-51172600D02*
X155512800Y-51061500D01*
X155512800Y-51061500D02*
X155246800Y-50957600D01*
X155246800Y-50957600D02*
X154597800Y-50763300D01*
X154597800Y-50763300D02*
X153882800Y-50574700D01*
X153882800Y-50574700D02*
X153209800Y-50376800D01*
X153209800Y-50376800D02*
X152922800Y-50269800D01*
X152922800Y-50269800D02*
X152686800Y-50154000D01*
X152686800Y-50154000D02*
X152514800Y-50029000D01*
X152514800Y-50029000D02*
X152456800Y-49962300D01*
X152456800Y-49962300D02*
X152419800Y-49892000D01*
X152419800Y-49892000D02*
X152405800Y-49818700D01*
X152405800Y-49818700D02*
X152415800Y-49741700D01*
X152415800Y-49741700D02*
X152452800Y-49660500D01*
X152452800Y-49660500D02*
X152516800Y-49575300D01*
X152516800Y-49575300D02*
X152609800Y-49485900D01*
X152609800Y-49485900D02*
X152734800Y-49391800D01*
X152734800Y-49391800D02*
X153084800Y-49188700D01*
X153084800Y-49188700D02*
X153232800Y-49103500D01*
X153232800Y-49103500D02*
X153365800Y-49008900D01*
X153365800Y-49008900D02*
X153484800Y-48906100D01*
X153484800Y-48906100D02*
X153589800Y-48796000D01*
X153589800Y-48796000D02*
X153758800Y-48556700D01*
X153758800Y-48556700D02*
X153873800Y-48297800D01*
X153873800Y-48297800D02*
X153939800Y-48027000D01*
X153939800Y-48027000D02*
X153955800Y-47751600D01*
X153955800Y-47751600D02*
X153926800Y-47478200D01*
X153926800Y-47478200D02*
X153852800Y-47214200D01*
X153852800Y-47214200D02*
X153737800Y-46966600D01*
X153737800Y-46966600D02*
X153583800Y-46742900D01*
X153583800Y-46742900D02*
X153391800Y-46549600D01*
X153391800Y-46549600D02*
X153165800Y-46394600D01*
X153165800Y-46394600D02*
X152906800Y-46284000D01*
X152906800Y-46284000D02*
X152765800Y-46248300D01*
X152765800Y-46248300D02*
X152616800Y-46226100D01*
X152616800Y-46226100D02*
X152461800Y-46218900D01*
X152461800Y-46218900D02*
X152299800Y-46227200D01*
X152299800Y-46227200D02*
X152130800Y-46252000D01*
X152130800Y-46252000D02*
X151955800Y-46294900D01*
X151955800Y-46294900D02*
X151718800Y-46258200D01*
X151718800Y-46258200D02*
X151447800Y-46259700D01*
X151447800Y-46259700D02*
X151153800Y-46290700D01*
X151153800Y-46290700D02*
X150844800Y-46342900D01*
X150844800Y-46342900D02*
X150221800Y-46478800D01*
X150221800Y-46478800D02*
X149657800Y-46600800D01*
X149657800Y-46600800D02*
X149421800Y-46636400D01*
X149421800Y-46636400D02*
X149228800Y-46644200D01*
X149228800Y-46644200D02*
X149088800Y-46615800D01*
X149088800Y-46615800D02*
X149041800Y-46585800D01*
X149041800Y-46585800D02*
X149011800Y-46543400D01*
X149011800Y-46543400D02*
X148999800Y-46487600D01*
X148999800Y-46487600D02*
X149006800Y-46417800D01*
X149006800Y-46417800D02*
X149083800Y-46231800D01*
X149083800Y-46231800D02*
X149252800Y-45977000D01*
X149252800Y-45977000D02*
X149522800Y-45644800D01*
X149522800Y-45644800D02*
X149715800Y-45387900D01*
X149715800Y-45387900D02*
X149857800Y-45117100D01*
X149857800Y-45117100D02*
X149952800Y-44838100D01*
X149952800Y-44838100D02*
X150000800Y-44554900D01*
X150000800Y-44554900D02*
X150005800Y-44274300D01*
X150005800Y-44274300D02*
X149969800Y-44000900D01*
X149969800Y-44000900D02*
X149894800Y-43740000D01*
X149894800Y-43740000D02*
X149781800Y-43497100D01*
X149781800Y-43497100D02*
X149634800Y-43277500D01*
X149634800Y-43277500D02*
X149453800Y-43086800D01*
X149453800Y-43086800D02*
X149243800Y-42930700D01*
X149243800Y-42930700D02*
X149003800Y-42813400D01*
X149003800Y-42813400D02*
X148738800Y-42741100D01*
X148738800Y-42741100D02*
X148449800Y-42719400D01*
X148449800Y-42719400D02*
X148137800Y-42753000D01*
X148137800Y-42753000D02*
X147806800Y-42847000D01*
X147806800Y-42847000D02*
X147565800Y-42898200D01*
X147565800Y-42898200D02*
X147337800Y-42972600D01*
X147337800Y-42972600D02*
X147122800Y-43067100D01*
X147122800Y-43067100D02*
X146918800Y-43179300D01*
X146918800Y-43179300D02*
X146722800Y-43306900D01*
X146722800Y-43306900D02*
X146534800Y-43447500D01*
X146534800Y-43447500D02*
X146175800Y-43756000D01*
X146175800Y-43756000D02*
X145479800Y-44414300D01*
X145479800Y-44414300D02*
X145119800Y-44723900D01*
X145119800Y-44723900D02*
X144930800Y-44864400D01*
X144930800Y-44864400D02*
X144733800Y-44993100D01*
X144733800Y-44993100D02*
X144748800Y-44822100D01*
X144748800Y-44822100D02*
X144747800Y-44652600D01*
X144747800Y-44652600D02*
X144700800Y-44318700D01*
X144700800Y-44318700D02*
X144599800Y-43997300D01*
X144599800Y-43997300D02*
X144452800Y-43692400D01*
X144452800Y-43692400D02*
X144263800Y-43410800D01*
X144263800Y-43410800D02*
X144040800Y-43157100D01*
X144040800Y-43157100D02*
X143789800Y-42937400D01*
X143789800Y-42937400D02*
X143516800Y-42756600D01*
X143516800Y-42756600D02*
X143229800Y-42620100D01*
X143229800Y-42620100D02*
X142934800Y-42533800D01*
X142934800Y-42533800D02*
X142637800Y-42503400D01*
X142637800Y-42503400D02*
X142490800Y-42510100D01*
X142490800Y-42510100D02*
X142344800Y-42533300D01*
X142344800Y-42533300D02*
X142202800Y-42572600D01*
X142202800Y-42572600D02*
X142063800Y-42629400D01*
X142063800Y-42629400D02*
X141929800Y-42703900D01*
X141929800Y-42703900D02*
X141800800Y-42797400D01*
X141800800Y-42797400D02*
X141677800Y-42910000D01*
X141677800Y-42910000D02*
X141561800Y-43042900D01*
X141561800Y-43042900D02*
X141452800Y-43195800D01*
X141452800Y-43195800D02*
X141352800Y-43370500D01*
X141352800Y-43370500D02*
X141302800Y-43418000D01*
X141302800Y-43418000D02*
X141247800Y-43448500D01*
X141247800Y-43448500D02*
X141187800Y-43462500D01*
X141187800Y-43462500D02*
X141122800Y-43460900D01*
X141122800Y-43460900D02*
X140980800Y-43414900D01*
X140980800Y-43414900D02*
X140822800Y-43318300D01*
X140822800Y-43318300D02*
X140652800Y-43178200D01*
X140652800Y-43178200D02*
X140472800Y-43003600D01*
X140472800Y-43003600D02*
X140088800Y-42577300D01*
X140088800Y-42577300D02*
X139296800Y-41634200D01*
X139296800Y-41634200D02*
X138923800Y-41238300D01*
X138923800Y-41238300D02*
X138751800Y-41085900D01*
X138751800Y-41085900D02*
X138591800Y-40973700D01*
X138591800Y-40973700D02*
X138204800Y-40703500D01*
X138204800Y-40703500D02*
X137952800Y-40535000D01*
X137952800Y-40535000D02*
X137688800Y-40381500D01*
X137688800Y-40381500D02*
X137432800Y-40271400D01*
X137432800Y-40271400D02*
X137314800Y-40241000D01*
X137314800Y-40241000D02*
X137205800Y-40232200D01*
X137205800Y-40232200D02*
X137205800Y-40232200D01*
X114189200Y-127362500D02*
X116996800Y-137468500D01*
X116996800Y-137468500D02*
X116829200Y-137324500D01*
X116829200Y-137324500D02*
X116643900Y-137187500D01*
X116643900Y-137187500D02*
X116223800Y-136938500D01*
X116223800Y-136938500D02*
X115743700Y-136719500D01*
X115743700Y-136719500D02*
X115210700Y-136530500D01*
X115210700Y-136530500D02*
X114632000Y-136369500D01*
X114632000Y-136369500D02*
X114014800Y-136236500D01*
X114014800Y-136236500D02*
X113366200Y-136130500D01*
X113366200Y-136130500D02*
X112693400Y-136051500D01*
X112693400Y-136051500D02*
X112003700Y-135997500D01*
X112003700Y-135997500D02*
X111304100Y-135968500D01*
X111304100Y-135968500D02*
X110601800Y-135963500D01*
X110601800Y-135963500D02*
X109904100Y-135982500D01*
X109904100Y-135982500D02*
X109218100Y-136023500D01*
X109218100Y-136023500D02*
X108550900Y-136087500D01*
X108550900Y-136087500D02*
X107909700Y-136171500D01*
X107909700Y-136171500D02*
X107301800Y-136275500D01*
X107301800Y-136275500D02*
X107851400Y-136002500D01*
X107851400Y-136002500D02*
X108341000Y-135721500D01*
X108341000Y-135721500D02*
X108775000Y-135431500D01*
X108775000Y-135431500D02*
X109158000Y-135131500D01*
X109158000Y-135131500D02*
X109494200Y-134818500D01*
X109494200Y-134818500D02*
X109788300Y-134490500D01*
X109788300Y-134490500D02*
X110044600Y-134146500D01*
X110044600Y-134146500D02*
X110267600Y-133784500D01*
X110267600Y-133784500D02*
X110461900Y-133401500D01*
X110461900Y-133401500D02*
X110631700Y-132995500D01*
X110631700Y-132995500D02*
X110781700Y-132566500D01*
X110781700Y-132566500D02*
X110916200Y-132111500D01*
X110916200Y-132111500D02*
X111156700Y-131114500D01*
X111156700Y-131114500D02*
X111388900Y-129990500D01*
X111388900Y-129990500D02*
X114189200Y-127362500D01*
X114189200Y-127362500D02*
X114189200Y-127362500D01*
X137633800Y-127569500D02*
X137565800Y-127582500D01*
X137565800Y-127582500D02*
X137493800Y-127621500D01*
X137493800Y-127621500D02*
X137416800Y-127688500D01*
X137416800Y-127688500D02*
X137333800Y-127785500D01*
X137333800Y-127785500D02*
X137122800Y-128126500D01*
X137122800Y-128126500D02*
X136894800Y-128446500D01*
X136894800Y-128446500D02*
X136651800Y-128744500D01*
X136651800Y-128744500D02*
X136394800Y-129023500D01*
X136394800Y-129023500D02*
X136126800Y-129283500D01*
X136126800Y-129283500D02*
X135847800Y-129526500D01*
X135847800Y-129526500D02*
X135560800Y-129753500D01*
X135560800Y-129753500D02*
X135265800Y-129964500D01*
X135265800Y-129964500D02*
X134659800Y-130346500D01*
X134659800Y-130346500D02*
X134043800Y-130682500D01*
X134043800Y-130682500D02*
X133429800Y-130979500D01*
X133429800Y-130979500D02*
X132829800Y-131249500D01*
X132829800Y-131249500D02*
X133971800Y-131528500D01*
X133971800Y-131528500D02*
X134521800Y-131680500D01*
X134521800Y-131680500D02*
X135057800Y-131846500D01*
X135057800Y-131846500D02*
X135580800Y-132027500D01*
X135580800Y-132027500D02*
X136090800Y-132227500D01*
X136090800Y-132227500D02*
X136587800Y-132449500D01*
X136587800Y-132449500D02*
X137073800Y-132697500D01*
X137073800Y-132697500D02*
X137548800Y-132972500D01*
X137548800Y-132972500D02*
X138011800Y-133278500D01*
X138011800Y-133278500D02*
X138465800Y-133619500D01*
X138465800Y-133619500D02*
X138908800Y-133997500D01*
X138908800Y-133997500D02*
X139343800Y-134415500D01*
X139343800Y-134415500D02*
X139768800Y-134877500D01*
X139768800Y-134877500D02*
X140185800Y-135385500D01*
X140185800Y-135385500D02*
X140594800Y-135942500D01*
X140594800Y-135942500D02*
X137963800Y-127869500D01*
X137963800Y-127869500D02*
X137889800Y-127747500D01*
X137889800Y-127747500D02*
X137810800Y-127651500D01*
X137810800Y-127651500D02*
X137725800Y-127589500D01*
X137725800Y-127589500D02*
X137633800Y-127569500D01*
X137633800Y-127569500D02*
X137633800Y-127569500D01*
X137633800Y-127569500D02*
X137633800Y-127569500D01*
M02*
