%TF.GenerationSoftware,KiCad,Pcbnew,9.0.6*%
%TF.CreationDate,2026-01-09T10:34:39+01:00*%
%TF.ProjectId,Rocket,526f636b-6574-42e6-9b69-6361645f7063,rev?*%
%TF.SameCoordinates,Original*%
%TF.FileFunction,Copper,L2,Bot*%
%TF.FilePolarity,Positive*%
%FSLAX46Y46*%
G04 Gerber Fmt 4.6, Leading zero omitted, Abs format (unit mm)*
G04 Created by KiCad (PCBNEW 9.0.6) date 2026-01-09 10:34:39*
%MOMM*%
%LPD*%
G01*
G04 APERTURE LIST*
G04 Aperture macros list*
%AMRoundRect*
0 Rectangle with rounded corners*
0 $1 Rounding radius*
0 $2 $3 $4 $5 $6 $7 $8 $9 X,Y pos of 4 corners*
0 Add a 4 corners polygon primitive as box body*
4,1,4,$2,$3,$4,$5,$6,$7,$8,$9,$2,$3,0*
0 Add four circle primitives for the rounded corners*
1,1,$1+$1,$2,$3*
1,1,$1+$1,$4,$5*
1,1,$1+$1,$6,$7*
1,1,$1+$1,$8,$9*
0 Add four rect primitives between the rounded corners*
20,1,$1+$1,$2,$3,$4,$5,0*
20,1,$1+$1,$4,$5,$6,$7,0*
20,1,$1+$1,$6,$7,$8,$9,0*
20,1,$1+$1,$8,$9,$2,$3,0*%
G04 Aperture macros list end*
%ADD10C,0.300000*%
%TA.AperFunction,NonConductor*%
%ADD11C,0.300000*%
%TD*%
%TA.AperFunction,ComponentPad*%
%ADD12R,1.500000X1.500000*%
%TD*%
%TA.AperFunction,ComponentPad*%
%ADD13C,1.500000*%
%TD*%
%TA.AperFunction,ComponentPad*%
%ADD14R,1.800000X1.800000*%
%TD*%
%TA.AperFunction,ComponentPad*%
%ADD15C,1.800000*%
%TD*%
%TA.AperFunction,ComponentPad*%
%ADD16C,1.600000*%
%TD*%
%TA.AperFunction,ComponentPad*%
%ADD17C,2.000000*%
%TD*%
%TA.AperFunction,ComponentPad*%
%ADD18RoundRect,0.250000X-0.550000X-0.550000X0.550000X-0.550000X0.550000X0.550000X-0.550000X0.550000X0*%
%TD*%
%TA.AperFunction,SMDPad,CuDef*%
%ADD19R,5.000000X2.000000*%
%TD*%
%TA.AperFunction,SMDPad,CuDef*%
%ADD20C,17.780000*%
%TD*%
%TA.AperFunction,ComponentPad*%
%ADD21R,1.600000X1.600000*%
%TD*%
%TA.AperFunction,ComponentPad*%
%ADD22O,1.600000X1.600000*%
%TD*%
%TA.AperFunction,Conductor*%
%ADD23C,0.250000*%
%TD*%
G04 APERTURE END LIST*
D10*
D11*
X121138489Y-72115828D02*
X121138489Y-70615828D01*
X120281346Y-72115828D02*
X120924203Y-71258685D01*
X120281346Y-70615828D02*
X121138489Y-71472971D01*
X119638489Y-72115828D02*
X119638489Y-70615828D01*
X119638489Y-71330114D02*
X118781346Y-71330114D01*
X118781346Y-72115828D02*
X118781346Y-70615828D01*
X117567060Y-71330114D02*
X118067060Y-71330114D01*
X118067060Y-72115828D02*
X118067060Y-70615828D01*
X118067060Y-70615828D02*
X117352774Y-70615828D01*
X115352774Y-70615828D02*
X115209917Y-70615828D01*
X115209917Y-70615828D02*
X115067060Y-70687257D01*
X115067060Y-70687257D02*
X114995632Y-70758685D01*
X114995632Y-70758685D02*
X114924203Y-70901542D01*
X114924203Y-70901542D02*
X114852774Y-71187257D01*
X114852774Y-71187257D02*
X114852774Y-71544400D01*
X114852774Y-71544400D02*
X114924203Y-71830114D01*
X114924203Y-71830114D02*
X114995632Y-71972971D01*
X114995632Y-71972971D02*
X115067060Y-72044400D01*
X115067060Y-72044400D02*
X115209917Y-72115828D01*
X115209917Y-72115828D02*
X115352774Y-72115828D01*
X115352774Y-72115828D02*
X115495632Y-72044400D01*
X115495632Y-72044400D02*
X115567060Y-71972971D01*
X115567060Y-71972971D02*
X115638489Y-71830114D01*
X115638489Y-71830114D02*
X115709917Y-71544400D01*
X115709917Y-71544400D02*
X115709917Y-71187257D01*
X115709917Y-71187257D02*
X115638489Y-70901542D01*
X115638489Y-70901542D02*
X115567060Y-70758685D01*
X115567060Y-70758685D02*
X115495632Y-70687257D01*
X115495632Y-70687257D02*
X115352774Y-70615828D01*
X113424203Y-72115828D02*
X114281346Y-72115828D01*
X113852775Y-72115828D02*
X113852775Y-70615828D01*
X113852775Y-70615828D02*
X113995632Y-70830114D01*
X113995632Y-70830114D02*
X114138489Y-70972971D01*
X114138489Y-70972971D02*
X114281346Y-71044400D01*
X112781347Y-71972971D02*
X112709918Y-72044400D01*
X112709918Y-72044400D02*
X112781347Y-72115828D01*
X112781347Y-72115828D02*
X112852775Y-72044400D01*
X112852775Y-72044400D02*
X112781347Y-71972971D01*
X112781347Y-71972971D02*
X112781347Y-72115828D01*
X112138489Y-70758685D02*
X112067061Y-70687257D01*
X112067061Y-70687257D02*
X111924204Y-70615828D01*
X111924204Y-70615828D02*
X111567061Y-70615828D01*
X111567061Y-70615828D02*
X111424204Y-70687257D01*
X111424204Y-70687257D02*
X111352775Y-70758685D01*
X111352775Y-70758685D02*
X111281346Y-70901542D01*
X111281346Y-70901542D02*
X111281346Y-71044400D01*
X111281346Y-71044400D02*
X111352775Y-71258685D01*
X111352775Y-71258685D02*
X112209918Y-72115828D01*
X112209918Y-72115828D02*
X111281346Y-72115828D01*
X110352775Y-70615828D02*
X110209918Y-70615828D01*
X110209918Y-70615828D02*
X110067061Y-70687257D01*
X110067061Y-70687257D02*
X109995633Y-70758685D01*
X109995633Y-70758685D02*
X109924204Y-70901542D01*
X109924204Y-70901542D02*
X109852775Y-71187257D01*
X109852775Y-71187257D02*
X109852775Y-71544400D01*
X109852775Y-71544400D02*
X109924204Y-71830114D01*
X109924204Y-71830114D02*
X109995633Y-71972971D01*
X109995633Y-71972971D02*
X110067061Y-72044400D01*
X110067061Y-72044400D02*
X110209918Y-72115828D01*
X110209918Y-72115828D02*
X110352775Y-72115828D01*
X110352775Y-72115828D02*
X110495633Y-72044400D01*
X110495633Y-72044400D02*
X110567061Y-71972971D01*
X110567061Y-71972971D02*
X110638490Y-71830114D01*
X110638490Y-71830114D02*
X110709918Y-71544400D01*
X110709918Y-71544400D02*
X110709918Y-71187257D01*
X110709918Y-71187257D02*
X110638490Y-70901542D01*
X110638490Y-70901542D02*
X110567061Y-70758685D01*
X110567061Y-70758685D02*
X110495633Y-70687257D01*
X110495633Y-70687257D02*
X110352775Y-70615828D01*
X109281347Y-70758685D02*
X109209919Y-70687257D01*
X109209919Y-70687257D02*
X109067062Y-70615828D01*
X109067062Y-70615828D02*
X108709919Y-70615828D01*
X108709919Y-70615828D02*
X108567062Y-70687257D01*
X108567062Y-70687257D02*
X108495633Y-70758685D01*
X108495633Y-70758685D02*
X108424204Y-70901542D01*
X108424204Y-70901542D02*
X108424204Y-71044400D01*
X108424204Y-71044400D02*
X108495633Y-71258685D01*
X108495633Y-71258685D02*
X109352776Y-72115828D01*
X109352776Y-72115828D02*
X108424204Y-72115828D01*
X107138491Y-70615828D02*
X107424205Y-70615828D01*
X107424205Y-70615828D02*
X107567062Y-70687257D01*
X107567062Y-70687257D02*
X107638491Y-70758685D01*
X107638491Y-70758685D02*
X107781348Y-70972971D01*
X107781348Y-70972971D02*
X107852776Y-71258685D01*
X107852776Y-71258685D02*
X107852776Y-71830114D01*
X107852776Y-71830114D02*
X107781348Y-71972971D01*
X107781348Y-71972971D02*
X107709919Y-72044400D01*
X107709919Y-72044400D02*
X107567062Y-72115828D01*
X107567062Y-72115828D02*
X107281348Y-72115828D01*
X107281348Y-72115828D02*
X107138491Y-72044400D01*
X107138491Y-72044400D02*
X107067062Y-71972971D01*
X107067062Y-71972971D02*
X106995633Y-71830114D01*
X106995633Y-71830114D02*
X106995633Y-71472971D01*
X106995633Y-71472971D02*
X107067062Y-71330114D01*
X107067062Y-71330114D02*
X107138491Y-71258685D01*
X107138491Y-71258685D02*
X107281348Y-71187257D01*
X107281348Y-71187257D02*
X107567062Y-71187257D01*
X107567062Y-71187257D02*
X107709919Y-71258685D01*
X107709919Y-71258685D02*
X107781348Y-71330114D01*
X107781348Y-71330114D02*
X107852776Y-71472971D01*
D12*
%TO.P,Q1,1,E*%
%TO.N,Net-(D1-K)*%
X127113000Y-122915000D03*
D13*
%TO.P,Q1,2,B*%
%TO.N,Net-(Q1-B)*%
X129653000Y-120375000D03*
%TO.P,Q1,3,C*%
%TO.N,Net-(Q1-C)*%
X132193000Y-122915000D03*
%TD*%
D12*
%TO.P,Q2,1,E*%
%TO.N,Net-(D1-A)*%
X123853000Y-133033808D03*
D13*
%TO.P,Q2,2,B*%
%TO.N,Net-(Q1-C)*%
X126393000Y-130493808D03*
%TO.P,Q2,3,C*%
%TO.N,Net-(Q2-C)*%
X128933000Y-133033808D03*
%TD*%
D14*
%TO.P,D1,1,K*%
%TO.N,Net-(D1-K)*%
X126930000Y-79100000D03*
D15*
%TO.P,D1,2,A*%
%TO.N,Net-(D1-A)*%
X129470000Y-79100000D03*
%TD*%
D14*
%TO.P,D2,1,K*%
%TO.N,Net-(D1-K)*%
X105330000Y-79400000D03*
D15*
%TO.P,D2,2,A*%
%TO.N,Net-(D1-A)*%
X107870000Y-79400000D03*
%TD*%
D16*
%TO.P,R3,1*%
%TO.N,Net-(D3-K)*%
X90133000Y-134765000D03*
%TO.P,R3,2*%
%TO.N,Net-(Q1-B)*%
X100293000Y-134765000D03*
%TD*%
%TO.P,R5,1*%
%TO.N,Net-(S1-E)*%
X90133000Y-126665000D03*
%TO.P,R5,2*%
%TO.N,Net-(Q1-C)*%
X100293000Y-126665000D03*
%TD*%
%TO.P,R6,1*%
%TO.N,Net-(S1-E)*%
X90133000Y-122615000D03*
%TO.P,R6,2*%
%TO.N,Net-(Q2-C)*%
X100293000Y-122615000D03*
%TD*%
D17*
%TO.P,S1,1,A*%
%TO.N,Net-(S1-A-Pad1)*%
X135593000Y-112615000D03*
%TO.P,S1,2,E*%
%TO.N,Net-(S1-E)*%
X135593000Y-110075000D03*
%TO.P,S1,3,A*%
%TO.N,unconnected-(S1-A-Pad3)*%
X135593000Y-107535000D03*
%TD*%
D18*
%TO.P,U1,1,GND*%
%TO.N,Net-(D1-K)*%
X110626900Y-114748500D03*
D16*
%TO.P,U1,2,TR*%
%TO.N,Net-(D3-K)*%
X110626900Y-112208500D03*
%TO.P,U1,3,Q*%
%TO.N,unconnected-(U1-Q-Pad3)*%
X110626900Y-109668500D03*
%TO.P,U1,4,R*%
%TO.N,Net-(S1-E)*%
X110626900Y-107128500D03*
%TO.P,U1,5,CV*%
%TO.N,unconnected-(U1-CV-Pad5)*%
X118246900Y-107128500D03*
%TO.P,U1,6,THR*%
%TO.N,Net-(D3-K)*%
X118246900Y-109668500D03*
%TO.P,U1,7,DIS*%
%TO.N,Net-(D3-A)*%
X118246900Y-112208500D03*
%TO.P,U1,8,VCC*%
%TO.N,Net-(S1-E)*%
X118246900Y-114748500D03*
%TD*%
D19*
%TO.P,U2,*%
%TO.N,*%
X102393000Y-56415000D03*
X102393000Y-59971000D03*
%TO.P,U2,1*%
%TO.N,Net-(S1-A-Pad1)*%
X128287000Y-56415000D03*
X128287000Y-59971000D03*
D20*
%TO.P,U2,2*%
%TO.N,Net-(D1-K)*%
X115347000Y-58447000D03*
%TD*%
D21*
%TO.P,C1,1*%
%TO.N,Net-(D3-K)*%
X112593000Y-123215000D03*
D16*
%TO.P,C1,2*%
%TO.N,Net-(D1-K)*%
X115093000Y-123215000D03*
%TD*%
%TO.P,R4,1*%
%TO.N,Net-(Q1-B)*%
X90133000Y-130715000D03*
%TO.P,R4,2*%
%TO.N,Net-(D1-K)*%
X100293000Y-130715000D03*
%TD*%
%TO.P,R7,1*%
%TO.N,Net-(D3-K)*%
X90133000Y-118565000D03*
%TO.P,R7,2*%
%TO.N,Net-(D3-A)*%
X100293000Y-118565000D03*
%TD*%
%TO.P,R8,1*%
%TO.N,Net-(S1-E)*%
X90133000Y-114515000D03*
%TO.P,R8,2*%
%TO.N,Net-(D3-A)*%
X100293000Y-114515000D03*
%TD*%
D21*
%TO.P,D3,1,K*%
%TO.N,Net-(D3-K)*%
X110616900Y-103308500D03*
D22*
%TO.P,D3,2,A*%
%TO.N,Net-(D3-A)*%
X118236900Y-103308500D03*
%TD*%
D23*
%TO.N,Net-(D3-K)*%
X110626900Y-112208500D02*
X108793000Y-114042400D01*
X108793000Y-114042400D02*
X108793000Y-122115000D01*
X108793000Y-122115000D02*
X109893000Y-123215000D01*
X109893000Y-123215000D02*
X112593000Y-123215000D01*
%TO.N,Net-(D1-K)*%
X110626900Y-118948900D02*
X111793000Y-120115000D01*
X107293000Y-93115000D02*
X124293000Y-93115000D01*
X125453000Y-68553000D02*
X115347000Y-58447000D01*
X105330000Y-79400000D02*
X105330000Y-77645000D01*
X101293000Y-80915000D02*
X101293000Y-87115000D01*
X113793000Y-120115000D02*
X115093000Y-121415000D01*
X118193000Y-123215000D02*
X115093000Y-123215000D01*
X100293000Y-130715000D02*
X112693000Y-130715000D01*
X124293000Y-93115000D02*
X128293000Y-97115000D01*
X101293000Y-87115000D02*
X107293000Y-93115000D01*
X103193000Y-77315000D02*
X101293000Y-79215000D01*
X105000000Y-77315000D02*
X125353000Y-77315000D01*
X128293000Y-113115000D02*
X118193000Y-123215000D01*
X111793000Y-120115000D02*
X113793000Y-120115000D01*
X115093000Y-128315000D02*
X115093000Y-123215000D01*
X101293000Y-79215000D02*
X101293000Y-80915000D01*
X103193000Y-77315000D02*
X105000000Y-77315000D01*
X112693000Y-130715000D02*
X115093000Y-128315000D01*
X125453000Y-77415000D02*
X125453000Y-77623000D01*
X105330000Y-77645000D02*
X105000000Y-77315000D01*
X115093000Y-121415000D02*
X115093000Y-123215000D01*
X125453000Y-77623000D02*
X126930000Y-79100000D01*
X128293000Y-97115000D02*
X128293000Y-113115000D01*
X125353000Y-77315000D02*
X125453000Y-77415000D01*
X110626900Y-118948900D02*
X110626900Y-114748500D01*
X125453000Y-77415000D02*
X125453000Y-68553000D01*
%TO.N,Net-(D1-A)*%
X133793000Y-117915000D02*
X129693000Y-113815000D01*
X129693000Y-113815000D02*
X129693000Y-85615000D01*
X131093000Y-128915000D02*
X135193000Y-124815000D01*
X123853000Y-134675000D02*
X125593000Y-136415000D01*
X135193000Y-117915000D02*
X133793000Y-117915000D01*
X112685000Y-84215000D02*
X107870000Y-79400000D01*
X129693000Y-85615000D02*
X128493000Y-84415000D01*
X123853000Y-133033808D02*
X123853000Y-134675000D01*
X128293000Y-84215000D02*
X112685000Y-84215000D01*
X135193000Y-124815000D02*
X135193000Y-117915000D01*
X128293000Y-84215000D02*
X128493000Y-84415000D01*
X128293000Y-84215000D02*
X129470000Y-83038000D01*
X129470000Y-83038000D02*
X129470000Y-79100000D01*
X125593000Y-136415000D02*
X131093000Y-136415000D01*
X131093000Y-136415000D02*
X131093000Y-128915000D01*
%TO.N,Net-(S1-E)*%
X114293000Y-110794600D02*
X114293000Y-113615000D01*
X110626900Y-107128500D02*
X114293000Y-110794600D01*
X90133000Y-114515000D02*
X87893000Y-114515000D01*
X87893000Y-114515000D02*
X83793000Y-118615000D01*
X90133000Y-126665000D02*
X90133000Y-122615000D01*
X83793000Y-118615000D02*
X83793000Y-121115000D01*
X115426500Y-114748500D02*
X118246900Y-114748500D01*
X85293000Y-122615000D02*
X90133000Y-122615000D01*
X90133000Y-111275000D02*
X90133000Y-114515000D01*
X114293000Y-113615000D02*
X115426500Y-114748500D01*
X110626900Y-107128500D02*
X94279500Y-107128500D01*
X94279500Y-107128500D02*
X90133000Y-111275000D01*
X83793000Y-121115000D02*
X85293000Y-122615000D01*
%TO.N,Net-(Q1-B)*%
X90133000Y-130715000D02*
X91393000Y-130715000D01*
X91393000Y-130715000D02*
X95443000Y-134765000D01*
X117793000Y-133615000D02*
X116643000Y-134765000D01*
X116643000Y-134765000D02*
X100293000Y-134765000D01*
X117793000Y-126115000D02*
X117793000Y-133615000D01*
X95443000Y-134765000D02*
X100293000Y-134765000D01*
X123533000Y-120375000D02*
X117793000Y-126115000D01*
X129653000Y-120375000D02*
X123533000Y-120375000D01*
%TO.N,Net-(Q1-C)*%
X132193000Y-124693808D02*
X126393000Y-130493808D01*
X132193000Y-122915000D02*
X132193000Y-124693808D01*
%TO.N,Net-(D3-A)*%
X118236900Y-103308500D02*
X119486500Y-103308500D01*
X121793000Y-105615000D02*
X121793000Y-111615000D01*
X121793000Y-111615000D02*
X121199500Y-112208500D01*
X121199500Y-112208500D02*
X118246900Y-112208500D01*
X100293000Y-114515000D02*
X100293000Y-118565000D01*
X119486500Y-103308500D02*
X121793000Y-105615000D01*
%TO.N,Net-(S1-A-Pad1)*%
X139693000Y-111215000D02*
X138293000Y-112615000D01*
X128287000Y-56415000D02*
X128287000Y-59971000D01*
X139693000Y-77615000D02*
X139693000Y-111215000D01*
X138293000Y-112615000D02*
X135593000Y-112615000D01*
X128287000Y-59971000D02*
X128287000Y-66209000D01*
X128287000Y-66209000D02*
X139693000Y-77615000D01*
%TD*%
M02*
