%TF.GenerationSoftware,KiCad,Pcbnew,9.0.6*%
%TF.CreationDate,2025-12-07T10:25:39+01:00*%
%TF.ProjectId,Rocket,526f636b-6574-42e6-9b69-6361645f7063,rev?*%
%TF.SameCoordinates,Original*%
%TF.FileFunction,Soldermask,Top*%
%TF.FilePolarity,Negative*%
%FSLAX46Y46*%
G04 Gerber Fmt 4.6, Leading zero omitted, Abs format (unit mm)*
G04 Created by KiCad (PCBNEW 9.0.6) date 2025-12-07 10:25:39*
%MOMM*%
%LPD*%
G01*
G04 APERTURE LIST*
G04 Aperture macros list*
%AMRoundRect*
0 Rectangle with rounded corners*
0 $1 Rounding radius*
0 $2 $3 $4 $5 $6 $7 $8 $9 X,Y pos of 4 corners*
0 Add a 4 corners polygon primitive as box body*
4,1,4,$2,$3,$4,$5,$6,$7,$8,$9,$2,$3,0*
0 Add four circle primitives for the rounded corners*
1,1,$1+$1,$2,$3*
1,1,$1+$1,$4,$5*
1,1,$1+$1,$6,$7*
1,1,$1+$1,$8,$9*
0 Add four rect primitives between the rounded corners*
20,1,$1+$1,$2,$3,$4,$5,0*
20,1,$1+$1,$4,$5,$6,$7,0*
20,1,$1+$1,$6,$7,$8,$9,0*
20,1,$1+$1,$8,$9,$2,$3,0*%
G04 Aperture macros list end*
%ADD10RoundRect,0.312500X-0.687500X-0.687500X0.687500X-0.687500X0.687500X0.687500X-0.687500X0.687500X0*%
%ADD11C,2.000000*%
%ADD12C,2.400000*%
%ADD13RoundRect,0.200000X-0.750000X-0.750000X0.750000X-0.750000X0.750000X0.750000X-0.750000X0.750000X0*%
%ADD14C,1.900000*%
%ADD15RoundRect,0.200000X-0.800000X-0.800000X0.800000X-0.800000X0.800000X0.800000X-0.800000X0.800000X0*%
%ADD16O,2.000000X2.000000*%
%ADD17RoundRect,0.200000X-0.900000X-0.900000X0.900000X-0.900000X0.900000X0.900000X-0.900000X0.900000X0*%
%ADD18C,2.200000*%
G04 APERTURE END LIST*
D10*
%TO.C,U1*%
X134400000Y-123840000D03*
D11*
X134400000Y-121300000D03*
X134400000Y-118760000D03*
X134400000Y-116220000D03*
X142020000Y-116220000D03*
X142020000Y-118760000D03*
X142020000Y-121300000D03*
X142020000Y-123840000D03*
%TD*%
D12*
%TO.C,S1*%
X161500000Y-133980000D03*
X161500000Y-131440000D03*
X161500000Y-128900000D03*
%TD*%
D11*
%TO.C,R7*%
X112720000Y-118850000D03*
X122880000Y-118850000D03*
%TD*%
%TO.C,R6*%
X112720000Y-122900000D03*
X122880000Y-122900000D03*
%TD*%
%TO.C,R5*%
X112720000Y-126950000D03*
X122880000Y-126950000D03*
%TD*%
%TO.C,R4*%
X112720000Y-131000000D03*
X122880000Y-131000000D03*
%TD*%
%TO.C,R3*%
X112720000Y-135050000D03*
X122880000Y-135050000D03*
%TD*%
%TO.C,R1off1*%
X112720000Y-114800000D03*
X122880000Y-114800000D03*
%TD*%
D13*
%TO.C,T2*%
X151560000Y-118740000D03*
D14*
X154100000Y-116200000D03*
X156640000Y-118740000D03*
%TD*%
D15*
%TO.C,D3*%
X134390000Y-112400000D03*
D16*
X142010000Y-112400000D03*
%TD*%
D17*
%TO.C,D2*%
X173300000Y-79800000D03*
D18*
X175840000Y-79800000D03*
%TD*%
D17*
%TO.C,D1*%
X153500000Y-80800000D03*
D18*
X156040000Y-80800000D03*
%TD*%
D15*
%TO.C,47uF*%
X164700000Y-122000000D03*
D11*
X167200000Y-122000000D03*
%TD*%
D13*
%TO.C,T1*%
X152100000Y-111400000D03*
D14*
X154640000Y-108860000D03*
X157180000Y-111400000D03*
%TD*%
M02*
