%TF.GenerationSoftware,KiCad,Pcbnew,9.0.6*%
%TF.CreationDate,2025-12-07T14:23:17+01:00*%
%TF.ProjectId,Rocket,526f636b-6574-42e6-9b69-6361645f7063,rev?*%
%TF.SameCoordinates,Original*%
%TF.FileFunction,Legend,Bot*%
%TF.FilePolarity,Positive*%
%FSLAX46Y46*%
G04 Gerber Fmt 4.6, Leading zero omitted, Abs format (unit mm)*
G04 Created by KiCad (PCBNEW 9.0.6) date 2025-12-07 14:23:17*
%MOMM*%
%LPD*%
G01*
G04 APERTURE LIST*
%ADD10C,0.150000*%
%ADD11C,0.050000*%
%ADD12C,0.120000*%
%ADD13C,0.010000*%
G04 APERTURE END LIST*
D10*
X134106249Y-76128460D02*
X134106249Y-77128460D01*
X133534821Y-76128460D02*
X133963392Y-76699889D01*
X133534821Y-77128460D02*
X134106249Y-76557032D01*
X153906249Y-75328460D02*
X153906249Y-76328460D01*
X153334821Y-75328460D02*
X153763392Y-75899889D01*
X153334821Y-76328460D02*
X153906249Y-75757032D01*
X132558630Y-107414289D02*
X132225297Y-107414289D01*
X132082440Y-107938099D02*
X132558630Y-107938099D01*
X132558630Y-107938099D02*
X132558630Y-106938099D01*
X132558630Y-106938099D02*
X132082440Y-106938099D01*
X126621851Y-140753099D02*
X126621851Y-141467384D01*
X126621851Y-141467384D02*
X126669470Y-141610241D01*
X126669470Y-141610241D02*
X126764708Y-141705480D01*
X126764708Y-141705480D02*
X126907565Y-141753099D01*
X126907565Y-141753099D02*
X127002803Y-141753099D01*
X125669470Y-141753099D02*
X126145660Y-141753099D01*
X126145660Y-141753099D02*
X126145660Y-140753099D01*
X124764708Y-141657860D02*
X124812327Y-141705480D01*
X124812327Y-141705480D02*
X124955184Y-141753099D01*
X124955184Y-141753099D02*
X125050422Y-141753099D01*
X125050422Y-141753099D02*
X125193279Y-141705480D01*
X125193279Y-141705480D02*
X125288517Y-141610241D01*
X125288517Y-141610241D02*
X125336136Y-141515003D01*
X125336136Y-141515003D02*
X125383755Y-141324527D01*
X125383755Y-141324527D02*
X125383755Y-141181670D01*
X125383755Y-141181670D02*
X125336136Y-140991194D01*
X125336136Y-140991194D02*
X125288517Y-140895956D01*
X125288517Y-140895956D02*
X125193279Y-140800718D01*
X125193279Y-140800718D02*
X125050422Y-140753099D01*
X125050422Y-140753099D02*
X124955184Y-140753099D01*
X124955184Y-140753099D02*
X124812327Y-140800718D01*
X124812327Y-140800718D02*
X124764708Y-140848337D01*
X124050422Y-140753099D02*
X124050422Y-141467384D01*
X124050422Y-141467384D02*
X124098041Y-141610241D01*
X124098041Y-141610241D02*
X124193279Y-141705480D01*
X124193279Y-141705480D02*
X124336136Y-141753099D01*
X124336136Y-141753099D02*
X124431374Y-141753099D01*
X123098041Y-141753099D02*
X123574231Y-141753099D01*
X123574231Y-141753099D02*
X123574231Y-140753099D01*
X122193279Y-141657860D02*
X122240898Y-141705480D01*
X122240898Y-141705480D02*
X122383755Y-141753099D01*
X122383755Y-141753099D02*
X122478993Y-141753099D01*
X122478993Y-141753099D02*
X122621850Y-141705480D01*
X122621850Y-141705480D02*
X122717088Y-141610241D01*
X122717088Y-141610241D02*
X122764707Y-141515003D01*
X122764707Y-141515003D02*
X122812326Y-141324527D01*
X122812326Y-141324527D02*
X122812326Y-141181670D01*
X122812326Y-141181670D02*
X122764707Y-140991194D01*
X122764707Y-140991194D02*
X122717088Y-140895956D01*
X122717088Y-140895956D02*
X122621850Y-140800718D01*
X122621850Y-140800718D02*
X122478993Y-140753099D01*
X122478993Y-140753099D02*
X122383755Y-140753099D01*
X122383755Y-140753099D02*
X122240898Y-140800718D01*
X122240898Y-140800718D02*
X122193279Y-140848337D01*
X121478993Y-140753099D02*
X121478993Y-141467384D01*
X121478993Y-141467384D02*
X121526612Y-141610241D01*
X121526612Y-141610241D02*
X121621850Y-141705480D01*
X121621850Y-141705480D02*
X121764707Y-141753099D01*
X121764707Y-141753099D02*
X121859945Y-141753099D01*
X120526612Y-141753099D02*
X121002802Y-141753099D01*
X121002802Y-141753099D02*
X121002802Y-140753099D01*
X119621850Y-141657860D02*
X119669469Y-141705480D01*
X119669469Y-141705480D02*
X119812326Y-141753099D01*
X119812326Y-141753099D02*
X119907564Y-141753099D01*
X119907564Y-141753099D02*
X120050421Y-141705480D01*
X120050421Y-141705480D02*
X120145659Y-141610241D01*
X120145659Y-141610241D02*
X120193278Y-141515003D01*
X120193278Y-141515003D02*
X120240897Y-141324527D01*
X120240897Y-141324527D02*
X120240897Y-141181670D01*
X120240897Y-141181670D02*
X120193278Y-140991194D01*
X120193278Y-140991194D02*
X120145659Y-140895956D01*
X120145659Y-140895956D02*
X120050421Y-140800718D01*
X120050421Y-140800718D02*
X119907564Y-140753099D01*
X119907564Y-140753099D02*
X119812326Y-140753099D01*
X119812326Y-140753099D02*
X119669469Y-140800718D01*
X119669469Y-140800718D02*
X119621850Y-140848337D01*
X118907564Y-140753099D02*
X118907564Y-141467384D01*
X118907564Y-141467384D02*
X118955183Y-141610241D01*
X118955183Y-141610241D02*
X119050421Y-141705480D01*
X119050421Y-141705480D02*
X119193278Y-141753099D01*
X119193278Y-141753099D02*
X119288516Y-141753099D01*
X117955183Y-141753099D02*
X118431373Y-141753099D01*
X118431373Y-141753099D02*
X118431373Y-140753099D01*
X117050421Y-141657860D02*
X117098040Y-141705480D01*
X117098040Y-141705480D02*
X117240897Y-141753099D01*
X117240897Y-141753099D02*
X117336135Y-141753099D01*
X117336135Y-141753099D02*
X117478992Y-141705480D01*
X117478992Y-141705480D02*
X117574230Y-141610241D01*
X117574230Y-141610241D02*
X117621849Y-141515003D01*
X117621849Y-141515003D02*
X117669468Y-141324527D01*
X117669468Y-141324527D02*
X117669468Y-141181670D01*
X117669468Y-141181670D02*
X117621849Y-140991194D01*
X117621849Y-140991194D02*
X117574230Y-140895956D01*
X117574230Y-140895956D02*
X117478992Y-140800718D01*
X117478992Y-140800718D02*
X117336135Y-140753099D01*
X117336135Y-140753099D02*
X117240897Y-140753099D01*
X117240897Y-140753099D02*
X117098040Y-140800718D01*
X117098040Y-140800718D02*
X117050421Y-140848337D01*
X131958630Y-114614289D02*
X131625297Y-114614289D01*
X131482440Y-115138099D02*
X131958630Y-115138099D01*
X131958630Y-115138099D02*
X131958630Y-114138099D01*
X131958630Y-114138099D02*
X131482440Y-114138099D01*
X134732626Y-108870091D02*
G75*
G02*
X138544345Y-108883280I1911719J1686811D01*
G01*
X134844345Y-108883280D02*
X138544345Y-108883280D01*
X134394345Y-116283280D02*
X138094345Y-116283280D01*
X134282626Y-116270091D02*
G75*
G02*
X138094345Y-116283280I1911719J1686811D01*
G01*
D11*
X142660059Y-50703299D02*
X142660059Y-51512822D01*
X142660059Y-51512822D02*
X142617202Y-51608060D01*
X142617202Y-51608060D02*
X142574345Y-51655680D01*
X142574345Y-51655680D02*
X142488630Y-51703299D01*
X142488630Y-51703299D02*
X142317202Y-51703299D01*
X142317202Y-51703299D02*
X142231487Y-51655680D01*
X142231487Y-51655680D02*
X142188630Y-51608060D01*
X142188630Y-51608060D02*
X142145773Y-51512822D01*
X142145773Y-51512822D02*
X142145773Y-50703299D01*
X141760059Y-50798537D02*
X141717202Y-50750918D01*
X141717202Y-50750918D02*
X141631488Y-50703299D01*
X141631488Y-50703299D02*
X141417202Y-50703299D01*
X141417202Y-50703299D02*
X141331488Y-50750918D01*
X141331488Y-50750918D02*
X141288630Y-50798537D01*
X141288630Y-50798537D02*
X141245773Y-50893775D01*
X141245773Y-50893775D02*
X141245773Y-50989013D01*
X141245773Y-50989013D02*
X141288630Y-51131870D01*
X141288630Y-51131870D02*
X141802916Y-51703299D01*
X141802916Y-51703299D02*
X141245773Y-51703299D01*
X141252915Y-55299489D02*
X141124343Y-55347108D01*
X141124343Y-55347108D02*
X141081486Y-55394727D01*
X141081486Y-55394727D02*
X141038629Y-55489965D01*
X141038629Y-55489965D02*
X141038629Y-55632822D01*
X141038629Y-55632822D02*
X141081486Y-55728060D01*
X141081486Y-55728060D02*
X141124343Y-55775680D01*
X141124343Y-55775680D02*
X141210058Y-55823299D01*
X141210058Y-55823299D02*
X141552915Y-55823299D01*
X141552915Y-55823299D02*
X141552915Y-54823299D01*
X141552915Y-54823299D02*
X141252915Y-54823299D01*
X141252915Y-54823299D02*
X141167201Y-54870918D01*
X141167201Y-54870918D02*
X141124343Y-54918537D01*
X141124343Y-54918537D02*
X141081486Y-55013775D01*
X141081486Y-55013775D02*
X141081486Y-55109013D01*
X141081486Y-55109013D02*
X141124343Y-55204251D01*
X141124343Y-55204251D02*
X141167201Y-55251870D01*
X141167201Y-55251870D02*
X141252915Y-55299489D01*
X141252915Y-55299489D02*
X141552915Y-55299489D01*
X140695772Y-55537584D02*
X140267201Y-55537584D01*
X140781486Y-55823299D02*
X140481486Y-54823299D01*
X140481486Y-54823299D02*
X140181486Y-55823299D01*
X140010057Y-54823299D02*
X139495772Y-54823299D01*
X139752914Y-55823299D02*
X139752914Y-54823299D01*
X139410058Y-55918537D02*
X138724343Y-55918537D01*
X138510058Y-55823299D02*
X138510058Y-54823299D01*
X138510058Y-55299489D02*
X137995772Y-55299489D01*
X137995772Y-55823299D02*
X137995772Y-54823299D01*
X137138629Y-55823299D02*
X137567201Y-55823299D01*
X137567201Y-55823299D02*
X137567201Y-54823299D01*
X136838630Y-55823299D02*
X136838630Y-54823299D01*
X136838630Y-54823299D02*
X136624344Y-54823299D01*
X136624344Y-54823299D02*
X136495773Y-54870918D01*
X136495773Y-54870918D02*
X136410058Y-54966156D01*
X136410058Y-54966156D02*
X136367201Y-55061394D01*
X136367201Y-55061394D02*
X136324344Y-55251870D01*
X136324344Y-55251870D02*
X136324344Y-55394727D01*
X136324344Y-55394727D02*
X136367201Y-55585203D01*
X136367201Y-55585203D02*
X136410058Y-55680441D01*
X136410058Y-55680441D02*
X136495773Y-55775680D01*
X136495773Y-55775680D02*
X136624344Y-55823299D01*
X136624344Y-55823299D02*
X136838630Y-55823299D01*
X136152916Y-55918537D02*
X135467201Y-55918537D01*
X135295773Y-55775680D02*
X135167202Y-55823299D01*
X135167202Y-55823299D02*
X134952916Y-55823299D01*
X134952916Y-55823299D02*
X134867202Y-55775680D01*
X134867202Y-55775680D02*
X134824344Y-55728060D01*
X134824344Y-55728060D02*
X134781487Y-55632822D01*
X134781487Y-55632822D02*
X134781487Y-55537584D01*
X134781487Y-55537584D02*
X134824344Y-55442346D01*
X134824344Y-55442346D02*
X134867202Y-55394727D01*
X134867202Y-55394727D02*
X134952916Y-55347108D01*
X134952916Y-55347108D02*
X135124344Y-55299489D01*
X135124344Y-55299489D02*
X135210059Y-55251870D01*
X135210059Y-55251870D02*
X135252916Y-55204251D01*
X135252916Y-55204251D02*
X135295773Y-55109013D01*
X135295773Y-55109013D02*
X135295773Y-55013775D01*
X135295773Y-55013775D02*
X135252916Y-54918537D01*
X135252916Y-54918537D02*
X135210059Y-54870918D01*
X135210059Y-54870918D02*
X135124344Y-54823299D01*
X135124344Y-54823299D02*
X134910059Y-54823299D01*
X134910059Y-54823299D02*
X134781487Y-54870918D01*
X134395773Y-55823299D02*
X134395773Y-54823299D01*
X134395773Y-54823299D02*
X134095773Y-55537584D01*
X134095773Y-55537584D02*
X133795773Y-54823299D01*
X133795773Y-54823299D02*
X133795773Y-55823299D01*
X133367202Y-55823299D02*
X133367202Y-54823299D01*
X133367202Y-54823299D02*
X133152916Y-54823299D01*
X133152916Y-54823299D02*
X133024345Y-54870918D01*
X133024345Y-54870918D02*
X132938630Y-54966156D01*
X132938630Y-54966156D02*
X132895773Y-55061394D01*
X132895773Y-55061394D02*
X132852916Y-55251870D01*
X132852916Y-55251870D02*
X132852916Y-55394727D01*
X132852916Y-55394727D02*
X132895773Y-55585203D01*
X132895773Y-55585203D02*
X132938630Y-55680441D01*
X132938630Y-55680441D02*
X133024345Y-55775680D01*
X133024345Y-55775680D02*
X133152916Y-55823299D01*
X133152916Y-55823299D02*
X133367202Y-55823299D01*
D10*
X140806249Y-127890480D02*
X140663392Y-127938099D01*
X140663392Y-127938099D02*
X140425297Y-127938099D01*
X140425297Y-127938099D02*
X140330059Y-127890480D01*
X140330059Y-127890480D02*
X140282440Y-127842860D01*
X140282440Y-127842860D02*
X140234821Y-127747622D01*
X140234821Y-127747622D02*
X140234821Y-127652384D01*
X140234821Y-127652384D02*
X140282440Y-127557146D01*
X140282440Y-127557146D02*
X140330059Y-127509527D01*
X140330059Y-127509527D02*
X140425297Y-127461908D01*
X140425297Y-127461908D02*
X140615773Y-127414289D01*
X140615773Y-127414289D02*
X140711011Y-127366670D01*
X140711011Y-127366670D02*
X140758630Y-127319051D01*
X140758630Y-127319051D02*
X140806249Y-127223813D01*
X140806249Y-127223813D02*
X140806249Y-127128575D01*
X140806249Y-127128575D02*
X140758630Y-127033337D01*
X140758630Y-127033337D02*
X140711011Y-126985718D01*
X140711011Y-126985718D02*
X140615773Y-126938099D01*
X140615773Y-126938099D02*
X140377678Y-126938099D01*
X140377678Y-126938099D02*
X140234821Y-126985718D01*
X139282440Y-127938099D02*
X139853868Y-127938099D01*
X139568154Y-127938099D02*
X139568154Y-126938099D01*
X139568154Y-126938099D02*
X139663392Y-127080956D01*
X139663392Y-127080956D02*
X139758630Y-127176194D01*
X139758630Y-127176194D02*
X139853868Y-127223813D01*
X108934821Y-111338099D02*
X109506249Y-111338099D01*
X109220535Y-111338099D02*
X109220535Y-110338099D01*
X109220535Y-110338099D02*
X109315773Y-110480956D01*
X109315773Y-110480956D02*
X109411011Y-110576194D01*
X109411011Y-110576194D02*
X109506249Y-110623813D01*
X108553868Y-110433337D02*
X108506249Y-110385718D01*
X108506249Y-110385718D02*
X108411011Y-110338099D01*
X108411011Y-110338099D02*
X108172916Y-110338099D01*
X108172916Y-110338099D02*
X108077678Y-110385718D01*
X108077678Y-110385718D02*
X108030059Y-110433337D01*
X108030059Y-110433337D02*
X107982440Y-110528575D01*
X107982440Y-110528575D02*
X107982440Y-110623813D01*
X107982440Y-110623813D02*
X108030059Y-110766670D01*
X108030059Y-110766670D02*
X108601487Y-111338099D01*
X108601487Y-111338099D02*
X107982440Y-111338099D01*
X107553868Y-111338099D02*
X107553868Y-110338099D01*
X106982440Y-111338099D02*
X107411011Y-110766670D01*
X106982440Y-110338099D02*
X107553868Y-110909527D01*
X100011011Y-111238099D02*
X100344344Y-110761908D01*
X100582439Y-111238099D02*
X100582439Y-110238099D01*
X100582439Y-110238099D02*
X100201487Y-110238099D01*
X100201487Y-110238099D02*
X100106249Y-110285718D01*
X100106249Y-110285718D02*
X100058630Y-110333337D01*
X100058630Y-110333337D02*
X100011011Y-110428575D01*
X100011011Y-110428575D02*
X100011011Y-110571432D01*
X100011011Y-110571432D02*
X100058630Y-110666670D01*
X100058630Y-110666670D02*
X100106249Y-110714289D01*
X100106249Y-110714289D02*
X100201487Y-110761908D01*
X100201487Y-110761908D02*
X100582439Y-110761908D01*
X99439582Y-110666670D02*
X99534820Y-110619051D01*
X99534820Y-110619051D02*
X99582439Y-110571432D01*
X99582439Y-110571432D02*
X99630058Y-110476194D01*
X99630058Y-110476194D02*
X99630058Y-110428575D01*
X99630058Y-110428575D02*
X99582439Y-110333337D01*
X99582439Y-110333337D02*
X99534820Y-110285718D01*
X99534820Y-110285718D02*
X99439582Y-110238099D01*
X99439582Y-110238099D02*
X99249106Y-110238099D01*
X99249106Y-110238099D02*
X99153868Y-110285718D01*
X99153868Y-110285718D02*
X99106249Y-110333337D01*
X99106249Y-110333337D02*
X99058630Y-110428575D01*
X99058630Y-110428575D02*
X99058630Y-110476194D01*
X99058630Y-110476194D02*
X99106249Y-110571432D01*
X99106249Y-110571432D02*
X99153868Y-110619051D01*
X99153868Y-110619051D02*
X99249106Y-110666670D01*
X99249106Y-110666670D02*
X99439582Y-110666670D01*
X99439582Y-110666670D02*
X99534820Y-110714289D01*
X99534820Y-110714289D02*
X99582439Y-110761908D01*
X99582439Y-110761908D02*
X99630058Y-110857146D01*
X99630058Y-110857146D02*
X99630058Y-111047622D01*
X99630058Y-111047622D02*
X99582439Y-111142860D01*
X99582439Y-111142860D02*
X99534820Y-111190480D01*
X99534820Y-111190480D02*
X99439582Y-111238099D01*
X99439582Y-111238099D02*
X99249106Y-111238099D01*
X99249106Y-111238099D02*
X99153868Y-111190480D01*
X99153868Y-111190480D02*
X99106249Y-111142860D01*
X99106249Y-111142860D02*
X99058630Y-111047622D01*
X99058630Y-111047622D02*
X99058630Y-110857146D01*
X99058630Y-110857146D02*
X99106249Y-110761908D01*
X99106249Y-110761908D02*
X99153868Y-110714289D01*
X99153868Y-110714289D02*
X99249106Y-110666670D01*
X100011011Y-115338099D02*
X100344344Y-114861908D01*
X100582439Y-115338099D02*
X100582439Y-114338099D01*
X100582439Y-114338099D02*
X100201487Y-114338099D01*
X100201487Y-114338099D02*
X100106249Y-114385718D01*
X100106249Y-114385718D02*
X100058630Y-114433337D01*
X100058630Y-114433337D02*
X100011011Y-114528575D01*
X100011011Y-114528575D02*
X100011011Y-114671432D01*
X100011011Y-114671432D02*
X100058630Y-114766670D01*
X100058630Y-114766670D02*
X100106249Y-114814289D01*
X100106249Y-114814289D02*
X100201487Y-114861908D01*
X100201487Y-114861908D02*
X100582439Y-114861908D01*
X99677677Y-114338099D02*
X99011011Y-114338099D01*
X99011011Y-114338099D02*
X99439582Y-115338099D01*
X108934821Y-115318099D02*
X109506249Y-115318099D01*
X109220535Y-115318099D02*
X109220535Y-114318099D01*
X109220535Y-114318099D02*
X109315773Y-114460956D01*
X109315773Y-114460956D02*
X109411011Y-114556194D01*
X109411011Y-114556194D02*
X109506249Y-114603813D01*
X108077678Y-114318099D02*
X108268154Y-114318099D01*
X108268154Y-114318099D02*
X108363392Y-114365718D01*
X108363392Y-114365718D02*
X108411011Y-114413337D01*
X108411011Y-114413337D02*
X108506249Y-114556194D01*
X108506249Y-114556194D02*
X108553868Y-114746670D01*
X108553868Y-114746670D02*
X108553868Y-115127622D01*
X108553868Y-115127622D02*
X108506249Y-115222860D01*
X108506249Y-115222860D02*
X108458630Y-115270480D01*
X108458630Y-115270480D02*
X108363392Y-115318099D01*
X108363392Y-115318099D02*
X108172916Y-115318099D01*
X108172916Y-115318099D02*
X108077678Y-115270480D01*
X108077678Y-115270480D02*
X108030059Y-115222860D01*
X108030059Y-115222860D02*
X107982440Y-115127622D01*
X107982440Y-115127622D02*
X107982440Y-114889527D01*
X107982440Y-114889527D02*
X108030059Y-114794289D01*
X108030059Y-114794289D02*
X108077678Y-114746670D01*
X108077678Y-114746670D02*
X108172916Y-114699051D01*
X108172916Y-114699051D02*
X108363392Y-114699051D01*
X108363392Y-114699051D02*
X108458630Y-114746670D01*
X108458630Y-114746670D02*
X108506249Y-114794289D01*
X108506249Y-114794289D02*
X108553868Y-114889527D01*
X107553868Y-115318099D02*
X107553868Y-114318099D01*
X106982440Y-115318099D02*
X107411011Y-114746670D01*
X106982440Y-114318099D02*
X107553868Y-114889527D01*
X123111011Y-123138099D02*
X123111011Y-122138099D01*
X123111011Y-122138099D02*
X122539583Y-123138099D01*
X122539583Y-123138099D02*
X122539583Y-122138099D01*
X122063392Y-122614289D02*
X121730059Y-122614289D01*
X121587202Y-123138099D02*
X122063392Y-123138099D01*
X122063392Y-123138099D02*
X122063392Y-122138099D01*
X122063392Y-122138099D02*
X121587202Y-122138099D01*
X120682440Y-122138099D02*
X121158630Y-122138099D01*
X121158630Y-122138099D02*
X121206249Y-122614289D01*
X121206249Y-122614289D02*
X121158630Y-122566670D01*
X121158630Y-122566670D02*
X121063392Y-122519051D01*
X121063392Y-122519051D02*
X120825297Y-122519051D01*
X120825297Y-122519051D02*
X120730059Y-122566670D01*
X120730059Y-122566670D02*
X120682440Y-122614289D01*
X120682440Y-122614289D02*
X120634821Y-122709527D01*
X120634821Y-122709527D02*
X120634821Y-122947622D01*
X120634821Y-122947622D02*
X120682440Y-123042860D01*
X120682440Y-123042860D02*
X120730059Y-123090480D01*
X120730059Y-123090480D02*
X120825297Y-123138099D01*
X120825297Y-123138099D02*
X121063392Y-123138099D01*
X121063392Y-123138099D02*
X121158630Y-123090480D01*
X121158630Y-123090480D02*
X121206249Y-123042860D01*
X119730059Y-122138099D02*
X120206249Y-122138099D01*
X120206249Y-122138099D02*
X120253868Y-122614289D01*
X120253868Y-122614289D02*
X120206249Y-122566670D01*
X120206249Y-122566670D02*
X120111011Y-122519051D01*
X120111011Y-122519051D02*
X119872916Y-122519051D01*
X119872916Y-122519051D02*
X119777678Y-122566670D01*
X119777678Y-122566670D02*
X119730059Y-122614289D01*
X119730059Y-122614289D02*
X119682440Y-122709527D01*
X119682440Y-122709527D02*
X119682440Y-122947622D01*
X119682440Y-122947622D02*
X119730059Y-123042860D01*
X119730059Y-123042860D02*
X119777678Y-123090480D01*
X119777678Y-123090480D02*
X119872916Y-123138099D01*
X119872916Y-123138099D02*
X120111011Y-123138099D01*
X120111011Y-123138099D02*
X120206249Y-123090480D01*
X120206249Y-123090480D02*
X120253868Y-123042860D01*
X118777678Y-122138099D02*
X119253868Y-122138099D01*
X119253868Y-122138099D02*
X119301487Y-122614289D01*
X119301487Y-122614289D02*
X119253868Y-122566670D01*
X119253868Y-122566670D02*
X119158630Y-122519051D01*
X119158630Y-122519051D02*
X118920535Y-122519051D01*
X118920535Y-122519051D02*
X118825297Y-122566670D01*
X118825297Y-122566670D02*
X118777678Y-122614289D01*
X118777678Y-122614289D02*
X118730059Y-122709527D01*
X118730059Y-122709527D02*
X118730059Y-122947622D01*
X118730059Y-122947622D02*
X118777678Y-123042860D01*
X118777678Y-123042860D02*
X118825297Y-123090480D01*
X118825297Y-123090480D02*
X118920535Y-123138099D01*
X118920535Y-123138099D02*
X119158630Y-123138099D01*
X119158630Y-123138099D02*
X119253868Y-123090480D01*
X119253868Y-123090480D02*
X119301487Y-123042860D01*
X118301487Y-123138099D02*
X118301487Y-122138099D01*
X118301487Y-122138099D02*
X117920535Y-122138099D01*
X117920535Y-122138099D02*
X117825297Y-122185718D01*
X117825297Y-122185718D02*
X117777678Y-122233337D01*
X117777678Y-122233337D02*
X117730059Y-122328575D01*
X117730059Y-122328575D02*
X117730059Y-122471432D01*
X117730059Y-122471432D02*
X117777678Y-122566670D01*
X117777678Y-122566670D02*
X117825297Y-122614289D01*
X117825297Y-122614289D02*
X117920535Y-122661908D01*
X117920535Y-122661908D02*
X118301487Y-122661908D01*
X100111011Y-131438099D02*
X100444344Y-130961908D01*
X100682439Y-131438099D02*
X100682439Y-130438099D01*
X100682439Y-130438099D02*
X100301487Y-130438099D01*
X100301487Y-130438099D02*
X100206249Y-130485718D01*
X100206249Y-130485718D02*
X100158630Y-130533337D01*
X100158630Y-130533337D02*
X100111011Y-130628575D01*
X100111011Y-130628575D02*
X100111011Y-130771432D01*
X100111011Y-130771432D02*
X100158630Y-130866670D01*
X100158630Y-130866670D02*
X100206249Y-130914289D01*
X100206249Y-130914289D02*
X100301487Y-130961908D01*
X100301487Y-130961908D02*
X100682439Y-130961908D01*
X99777677Y-130438099D02*
X99158630Y-130438099D01*
X99158630Y-130438099D02*
X99491963Y-130819051D01*
X99491963Y-130819051D02*
X99349106Y-130819051D01*
X99349106Y-130819051D02*
X99253868Y-130866670D01*
X99253868Y-130866670D02*
X99206249Y-130914289D01*
X99206249Y-130914289D02*
X99158630Y-131009527D01*
X99158630Y-131009527D02*
X99158630Y-131247622D01*
X99158630Y-131247622D02*
X99206249Y-131342860D01*
X99206249Y-131342860D02*
X99253868Y-131390480D01*
X99253868Y-131390480D02*
X99349106Y-131438099D01*
X99349106Y-131438099D02*
X99634820Y-131438099D01*
X99634820Y-131438099D02*
X99730058Y-131390480D01*
X99730058Y-131390480D02*
X99777677Y-131342860D01*
X109744344Y-130238099D02*
X110220534Y-130238099D01*
X110220534Y-130238099D02*
X110268153Y-130714289D01*
X110268153Y-130714289D02*
X110220534Y-130666670D01*
X110220534Y-130666670D02*
X110125296Y-130619051D01*
X110125296Y-130619051D02*
X109887201Y-130619051D01*
X109887201Y-130619051D02*
X109791963Y-130666670D01*
X109791963Y-130666670D02*
X109744344Y-130714289D01*
X109744344Y-130714289D02*
X109696725Y-130809527D01*
X109696725Y-130809527D02*
X109696725Y-131047622D01*
X109696725Y-131047622D02*
X109744344Y-131142860D01*
X109744344Y-131142860D02*
X109791963Y-131190480D01*
X109791963Y-131190480D02*
X109887201Y-131238099D01*
X109887201Y-131238099D02*
X110125296Y-131238099D01*
X110125296Y-131238099D02*
X110220534Y-131190480D01*
X110220534Y-131190480D02*
X110268153Y-131142860D01*
X108839582Y-130238099D02*
X109030058Y-130238099D01*
X109030058Y-130238099D02*
X109125296Y-130285718D01*
X109125296Y-130285718D02*
X109172915Y-130333337D01*
X109172915Y-130333337D02*
X109268153Y-130476194D01*
X109268153Y-130476194D02*
X109315772Y-130666670D01*
X109315772Y-130666670D02*
X109315772Y-131047622D01*
X109315772Y-131047622D02*
X109268153Y-131142860D01*
X109268153Y-131142860D02*
X109220534Y-131190480D01*
X109220534Y-131190480D02*
X109125296Y-131238099D01*
X109125296Y-131238099D02*
X108934820Y-131238099D01*
X108934820Y-131238099D02*
X108839582Y-131190480D01*
X108839582Y-131190480D02*
X108791963Y-131142860D01*
X108791963Y-131142860D02*
X108744344Y-131047622D01*
X108744344Y-131047622D02*
X108744344Y-130809527D01*
X108744344Y-130809527D02*
X108791963Y-130714289D01*
X108791963Y-130714289D02*
X108839582Y-130666670D01*
X108839582Y-130666670D02*
X108934820Y-130619051D01*
X108934820Y-130619051D02*
X109125296Y-130619051D01*
X109125296Y-130619051D02*
X109220534Y-130666670D01*
X109220534Y-130666670D02*
X109268153Y-130714289D01*
X109268153Y-130714289D02*
X109315772Y-130809527D01*
X108125296Y-130238099D02*
X108030058Y-130238099D01*
X108030058Y-130238099D02*
X107934820Y-130285718D01*
X107934820Y-130285718D02*
X107887201Y-130333337D01*
X107887201Y-130333337D02*
X107839582Y-130428575D01*
X107839582Y-130428575D02*
X107791963Y-130619051D01*
X107791963Y-130619051D02*
X107791963Y-130857146D01*
X107791963Y-130857146D02*
X107839582Y-131047622D01*
X107839582Y-131047622D02*
X107887201Y-131142860D01*
X107887201Y-131142860D02*
X107934820Y-131190480D01*
X107934820Y-131190480D02*
X108030058Y-131238099D01*
X108030058Y-131238099D02*
X108125296Y-131238099D01*
X108125296Y-131238099D02*
X108220534Y-131190480D01*
X108220534Y-131190480D02*
X108268153Y-131142860D01*
X108268153Y-131142860D02*
X108315772Y-131047622D01*
X108315772Y-131047622D02*
X108363391Y-130857146D01*
X108363391Y-130857146D02*
X108363391Y-130619051D01*
X108363391Y-130619051D02*
X108315772Y-130428575D01*
X108315772Y-130428575D02*
X108268153Y-130333337D01*
X108268153Y-130333337D02*
X108220534Y-130285718D01*
X108220534Y-130285718D02*
X108125296Y-130238099D01*
X107363391Y-131238099D02*
X107363391Y-130238099D01*
X107268153Y-130857146D02*
X106982439Y-131238099D01*
X106982439Y-130571432D02*
X107363391Y-130952384D01*
X100011011Y-119438099D02*
X100344344Y-118961908D01*
X100582439Y-119438099D02*
X100582439Y-118438099D01*
X100582439Y-118438099D02*
X100201487Y-118438099D01*
X100201487Y-118438099D02*
X100106249Y-118485718D01*
X100106249Y-118485718D02*
X100058630Y-118533337D01*
X100058630Y-118533337D02*
X100011011Y-118628575D01*
X100011011Y-118628575D02*
X100011011Y-118771432D01*
X100011011Y-118771432D02*
X100058630Y-118866670D01*
X100058630Y-118866670D02*
X100106249Y-118914289D01*
X100106249Y-118914289D02*
X100201487Y-118961908D01*
X100201487Y-118961908D02*
X100582439Y-118961908D01*
X99153868Y-118438099D02*
X99344344Y-118438099D01*
X99344344Y-118438099D02*
X99439582Y-118485718D01*
X99439582Y-118485718D02*
X99487201Y-118533337D01*
X99487201Y-118533337D02*
X99582439Y-118676194D01*
X99582439Y-118676194D02*
X99630058Y-118866670D01*
X99630058Y-118866670D02*
X99630058Y-119247622D01*
X99630058Y-119247622D02*
X99582439Y-119342860D01*
X99582439Y-119342860D02*
X99534820Y-119390480D01*
X99534820Y-119390480D02*
X99439582Y-119438099D01*
X99439582Y-119438099D02*
X99249106Y-119438099D01*
X99249106Y-119438099D02*
X99153868Y-119390480D01*
X99153868Y-119390480D02*
X99106249Y-119342860D01*
X99106249Y-119342860D02*
X99058630Y-119247622D01*
X99058630Y-119247622D02*
X99058630Y-119009527D01*
X99058630Y-119009527D02*
X99106249Y-118914289D01*
X99106249Y-118914289D02*
X99153868Y-118866670D01*
X99153868Y-118866670D02*
X99249106Y-118819051D01*
X99249106Y-118819051D02*
X99439582Y-118819051D01*
X99439582Y-118819051D02*
X99534820Y-118866670D01*
X99534820Y-118866670D02*
X99582439Y-118914289D01*
X99582439Y-118914289D02*
X99630058Y-119009527D01*
X108934821Y-119298099D02*
X109506249Y-119298099D01*
X109220535Y-119298099D02*
X109220535Y-118298099D01*
X109220535Y-118298099D02*
X109315773Y-118440956D01*
X109315773Y-118440956D02*
X109411011Y-118536194D01*
X109411011Y-118536194D02*
X109506249Y-118583813D01*
X108315773Y-118298099D02*
X108220535Y-118298099D01*
X108220535Y-118298099D02*
X108125297Y-118345718D01*
X108125297Y-118345718D02*
X108077678Y-118393337D01*
X108077678Y-118393337D02*
X108030059Y-118488575D01*
X108030059Y-118488575D02*
X107982440Y-118679051D01*
X107982440Y-118679051D02*
X107982440Y-118917146D01*
X107982440Y-118917146D02*
X108030059Y-119107622D01*
X108030059Y-119107622D02*
X108077678Y-119202860D01*
X108077678Y-119202860D02*
X108125297Y-119250480D01*
X108125297Y-119250480D02*
X108220535Y-119298099D01*
X108220535Y-119298099D02*
X108315773Y-119298099D01*
X108315773Y-119298099D02*
X108411011Y-119250480D01*
X108411011Y-119250480D02*
X108458630Y-119202860D01*
X108458630Y-119202860D02*
X108506249Y-119107622D01*
X108506249Y-119107622D02*
X108553868Y-118917146D01*
X108553868Y-118917146D02*
X108553868Y-118679051D01*
X108553868Y-118679051D02*
X108506249Y-118488575D01*
X108506249Y-118488575D02*
X108458630Y-118393337D01*
X108458630Y-118393337D02*
X108411011Y-118345718D01*
X108411011Y-118345718D02*
X108315773Y-118298099D01*
X106982440Y-119298099D02*
X107315773Y-118821908D01*
X107553868Y-119298099D02*
X107553868Y-118298099D01*
X107553868Y-118298099D02*
X107172916Y-118298099D01*
X107172916Y-118298099D02*
X107077678Y-118345718D01*
X107077678Y-118345718D02*
X107030059Y-118393337D01*
X107030059Y-118393337D02*
X106982440Y-118488575D01*
X106982440Y-118488575D02*
X106982440Y-118631432D01*
X106982440Y-118631432D02*
X107030059Y-118726670D01*
X107030059Y-118726670D02*
X107077678Y-118774289D01*
X107077678Y-118774289D02*
X107172916Y-118821908D01*
X107172916Y-118821908D02*
X107553868Y-118821908D01*
X100111011Y-127338099D02*
X100444344Y-126861908D01*
X100682439Y-127338099D02*
X100682439Y-126338099D01*
X100682439Y-126338099D02*
X100301487Y-126338099D01*
X100301487Y-126338099D02*
X100206249Y-126385718D01*
X100206249Y-126385718D02*
X100158630Y-126433337D01*
X100158630Y-126433337D02*
X100111011Y-126528575D01*
X100111011Y-126528575D02*
X100111011Y-126671432D01*
X100111011Y-126671432D02*
X100158630Y-126766670D01*
X100158630Y-126766670D02*
X100206249Y-126814289D01*
X100206249Y-126814289D02*
X100301487Y-126861908D01*
X100301487Y-126861908D02*
X100682439Y-126861908D01*
X99253868Y-126671432D02*
X99253868Y-127338099D01*
X99491963Y-126290480D02*
X99730058Y-127004765D01*
X99730058Y-127004765D02*
X99111011Y-127004765D01*
X110315772Y-126258099D02*
X109696725Y-126258099D01*
X109696725Y-126258099D02*
X110030058Y-126639051D01*
X110030058Y-126639051D02*
X109887201Y-126639051D01*
X109887201Y-126639051D02*
X109791963Y-126686670D01*
X109791963Y-126686670D02*
X109744344Y-126734289D01*
X109744344Y-126734289D02*
X109696725Y-126829527D01*
X109696725Y-126829527D02*
X109696725Y-127067622D01*
X109696725Y-127067622D02*
X109744344Y-127162860D01*
X109744344Y-127162860D02*
X109791963Y-127210480D01*
X109791963Y-127210480D02*
X109887201Y-127258099D01*
X109887201Y-127258099D02*
X110172915Y-127258099D01*
X110172915Y-127258099D02*
X110268153Y-127210480D01*
X110268153Y-127210480D02*
X110315772Y-127162860D01*
X109220534Y-127258099D02*
X109030058Y-127258099D01*
X109030058Y-127258099D02*
X108934820Y-127210480D01*
X108934820Y-127210480D02*
X108887201Y-127162860D01*
X108887201Y-127162860D02*
X108791963Y-127020003D01*
X108791963Y-127020003D02*
X108744344Y-126829527D01*
X108744344Y-126829527D02*
X108744344Y-126448575D01*
X108744344Y-126448575D02*
X108791963Y-126353337D01*
X108791963Y-126353337D02*
X108839582Y-126305718D01*
X108839582Y-126305718D02*
X108934820Y-126258099D01*
X108934820Y-126258099D02*
X109125296Y-126258099D01*
X109125296Y-126258099D02*
X109220534Y-126305718D01*
X109220534Y-126305718D02*
X109268153Y-126353337D01*
X109268153Y-126353337D02*
X109315772Y-126448575D01*
X109315772Y-126448575D02*
X109315772Y-126686670D01*
X109315772Y-126686670D02*
X109268153Y-126781908D01*
X109268153Y-126781908D02*
X109220534Y-126829527D01*
X109220534Y-126829527D02*
X109125296Y-126877146D01*
X109125296Y-126877146D02*
X108934820Y-126877146D01*
X108934820Y-126877146D02*
X108839582Y-126829527D01*
X108839582Y-126829527D02*
X108791963Y-126781908D01*
X108791963Y-126781908D02*
X108744344Y-126686670D01*
X108125296Y-126258099D02*
X108030058Y-126258099D01*
X108030058Y-126258099D02*
X107934820Y-126305718D01*
X107934820Y-126305718D02*
X107887201Y-126353337D01*
X107887201Y-126353337D02*
X107839582Y-126448575D01*
X107839582Y-126448575D02*
X107791963Y-126639051D01*
X107791963Y-126639051D02*
X107791963Y-126877146D01*
X107791963Y-126877146D02*
X107839582Y-127067622D01*
X107839582Y-127067622D02*
X107887201Y-127162860D01*
X107887201Y-127162860D02*
X107934820Y-127210480D01*
X107934820Y-127210480D02*
X108030058Y-127258099D01*
X108030058Y-127258099D02*
X108125296Y-127258099D01*
X108125296Y-127258099D02*
X108220534Y-127210480D01*
X108220534Y-127210480D02*
X108268153Y-127162860D01*
X108268153Y-127162860D02*
X108315772Y-127067622D01*
X108315772Y-127067622D02*
X108363391Y-126877146D01*
X108363391Y-126877146D02*
X108363391Y-126639051D01*
X108363391Y-126639051D02*
X108315772Y-126448575D01*
X108315772Y-126448575D02*
X108268153Y-126353337D01*
X108268153Y-126353337D02*
X108220534Y-126305718D01*
X108220534Y-126305718D02*
X108125296Y-126258099D01*
X107363391Y-127258099D02*
X107363391Y-126258099D01*
X107268153Y-126877146D02*
X106982439Y-127258099D01*
X106982439Y-126591432D02*
X107363391Y-126972384D01*
X142106249Y-114238099D02*
X141534821Y-114238099D01*
X141820535Y-115238099D02*
X141820535Y-114238099D01*
X141249106Y-114333337D02*
X141201487Y-114285718D01*
X141201487Y-114285718D02*
X141106249Y-114238099D01*
X141106249Y-114238099D02*
X140868154Y-114238099D01*
X140868154Y-114238099D02*
X140772916Y-114285718D01*
X140772916Y-114285718D02*
X140725297Y-114333337D01*
X140725297Y-114333337D02*
X140677678Y-114428575D01*
X140677678Y-114428575D02*
X140677678Y-114523813D01*
X140677678Y-114523813D02*
X140725297Y-114666670D01*
X140725297Y-114666670D02*
X141296725Y-115238099D01*
X141296725Y-115238099D02*
X140677678Y-115238099D01*
X142506249Y-106838099D02*
X141934821Y-106838099D01*
X142220535Y-107838099D02*
X142220535Y-106838099D01*
X141077678Y-107838099D02*
X141649106Y-107838099D01*
X141363392Y-107838099D02*
X141363392Y-106838099D01*
X141363392Y-106838099D02*
X141458630Y-106980956D01*
X141458630Y-106980956D02*
X141553868Y-107076194D01*
X141553868Y-107076194D02*
X141649106Y-107123813D01*
X100011011Y-123438099D02*
X100344344Y-122961908D01*
X100582439Y-123438099D02*
X100582439Y-122438099D01*
X100582439Y-122438099D02*
X100201487Y-122438099D01*
X100201487Y-122438099D02*
X100106249Y-122485718D01*
X100106249Y-122485718D02*
X100058630Y-122533337D01*
X100058630Y-122533337D02*
X100011011Y-122628575D01*
X100011011Y-122628575D02*
X100011011Y-122771432D01*
X100011011Y-122771432D02*
X100058630Y-122866670D01*
X100058630Y-122866670D02*
X100106249Y-122914289D01*
X100106249Y-122914289D02*
X100201487Y-122961908D01*
X100201487Y-122961908D02*
X100582439Y-122961908D01*
X99106249Y-122438099D02*
X99582439Y-122438099D01*
X99582439Y-122438099D02*
X99630058Y-122914289D01*
X99630058Y-122914289D02*
X99582439Y-122866670D01*
X99582439Y-122866670D02*
X99487201Y-122819051D01*
X99487201Y-122819051D02*
X99249106Y-122819051D01*
X99249106Y-122819051D02*
X99153868Y-122866670D01*
X99153868Y-122866670D02*
X99106249Y-122914289D01*
X99106249Y-122914289D02*
X99058630Y-123009527D01*
X99058630Y-123009527D02*
X99058630Y-123247622D01*
X99058630Y-123247622D02*
X99106249Y-123342860D01*
X99106249Y-123342860D02*
X99153868Y-123390480D01*
X99153868Y-123390480D02*
X99249106Y-123438099D01*
X99249106Y-123438099D02*
X99487201Y-123438099D01*
X99487201Y-123438099D02*
X99582439Y-123390480D01*
X99582439Y-123390480D02*
X99630058Y-123342860D01*
X108839583Y-122611432D02*
X108839583Y-123278099D01*
X109077678Y-122230480D02*
X109315773Y-122944765D01*
X109315773Y-122944765D02*
X108696726Y-122944765D01*
X108315773Y-123278099D02*
X108315773Y-122278099D01*
X108220535Y-122897146D02*
X107934821Y-123278099D01*
X107934821Y-122611432D02*
X108315773Y-122992384D01*
X107601487Y-122278099D02*
X106934821Y-122278099D01*
X106934821Y-122278099D02*
X107363392Y-123278099D01*
X149161011Y-122171432D02*
X149161011Y-122838099D01*
X149399106Y-121790480D02*
X149637201Y-122504765D01*
X149637201Y-122504765D02*
X149018154Y-122504765D01*
X148732439Y-121838099D02*
X148065773Y-121838099D01*
X148065773Y-121838099D02*
X148494344Y-122838099D01*
X147256249Y-122171432D02*
X147256249Y-122838099D01*
X147684820Y-122171432D02*
X147684820Y-122695241D01*
X147684820Y-122695241D02*
X147637201Y-122790480D01*
X147637201Y-122790480D02*
X147541963Y-122838099D01*
X147541963Y-122838099D02*
X147399106Y-122838099D01*
X147399106Y-122838099D02*
X147303868Y-122790480D01*
X147303868Y-122790480D02*
X147256249Y-122742860D01*
X146446725Y-122314289D02*
X146780058Y-122314289D01*
X146780058Y-122838099D02*
X146780058Y-121838099D01*
X146780058Y-121838099D02*
X146303868Y-121838099D01*
X122387202Y-106718099D02*
X122958630Y-106718099D01*
X122672916Y-106718099D02*
X122672916Y-105718099D01*
X122672916Y-105718099D02*
X122768154Y-105860956D01*
X122768154Y-105860956D02*
X122863392Y-105956194D01*
X122863392Y-105956194D02*
X122958630Y-106003813D01*
X121958630Y-106718099D02*
X121958630Y-105718099D01*
X121958630Y-105718099D02*
X121387202Y-106718099D01*
X121387202Y-106718099D02*
X121387202Y-105718099D01*
X120482440Y-106051432D02*
X120482440Y-106718099D01*
X120720535Y-105670480D02*
X120958630Y-106384765D01*
X120958630Y-106384765D02*
X120339583Y-106384765D01*
X119434821Y-106718099D02*
X120006249Y-106718099D01*
X119720535Y-106718099D02*
X119720535Y-105718099D01*
X119720535Y-105718099D02*
X119815773Y-105860956D01*
X119815773Y-105860956D02*
X119911011Y-105956194D01*
X119911011Y-105956194D02*
X120006249Y-106003813D01*
X118577678Y-106051432D02*
X118577678Y-106718099D01*
X118815773Y-105670480D02*
X119053868Y-106384765D01*
X119053868Y-106384765D02*
X118434821Y-106384765D01*
X117911011Y-106146670D02*
X118006249Y-106099051D01*
X118006249Y-106099051D02*
X118053868Y-106051432D01*
X118053868Y-106051432D02*
X118101487Y-105956194D01*
X118101487Y-105956194D02*
X118101487Y-105908575D01*
X118101487Y-105908575D02*
X118053868Y-105813337D01*
X118053868Y-105813337D02*
X118006249Y-105765718D01*
X118006249Y-105765718D02*
X117911011Y-105718099D01*
X117911011Y-105718099D02*
X117720535Y-105718099D01*
X117720535Y-105718099D02*
X117625297Y-105765718D01*
X117625297Y-105765718D02*
X117577678Y-105813337D01*
X117577678Y-105813337D02*
X117530059Y-105908575D01*
X117530059Y-105908575D02*
X117530059Y-105956194D01*
X117530059Y-105956194D02*
X117577678Y-106051432D01*
X117577678Y-106051432D02*
X117625297Y-106099051D01*
X117625297Y-106099051D02*
X117720535Y-106146670D01*
X117720535Y-106146670D02*
X117911011Y-106146670D01*
X117911011Y-106146670D02*
X118006249Y-106194289D01*
X118006249Y-106194289D02*
X118053868Y-106241908D01*
X118053868Y-106241908D02*
X118101487Y-106337146D01*
X118101487Y-106337146D02*
X118101487Y-106527622D01*
X118101487Y-106527622D02*
X118053868Y-106622860D01*
X118053868Y-106622860D02*
X118006249Y-106670480D01*
X118006249Y-106670480D02*
X117911011Y-106718099D01*
X117911011Y-106718099D02*
X117720535Y-106718099D01*
X117720535Y-106718099D02*
X117625297Y-106670480D01*
X117625297Y-106670480D02*
X117577678Y-106622860D01*
X117577678Y-106622860D02*
X117530059Y-106527622D01*
X117530059Y-106527622D02*
X117530059Y-106337146D01*
X117530059Y-106337146D02*
X117577678Y-106241908D01*
X117577678Y-106241908D02*
X117625297Y-106194289D01*
X117625297Y-106194289D02*
X117720535Y-106146670D01*
X114306249Y-108838099D02*
X114306249Y-107838099D01*
X113734821Y-108838099D02*
X114163392Y-108266670D01*
X113734821Y-107838099D02*
X114306249Y-108409527D01*
D12*
%TO.C,S1*%
X141613945Y-122394080D02*
X141613945Y-132350880D01*
X141613945Y-132350880D02*
X145550945Y-132376280D01*
X145550945Y-122394080D02*
X141613945Y-122394080D01*
X145550945Y-132350880D02*
X145550945Y-122394080D01*
%TO.C,R1off1*%
X95804345Y-110783280D02*
X96574345Y-110783280D01*
X103884345Y-110783280D02*
X103114345Y-110783280D01*
X96574345Y-112153280D02*
X103114345Y-112153280D01*
X103114345Y-109413280D01*
X96574345Y-109413280D01*
X96574345Y-112153280D01*
%TO.C,R7*%
X95804345Y-114833280D02*
X96574345Y-114833280D01*
X103884345Y-114833280D02*
X103114345Y-114833280D01*
X96574345Y-116203280D02*
X103114345Y-116203280D01*
X103114345Y-113463280D01*
X96574345Y-113463280D01*
X96574345Y-116203280D01*
%TO.C,U1*%
X117604345Y-110873280D02*
X122904345Y-110873280D01*
X117604345Y-121153280D02*
X117604345Y-110873280D01*
X119254345Y-121153280D02*
X117604345Y-121153280D01*
X122904345Y-110873280D02*
X122904345Y-121153280D01*
X122904345Y-121153280D02*
X121254345Y-121153280D01*
X119254345Y-121153280D02*
G75*
G02*
X121254345Y-121153280I1000000J0D01*
G01*
%TO.C,R3*%
X95804345Y-131033280D02*
X96574345Y-131033280D01*
X103884345Y-131033280D02*
X103114345Y-131033280D01*
X96574345Y-132403280D02*
X103114345Y-132403280D01*
X103114345Y-129663280D01*
X96574345Y-129663280D01*
X96574345Y-132403280D01*
%TO.C,R6*%
X95804345Y-118883280D02*
X96574345Y-118883280D01*
X103884345Y-118883280D02*
X103114345Y-118883280D01*
X96574345Y-120253280D02*
X103114345Y-120253280D01*
X103114345Y-117513280D01*
X96574345Y-117513280D01*
X96574345Y-120253280D01*
%TO.C,R4*%
X95804345Y-126983280D02*
X96574345Y-126983280D01*
X103884345Y-126983280D02*
X103114345Y-126983280D01*
X96574345Y-128353280D02*
X103114345Y-128353280D01*
X103114345Y-125613280D01*
X96574345Y-125613280D01*
X96574345Y-128353280D01*
D11*
%TO.C,G\u002A\u002A\u002A*%
X111769345Y-81033280D02*
X112344345Y-81508280D01*
X112344345Y-81508280D02*
X112769345Y-81183280D01*
X112769345Y-81183280D02*
X111769345Y-81033280D01*
D12*
X113094345Y-82621885D02*
X113994345Y-82608280D01*
X113494344Y-84003330D02*
X113094344Y-84003330D01*
X113494345Y-83008280D02*
X113244345Y-83008280D01*
X113494345Y-83058280D02*
X113494345Y-83508280D01*
X113494345Y-83508280D02*
X113194345Y-83508280D01*
X113494345Y-84008280D02*
X113494345Y-84508280D01*
X113494345Y-84508280D02*
X113044345Y-84508280D01*
D11*
X113719345Y-80308280D02*
X114069345Y-79133280D01*
D12*
X113994345Y-82608280D02*
X114044345Y-85058280D01*
X114044345Y-85058280D02*
X112844345Y-85058280D01*
D11*
X114069345Y-79133280D02*
X115869345Y-79183280D01*
D12*
X114319345Y-85058280D02*
X115094345Y-82608280D01*
X114719345Y-85058280D02*
X114319345Y-85058280D01*
X114969345Y-84458280D02*
X114719345Y-85058280D01*
X115044345Y-84058280D02*
X115269345Y-83308280D01*
X115094345Y-82608280D02*
X115419345Y-82608280D01*
X115269345Y-83308280D02*
X115544345Y-84058280D01*
D11*
X115294345Y-81233280D02*
X116969345Y-81333280D01*
D12*
X115419345Y-82608280D02*
X116319345Y-85058280D01*
X115544345Y-84058280D02*
X115044345Y-84058280D01*
X115569345Y-84458280D02*
X114969345Y-84458280D01*
X115819345Y-85058280D02*
X115569345Y-84458280D01*
X115819345Y-85058280D02*
X116319345Y-85058280D01*
D11*
X115869345Y-79183280D02*
X113719345Y-80308280D01*
X115994345Y-80658280D02*
X115294345Y-81233280D01*
D12*
X116494345Y-84583280D02*
X116494345Y-85033280D01*
X116494345Y-85033280D02*
X117744345Y-85033280D01*
D11*
X116994345Y-81333280D02*
X115994345Y-80658280D01*
X117144345Y-80883280D02*
X118769345Y-82008280D01*
X117194345Y-78558280D02*
X118319345Y-79783280D01*
X117219345Y-78158280D02*
X117144345Y-80883280D01*
D12*
X117244345Y-84583280D02*
X116494345Y-84583280D01*
X117269345Y-82583280D02*
X117244345Y-84583280D01*
X117719345Y-82583280D02*
X117269345Y-82583280D01*
X117744345Y-85033280D02*
X117719345Y-82583280D01*
X117919345Y-85033280D02*
X118619345Y-84083280D01*
X118019345Y-85033280D02*
X117919345Y-85033280D01*
D11*
X118319345Y-79783280D02*
X117744345Y-81283280D01*
D12*
X118419345Y-85033280D02*
X118019345Y-85033280D01*
X118660614Y-82577874D02*
X119769345Y-82583280D01*
D11*
X118769345Y-82008280D02*
X120444345Y-81783280D01*
D12*
X118819345Y-83033280D02*
X119269345Y-83033280D01*
X119169345Y-84083280D02*
X118419345Y-85033280D01*
X119269345Y-83033280D02*
X119269345Y-83583280D01*
X119269345Y-83583280D02*
X118769345Y-83583280D01*
X119319345Y-84083280D02*
X119169345Y-84083280D01*
X119319345Y-85033280D02*
X119319345Y-84083280D01*
X119769345Y-82583280D02*
X119769345Y-85033280D01*
X119769345Y-85033280D02*
X119319345Y-85033280D01*
D11*
X119919345Y-82233280D02*
X120894345Y-82583280D01*
D12*
X120219345Y-82583280D02*
X121519345Y-82583280D01*
X120219345Y-83083280D02*
X120219345Y-82583280D01*
X120219345Y-84533280D02*
X121069345Y-84533280D01*
X120219345Y-85033280D02*
X120219345Y-84533280D01*
D11*
X120319345Y-81958280D02*
X119919345Y-82233280D01*
D12*
X120419345Y-83533280D02*
X121069345Y-83533280D01*
X120419345Y-83983280D02*
X120419345Y-83533280D01*
D11*
X120444345Y-81783280D02*
X122269345Y-82683280D01*
X120694345Y-79783280D02*
X117219345Y-78158280D01*
X120694345Y-79783280D02*
X123019345Y-80933280D01*
D12*
X121069345Y-83083280D02*
X120219345Y-83083280D01*
X121069345Y-83533280D02*
X121069345Y-83083280D01*
X121069345Y-83983280D02*
X120419345Y-83983280D01*
X121069345Y-84533280D02*
X121069345Y-83983280D01*
D11*
X121094345Y-82558280D02*
X120319345Y-81958280D01*
X121444345Y-78358280D02*
X120694345Y-79783280D01*
X121444345Y-78358280D02*
X123644345Y-79533280D01*
D12*
X121469345Y-85033280D02*
X120219345Y-85033280D01*
X121519345Y-82583280D02*
X121569345Y-85033280D01*
X121569345Y-85033280D02*
X121469345Y-85033280D01*
X122669345Y-82596885D02*
X123569345Y-82583280D01*
D11*
X123019345Y-80933280D02*
X124494345Y-82658280D01*
X123019345Y-80933280D02*
X128669345Y-83783280D01*
D12*
X123069344Y-83978330D02*
X122669344Y-83978330D01*
X123069345Y-82983280D02*
X122819345Y-82983280D01*
X123069345Y-83033280D02*
X123069345Y-83483280D01*
X123069345Y-83483280D02*
X122769345Y-83483280D01*
X123069345Y-83983280D02*
X123069345Y-84483280D01*
X123069345Y-84483280D02*
X122619345Y-84483280D01*
X123569345Y-82583280D02*
X123619345Y-85033280D01*
X123619345Y-85033280D02*
X122419345Y-85033280D01*
D11*
X123644345Y-79533280D02*
X122069345Y-80433280D01*
X123744345Y-79358280D02*
X123019345Y-80933280D01*
D12*
X124019345Y-83433280D02*
X124019345Y-84133280D01*
D11*
X124319345Y-82758280D02*
X117219345Y-78158280D01*
D12*
X124519345Y-83433280D02*
X124519345Y-84083280D01*
D11*
X124769345Y-79608280D02*
X123019345Y-80933280D01*
X124769345Y-79608280D02*
X123744345Y-79358280D01*
X124844345Y-83683280D02*
X125219345Y-83858280D01*
X125169345Y-83283280D02*
X124844345Y-83683280D01*
D12*
X125219345Y-83433280D02*
X125219345Y-84133280D01*
D11*
X125719345Y-84033280D02*
X126269345Y-84308280D01*
D12*
X125719345Y-84133280D02*
X125719345Y-83433280D01*
D11*
X125769345Y-83308280D02*
X125994345Y-83933280D01*
X125994345Y-83933280D02*
X128669345Y-83783280D01*
X126269345Y-84308280D02*
X125694345Y-83508280D01*
X127344345Y-84258280D02*
X126519345Y-83908280D01*
X128669345Y-83783280D02*
X124769345Y-79608280D01*
X128669345Y-83783280D02*
X125769345Y-83308280D01*
X128669345Y-83783280D02*
X127344345Y-84258280D01*
D12*
X112644346Y-83708279D02*
G75*
G02*
X113094345Y-82621885I449999J449999D01*
G01*
X112844346Y-85058279D02*
G75*
G02*
X112668089Y-83749343I249998J699999D01*
G01*
X113044346Y-84508279D02*
G75*
G02*
X113094344Y-84003330I49999J249999D01*
G01*
X113194345Y-83508280D02*
G75*
G02*
X113254979Y-83015744I0J250000D01*
G01*
X118644346Y-84033279D02*
G75*
G02*
X118660614Y-82577874I249999J724999D01*
G01*
X118769346Y-83583279D02*
G75*
G02*
X118769346Y-83033281I124999J274999D01*
G01*
X122219346Y-83683279D02*
G75*
G02*
X122669345Y-82596885I449999J449999D01*
G01*
X122419346Y-85033279D02*
G75*
G02*
X122243089Y-83724343I249998J699999D01*
G01*
X122619346Y-84483279D02*
G75*
G02*
X122669344Y-83978330I49999J249999D01*
G01*
X122769345Y-83483280D02*
G75*
G02*
X122829979Y-82990744I0J250000D01*
G01*
X124019345Y-83433280D02*
G75*
G02*
X125719345Y-83433280I850000J0D01*
G01*
X124519345Y-83433280D02*
G75*
G02*
X125219345Y-83433280I350000J0D01*
G01*
X125219345Y-84133280D02*
G75*
G02*
X124519345Y-84133280I-350000J0D01*
G01*
X125719345Y-84133280D02*
G75*
G02*
X124019345Y-84133280I-850000J0D01*
G01*
D13*
X134216706Y-138028506D02*
X134152887Y-138092325D01*
X134089068Y-138028506D01*
X134152887Y-137964687D01*
X134216706Y-138028506D01*
G36*
X134216706Y-138028506D02*
G01*
X134152887Y-138092325D01*
X134089068Y-138028506D01*
X134152887Y-137964687D01*
X134216706Y-138028506D01*
G37*
D12*
%TO.C,R5*%
X95804345Y-122933280D02*
X96574345Y-122933280D01*
X103884345Y-122933280D02*
X103114345Y-122933280D01*
X96574345Y-124303280D02*
X103114345Y-124303280D01*
X103114345Y-121563280D01*
X96574345Y-121563280D01*
X96574345Y-124303280D01*
%TO.C,47uF*%
X143729345Y-118008280D02*
X144359345Y-118008280D01*
X144044345Y-118323280D02*
X144044345Y-117693280D01*
X147994345Y-121213280D02*
X147994345Y-114753280D01*
X148034345Y-121213280D02*
X148034345Y-114753280D01*
X148074345Y-121213280D02*
X148074345Y-114753280D01*
X148114345Y-121211280D02*
X148114345Y-114755280D01*
X148154345Y-121210280D02*
X148154345Y-114756280D01*
X148194345Y-121207280D02*
X148194345Y-114759280D01*
X148234345Y-116943280D02*
X148234345Y-114761280D01*
X148234345Y-121205280D02*
X148234345Y-119023280D01*
X148274345Y-116943280D02*
X148274345Y-114765280D01*
X148274345Y-121201280D02*
X148274345Y-119023280D01*
X148314345Y-116943280D02*
X148314345Y-114768280D01*
X148314345Y-121198280D02*
X148314345Y-119023280D01*
X148354345Y-116943280D02*
X148354345Y-114772280D01*
X148354345Y-121194280D02*
X148354345Y-119023280D01*
X148394345Y-116943280D02*
X148394345Y-114777280D01*
X148394345Y-121189280D02*
X148394345Y-119023280D01*
X148434345Y-116943280D02*
X148434345Y-114782280D01*
X148434345Y-121184280D02*
X148434345Y-119023280D01*
X148474345Y-116943280D02*
X148474345Y-114788280D01*
X148474345Y-121178280D02*
X148474345Y-119023280D01*
X148514345Y-116943280D02*
X148514345Y-114794280D01*
X148514345Y-121172280D02*
X148514345Y-119023280D01*
X148554345Y-116943280D02*
X148554345Y-114801280D01*
X148554345Y-121165280D02*
X148554345Y-119023280D01*
X148594345Y-116943280D02*
X148594345Y-114808280D01*
X148594345Y-121158280D02*
X148594345Y-119023280D01*
X148634345Y-116943280D02*
X148634345Y-114816280D01*
X148634345Y-121150280D02*
X148634345Y-119023280D01*
X148674345Y-116943280D02*
X148674345Y-114824280D01*
X148674345Y-121142280D02*
X148674345Y-119023280D01*
X148715345Y-116943280D02*
X148715345Y-114833280D01*
X148715345Y-121133280D02*
X148715345Y-119023280D01*
X148755345Y-116943280D02*
X148755345Y-114842280D01*
X148755345Y-121124280D02*
X148755345Y-119023280D01*
X148795345Y-116943280D02*
X148795345Y-114852280D01*
X148795345Y-121114280D02*
X148795345Y-119023280D01*
X148835345Y-116943280D02*
X148835345Y-114862280D01*
X148835345Y-121104280D02*
X148835345Y-119023280D01*
X148875345Y-116943280D02*
X148875345Y-114873280D01*
X148875345Y-121093280D02*
X148875345Y-119023280D01*
X148915345Y-116943280D02*
X148915345Y-114885280D01*
X148915345Y-121081280D02*
X148915345Y-119023280D01*
X148955345Y-116943280D02*
X148955345Y-114897280D01*
X148955345Y-121069280D02*
X148955345Y-119023280D01*
X148995345Y-116943280D02*
X148995345Y-114909280D01*
X148995345Y-121057280D02*
X148995345Y-119023280D01*
X149035345Y-116943280D02*
X149035345Y-114922280D01*
X149035345Y-121044280D02*
X149035345Y-119023280D01*
X149075345Y-116943280D02*
X149075345Y-114936280D01*
X149075345Y-121030280D02*
X149075345Y-119023280D01*
X149115345Y-116943280D02*
X149115345Y-114950280D01*
X149115345Y-121016280D02*
X149115345Y-119023280D01*
X149155345Y-116943280D02*
X149155345Y-114965280D01*
X149155345Y-121001280D02*
X149155345Y-119023280D01*
X149195345Y-116943280D02*
X149195345Y-114981280D01*
X149195345Y-120985280D02*
X149195345Y-119023280D01*
X149235345Y-116943280D02*
X149235345Y-114997280D01*
X149235345Y-120969280D02*
X149235345Y-119023280D01*
X149275345Y-116943280D02*
X149275345Y-115013280D01*
X149275345Y-120953280D02*
X149275345Y-119023280D01*
X149315345Y-116943280D02*
X149315345Y-115031280D01*
X149315345Y-120935280D02*
X149315345Y-119023280D01*
X149355345Y-116943280D02*
X149355345Y-115049280D01*
X149355345Y-120917280D02*
X149355345Y-119023280D01*
X149395345Y-116943280D02*
X149395345Y-115067280D01*
X149395345Y-120899280D02*
X149395345Y-119023280D01*
X149435345Y-116943280D02*
X149435345Y-115087280D01*
X149435345Y-120879280D02*
X149435345Y-119023280D01*
X149475345Y-116943280D02*
X149475345Y-115107280D01*
X149475345Y-120859280D02*
X149475345Y-119023280D01*
X149515345Y-116943280D02*
X149515345Y-115127280D01*
X149515345Y-120839280D02*
X149515345Y-119023280D01*
X149555345Y-116943280D02*
X149555345Y-115149280D01*
X149555345Y-120817280D02*
X149555345Y-119023280D01*
X149595345Y-116943280D02*
X149595345Y-115171280D01*
X149595345Y-120795280D02*
X149595345Y-119023280D01*
X149635345Y-116943280D02*
X149635345Y-115193280D01*
X149635345Y-120773280D02*
X149635345Y-119023280D01*
X149675345Y-116943280D02*
X149675345Y-115217280D01*
X149675345Y-120749280D02*
X149675345Y-119023280D01*
X149715345Y-116943280D02*
X149715345Y-115241280D01*
X149715345Y-120725280D02*
X149715345Y-119023280D01*
X149755345Y-116943280D02*
X149755345Y-115267280D01*
X149755345Y-120699280D02*
X149755345Y-119023280D01*
X149795345Y-116943280D02*
X149795345Y-115293280D01*
X149795345Y-120673280D02*
X149795345Y-119023280D01*
X149835345Y-116943280D02*
X149835345Y-115319280D01*
X149835345Y-120647280D02*
X149835345Y-119023280D01*
X149875345Y-116943280D02*
X149875345Y-115347280D01*
X149875345Y-120619280D02*
X149875345Y-119023280D01*
X149915345Y-116943280D02*
X149915345Y-115376280D01*
X149915345Y-120590280D02*
X149915345Y-119023280D01*
X149955345Y-116943280D02*
X149955345Y-115405280D01*
X149955345Y-120561280D02*
X149955345Y-119023280D01*
X149995345Y-116943280D02*
X149995345Y-115435280D01*
X149995345Y-120531280D02*
X149995345Y-119023280D01*
X150035345Y-116943280D02*
X150035345Y-115467280D01*
X150035345Y-120499280D02*
X150035345Y-119023280D01*
X150075345Y-116943280D02*
X150075345Y-115499280D01*
X150075345Y-120467280D02*
X150075345Y-119023280D01*
X150115345Y-116943280D02*
X150115345Y-115533280D01*
X150115345Y-120433280D02*
X150115345Y-119023280D01*
X150155345Y-116943280D02*
X150155345Y-115567280D01*
X150155345Y-120399280D02*
X150155345Y-119023280D01*
X150195345Y-116943280D02*
X150195345Y-115603280D01*
X150195345Y-120363280D02*
X150195345Y-119023280D01*
X150235345Y-116943280D02*
X150235345Y-115640280D01*
X150235345Y-120326280D02*
X150235345Y-119023280D01*
X150275345Y-116943280D02*
X150275345Y-115678280D01*
X150275345Y-120288280D02*
X150275345Y-119023280D01*
X150315345Y-120248280D02*
X150315345Y-115718280D01*
X150355345Y-120207280D02*
X150355345Y-115759280D01*
X150395345Y-120165280D02*
X150395345Y-115801280D01*
X150435345Y-120120280D02*
X150435345Y-115846280D01*
X150475345Y-120075280D02*
X150475345Y-115891280D01*
X150515345Y-120027280D02*
X150515345Y-115939280D01*
X150555345Y-119978280D02*
X150555345Y-115988280D01*
X150595345Y-119927280D02*
X150595345Y-116039280D01*
X150635345Y-119873280D02*
X150635345Y-116093280D01*
X150675345Y-119817280D02*
X150675345Y-116149280D01*
X150715345Y-119759280D02*
X150715345Y-116207280D01*
X150755345Y-119697280D02*
X150755345Y-116269280D01*
X150795345Y-119633280D02*
X150795345Y-116333280D01*
X150835345Y-119564280D02*
X150835345Y-116402280D01*
X150875345Y-119492280D02*
X150875345Y-116474280D01*
X150915345Y-119415280D02*
X150915345Y-116551280D01*
X150955345Y-119333280D02*
X150955345Y-116633280D01*
X150995345Y-119245280D02*
X150995345Y-116721280D01*
X151035345Y-119148280D02*
X151035345Y-116818280D01*
X151075345Y-119042280D02*
X151075345Y-116924280D01*
X151115345Y-118923280D02*
X151115345Y-117043280D01*
X151155345Y-118785280D02*
X151155345Y-117181280D01*
X151195345Y-118616280D02*
X151195345Y-117350280D01*
X151235345Y-118385280D02*
X151235345Y-117581280D01*
X152114345Y-117983280D02*
X152744345Y-117983280D01*
X151264345Y-117983280D02*
G75*
G02*
X144724345Y-117983280I-3270000J0D01*
G01*
X144724345Y-117983280D02*
G75*
G02*
X151264345Y-117983280I3270000J0D01*
G01*
%TO.C,D3*%
X117474345Y-108383280D02*
X118124345Y-108383280D01*
X118124345Y-107263280D02*
X122364345Y-107263280D01*
X118124345Y-109503280D02*
X118124345Y-107263280D01*
X118724345Y-109503280D02*
X118724345Y-107263280D01*
X118844345Y-109503280D02*
X118844345Y-107263280D01*
X118964345Y-109503280D02*
X118964345Y-107263280D01*
X122364345Y-107263280D02*
X122364345Y-109503280D01*
X122364345Y-109503280D02*
X118124345Y-109503280D01*
X123014345Y-108383280D02*
X122364345Y-108383280D01*
%TD*%
M02*
