%TF.GenerationSoftware,KiCad,Pcbnew,9.0.6*%
%TF.CreationDate,2025-12-13T06:14:27+01:00*%
%TF.ProjectId,Rocket,526f636b-6574-42e6-9b69-6361645f7063,rev?*%
%TF.SameCoordinates,Original*%
%TF.FileFunction,Copper,L2,Bot*%
%TF.FilePolarity,Positive*%
%FSLAX46Y46*%
G04 Gerber Fmt 4.6, Leading zero omitted, Abs format (unit mm)*
G04 Created by KiCad (PCBNEW 9.0.6) date 2025-12-13 06:14:27*
%MOMM*%
%LPD*%
G01*
G04 APERTURE LIST*
G04 Aperture macros list*
%AMRoundRect*
0 Rectangle with rounded corners*
0 $1 Rounding radius*
0 $2 $3 $4 $5 $6 $7 $8 $9 X,Y pos of 4 corners*
0 Add a 4 corners polygon primitive as box body*
4,1,4,$2,$3,$4,$5,$6,$7,$8,$9,$2,$3,0*
0 Add four circle primitives for the rounded corners*
1,1,$1+$1,$2,$3*
1,1,$1+$1,$4,$5*
1,1,$1+$1,$6,$7*
1,1,$1+$1,$8,$9*
0 Add four rect primitives between the rounded corners*
20,1,$1+$1,$2,$3,$4,$5,0*
20,1,$1+$1,$4,$5,$6,$7,0*
20,1,$1+$1,$6,$7,$8,$9,0*
20,1,$1+$1,$8,$9,$2,$3,0*%
G04 Aperture macros list end*
%ADD10C,0.300000*%
%TA.AperFunction,NonConductor*%
%ADD11C,0.300000*%
%TD*%
%TA.AperFunction,ComponentPad*%
%ADD12R,1.800000X1.800000*%
%TD*%
%TA.AperFunction,ComponentPad*%
%ADD13C,1.800000*%
%TD*%
%TA.AperFunction,ComponentPad*%
%ADD14R,1.500000X1.500000*%
%TD*%
%TA.AperFunction,ComponentPad*%
%ADD15C,1.500000*%
%TD*%
%TA.AperFunction,SMDPad,CuDef*%
%ADD16R,5.000000X2.000000*%
%TD*%
%TA.AperFunction,SMDPad,CuDef*%
%ADD17C,17.780000*%
%TD*%
%TA.AperFunction,ComponentPad*%
%ADD18C,1.600000*%
%TD*%
%TA.AperFunction,ComponentPad*%
%ADD19R,1.600000X1.600000*%
%TD*%
%TA.AperFunction,ComponentPad*%
%ADD20O,1.600000X1.600000*%
%TD*%
%TA.AperFunction,ComponentPad*%
%ADD21RoundRect,0.250000X-0.550000X-0.550000X0.550000X-0.550000X0.550000X0.550000X-0.550000X0.550000X0*%
%TD*%
%TA.AperFunction,ComponentPad*%
%ADD22C,2.000000*%
%TD*%
%TA.AperFunction,Conductor*%
%ADD23C,0.250000*%
%TD*%
G04 APERTURE END LIST*
D10*
D11*
X165345489Y-68000828D02*
X165345489Y-66500828D01*
X164488346Y-68000828D02*
X165131203Y-67143685D01*
X164488346Y-66500828D02*
X165345489Y-67357971D01*
X163845489Y-68000828D02*
X163845489Y-66500828D01*
X163845489Y-67215114D02*
X162988346Y-67215114D01*
X162988346Y-68000828D02*
X162988346Y-66500828D01*
X161774060Y-67215114D02*
X162274060Y-67215114D01*
X162274060Y-68000828D02*
X162274060Y-66500828D01*
X162274060Y-66500828D02*
X161559774Y-66500828D01*
X159059774Y-68000828D02*
X159916917Y-68000828D01*
X159488346Y-68000828D02*
X159488346Y-66500828D01*
X159488346Y-66500828D02*
X159631203Y-66715114D01*
X159631203Y-66715114D02*
X159774060Y-66857971D01*
X159774060Y-66857971D02*
X159916917Y-66929400D01*
X158488346Y-66643685D02*
X158416918Y-66572257D01*
X158416918Y-66572257D02*
X158274061Y-66500828D01*
X158274061Y-66500828D02*
X157916918Y-66500828D01*
X157916918Y-66500828D02*
X157774061Y-66572257D01*
X157774061Y-66572257D02*
X157702632Y-66643685D01*
X157702632Y-66643685D02*
X157631203Y-66786542D01*
X157631203Y-66786542D02*
X157631203Y-66929400D01*
X157631203Y-66929400D02*
X157702632Y-67143685D01*
X157702632Y-67143685D02*
X158559775Y-68000828D01*
X158559775Y-68000828D02*
X157631203Y-68000828D01*
X156988347Y-67857971D02*
X156916918Y-67929400D01*
X156916918Y-67929400D02*
X156988347Y-68000828D01*
X156988347Y-68000828D02*
X157059775Y-67929400D01*
X157059775Y-67929400D02*
X156988347Y-67857971D01*
X156988347Y-67857971D02*
X156988347Y-68000828D01*
X156345489Y-66643685D02*
X156274061Y-66572257D01*
X156274061Y-66572257D02*
X156131204Y-66500828D01*
X156131204Y-66500828D02*
X155774061Y-66500828D01*
X155774061Y-66500828D02*
X155631204Y-66572257D01*
X155631204Y-66572257D02*
X155559775Y-66643685D01*
X155559775Y-66643685D02*
X155488346Y-66786542D01*
X155488346Y-66786542D02*
X155488346Y-66929400D01*
X155488346Y-66929400D02*
X155559775Y-67143685D01*
X155559775Y-67143685D02*
X156416918Y-68000828D01*
X156416918Y-68000828D02*
X155488346Y-68000828D01*
X154559775Y-66500828D02*
X154416918Y-66500828D01*
X154416918Y-66500828D02*
X154274061Y-66572257D01*
X154274061Y-66572257D02*
X154202633Y-66643685D01*
X154202633Y-66643685D02*
X154131204Y-66786542D01*
X154131204Y-66786542D02*
X154059775Y-67072257D01*
X154059775Y-67072257D02*
X154059775Y-67429400D01*
X154059775Y-67429400D02*
X154131204Y-67715114D01*
X154131204Y-67715114D02*
X154202633Y-67857971D01*
X154202633Y-67857971D02*
X154274061Y-67929400D01*
X154274061Y-67929400D02*
X154416918Y-68000828D01*
X154416918Y-68000828D02*
X154559775Y-68000828D01*
X154559775Y-68000828D02*
X154702633Y-67929400D01*
X154702633Y-67929400D02*
X154774061Y-67857971D01*
X154774061Y-67857971D02*
X154845490Y-67715114D01*
X154845490Y-67715114D02*
X154916918Y-67429400D01*
X154916918Y-67429400D02*
X154916918Y-67072257D01*
X154916918Y-67072257D02*
X154845490Y-66786542D01*
X154845490Y-66786542D02*
X154774061Y-66643685D01*
X154774061Y-66643685D02*
X154702633Y-66572257D01*
X154702633Y-66572257D02*
X154559775Y-66500828D01*
X153488347Y-66643685D02*
X153416919Y-66572257D01*
X153416919Y-66572257D02*
X153274062Y-66500828D01*
X153274062Y-66500828D02*
X152916919Y-66500828D01*
X152916919Y-66500828D02*
X152774062Y-66572257D01*
X152774062Y-66572257D02*
X152702633Y-66643685D01*
X152702633Y-66643685D02*
X152631204Y-66786542D01*
X152631204Y-66786542D02*
X152631204Y-66929400D01*
X152631204Y-66929400D02*
X152702633Y-67143685D01*
X152702633Y-67143685D02*
X153559776Y-68000828D01*
X153559776Y-68000828D02*
X152631204Y-68000828D01*
X151274062Y-66500828D02*
X151988348Y-66500828D01*
X151988348Y-66500828D02*
X152059776Y-67215114D01*
X152059776Y-67215114D02*
X151988348Y-67143685D01*
X151988348Y-67143685D02*
X151845491Y-67072257D01*
X151845491Y-67072257D02*
X151488348Y-67072257D01*
X151488348Y-67072257D02*
X151345491Y-67143685D01*
X151345491Y-67143685D02*
X151274062Y-67215114D01*
X151274062Y-67215114D02*
X151202633Y-67357971D01*
X151202633Y-67357971D02*
X151202633Y-67715114D01*
X151202633Y-67715114D02*
X151274062Y-67857971D01*
X151274062Y-67857971D02*
X151345491Y-67929400D01*
X151345491Y-67929400D02*
X151488348Y-68000828D01*
X151488348Y-68000828D02*
X151845491Y-68000828D01*
X151845491Y-68000828D02*
X151988348Y-67929400D01*
X151988348Y-67929400D02*
X152059776Y-67857971D01*
D12*
%TO.P,D2,1,K*%
%TO.N,Net-(D1-K)*%
X143900000Y-77000000D03*
D13*
%TO.P,D2,2,A*%
%TO.N,Net-(D1-A)*%
X146440000Y-77000000D03*
%TD*%
D14*
%TO.P,Q2,1,E*%
%TO.N,Net-(D1-A)*%
X166460000Y-129118808D03*
D15*
%TO.P,Q2,2,B*%
%TO.N,Net-(Q1-C)*%
X169000000Y-126578808D03*
%TO.P,Q2,3,C*%
%TO.N,Net-(Q2-C)*%
X171540000Y-129118808D03*
%TD*%
D12*
%TO.P,D1,1,K*%
%TO.N,Net-(D1-K)*%
X169500000Y-77300000D03*
D13*
%TO.P,D1,2,A*%
%TO.N,Net-(D1-A)*%
X172040000Y-77300000D03*
%TD*%
D16*
%TO.P,U2,*%
%TO.N,*%
X145000000Y-52500000D03*
X145000000Y-56056000D03*
%TO.P,U2,1*%
%TO.N,Net-(S1-A-Pad1)*%
X170894000Y-52500000D03*
X170894000Y-56056000D03*
D17*
%TO.P,U2,2*%
%TO.N,Net-(D1-K)*%
X157954000Y-54532000D03*
%TD*%
D18*
%TO.P,R4,1*%
%TO.N,Net-(Q1-B)*%
X132740000Y-126800000D03*
%TO.P,R4,2*%
%TO.N,Net-(D1-K)*%
X142900000Y-126800000D03*
%TD*%
%TO.P,R3,1*%
%TO.N,Net-(D3-K)*%
X132740000Y-130850000D03*
%TO.P,R3,2*%
%TO.N,Net-(Q1-B)*%
X142900000Y-130850000D03*
%TD*%
%TO.P,R5,1*%
%TO.N,Net-(S1-E)*%
X132740000Y-122750000D03*
%TO.P,R5,2*%
%TO.N,Net-(Q1-C)*%
X142900000Y-122750000D03*
%TD*%
D19*
%TO.P,D3,1,K*%
%TO.N,Net-(D3-K)*%
X153223900Y-99393500D03*
D20*
%TO.P,D3,2,A*%
%TO.N,Net-(D3-A)*%
X160843900Y-99393500D03*
%TD*%
D19*
%TO.P,C1,1*%
%TO.N,Net-(D3-K)*%
X155200000Y-119300000D03*
D18*
%TO.P,C1,2*%
%TO.N,Net-(D1-K)*%
X157700000Y-119300000D03*
%TD*%
%TO.P,R8,1*%
%TO.N,Net-(S1-E)*%
X132740000Y-110600000D03*
%TO.P,R8,2*%
%TO.N,Net-(D3-A)*%
X142900000Y-110600000D03*
%TD*%
D21*
%TO.P,U1,1,GND*%
%TO.N,Net-(D1-K)*%
X153233900Y-110833500D03*
D18*
%TO.P,U1,2,TR*%
%TO.N,Net-(D3-K)*%
X153233900Y-108293500D03*
%TO.P,U1,3,Q*%
%TO.N,unconnected-(U1-Q-Pad3)*%
X153233900Y-105753500D03*
%TO.P,U1,4,R*%
%TO.N,Net-(S1-E)*%
X153233900Y-103213500D03*
%TO.P,U1,5,CV*%
%TO.N,unconnected-(U1-CV-Pad5)*%
X160853900Y-103213500D03*
%TO.P,U1,6,THR*%
%TO.N,Net-(D3-K)*%
X160853900Y-105753500D03*
%TO.P,U1,7,DIS*%
%TO.N,Net-(D3-A)*%
X160853900Y-108293500D03*
%TO.P,U1,8,VCC*%
%TO.N,Net-(S1-E)*%
X160853900Y-110833500D03*
%TD*%
%TO.P,R7,1*%
%TO.N,Net-(D3-K)*%
X132740000Y-114650000D03*
%TO.P,R7,2*%
%TO.N,Net-(D3-A)*%
X142900000Y-114650000D03*
%TD*%
%TO.P,R6,1*%
%TO.N,Net-(S1-E)*%
X132740000Y-118700000D03*
%TO.P,R6,2*%
%TO.N,Net-(Q2-C)*%
X142900000Y-118700000D03*
%TD*%
D22*
%TO.P,S1,1,A*%
%TO.N,Net-(S1-A-Pad1)*%
X178200000Y-108700000D03*
%TO.P,S1,2,E*%
%TO.N,Net-(S1-E)*%
X178200000Y-106160000D03*
%TO.P,S1,3,A*%
%TO.N,unconnected-(S1-A-Pad3)*%
X178200000Y-103620000D03*
%TD*%
D14*
%TO.P,Q1,1,E*%
%TO.N,Net-(D1-K)*%
X169720000Y-119000000D03*
D15*
%TO.P,Q1,2,B*%
%TO.N,Net-(Q1-B)*%
X172260000Y-116460000D03*
%TO.P,Q1,3,C*%
%TO.N,Net-(Q1-C)*%
X174800000Y-119000000D03*
%TD*%
D23*
%TO.N,Net-(S1-A-Pad1)*%
X170894000Y-62294000D02*
X182300000Y-73700000D01*
X170894000Y-52500000D02*
X170894000Y-56056000D01*
X182300000Y-73700000D02*
X182300000Y-107300000D01*
X180900000Y-108700000D02*
X178200000Y-108700000D01*
X182300000Y-107300000D02*
X180900000Y-108700000D01*
%TO.N,Net-(Q1-B)*%
X172260000Y-116460000D02*
X166140000Y-116460000D01*
%TO.N,Net-(S1-E)*%
X158033500Y-110833500D02*
X160853900Y-110833500D01*
%TO.N,Net-(D3-A)*%
X162093500Y-99393500D02*
X164400000Y-101700000D01*
%TO.N,Net-(S1-E)*%
X132740000Y-107360000D02*
X132740000Y-110600000D01*
X132740000Y-110600000D02*
X130500000Y-110600000D01*
%TO.N,Net-(D1-A)*%
X168200000Y-132500000D02*
X173700000Y-132500000D01*
%TO.N,Net-(S1-E)*%
X126400000Y-117200000D02*
X127900000Y-118700000D01*
%TO.N,Net-(D1-A)*%
X177800000Y-120900000D02*
X177800000Y-114000000D01*
%TO.N,Net-(S1-E)*%
X136886500Y-103213500D02*
X132740000Y-107360000D01*
%TO.N,Net-(D3-A)*%
X164400000Y-101700000D02*
X164400000Y-107700000D01*
%TO.N,Net-(Q1-C)*%
X174800000Y-119000000D02*
X174800000Y-120778808D01*
%TO.N,Net-(S1-E)*%
X126400000Y-114700000D02*
X126400000Y-117200000D01*
%TO.N,Net-(Q1-C)*%
X174800000Y-120778808D02*
X169000000Y-126578808D01*
%TO.N,Net-(S1-E)*%
X132740000Y-122750000D02*
X132740000Y-118700000D01*
%TO.N,Net-(Q1-B)*%
X132740000Y-126800000D02*
X134000000Y-126800000D01*
%TO.N,Net-(D1-A)*%
X146440000Y-77000000D02*
X149740000Y-80300000D01*
X173700000Y-125000000D02*
X177800000Y-120900000D01*
%TO.N,Net-(Q1-B)*%
X166140000Y-116460000D02*
X160400000Y-122200000D01*
%TO.N,Net-(S1-E)*%
X130500000Y-110600000D02*
X126400000Y-114700000D01*
%TO.N,Net-(D1-A)*%
X172300000Y-109900000D02*
X172300000Y-81700000D01*
%TO.N,Net-(S1-E)*%
X156900000Y-106879600D02*
X156900000Y-109700000D01*
%TO.N,Net-(D3-A)*%
X160843900Y-99393500D02*
X162093500Y-99393500D01*
X142900000Y-110600000D02*
X142900000Y-114650000D01*
%TO.N,Net-(D1-A)*%
X166460000Y-130760000D02*
X168200000Y-132500000D01*
%TO.N,Net-(S1-E)*%
X156900000Y-109700000D02*
X158033500Y-110833500D01*
%TO.N,Net-(D1-A)*%
X149740000Y-80300000D02*
X170900000Y-80300000D01*
X171100000Y-80500000D02*
X172040000Y-79560000D01*
%TO.N,Net-(Q1-B)*%
X159250000Y-130850000D02*
X142900000Y-130850000D01*
%TO.N,Net-(S1-E)*%
X153233900Y-103213500D02*
X136886500Y-103213500D01*
%TO.N,Net-(D1-A)*%
X166460000Y-129118808D02*
X166460000Y-130760000D01*
%TO.N,Net-(Q1-B)*%
X160400000Y-122200000D02*
X160400000Y-129700000D01*
%TO.N,Net-(D1-A)*%
X172300000Y-81700000D02*
X171100000Y-80500000D01*
%TO.N,Net-(Q1-B)*%
X134000000Y-126800000D02*
X138050000Y-130850000D01*
%TO.N,Net-(S1-E)*%
X153233900Y-103213500D02*
X156900000Y-106879600D01*
%TO.N,Net-(S1-A-Pad1)*%
X170894000Y-56056000D02*
X170894000Y-62294000D01*
%TO.N,Net-(D3-A)*%
X164400000Y-107700000D02*
X163806500Y-108293500D01*
%TO.N,Net-(S1-E)*%
X127900000Y-118700000D02*
X132740000Y-118700000D01*
%TO.N,Net-(D3-A)*%
X163806500Y-108293500D02*
X160853900Y-108293500D01*
%TO.N,Net-(Q1-B)*%
X138050000Y-130850000D02*
X142900000Y-130850000D01*
X160400000Y-129700000D02*
X159250000Y-130850000D01*
%TO.N,Net-(D1-K)*%
X153233900Y-115033900D02*
X154400000Y-116200000D01*
X154400000Y-116200000D02*
X156400000Y-116200000D01*
X156400000Y-116200000D02*
X157700000Y-117500000D01*
%TO.N,Net-(D1-A)*%
X173700000Y-132500000D02*
X173700000Y-125000000D01*
X177800000Y-114000000D02*
X176400000Y-114000000D01*
%TO.N,Net-(D1-K)*%
X155300000Y-126800000D02*
X157700000Y-124400000D01*
X153233900Y-115033900D02*
X153233900Y-110833500D01*
%TO.N,Net-(D1-A)*%
X172040000Y-79560000D02*
X172040000Y-77300000D01*
%TO.N,Net-(D1-K)*%
X143900000Y-83200000D02*
X149900000Y-89200000D01*
X169500000Y-77300000D02*
X169500000Y-76300000D01*
%TO.N,Net-(D1-A)*%
X170900000Y-80300000D02*
X171100000Y-80500000D01*
%TO.N,Net-(D1-K)*%
X157954000Y-54532000D02*
X169500000Y-66078000D01*
X160800000Y-119300000D02*
X157700000Y-119300000D01*
X169500000Y-76300000D02*
X166600000Y-73400000D01*
%TO.N,Net-(D1-A)*%
X176400000Y-114000000D02*
X172300000Y-109900000D01*
%TO.N,Net-(D1-K)*%
X143900000Y-75300000D02*
X143900000Y-77000000D01*
X170900000Y-109200000D02*
X160800000Y-119300000D01*
X157700000Y-117500000D02*
X157700000Y-119300000D01*
X169500000Y-66078000D02*
X169500000Y-77300000D01*
X142900000Y-126800000D02*
X155300000Y-126800000D01*
X166600000Y-73400000D02*
X145800000Y-73400000D01*
X166900000Y-89200000D02*
X170900000Y-93200000D01*
%TO.N,Net-(D3-K)*%
X151400000Y-110127400D02*
X151400000Y-118200000D01*
%TO.N,Net-(D1-K)*%
X157700000Y-124400000D02*
X157700000Y-119300000D01*
X145800000Y-73400000D02*
X143900000Y-75300000D01*
%TO.N,Net-(D3-K)*%
X152500000Y-119300000D02*
X155200000Y-119300000D01*
%TO.N,Net-(D1-K)*%
X170900000Y-93200000D02*
X170900000Y-109200000D01*
X149900000Y-89200000D02*
X166900000Y-89200000D01*
%TO.N,Net-(D3-K)*%
X153233900Y-108293500D02*
X151400000Y-110127400D01*
%TO.N,Net-(D1-K)*%
X143900000Y-77000000D02*
X143900000Y-83200000D01*
%TO.N,Net-(D3-K)*%
X151400000Y-118200000D02*
X152500000Y-119300000D01*
%TD*%
M02*
