%TF.GenerationSoftware,KiCad,Pcbnew,9.0.6*%
%TF.CreationDate,2026-01-01T13:35:09+01:00*%
%TF.ProjectId,Rocket,526f636b-6574-42e6-9b69-6361645f7063,rev?*%
%TF.SameCoordinates,Original*%
%TF.FileFunction,Copper,L1,Top*%
%TF.FilePolarity,Positive*%
%FSLAX46Y46*%
G04 Gerber Fmt 4.6, Leading zero omitted, Abs format (unit mm)*
G04 Created by KiCad (PCBNEW 9.0.6) date 2026-01-01 13:35:09*
%MOMM*%
%LPD*%
G01*
G04 APERTURE LIST*
G04 Aperture macros list*
%AMRoundRect*
0 Rectangle with rounded corners*
0 $1 Rounding radius*
0 $2 $3 $4 $5 $6 $7 $8 $9 X,Y pos of 4 corners*
0 Add a 4 corners polygon primitive as box body*
4,1,4,$2,$3,$4,$5,$6,$7,$8,$9,$2,$3,0*
0 Add four circle primitives for the rounded corners*
1,1,$1+$1,$2,$3*
1,1,$1+$1,$4,$5*
1,1,$1+$1,$6,$7*
1,1,$1+$1,$8,$9*
0 Add four rect primitives between the rounded corners*
20,1,$1+$1,$2,$3,$4,$5,0*
20,1,$1+$1,$4,$5,$6,$7,0*
20,1,$1+$1,$6,$7,$8,$9,0*
20,1,$1+$1,$8,$9,$2,$3,0*%
G04 Aperture macros list end*
%TA.AperFunction,ComponentPad*%
%ADD10R,1.800000X1.800000*%
%TD*%
%TA.AperFunction,ComponentPad*%
%ADD11C,1.800000*%
%TD*%
%TA.AperFunction,ComponentPad*%
%ADD12R,1.500000X1.500000*%
%TD*%
%TA.AperFunction,ComponentPad*%
%ADD13C,1.500000*%
%TD*%
%TA.AperFunction,ComponentPad*%
%ADD14R,1.600000X1.600000*%
%TD*%
%TA.AperFunction,ComponentPad*%
%ADD15O,1.600000X1.600000*%
%TD*%
%TA.AperFunction,ComponentPad*%
%ADD16C,1.600000*%
%TD*%
%TA.AperFunction,ComponentPad*%
%ADD17RoundRect,0.250000X-0.550000X-0.550000X0.550000X-0.550000X0.550000X0.550000X-0.550000X0.550000X0*%
%TD*%
%TA.AperFunction,ComponentPad*%
%ADD18C,2.000000*%
%TD*%
%TA.AperFunction,Conductor*%
%ADD19C,0.250000*%
%TD*%
G04 APERTURE END LIST*
D10*
%TO.P,D1,1,K*%
%TO.N,Net-(D1-K)*%
X126930000Y-79100000D03*
D11*
%TO.P,D1,2,A*%
%TO.N,Net-(D1-A)*%
X129470000Y-79100000D03*
%TD*%
D12*
%TO.P,Q2,1,E*%
%TO.N,Net-(D1-A)*%
X123853000Y-133033808D03*
D13*
%TO.P,Q2,2,B*%
%TO.N,Net-(Q1-C)*%
X126393000Y-130493808D03*
%TO.P,Q2,3,C*%
%TO.N,Net-(Q2-C)*%
X128933000Y-133033808D03*
%TD*%
D12*
%TO.P,Q1,1,E*%
%TO.N,Net-(D1-K)*%
X127113000Y-122915000D03*
D13*
%TO.P,Q1,2,B*%
%TO.N,Net-(Q1-B)*%
X129653000Y-120375000D03*
%TO.P,Q1,3,C*%
%TO.N,Net-(Q1-C)*%
X132193000Y-122915000D03*
%TD*%
D10*
%TO.P,D2,1,K*%
%TO.N,Net-(D1-K)*%
X105330000Y-79400000D03*
D11*
%TO.P,D2,2,A*%
%TO.N,Net-(D1-A)*%
X107870000Y-79400000D03*
%TD*%
D14*
%TO.P,D3,1,K*%
%TO.N,Net-(D3-K)*%
X110616900Y-103308500D03*
D15*
%TO.P,D3,2,A*%
%TO.N,Net-(D3-A)*%
X118236900Y-103308500D03*
%TD*%
D16*
%TO.P,R8,1*%
%TO.N,Net-(S1-E)*%
X90133000Y-114515000D03*
%TO.P,R8,2*%
%TO.N,Net-(D3-A)*%
X100293000Y-114515000D03*
%TD*%
%TO.P,R5,1*%
%TO.N,Net-(S1-E)*%
X90133000Y-126665000D03*
%TO.P,R5,2*%
%TO.N,Net-(Q1-C)*%
X100293000Y-126665000D03*
%TD*%
%TO.P,R7,1*%
%TO.N,Net-(D3-K)*%
X90133000Y-118565000D03*
%TO.P,R7,2*%
%TO.N,Net-(D3-A)*%
X100293000Y-118565000D03*
%TD*%
D17*
%TO.P,U1,1,GND*%
%TO.N,Net-(D1-K)*%
X110626900Y-114748500D03*
D16*
%TO.P,U1,2,TR*%
%TO.N,Net-(D3-K)*%
X110626900Y-112208500D03*
%TO.P,U1,3,Q*%
%TO.N,unconnected-(U1-Q-Pad3)*%
X110626900Y-109668500D03*
%TO.P,U1,4,R*%
%TO.N,Net-(S1-E)*%
X110626900Y-107128500D03*
%TO.P,U1,5,CV*%
%TO.N,unconnected-(U1-CV-Pad5)*%
X118246900Y-107128500D03*
%TO.P,U1,6,THR*%
%TO.N,Net-(D3-K)*%
X118246900Y-109668500D03*
%TO.P,U1,7,DIS*%
%TO.N,Net-(D3-A)*%
X118246900Y-112208500D03*
%TO.P,U1,8,VCC*%
%TO.N,Net-(S1-E)*%
X118246900Y-114748500D03*
%TD*%
D18*
%TO.P,S1,1,A*%
%TO.N,Net-(S1-A-Pad1)*%
X135593000Y-112615000D03*
%TO.P,S1,2,E*%
%TO.N,Net-(S1-E)*%
X135593000Y-110075000D03*
%TO.P,S1,3,A*%
%TO.N,unconnected-(S1-A-Pad3)*%
X135593000Y-107535000D03*
%TD*%
D16*
%TO.P,R3,1*%
%TO.N,Net-(D3-K)*%
X90133000Y-134765000D03*
%TO.P,R3,2*%
%TO.N,Net-(Q1-B)*%
X100293000Y-134765000D03*
%TD*%
%TO.P,R6,1*%
%TO.N,Net-(S1-E)*%
X90133000Y-122615000D03*
%TO.P,R6,2*%
%TO.N,Net-(Q2-C)*%
X100293000Y-122615000D03*
%TD*%
%TO.P,R4,1*%
%TO.N,Net-(Q1-B)*%
X90133000Y-130715000D03*
%TO.P,R4,2*%
%TO.N,Net-(D1-K)*%
X100293000Y-130715000D03*
%TD*%
D14*
%TO.P,C1,1*%
%TO.N,Net-(D3-K)*%
X112593000Y-123215000D03*
D16*
%TO.P,C1,2*%
%TO.N,Net-(D1-K)*%
X115093000Y-123215000D03*
%TD*%
D19*
%TO.N,Net-(D3-K)*%
X126793000Y-106115000D02*
X123239500Y-109668500D01*
X118246900Y-109668500D02*
X116846500Y-109668500D01*
X86293000Y-106115000D02*
X86293000Y-118115000D01*
X86793000Y-105615000D02*
X86293000Y-106115000D01*
X115810400Y-98115000D02*
X125293000Y-98115000D01*
X126793000Y-99615000D02*
X126793000Y-106115000D01*
X116846500Y-109668500D02*
X112793000Y-105615000D01*
X110626900Y-112208500D02*
X115706900Y-112208500D01*
X86743000Y-118565000D02*
X90133000Y-118565000D01*
X86293000Y-118115000D02*
X86743000Y-118565000D01*
X125293000Y-98115000D02*
X126793000Y-99615000D01*
X123239500Y-109668500D02*
X118246900Y-109668500D01*
X110616900Y-103308500D02*
X115810400Y-98115000D01*
X115706900Y-112208500D02*
X118246900Y-109668500D01*
X112793000Y-105615000D02*
X86793000Y-105615000D01*
%TO.N,Net-(D1-K)*%
X115093000Y-123215000D02*
X126813000Y-123215000D01*
X126813000Y-123215000D02*
X127113000Y-122915000D01*
%TO.N,Net-(S1-E)*%
X127833000Y-110075000D02*
X135593000Y-110075000D01*
X118246900Y-114748500D02*
X123159500Y-114748500D01*
X123159500Y-114748500D02*
X127833000Y-110075000D01*
%TO.N,Net-(Q2-C)*%
X103793000Y-122615000D02*
X117793000Y-136615000D01*
X126793000Y-136615000D02*
X128933000Y-134475000D01*
X100293000Y-122615000D02*
X103793000Y-122615000D01*
X128933000Y-134475000D02*
X128933000Y-133033808D01*
X117793000Y-136615000D02*
X126793000Y-136615000D01*
%TO.N,Net-(Q1-C)*%
X104843000Y-126665000D02*
X100293000Y-126665000D01*
X112793000Y-139115000D02*
X105793000Y-132115000D01*
X131293000Y-139115000D02*
X112793000Y-139115000D01*
X105793000Y-127615000D02*
X104843000Y-126665000D01*
X126393000Y-130493808D02*
X129671808Y-130493808D01*
X129671808Y-130493808D02*
X131293000Y-132115000D01*
X131293000Y-132115000D02*
X131293000Y-139115000D01*
X105793000Y-132115000D02*
X105793000Y-127615000D01*
%TO.N,Net-(D3-A)*%
X104393000Y-114515000D02*
X104293000Y-114515000D01*
X106893000Y-117115000D02*
X104293000Y-114515000D01*
X118246900Y-112208500D02*
X116699500Y-112208500D01*
X116699500Y-112208500D02*
X111793000Y-117115000D01*
X111793000Y-117115000D02*
X106893000Y-117115000D01*
X104293000Y-114515000D02*
X100293000Y-114515000D01*
%TD*%
M02*
