%TF.GenerationSoftware,KiCad,Pcbnew,9.0.6*%
%TF.CreationDate,2025-12-07T10:25:39+01:00*%
%TF.ProjectId,Rocket,526f636b-6574-42e6-9b69-6361645f7063,rev?*%
%TF.SameCoordinates,Original*%
%TF.FileFunction,Copper,L2,Bot*%
%TF.FilePolarity,Positive*%
%FSLAX46Y46*%
G04 Gerber Fmt 4.6, Leading zero omitted, Abs format (unit mm)*
G04 Created by KiCad (PCBNEW 9.0.6) date 2025-12-07 10:25:39*
%MOMM*%
%LPD*%
G01*
G04 APERTURE LIST*
G04 Aperture macros list*
%AMRoundRect*
0 Rectangle with rounded corners*
0 $1 Rounding radius*
0 $2 $3 $4 $5 $6 $7 $8 $9 X,Y pos of 4 corners*
0 Add a 4 corners polygon primitive as box body*
4,1,4,$2,$3,$4,$5,$6,$7,$8,$9,$2,$3,0*
0 Add four circle primitives for the rounded corners*
1,1,$1+$1,$2,$3*
1,1,$1+$1,$4,$5*
1,1,$1+$1,$6,$7*
1,1,$1+$1,$8,$9*
0 Add four rect primitives between the rounded corners*
20,1,$1+$1,$2,$3,$4,$5,0*
20,1,$1+$1,$4,$5,$6,$7,0*
20,1,$1+$1,$6,$7,$8,$9,0*
20,1,$1+$1,$8,$9,$2,$3,0*%
G04 Aperture macros list end*
%ADD10C,0.200000*%
%TA.AperFunction,NonConductor*%
%ADD11C,0.200000*%
%TD*%
%TA.AperFunction,SMDPad,CuDef*%
%ADD12R,5.000000X2.000000*%
%TD*%
%TA.AperFunction,SMDPad,CuDef*%
%ADD13C,17.780000*%
%TD*%
%TA.AperFunction,ComponentPad*%
%ADD14RoundRect,0.250000X-0.550000X-0.550000X0.550000X-0.550000X0.550000X0.550000X-0.550000X0.550000X0*%
%TD*%
%TA.AperFunction,ComponentPad*%
%ADD15C,1.600000*%
%TD*%
%TA.AperFunction,ComponentPad*%
%ADD16C,2.000000*%
%TD*%
%TA.AperFunction,ComponentPad*%
%ADD17R,1.500000X1.500000*%
%TD*%
%TA.AperFunction,ComponentPad*%
%ADD18C,1.500000*%
%TD*%
%TA.AperFunction,ComponentPad*%
%ADD19R,1.600000X1.600000*%
%TD*%
%TA.AperFunction,ComponentPad*%
%ADD20O,1.600000X1.600000*%
%TD*%
%TA.AperFunction,ComponentPad*%
%ADD21R,1.800000X1.800000*%
%TD*%
%TA.AperFunction,ComponentPad*%
%ADD22C,1.800000*%
%TD*%
%TA.AperFunction,Conductor*%
%ADD23C,0.250000*%
%TD*%
G04 APERTURE END LIST*
D10*
D11*
X144511279Y-94706028D02*
X144511279Y-93206028D01*
X143654136Y-94706028D02*
X144296993Y-93848885D01*
X143654136Y-93206028D02*
X144511279Y-94063171D01*
X143011279Y-94706028D02*
X143011279Y-93206028D01*
X143011279Y-93920314D02*
X142154136Y-93920314D01*
X142154136Y-94706028D02*
X142154136Y-93206028D01*
X140939850Y-93920314D02*
X141439850Y-93920314D01*
X141439850Y-94706028D02*
X141439850Y-93206028D01*
X141439850Y-93206028D02*
X140725564Y-93206028D01*
X138225564Y-94706028D02*
X139082707Y-94706028D01*
X138654136Y-94706028D02*
X138654136Y-93206028D01*
X138654136Y-93206028D02*
X138796993Y-93420314D01*
X138796993Y-93420314D02*
X138939850Y-93563171D01*
X138939850Y-93563171D02*
X139082707Y-93634600D01*
X137654136Y-93348885D02*
X137582708Y-93277457D01*
X137582708Y-93277457D02*
X137439851Y-93206028D01*
X137439851Y-93206028D02*
X137082708Y-93206028D01*
X137082708Y-93206028D02*
X136939851Y-93277457D01*
X136939851Y-93277457D02*
X136868422Y-93348885D01*
X136868422Y-93348885D02*
X136796993Y-93491742D01*
X136796993Y-93491742D02*
X136796993Y-93634600D01*
X136796993Y-93634600D02*
X136868422Y-93848885D01*
X136868422Y-93848885D02*
X137725565Y-94706028D01*
X137725565Y-94706028D02*
X136796993Y-94706028D01*
X136154137Y-94563171D02*
X136082708Y-94634600D01*
X136082708Y-94634600D02*
X136154137Y-94706028D01*
X136154137Y-94706028D02*
X136225565Y-94634600D01*
X136225565Y-94634600D02*
X136154137Y-94563171D01*
X136154137Y-94563171D02*
X136154137Y-94706028D01*
X135511279Y-93348885D02*
X135439851Y-93277457D01*
X135439851Y-93277457D02*
X135296994Y-93206028D01*
X135296994Y-93206028D02*
X134939851Y-93206028D01*
X134939851Y-93206028D02*
X134796994Y-93277457D01*
X134796994Y-93277457D02*
X134725565Y-93348885D01*
X134725565Y-93348885D02*
X134654136Y-93491742D01*
X134654136Y-93491742D02*
X134654136Y-93634600D01*
X134654136Y-93634600D02*
X134725565Y-93848885D01*
X134725565Y-93848885D02*
X135582708Y-94706028D01*
X135582708Y-94706028D02*
X134654136Y-94706028D01*
X133725565Y-93206028D02*
X133582708Y-93206028D01*
X133582708Y-93206028D02*
X133439851Y-93277457D01*
X133439851Y-93277457D02*
X133368423Y-93348885D01*
X133368423Y-93348885D02*
X133296994Y-93491742D01*
X133296994Y-93491742D02*
X133225565Y-93777457D01*
X133225565Y-93777457D02*
X133225565Y-94134600D01*
X133225565Y-94134600D02*
X133296994Y-94420314D01*
X133296994Y-94420314D02*
X133368423Y-94563171D01*
X133368423Y-94563171D02*
X133439851Y-94634600D01*
X133439851Y-94634600D02*
X133582708Y-94706028D01*
X133582708Y-94706028D02*
X133725565Y-94706028D01*
X133725565Y-94706028D02*
X133868423Y-94634600D01*
X133868423Y-94634600D02*
X133939851Y-94563171D01*
X133939851Y-94563171D02*
X134011280Y-94420314D01*
X134011280Y-94420314D02*
X134082708Y-94134600D01*
X134082708Y-94134600D02*
X134082708Y-93777457D01*
X134082708Y-93777457D02*
X134011280Y-93491742D01*
X134011280Y-93491742D02*
X133939851Y-93348885D01*
X133939851Y-93348885D02*
X133868423Y-93277457D01*
X133868423Y-93277457D02*
X133725565Y-93206028D01*
X132654137Y-93348885D02*
X132582709Y-93277457D01*
X132582709Y-93277457D02*
X132439852Y-93206028D01*
X132439852Y-93206028D02*
X132082709Y-93206028D01*
X132082709Y-93206028D02*
X131939852Y-93277457D01*
X131939852Y-93277457D02*
X131868423Y-93348885D01*
X131868423Y-93348885D02*
X131796994Y-93491742D01*
X131796994Y-93491742D02*
X131796994Y-93634600D01*
X131796994Y-93634600D02*
X131868423Y-93848885D01*
X131868423Y-93848885D02*
X132725566Y-94706028D01*
X132725566Y-94706028D02*
X131796994Y-94706028D01*
X130439852Y-93206028D02*
X131154138Y-93206028D01*
X131154138Y-93206028D02*
X131225566Y-93920314D01*
X131225566Y-93920314D02*
X131154138Y-93848885D01*
X131154138Y-93848885D02*
X131011281Y-93777457D01*
X131011281Y-93777457D02*
X130654138Y-93777457D01*
X130654138Y-93777457D02*
X130511281Y-93848885D01*
X130511281Y-93848885D02*
X130439852Y-93920314D01*
X130439852Y-93920314D02*
X130368423Y-94063171D01*
X130368423Y-94063171D02*
X130368423Y-94420314D01*
X130368423Y-94420314D02*
X130439852Y-94563171D01*
X130439852Y-94563171D02*
X130511281Y-94634600D01*
X130511281Y-94634600D02*
X130654138Y-94706028D01*
X130654138Y-94706028D02*
X131011281Y-94706028D01*
X131011281Y-94706028D02*
X131154138Y-94634600D01*
X131154138Y-94634600D02*
X131225566Y-94563171D01*
D12*
%TO.P,U2,*%
%TO.N,*%
X146746000Y-63424000D03*
X146746000Y-59868000D03*
%TO.P,U2,1*%
%TO.N,Net-(S1-A-Pad1)*%
X172640000Y-63424000D03*
X172640000Y-59868000D03*
D13*
%TO.P,U2,2*%
%TO.N,Net-(D1-K)*%
X159700000Y-61900000D03*
%TD*%
D14*
%TO.P,U1,1,GND*%
%TO.N,Net-(D1-K)*%
X134400000Y-123840000D03*
D15*
%TO.P,U1,2,TR*%
%TO.N,Net-(D3-K)*%
X134400000Y-121300000D03*
%TO.P,U1,3,Q*%
%TO.N,unconnected-(U1-Q-Pad3)*%
X134400000Y-118760000D03*
%TO.P,U1,4,R*%
%TO.N,Net-(S1-E)*%
X134400000Y-116220000D03*
%TO.P,U1,5,CV*%
%TO.N,unconnected-(U1-CV-Pad5)*%
X142020000Y-116220000D03*
%TO.P,U1,6,THR*%
%TO.N,Net-(D3-K)*%
X142020000Y-118760000D03*
%TO.P,U1,7,DIS*%
%TO.N,Net-(D3-A)*%
X142020000Y-121300000D03*
%TO.P,U1,8,VCC*%
%TO.N,Net-(S1-E)*%
X142020000Y-123840000D03*
%TD*%
D16*
%TO.P,S1,1,A*%
%TO.N,Net-(S1-A-Pad1)*%
X161500000Y-133980000D03*
%TO.P,S1,2,E*%
%TO.N,Net-(S1-E)*%
X161500000Y-131440000D03*
%TO.P,S1,3,A*%
%TO.N,unconnected-(S1-A-Pad3)*%
X161500000Y-128900000D03*
%TD*%
D15*
%TO.P,R7,1*%
%TO.N,Net-(D3-K)*%
X112720000Y-118850000D03*
%TO.P,R7,2*%
%TO.N,Net-(D3-A)*%
X122880000Y-118850000D03*
%TD*%
%TO.P,R6,1*%
%TO.N,Net-(S1-E)*%
X112720000Y-122900000D03*
%TO.P,R6,2*%
%TO.N,Net-(Q2-C)*%
X122880000Y-122900000D03*
%TD*%
%TO.P,R5,1*%
%TO.N,Net-(S1-E)*%
X112720000Y-126950000D03*
%TO.P,R5,2*%
%TO.N,Net-(Q1-C)*%
X122880000Y-126950000D03*
%TD*%
%TO.P,R4,1*%
%TO.N,Net-(Q1-B)*%
X112720000Y-131000000D03*
%TO.P,R4,2*%
%TO.N,Net-(D1-K)*%
X122880000Y-131000000D03*
%TD*%
%TO.P,R3,1*%
%TO.N,Net-(D3-K)*%
X112720000Y-135050000D03*
%TO.P,R3,2*%
%TO.N,Net-(Q1-B)*%
X122880000Y-135050000D03*
%TD*%
%TO.P,R1off1,1*%
%TO.N,Net-(S1-E)*%
X112720000Y-114800000D03*
%TO.P,R1off1,2*%
%TO.N,Net-(D3-A)*%
X122880000Y-114800000D03*
%TD*%
D17*
%TO.P,T2,1,E*%
%TO.N,Net-(D1-A)*%
X151560000Y-118740000D03*
D18*
%TO.P,T2,2,B*%
%TO.N,Net-(Q1-C)*%
X154100000Y-116200000D03*
%TO.P,T2,3,C*%
%TO.N,Net-(Q2-C)*%
X156640000Y-118740000D03*
%TD*%
D19*
%TO.P,D3,1,K*%
%TO.N,Net-(D3-K)*%
X134390000Y-112400000D03*
D20*
%TO.P,D3,2,A*%
%TO.N,Net-(D3-A)*%
X142010000Y-112400000D03*
%TD*%
D21*
%TO.P,D2,1,K*%
%TO.N,Net-(D1-K)*%
X173300000Y-79800000D03*
D22*
%TO.P,D2,2,A*%
%TO.N,Net-(D1-A)*%
X175840000Y-79800000D03*
%TD*%
D21*
%TO.P,D1,1,K*%
%TO.N,Net-(D1-K)*%
X153500000Y-80800000D03*
D22*
%TO.P,D1,2,A*%
%TO.N,Net-(D1-A)*%
X156040000Y-80800000D03*
%TD*%
D19*
%TO.P,47uF,1*%
%TO.N,Net-(D3-K)*%
X164700000Y-122000000D03*
D15*
%TO.P,47uF,2*%
%TO.N,Net-(D1-K)*%
X167200000Y-122000000D03*
%TD*%
D17*
%TO.P,T1,1,E*%
%TO.N,Net-(D1-K)*%
X152100000Y-111400000D03*
D18*
%TO.P,T1,2,B*%
%TO.N,Net-(Q1-B)*%
X154640000Y-108860000D03*
%TO.P,T1,3,C*%
%TO.N,Net-(Q1-C)*%
X157180000Y-111400000D03*
%TD*%
D23*
%TO.N,Net-(D1-K)*%
X121400000Y-129520000D02*
X122880000Y-131000000D01*
X121400000Y-129400000D02*
X121400000Y-129520000D01*
X111300000Y-129400000D02*
X121400000Y-129400000D01*
X109500000Y-127600000D02*
X111300000Y-129400000D01*
X109500000Y-114700000D02*
X109500000Y-127600000D01*
X116300000Y-107900000D02*
X109500000Y-114700000D01*
X143600000Y-107900000D02*
X116300000Y-107900000D01*
X147100000Y-111400000D02*
X143600000Y-107900000D01*
X152100000Y-111400000D02*
X147100000Y-111400000D01*
%TO.N,Net-(D1-A)*%
X177100000Y-85800000D02*
X177100000Y-81060000D01*
X169000000Y-93900000D02*
X177100000Y-85800000D01*
X168100000Y-124300000D02*
X169000000Y-123400000D01*
X155900000Y-124300000D02*
X168100000Y-124300000D01*
X151560000Y-119960000D02*
X155900000Y-124300000D01*
X169000000Y-123400000D02*
X169000000Y-93900000D01*
X151560000Y-118740000D02*
X151560000Y-119960000D01*
X177100000Y-81060000D02*
X175840000Y-79800000D01*
%TO.N,Net-(S1-E)*%
X110000000Y-121900000D02*
X111000000Y-122900000D01*
X110000000Y-117520000D02*
X110000000Y-121900000D01*
X112720000Y-114800000D02*
X110000000Y-117520000D01*
X111000000Y-122900000D02*
X112720000Y-122900000D01*
X112720000Y-126950000D02*
X112720000Y-122900000D01*
%TO.N,Net-(D1-K)*%
X131660000Y-123840000D02*
X134400000Y-123840000D01*
X124500000Y-131000000D02*
X131660000Y-123840000D01*
X122880000Y-131000000D02*
X124500000Y-131000000D01*
%TO.N,Net-(S1-E)*%
X137300000Y-116500000D02*
X137300000Y-121600000D01*
X139540000Y-123840000D02*
X142020000Y-123840000D01*
X137020000Y-116220000D02*
X137300000Y-116500000D01*
X137300000Y-121600000D02*
X139540000Y-123840000D01*
X134400000Y-116220000D02*
X137020000Y-116220000D01*
%TO.N,Net-(D3-A)*%
X144500000Y-120400000D02*
X143600000Y-121300000D01*
X143600000Y-121300000D02*
X142020000Y-121300000D01*
X144500000Y-114890000D02*
X144500000Y-120400000D01*
X142010000Y-112400000D02*
X144500000Y-114890000D01*
X122880000Y-114800000D02*
X122880000Y-118850000D01*
X122880000Y-111520000D02*
X122880000Y-114800000D01*
X124800000Y-109600000D02*
X122880000Y-111520000D01*
X139210000Y-109600000D02*
X124800000Y-109600000D01*
X142010000Y-112400000D02*
X139210000Y-109600000D01*
%TO.N,Net-(Q1-B)*%
X116400000Y-131000000D02*
X112720000Y-131000000D01*
X120450000Y-135050000D02*
X116400000Y-131000000D01*
X122880000Y-135050000D02*
X120450000Y-135050000D01*
%TO.N,Net-(S1-E)*%
X148240000Y-131440000D02*
X142020000Y-125220000D01*
X161500000Y-131440000D02*
X148240000Y-131440000D01*
X142020000Y-125220000D02*
X142020000Y-123840000D01*
%TO.N,Net-(D1-K)*%
X167200000Y-112000000D02*
X167200000Y-122000000D01*
X167300000Y-111900000D02*
X167200000Y-112000000D01*
X163700000Y-108300000D02*
X167300000Y-111900000D01*
X157600000Y-108300000D02*
X163700000Y-108300000D01*
X154500000Y-111400000D02*
X157600000Y-108300000D01*
X152100000Y-111400000D02*
X154500000Y-111400000D01*
%TO.N,Net-(Q1-C)*%
X157180000Y-113120000D02*
X157180000Y-111400000D01*
X154100000Y-116200000D02*
X157180000Y-113120000D01*
%TO.N,Net-(D1-K)*%
X149400000Y-110200000D02*
X150600000Y-111400000D01*
X150600000Y-111400000D02*
X152100000Y-111400000D01*
X149400000Y-99500000D02*
X149400000Y-110200000D01*
X153500000Y-95400000D02*
X149400000Y-99500000D01*
X153500000Y-80800000D02*
X153500000Y-95400000D01*
%TO.N,Net-(S1-A-Pad1)*%
X164820000Y-133980000D02*
X161500000Y-133980000D01*
X165200000Y-133600000D02*
X164820000Y-133980000D01*
X165200000Y-130900000D02*
X165200000Y-133600000D01*
X168400000Y-125400000D02*
X168400000Y-127700000D01*
X170500000Y-123300000D02*
X168400000Y-125400000D01*
X170500000Y-102200000D02*
X170500000Y-123300000D01*
X183900000Y-88800000D02*
X170500000Y-102200000D01*
X183900000Y-78100000D02*
X183900000Y-88800000D01*
X172640000Y-66840000D02*
X183900000Y-78100000D01*
X168400000Y-127700000D02*
X165200000Y-130900000D01*
X172640000Y-63424000D02*
X172640000Y-66840000D01*
X172640000Y-59868000D02*
X172640000Y-63424000D01*
%TO.N,Net-(D1-K)*%
X159700000Y-72700000D02*
X155200000Y-77200000D01*
X159700000Y-61900000D02*
X159700000Y-72700000D01*
X155200000Y-77200000D02*
X155000000Y-77200000D01*
%TO.N,Net-(D1-A)*%
X175840000Y-81660000D02*
X175840000Y-79800000D01*
X174400000Y-83100000D02*
X175840000Y-81660000D01*
X158340000Y-83100000D02*
X174400000Y-83100000D01*
X156040000Y-80800000D02*
X158340000Y-83100000D01*
%TO.N,Net-(D1-K)*%
X153500000Y-78700000D02*
X153500000Y-80800000D01*
X155000000Y-77200000D02*
X153500000Y-78700000D01*
X171200000Y-77200000D02*
X155200000Y-77200000D01*
X173300000Y-79300000D02*
X171200000Y-77200000D01*
X173300000Y-79800000D02*
X173300000Y-79300000D01*
%TD*%
M02*
