%TF.GenerationSoftware,KiCad,Pcbnew,9.0.6*%
%TF.CreationDate,2025-12-07T11:23:18+01:00*%
%TF.ProjectId,Rocket,526f636b-6574-42e6-9b69-6361645f7063,rev?*%
%TF.SameCoordinates,Original*%
%TF.FileFunction,Soldermask,Bot*%
%TF.FilePolarity,Negative*%
%FSLAX46Y46*%
G04 Gerber Fmt 4.6, Leading zero omitted, Abs format (unit mm)*
G04 Created by KiCad (PCBNEW 9.0.6) date 2025-12-07 11:23:18*
%MOMM*%
%LPD*%
G01*
G04 APERTURE LIST*
G04 Aperture macros list*
%AMRoundRect*
0 Rectangle with rounded corners*
0 $1 Rounding radius*
0 $2 $3 $4 $5 $6 $7 $8 $9 X,Y pos of 4 corners*
0 Add a 4 corners polygon primitive as box body*
4,1,4,$2,$3,$4,$5,$6,$7,$8,$9,$2,$3,0*
0 Add four circle primitives for the rounded corners*
1,1,$1+$1,$2,$3*
1,1,$1+$1,$4,$5*
1,1,$1+$1,$6,$7*
1,1,$1+$1,$8,$9*
0 Add four rect primitives between the rounded corners*
20,1,$1+$1,$2,$3,$4,$5,0*
20,1,$1+$1,$4,$5,$6,$7,0*
20,1,$1+$1,$6,$7,$8,$9,0*
20,1,$1+$1,$8,$9,$2,$3,0*%
G04 Aperture macros list end*
%ADD10C,0.200000*%
%ADD11RoundRect,0.200000X-0.900000X-0.900000X0.900000X-0.900000X0.900000X0.900000X-0.900000X0.900000X0*%
%ADD12C,2.200000*%
%ADD13RoundRect,0.200000X-0.750000X-0.750000X0.750000X-0.750000X0.750000X0.750000X-0.750000X0.750000X0*%
%ADD14C,1.900000*%
%ADD15RoundRect,0.200000X-0.800000X-0.800000X0.800000X-0.800000X0.800000X0.800000X-0.800000X0.800000X0*%
%ADD16O,2.000000X2.000000*%
%ADD17C,2.000000*%
%ADD18RoundRect,0.200000X-2.500000X-1.000000X2.500000X-1.000000X2.500000X1.000000X-2.500000X1.000000X0*%
%ADD19C,18.180000*%
%ADD20C,2.400000*%
%ADD21RoundRect,0.312500X-0.687500X-0.687500X0.687500X-0.687500X0.687500X0.687500X-0.687500X0.687500X0*%
G04 APERTURE END LIST*
D10*
X158511279Y-92306028D02*
X158511279Y-90806028D01*
X157654136Y-92306028D02*
X158296993Y-91448885D01*
X157654136Y-90806028D02*
X158511279Y-91663171D01*
X157011279Y-92306028D02*
X157011279Y-90806028D01*
X157011279Y-91520314D02*
X156154136Y-91520314D01*
X156154136Y-92306028D02*
X156154136Y-90806028D01*
X154939850Y-91520314D02*
X155439850Y-91520314D01*
X155439850Y-92306028D02*
X155439850Y-90806028D01*
X155439850Y-90806028D02*
X154725564Y-90806028D01*
X152225564Y-92306028D02*
X153082707Y-92306028D01*
X152654136Y-92306028D02*
X152654136Y-90806028D01*
X152654136Y-90806028D02*
X152796993Y-91020314D01*
X152796993Y-91020314D02*
X152939850Y-91163171D01*
X152939850Y-91163171D02*
X153082707Y-91234600D01*
X151654136Y-90948885D02*
X151582708Y-90877457D01*
X151582708Y-90877457D02*
X151439851Y-90806028D01*
X151439851Y-90806028D02*
X151082708Y-90806028D01*
X151082708Y-90806028D02*
X150939851Y-90877457D01*
X150939851Y-90877457D02*
X150868422Y-90948885D01*
X150868422Y-90948885D02*
X150796993Y-91091742D01*
X150796993Y-91091742D02*
X150796993Y-91234600D01*
X150796993Y-91234600D02*
X150868422Y-91448885D01*
X150868422Y-91448885D02*
X151725565Y-92306028D01*
X151725565Y-92306028D02*
X150796993Y-92306028D01*
X150154137Y-92163171D02*
X150082708Y-92234600D01*
X150082708Y-92234600D02*
X150154137Y-92306028D01*
X150154137Y-92306028D02*
X150225565Y-92234600D01*
X150225565Y-92234600D02*
X150154137Y-92163171D01*
X150154137Y-92163171D02*
X150154137Y-92306028D01*
X149511279Y-90948885D02*
X149439851Y-90877457D01*
X149439851Y-90877457D02*
X149296994Y-90806028D01*
X149296994Y-90806028D02*
X148939851Y-90806028D01*
X148939851Y-90806028D02*
X148796994Y-90877457D01*
X148796994Y-90877457D02*
X148725565Y-90948885D01*
X148725565Y-90948885D02*
X148654136Y-91091742D01*
X148654136Y-91091742D02*
X148654136Y-91234600D01*
X148654136Y-91234600D02*
X148725565Y-91448885D01*
X148725565Y-91448885D02*
X149582708Y-92306028D01*
X149582708Y-92306028D02*
X148654136Y-92306028D01*
X147725565Y-90806028D02*
X147582708Y-90806028D01*
X147582708Y-90806028D02*
X147439851Y-90877457D01*
X147439851Y-90877457D02*
X147368423Y-90948885D01*
X147368423Y-90948885D02*
X147296994Y-91091742D01*
X147296994Y-91091742D02*
X147225565Y-91377457D01*
X147225565Y-91377457D02*
X147225565Y-91734600D01*
X147225565Y-91734600D02*
X147296994Y-92020314D01*
X147296994Y-92020314D02*
X147368423Y-92163171D01*
X147368423Y-92163171D02*
X147439851Y-92234600D01*
X147439851Y-92234600D02*
X147582708Y-92306028D01*
X147582708Y-92306028D02*
X147725565Y-92306028D01*
X147725565Y-92306028D02*
X147868423Y-92234600D01*
X147868423Y-92234600D02*
X147939851Y-92163171D01*
X147939851Y-92163171D02*
X148011280Y-92020314D01*
X148011280Y-92020314D02*
X148082708Y-91734600D01*
X148082708Y-91734600D02*
X148082708Y-91377457D01*
X148082708Y-91377457D02*
X148011280Y-91091742D01*
X148011280Y-91091742D02*
X147939851Y-90948885D01*
X147939851Y-90948885D02*
X147868423Y-90877457D01*
X147868423Y-90877457D02*
X147725565Y-90806028D01*
X146654137Y-90948885D02*
X146582709Y-90877457D01*
X146582709Y-90877457D02*
X146439852Y-90806028D01*
X146439852Y-90806028D02*
X146082709Y-90806028D01*
X146082709Y-90806028D02*
X145939852Y-90877457D01*
X145939852Y-90877457D02*
X145868423Y-90948885D01*
X145868423Y-90948885D02*
X145796994Y-91091742D01*
X145796994Y-91091742D02*
X145796994Y-91234600D01*
X145796994Y-91234600D02*
X145868423Y-91448885D01*
X145868423Y-91448885D02*
X146725566Y-92306028D01*
X146725566Y-92306028D02*
X145796994Y-92306028D01*
X144439852Y-90806028D02*
X145154138Y-90806028D01*
X145154138Y-90806028D02*
X145225566Y-91520314D01*
X145225566Y-91520314D02*
X145154138Y-91448885D01*
X145154138Y-91448885D02*
X145011281Y-91377457D01*
X145011281Y-91377457D02*
X144654138Y-91377457D01*
X144654138Y-91377457D02*
X144511281Y-91448885D01*
X144511281Y-91448885D02*
X144439852Y-91520314D01*
X144439852Y-91520314D02*
X144368423Y-91663171D01*
X144368423Y-91663171D02*
X144368423Y-92020314D01*
X144368423Y-92020314D02*
X144439852Y-92163171D01*
X144439852Y-92163171D02*
X144511281Y-92234600D01*
X144511281Y-92234600D02*
X144654138Y-92306028D01*
X144654138Y-92306028D02*
X145011281Y-92306028D01*
X145011281Y-92306028D02*
X145154138Y-92234600D01*
X145154138Y-92234600D02*
X145225566Y-92163171D01*
D11*
%TO.C,D1*%
X167500000Y-78400000D03*
D12*
X170040000Y-78400000D03*
%TD*%
D13*
%TO.C,T2*%
X165560000Y-116340000D03*
D14*
X168100000Y-113800000D03*
X170640000Y-116340000D03*
%TD*%
D15*
%TO.C,D3*%
X148390000Y-110000000D03*
D16*
X156010000Y-110000000D03*
%TD*%
D17*
%TO.C,R3*%
X126720000Y-132650000D03*
X136880000Y-132650000D03*
%TD*%
D15*
%TO.C,47uF*%
X178700000Y-119600000D03*
D17*
X181200000Y-119600000D03*
%TD*%
%TO.C,R5*%
X126720000Y-124550000D03*
X136880000Y-124550000D03*
%TD*%
%TO.C,R7*%
X126720000Y-116450000D03*
X136880000Y-116450000D03*
%TD*%
D18*
%TO.C,U2*%
X160746000Y-57468000D03*
X160746000Y-61024000D03*
X186640000Y-57468000D03*
X186640000Y-61024000D03*
D19*
X173700000Y-59500000D03*
%TD*%
D17*
%TO.C,R6*%
X126720000Y-120500000D03*
X136880000Y-120500000D03*
%TD*%
D13*
%TO.C,T1*%
X166100000Y-109000000D03*
D14*
X168640000Y-106460000D03*
X171180000Y-109000000D03*
%TD*%
D17*
%TO.C,R1off1*%
X126720000Y-112400000D03*
X136880000Y-112400000D03*
%TD*%
%TO.C,R4*%
X126720000Y-128600000D03*
X136880000Y-128600000D03*
%TD*%
D11*
%TO.C,D2*%
X187300000Y-77400000D03*
D12*
X189840000Y-77400000D03*
%TD*%
D20*
%TO.C,S1*%
X175500000Y-131580000D03*
X175500000Y-129040000D03*
X175500000Y-126500000D03*
%TD*%
D21*
%TO.C,U1*%
X148400000Y-121440000D03*
D17*
X148400000Y-118900000D03*
X148400000Y-116360000D03*
X148400000Y-113820000D03*
X156020000Y-113820000D03*
X156020000Y-116360000D03*
X156020000Y-118900000D03*
X156020000Y-121440000D03*
%TD*%
M02*
