%TF.GenerationSoftware,KiCad,Pcbnew,9.0.6*%
%TF.CreationDate,2025-12-07T11:23:18+01:00*%
%TF.ProjectId,Rocket,526f636b-6574-42e6-9b69-6361645f7063,rev?*%
%TF.SameCoordinates,Original*%
%TF.FileFunction,Copper,L1,Top*%
%TF.FilePolarity,Positive*%
%FSLAX46Y46*%
G04 Gerber Fmt 4.6, Leading zero omitted, Abs format (unit mm)*
G04 Created by KiCad (PCBNEW 9.0.6) date 2025-12-07 11:23:18*
%MOMM*%
%LPD*%
G01*
G04 APERTURE LIST*
G04 Aperture macros list*
%AMRoundRect*
0 Rectangle with rounded corners*
0 $1 Rounding radius*
0 $2 $3 $4 $5 $6 $7 $8 $9 X,Y pos of 4 corners*
0 Add a 4 corners polygon primitive as box body*
4,1,4,$2,$3,$4,$5,$6,$7,$8,$9,$2,$3,0*
0 Add four circle primitives for the rounded corners*
1,1,$1+$1,$2,$3*
1,1,$1+$1,$4,$5*
1,1,$1+$1,$6,$7*
1,1,$1+$1,$8,$9*
0 Add four rect primitives between the rounded corners*
20,1,$1+$1,$2,$3,$4,$5,0*
20,1,$1+$1,$4,$5,$6,$7,0*
20,1,$1+$1,$6,$7,$8,$9,0*
20,1,$1+$1,$8,$9,$2,$3,0*%
G04 Aperture macros list end*
%TA.AperFunction,ComponentPad*%
%ADD10R,1.800000X1.800000*%
%TD*%
%TA.AperFunction,ComponentPad*%
%ADD11C,1.800000*%
%TD*%
%TA.AperFunction,ComponentPad*%
%ADD12R,1.500000X1.500000*%
%TD*%
%TA.AperFunction,ComponentPad*%
%ADD13C,1.500000*%
%TD*%
%TA.AperFunction,ComponentPad*%
%ADD14R,1.600000X1.600000*%
%TD*%
%TA.AperFunction,ComponentPad*%
%ADD15O,1.600000X1.600000*%
%TD*%
%TA.AperFunction,ComponentPad*%
%ADD16C,1.600000*%
%TD*%
%TA.AperFunction,ComponentPad*%
%ADD17C,2.000000*%
%TD*%
%TA.AperFunction,ComponentPad*%
%ADD18RoundRect,0.250000X-0.550000X-0.550000X0.550000X-0.550000X0.550000X0.550000X-0.550000X0.550000X0*%
%TD*%
%TA.AperFunction,Conductor*%
%ADD19C,0.250000*%
%TD*%
G04 APERTURE END LIST*
D10*
%TO.P,D1,1,K*%
%TO.N,Net-(D1-K)*%
X167500000Y-78400000D03*
D11*
%TO.P,D1,2,A*%
%TO.N,Net-(D1-A)*%
X170040000Y-78400000D03*
%TD*%
D12*
%TO.P,T2,1,E*%
%TO.N,Net-(D1-A)*%
X165560000Y-116340000D03*
D13*
%TO.P,T2,2,B*%
%TO.N,Net-(Q1-C)*%
X168100000Y-113800000D03*
%TO.P,T2,3,C*%
%TO.N,Net-(Q2-C)*%
X170640000Y-116340000D03*
%TD*%
D14*
%TO.P,D3,1,K*%
%TO.N,Net-(D3-K)*%
X148390000Y-110000000D03*
D15*
%TO.P,D3,2,A*%
%TO.N,Net-(D3-A)*%
X156010000Y-110000000D03*
%TD*%
D16*
%TO.P,R3,1*%
%TO.N,Net-(D3-K)*%
X126720000Y-132650000D03*
%TO.P,R3,2*%
%TO.N,Net-(Q1-B)*%
X136880000Y-132650000D03*
%TD*%
D14*
%TO.P,47uF,1*%
%TO.N,Net-(D3-K)*%
X178700000Y-119600000D03*
D16*
%TO.P,47uF,2*%
%TO.N,Net-(D1-K)*%
X181200000Y-119600000D03*
%TD*%
%TO.P,R5,1*%
%TO.N,Net-(S1-E)*%
X126720000Y-124550000D03*
%TO.P,R5,2*%
%TO.N,Net-(Q1-C)*%
X136880000Y-124550000D03*
%TD*%
%TO.P,R7,1*%
%TO.N,Net-(D3-K)*%
X126720000Y-116450000D03*
%TO.P,R7,2*%
%TO.N,Net-(D3-A)*%
X136880000Y-116450000D03*
%TD*%
%TO.P,R6,1*%
%TO.N,Net-(S1-E)*%
X126720000Y-120500000D03*
%TO.P,R6,2*%
%TO.N,Net-(Q2-C)*%
X136880000Y-120500000D03*
%TD*%
D12*
%TO.P,T1,1,E*%
%TO.N,Net-(D1-K)*%
X166100000Y-109000000D03*
D13*
%TO.P,T1,2,B*%
%TO.N,Net-(Q1-B)*%
X168640000Y-106460000D03*
%TO.P,T1,3,C*%
%TO.N,Net-(Q1-C)*%
X171180000Y-109000000D03*
%TD*%
D16*
%TO.P,R1off1,1*%
%TO.N,Net-(S1-E)*%
X126720000Y-112400000D03*
%TO.P,R1off1,2*%
%TO.N,Net-(D3-A)*%
X136880000Y-112400000D03*
%TD*%
%TO.P,R4,1*%
%TO.N,Net-(Q1-B)*%
X126720000Y-128600000D03*
%TO.P,R4,2*%
%TO.N,Net-(D1-K)*%
X136880000Y-128600000D03*
%TD*%
D10*
%TO.P,D2,1,K*%
%TO.N,Net-(D1-K)*%
X187300000Y-77400000D03*
D11*
%TO.P,D2,2,A*%
%TO.N,Net-(D1-A)*%
X189840000Y-77400000D03*
%TD*%
D17*
%TO.P,S1,1,A*%
%TO.N,Net-(S1-A-Pad1)*%
X175500000Y-131580000D03*
%TO.P,S1,2,E*%
%TO.N,Net-(S1-E)*%
X175500000Y-129040000D03*
%TO.P,S1,3,A*%
%TO.N,unconnected-(S1-A-Pad3)*%
X175500000Y-126500000D03*
%TD*%
D18*
%TO.P,U1,1,GND*%
%TO.N,Net-(D1-K)*%
X148400000Y-121440000D03*
D16*
%TO.P,U1,2,TR*%
%TO.N,Net-(D3-K)*%
X148400000Y-118900000D03*
%TO.P,U1,3,Q*%
%TO.N,unconnected-(U1-Q-Pad3)*%
X148400000Y-116360000D03*
%TO.P,U1,4,R*%
%TO.N,Net-(S1-E)*%
X148400000Y-113820000D03*
%TO.P,U1,5,CV*%
%TO.N,unconnected-(U1-CV-Pad5)*%
X156020000Y-113820000D03*
%TO.P,U1,6,THR*%
%TO.N,Net-(D3-K)*%
X156020000Y-116360000D03*
%TO.P,U1,7,DIS*%
%TO.N,Net-(D3-A)*%
X156020000Y-118900000D03*
%TO.P,U1,8,VCC*%
%TO.N,Net-(S1-E)*%
X156020000Y-121440000D03*
%TD*%
D19*
%TO.N,Net-(D1-K)*%
X159600000Y-119900000D02*
X159600000Y-123000000D01*
X148900000Y-123200000D02*
X148400000Y-122700000D01*
X166100000Y-113400000D02*
X159600000Y-119900000D01*
X148400000Y-122700000D02*
X148400000Y-121440000D01*
X166100000Y-109000000D02*
X166100000Y-113400000D01*
X148900000Y-123500000D02*
X148900000Y-123200000D01*
X159600000Y-123000000D02*
X159100000Y-123500000D01*
X159100000Y-123500000D02*
X148900000Y-123500000D01*
%TO.N,Net-(D3-K)*%
X128570000Y-118300000D02*
X129600000Y-118300000D01*
X129800000Y-118500000D02*
X129600000Y-118300000D01*
X178700000Y-106300000D02*
X178700000Y-119600000D01*
X161600000Y-113900000D02*
X161600000Y-104300000D01*
X143100000Y-118300000D02*
X143700000Y-117700000D01*
X126720000Y-132650000D02*
X128950000Y-132650000D01*
X156020000Y-116360000D02*
X159140000Y-116360000D01*
X159140000Y-116360000D02*
X161600000Y-113900000D01*
X144600000Y-119000000D02*
X145000000Y-119000000D01*
X151540000Y-116360000D02*
X156020000Y-116360000D01*
X143700000Y-113900000D02*
X143700000Y-117700000D01*
X147600000Y-110000000D02*
X143700000Y-113900000D01*
X128950000Y-132650000D02*
X129800000Y-131800000D01*
X143700000Y-117700000D02*
X143700000Y-118100000D01*
X151300000Y-116600000D02*
X151540000Y-116360000D01*
X145100000Y-118900000D02*
X148400000Y-118900000D01*
X126720000Y-116450000D02*
X128570000Y-118300000D01*
X176700000Y-104300000D02*
X178700000Y-106300000D01*
X143700000Y-118100000D02*
X144600000Y-119000000D01*
X145000000Y-119000000D02*
X145100000Y-118900000D01*
X129600000Y-118300000D02*
X143100000Y-118300000D01*
X161600000Y-104300000D02*
X176700000Y-104300000D01*
%TO.N,Net-(Q2-C)*%
X136880000Y-121880000D02*
X136880000Y-120500000D01*
X170640000Y-116340000D02*
X170640000Y-119860000D01*
X166100000Y-124400000D02*
X139400000Y-124400000D01*
X139400000Y-124400000D02*
X136880000Y-121880000D01*
X170640000Y-119860000D02*
X166100000Y-124400000D01*
%TO.N,Net-(Q1-C)*%
X171900000Y-126200000D02*
X139300000Y-126200000D01*
X138350000Y-124550000D02*
X136880000Y-124550000D01*
X171900000Y-109720000D02*
X171900000Y-126200000D01*
X138500000Y-124700000D02*
X138350000Y-124550000D01*
%TO.N,Net-(Q1-B)*%
X171260000Y-106460000D02*
X173800000Y-109000000D01*
X170950000Y-132650000D02*
X136880000Y-132650000D01*
%TO.N,Net-(Q1-C)*%
X138500000Y-125400000D02*
X138500000Y-124700000D01*
%TO.N,Net-(Q1-B)*%
X173800000Y-129800000D02*
X170950000Y-132650000D01*
%TO.N,Net-(Q1-C)*%
X139300000Y-126200000D02*
X138500000Y-125400000D01*
X171180000Y-109000000D02*
X171900000Y-109720000D01*
%TO.N,Net-(Q1-B)*%
X168640000Y-106460000D02*
X171260000Y-106460000D01*
X173800000Y-109000000D02*
X173800000Y-129800000D01*
%TO.N,Net-(D3-K)*%
X148400000Y-118900000D02*
X150700000Y-116600000D01*
X150700000Y-116600000D02*
X151300000Y-116600000D01*
X148390000Y-110000000D02*
X147600000Y-110000000D01*
X129800000Y-131800000D02*
X129800000Y-118500000D01*
%TD*%
M02*
