%TF.GenerationSoftware,KiCad,Pcbnew,9.0.6*%
%TF.CreationDate,2025-12-13T06:32:17+01:00*%
%TF.ProjectId,Rocket,526f636b-6574-42e6-9b69-6361645f7063,rev?*%
%TF.SameCoordinates,Original*%
%TF.FileFunction,Legend,Bot*%
%TF.FilePolarity,Positive*%
%FSLAX46Y46*%
G04 Gerber Fmt 4.6, Leading zero omitted, Abs format (unit mm)*
G04 Created by KiCad (PCBNEW 9.0.6) date 2025-12-13 06:32:17*
%MOMM*%
%LPD*%
G01*
G04 APERTURE LIST*
%ADD10C,0.150000*%
%ADD11C,0.050000*%
%ADD12C,0.120000*%
%ADD13C,0.010000*%
G04 APERTURE END LIST*
D10*
X170324893Y-120600456D02*
G75*
G02*
X174110850Y-120583927I1885957J1616536D01*
G01*
X167114047Y-130716532D02*
X170900000Y-130700000D01*
X170324894Y-120600456D02*
X174110847Y-120583924D01*
X167114046Y-130716532D02*
G75*
G02*
X170900000Y-130700000I1885954J1616532D01*
G01*
X165063220Y-129046009D02*
X164729887Y-129046009D01*
X164587030Y-129569819D02*
X165063220Y-129569819D01*
X165063220Y-129569819D02*
X165063220Y-128569819D01*
X165063220Y-128569819D02*
X164587030Y-128569819D01*
X172706077Y-113569819D02*
X172134649Y-113569819D01*
X172420363Y-114569819D02*
X172420363Y-113569819D01*
X171277506Y-114569819D02*
X171848934Y-114569819D01*
X171563220Y-114569819D02*
X171563220Y-113569819D01*
X171563220Y-113569819D02*
X171658458Y-113712676D01*
X171658458Y-113712676D02*
X171753696Y-113807914D01*
X171753696Y-113807914D02*
X171848934Y-113855533D01*
X168063220Y-119046009D02*
X167729887Y-119046009D01*
X167587030Y-119569819D02*
X168063220Y-119569819D01*
X168063220Y-119569819D02*
X168063220Y-118569819D01*
X168063220Y-118569819D02*
X167587030Y-118569819D01*
X142261904Y-76545180D02*
X142261904Y-77545180D01*
X141690476Y-76545180D02*
X142119047Y-77116609D01*
X141690476Y-77545180D02*
X142261904Y-76973752D01*
X169706077Y-123569819D02*
X169134649Y-123569819D01*
X169420363Y-124569819D02*
X169420363Y-123569819D01*
X168848934Y-123665057D02*
X168801315Y-123617438D01*
X168801315Y-123617438D02*
X168706077Y-123569819D01*
X168706077Y-123569819D02*
X168467982Y-123569819D01*
X168467982Y-123569819D02*
X168372744Y-123617438D01*
X168372744Y-123617438D02*
X168325125Y-123665057D01*
X168325125Y-123665057D02*
X168277506Y-123760295D01*
X168277506Y-123760295D02*
X168277506Y-123855533D01*
X168277506Y-123855533D02*
X168325125Y-123998390D01*
X168325125Y-123998390D02*
X168896553Y-124569819D01*
X168896553Y-124569819D02*
X168277506Y-124569819D01*
X166761904Y-76745180D02*
X166761904Y-77745180D01*
X166190476Y-76745180D02*
X166619047Y-77316609D01*
X166190476Y-77745180D02*
X166761904Y-77173752D01*
X159176757Y-97728319D02*
X159748185Y-97728319D01*
X159462471Y-97728319D02*
X159462471Y-96728319D01*
X159462471Y-96728319D02*
X159557709Y-96871176D01*
X159557709Y-96871176D02*
X159652947Y-96966414D01*
X159652947Y-96966414D02*
X159748185Y-97014033D01*
X158748185Y-97728319D02*
X158748185Y-96728319D01*
X158748185Y-96728319D02*
X158176757Y-97728319D01*
X158176757Y-97728319D02*
X158176757Y-96728319D01*
X157271995Y-97061652D02*
X157271995Y-97728319D01*
X157510090Y-96680700D02*
X157748185Y-97394985D01*
X157748185Y-97394985D02*
X157129138Y-97394985D01*
X156224376Y-97728319D02*
X156795804Y-97728319D01*
X156510090Y-97728319D02*
X156510090Y-96728319D01*
X156510090Y-96728319D02*
X156605328Y-96871176D01*
X156605328Y-96871176D02*
X156700566Y-96966414D01*
X156700566Y-96966414D02*
X156795804Y-97014033D01*
X155367233Y-97061652D02*
X155367233Y-97728319D01*
X155605328Y-96680700D02*
X155843423Y-97394985D01*
X155843423Y-97394985D02*
X155224376Y-97394985D01*
X154700566Y-97156890D02*
X154795804Y-97109271D01*
X154795804Y-97109271D02*
X154843423Y-97061652D01*
X154843423Y-97061652D02*
X154891042Y-96966414D01*
X154891042Y-96966414D02*
X154891042Y-96918795D01*
X154891042Y-96918795D02*
X154843423Y-96823557D01*
X154843423Y-96823557D02*
X154795804Y-96775938D01*
X154795804Y-96775938D02*
X154700566Y-96728319D01*
X154700566Y-96728319D02*
X154510090Y-96728319D01*
X154510090Y-96728319D02*
X154414852Y-96775938D01*
X154414852Y-96775938D02*
X154367233Y-96823557D01*
X154367233Y-96823557D02*
X154319614Y-96918795D01*
X154319614Y-96918795D02*
X154319614Y-96966414D01*
X154319614Y-96966414D02*
X154367233Y-97061652D01*
X154367233Y-97061652D02*
X154414852Y-97109271D01*
X154414852Y-97109271D02*
X154510090Y-97156890D01*
X154510090Y-97156890D02*
X154700566Y-97156890D01*
X154700566Y-97156890D02*
X154795804Y-97204509D01*
X154795804Y-97204509D02*
X154843423Y-97252128D01*
X154843423Y-97252128D02*
X154891042Y-97347366D01*
X154891042Y-97347366D02*
X154891042Y-97537842D01*
X154891042Y-97537842D02*
X154843423Y-97633080D01*
X154843423Y-97633080D02*
X154795804Y-97680700D01*
X154795804Y-97680700D02*
X154700566Y-97728319D01*
X154700566Y-97728319D02*
X154510090Y-97728319D01*
X154510090Y-97728319D02*
X154414852Y-97680700D01*
X154414852Y-97680700D02*
X154367233Y-97633080D01*
X154367233Y-97633080D02*
X154319614Y-97537842D01*
X154319614Y-97537842D02*
X154319614Y-97347366D01*
X154319614Y-97347366D02*
X154367233Y-97252128D01*
X154367233Y-97252128D02*
X154414852Y-97204509D01*
X154414852Y-97204509D02*
X154510090Y-97156890D01*
X151761904Y-99954819D02*
X151761904Y-98954819D01*
X151190476Y-99954819D02*
X151619047Y-99383390D01*
X151190476Y-98954819D02*
X151761904Y-99526247D01*
X159566666Y-114154819D02*
X159566666Y-113154819D01*
X159566666Y-113154819D02*
X158995238Y-114154819D01*
X158995238Y-114154819D02*
X158995238Y-113154819D01*
X158519047Y-113631009D02*
X158185714Y-113631009D01*
X158042857Y-114154819D02*
X158519047Y-114154819D01*
X158519047Y-114154819D02*
X158519047Y-113154819D01*
X158519047Y-113154819D02*
X158042857Y-113154819D01*
X157138095Y-113154819D02*
X157614285Y-113154819D01*
X157614285Y-113154819D02*
X157661904Y-113631009D01*
X157661904Y-113631009D02*
X157614285Y-113583390D01*
X157614285Y-113583390D02*
X157519047Y-113535771D01*
X157519047Y-113535771D02*
X157280952Y-113535771D01*
X157280952Y-113535771D02*
X157185714Y-113583390D01*
X157185714Y-113583390D02*
X157138095Y-113631009D01*
X157138095Y-113631009D02*
X157090476Y-113726247D01*
X157090476Y-113726247D02*
X157090476Y-113964342D01*
X157090476Y-113964342D02*
X157138095Y-114059580D01*
X157138095Y-114059580D02*
X157185714Y-114107200D01*
X157185714Y-114107200D02*
X157280952Y-114154819D01*
X157280952Y-114154819D02*
X157519047Y-114154819D01*
X157519047Y-114154819D02*
X157614285Y-114107200D01*
X157614285Y-114107200D02*
X157661904Y-114059580D01*
X156185714Y-113154819D02*
X156661904Y-113154819D01*
X156661904Y-113154819D02*
X156709523Y-113631009D01*
X156709523Y-113631009D02*
X156661904Y-113583390D01*
X156661904Y-113583390D02*
X156566666Y-113535771D01*
X156566666Y-113535771D02*
X156328571Y-113535771D01*
X156328571Y-113535771D02*
X156233333Y-113583390D01*
X156233333Y-113583390D02*
X156185714Y-113631009D01*
X156185714Y-113631009D02*
X156138095Y-113726247D01*
X156138095Y-113726247D02*
X156138095Y-113964342D01*
X156138095Y-113964342D02*
X156185714Y-114059580D01*
X156185714Y-114059580D02*
X156233333Y-114107200D01*
X156233333Y-114107200D02*
X156328571Y-114154819D01*
X156328571Y-114154819D02*
X156566666Y-114154819D01*
X156566666Y-114154819D02*
X156661904Y-114107200D01*
X156661904Y-114107200D02*
X156709523Y-114059580D01*
X155233333Y-113154819D02*
X155709523Y-113154819D01*
X155709523Y-113154819D02*
X155757142Y-113631009D01*
X155757142Y-113631009D02*
X155709523Y-113583390D01*
X155709523Y-113583390D02*
X155614285Y-113535771D01*
X155614285Y-113535771D02*
X155376190Y-113535771D01*
X155376190Y-113535771D02*
X155280952Y-113583390D01*
X155280952Y-113583390D02*
X155233333Y-113631009D01*
X155233333Y-113631009D02*
X155185714Y-113726247D01*
X155185714Y-113726247D02*
X155185714Y-113964342D01*
X155185714Y-113964342D02*
X155233333Y-114059580D01*
X155233333Y-114059580D02*
X155280952Y-114107200D01*
X155280952Y-114107200D02*
X155376190Y-114154819D01*
X155376190Y-114154819D02*
X155614285Y-114154819D01*
X155614285Y-114154819D02*
X155709523Y-114107200D01*
X155709523Y-114107200D02*
X155757142Y-114059580D01*
X154757142Y-114154819D02*
X154757142Y-113154819D01*
X154757142Y-113154819D02*
X154376190Y-113154819D01*
X154376190Y-113154819D02*
X154280952Y-113202438D01*
X154280952Y-113202438D02*
X154233333Y-113250057D01*
X154233333Y-113250057D02*
X154185714Y-113345295D01*
X154185714Y-113345295D02*
X154185714Y-113488152D01*
X154185714Y-113488152D02*
X154233333Y-113583390D01*
X154233333Y-113583390D02*
X154280952Y-113631009D01*
X154280952Y-113631009D02*
X154376190Y-113678628D01*
X154376190Y-113678628D02*
X154757142Y-113678628D01*
X137986666Y-123254819D02*
X138319999Y-122778628D01*
X138558094Y-123254819D02*
X138558094Y-122254819D01*
X138558094Y-122254819D02*
X138177142Y-122254819D01*
X138177142Y-122254819D02*
X138081904Y-122302438D01*
X138081904Y-122302438D02*
X138034285Y-122350057D01*
X138034285Y-122350057D02*
X137986666Y-122445295D01*
X137986666Y-122445295D02*
X137986666Y-122588152D01*
X137986666Y-122588152D02*
X138034285Y-122683390D01*
X138034285Y-122683390D02*
X138081904Y-122731009D01*
X138081904Y-122731009D02*
X138177142Y-122778628D01*
X138177142Y-122778628D02*
X138558094Y-122778628D01*
X137081904Y-122254819D02*
X137558094Y-122254819D01*
X137558094Y-122254819D02*
X137605713Y-122731009D01*
X137605713Y-122731009D02*
X137558094Y-122683390D01*
X137558094Y-122683390D02*
X137462856Y-122635771D01*
X137462856Y-122635771D02*
X137224761Y-122635771D01*
X137224761Y-122635771D02*
X137129523Y-122683390D01*
X137129523Y-122683390D02*
X137081904Y-122731009D01*
X137081904Y-122731009D02*
X137034285Y-122826247D01*
X137034285Y-122826247D02*
X137034285Y-123064342D01*
X137034285Y-123064342D02*
X137081904Y-123159580D01*
X137081904Y-123159580D02*
X137129523Y-123207200D01*
X137129523Y-123207200D02*
X137224761Y-123254819D01*
X137224761Y-123254819D02*
X137462856Y-123254819D01*
X137462856Y-123254819D02*
X137558094Y-123207200D01*
X137558094Y-123207200D02*
X137605713Y-123159580D01*
X130590476Y-122888152D02*
X130590476Y-123554819D01*
X130828571Y-122507200D02*
X131066666Y-123221485D01*
X131066666Y-123221485D02*
X130447619Y-123221485D01*
X130066666Y-123554819D02*
X130066666Y-122554819D01*
X129971428Y-123173866D02*
X129685714Y-123554819D01*
X129685714Y-122888152D02*
X130066666Y-123269104D01*
X129352380Y-122554819D02*
X128685714Y-122554819D01*
X128685714Y-122554819D02*
X129114285Y-123554819D01*
X137986666Y-131254819D02*
X138319999Y-130778628D01*
X138558094Y-131254819D02*
X138558094Y-130254819D01*
X138558094Y-130254819D02*
X138177142Y-130254819D01*
X138177142Y-130254819D02*
X138081904Y-130302438D01*
X138081904Y-130302438D02*
X138034285Y-130350057D01*
X138034285Y-130350057D02*
X137986666Y-130445295D01*
X137986666Y-130445295D02*
X137986666Y-130588152D01*
X137986666Y-130588152D02*
X138034285Y-130683390D01*
X138034285Y-130683390D02*
X138081904Y-130731009D01*
X138081904Y-130731009D02*
X138177142Y-130778628D01*
X138177142Y-130778628D02*
X138558094Y-130778628D01*
X137653332Y-130254819D02*
X137034285Y-130254819D01*
X137034285Y-130254819D02*
X137367618Y-130635771D01*
X137367618Y-130635771D02*
X137224761Y-130635771D01*
X137224761Y-130635771D02*
X137129523Y-130683390D01*
X137129523Y-130683390D02*
X137081904Y-130731009D01*
X137081904Y-130731009D02*
X137034285Y-130826247D01*
X137034285Y-130826247D02*
X137034285Y-131064342D01*
X137034285Y-131064342D02*
X137081904Y-131159580D01*
X137081904Y-131159580D02*
X137129523Y-131207200D01*
X137129523Y-131207200D02*
X137224761Y-131254819D01*
X137224761Y-131254819D02*
X137510475Y-131254819D01*
X137510475Y-131254819D02*
X137605713Y-131207200D01*
X137605713Y-131207200D02*
X137653332Y-131159580D01*
X130519047Y-130454819D02*
X130995237Y-130454819D01*
X130995237Y-130454819D02*
X131042856Y-130931009D01*
X131042856Y-130931009D02*
X130995237Y-130883390D01*
X130995237Y-130883390D02*
X130899999Y-130835771D01*
X130899999Y-130835771D02*
X130661904Y-130835771D01*
X130661904Y-130835771D02*
X130566666Y-130883390D01*
X130566666Y-130883390D02*
X130519047Y-130931009D01*
X130519047Y-130931009D02*
X130471428Y-131026247D01*
X130471428Y-131026247D02*
X130471428Y-131264342D01*
X130471428Y-131264342D02*
X130519047Y-131359580D01*
X130519047Y-131359580D02*
X130566666Y-131407200D01*
X130566666Y-131407200D02*
X130661904Y-131454819D01*
X130661904Y-131454819D02*
X130899999Y-131454819D01*
X130899999Y-131454819D02*
X130995237Y-131407200D01*
X130995237Y-131407200D02*
X131042856Y-131359580D01*
X129614285Y-130454819D02*
X129804761Y-130454819D01*
X129804761Y-130454819D02*
X129899999Y-130502438D01*
X129899999Y-130502438D02*
X129947618Y-130550057D01*
X129947618Y-130550057D02*
X130042856Y-130692914D01*
X130042856Y-130692914D02*
X130090475Y-130883390D01*
X130090475Y-130883390D02*
X130090475Y-131264342D01*
X130090475Y-131264342D02*
X130042856Y-131359580D01*
X130042856Y-131359580D02*
X129995237Y-131407200D01*
X129995237Y-131407200D02*
X129899999Y-131454819D01*
X129899999Y-131454819D02*
X129709523Y-131454819D01*
X129709523Y-131454819D02*
X129614285Y-131407200D01*
X129614285Y-131407200D02*
X129566666Y-131359580D01*
X129566666Y-131359580D02*
X129519047Y-131264342D01*
X129519047Y-131264342D02*
X129519047Y-131026247D01*
X129519047Y-131026247D02*
X129566666Y-130931009D01*
X129566666Y-130931009D02*
X129614285Y-130883390D01*
X129614285Y-130883390D02*
X129709523Y-130835771D01*
X129709523Y-130835771D02*
X129899999Y-130835771D01*
X129899999Y-130835771D02*
X129995237Y-130883390D01*
X129995237Y-130883390D02*
X130042856Y-130931009D01*
X130042856Y-130931009D02*
X130090475Y-131026247D01*
X128899999Y-130454819D02*
X128804761Y-130454819D01*
X128804761Y-130454819D02*
X128709523Y-130502438D01*
X128709523Y-130502438D02*
X128661904Y-130550057D01*
X128661904Y-130550057D02*
X128614285Y-130645295D01*
X128614285Y-130645295D02*
X128566666Y-130835771D01*
X128566666Y-130835771D02*
X128566666Y-131073866D01*
X128566666Y-131073866D02*
X128614285Y-131264342D01*
X128614285Y-131264342D02*
X128661904Y-131359580D01*
X128661904Y-131359580D02*
X128709523Y-131407200D01*
X128709523Y-131407200D02*
X128804761Y-131454819D01*
X128804761Y-131454819D02*
X128899999Y-131454819D01*
X128899999Y-131454819D02*
X128995237Y-131407200D01*
X128995237Y-131407200D02*
X129042856Y-131359580D01*
X129042856Y-131359580D02*
X129090475Y-131264342D01*
X129090475Y-131264342D02*
X129138094Y-131073866D01*
X129138094Y-131073866D02*
X129138094Y-130835771D01*
X129138094Y-130835771D02*
X129090475Y-130645295D01*
X129090475Y-130645295D02*
X129042856Y-130550057D01*
X129042856Y-130550057D02*
X128995237Y-130502438D01*
X128995237Y-130502438D02*
X128899999Y-130454819D01*
X128138094Y-131454819D02*
X128138094Y-130454819D01*
X128042856Y-131073866D02*
X127757142Y-131454819D01*
X127757142Y-130788152D02*
X128138094Y-131169104D01*
X157466666Y-123888152D02*
X157466666Y-124554819D01*
X157704761Y-123507200D02*
X157942856Y-124221485D01*
X157942856Y-124221485D02*
X157323809Y-124221485D01*
X157038094Y-123554819D02*
X156371428Y-123554819D01*
X156371428Y-123554819D02*
X156799999Y-124554819D01*
X155561904Y-123888152D02*
X155561904Y-124554819D01*
X155990475Y-123888152D02*
X155990475Y-124411961D01*
X155990475Y-124411961D02*
X155942856Y-124507200D01*
X155942856Y-124507200D02*
X155847618Y-124554819D01*
X155847618Y-124554819D02*
X155704761Y-124554819D01*
X155704761Y-124554819D02*
X155609523Y-124507200D01*
X155609523Y-124507200D02*
X155561904Y-124459580D01*
X154752380Y-124031009D02*
X155085713Y-124031009D01*
X155085713Y-124554819D02*
X155085713Y-123554819D01*
X155085713Y-123554819D02*
X154609523Y-123554819D01*
D11*
X158869714Y-47352019D02*
X158869714Y-48161542D01*
X158869714Y-48161542D02*
X158826857Y-48256780D01*
X158826857Y-48256780D02*
X158784000Y-48304400D01*
X158784000Y-48304400D02*
X158698285Y-48352019D01*
X158698285Y-48352019D02*
X158526857Y-48352019D01*
X158526857Y-48352019D02*
X158441142Y-48304400D01*
X158441142Y-48304400D02*
X158398285Y-48256780D01*
X158398285Y-48256780D02*
X158355428Y-48161542D01*
X158355428Y-48161542D02*
X158355428Y-47352019D01*
X157969714Y-47447257D02*
X157926857Y-47399638D01*
X157926857Y-47399638D02*
X157841143Y-47352019D01*
X157841143Y-47352019D02*
X157626857Y-47352019D01*
X157626857Y-47352019D02*
X157541143Y-47399638D01*
X157541143Y-47399638D02*
X157498285Y-47447257D01*
X157498285Y-47447257D02*
X157455428Y-47542495D01*
X157455428Y-47542495D02*
X157455428Y-47637733D01*
X157455428Y-47637733D02*
X157498285Y-47780590D01*
X157498285Y-47780590D02*
X158012571Y-48352019D01*
X158012571Y-48352019D02*
X157455428Y-48352019D01*
X157462570Y-51948209D02*
X157333998Y-51995828D01*
X157333998Y-51995828D02*
X157291141Y-52043447D01*
X157291141Y-52043447D02*
X157248284Y-52138685D01*
X157248284Y-52138685D02*
X157248284Y-52281542D01*
X157248284Y-52281542D02*
X157291141Y-52376780D01*
X157291141Y-52376780D02*
X157333998Y-52424400D01*
X157333998Y-52424400D02*
X157419713Y-52472019D01*
X157419713Y-52472019D02*
X157762570Y-52472019D01*
X157762570Y-52472019D02*
X157762570Y-51472019D01*
X157762570Y-51472019D02*
X157462570Y-51472019D01*
X157462570Y-51472019D02*
X157376856Y-51519638D01*
X157376856Y-51519638D02*
X157333998Y-51567257D01*
X157333998Y-51567257D02*
X157291141Y-51662495D01*
X157291141Y-51662495D02*
X157291141Y-51757733D01*
X157291141Y-51757733D02*
X157333998Y-51852971D01*
X157333998Y-51852971D02*
X157376856Y-51900590D01*
X157376856Y-51900590D02*
X157462570Y-51948209D01*
X157462570Y-51948209D02*
X157762570Y-51948209D01*
X156905427Y-52186304D02*
X156476856Y-52186304D01*
X156991141Y-52472019D02*
X156691141Y-51472019D01*
X156691141Y-51472019D02*
X156391141Y-52472019D01*
X156219712Y-51472019D02*
X155705427Y-51472019D01*
X155962569Y-52472019D02*
X155962569Y-51472019D01*
X155619713Y-52567257D02*
X154933998Y-52567257D01*
X154719713Y-52472019D02*
X154719713Y-51472019D01*
X154719713Y-51948209D02*
X154205427Y-51948209D01*
X154205427Y-52472019D02*
X154205427Y-51472019D01*
X153348284Y-52472019D02*
X153776856Y-52472019D01*
X153776856Y-52472019D02*
X153776856Y-51472019D01*
X153048285Y-52472019D02*
X153048285Y-51472019D01*
X153048285Y-51472019D02*
X152833999Y-51472019D01*
X152833999Y-51472019D02*
X152705428Y-51519638D01*
X152705428Y-51519638D02*
X152619713Y-51614876D01*
X152619713Y-51614876D02*
X152576856Y-51710114D01*
X152576856Y-51710114D02*
X152533999Y-51900590D01*
X152533999Y-51900590D02*
X152533999Y-52043447D01*
X152533999Y-52043447D02*
X152576856Y-52233923D01*
X152576856Y-52233923D02*
X152619713Y-52329161D01*
X152619713Y-52329161D02*
X152705428Y-52424400D01*
X152705428Y-52424400D02*
X152833999Y-52472019D01*
X152833999Y-52472019D02*
X153048285Y-52472019D01*
X152362571Y-52567257D02*
X151676856Y-52567257D01*
X151505428Y-52424400D02*
X151376857Y-52472019D01*
X151376857Y-52472019D02*
X151162571Y-52472019D01*
X151162571Y-52472019D02*
X151076857Y-52424400D01*
X151076857Y-52424400D02*
X151033999Y-52376780D01*
X151033999Y-52376780D02*
X150991142Y-52281542D01*
X150991142Y-52281542D02*
X150991142Y-52186304D01*
X150991142Y-52186304D02*
X151033999Y-52091066D01*
X151033999Y-52091066D02*
X151076857Y-52043447D01*
X151076857Y-52043447D02*
X151162571Y-51995828D01*
X151162571Y-51995828D02*
X151333999Y-51948209D01*
X151333999Y-51948209D02*
X151419714Y-51900590D01*
X151419714Y-51900590D02*
X151462571Y-51852971D01*
X151462571Y-51852971D02*
X151505428Y-51757733D01*
X151505428Y-51757733D02*
X151505428Y-51662495D01*
X151505428Y-51662495D02*
X151462571Y-51567257D01*
X151462571Y-51567257D02*
X151419714Y-51519638D01*
X151419714Y-51519638D02*
X151333999Y-51472019D01*
X151333999Y-51472019D02*
X151119714Y-51472019D01*
X151119714Y-51472019D02*
X150991142Y-51519638D01*
X150605428Y-52472019D02*
X150605428Y-51472019D01*
X150605428Y-51472019D02*
X150305428Y-52186304D01*
X150305428Y-52186304D02*
X150005428Y-51472019D01*
X150005428Y-51472019D02*
X150005428Y-52472019D01*
X149576857Y-52472019D02*
X149576857Y-51472019D01*
X149576857Y-51472019D02*
X149362571Y-51472019D01*
X149362571Y-51472019D02*
X149234000Y-51519638D01*
X149234000Y-51519638D02*
X149148285Y-51614876D01*
X149148285Y-51614876D02*
X149105428Y-51710114D01*
X149105428Y-51710114D02*
X149062571Y-51900590D01*
X149062571Y-51900590D02*
X149062571Y-52043447D01*
X149062571Y-52043447D02*
X149105428Y-52233923D01*
X149105428Y-52233923D02*
X149148285Y-52329161D01*
X149148285Y-52329161D02*
X149234000Y-52424400D01*
X149234000Y-52424400D02*
X149362571Y-52472019D01*
X149362571Y-52472019D02*
X149576857Y-52472019D01*
D10*
X137966666Y-127254819D02*
X138299999Y-126778628D01*
X138538094Y-127254819D02*
X138538094Y-126254819D01*
X138538094Y-126254819D02*
X138157142Y-126254819D01*
X138157142Y-126254819D02*
X138061904Y-126302438D01*
X138061904Y-126302438D02*
X138014285Y-126350057D01*
X138014285Y-126350057D02*
X137966666Y-126445295D01*
X137966666Y-126445295D02*
X137966666Y-126588152D01*
X137966666Y-126588152D02*
X138014285Y-126683390D01*
X138014285Y-126683390D02*
X138061904Y-126731009D01*
X138061904Y-126731009D02*
X138157142Y-126778628D01*
X138157142Y-126778628D02*
X138538094Y-126778628D01*
X137109523Y-126588152D02*
X137109523Y-127254819D01*
X137347618Y-126207200D02*
X137585713Y-126921485D01*
X137585713Y-126921485D02*
X136966666Y-126921485D01*
X131090475Y-126554819D02*
X130471428Y-126554819D01*
X130471428Y-126554819D02*
X130804761Y-126935771D01*
X130804761Y-126935771D02*
X130661904Y-126935771D01*
X130661904Y-126935771D02*
X130566666Y-126983390D01*
X130566666Y-126983390D02*
X130519047Y-127031009D01*
X130519047Y-127031009D02*
X130471428Y-127126247D01*
X130471428Y-127126247D02*
X130471428Y-127364342D01*
X130471428Y-127364342D02*
X130519047Y-127459580D01*
X130519047Y-127459580D02*
X130566666Y-127507200D01*
X130566666Y-127507200D02*
X130661904Y-127554819D01*
X130661904Y-127554819D02*
X130947618Y-127554819D01*
X130947618Y-127554819D02*
X131042856Y-127507200D01*
X131042856Y-127507200D02*
X131090475Y-127459580D01*
X129995237Y-127554819D02*
X129804761Y-127554819D01*
X129804761Y-127554819D02*
X129709523Y-127507200D01*
X129709523Y-127507200D02*
X129661904Y-127459580D01*
X129661904Y-127459580D02*
X129566666Y-127316723D01*
X129566666Y-127316723D02*
X129519047Y-127126247D01*
X129519047Y-127126247D02*
X129519047Y-126745295D01*
X129519047Y-126745295D02*
X129566666Y-126650057D01*
X129566666Y-126650057D02*
X129614285Y-126602438D01*
X129614285Y-126602438D02*
X129709523Y-126554819D01*
X129709523Y-126554819D02*
X129899999Y-126554819D01*
X129899999Y-126554819D02*
X129995237Y-126602438D01*
X129995237Y-126602438D02*
X130042856Y-126650057D01*
X130042856Y-126650057D02*
X130090475Y-126745295D01*
X130090475Y-126745295D02*
X130090475Y-126983390D01*
X130090475Y-126983390D02*
X130042856Y-127078628D01*
X130042856Y-127078628D02*
X129995237Y-127126247D01*
X129995237Y-127126247D02*
X129899999Y-127173866D01*
X129899999Y-127173866D02*
X129709523Y-127173866D01*
X129709523Y-127173866D02*
X129614285Y-127126247D01*
X129614285Y-127126247D02*
X129566666Y-127078628D01*
X129566666Y-127078628D02*
X129519047Y-126983390D01*
X128899999Y-126554819D02*
X128804761Y-126554819D01*
X128804761Y-126554819D02*
X128709523Y-126602438D01*
X128709523Y-126602438D02*
X128661904Y-126650057D01*
X128661904Y-126650057D02*
X128614285Y-126745295D01*
X128614285Y-126745295D02*
X128566666Y-126935771D01*
X128566666Y-126935771D02*
X128566666Y-127173866D01*
X128566666Y-127173866D02*
X128614285Y-127364342D01*
X128614285Y-127364342D02*
X128661904Y-127459580D01*
X128661904Y-127459580D02*
X128709523Y-127507200D01*
X128709523Y-127507200D02*
X128804761Y-127554819D01*
X128804761Y-127554819D02*
X128899999Y-127554819D01*
X128899999Y-127554819D02*
X128995237Y-127507200D01*
X128995237Y-127507200D02*
X129042856Y-127459580D01*
X129042856Y-127459580D02*
X129090475Y-127364342D01*
X129090475Y-127364342D02*
X129138094Y-127173866D01*
X129138094Y-127173866D02*
X129138094Y-126935771D01*
X129138094Y-126935771D02*
X129090475Y-126745295D01*
X129090475Y-126745295D02*
X129042856Y-126650057D01*
X129042856Y-126650057D02*
X128995237Y-126602438D01*
X128995237Y-126602438D02*
X128899999Y-126554819D01*
X128138094Y-127554819D02*
X128138094Y-126554819D01*
X128042856Y-127173866D02*
X127757142Y-127554819D01*
X127757142Y-126888152D02*
X128138094Y-127269104D01*
X137986666Y-111154819D02*
X138319999Y-110678628D01*
X138558094Y-111154819D02*
X138558094Y-110154819D01*
X138558094Y-110154819D02*
X138177142Y-110154819D01*
X138177142Y-110154819D02*
X138081904Y-110202438D01*
X138081904Y-110202438D02*
X138034285Y-110250057D01*
X138034285Y-110250057D02*
X137986666Y-110345295D01*
X137986666Y-110345295D02*
X137986666Y-110488152D01*
X137986666Y-110488152D02*
X138034285Y-110583390D01*
X138034285Y-110583390D02*
X138081904Y-110631009D01*
X138081904Y-110631009D02*
X138177142Y-110678628D01*
X138177142Y-110678628D02*
X138558094Y-110678628D01*
X137415237Y-110583390D02*
X137510475Y-110535771D01*
X137510475Y-110535771D02*
X137558094Y-110488152D01*
X137558094Y-110488152D02*
X137605713Y-110392914D01*
X137605713Y-110392914D02*
X137605713Y-110345295D01*
X137605713Y-110345295D02*
X137558094Y-110250057D01*
X137558094Y-110250057D02*
X137510475Y-110202438D01*
X137510475Y-110202438D02*
X137415237Y-110154819D01*
X137415237Y-110154819D02*
X137224761Y-110154819D01*
X137224761Y-110154819D02*
X137129523Y-110202438D01*
X137129523Y-110202438D02*
X137081904Y-110250057D01*
X137081904Y-110250057D02*
X137034285Y-110345295D01*
X137034285Y-110345295D02*
X137034285Y-110392914D01*
X137034285Y-110392914D02*
X137081904Y-110488152D01*
X137081904Y-110488152D02*
X137129523Y-110535771D01*
X137129523Y-110535771D02*
X137224761Y-110583390D01*
X137224761Y-110583390D02*
X137415237Y-110583390D01*
X137415237Y-110583390D02*
X137510475Y-110631009D01*
X137510475Y-110631009D02*
X137558094Y-110678628D01*
X137558094Y-110678628D02*
X137605713Y-110773866D01*
X137605713Y-110773866D02*
X137605713Y-110964342D01*
X137605713Y-110964342D02*
X137558094Y-111059580D01*
X137558094Y-111059580D02*
X137510475Y-111107200D01*
X137510475Y-111107200D02*
X137415237Y-111154819D01*
X137415237Y-111154819D02*
X137224761Y-111154819D01*
X137224761Y-111154819D02*
X137129523Y-111107200D01*
X137129523Y-111107200D02*
X137081904Y-111059580D01*
X137081904Y-111059580D02*
X137034285Y-110964342D01*
X137034285Y-110964342D02*
X137034285Y-110773866D01*
X137034285Y-110773866D02*
X137081904Y-110678628D01*
X137081904Y-110678628D02*
X137129523Y-110631009D01*
X137129523Y-110631009D02*
X137224761Y-110583390D01*
X130490476Y-111254819D02*
X131061904Y-111254819D01*
X130776190Y-111254819D02*
X130776190Y-110254819D01*
X130776190Y-110254819D02*
X130871428Y-110397676D01*
X130871428Y-110397676D02*
X130966666Y-110492914D01*
X130966666Y-110492914D02*
X131061904Y-110540533D01*
X130109523Y-110350057D02*
X130061904Y-110302438D01*
X130061904Y-110302438D02*
X129966666Y-110254819D01*
X129966666Y-110254819D02*
X129728571Y-110254819D01*
X129728571Y-110254819D02*
X129633333Y-110302438D01*
X129633333Y-110302438D02*
X129585714Y-110350057D01*
X129585714Y-110350057D02*
X129538095Y-110445295D01*
X129538095Y-110445295D02*
X129538095Y-110540533D01*
X129538095Y-110540533D02*
X129585714Y-110683390D01*
X129585714Y-110683390D02*
X130157142Y-111254819D01*
X130157142Y-111254819D02*
X129538095Y-111254819D01*
X129109523Y-111254819D02*
X129109523Y-110254819D01*
X128538095Y-111254819D02*
X128966666Y-110683390D01*
X128538095Y-110254819D02*
X129109523Y-110826247D01*
X138066666Y-115154819D02*
X138399999Y-114678628D01*
X138638094Y-115154819D02*
X138638094Y-114154819D01*
X138638094Y-114154819D02*
X138257142Y-114154819D01*
X138257142Y-114154819D02*
X138161904Y-114202438D01*
X138161904Y-114202438D02*
X138114285Y-114250057D01*
X138114285Y-114250057D02*
X138066666Y-114345295D01*
X138066666Y-114345295D02*
X138066666Y-114488152D01*
X138066666Y-114488152D02*
X138114285Y-114583390D01*
X138114285Y-114583390D02*
X138161904Y-114631009D01*
X138161904Y-114631009D02*
X138257142Y-114678628D01*
X138257142Y-114678628D02*
X138638094Y-114678628D01*
X137733332Y-114154819D02*
X137066666Y-114154819D01*
X137066666Y-114154819D02*
X137495237Y-115154819D01*
X130490476Y-115254819D02*
X131061904Y-115254819D01*
X130776190Y-115254819D02*
X130776190Y-114254819D01*
X130776190Y-114254819D02*
X130871428Y-114397676D01*
X130871428Y-114397676D02*
X130966666Y-114492914D01*
X130966666Y-114492914D02*
X131061904Y-114540533D01*
X129633333Y-114254819D02*
X129823809Y-114254819D01*
X129823809Y-114254819D02*
X129919047Y-114302438D01*
X129919047Y-114302438D02*
X129966666Y-114350057D01*
X129966666Y-114350057D02*
X130061904Y-114492914D01*
X130061904Y-114492914D02*
X130109523Y-114683390D01*
X130109523Y-114683390D02*
X130109523Y-115064342D01*
X130109523Y-115064342D02*
X130061904Y-115159580D01*
X130061904Y-115159580D02*
X130014285Y-115207200D01*
X130014285Y-115207200D02*
X129919047Y-115254819D01*
X129919047Y-115254819D02*
X129728571Y-115254819D01*
X129728571Y-115254819D02*
X129633333Y-115207200D01*
X129633333Y-115207200D02*
X129585714Y-115159580D01*
X129585714Y-115159580D02*
X129538095Y-115064342D01*
X129538095Y-115064342D02*
X129538095Y-114826247D01*
X129538095Y-114826247D02*
X129585714Y-114731009D01*
X129585714Y-114731009D02*
X129633333Y-114683390D01*
X129633333Y-114683390D02*
X129728571Y-114635771D01*
X129728571Y-114635771D02*
X129919047Y-114635771D01*
X129919047Y-114635771D02*
X130014285Y-114683390D01*
X130014285Y-114683390D02*
X130061904Y-114731009D01*
X130061904Y-114731009D02*
X130109523Y-114826247D01*
X129109523Y-115254819D02*
X129109523Y-114254819D01*
X128538095Y-115254819D02*
X128966666Y-114683390D01*
X128538095Y-114254819D02*
X129109523Y-114826247D01*
X137966666Y-119154819D02*
X138299999Y-118678628D01*
X138538094Y-119154819D02*
X138538094Y-118154819D01*
X138538094Y-118154819D02*
X138157142Y-118154819D01*
X138157142Y-118154819D02*
X138061904Y-118202438D01*
X138061904Y-118202438D02*
X138014285Y-118250057D01*
X138014285Y-118250057D02*
X137966666Y-118345295D01*
X137966666Y-118345295D02*
X137966666Y-118488152D01*
X137966666Y-118488152D02*
X138014285Y-118583390D01*
X138014285Y-118583390D02*
X138061904Y-118631009D01*
X138061904Y-118631009D02*
X138157142Y-118678628D01*
X138157142Y-118678628D02*
X138538094Y-118678628D01*
X137109523Y-118154819D02*
X137299999Y-118154819D01*
X137299999Y-118154819D02*
X137395237Y-118202438D01*
X137395237Y-118202438D02*
X137442856Y-118250057D01*
X137442856Y-118250057D02*
X137538094Y-118392914D01*
X137538094Y-118392914D02*
X137585713Y-118583390D01*
X137585713Y-118583390D02*
X137585713Y-118964342D01*
X137585713Y-118964342D02*
X137538094Y-119059580D01*
X137538094Y-119059580D02*
X137490475Y-119107200D01*
X137490475Y-119107200D02*
X137395237Y-119154819D01*
X137395237Y-119154819D02*
X137204761Y-119154819D01*
X137204761Y-119154819D02*
X137109523Y-119107200D01*
X137109523Y-119107200D02*
X137061904Y-119059580D01*
X137061904Y-119059580D02*
X137014285Y-118964342D01*
X137014285Y-118964342D02*
X137014285Y-118726247D01*
X137014285Y-118726247D02*
X137061904Y-118631009D01*
X137061904Y-118631009D02*
X137109523Y-118583390D01*
X137109523Y-118583390D02*
X137204761Y-118535771D01*
X137204761Y-118535771D02*
X137395237Y-118535771D01*
X137395237Y-118535771D02*
X137490475Y-118583390D01*
X137490475Y-118583390D02*
X137538094Y-118631009D01*
X137538094Y-118631009D02*
X137585713Y-118726247D01*
X130490476Y-119254819D02*
X131061904Y-119254819D01*
X130776190Y-119254819D02*
X130776190Y-118254819D01*
X130776190Y-118254819D02*
X130871428Y-118397676D01*
X130871428Y-118397676D02*
X130966666Y-118492914D01*
X130966666Y-118492914D02*
X131061904Y-118540533D01*
X129871428Y-118254819D02*
X129776190Y-118254819D01*
X129776190Y-118254819D02*
X129680952Y-118302438D01*
X129680952Y-118302438D02*
X129633333Y-118350057D01*
X129633333Y-118350057D02*
X129585714Y-118445295D01*
X129585714Y-118445295D02*
X129538095Y-118635771D01*
X129538095Y-118635771D02*
X129538095Y-118873866D01*
X129538095Y-118873866D02*
X129585714Y-119064342D01*
X129585714Y-119064342D02*
X129633333Y-119159580D01*
X129633333Y-119159580D02*
X129680952Y-119207200D01*
X129680952Y-119207200D02*
X129776190Y-119254819D01*
X129776190Y-119254819D02*
X129871428Y-119254819D01*
X129871428Y-119254819D02*
X129966666Y-119207200D01*
X129966666Y-119207200D02*
X130014285Y-119159580D01*
X130014285Y-119159580D02*
X130061904Y-119064342D01*
X130061904Y-119064342D02*
X130109523Y-118873866D01*
X130109523Y-118873866D02*
X130109523Y-118635771D01*
X130109523Y-118635771D02*
X130061904Y-118445295D01*
X130061904Y-118445295D02*
X130014285Y-118350057D01*
X130014285Y-118350057D02*
X129966666Y-118302438D01*
X129966666Y-118302438D02*
X129871428Y-118254819D01*
X128538095Y-119254819D02*
X128871428Y-118778628D01*
X129109523Y-119254819D02*
X129109523Y-118254819D01*
X129109523Y-118254819D02*
X128728571Y-118254819D01*
X128728571Y-118254819D02*
X128633333Y-118302438D01*
X128633333Y-118302438D02*
X128585714Y-118350057D01*
X128585714Y-118350057D02*
X128538095Y-118445295D01*
X128538095Y-118445295D02*
X128538095Y-118588152D01*
X128538095Y-118588152D02*
X128585714Y-118683390D01*
X128585714Y-118683390D02*
X128633333Y-118731009D01*
X128633333Y-118731009D02*
X128728571Y-118778628D01*
X128728571Y-118778628D02*
X129109523Y-118778628D01*
X182961904Y-106567200D02*
X182819047Y-106614819D01*
X182819047Y-106614819D02*
X182580952Y-106614819D01*
X182580952Y-106614819D02*
X182485714Y-106567200D01*
X182485714Y-106567200D02*
X182438095Y-106519580D01*
X182438095Y-106519580D02*
X182390476Y-106424342D01*
X182390476Y-106424342D02*
X182390476Y-106329104D01*
X182390476Y-106329104D02*
X182438095Y-106233866D01*
X182438095Y-106233866D02*
X182485714Y-106186247D01*
X182485714Y-106186247D02*
X182580952Y-106138628D01*
X182580952Y-106138628D02*
X182771428Y-106091009D01*
X182771428Y-106091009D02*
X182866666Y-106043390D01*
X182866666Y-106043390D02*
X182914285Y-105995771D01*
X182914285Y-105995771D02*
X182961904Y-105900533D01*
X182961904Y-105900533D02*
X182961904Y-105805295D01*
X182961904Y-105805295D02*
X182914285Y-105710057D01*
X182914285Y-105710057D02*
X182866666Y-105662438D01*
X182866666Y-105662438D02*
X182771428Y-105614819D01*
X182771428Y-105614819D02*
X182533333Y-105614819D01*
X182533333Y-105614819D02*
X182390476Y-105662438D01*
X181438095Y-106614819D02*
X182009523Y-106614819D01*
X181723809Y-106614819D02*
X181723809Y-105614819D01*
X181723809Y-105614819D02*
X181819047Y-105757676D01*
X181819047Y-105757676D02*
X181914285Y-105852914D01*
X181914285Y-105852914D02*
X182009523Y-105900533D01*
D11*
%TO.C,G\u002A\u002A\u002A*%
X150125000Y-72750000D02*
X150700000Y-73225000D01*
X150700000Y-73225000D02*
X151125000Y-72900000D01*
X151125000Y-72900000D02*
X150125000Y-72750000D01*
D12*
X151450000Y-74338605D02*
X152350000Y-74325000D01*
X151849999Y-75720050D02*
X151449999Y-75720050D01*
X151850000Y-74725000D02*
X151600000Y-74725000D01*
X151850000Y-74775000D02*
X151850000Y-75225000D01*
X151850000Y-75225000D02*
X151550000Y-75225000D01*
X151850000Y-75725000D02*
X151850000Y-76225000D01*
X151850000Y-76225000D02*
X151400000Y-76225000D01*
D11*
X152075000Y-72025000D02*
X152425000Y-70850000D01*
D12*
X152350000Y-74325000D02*
X152400000Y-76775000D01*
X152400000Y-76775000D02*
X151200000Y-76775000D01*
D11*
X152425000Y-70850000D02*
X154225000Y-70900000D01*
D12*
X152675000Y-76775000D02*
X153450000Y-74325000D01*
X153075000Y-76775000D02*
X152675000Y-76775000D01*
X153325000Y-76175000D02*
X153075000Y-76775000D01*
X153400000Y-75775000D02*
X153625000Y-75025000D01*
X153450000Y-74325000D02*
X153775000Y-74325000D01*
X153625000Y-75025000D02*
X153900000Y-75775000D01*
D11*
X153650000Y-72950000D02*
X155325000Y-73050000D01*
D12*
X153775000Y-74325000D02*
X154675000Y-76775000D01*
X153900000Y-75775000D02*
X153400000Y-75775000D01*
X153925000Y-76175000D02*
X153325000Y-76175000D01*
X154175000Y-76775000D02*
X153925000Y-76175000D01*
X154175000Y-76775000D02*
X154675000Y-76775000D01*
D11*
X154225000Y-70900000D02*
X152075000Y-72025000D01*
X154350000Y-72375000D02*
X153650000Y-72950000D01*
D12*
X154850000Y-76300000D02*
X154850000Y-76750000D01*
X154850000Y-76750000D02*
X156100000Y-76750000D01*
D11*
X155350000Y-73050000D02*
X154350000Y-72375000D01*
X155500000Y-72600000D02*
X157125000Y-73725000D01*
X155550000Y-70275000D02*
X156675000Y-71500000D01*
X155575000Y-69875000D02*
X155500000Y-72600000D01*
D12*
X155600000Y-76300000D02*
X154850000Y-76300000D01*
X155625000Y-74300000D02*
X155600000Y-76300000D01*
X156075000Y-74300000D02*
X155625000Y-74300000D01*
X156100000Y-76750000D02*
X156075000Y-74300000D01*
X156275000Y-76750000D02*
X156975000Y-75800000D01*
X156375000Y-76750000D02*
X156275000Y-76750000D01*
D11*
X156675000Y-71500000D02*
X156100000Y-73000000D01*
D12*
X156775000Y-76750000D02*
X156375000Y-76750000D01*
X157016269Y-74294594D02*
X158125000Y-74300000D01*
D11*
X157125000Y-73725000D02*
X158800000Y-73500000D01*
D12*
X157175000Y-74750000D02*
X157625000Y-74750000D01*
X157525000Y-75800000D02*
X156775000Y-76750000D01*
X157625000Y-74750000D02*
X157625000Y-75300000D01*
X157625000Y-75300000D02*
X157125000Y-75300000D01*
X157675000Y-75800000D02*
X157525000Y-75800000D01*
X157675000Y-76750000D02*
X157675000Y-75800000D01*
X158125000Y-74300000D02*
X158125000Y-76750000D01*
X158125000Y-76750000D02*
X157675000Y-76750000D01*
D11*
X158275000Y-73950000D02*
X159250000Y-74300000D01*
D12*
X158575000Y-74300000D02*
X159875000Y-74300000D01*
X158575000Y-74800000D02*
X158575000Y-74300000D01*
X158575000Y-76250000D02*
X159425000Y-76250000D01*
X158575000Y-76750000D02*
X158575000Y-76250000D01*
D11*
X158675000Y-73675000D02*
X158275000Y-73950000D01*
D12*
X158775000Y-75250000D02*
X159425000Y-75250000D01*
X158775000Y-75700000D02*
X158775000Y-75250000D01*
D11*
X158800000Y-73500000D02*
X160625000Y-74400000D01*
X159050000Y-71500000D02*
X155575000Y-69875000D01*
X159050000Y-71500000D02*
X161375000Y-72650000D01*
D12*
X159425000Y-74800000D02*
X158575000Y-74800000D01*
X159425000Y-75250000D02*
X159425000Y-74800000D01*
X159425000Y-75700000D02*
X158775000Y-75700000D01*
X159425000Y-76250000D02*
X159425000Y-75700000D01*
D11*
X159450000Y-74275000D02*
X158675000Y-73675000D01*
X159800000Y-70075000D02*
X159050000Y-71500000D01*
X159800000Y-70075000D02*
X162000000Y-71250000D01*
D12*
X159825000Y-76750000D02*
X158575000Y-76750000D01*
X159875000Y-74300000D02*
X159925000Y-76750000D01*
X159925000Y-76750000D02*
X159825000Y-76750000D01*
X161025000Y-74313605D02*
X161925000Y-74300000D01*
D11*
X161375000Y-72650000D02*
X162850000Y-74375000D01*
X161375000Y-72650000D02*
X167025000Y-75500000D01*
D12*
X161424999Y-75695050D02*
X161024999Y-75695050D01*
X161425000Y-74700000D02*
X161175000Y-74700000D01*
X161425000Y-74750000D02*
X161425000Y-75200000D01*
X161425000Y-75200000D02*
X161125000Y-75200000D01*
X161425000Y-75700000D02*
X161425000Y-76200000D01*
X161425000Y-76200000D02*
X160975000Y-76200000D01*
X161925000Y-74300000D02*
X161975000Y-76750000D01*
X161975000Y-76750000D02*
X160775000Y-76750000D01*
D11*
X162000000Y-71250000D02*
X160425000Y-72150000D01*
X162100000Y-71075000D02*
X161375000Y-72650000D01*
D12*
X162375000Y-75150000D02*
X162375000Y-75850000D01*
D11*
X162675000Y-74475000D02*
X155575000Y-69875000D01*
D12*
X162875000Y-75150000D02*
X162875000Y-75800000D01*
D11*
X163125000Y-71325000D02*
X161375000Y-72650000D01*
X163125000Y-71325000D02*
X162100000Y-71075000D01*
X163200000Y-75400000D02*
X163575000Y-75575000D01*
X163525000Y-75000000D02*
X163200000Y-75400000D01*
D12*
X163575000Y-75150000D02*
X163575000Y-75850000D01*
D11*
X164075000Y-75750000D02*
X164625000Y-76025000D01*
D12*
X164075000Y-75850000D02*
X164075000Y-75150000D01*
D11*
X164125000Y-75025000D02*
X164350000Y-75650000D01*
X164350000Y-75650000D02*
X167025000Y-75500000D01*
X164625000Y-76025000D02*
X164050000Y-75225000D01*
X165700000Y-75975000D02*
X164875000Y-75625000D01*
X167025000Y-75500000D02*
X163125000Y-71325000D01*
X167025000Y-75500000D02*
X164125000Y-75025000D01*
X167025000Y-75500000D02*
X165700000Y-75975000D01*
D12*
X151000001Y-75424999D02*
G75*
G02*
X151450000Y-74338605I449999J449999D01*
G01*
X151200001Y-76774999D02*
G75*
G02*
X151023744Y-75466063I249998J699999D01*
G01*
X151400001Y-76224999D02*
G75*
G02*
X151449999Y-75720050I49999J249999D01*
G01*
X151550000Y-75225000D02*
G75*
G02*
X151610634Y-74732464I0J250000D01*
G01*
X157000001Y-75749999D02*
G75*
G02*
X157016269Y-74294594I249999J724999D01*
G01*
X157125001Y-75299999D02*
G75*
G02*
X157125001Y-74750001I124999J274999D01*
G01*
X160575001Y-75399999D02*
G75*
G02*
X161025000Y-74313605I449999J449999D01*
G01*
X160775001Y-76749999D02*
G75*
G02*
X160598744Y-75441063I249998J699999D01*
G01*
X160975001Y-76199999D02*
G75*
G02*
X161024999Y-75695050I49999J249999D01*
G01*
X161125000Y-75200000D02*
G75*
G02*
X161185634Y-74707464I0J250000D01*
G01*
X162375000Y-75150000D02*
G75*
G02*
X164075000Y-75150000I850000J0D01*
G01*
X162875000Y-75150000D02*
G75*
G02*
X163575000Y-75150000I350000J0D01*
G01*
X163575000Y-75850000D02*
G75*
G02*
X162875000Y-75850000I-350000J0D01*
G01*
X164075000Y-75850000D02*
G75*
G02*
X162375000Y-75850000I-850000J0D01*
G01*
D13*
X172572361Y-129745226D02*
X172508542Y-129809045D01*
X172444723Y-129745226D01*
X172508542Y-129681407D01*
X172572361Y-129745226D01*
G36*
X172572361Y-129745226D02*
G01*
X172508542Y-129809045D01*
X172444723Y-129745226D01*
X172508542Y-129681407D01*
X172572361Y-129745226D01*
G37*
D12*
%TO.C,D3*%
X154263900Y-99393500D02*
X154913900Y-99393500D01*
X154913900Y-98273500D02*
X159153900Y-98273500D01*
X154913900Y-100513500D02*
X154913900Y-98273500D01*
X155513900Y-100513500D02*
X155513900Y-98273500D01*
X155633900Y-100513500D02*
X155633900Y-98273500D01*
X155753900Y-100513500D02*
X155753900Y-98273500D01*
X159153900Y-98273500D02*
X159153900Y-100513500D01*
X159153900Y-100513500D02*
X154913900Y-100513500D01*
X159803900Y-99393500D02*
X159153900Y-99393500D01*
%TO.C,U1*%
X154393900Y-101883500D02*
X159693900Y-101883500D01*
X154393900Y-112163500D02*
X154393900Y-101883500D01*
X156043900Y-112163500D02*
X154393900Y-112163500D01*
X159693900Y-101883500D02*
X159693900Y-112163500D01*
X159693900Y-112163500D02*
X158043900Y-112163500D01*
X156043900Y-112163500D02*
G75*
G02*
X158043900Y-112163500I1000000J0D01*
G01*
%TO.C,R5*%
X133780000Y-122750000D02*
X134550000Y-122750000D01*
X141860000Y-122750000D02*
X141090000Y-122750000D01*
X134550000Y-124120000D02*
X141090000Y-124120000D01*
X141090000Y-121380000D01*
X134550000Y-121380000D01*
X134550000Y-124120000D01*
%TO.C,R3*%
X133780000Y-130850000D02*
X134550000Y-130850000D01*
X141860000Y-130850000D02*
X141090000Y-130850000D01*
X134550000Y-132220000D02*
X141090000Y-132220000D01*
X141090000Y-129480000D01*
X134550000Y-129480000D01*
X134550000Y-132220000D01*
%TO.C,C1*%
X152185000Y-119325000D02*
X152815000Y-119325000D01*
X152500000Y-119640000D02*
X152500000Y-119010000D01*
X156450000Y-122530000D02*
X156450000Y-116070000D01*
X156490000Y-122530000D02*
X156490000Y-116070000D01*
X156530000Y-122530000D02*
X156530000Y-116070000D01*
X156570000Y-122528000D02*
X156570000Y-116072000D01*
X156610000Y-122527000D02*
X156610000Y-116073000D01*
X156650000Y-122524000D02*
X156650000Y-116076000D01*
X156690000Y-118260000D02*
X156690000Y-116078000D01*
X156690000Y-122522000D02*
X156690000Y-120340000D01*
X156730000Y-118260000D02*
X156730000Y-116082000D01*
X156730000Y-122518000D02*
X156730000Y-120340000D01*
X156770000Y-118260000D02*
X156770000Y-116085000D01*
X156770000Y-122515000D02*
X156770000Y-120340000D01*
X156810000Y-118260000D02*
X156810000Y-116089000D01*
X156810000Y-122511000D02*
X156810000Y-120340000D01*
X156850000Y-118260000D02*
X156850000Y-116094000D01*
X156850000Y-122506000D02*
X156850000Y-120340000D01*
X156890000Y-118260000D02*
X156890000Y-116099000D01*
X156890000Y-122501000D02*
X156890000Y-120340000D01*
X156930000Y-118260000D02*
X156930000Y-116105000D01*
X156930000Y-122495000D02*
X156930000Y-120340000D01*
X156970000Y-118260000D02*
X156970000Y-116111000D01*
X156970000Y-122489000D02*
X156970000Y-120340000D01*
X157010000Y-118260000D02*
X157010000Y-116118000D01*
X157010000Y-122482000D02*
X157010000Y-120340000D01*
X157050000Y-118260000D02*
X157050000Y-116125000D01*
X157050000Y-122475000D02*
X157050000Y-120340000D01*
X157090000Y-118260000D02*
X157090000Y-116133000D01*
X157090000Y-122467000D02*
X157090000Y-120340000D01*
X157130000Y-118260000D02*
X157130000Y-116141000D01*
X157130000Y-122459000D02*
X157130000Y-120340000D01*
X157171000Y-118260000D02*
X157171000Y-116150000D01*
X157171000Y-122450000D02*
X157171000Y-120340000D01*
X157211000Y-118260000D02*
X157211000Y-116159000D01*
X157211000Y-122441000D02*
X157211000Y-120340000D01*
X157251000Y-118260000D02*
X157251000Y-116169000D01*
X157251000Y-122431000D02*
X157251000Y-120340000D01*
X157291000Y-118260000D02*
X157291000Y-116179000D01*
X157291000Y-122421000D02*
X157291000Y-120340000D01*
X157331000Y-118260000D02*
X157331000Y-116190000D01*
X157331000Y-122410000D02*
X157331000Y-120340000D01*
X157371000Y-118260000D02*
X157371000Y-116202000D01*
X157371000Y-122398000D02*
X157371000Y-120340000D01*
X157411000Y-118260000D02*
X157411000Y-116214000D01*
X157411000Y-122386000D02*
X157411000Y-120340000D01*
X157451000Y-118260000D02*
X157451000Y-116226000D01*
X157451000Y-122374000D02*
X157451000Y-120340000D01*
X157491000Y-118260000D02*
X157491000Y-116239000D01*
X157491000Y-122361000D02*
X157491000Y-120340000D01*
X157531000Y-118260000D02*
X157531000Y-116253000D01*
X157531000Y-122347000D02*
X157531000Y-120340000D01*
X157571000Y-118260000D02*
X157571000Y-116267000D01*
X157571000Y-122333000D02*
X157571000Y-120340000D01*
X157611000Y-118260000D02*
X157611000Y-116282000D01*
X157611000Y-122318000D02*
X157611000Y-120340000D01*
X157651000Y-118260000D02*
X157651000Y-116298000D01*
X157651000Y-122302000D02*
X157651000Y-120340000D01*
X157691000Y-118260000D02*
X157691000Y-116314000D01*
X157691000Y-122286000D02*
X157691000Y-120340000D01*
X157731000Y-118260000D02*
X157731000Y-116330000D01*
X157731000Y-122270000D02*
X157731000Y-120340000D01*
X157771000Y-118260000D02*
X157771000Y-116348000D01*
X157771000Y-122252000D02*
X157771000Y-120340000D01*
X157811000Y-118260000D02*
X157811000Y-116366000D01*
X157811000Y-122234000D02*
X157811000Y-120340000D01*
X157851000Y-118260000D02*
X157851000Y-116384000D01*
X157851000Y-122216000D02*
X157851000Y-120340000D01*
X157891000Y-118260000D02*
X157891000Y-116404000D01*
X157891000Y-122196000D02*
X157891000Y-120340000D01*
X157931000Y-118260000D02*
X157931000Y-116424000D01*
X157931000Y-122176000D02*
X157931000Y-120340000D01*
X157971000Y-118260000D02*
X157971000Y-116444000D01*
X157971000Y-122156000D02*
X157971000Y-120340000D01*
X158011000Y-118260000D02*
X158011000Y-116466000D01*
X158011000Y-122134000D02*
X158011000Y-120340000D01*
X158051000Y-118260000D02*
X158051000Y-116488000D01*
X158051000Y-122112000D02*
X158051000Y-120340000D01*
X158091000Y-118260000D02*
X158091000Y-116510000D01*
X158091000Y-122090000D02*
X158091000Y-120340000D01*
X158131000Y-118260000D02*
X158131000Y-116534000D01*
X158131000Y-122066000D02*
X158131000Y-120340000D01*
X158171000Y-118260000D02*
X158171000Y-116558000D01*
X158171000Y-122042000D02*
X158171000Y-120340000D01*
X158211000Y-118260000D02*
X158211000Y-116584000D01*
X158211000Y-122016000D02*
X158211000Y-120340000D01*
X158251000Y-118260000D02*
X158251000Y-116610000D01*
X158251000Y-121990000D02*
X158251000Y-120340000D01*
X158291000Y-118260000D02*
X158291000Y-116636000D01*
X158291000Y-121964000D02*
X158291000Y-120340000D01*
X158331000Y-118260000D02*
X158331000Y-116664000D01*
X158331000Y-121936000D02*
X158331000Y-120340000D01*
X158371000Y-118260000D02*
X158371000Y-116693000D01*
X158371000Y-121907000D02*
X158371000Y-120340000D01*
X158411000Y-118260000D02*
X158411000Y-116722000D01*
X158411000Y-121878000D02*
X158411000Y-120340000D01*
X158451000Y-118260000D02*
X158451000Y-116752000D01*
X158451000Y-121848000D02*
X158451000Y-120340000D01*
X158491000Y-118260000D02*
X158491000Y-116784000D01*
X158491000Y-121816000D02*
X158491000Y-120340000D01*
X158531000Y-118260000D02*
X158531000Y-116816000D01*
X158531000Y-121784000D02*
X158531000Y-120340000D01*
X158571000Y-118260000D02*
X158571000Y-116850000D01*
X158571000Y-121750000D02*
X158571000Y-120340000D01*
X158611000Y-118260000D02*
X158611000Y-116884000D01*
X158611000Y-121716000D02*
X158611000Y-120340000D01*
X158651000Y-118260000D02*
X158651000Y-116920000D01*
X158651000Y-121680000D02*
X158651000Y-120340000D01*
X158691000Y-118260000D02*
X158691000Y-116957000D01*
X158691000Y-121643000D02*
X158691000Y-120340000D01*
X158731000Y-118260000D02*
X158731000Y-116995000D01*
X158731000Y-121605000D02*
X158731000Y-120340000D01*
X158771000Y-121565000D02*
X158771000Y-117035000D01*
X158811000Y-121524000D02*
X158811000Y-117076000D01*
X158851000Y-121482000D02*
X158851000Y-117118000D01*
X158891000Y-121437000D02*
X158891000Y-117163000D01*
X158931000Y-121392000D02*
X158931000Y-117208000D01*
X158971000Y-121344000D02*
X158971000Y-117256000D01*
X159011000Y-121295000D02*
X159011000Y-117305000D01*
X159051000Y-121244000D02*
X159051000Y-117356000D01*
X159091000Y-121190000D02*
X159091000Y-117410000D01*
X159131000Y-121134000D02*
X159131000Y-117466000D01*
X159171000Y-121076000D02*
X159171000Y-117524000D01*
X159211000Y-121014000D02*
X159211000Y-117586000D01*
X159251000Y-120950000D02*
X159251000Y-117650000D01*
X159291000Y-120881000D02*
X159291000Y-117719000D01*
X159331000Y-120809000D02*
X159331000Y-117791000D01*
X159371000Y-120732000D02*
X159371000Y-117868000D01*
X159411000Y-120650000D02*
X159411000Y-117950000D01*
X159451000Y-120562000D02*
X159451000Y-118038000D01*
X159491000Y-120465000D02*
X159491000Y-118135000D01*
X159531000Y-120359000D02*
X159531000Y-118241000D01*
X159571000Y-120240000D02*
X159571000Y-118360000D01*
X159611000Y-120102000D02*
X159611000Y-118498000D01*
X159651000Y-119933000D02*
X159651000Y-118667000D01*
X159691000Y-119702000D02*
X159691000Y-118898000D01*
X160570000Y-119300000D02*
X161200000Y-119300000D01*
X159720000Y-119300000D02*
G75*
G02*
X153180000Y-119300000I-3270000J0D01*
G01*
X153180000Y-119300000D02*
G75*
G02*
X159720000Y-119300000I3270000J0D01*
G01*
%TO.C,R4*%
X133780000Y-126800000D02*
X134550000Y-126800000D01*
X141860000Y-126800000D02*
X141090000Y-126800000D01*
X134550000Y-128170000D02*
X141090000Y-128170000D01*
X141090000Y-125430000D01*
X134550000Y-125430000D01*
X134550000Y-128170000D01*
%TO.C,R8*%
X133780000Y-110600000D02*
X134550000Y-110600000D01*
X141860000Y-110600000D02*
X141090000Y-110600000D01*
X134550000Y-111970000D02*
X141090000Y-111970000D01*
X141090000Y-109230000D01*
X134550000Y-109230000D01*
X134550000Y-111970000D01*
%TO.C,R7*%
X133780000Y-114650000D02*
X134550000Y-114650000D01*
X141860000Y-114650000D02*
X141090000Y-114650000D01*
X134550000Y-116020000D02*
X141090000Y-116020000D01*
X141090000Y-113280000D01*
X134550000Y-113280000D01*
X134550000Y-116020000D01*
%TO.C,R6*%
X133780000Y-118700000D02*
X134550000Y-118700000D01*
X141860000Y-118700000D02*
X141090000Y-118700000D01*
X134550000Y-120070000D02*
X141090000Y-120070000D01*
X141090000Y-117330000D01*
X134550000Y-117330000D01*
X134550000Y-120070000D01*
%TO.C,S1*%
X176269600Y-101130800D02*
X176269600Y-111087600D01*
X176269600Y-111087600D02*
X180206600Y-111113000D01*
X180206600Y-101130800D02*
X176269600Y-101130800D01*
X180206600Y-111087600D02*
X180206600Y-101130800D01*
%TD*%
M02*
