%TF.GenerationSoftware,KiCad,Pcbnew,9.0.6*%
%TF.CreationDate,2025-12-13T06:32:17+01:00*%
%TF.ProjectId,Rocket,526f636b-6574-42e6-9b69-6361645f7063,rev?*%
%TF.SameCoordinates,Original*%
%TF.FileFunction,Soldermask,Bot*%
%TF.FilePolarity,Negative*%
%FSLAX46Y46*%
G04 Gerber Fmt 4.6, Leading zero omitted, Abs format (unit mm)*
G04 Created by KiCad (PCBNEW 9.0.6) date 2025-12-13 06:32:17*
%MOMM*%
%LPD*%
G01*
G04 APERTURE LIST*
G04 Aperture macros list*
%AMRoundRect*
0 Rectangle with rounded corners*
0 $1 Rounding radius*
0 $2 $3 $4 $5 $6 $7 $8 $9 X,Y pos of 4 corners*
0 Add a 4 corners polygon primitive as box body*
4,1,4,$2,$3,$4,$5,$6,$7,$8,$9,$2,$3,0*
0 Add four circle primitives for the rounded corners*
1,1,$1+$1,$2,$3*
1,1,$1+$1,$4,$5*
1,1,$1+$1,$6,$7*
1,1,$1+$1,$8,$9*
0 Add four rect primitives between the rounded corners*
20,1,$1+$1,$2,$3,$4,$5,0*
20,1,$1+$1,$4,$5,$6,$7,0*
20,1,$1+$1,$6,$7,$8,$9,0*
20,1,$1+$1,$8,$9,$2,$3,0*%
G04 Aperture macros list end*
%ADD10C,0.300000*%
%ADD11RoundRect,0.200000X-0.900000X-0.900000X0.900000X-0.900000X0.900000X0.900000X-0.900000X0.900000X0*%
%ADD12C,2.200000*%
%ADD13RoundRect,0.200000X-0.750000X-0.750000X0.750000X-0.750000X0.750000X0.750000X-0.750000X0.750000X0*%
%ADD14C,1.900000*%
%ADD15RoundRect,0.200000X-0.800000X-0.800000X0.800000X-0.800000X0.800000X0.800000X-0.800000X0.800000X0*%
%ADD16O,2.000000X2.000000*%
%ADD17RoundRect,0.312500X-0.687500X-0.687500X0.687500X-0.687500X0.687500X0.687500X-0.687500X0.687500X0*%
%ADD18C,2.000000*%
%ADD19RoundRect,0.200000X-2.500000X-1.000000X2.500000X-1.000000X2.500000X1.000000X-2.500000X1.000000X0*%
%ADD20C,18.180000*%
%ADD21C,2.400000*%
G04 APERTURE END LIST*
D10*
X165345489Y-68000828D02*
X165345489Y-66500828D01*
X164488346Y-68000828D02*
X165131203Y-67143685D01*
X164488346Y-66500828D02*
X165345489Y-67357971D01*
X163845489Y-68000828D02*
X163845489Y-66500828D01*
X163845489Y-67215114D02*
X162988346Y-67215114D01*
X162988346Y-68000828D02*
X162988346Y-66500828D01*
X161774060Y-67215114D02*
X162274060Y-67215114D01*
X162274060Y-68000828D02*
X162274060Y-66500828D01*
X162274060Y-66500828D02*
X161559774Y-66500828D01*
X159059774Y-68000828D02*
X159916917Y-68000828D01*
X159488346Y-68000828D02*
X159488346Y-66500828D01*
X159488346Y-66500828D02*
X159631203Y-66715114D01*
X159631203Y-66715114D02*
X159774060Y-66857971D01*
X159774060Y-66857971D02*
X159916917Y-66929400D01*
X158488346Y-66643685D02*
X158416918Y-66572257D01*
X158416918Y-66572257D02*
X158274061Y-66500828D01*
X158274061Y-66500828D02*
X157916918Y-66500828D01*
X157916918Y-66500828D02*
X157774061Y-66572257D01*
X157774061Y-66572257D02*
X157702632Y-66643685D01*
X157702632Y-66643685D02*
X157631203Y-66786542D01*
X157631203Y-66786542D02*
X157631203Y-66929400D01*
X157631203Y-66929400D02*
X157702632Y-67143685D01*
X157702632Y-67143685D02*
X158559775Y-68000828D01*
X158559775Y-68000828D02*
X157631203Y-68000828D01*
X156988347Y-67857971D02*
X156916918Y-67929400D01*
X156916918Y-67929400D02*
X156988347Y-68000828D01*
X156988347Y-68000828D02*
X157059775Y-67929400D01*
X157059775Y-67929400D02*
X156988347Y-67857971D01*
X156988347Y-67857971D02*
X156988347Y-68000828D01*
X156345489Y-66643685D02*
X156274061Y-66572257D01*
X156274061Y-66572257D02*
X156131204Y-66500828D01*
X156131204Y-66500828D02*
X155774061Y-66500828D01*
X155774061Y-66500828D02*
X155631204Y-66572257D01*
X155631204Y-66572257D02*
X155559775Y-66643685D01*
X155559775Y-66643685D02*
X155488346Y-66786542D01*
X155488346Y-66786542D02*
X155488346Y-66929400D01*
X155488346Y-66929400D02*
X155559775Y-67143685D01*
X155559775Y-67143685D02*
X156416918Y-68000828D01*
X156416918Y-68000828D02*
X155488346Y-68000828D01*
X154559775Y-66500828D02*
X154416918Y-66500828D01*
X154416918Y-66500828D02*
X154274061Y-66572257D01*
X154274061Y-66572257D02*
X154202633Y-66643685D01*
X154202633Y-66643685D02*
X154131204Y-66786542D01*
X154131204Y-66786542D02*
X154059775Y-67072257D01*
X154059775Y-67072257D02*
X154059775Y-67429400D01*
X154059775Y-67429400D02*
X154131204Y-67715114D01*
X154131204Y-67715114D02*
X154202633Y-67857971D01*
X154202633Y-67857971D02*
X154274061Y-67929400D01*
X154274061Y-67929400D02*
X154416918Y-68000828D01*
X154416918Y-68000828D02*
X154559775Y-68000828D01*
X154559775Y-68000828D02*
X154702633Y-67929400D01*
X154702633Y-67929400D02*
X154774061Y-67857971D01*
X154774061Y-67857971D02*
X154845490Y-67715114D01*
X154845490Y-67715114D02*
X154916918Y-67429400D01*
X154916918Y-67429400D02*
X154916918Y-67072257D01*
X154916918Y-67072257D02*
X154845490Y-66786542D01*
X154845490Y-66786542D02*
X154774061Y-66643685D01*
X154774061Y-66643685D02*
X154702633Y-66572257D01*
X154702633Y-66572257D02*
X154559775Y-66500828D01*
X153488347Y-66643685D02*
X153416919Y-66572257D01*
X153416919Y-66572257D02*
X153274062Y-66500828D01*
X153274062Y-66500828D02*
X152916919Y-66500828D01*
X152916919Y-66500828D02*
X152774062Y-66572257D01*
X152774062Y-66572257D02*
X152702633Y-66643685D01*
X152702633Y-66643685D02*
X152631204Y-66786542D01*
X152631204Y-66786542D02*
X152631204Y-66929400D01*
X152631204Y-66929400D02*
X152702633Y-67143685D01*
X152702633Y-67143685D02*
X153559776Y-68000828D01*
X153559776Y-68000828D02*
X152631204Y-68000828D01*
X151274062Y-66500828D02*
X151988348Y-66500828D01*
X151988348Y-66500828D02*
X152059776Y-67215114D01*
X152059776Y-67215114D02*
X151988348Y-67143685D01*
X151988348Y-67143685D02*
X151845491Y-67072257D01*
X151845491Y-67072257D02*
X151488348Y-67072257D01*
X151488348Y-67072257D02*
X151345491Y-67143685D01*
X151345491Y-67143685D02*
X151274062Y-67215114D01*
X151274062Y-67215114D02*
X151202633Y-67357971D01*
X151202633Y-67357971D02*
X151202633Y-67715114D01*
X151202633Y-67715114D02*
X151274062Y-67857971D01*
X151274062Y-67857971D02*
X151345491Y-67929400D01*
X151345491Y-67929400D02*
X151488348Y-68000828D01*
X151488348Y-68000828D02*
X151845491Y-68000828D01*
X151845491Y-68000828D02*
X151988348Y-67929400D01*
X151988348Y-67929400D02*
X152059776Y-67857971D01*
D11*
%TO.C,D2*%
X143900000Y-77000000D03*
D12*
X146440000Y-77000000D03*
%TD*%
D11*
%TO.C,D1*%
X168460000Y-77000000D03*
D12*
X171000000Y-77000000D03*
%TD*%
D13*
%TO.C,Q2*%
X166460000Y-129118808D03*
D14*
X169000000Y-126578808D03*
X171540000Y-129118808D03*
%TD*%
D13*
%TO.C,Q1*%
X169720000Y-119000000D03*
D14*
X172260000Y-116460000D03*
X174800000Y-119000000D03*
%TD*%
D15*
%TO.C,D3*%
X153223900Y-99393500D03*
D16*
X160843900Y-99393500D03*
%TD*%
D17*
%TO.C,U1*%
X153233900Y-110833500D03*
D18*
X153233900Y-108293500D03*
X153233900Y-105753500D03*
X153233900Y-103213500D03*
X160853900Y-103213500D03*
X160853900Y-105753500D03*
X160853900Y-108293500D03*
X160853900Y-110833500D03*
%TD*%
%TO.C,R5*%
X132740000Y-122750000D03*
X142900000Y-122750000D03*
%TD*%
%TO.C,R3*%
X132740000Y-130850000D03*
X142900000Y-130850000D03*
%TD*%
D15*
%TO.C,C1*%
X155200000Y-119300000D03*
D18*
X157700000Y-119300000D03*
%TD*%
D19*
%TO.C,U2*%
X145000000Y-52500000D03*
X145000000Y-56056000D03*
X170894000Y-52500000D03*
X170894000Y-56056000D03*
D20*
X157954000Y-54532000D03*
%TD*%
D18*
%TO.C,R4*%
X132740000Y-126800000D03*
X142900000Y-126800000D03*
%TD*%
%TO.C,R8*%
X132740000Y-110600000D03*
X142900000Y-110600000D03*
%TD*%
%TO.C,R7*%
X132740000Y-114650000D03*
X142900000Y-114650000D03*
%TD*%
%TO.C,R6*%
X132740000Y-118700000D03*
X142900000Y-118700000D03*
%TD*%
D21*
%TO.C,S1*%
X178200000Y-108700000D03*
X178200000Y-106160000D03*
X178200000Y-103620000D03*
%TD*%
M02*
