%TF.GenerationSoftware,KiCad,Pcbnew,9.0.6*%
%TF.CreationDate,2025-12-07T11:23:18+01:00*%
%TF.ProjectId,Rocket,526f636b-6574-42e6-9b69-6361645f7063,rev?*%
%TF.SameCoordinates,Original*%
%TF.FileFunction,Copper,L2,Bot*%
%TF.FilePolarity,Positive*%
%FSLAX46Y46*%
G04 Gerber Fmt 4.6, Leading zero omitted, Abs format (unit mm)*
G04 Created by KiCad (PCBNEW 9.0.6) date 2025-12-07 11:23:18*
%MOMM*%
%LPD*%
G01*
G04 APERTURE LIST*
G04 Aperture macros list*
%AMRoundRect*
0 Rectangle with rounded corners*
0 $1 Rounding radius*
0 $2 $3 $4 $5 $6 $7 $8 $9 X,Y pos of 4 corners*
0 Add a 4 corners polygon primitive as box body*
4,1,4,$2,$3,$4,$5,$6,$7,$8,$9,$2,$3,0*
0 Add four circle primitives for the rounded corners*
1,1,$1+$1,$2,$3*
1,1,$1+$1,$4,$5*
1,1,$1+$1,$6,$7*
1,1,$1+$1,$8,$9*
0 Add four rect primitives between the rounded corners*
20,1,$1+$1,$2,$3,$4,$5,0*
20,1,$1+$1,$4,$5,$6,$7,0*
20,1,$1+$1,$6,$7,$8,$9,0*
20,1,$1+$1,$8,$9,$2,$3,0*%
G04 Aperture macros list end*
%ADD10C,0.200000*%
%TA.AperFunction,NonConductor*%
%ADD11C,0.200000*%
%TD*%
%TA.AperFunction,ComponentPad*%
%ADD12R,1.800000X1.800000*%
%TD*%
%TA.AperFunction,ComponentPad*%
%ADD13C,1.800000*%
%TD*%
%TA.AperFunction,ComponentPad*%
%ADD14R,1.500000X1.500000*%
%TD*%
%TA.AperFunction,ComponentPad*%
%ADD15C,1.500000*%
%TD*%
%TA.AperFunction,ComponentPad*%
%ADD16R,1.600000X1.600000*%
%TD*%
%TA.AperFunction,ComponentPad*%
%ADD17O,1.600000X1.600000*%
%TD*%
%TA.AperFunction,ComponentPad*%
%ADD18C,1.600000*%
%TD*%
%TA.AperFunction,SMDPad,CuDef*%
%ADD19R,5.000000X2.000000*%
%TD*%
%TA.AperFunction,SMDPad,CuDef*%
%ADD20C,17.780000*%
%TD*%
%TA.AperFunction,ComponentPad*%
%ADD21C,2.000000*%
%TD*%
%TA.AperFunction,ComponentPad*%
%ADD22RoundRect,0.250000X-0.550000X-0.550000X0.550000X-0.550000X0.550000X0.550000X-0.550000X0.550000X0*%
%TD*%
%TA.AperFunction,Conductor*%
%ADD23C,0.250000*%
%TD*%
G04 APERTURE END LIST*
D10*
D11*
X158511279Y-92306028D02*
X158511279Y-90806028D01*
X157654136Y-92306028D02*
X158296993Y-91448885D01*
X157654136Y-90806028D02*
X158511279Y-91663171D01*
X157011279Y-92306028D02*
X157011279Y-90806028D01*
X157011279Y-91520314D02*
X156154136Y-91520314D01*
X156154136Y-92306028D02*
X156154136Y-90806028D01*
X154939850Y-91520314D02*
X155439850Y-91520314D01*
X155439850Y-92306028D02*
X155439850Y-90806028D01*
X155439850Y-90806028D02*
X154725564Y-90806028D01*
X152225564Y-92306028D02*
X153082707Y-92306028D01*
X152654136Y-92306028D02*
X152654136Y-90806028D01*
X152654136Y-90806028D02*
X152796993Y-91020314D01*
X152796993Y-91020314D02*
X152939850Y-91163171D01*
X152939850Y-91163171D02*
X153082707Y-91234600D01*
X151654136Y-90948885D02*
X151582708Y-90877457D01*
X151582708Y-90877457D02*
X151439851Y-90806028D01*
X151439851Y-90806028D02*
X151082708Y-90806028D01*
X151082708Y-90806028D02*
X150939851Y-90877457D01*
X150939851Y-90877457D02*
X150868422Y-90948885D01*
X150868422Y-90948885D02*
X150796993Y-91091742D01*
X150796993Y-91091742D02*
X150796993Y-91234600D01*
X150796993Y-91234600D02*
X150868422Y-91448885D01*
X150868422Y-91448885D02*
X151725565Y-92306028D01*
X151725565Y-92306028D02*
X150796993Y-92306028D01*
X150154137Y-92163171D02*
X150082708Y-92234600D01*
X150082708Y-92234600D02*
X150154137Y-92306028D01*
X150154137Y-92306028D02*
X150225565Y-92234600D01*
X150225565Y-92234600D02*
X150154137Y-92163171D01*
X150154137Y-92163171D02*
X150154137Y-92306028D01*
X149511279Y-90948885D02*
X149439851Y-90877457D01*
X149439851Y-90877457D02*
X149296994Y-90806028D01*
X149296994Y-90806028D02*
X148939851Y-90806028D01*
X148939851Y-90806028D02*
X148796994Y-90877457D01*
X148796994Y-90877457D02*
X148725565Y-90948885D01*
X148725565Y-90948885D02*
X148654136Y-91091742D01*
X148654136Y-91091742D02*
X148654136Y-91234600D01*
X148654136Y-91234600D02*
X148725565Y-91448885D01*
X148725565Y-91448885D02*
X149582708Y-92306028D01*
X149582708Y-92306028D02*
X148654136Y-92306028D01*
X147725565Y-90806028D02*
X147582708Y-90806028D01*
X147582708Y-90806028D02*
X147439851Y-90877457D01*
X147439851Y-90877457D02*
X147368423Y-90948885D01*
X147368423Y-90948885D02*
X147296994Y-91091742D01*
X147296994Y-91091742D02*
X147225565Y-91377457D01*
X147225565Y-91377457D02*
X147225565Y-91734600D01*
X147225565Y-91734600D02*
X147296994Y-92020314D01*
X147296994Y-92020314D02*
X147368423Y-92163171D01*
X147368423Y-92163171D02*
X147439851Y-92234600D01*
X147439851Y-92234600D02*
X147582708Y-92306028D01*
X147582708Y-92306028D02*
X147725565Y-92306028D01*
X147725565Y-92306028D02*
X147868423Y-92234600D01*
X147868423Y-92234600D02*
X147939851Y-92163171D01*
X147939851Y-92163171D02*
X148011280Y-92020314D01*
X148011280Y-92020314D02*
X148082708Y-91734600D01*
X148082708Y-91734600D02*
X148082708Y-91377457D01*
X148082708Y-91377457D02*
X148011280Y-91091742D01*
X148011280Y-91091742D02*
X147939851Y-90948885D01*
X147939851Y-90948885D02*
X147868423Y-90877457D01*
X147868423Y-90877457D02*
X147725565Y-90806028D01*
X146654137Y-90948885D02*
X146582709Y-90877457D01*
X146582709Y-90877457D02*
X146439852Y-90806028D01*
X146439852Y-90806028D02*
X146082709Y-90806028D01*
X146082709Y-90806028D02*
X145939852Y-90877457D01*
X145939852Y-90877457D02*
X145868423Y-90948885D01*
X145868423Y-90948885D02*
X145796994Y-91091742D01*
X145796994Y-91091742D02*
X145796994Y-91234600D01*
X145796994Y-91234600D02*
X145868423Y-91448885D01*
X145868423Y-91448885D02*
X146725566Y-92306028D01*
X146725566Y-92306028D02*
X145796994Y-92306028D01*
X144439852Y-90806028D02*
X145154138Y-90806028D01*
X145154138Y-90806028D02*
X145225566Y-91520314D01*
X145225566Y-91520314D02*
X145154138Y-91448885D01*
X145154138Y-91448885D02*
X145011281Y-91377457D01*
X145011281Y-91377457D02*
X144654138Y-91377457D01*
X144654138Y-91377457D02*
X144511281Y-91448885D01*
X144511281Y-91448885D02*
X144439852Y-91520314D01*
X144439852Y-91520314D02*
X144368423Y-91663171D01*
X144368423Y-91663171D02*
X144368423Y-92020314D01*
X144368423Y-92020314D02*
X144439852Y-92163171D01*
X144439852Y-92163171D02*
X144511281Y-92234600D01*
X144511281Y-92234600D02*
X144654138Y-92306028D01*
X144654138Y-92306028D02*
X145011281Y-92306028D01*
X145011281Y-92306028D02*
X145154138Y-92234600D01*
X145154138Y-92234600D02*
X145225566Y-92163171D01*
D12*
%TO.P,D1,1,K*%
%TO.N,Net-(D1-K)*%
X167500000Y-78400000D03*
D13*
%TO.P,D1,2,A*%
%TO.N,Net-(D1-A)*%
X170040000Y-78400000D03*
%TD*%
D14*
%TO.P,T2,1,E*%
%TO.N,Net-(D1-A)*%
X165560000Y-116340000D03*
D15*
%TO.P,T2,2,B*%
%TO.N,Net-(Q1-C)*%
X168100000Y-113800000D03*
%TO.P,T2,3,C*%
%TO.N,Net-(Q2-C)*%
X170640000Y-116340000D03*
%TD*%
D16*
%TO.P,D3,1,K*%
%TO.N,Net-(D3-K)*%
X148390000Y-110000000D03*
D17*
%TO.P,D3,2,A*%
%TO.N,Net-(D3-A)*%
X156010000Y-110000000D03*
%TD*%
D18*
%TO.P,R3,1*%
%TO.N,Net-(D3-K)*%
X126720000Y-132650000D03*
%TO.P,R3,2*%
%TO.N,Net-(Q1-B)*%
X136880000Y-132650000D03*
%TD*%
D16*
%TO.P,47uF,1*%
%TO.N,Net-(D3-K)*%
X178700000Y-119600000D03*
D18*
%TO.P,47uF,2*%
%TO.N,Net-(D1-K)*%
X181200000Y-119600000D03*
%TD*%
%TO.P,R5,1*%
%TO.N,Net-(S1-E)*%
X126720000Y-124550000D03*
%TO.P,R5,2*%
%TO.N,Net-(Q1-C)*%
X136880000Y-124550000D03*
%TD*%
%TO.P,R7,1*%
%TO.N,Net-(D3-K)*%
X126720000Y-116450000D03*
%TO.P,R7,2*%
%TO.N,Net-(D3-A)*%
X136880000Y-116450000D03*
%TD*%
D19*
%TO.P,U2,*%
%TO.N,*%
X160746000Y-57468000D03*
X160746000Y-61024000D03*
%TO.P,U2,1*%
%TO.N,Net-(S1-A-Pad1)*%
X186640000Y-57468000D03*
X186640000Y-61024000D03*
D20*
%TO.P,U2,2*%
%TO.N,Net-(D1-K)*%
X173700000Y-59500000D03*
%TD*%
D18*
%TO.P,R6,1*%
%TO.N,Net-(S1-E)*%
X126720000Y-120500000D03*
%TO.P,R6,2*%
%TO.N,Net-(Q2-C)*%
X136880000Y-120500000D03*
%TD*%
D14*
%TO.P,T1,1,E*%
%TO.N,Net-(D1-K)*%
X166100000Y-109000000D03*
D15*
%TO.P,T1,2,B*%
%TO.N,Net-(Q1-B)*%
X168640000Y-106460000D03*
%TO.P,T1,3,C*%
%TO.N,Net-(Q1-C)*%
X171180000Y-109000000D03*
%TD*%
D18*
%TO.P,R1off1,1*%
%TO.N,Net-(S1-E)*%
X126720000Y-112400000D03*
%TO.P,R1off1,2*%
%TO.N,Net-(D3-A)*%
X136880000Y-112400000D03*
%TD*%
%TO.P,R4,1*%
%TO.N,Net-(Q1-B)*%
X126720000Y-128600000D03*
%TO.P,R4,2*%
%TO.N,Net-(D1-K)*%
X136880000Y-128600000D03*
%TD*%
D12*
%TO.P,D2,1,K*%
%TO.N,Net-(D1-K)*%
X187300000Y-77400000D03*
D13*
%TO.P,D2,2,A*%
%TO.N,Net-(D1-A)*%
X189840000Y-77400000D03*
%TD*%
D21*
%TO.P,S1,1,A*%
%TO.N,Net-(S1-A-Pad1)*%
X175500000Y-131580000D03*
%TO.P,S1,2,E*%
%TO.N,Net-(S1-E)*%
X175500000Y-129040000D03*
%TO.P,S1,3,A*%
%TO.N,unconnected-(S1-A-Pad3)*%
X175500000Y-126500000D03*
%TD*%
D22*
%TO.P,U1,1,GND*%
%TO.N,Net-(D1-K)*%
X148400000Y-121440000D03*
D18*
%TO.P,U1,2,TR*%
%TO.N,Net-(D3-K)*%
X148400000Y-118900000D03*
%TO.P,U1,3,Q*%
%TO.N,unconnected-(U1-Q-Pad3)*%
X148400000Y-116360000D03*
%TO.P,U1,4,R*%
%TO.N,Net-(S1-E)*%
X148400000Y-113820000D03*
%TO.P,U1,5,CV*%
%TO.N,unconnected-(U1-CV-Pad5)*%
X156020000Y-113820000D03*
%TO.P,U1,6,THR*%
%TO.N,Net-(D3-K)*%
X156020000Y-116360000D03*
%TO.P,U1,7,DIS*%
%TO.N,Net-(D3-A)*%
X156020000Y-118900000D03*
%TO.P,U1,8,VCC*%
%TO.N,Net-(S1-E)*%
X156020000Y-121440000D03*
%TD*%
D23*
%TO.N,Net-(D1-K)*%
X136880000Y-128600000D02*
X138500000Y-128600000D01*
X171600000Y-105900000D02*
X177700000Y-105900000D01*
X181300000Y-109500000D02*
X181200000Y-109600000D01*
X173700000Y-70300000D02*
X169200000Y-74800000D01*
X123500000Y-125200000D02*
X125300000Y-127000000D01*
X167500000Y-78400000D02*
X167500000Y-93000000D01*
X173700000Y-59500000D02*
X173700000Y-70300000D01*
X187300000Y-76900000D02*
X185200000Y-74800000D01*
X138500000Y-128600000D02*
X145660000Y-121440000D01*
X185200000Y-74800000D02*
X169200000Y-74800000D01*
X161100000Y-109000000D02*
X157600000Y-105500000D01*
X123500000Y-112300000D02*
X123500000Y-125200000D01*
X168500000Y-109000000D02*
X171600000Y-105900000D01*
X169200000Y-74800000D02*
X169000000Y-74800000D01*
X163400000Y-107800000D02*
X164600000Y-109000000D01*
X166100000Y-109000000D02*
X168500000Y-109000000D01*
X130300000Y-105500000D02*
X123500000Y-112300000D01*
X187300000Y-77400000D02*
X187300000Y-76900000D01*
X135400000Y-127120000D02*
X136880000Y-128600000D01*
X169000000Y-74800000D02*
X167500000Y-76300000D01*
X177700000Y-105900000D02*
X181300000Y-109500000D01*
X125300000Y-127000000D02*
X135400000Y-127000000D01*
X166100000Y-109000000D02*
X161100000Y-109000000D01*
X135400000Y-127000000D02*
X135400000Y-127120000D01*
%TO.N,Net-(S1-A-Pad1)*%
X179200000Y-131200000D02*
X178820000Y-131580000D01*
X184500000Y-120900000D02*
X182400000Y-123000000D01*
X197900000Y-86400000D02*
X184500000Y-99800000D01*
X182400000Y-125300000D02*
X179200000Y-128500000D01*
X182400000Y-123000000D02*
X182400000Y-125300000D01*
X186640000Y-57468000D02*
X186640000Y-61024000D01*
X179200000Y-128500000D02*
X179200000Y-131200000D01*
X186640000Y-64440000D02*
X197900000Y-75700000D01*
X197900000Y-75700000D02*
X197900000Y-86400000D01*
X186640000Y-61024000D02*
X186640000Y-64440000D01*
X184500000Y-99800000D02*
X184500000Y-120900000D01*
X178820000Y-131580000D02*
X175500000Y-131580000D01*
%TO.N,Net-(S1-E)*%
X151300000Y-119200000D02*
X153540000Y-121440000D01*
X126720000Y-112400000D02*
X124000000Y-115120000D01*
X151300000Y-114100000D02*
X151300000Y-119200000D01*
X153540000Y-121440000D02*
X156020000Y-121440000D01*
X125000000Y-120500000D02*
X126720000Y-120500000D01*
%TO.N,Net-(Q1-C)*%
X171180000Y-110720000D02*
X171180000Y-109000000D01*
%TO.N,Net-(S1-E)*%
X124000000Y-119500000D02*
X125000000Y-120500000D01*
X162240000Y-129040000D02*
X156020000Y-122820000D01*
X175500000Y-129040000D02*
X162240000Y-129040000D01*
X151020000Y-113820000D02*
X151300000Y-114100000D01*
X126720000Y-124550000D02*
X126720000Y-120500000D01*
X148400000Y-113820000D02*
X151020000Y-113820000D01*
X156020000Y-122820000D02*
X156020000Y-121440000D01*
%TO.N,Net-(Q1-C)*%
X168100000Y-113800000D02*
X171180000Y-110720000D01*
%TO.N,Net-(S1-E)*%
X124000000Y-115120000D02*
X124000000Y-119500000D01*
%TO.N,Net-(D3-A)*%
X156010000Y-110000000D02*
X153210000Y-107200000D01*
X157600000Y-118900000D02*
X156020000Y-118900000D01*
%TO.N,Net-(Q1-B)*%
X136880000Y-132650000D02*
X134450000Y-132650000D01*
X130400000Y-128600000D02*
X126720000Y-128600000D01*
%TO.N,Net-(D3-A)*%
X136880000Y-109120000D02*
X136880000Y-112400000D01*
X158500000Y-112490000D02*
X158500000Y-118000000D01*
X156010000Y-110000000D02*
X158500000Y-112490000D01*
%TO.N,Net-(Q1-B)*%
X134450000Y-132650000D02*
X130400000Y-128600000D01*
%TO.N,Net-(D3-A)*%
X153210000Y-107200000D02*
X138800000Y-107200000D01*
%TO.N,Net-(D1-A)*%
X191100000Y-83400000D02*
X191100000Y-78660000D01*
X188400000Y-80700000D02*
X189840000Y-79260000D01*
X165560000Y-117560000D02*
X169900000Y-121900000D01*
%TO.N,Net-(D3-A)*%
X158500000Y-118000000D02*
X157600000Y-118900000D01*
%TO.N,Net-(D1-A)*%
X172340000Y-80700000D02*
X188400000Y-80700000D01*
X183000000Y-121000000D02*
X183000000Y-91500000D01*
X165560000Y-116340000D02*
X165560000Y-117560000D01*
X182100000Y-121900000D02*
X183000000Y-121000000D01*
X169900000Y-121900000D02*
X182100000Y-121900000D01*
%TO.N,Net-(D3-A)*%
X138800000Y-107200000D02*
X136880000Y-109120000D01*
%TO.N,Net-(D1-A)*%
X191100000Y-78660000D02*
X189840000Y-77400000D01*
X189840000Y-79260000D02*
X189840000Y-77400000D01*
X183000000Y-91500000D02*
X191100000Y-83400000D01*
%TO.N,Net-(D3-A)*%
X136880000Y-112400000D02*
X136880000Y-116450000D01*
%TO.N,Net-(D1-A)*%
X170040000Y-78400000D02*
X172340000Y-80700000D01*
%TO.N,Net-(D1-K)*%
X157600000Y-105500000D02*
X130300000Y-105500000D01*
X167500000Y-76300000D02*
X167500000Y-78400000D01*
X164600000Y-109000000D02*
X166100000Y-109000000D01*
X181200000Y-109600000D02*
X181200000Y-119600000D01*
X167500000Y-93000000D02*
X163400000Y-97100000D01*
X145660000Y-121440000D02*
X148400000Y-121440000D01*
X163400000Y-97100000D02*
X163400000Y-107800000D01*
%TD*%
M02*
