%TF.GenerationSoftware,KiCad,Pcbnew,9.0.6*%
%TF.CreationDate,2025-12-13T06:32:17+01:00*%
%TF.ProjectId,Rocket,526f636b-6574-42e6-9b69-6361645f7063,rev?*%
%TF.SameCoordinates,Original*%
%TF.FileFunction,Profile,NP*%
%FSLAX46Y46*%
G04 Gerber Fmt 4.6, Leading zero omitted, Abs format (unit mm)*
G04 Created by KiCad (PCBNEW 9.0.6) date 2025-12-13 06:32:17*
%MOMM*%
%LPD*%
G01*
G04 APERTURE LIST*
%TA.AperFunction,Profile*%
%ADD10C,0.100000*%
%TD*%
G04 APERTURE END LIST*
D10*
X158917700Y-43074300D02*
X158708700Y-42555200D01*
X134564700Y-145648000D02*
X134826100Y-145763000D01*
X113164700Y-115261100D02*
X112929800Y-116009900D01*
X184380700Y-99713700D02*
X184273700Y-98730600D01*
X142839600Y-149388000D02*
X143483400Y-149492000D01*
X180840700Y-139652000D02*
X180895700Y-139302000D01*
X180162700Y-136193000D02*
X179897700Y-135827000D01*
X180006700Y-141580000D02*
X180199700Y-141280000D01*
X141321100Y-45772800D02*
X141017600Y-45728200D01*
X198228700Y-80405700D02*
X198465700Y-80262800D01*
X197710700Y-82538000D02*
X197865700Y-82283500D01*
X160951700Y-145868000D02*
X161210700Y-145435000D01*
X66204980Y-133538000D02*
X66308040Y-133848000D01*
X151839400Y-43564900D02*
X151754300Y-43621200D01*
X184472700Y-102645200D02*
X184478700Y-101671000D01*
X152877200Y-41209400D02*
X152759300Y-41250800D01*
X183763700Y-108427700D02*
X183952700Y-107471500D01*
X155252400Y-42599200D02*
X155005200Y-42524200D01*
X171166700Y-45406900D02*
X170743700Y-45439900D01*
X175643700Y-43931200D02*
X174849700Y-44310400D01*
X116417600Y-43358700D02*
X116074000Y-43857100D01*
X153965600Y-149080000D02*
X155073800Y-148868000D01*
X118518400Y-41214400D02*
X118050700Y-41590600D01*
X116788100Y-42881000D02*
X116417600Y-43358700D01*
X134292600Y-145553000D02*
X134564700Y-145648000D01*
X195460700Y-86182400D02*
X195103700Y-86220200D01*
X119417100Y-145101000D02*
X120266400Y-145072000D01*
X123694600Y-64445200D02*
X124511800Y-65000800D01*
X115811900Y-82050400D02*
X115973400Y-82455400D01*
X144928500Y-45172200D02*
X144539500Y-45237500D01*
X124603400Y-145457000D02*
X125502700Y-145675000D01*
X165980700Y-145231000D02*
X166316700Y-145383000D01*
X194633700Y-87105800D02*
X195056700Y-86654400D01*
X196151700Y-42261900D02*
X195743700Y-41892900D01*
X196721700Y-83631300D02*
X196922700Y-83455200D01*
X103601700Y-146415000D02*
X104946100Y-146356000D01*
X125722300Y-145737000D02*
X125955300Y-145784000D01*
X162664700Y-42078500D02*
X162524700Y-42004700D01*
X195887700Y-58260600D02*
X196308700Y-57555400D01*
X157693700Y-148310000D02*
X158156700Y-148139000D01*
X128086700Y-93745000D02*
X129542200Y-94501700D01*
X150631500Y-43643200D02*
X150163200Y-43520100D01*
X140947500Y-148873000D02*
X141571600Y-149075000D01*
X161049700Y-142183000D02*
X160993700Y-142042000D01*
X122663700Y-72164500D02*
X122149500Y-73050300D01*
X156057600Y-42467200D02*
X155951000Y-42530700D01*
X175198700Y-133613000D02*
X175104700Y-133393000D01*
X114437000Y-50759700D02*
X114539700Y-51354400D01*
X195056700Y-86654400D02*
X195460700Y-86182400D01*
X125010300Y-92373600D02*
X125853300Y-92698200D01*
X184357700Y-104584700D02*
X184431700Y-103616500D01*
X148304200Y-43360100D02*
X148151600Y-43499200D01*
X177252700Y-144042000D02*
X177894700Y-143632000D01*
X152377900Y-41625100D02*
X152299400Y-41833500D01*
X142367500Y-45745600D02*
X141992600Y-45782900D01*
X112929800Y-116009900D02*
X112722600Y-116774300D01*
X129932200Y-96995000D02*
X129415900Y-97313800D01*
X183850700Y-96134000D02*
X183863700Y-95944500D01*
X101995700Y-119092000D02*
X100619900Y-119119000D01*
X165347700Y-144870000D02*
X165657700Y-145061000D01*
X168157700Y-44089600D02*
X168097700Y-43938900D01*
X148844000Y-43201300D02*
X148651800Y-43217000D01*
X127537800Y-39787700D02*
X126751100Y-39662100D01*
X174923700Y-132316000D02*
X174963700Y-131893000D01*
X193738700Y-87954300D02*
X194193700Y-87538500D01*
X115921300Y-109787700D02*
X115500600Y-110425300D01*
X118805400Y-106204300D02*
X118286800Y-106774600D01*
X191802700Y-89487200D02*
X192790700Y-88743000D01*
X156768700Y-41239700D02*
X156679600Y-41492800D01*
X183548700Y-109380900D02*
X183763700Y-108427700D01*
X128842000Y-145667000D02*
X130163800Y-145487000D01*
X128917900Y-97607400D02*
X128489000Y-97884200D01*
X180759700Y-139994000D02*
X180840700Y-139652000D01*
X157505700Y-40540700D02*
X157412700Y-40519600D01*
X145072300Y-149573000D02*
X145344700Y-149530000D01*
X161495700Y-144757000D02*
X161560700Y-144525000D01*
X199334700Y-79223400D02*
X199314700Y-79156600D01*
X197989700Y-82030100D02*
X198073700Y-81783400D01*
X170317700Y-45450300D02*
X169887700Y-45436600D01*
X199043700Y-78942500D02*
X198780700Y-78875200D01*
X147802500Y-44211700D02*
X147686800Y-44431200D01*
X198073700Y-81783400D02*
X198111700Y-81549100D01*
X79070700Y-123066000D02*
X77794400Y-123559000D01*
X191898700Y-73999500D02*
X191593700Y-73532800D01*
X180325700Y-41494100D02*
X179549700Y-41865300D01*
X136539500Y-42916100D02*
X136088200Y-42649500D01*
X154258900Y-42103100D02*
X154017700Y-41920800D01*
X193455700Y-40498700D02*
X192957700Y-40304100D01*
X67707200Y-136152000D02*
X68179100Y-136657000D01*
X151094800Y-43696700D02*
X150864500Y-43681600D01*
X125167000Y-39488600D02*
X124371800Y-39438200D01*
X152190300Y-42552300D02*
X152163200Y-42795500D01*
X66408430Y-130400000D02*
X66271790Y-130708000D01*
X192776700Y-62070200D02*
X193359700Y-61493000D01*
X84907300Y-144765000D02*
X86208000Y-145067000D01*
X150715000Y-149071000D02*
X151237700Y-149178000D01*
X142773200Y-45678300D02*
X142367500Y-45745600D01*
X91016400Y-119989000D02*
X89658100Y-120216000D01*
X194451700Y-76848300D02*
X194038700Y-76494200D01*
X135598100Y-42381000D02*
X135065800Y-42112000D01*
X175991700Y-129405000D02*
X176427700Y-128580000D01*
X115500600Y-110425300D02*
X115099700Y-111075300D01*
X134826100Y-145763000D02*
X135076100Y-145898000D01*
X122152200Y-102974900D02*
X120998300Y-104017200D01*
X153164400Y-41168300D02*
X153011800Y-41181600D01*
X147001800Y-44921000D02*
X146774300Y-44975200D01*
X123980400Y-69360100D02*
X123575400Y-70312800D01*
X119297400Y-60467700D02*
X119959400Y-61203500D01*
X180392700Y-136583000D02*
X180162700Y-136193000D01*
X152064100Y-43237400D02*
X151972300Y-43419600D01*
X198445700Y-47470200D02*
X198309700Y-46676300D01*
X134487700Y-41843900D02*
X133860300Y-41578100D01*
X164136700Y-43563300D02*
X163438700Y-43775300D01*
X69275900Y-127936000D02*
X68128100Y-128700000D01*
X197310700Y-78498600D02*
X196785700Y-78285800D01*
X154505700Y-42269100D02*
X154258900Y-42103100D01*
X69212400Y-137548000D02*
X69757300Y-137924000D01*
X139115200Y-148121000D02*
X139719300Y-148393000D01*
X174978700Y-132959000D02*
X174942700Y-132743000D01*
X116918000Y-84172400D02*
X117226700Y-84625000D01*
X127589100Y-145809000D02*
X128203600Y-145748000D01*
X115563200Y-79509300D02*
X115501300Y-79839500D01*
X188804700Y-67364400D02*
X188460700Y-66314900D01*
X198014700Y-81139700D02*
X197949700Y-81053800D01*
X114025500Y-113104800D02*
X113713500Y-113809000D01*
X180372700Y-140971000D02*
X180524700Y-140654000D01*
X197601700Y-44329700D02*
X197260700Y-43564200D01*
X198431700Y-51461000D02*
X198522700Y-50665100D01*
X100619900Y-119119000D02*
X99243500Y-119169000D01*
X193942700Y-40720200D02*
X193455700Y-40498700D01*
X166316700Y-145383000D02*
X166662700Y-145516000D01*
X145344700Y-149530000D02*
X145608900Y-149458000D01*
X139937400Y-45319800D02*
X139683400Y-45167200D01*
X191398700Y-39874100D02*
X190861700Y-39779200D01*
X115471900Y-44908200D02*
X115215500Y-45457200D01*
X156443000Y-42032800D02*
X156353500Y-42170300D01*
X74926100Y-141062000D02*
X76124200Y-141659000D01*
X139683400Y-45167200D02*
X139170200Y-44811100D01*
X169454700Y-45397400D02*
X169017700Y-45331400D01*
X172002700Y-45278000D02*
X171585700Y-45352400D01*
X96491900Y-119342000D02*
X95118400Y-119465000D01*
X121224400Y-89075700D02*
X122392800Y-90148400D01*
X99556400Y-146473000D02*
X100906000Y-146474000D01*
X192447700Y-40135700D02*
X191927700Y-39992700D01*
X156353500Y-42170300D02*
X156259100Y-42287900D01*
X88835100Y-145574000D02*
X90159700Y-145782000D01*
X66000690Y-131964000D02*
X65996680Y-132280000D01*
X150204700Y-148908000D02*
X150458200Y-148997000D01*
X113713500Y-113809000D02*
X113426200Y-114527600D01*
X190861700Y-39779200D02*
X190318700Y-39707100D01*
X144127000Y-45327500D02*
X143690700Y-45447900D01*
X68179100Y-136657000D02*
X68683600Y-137125000D01*
X118569100Y-145153000D02*
X119417100Y-145101000D01*
X85621500Y-121065000D02*
X84291400Y-121406000D01*
X109190300Y-119445000D02*
X108835400Y-119286000D01*
X152859300Y-149220000D02*
X153411300Y-149163000D01*
X148015200Y-43691200D02*
X147896300Y-43941800D01*
X192171700Y-62621000D02*
X192776700Y-62070200D01*
X182166700Y-114100800D02*
X182478700Y-113163000D01*
X158287700Y-41564700D02*
X158125700Y-41248300D01*
X198690700Y-80107100D02*
X198894700Y-79943000D01*
X115787900Y-78883600D02*
X115658600Y-79190600D01*
X199338700Y-79294300D02*
X199334700Y-79223400D01*
X167921700Y-43686300D02*
X167808700Y-43583000D01*
X182095700Y-40795000D02*
X181101700Y-41162200D01*
X197865700Y-82283500D02*
X197989700Y-82030100D01*
X194632700Y-86099200D02*
X194601700Y-86044100D01*
X102254700Y-146455000D02*
X103601700Y-146415000D01*
X161750700Y-42073300D02*
X161586700Y-42153700D01*
X185135700Y-94175300D02*
X185473700Y-93940700D01*
X148471400Y-43268000D02*
X148304200Y-43360100D01*
X162253700Y-140874000D02*
X162553700Y-140877000D01*
X176623700Y-128164000D02*
X176793700Y-127746000D01*
X161397700Y-141152000D02*
X161658700Y-141016000D01*
X161651700Y-143819000D02*
X161644700Y-143582000D01*
X197855700Y-78683800D02*
X197310700Y-78498600D01*
X179060700Y-142685000D02*
X179320700Y-142423000D01*
X120047300Y-40274000D02*
X119517700Y-40554200D01*
X194881700Y-77181800D02*
X194451700Y-76848300D01*
X195329700Y-77493400D02*
X194881700Y-77181800D01*
X194744700Y-85560100D02*
X194889700Y-85358300D01*
X106110600Y-119144000D02*
X104741800Y-119105000D01*
X184448700Y-100693800D02*
X184380700Y-99713700D01*
X192790700Y-88743000D02*
X193270700Y-88355200D01*
X199070700Y-79775200D02*
X199208700Y-79608100D01*
X118440200Y-77111000D02*
X118016100Y-77389100D01*
X78567300Y-142734000D02*
X79810600Y-143213000D01*
X69757300Y-137924000D02*
X70310300Y-138247000D01*
X196541700Y-42662900D02*
X196151700Y-42261900D01*
X126458300Y-145837000D02*
X127005100Y-145842000D01*
X167808700Y-43583000D02*
X167680700Y-43494000D01*
X189767700Y-90902700D02*
X190790700Y-90202000D01*
X197530700Y-82788000D02*
X197710700Y-82538000D01*
X104946100Y-146356000D02*
X106286900Y-146279000D01*
X190790700Y-90202000D02*
X191802700Y-89487200D01*
X122124000Y-63239000D02*
X122898000Y-63857600D01*
X165388700Y-43296300D02*
X164956700Y-43371100D01*
X175104700Y-133393000D02*
X175031700Y-133175000D01*
X114637500Y-47175100D02*
X114512100Y-47765100D01*
X186975700Y-39706700D02*
X186415700Y-39770900D01*
X155951000Y-42530700D02*
X155841100Y-42577800D01*
X120595300Y-40029600D02*
X120047300Y-40274000D01*
X158616700Y-147923000D02*
X159067700Y-147664000D01*
X66308040Y-133848000D02*
X66429440Y-134154000D01*
X123137700Y-71249800D02*
X122663700Y-72164500D01*
X195690700Y-84509100D02*
X196369700Y-83880600D01*
X163262700Y-141227000D02*
X163330700Y-141341000D01*
X116098900Y-55502600D02*
X116529300Y-56391900D01*
X152657000Y-41304800D02*
X152568900Y-41370200D01*
X150864500Y-43681600D02*
X150631500Y-43643200D01*
X178167700Y-134400000D02*
X177762700Y-134198000D01*
X161136700Y-142330000D02*
X161049700Y-142183000D01*
X168577700Y-45237300D02*
X168132700Y-45113700D01*
X142202300Y-149247000D02*
X142839600Y-149388000D01*
X89658100Y-120216000D02*
X88305600Y-120471000D01*
X198780700Y-78875200D02*
X198421700Y-78840300D01*
X162377700Y-41964000D02*
X162226700Y-41953500D01*
X171585700Y-45352400D02*
X171166700Y-45406900D01*
X75282300Y-124641000D02*
X74048000Y-125232000D01*
X146524200Y-45013700D02*
X145955300Y-45066600D01*
X168212700Y-44647100D02*
X168216700Y-44442900D01*
X152568900Y-41370200D02*
X152493800Y-41446100D01*
X182478700Y-113163000D02*
X182774700Y-112222100D01*
X148027800Y-148178000D02*
X148269700Y-148094000D01*
X197751700Y-80634700D02*
X197987700Y-80531100D01*
X160296700Y-146672000D02*
X160644700Y-146282000D01*
X180737700Y-137438000D02*
X180585700Y-136998000D01*
X113426200Y-114527600D02*
X113164700Y-115261100D01*
X124707100Y-67433900D02*
X124356400Y-68398300D01*
X194193700Y-87538500D02*
X194633700Y-87105800D01*
X196697700Y-56834200D02*
X197053700Y-56098300D01*
X199208700Y-79608100D02*
X199300700Y-79446300D01*
X199300700Y-79446300D02*
X199338700Y-79294300D01*
X122149500Y-73050300D02*
X121876300Y-73480300D01*
X71436000Y-139016000D02*
X72581100Y-139741000D01*
X119880100Y-105092600D02*
X119336800Y-105643700D01*
X130817700Y-96249100D02*
X130630500Y-96451700D01*
X129542200Y-94501700D02*
X130324000Y-94897100D01*
X66058000Y-132912000D02*
X66121290Y-133226000D01*
X194754700Y-86180800D02*
X194683700Y-86145000D01*
X188747700Y-91604500D02*
X189767700Y-90902700D01*
X133420700Y-145366000D02*
X133719800Y-145413000D01*
X177762700Y-134198000D02*
X177346700Y-134025000D01*
X177996700Y-42682200D02*
X176432700Y-43526200D01*
X132444000Y-41059100D02*
X131648100Y-40808700D01*
X130630500Y-96451700D02*
X130416300Y-96642800D01*
X159053700Y-43316500D02*
X158995700Y-43238800D01*
X161608700Y-144291000D02*
X161638700Y-144056000D01*
X132159400Y-145311000D02*
X132801400Y-145315000D01*
X196308700Y-57555400D02*
X196697700Y-56834200D01*
X157597700Y-40586100D02*
X157505700Y-40540700D01*
X157232700Y-148430000D02*
X157693700Y-148310000D01*
X172827700Y-45074500D02*
X172416700Y-45184900D01*
X173236700Y-44948100D02*
X172827700Y-45074500D01*
X131154100Y-95562400D02*
X131085800Y-95805500D01*
X157042700Y-40723200D02*
X156950700Y-40857100D01*
X119959400Y-61203500D02*
X120652600Y-61911200D01*
X160281700Y-43095400D02*
X159982700Y-43304200D01*
X98206900Y-146449000D02*
X99556400Y-146473000D01*
X166662700Y-145516000D02*
X167018700Y-145632000D01*
X187489700Y-92575600D02*
X187744700Y-92322600D01*
X176491700Y-133768000D02*
X176058700Y-133685000D01*
X129863300Y-40333100D02*
X129095000Y-40122000D01*
X121119100Y-145072000D02*
X121977200Y-145106000D01*
X184007700Y-95422500D02*
X184086700Y-95262700D01*
X159338700Y-43518500D02*
X159233700Y-43484700D01*
X86208000Y-145067000D02*
X87517500Y-145336000D01*
X189215700Y-39628000D02*
X188657700Y-39619300D01*
X190234700Y-64098800D02*
X190899700Y-63636700D01*
X176793700Y-127746000D02*
X176929700Y-127325000D01*
X178927700Y-134889000D02*
X178556700Y-134631000D01*
X184478700Y-101671000D02*
X184448700Y-100693800D01*
X174924700Y-132529000D02*
X174923700Y-132316000D01*
X197334700Y-83027900D02*
X197530700Y-82788000D01*
X190497700Y-71562500D02*
X190017700Y-70531300D01*
X126632900Y-93035100D02*
X127370200Y-93384100D01*
X176585700Y-144408000D02*
X177252700Y-144042000D01*
X137343300Y-147212000D02*
X138517800Y-147831000D01*
X163159700Y-42765400D02*
X163047700Y-42529000D01*
X185301700Y-39946900D02*
X184204700Y-40180600D01*
X139170200Y-44811100D02*
X138627100Y-44396700D01*
X123717400Y-145293000D02*
X124603400Y-145457000D01*
X170091700Y-145995000D02*
X170880700Y-145953000D01*
X115658600Y-79190600D02*
X115563200Y-79509300D01*
X161570700Y-143107000D02*
X161502700Y-142871000D01*
X121295100Y-74310400D02*
X120986200Y-74708800D01*
X129095000Y-40122000D02*
X128319400Y-39940600D01*
X100906000Y-146474000D02*
X102254700Y-146455000D01*
X186415700Y-39770900D02*
X185857700Y-39851200D01*
X176432700Y-43526200D02*
X175643700Y-43931200D01*
X118286800Y-106774600D02*
X117782000Y-107355300D01*
X162524700Y-42004700D02*
X162377700Y-41964000D01*
X163382700Y-141971000D02*
X163329700Y-142175000D01*
X175191700Y-131057000D02*
X175360700Y-130642000D01*
X183952700Y-107471500D02*
X184116700Y-106512300D01*
X198298700Y-52252900D02*
X198431700Y-51461000D01*
X130324000Y-94897100D02*
X131170100Y-95303800D01*
X159452700Y-43522800D02*
X159338700Y-43518500D01*
X117575500Y-77648300D02*
X117118000Y-77888000D01*
X184431700Y-103616500D02*
X184472700Y-102645200D01*
X123575400Y-70312800D02*
X123137700Y-71249800D01*
X140330000Y-148645000D02*
X140947500Y-148873000D01*
X93747400Y-119614000D02*
X92379800Y-119788000D01*
X113399700Y-145675000D02*
X115151600Y-145494000D01*
X151655300Y-43665100D02*
X151541100Y-43695600D01*
X127370200Y-93384100D02*
X128086700Y-93745000D01*
X162226700Y-41953500D02*
X162071700Y-41970200D01*
X184273700Y-98730600D02*
X184123700Y-97744600D01*
X180922700Y-138578000D02*
X180892700Y-138205000D01*
X119618300Y-76172600D02*
X119240900Y-76502000D01*
X178515700Y-123307000D02*
X180043700Y-119662000D01*
X160964700Y-141776000D02*
X160988700Y-141652000D01*
X188657700Y-39619300D02*
X188098700Y-39630100D01*
X183883700Y-96539200D02*
X183856700Y-96332100D01*
X120986200Y-74708800D02*
X120664600Y-75095100D01*
X129415900Y-97313800D02*
X128917900Y-97607400D01*
X68128100Y-128700000D02*
X67000000Y-129500000D01*
X66893500Y-135046000D02*
X67275900Y-135613000D01*
X152248600Y-42063100D02*
X152190300Y-42552300D01*
X151972300Y-43419600D02*
X151911600Y-43497400D01*
X195103700Y-86220200D02*
X194847700Y-86205700D01*
X114797300Y-46592500D02*
X114637500Y-47175100D01*
X125960500Y-39562800D02*
X125167000Y-39488600D01*
X118320300Y-86035300D02*
X119184900Y-87017500D01*
X84291400Y-121406000D02*
X82970500Y-121775000D01*
X198575700Y-49066900D02*
X198533700Y-48267600D01*
X163378700Y-141471000D02*
X163404700Y-141620000D01*
X169301700Y-145989000D02*
X170091700Y-145995000D01*
X161099700Y-141428000D02*
X161183700Y-141327000D01*
X165051700Y-144660000D02*
X165347700Y-144870000D01*
X118016100Y-77389100D02*
X117575500Y-77648300D01*
X185857700Y-39851200D02*
X185301700Y-39946900D01*
X110279700Y-145948000D02*
X111597800Y-145808000D01*
X121742600Y-39655700D02*
X121160700Y-39822900D01*
X140731000Y-45659300D02*
X140457700Y-45567300D01*
X159703700Y-43454600D02*
X159574700Y-43500500D01*
X115378500Y-53655800D02*
X115714600Y-54590300D01*
X183052700Y-111278100D02*
X183311700Y-110331000D01*
X149466400Y-148540000D02*
X149708500Y-148680000D01*
X148766700Y-148008000D02*
X148995200Y-148205000D01*
X147789000Y-148284000D02*
X148027800Y-148178000D01*
X76531300Y-124084000D02*
X75282300Y-124641000D01*
X121374900Y-62589900D02*
X122124000Y-63239000D01*
X164770700Y-144429000D02*
X165051700Y-144660000D01*
X66271790Y-130708000D02*
X66163720Y-131019000D01*
X197987700Y-80531100D02*
X198228700Y-80405700D01*
X117226700Y-84625000D02*
X117563600Y-85086400D01*
X168135700Y-145879000D02*
X168520700Y-145930000D01*
X183311700Y-110331000D02*
X183548700Y-109380900D01*
X96858300Y-146402000D02*
X98206900Y-146449000D01*
X164535700Y-43461900D02*
X164136700Y-43563300D01*
X114512100Y-47765100D02*
X114422100Y-48360500D01*
X114422100Y-48360500D02*
X114368500Y-48959600D01*
X121977200Y-145106000D02*
X122842600Y-145178000D01*
X191927700Y-39992700D02*
X191398700Y-39874100D01*
X180787700Y-117821000D02*
X181499700Y-115967200D01*
X180923700Y-138944000D02*
X180922700Y-138578000D01*
X130971600Y-96034000D02*
X130817700Y-96249100D01*
X128319400Y-39940600D02*
X127537800Y-39787700D01*
X179897700Y-135827000D02*
X179600700Y-135488000D01*
X157412700Y-40519600D02*
X157320700Y-40525100D01*
X83616300Y-144429000D02*
X84907300Y-144765000D01*
X139719300Y-148393000D02*
X140330000Y-148645000D01*
X87517500Y-145336000D02*
X88835100Y-145574000D01*
X199275700Y-79094600D02*
X199218700Y-79037900D01*
X196280700Y-78046500D02*
X195795700Y-77782000D01*
X116643000Y-78107300D02*
X116150200Y-78305300D01*
X167038700Y-43268100D02*
X166657700Y-43223500D01*
X120266400Y-145072000D02*
X121119100Y-145072000D01*
X189175700Y-68423100D02*
X188804700Y-67364400D01*
X121591600Y-73900600D02*
X121295100Y-74310400D01*
X160988700Y-141652000D02*
X161034700Y-141536000D01*
X116386800Y-83294900D02*
X116637900Y-83729000D01*
X161256700Y-142481000D02*
X161136700Y-142330000D01*
X144539500Y-45237500D02*
X144127000Y-45327500D01*
X156679600Y-41492800D02*
X156527400Y-41874700D01*
X90159700Y-145782000D02*
X91490500Y-145961000D01*
X114871500Y-52524300D02*
X115102500Y-53095800D01*
X67000000Y-129500000D02*
X66771500Y-129795000D01*
X199218700Y-79037900D02*
X199141700Y-78987000D01*
X128179500Y-98152400D02*
X125748600Y-100016000D01*
X66574670Y-130096000D02*
X66408430Y-130400000D01*
X122898000Y-63857600D02*
X123694600Y-64445200D01*
X171660700Y-145867000D02*
X172423700Y-145742000D01*
X144133800Y-149559000D02*
X144790700Y-149584000D01*
X175626700Y-133633000D02*
X175198700Y-133613000D01*
X123575900Y-39410600D02*
X123575900Y-39410600D01*
X130163800Y-145487000D02*
X130833900Y-145407000D01*
X197129700Y-83252200D02*
X197334700Y-83027900D01*
X162553700Y-140877000D02*
X162696700Y-140898000D01*
X190017700Y-70531300D02*
X189578700Y-69481800D01*
X196534700Y-83775000D02*
X196721700Y-83631300D01*
X143213100Y-45579600D02*
X142773200Y-45678300D01*
X156527400Y-41874700D02*
X156443000Y-42032800D01*
X169017700Y-45331400D02*
X168577700Y-45237300D01*
X188460700Y-66314900D02*
X188140700Y-65283700D01*
X191300700Y-73054600D02*
X191020700Y-72566000D01*
X195437700Y-58948200D02*
X195887700Y-58260600D01*
X196369700Y-83880600D02*
X196534700Y-83775000D01*
X163047700Y-42529000D02*
X162927700Y-42337700D01*
X126751100Y-39662100D02*
X125960500Y-39562800D01*
X136196000Y-146560000D02*
X137343300Y-147212000D01*
X115681100Y-81655600D02*
X115811900Y-82050400D01*
X127005100Y-145842000D02*
X127589100Y-145809000D01*
X79810600Y-143213000D02*
X81067100Y-143654000D01*
X119517700Y-40554200D02*
X119007700Y-40868300D01*
X198109700Y-81438300D02*
X198093700Y-81332600D01*
X198570700Y-49866500D02*
X198575700Y-49066900D01*
X175031700Y-133175000D02*
X174978700Y-132959000D01*
X162959700Y-140984000D02*
X163074700Y-141049000D01*
X115951700Y-78588400D02*
X115787900Y-78883600D01*
X150458200Y-148997000D02*
X150715000Y-149071000D01*
X108954600Y-146074000D02*
X110279700Y-145948000D01*
X178499700Y-143179000D02*
X178786700Y-142937000D01*
X158439700Y-41899700D02*
X158287700Y-41564700D01*
X183942700Y-95589100D02*
X184007700Y-95422500D01*
X184116700Y-106512300D02*
X184251700Y-105550000D01*
X151262100Y-43712500D02*
X151094800Y-43696700D01*
X189578700Y-69481800D02*
X189175700Y-68423100D01*
X178556700Y-134631000D02*
X178167700Y-134400000D01*
X182774700Y-112222100D02*
X183052700Y-111278100D01*
X163406700Y-141786000D02*
X163382700Y-141971000D01*
X117563600Y-85086400D02*
X117928300Y-85556600D01*
X153563300Y-41535200D02*
X153164400Y-41168300D01*
X172423700Y-145742000D02*
X173158700Y-145584000D01*
X180199700Y-141280000D02*
X180372700Y-140971000D01*
X107475400Y-119205000D02*
X106110600Y-119144000D01*
X168216700Y-44442900D02*
X168197700Y-44257300D01*
X114990300Y-46019300D02*
X114797300Y-46592500D01*
X193917700Y-60890600D02*
X194451700Y-60264700D01*
X147389000Y-44742200D02*
X147206600Y-44845200D01*
X67275900Y-135613000D02*
X67707200Y-136152000D01*
X163330700Y-141341000D02*
X163378700Y-141471000D01*
X103369900Y-119087000D02*
X101995700Y-119092000D01*
X112049500Y-118359000D02*
X111841500Y-118628000D01*
X188098700Y-39630100D02*
X187537700Y-39659500D01*
X162071700Y-41970200D02*
X161912700Y-42011100D01*
X194415700Y-40969500D02*
X193942700Y-40720200D01*
X111612400Y-118871000D02*
X111363500Y-119086000D01*
X66016120Y-132597000D02*
X66058000Y-132912000D01*
X115714600Y-54590300D02*
X116098900Y-55502600D01*
X157134700Y-40624800D02*
X157042700Y-40723200D01*
X154755300Y-42411800D02*
X154505700Y-42269100D01*
X186876700Y-93045700D02*
X187197700Y-92815500D01*
X176427700Y-128580000D02*
X176623700Y-128164000D01*
X137339600Y-43437900D02*
X136539500Y-42916100D01*
X180892700Y-138205000D02*
X180831700Y-137825000D01*
X118075400Y-58914500D02*
X118668700Y-59704400D01*
X95511400Y-146331000D02*
X96858300Y-146402000D01*
X141017600Y-45728200D02*
X140731000Y-45659300D01*
X159982700Y-43304200D02*
X159703700Y-43454600D01*
X184123700Y-97744600D02*
X183931700Y-96755600D01*
X81659600Y-122175000D02*
X80359300Y-122605000D01*
X152493800Y-41446100D02*
X152377900Y-41625100D01*
X198111700Y-81549100D02*
X198109700Y-81438300D01*
X114374900Y-50161100D02*
X114437000Y-50759700D01*
X163355700Y-43385600D02*
X163262700Y-43050000D01*
X196911700Y-43096700D02*
X196541700Y-42662900D01*
X177894700Y-143632000D02*
X178499700Y-143179000D01*
X161255700Y-42357300D02*
X160924700Y-42598100D01*
X178786700Y-142937000D02*
X179060700Y-142685000D01*
X198062700Y-81232900D02*
X198014700Y-81139700D01*
X66723210Y-134754000D02*
X66893500Y-135046000D01*
X198309700Y-46676300D02*
X198124700Y-45887200D01*
X180653700Y-140328000D02*
X180759700Y-139994000D01*
X183863700Y-95944500D02*
X183894700Y-95763000D01*
X184204700Y-40180600D02*
X183133700Y-40465600D01*
X174849700Y-44310400D02*
X174047700Y-44653000D01*
X187537700Y-39659500D02*
X186975700Y-39706700D01*
X151770600Y-149234000D02*
X152311800Y-149246000D01*
X172416700Y-45184900D02*
X172002700Y-45278000D01*
X192899700Y-75319200D02*
X192551700Y-74893900D01*
X117782000Y-107355300D02*
X117292100Y-107946500D01*
X95118400Y-119465000D02*
X93747400Y-119614000D01*
X135076100Y-145898000D02*
X136196000Y-146560000D01*
X163438700Y-43775300D02*
X163355700Y-43385600D01*
X161415700Y-144986000D02*
X161495700Y-144757000D01*
X183894700Y-95763000D02*
X183942700Y-95589100D01*
X197662700Y-54588900D02*
X197912700Y-53818300D01*
X138026200Y-43935200D02*
X137339600Y-43437900D01*
X168197700Y-44257300D02*
X168157700Y-44089600D01*
X195795700Y-77782000D02*
X195329700Y-77493400D01*
X124535300Y-100977400D02*
X123333900Y-101962700D01*
X104741800Y-119105000D02*
X103369900Y-119087000D01*
X161644700Y-143582000D02*
X161617700Y-143344000D01*
X177758700Y-125110000D02*
X178515700Y-123307000D01*
X197639700Y-80846600D02*
X197494700Y-80796800D01*
X183856700Y-96332100D02*
X183850700Y-96134000D01*
X159138700Y-43418300D02*
X159053700Y-43316500D01*
X124371800Y-39438200D02*
X123575900Y-39410600D01*
X161638700Y-144056000D02*
X161651700Y-143819000D01*
X71627400Y-126515000D02*
X70442600Y-127208000D01*
X167018700Y-145632000D02*
X167383700Y-145731000D01*
X174963700Y-131893000D02*
X175055700Y-131473000D01*
X133860300Y-41578100D02*
X133180300Y-41316000D01*
X148651800Y-43217000D02*
X148471400Y-43268000D01*
X119184900Y-87017500D02*
X120154000Y-88031500D01*
X187197700Y-92815500D02*
X187489700Y-92575600D01*
X115215500Y-45457200D02*
X114990300Y-46019300D01*
X114719500Y-111738400D02*
X114361100Y-112414700D01*
X122951200Y-39447700D02*
X122339800Y-39530000D01*
X119240900Y-76502000D02*
X118848300Y-76815100D01*
X120652600Y-61911200D02*
X121374900Y-62589900D01*
X163329700Y-142175000D02*
X163471700Y-142569000D01*
X148151600Y-43499200D02*
X148015200Y-43691200D01*
X115102500Y-53095800D02*
X115378500Y-53655800D01*
X158995700Y-43238800D02*
X158917700Y-43074300D01*
X191020700Y-72566000D02*
X190497700Y-71562500D01*
X162696700Y-140898000D02*
X162832700Y-140934000D01*
X149701500Y-43374200D02*
X149257900Y-43252300D01*
X195265700Y-84930100D02*
X195690700Y-84509100D01*
X198522700Y-50665100D02*
X198570700Y-49866500D01*
X140457700Y-45567300D02*
X140194400Y-45453600D01*
X176058700Y-133685000D02*
X175626700Y-133633000D01*
X175055700Y-131473000D02*
X175191700Y-131057000D01*
X197949700Y-81053800D02*
X197865700Y-80975800D01*
X164506700Y-144176000D02*
X164770700Y-144429000D01*
X135065800Y-42112000D02*
X134487700Y-41843900D01*
X194958700Y-59616800D02*
X195437700Y-58948200D01*
X152124400Y-43026600D02*
X152064100Y-43237400D01*
X194641700Y-85745700D02*
X194744700Y-85560100D01*
X124356400Y-68398300D02*
X123980400Y-69360100D01*
X160924700Y-42598100D02*
X160597700Y-42852000D01*
X162927700Y-42337700D02*
X162799700Y-42188600D01*
X111841500Y-118628000D02*
X111612400Y-118871000D01*
X159067700Y-147664000D02*
X159501700Y-147367000D01*
X163074700Y-141049000D02*
X163176700Y-141130000D01*
X194038700Y-76494200D02*
X193642700Y-76120600D01*
X120998300Y-104017200D02*
X119880100Y-105092600D01*
X198124700Y-53039200D02*
X198298700Y-52252900D01*
X159501700Y-147367000D02*
X159913700Y-147035000D01*
X124511800Y-65000800D02*
X125347400Y-65523900D01*
X198124700Y-45887200D02*
X197888700Y-45104500D01*
X120154000Y-88031500D02*
X121224400Y-89075700D01*
X118050700Y-41590600D02*
X117605700Y-41995000D01*
X197494700Y-80796800D02*
X197327700Y-80757800D01*
X115513100Y-80896900D02*
X115581300Y-81271000D01*
X147686800Y-44431200D02*
X147549000Y-44606100D01*
X160644700Y-146282000D02*
X160951700Y-145868000D01*
X91490500Y-145961000D02*
X92826700Y-146111000D01*
X112641700Y-117110000D02*
X112532500Y-117440000D01*
X161034700Y-141536000D02*
X161099700Y-141428000D01*
X122392800Y-90148400D02*
X123655900Y-91248300D01*
X144790700Y-149584000D02*
X145072300Y-149573000D01*
X185473700Y-93940700D02*
X185825700Y-93713900D01*
X148269700Y-148094000D02*
X148515600Y-148035000D01*
X70310300Y-138247000D02*
X71436000Y-139016000D01*
X115472700Y-80180900D02*
X115476700Y-80533500D01*
X119981100Y-75827800D02*
X119618300Y-76172600D01*
X82335900Y-144059000D02*
X83616300Y-144429000D01*
X156858700Y-41028500D02*
X156768700Y-41239700D01*
X92826700Y-146111000D02*
X94167300Y-146234000D01*
X184251700Y-105550000D02*
X184357700Y-104584700D01*
X197260700Y-43564200D02*
X196911700Y-43096700D01*
X166248700Y-43217000D02*
X165822700Y-43243100D01*
X133180300Y-41316000D02*
X132444000Y-41059100D01*
X197375700Y-55349400D02*
X197662700Y-54588900D01*
X184286700Y-94961600D02*
X184533700Y-94682300D01*
X185825700Y-93713900D02*
X186535700Y-93269900D01*
X187744700Y-92322600D02*
X188747700Y-91604500D01*
X112235000Y-118069000D02*
X112049500Y-118359000D01*
X117118000Y-77888000D02*
X116643000Y-78107300D01*
X114361100Y-112414700D02*
X114025500Y-113104800D01*
X157955700Y-40968000D02*
X157778700Y-40741500D01*
X151754300Y-43621200D02*
X151655300Y-43665100D01*
X99243500Y-119169000D02*
X97867200Y-119244000D01*
X116360800Y-109162300D02*
X115921300Y-109787700D01*
X157227700Y-40559500D02*
X157134700Y-40624800D01*
X125853300Y-92698200D02*
X126632900Y-93035100D01*
X118668700Y-59704400D02*
X119297400Y-60467700D01*
X114539700Y-51354400D02*
X114684200Y-51943200D01*
X141644900Y-45791400D02*
X141321100Y-45772800D01*
X158708700Y-42555200D02*
X158439700Y-41899700D01*
X194873700Y-41247500D02*
X194415700Y-40969500D01*
X114368500Y-48959600D02*
X114352400Y-49560500D01*
X122842600Y-145178000D02*
X123717400Y-145293000D01*
X151541100Y-43695600D02*
X151410400Y-43711800D01*
X161617700Y-143344000D02*
X161570700Y-143107000D01*
X199314700Y-79156600D02*
X199275700Y-79094600D01*
X180524700Y-140654000D02*
X180653700Y-140328000D01*
X88305600Y-120471000D02*
X86959800Y-120754000D01*
X116818100Y-108548700D02*
X116360800Y-109162300D01*
X164259700Y-143901000D02*
X164506700Y-144176000D01*
X168184700Y-44870400D02*
X168212700Y-44647100D01*
X134010700Y-145474000D02*
X134292600Y-145553000D01*
X152299400Y-41833500D02*
X152248600Y-42063100D01*
X115476700Y-80533500D02*
X115513100Y-80896900D01*
X116074000Y-43857100D02*
X115758400Y-44374200D01*
X194847700Y-86205700D02*
X194754700Y-86180800D01*
X176929700Y-127325000D02*
X177022700Y-126900000D01*
X161949700Y-140922000D02*
X162253700Y-140874000D01*
X155728100Y-42609500D02*
X155494300Y-42630000D01*
X180043700Y-119662000D02*
X180787700Y-117821000D01*
X128489000Y-97884200D02*
X128316100Y-98018800D01*
X123655900Y-91248300D02*
X125010300Y-92373600D01*
X86959800Y-120754000D02*
X85621500Y-121065000D01*
X120664600Y-75095100D02*
X120329700Y-75468400D01*
X161411700Y-142636000D02*
X161256700Y-142481000D01*
X141992600Y-45782900D02*
X141644900Y-45791400D01*
X77794400Y-123559000D02*
X76531300Y-124084000D01*
X197912700Y-53818300D02*
X198124700Y-53039200D01*
X111096400Y-119268000D02*
X110812500Y-119413000D01*
X188140700Y-65283700D02*
X188853700Y-64923800D01*
X116165200Y-82870300D02*
X116386800Y-83294900D01*
X81067100Y-143654000D02*
X82335900Y-144059000D01*
X167382700Y-43356500D02*
X167038700Y-43268100D01*
X66771500Y-129795000D02*
X66574670Y-130096000D01*
X109873900Y-119586000D02*
X109537000Y-119544000D01*
X197529700Y-80711700D02*
X197751700Y-80634700D01*
X180831700Y-137825000D02*
X180737700Y-137438000D01*
X117519600Y-58098600D02*
X118075400Y-58914500D01*
X161183700Y-141327000D02*
X161283700Y-141235000D01*
X168132700Y-45113700D02*
X168184700Y-44870400D01*
X179794700Y-141870000D02*
X180006700Y-141580000D01*
X148995200Y-148205000D02*
X149228500Y-148382000D01*
X74048000Y-125232000D02*
X72829500Y-125856000D01*
X193263700Y-75728500D02*
X192899700Y-75319200D01*
X184533700Y-94682300D02*
X184818700Y-94421400D01*
X179600700Y-135488000D02*
X179276700Y-135175000D01*
X161658700Y-141016000D02*
X161949700Y-140922000D01*
X198465700Y-80262800D02*
X198690700Y-80107100D01*
X193642700Y-76120600D02*
X193263700Y-75728500D01*
X106286900Y-146279000D02*
X107623400Y-146184000D01*
X164032700Y-143604000D02*
X164259700Y-143901000D01*
X130416300Y-96642800D02*
X130181400Y-96823600D01*
X136088200Y-42649500D02*
X135598100Y-42381000D01*
X163823700Y-143283000D02*
X164032700Y-143604000D01*
X154017700Y-41920800D02*
X153563300Y-41535200D01*
X192551700Y-74893900D02*
X192218700Y-74453600D01*
X116869500Y-145307000D02*
X118569100Y-145153000D01*
X111363500Y-119086000D02*
X111096400Y-119268000D01*
X194587700Y-85980500D02*
X194590700Y-85909000D01*
X190899700Y-63636700D02*
X191545700Y-63143600D01*
X156160400Y-42386600D02*
X156057600Y-42467200D01*
X153011800Y-41181600D02*
X152877200Y-41209400D01*
X155073800Y-148868000D02*
X156168000Y-148634000D01*
X168018700Y-43804800D02*
X167921700Y-43686300D01*
X196922700Y-83455200D02*
X197129700Y-83252200D01*
X163471700Y-142569000D02*
X163636700Y-142939000D01*
X163176700Y-141130000D02*
X163262700Y-141227000D01*
X119336800Y-105643700D02*
X118805400Y-106204300D01*
X110812500Y-119413000D02*
X110513100Y-119517000D01*
X158125700Y-41248300D02*
X157955700Y-40968000D01*
X160993700Y-142042000D02*
X160966700Y-141906000D01*
X72581100Y-139741000D02*
X73744700Y-140423000D01*
X116637900Y-83729000D02*
X116918000Y-84172400D01*
X107623400Y-146184000D02*
X108954600Y-146074000D01*
X153411300Y-149163000D02*
X153965600Y-149080000D01*
X161560700Y-144525000D02*
X161608700Y-144291000D01*
X170880700Y-145953000D02*
X171660700Y-145867000D01*
X120329700Y-75468400D02*
X119981100Y-75827800D01*
X192957700Y-40304100D02*
X192447700Y-40135700D01*
X199141700Y-78987000D02*
X199043700Y-78942500D01*
X197762700Y-80906500D02*
X197639700Y-80846600D01*
X130833900Y-145407000D02*
X131501300Y-145345000D01*
X173158700Y-145584000D02*
X173858700Y-145398000D01*
X112532500Y-117440000D02*
X112396500Y-117761000D01*
X160966700Y-141906000D02*
X160964700Y-141776000D01*
X146117100Y-149247000D02*
X146363100Y-149118000D01*
X164956700Y-43371100D02*
X164535700Y-43461900D01*
X145608900Y-149458000D02*
X145866100Y-149362000D01*
X198093700Y-81332600D02*
X198062700Y-81232900D01*
X179320700Y-142423000D02*
X179565700Y-142151000D01*
X125347400Y-65523900D02*
X125036200Y-66473600D01*
X118848300Y-76815100D02*
X118440200Y-77111000D01*
X179565700Y-142151000D02*
X179794700Y-141870000D01*
X152311800Y-149246000D02*
X152859300Y-149220000D01*
X128203600Y-145748000D02*
X128842000Y-145667000D01*
X92379800Y-119788000D02*
X91016400Y-119989000D01*
X66163720Y-131019000D02*
X66083190Y-131332000D01*
X161283700Y-141235000D02*
X161397700Y-141152000D01*
X116150200Y-78305300D02*
X115951700Y-78588400D01*
X145294100Y-45125800D02*
X144928500Y-45172200D01*
X197888700Y-45104500D02*
X197601700Y-44329700D01*
X145955300Y-45066600D02*
X145294100Y-45125800D01*
X198421700Y-78840300D02*
X197855700Y-78683800D01*
X155494300Y-42630000D02*
X155252400Y-42599200D01*
X165657700Y-145061000D02*
X165980700Y-145231000D01*
X115501300Y-79839500D02*
X115472700Y-80180900D01*
X125036200Y-66473600D02*
X124707100Y-67433900D01*
X114352400Y-49560500D02*
X114374900Y-50161100D01*
X66083190Y-131332000D02*
X66029190Y-131648000D01*
X66568170Y-134456000D02*
X66723210Y-134754000D01*
X66121290Y-133226000D02*
X66204980Y-133538000D01*
X183133700Y-40465600D02*
X182095700Y-40795000D01*
X97867200Y-119244000D02*
X96491900Y-119342000D01*
X123575900Y-39410600D02*
X122951200Y-39447700D01*
X119007700Y-40868300D02*
X118518400Y-41214400D01*
X151911600Y-43497400D02*
X151839400Y-43564900D01*
X157320700Y-40525100D02*
X157227700Y-40559500D01*
X195316700Y-41555000D02*
X194873700Y-41247500D01*
X168097700Y-43938900D02*
X168018700Y-43804800D01*
X181499700Y-115967200D02*
X182166700Y-114100800D01*
X116529300Y-56391900D02*
X117003500Y-57257500D01*
X192218700Y-74453600D02*
X191898700Y-73999500D01*
X66429440Y-134154000D02*
X66568170Y-134456000D01*
X194590700Y-85909000D02*
X194641700Y-85745700D01*
X167680700Y-43494000D02*
X167538700Y-43418800D01*
X198894700Y-79943000D02*
X199070700Y-79775200D01*
X125955300Y-145784000D02*
X126458300Y-145837000D01*
X125748600Y-100016000D02*
X124535300Y-100977400D01*
X159913700Y-147035000D02*
X160296700Y-146672000D01*
X196785700Y-78285800D02*
X196280700Y-78046500D01*
X159233700Y-43484700D02*
X159138700Y-43418300D01*
X180895700Y-139302000D02*
X180923700Y-138944000D01*
X141571600Y-149075000D02*
X142202300Y-149247000D01*
X198533700Y-48267600D02*
X198445700Y-47470200D01*
X193359700Y-61493000D02*
X193917700Y-60890600D01*
X177022700Y-126900000D02*
X177758700Y-125110000D01*
X169887700Y-45436600D02*
X169454700Y-45397400D01*
X68683600Y-137125000D02*
X69212400Y-137548000D01*
X131085800Y-95805500D02*
X130971600Y-96034000D01*
X152163200Y-42795500D02*
X152124400Y-43026600D01*
X158156700Y-148139000D02*
X158616700Y-147923000D01*
X193270700Y-88355200D02*
X193738700Y-87954300D01*
X77338300Y-142216000D02*
X78567300Y-142734000D01*
X156168000Y-148634000D02*
X157232700Y-148430000D01*
X170743700Y-45439900D02*
X170317700Y-45450300D01*
X179549700Y-41865300D02*
X178773700Y-42264900D01*
X183931700Y-96755600D02*
X183883700Y-96539200D01*
X180585700Y-136998000D02*
X180392700Y-136583000D01*
X150163200Y-43520100D02*
X149701500Y-43374200D01*
X191545700Y-63143600D02*
X192171700Y-62621000D01*
X167383700Y-145731000D02*
X167756700Y-145813000D01*
X117003500Y-57257500D02*
X117519600Y-58098600D01*
X188853700Y-64923800D02*
X189552700Y-64528300D01*
X117292100Y-107946500D02*
X116818100Y-108548700D01*
X159574700Y-43500500D02*
X159452700Y-43522800D01*
X148515600Y-148035000D02*
X148766700Y-148008000D01*
X156950700Y-40857100D02*
X156858700Y-41028500D01*
X151237700Y-149178000D02*
X151770600Y-149234000D01*
X112722600Y-116774300D02*
X112641700Y-117110000D01*
X130789000Y-40566200D02*
X129863300Y-40333100D01*
X181101700Y-41162200D02*
X180325700Y-41494100D01*
X194889700Y-85358300D02*
X195265700Y-84930100D01*
X115758400Y-44374200D02*
X115471900Y-44908200D01*
X122339800Y-39530000D02*
X121742600Y-39655700D01*
X149228500Y-148382000D02*
X149466400Y-148540000D01*
X197865700Y-80975800D02*
X197762700Y-80906500D01*
X112396500Y-117761000D02*
X112235000Y-118069000D01*
X121876300Y-73480300D02*
X121591600Y-73900600D01*
X175360700Y-130642000D02*
X175556700Y-130229000D01*
X147206600Y-44845200D02*
X147001800Y-44921000D01*
X149954700Y-148802000D02*
X150204700Y-148908000D01*
X128316100Y-98018800D02*
X128179500Y-98152400D01*
X117605700Y-41995000D02*
X117184400Y-42425800D01*
X72829500Y-125856000D02*
X71627400Y-126515000D01*
X175903700Y-144728000D02*
X176585700Y-144408000D01*
X125502700Y-145675000D02*
X125722300Y-145737000D01*
X161586700Y-42153700D02*
X161255700Y-42357300D01*
X143483400Y-149492000D02*
X144133800Y-149559000D01*
X161502700Y-142871000D02*
X161411700Y-142636000D01*
X179276700Y-135175000D02*
X178927700Y-134889000D01*
X194451700Y-60264700D02*
X194958700Y-59616800D01*
X132801400Y-145315000D02*
X133420700Y-145366000D01*
X186535700Y-93269900D02*
X186876700Y-93045700D01*
X165822700Y-43243100D02*
X165388700Y-43296300D01*
X110199800Y-119576000D02*
X109873900Y-119586000D01*
X197327700Y-80757800D02*
X197529700Y-80711700D01*
X131170100Y-95303800D02*
X131154100Y-95562400D01*
X184086700Y-95262700D02*
X184286700Y-94961600D01*
X146363100Y-149118000D02*
X146843800Y-148832000D01*
X65996680Y-132280000D02*
X66016120Y-132597000D01*
X152759300Y-41250800D02*
X152657000Y-41304800D01*
X161912700Y-42011100D02*
X161750700Y-42073300D01*
X166657700Y-43223500D02*
X166248700Y-43217000D01*
X157778700Y-40741500D02*
X157688700Y-40653800D01*
X80359300Y-122605000D02*
X79070700Y-123066000D01*
X178773700Y-42264900D02*
X177996700Y-42682200D01*
X167756700Y-145813000D02*
X168135700Y-145879000D01*
X131648100Y-40808700D02*
X130789000Y-40566200D01*
X117184400Y-42425800D02*
X116788100Y-42881000D01*
X149708500Y-148680000D02*
X149954700Y-148802000D01*
X155005200Y-42524200D02*
X154755300Y-42411800D01*
X140194400Y-45453600D02*
X139937400Y-45319800D01*
X70442600Y-127208000D02*
X69275900Y-127936000D01*
X163262700Y-43050000D02*
X163159700Y-42765400D01*
X149046500Y-43215000D02*
X148844000Y-43201300D01*
X157688700Y-40653800D02*
X157597700Y-40586100D01*
X110513100Y-119517000D02*
X110199800Y-119576000D01*
X163404700Y-141620000D02*
X163406700Y-141786000D01*
X175214700Y-145001000D02*
X175903700Y-144728000D01*
X191593700Y-73532800D02*
X191300700Y-73054600D01*
X117928300Y-85556600D02*
X118320300Y-86035300D01*
X162799700Y-42188600D02*
X162664700Y-42078500D01*
X66029190Y-131648000D02*
X66000690Y-131964000D01*
X146774300Y-44975200D02*
X146524200Y-45013700D01*
X145866100Y-149362000D02*
X146117100Y-149247000D01*
X131501300Y-145345000D02*
X132159400Y-145311000D01*
X73744700Y-140423000D02*
X74926100Y-141062000D01*
X147316400Y-148542000D02*
X147789000Y-148284000D01*
X143690700Y-45447900D02*
X143213100Y-45579600D01*
X82970500Y-121775000D02*
X81659600Y-122175000D01*
X184818700Y-94421400D02*
X185135700Y-94175300D01*
X173858700Y-145398000D02*
X174529700Y-145225000D01*
X156259100Y-42287900D02*
X156160400Y-42386600D01*
X133719800Y-145413000D02*
X134010700Y-145474000D01*
X138517800Y-147831000D02*
X139115200Y-148121000D01*
X94167300Y-146234000D02*
X95511400Y-146331000D01*
X76124200Y-141659000D02*
X77338300Y-142216000D01*
X147896300Y-43941800D02*
X147802500Y-44211700D01*
X130181400Y-96823600D02*
X129932200Y-96995000D01*
X194683700Y-86145000D02*
X194632700Y-86099200D01*
X160597700Y-42852000D02*
X160281700Y-43095400D01*
X174529700Y-145225000D02*
X175214700Y-145001000D01*
X151410400Y-43711800D02*
X151262100Y-43712500D01*
X175556700Y-130229000D02*
X175991700Y-129405000D01*
X167538700Y-43418800D02*
X167382700Y-43356500D01*
X115151600Y-145494000D02*
X116869500Y-145307000D01*
X121160700Y-39822900D02*
X120595300Y-40029600D01*
X195743700Y-41892900D02*
X195316700Y-41555000D01*
X114684200Y-51943200D02*
X114871500Y-52524300D01*
X155841100Y-42577800D02*
X155728100Y-42609500D01*
X111597800Y-145808000D02*
X112506000Y-145750000D01*
X197053700Y-56098300D02*
X197375700Y-55349400D01*
X115973400Y-82455400D02*
X116165200Y-82870300D01*
X168520700Y-145930000D02*
X169301700Y-145989000D01*
X174047700Y-44653000D02*
X173236700Y-44948100D01*
X109537000Y-119544000D02*
X109190300Y-119445000D01*
X176921700Y-133881000D02*
X176491700Y-133768000D01*
X177346700Y-134025000D02*
X176921700Y-133881000D01*
X189769700Y-39656900D02*
X189215700Y-39628000D01*
X194601700Y-86044100D02*
X194587700Y-85980500D01*
X162832700Y-140934000D02*
X162959700Y-140984000D01*
X163636700Y-142939000D02*
X163823700Y-143283000D01*
X149257900Y-43252300D02*
X149046500Y-43215000D01*
X147549000Y-44606100D02*
X147389000Y-44742200D01*
X108835400Y-119286000D02*
X107475400Y-119205000D01*
X115099700Y-111075300D02*
X114719500Y-111738400D01*
X190318700Y-39707100D02*
X189769700Y-39656900D01*
X189552700Y-64528300D02*
X190234700Y-64098800D01*
X174942700Y-132743000D02*
X174924700Y-132529000D01*
X112506000Y-145750000D02*
X113399700Y-145675000D01*
X138627100Y-44396700D02*
X138026200Y-43935200D01*
X146843800Y-148832000D02*
X147316400Y-148542000D01*
X115581300Y-81271000D02*
X115681100Y-81655600D01*
X123333900Y-101962700D02*
X122152200Y-102974900D01*
X161210700Y-145435000D02*
X161415700Y-144986000D01*
X123575900Y-39410600D02*
X123575900Y-39410600D01*
M02*
