<?xml version="1.0" encoding="UTF-8" standalone="no"?>
<!-- Created with Inkscape (http://www.inkscape.org/) -->

<svg
   width="170.0mm"
   height="170.0mm"
   viewBox="0 0 170.0 170.0"
   version="1.1"
   id="svg1"
   xml:space="preserve"
   inkscape:version="1.4.2 (f4327f4, 2025-05-13)"
   sodipodi:docname="Panda.svg"
   xmlns:inkscape="http://www.inkscape.org/namespaces/inkscape"
   xmlns:sodipodi="http://sodipodi.sourceforge.net/DTD/sodipodi-0.dtd"
   xmlns="http://www.w3.org/2000/svg"
   xmlns:svg="http://www.w3.org/2000/svg"><sodipodi:namedview
     id="namedview1"
     pagecolor="#ffffff"
     bordercolor="#666666"
     borderopacity="1.0"
     inkscape:showpageshadow="2"
     inkscape:pageopacity="0.0"
     inkscape:pagecheckerboard="0"
     inkscape:deskcolor="#d1d1d1"
     inkscape:document-units="mm"
     showgrid="false"
     inkscape:zoom="2.0334082"
     inkscape:cx="251.30223"
     inkscape:cy="342.52838"
     inkscape:window-width="1920"
     inkscape:window-height="1009"
     inkscape:window-x="-8"
     inkscape:window-y="-8"
     inkscape:window-maximized="1"
     inkscape:current-layer="g30"
     borderlayer="true"><inkscape:grid
       id="grid1"
       units="mm"
       originx="0"
       originy="0"
       spacingx="0.26458333"
       spacingy="0.26458334"
       empcolor="#0099e5"
       empopacity="0.30196078"
       color="#0099e5"
       opacity="0.14901961"
       empspacing="5"
       enabled="true"
       visible="false" /><inkscape:grid
       spacingx="2.54"
       spacingy="2.54"
       empspacing="1"
       type="xygrid"
       units="mm"
       id="grid23"
       visible="false"
       originx="0"
       originy="0" /></sodipodi:namedview><defs
     id="defs1" /><g
     inkscape:label="Ebene 1"
     inkscape:groupmode="layer"
     id="layer1"
     style="display:inline;fill:none;fill-opacity:1" /><g
     inkscape:groupmode="layer"
     id="layer3"
     inkscape:label="cut" /><g
     inkscape:groupmode="layer"
     id="layer4"
     inkscape:label="silk" /><g
     inkscape:groupmode="layer"
     id="layer2"
     inkscape:label="Bild"
     style="display:inline;fill:#efefef;fill-opacity:0.95948517" /><g
     inkscape:label="[fixed] BG"
     inkscape:groupmode="layer"
     sodipodi:insensitive="true"
     id="g23"><rect
       x="0"
       y="0"
       width="170.0"
       height="170.0"
       style="fill:#FFFFFF;fill-opacity:1;stroke:none"
       id="rect23" /></g><g
     inkscape:label="Edge.Cuts"
     inkscape:groupmode="layer"
     id="g24"
     style="display:inline"><path
       id="path3-1-6"
       style="fill:none;stroke:#fc0000;stroke-width:0.0298692mm;stroke-opacity:1"
       d="M 85.1596 32.4436 L 84.8147 32.4548 L 84.4779 32.4873 L 84.1493 32.5405 L 83.8291 32.6136 L 83.5175 32.7058 L 83.2145 32.8163 L 82.9203 32.9443 L 82.635 33.0891 L 82.3588 33.25 L 82.0917 33.4261 L 81.834 33.6167 L 81.5857 33.8211 L 81.3471 34.0383 L 81.1181 34.2678 L 80.69 34.7601 L 80.3023 35.292 L 79.9563 35.8572 L 79.6529 36.4496 L 79.3932 37.063 L 79.1784 37.6913 L 79.0094 38.3284 L 78.8874 38.9681 L 78.8134 39.6042 L 78.7473 39.8988 L 78.6521 40.1748 L 78.53 40.4317 L 78.383 40.669 L 78.2131 40.8861 L 78.0224 41.0825 L 77.8129 41.2576 L 77.5866 41.411 L 77.3456 41.542 L 77.0918 41.6502 L 76.8275 41.735 L 76.5545 41.7959 L 76.275 41.8323 L 75.9909 41.8437 L 75.7043 41.8296 L 75.4173 41.7894 L 75.1011 41.8508 L 74.7911 41.9346 L 74.4862 42.0368 L 74.1854 42.1537 L 73.5922 42.4163 L 73.0034 42.6922 L 72.4111 42.9508 L 72.1111 43.0642 L 71.8071 43.1619 L 71.4983 43.24 L 71.1836 43.2949 L 70.862 43.3227 L 70.5324 43.3196 L 70.4076 42.8852 L 70.2617 42.4628 L 70.0954 42.0524 L 69.9095 41.654 L 69.7047 41.2676 L 69.4818 40.8934 L 69.2415 40.5313 L 68.9847 40.1813 L 68.712 39.8436 L 68.4243 39.5181 L 68.1223 39.2048 L 67.8067 38.9039 L 67.4784 38.6152 L 67.138 38.339 L 66.7864 38.0752 L 66.4242 37.8238 L 66.0524 37.5849 L 65.6715 37.3585 L 64.886 36.9434 L 64.0737 36.5787 L 63.2406 36.2648 L 62.393 36.0019 L 61.5369 35.7903 L 60.6784 35.6303 L 59.8235 35.5222 L 59.2436 35.4709 L 58.6637 35.4437 L 58.0844 35.4403 L 57.5065 35.4602 L 56.9307 35.5032 L 56.3577 35.5689 L 55.7882 35.6568 L 55.2229 35.7667 L 54.6625 35.8982 L 54.1077 36.0508 L 53.5592 36.2242 L 53.0177 36.4181 L 52.4839 36.6321 L 51.9585 36.8658 L 51.4423 37.1188 L 50.9359 37.3908 L 50.4401 37.6814 L 49.9554 37.9903 L 49.4828 38.317 L 49.0227 38.6613 L 48.576 39.0226 L 48.1434 39.4008 L 47.7255 39.7953 L 47.3231 40.2059 L 46.9369 40.6321 L 46.5675 41.0737 L 46.2157 41.5301 L 45.8822 42.0011 L 45.5677 42.4863 L 45.2729 42.9854 L 44.9984 43.4978 L 44.7451 44.0234 L 44.3988 44.7498 L 44.0895 45.4935 L 43.817 46.2527 L 43.5812 47.0254 L 43.382 47.8098 L 43.2192 48.604 L 43.0927 49.4061 L 43.0022 50.2143 L 42.9478 51.0266 L 42.9291 51.8413 L 42.9462 52.6564 L 42.9988 53.47 L 43.0867 54.2803 L 43.2099 55.0854 L 43.3682 55.8834 L 43.5614 56.6725 L 43.7895 57.4507 L 44.0522 58.2162 L 44.3494 58.9672 L 44.6809 59.7016 L 45.0467 60.4178 L 45.4465 61.1137 L 45.8803 61.7875 L 46.3479 62.4374 L 46.849 63.0614 L 47.3837 63.6577 L 47.9517 64.2244 L 48.5529 64.7597 L 49.1871 65.2616 L 49.8543 65.7282 L 50.5542 66.1578 L 51.2867 66.5484 L 51.4179 66.7183 L 51.5308 66.8915 L 51.6262 67.0677 L 51.7051 67.2468 L 51.7684 67.4286 L 51.817 67.613 L 51.8739 67.9886 L 51.883 68.3725 L 51.8517 68.763 L 51.7874 69.159 L 51.6974 69.5589 L 51.4698 70.3653 L 51.2277 71.1713 L 51.1196 71.5707 L 51.0299 71.9659 L 50.9659 72.3555 L 50.9351 72.7381 L 50.8961 73.3504 L 50.8743 73.9635 L 50.8698 74.5768 L 50.8822 75.19 L 50.9116 75.8025 L 50.9579 76.4139 L 51.0209 77.0238 L 51.1005 77.6317 L 51.1967 78.2372 L 51.3092 78.8398 L 51.4381 79.4391 L 51.5832 80.0345 L 51.7445 80.6257 L 51.9217 81.2123 L 52.1148 81.7937 L 52.3236 82.3695 L 52.5482 82.9392 L 52.7884 83.5025 L 53.044 84.0588 L 53.315 84.6077 L 53.6012 85.1488 L 53.9026 85.6816 L 54.2191 86.2056 L 54.5505 86.7204 L 54.8967 87.2256 L 55.2577 87.7207 L 55.6333 88.2052 L 56.0234 88.6787 L 56.428 89.1408 L 56.8468 89.591 L 57.2799 90.0288 L 57.727 90.4538 L 58.1592 90.8045 L 58.5686 91.1469 L 58.9193 91.4881 L 59.0614 91.6603 L 59.1755 91.8348 L 59.2569 92.0124 L 59.3013 92.194 L 59.3042 92.3804 L 59.261 92.5725 L 59.1672 92.7712 L 59.0185 92.9774 L 58.8103 93.1918 L 58.5381 93.4154 L 58.0952 94.0357 L 57.6732 94.6727 L 57.2735 95.3254 L 56.8976 95.9927 L 56.547 96.6736 L 56.2231 97.3671 L 55.9274 98.0722 L 55.6615 98.7879 L 55.4266 99.5131 L 55.2245 100.247 L 55.0564 100.988 L 54.924 101.736 L 54.8286 102.489 L 54.7718 103.247 L 54.7549 104.008 L 54.7796 104.771 L 54.6347 105.018 L 54.477 105.251 L 54.3072 105.471 L 54.1263 105.68 L 53.7345 106.065 L 53.3087 106.414 L 52.8559 106.735 L 52.3832 107.034 L 51.406 107.602 L 50.9156 107.885 L 50.4333 108.177 L 49.9663 108.487 L 49.5215 108.821 L 49.106 109.187 L 48.9114 109.384 L 48.7268 109.593 L 48.553 109.813 L 48.391 110.046 L 48.2415 110.292 L 48.1055 110.554 L 47.8435 111.081 L 47.6086 111.617 L 47.4005 112.162 L 47.2188 112.713 L 47.0633 113.272 L 46.9336 113.836 L 46.8294 114.404 L 46.7504 114.977 L 46.6963 115.552 L 46.6668 116.129 L 46.6616 116.707 L 46.6803 117.286 L 46.7226 117.863 L 46.7883 118.439 L 46.877 119.012 L 46.9883 119.582 L 47.1221 120.148 L 47.2779 120.708 L 47.4555 121.262 L 47.6545 121.809 L 47.8747 122.348 L 48.1157 122.878 L 48.3772 123.398 L 48.6588 123.907 L 48.9604 124.405 L 49.2815 124.891 L 49.6218 125.362 L 49.9811 125.82 L 50.359 126.262 L 50.7553 126.688 L 51.1695 127.098 L 51.6014 127.489 L 52.1473 127.983 L 52.7134 128.451 L 53.2986 128.893 L 53.9017 129.309 L 54.5216 129.699 L 55.1572 130.062 L 55.8072 130.399 L 56.4705 130.708 L 57.146 130.992 L 57.8325 131.248 L 58.5288 131.477 L 59.2338 131.679 L 59.9464 131.854 L 60.6653 132.002 L 61.3894 132.121 L 62.1176 132.214 L 62.8487 132.278 L 63.5815 132.315 L 64.3149 132.324 L 65.0478 132.304 L 65.7789 132.257 L 66.5072 132.181 L 67.2314 132.077 L 67.9504 131.944 L 68.6631 131.782 L 69.3683 131.592 L 70.0648 131.372 L 70.7515 131.124 L 71.4272 130.847 L 72.0908 130.54 L 72.7411 130.204 L 73.377 129.838 L 73.7102 129.811 L 74.042 129.799 L 74.7014 129.815 L 75.3561 129.877 L 76.0069 129.978 L 76.6547 130.11 L 77.3002 130.262 L 78.5879 130.599 L 79.8767 130.922 L 80.5236 131.057 L 81.1733 131.163 L 81.8266 131.232 L 82.4843 131.255 L 83.1473 131.225 L 83.481 131.187 L 83.8164 131.132 L 85.7199 131.142 L 87.6267 131.104 L 88.5799 131.063 L 89.5322 131.007 L 90.4831 130.934 L 91.4319 130.842 L 92.3781 130.731 L 93.3211 130.599 L 94.2604 130.444 L 95.1954 130.266 L 96.1255 130.064 L 97.0501 129.836 L 97.9687 129.58 L 98.8807 129.296 L 99.652 129.817 L 100.448 130.288 L 101.267 130.707 L 102.106 131.076 L 102.962 131.396 L 103.835 131.667 L 104.721 131.889 L 105.618 132.064 L 106.524 132.192 L 107.437 132.274 L 108.354 132.31 L 109.274 132.3 L 110.193 132.246 L 111.11 132.149 L 112.023 132.008 L 112.928 131.824 L 113.824 131.598 L 114.709 131.331 L 115.581 131.023 L 116.436 130.675 L 117.273 130.287 L 118.09 129.861 L 118.884 129.396 L 119.653 128.894 L 120.395 128.354 L 121.107 127.778 L 121.787 127.166 L 122.434 126.519 L 123.044 125.838 L 123.616 125.122 L 124.147 124.373 L 124.635 123.592 L 124.866 123.13 L 125.079 122.657 L 125.276 122.175 L 125.454 121.684 L 125.615 121.185 L 125.758 120.679 L 125.883 120.168 L 125.989 119.652 L 126.076 119.132 L 126.144 118.609 L 126.193 118.084 L 126.221 117.559 L 126.23 117.033 L 126.219 116.509 L 126.187 115.986 L 126.134 115.466 L 126.06 114.951 L 125.965 114.44 L 125.849 113.935 L 125.71 113.437 L 125.549 112.947 L 125.366 112.465 L 125.16 111.994 L 124.931 111.533 L 124.679 111.083 L 124.403 110.647 L 124.103 110.224 L 123.78 109.815 L 123.432 109.423 L 123.059 109.046 L 122.662 108.688 L 122.239 108.347 L 121.746 107.929 L 121.238 107.529 L 120.716 107.148 L 120.183 106.783 L 119.638 106.434 L 119.085 106.099 L 117.957 105.467 L 118.016 104.958 L 118.057 104.451 L 118.079 103.944 L 118.083 103.439 L 118.069 102.935 L 118.039 102.434 L 117.992 101.934 L 117.928 101.436 L 117.849 100.941 L 117.754 100.448 L 117.52 99.4712 L 117.23 98.5077 L 116.886 97.5591 L 116.493 96.6272 L 116.055 95.7136 L 115.573 94.8202 L 115.052 93.9487 L 114.496 93.1008 L 113.907 92.2783 L 113.289 91.483 L 112.646 90.7165 L 113.284 89.9783 L 113.903 89.2182 L 114.5 88.4367 L 115.072 87.6345 L 115.614 86.8124 L 116.124 85.9709 L 116.597 85.1108 L 117.031 84.2326 L 117.421 83.3372 L 117.764 82.4252 L 118.057 81.4971 L 118.297 80.5538 L 118.395 80.0766 L 118.478 79.5959 L 118.546 79.1116 L 118.599 78.624 L 118.635 78.133 L 118.655 77.6388 L 118.657 77.1414 L 118.642 76.641 L 118.649 75.9841 L 118.64 75.328 L 118.58 74.0183 L 118.466 72.7124 L 118.307 71.4106 L 118.109 70.1133 L 117.877 68.821 L 117.62 67.5341 L 117.342 66.253 L 118.058 65.7772 L 118.739 65.2641 L 119.386 64.7155 L 119.999 64.1336 L 120.576 63.5203 L 121.117 62.8776 L 121.624 62.2074 L 122.094 61.5119 L 122.528 60.7928 L 122.926 60.0523 L 123.287 59.2924 L 123.611 58.515 L 123.897 57.722 L 124.146 56.9156 L 124.358 56.0977 L 124.531 55.2702 L 124.666 54.4353 L 124.762 53.5947 L 124.82 52.7506 L 124.838 51.905 L 124.816 51.0597 L 124.755 50.2169 L 124.655 49.3784 L 124.513 48.5464 L 124.332 47.7227 L 124.109 46.9094 L 123.845 46.1084 L 123.54 45.3218 L 123.194 44.5515 L 122.805 43.7996 L 122.374 43.0679 L 121.901 42.3585 L 121.516 41.7805 L 121.103 41.2228 L 120.664 40.686 L 120.199 40.1708 L 119.71 39.6779 L 119.199 39.2078 L 118.667 38.7612 L 118.115 38.3387 L 117.544 37.941 L 116.956 37.5687 L 116.353 37.2224 L 115.735 36.9028 L 115.104 36.6105 L 114.461 36.3461 L 113.808 36.1103 L 113.146 35.9037 L 112.477 35.7269 L 111.801 35.5806 L 111.12 35.4655 L 110.435 35.382 L 109.748 35.331 L 109.061 35.313 L 108.374 35.3286 L 107.688 35.3785 L 107.006 35.4634 L 106.329 35.5837 L 105.657 35.7403 L 104.993 35.9338 L 104.337 36.1646 L 103.691 36.4336 L 103.056 36.7413 L 102.434 37.0884 L 102.006 37.3415 L 101.588 37.611 L 101.18 37.8964 L 100.783 38.1973 L 100.398 38.5133 L 100.026 38.8439 L 99.6663 39.1885 L 99.3207 39.5468 L 98.9894 39.9183 L 98.6731 40.3025 L 98.3725 40.699 L 98.0883 41.1072 L 97.8209 41.5268 L 97.5712 41.9572 L 97.3396 42.398 L 97.127 42.8488 L 96.808 42.8704 L 96.5707 42.8567 L 96.407 42.8111 L 96.3086 42.737 L 96.2674 42.6377 L 96.2754 42.5166 L 96.3242 42.377 L 96.4059 42.2223 L 96.6348 41.8809 L 96.897 41.5193 L 97.1273 41.1641 L 97.21 40.9974 L 97.2603 40.8424 L 97.3356 40.5681 L 97.3883 40.2974 L 97.4192 40.0305 L 97.429 39.768 L 97.4186 39.5101 L 97.3888 39.2573 L 97.3404 39.0099 L 97.2741 38.7684 L 97.1907 38.5332 L 97.091 38.3046 L 96.9758 38.0831 L 96.8459 37.869 L 96.7021 37.6627 L 96.5451 37.4646 L 96.195 37.0946 L 95.8018 36.7622 L 95.3719 36.4706 L 94.9115 36.2227 L 94.427 36.0219 L 93.9246 35.8712 L 93.4107 35.7737 L 92.8917 35.7327 L 92.6322 35.7343 L 92.3737 35.7512 L 91.8291 35.8001 L 91.2752 35.8643 L 90.7359 35.9072 L 90.479 35.9093 L 90.2347 35.8922 L 90.0058 35.8515 L 89.7953 35.7825 L 89.6061 35.6808 L 89.4413 35.5417 L 89.3037 35.3606 L 89.1964 35.133 L 89.1223 34.8542 L 89.0843 34.5198 L 88.9339 34.2672 L 88.7645 34.0281 L 88.5775 33.8031 L 88.3742 33.5929 L 88.156 33.3981 L 87.9243 33.2192 L 87.6803 33.0569 L 87.4255 32.9118 L 87.1613 32.7845 L 86.8889 32.6757 L 86.6097 32.5858 L 86.3251 32.5156 L 86.0364 32.4657 L 85.7451 32.4366 L 85.4523 32.4291 L 85.1596 32.4436 L 85.1596 32.4436" /></g><g
     inkscape:label="B.Cu"
     inkscape:groupmode="layer"
     id="g25" /><g
     inkscape:label="B.Mask"
     inkscape:groupmode="layer"
     id="g26" /><g
     inkscape:label="B.SilkS"
     inkscape:groupmode="layer"
     id="g27" /><g
     inkscape:label="F.Cu"
     inkscape:groupmode="layer"
     id="g28" /><g
     inkscape:label="F.Mask"
     inkscape:groupmode="layer"
     id="g29" /><g
     inkscape:label="F.SilkS"
     inkscape:groupmode="layer"
     id="g30"
     style="display:inline"><path
       style="fill:#ff03ff;fill-opacity:1;stroke:#000000;stroke-width:0.0298692mm"
       d="m 71.82096,80.391024 c -4.30911,-0.66089 -4.98066,-7.18526 -1.15114,-9.05382 2.496776,-1.514922 7.398285,1.359783 2.067965,0.645883 -6.575605,1.361204 -2.341907,9.296144 2.255005,8.167787 -1.02297,0.35649 -2.10976,0.57682 -3.17183,0.24016 z"
       id="path7-8-8"
       sodipodi:nodetypes="scccss" /><path
       style="fill:#ff02ff;fill-opacity:1;stroke:#000000;stroke-width:0.0298692mm"
       d="m 60.596353,125.34544 c -4.41152,-1.61214 -5.38777,-9.08131 -0.2904,-10.41011 5.37146,-1.15288 8.93228,7.77631 3.93093,10.34754 -1.11164,0.53981 -2.51031,0.51816 -3.64053,0.0626 z"
       id="path12-3"
       sodipodi:nodetypes="cccc" /><path
       style="fill:#ff02ff;fill-opacity:1;stroke:#000000;stroke-width:0.0298692mm"
       d="m 53.891213,118.67139 c -5.0793,-2.92788 3.83267,-3.53558 1.0455,0.0649 l -0.46924,0.12954 -0.57624,-0.19444 z"
       id="path13-5"
       sodipodi:nodetypes="scccs" /><path
       style="fill:#ff02ff;fill-opacity:1;stroke:#000000;stroke-width:0.0298692mm"
       d="m 55.536863,115.49342 c -3.667,-1.24583 -0.19557,-5.47872 1.6703,-1.70109 0.6695,1.12318 -0.51167,2.42661 -1.6703,1.70109 z"
       id="path14-9"
       sodipodi:nodetypes="ccc" /><path
       style="fill:#ff02ff;fill-opacity:1;stroke:#000000;stroke-width:0.0298692mm"
       d="m 58.545643,113.48875 c -3.63998,-2.7285 2.08206,-4.79225 2.13323,-0.64646 -0.21195,0.98585 -1.42645,1.23843 -2.13323,0.64646 z"
       id="path15-8"
       sodipodi:nodetypes="ccc" /><path
       style="fill:#ff02ff;fill-opacity:1;stroke:#000000;stroke-width:0.0298692mm"
       d="m 62.945133,113.50094 c -3.72129,-1.72049 1.01612,-5.76037 1.44489,-1.20854 -0.10252,0.61106 -0.7023,1.56173 -1.44489,1.20854 z"
       id="path16-4"
       sodipodi:nodetypes="ccc" /><path
       style="fill:#ff02ff;fill-opacity:1;stroke:#000000;stroke-width:0.0298692mm"
       d="m 110.53041,124.86379 c 4.41153,-1.61214 5.38777,-9.08131 0.29041,-10.41011 -5.37147,-1.15289 -8.93228,7.77631 -3.93093,10.34753 1.11163,0.53981 2.5103,0.51816 3.64052,0.0626 z"
       id="path12-3-6"
       sodipodi:nodetypes="cccc" /><path
       style="fill:#ff02ff;fill-opacity:1;stroke:#000000;stroke-width:0.0298692mm"
       d="m 117.23555,118.18974 c 5.0793,-2.92788 -3.83267,-3.53558 -1.04549,0.0649 l 0.46923,0.12954 0.57624,-0.19444 z"
       id="path13-5-1"
       sodipodi:nodetypes="scccs" /><path
       style="fill:#ff02ff;fill-opacity:1;stroke:#000000;stroke-width:0.0298692mm"
       d="m 115.5899,115.01177 c 3.667,-1.24583 0.19557,-5.47872 -1.6703,-1.70109 -0.6695,1.12317 0.51167,2.42661 1.6703,1.70109 z"
       id="path14-9-5"
       sodipodi:nodetypes="ccc" /><path
       style="fill:#ff02ff;fill-opacity:1;stroke:#000000;stroke-width:0.0298692mm"
       d="m 112.58112,113.0071 c 3.63998,-2.72851 -2.08205,-4.79225 -2.13322,-0.64646 0.21194,0.98584 1.42645,1.23843 2.13322,0.64646 z"
       id="path15-8-4"
       sodipodi:nodetypes="ccc" /><path
       style="fill:#ff02ff;fill-opacity:1;stroke:#000000;stroke-width:0.0298692mm"
       d="m 108.18164,113.01928 c 3.72128,-1.72048 -1.01612,-5.76036 -1.4449,-1.20853 0.10252,0.61106 0.7023,1.56173 1.4449,1.20853 z"
       id="path16-4-2"
       sodipodi:nodetypes="ccc" /><path
       style="fill:#ff02ff;fill-opacity:1;stroke:#000000;stroke-width:0.0298692mm"
       d="m 54.685743,126.45943 c -3.11827,-3.28999 -5.71923,-8.02874 -3.94952,-12.62497 2.166624,-4.74668 5.86522,-4.16829 5.9503,-6.31836 -6.14119,0.97738 -9.37879,8.45666 -6.63536,13.85659 0.99739,1.85083 2.63595,4.73642 4.63458,5.08674 z"
       id="path9"
       sodipodi:nodetypes="ccccc" /><path
       style="fill:#ff02ff;fill-opacity:1;stroke:#000000;stroke-width:0.0298692mm"
       d="m 98.052743,121.63706 c -0.79532,-7.75892 6.551777,-14.53846 14.101977,-14.20063 3.74172,0.16742 6.47046,2.40501 8.16359,2.52667 -1.93107,-3.54538 -7.16352,-3.7592 -10.77601,-3.26659 -6.74383,0.89071 -13.128677,7.03888 -12.313077,14.19975 -0.0247,1.86477 1.22823,3.82106 0.82352,0.74098 z"
       id="path10"
       sodipodi:nodetypes="sscccss" /><path
       style="fill:#ff02ff;fill-opacity:1;stroke:#000000;stroke-width:0.0298692mm"
       d="m 62.681583,108.9458 c -4.39731,-2.6935 -4.52203,-8.8302 -2.11292,-12.905798 1.20738,-1.84547 3.13008,-5.91034 0.22509,-2.272 -2.91869,4.04683 -4.75945,10.401228 -0.60414,14.317538 0.56287,0.18184 2.05832,1.74684 2.49197,0.86026 z"
       id="path8-4" /><path
       style="fill:#ff02ff;fill-opacity:1;stroke:#000000;stroke-width:0.0375169mm"
       d="m 105.06235,129.0487 c 5.67234,0.49103 12.36382,-0.65959 15.49645,-5.99395 2.34817,-4.61881 -0.14642,-8.38042 1.55497,-10.78989 3.84315,6.79973 -0.97459,15.83181 -8.42726,17.35957 -2.59906,0.46755 -6.71654,1.11441 -8.62416,-0.57573 z"
       id="path11-7"
       sodipodi:nodetypes="ccccc" /><path
       style="fill:#ff02ff;fill-opacity:1;stroke:#000000;stroke-width:0.0335255mm"
       d="m 114.05465,103.89883 c -0.62753,-0.40908 -1.28764,-1.39929 -0.3666,-3.68542 0.92195,-2.288414 -0.73112,-5.666315 -1.41062,-6.913997 3.64851,3.639247 5.07277,7.712997 4.12216,12.222107 -2.54961,-1.1719 -1.41261,-1.01492 -2.34494,-1.62269 z"
       id="path2-7-3"
       sodipodi:nodetypes="ssccs" /><path
       style="fill:#ff02ff;fill-opacity:1;stroke:#000000;stroke-width:0.0298692mm"
       d="m 68.759313,129.5048 c 3.11826,-3.29 5.71922,-8.02875 3.94952,-12.62498 -2.101575,-3.93344 -5.86522,-4.16829 -5.95031,-6.31835 6.14119,0.97738 9.37879,8.45665 6.63536,13.85658 -0.99739,1.85083 -2.63595,4.73642 -4.63457,5.08675 z"
       id="path9-1"
       sodipodi:nodetypes="ccccc" /><path
       style="fill:#ff02ff;fill-opacity:1;stroke:#000000;stroke-width:0.0251944mm"
       d="m 98.206258,103.43112 c 3.424852,-1.1245 5.948692,-6.25358 4.639102,-9.425077 0.82448,-0.723086 1.98822,2.165665 1.33056,4.193374 -1.18262,3.666373 -4.82498,6.989323 -8.503983,5.265103 0.842692,-1.4e-4 1.690149,0.006 2.534321,-0.0334 z"
       id="path17"
       sodipodi:nodetypes="ccccc" /><path
       style="fill:#ff02ff;fill-opacity:1;stroke:#000000;stroke-width:0.0298692mm"
       d="m 75.963301,100.21811 c -1.98225,-2.555938 -6.01377,-2.784468 -8.99464,-1.717948 -2.6223,1.822318 3.61093,0.452268 5.2787,0.944908 1.34196,0.21269 2.58629,0.47069 3.71594,0.77305 z"
       id="path18"
       sodipodi:nodetypes="sccss" /><path
       style="fill:#ff02ff;fill-opacity:1;stroke:#000000;stroke-width:0.0193417mm"
       d="m 112.01322,97.203025 c -0.49125,-2.03609 -2.81112,-3.24245 -4.85476,-3.40487 -2.03278,0.37918 2.01205,1.22671 2.86594,1.96085 0.7359,0.48222 1.40211,0.96527 1.98881,1.44403 z"
       id="path18-1"
       sodipodi:nodetypes="sccss" /><path
       id="path3-1-6-0"
       style="display:inline;fill:none;stroke:#0200fd;stroke-width:0.0298692mm;stroke-opacity:1"
       d="m 84.990874,33.047506 c -2.60245,0.09262 -4.77137,2.305471 -5.20437,4.807812 -0.42827,1.434976 -0.54154,3.259309 -1.92986,4.134537 -1.20483,0.559005 -2.64337,0.143788 -3.8091,0.847646 -1.17968,0.499983 -2.35524,1.146679 -3.668,1.178755 -1.0088,-0.483962 -0.83849,-1.731316 -1.2832,-2.578125 -2.58454,-3.852685 -7.50427,-5.738204 -12.00907,-5.352517 -4.12466,0.284262 -8.07091,2.499313 -10.42566,5.856515 -2.49009,3.452404 -3.5676,7.79862 -3.0687,11.94652 0.48976,4.880898 3.24842,9.650551 7.66554,11.957685 0.79695,0.342908 1.29537,1.165527 1.18164,2.033204 -0.13848,2.447868 -1.34564,4.769696 -1.04523,7.260635 0.3785,2.28209 0.39691,4.523441 1.30184,6.682113 1.45121,4.04528 4.26845,7.499966 7.66136,10.092406 -2.47772,3.11879 -4.76267,6.72832 -4.97917,10.814788 0.0759,1.16319 0.2288,2.60145 -0.8288,3.3969 -1.94347,1.74762 -4.81063,2.46831 -6.12367,4.88597 -0.72009,1.57349 -1.02902,3.28184 -1.20779,4.99258 -0.22403,3.51 1.21454,7.14582 3.58808,9.83247 2.595,2.99054 6.30633,4.86496 10.10974,5.52191 3.20399,0.56232 6.51838,0.3073 9.57636,-0.85785 1.11619,-0.43258 1.99066,-1.4464 3.26373,-1.44174 2.41446,-0.10688 4.63303,1.125 7.01039,1.36008 1.58802,0.1986 3.18798,-0.0469 4.78409,0.0413 4.5226,0.0165 9.03677,-0.46852 13.35782,-1.89989 2.072226,1.58359 4.519176,2.54474 7.032046,2.91056 3.61721,0.55369 7.42692,-0.17927 10.79422,-1.73646 2.81664,-1.35159 5.44009,-3.35602 7.05599,-6.06832 1.48399,-2.64755 1.92933,-5.78632 1.57611,-8.70866 -0.28624,-2.89229 -2.31809,-5.22589 -4.5443,-6.91924 -1.13592,-0.86272 -2.3702,-1.58625 -3.62696,-2.25718 0.79959,-4.90957 -1.23703,-9.836188 -4.24588,-13.636768 -0.38932,-0.49443 -0.80468,-0.96754 -1.20725,-1.45112 2.43959,-3.094818 5.21651,-6.279553 5.79937,-10.324531 0.91107,-4.800614 0.0797,-9.691269 -0.99077,-14.435236 4.28992,-2.673108 7.20341,-7.437256 7.5182,-12.495054 0.71732,-6.963226 -3.66339,-14.467851 -10.4491,-16.778479 -1.87832,-0.666977 -4.03721,-0.889758 -6.04713,-0.642938 -4.31547,0.444322 -8.356966,3.244127 -10.051266,7.273893 -0.22269,0.442706 -0.95837,0.01706 -1.38346,0.01059 -0.58454,-0.140413 -1.12891,-0.398782 -1.68685,-0.616062 0.87856,-0.55964 2.03929,-1.105477 2.1289,-2.285156 0.35993,-1.483325 -0.48146,-3.191129 -2.00586,-3.59375 -1.69599,-0.70489 -3.48321,-0.352755 -5.22656,-0.240234 -0.79622,-0.28613 -0.46961,-1.317462 -0.95399,-1.866076 -0.6585,-1.182559 -2.08953,-1.77405 -3.40343,-1.653456 z" /><path
       id="path6-3"
       style="fill:#ff02ff;fill-opacity:1;stroke:#000000;stroke-width:0.03052mm"
       d="m 85.311072,33.794836 c -0.530816,0.02521 -1.199086,0.26776 -2.023649,0.797885 -3.456076,1.394932 -2.069504,6.817707 -3.15588,8.07961 -3.98951,0.05395 -7.97724,1.929429 -11.554334,3.738273 -10.358885,6.087993 -16.527504,18.271272 -16.183508,30.172835 0.606499,8.969101 8.063137,15.770095 16.043982,18.790584 6.370025,2.513181 13.218048,4.499076 20.114535,3.083016 0.768301,-4.860258 6.994887,-8.354019 11.450462,-7.221264 3.14312,0.842758 5.5379,4.013855 8.41861,0.534851 5.14921,-3.41518 9.04452,-9.372673 8.46201,-15.700851 0.15895,-7.309843 -2.29927,-14.631486 -6.26008,-20.731034 -4.19614,-5.912371 -10.61285,-10.456396 -17.77049,-11.831319 -0.906143,0.44326 2.74182,4.80386 -1.493449,4.224031 -2.410019,0.391581 -6.8165,-2.927276 -2.020031,-1.054199 4.222043,1.939424 3.851259,-3.136025 0.03359,-3.117639 3.09132,-0.328499 9.268362,-5.198668 3.325896,-6.38359 -2.937708,-1.19261 -7.197409,4.481284 -7.500318,3.901571 1.898242,-1.841713 2.768023,-7.10446 0.331763,-7.280176 -0.07028,-0.0049 -0.143278,-0.0064 -0.219108,-0.0026 z M 73.686975,56.613082 c 1.660283,-0.01294 2.916568,0.883864 0.273885,2.557467 -0.9221,0.350368 -1.995357,0.629657 -2.972428,0.344681 -1.026049,-1.966473 1.038257,-2.889238 2.698543,-2.902148 z m 26.180314,0.238228 c 1.660281,0.01288 3.725101,0.935684 2.699061,2.902149 -0.97707,0.284978 -2.05086,0.0064 -2.972946,-0.344165 -2.642691,-1.673608 -1.386397,-2.5709 0.273885,-2.557984 z m -28.540893,5.242574 c 5.681469,-0.07321 8.030289,6.466438 8.254793,11.205518 0.577206,4.447865 -2.131856,9.256448 -6.776847,10.00249 -1.534037,0.431351 -3.173565,0.206989 -4.74338,0.149862 -4.474682,-0.925066 -7.444023,-5.553007 -6.662126,-10.017993 0.569441,-5.134375 4.272797,-11.084058 9.92756,-11.339877 z m 29.321204,0.710551 c 5.65475,0.255822 9.35812,6.205502 9.92756,11.339877 0.7819,4.464986 -2.18743,9.092927 -6.66212,10.017993 -1.56982,0.05713 -3.20987,0.281489 -4.743899,-0.149862 -4.644993,-0.746041 -7.353536,-5.554625 -6.776331,-10.00249 0.224506,-4.739079 2.573329,-11.278737 8.25479,-11.205518 z M 85.024784,79.500057 c 2.21602,-8e-5 4.012645,1.144336 4.012675,2.555916 -3e-5,1.41158 -1.796655,2.55548 -4.012675,2.5554 -2.21591,-3e-5 -4.012128,-1.1439 -4.012158,-2.5554 3e-5,-1.4115 1.796248,-2.555886 4.012158,-2.555916 z m 6.217709,4.824512 c 0.14131,0.004 0.308525,0.08446 0.468705,0.297656 0.25573,0.31147 0.389357,0.710414 0.388607,1.205094 -0.0677,0.38865 -0.109207,0.777161 -0.388607,1.165821 -0.1868,0.27581 -0.400972,0.537973 -0.660942,0.777213 -0.36559,0.23034 -0.731627,0.45992 -1.204577,0.58291 -0.39709,0.0881 -0.745972,0.24112 -1.243852,0.19482 -0.4234,0.0253 -0.930086,0.0199 -1.390096,-0.0646 -0.42752,-0.14202 -0.786359,-0.149689 -1.213879,-0.557589 -0.2403,-0.28374 -0.452457,-0.624643 -0.583427,-1.127063 -0.19349,-0.68679 -0.174777,-1.415657 -0.193787,-2.137337 l 0.646989,-0.01034 c 0.0811,0.68423 0.107528,1.409846 0.324528,1.992126 0.18144,0.51811 0.57729,0.735814 0.93276,1.010274 0.66071,0.2321 1.321597,0.212757 1.982307,0.155547 0.55666,-0.0873 1.06884,-0.278605 1.51567,-0.622185 0.24826,-0.25916 0.51184,-0.499727 0.58291,-0.971517 -0.0176,-0.3757 0.02927,-0.751363 -0.19482,-1.127063 L 90.89471,84.69974 c -0.0526,-0.17114 0.112273,-0.380791 0.347783,-0.375171 z M 79.113,84.357642 c 0.23551,-0.005 0.400383,0.20404 0.347783,0.37517 l -0.116789,0.388607 c -0.22408,0.3757 -0.176166,0.751373 -0.193786,1.127063 0.0711,0.4718 0.334133,0.712874 0.582393,0.972034 0.44683,0.34359 0.959516,0.534367 1.516186,0.621667 0.6607,0.0572 1.321082,0.07653 1.981792,-0.155546 0.35547,-0.27447 0.751836,-0.492164 0.933276,-1.010274 0.217,-0.58227 0.243478,-1.30737 0.324528,-1.99161 l 0.646989,0.0088 c -0.019,0.72169 -7.23e-4,1.451064 -0.194303,2.137854 -0.13097,0.50241 -0.343117,0.843323 -0.583427,1.127063 -0.42752,0.4079 -0.785853,0.416086 -1.213363,0.558106 -0.46001,0.0845 -0.966686,0.08886 -1.390096,0.06356 -0.49787,0.0463 -0.846762,-0.105717 -1.243852,-0.193787 -0.47295,-0.12299 -0.838987,-0.353087 -1.204577,-0.583427 -0.25999,-0.23924 -0.474132,-0.501403 -0.660942,-0.777213 -0.2794,-0.38866 -0.320957,-0.777171 -0.388607,-1.165821 -6e-4,-0.49468 0.132877,-0.893624 0.388607,-1.205094 0.16019,-0.21323 0.326868,-0.293769 0.468188,-0.297139 z"
       sodipodi:nodetypes="cccccccccccccccccccccccccccccccccccccccccccccccccccccccccccccccccccccccccccccccccccc" /><path
       d="m 98.947473,80.15687 c 4.309107,-0.66089 4.980657,-7.18526 1.151137,-9.05382 -2.496773,-1.514922 -7.398281,1.359783 -2.067962,0.645883 6.575602,1.361204 2.341902,9.296144 -2.255009,8.167787 1.02297,0.35649 2.109764,0.57682 3.171834,0.24016 z"
       style="fill:#ff03ff;fill-opacity:1;stroke:#000000;stroke-width:0.0298692mm"
       id="path1" /><path
       d="m 87.603161,81.274312 c 0.07349,-0.205774 -1.452138,-0.897383 -2.262593,-0.914505 -1.504431,-0.03178 -2.934938,0.74315 -2.562954,0.679666 2.550873,-0.43534 2.140714,-0.372523 4.825543,0.23485 z"
       style="fill:#ff02ff;fill-opacity:1;stroke:#000000;stroke-width:0.0150822mm"
       id="path1-2"
       sodipodi:nodetypes="sssss" /><path
       d="m 88.17417,99.331936 0.1199,0.51 0.145,0.495004 0.1725,0.478 0.2026,0.458 0.235,0.437 0.2698,0.414 0.3072,0.389 0.3469,0.362 0.389,0.332 0.4336,0.3 0.4807,0.268 0.5301,0.232 0.5819,0.194 0.6363,0.155 0.693,0.114 0.7522,0.07 0.5973,0.551 0.546,0.484 0.5001,0.422 0.4596,0.368 0.4242,0.321 0.3941,0.281 0.7194,0.471 0.6627,0.394 0.6483,0.375 0.6764,0.413 0.746,0.506 -1.2952,1.634 -0.6407,0.821 -0.6177,0.836 -0.5811,0.858 -0.2725,0.44 -0.2582,0.449 -0.2422,0.459 -0.2245,0.47 -0.205,0.481 -0.1839,0.495 -0.161,0.509 -0.1364,0.524 -0.1101,0.54 -0.082,0.557 -0.0524,0.576 -0.0209,0.595 0.0122,0.615 0.0471,0.637 0.0837,0.659 0.122,0.683 0.162,0.707 0.2038,0.734 0.2471,0.76 0.2923,0.787 0.3392,0.817 0.3877,0.846 -0.8018,0.24 -0.7997,0.224 -0.7978,0.207 -0.7957,0.191 -0.7938,0.175 -0.7917,0.16 -0.7898,0.143 -0.7878,0.128 -0.7859,0.112 -0.784,0.097 -1.5622,0.149 -1.5547,0.088 -1.5473,0.029 -1.5401,-0.029 -1.5328,-0.087 -1.5258,-0.143 -1.5189,-0.199 -1.5121,-0.253 -1.5053,-0.306 -1.4988,-0.359 -1.4923,-0.411 0.4161,-0.553 0.3715,-0.551 0.3286,-0.547 0.2876,-0.544 0.2481,-0.539 0.2105,-0.535 0.1745,-0.529 0.1403,-0.524 0.1078,-0.518 0.0771,-0.51 0.048,-0.504 0.0206,-0.496 -0.0049,-0.488 -0.0287,-0.479 -0.0509,-0.471 -0.0714,-0.46 -0.09,-0.451 -0.1069,-0.44 -0.1222,-0.429 -0.1357,-0.417 -0.305,-0.798 -0.3384,-0.746 -0.3578,-0.69 -0.3635,-0.63 -0.3554,-0.566 -0.3335,-0.499 1.0139,-0.285 0.9324,-0.297 0.8537,-0.318 0.3981,-0.17 0.3796,-0.18 0.3612,-0.191 0.3434,-0.202 0.3257,-0.216 0.3086,-0.231 0.2917,-0.247 0.2751,-0.264 0.2591,-0.283 0.2432,-0.303 0.3159,-0.338 0.2687,-0.352 0.2243,-0.363 0.1823,-0.374 0.143,-0.383 0.1063,-0.392 0.0722,-0.398 0.0406,-0.404 0.0116,-0.409 -0.0146,-0.411 -0.0384,-0.414 -0.0596,-0.415 -0.0781,-0.414 -0.094,-0.413 -0.2255,-0.816 -0.2208,-0.648 -0.2376,-0.609 -0.2533,-0.567 -0.2679,-0.524 -0.2815,-0.478 -0.294,-0.43 -0.3056,-0.380004 -0.3159,-0.328 0.801,0.191 0.7943,0.164 0.7853,0.136 0.7742,0.110004 0.761,0.082 0.7457,0.057 0.7282,0.03 0.7086,0.004 0.6869,-0.021 0.6629,-0.046 0.637,-0.071 0.6088,-0.095 0.5786,-0.119 0.5461,-0.144 0.5115,-0.166 0.4749,-0.19 v 0"
       style="display:inline;fill:#ff02ff;fill-opacity:1;stroke:#000000;stroke-width:0.292121;stroke-dasharray:none"
       id="path1-9"
       sodipodi:nodetypes="sccccccccss" /><path
       d="m 109.452,44.8647 c -1.11197,0.0454 -4.35265,0.845993 -5.24995,1.505484 0.0668,1.319411 6.51668,5.148152 8.46439,9.498417 0.2117,0.411 0.59368,0.897911 1.11656,0.783099 0.62931,-0.207502 0.98769,-0.830396 1.28839,-1.379343 0.5511,-1.059448 0.91618,-2.222394 1.05801,-3.408526 0.0544,-0.391991 0.0425,-0.793463 -0.0581,-1.175113 -0.0545,-1.602102 -0.85207,-3.129566 -2.0583,-4.169583 -1.24393,-1.092264 -2.90194,-1.71279 -4.56101,-1.654435 z"
       style="display:inline;fill:#ff02ff;fill-opacity:1;stroke:#000000;stroke-width:0.292121;stroke-dasharray:none"
       id="path1-3-7"
       sodipodi:nodetypes="scccccccss" /><path
       d="M 119.744 46.5153 L 119.653 46.0825 L 119.532 45.6616 L 119.381 45.2529 L 119.203 44.857 L 118.997 44.4743 L 118.767 44.1053 L 118.513 43.7505 L 118.237 43.4103 L 117.939 43.0852 L 117.623 42.7757 L 117.288 42.4822 L 116.937 42.2051 L 116.571 41.9451 L 116.191 41.7025 L 115.799 41.4778 L 115.396 41.2714 L 114.984 41.0839 L 114.563 40.9156 L 114.137 40.7672 L 113.705 40.639 L 113.27 40.5314 L 112.832 40.4451 L 112.394 40.3804 L 111.956 40.3377 L 111.521 40.3177 L 111.089 40.3207 L 110.662 40.3472 L 110.242 40.3977 L 109.829 40.4726 L 109.426 40.5724 L 109.034 40.6976 L 108.653 40.8486 L 108.113 41.0842 L 107.672 41.2438 L 107.327 41.334 L 107.072 41.3615 L 106.977 41.3538 L 106.902 41.3328 L 106.848 41.2995 L 106.813 41.2546 L 106.798 41.199 L 106.8 41.1334 L 106.859 40.9759 L 106.983 40.7887 L 107.169 40.5784 L 107.412 40.3517 L 107.707 40.115 L 108.049 39.8751 L 108.434 39.6385 L 108.856 39.4119 L 109.311 39.2019 L 109.821 39.018 L 110.369 38.8784 L 110.942 38.7828 L 111.525 38.7305 L 112.104 38.7212 L 112.666 38.7542 L 113.196 38.8292 L 113.681 38.9455 L 114.182 39.0646 L 114.666 39.206 L 115.134 39.3688 L 115.585 39.5521 L 116.018 39.7551 L 116.434 39.9769 L 116.832 40.2167 L 117.211 40.4735 L 117.572 40.7465 L 117.913 41.035 L 118.235 41.3379 L 118.536 41.6544 L 118.817 41.9837 L 119.077 42.325 L 119.316 42.6772 L 119.534 43.0397 L 119.729 43.4115 L 119.902 43.7917 L 120.051 44.1795 L 120.178 44.5741 L 120.281 44.9745 L 120.36 45.38 L 120.414 45.7896 L 120.444 46.2024 L 120.448 46.6177 L 120.427 47.0346 L 120.38 47.4521 L 120.306 47.8695 L 120.205 48.2859 L 120.077 48.7003 L 119.922 49.112 L 119.738 49.5201 L 119.758 48.0186 L 119.758 47.2668 L 119.743 46.5153 L 119.744 46.5153"
       style="display:inline;fill:#ff02ff;fill-opacity:1;stroke:#000000;stroke-width:0.0298692mm"
       id="path1-8"
       sodipodi:nodetypes="ccscccc" /><path
       d="M 47.8617 45.5491 L 47.952 45.1163 L 48.0732 44.6953 L 48.2238 44.2867 L 48.4025 43.8908 L 48.6078 43.5081 L 48.8382 43.1391 L 49.0923 42.7843 L 49.3687 42.4441 L 49.6659 42.119 L 49.9825 41.8094 L 50.3171 41.5159 L 50.6683 41.2389 L 51.0345 40.9789 L 51.4144 40.7362 L 51.8065 40.5115 L 52.2094 40.3052 L 52.6217 40.1176 L 53.0419 39.9494 L 53.4685 39.801 L 53.9002 39.6727 L 54.3356 39.5652 L 54.7731 39.4789 L 55.2113 39.4141 L 55.6488 39.3715 L 56.0843 39.3515 L 56.5161 39.3545 L 56.943 39.381 L 57.3634 39.4314 L 57.7759 39.5063 L 58.1791 39.6061 L 58.5716 39.7313 L 58.9519 39.8824 L 59.4923 40.118 L 59.9328 40.2776 L 60.2782 40.3678 L 60.5333 40.3953 L 60.6285 40.3875 L 60.703 40.3666 L 60.7572 40.3333 L 60.7918 40.2884 L 60.8075 40.2327 L 60.8048 40.1672 L 60.7466 40.0097 L 60.622 39.8225 L 60.4359 39.6122 L 60.1929 39.3854 L 59.898 39.1488 L 59.5559 38.9089 L 59.1713 38.6723 L 58.7491 38.4457 L 58.294 38.2357 L 57.7843 38.0517 L 57.2362 37.9122 L 56.6637 37.8165 L 56.0807 37.7643 L 55.5013 37.7549 L 54.9394 37.788 L 54.4089 37.8629 L 53.9239 37.9793 L 53.4236 38.0984 L 52.9393 38.2398 L 52.4716 38.4026 L 52.0207 38.5859 L 51.5871 38.7889 L 51.1711 39.0107 L 50.7733 39.2504 L 50.3939 39.5073 L 50.0334 39.7803 L 49.6921 40.0687 L 49.3705 40.3716 L 49.069 40.6882 L 48.788 41.0175 L 48.5278 41.3587 L 48.2889 41.711 L 48.0716 42.0735 L 47.8764 42.4452 L 47.7037 42.8255 L 47.5538 43.2133 L 47.4272 43.6079 L 47.3242 44.0083 L 47.2453 44.4138 L 47.1909 44.8233 L 47.1613 45.2362 L 47.1569 45.6515 L 47.1782 46.0684 L 47.2256 46.4859 L 47.2994 46.9033 L 47.4001 47.3196 L 47.528 47.7341 L 47.6835 48.1458 L 47.8671 48.5539 L 47.8472 47.0524 L 47.8473 46.3005 L 47.8617 45.5491 L 47.8617 45.5491"
       style="display:inline;fill:#ff02ff;stroke:#000000;stroke-width:0.0298692mm;fill-opacity:1"
       id="path1-8-2"
       sodipodi:nodetypes="ccscccc" /><path
       style="display:inline;opacity:0.992948;fill:#ff02ff;fill-opacity:1;stroke:#0200fd;stroke-width:0.236597;stroke-dasharray:none;stroke-opacity:1;paint-order:stroke fill markers"
       d="m 75.474506,104.29186 c 0.973492,0.2784 1.734591,0.85357 2.449206,1.49365 -1.012741,0.0933 -1.938635,-0.0947 -2.783762,-0.54425 -0.159681,-0.43883 -0.02748,-0.74596 0.334553,-0.9494 z"
       id="path33"
       sodipodi:nodetypes="cccc" /><path
       style="display:inline;opacity:0.992948;fill:#ff02ff;fill-opacity:1;stroke:#0200fd;stroke-width:0.288999;stroke-dasharray:none;stroke-opacity:1;paint-order:stroke fill markers"
       d="m 74.058491,106.27515 c 1.189104,0.34007 2.118773,1.04262 2.991664,1.82447 -1.237046,0.11393 -2.368011,-0.11567 -3.400319,-0.66479 -0.195047,-0.53602 -0.03357,-0.91118 0.408651,-1.15968 z"
       id="path33-9"
       sodipodi:nodetypes="cccc"
       inkscape:transform-center-x="0.42487132"
       inkscape:transform-center-y="1.4368605" /><path
       style="display:inline;opacity:0.992948;fill:#ff02ff;fill-opacity:1;stroke:#0200fd;stroke-width:0.24533;stroke-dasharray:none;stroke-opacity:1;paint-order:stroke fill markers"
       d="m 72.88377,108.41165 c 1.009427,0.28869 1.798621,0.88508 2.539616,1.54879 -1.050125,0.0967 -2.010198,-0.0982 -2.886522,-0.56434 -0.165575,-0.45502 -0.0285,-0.7735 0.346903,-0.98445 z"
       id="path33-6"
       sodipodi:nodetypes="cccc"
       inkscape:transform-center-x="1.9070697"
       inkscape:transform-center-y="-0.38188319" /><path
       style="display:inline;opacity:0.992948;fill:#ff02ff;fill-opacity:1;stroke:#0200fd;stroke-width:0.210953;stroke-dasharray:none;stroke-opacity:1;paint-order:stroke fill markers"
       d="m 93.996633,99.560077 c 0.561221,0.707123 1.29454,1.138113 2.065491,1.508663 -0.268366,-0.86618 -0.738885,-1.564905 -1.397354,-2.107935 -0.415974,0.01804 -0.623943,0.231651 -0.66814,0.599272 z"
       id="path33-4"
       sodipodi:nodetypes="cccc" /><path
       style="display:inline;opacity:0.992948;fill:#ff02ff;fill-opacity:1;stroke:#0200fd;stroke-width:0.257675;stroke-dasharray:none;stroke-opacity:1;paint-order:stroke fill markers"
       d="m 95.147905,97.717373 c 0.685531,0.863744 1.581261,1.390183 2.522966,1.842808 -0.327834,-1.058008 -0.902531,-1.911512 -1.706844,-2.574814 -0.508101,0.02203 -0.76214,0.282957 -0.816123,0.732004 z"
       id="path33-9-4"
       sodipodi:nodetypes="cccc"
       inkscape:transform-center-x="-1.1108078"
       inkscape:transform-center-y="-0.99903232" /><path
       style="display:inline;opacity:0.992948;fill:#ff02ff;fill-opacity:1;stroke:#0200fd;stroke-width:0.21874;stroke-dasharray:none;stroke-opacity:1;paint-order:stroke fill markers"
       d="m 96.50766,96.021237 c 0.581948,0.733228 1.342329,1.180121 2.14174,1.564354 -0.278309,-0.898134 -0.766164,-1.622673 -1.448935,-2.18575 -0.431323,0.01871 -0.646983,0.240198 -0.692807,0.621393 z"
       id="path33-6-1"
       sodipodi:nodetypes="cccc"
       inkscape:transform-center-x="0.90373111"
       inkscape:transform-center-y="-1.5761309" /><path
       d="m 58.949786,45.995999 c 1.112785,-0.01573 4.392541,0.605679 5.324705,1.214898 0.0058,1.321088 -6.224122,5.498263 -7.929986,9.948926 -0.18881,0.422006 -0.543473,0.92916 -1.071869,0.843236 -0.639756,-0.172628 -1.031803,-0.774901 -1.362196,-1.306506 -0.608451,-1.027584 -1.036846,-2.168726 -1.243602,-3.345279 -0.07585,-0.388412 -0.08601,-0.789931 -0.0065,-1.17653 -0.03357,-1.602677 0.678916,-3.171637 1.826211,-4.276328 1.182068,-1.158929 2.803498,-1.869572 4.463269,-1.902418 z"
       style="display:inline;fill:#ff02ff;fill-opacity:1;stroke:#000000;stroke-width:0.292121;stroke-dasharray:none"
       id="path1-3" /></g><g
     inkscape:label="Dwgs.User"
     inkscape:groupmode="layer"
     id="g31" /><g
     inkscape:label="Drill"
     inkscape:groupmode="layer"
     id="g32" /></svg>
