<?xml version="1.0" encoding="UTF-8" standalone="no"?>
<!-- Created with Inkscape (http://www.inkscape.org/) -->

<svg
   width="170.0mm"
   height="170.0mm"
   viewBox="0 0 170.0 170.0"
   version="1.1"
   id="svg1"
   xml:space="preserve"
   inkscape:version="1.4.2 (f4327f4, 2025-05-13)"
   sodipodi:docname="Rocket.svg"
   xmlns:inkscape="http://www.inkscape.org/namespaces/inkscape"
   xmlns:sodipodi="http://sodipodi.sourceforge.net/DTD/sodipodi-0.dtd"
   xmlns="http://www.w3.org/2000/svg"
   xmlns:svg="http://www.w3.org/2000/svg"><sodipodi:namedview
     id="namedview1"
     pagecolor="#ffffff"
     bordercolor="#666666"
     borderopacity="1.0"
     inkscape:showpageshadow="2"
     inkscape:pageopacity="0.0"
     inkscape:pagecheckerboard="0"
     inkscape:deskcolor="#d1d1d1"
     inkscape:document-units="mm"
     inkscape:zoom="1.1136274"
     inkscape:cx="282.41044"
     inkscape:cy="314.73724"
     inkscape:window-width="1920"
     inkscape:window-height="1009"
     inkscape:window-x="-8"
     inkscape:window-y="-8"
     inkscape:window-maximized="1"
     inkscape:current-layer="g3"
     borderlayer="true"
     showgrid="false"><inkscape:grid
       spacingx="2.54"
       spacingy="2.54"
       empspacing="1"
       type="xygrid"
       units="mm"
       id="grid2"
       visible="false"
       originx="0"
       originy="0" /><inkscape:grid
       spacingx="2.54"
       spacingy="2.54"
       empspacing="1"
       type="xygrid"
       units="mm"
       id="grid11"
       visible="false"
       originx="0"
       originy="0" /></sodipodi:namedview><defs
     id="defs1" /><g
     inkscape:label="Ebene 1"
     inkscape:groupmode="layer"
     id="layer1"
     style="display:inline" /><g
     inkscape:groupmode="layer"
     id="layer2"
     inkscape:label="cut" /><g
     inkscape:groupmode="layer"
     id="layer3"
     inkscape:label="silk" /><g
     inkscape:label="[fixed] BG"
     inkscape:groupmode="layer"
     sodipodi:insensitive="true"
     id="g2"><rect
       x="0"
       y="0"
       width="130.0"
       height="139.0"
       style="fill:#FFFFFF;fill-opacity:1;stroke:none"
       id="rect2" /></g><g
     inkscape:label="Edge.Cuts"
     inkscape:groupmode="layer"
     id="g3"
     style="display:inline"><path
       id="path43"
       style="display:inline;opacity:1;fill:#1a1a1a;fill-opacity:1;stroke:#000000;stroke-width:0.2;stroke-linecap:round;stroke-dasharray:none;stroke-opacity:1;paint-order:stroke fill markers"
       d="M 111.328 26.6426 L 111.189 26.9765 L 111.083 27.3141 L 111.01 27.6546 L 110.966 27.9974 L 110.949 28.3418 L 110.956 28.6873 L 110.987 29.033 L 111.037 29.3784 L 111.106 29.7228 L 111.19 30.0656 L 111.396 30.7435 L 111.636 31.4069 L 111.893 32.0506 L 112.018 32.3673 L 112.083 32.5322 L 112.127 32.677 L 112.133 32.7831 L 112.118 32.8159 L 112.086 32.8322 L 112.038 32.8296 L 111.969 32.8058 L 111.766 32.6855 L 111.429 32.5042 L 111.087 32.3372 L 110.388 32.0411 L 109.673 31.7862 L 108.946 31.5615 L 107.476 31.1591 L 106.741 30.9595 L 106.012 30.7462 L 105.394 30.5918 L 104.768 30.4629 L 104.137 30.3639 L 103.502 30.2988 L 102.866 30.2717 L 102.23 30.287 L 101.595 30.3487 L 100.965 30.4609 L 101.001 30.7894 L 101.068 31.106 L 101.163 31.4107 L 101.283 31.7033 L 101.429 31.9836 L 101.596 32.2517 L 101.784 32.5071 L 101.99 32.75 L 102.213 32.98 L 102.451 33.1971 L 102.701 33.4011 L 102.962 33.5919 L 103.232 33.7693 L 103.509 33.9332 L 104.077 34.22 L 104.474 34.4423 L 104.862 34.6804 L 105.617 35.1895 L 104.703 35.2318 L 103.775 35.2577 L 102.843 35.2919 L 101.915 35.3589 L 101.455 35.4124 L 101 35.4833 L 100.551 35.5747 L 100.108 35.6896 L 99.6732 35.8312 L 99.2473 36.0025 L 98.8315 36.2066 L 98.4269 36.4466 L 98.3131 36.5053 L 98.2217 36.5769 L 98.1511 36.66 L 98.0996 36.7529 L 98.0658 36.8542 L 98.0479 36.9624 L 98.0538 37.1932 L 98.1045 37.4333 L 98.1873 37.6705 L 98.2894 37.8927 L 98.3981 38.0878 L 98.5258 38.2729 L 98.6809 38.4406 L 98.8575 38.59 L 99.0495 38.72 L 99.2509 38.8298 L 99.4557 38.9182 L 99.6579 38.9844 L 99.8516 39.0273 L 99.2359 39.321 L 98.5959 39.6115 L 97.9374 39.8732 L 97.6031 39.9852 L 97.2664 40.0804 L 96.928 40.1555 L 96.5886 40.2073 L 96.2491 40.2327 L 95.9101 40.2283 L 95.5724 40.191 L 95.2367 40.1176 L 94.9038 40.0049 L 94.5744 39.8496 L 93.4765 39.4089 L 92.3712 38.9872 L 91.2596 38.5817 L 90.1429 38.1896 L 87.899 37.4343 L 85.6491 36.6989 L 84.3337 36.3122 L 83.009 35.9554 L 81.6756 35.6326 L 80.3339 35.3479 L 78.9845 35.1055 L 77.6278 34.9096 L 76.2643 34.7643 L 74.8945 34.6738 L 74.6146 35.025 L 74.3493 35.3852 L 74.0984 35.7539 L 73.8619 36.1306 L 73.6397 36.5149 L 73.4318 36.9064 L 73.238 37.3046 L 73.0583 37.7091 L 72.8927 38.1194 L 72.7409 38.5351 L 72.4789 39.3808 L 72.2717 40.2428 L 72.1187 41.1173 L 72.0193 42.0008 L 71.9729 42.8899 L 71.9788 43.7808 L 72.0366 44.6701 L 72.1454 45.5542 L 72.3048 46.4294 L 72.5142 47.2923 L 72.7729 48.1393 L 72.9688 48.7292 L 73.1878 49.3092 L 73.4289 49.8791 L 73.6914 50.4389 L 73.9741 50.9883 L 74.2763 51.5272 L 74.5971 52.0556 L 74.9354 52.5733 L 75.2904 53.0802 L 75.6612 53.5762 L 76.0468 54.061 L 76.4464 54.5347 L 76.8591 54.9971 L 77.2838 55.4481 L 77.7198 55.8875 L 78.166 56.3152 L 79.0477 57.1812 L 79.9535 58.0217 L 80.8782 58.8418 L 81.8164 59.6465 L 81.4793 60.077 L 81.1665 60.5256 L 80.8733 60.9885 L 80.595 61.4621 L 80.064 62.426 L 79.5357 63.3878 L 79.2607 63.8587 L 78.9721 64.3178 L 78.6652 64.7615 L 78.3353 65.1861 L 77.9776 65.5879 L 77.5874 65.9632 L 77.16 66.3082 L 76.6905 66.6192 L 76.2215 67.0156 L 75.7854 67.4463 L 75.3785 67.906 L 74.9969 68.3892 L 74.6368 68.8904 L 74.2945 69.4042 L 73.648 70.4482 L 73.3893 70.9277 L 73.1516 71.4178 L 72.9357 71.9178 L 72.7421 72.4268 L 72.5717 72.9439 L 72.4249 73.4683 L 72.3025 73.999 L 72.2051 74.5352 L 72.3548 74.7108 L 72.5172 74.8582 L 72.6909 74.98 L 72.8746 75.079 L 73.0671 75.1577 L 73.2672 75.2189 L 73.6849 75.2995 L 74.1176 75.3419 L 74.5551 75.3678 L 74.9874 75.3984 L 75.4043 75.4551 L 75.4396 75.4833 L 75.4547 75.5163 L 75.4339 75.5949 L 75.3613 75.6874 L 75.2562 75.7906 L 75.026 76.0154 L 74.9396 76.1303 L 74.898 76.2424 L 74.7978 76.3808 L 74.7121 76.532 L 74.6414 76.6935 L 74.5865 76.8626 L 74.5479 77.0369 L 74.5262 77.2138 L 74.522 77.3906 L 74.536 77.5648 L 74.5687 77.7339 L 74.6207 77.8952 L 74.6927 78.0462 L 74.7852 78.1844 L 74.8989 78.307 L 75.0344 78.4117 L 75.1922 78.4958 L 75.373 78.5566 L 75.6099 78.6216 L 75.85 78.67 L 76.3381 78.7281 L 76.8326 78.7521 L 77.3289 78.7633 L 77.8225 78.7831 L 78.3086 78.8325 L 78.5475 78.875 L 78.7827 78.9329 L 79.0139 79.0088 L 79.2402 79.1055 L 79.269 79.2339 L 79.277 79.3619 L 79.2677 79.4895 L 79.2442 79.6169 L 79.1676 79.8715 L 79.0733 80.1266 L 78.9873 80.3831 L 78.9356 80.6418 L 78.9307 80.7724 L 78.9442 80.9038 L 78.9792 81.0363 L 79.0391 81.1699 L 79.14 81.346 L 79.2659 81.5015 L 79.4131 81.6369 L 79.5775 81.7528 L 79.7552 81.8498 L 79.9425 81.9285 L 80.1354 81.9894 L 80.3301 82.0332 L 79.3873 82.7835 L 78.4308 83.5215 L 76.4925 84.976 L 74.5465 86.4277 L 73.5805 87.1621 L 72.6243 87.9074 L 71.6818 88.6675 L 70.7571 89.4461 L 69.854 90.2473 L 68.9764 91.0747 L 68.1283 91.9324 L 67.3135 92.8242 L 66.5361 93.7538 L 66.1626 94.2341 L 65.7999 94.7253 L 65.1749 95.6523 L 64.5874 96.605 L 64.0425 97.5826 L 63.545 98.5842 L 63.3156 99.0939 L 63.0999 99.6093 L 62.8985 100.13 L 62.7121 100.657 L 62.5412 101.189 L 62.3864 101.726 L 62.2485 102.269 L 62.1279 102.817 L 61.9296 103.562 L 61.7101 104.31 L 61.4576 105.051 L 61.1602 105.773 L 59.1288 105.61 L 57.0909 105.481 L 55.0483 105.389 L 53.0027 105.336 L 50.9558 105.325 L 48.9094 105.359 L 46.8653 105.442 L 44.8252 105.576 L 42.7909 105.763 L 40.7641 106.007 L 39.754 106.152 L 38.7465 106.311 L 37.7418 106.487 L 36.74 106.678 L 35.7415 106.885 L 34.7463 107.109 L 33.7548 107.351 L 32.7671 107.609 L 31.7835 107.886 L 30.8042 108.181 L 29.8294 108.494 L 28.8594 108.826 L 28.0785 109.107 L 27.3036 109.404 L 26.5349 109.715 L 25.7722 110.04 L 24.2655 110.732 L 22.784 111.476 L 21.3279 112.27 L 19.8978 113.11 L 18.4939 113.993 L 17.1168 114.917 L 16.7409 115.116 L 16.3619 115.351 L 16.0008 115.621 L 15.8336 115.77 L 15.6789 115.928 L 15.5392 116.096 L 15.4172 116.272 L 15.3155 116.458 L 15.2369 116.653 L 15.1838 116.857 L 15.1591 117.07 L 15.1653 117.293 L 15.2051 117.525 L 15.3216 117.804 L 15.4571 118.07 L 15.6097 118.323 L 15.7775 118.567 L 16.1518 119.025 L 16.5654 119.456 L 17.0036 119.867 L 17.4518 120.269 L 17.8956 120.671 L 18.3203 121.082 L 18.8718 121.548 L 19.4335 122 L 20.005 122.437 L 20.586 122.86 L 21.1761 123.268 L 21.7751 123.662 L 22.3824 124.043 L 22.998 124.41 L 23.6213 124.763 L 24.252 125.103 L 25.5345 125.743 L 26.8427 126.333 L 28.1739 126.872 L 29.5254 127.363 L 30.8944 127.807 L 32.2784 128.205 L 33.6745 128.559 L 35.0801 128.87 L 36.4925 129.139 L 37.9088 129.369 L 39.3265 129.56 L 41.0024 129.736 L 42.6819 129.88 L 44.3642 129.992 L 46.0484 130.072 L 47.7339 130.119 L 49.4198 130.136 L 51.1053 130.121 L 52.7896 130.074 L 54.0334 130.012 L 55.2759 129.934 L 57.7575 129.738 L 60.2356 129.502 L 62.7117 129.24 L 67.6622 128.697 L 70.1392 128.446 L 72.6191 128.227 L 72.8042 128.426 L 73.004 128.6 L 73.2171 128.75 L 73.4419 128.88 L 73.6771 128.991 L 73.9212 129.085 L 74.4303 129.231 L 74.9575 129.338 L 75.4911 129.421 L 76.0194 129.498 L 76.531 129.586 L 78.1029 129.809 L 78.8804 129.941 L 79.6491 130.099 L 80.4065 130.293 L 81.1501 130.535 L 81.5159 130.676 L 81.8774 130.832 L 82.2343 131.005 L 82.5862 131.196 L 82.8475 131.284 L 83.1126 131.356 L 83.3809 131.41 L 83.6516 131.448 L 83.924 131.471 L 84.1974 131.478 L 84.7444 131.447 L 85.2868 131.361 L 85.8191 131.223 L 86.3354 131.035 L 86.8301 130.803 L 87.7415 131.026 L 88.2029 131.129 L 88.667 131.213 L 89.1329 131.27 L 89.5998 131.292 L 90.0668 131.27 L 90.5332 131.195 L 90.4976 131.546 L 90.5049 131.913 L 90.5601 132.278 L 90.6073 132.455 L 90.6682 132.625 L 90.7436 132.785 L 90.834 132.935 L 90.9402 133.071 L 91.0626 133.191 L 91.2019 133.294 L 91.3588 133.376 L 91.5339 133.437 L 91.7276 133.473 L 92.487 133.666 L 93.2491 133.859 L 93.6331 133.928 L 94.0201 133.965 L 94.4107 133.961 L 94.8059 133.903 L 95.1772 133.844 L 95.5441 133.763 L 95.9058 133.662 L 96.2616 133.541 L 96.611 133.402 L 96.9532 133.246 L 97.2875 133.074 L 97.6133 132.887 L 97.9278 133.122 L 98.2594 133.313 L 98.6054 133.462 L 98.9632 133.571 L 99.3303 133.642 L 99.7041 133.677 L 100.082 133.678 L 100.462 133.647 L 100.84 133.586 L 101.215 133.496 L 101.584 133.381 L 101.944 133.241 L 102.293 133.078 L 102.628 132.895 L 102.947 132.694 L 103.246 132.477 L 103.654 132.533 L 104.069 132.558 L 104.487 132.551 L 104.905 132.513 L 105.32 132.445 L 105.73 132.345 L 106.13 132.216 L 106.519 132.056 L 106.892 131.868 L 107.246 131.649 L 107.579 131.403 L 107.888 131.127 L 108.169 130.824 L 108.419 130.492 L 108.635 130.134 L 108.814 129.748 L 108.903 129.509 L 108.966 129.269 L 109.003 129.028 L 109.016 128.786 L 109.006 128.545 L 108.974 128.306 L 108.922 128.069 L 108.851 127.835 L 108.763 127.606 L 108.659 127.383 L 108.54 127.166 L 108.408 126.956 L 108.111 126.561 L 107.777 126.207 L 107.535 125.962 L 107.416 125.812 L 107.322 125.656 L 107.273 125.506 L 107.27 125.435 L 107.286 125.369 L 107.322 125.31 L 107.38 125.257 L 107.464 125.214 L 107.574 125.18 L 108.022 125.129 L 108.473 125.095 L 109.38 125.035 L 109.832 124.988 L 110.279 124.917 L 110.719 124.812 L 111.151 124.662 L 111.476 124.533 L 111.79 124.384 L 112.095 124.216 L 112.389 124.029 L 112.672 123.825 L 112.941 123.604 L 113.198 123.368 L 113.439 123.117 L 113.301 123.475 L 113.148 123.833 L 112.996 124.191 L 112.858 124.553 L 112.748 124.92 L 112.678 125.294 L 112.663 125.485 L 112.663 125.677 L 112.68 125.873 L 112.716 126.071 L 112.802 126.502 L 112.937 126.911 L 113.116 127.299 L 113.336 127.663 L 113.593 128.001 L 113.884 128.311 L 114.205 128.593 L 114.552 128.844 L 114.921 129.063 L 115.31 129.247 L 115.714 129.396 L 116.13 129.508 L 116.554 129.581 L 116.982 129.612 L 117.411 129.602 L 117.838 129.547 L 119.431 129.368 L 120.227 129.265 L 121.02 129.144 L 121.808 128.998 L 122.589 128.822 L 123.361 128.608 L 124.123 128.349 L 125.198 127.946 L 125.735 127.718 L 126.252 127.457 L 126.498 127.31 L 126.734 127.151 L 126.959 126.978 L 127.169 126.79 L 127.364 126.584 L 127.541 126.36 L 127.699 126.116 L 127.837 125.852 L 128.005 125.51 L 128.139 125.151 L 128.238 124.779 L 128.302 124.398 L 128.331 124.012 L 128.326 123.625 L 128.286 123.241 L 128.211 122.864 L 128.101 122.497 L 127.957 122.145 L 127.779 121.811 L 127.565 121.5 L 127.317 121.215 L 127.035 120.96 L 126.717 120.74 L 126.366 120.558 L 125.786 120.287 L 125.19 120.063 L 124.58 119.882 L 123.959 119.737 L 123.33 119.622 L 122.696 119.531 L 121.428 119.398 L 121.675 118.587 L 121.939 117.782 L 122.217 116.984 L 122.509 116.191 L 123.131 114.62 L 123.795 113.067 L 124.494 111.528 L 125.219 110 L 126.713 106.962 L 128.211 103.926 L 128.941 102.4 L 129.646 100.864 L 130.319 99.3143 L 130.952 97.7483 L 131.535 96.162 L 131.805 95.3602 L 132.06 94.5521 L 132.294 93.5459 L 132.492 92.5301 L 132.65 91.5067 L 132.762 90.478 L 132.824 89.4462 L 132.828 88.4133 L 132.808 87.8972 L 132.772 87.3817 L 132.719 86.8671 L 132.648 86.3535 L 133.565 86.1533 L 134.469 85.9173 L 135.362 85.6474 L 136.244 85.3461 L 137.115 85.0153 L 137.976 84.6574 L 138.826 84.2744 L 139.667 83.8686 L 140.498 83.4421 L 141.321 82.9971 L 142.135 82.5358 L 142.942 82.0604 L 144.532 81.0757 L 146.094 80.0605 L 146.052 80.741 L 146.054 81.0988 L 146.087 81.4514 L 146.163 81.7863 L 146.222 81.9432 L 146.296 82.0909 L 146.387 82.2279 L 146.497 82.3525 L 146.627 82.4633 L 146.779 82.5586 L 146.966 82.5987 L 147.145 82.6082 L 147.317 82.5901 L 147.481 82.5469 L 147.638 82.4815 L 147.788 82.3964 L 147.932 82.2945 L 148.07 82.1785 L 148.33 81.915 L 148.569 81.6276 L 148.999 81.0685 L 149.829 79.8951 L 150.674 78.732 L 151.544 77.5888 L 152.453 76.475 L 152.777 76.0495 L 153.093 75.6107 L 153.397 75.1593 L 153.687 74.696 L 153.961 74.2216 L 154.215 73.737 L 154.447 73.2427 L 154.654 72.7397 L 154.833 72.2286 L 154.982 71.7101 L 155.098 71.1852 L 155.179 70.6544 L 155.221 70.1186 L 155.221 69.5785 L 155.179 69.0349 L 155.089 68.4884 L 155.01 68.1567 L 154.906 67.8337 L 154.781 67.5179 L 154.64 67.2077 L 154.335 66.5981 L 154.035 65.9922 L 154.215 65.9433 L 154.396 65.9149 L 154.578 65.9044 L 154.761 65.9097 L 155.129 65.958 L 155.5 66.0411 L 156.244 66.2369 L 156.616 66.3122 L 156.987 66.3476 L 157.238 66.3731 L 157.493 66.3475 L 157.736 66.2738 L 157.955 66.155 L 158.05 66.0795 L 158.133 65.9939 L 158.202 65.8985 L 158.256 65.7936 L 158.292 65.6796 L 158.31 65.557 L 158.306 65.426 L 158.279 65.2871 L 158.189 65.0679 L 158.08 64.8635 L 157.954 64.6723 L 157.813 64.4929 L 157.493 64.1634 L 157.136 63.8632 L 156.376 63.3029 L 156.004 63.0191 L 155.658 62.7169 L 154.509 61.7804 L 153.381 60.8153 L 152.281 59.8175 L 151.217 58.7829 L 150.701 58.2506 L 150.197 57.7075 L 149.706 57.1532 L 149.228 56.5871 L 148.765 56.0088 L 148.317 55.4178 L 147.886 54.8134 L 147.473 54.1953 L 147.321 53.9767 L 147.155 53.7683 L 146.8 53.3677 L 146.454 52.9654 L 146.298 52.7548 L 146.162 52.5332 L 146.166 52.3852 L 146.191 52.2476 L 146.235 52.1192 L 146.295 51.9988 L 146.454 51.7769 L 146.649 51.5721 L 147.07 51.1739 L 147.258 50.9607 L 147.338 50.8463 L 147.405 50.725 L 147.857 50.075 L 148.262 49.4026 L 148.622 48.7097 L 148.94 47.9984 L 149.217 47.2707 L 149.454 46.5285 L 149.653 45.774 L 149.816 45.0092 L 149.945 44.236 L 150.042 43.4566 L 150.107 42.6729 L 150.142 41.887 L 150.151 41.1009 L 150.133 40.3167 L 150.09 39.5363 L 150.025 38.7617 L 149.929 37.7976 L 149.808 36.837 L 149.667 35.8795 L 149.509 34.9246 L 149.157 33.0206 L 148.781 31.1211 L 147.549 31.261 L 146.325 31.4445 L 145.111 31.6693 L 143.905 31.9332 L 142.709 32.2339 L 141.521 32.5693 L 140.342 32.9371 L 139.173 33.3351 L 138.012 33.761 L 136.86 34.2127 L 135.717 34.6878 L 134.583 35.1842 L 133.457 35.6997 L 132.341 36.2319 L 131.234 36.7787 L 130.135 37.3379 L 129.685 37.1698 L 129.23 37.0166 L 128.313 36.728 L 127.857 36.5793 L 127.405 36.4187 L 126.96 36.2395 L 126.525 36.0352 L 127.213 35.5732 L 127.556 35.3081 L 127.87 35.0159 L 128.009 34.8588 L 128.131 34.6937 L 128.235 34.5203 L 128.318 34.3383 L 128.377 34.1472 L 128.408 33.9467 L 128.41 33.7363 L 128.379 33.5156 L 128.327 33.3584 L 128.26 33.2144 L 128.177 33.0833 L 128.081 32.9649 L 127.973 32.859 L 127.854 32.7655 L 127.59 32.6144 L 127.298 32.51 L 126.99 32.4506 L 126.677 32.4345 L 126.368 32.46 L 125.972 32.4647 L 125.577 32.4865 L 125.183 32.5246 L 124.79 32.5783 L 124.013 32.7293 L 123.248 32.9336 L 123.708 32.1964 L 123.935 31.8099 L 124.136 31.4125 L 124.296 31.005 L 124.354 30.7976 L 124.395 30.588 L 124.418 30.3761 L 124.418 30.1622 L 124.396 29.9463 L 124.348 29.7285 L 124.238 29.5488 L 124.108 29.3953 L 123.961 29.2666 L 123.799 29.1614 L 123.624 29.0785 L 123.438 29.0166 L 123.244 28.9743 L 123.043 28.9504 L 122.838 28.9435 L 122.631 28.9524 L 122.219 29.0124 L 121.826 29.1199 L 121.469 29.2646 L 121.146 29.4599 L 120.849 29.687 L 120.568 29.9359 L 120.297 30.1965 L 119.75 30.7135 L 119.459 30.9499 L 119.146 31.1582 L 119.07 30.8879 L 119.005 30.6092 L 118.869 30.0516 L 118.777 29.7849 L 118.653 29.5345 L 118.488 29.3067 L 118.387 29.2031 L 118.271 29.1075 L 118.118 28.9752 L 117.95 28.8664 L 117.769 28.7808 L 117.578 28.7184 L 117.38 28.6791 L 117.179 28.6629 L 116.978 28.6695 L 116.781 28.6989 L 116.59 28.7511 L 116.409 28.8259 L 116.241 28.9232 L 116.089 29.0429 L 115.957 29.1849 L 115.848 29.3492 L 115.765 29.5357 L 115.711 29.7441 L 115.682 29.8675 L 115.658 29.8872 L 115.628 29.8834 L 115.554 29.8187 L 115.466 29.7005 L 115.274 29.411 L 115.182 29.2936 L 115.1 29.2305 L 114.231 28.4242 L 113.816 28.0049 L 113.428 27.5533 L 113.223 27.3389 L 113.004 27.1391 L 112.771 26.9559 L 112.526 26.7916 L 112.268 26.6482 L 111.998 26.528 L 111.718 26.4329 L 111.428 26.3652 L 111.328 26.6426 L 111.328 26.6426" /></g><g
     inkscape:label="B.Cu"
     inkscape:groupmode="layer"
     id="g4" /><g
     inkscape:label="B.Mask"
     inkscape:groupmode="layer"
     id="g5" /><g
     inkscape:label="B.SilkS"
     inkscape:groupmode="layer"
     id="g6" /><g
     inkscape:label="F.Cu"
     inkscape:groupmode="layer"
     id="g7" /><g
     inkscape:label="F.Mask"
     inkscape:groupmode="layer"
     id="g8" /><g
     inkscape:label="F.SilkS"
     inkscape:groupmode="layer"
     id="g9"
     style="display:inline"><path
       id="path43-4"
       style="display:inline;fill:#f9f9f9;fill-opacity:1;stroke:#000000;stroke-width:0.1;stroke-linecap:round;stroke-dasharray:none;stroke-opacity:1;paint-order:stroke fill markers"
       d="m 112.60656,29.412158 -0.001,5.17e-4 v 5.17e-4 5.16e-4 c 0.77344,2.05658 1.66807,4.097915 1.52239,6.269385 -3.39809,-1.931471 -6.99189,-3.113736 -10.74818,-3.672127 2.64009,1.557482 5.4969,2.878446 7.52357,5.105115 -3.76585,-0.371332 -7.37024,-0.22577 -10.83758,0.358117 1.99323,0.213706 4.29791,0.398988 5.84822,1.008208 -3.0636,1.123992 -6.146984,2.476818 -9.430434,3.82819 -6.69943,-2.367677 -13.17463,-5.128312 -20.77961,-5.911267 -6.631076,11.549296 4.354942,19.778177 8.509042,23.287467 -2.12095,2.12312 -3.111995,4.528613 -4.327385,6.878133 -3.3921,1.62177 -4.532504,4.494588 -5.844604,7.271908 l 4.276741,0.821138 -1.733744,2.597775 4.990393,0.605647 -0.853695,2.603459 3.402377,0.538468 c -7.52798,8.12547 -18.669879,9.651172 -21.316529,26.690356 -16.95681,-1.59183 -32.935636,-0.36453 -45.857666,9.67332 7.7306,9.29253 20.154323,11.4474 33.490463,11.33781 l -9.019605,-0.9369 c 0,0 2.786391,-1.39353 1.646411,-1.77353 -1.13999,-0.38 -3.419946,-1.51981 -3.419946,-1.51981 l 2.533695,-1.52032 -2.913517,-1.64641 4.559928,-0.37982 -4.052982,-2.02675 5.572786,-4.0535 -0.633036,-1.3932 c 0,0 4.306544,-0.63337 3.546554,-1.01337 -0.75999,-0.37999 -0.886768,-1.3932 -0.886768,-1.3932 l 3.293339,-2.15335 9.246464,0.25321 -3.673161,1.01337 1.519804,1.26659 -4.052982,1.52032 2.026749,1.51981 -3.419946,0.76016 1.519804,1.64641 -3.293339,1.64693 1.646411,1.39319 -2.913001,2.02675 1.646412,1.26659 -1.773019,1.77302 2.279964,2.02675 -2.153357,0.25322 1.79679,1.43763 c -0.21032,0.003 -0.420562,0.004 -0.630452,0.006 l 0.733805,0.0765 -0.102836,-0.0827 c 1.66617,-0.0224 3.34534,-0.0787 5.0307,-0.15968 5.89917,-0.28354 11.717962,-1.63257 17.520895,-1.75079 l 0.633553,0.94981 c 3.40195,0.71467 7.234887,0.99864 9.880017,2.47013 1.22718,-0.0734 1.819642,-0.60051 2.216402,-1.2671 0.0021,0.001 0.0041,0.003 0.0062,0.004 0.267239,-2.11258 -2.147737,-3.0367 -5.329907,-3.05097 0.379866,-0.0567 0.748894,-0.089 1.103292,-0.0977 2.480788,-0.0607 4.633113,0.93587 4.397664,2.79104 l -0.171049,0.3576 c 0.828515,0.53647 1.913795,0.68826 2.970362,0.88264 0.91198,-0.12456 1.116651,-0.60262 1.330151,-1.07642 l 1.013375,0.31677 c 1.01003,-0.82332 0.875303,-1.65822 0.823205,-2.47013 -0.258138,-1.36683 -1.416272,-1.81397 -2.216402,-2.65979 l 6.283854,0.31368 0.0093,0.016 c 0.01006,-0.003 0.02061,-0.005 0.03049,-0.008 -2.774055,1.78624 -4.275083,4.16015 -4.550626,7.53029 2.28798,1.45183 4.12737,0.81053 5.69991,-1.07642 1.69782,2.68438 3.504966,1.54766 5.320086,0.12661 0.94999,0.35387 1.89998,0.8226 2.84996,-0.44339 0.67431,0.0819 1.22158,-0.0904 1.45676,-0.88677 0.29834,-1.56437 -0.67294,-2.14127 -1.39371,-2.913 -1.25483,-1.23822 -2.96977,-1.93963 -4.93975,-2.34352 1.39329,-0.0847 2.7395,-0.59181 4.24315,0.31677 1.34403,0.1196 1.72667,-0.72204 1.90014,-1.77301 0.0161,0.008 0.032,0.0162 0.0481,0.0243 -1.55595,-1.86575 -3.97223,-3.53491 -6.85798,-2.87941 2.89485,-0.70996 6.30308,0.73289 6.8616,2.88096 h -5.2e-4 -5.2e-4 -5.1e-4 l 0.003,0.004 c -2.7e-4,-9.1e-4 -8.4e-4,-0.002 -0.001,-0.004 2.31599,1.17216 3.57613,0.88573 4.06487,-0.26768 0.27935,0.0121 0.50316,0.0798 1.01338,-0.13901 0.85627,-1.05405 0.24028,-1.74251 -0.31678,-2.34301 -2.14006,-1.53985 -4.92578,-2.11169 -7.72666,-2.6603 3.44568,0.14449 6.0811,-1.57445 7.84396,-5.30045 l 5.2e-4,-5.2e-4 h 5.2e-4 5.1e-4 5.2e-4 5.2e-4 5.2e-4 5.1e-4 v -5.2e-4 c 0.001,-1e-5 0.003,-4e-5 0.004,0 -0.002,-1.3e-4 -0.004,-3.8e-4 -0.006,-5.1e-4 h -5.1e-4 -5.2e-4 c -0.01,-0.0277 -0.96603,-2.73373 -1.01596,-2.69493 -2.03045,1.72606 -4.19847,3.2658 -6.32158,4.84467 -0.8625,0.55498 -1.56618,1.37912 -2.51509,1.78283 -0.60089,0.22931 -0.24814,-0.61977 0.25425,-1.08675 5.01018,-4.08991 10.09424,-7.05104 13.89631,-13.08964 l 0.79375,1.5875 0.22634,-3.628722 1.07746,1.133262 0.68006,-3.458185 1.07745,1.133781 0.68058,-3.797701 2.32441,2.380217 -1.98438,-4.761467 c 0,0 3.62828,3.231313 3.45819,2.834453 -0.17008,-0.39687 -2.0407,-4.479314 -2.0407,-4.479314 l 5.04568,1.984892 -3.11815,-4.081921 4.27467,-1.295012 c 0.41844,-0.11045 1.20397,-0.572957 1.52859,-0.674377 -1.21915,1.42119 -2.51627,2.768658 -3.81527,4.116028 0.97503,1.27694 1.95102,2.553851 2.9254,3.831291 -1.45963,-0.57691 -2.92113,-1.149753 -4.38164,-1.724443 -0.32962,-0.37231 -0.66372,0.06831 -0.87747,0.325045 0.37082,0.81477 0.74011,1.632939 1.10639,2.446879 0.26013,0.5802 -0.51325,0.991039 -0.95808,0.630969 -0.56016,-0.38835 -1.09847,-0.82102 -1.59266,-1.29036 0.60008,1.39492 1.21083,2.790692 1.54202,4.279842 -1.09266,-0.78522 -2.04738,-1.73038 -2.96003,-2.71353 -0.24464,1.26938 -0.45887,2.545149 -0.68884,3.817343 -0.36534,-0.38302 -0.7298,-0.767736 -1.09451,-1.151356 -0.2066,1.047836 -0.41076,2.097006 -0.61908,3.144516 -0.42426,-0.0635 -0.74592,-0.34098 -0.99839,-0.67025 -0.0915,1.47801 -0.18422,2.95626 -0.2744,4.43436 -0.43291,-0.86816 -0.86687,-1.73576 -1.3007,-2.60346 -1.47035,2.20189 -5.08253,5.56564 -5.03483,5.58364 0.0817,0.14329 4.19302,13.21573 4.19302,13.21573 -0.20099,1.68887 -2.31122,3.378 -0.50694,5.06687 0.26138,0.33749 1.94241,1.43057 2.91351,0.37982 1.57541,-0.26516 3.41144,0.90347 4.68654,-1.01337 1.85915,0.9091 2.53675,-0.65022 2.59105,-0.88108 0.0784,-0.33325 1.33087,-0.62702 1.46245,-0.82889 0.30766,-0.59853 0.7012,-1.51144 -0.6966,-2.84996 -1.56185,-1.15596 -4.29965,-1.29883 -6.64921,-1.16272 1.59393,-5.11068 3.54842,-10.34686 6.05803,-15.28796 3.41324,-6.720204 7.09194,-13.198744 5.22707,-20.896394 6.06755,-0.81722 11.7832,-4.097614 17.37569,-8.240324 l -0.48215,3.656624 3.54242,-4.630208 c 0.96995,-0.78705 1.96543,-2.061571 2.697,-4.994011 -0.15179,-2.14243 -0.88025,-4.284568 -2.22622,-6.426998 l 3.80597,0.36897 -6.26215,-5.350061 c -1.4776,-2.84761 -3.85605,-5.019125 -6.26939,-7.164937 0.0331,-0.01301 0.0662,-0.02651 0.0992,-0.04031 l -6.273,-6.917407 c 3.48264,-3.945679 6.82779,-7.708897 10.78125,-10.595219 0.88224,4.903198 0.28166,10.340264 -0.70486,13.368693 -1.02849,1.90183 -2.44949,3.577842 -3.80339,4.143933 l 0.2651,0.292489 c 1.39143,-1.04295 3.09509,-2.44905 3.99717,-4.21473 1.08583,-3.348279 1.54232,-9.512811 0.38551,-15.115357 -6.05431,0.744905 -11.70381,3.312372 -17.28629,6.180502 -2.35567,-0.953622 -4.51385,-1.545154 -6.69674,-2.144055 0.46035,-1.614509 2.00954,-1.976003 3.02462,-2.87166 -2.00031,-0.131295 -4.00089,0.311327 -6.00119,1.611788 -0.34725,-1.749358 0.96041,-3.250322 1.70171,-4.836397 -1.7237,1.025769 -3.30155,2.153096 -3.67213,4.120162 -0.21554,-1.492762 -0.77807,-2.985518 -1.34359,-4.47828 0.12203,1.591413 0.38794,3.13477 0.17932,4.836398 -1.20807,-2.415878 -2.65093,-4.622962 -4.9258,-6.090585 z m -35.507907,9.927043 c 5.619268,2.410069 11.746838,5.010755 16.300814,9.314677 l -7.702372,9.672794 C 79.974413,53.629692 73.883512,49.14351 77.098653,39.339201 Z m 53.784317,19.346106 c 1.55814,-1.2e-4 2.82136,1.262886 2.82153,2.821016 1.2e-4,1.55835 -1.26319,2.821653 -2.82153,2.821533 -1.55834,1.2e-4 -2.82166,-1.263183 -2.82154,-2.821533 1.6e-4,-1.55813 1.2634,-2.821136 2.82154,-2.821016 z m -20.28662,0.906921 c 1.62996,-10e-5 2.95133,1.321261 2.95124,2.951241 -1.9e-4,1.62977 -1.32148,2.950815 -2.95124,2.950725 -1.62956,-1.9e-4 -2.95053,-1.321155 -2.95072,-2.950725 -1e-4,-1.62977 1.32096,-2.951051 2.95072,-2.951241 z m 39.3144,8.757088 0.15709,0.317294 -15.52722,2.77089 -0.18913,-0.30179 z m -24.74681,0.72192 c 2.06197,-0.059 4.373,4.29e-4 6.3779,0.715719 1.43796,0.58794 2.81873,1.92396 1.67845,4.17959 -0.86554,1.28579 -1.73119,1.682076 -2.59674,2.343526 -2.12739,0.72832 -4.15978,0.414134 -6.20634,0.253214 -2.09438,-0.15392 -3.20932,-1.2877 -4.14858,-2.59674 -1.08364,-1.93266 -0.32522,-3.269125 1.45676,-4.274675 1.02963,-0.40239 2.20136,-0.585254 3.43855,-0.620634 z m -27.229866,2.141988 15.796966,0.548287 -0.14417,0.325562 -15.7639,-0.537435 z m 54.032876,0.306442 0.10077,0.323494 -17.18086,0.195337 -0.13798,-0.313676 z m -17.21032,0.948262 11.66286,2.366264 0.0217,0.266134 -11.63598,-2.368848 z m -21.59196,0.144694 -0.10542,0.342615 -17.874879,1.896525 0.06563,-0.348816 z m -28.85147,0.54467 -0.357084,4.157369 2.873209,0.86403 c 4.52353,3.89185 11.883028,4.748335 18.113105,6.713285 8.2075,1.92638 16.04658,1.134122 24.71219,-0.749308 -8.16618,3.32968 -17.177,4.090072 -25.3845,2.163692 -6.230078,-1.96495 -13.589575,-2.821435 -18.113105,-6.713285 l -2.87321,-0.863514 0.357084,-4.157885 -2.93057,1.22163 c -2.020259,1.1579 -1.207571,0.519224 -2.450496,0.654224 1.028489,-0.78959 1.102547,-0.911224 3.122806,-2.069124 z m 2.849955,7.39283 0.711068,0.466121 c 0,0 -4.355014,6.813021 -3.848344,6.813021 0.50666,0 2.279964,-0.126607 2.279964,-0.126607 l -3.546553,7.093107 1.393196,0.127124 -1.349271,4.035413 1.22163,-0.731739 1.806092,5.785178 0.886767,-1.98644 11.465967,22.09632 c -0.28131,-2.9409 -0.317238,-7.18976 0.879016,-9.92032 1.551933,-3.9231 3.779233,-7.75693 4.088123,-12.04061 0.23251,-1.02006 0.7231,-2.09444 0.28525,-2.9931 -0.86309,-1.5609 -0.014,-3.807986 -0.23099,-4.287076 -0.10931,-0.24136 -1.9043,1.229414 -2.79311,1.577164 0.10862,-0.81418 0.61098,-4.225963 0.88728,-5.007963 -1.10613,-0.0779 -2.21202,-0.155994 -3.318141,-0.234094 0.402949,-0.57295 0.804993,-1.146358 1.208712,-1.718758 -1.299483,-0.0807 -2.59899,-0.161643 -3.89847,-0.242363 0.475099,-0.54311 0.949706,-1.086561 1.425753,-1.628841 -1.34314,0.0217 -2.084596,-0.01622 -3.427698,0.0088 0.225672,-0.41467 0.221479,-0.503796 0.471289,-1.247986 -0.507797,4e-4 -2.453014,0.47612 -2.960543,0.45682 0.142766,-0.47408 1.615206,-2.868077 2.014865,-3.616317 l 0.929659,0.288355 -1.532207,2.325956 3.040125,-0.379822 -0.569991,1.393197 3.546553,-0.06356 -1.330151,1.52032 4.053495,0.253215 -1.20354,1.709973 3.61012,0.253215 -1.33016,3.800284 2.27997,-1.963704 0.12712,4.496883 1.07642,2.659786 c -0.1034,5.426786 -2.83005,9.279536 -4.43332,13.806396 -1.419225,3.71063 -1.483558,7.38272 -0.894,10.92595 -0.553629,-0.11375 -1.844744,-0.1422 -1.986443,-0.0651 h -5.17e-4 l -0.0062,-0.005 -0.0083,-0.061 c 0.0022,0.0232 0.0066,0.0707 0.0067,0.0708 -0.736245,-0.28437 -0.978537,-0.11283 -1.58595,0.0656 0.0024,-0.002 0.0048,-0.003 0.0072,-0.005 l -0.04909,-0.003 -10.366809,-18.71255 -0.886251,3.67316 -2.533695,-8.99325 -2.279964,1.3932 1.646928,-5.192969 -1.393197,-0.126607 3.546554,-7.093624 c 0,0 -1.773304,0.127124 -2.279965,0.127124 -0.506661,0 5.146973,-8.774658 5.146973,-8.774658 z M 64.0271,108.62903 c 0.44299,0.61681 0.487583,1.36972 0.617533,2.09341 0.0114,1.02901 0.479815,-0.27698 0.749825,-0.57206 0.41704,2.26933 0.830359,4.5398 1.245919,6.80941 -0.0986,0.79857 0.82527,0.43519 1.3224,0.55397 0.5087,1.36584 1.020329,2.73095 1.530139,4.09639 0.0484,0.84202 0.946203,0.22633 1.463993,0.26303 0.640685,0.17747 1.210016,0.71235 1.824178,1.02216 1.193855,0.94886 2.850241,0.94274 4.035413,1.88981 -1.04511,0.27007 -2.105163,-0.0532 -3.158464,-0.11059 -0.884394,-0.36531 -1.636777,-1.0844 -2.470133,-1.58647 -0.71316,-0.0697 -1.501737,0.16588 -2.242757,0.21498 -0.5059,-1.44716 -1.015862,-2.8932 -1.523422,-4.33979 -0.10637,-0.71614 -1.055944,-0.24219 -1.574064,-0.37724 -0.31471,-1.96415 -0.629111,-3.92847 -0.943611,-5.89266 -0.37604,0.47156 -0.752054,0.94323 -1.128614,1.41438 v -4.7072 c 0.084,-0.25716 0.167665,-0.51437 0.251665,-0.77153 z m -28.307316,2.16576 c 0,0 -4.939982,3.03955 -4.433322,3.16621 0.50666,0.12667 3.166732,1.26711 3.166732,1.26711 l -4.053499,2.02623 2.660303,2.40709 -3.673678,1.13998 2.533695,2.7864 -2.78691,-0.25322 2.406572,2.40657 c -4.64768,-1.04567 -8.904223,-3.26485 -12.539803,-7.34684 5.02628,-3.52812 10.681869,-6.43219 16.71991,-7.59953 z m 76.408256,1.31826 v 5.2e-4 c 0.004,1.4e-4 0.008,-1.3e-4 0.0114,0 -0.004,-2.2e-4 -0.008,-2.8e-4 -0.0114,-5.2e-4 z m -21.625554,1.58905 0.227893,0.44339 -3.278353,4.8798 -0.175183,-2.16317 -6.403743,6.61251 c 3.141042,-0.61085 7.899755,-1.42892 9.441284,0.44649 -2.022933,-1.51736 -7.310516,-0.50078 -10.451558,0.11007 l 7.72666,-8.23309 0.126607,2.15336 z m -27.549739,0.51263 1.393196,4.05299 -2.026749,0.63355 c 0,0 0.887,1.52004 1.52032,2.15336 0.63333,0.63333 -1.646928,1.01337 -1.646928,1.01337 l 2.78691,2.65979 -2.153357,0.76016 1.393197,2.15335 -7.219714,0.75965 2.533178,-1.77302 -2.406571,-0.12661 1.773018,-2.02675 -1.899625,-0.1266 3.166731,-2.27997 -2.660302,-0.38034 3.040124,-2.27996 -2.153357,-0.12661 2.659786,-2.27996 -0.126607,-0.63304 z m 37.874693,4.16254 c 5.63076,-0.20383 11.38405,1.82167 10.50582,4.10104 0.79719,-2.10947 -4.9912,-4.03488 -10.50582,-4.10104 z m 10.85256,2.19677 c 0.24921,0.23803 0.46691,0.48743 0.47956,0.80873 0.0584,0.33329 -0.11579,0.0786 -0.20309,0.0739 -0.21853,-0.17896 -0.36013,-0.39583 -0.47335,-0.76378 z m -3.0489,0.0563 c 0.6497,0.42032 1.23441,0.87845 1.39733,1.58182 0.26895,0.71061 -0.22204,0.22206 -0.41652,0.24856 -0.55722,-0.3029 -0.96147,-0.72167 -1.3658,-1.4857 z m -4.76044,1.0201 c 0.72638,0.26672 1.39701,0.58493 1.71101,1.23506 0.41902,0.63382 -0.16703,0.26513 -0.35088,0.33383 -0.6103,-0.17259 -1.09752,-0.49165 -1.66037,-1.14773 z m 21.07262,0.89865 c 0.56429,0.44006 1.06522,0.90977 1.15807,1.57096 0.18978,0.67615 -0.22279,0.18531 -0.40411,0.19431 -0.48866,-0.32438 -0.8271,-0.74278 -1.1374,-1.4795 z m -3.13263,0.16175 c 0.0151,-1.7e-4 0.0309,0.002 0.047,0.007 1.44573,0.47188 3.11572,0.69413 3.03702,2.93677 -0.0533,-1.9421 -1.72358,-2.16465 -3.16931,-2.63653 -0.14979,-0.0952 -0.061,-0.30531 0.0853,-0.30696 z m -2.64893,0.5333 c 0.0238,-1.2e-4 0.0448,0.005 0.0584,0.015 1.53207,0.70205 3.14725,1.31917 3.27577,3.20963 -0.27556,-1.82508 -1.90055,-2.24733 -3.44268,-2.9869 -0.15229,-0.14376 0.005,-0.23722 0.10852,-0.23771 z m -2.04535,0.52555 c 0.0342,-10e-4 0.0691,0.009 0.0925,0.0284 1.00112,0.94947 1.75876,2.39526 0.85731,3.92534 0.73153,-1.3603 -0.0262,-2.80586 -1.02733,-3.75533 -0.0686,-0.13627 0.002,-0.1954 0.0775,-0.19843 z m 5.56761,0.41806 c 0.56429,0.44006 1.06522,0.90977 1.15807,1.57096 0.18978,0.67615 -0.22279,0.18531 -0.40411,0.19431 -0.48866,-0.32438 -0.82709,-0.74278 -1.13739,-1.4795 z m -6.48745,0.34003 c 0.35725,0.6864 0.63885,1.37348 0.43304,2.06551 -0.11719,0.75068 -0.30203,0.0834 -0.4842,0.0103 -0.33484,-0.53864 -0.48012,-1.10225 -0.45424,-1.96629 z m 3.6251,0.16743 c 0.52179,0.57141 0.97068,1.16296 0.94981,1.88464 0.0799,0.75557 -0.27076,0.15816 -0.46561,0.13436 -0.46213,-0.43438 -0.74687,-0.94173 -0.94412,-1.78335 z m -34.304886,0.54519 c 3.127083,0.0964 4.462457,0.88397 4.791439,2.95589 -0.799667,-1.9004 -2.672332,-2.64084 -4.791439,-2.95589 z m 15.634706,0.30127 c 2.5e-4,1.3e-4 0.001,8.8e-4 0.002,0.001 10e-4,0.001 0.003,0.003 0.005,0.004 2.02983,0.79722 4.00723,2.44693 4.62039,3.7207 0.0797,0.16566 0.12854,0.54773 0.15916,0.72916 -1.30974,-1.60688 -3.01815,-3.19473 -5.01571,-4.41472 0.14696,0.0625 0.18898,0.007 0.22996,-0.0398 z m -10.638112,0.007 c 0.530237,0.56357 0.988365,1.14877 0.978235,1.87068 0.0911,0.75432 -0.268856,0.16178 -0.464054,0.14108 -0.468547,-0.42745 -0.760728,-0.93029 -0.970484,-1.76888 z m 8.999451,0.88211 c 0.0038,7e-5 0.0081,2.2e-4 0.0124,0 0.01665,-9.2e-4 0.03471,-0.001 0.05478,0 1.399951,0.68313 2.651101,1.69022 3.316591,4.14135 -0.0266,0.14143 -0.0739,0.2095 -0.16123,0.13849 -1.10973,-2.14705 -1.83641,-3.61087 -3.222541,-4.27984 z m -1.389579,0.0786 h 5.16e-4 5.17e-4 c 4.39e-4,2e-5 10e-4,2e-5 0.0015,0 0.02757,-9e-4 0.05075,0.0103 0.0708,0.03 -0.03024,-0.0127 -0.06533,-0.0234 -0.07338,-0.0279 l -5.17e-4,-5.2e-4 h -5.17e-4 v -5.2e-4 -5.1e-4 h 5.17e-4 z m 0.112137,0.0847 c 0.0079,0.0152 0.01537,0.0321 0.02222,0.0501 -0.456737,1.12171 -1.286751,2.18384 -0.534334,3.9703 l -0.255282,-0.0765 c -1.079157,-2.02941 0.159655,-2.92986 0.767395,-3.94395 z m -10.404016,0.11265 c 0.632935,0.44515 1.199233,0.92591 1.334803,1.63505 0.241249,0.72048 -0.229925,0.21251 -0.425297,0.23151 -0.54508,-0.32426 -0.933472,-0.75774 -1.307931,-1.53686 z m -4.399731,0.48576 c 0.720264,0.28281 1.384167,0.61584 1.683618,1.27279 0.404816,0.64298 -0.173307,0.26138 -0.358634,0.32608 -0.606308,-0.18613 -1.085896,-0.51598 -1.634009,-1.18442 z m 22.45548,0.10697 c 0.41535,0.39414 0.77821,0.80726 0.80098,1.34101 0.0989,0.55346 -0.1913,0.13102 -0.33641,0.12402 -0.36407,-0.29618 -0.60157,-0.65584 -0.79168,-1.26659 z m -2.51613,0.84543 c 0.60836,0.47819 1.14826,0.98791 1.24592,1.70325 0.20259,0.73229 -0.24109,0.19978 -0.43718,0.20878 -0.52707,-0.35279 -0.89173,-0.80663 -1.22422,-1.60456 z m -3.923273,0.84439 c 0.639363,0.43587 1.212673,0.90832 1.358573,1.61541 0.25173,0.71689 -0.22713,0.21591 -0.4222,0.23771 -0.549746,-0.31627 -0.943848,-0.74417 -1.329631,-1.51774 z m -5.073593,0.27906 0.514698,0.0444 c 0.139502,0.76112 0.207021,1.50083 -0.19327,2.10168 -0.33286,0.68301 -0.313454,-0.01 -0.466122,-0.13333 -0.161564,-0.61331 -0.134236,-1.1946 0.144694,-2.01279 z"
       sodipodi:nodetypes="cccccccccccccccccccccccscccccccscccccccccccccccccccccccccccccccccccccccccccccccccccccccccccccccccccccccccccccccccccccscccccccccccccccccccccccccscccscccccccccccccccccccccccccccccccccccccccccccccccccccccccccccccccccccccccccccccccccccccccccscccccccccccsccccccccccccccccccccccccccccccccccccccccscccccccccccccccccccccsccccccccccccccccccccccccccscccccccccccccccccccccccccccccccccccccccccccccscccssscccsscccccccccccccccccccccccccccccccccccccccscccccccccsccccsccccccccccccccccccccccccccccccc" /><path
       d="m 110.63961,59.581444 c 1.62996,-10e-5 2.95133,1.321261 2.95124,2.951241 -1.9e-4,1.62977 -1.32148,2.950815 -2.95124,2.950725 -1.62956,-1.9e-4 -2.95053,-1.321155 -2.95072,-2.950725 -1e-4,-1.62977 1.32096,-2.951051 2.95072,-2.951241 z"
       style="display:inline;fill:#000000;fill-opacity:1;stroke:#000000;stroke-width:0.1;stroke-linecap:round;stroke-dasharray:none;stroke-opacity:1;paint-order:stroke fill markers"
       id="path1" /><path
       d="m 130.84858,58.663324 c 1.62996,-1e-4 2.95133,1.321261 2.95124,2.951241 -1.9e-4,1.62977 -1.32148,2.950815 -2.95124,2.950725 -1.62956,-1.9e-4 -2.95053,-1.321155 -2.95072,-2.950725 -10e-5,-1.62977 1.32096,-2.951051 2.95072,-2.951241 z"
       style="display:inline;fill:#000000;fill-opacity:1;stroke:#000000;stroke-width:0.1;stroke-linecap:round;stroke-dasharray:none;stroke-opacity:1;paint-order:stroke fill markers"
       id="path1-5" /><path
       d="m 126.62787,44.820938 c 0.0384,-0.0014 0.0773,-0.0016 0.11628,0 0.0892,0.0036 0.17967,0.01463 0.27181,0.03307 2.71274,0.270532 5.32949,1.301647 7.43366,2.418457 4.04107,2.851266 7.35654,6.972171 10.97194,10.568348 1.25589,-0.019 2.0638,0.477187 3.31969,0.921907 0.38788,0.70789 1.1412,1.15015 1.78077,1.48053 l -0.68833,0.437699 c -0.9139,0.27695 -3.09288,-0.364848 -3.88853,-0.915588 -5.56374,-6.121576 -11.7687,-8.975817 -19.73823,-10.157865 -0.30808,-0.04569 -0.55099,-0.253914 -0.64877,-0.47087 -0.36648,-0.81317 -0.60336,-1.783978 -0.42322,-3.07339 0.40895,-0.857362 0.91678,-1.220753 1.49293,-1.242301 z"
       style="display:inline;fill:#000000;fill-opacity:1;stroke:#000000;stroke-width:0.1;stroke-linecap:round;stroke-dasharray:none;stroke-opacity:1;paint-order:stroke fill markers"
       id="path1-53"
       sodipodi:nodetypes="sccccccccsscss" /><path
       d="m 97.970172,71.204833 15.796968,0.548287 -0.14417,0.325562 -15.763902,-0.537435 z m 15.230598,1.399398 -0.10542,0.342615 -17.874881,1.896525 0.06563,-0.348816 z"
       style="display:inline;fill:#000000;fill-opacity:1;stroke:#000000;stroke-width:0.1;stroke-linecap:round;stroke-dasharray:none;stroke-opacity:1;paint-order:stroke fill markers"
       id="path1-82"
       sodipodi:nodetypes="cccccccccc" /><path
       d="m 112.08057,112.19702 c -0.11128,-0.2106 -0.9929,-2.77403 -1.04283,-2.73523 -2.03045,1.72606 -4.19847,3.2658 -6.32158,4.84467 -0.8625,0.55498 -1.56618,1.37912 -2.51509,1.78283 -0.60089,0.22931 -0.24814,-0.61977 0.25425,-1.08675 5.01018,-4.08991 10.09424,-7.05104 13.89631,-13.08964 l 0.79375,1.5875 0.22634,-3.628725 1.07746,1.133265 0.68006,-3.458185 1.07745,1.13378 0.68058,-3.79771 2.32441,2.38022 -1.98438,-4.76146 c 0,0 3.62828,3.23131 3.45819,2.83445 -0.17008,-0.39687 -2.0407,-4.47932 -2.0407,-4.47932 l 5.04568,1.9849 -3.11815,-4.08192 4.27467,-1.29502 c 0.41844,-0.11045 1.20397,-0.57295 1.52859,-0.67437 -1.21915,1.42119 -2.51627,2.76865 -3.81527,4.11602 0.97503,1.27694 1.95102,2.55386 2.9254,3.83129 -1.45963,-0.57691 -2.92113,-1.14975 -4.38164,-1.72444 -0.32962,-0.37231 -0.66372,0.0683 -0.87747,0.32505 0.37082,0.81477 0.74011,1.63294 1.10639,2.44688 0.26013,0.5802 -0.51325,0.99103 -0.95808,0.63096 -0.56016,-0.38835 -1.09847,-0.82102 -1.59266,-1.29036 0.60008,1.39492 1.21083,2.7907 1.54202,4.27985 -1.09266,-0.78522 -2.04738,-1.73038 -2.96003,-2.71353 -0.24464,1.26938 -0.45887,2.54515 -0.68884,3.817345 -0.36534,-0.38302 -0.7298,-0.767745 -1.09451,-1.151365 -0.2066,1.047845 -0.41076,2.097015 -0.61908,3.144525 -0.42426,-0.0635 -0.74592,-0.34098 -0.99839,-0.67025 -0.0915,1.47801 -0.18422,2.95626 -0.2744,4.43436 -0.43291,-0.86816 -0.86687,-1.73576 -1.3007,-2.60346 -1.47035,2.20189 -5.08253,5.56564 -5.03483,5.58364 l 0.86906,2.55494 z"
       style="display:inline;fill:#000000;fill-opacity:1;stroke:#000000;stroke-width:0.1;stroke-linecap:round;stroke-dasharray:none;stroke-opacity:1;paint-order:stroke fill markers"
       id="path1-8"
       sodipodi:nodetypes="ccccccccccccccsccccccccccccccccccccccc" /><path
       id="path34"
       style="display:inline;opacity:1;fill:#000000;fill-opacity:1;stroke:#000000;stroke-width:0.2;stroke-linecap:round;stroke-dasharray:none;stroke-opacity:1;paint-order:stroke fill markers"
       d="m 114.69584,52.40197 c -10.11139,1.227228 -17.694885,5.645289 -25.93485,11.305251 5.496105,3.16975 12.048,4.65 18.3348,6.55464 3.75906,-1.67372 7.68064,-3.0844 10.38644,-6.45955 0.40289,-4.780865 -1.77987,-16.787981 -2.78639,-11.400341 z m -7.65018,2.930571 c 1.36215,0.05416 2.72443,0.53807 4.08657,1.14877 2.33004,1.24496 3.51988,3.77279 3.94085,7.16545 -3.06117,2.5038 -8.71298,5.57164 -15.405262,-0.98547 0.676492,-2.74449 1.231052,-5.54477 4.925802,-6.89622 0.81728,-0.342719 1.63475,-0.465026 2.45204,-0.43253 z"
       sodipodi:nodetypes="cccccsccccs" /><path
       id="path38"
       style="display:inline;opacity:1;fill:#000000;fill-opacity:1;stroke:#000000;stroke-width:0.2;stroke-linecap:round;stroke-dasharray:none;stroke-opacity:1;paint-order:stroke fill markers"
       d="m 124.1516,49.367014 c 1.32948,4.701623 2.4593,10.100337 2.83342,15.399057 2.81499,1.67248 5.78346,3.08946 8.95656,4.16512 6.0283,-3.62157 7.37641,-6.10463 9.13587,-8.68784 -5.39051,-6.934543 -12.89643,-8.199417 -19.88889,-10.287961 -0.0692,-0.02067 0.0212,0.01835 0.0101,-0.113632 -0.0167,-0.198257 -0.14422,-0.513268 -0.39668,-0.578065 -0.22827,-0.05859 -0.69632,0.05895 -0.65033,0.103321 z m 8.07651,4.503084 c 1.65895,-0.01 3.38851,0.970961 4.5992,3.538803 0.57539,1.27322 0.73651,2.54618 0.63717,3.8194 -2.22865,4.7193 -6.37461,3.58539 -10.12083,3.67213 -0.43699,-2.42479 -1.09737,-4.83828 0.0894,-7.34425 0.64616,-2.022635 2.66212,-3.673283 4.79506,-3.686083 z"
       sodipodi:nodetypes="ccccssscccccccc" /><path
       id="path44"
       style="display:inline;opacity:1;fill:#000000;fill-opacity:1;stroke:#000000;stroke-width:0.2;stroke-linecap:round;stroke-dasharray:none;stroke-opacity:1;paint-order:stroke fill markers"
       d="m 76.980831,39.150582 c -3.21514,9.804309 2.875761,14.291008 8.598441,18.987988 l 7.702373,-9.673311 c -4.55398,-4.30392 -10.681544,-6.904608 -16.300814,-9.314677 z m 3.921724,6.573759 c 3.227196,0.92603 6.723777,1.50361 10.300664,1.264005 l 1.791105,1.533757 -4.114995,5.252909 c -1.439934,-0.25324 -3.044219,-0.203577 -4.259688,-1.691369 l 2.104781,-0.447518 c -1.597444,-0.351623 -2.865334,-1.127503 -3.627685,-2.552816 l 2.015381,0.358118 C 83.3361,48.854873 82.247583,47.065128 80.902555,45.724341 Z" /><path
       id="path43-8"
       style="display:inline;fill:none;fill-opacity:1;stroke:#000000;stroke-width:0.2;stroke-linecap:round;stroke-dasharray:none;stroke-opacity:1;paint-order:stroke fill markers"
       d="m 111.86256,28.281456 c 0.72093,2.071346 1.65236,4.130373 1.90818,6.343672 -0.004,0.43386 -0.95468,-0.38816 -1.3273,-0.443394 -3.11274,-1.472164 -6.63584,-2.385986 -9.95588,-2.790903 0.36945,0.614086 1.0556,1.050316 1.60901,1.481862 2.024,1.148724 3.79935,2.349329 5.67306,3.74213 -3.64762,-0.05829 -6.65087,-0.407706 -10.175578,0.577114 0.185082,0.458004 0.443718,0.541434 0.836948,0.609852 1.44431,0.184704 2.15994,0.567087 3.64614,0.774459 -2.88578,1.191289 -4.843714,1.857765 -7.726297,3.05677 -6.408985,-2.297574 -12.832275,-4.859758 -19.58789,-5.753906 -0.498036,0.04858 -1.200461,-0.417184 -1.50586,0.15625 -0.647779,0.970415 -1.011008,2.105423 -1.43631,3.18386 -1.202817,3.768392 -1.132542,8.330147 1.000215,11.687168 2.064121,3.511593 5.223067,6.264864 8.318777,8.852019 -1.762894,1.933936 -2.452393,3.91192 -3.611197,6.232031 -2.987713,1.400043 -4.664765,4.461028 -5.886719,7.375 -0.601142,0.51683 0.342623,0.442348 0.695598,0.546164 1.110948,0.200232 2.217762,0.422167 3.325886,0.63743 -0.586172,0.875058 -1.287417,2.078764 -1.872789,2.954358 1.707074,0.204062 3.413778,0.504803 5.121094,0.706826 -0.283838,0.86524 -0.520938,1.613538 -0.804791,2.478773 1.070308,0.171251 1.97705,0.388425 3.047235,0.560444 -4.558102,4.52784 -10.278093,7.046482 -14.57199,11.865848 -3.309304,3.717837 -5.229832,8.444707 -6.057803,13.300737 -0.09507,0.57821 -0.755213,0.71091 -1.22042,0.50612 -8.546728,-0.71048 -17.192074,-0.7347 -25.619051,1.10932 -5.960725,1.2687 -11.787135,3.69792 -16.84961,7.14453 -0.842466,0.57946 -1.931555,1.29182 -2.735762,1.92357 4.60585,5.6576 11.590008,9.26016 18.676175,10.59164 8.070528,1.69403 16.331289,1.82054 24.720726,0.85763 4.559043,-0.19135 9.24678,-1.22632 13.877872,-1.38153 0.285211,1.08069 1.385325,1.01144 2.300119,1.13236 2.763857,0.51118 5.756237,0.87675 8.280011,2.20379 0.911274,-0.0314 1.892213,-0.41249 2.490028,-1.10552 1.182513,0.3996 2.978415,1.36143 4.395199,0.2425 0.331785,-0.30996 0.688978,-0.27615 1.308029,-0.33774 -0.229993,0.80325 -0.473512,1.78192 -0.570209,2.61292 1.565228,1.15514 4.100428,1.33913 5.51887,-0.12344 0.473963,-0.39819 0.972899,-0.23309 1.263817,0.24794 1.171269,0.91027 3.082147,0.51539 4.118467,-0.4093 0.46358,-0.44559 0.95654,-0.36584 1.50895,-0.1235 0.90867,0.14075 1.80502,-0.28911 2.37556,-0.93098 0.82428,0.23698 1.73874,-0.60266 1.25353,-2.16755 -0.24842,-1.63527 -1.81249,-2.55216 -2.94349,-3.56873 1.15358,0.42454 2.323,-0.13084 2.69984,-1.5665 0.24427,-0.16494 0.61124,0.34681 0.95851,0.38039 1.00185,0.34969 2.55067,0.21503 3.17706,-0.77548 0.71632,0.0608 1.67138,-0.51931 1.48675,-1.62772 0.1005,-1.32901 -1.24684,-1.99848 -2.21865,-2.55522 -1.24372,-0.64096 -2.46905,-0.702 -3.79935,-1.11249 1.97261,-0.87355 3.75743,-2.26097 4.8868,-4.11004 0.65483,-0.0574 0.56703,0.60165 0.72616,1.06194 0.88305,2.52176 1.71314,5.06422 2.57506,7.59419 -0.36791,1.45164 -1.65419,2.8462 -1.03711,4.40625 0.65919,1.53124 1.78238,1.83678 2.80508,2.01055 0.7485,-0.11011 1.55457,-0.53253 2.33786,-0.30171 1.09335,0.10123 2.71204,0.0214 3.52959,-0.8522 0.57326,-0.26993 0.84328,0.34438 1.37445,-0.0808 0.55847,-0.0789 0.97483,-0.81599 1.65551,-1.13843 0.48441,-0.22948 1.11285,-0.73594 1.40895,-1.17678 0.15386,-1.05742 0.01,-2.56354 -1.08147,-3.1907 -1.30842,-0.87702 -2.94542,-1.02818 -4.46167,-1.28001 -0.65071,-0.0591 -1.10621,-0.0677 -1.75853,-0.10125 2.07901,-6.84922 5.24162,-13.4731 8.53123,-19.81651 2.24614,-4.64007 3.62215,-9.63209 2.71435,-14.77184 -0.17302,-0.60499 0.21332,-0.763169 1.02772,-0.68272 5.74672,-1.055589 10.60599,-4.076597 15.32752,-7.464351 -0.31952,0.704117 -0.13975,2.494469 -0.24577,3.574868 1.77149,-2.349791 3.54043,-4.611082 5.42948,-6.86323 1.08596,-1.668569 1.63955,-3.923178 1.00351,-5.912882 -0.32088,-1.448227 -0.92662,-2.51404 -1.59393,-3.832091 1.37497,0.133159 2.75,0.199441 4.125,0.332291 -2.38278,-2.071035 -4.85685,-4.278539 -7.13086,-6.465885 -1.73363,-2.418781 -3.15862,-4.273727 -5.19459,-6.287726 6.60479,-4.328517 5.32489,-13.134497 4.03397,-19.798314 -6.23156,0.765484 -12.22796,3.300107 -17.77102,6.150494 -2.104,-0.854871 -3.85675,-1.259952 -6.02432,-1.933954 0.85119,-1.175242 3.56749,-2.724362 3.32083,-2.687963 -2.05947,-0.14182 -4.65418,0.188925 -6.51428,0.994963 0.56254,-1.793543 1.48038,-3.114061 2.17238,-4.80515 -0.77211,0.318577 -1.67161,0.67245 -2.38764,1.123423 -0.82187,0.577241 -1.51702,1.308667 -2.14705,2.086024 -0.47947,-1.243454 -0.68315,-2.679317 -1.54687,-3.71875 -0.4911,0.704646 0.40666,1.88951 -0.50196,2.388672 -0.71254,0.281479 -1.00113,-0.663361 -1.46389,-1.026471 -0.91147,-1.084244 -2.02358,-2.007975 -3.23923,-2.725482 z"
       sodipodi:nodetypes="cccccccccccccccccccccccccccccccccccccccccccccccccccccccccccscccccccccccccccccccccccccccc" /><path
       style="display:inline;fill:#000000;fill-opacity:1;stroke:#000000;stroke-width:0.499999;stroke-linecap:round;stroke-opacity:1;paint-order:stroke fill markers"
       d="m 19.308454,118.38794 c 5.02628,-3.52812 10.68175,-6.43256 16.71979,-7.5999 0,0 -4.93993,3.03996 -4.43327,3.16662 0.50666,0.12667 3.16663,1.26665 3.16663,1.26665 l -4.05329,2.02664 2.65997,2.40664 -3.67329,1.13999 2.5333,2.78663 -2.78663,-0.25333 2.40664,2.40664 c -4.64768,-1.04567 -8.90427,-3.26459 -12.53985,-7.34658 z"
       id="path3-5-2-3"
       sodipodi:nodetypes="ccscccccccc" /><path
       style="display:inline;fill:#000000;fill-opacity:1;stroke:#000000;stroke-width:0.499999;stroke-linecap:round;stroke-opacity:1;paint-order:stroke fill markers"
       d="m 51.010861,108.97105 9.24655,0.25333 -3.67329,1.01332 1.51998,1.26665 -4.05328,1.51999 2.02664,1.51998 -3.41996,0.75999 1.51998,1.64664 -3.29329,1.64665 1.64665,1.39332 -2.9133,2.02664 1.64665,1.26665 -1.77332,1.77331 2.27998,2.02664 -2.15331,0.25333 1.89997,1.51998 -9.75321,-1.01332 c 0,0 2.78663,-1.39331 1.64665,-1.77331 -1.13999,-0.38 -3.41996,-1.51998 -3.41996,-1.51998 l 2.53331,-1.51998 -2.9133,-1.64665 4.55994,-0.37999 -4.05328,-2.02664 5.57326,-4.05329 -0.63332,-1.39331 c 0,0 4.30661,-0.63333 3.54662,-1.01333 -0.75999,-0.37999 -0.88666,-1.39331 -0.88666,-1.39331 z"
       id="path4-4-2-1" /><path
       style="display:inline;fill:#000000;fill-opacity:1;stroke:#000000;stroke-width:0.499999;stroke-linecap:round;stroke-opacity:1;paint-order:stroke fill markers"
       d="m -69.83135,174.14715 -2.02664,2.1533 0.12666,0.63333 -2.65997,2.27997 2.15331,0.12667 -3.03996,2.27997 2.65997,0.37999 -3.16663,2.27997 1.89998,0.12667 -1.77332,2.02664 2.40664,0.12666 -2.5333,1.77332 7.21991,-0.75999 -1.39332,-2.15331 2.15331,-0.75999 -2.78663,-2.65997 c 0,0 2.27997,-0.37999 1.64664,-1.01332 -0.63332,-0.63332 -1.51998,-2.1533 -1.51998,-2.1533 l 2.02664,-0.63333 z"
       id="path5-1-8-9"
       transform="translate(132.85097,-60.024341)" /><path
       d="m 121.42334,69.682085 c 2.74567,-1.07302 7.65946,-0.910402 9.81654,0.095 1.76687,0.93077 3.08729,2.295229 1.67831,4.326949 -0.86554,1.28579 -1.52109,1.80785 -2.59663,2.196301 -2.1274,0.72832 -4.16003,0.41425 -6.20659,0.25333 -2.09438,-0.15392 -3.20902,-1.28759 -4.14828,-2.59663 -1.08364,-1.93266 -0.32533,-3.2694 1.45665,-4.27495 z"
       style="display:inline;fill:#000000;fill-opacity:1;stroke:#000000;stroke-width:0.4;stroke-linecap:round;stroke-dasharray:none;stroke-opacity:1;paint-order:stroke fill markers"
       id="path1-9"
       sodipodi:nodetypes="ccccccc" /><path
       id="path45"
       style="display:inline;opacity:1;fill:#000000;fill-opacity:1;stroke:#000000;stroke-width:0.2;stroke-linecap:round;stroke-dasharray:none;stroke-opacity:1;paint-order:stroke fill markers"
       d="m 147.44165,34.790125 c -3.87664,2.830238 -7.34356,6.58204 -10.75852,10.451041 l 6.41098,7.069853 c 4.10454,-3.076567 5.97447,-8.478925 4.34754,-17.520894 z m -2.7187,7.424869 c -0.84584,0.486248 -1.66523,0.9872 -1.93167,1.804541 0.98664,-0.449262 1.85217,-0.625584 2.50166,-0.316259 -1.96573,0.850058 -2.87929,2.313497 -3.86333,3.736206 0.94565,-0.210493 1.88051,-0.365037 2.6603,0.253731 -1.16583,0.374265 -1.78318,0.848889 -2.27996,1.393197 0.76595,-0.04662 1.36579,0.205716 1.70997,0.91829 -0.73208,-0.227096 -1.46535,-0.445754 -2.27996,-0.09508 l -4.24367,-4.686536 0.76016,-1.044897 c 2.58413,-1.387862 4.79849,-1.740463 6.9665,-1.963188 z" /><path
       d="m 98.353536,124.08996 c -2.201832,-5.46803 3.673514,-17.79016 4.749584,-21.76405 0.23251,-1.02006 0.7231,-2.09444 0.28525,-2.993101 -0.86309,-1.5609 -0.014,-3.807987 -0.23099,-4.287077 -0.10931,-0.24136 -1.9043,1.22942 -2.79311,1.577157 0.10862,-0.814167 0.61098,-4.225957 0.88728,-5.007957 -1.10613,-0.0779 -2.212026,-0.15599 -3.318146,-0.23409 0.40295,-0.57295 0.80499,-1.14636 1.20871,-1.71876 -1.29948,-0.0807 -2.59899,-0.16164 -3.89847,-0.24236 0.4751,-0.54311 0.94971,-1.08656 1.42575,-1.62884 -1.34314,0.0217 -2.08459,-0.0162 -3.42769,0.009 0.22567,-0.41467 0.22148,-0.5038 0.47128,-1.24799 -0.50779,4e-4 -2.45301,0.47612 -2.96054,0.45682 0.14277,-0.47408 1.61521,-2.86808 2.01487,-3.61632 l 0.92966,0.28836 -1.53221,2.32595 3.04012,-0.37982 -0.56999,1.3932 3.54656,-0.0636 -1.33015,1.52032 4.053496,0.25321 -1.203546,1.70998 3.610126,0.25321 -1.33016,3.80029 2.27997,-1.96371 0.12712,4.496877 1.07642,2.65979 c 0.6761,5.293381 -7.910424,17.836671 -5.16092,24.422811"
       style="display:inline;fill:#000000;fill-opacity:1;stroke:#000000;stroke-width:0.1;stroke-linecap:round;stroke-dasharray:none;stroke-opacity:1;paint-order:stroke fill markers"
       id="path1-98"
       sodipodi:nodetypes="cccscccccccccccccccccccccccc" /><path
       d="m 124.9419,122.57361 c 0.56429,0.44006 1.06522,0.90977 1.15807,1.57096 0.18978,0.67615 -0.22279,0.18531 -0.40411,0.19431 -0.48866,-0.32438 -0.8271,-0.74278 -1.1374,-1.4795 z m -3.13263,0.16175 c 0.0151,-1.7e-4 0.0309,0.002 0.047,0.007 1.44573,0.47188 3.11572,0.69413 3.03702,2.93677 -0.0533,-1.9421 -1.72358,-2.16465 -3.16931,-2.63653 -0.14979,-0.0952 -0.061,-0.30531 0.0853,-0.30696 z m -2.64893,0.5333 c 0.0238,-1.2e-4 0.0448,0.005 0.0584,0.015 1.53207,0.70205 3.14725,1.31917 3.27577,3.20963 -0.27556,-1.82508 -1.90055,-2.24733 -3.44268,-2.9869 -0.15229,-0.14376 0.005,-0.23722 0.10852,-0.23771 z m -2.04535,0.52555 c 0.0342,-0.001 0.0691,0.009 0.0925,0.0284 1.00112,0.94947 1.75876,2.39526 0.85731,3.92534 1.19559,-2.22324 -1.56959,-3.92889 -0.94983,-3.95376 z m 5.56761,0.41806 c 0.56429,0.44006 1.06522,0.90977 1.15807,1.57096 0.18978,0.67615 -0.22279,0.18531 -0.40411,0.19431 -0.48866,-0.32438 -0.82709,-0.74278 -1.13739,-1.4795 z m -6.48745,0.34003 c 0.35725,0.6864 0.63885,1.37348 0.43304,2.06551 -0.11719,0.75068 -0.30203,0.0834 -0.4842,0.0103 -0.33484,-0.53864 -0.48012,-1.10225 -0.45424,-1.96629 z m 3.6251,0.16743 c 0.52179,0.57141 0.97068,1.16296 0.94981,1.88464 0.0799,0.75557 -0.27076,0.15816 -0.46561,0.13436 -0.46213,-0.43438 -0.74687,-0.94173 -0.94412,-1.78335 z"
       style="display:inline;fill:#000000;fill-opacity:1;stroke:#000000;stroke-width:0.1;stroke-linecap:round;stroke-dasharray:none;stroke-opacity:1;paint-order:stroke fill markers"
       id="path1-2" /><path
       d="m 64.020943,108.68472 c 0.44299,0.61681 0.48758,1.36972 0.61753,2.09341 0.0114,1.02901 0.47982,-0.27698 0.74983,-0.57206 0.41704,2.26933 0.83036,4.5398 1.24592,6.80941 -0.0986,0.79857 0.82527,0.43519 1.3224,0.55397 0.5087,1.36584 1.02033,2.73095 1.53014,4.09639 0.0484,0.84202 0.9462,0.22633 1.46399,0.26303 0.64068,0.17747 1.21002,0.71235 1.82418,1.02216 1.19385,0.94886 2.85024,0.94274 4.03541,1.88981 -1.04511,0.27007 -2.10516,-0.0532 -3.15846,-0.11059 -0.8844,-0.36531 -1.63678,-1.0844 -2.47014,-1.58647 -0.71316,-0.0697 -1.50173,0.16588 -2.24275,0.21498 -0.5059,-1.44716 -1.01587,-2.8932 -1.52343,-4.33979 -0.10637,-0.71614 -1.05594,-0.24219 -1.57406,-0.37724 -0.31471,-1.96415 -0.62911,-3.92847 -0.94361,-5.89266 -0.37604,0.47156 -0.75205,0.94323 -1.12861,1.41438 v -4.7072 c 0.084,-0.25716 0.16766,-0.51437 0.25166,-0.77153 z"
       style="display:inline;fill:#000000;fill-opacity:1;stroke:#000000;stroke-width:0.1;stroke-linecap:round;stroke-dasharray:none;stroke-opacity:1;paint-order:stroke fill markers"
       id="path1-3" /><path
       d="m 134.83321,75.085966 c -0.16286,2.018486 -0.88313,3.532175 -3.18163,4.677161 -2.7165,0.754668 -5.47837,1.396767 -8.29273,1.085945 -4.10303,-0.337107 -7.86882,-2.848682 -10.14459,-6.362447 l -5.07853,2.36202 c -0.64087,0.243921 -1.51351,0.957452 -2.14335,0.342148 -0.10887,-0.404619 0.43207,-0.659642 0.88443,-0.932398 l 6.61135,-3.150213 c 3.52429,5.539337 9.62324,8.528812 17.96278,5.763865 1.82756,-0.781853 2.10667,-1.840154 2.57527,-3.202603 0.0826,-0.24014 0.14361,-0.489838 0.19757,-0.736815 0.0345,-0.158067 0.0536,-0.361408 0.11078,-0.710673 0.15639,-0.955016 0.77027,-2.081407 0.49865,0.86401 z m -18.64494,4.027522 c 5.01049,4.534647 9.97715,7.014167 14.79982,1.098306 -5.44069,7.21499 -11.13305,4.37319 -16.87545,-0.82386 z"
       style="display:inline;fill:#000000;fill-opacity:1;stroke:#000000;stroke-width:0.0981752;stroke-linecap:round;stroke-dasharray:none;stroke-opacity:1;paint-order:stroke fill markers"
       id="path1-6-4-2"
       sodipodi:nodetypes="cccccccccsssccccc" /><path
       d="m 85.575142,125.2606 c 3.127091,0.0964 4.462461,0.88397 4.791441,2.95589 -0.79966,-1.9004 -2.672331,-2.64084 -4.791441,-2.95589 z m 4.996601,0.30827 c 0.53023,0.56357 0.98836,1.14877 0.97823,1.87068 0.0911,0.75432 -0.26885,0.16178 -0.46405,0.14108 -0.46855,-0.42745 -0.76073,-0.93029 -0.97049,-1.76888 z m -2.682011,1.15806 c 0.632941,0.44515 1.199231,0.92591 1.334801,1.63505 0.24125,0.72048 -0.22992,0.21251 -0.42529,0.23151 -0.54508,-0.32426 -0.933481,-0.75774 -1.307931,-1.53686 z m -4.39973,0.48576 c 0.72026,0.28281 1.38417,0.61584 1.68362,1.27279 0.40481,0.64298 -0.17331,0.26138 -0.35864,0.32608 -0.6063,-0.18613 -1.08589,-0.51598 -1.63401,-1.18442 z m 2.92026,1.7483 c 0.31367,-2.14403 -2.12117,-3.17417 -5.3239,-3.04697 0.37986,-0.0567 0.74889,-0.089 1.10329,-0.0977 2.48079,-0.0607 4.70752,1.01028 4.47207,2.86545 z"
       style="display:inline;fill:#000000;fill-opacity:1;stroke:#000000;stroke-width:0.1;stroke-linecap:round;stroke-dasharray:none;stroke-opacity:1;paint-order:stroke fill markers"
       id="path1-1"
       sodipodi:nodetypes="ccccccccccccccccccccccc" /><path
       d="m 99.486462,126.47344 c 0.004,7e-5 0.008,2.2e-4 0.0124,0 0.0166,-9.2e-4 0.0347,-10e-4 0.0548,0 1.399948,0.68313 2.651098,1.69022 3.316588,4.14135 -0.0266,0.14143 -0.0739,0.2095 -0.16123,0.13849 -1.10973,-2.14705 -1.83641,-3.61087 -3.222538,-4.27984 z m -1.27744,0.1633 c 0.008,0.0152 0.0154,0.0321 0.0222,0.0501 -0.45674,1.12171 -1.28675,2.18384 -0.53434,3.9703 l -0.25528,-0.0765 c -1.07916,-2.02941 0.15966,-2.92986 0.7674,-3.94395 z m 7.651728,0.70538 c 0.41535,0.39414 0.77821,0.80726 0.80098,1.34101 0.0989,0.55346 -0.1913,0.13102 -0.33641,0.12402 -0.36407,-0.29618 -0.60157,-0.65584 -0.79168,-1.26659 z m -2.51613,0.84543 c 0.60836,0.47819 1.14826,0.98791 1.24592,1.70325 0.20259,0.73229 -0.24109,0.19978 -0.43718,0.20878 -0.52707,-0.35279 -0.89173,-0.80663 -1.22422,-1.60456 z m -3.923268,0.84439 c 0.639358,0.43587 1.212668,0.90832 1.358568,1.61541 0.25173,0.71689 -0.22713,0.21591 -0.4222,0.23771 -0.549748,-0.31627 -0.943848,-0.74417 -1.329628,-1.51774 z m -5.0736,0.27906 0.5147,0.0444 c 0.1395,0.76112 0.20702,1.50083 -0.19327,2.10168 -0.33286,0.68301 -0.31345,-0.01 -0.46612,-0.13333 -0.16156,-0.61331 -0.13424,-1.1946 0.14469,-2.01279 z"
       style="display:inline;fill:#000000;fill-opacity:1;stroke:#000000;stroke-width:0.1;stroke-linecap:round;stroke-dasharray:none;stroke-opacity:1;paint-order:stroke fill markers"
       id="path1-15"
       sodipodi:nodetypes="sccccsssccccscccccccccccccccccccsc" /><path
       d="m 101.24357,125.53603 c 2.5e-4,1.3e-4 10e-4,8.8e-4 0.002,0.001 0.001,0.001 0.003,0.003 0.005,0.004 2.02983,0.79722 4.00723,2.44693 4.62039,3.7207 0.0797,0.16566 0.12854,0.54773 0.15916,0.72916 -1.30974,-1.60688 -3.01815,-3.19473 -5.01571,-4.41472 0.14696,0.0625 0.18898,0.007 0.22996,-0.0398 z"
       style="display:inline;fill:#000000;fill-opacity:1;stroke:#000000;stroke-width:0.1;stroke-linecap:round;stroke-dasharray:none;stroke-opacity:1;paint-order:stroke fill markers"
       id="path1-49"
       sodipodi:nodetypes="cccscccc" /><path
       d="m 107.19383,122.83643 c 0.0161,0.008 0.032,0.0162 0.0481,0.0243 -1.55595,-1.86575 -3.97223,-3.53491 -6.85798,-2.87941 2.89485,-0.70996 6.30308,0.73289 6.8616,2.88096 h -5.2e-4 -5.2e-4 -5.1e-4 l 0.003,0.004 m -6.41405,-4.44963 c 5.63076,-0.20383 11.38405,1.82167 10.50582,4.10104 0.79719,-2.10947 -4.9912,-4.03488 -10.50582,-4.10104 z m 10.85256,2.19677 c 0.24921,0.23803 0.46691,0.48743 0.47956,0.80873 0.0584,0.33329 -0.11579,0.0786 -0.20309,0.0739 -0.21853,-0.17896 -0.36013,-0.39583 -0.47335,-0.76378 z m -3.0489,0.0563 c 0.6497,0.42032 1.23441,0.87845 1.39733,1.58182 0.26895,0.71061 -0.22204,0.22206 -0.41652,0.24856 -0.55722,-0.3029 -0.96147,-0.72167 -1.3658,-1.4857 z m -4.76044,1.0201 c 0.72638,0.26672 1.39701,0.58493 1.71101,1.23506 0.41902,0.63382 -0.16703,0.26513 -0.35088,0.33383 -0.6103,-0.17259 -1.09752,-0.49165 -1.66037,-1.14773 z"
       style="display:inline;fill:#000000;fill-opacity:1;stroke:#000000;stroke-width:0.1;stroke-linecap:round;stroke-dasharray:none;stroke-opacity:1;paint-order:stroke fill markers"
       id="path1-44"
       sodipodi:nodetypes="cccccccccccccccccccccccccc" /><path
       d="m 96.610759,124.27809 0.009,0.016 c 0.0101,-0.003 0.0206,-0.005 0.0305,-0.008 m -6.09991,-10.55739 0.22789,0.44339 -3.278354,4.8798 -0.175183,-2.16317 -6.403743,6.61251 c 3.141042,-0.61085 7.91629,-1.54468 9.45782,0.33073 -2.02293,-1.51736 -7.327052,-0.38502 -10.468094,0.22583 l 7.72666,-8.23309 0.126607,2.15336 z m 6.0598,10.54882 0.0491,0.003 c -0.002,0.002 -0.005,0.003 -0.007,0.005"
       style="display:inline;fill:#000000;fill-opacity:1;stroke:#000000;stroke-width:0.1;stroke-linecap:round;stroke-dasharray:none;stroke-opacity:1;paint-order:stroke fill markers"
       id="path1-63"
       sodipodi:nodetypes="ccccccccccscccsc" /><path
       style="fill:#000000;fill-opacity:1;stroke:#000000;stroke-width:0.192;stroke-linecap:round;stroke-dasharray:none;paint-order:stroke fill markers"
       d="m 86.394726,105.79717 10.194726,18.59525 1.537891,-0.13229 -11.377084,-21.97696 -0.854693,1.67447 -1.822862,-5.704481 -1.22163,0.73174 1.349271,-4.035423 -1.393196,-0.12712 3.546553,-7.09311 c 0,0 -1.773304,0.12661 -2.279964,0.12661 -0.50667,0 3.848344,-6.81302 3.848344,-6.81302 l -0.711068,-0.46612 -2.91e-4,6.2e-4 c 0,0 -5.653634,8.77466 -5.146973,8.77466 0.506661,0 2.279965,-0.12712 2.279965,-0.12712 l -3.546554,7.09362 1.393197,0.12661 -1.646928,5.192974 2.279964,-1.3932 2.533695,8.99325 0.703623,-3.13017 z"
       id="path12"
       sodipodi:nodetypes="ccccccccccccccccccccccc" /><path
       d="m 110.92462,46.357156 c 0.63811,0.01532 1.25825,0.0851 1.85983,0.206189 0.61332,0.731145 1.25789,1.243382 1.70998,3.103169 0.0236,1.377161 -0.48363,1.693222 -0.95033,2.089795 l -6.1013,1.183715 c -4.15663,1.093015 -8.206501,2.786553 -10.555658,4.303766 l -4.622883,3.15747 -14.186214,8.898165 c -0.869763,0.17986 -1.90133,0.537939 -1.139982,-1.076421 l 2.812231,-1.869653 1.430921,-1.740462 c 2.841219,-0.44815 6.234623,-2.368655 9.56324,-4.116545 l 4.306714,-5.509741 c 6.057281,-6.182971 11.406691,-8.736659 15.873451,-8.629447 z"
       style="display:inline;fill:#000000;fill-opacity:1;stroke:#000000;stroke-width:0.1;stroke-linecap:round;stroke-dasharray:none;stroke-opacity:1;paint-order:stroke fill markers"
       id="path1-12"
       sodipodi:nodetypes="sccccccccccccs" /><path
       d="m 84.396116,73.134758 -0.357084,4.157369 2.873209,0.86403 c 4.52353,3.89185 11.883028,4.748335 18.113099,6.713285 8.2075,1.92638 16.04658,1.134122 24.71219,-0.749308 -8.16618,3.32968 -17.177,4.090072 -25.3845,2.163692 -6.230072,-1.96495 -13.589569,-2.821435 -18.113099,-6.713285 l -2.87321,-0.863514 0.357084,-4.157885 -2.93057,1.22163 c -2.020259,1.1579 -1.207571,0.519224 -2.450496,0.654224 1.028489,-0.78959 1.102547,-0.911224 3.122806,-2.069124 z"
       style="display:inline;fill:#000000;fill-opacity:1;stroke:#000000;stroke-width:0.1;stroke-linecap:round;stroke-dasharray:none;stroke-opacity:1;paint-order:stroke fill markers"
       id="path1-7" /><path
       d="m 150.00317,68.314794 0.15709,0.317294 -15.52722,2.77089 -0.18913,-0.30179 z m 2.0562,3.17035 0.10077,0.323494 -17.18086,0.195337 -0.13798,-0.313676 z m -17.21032,0.948262 11.66286,2.366264 0.0217,0.266134 -11.63598,-2.368848 z"
       style="display:inline;fill:#000000;fill-opacity:1;stroke:#000000;stroke-width:0.1;stroke-linecap:round;stroke-dasharray:none;stroke-opacity:1;paint-order:stroke fill markers"
       id="path1-37"
       sodipodi:nodetypes="ccccccccccccccc" /><path
       style="fill:#ffff76;fill-opacity:1;stroke:#000000;stroke-width:0.192;stroke-linecap:round;stroke-dasharray:none;paint-order:stroke fill markers"
       d="m 201.64121,60.857762 0.378,0.923996 6.84598,-2.855989 c 7.16334,7.969059 10.01642,6.098209 12.38995,6.509975 3.63249,-0.71313 7.92776,-1.337889 8.35797,-2.47799 1.80192,-2.02954 1.3828,-3.265846 1.76399,-4.787982 l -0.63,-0.126 c 0.11008,2.521508 -3.28267,5.401997 -4.15798,5.417979 -4.41974,1.184266 -9.27679,0.570818 -11.12996,-0.503997 l -6.46797,-5.585978 z"
       id="path13"
       sodipodi:nodetypes="ccccccccccc" /></g><g
     inkscape:label="Dwgs.User"
     inkscape:groupmode="layer"
     id="g10" /><g
     inkscape:label="Drill"
     inkscape:groupmode="layer"
     id="g11" /></svg>
