<?xml version="1.0" encoding="UTF-8" standalone="no"?>
<!-- Created with Inkscape (http://www.inkscape.org/) -->

<svg
   width="170.0mm"
   height="170.0mm"
   viewBox="0 0 170.0 170.0"
   version="1.1"
   id="svg1"
   xml:space="preserve"
   inkscape:version="1.4.2 (f4327f4, 2025-05-13)"
   sodipodi:docname="Rocket.svg"
   xmlns:inkscape="http://www.inkscape.org/namespaces/inkscape"
   xmlns:sodipodi="http://sodipodi.sourceforge.net/DTD/sodipodi-0.dtd"
   xmlns="http://www.w3.org/2000/svg"
   xmlns:svg="http://www.w3.org/2000/svg"><sodipodi:namedview
     id="namedview1"
     pagecolor="#ffffff"
     bordercolor="#666666"
     borderopacity="1.0"
     inkscape:showpageshadow="2"
     inkscape:pageopacity="0.0"
     inkscape:pagecheckerboard="0"
     inkscape:deskcolor="#d1d1d1"
     inkscape:document-units="mm"
     inkscape:zoom="0.52249845"
     inkscape:cx="203.82836"
     inkscape:cy="531.10206"
     inkscape:window-width="1920"
     inkscape:window-height="1009"
     inkscape:window-x="-8"
     inkscape:window-y="-8"
     inkscape:window-maximized="1"
     inkscape:current-layer="g9"
     borderlayer="true"
     showgrid="false"><inkscape:grid
       spacingx="2.54"
       spacingy="2.54"
       empspacing="1"
       type="xygrid"
       units="mm"
       id="grid2"
       visible="false"
       originx="0"
       originy="0" /><inkscape:grid
       spacingx="2.54"
       spacingy="2.54"
       empspacing="1"
       type="xygrid"
       units="mm"
       id="grid11"
       visible="false"
       originx="0"
       originy="0" /></sodipodi:namedview><defs
     id="defs1" /><g
     inkscape:label="Ebene 1"
     inkscape:groupmode="layer"
     id="layer1"
     style="display:inline" /><g
     inkscape:groupmode="layer"
     id="layer2"
     inkscape:label="cut" /><g
     inkscape:groupmode="layer"
     id="layer3"
     inkscape:label="silk" /><g
     inkscape:label="[fixed] BG"
     inkscape:groupmode="layer"
     sodipodi:insensitive="true"
     id="g2"><rect
       x="0"
       y="0"
       width="130.0"
       height="139.0"
       style="fill:#FFFFFF;fill-opacity:1;stroke:none"
       id="rect2" /></g><g
     inkscape:label="Edge.Cuts"
     inkscape:groupmode="layer"
     id="g3"
     style="display:inline;fill:#ff1a1a;fill-opacity:1"><path
       id="path43-6"
       style="display:inline;fill:#ff1a1a;fill-opacity:1;stroke:#000000;stroke-width:0.2;stroke-linecap:round;stroke-dasharray:none;stroke-opacity:1;paint-order:stroke fill markers"
       d="M 111.40612 28.703674 L 111.30897 28.719177 L 111.2268 28.762585 L 111.16221 28.838033 L 111.11622 28.948621 L 110.93793 29.332576 L 110.81597 29.722734 L 110.74414 30.118058 L 110.71676 30.517 L 110.72916 30.918526 L 110.77515 31.321602 L 110.84801 31.724162 L 110.94413 32.125688 L 111.17874 32.919954 L 111.43403 33.693034 L 111.66502 34.435107 L 111.757 34.791158 L 111.82625 35.13584 L 110.524 34.571016 L 109.18713 34.039783 L 108.50707 33.793803 L 107.82081 33.563843 L 107.12783 33.35352 L 106.43123 33.164901 L 105.72895 33.001086 L 105.02305 32.864661 L 104.31508 32.75769 L 103.60401 32.683793 L 102.89191 32.645036 L 102.17878 32.644002 L 101.46512 32.683793 L 100.75302 32.766992 L 100.77421 33.005221 L 100.80883 33.234147 L 100.85689 33.453255 L 100.9189 33.664095 L 101.0791 34.059937 L 101.28426 34.425289 L 101.5292 34.762219 L 101.80826 35.074862 L 102.11676 35.3658 L 102.45111 35.637618 L 102.80509 35.893416 L 103.17303 36.136812 L 103.93216 36.596733 L 104.69025 37.041667 L 105.40494 37.495903 L 104.9321 37.533626 L 104.44117 37.557914 L 103.42314 37.584269 L 102.38083 37.615275 L 101.85993 37.645247 L 101.3442 37.691756 L 100.83622 37.759969 L 100.34116 37.855054 L 99.862122 37.981661 L 99.402718 38.144958 L 98.966569 38.350114 L 98.557808 38.602295 L 98.364539 38.748022 L 98.179537 38.907186 L 98.00332 39.080302 L 97.836405 39.268404 L 97.860693 39.449272 L 97.899967 39.620321 L 98.015206 39.93348 L 98.168685 40.211499 L 98.347485 40.457996 L 98.538688 40.67607 L 98.728857 40.86934 L 99.055452 41.194902 L 99.165523 41.333394 L 99.222884 41.461035 L 99.227535 41.522013 L 99.214099 41.580924 L 99.181026 41.638802 L 99.126766 41.696163 L 98.946932 41.809851 L 98.662195 41.92664 L 98.259635 42.048596 L 97.725818 42.179338 L 97.426611 42.273905 L 97.129472 42.346769 L 96.833883 42.399996 L 96.539844 42.433586 L 96.247355 42.449089 L 95.956417 42.448055 L 95.667029 42.431002 L 95.378158 42.398962 L 94.805066 42.29561 L 94.235075 42.145748 L 93.668184 41.958679 L 93.103878 41.743705 L 91.977848 41.261564 L 90.851302 40.770638 L 90.285962 40.542745 L 89.718038 40.33914 L 89.146497 40.168091 L 88.571338 40.037866 L 86.882552 39.467358 L 85.179814 38.931991 L 83.463123 38.442098 L 82.599609 38.216272 L 81.732996 38.005432 L 80.862764 37.810095 L 79.989433 37.632328 L 79.113 37.471615 L 78.232951 37.330538 L 77.350317 37.209615 L 76.464067 37.110396 L 75.575232 37.033398 L 74.68278 36.980172 L 74.211491 37.592021 L 73.784127 38.22299 L 73.400171 38.871529 L 73.059623 39.535571 L 72.760417 40.214083 L 72.502551 40.905514 L 72.284993 41.607796 L 72.107227 42.320414 L 71.968217 43.0413 L 71.867448 43.768905 L 71.803886 44.501676 L 71.777531 45.238066 L 71.786833 45.977039 L 71.830758 46.716528 L 71.909306 47.455501 L 72.02196 48.192407 L 72.166654 48.925179 L 72.343905 49.652783 L 72.552677 50.373669 L 72.791423 51.086287 L 73.060657 51.789087 L 73.358313 52.480518 L 73.684391 53.159029 L 74.037858 53.823588 L 74.418713 54.472127 L 74.82489 55.103097 L 75.256905 55.715462 L 75.712691 56.307674 L 76.192765 56.877665 L 76.695577 57.424402 L 77.22061 57.946334 L 77.767346 58.441911 L 77.953898 58.70236 L 78.179724 58.957642 L 78.43759 59.207756 L 78.719743 59.453219 L 79.326424 59.936393 L 79.940857 60.41285 L 80.231795 60.650045 L 80.502063 60.88879 L 80.743909 61.129085 L 80.950098 61.371448 L 81.113395 61.617944 L 81.225533 61.867542 L 81.260156 61.994149 L 81.279277 62.122823 L 81.282377 62.252014 L 81.267908 62.383272 L 80.042143 64.389351 L 79.418925 65.394458 L 78.771419 66.391813 L 78.08619 67.375216 L 77.726005 67.859424 L 77.351351 68.337431 L 76.960677 68.80872 L 76.55295 69.272257 L 76.126103 69.72701 L 75.679102 70.172461 L 75.042965 70.940373 L 74.409412 71.726888 L 73.805314 72.535107 L 73.522127 72.948519 L 73.25651 73.368132 L 73.011047 73.794979 L 72.789355 74.229578 L 72.595052 74.671928 L 72.430721 75.122546 L 72.29998 75.58195 L 72.206445 76.050655 L 72.153219 76.528662 L 72.1434 77.017004 L 72.273625 77.187537 L 72.435372 77.320862 L 72.622957 77.421631 L 72.83173 77.495011 L 73.056006 77.545138 L 73.29165 77.577694 L 73.775859 77.6087 L 74.244047 77.626786 L 74.459538 77.643323 L 74.655908 77.671228 L 74.827991 77.715153 L 74.971134 77.780265 L 75.080172 77.871733 L 75.149935 77.993689 L 74.910673 78.180241 L 74.713786 78.397282 L 74.559273 78.637577 L 74.446619 78.895959 L 74.374788 79.164677 L 74.343783 79.438562 L 74.352051 79.710897 L 74.40011 79.974963 L 74.48641 80.224561 L 74.61095 80.453487 L 74.773214 80.655025 L 74.972168 80.82349 L 75.207812 80.951648 L 75.479114 81.033813 L 75.785555 81.063786 L 75.951953 81.056551 L 76.126619 81.03433 L 77.178235 81.0488 L 77.767346 81.08704 L 78.050016 81.125798 L 78.313566 81.182125 L 78.550244 81.259639 L 78.751782 81.362476 L 78.910429 81.4927 L 78.97089 81.569698 L 79.017916 81.654964 L 79.049955 81.749015 L 79.066492 81.852368 L 79.065975 81.96554 L 79.047371 82.088013 L 79.010681 82.221855 L 78.953837 82.366032 L 78.77607 82.689526 L 78.798808 82.986149 L 78.865987 83.248149 L 78.967273 83.479142 L 79.09233 83.683264 L 79.230306 83.864648 L 79.371383 84.027946 L 79.618396 84.313717 L 79.704179 84.444975 L 79.750171 84.574166 L 79.746037 84.704907 L 79.681441 84.841333 L 79.546049 84.988094 L 79.329008 85.148291 L 79.019983 85.327091 L 78.608122 85.528113 L 76.033085 87.41792 L 74.736007 88.386853 L 73.445129 89.378524 L 72.170789 90.396033 L 70.922286 91.444031 L 69.709957 92.527169 L 69.119812 93.083724 L 68.543103 93.650098 L 67.97983 94.22784 L 67.43206 94.816951 L 66.900309 95.417948 L 66.386646 96.031348 L 65.891069 96.658183 L 65.416162 97.298454 L 64.962443 97.953194 L 64.530945 98.622921 L 64.123218 99.307633 L 63.740295 100.00785 L 63.384245 100.72512 L 63.055066 101.45892 L 62.754309 102.20978 L 62.484041 102.97976 L 62.244263 103.76783 L 62.037557 104.57501 L 61.872709 105.21425 L 61.718713 105.90981 L 61.54198 106.60486 L 61.43501 106.93197 L 61.309953 107.23687 L 61.162675 107.51023 L 60.989042 107.74588 L 60.785437 107.93605 L 60.670199 108.01098 L 60.546175 108.07196 L 60.41285 108.11795 L 60.268673 108.14792 L 60.11416 108.16084 L 59.947762 108.15619 L 59.770512 108.13087 L 59.580343 108.08694 L 59.377254 108.02183 L 59.161247 107.93605 L 57.796472 107.83683 L 56.42653 107.75518 L 55.051937 107.69213 L 53.673726 107.64821 L 52.291899 107.62289 L 50.908521 107.61875 L 49.523592 107.63684 L 48.138147 107.67611 L 46.753219 107.73813 L 45.369324 107.82391 L 43.987496 107.93398 L 42.608769 108.06989 L 41.233142 108.23112 L 39.862683 108.41819 L 38.496875 108.6342 L 37.137785 108.87708 L 35.785413 109.14889 L 34.440792 109.4512 L 33.104956 109.78296 L 31.778939 110.14677 L 30.46274 110.54312 L 29.15791 110.971 L 27.864966 111.43299 L 26.585457 111.92909 L 25.318868 112.4598 L 24.066748 113.02721 L 22.830131 113.62976 L 21.609534 114.27106 L 20.40599 114.95009 L 19.220532 115.66788 L 18.053162 116.42493 L 16.905945 117.22282 L 16.575216 117.34581 L 16.269808 117.50497 L 15.991272 117.69721 L 15.742708 117.91683 L 15.526701 118.16281 L 15.3448 118.42895 L 15.199589 118.7111 L 15.093652 119.00617 L 15.029057 119.31003 L 15.008903 119.61802 L 15.034741 119.92601 L 15.109155 120.22987 L 15.234212 120.52701 L 15.413529 120.81175 L 15.647624 121.08201 L 15.940629 121.3311 L 16.747815 122.15223 L 17.580322 122.93513 L 18.437634 123.67979 L 19.317684 124.38776 L 20.220471 125.05903 L 21.143929 125.69517 L 22.088057 126.2972 L 23.051306 126.86409 L 24.032642 127.39894 L 25.03103 127.90124 L 26.045439 128.37201 L 27.074833 128.81178 L 28.11818 129.22312 L 29.174447 129.60398 L 30.242598 129.95693 L 31.321602 130.283 L 32.410425 130.58324 L 33.507515 130.85713 L 34.612874 131.10518 L 35.724951 131.32997 L 36.842196 131.53202 L 37.964091 131.71082 L 39.09012 131.86792 L 40.218217 132.00383 L 41.347864 132.12113 L 42.477511 132.21777 L 43.607157 132.2958 L 44.734737 132.35678 L 45.859733 132.40225 L 46.981112 132.43016 L 49.208366 132.44205 L 50.665641 132.43119 L 52.12085 132.39089 L 53.573991 132.32577 L 55.026099 132.23896 L 56.477173 132.13199 L 57.926697 132.009 L 60.823678 131.72581 L 66.613505 131.09381 L 69.509452 130.79305 L 72.407983 130.53312 L 72.676184 130.72587 L 72.952136 130.90002 L 73.234806 131.05712 L 73.523678 131.19819 L 73.81875 131.3248 L 74.11899 131.43797 L 74.73394 131.62814 L 75.365942 131.77697 L 76.010347 131.89583 L 76.664054 131.99401 L 77.323962 132.08083 L 78.645846 132.25808 L 79.301103 132.36711 L 79.947575 132.50302 L 80.581645 132.67407 L 81.200212 132.89215 L 81.502002 133.02082 L 81.799141 133.165 L 82.09008 133.3252 L 82.374817 133.50193 L 82.570154 133.58823 L 82.764457 133.65696 L 83.15203 133.75101 L 83.536503 133.79183 L 83.919425 133.78977 L 84.300798 133.75308 L 84.680103 133.69003 L 85.436129 133.52002 L 86.189054 133.34793 L 86.565259 133.28385 L 86.94198 133.2451 L 87.319218 133.23993 L 87.696973 133.2792 L 88.075761 133.36912 L 88.265413 133.43578 L 88.455583 133.51898 L 88.805432 133.46007 L 89.103605 133.4332 L 89.356303 133.43578 L 89.568176 133.46782 L 89.74491 133.52777 L 89.891154 133.612 L 90.012594 133.72104 L 90.114396 133.85178 L 90.202246 134.00319 L 90.280278 134.17321 L 90.430139 134.56285 L 90.606356 135.00881 L 90.71746 135.24808 L 90.850785 135.49716 L 91.240942 135.68009 L 91.640918 135.83822 L 92.049679 135.96896 L 92.465157 136.07386 L 92.88632 136.1519 L 93.3111 136.20306 L 93.738464 136.22683 L 94.165828 136.22424 L 94.591642 136.19375 L 95.014872 136.13484 L 95.433451 136.04906 L 95.846346 135.93486 L 96.250972 135.79223 L 96.646297 135.62118 L 97.030253 135.42222 L 97.401807 135.19278 L 97.571822 135.33593 L 97.745455 135.46305 L 98.102539 135.67079 L 98.471509 135.82323 L 98.84978 135.92194 L 99.235286 135.9731 L 99.626477 135.98291 L 100.02077 135.95501 L 100.41609 135.89506 L 100.81193 135.80721 L 101.20416 135.69611 L 101.59225 135.56795 L 101.9731 135.42584 L 102.70691 135.12509 L 103.38904 134.83208 L 103.66809 134.87704 L 103.95076 134.89978 L 104.23705 134.90288 L 104.52489 134.88686 L 104.81479 134.85017 L 105.10315 134.79591 L 105.38995 134.72408 L 105.67417 134.63519 L 105.95426 134.52926 L 106.22814 134.40782 L 106.49479 134.27191 L 106.75317 134.12205 L 107.00225 133.95823 L 107.23997 133.78201 L 107.46579 133.59391 L 107.67922 133.39496 L 107.87714 133.18515 L 108.05904 132.96501 L 108.22285 132.73608 L 108.3691 132.49889 L 108.49519 132.25394 L 108.60009 132.00176 L 108.68226 131.7439 L 108.74117 131.48086 L 108.77424 131.21318 L 108.78096 130.93981 L 108.75977 130.66489 L 108.71016 130.38584 L 108.6311 130.10575 L 108.51896 129.82515 L 108.37478 129.543 L 108.19598 129.26188 L 107.97997 129.09083 L 107.78515 128.91306 L 107.61514 128.72909 L 107.47096 128.54306 L 107.35675 128.36012 L 107.27304 128.18081 L 107.22188 128.00976 L 107.20586 127.85111 L 107.22808 127.7059 L 107.29009 127.57878 L 107.39396 127.47284 L 107.54176 127.39222 L 107.73606 127.339 L 107.97894 127.31574 L 108.27194 127.32815 L 108.61921 127.37724 L 108.93392 127.41806 L 109.2662 127.41186 L 109.60881 127.36587 L 109.96021 127.28577 L 110.3142 127.17777 L 110.66611 127.04599 L 111.01183 126.8982 L 111.34721 126.738 L 111.96681 126.40882 L 112.48977 126.10496 L 112.8789 125.8719 L 113.09801 125.75822 L 112.913 126.05277 L 112.76108 126.35198 L 112.64119 126.65325 L 112.55179 126.95608 L 112.49184 127.25993 L 112.46084 127.56276 L 112.45722 127.86403 L 112.47996 128.16324 L 112.52802 128.45883 L 112.59881 128.74925 L 112.6939 129.03398 L 112.81017 129.312 L 112.94814 129.58175 L 113.10421 129.84324 L 113.27887 130.09387 L 113.47214 130.33416 L 113.67988 130.56206 L 113.90416 130.776 L 114.14084 130.97702 L 114.39095 131.16202 L 114.65295 131.331 L 114.9258 131.48293 L 115.20795 131.61626 L 115.49786 131.72994 L 115.795 131.82296 L 116.09886 131.89479 L 116.40685 131.94388 L 116.71897 131.96921 L 117.0342 131.97024 L 117.34994 131.94492 L 117.66724 131.89324 L 117.98298 131.81314 L 119.26611 131.63796 L 120.59781 131.45503 L 121.27012 131.34806 L 121.94088 131.2261 L 122.60699 131.08399 L 123.26224 130.91707 L 123.90303 130.72122 L 124.52625 130.49178 L 125.12518 130.22409 L 125.69724 129.91403 L 125.97216 129.74195 L 126.23777 129.55695 L 126.49512 129.35903 L 126.74213 129.14819 L 126.97881 128.92288 L 127.20619 128.6831 L 127.42116 128.42782 L 127.62477 128.15807 L 127.75499 127.92087 L 127.8661 127.6811 L 127.95705 127.43822 L 128.02991 127.19224 L 128.08521 126.94522 L 128.1219 126.69821 L 128.14205 126.45016 L 128.14618 126.20212 L 128.13223 125.95614 L 128.10278 125.71222 L 128.05885 125.46986 L 127.99994 125.23215 L 127.83819 124.76706 L 127.62218 124.32419 L 127.35502 123.90717 L 127.04082 123.52218 L 126.68322 123.17491 L 126.2848 122.87002 L 126.07292 122.73514 L 125.85123 122.61422 L 125.62179 122.50518 L 125.38511 122.41113 L 125.14017 122.33103 L 124.88902 122.26696 L 124.63115 122.2189 L 124.36812 122.18789 L 123.55525 122.11089 L 123.17801 122.0618 L 122.82609 122.00186 L 122.50415 121.92796 L 122.21476 121.83597 L 121.96206 121.72487 L 121.75122 121.58896 L 121.58379 121.42721 L 121.5192 121.33523 L 121.46597 121.23601 L 121.42721 121.12801 L 121.40086 121.01122 L 121.39001 120.88616 L 121.39311 120.75077 L 121.44478 120.45208 L 121.56209 120.11101 L 121.74709 119.72499 L 122.00496 119.28988 L 122.3052 118.43877 L 122.62404 117.59489 L 122.95994 116.75618 L 123.30979 115.92212 L 124.04979 114.26693 L 124.83011 112.6262 L 125.63678 110.99323 L 126.45895 109.36593 L 127.28112 107.74019 L 128.09192 106.1098 L 128.87689 104.47218 L 129.62516 102.82215 L 129.98018 101.99119 L 130.32124 101.1561 L 130.64526 100.31481 L 130.95221 99.468347 L 131.24005 98.615686 L 131.50618 97.756307 L 131.7501 96.889176 L 131.96921 96.014811 L 132.16299 95.131144 L 132.32887 94.239209 L 132.46582 93.337455 L 132.57175 92.425883 L 132.62395 92.087402 L 132.641 91.732902 L 132.63221 91.368583 L 132.60689 91.00013 L 132.54075 90.270459 L 132.51904 89.921126 L 132.51594 89.589364 L 132.54075 89.280339 L 132.60276 88.999736 L 132.65082 88.872095 L 132.71076 88.753239 L 132.78518 88.644718 L 132.87406 88.546533 L 132.97896 88.4592 L 133.10092 88.384269 L 133.242 88.322257 L 133.40219 88.272648 L 133.58203 88.238025 L 133.78408 88.217354 L 134.00784 88.212187 L 134.25692 88.223556 L 135.04085 87.987394 L 135.816 87.727462 L 136.58184 87.445308 L 137.3389 87.141968 L 138.08821 86.818473 L 138.82925 86.476892 L 139.56202 86.118774 L 140.28911 85.744637 L 141.72107 84.956055 L 143.12821 84.123031 L 144.51418 83.2559 L 145.88205 82.366549 L 145.79885 82.613562 L 145.75389 82.876078 L 145.74408 83.147896 L 145.76785 83.421781 L 145.82314 83.692049 L 145.90582 83.950948 L 146.01693 84.192277 L 146.1518 84.409835 L 146.3089 84.596387 L 146.48718 84.745732 L 146.68304 84.851152 L 146.89491 84.905929 L 147.00601 84.91213 L 147.12022 84.903345 L 147.23804 84.878023 L 147.3569 84.836165 L 147.47989 84.777254 L 147.60391 84.699223 L 147.85816 84.484766 L 148.3248 83.819173 L 148.81314 83.162882 L 149.83478 81.868905 L 150.87813 80.581128 L 151.89977 79.278365 L 152.38915 78.61484 L 152.85475 77.939429 L 153.29504 77.249548 L 153.70121 76.543132 L 154.06915 75.816044 L 154.39316 75.067253 L 154.66705 74.29314 L 154.78383 73.895748 L 154.88615 73.491638 L 154.97917 73.150574 L 155.03395 72.804342 L 155.0572 72.453459 L 155.04997 72.100509 L 155.01586 71.746525 L 154.96108 71.393058 L 154.88822 71.042175 L 154.79882 70.695426 L 154.59315 70.018982 L 154.37094 69.377677 L 154.16475 68.783398 L 154.003 68.249581 L 154.25208 68.217025 L 154.52287 68.222709 L 154.81226 68.258366 L 155.11405 68.316243 L 155.73778 68.464555 L 156.35997 68.602531 L 156.65814 68.646973 L 156.94288 68.663509 L 157.20798 68.644906 L 157.44982 68.582894 L 157.56093 68.532768 L 157.66376 68.468689 L 157.75988 68.389624 L 157.84618 68.294023 L 157.92318 68.181885 L 157.99087 68.05166 L 158.04823 67.901799 L 158.09423 67.7323 L 157.82706 67.296667 L 157.52682 66.887907 L 157.19816 66.501884 L 156.84417 66.136015 L 156.47004 65.786682 L 156.07781 65.450269 L 155.25822 64.805863 L 154.4159 64.176961 L 153.58287 63.537207 L 153.1798 63.205444 L 152.79119 62.861279 L 152.41912 62.502128 L 152.06875 62.123857 L 151.19697 61.274813 L 150.34379 60.389079 L 149.51594 59.470272 L 148.71909 58.524593 L 147.96099 57.555143 L 147.24683 56.56709 L 146.58382 55.565084 L 145.9792 54.553776 L 146.39623 54.102641 L 146.78587 53.637036 L 147.15019 53.158512 L 147.48816 52.667069 L 147.79976 52.164258 L 148.08915 51.650077 L 148.35425 51.125045 L 148.59506 50.590194 L 148.81521 50.046558 L 149.01209 49.49362 L 149.18779 48.933447 L 149.34386 48.365523 L 149.47976 47.791398 L 149.59707 47.211072 L 149.69526 46.626095 L 149.77587 46.03595 L 149.83892 45.442187 L 149.88594 44.845325 L 149.91695 44.245878 L 149.93193 43.644364 L 149.92005 42.438753 L 149.85494 41.233142 L 149.74176 40.034249 L 149.58622 38.846208 L 149.39191 37.674703 L 149.16712 36.525419 L 149.15782 36.079968 L 149.12578 35.662423 L 149.071 35.274333 L 148.99091 34.917249 L 148.886 34.593754 L 148.75423 34.305916 L 148.59403 34.055286 L 148.40696 33.844446 L 148.18889 33.674947 L 147.94084 33.548857 L 147.66179 33.467725 L 147.35018 33.434652 L 147.00498 33.450671 L 146.62619 33.518368 L 146.21123 33.63929 L 145.7601 33.816024 L 144.71882 34.016528 L 143.68425 34.244938 L 142.65796 34.500736 L 141.63787 34.781856 L 140.62501 35.086747 L 139.6199 35.414893 L 138.621 35.764742 L 137.62881 36.134229 L 136.64386 36.522319 L 135.6651 36.927462 L 134.69204 37.349141 L 133.7262 37.784774 L 131.81314 38.693762 L 129.92282 39.644092 L 129.71301 39.532987 L 129.44688 39.429118 L 128.79782 39.234814 L 128.08314 39.046195 L 127.40979 38.848275 L 127.12299 38.741305 L 126.88683 38.625549 L 126.71475 38.500492 L 126.65687 38.43383 L 126.62018 38.36355 L 126.60623 38.290169 L 126.61604 38.213171 L 126.65325 38.132039 L 126.71681 38.046773 L 126.80983 37.957373 L 126.93489 37.863322 L 127.28525 37.660234 L 127.43305 37.574967 L 127.56586 37.4804 L 127.68523 37.377563 L 127.79013 37.267493 L 127.95911 37.028231 L 128.07384 36.769332 L 128.13998 36.498547 L 128.156 36.223112 L 128.12706 35.949744 L 128.05317 35.685677 L 127.93793 35.438147 L 127.78393 35.214388 L 127.59221 35.021118 L 127.36587 34.866089 L 127.10697 34.755501 L 126.96589 34.719845 L 126.81707 34.697624 L 126.66204 34.690389 L 126.49977 34.698657 L 126.33079 34.723462 L 126.15612 34.766353 L 125.91893 34.729663 L 125.64814 34.731213 L 125.35411 34.762219 L 125.04508 34.814412 L 124.42186 34.950321 L 123.85807 35.072278 L 123.62191 35.107935 L 123.42916 35.115686 L 123.28912 35.087264 L 123.24209 35.057292 L 123.21212 35.014917 L 123.20023 34.959106 L 123.20695 34.889343 L 123.28395 34.703308 L 123.45293 34.448543 L 123.7232 34.116264 L 123.91595 33.859432 L 124.05806 33.588647 L 124.15315 33.309595 L 124.2012 33.026408 L 124.20586 32.745805 L 124.1702 32.472437 L 124.09475 32.211471 L 123.9821 31.968591 L 123.83482 31.748966 L 123.65395 31.55828 L 123.44414 31.402218 L 123.20385 31.284912 L 122.93875 31.212565 L 122.64988 31.190861 L 122.33775 31.224451 L 122.00702 31.318502 L 121.76621 31.369661 L 121.5378 31.444076 L 121.32283 31.538643 L 121.11922 31.650781 L 120.92285 31.778422 L 120.73475 31.918982 L 120.37611 32.22749 L 119.68003 32.885848 L 119.31985 33.19539 L 119.13123 33.33595 L 118.93383 33.464624 L 118.94881 33.293575 L 118.94778 33.124076 L 118.90075 32.790247 L 118.79998 32.468819 L 118.65322 32.163928 L 118.46409 31.882292 L 118.24084 31.62856 L 117.99021 31.408936 L 117.71685 31.228068 L 117.43004 31.091642 L 117.13497 31.005343 L 116.83783 30.974854 L 116.69107 30.981571 L 116.54482 31.004826 L 116.40323 31.0441 L 116.26422 31.100944 L 116.12986 31.175358 L 116.00119 31.268892 L 115.8782 31.381547 L 115.76193 31.514355 L 115.65289 31.667318 L 115.55315 31.841984 L 115.50303 31.889526 L 115.44825 31.920015 L 115.38779 31.933968 L 115.32319 31.932418 L 115.18108 31.886426 L 115.02295 31.789791 L 114.85294 31.649748 L 114.6731 31.475081 L 114.28915 31.048751 L 113.49695 30.105656 L 113.12384 29.709814 L 112.95176 29.557369 L 112.79208 29.445231 L 112.40503 29.174963 L 112.15284 29.006498 L 111.88878 28.853019 L 111.63298 28.742948 L 111.51516 28.712459 L 111.40612 28.703674 z M 88.389437 115.83427 L 91.197017 125.9396 C 89.507001 124.36117 84.643042 124.13657 81.502002 124.74742 C 84.601332 123.30239 84.949201 121.64269 85.589091 118.4615 L 88.389437 115.83427 z " /><path
       d="m 111.83373,116.04081 c -0.0878,0.002 -0.18589,0.0658 -0.29972,0.216 -1.07981,1.88135 -2.9344,2.77525 -4.50412,3.46388 3.12634,0.71361 5.60359,1.58273 7.7649,4.69377 l -2.63085,-8.07341 c -0.0964,-0.17701 -0.20195,-0.30385 -0.33021,-0.30024 z"
       style="display:inline;fill:#f9f9f9;fill-opacity:1;stroke:#000000;stroke-width:0.1;stroke-linecap:round;stroke-dasharray:none;stroke-opacity:1;paint-order:stroke fill markers"
       id="path1"
       sodipodi:nodetypes="cccccc" /></g><g
     inkscape:label="B.Cu"
     inkscape:groupmode="layer"
     id="g4" /><g
     inkscape:label="B.Mask"
     inkscape:groupmode="layer"
     id="g5" /><g
     inkscape:label="B.SilkS"
     inkscape:groupmode="layer"
     id="g6" /><g
     inkscape:label="F.Cu"
     inkscape:groupmode="layer"
     id="g7" /><g
     inkscape:label="F.Mask"
     inkscape:groupmode="layer"
     id="g8" /><g
     inkscape:label="F.SilkS"
     inkscape:groupmode="layer"
     id="g9"
     style="display:inline"><path
       id="path43-7"
       style="display:inline;fill:#1a1a1a;fill-opacity:0.206795;stroke:#000000;stroke-width:0.2;stroke-linecap:round;stroke-dasharray:none;stroke-opacity:1;paint-order:stroke fill markers"
       d="m 111.16513,28.818976 c -1.10982,2.027538 0.4144,4.382183 0.71,6.187 -3.41954,-1.53249 -7.27656,-2.933091 -11.073,-2.3687 0.14093,2.59344 2.83678,3.484438 4.652,4.7286 -2.47156,0.249735 -5.835764,-0.317402 -7.569103,1.7729 0.17947,1.984032 3.109273,2.181918 -0.1104,2.9108 -3.200675,1.124441 -6.07321,-1.573139 -9.154493,-2.141376 -4.483653,-1.561853 -9.122241,-2.838893 -13.888407,-3.058024 -5.267672,6.423299 -2.856806,16.322007 3.084381,21.461944 0.877196,1.406834 2.771778,2.831486 3.500519,3.941256 -1.649641,2.654309 -3.411684,4.40064 -5.5469,7.5163 -1.527732,2.323679 -3.587966,4.397444 -3.963679,7.058103 0.604372,1.01818 2.687973,0.531368 3.392579,1.035997 -1.391356,0.904284 -0.934011,3.36523 0.977,3.0407 1.117087,0.03894 3.831216,-0.196468 2.6495,1.655 -0.01794,1.684267 2.319942,1.701153 -0.168155,2.83869 -6.778479,4.976675 -14.538408,10.333586 -16.570745,19.047214 -0.483694,1.57232 -0.496894,4.40544 -2.876266,3.36053 -14.523166,-1.14565 -30.120584,0.56004 -42.255434,9.28747 -1.825512,0.54814 -2.685195,2.83778 -0.9652,4.10799 8.471405,8.97174 21.455055,11.19785 33.268,11.111 7.775696,0.0193 15.465512,-1.29284 23.1993,-1.909 2.82375,2.15767 6.963547,0.9803 9.9671,2.969 2.08632,1.00299 4.049527,-0.96085 6.0808,0.017 2.009687,-0.40349 1.615407,0.63139 2.3953,1.978 2.048311,1.04764 4.607085,0.99293 6.5507,-0.304 1.793941,1.61526 4.249963,0.37594 5.988113,-0.36122 2.93869,0.59605 6.89808,-2.57208 4.80659,-5.56978 -1.20956,-0.8826 -1.5705,-2.25299 0.42296,-1.88468 1.62826,0.34792 4.15292,-1.51208 4.47901,-1.61959 -2.15352,3.12458 1.52197,7.0597 4.88453,6.05521 3.33007,-0.48564 7.53469,-0.68406 9.6425,-3.65494 1.49351,-2.5045 -0.41656,-5.72965 -3.257,-5.97 -2.25422,-0.18492 -3.93759,-0.44585 -2.363,-2.89799 3.10172,-9.10743 9.60768,-17.08478 10.56652,-26.864101 0.38715,-1.755288 -1.09677,-4.40881 1.68548,-4.202603 4.2096,-1.191841 7.99953,-3.465868 11.625,-5.8568 -0.54543,1.262969 0.60619,3.479583 1.976,2.118 2.42016,-3.580968 6.01545,-6.638041 7.028,-10.9933 0.59912,-1.799571 -0.53641,-3.909759 -0.883,-5.2419 1.26136,-0.29052 3.65979,1.404253 4.091,-0.5173 -1.33093,-2.397479 -4.2231,-3.536075 -6.025,-5.6085 -2.34266,-2.210271 -4.56012,-4.86456 -6.09,-7.5699 4.5941,-4.738382 4.46855,-11.966282 3.18757,-18.028529 0.0108,-2.443501 -0.90207,-3.802203 -3.40632,-2.709252 -5.57519,0.99004 -10.82904,3.249039 -15.83725,5.828081 -0.94447,-0.614393 -4.87666,-0.846308 -2.63815,-1.98408 1.65716,-0.855875 0.76856,-3.443761 -1.12885,-2.89382 -1.15702,-0.308662 -4.15954,1.341945 -2.433,-0.6501 1.16438,-1.321245 0.0988,-3.473048 -1.716,-2.7975 -1.32511,0.208355 -2.00044,1.500082 -3.073,2.1458 0.24548,-1.821852 -2.36255,-3.600864 -3.381,-1.6225 -0.50525,0.605113 -1.94416,-1.92088 -2.761,-2.3966 -0.35855,-0.227518 -1.49015,-1.186071 -1.676,-0.4965"
       sodipodi:nodetypes="cccccccccccccccccccccccccccccccccccccccccccccccccccccc" /><path
       id="path43-4-1"
       style="display:inline;fill:#f9f9f9;fill-opacity:1;stroke:#000000;stroke-width:0.1;stroke-linecap:round;stroke-dasharray:none;stroke-opacity:1;paint-order:stroke fill markers"
       d="m 112.44327,31.58877 -5.2e-4,5.16e-4 v 5.17e-4 5.17e-4 c 0.77344,2.05658 1.66807,4.097915 1.52239,6.269385 -3.39809,-1.931471 -6.99189,-3.113737 -10.74818,-3.672128 2.64009,1.557482 5.4969,2.878446 7.52357,5.105115 -3.76585,-0.371332 -7.37024,-0.225769 -10.837584,0.358118 1.993234,0.213706 4.297914,0.398987 5.848224,1.008207 -3.0636,1.123992 -6.146984,2.476818 -9.430434,3.82819 -6.69943,-2.367677 -13.174631,-5.128312 -20.779611,-5.911267 -6.63108,11.549296 3.705886,19.896516 7.859986,23.405806 -1.853664,2.449802 -3.750715,4.15706 -4.966105,6.50658 -2.373038,3.200623 -3.745473,4.880611 -5.057573,7.657931 l 4.12843,0.806669 -1.733227,2.597774 5.638932,0.487309 -0.853694,2.603458 3.402376,0.538469 c -7.52798,8.12547 -18.669878,9.651164 -21.316528,26.690364 -16.95681,-1.59183 -32.935636,-0.36454 -45.857666,9.67331 7.7306,9.29252 17.919072,11.30314 39.152132,11.17193 5.89917,-0.28354 11.717964,-1.63258 17.520894,-1.7508 l 0.633553,0.94981 c 3.40195,0.71467 7.234887,0.99864 9.880017,2.47013 1.22718,-0.0734 1.819642,-0.60051 2.216402,-1.2671 h 5.17e-4 c 0.0015,9.1e-4 0.0037,0.003 0.0052,0.004 0.267122,-2.11251 -2.1478,-3.0367 -5.329907,-3.05097 0.37986,-0.0567 0.748891,-0.089 1.103291,-0.0977 2.48079,-0.0607 4.633115,0.93587 4.397665,2.79104 l -0.171049,0.3576 c 0.828507,0.53645 1.913797,0.68826 2.970361,0.88264 0.91198,-0.12456 1.116651,-0.60262 1.330151,-1.07642 l 1.013375,0.31677 c 0.02261,-0.0184 0.04467,-0.0369 0.06615,-0.0553 0.111098,0.84833 0.240042,1.81025 0.313676,2.77709 2.28798,1.45183 4.127371,0.81053 5.699911,-1.07642 1.69782,2.68438 3.504971,1.54766 5.320091,0.12661 0.94999,0.35387 1.89997,0.8226 2.84995,-0.44339 0.67431,0.0819 1.22158,-0.0904 1.45676,-0.88676 0.29834,-1.56437 -0.67294,-2.14127 -1.39371,-2.913 -1.25483,-1.23822 -2.96977,-1.93964 -4.93975,-2.34353 1.39329,-0.0847 2.7395,-0.5918 4.24315,0.31678 1.34403,0.1196 1.72667,-0.72205 1.90014,-1.77302 0.0161,0.008 0.0325,0.0162 0.0486,0.0243 -1.55595,-1.86575 -3.97223,-3.53492 -6.85798,-2.87942 2.89478,-0.70994 6.30295,0.73299 6.8616,2.88097 h -5.2e-4 -5.2e-4 -5.2e-4 l 0.003,0.004 c -2.6e-4,-8.5e-4 -9e-4,-0.002 -0.001,-0.004 2.31574,1.17192 3.57564,0.88514 4.06435,-0.26821 0.27935,0.0121 0.50316,0.0798 1.01338,-0.139 0.85627,-1.05405 0.24028,-1.74251 -0.31678,-2.34301 -2.14006,-1.53985 -4.92578,-2.11171 -7.72666,-2.66031 3.44568,0.14449 6.08111,-1.57445 7.84397,-5.30045 l 5.1e-4,-5.2e-4 h 5.2e-4 5.2e-4 5.1e-4 5.2e-4 5.2e-4 5.1e-4 v -5.1e-4 c 0.001,-1e-5 0.003,-4e-5 0.004,0 -0.002,-1.3e-4 -0.004,-3.9e-4 -0.006,-5.2e-4 h -5.2e-4 -5.2e-4 c -0.01,-0.0277 -0.96602,-2.73373 -1.01595,-2.69493 -2.03045,1.72606 -4.19847,3.2658 -6.32158,4.84467 -0.8625,0.55498 -1.56618,1.37913 -2.51509,1.78284 -0.60089,0.22931 -0.24815,-0.61978 0.25424,-1.08676 5.01018,-4.08991 10.09424,-7.05104 13.89631,-13.08964 l 0.79375,1.5875 0.22635,-3.62872 1.07745,1.13327 0.68006,-3.45819 1.07745,1.13378 0.68058,-3.7977 2.32441,2.380216 -1.98438,-4.761466 c 0,0 3.62828,3.231312 3.45819,2.834452 -0.17008,-0.39687 -2.0407,-4.479313 -2.0407,-4.479313 l 5.04569,1.984892 -3.11816,-4.081922 4.27467,-1.295011 c 0.41844,-0.11045 1.20397,-0.572957 1.52859,-0.674377 -1.21915,1.42119 -2.51627,2.768657 -3.81527,4.116027 0.97503,1.27694 1.95102,2.553851 2.9254,3.831291 -1.45963,-0.57691 -2.92113,-1.149752 -4.38164,-1.724442 -0.32962,-0.37231 -0.66372,0.06831 -0.87747,0.325044 0.37082,0.81477 0.74012,1.632939 1.1064,2.446879 0.26013,0.5802 -0.51325,0.99104 -0.95808,0.63097 -0.56016,-0.38835 -1.09848,-0.821021 -1.59267,-1.290361 0.60008,1.39492 1.21083,2.790691 1.54202,4.279841 -1.09266,-0.78522 -2.04737,-1.730378 -2.96002,-2.713528 -0.24464,1.269378 -0.45888,2.545138 -0.68885,3.817338 -0.36534,-0.38302 -0.7298,-0.76773 -1.09451,-1.15135 -0.2066,1.04784 -0.41076,2.097 -0.61908,3.14451 -0.42426,-0.0635 -0.74592,-0.34097 -0.99839,-0.67024 -0.0915,1.47801 -0.18422,2.95625 -0.2744,4.43435 -0.43291,-0.86816 -0.86687,-1.73576 -1.3007,-2.60346 -1.47035,2.20189 -5.08253,5.56564 -5.03483,5.58364 0.0817,0.14329 4.19302,13.21573 4.19302,13.21573 -0.20099,1.68887 -2.31122,3.37801 -0.50694,5.06688 0.26138,0.33749 1.94242,1.43057 2.91352,0.37982 1.57541,-0.26516 3.41143,0.90346 4.68653,-1.01338 1.85915,0.9091 2.53676,-0.65022 2.59106,-0.88108 0.0784,-0.33325 1.33086,-0.62702 1.46244,-0.82889 0.30766,-0.59853 0.7012,-1.51144 -0.6966,-2.84996 -1.56185,-1.15596 -4.29964,-1.29883 -6.6492,-1.16272 1.59393,-5.11067 3.54841,-10.34685 6.05802,-15.28795 3.41324,-6.72021 7.09194,-13.19875 5.22707,-20.8964 6.06755,-0.81722 11.7832,-4.097614 17.37569,-8.240324 l -0.48214,3.656625 3.54242,-4.630209 c 0.96995,-0.78705 1.96542,-2.06157 2.69699,-4.99401 -0.15179,-2.14243 -0.88025,-4.284568 -2.22622,-6.426998 l 3.80597,0.36897 -6.26215,-5.350061 c -1.4776,-2.84761 -5.90507,-6.912757 -5.90507,-6.912757 1.39143,-1.04295 3.09509,-2.44905 3.99717,-4.21473 1.08583,-3.348279 1.54232,-9.51281 0.38551,-15.115356 -6.05431,0.744905 -11.7038,3.312371 -17.28628,6.180501 -2.35567,-0.953622 -4.51386,-1.545154 -6.69675,-2.144055 0.46035,-1.614509 2.00954,-1.976002 3.02462,-2.871659 -2.00031,-0.131295 -4.00088,0.311327 -6.00118,1.611788 -0.34725,-1.749358 0.9604,-3.250323 1.7017,-4.836398 -1.7237,1.025769 -3.30155,2.153096 -3.67213,4.120162 -0.21554,-1.492762 -0.77806,-2.985517 -1.34358,-4.478279 0.12203,1.591413 0.38793,3.134769 0.17931,4.836397 -1.20797,-2.415688 -2.65123,-4.622444 -4.92579,-6.090067 z m 18.27692,29.273148 c 1.55814,-1.2e-4 2.82136,1.262887 2.82153,2.821017 1.2e-4,1.55835 -1.26319,2.821653 -2.82153,2.821533 -1.55834,1.2e-4 -2.82166,-1.263183 -2.82154,-2.821533 1.6e-4,-1.55813 1.2634,-2.821137 2.82154,-2.821017 z m -20.28662,0.906922 c 1.62996,-10e-5 2.95133,1.321261 2.95124,2.951241 -1.9e-4,1.62977 -1.32148,2.950814 -2.95124,2.950724 -1.62956,-1.9e-4 -2.95053,-1.321154 -2.95072,-2.950724 -1e-4,-1.62977 1.32096,-2.951051 2.95072,-2.951241 z m -26.283151,13.565063 -0.357084,4.157369 2.87321,0.86403 c 4.52353,3.89185 11.883025,4.748335 18.113105,6.713285 8.2075,1.92638 16.04658,1.134122 24.71219,-0.749308 -8.16618,3.32968 -17.177,4.090072 -25.3845,2.163692 -6.230083,-1.96495 -13.589576,-2.821435 -18.113106,-6.713285 l -2.873209,-0.863513 0.357084,-4.157886 -2.930571,1.221631 c -2.02026,1.1579 -1.207566,0.519223 -2.450496,0.654223 1.02849,-0.78959 1.102547,-0.911224 3.122807,-2.069124 z m 27.814841,38.955757 v 5.2e-4 c 0.004,1.4e-4 0.008,-1.3e-4 0.0114,0 -0.004,-2.2e-4 -0.008,-2.8e-4 -0.0114,-5.2e-4 z m -23.579957,1.76424 0.147278,0.53072 c 0.790575,2.72268 1.830963,6.09361 2.60465,8.71185 -0.04909,-0.0386 -0.129469,0.0404 -0.182576,0.004 l 0.327744,0.41076 c -0.990669,-1.85817 -6.643491,-1.35544 -9.784531,-0.74459 0.32307,-0.15063 0.615906,-0.30315 0.882633,-0.45992 -0.03861,0.003 -0.07679,0.005 -0.114721,0.008 1.015779,-0.7492 1.965041,-1.82305 2.632914,-3.02152 0.278061,-0.79108 0.464628,-1.71039 0.686263,-2.81224 l 0.269751,-0.25321 c 0.002,-0.0365 0.0035,-0.0731 0.0047,-0.10955 0.778925,-0.65538 1.611314,-1.47121 2.395719,-2.14303 l -2.40037,2.25258 c -0.05525,1.03214 -0.412455,2.09005 -0.956014,3.06545 -0.441057,1.25479 -1.179522,2.0527 -2.58533,2.87898 2.612293,-0.19295 6.748539,-0.44468 8.574154,0.79375 l -2.422074,-8.71626 c -0.04625,-0.15928 -0.03927,-0.22857 -0.08376,-0.38198 -0.0412,0.0347 -0.08254,0.0699 -0.124023,0.10542 z m 23.508127,0.0274 c -0.0878,0.002 -0.18589,0.0658 -0.29972,0.216 -1.07981,1.88135 -2.9344,2.77525 -4.50412,3.46388 3.12634,0.71361 5.60359,1.58273 7.7649,4.69377 l -2.63085,-8.07341 c -0.0964,-0.17701 -0.20195,-0.30385 -0.33021,-0.30024 z m -11.22877,4.47259 c 5.63076,-0.20383 11.38405,1.82167 10.50582,4.10104 0.79719,-2.10947 -4.9912,-4.03488 -10.50582,-4.10104 z m 10.85256,2.19677 c 0.24921,0.23803 0.46691,0.48743 0.47956,0.80873 0.0584,0.33329 -0.11579,0.0786 -0.20309,0.0739 -0.21853,-0.17896 -0.36013,-0.39583 -0.47335,-0.76378 z m -3.04891,0.0558 c 0.6497,0.42032 1.23442,0.87844 1.39734,1.58181 0.26895,0.71061 -0.22204,0.22207 -0.41652,0.24857 -0.55722,-0.3029 -0.96147,-0.72167 -1.3658,-1.4857 z m -4.76043,1.02061 c 0.72638,0.26672 1.39701,0.58442 1.71101,1.23455 0.41902,0.63382 -0.16703,0.26513 -0.35088,0.33383 -0.6103,-0.17259 -1.09752,-0.49166 -1.66037,-1.14774 z m 21.07262,0.89813 c 0.56429,0.44006 1.06522,0.90978 1.15807,1.57097 0.18978,0.67615 -0.22279,0.18582 -0.40411,0.19482 -0.48866,-0.32438 -0.8271,-0.7433 -1.1374,-1.48002 z m -3.13263,0.16227 c 0.0151,-1.7e-4 0.0309,0.002 0.047,0.007 1.44573,0.47188 3.11572,0.69413 3.03702,2.93677 -0.0533,-1.9421 -1.72358,-2.16465 -3.16931,-2.63653 -0.14979,-0.0952 -0.061,-0.30531 0.0853,-0.30696 z m -2.64893,0.5333 c 0.0238,-1.2e-4 0.0448,0.005 0.0584,0.015 1.53207,0.70205 3.14725,1.31917 3.27577,3.20963 -0.27556,-1.82508 -1.90055,-2.24733 -3.44268,-2.9869 -0.15229,-0.14376 0.005,-0.23722 0.10852,-0.23771 z m -2.04536,0.52503 v 5.2e-4 c 0.0342,-0.001 0.0691,0.008 0.0925,0.0279 1.00112,0.94947 1.75876,2.39526 0.85731,3.92534 0.73153,-1.3603 -0.0262,-2.80585 -1.02733,-3.75532 -0.0686,-0.13627 0.002,-0.19541 0.0775,-0.19844 z m 5.56762,0.41806 c 0.56429,0.44006 1.06522,0.90978 1.15807,1.57097 0.18978,0.67615 -0.22279,0.18582 -0.40411,0.19482 -0.48866,-0.32438 -0.8271,-0.7433 -1.1374,-1.48002 z m -6.48746,0.34003 c 0.35725,0.6864 0.63886,1.374 0.43305,2.06603 -0.11719,0.75068 -0.30204,0.0825 -0.48421,0.01 -0.33484,-0.53864 -0.48011,-1.10225 -0.45423,-1.96629 z m 3.62511,0.16744 c 0.52179,0.57141 0.97068,1.16296 0.94981,1.88464 0.0799,0.75557 -0.27076,0.15815 -0.46561,0.13435 -0.46213,-0.43438 -0.74687,-0.94121 -0.94412,-1.78283 z m -34.304887,0.54518 c 3.12709,0.0964 4.462459,0.88397 4.791439,2.95589 -0.79966,-1.9004 -2.672329,-2.64084 -4.791439,-2.95589 z m 15.635217,0.30231 h 5.2e-4 5.2e-4 5.1e-4 l 0.004,0.004 5.2e-4,5.2e-4 c 2.02983,0.79722 4.00723,2.44693 4.62039,3.7207 0.0797,0.16566 0.12854,0.54773 0.15916,0.72916 -1.30974,-1.60688 -3.01816,-3.19473 -5.01572,-4.41472 0.14682,0.0624 0.18902,0.007 0.22996,-0.0398 z m -10.638623,0.007 c 0.53023,0.56357 0.988365,1.14877 0.978235,1.87068 0.0911,0.75432 -0.268854,0.16178 -0.464054,0.14108 -0.46855,-0.42745 -0.760723,-0.93029 -0.970483,-1.76888 z m 8.999451,0.88211 c 0.004,7e-5 0.008,2.2e-4 0.0124,0 0.0166,-9.2e-4 0.03468,-0.001 0.05478,0 1.399953,0.68313 2.651103,1.69022 3.316593,4.14135 -0.0266,0.14143 -0.0739,0.20951 -0.16123,0.1385 -1.10973,-2.14705 -1.83641,-3.61088 -3.222542,-4.27985 z m -1.389579,0.0791 h 5.17e-4 5.16e-4 c 4.4e-4,2e-5 0.0011,2e-5 0.0021,0 0.0276,-9e-4 0.0507,0.0103 0.0708,0.03 -0.0302,-0.0127 -0.06528,-0.0234 -0.07338,-0.0279 l -5.17e-4,-5.2e-4 h -5.17e-4 v -5.2e-4 -5.1e-4 h 5.17e-4 z m 0.112138,0.0842 c 0.008,0.0152 0.01542,0.0316 0.02222,0.0496 -0.45674,1.12171 -1.286745,2.18384 -0.534335,3.9703 l -0.255281,-0.0765 c -1.079037,-2.02918 0.15958,-2.92948 0.767395,-3.94343 z m -10.404016,0.11266 c 0.63294,0.44515 1.199232,0.9259 1.334802,1.63504 0.24125,0.72048 -0.229927,0.21251 -0.425297,0.23151 -0.54508,-0.32426 -0.933481,-0.75774 -1.307931,-1.53686 z m -4.399732,0.48575 c 0.72026,0.28281 1.384168,0.61584 1.683618,1.27279 0.40481,0.64298 -0.173304,0.26138 -0.358634,0.32608 -0.6063,-0.18613 -1.085889,-0.51598 -1.634009,-1.18442 z m 22.455481,0.10697 c 0.41535,0.39414 0.77821,0.80726 0.80098,1.34101 0.0989,0.55346 -0.1913,0.13102 -0.33641,0.12402 -0.36407,-0.29618 -0.60158,-0.65584 -0.79169,-1.26659 z m -2.51613,0.84543 c 0.60836,0.47819 1.14826,0.98792 1.24592,1.70326 0.20259,0.73229 -0.24109,0.19977 -0.43718,0.20877 -0.52707,-0.35279 -0.89173,-0.80662 -1.22422,-1.60455 z m -3.923274,0.84439 c 0.63936,0.43587 1.212674,0.90832 1.358574,1.61541 0.25173,0.71689 -0.22713,0.21591 -0.4222,0.23771 -0.549744,-0.31627 -0.943852,-0.74417 -1.329632,-1.51774 z m -5.073592,0.27906 0.514697,0.0439 c 0.1395,0.76112 0.20702,1.50083 -0.19327,2.10168 -0.33286,0.68301 -0.313451,-0.01 -0.466121,-0.13332 -0.161527,-0.61319 -0.134073,-1.19436 0.144694,-2.01228 z"
       sodipodi:nodetypes="cccccccccccccccccccccccccccccccccccccccccccccccccccccccccccccccccccccccccccccccccccscccccccccccccccccccccccccscccscccccccccccccccccccccccccccccccccccccccccccccccccccccccccccccccccccccccccccccccccccccccccccccccccscccsscccscccccccccccccccccccccccccccccccccccccccccccccccscccccccccccccccccccccccccccccccccccccccccccc" /><path
       d="m 111.32067,76.198165 0.12879,0.426225 -13.192041,4.571393 -0.071,-0.483327 z"
       style="display:inline;fill:#000000;fill-opacity:1;stroke:#000000;stroke-width:0.0776717;stroke-linecap:round;stroke-dasharray:none;stroke-opacity:1;paint-order:stroke fill markers"
       id="path1-86"
       sodipodi:nodetypes="ccccc" /><path
       d="m 130.68571,60.8397 c 1.62996,-1e-4 2.95133,1.321261 2.95124,2.951241 -1.9e-4,1.62977 -1.32148,2.950815 -2.95124,2.950725 -1.62956,-1.9e-4 -2.95053,-1.321155 -2.95072,-2.950725 -1e-4,-1.62977 1.32096,-2.951051 2.95072,-2.951241 z"
       style="display:inline;fill:#000000;fill-opacity:1;stroke:#000000;stroke-width:0.1;stroke-linecap:round;stroke-dasharray:none;stroke-opacity:1;paint-order:stroke fill markers"
       id="path1-5-7" /><path
       d="m 110.38359,61.775535 c 1.62996,-10e-5 2.95133,1.321261 2.95124,2.951241 -1.9e-4,1.62977 -1.32148,2.950815 -2.95124,2.950725 -1.62956,-1.9e-4 -2.95053,-1.321155 -2.95072,-2.950725 -10e-5,-1.62977 1.32096,-2.951051 2.95072,-2.951241 z"
       style="display:inline;fill:#000000;fill-opacity:1;stroke:#000000;stroke-width:0.1;stroke-linecap:round;stroke-dasharray:none;stroke-opacity:1;paint-order:stroke fill markers"
       id="path1-5-7-8" /><path
       d="m 95.534433,73.766414 15.796977,0.548287 -0.14417,0.325562 -15.763907,-0.537435 z m 15.230607,1.399398 -0.10542,0.342615 -17.874887,1.896525 0.0656,-0.348816 z"
       style="display:inline;fill:#000000;fill-opacity:1;stroke:#000000;stroke-width:0.1;stroke-linecap:round;stroke-dasharray:none;stroke-opacity:1;paint-order:stroke fill markers"
       id="path1-82-1"
       sodipodi:nodetypes="cccccccccc" /><path
       d="m 111.9177,114.3734 c -0.11128,-0.2106 -0.9929,-2.77403 -1.04283,-2.73523 -2.03045,1.72606 -4.19847,3.2658 -6.32158,4.84467 -0.8625,0.55498 -1.56618,1.37912 -2.51509,1.78283 -0.60089,0.22931 -0.24814,-0.61977 0.25425,-1.08675 5.01018,-4.08991 10.09424,-7.05104 13.89631,-13.08964 l 0.79375,1.5875 0.22634,-3.62873 1.07746,1.13327 0.68006,-3.458189 1.07745,1.133779 0.68058,-3.797709 2.32441,2.38022 -1.98438,-4.76146 c 0,0 3.62828,3.23131 3.45819,2.83445 -0.17008,-0.39687 -2.0407,-4.47932 -2.0407,-4.47932 l 5.04568,1.9849 -3.11815,-4.08192 4.27467,-1.29502 c 0.41844,-0.11045 1.20397,-0.57295 1.52859,-0.67437 -1.21915,1.42119 -2.51627,2.76865 -3.81527,4.11602 0.97503,1.27694 1.95102,2.55386 2.9254,3.83129 -1.45963,-0.57691 -2.92113,-1.14975 -4.38164,-1.72444 -0.32962,-0.37231 -0.66372,0.0683 -0.87747,0.32505 0.37082,0.81477 0.74011,1.63294 1.10639,2.44688 0.26013,0.5802 -0.51325,0.99103 -0.95808,0.63096 -0.56016,-0.38835 -1.09847,-0.82102 -1.59266,-1.29036 0.60008,1.39492 1.21083,2.790699 1.54202,4.279849 -1.09266,-0.78522 -2.04738,-1.730379 -2.96003,-2.713529 -0.24464,1.269379 -0.45887,2.545149 -0.68884,3.817349 -0.36534,-0.38302 -0.7298,-0.76775 -1.09451,-1.15137 -0.2066,1.04785 -0.41076,2.09702 -0.61908,3.14453 -0.42426,-0.0635 -0.74592,-0.34098 -0.99839,-0.67025 -0.0915,1.47801 -0.18422,2.95626 -0.2744,4.43436 -0.43291,-0.86816 -0.86687,-1.73576 -1.3007,-2.60346 -1.47035,2.20189 -5.08253,5.56564 -5.03483,5.58364 l 0.86906,2.55494 z"
       style="display:inline;fill:#000000;fill-opacity:1;stroke:#000000;stroke-width:0.1;stroke-linecap:round;stroke-dasharray:none;stroke-opacity:1;paint-order:stroke fill markers"
       id="path1-8-4"
       sodipodi:nodetypes="ccccccccccccccsccccccccccccccccccccccc" /><path
       id="path44-2"
       style="display:inline;fill:#000000;fill-opacity:1;stroke:#000000;stroke-width:0.2;stroke-linecap:round;stroke-dasharray:none;stroke-opacity:1;paint-order:stroke fill markers"
       d="m 78.161957,41.662957 c -3.21514,9.804309 2.87576,14.291008 8.59844,18.987988 l 7.70237,-9.673311 c -4.55398,-4.30392 -10.68154,-6.904608 -16.30081,-9.314677 z m 3.92172,6.573759 c 3.2272,0.92603 6.72378,1.50361 10.30066,1.264005 l 1.79111,1.533757 -4.115,5.252909 c -1.43993,-0.25324 -3.04422,-0.203577 -4.25968,-1.691369 l 2.10478,-0.447518 c -1.59745,-0.351623 -2.86534,-1.127503 -3.62769,-2.552816 l 2.01538,0.358118 c -1.77602,-0.586554 -2.86453,-2.376299 -4.20956,-3.717086 z"
       sodipodi:nodetypes="ccccccccccccc" /><path
       id="path43-8-2"
       style="display:inline;fill:none;fill-opacity:1;stroke:#000000;stroke-width:0.2;stroke-linecap:round;stroke-dasharray:none;stroke-opacity:1;paint-order:stroke fill markers"
       d="m 111.69969,30.79383 c 0.72093,2.071346 1.65236,4.130373 1.90818,6.343672 -0.004,0.43386 -0.95468,-0.38816 -1.3273,-0.443394 -3.11274,-1.472164 -6.63584,-2.385986 -9.95588,-2.790903 0.36945,0.614086 1.0556,1.050316 1.60901,1.481862 2.024,1.148724 3.79935,2.349329 5.67306,3.74213 -3.64762,-0.05829 -6.65087,-0.407706 -10.175583,0.577114 0.18508,0.458004 0.44372,0.541434 0.836953,0.609852 1.44431,0.184704 2.15994,0.567087 3.64614,0.774459 -2.88578,1.191289 -4.843713,1.857765 -7.726303,3.05677 -6.40898,-2.297574 -12.83227,-4.859758 -19.58789,-5.753906 -0.49803,0.04858 -1.20046,-0.417184 -1.50586,0.15625 -0.64778,0.970415 -1.01101,2.105423 -1.43631,3.18386 -1.20281,3.768392 -1.13254,8.330147 1.00022,11.687168 2.06412,3.511593 5.22306,6.264864 8.31877,8.852019 -6.351005,8.810838 -7.563397,8.945364 -9.49791,13.607031 -0.60114,0.51683 0.34262,0.442348 0.6956,0.546164 1.11094,0.200232 2.21776,0.422167 3.32588,0.63743 -0.58617,0.875058 -1.28741,2.078764 -1.87279,2.954358 1.70708,0.204062 3.41378,0.504803 5.1211,0.706826 -0.28384,0.86524 -0.52094,1.613538 -0.80479,2.478773 1.0703,0.171251 1.97705,0.388425 3.04723,0.560444 -4.5581,4.527839 -10.27809,7.046479 -14.57199,11.865849 -3.3093,3.71784 -5.22983,8.444712 -6.0578,13.300742 -0.0951,0.57821 -0.75521,0.71091 -1.22042,0.50612 -8.54673,-0.71048 -17.19208,-0.7347 -25.61905,1.10932 -5.96073,1.2687 -11.78714,3.69792 -16.84961,7.14453 -0.84247,0.57946 -1.93156,1.29182 -2.73576,1.92357 4.60585,5.65759 11.59,9.26015 18.67617,10.59163 8.07053,1.69403 16.33129,1.82054 24.72073,0.85763 4.55904,-0.19135 9.24678,-1.22632 13.87787,-1.38153 0.28521,1.08069 1.38532,1.01144 2.30012,1.13236 2.76385,0.51118 5.75623,0.87675 8.28001,2.20379 0.91127,-0.0314 1.89221,-0.41249 2.49003,-1.10552 1.18251,0.3996 2.97841,1.36143 4.3952,0.2425 0.33178,-0.30996 0.68897,-0.27615 1.30803,-0.33774 -0.23,0.80325 -0.47352,1.78192 -0.57021,2.61292 1.56522,1.15514 4.10042,1.33913 5.51887,-0.12344 0.47396,-0.39819 0.9729,-0.23309 1.26381,0.24794 1.17127,0.91027 3.082153,0.51539 4.118473,-0.4093 0.46358,-0.44559 0.95654,-0.36584 1.50895,-0.1235 0.90867,0.14075 1.80502,-0.28911 2.37556,-0.93098 0.82428,0.23698 1.73874,-0.60266 1.25353,-2.16755 -0.24842,-1.63527 -1.81249,-2.55216 -2.94349,-3.56873 1.15358,0.42454 2.323,-0.13084 2.69984,-1.5665 0.24427,-0.16494 0.61124,0.34681 0.95851,0.38039 1.00185,0.34969 2.55067,0.21503 3.17706,-0.77548 0.71632,0.0608 1.67138,-0.51931 1.48675,-1.62772 0.1005,-1.32901 -1.24684,-1.99848 -2.21865,-2.55522 -1.24372,-0.64096 -2.23146,-0.96929 -3.56176,-1.37977 1.97261,-0.87355 3.51984,-1.99368 4.64921,-3.84275 0.65483,-0.0574 0.56703,0.60165 0.72616,1.06194 0.88305,2.52176 1.71314,5.06421 2.57506,7.59418 -0.36791,1.45164 -1.65419,2.8462 -1.03711,4.40625 0.65919,1.53124 1.78238,1.83678 2.80508,2.01055 0.7485,-0.11011 1.55457,-0.53253 2.33786,-0.30171 1.09335,0.10123 2.71204,0.0214 3.52959,-0.8522 0.57326,-0.26993 0.84328,0.34438 1.37445,-0.0808 0.55847,-0.0789 0.97483,-0.81599 1.65551,-1.13843 0.48441,-0.22948 1.11285,-0.73594 1.40895,-1.17678 0.15386,-1.05742 0.01,-2.56354 -1.08147,-3.1907 -1.30842,-0.87702 -2.94542,-1.02818 -4.46167,-1.28001 -0.65071,-0.0591 -1.10621,-0.0677 -1.75853,-0.10125 2.07901,-6.84921 5.24162,-13.47309 8.53123,-19.8165 2.24614,-4.640072 3.62215,-9.632092 2.71435,-14.771842 -0.17302,-0.60499 0.21332,-0.76317 1.02772,-0.68272 5.74672,-1.05559 10.60599,-4.076601 15.32752,-7.464355 -0.31952,0.704117 -0.13975,2.494469 -0.24577,3.574868 1.77149,-2.349791 3.54043,-4.611082 5.42948,-6.86323 1.08596,-1.668569 1.63955,-3.923178 1.00351,-5.912882 -0.32088,-1.448227 -0.92662,-2.51404 -1.59393,-3.832091 1.37497,0.133159 2.75,0.199441 4.125,0.332291 -2.38278,-2.071035 -4.85685,-4.278539 -7.13086,-6.465885 -1.73363,-2.418781 -3.15862,-4.273727 -5.19459,-6.287726 6.60479,-4.328517 5.32489,-13.134497 4.03397,-19.798314 -6.23156,0.765484 -12.22796,3.300107 -17.77102,6.150494 -2.104,-0.854871 -3.85675,-1.259952 -6.02432,-1.933954 0.85119,-1.175242 3.56749,-2.724362 3.32083,-2.687963 -2.05947,-0.14182 -4.65418,0.188925 -6.51428,0.994963 0.56254,-1.793543 1.48038,-3.114061 2.17238,-4.80515 -0.77211,0.318577 -1.67161,0.67245 -2.38764,1.123423 -0.82187,0.577241 -1.51702,1.308667 -2.14705,2.086024 -0.47947,-1.243454 -0.68315,-2.679317 -1.54687,-3.71875 -0.4911,0.704646 0.40666,1.88951 -0.50196,2.388672 -0.71254,0.281479 -1.00113,-0.663361 -1.46389,-1.026471 -0.91147,-1.084244 -2.02358,-2.007975 -3.23923,-2.725482 z"
       sodipodi:nodetypes="ccccccccccccccccccccccccccccccccccccccccccccccccccccccccccscccccccccccccccccccccccccccc" /><path
       style="display:inline;fill:#000000;fill-opacity:1;stroke:#000000;stroke-width:0.499999;stroke-linecap:round;stroke-opacity:1;paint-order:stroke fill markers"
       d="m 19.901574,119.22032 c 5.02628,-3.52811 10.68175,-6.43255 16.71979,-7.59989 0,0 -4.93993,3.03996 -4.43327,3.16662 0.50666,0.12667 3.16663,1.26665 3.16663,1.26665 l -4.05329,2.02664 2.65997,2.40663 -3.67329,1.13999 2.5333,2.78663 -2.78663,-0.25333 2.40664,2.40664 c -4.64768,-1.04567 -8.90427,-3.26459 -12.53985,-7.34658 z"
       id="path3-5-2-3-1"
       sodipodi:nodetypes="ccscccccccc" /><path
       style="display:inline;fill:#000000;fill-opacity:1;stroke:#000000;stroke-width:0.486021;stroke-linecap:round;stroke-opacity:1;paint-order:stroke fill markers"
       d="m 48.397497,110.12811 8.988055,0.24625 -3.5706,0.98499 1.477487,1.23124 -3.939967,1.4775 1.969984,1.47749 -3.324352,0.73874 1.477488,1.60061 -3.201224,1.6006 1.600617,1.35437 -2.831856,1.96998 1.600616,1.23124 -1.723745,1.72374 2.216241,1.96998 -2.093112,0.24625 1.846854,1.99711 -9.48055,-1.50461 c 0,0 2.708728,-1.35436 1.600617,-1.72374 -1.108121,-0.36938 -3.324352,-1.47749 -3.324352,-1.47749 l 2.462489,-1.47748 -2.831856,-1.60062 4.432463,-0.36937 -3.939967,-1.96998 5.417454,-3.93997 -0.615615,-1.35436 c 0,0 4.186215,-0.61562 3.447471,-0.985 -0.738744,-0.36936 -0.861872,-1.35436 -0.861872,-1.35436 z"
       id="path4-4-2-1-6"
       sodipodi:nodetypes="cccccccccccccccccscccccccscc" /><path
       style="display:inline;fill:#000000;fill-opacity:1;stroke:#000000;stroke-width:0.499999;stroke-linecap:round;stroke-opacity:1;paint-order:stroke fill markers"
       d="m 61.344753,113.44321 -2.02664,2.1533 0.12666,0.63333 -2.65997,2.27996 2.15331,0.12667 -3.03996,2.27997 2.65997,0.37999 -3.16663,2.27997 1.89998,0.12667 -1.77332,2.02664 2.40664,0.12666 -2.5333,1.77332 7.21991,-0.75999 -1.39332,-2.15331 2.15331,-0.75999 -2.78663,-2.65997 c 0,0 2.27997,-0.37999 1.64664,-1.01332 -0.63332,-0.63332 -1.51998,-2.1533 -1.51998,-2.1533 l 2.02664,-0.63333 z"
       id="path5-1-8-9-8" /><path
       d="m 118.40943,71.1457 c 2.74567,-1.07302 7.65946,-0.910402 9.81654,0.095 1.76687,0.93077 3.08729,2.295229 1.67831,4.326949 -0.86554,1.28579 -1.52109,1.80785 -2.59663,2.196301 -2.1274,0.72832 -4.16003,0.41425 -6.20659,0.25333 -2.09438,-0.15392 -3.20902,-1.28759 -4.14828,-2.59663 -1.08364,-1.93266 -0.32533,-3.2694 1.45665,-4.27495 z"
       style="display:inline;fill:#000000;fill-opacity:1;stroke:#000000;stroke-width:0.4;stroke-linecap:round;stroke-dasharray:none;stroke-opacity:1;paint-order:stroke fill markers"
       id="path1-9-5"
       sodipodi:nodetypes="ccccccc" /><path
       id="path45-7"
       style="display:inline;fill:#000000;fill-opacity:1;stroke:#000000;stroke-width:0.18304;stroke-linecap:round;stroke-dasharray:none;stroke-opacity:1;paint-order:stroke fill markers"
       d="m 145.79991,37.09663 c -3.54791,2.590239 -6.72084,6.023896 -9.84622,9.564814 l 5.86734,6.470343 c 3.75648,-2.81568 5.46785,-7.759929 3.97888,-16.035157 z m -2.48816,6.795255 c -0.77412,0.445015 -1.52402,0.903487 -1.76787,1.65152 0.90297,-0.411166 1.69511,-0.572536 2.28952,-0.289441 -1.79904,0.777974 -2.63513,2.117317 -3.53572,3.419383 0.86546,-0.192644 1.72104,-0.334083 2.43471,0.232215 -1.06697,0.342528 -1.63197,0.776905 -2.08663,1.275057 0.701,-0.04267 1.24998,0.188271 1.56497,0.840421 -0.67,-0.207839 -1.34109,-0.407955 -2.08662,-0.08702 l -3.88382,-4.289127 0.6957,-0.956292 c 2.365,-1.270174 4.39159,-1.592875 6.37576,-1.796713 z" /><path
       d="m 100.70256,126.57639 c -1.990703,-4.94373 2.33125,-15.79379 3.30414,-19.38665 0.21022,-0.92225 0.65377,-1.89361 0.2579,-2.70611 -0.78033,-1.41123 -0.0126,-3.44286 -0.20884,-3.87602 -0.0988,-0.21821 -1.72171,1.11154 -2.52529,1.42594 0.0982,-0.7361 0.55239,-3.820757 0.8022,-4.527775 -1.00007,-0.07043 -1.99993,-0.141033 -2.999993,-0.211645 0.36432,-0.518013 0.727813,-1.036441 1.092823,-1.553957 -1.174883,-0.07296 -2.349793,-0.146141 -3.524673,-0.219121 0.42955,-0.491035 0.85865,-0.982376 1.28904,-1.47266 -1.21435,0.01962 -1.88471,-0.01465 -3.09902,0.0081 0.20403,-0.374909 0.20024,-0.455493 0.42609,-1.128327 -0.4591,3.62e-4 -2.2178,0.430468 -2.67667,0.413018 0.12908,-0.428623 1.46033,-2.593075 1.82167,-3.26957 l 0.84052,0.26071 -1.38529,2.102928 2.74862,-0.343402 -0.51534,1.259614 3.2065,-0.0575 -1.20261,1.374545 3.664833,0.228931 -1.08815,1.546019 3.26397,0.228931 -1.20261,3.435901 2.06135,-1.77542 0.11493,4.0657 0.97321,2.40477 c 0.61127,4.78582 -7.235933,15.79039 -4.75007,21.74502"
       style="display:inline;fill:#000000;fill-opacity:1;stroke:#000000;stroke-width:0.0904115;stroke-linecap:round;stroke-dasharray:none;stroke-opacity:1;paint-order:stroke fill markers"
       id="path1-98-6"
       sodipodi:nodetypes="cccscccccccccccccccccccccccc" /><path
       d="m 124.77903,124.74998 c 0.56429,0.44006 1.06522,0.90977 1.15807,1.57096 0.18978,0.67615 -0.22279,0.18531 -0.40411,0.19431 -0.48866,-0.32438 -0.8271,-0.74278 -1.1374,-1.4795 z m -3.13263,0.16175 c 0.0151,-1.7e-4 0.0309,0.002 0.047,0.007 1.44573,0.47188 3.11572,0.69413 3.03702,2.93677 -0.0533,-1.9421 -1.72358,-2.16465 -3.16931,-2.63653 -0.14979,-0.0952 -0.061,-0.30531 0.0853,-0.30696 z m -2.64893,0.5333 c 0.0238,-1.2e-4 0.0448,0.005 0.0584,0.015 1.53207,0.70205 3.14725,1.31917 3.27577,3.20963 -0.27556,-1.82508 -1.90055,-2.24733 -3.44268,-2.9869 -0.15229,-0.14376 0.005,-0.23722 0.10852,-0.23771 z m -2.04535,0.52555 c 0.0342,-0.001 0.0691,0.009 0.0925,0.0284 1.00112,0.94947 1.75876,2.39526 0.85731,3.92534 1.19559,-2.22324 -1.56959,-3.92889 -0.94983,-3.95376 z m 5.56761,0.41806 c 0.56429,0.44006 1.06522,0.90977 1.15807,1.57096 0.18978,0.67615 -0.22279,0.18531 -0.40411,0.19431 -0.48866,-0.32438 -0.82709,-0.74278 -1.13739,-1.4795 z m -6.48745,0.34003 c 0.35725,0.6864 0.63885,1.37348 0.43304,2.06551 -0.11719,0.75068 -0.30203,0.0834 -0.4842,0.0103 -0.33484,-0.53864 -0.48012,-1.10225 -0.45424,-1.96629 z m 3.6251,0.16743 c 0.52179,0.57141 0.97068,1.16296 0.94981,1.88464 0.0799,0.75557 -0.27076,0.15816 -0.46561,0.13436 -0.46213,-0.43438 -0.74687,-0.94173 -0.94412,-1.78335 z"
       style="display:inline;fill:#000000;fill-opacity:1;stroke:#000000;stroke-width:0.1;stroke-linecap:round;stroke-dasharray:none;stroke-opacity:1;paint-order:stroke fill markers"
       id="path1-2-1" /><path
       d="m 65.035307,105.92074 c 0.26422,0.71196 0.10824,1.44988 0.0423,2.18218 -0.26096,0.99544 0.53596,-0.14032 0.87436,-0.35355 -0.19755,2.29886 -0.39898,4.59784 -0.59803,6.89658 -0.30615,0.74412 0.68091,0.63782 1.12897,0.88377 0.12964,1.45172 0.2623,2.9035 0.39311,4.35513 -0.17585,0.82486 0.85274,0.46834 1.34242,0.64058 0.571,0.34049 0.97873,1.00682 1.48918,1.46793 0.90063,1.23064 2.49974,1.6625 3.39247,2.88912 -1.07933,-0.0157 -2.01625,-0.60767 -3.01693,-0.9414 -0.75641,-0.58605 -1.29199,-1.47842 -1.96303,-2.18289 -0.66938,-0.2557 -1.49217,-0.2369 -2.21982,-0.38539 -0.10545,-1.5294 -0.21511,-3.0588 -0.32231,-4.5881 0.0867,-0.71879 -0.95439,-0.51265 -1.41839,-0.77983 0.21558,-1.97749 0.4315,-3.95506 0.6473,-5.93253 -0.4873,0.35542 -0.97459,0.71094 -1.46229,1.06582 l 1.24406,-4.53983 c 0.14898,-0.22582 0.29764,-0.45177 0.44662,-0.67759 z"
       style="display:inline;fill:#000000;fill-opacity:1;stroke:#000000;stroke-width:0.1;stroke-linecap:round;stroke-dasharray:none;stroke-opacity:1;paint-order:stroke fill markers"
       id="path1-3-8" /><path
       d="m 134.67034,77.262342 c -0.16286,2.018486 -0.88313,3.532175 -3.18163,4.677161 -2.7165,0.754668 -5.47837,1.396767 -8.29273,1.085945 -4.10303,-0.337107 -7.86882,-2.848682 -10.14459,-6.362447 0.15388,0.321949 -1.04071,-0.705733 0.2739,-1.378443 3.52429,5.539337 9.62324,8.528812 17.96278,5.763865 1.82756,-0.781853 2.10667,-1.840154 2.57527,-3.202603 0.0826,-0.24014 0.14361,-0.489838 0.19757,-0.736815 0.0345,-0.158067 0.0536,-0.361408 0.11078,-0.710673 0.15639,-0.955016 0.77027,-2.081407 0.49865,0.86401 z m -18.64494,4.027522 c 5.01049,4.534647 9.97715,7.014167 14.79982,1.098306 -5.44069,7.21499 -11.13305,4.37319 -16.87545,-0.82386 z"
       style="display:inline;fill:#000000;fill-opacity:1;stroke:#000000;stroke-width:0.0981752;stroke-linecap:round;stroke-dasharray:none;stroke-opacity:1;paint-order:stroke fill markers"
       id="path1-6-4-2-9"
       sodipodi:nodetypes="ccccccsssccccc" /><path
       d="m 85.412267,127.43697 c 3.12709,0.0964 4.46246,0.88397 4.79144,2.95589 -0.79966,-1.9004 -2.67233,-2.64084 -4.79144,-2.95589 z m 4.9966,0.30827 c 0.53023,0.56357 0.98836,1.14877 0.97823,1.87068 0.0911,0.75432 -0.26885,0.16178 -0.46405,0.14108 -0.46855,-0.42745 -0.76073,-0.93029 -0.97049,-1.76888 z m -2.68201,1.15806 c 0.63294,0.44515 1.19923,0.92591 1.3348,1.63505 0.24125,0.72048 -0.22992,0.21251 -0.42529,0.23151 -0.54508,-0.32426 -0.93348,-0.75774 -1.30793,-1.53686 z m -4.39973,0.48576 c 0.72026,0.28281 1.38417,0.61584 1.68362,1.27279 0.40481,0.64298 -0.17331,0.26138 -0.35864,0.32608 -0.6063,-0.18613 -1.08589,-0.51598 -1.63401,-1.18442 z m 2.92026,1.7483 c 0.31367,-2.14403 -2.12117,-3.17417 -5.3239,-3.04697 0.37986,-0.0567 0.74889,-0.089 1.10329,-0.0977 2.48079,-0.0607 4.70752,1.01028 4.47207,2.86545 z"
       style="display:inline;fill:#000000;fill-opacity:1;stroke:#000000;stroke-width:0.1;stroke-linecap:round;stroke-dasharray:none;stroke-opacity:1;paint-order:stroke fill markers"
       id="path1-1-2"
       sodipodi:nodetypes="ccccccccccccccccccccccc" /><path
       d="m 99.323587,128.64981 c 0.004,7e-5 0.008,2.2e-4 0.0124,0 0.0166,-9.2e-4 0.0347,-0.001 0.0548,0 1.399953,0.68313 2.651103,1.69022 3.316593,4.14135 -0.0266,0.14143 -0.0739,0.2095 -0.16123,0.13849 -1.10973,-2.14705 -1.83641,-3.61087 -3.222543,-4.27984 z m -1.27744,0.1633 c 0.008,0.0152 0.0154,0.0321 0.0222,0.0501 -0.45674,1.12171 -1.28675,2.18384 -0.53434,3.9703 l -0.25528,-0.0765 c -1.07916,-2.02941 0.15966,-2.92986 0.7674,-3.94395 z m 7.651733,0.70538 c 0.41535,0.39414 0.77821,0.80726 0.80098,1.34101 0.0989,0.55346 -0.1913,0.13102 -0.33641,0.12402 -0.36407,-0.29618 -0.60157,-0.65584 -0.79168,-1.26659 z m -2.51613,0.84543 c 0.60836,0.47819 1.14826,0.98791 1.24592,1.70325 0.20259,0.73229 -0.24109,0.19978 -0.43718,0.20878 -0.52707,-0.35279 -0.89173,-0.80663 -1.22422,-1.60456 z m -3.923273,0.84439 c 0.63936,0.43587 1.212673,0.90832 1.358573,1.61541 0.25173,0.71689 -0.22713,0.21591 -0.4222,0.23771 -0.549753,-0.31627 -0.943853,-0.74417 -1.329633,-1.51774 z m -5.0736,0.27906 0.5147,0.0444 c 0.1395,0.76112 0.20702,1.50083 -0.19327,2.10168 -0.33286,0.68301 -0.31345,-0.01 -0.46612,-0.13333 -0.16156,-0.61331 -0.13424,-1.1946 0.14469,-2.01279 z"
       style="display:inline;fill:#000000;fill-opacity:1;stroke:#000000;stroke-width:0.1;stroke-linecap:round;stroke-dasharray:none;stroke-opacity:1;paint-order:stroke fill markers"
       id="path1-15-7"
       sodipodi:nodetypes="sccccsssccccscccccccccccccccccccsc" /><path
       d="m 101.0807,127.7124 c 2.5e-4,1.3e-4 0.001,8.8e-4 0.002,10e-4 10e-4,0.001 0.003,0.003 0.005,0.004 2.02983,0.79722 4.00723,2.44693 4.62039,3.7207 0.0797,0.16566 0.12854,0.54773 0.15916,0.72916 -1.30974,-1.60688 -3.01815,-3.19473 -5.01571,-4.41472 0.14696,0.0625 0.18898,0.007 0.22996,-0.0398 z"
       style="display:inline;fill:#000000;fill-opacity:1;stroke:#000000;stroke-width:0.1;stroke-linecap:round;stroke-dasharray:none;stroke-opacity:1;paint-order:stroke fill markers"
       id="path1-49-9"
       sodipodi:nodetypes="cccscccc" /><path
       d="m 107.03096,125.0128 c 0.0161,0.008 0.032,0.0162 0.0481,0.0243 -1.55595,-1.86575 -3.97223,-3.53491 -6.85798,-2.87941 2.89485,-0.70996 6.30308,0.73289 6.8616,2.88096 h -5.2e-4 -5.2e-4 -5.1e-4 l 0.003,0.004 m -6.41405,-4.44963 c 5.63076,-0.20383 11.38405,1.82167 10.50582,4.10104 0.79719,-2.10947 -4.9912,-4.03488 -10.50582,-4.10104 z m 10.85256,2.19677 c 0.24921,0.23803 0.46691,0.48743 0.47956,0.80873 0.0584,0.33329 -0.11579,0.0786 -0.20309,0.0739 -0.21853,-0.17896 -0.36013,-0.39583 -0.47335,-0.76378 z m -3.0489,0.0563 c 0.6497,0.42032 1.23441,0.87845 1.39733,1.58182 0.26895,0.71061 -0.22204,0.22206 -0.41652,0.24856 -0.55722,-0.3029 -0.96147,-0.72167 -1.3658,-1.4857 z m -4.76044,1.0201 c 0.72638,0.26672 1.39701,0.58493 1.71101,1.23506 0.41902,0.63382 -0.16703,0.26513 -0.35088,0.33383 -0.6103,-0.17259 -1.09752,-0.49165 -1.66037,-1.14773 z"
       style="display:inline;fill:#000000;fill-opacity:1;stroke:#000000;stroke-width:0.1;stroke-linecap:round;stroke-dasharray:none;stroke-opacity:1;paint-order:stroke fill markers"
       id="path1-44-5"
       sodipodi:nodetypes="cccccccccccccccccccccccccc" /><path
       d="m 88.455787,115.24693 0.22789,0.44339 -2.80018,2.62753 c -0.63989,3.18119 -0.98794,4.84079 -4.08727,6.28582 3.14104,-0.61085 7.983011,-0.56547 9.673031,1.01296 -2.02293,-1.51736 -10.512101,-0.65147 -13.653141,-0.0406 7.44017,-1.22846 7.27289,-7.49914 7.19209,-7.43122 z"
       style="display:inline;fill:#000000;fill-opacity:1;stroke:#000000;stroke-width:0.1;stroke-linecap:round;stroke-dasharray:none;stroke-opacity:1;paint-order:stroke fill markers"
       id="path1-63-4"
       sodipodi:nodetypes="ccccccsc" /><path
       style="display:inline;fill:#1a1a1a;fill-opacity:1;stroke:#000000;stroke-width:0.192;stroke-linecap:round;stroke-dasharray:none;paint-order:stroke fill markers"
       d="m 87.330977,109.42293 c 0.93475,6.89157 2.23879,11.36432 4.68469,18.06783 0.27002,0.48207 0.72348,0.14225 0.64479,-0.0413 -3.54147,-7.10244 -3.42145,-13.13647 -3.8938,-21.25346 l -1.3351,1.32359 0.0508,-5.98844 -1.3891,0.31341 2.54259,-3.411804 -1.28372,-0.55606 5.58523,-5.629866 c 0,0 -1.72408,-0.433798 -2.20537,-0.592104 -0.48131,-0.158308 1.96241,-2.539516 1.96241,-2.539516 l -0.19383,0.04904 c 0,0 -4.62671,3.125383 -4.14541,3.283689 0.48129,0.158307 2.20553,0.59162 2.20553,0.59162 l -5.58539,5.630351 1.28388,0.555575 -3.18701,4.418405 2.60112,-0.61108 -0.4031,9.33465 1.64642,-2.7536 z"
       id="path12-3"
       sodipodi:nodetypes="cccccccccccccccccccccc" /><path
       d="m 84.233247,75.311134 -0.35709,4.157369 2.87321,0.86403 c 4.52353,3.89185 11.88303,4.748335 18.113103,6.713285 8.2075,1.92638 16.04658,1.134122 24.71219,-0.749308 -8.16618,3.32968 -17.177,4.090072 -25.3845,2.163692 -6.230073,-1.96495 -13.589573,-2.821435 -18.113103,-6.713285 l -2.87321,-0.863514 0.35708,-4.157885 -2.93057,1.22163 c -2.02025,1.1579 -1.20757,0.519224 -2.45049,0.654224 1.02849,-0.78959 1.10255,-0.911224 3.1228,-2.069124 z"
       style="display:inline;fill:#000000;fill-opacity:1;stroke:#000000;stroke-width:0.1;stroke-linecap:round;stroke-dasharray:none;stroke-opacity:1;paint-order:stroke fill markers"
       id="path1-7-2" /><path
       d="m 150.7643,70.896757 0.15709,0.317294 -15.52722,2.77089 -0.18913,-0.30179 z m 2.0562,3.17035 0.10077,0.323494 -17.18086,0.195337 -0.13798,-0.313676 z m -17.21032,0.948262 11.66286,2.366264 0.0217,0.266134 -11.63598,-2.368848 z"
       style="display:inline;fill:#000000;fill-opacity:1;stroke:#000000;stroke-width:0.1;stroke-linecap:round;stroke-dasharray:none;stroke-opacity:1;paint-order:stroke fill markers"
       id="path1-37-3"
       sodipodi:nodetypes="ccccccccccccccc" /><path
       d="m 87.539747,126.19502 c 3.12709,0.0964 4.46246,0.88397 4.79144,2.95589 -0.79966,-1.9004 -2.67233,-2.64084 -4.79144,-2.95589 z"
       style="display:inline;fill:#000000;fill-opacity:1;stroke:#000000;stroke-width:0.1;stroke-linecap:round;stroke-dasharray:none;stroke-opacity:1;paint-order:stroke fill markers"
       id="path1-88-3" /><path
       id="path2"
       style="fill:#000000;fill-opacity:1;stroke:#000000;stroke-width:0.192;stroke-linecap:round;paint-order:stroke fill markers"
       d="M 112.05124,49.071838 C 92.103456,55.532169 84.352517,61.414163 77.820387,70.77694 c 9.43724,1.338832 18.68953,3.416711 28.979633,1.344104 7.63526,-2.890503 9.90514,-4.942703 10.4159,-6.720003 -1.6072,-8.93832 -2.75382,-16.465806 -5.16468,-16.329203 z m -4.08075,9.037658 c 1.36215,0.05416 2.72443,0.538067 4.08657,1.148767 2.33004,1.24496 3.51988,3.772794 3.94085,7.165454 -3.06117,2.5038 -8.71298,5.571641 -15.40526,-0.985469 0.67649,-2.74449 1.23105,-5.54477 4.9258,-6.89622 0.81728,-0.342719 1.63475,-0.465028 2.45204,-0.432532 z"
       sodipodi:nodetypes="cccccsccccs" /><path
       id="path1-77"
       style="display:inline;fill:#000000;fill-opacity:1;stroke:#000000;stroke-width:0.2;stroke-linecap:round;stroke-dasharray:none;stroke-opacity:1;paint-order:stroke fill markers"
       d="m 122.81314,48.426481 c -1.95327,-0.03301 -1.3809,10.834489 0.19313,18.075268 5.91728,3.258507 15.47428,4.469353 28.55949,3.695898 -0.51077,-3.412601 -1.45643,-6.608036 -3.52795,-9.240263 -7.1075,-6.96141 -19.36487,-12.43188 -25.22467,-12.530903 z m 8.11667,9.013289 c 3.76018,-0.0601 5.36883,3.255698 7.50601,5.742285 -1.59791,1.875432 -3.04528,3.916521 -5.73557,4.587833 -1.97375,0.782871 -4.52875,0.270749 -5.89111,-1.370459 -1.05965,-1.276464 -1.39778,-3.23575 -0.17984,-5.800162 0.61969,-1.252258 1.5022,-2.184037 2.54972,-2.914551 0.6328,-0.158638 1.21363,-0.236361 1.75079,-0.244946 z"
       sodipodi:nodetypes="scccsscccccs" /></g><g
     inkscape:label="Dwgs.User"
     inkscape:groupmode="layer"
     id="g10" /><g
     inkscape:label="Drill"
     inkscape:groupmode="layer"
     id="g11" /></svg>
