M48
; DRILL file {KiCad 8.0.1} date 2024-04-02T10:11:47+0200
; FORMAT={-:-/ absolute / inch / decimal}
; #@! TF.CreationDate,2024-04-02T10:11:47+02:00
; #@! TF.GenerationSoftware,Kicad,Pcbnew,8.0.1
; #@! TF.FileFunction,Plated,1,2,PTH
FMAT,2
INCH
; #@! TA.AperFunction,Plated,PTH,ComponentDrill
T1C0.0315
; #@! TA.AperFunction,Plated,PTH,ComponentDrill
T2C0.0354
; #@! TA.AperFunction,Plated,PTH,ComponentDrill
T3C0.0394
%
G90
G05
T1
X3.0Y-3.1969
X3.0039Y-2.6953
X3.0039Y-2.7953
X3.0039Y-2.8953
X3.0039Y-2.9953
X3.3Y-3.1969
X3.3039Y-2.6953
X3.3039Y-2.7953
X3.3039Y-2.8953
X3.3039Y-2.9953
X3.4685Y-2.7992
X3.4685Y-3.0332
X3.5157Y-3.2677
X3.5685Y-2.6992
X3.5685Y-2.9332
X3.6142Y-3.2677
X3.6685Y-2.7992
X3.6685Y-3.0332
X3.8244Y-3.5787
X3.8268Y-2.7598
X3.8268Y-2.9646
X3.8268Y-3.1693
X3.8268Y-3.374
X3.8315Y-2.5551
X4.2244Y-3.5787
X4.2268Y-2.7598
X4.2268Y-2.9646
X4.2268Y-3.1693
X4.2268Y-3.374
X4.2315Y-2.5551
T2
X3.3199Y-2.4094
X3.4199Y-2.4094
X3.5945Y-2.4488
X3.6945Y-2.4488
T3
X2.8701Y-3.3787
X2.8701Y-3.4787
X2.8701Y-3.5787
M30
