%TF.GenerationSoftware,KiCad,Pcbnew,8.0.1*%
%TF.CreationDate,2024-04-02T10:11:43+02:00*%
%TF.ProjectId,Fledermaus I,466c6564-6572-46d6-9175-7320492e6b69,rev?*%
%TF.SameCoordinates,Original*%
%TF.FileFunction,Copper,L1,Top*%
%TF.FilePolarity,Positive*%
%FSLAX46Y46*%
G04 Gerber Fmt 4.6, Leading zero omitted, Abs format (unit mm)*
G04 Created by KiCad (PCBNEW 8.0.1) date 2024-04-02 10:11:43*
%MOMM*%
%LPD*%
G01*
G04 APERTURE LIST*
%TA.AperFunction,ComponentPad*%
%ADD10R,1.500000X1.500000*%
%TD*%
%TA.AperFunction,ComponentPad*%
%ADD11C,1.500000*%
%TD*%
%TA.AperFunction,ComponentPad*%
%ADD12R,1.800000X1.800000*%
%TD*%
%TA.AperFunction,ComponentPad*%
%ADD13C,1.800000*%
%TD*%
%TA.AperFunction,ComponentPad*%
%ADD14C,2.000000*%
%TD*%
%TA.AperFunction,ComponentPad*%
%ADD15R,1.600000X1.600000*%
%TD*%
%TA.AperFunction,ComponentPad*%
%ADD16O,1.600000X1.600000*%
%TD*%
%TA.AperFunction,ComponentPad*%
%ADD17C,1.600000*%
%TD*%
%TA.AperFunction,Conductor*%
%ADD18C,0.250000*%
%TD*%
G04 APERTURE END LIST*
D10*
%TO.P,Q1,1,E*%
%TO.N,Net-(D1-K)*%
X88100000Y-71100000D03*
D11*
%TO.P,Q1,2,B*%
%TO.N,Net-(Q1-B)*%
X90640000Y-68560000D03*
%TO.P,Q1,3,C*%
%TO.N,Net-(Q1-C)*%
X93180000Y-71100000D03*
%TD*%
D12*
%TO.P,D1,1,K*%
%TO.N,Net-(D1-K)*%
X84325000Y-61200000D03*
D13*
%TO.P,D1,2,A*%
%TO.N,Net-(D1-A)*%
X86865000Y-61200000D03*
%TD*%
D10*
%TO.P,Q2,1,E*%
%TO.N,Net-(D1-A)*%
X88100000Y-77042385D03*
D11*
%TO.P,Q2,2,B*%
%TO.N,Net-(Q1-C)*%
X90640000Y-74502385D03*
%TO.P,Q2,3,C*%
%TO.N,Net-(Q2-C)*%
X93180000Y-77042385D03*
%TD*%
D12*
%TO.P,D2,1,K*%
%TO.N,Net-(D1-K)*%
X91300000Y-62200000D03*
D13*
%TO.P,D2,2,A*%
%TO.N,Net-(D1-A)*%
X93840000Y-62200000D03*
%TD*%
D14*
%TO.P,S1,1,A*%
%TO.N,Net-(S1-A-Pad1)*%
X72900000Y-90900000D03*
%TO.P,S1,2,E*%
%TO.N,Net-(S1-E)*%
X72900000Y-88360000D03*
%TO.P,S1,3,A*%
%TO.N,unconnected-(S1-A-Pad3)*%
X72900000Y-85820000D03*
%TD*%
D15*
%TO.P,D3,1,K*%
%TO.N,Net-(D3-K)*%
X83820000Y-81200000D03*
D16*
%TO.P,D3,2,A*%
%TO.N,Net-(D3-A)*%
X76200000Y-81200000D03*
%TD*%
D17*
%TO.P,R1off1,1*%
%TO.N,Net-(S1-E)*%
X107300000Y-90900000D03*
D16*
%TO.P,R1off1,2*%
%TO.N,Net-(D3-A)*%
X97140000Y-90900000D03*
%TD*%
D17*
%TO.P,R3,1*%
%TO.N,Net-(D3-K)*%
X107480000Y-64900000D03*
D16*
%TO.P,R3,2*%
%TO.N,Net-(Q1-B)*%
X97320000Y-64900000D03*
%TD*%
D15*
%TO.P,U1,1,GND*%
%TO.N,Net-(D1-K)*%
X83920000Y-68460000D03*
D16*
%TO.P,U1,2,TR*%
%TO.N,Net-(D3-K)*%
X83920000Y-71000000D03*
%TO.P,U1,3,Q*%
%TO.N,unconnected-(U1-Q-Pad3)*%
X83920000Y-73540000D03*
%TO.P,U1,4,R*%
%TO.N,Net-(S1-E)*%
X83920000Y-76080000D03*
%TO.P,U1,5,CV*%
%TO.N,unconnected-(U1-CV-Pad5)*%
X76300000Y-76080000D03*
%TO.P,U1,6,THR*%
%TO.N,Net-(D3-K)*%
X76300000Y-73540000D03*
%TO.P,U1,7,DIS*%
%TO.N,Net-(D3-A)*%
X76300000Y-71000000D03*
%TO.P,U1,8,VCC*%
%TO.N,Net-(S1-E)*%
X76300000Y-68460000D03*
%TD*%
D17*
%TO.P,R5,1*%
%TO.N,Net-(S1-E)*%
X107360000Y-75300000D03*
D16*
%TO.P,R5,2*%
%TO.N,Net-(Q1-C)*%
X97200000Y-75300000D03*
%TD*%
D17*
%TO.P,R2on2,1*%
%TO.N,Net-(D3-K)*%
X107360000Y-85700000D03*
D16*
%TO.P,R2on2,2*%
%TO.N,Net-(D3-A)*%
X97200000Y-85700000D03*
%TD*%
D15*
%TO.P,C1,1*%
%TO.N,Net-(D3-K)*%
X91800000Y-83000000D03*
D17*
%TO.P,C1,2*%
%TO.N,Net-(D1-K)*%
X89300000Y-83000000D03*
%TD*%
%TO.P,R4,1*%
%TO.N,Net-(Q1-B)*%
X107360000Y-70100000D03*
D16*
%TO.P,R4,2*%
%TO.N,Net-(D1-K)*%
X97200000Y-70100000D03*
%TD*%
D17*
%TO.P,R6,1*%
%TO.N,Net-(S1-E)*%
X107360000Y-80500000D03*
D16*
%TO.P,R6,2*%
%TO.N,Net-(Q2-C)*%
X97200000Y-80500000D03*
%TD*%
D18*
%TO.N,Net-(D1-K)*%
X99800000Y-81700000D02*
X99800000Y-72700000D01*
X96400000Y-84200000D02*
X97300000Y-84200000D01*
X89300000Y-83000000D02*
X90900000Y-84600000D01*
X96000000Y-84600000D02*
X96400000Y-84200000D01*
X97300000Y-84200000D02*
X99800000Y-81700000D01*
X90900000Y-84600000D02*
X96000000Y-84600000D01*
X99800000Y-72700000D02*
X97200000Y-70100000D01*
%TO.N,Net-(D1-A)*%
X86200000Y-61865000D02*
X86200000Y-75142385D01*
X86200000Y-75142385D02*
X88100000Y-77042385D01*
X86865000Y-61200000D02*
X86200000Y-61865000D01*
%TO.N,Net-(D3-A)*%
X75000000Y-80000000D02*
X76200000Y-81200000D01*
X95800000Y-87100000D02*
X97200000Y-85700000D01*
X74500000Y-80000000D02*
X75000000Y-80000000D01*
X76300000Y-71000000D02*
X75100000Y-71000000D01*
X75100000Y-71000000D02*
X74500000Y-71600000D01*
X74500000Y-71600000D02*
X74500000Y-80000000D01*
X82100000Y-87100000D02*
X95800000Y-87100000D01*
X76200000Y-81200000D02*
X82100000Y-87100000D01*
%TO.N,Net-(S1-E)*%
X78660000Y-68460000D02*
X79800000Y-69600000D01*
X76300000Y-68460000D02*
X78660000Y-68460000D01*
X79800000Y-74400000D02*
X81480000Y-76080000D01*
X107360000Y-75300000D02*
X101100000Y-81560000D01*
X101100000Y-87200000D02*
X99940000Y-88360000D01*
X81480000Y-76080000D02*
X83920000Y-76080000D01*
X101100000Y-81560000D02*
X101100000Y-87200000D01*
X79800000Y-69600000D02*
X79800000Y-74400000D01*
X99940000Y-88360000D02*
X72900000Y-88360000D01*
%TD*%
M02*
