%TF.GenerationSoftware,KiCad,Pcbnew,8.0.1*%
%TF.CreationDate,2024-04-02T10:11:43+02:00*%
%TF.ProjectId,Fledermaus I,466c6564-6572-46d6-9175-7320492e6b69,rev?*%
%TF.SameCoordinates,Original*%
%TF.FileFunction,Legend,Bot*%
%TF.FilePolarity,Positive*%
%FSLAX46Y46*%
G04 Gerber Fmt 4.6, Leading zero omitted, Abs format (unit mm)*
G04 Created by KiCad (PCBNEW 8.0.1) date 2024-04-02 10:11:43*
%MOMM*%
%LPD*%
G01*
G04 APERTURE LIST*
%ADD10C,0.150000*%
%ADD11C,0.050000*%
%ADD12C,0.120000*%
%ADD13C,0.010000*%
G04 APERTURE END LIST*
D10*
X51407506Y-54899819D02*
X51407506Y-55614104D01*
X51407506Y-55614104D02*
X51455125Y-55756961D01*
X51455125Y-55756961D02*
X51550363Y-55852200D01*
X51550363Y-55852200D02*
X51693220Y-55899819D01*
X51693220Y-55899819D02*
X51788458Y-55899819D01*
X50455125Y-55899819D02*
X50931315Y-55899819D01*
X50931315Y-55899819D02*
X50931315Y-54899819D01*
X49550363Y-55804580D02*
X49597982Y-55852200D01*
X49597982Y-55852200D02*
X49740839Y-55899819D01*
X49740839Y-55899819D02*
X49836077Y-55899819D01*
X49836077Y-55899819D02*
X49978934Y-55852200D01*
X49978934Y-55852200D02*
X50074172Y-55756961D01*
X50074172Y-55756961D02*
X50121791Y-55661723D01*
X50121791Y-55661723D02*
X50169410Y-55471247D01*
X50169410Y-55471247D02*
X50169410Y-55328390D01*
X50169410Y-55328390D02*
X50121791Y-55137914D01*
X50121791Y-55137914D02*
X50074172Y-55042676D01*
X50074172Y-55042676D02*
X49978934Y-54947438D01*
X49978934Y-54947438D02*
X49836077Y-54899819D01*
X49836077Y-54899819D02*
X49740839Y-54899819D01*
X49740839Y-54899819D02*
X49597982Y-54947438D01*
X49597982Y-54947438D02*
X49550363Y-54995057D01*
X48836077Y-54899819D02*
X48836077Y-55614104D01*
X48836077Y-55614104D02*
X48883696Y-55756961D01*
X48883696Y-55756961D02*
X48978934Y-55852200D01*
X48978934Y-55852200D02*
X49121791Y-55899819D01*
X49121791Y-55899819D02*
X49217029Y-55899819D01*
X47883696Y-55899819D02*
X48359886Y-55899819D01*
X48359886Y-55899819D02*
X48359886Y-54899819D01*
X46978934Y-55804580D02*
X47026553Y-55852200D01*
X47026553Y-55852200D02*
X47169410Y-55899819D01*
X47169410Y-55899819D02*
X47264648Y-55899819D01*
X47264648Y-55899819D02*
X47407505Y-55852200D01*
X47407505Y-55852200D02*
X47502743Y-55756961D01*
X47502743Y-55756961D02*
X47550362Y-55661723D01*
X47550362Y-55661723D02*
X47597981Y-55471247D01*
X47597981Y-55471247D02*
X47597981Y-55328390D01*
X47597981Y-55328390D02*
X47550362Y-55137914D01*
X47550362Y-55137914D02*
X47502743Y-55042676D01*
X47502743Y-55042676D02*
X47407505Y-54947438D01*
X47407505Y-54947438D02*
X47264648Y-54899819D01*
X47264648Y-54899819D02*
X47169410Y-54899819D01*
X47169410Y-54899819D02*
X47026553Y-54947438D01*
X47026553Y-54947438D02*
X46978934Y-54995057D01*
X46264648Y-54899819D02*
X46264648Y-55614104D01*
X46264648Y-55614104D02*
X46312267Y-55756961D01*
X46312267Y-55756961D02*
X46407505Y-55852200D01*
X46407505Y-55852200D02*
X46550362Y-55899819D01*
X46550362Y-55899819D02*
X46645600Y-55899819D01*
X45312267Y-55899819D02*
X45788457Y-55899819D01*
X45788457Y-55899819D02*
X45788457Y-54899819D01*
X44407505Y-55804580D02*
X44455124Y-55852200D01*
X44455124Y-55852200D02*
X44597981Y-55899819D01*
X44597981Y-55899819D02*
X44693219Y-55899819D01*
X44693219Y-55899819D02*
X44836076Y-55852200D01*
X44836076Y-55852200D02*
X44931314Y-55756961D01*
X44931314Y-55756961D02*
X44978933Y-55661723D01*
X44978933Y-55661723D02*
X45026552Y-55471247D01*
X45026552Y-55471247D02*
X45026552Y-55328390D01*
X45026552Y-55328390D02*
X44978933Y-55137914D01*
X44978933Y-55137914D02*
X44931314Y-55042676D01*
X44931314Y-55042676D02*
X44836076Y-54947438D01*
X44836076Y-54947438D02*
X44693219Y-54899819D01*
X44693219Y-54899819D02*
X44597981Y-54899819D01*
X44597981Y-54899819D02*
X44455124Y-54947438D01*
X44455124Y-54947438D02*
X44407505Y-54995057D01*
X43693219Y-54899819D02*
X43693219Y-55614104D01*
X43693219Y-55614104D02*
X43740838Y-55756961D01*
X43740838Y-55756961D02*
X43836076Y-55852200D01*
X43836076Y-55852200D02*
X43978933Y-55899819D01*
X43978933Y-55899819D02*
X44074171Y-55899819D01*
X42740838Y-55899819D02*
X43217028Y-55899819D01*
X43217028Y-55899819D02*
X43217028Y-54899819D01*
X41836076Y-55804580D02*
X41883695Y-55852200D01*
X41883695Y-55852200D02*
X42026552Y-55899819D01*
X42026552Y-55899819D02*
X42121790Y-55899819D01*
X42121790Y-55899819D02*
X42264647Y-55852200D01*
X42264647Y-55852200D02*
X42359885Y-55756961D01*
X42359885Y-55756961D02*
X42407504Y-55661723D01*
X42407504Y-55661723D02*
X42455123Y-55471247D01*
X42455123Y-55471247D02*
X42455123Y-55328390D01*
X42455123Y-55328390D02*
X42407504Y-55137914D01*
X42407504Y-55137914D02*
X42359885Y-55042676D01*
X42359885Y-55042676D02*
X42264647Y-54947438D01*
X42264647Y-54947438D02*
X42121790Y-54899819D01*
X42121790Y-54899819D02*
X42026552Y-54899819D01*
X42026552Y-54899819D02*
X41883695Y-54947438D01*
X41883695Y-54947438D02*
X41836076Y-54995057D01*
X89663220Y-62669819D02*
X89663220Y-61669819D01*
X89091792Y-62669819D02*
X89520363Y-62098390D01*
X89091792Y-61669819D02*
X89663220Y-62241247D01*
X82763220Y-61769819D02*
X82763220Y-60769819D01*
X82191792Y-61769819D02*
X82620363Y-61198390D01*
X82191792Y-60769819D02*
X82763220Y-61341247D01*
X90745238Y-71450057D02*
X90840476Y-71402438D01*
X90840476Y-71402438D02*
X90935714Y-71307200D01*
X90935714Y-71307200D02*
X91078571Y-71164342D01*
X91078571Y-71164342D02*
X91173809Y-71116723D01*
X91173809Y-71116723D02*
X91269047Y-71116723D01*
X91221428Y-71354819D02*
X91316666Y-71307200D01*
X91316666Y-71307200D02*
X91411904Y-71211961D01*
X91411904Y-71211961D02*
X91459523Y-71021485D01*
X91459523Y-71021485D02*
X91459523Y-70688152D01*
X91459523Y-70688152D02*
X91411904Y-70497676D01*
X91411904Y-70497676D02*
X91316666Y-70402438D01*
X91316666Y-70402438D02*
X91221428Y-70354819D01*
X91221428Y-70354819D02*
X91030952Y-70354819D01*
X91030952Y-70354819D02*
X90935714Y-70402438D01*
X90935714Y-70402438D02*
X90840476Y-70497676D01*
X90840476Y-70497676D02*
X90792857Y-70688152D01*
X90792857Y-70688152D02*
X90792857Y-71021485D01*
X90792857Y-71021485D02*
X90840476Y-71211961D01*
X90840476Y-71211961D02*
X90935714Y-71307200D01*
X90935714Y-71307200D02*
X91030952Y-71354819D01*
X91030952Y-71354819D02*
X91221428Y-71354819D01*
X89840476Y-71354819D02*
X90411904Y-71354819D01*
X90126190Y-71354819D02*
X90126190Y-70354819D01*
X90126190Y-70354819D02*
X90221428Y-70497676D01*
X90221428Y-70497676D02*
X90316666Y-70592914D01*
X90316666Y-70592914D02*
X90411904Y-70640533D01*
X86138094Y-59454819D02*
X86138094Y-58454819D01*
X86138094Y-58454819D02*
X85899999Y-58454819D01*
X85899999Y-58454819D02*
X85757142Y-58502438D01*
X85757142Y-58502438D02*
X85661904Y-58597676D01*
X85661904Y-58597676D02*
X85614285Y-58692914D01*
X85614285Y-58692914D02*
X85566666Y-58883390D01*
X85566666Y-58883390D02*
X85566666Y-59026247D01*
X85566666Y-59026247D02*
X85614285Y-59216723D01*
X85614285Y-59216723D02*
X85661904Y-59311961D01*
X85661904Y-59311961D02*
X85757142Y-59407200D01*
X85757142Y-59407200D02*
X85899999Y-59454819D01*
X85899999Y-59454819D02*
X86138094Y-59454819D01*
X84614285Y-59454819D02*
X85185713Y-59454819D01*
X84899999Y-59454819D02*
X84899999Y-58454819D01*
X84899999Y-58454819D02*
X84995237Y-58597676D01*
X84995237Y-58597676D02*
X85090475Y-58692914D01*
X85090475Y-58692914D02*
X85185713Y-58740533D01*
X90795238Y-77450057D02*
X90890476Y-77402438D01*
X90890476Y-77402438D02*
X90985714Y-77307200D01*
X90985714Y-77307200D02*
X91128571Y-77164342D01*
X91128571Y-77164342D02*
X91223809Y-77116723D01*
X91223809Y-77116723D02*
X91319047Y-77116723D01*
X91271428Y-77354819D02*
X91366666Y-77307200D01*
X91366666Y-77307200D02*
X91461904Y-77211961D01*
X91461904Y-77211961D02*
X91509523Y-77021485D01*
X91509523Y-77021485D02*
X91509523Y-76688152D01*
X91509523Y-76688152D02*
X91461904Y-76497676D01*
X91461904Y-76497676D02*
X91366666Y-76402438D01*
X91366666Y-76402438D02*
X91271428Y-76354819D01*
X91271428Y-76354819D02*
X91080952Y-76354819D01*
X91080952Y-76354819D02*
X90985714Y-76402438D01*
X90985714Y-76402438D02*
X90890476Y-76497676D01*
X90890476Y-76497676D02*
X90842857Y-76688152D01*
X90842857Y-76688152D02*
X90842857Y-77021485D01*
X90842857Y-77021485D02*
X90890476Y-77211961D01*
X90890476Y-77211961D02*
X90985714Y-77307200D01*
X90985714Y-77307200D02*
X91080952Y-77354819D01*
X91080952Y-77354819D02*
X91271428Y-77354819D01*
X90461904Y-76450057D02*
X90414285Y-76402438D01*
X90414285Y-76402438D02*
X90319047Y-76354819D01*
X90319047Y-76354819D02*
X90080952Y-76354819D01*
X90080952Y-76354819D02*
X89985714Y-76402438D01*
X89985714Y-76402438D02*
X89938095Y-76450057D01*
X89938095Y-76450057D02*
X89890476Y-76545295D01*
X89890476Y-76545295D02*
X89890476Y-76640533D01*
X89890476Y-76640533D02*
X89938095Y-76783390D01*
X89938095Y-76783390D02*
X90509523Y-77354819D01*
X90509523Y-77354819D02*
X89890476Y-77354819D01*
X93138094Y-60454819D02*
X93138094Y-59454819D01*
X93138094Y-59454819D02*
X92899999Y-59454819D01*
X92899999Y-59454819D02*
X92757142Y-59502438D01*
X92757142Y-59502438D02*
X92661904Y-59597676D01*
X92661904Y-59597676D02*
X92614285Y-59692914D01*
X92614285Y-59692914D02*
X92566666Y-59883390D01*
X92566666Y-59883390D02*
X92566666Y-60026247D01*
X92566666Y-60026247D02*
X92614285Y-60216723D01*
X92614285Y-60216723D02*
X92661904Y-60311961D01*
X92661904Y-60311961D02*
X92757142Y-60407200D01*
X92757142Y-60407200D02*
X92899999Y-60454819D01*
X92899999Y-60454819D02*
X93138094Y-60454819D01*
X92185713Y-59550057D02*
X92138094Y-59502438D01*
X92138094Y-59502438D02*
X92042856Y-59454819D01*
X92042856Y-59454819D02*
X91804761Y-59454819D01*
X91804761Y-59454819D02*
X91709523Y-59502438D01*
X91709523Y-59502438D02*
X91661904Y-59550057D01*
X91661904Y-59550057D02*
X91614285Y-59645295D01*
X91614285Y-59645295D02*
X91614285Y-59740533D01*
X91614285Y-59740533D02*
X91661904Y-59883390D01*
X91661904Y-59883390D02*
X92233332Y-60454819D01*
X92233332Y-60454819D02*
X91614285Y-60454819D01*
X76407200Y-87458095D02*
X76454819Y-87600952D01*
X76454819Y-87600952D02*
X76454819Y-87839047D01*
X76454819Y-87839047D02*
X76407200Y-87934285D01*
X76407200Y-87934285D02*
X76359580Y-87981904D01*
X76359580Y-87981904D02*
X76264342Y-88029523D01*
X76264342Y-88029523D02*
X76169104Y-88029523D01*
X76169104Y-88029523D02*
X76073866Y-87981904D01*
X76073866Y-87981904D02*
X76026247Y-87934285D01*
X76026247Y-87934285D02*
X75978628Y-87839047D01*
X75978628Y-87839047D02*
X75931009Y-87648571D01*
X75931009Y-87648571D02*
X75883390Y-87553333D01*
X75883390Y-87553333D02*
X75835771Y-87505714D01*
X75835771Y-87505714D02*
X75740533Y-87458095D01*
X75740533Y-87458095D02*
X75645295Y-87458095D01*
X75645295Y-87458095D02*
X75550057Y-87505714D01*
X75550057Y-87505714D02*
X75502438Y-87553333D01*
X75502438Y-87553333D02*
X75454819Y-87648571D01*
X75454819Y-87648571D02*
X75454819Y-87886666D01*
X75454819Y-87886666D02*
X75502438Y-88029523D01*
X76454819Y-88981904D02*
X76454819Y-88410476D01*
X76454819Y-88696190D02*
X75454819Y-88696190D01*
X75454819Y-88696190D02*
X75597676Y-88600952D01*
X75597676Y-88600952D02*
X75692914Y-88505714D01*
X75692914Y-88505714D02*
X75740533Y-88410476D01*
X80338094Y-81654819D02*
X80338094Y-80654819D01*
X80338094Y-80654819D02*
X80099999Y-80654819D01*
X80099999Y-80654819D02*
X79957142Y-80702438D01*
X79957142Y-80702438D02*
X79861904Y-80797676D01*
X79861904Y-80797676D02*
X79814285Y-80892914D01*
X79814285Y-80892914D02*
X79766666Y-81083390D01*
X79766666Y-81083390D02*
X79766666Y-81226247D01*
X79766666Y-81226247D02*
X79814285Y-81416723D01*
X79814285Y-81416723D02*
X79861904Y-81511961D01*
X79861904Y-81511961D02*
X79957142Y-81607200D01*
X79957142Y-81607200D02*
X80099999Y-81654819D01*
X80099999Y-81654819D02*
X80338094Y-81654819D01*
X79433332Y-80654819D02*
X78814285Y-80654819D01*
X78814285Y-80654819D02*
X79147618Y-81035771D01*
X79147618Y-81035771D02*
X79004761Y-81035771D01*
X79004761Y-81035771D02*
X78909523Y-81083390D01*
X78909523Y-81083390D02*
X78861904Y-81131009D01*
X78861904Y-81131009D02*
X78814285Y-81226247D01*
X78814285Y-81226247D02*
X78814285Y-81464342D01*
X78814285Y-81464342D02*
X78861904Y-81559580D01*
X78861904Y-81559580D02*
X78909523Y-81607200D01*
X78909523Y-81607200D02*
X79004761Y-81654819D01*
X79004761Y-81654819D02*
X79290475Y-81654819D01*
X79290475Y-81654819D02*
X79385713Y-81607200D01*
X79385713Y-81607200D02*
X79433332Y-81559580D01*
X82152857Y-83774819D02*
X82724285Y-83774819D01*
X82438571Y-83774819D02*
X82438571Y-82774819D01*
X82438571Y-82774819D02*
X82533809Y-82917676D01*
X82533809Y-82917676D02*
X82629047Y-83012914D01*
X82629047Y-83012914D02*
X82724285Y-83060533D01*
X81724285Y-83774819D02*
X81724285Y-82774819D01*
X81724285Y-82774819D02*
X81152857Y-83774819D01*
X81152857Y-83774819D02*
X81152857Y-82774819D01*
X80248095Y-83108152D02*
X80248095Y-83774819D01*
X80486190Y-82727200D02*
X80724285Y-83441485D01*
X80724285Y-83441485D02*
X80105238Y-83441485D01*
X79200476Y-83774819D02*
X79771904Y-83774819D01*
X79486190Y-83774819D02*
X79486190Y-82774819D01*
X79486190Y-82774819D02*
X79581428Y-82917676D01*
X79581428Y-82917676D02*
X79676666Y-83012914D01*
X79676666Y-83012914D02*
X79771904Y-83060533D01*
X78343333Y-83108152D02*
X78343333Y-83774819D01*
X78581428Y-82727200D02*
X78819523Y-83441485D01*
X78819523Y-83441485D02*
X78200476Y-83441485D01*
X77676666Y-83203390D02*
X77771904Y-83155771D01*
X77771904Y-83155771D02*
X77819523Y-83108152D01*
X77819523Y-83108152D02*
X77867142Y-83012914D01*
X77867142Y-83012914D02*
X77867142Y-82965295D01*
X77867142Y-82965295D02*
X77819523Y-82870057D01*
X77819523Y-82870057D02*
X77771904Y-82822438D01*
X77771904Y-82822438D02*
X77676666Y-82774819D01*
X77676666Y-82774819D02*
X77486190Y-82774819D01*
X77486190Y-82774819D02*
X77390952Y-82822438D01*
X77390952Y-82822438D02*
X77343333Y-82870057D01*
X77343333Y-82870057D02*
X77295714Y-82965295D01*
X77295714Y-82965295D02*
X77295714Y-83012914D01*
X77295714Y-83012914D02*
X77343333Y-83108152D01*
X77343333Y-83108152D02*
X77390952Y-83155771D01*
X77390952Y-83155771D02*
X77486190Y-83203390D01*
X77486190Y-83203390D02*
X77676666Y-83203390D01*
X77676666Y-83203390D02*
X77771904Y-83251009D01*
X77771904Y-83251009D02*
X77819523Y-83298628D01*
X77819523Y-83298628D02*
X77867142Y-83393866D01*
X77867142Y-83393866D02*
X77867142Y-83584342D01*
X77867142Y-83584342D02*
X77819523Y-83679580D01*
X77819523Y-83679580D02*
X77771904Y-83727200D01*
X77771904Y-83727200D02*
X77676666Y-83774819D01*
X77676666Y-83774819D02*
X77486190Y-83774819D01*
X77486190Y-83774819D02*
X77390952Y-83727200D01*
X77390952Y-83727200D02*
X77343333Y-83679580D01*
X77343333Y-83679580D02*
X77295714Y-83584342D01*
X77295714Y-83584342D02*
X77295714Y-83393866D01*
X77295714Y-83393866D02*
X77343333Y-83298628D01*
X77343333Y-83298628D02*
X77390952Y-83251009D01*
X77390952Y-83251009D02*
X77486190Y-83203390D01*
X84081904Y-79854819D02*
X84081904Y-78854819D01*
X83510476Y-79854819D02*
X83939047Y-79283390D01*
X83510476Y-78854819D02*
X84081904Y-79426247D01*
D11*
X88755714Y-103800019D02*
X88755714Y-104609542D01*
X88755714Y-104609542D02*
X88712857Y-104704780D01*
X88712857Y-104704780D02*
X88670000Y-104752400D01*
X88670000Y-104752400D02*
X88584285Y-104800019D01*
X88584285Y-104800019D02*
X88412857Y-104800019D01*
X88412857Y-104800019D02*
X88327142Y-104752400D01*
X88327142Y-104752400D02*
X88284285Y-104704780D01*
X88284285Y-104704780D02*
X88241428Y-104609542D01*
X88241428Y-104609542D02*
X88241428Y-103800019D01*
X87855714Y-103895257D02*
X87812857Y-103847638D01*
X87812857Y-103847638D02*
X87727143Y-103800019D01*
X87727143Y-103800019D02*
X87512857Y-103800019D01*
X87512857Y-103800019D02*
X87427143Y-103847638D01*
X87427143Y-103847638D02*
X87384285Y-103895257D01*
X87384285Y-103895257D02*
X87341428Y-103990495D01*
X87341428Y-103990495D02*
X87341428Y-104085733D01*
X87341428Y-104085733D02*
X87384285Y-104228590D01*
X87384285Y-104228590D02*
X87898571Y-104800019D01*
X87898571Y-104800019D02*
X87341428Y-104800019D01*
X96848570Y-100156209D02*
X96719998Y-100203828D01*
X96719998Y-100203828D02*
X96677141Y-100251447D01*
X96677141Y-100251447D02*
X96634284Y-100346685D01*
X96634284Y-100346685D02*
X96634284Y-100489542D01*
X96634284Y-100489542D02*
X96677141Y-100584780D01*
X96677141Y-100584780D02*
X96719998Y-100632400D01*
X96719998Y-100632400D02*
X96805713Y-100680019D01*
X96805713Y-100680019D02*
X97148570Y-100680019D01*
X97148570Y-100680019D02*
X97148570Y-99680019D01*
X97148570Y-99680019D02*
X96848570Y-99680019D01*
X96848570Y-99680019D02*
X96762856Y-99727638D01*
X96762856Y-99727638D02*
X96719998Y-99775257D01*
X96719998Y-99775257D02*
X96677141Y-99870495D01*
X96677141Y-99870495D02*
X96677141Y-99965733D01*
X96677141Y-99965733D02*
X96719998Y-100060971D01*
X96719998Y-100060971D02*
X96762856Y-100108590D01*
X96762856Y-100108590D02*
X96848570Y-100156209D01*
X96848570Y-100156209D02*
X97148570Y-100156209D01*
X96291427Y-100394304D02*
X95862856Y-100394304D01*
X96377141Y-100680019D02*
X96077141Y-99680019D01*
X96077141Y-99680019D02*
X95777141Y-100680019D01*
X95605712Y-99680019D02*
X95091427Y-99680019D01*
X95348569Y-100680019D02*
X95348569Y-99680019D01*
X95005713Y-100775257D02*
X94319998Y-100775257D01*
X94105713Y-100680019D02*
X94105713Y-99680019D01*
X94105713Y-100156209D02*
X93591427Y-100156209D01*
X93591427Y-100680019D02*
X93591427Y-99680019D01*
X92734284Y-100680019D02*
X93162856Y-100680019D01*
X93162856Y-100680019D02*
X93162856Y-99680019D01*
X92434285Y-100680019D02*
X92434285Y-99680019D01*
X92434285Y-99680019D02*
X92219999Y-99680019D01*
X92219999Y-99680019D02*
X92091428Y-99727638D01*
X92091428Y-99727638D02*
X92005713Y-99822876D01*
X92005713Y-99822876D02*
X91962856Y-99918114D01*
X91962856Y-99918114D02*
X91919999Y-100108590D01*
X91919999Y-100108590D02*
X91919999Y-100251447D01*
X91919999Y-100251447D02*
X91962856Y-100441923D01*
X91962856Y-100441923D02*
X92005713Y-100537161D01*
X92005713Y-100537161D02*
X92091428Y-100632400D01*
X92091428Y-100632400D02*
X92219999Y-100680019D01*
X92219999Y-100680019D02*
X92434285Y-100680019D01*
X91748571Y-100775257D02*
X91062856Y-100775257D01*
X90891428Y-100632400D02*
X90762857Y-100680019D01*
X90762857Y-100680019D02*
X90548571Y-100680019D01*
X90548571Y-100680019D02*
X90462857Y-100632400D01*
X90462857Y-100632400D02*
X90419999Y-100584780D01*
X90419999Y-100584780D02*
X90377142Y-100489542D01*
X90377142Y-100489542D02*
X90377142Y-100394304D01*
X90377142Y-100394304D02*
X90419999Y-100299066D01*
X90419999Y-100299066D02*
X90462857Y-100251447D01*
X90462857Y-100251447D02*
X90548571Y-100203828D01*
X90548571Y-100203828D02*
X90719999Y-100156209D01*
X90719999Y-100156209D02*
X90805714Y-100108590D01*
X90805714Y-100108590D02*
X90848571Y-100060971D01*
X90848571Y-100060971D02*
X90891428Y-99965733D01*
X90891428Y-99965733D02*
X90891428Y-99870495D01*
X90891428Y-99870495D02*
X90848571Y-99775257D01*
X90848571Y-99775257D02*
X90805714Y-99727638D01*
X90805714Y-99727638D02*
X90719999Y-99680019D01*
X90719999Y-99680019D02*
X90505714Y-99680019D01*
X90505714Y-99680019D02*
X90377142Y-99727638D01*
X89991428Y-100680019D02*
X89991428Y-99680019D01*
X89991428Y-99680019D02*
X89691428Y-100394304D01*
X89691428Y-100394304D02*
X89391428Y-99680019D01*
X89391428Y-99680019D02*
X89391428Y-100680019D01*
X88962857Y-100680019D02*
X88962857Y-99680019D01*
X88962857Y-99680019D02*
X88748571Y-99680019D01*
X88748571Y-99680019D02*
X88620000Y-99727638D01*
X88620000Y-99727638D02*
X88534285Y-99822876D01*
X88534285Y-99822876D02*
X88491428Y-99918114D01*
X88491428Y-99918114D02*
X88448571Y-100108590D01*
X88448571Y-100108590D02*
X88448571Y-100251447D01*
X88448571Y-100251447D02*
X88491428Y-100441923D01*
X88491428Y-100441923D02*
X88534285Y-100537161D01*
X88534285Y-100537161D02*
X88620000Y-100632400D01*
X88620000Y-100632400D02*
X88748571Y-100680019D01*
X88748571Y-100680019D02*
X88962857Y-100680019D01*
D10*
X103906667Y-91304819D02*
X104240000Y-90828628D01*
X104478095Y-91304819D02*
X104478095Y-90304819D01*
X104478095Y-90304819D02*
X104097143Y-90304819D01*
X104097143Y-90304819D02*
X104001905Y-90352438D01*
X104001905Y-90352438D02*
X103954286Y-90400057D01*
X103954286Y-90400057D02*
X103906667Y-90495295D01*
X103906667Y-90495295D02*
X103906667Y-90638152D01*
X103906667Y-90638152D02*
X103954286Y-90733390D01*
X103954286Y-90733390D02*
X104001905Y-90781009D01*
X104001905Y-90781009D02*
X104097143Y-90828628D01*
X104097143Y-90828628D02*
X104478095Y-90828628D01*
X102954286Y-91304819D02*
X103525714Y-91304819D01*
X103240000Y-91304819D02*
X103240000Y-90304819D01*
X103240000Y-90304819D02*
X103335238Y-90447676D01*
X103335238Y-90447676D02*
X103430476Y-90542914D01*
X103430476Y-90542914D02*
X103525714Y-90590533D01*
X102382857Y-91304819D02*
X102478095Y-91257200D01*
X102478095Y-91257200D02*
X102525714Y-91209580D01*
X102525714Y-91209580D02*
X102573333Y-91114342D01*
X102573333Y-91114342D02*
X102573333Y-90828628D01*
X102573333Y-90828628D02*
X102525714Y-90733390D01*
X102525714Y-90733390D02*
X102478095Y-90685771D01*
X102478095Y-90685771D02*
X102382857Y-90638152D01*
X102382857Y-90638152D02*
X102240000Y-90638152D01*
X102240000Y-90638152D02*
X102144762Y-90685771D01*
X102144762Y-90685771D02*
X102097143Y-90733390D01*
X102097143Y-90733390D02*
X102049524Y-90828628D01*
X102049524Y-90828628D02*
X102049524Y-91114342D01*
X102049524Y-91114342D02*
X102097143Y-91209580D01*
X102097143Y-91209580D02*
X102144762Y-91257200D01*
X102144762Y-91257200D02*
X102240000Y-91304819D01*
X102240000Y-91304819D02*
X102382857Y-91304819D01*
X101763809Y-90638152D02*
X101382857Y-90638152D01*
X101620952Y-91304819D02*
X101620952Y-90447676D01*
X101620952Y-90447676D02*
X101573333Y-90352438D01*
X101573333Y-90352438D02*
X101478095Y-90304819D01*
X101478095Y-90304819D02*
X101382857Y-90304819D01*
X101192380Y-90638152D02*
X100811428Y-90638152D01*
X101049523Y-91304819D02*
X101049523Y-90447676D01*
X101049523Y-90447676D02*
X101001904Y-90352438D01*
X101001904Y-90352438D02*
X100906666Y-90304819D01*
X100906666Y-90304819D02*
X100811428Y-90304819D01*
X99954285Y-91304819D02*
X100525713Y-91304819D01*
X100239999Y-91304819D02*
X100239999Y-90304819D01*
X100239999Y-90304819D02*
X100335237Y-90447676D01*
X100335237Y-90447676D02*
X100430475Y-90542914D01*
X100430475Y-90542914D02*
X100525713Y-90590533D01*
X102910476Y-93724819D02*
X103481904Y-93724819D01*
X103196190Y-93724819D02*
X103196190Y-92724819D01*
X103196190Y-92724819D02*
X103291428Y-92867676D01*
X103291428Y-92867676D02*
X103386666Y-92962914D01*
X103386666Y-92962914D02*
X103481904Y-93010533D01*
X102529523Y-92820057D02*
X102481904Y-92772438D01*
X102481904Y-92772438D02*
X102386666Y-92724819D01*
X102386666Y-92724819D02*
X102148571Y-92724819D01*
X102148571Y-92724819D02*
X102053333Y-92772438D01*
X102053333Y-92772438D02*
X102005714Y-92820057D01*
X102005714Y-92820057D02*
X101958095Y-92915295D01*
X101958095Y-92915295D02*
X101958095Y-93010533D01*
X101958095Y-93010533D02*
X102005714Y-93153390D01*
X102005714Y-93153390D02*
X102577142Y-93724819D01*
X102577142Y-93724819D02*
X101958095Y-93724819D01*
X101529523Y-93724819D02*
X101529523Y-92724819D01*
X100958095Y-93724819D02*
X101386666Y-93153390D01*
X100958095Y-92724819D02*
X101529523Y-93296247D01*
X102566666Y-65354819D02*
X102899999Y-64878628D01*
X103138094Y-65354819D02*
X103138094Y-64354819D01*
X103138094Y-64354819D02*
X102757142Y-64354819D01*
X102757142Y-64354819D02*
X102661904Y-64402438D01*
X102661904Y-64402438D02*
X102614285Y-64450057D01*
X102614285Y-64450057D02*
X102566666Y-64545295D01*
X102566666Y-64545295D02*
X102566666Y-64688152D01*
X102566666Y-64688152D02*
X102614285Y-64783390D01*
X102614285Y-64783390D02*
X102661904Y-64831009D01*
X102661904Y-64831009D02*
X102757142Y-64878628D01*
X102757142Y-64878628D02*
X103138094Y-64878628D01*
X102233332Y-64354819D02*
X101614285Y-64354819D01*
X101614285Y-64354819D02*
X101947618Y-64735771D01*
X101947618Y-64735771D02*
X101804761Y-64735771D01*
X101804761Y-64735771D02*
X101709523Y-64783390D01*
X101709523Y-64783390D02*
X101661904Y-64831009D01*
X101661904Y-64831009D02*
X101614285Y-64926247D01*
X101614285Y-64926247D02*
X101614285Y-65164342D01*
X101614285Y-65164342D02*
X101661904Y-65259580D01*
X101661904Y-65259580D02*
X101709523Y-65307200D01*
X101709523Y-65307200D02*
X101804761Y-65354819D01*
X101804761Y-65354819D02*
X102090475Y-65354819D01*
X102090475Y-65354819D02*
X102185713Y-65307200D01*
X102185713Y-65307200D02*
X102233332Y-65259580D01*
X103519047Y-66724819D02*
X103995237Y-66724819D01*
X103995237Y-66724819D02*
X104042856Y-67201009D01*
X104042856Y-67201009D02*
X103995237Y-67153390D01*
X103995237Y-67153390D02*
X103899999Y-67105771D01*
X103899999Y-67105771D02*
X103661904Y-67105771D01*
X103661904Y-67105771D02*
X103566666Y-67153390D01*
X103566666Y-67153390D02*
X103519047Y-67201009D01*
X103519047Y-67201009D02*
X103471428Y-67296247D01*
X103471428Y-67296247D02*
X103471428Y-67534342D01*
X103471428Y-67534342D02*
X103519047Y-67629580D01*
X103519047Y-67629580D02*
X103566666Y-67677200D01*
X103566666Y-67677200D02*
X103661904Y-67724819D01*
X103661904Y-67724819D02*
X103899999Y-67724819D01*
X103899999Y-67724819D02*
X103995237Y-67677200D01*
X103995237Y-67677200D02*
X104042856Y-67629580D01*
X102614285Y-66724819D02*
X102804761Y-66724819D01*
X102804761Y-66724819D02*
X102899999Y-66772438D01*
X102899999Y-66772438D02*
X102947618Y-66820057D01*
X102947618Y-66820057D02*
X103042856Y-66962914D01*
X103042856Y-66962914D02*
X103090475Y-67153390D01*
X103090475Y-67153390D02*
X103090475Y-67534342D01*
X103090475Y-67534342D02*
X103042856Y-67629580D01*
X103042856Y-67629580D02*
X102995237Y-67677200D01*
X102995237Y-67677200D02*
X102899999Y-67724819D01*
X102899999Y-67724819D02*
X102709523Y-67724819D01*
X102709523Y-67724819D02*
X102614285Y-67677200D01*
X102614285Y-67677200D02*
X102566666Y-67629580D01*
X102566666Y-67629580D02*
X102519047Y-67534342D01*
X102519047Y-67534342D02*
X102519047Y-67296247D01*
X102519047Y-67296247D02*
X102566666Y-67201009D01*
X102566666Y-67201009D02*
X102614285Y-67153390D01*
X102614285Y-67153390D02*
X102709523Y-67105771D01*
X102709523Y-67105771D02*
X102899999Y-67105771D01*
X102899999Y-67105771D02*
X102995237Y-67153390D01*
X102995237Y-67153390D02*
X103042856Y-67201009D01*
X103042856Y-67201009D02*
X103090475Y-67296247D01*
X101899999Y-66724819D02*
X101804761Y-66724819D01*
X101804761Y-66724819D02*
X101709523Y-66772438D01*
X101709523Y-66772438D02*
X101661904Y-66820057D01*
X101661904Y-66820057D02*
X101614285Y-66915295D01*
X101614285Y-66915295D02*
X101566666Y-67105771D01*
X101566666Y-67105771D02*
X101566666Y-67343866D01*
X101566666Y-67343866D02*
X101614285Y-67534342D01*
X101614285Y-67534342D02*
X101661904Y-67629580D01*
X101661904Y-67629580D02*
X101709523Y-67677200D01*
X101709523Y-67677200D02*
X101804761Y-67724819D01*
X101804761Y-67724819D02*
X101899999Y-67724819D01*
X101899999Y-67724819D02*
X101995237Y-67677200D01*
X101995237Y-67677200D02*
X102042856Y-67629580D01*
X102042856Y-67629580D02*
X102090475Y-67534342D01*
X102090475Y-67534342D02*
X102138094Y-67343866D01*
X102138094Y-67343866D02*
X102138094Y-67105771D01*
X102138094Y-67105771D02*
X102090475Y-66915295D01*
X102090475Y-66915295D02*
X102042856Y-66820057D01*
X102042856Y-66820057D02*
X101995237Y-66772438D01*
X101995237Y-66772438D02*
X101899999Y-66724819D01*
X101138094Y-67724819D02*
X101138094Y-66724819D01*
X101042856Y-67343866D02*
X100757142Y-67724819D01*
X100757142Y-67058152D02*
X101138094Y-67439104D01*
X81423808Y-89054819D02*
X81090475Y-90054819D01*
X81090475Y-90054819D02*
X80757142Y-89054819D01*
X79852380Y-89959580D02*
X79899999Y-90007200D01*
X79899999Y-90007200D02*
X80042856Y-90054819D01*
X80042856Y-90054819D02*
X80138094Y-90054819D01*
X80138094Y-90054819D02*
X80280951Y-90007200D01*
X80280951Y-90007200D02*
X80376189Y-89911961D01*
X80376189Y-89911961D02*
X80423808Y-89816723D01*
X80423808Y-89816723D02*
X80471427Y-89626247D01*
X80471427Y-89626247D02*
X80471427Y-89483390D01*
X80471427Y-89483390D02*
X80423808Y-89292914D01*
X80423808Y-89292914D02*
X80376189Y-89197676D01*
X80376189Y-89197676D02*
X80280951Y-89102438D01*
X80280951Y-89102438D02*
X80138094Y-89054819D01*
X80138094Y-89054819D02*
X80042856Y-89054819D01*
X80042856Y-89054819D02*
X79899999Y-89102438D01*
X79899999Y-89102438D02*
X79852380Y-89150057D01*
X78852380Y-89959580D02*
X78899999Y-90007200D01*
X78899999Y-90007200D02*
X79042856Y-90054819D01*
X79042856Y-90054819D02*
X79138094Y-90054819D01*
X79138094Y-90054819D02*
X79280951Y-90007200D01*
X79280951Y-90007200D02*
X79376189Y-89911961D01*
X79376189Y-89911961D02*
X79423808Y-89816723D01*
X79423808Y-89816723D02*
X79471427Y-89626247D01*
X79471427Y-89626247D02*
X79471427Y-89483390D01*
X79471427Y-89483390D02*
X79423808Y-89292914D01*
X79423808Y-89292914D02*
X79376189Y-89197676D01*
X79376189Y-89197676D02*
X79280951Y-89102438D01*
X79280951Y-89102438D02*
X79138094Y-89054819D01*
X79138094Y-89054819D02*
X79042856Y-89054819D01*
X79042856Y-89054819D02*
X78899999Y-89102438D01*
X78899999Y-89102438D02*
X78852380Y-89150057D01*
X78566665Y-89007200D02*
X78423808Y-89150057D01*
X80661904Y-68854819D02*
X80661904Y-69664342D01*
X80661904Y-69664342D02*
X80614285Y-69759580D01*
X80614285Y-69759580D02*
X80566666Y-69807200D01*
X80566666Y-69807200D02*
X80471428Y-69854819D01*
X80471428Y-69854819D02*
X80280952Y-69854819D01*
X80280952Y-69854819D02*
X80185714Y-69807200D01*
X80185714Y-69807200D02*
X80138095Y-69759580D01*
X80138095Y-69759580D02*
X80090476Y-69664342D01*
X80090476Y-69664342D02*
X80090476Y-68854819D01*
X79090476Y-69854819D02*
X79661904Y-69854819D01*
X79376190Y-69854819D02*
X79376190Y-68854819D01*
X79376190Y-68854819D02*
X79471428Y-68997676D01*
X79471428Y-68997676D02*
X79566666Y-69092914D01*
X79566666Y-69092914D02*
X79661904Y-69140533D01*
X82776666Y-78864819D02*
X82776666Y-77864819D01*
X82776666Y-77864819D02*
X82205238Y-78864819D01*
X82205238Y-78864819D02*
X82205238Y-77864819D01*
X81729047Y-78341009D02*
X81395714Y-78341009D01*
X81252857Y-78864819D02*
X81729047Y-78864819D01*
X81729047Y-78864819D02*
X81729047Y-77864819D01*
X81729047Y-77864819D02*
X81252857Y-77864819D01*
X80348095Y-77864819D02*
X80824285Y-77864819D01*
X80824285Y-77864819D02*
X80871904Y-78341009D01*
X80871904Y-78341009D02*
X80824285Y-78293390D01*
X80824285Y-78293390D02*
X80729047Y-78245771D01*
X80729047Y-78245771D02*
X80490952Y-78245771D01*
X80490952Y-78245771D02*
X80395714Y-78293390D01*
X80395714Y-78293390D02*
X80348095Y-78341009D01*
X80348095Y-78341009D02*
X80300476Y-78436247D01*
X80300476Y-78436247D02*
X80300476Y-78674342D01*
X80300476Y-78674342D02*
X80348095Y-78769580D01*
X80348095Y-78769580D02*
X80395714Y-78817200D01*
X80395714Y-78817200D02*
X80490952Y-78864819D01*
X80490952Y-78864819D02*
X80729047Y-78864819D01*
X80729047Y-78864819D02*
X80824285Y-78817200D01*
X80824285Y-78817200D02*
X80871904Y-78769580D01*
X79395714Y-77864819D02*
X79871904Y-77864819D01*
X79871904Y-77864819D02*
X79919523Y-78341009D01*
X79919523Y-78341009D02*
X79871904Y-78293390D01*
X79871904Y-78293390D02*
X79776666Y-78245771D01*
X79776666Y-78245771D02*
X79538571Y-78245771D01*
X79538571Y-78245771D02*
X79443333Y-78293390D01*
X79443333Y-78293390D02*
X79395714Y-78341009D01*
X79395714Y-78341009D02*
X79348095Y-78436247D01*
X79348095Y-78436247D02*
X79348095Y-78674342D01*
X79348095Y-78674342D02*
X79395714Y-78769580D01*
X79395714Y-78769580D02*
X79443333Y-78817200D01*
X79443333Y-78817200D02*
X79538571Y-78864819D01*
X79538571Y-78864819D02*
X79776666Y-78864819D01*
X79776666Y-78864819D02*
X79871904Y-78817200D01*
X79871904Y-78817200D02*
X79919523Y-78769580D01*
X78443333Y-77864819D02*
X78919523Y-77864819D01*
X78919523Y-77864819D02*
X78967142Y-78341009D01*
X78967142Y-78341009D02*
X78919523Y-78293390D01*
X78919523Y-78293390D02*
X78824285Y-78245771D01*
X78824285Y-78245771D02*
X78586190Y-78245771D01*
X78586190Y-78245771D02*
X78490952Y-78293390D01*
X78490952Y-78293390D02*
X78443333Y-78341009D01*
X78443333Y-78341009D02*
X78395714Y-78436247D01*
X78395714Y-78436247D02*
X78395714Y-78674342D01*
X78395714Y-78674342D02*
X78443333Y-78769580D01*
X78443333Y-78769580D02*
X78490952Y-78817200D01*
X78490952Y-78817200D02*
X78586190Y-78864819D01*
X78586190Y-78864819D02*
X78824285Y-78864819D01*
X78824285Y-78864819D02*
X78919523Y-78817200D01*
X78919523Y-78817200D02*
X78967142Y-78769580D01*
X77967142Y-78864819D02*
X77967142Y-77864819D01*
X77967142Y-77864819D02*
X77586190Y-77864819D01*
X77586190Y-77864819D02*
X77490952Y-77912438D01*
X77490952Y-77912438D02*
X77443333Y-77960057D01*
X77443333Y-77960057D02*
X77395714Y-78055295D01*
X77395714Y-78055295D02*
X77395714Y-78198152D01*
X77395714Y-78198152D02*
X77443333Y-78293390D01*
X77443333Y-78293390D02*
X77490952Y-78341009D01*
X77490952Y-78341009D02*
X77586190Y-78388628D01*
X77586190Y-78388628D02*
X77967142Y-78388628D01*
X92161904Y-111002438D02*
X92257142Y-110954819D01*
X92257142Y-110954819D02*
X92399999Y-110954819D01*
X92399999Y-110954819D02*
X92542856Y-111002438D01*
X92542856Y-111002438D02*
X92638094Y-111097676D01*
X92638094Y-111097676D02*
X92685713Y-111192914D01*
X92685713Y-111192914D02*
X92733332Y-111383390D01*
X92733332Y-111383390D02*
X92733332Y-111526247D01*
X92733332Y-111526247D02*
X92685713Y-111716723D01*
X92685713Y-111716723D02*
X92638094Y-111811961D01*
X92638094Y-111811961D02*
X92542856Y-111907200D01*
X92542856Y-111907200D02*
X92399999Y-111954819D01*
X92399999Y-111954819D02*
X92304761Y-111954819D01*
X92304761Y-111954819D02*
X92161904Y-111907200D01*
X92161904Y-111907200D02*
X92114285Y-111859580D01*
X92114285Y-111859580D02*
X92114285Y-111526247D01*
X92114285Y-111526247D02*
X92304761Y-111526247D01*
X91685713Y-111954819D02*
X91685713Y-110954819D01*
X91685713Y-110954819D02*
X91114285Y-111954819D01*
X91114285Y-111954819D02*
X91114285Y-110954819D01*
X90638094Y-111954819D02*
X90638094Y-110954819D01*
X90638094Y-110954819D02*
X90399999Y-110954819D01*
X90399999Y-110954819D02*
X90257142Y-111002438D01*
X90257142Y-111002438D02*
X90161904Y-111097676D01*
X90161904Y-111097676D02*
X90114285Y-111192914D01*
X90114285Y-111192914D02*
X90066666Y-111383390D01*
X90066666Y-111383390D02*
X90066666Y-111526247D01*
X90066666Y-111526247D02*
X90114285Y-111716723D01*
X90114285Y-111716723D02*
X90161904Y-111811961D01*
X90161904Y-111811961D02*
X90257142Y-111907200D01*
X90257142Y-111907200D02*
X90399999Y-111954819D01*
X90399999Y-111954819D02*
X90638094Y-111954819D01*
X102446666Y-75754819D02*
X102779999Y-75278628D01*
X103018094Y-75754819D02*
X103018094Y-74754819D01*
X103018094Y-74754819D02*
X102637142Y-74754819D01*
X102637142Y-74754819D02*
X102541904Y-74802438D01*
X102541904Y-74802438D02*
X102494285Y-74850057D01*
X102494285Y-74850057D02*
X102446666Y-74945295D01*
X102446666Y-74945295D02*
X102446666Y-75088152D01*
X102446666Y-75088152D02*
X102494285Y-75183390D01*
X102494285Y-75183390D02*
X102541904Y-75231009D01*
X102541904Y-75231009D02*
X102637142Y-75278628D01*
X102637142Y-75278628D02*
X103018094Y-75278628D01*
X101541904Y-74754819D02*
X102018094Y-74754819D01*
X102018094Y-74754819D02*
X102065713Y-75231009D01*
X102065713Y-75231009D02*
X102018094Y-75183390D01*
X102018094Y-75183390D02*
X101922856Y-75135771D01*
X101922856Y-75135771D02*
X101684761Y-75135771D01*
X101684761Y-75135771D02*
X101589523Y-75183390D01*
X101589523Y-75183390D02*
X101541904Y-75231009D01*
X101541904Y-75231009D02*
X101494285Y-75326247D01*
X101494285Y-75326247D02*
X101494285Y-75564342D01*
X101494285Y-75564342D02*
X101541904Y-75659580D01*
X101541904Y-75659580D02*
X101589523Y-75707200D01*
X101589523Y-75707200D02*
X101684761Y-75754819D01*
X101684761Y-75754819D02*
X101922856Y-75754819D01*
X101922856Y-75754819D02*
X102018094Y-75707200D01*
X102018094Y-75707200D02*
X102065713Y-75659580D01*
X102970476Y-77458152D02*
X102970476Y-78124819D01*
X103208571Y-77077200D02*
X103446666Y-77791485D01*
X103446666Y-77791485D02*
X102827619Y-77791485D01*
X102446666Y-78124819D02*
X102446666Y-77124819D01*
X102351428Y-77743866D02*
X102065714Y-78124819D01*
X102065714Y-77458152D02*
X102446666Y-77839104D01*
X101732380Y-77124819D02*
X101065714Y-77124819D01*
X101065714Y-77124819D02*
X101494285Y-78124819D01*
X103747619Y-86254819D02*
X104080952Y-85778628D01*
X104319047Y-86254819D02*
X104319047Y-85254819D01*
X104319047Y-85254819D02*
X103938095Y-85254819D01*
X103938095Y-85254819D02*
X103842857Y-85302438D01*
X103842857Y-85302438D02*
X103795238Y-85350057D01*
X103795238Y-85350057D02*
X103747619Y-85445295D01*
X103747619Y-85445295D02*
X103747619Y-85588152D01*
X103747619Y-85588152D02*
X103795238Y-85683390D01*
X103795238Y-85683390D02*
X103842857Y-85731009D01*
X103842857Y-85731009D02*
X103938095Y-85778628D01*
X103938095Y-85778628D02*
X104319047Y-85778628D01*
X103366666Y-85350057D02*
X103319047Y-85302438D01*
X103319047Y-85302438D02*
X103223809Y-85254819D01*
X103223809Y-85254819D02*
X102985714Y-85254819D01*
X102985714Y-85254819D02*
X102890476Y-85302438D01*
X102890476Y-85302438D02*
X102842857Y-85350057D01*
X102842857Y-85350057D02*
X102795238Y-85445295D01*
X102795238Y-85445295D02*
X102795238Y-85540533D01*
X102795238Y-85540533D02*
X102842857Y-85683390D01*
X102842857Y-85683390D02*
X103414285Y-86254819D01*
X103414285Y-86254819D02*
X102795238Y-86254819D01*
X102223809Y-86254819D02*
X102319047Y-86207200D01*
X102319047Y-86207200D02*
X102366666Y-86159580D01*
X102366666Y-86159580D02*
X102414285Y-86064342D01*
X102414285Y-86064342D02*
X102414285Y-85778628D01*
X102414285Y-85778628D02*
X102366666Y-85683390D01*
X102366666Y-85683390D02*
X102319047Y-85635771D01*
X102319047Y-85635771D02*
X102223809Y-85588152D01*
X102223809Y-85588152D02*
X102080952Y-85588152D01*
X102080952Y-85588152D02*
X101985714Y-85635771D01*
X101985714Y-85635771D02*
X101938095Y-85683390D01*
X101938095Y-85683390D02*
X101890476Y-85778628D01*
X101890476Y-85778628D02*
X101890476Y-86064342D01*
X101890476Y-86064342D02*
X101938095Y-86159580D01*
X101938095Y-86159580D02*
X101985714Y-86207200D01*
X101985714Y-86207200D02*
X102080952Y-86254819D01*
X102080952Y-86254819D02*
X102223809Y-86254819D01*
X101461904Y-85588152D02*
X101461904Y-86254819D01*
X101461904Y-85683390D02*
X101414285Y-85635771D01*
X101414285Y-85635771D02*
X101319047Y-85588152D01*
X101319047Y-85588152D02*
X101176190Y-85588152D01*
X101176190Y-85588152D02*
X101080952Y-85635771D01*
X101080952Y-85635771D02*
X101033333Y-85731009D01*
X101033333Y-85731009D02*
X101033333Y-86254819D01*
X100604761Y-85350057D02*
X100557142Y-85302438D01*
X100557142Y-85302438D02*
X100461904Y-85254819D01*
X100461904Y-85254819D02*
X100223809Y-85254819D01*
X100223809Y-85254819D02*
X100128571Y-85302438D01*
X100128571Y-85302438D02*
X100080952Y-85350057D01*
X100080952Y-85350057D02*
X100033333Y-85445295D01*
X100033333Y-85445295D02*
X100033333Y-85540533D01*
X100033333Y-85540533D02*
X100080952Y-85683390D01*
X100080952Y-85683390D02*
X100652380Y-86254819D01*
X100652380Y-86254819D02*
X100033333Y-86254819D01*
X102970476Y-88524819D02*
X103541904Y-88524819D01*
X103256190Y-88524819D02*
X103256190Y-87524819D01*
X103256190Y-87524819D02*
X103351428Y-87667676D01*
X103351428Y-87667676D02*
X103446666Y-87762914D01*
X103446666Y-87762914D02*
X103541904Y-87810533D01*
X102113333Y-87524819D02*
X102303809Y-87524819D01*
X102303809Y-87524819D02*
X102399047Y-87572438D01*
X102399047Y-87572438D02*
X102446666Y-87620057D01*
X102446666Y-87620057D02*
X102541904Y-87762914D01*
X102541904Y-87762914D02*
X102589523Y-87953390D01*
X102589523Y-87953390D02*
X102589523Y-88334342D01*
X102589523Y-88334342D02*
X102541904Y-88429580D01*
X102541904Y-88429580D02*
X102494285Y-88477200D01*
X102494285Y-88477200D02*
X102399047Y-88524819D01*
X102399047Y-88524819D02*
X102208571Y-88524819D01*
X102208571Y-88524819D02*
X102113333Y-88477200D01*
X102113333Y-88477200D02*
X102065714Y-88429580D01*
X102065714Y-88429580D02*
X102018095Y-88334342D01*
X102018095Y-88334342D02*
X102018095Y-88096247D01*
X102018095Y-88096247D02*
X102065714Y-88001009D01*
X102065714Y-88001009D02*
X102113333Y-87953390D01*
X102113333Y-87953390D02*
X102208571Y-87905771D01*
X102208571Y-87905771D02*
X102399047Y-87905771D01*
X102399047Y-87905771D02*
X102494285Y-87953390D01*
X102494285Y-87953390D02*
X102541904Y-88001009D01*
X102541904Y-88001009D02*
X102589523Y-88096247D01*
X101589523Y-88524819D02*
X101589523Y-87524819D01*
X101018095Y-88524819D02*
X101446666Y-87953390D01*
X101018095Y-87524819D02*
X101589523Y-88096247D01*
X94866666Y-83559580D02*
X94914285Y-83607200D01*
X94914285Y-83607200D02*
X95057142Y-83654819D01*
X95057142Y-83654819D02*
X95152380Y-83654819D01*
X95152380Y-83654819D02*
X95295237Y-83607200D01*
X95295237Y-83607200D02*
X95390475Y-83511961D01*
X95390475Y-83511961D02*
X95438094Y-83416723D01*
X95438094Y-83416723D02*
X95485713Y-83226247D01*
X95485713Y-83226247D02*
X95485713Y-83083390D01*
X95485713Y-83083390D02*
X95438094Y-82892914D01*
X95438094Y-82892914D02*
X95390475Y-82797676D01*
X95390475Y-82797676D02*
X95295237Y-82702438D01*
X95295237Y-82702438D02*
X95152380Y-82654819D01*
X95152380Y-82654819D02*
X95057142Y-82654819D01*
X95057142Y-82654819D02*
X94914285Y-82702438D01*
X94914285Y-82702438D02*
X94866666Y-82750057D01*
X93914285Y-83654819D02*
X94485713Y-83654819D01*
X94199999Y-83654819D02*
X94199999Y-82654819D01*
X94199999Y-82654819D02*
X94295237Y-82797676D01*
X94295237Y-82797676D02*
X94390475Y-82892914D01*
X94390475Y-82892914D02*
X94485713Y-82940533D01*
X91716666Y-87188152D02*
X91716666Y-87854819D01*
X91954761Y-86807200D02*
X92192856Y-87521485D01*
X92192856Y-87521485D02*
X91573809Y-87521485D01*
X91288094Y-86854819D02*
X90621428Y-86854819D01*
X90621428Y-86854819D02*
X91049999Y-87854819D01*
X89811904Y-87188152D02*
X89811904Y-87854819D01*
X90240475Y-87188152D02*
X90240475Y-87711961D01*
X90240475Y-87711961D02*
X90192856Y-87807200D01*
X90192856Y-87807200D02*
X90097618Y-87854819D01*
X90097618Y-87854819D02*
X89954761Y-87854819D01*
X89954761Y-87854819D02*
X89859523Y-87807200D01*
X89859523Y-87807200D02*
X89811904Y-87759580D01*
X89002380Y-87331009D02*
X89335713Y-87331009D01*
X89335713Y-87854819D02*
X89335713Y-86854819D01*
X89335713Y-86854819D02*
X88859523Y-86854819D01*
X102366666Y-70504819D02*
X102699999Y-70028628D01*
X102938094Y-70504819D02*
X102938094Y-69504819D01*
X102938094Y-69504819D02*
X102557142Y-69504819D01*
X102557142Y-69504819D02*
X102461904Y-69552438D01*
X102461904Y-69552438D02*
X102414285Y-69600057D01*
X102414285Y-69600057D02*
X102366666Y-69695295D01*
X102366666Y-69695295D02*
X102366666Y-69838152D01*
X102366666Y-69838152D02*
X102414285Y-69933390D01*
X102414285Y-69933390D02*
X102461904Y-69981009D01*
X102461904Y-69981009D02*
X102557142Y-70028628D01*
X102557142Y-70028628D02*
X102938094Y-70028628D01*
X101509523Y-69838152D02*
X101509523Y-70504819D01*
X101747618Y-69457200D02*
X101985713Y-70171485D01*
X101985713Y-70171485D02*
X101366666Y-70171485D01*
X103970475Y-71924819D02*
X103351428Y-71924819D01*
X103351428Y-71924819D02*
X103684761Y-72305771D01*
X103684761Y-72305771D02*
X103541904Y-72305771D01*
X103541904Y-72305771D02*
X103446666Y-72353390D01*
X103446666Y-72353390D02*
X103399047Y-72401009D01*
X103399047Y-72401009D02*
X103351428Y-72496247D01*
X103351428Y-72496247D02*
X103351428Y-72734342D01*
X103351428Y-72734342D02*
X103399047Y-72829580D01*
X103399047Y-72829580D02*
X103446666Y-72877200D01*
X103446666Y-72877200D02*
X103541904Y-72924819D01*
X103541904Y-72924819D02*
X103827618Y-72924819D01*
X103827618Y-72924819D02*
X103922856Y-72877200D01*
X103922856Y-72877200D02*
X103970475Y-72829580D01*
X102875237Y-72924819D02*
X102684761Y-72924819D01*
X102684761Y-72924819D02*
X102589523Y-72877200D01*
X102589523Y-72877200D02*
X102541904Y-72829580D01*
X102541904Y-72829580D02*
X102446666Y-72686723D01*
X102446666Y-72686723D02*
X102399047Y-72496247D01*
X102399047Y-72496247D02*
X102399047Y-72115295D01*
X102399047Y-72115295D02*
X102446666Y-72020057D01*
X102446666Y-72020057D02*
X102494285Y-71972438D01*
X102494285Y-71972438D02*
X102589523Y-71924819D01*
X102589523Y-71924819D02*
X102779999Y-71924819D01*
X102779999Y-71924819D02*
X102875237Y-71972438D01*
X102875237Y-71972438D02*
X102922856Y-72020057D01*
X102922856Y-72020057D02*
X102970475Y-72115295D01*
X102970475Y-72115295D02*
X102970475Y-72353390D01*
X102970475Y-72353390D02*
X102922856Y-72448628D01*
X102922856Y-72448628D02*
X102875237Y-72496247D01*
X102875237Y-72496247D02*
X102779999Y-72543866D01*
X102779999Y-72543866D02*
X102589523Y-72543866D01*
X102589523Y-72543866D02*
X102494285Y-72496247D01*
X102494285Y-72496247D02*
X102446666Y-72448628D01*
X102446666Y-72448628D02*
X102399047Y-72353390D01*
X101779999Y-71924819D02*
X101684761Y-71924819D01*
X101684761Y-71924819D02*
X101589523Y-71972438D01*
X101589523Y-71972438D02*
X101541904Y-72020057D01*
X101541904Y-72020057D02*
X101494285Y-72115295D01*
X101494285Y-72115295D02*
X101446666Y-72305771D01*
X101446666Y-72305771D02*
X101446666Y-72543866D01*
X101446666Y-72543866D02*
X101494285Y-72734342D01*
X101494285Y-72734342D02*
X101541904Y-72829580D01*
X101541904Y-72829580D02*
X101589523Y-72877200D01*
X101589523Y-72877200D02*
X101684761Y-72924819D01*
X101684761Y-72924819D02*
X101779999Y-72924819D01*
X101779999Y-72924819D02*
X101875237Y-72877200D01*
X101875237Y-72877200D02*
X101922856Y-72829580D01*
X101922856Y-72829580D02*
X101970475Y-72734342D01*
X101970475Y-72734342D02*
X102018094Y-72543866D01*
X102018094Y-72543866D02*
X102018094Y-72305771D01*
X102018094Y-72305771D02*
X101970475Y-72115295D01*
X101970475Y-72115295D02*
X101922856Y-72020057D01*
X101922856Y-72020057D02*
X101875237Y-71972438D01*
X101875237Y-71972438D02*
X101779999Y-71924819D01*
X101018094Y-72924819D02*
X101018094Y-71924819D01*
X100922856Y-72543866D02*
X100637142Y-72924819D01*
X100637142Y-72258152D02*
X101018094Y-72639104D01*
X73219047Y-63550057D02*
X73314285Y-63502438D01*
X73314285Y-63502438D02*
X73409523Y-63407200D01*
X73409523Y-63407200D02*
X73552380Y-63264342D01*
X73552380Y-63264342D02*
X73647618Y-63216723D01*
X73647618Y-63216723D02*
X73742856Y-63216723D01*
X73695237Y-63454819D02*
X73790475Y-63407200D01*
X73790475Y-63407200D02*
X73885713Y-63311961D01*
X73885713Y-63311961D02*
X73933332Y-63121485D01*
X73933332Y-63121485D02*
X73933332Y-62788152D01*
X73933332Y-62788152D02*
X73885713Y-62597676D01*
X73885713Y-62597676D02*
X73790475Y-62502438D01*
X73790475Y-62502438D02*
X73695237Y-62454819D01*
X73695237Y-62454819D02*
X73504761Y-62454819D01*
X73504761Y-62454819D02*
X73409523Y-62502438D01*
X73409523Y-62502438D02*
X73314285Y-62597676D01*
X73314285Y-62597676D02*
X73266666Y-62788152D01*
X73266666Y-62788152D02*
X73266666Y-63121485D01*
X73266666Y-63121485D02*
X73314285Y-63311961D01*
X73314285Y-63311961D02*
X73409523Y-63407200D01*
X73409523Y-63407200D02*
X73504761Y-63454819D01*
X73504761Y-63454819D02*
X73695237Y-63454819D01*
X102566666Y-81004819D02*
X102899999Y-80528628D01*
X103138094Y-81004819D02*
X103138094Y-80004819D01*
X103138094Y-80004819D02*
X102757142Y-80004819D01*
X102757142Y-80004819D02*
X102661904Y-80052438D01*
X102661904Y-80052438D02*
X102614285Y-80100057D01*
X102614285Y-80100057D02*
X102566666Y-80195295D01*
X102566666Y-80195295D02*
X102566666Y-80338152D01*
X102566666Y-80338152D02*
X102614285Y-80433390D01*
X102614285Y-80433390D02*
X102661904Y-80481009D01*
X102661904Y-80481009D02*
X102757142Y-80528628D01*
X102757142Y-80528628D02*
X103138094Y-80528628D01*
X101709523Y-80004819D02*
X101899999Y-80004819D01*
X101899999Y-80004819D02*
X101995237Y-80052438D01*
X101995237Y-80052438D02*
X102042856Y-80100057D01*
X102042856Y-80100057D02*
X102138094Y-80242914D01*
X102138094Y-80242914D02*
X102185713Y-80433390D01*
X102185713Y-80433390D02*
X102185713Y-80814342D01*
X102185713Y-80814342D02*
X102138094Y-80909580D01*
X102138094Y-80909580D02*
X102090475Y-80957200D01*
X102090475Y-80957200D02*
X101995237Y-81004819D01*
X101995237Y-81004819D02*
X101804761Y-81004819D01*
X101804761Y-81004819D02*
X101709523Y-80957200D01*
X101709523Y-80957200D02*
X101661904Y-80909580D01*
X101661904Y-80909580D02*
X101614285Y-80814342D01*
X101614285Y-80814342D02*
X101614285Y-80576247D01*
X101614285Y-80576247D02*
X101661904Y-80481009D01*
X101661904Y-80481009D02*
X101709523Y-80433390D01*
X101709523Y-80433390D02*
X101804761Y-80385771D01*
X101804761Y-80385771D02*
X101995237Y-80385771D01*
X101995237Y-80385771D02*
X102090475Y-80433390D01*
X102090475Y-80433390D02*
X102138094Y-80481009D01*
X102138094Y-80481009D02*
X102185713Y-80576247D01*
X102970476Y-83324819D02*
X103541904Y-83324819D01*
X103256190Y-83324819D02*
X103256190Y-82324819D01*
X103256190Y-82324819D02*
X103351428Y-82467676D01*
X103351428Y-82467676D02*
X103446666Y-82562914D01*
X103446666Y-82562914D02*
X103541904Y-82610533D01*
X102351428Y-82324819D02*
X102256190Y-82324819D01*
X102256190Y-82324819D02*
X102160952Y-82372438D01*
X102160952Y-82372438D02*
X102113333Y-82420057D01*
X102113333Y-82420057D02*
X102065714Y-82515295D01*
X102065714Y-82515295D02*
X102018095Y-82705771D01*
X102018095Y-82705771D02*
X102018095Y-82943866D01*
X102018095Y-82943866D02*
X102065714Y-83134342D01*
X102065714Y-83134342D02*
X102113333Y-83229580D01*
X102113333Y-83229580D02*
X102160952Y-83277200D01*
X102160952Y-83277200D02*
X102256190Y-83324819D01*
X102256190Y-83324819D02*
X102351428Y-83324819D01*
X102351428Y-83324819D02*
X102446666Y-83277200D01*
X102446666Y-83277200D02*
X102494285Y-83229580D01*
X102494285Y-83229580D02*
X102541904Y-83134342D01*
X102541904Y-83134342D02*
X102589523Y-82943866D01*
X102589523Y-82943866D02*
X102589523Y-82705771D01*
X102589523Y-82705771D02*
X102541904Y-82515295D01*
X102541904Y-82515295D02*
X102494285Y-82420057D01*
X102494285Y-82420057D02*
X102446666Y-82372438D01*
X102446666Y-82372438D02*
X102351428Y-82324819D01*
X101018095Y-83324819D02*
X101351428Y-82848628D01*
X101589523Y-83324819D02*
X101589523Y-82324819D01*
X101589523Y-82324819D02*
X101208571Y-82324819D01*
X101208571Y-82324819D02*
X101113333Y-82372438D01*
X101113333Y-82372438D02*
X101065714Y-82420057D01*
X101065714Y-82420057D02*
X101018095Y-82515295D01*
X101018095Y-82515295D02*
X101018095Y-82658152D01*
X101018095Y-82658152D02*
X101065714Y-82753390D01*
X101065714Y-82753390D02*
X101113333Y-82801009D01*
X101113333Y-82801009D02*
X101208571Y-82848628D01*
X101208571Y-82848628D02*
X101589523Y-82848628D01*
D11*
%TO.C,G\u002A\u002A\u002A*%
X39725000Y-45050000D02*
X40300000Y-45525000D01*
X40300000Y-45525000D02*
X40725000Y-45200000D01*
X40725000Y-45200000D02*
X39725000Y-45050000D01*
D12*
X41050000Y-46638605D02*
X41950000Y-46625000D01*
X41449999Y-48020050D02*
X41049999Y-48020050D01*
X41450000Y-47025000D02*
X41200000Y-47025000D01*
X41450000Y-47075000D02*
X41450000Y-47525000D01*
X41450000Y-47525000D02*
X41150000Y-47525000D01*
X41450000Y-48025000D02*
X41450000Y-48525000D01*
X41450000Y-48525000D02*
X41000000Y-48525000D01*
D11*
X41675000Y-44325000D02*
X42025000Y-43150000D01*
D12*
X41950000Y-46625000D02*
X42000000Y-49075000D01*
X42000000Y-49075000D02*
X40800000Y-49075000D01*
D11*
X42025000Y-43150000D02*
X43825000Y-43200000D01*
D12*
X42275000Y-49075000D02*
X43050000Y-46625000D01*
X42675000Y-49075000D02*
X42275000Y-49075000D01*
X42925000Y-48475000D02*
X42675000Y-49075000D01*
X43000000Y-48075000D02*
X43225000Y-47325000D01*
X43050000Y-46625000D02*
X43375000Y-46625000D01*
X43225000Y-47325000D02*
X43500000Y-48075000D01*
D11*
X43250000Y-45250000D02*
X44925000Y-45350000D01*
D12*
X43375000Y-46625000D02*
X44275000Y-49075000D01*
X43500000Y-48075000D02*
X43000000Y-48075000D01*
X43525000Y-48475000D02*
X42925000Y-48475000D01*
X43775000Y-49075000D02*
X43525000Y-48475000D01*
X43775000Y-49075000D02*
X44275000Y-49075000D01*
D11*
X43825000Y-43200000D02*
X41675000Y-44325000D01*
X43950000Y-44675000D02*
X43250000Y-45250000D01*
D12*
X44450000Y-48600000D02*
X44450000Y-49050000D01*
X44450000Y-49050000D02*
X45700000Y-49050000D01*
D11*
X44950000Y-45350000D02*
X43950000Y-44675000D01*
X45100000Y-44900000D02*
X46725000Y-46025000D01*
X45150000Y-42575000D02*
X46275000Y-43800000D01*
X45175000Y-42175000D02*
X45100000Y-44900000D01*
D12*
X45200000Y-48600000D02*
X44450000Y-48600000D01*
X45225000Y-46600000D02*
X45200000Y-48600000D01*
X45675000Y-46600000D02*
X45225000Y-46600000D01*
X45700000Y-49050000D02*
X45675000Y-46600000D01*
X45875000Y-49050000D02*
X46575000Y-48100000D01*
X45975000Y-49050000D02*
X45875000Y-49050000D01*
D11*
X46275000Y-43800000D02*
X45700000Y-45300000D01*
D12*
X46375000Y-49050000D02*
X45975000Y-49050000D01*
X46616269Y-46594594D02*
X47725000Y-46600000D01*
D11*
X46725000Y-46025000D02*
X48400000Y-45800000D01*
D12*
X46775000Y-47050000D02*
X47225000Y-47050000D01*
X47125000Y-48100000D02*
X46375000Y-49050000D01*
X47225000Y-47050000D02*
X47225000Y-47600000D01*
X47225000Y-47600000D02*
X46725000Y-47600000D01*
X47275000Y-48100000D02*
X47125000Y-48100000D01*
X47275000Y-49050000D02*
X47275000Y-48100000D01*
X47725000Y-46600000D02*
X47725000Y-49050000D01*
X47725000Y-49050000D02*
X47275000Y-49050000D01*
D11*
X47875000Y-46250000D02*
X48850000Y-46600000D01*
D12*
X48175000Y-46600000D02*
X49475000Y-46600000D01*
X48175000Y-47100000D02*
X48175000Y-46600000D01*
X48175000Y-48550000D02*
X49025000Y-48550000D01*
X48175000Y-49050000D02*
X48175000Y-48550000D01*
D11*
X48275000Y-45975000D02*
X47875000Y-46250000D01*
D12*
X48375000Y-47550000D02*
X49025000Y-47550000D01*
X48375000Y-48000000D02*
X48375000Y-47550000D01*
D11*
X48400000Y-45800000D02*
X50225000Y-46700000D01*
X48650000Y-43800000D02*
X45175000Y-42175000D01*
X48650000Y-43800000D02*
X50975000Y-44950000D01*
D12*
X49025000Y-47100000D02*
X48175000Y-47100000D01*
X49025000Y-47550000D02*
X49025000Y-47100000D01*
X49025000Y-48000000D02*
X48375000Y-48000000D01*
X49025000Y-48550000D02*
X49025000Y-48000000D01*
D11*
X49050000Y-46575000D02*
X48275000Y-45975000D01*
X49400000Y-42375000D02*
X48650000Y-43800000D01*
X49400000Y-42375000D02*
X51600000Y-43550000D01*
D12*
X49425000Y-49050000D02*
X48175000Y-49050000D01*
X49475000Y-46600000D02*
X49525000Y-49050000D01*
X49525000Y-49050000D02*
X49425000Y-49050000D01*
X50625000Y-46613605D02*
X51525000Y-46600000D01*
D11*
X50975000Y-44950000D02*
X52450000Y-46675000D01*
X50975000Y-44950000D02*
X56625000Y-47800000D01*
D12*
X51024999Y-47995050D02*
X50624999Y-47995050D01*
X51025000Y-47000000D02*
X50775000Y-47000000D01*
X51025000Y-47050000D02*
X51025000Y-47500000D01*
X51025000Y-47500000D02*
X50725000Y-47500000D01*
X51025000Y-48000000D02*
X51025000Y-48500000D01*
X51025000Y-48500000D02*
X50575000Y-48500000D01*
X51525000Y-46600000D02*
X51575000Y-49050000D01*
X51575000Y-49050000D02*
X50375000Y-49050000D01*
D11*
X51600000Y-43550000D02*
X50025000Y-44450000D01*
X51700000Y-43375000D02*
X50975000Y-44950000D01*
D12*
X51975000Y-47450000D02*
X51975000Y-48150000D01*
D11*
X52275000Y-46775000D02*
X45175000Y-42175000D01*
D12*
X52475000Y-47450000D02*
X52475000Y-48100000D01*
D11*
X52725000Y-43625000D02*
X50975000Y-44950000D01*
X52725000Y-43625000D02*
X51700000Y-43375000D01*
X52800000Y-47700000D02*
X53175000Y-47875000D01*
X53125000Y-47300000D02*
X52800000Y-47700000D01*
D12*
X53175000Y-47450000D02*
X53175000Y-48150000D01*
D11*
X53675000Y-48050000D02*
X54225000Y-48325000D01*
D12*
X53675000Y-48150000D02*
X53675000Y-47450000D01*
D11*
X53725000Y-47325000D02*
X53950000Y-47950000D01*
X53950000Y-47950000D02*
X56625000Y-47800000D01*
X54225000Y-48325000D02*
X53650000Y-47525000D01*
X55300000Y-48275000D02*
X54475000Y-47925000D01*
X56625000Y-47800000D02*
X52725000Y-43625000D01*
X56625000Y-47800000D02*
X53725000Y-47325000D01*
X56625000Y-47800000D02*
X55300000Y-48275000D01*
D12*
X40600001Y-47724999D02*
G75*
G02*
X41050000Y-46638606I449999J449999D01*
G01*
X40800001Y-49074998D02*
G75*
G02*
X40623744Y-47766064I249998J699998D01*
G01*
X41000001Y-48524998D02*
G75*
G02*
X41049999Y-48020051I49999J249998D01*
G01*
X41150000Y-47525000D02*
G75*
G02*
X41210634Y-47032464I0J250000D01*
G01*
X46600001Y-48049998D02*
G75*
G02*
X46616269Y-46594595I249999J724998D01*
G01*
X46725001Y-47599998D02*
G75*
G02*
X46725001Y-47050002I124999J274998D01*
G01*
X50175001Y-47699999D02*
G75*
G02*
X50625000Y-46613606I449999J449999D01*
G01*
X50375001Y-49049998D02*
G75*
G02*
X50198744Y-47741064I249998J699998D01*
G01*
X50575001Y-48499998D02*
G75*
G02*
X50624999Y-47995051I49999J249998D01*
G01*
X50725000Y-47500000D02*
G75*
G02*
X50785634Y-47007464I0J250000D01*
G01*
X51975000Y-47450000D02*
G75*
G02*
X53675000Y-47450000I850000J0D01*
G01*
X52475000Y-47450000D02*
G75*
G02*
X53175000Y-47450000I350000J0D01*
G01*
X53175000Y-48150000D02*
G75*
G02*
X52475000Y-48150000I-350000J0D01*
G01*
X53675000Y-48150000D02*
G75*
G02*
X51975000Y-48150000I-850000J0D01*
G01*
D13*
X62172361Y-102045226D02*
X62108542Y-102109045D01*
X62044723Y-102045226D01*
X62108542Y-101981407D01*
X62172361Y-102045226D01*
G36*
X62172361Y-102045226D02*
G01*
X62108542Y-102109045D01*
X62044723Y-102045226D01*
X62108542Y-101981407D01*
X62172361Y-102045226D01*
G37*
D12*
%TO.C,S1*%
X70969600Y-93287600D02*
X74906600Y-93313000D01*
X74906600Y-93287600D02*
X74906600Y-83330800D01*
X70969600Y-83330800D02*
X70969600Y-93287600D01*
X74906600Y-83330800D02*
X70969600Y-83330800D01*
%TO.C,D3*%
X82780000Y-81200000D02*
X82130000Y-81200000D01*
X82130000Y-82320000D02*
X77890000Y-82320000D01*
X82130000Y-80080000D02*
X82130000Y-82320000D01*
X81530000Y-80080000D02*
X81530000Y-82320000D01*
X81410000Y-80080000D02*
X81410000Y-82320000D01*
X81290000Y-80080000D02*
X81290000Y-82320000D01*
X77890000Y-82320000D02*
X77890000Y-80080000D01*
X77890000Y-80080000D02*
X82130000Y-80080000D01*
X77240000Y-81200000D02*
X77890000Y-81200000D01*
%TO.C,R1off1*%
X106260000Y-90900000D02*
X105490000Y-90900000D01*
X105490000Y-92270000D02*
X98950000Y-92270000D01*
X105490000Y-89530000D02*
X105490000Y-92270000D01*
X98950000Y-92270000D02*
X98950000Y-89530000D01*
X98950000Y-89530000D02*
X105490000Y-89530000D01*
X98180000Y-90900000D02*
X98950000Y-90900000D01*
%TO.C,R3*%
X106440000Y-64900000D02*
X105670000Y-64900000D01*
X105670000Y-66270000D02*
X99130000Y-66270000D01*
X105670000Y-63530000D02*
X105670000Y-66270000D01*
X99130000Y-66270000D02*
X99130000Y-63530000D01*
X99130000Y-63530000D02*
X105670000Y-63530000D01*
X98360000Y-64900000D02*
X99130000Y-64900000D01*
%TO.C,U1*%
X82760000Y-77410000D02*
X77460000Y-77410000D01*
X82760000Y-67130000D02*
X82760000Y-77410000D01*
X81110000Y-67130000D02*
X82760000Y-67130000D01*
X77460000Y-77410000D02*
X77460000Y-67130000D01*
X77460000Y-67130000D02*
X79110000Y-67130000D01*
X81110000Y-67130000D02*
G75*
G02*
X79110000Y-67130000I-1000000J0D01*
G01*
%TO.C,R5*%
X106320000Y-75300000D02*
X105550000Y-75300000D01*
X105550000Y-76670000D02*
X99010000Y-76670000D01*
X105550000Y-73930000D02*
X105550000Y-76670000D01*
X99010000Y-76670000D02*
X99010000Y-73930000D01*
X99010000Y-73930000D02*
X105550000Y-73930000D01*
X98240000Y-75300000D02*
X99010000Y-75300000D01*
%TO.C,R2on2*%
X106320000Y-85700000D02*
X105550000Y-85700000D01*
X105550000Y-87070000D02*
X99010000Y-87070000D01*
X105550000Y-84330000D02*
X105550000Y-87070000D01*
X99010000Y-87070000D02*
X99010000Y-84330000D01*
X99010000Y-84330000D02*
X105550000Y-84330000D01*
X98240000Y-85700000D02*
X99010000Y-85700000D01*
%TO.C,C1*%
X94050241Y-81161000D02*
X93420241Y-81161000D01*
X93735241Y-80846000D02*
X93735241Y-81476000D01*
X90550000Y-79770000D02*
X90550000Y-86230000D01*
X90510000Y-79770000D02*
X90510000Y-86230000D01*
X90470000Y-79770000D02*
X90470000Y-86230000D01*
X90430000Y-79772000D02*
X90430000Y-86228000D01*
X90390000Y-79773000D02*
X90390000Y-86227000D01*
X90350000Y-79776000D02*
X90350000Y-86224000D01*
X90310000Y-84040000D02*
X90310000Y-86222000D01*
X90310000Y-79778000D02*
X90310000Y-81960000D01*
X90270000Y-84040000D02*
X90270000Y-86218000D01*
X90270000Y-79782000D02*
X90270000Y-81960000D01*
X90230000Y-84040000D02*
X90230000Y-86215000D01*
X90230000Y-79785000D02*
X90230000Y-81960000D01*
X90190000Y-84040000D02*
X90190000Y-86211000D01*
X90190000Y-79789000D02*
X90190000Y-81960000D01*
X90150000Y-84040000D02*
X90150000Y-86206000D01*
X90150000Y-79794000D02*
X90150000Y-81960000D01*
X90110000Y-84040000D02*
X90110000Y-86201000D01*
X90110000Y-79799000D02*
X90110000Y-81960000D01*
X90070000Y-84040000D02*
X90070000Y-86195000D01*
X90070000Y-79805000D02*
X90070000Y-81960000D01*
X90030000Y-84040000D02*
X90030000Y-86189000D01*
X90030000Y-79811000D02*
X90030000Y-81960000D01*
X89990000Y-84040000D02*
X89990000Y-86182000D01*
X89990000Y-79818000D02*
X89990000Y-81960000D01*
X89950000Y-84040000D02*
X89950000Y-86175000D01*
X89950000Y-79825000D02*
X89950000Y-81960000D01*
X89910000Y-84040000D02*
X89910000Y-86167000D01*
X89910000Y-79833000D02*
X89910000Y-81960000D01*
X89870000Y-84040000D02*
X89870000Y-86159000D01*
X89870000Y-79841000D02*
X89870000Y-81960000D01*
X89829000Y-84040000D02*
X89829000Y-86150000D01*
X89829000Y-79850000D02*
X89829000Y-81960000D01*
X89789000Y-84040000D02*
X89789000Y-86141000D01*
X89789000Y-79859000D02*
X89789000Y-81960000D01*
X89749000Y-84040000D02*
X89749000Y-86131000D01*
X89749000Y-79869000D02*
X89749000Y-81960000D01*
X89709000Y-84040000D02*
X89709000Y-86121000D01*
X89709000Y-79879000D02*
X89709000Y-81960000D01*
X89669000Y-84040000D02*
X89669000Y-86110000D01*
X89669000Y-79890000D02*
X89669000Y-81960000D01*
X89629000Y-84040000D02*
X89629000Y-86098000D01*
X89629000Y-79902000D02*
X89629000Y-81960000D01*
X89589000Y-84040000D02*
X89589000Y-86086000D01*
X89589000Y-79914000D02*
X89589000Y-81960000D01*
X89549000Y-84040000D02*
X89549000Y-86074000D01*
X89549000Y-79926000D02*
X89549000Y-81960000D01*
X89509000Y-84040000D02*
X89509000Y-86061000D01*
X89509000Y-79939000D02*
X89509000Y-81960000D01*
X89469000Y-84040000D02*
X89469000Y-86047000D01*
X89469000Y-79953000D02*
X89469000Y-81960000D01*
X89429000Y-84040000D02*
X89429000Y-86033000D01*
X89429000Y-79967000D02*
X89429000Y-81960000D01*
X89389000Y-84040000D02*
X89389000Y-86018000D01*
X89389000Y-79982000D02*
X89389000Y-81960000D01*
X89349000Y-84040000D02*
X89349000Y-86002000D01*
X89349000Y-79998000D02*
X89349000Y-81960000D01*
X89309000Y-84040000D02*
X89309000Y-85986000D01*
X89309000Y-80014000D02*
X89309000Y-81960000D01*
X89269000Y-84040000D02*
X89269000Y-85970000D01*
X89269000Y-80030000D02*
X89269000Y-81960000D01*
X89229000Y-84040000D02*
X89229000Y-85952000D01*
X89229000Y-80048000D02*
X89229000Y-81960000D01*
X89189000Y-84040000D02*
X89189000Y-85934000D01*
X89189000Y-80066000D02*
X89189000Y-81960000D01*
X89149000Y-84040000D02*
X89149000Y-85916000D01*
X89149000Y-80084000D02*
X89149000Y-81960000D01*
X89109000Y-84040000D02*
X89109000Y-85896000D01*
X89109000Y-80104000D02*
X89109000Y-81960000D01*
X89069000Y-84040000D02*
X89069000Y-85876000D01*
X89069000Y-80124000D02*
X89069000Y-81960000D01*
X89029000Y-84040000D02*
X89029000Y-85856000D01*
X89029000Y-80144000D02*
X89029000Y-81960000D01*
X88989000Y-84040000D02*
X88989000Y-85834000D01*
X88989000Y-80166000D02*
X88989000Y-81960000D01*
X88949000Y-84040000D02*
X88949000Y-85812000D01*
X88949000Y-80188000D02*
X88949000Y-81960000D01*
X88909000Y-84040000D02*
X88909000Y-85790000D01*
X88909000Y-80210000D02*
X88909000Y-81960000D01*
X88869000Y-84040000D02*
X88869000Y-85766000D01*
X88869000Y-80234000D02*
X88869000Y-81960000D01*
X88829000Y-84040000D02*
X88829000Y-85742000D01*
X88829000Y-80258000D02*
X88829000Y-81960000D01*
X88789000Y-84040000D02*
X88789000Y-85716000D01*
X88789000Y-80284000D02*
X88789000Y-81960000D01*
X88749000Y-84040000D02*
X88749000Y-85690000D01*
X88749000Y-80310000D02*
X88749000Y-81960000D01*
X88709000Y-84040000D02*
X88709000Y-85664000D01*
X88709000Y-80336000D02*
X88709000Y-81960000D01*
X88669000Y-84040000D02*
X88669000Y-85636000D01*
X88669000Y-80364000D02*
X88669000Y-81960000D01*
X88629000Y-84040000D02*
X88629000Y-85607000D01*
X88629000Y-80393000D02*
X88629000Y-81960000D01*
X88589000Y-84040000D02*
X88589000Y-85578000D01*
X88589000Y-80422000D02*
X88589000Y-81960000D01*
X88549000Y-84040000D02*
X88549000Y-85548000D01*
X88549000Y-80452000D02*
X88549000Y-81960000D01*
X88509000Y-84040000D02*
X88509000Y-85516000D01*
X88509000Y-80484000D02*
X88509000Y-81960000D01*
X88469000Y-84040000D02*
X88469000Y-85484000D01*
X88469000Y-80516000D02*
X88469000Y-81960000D01*
X88429000Y-84040000D02*
X88429000Y-85450000D01*
X88429000Y-80550000D02*
X88429000Y-81960000D01*
X88389000Y-84040000D02*
X88389000Y-85416000D01*
X88389000Y-80584000D02*
X88389000Y-81960000D01*
X88349000Y-84040000D02*
X88349000Y-85380000D01*
X88349000Y-80620000D02*
X88349000Y-81960000D01*
X88309000Y-84040000D02*
X88309000Y-85343000D01*
X88309000Y-80657000D02*
X88309000Y-81960000D01*
X88269000Y-84040000D02*
X88269000Y-85305000D01*
X88269000Y-80695000D02*
X88269000Y-81960000D01*
X88229000Y-80735000D02*
X88229000Y-85265000D01*
X88189000Y-80776000D02*
X88189000Y-85224000D01*
X88149000Y-80818000D02*
X88149000Y-85182000D01*
X88109000Y-80863000D02*
X88109000Y-85137000D01*
X88069000Y-80908000D02*
X88069000Y-85092000D01*
X88029000Y-80956000D02*
X88029000Y-85044000D01*
X87989000Y-81005000D02*
X87989000Y-84995000D01*
X87949000Y-81056000D02*
X87949000Y-84944000D01*
X87909000Y-81110000D02*
X87909000Y-84890000D01*
X87869000Y-81166000D02*
X87869000Y-84834000D01*
X87829000Y-81224000D02*
X87829000Y-84776000D01*
X87789000Y-81286000D02*
X87789000Y-84714000D01*
X87749000Y-81350000D02*
X87749000Y-84650000D01*
X87709000Y-81419000D02*
X87709000Y-84581000D01*
X87669000Y-81491000D02*
X87669000Y-84509000D01*
X87629000Y-81568000D02*
X87629000Y-84432000D01*
X87589000Y-81650000D02*
X87589000Y-84350000D01*
X87549000Y-81738000D02*
X87549000Y-84262000D01*
X87509000Y-81835000D02*
X87509000Y-84165000D01*
X87469000Y-81941000D02*
X87469000Y-84059000D01*
X87429000Y-82060000D02*
X87429000Y-83940000D01*
X87389000Y-82198000D02*
X87389000Y-83802000D01*
X87349000Y-82367000D02*
X87349000Y-83633000D01*
X87309000Y-82598000D02*
X87309000Y-83402000D01*
X93820000Y-83000000D02*
G75*
G02*
X87280000Y-83000000I-3270000J0D01*
G01*
X87280000Y-83000000D02*
G75*
G02*
X93820000Y-83000000I3270000J0D01*
G01*
%TO.C,R4*%
X106320000Y-70100000D02*
X105550000Y-70100000D01*
X105550000Y-71470000D02*
X99010000Y-71470000D01*
X105550000Y-68730000D02*
X105550000Y-71470000D01*
X99010000Y-71470000D02*
X99010000Y-68730000D01*
X99010000Y-68730000D02*
X105550000Y-68730000D01*
X98240000Y-70100000D02*
X99010000Y-70100000D01*
%TO.C,R6*%
X106320000Y-80500000D02*
X105550000Y-80500000D01*
X105550000Y-81870000D02*
X99010000Y-81870000D01*
X105550000Y-79130000D02*
X105550000Y-81870000D01*
X99010000Y-81870000D02*
X99010000Y-79130000D01*
X99010000Y-79130000D02*
X105550000Y-79130000D01*
X98240000Y-80500000D02*
X99010000Y-80500000D01*
%TD*%
M02*
