%TF.GenerationSoftware,KiCad,Pcbnew,8.0.1*%
%TF.CreationDate,2024-04-02T10:11:43+02:00*%
%TF.ProjectId,Fledermaus I,466c6564-6572-46d6-9175-7320492e6b69,rev?*%
%TF.SameCoordinates,Original*%
%TF.FileFunction,Soldermask,Bot*%
%TF.FilePolarity,Negative*%
%FSLAX46Y46*%
G04 Gerber Fmt 4.6, Leading zero omitted, Abs format (unit mm)*
G04 Created by KiCad (PCBNEW 8.0.1) date 2024-04-02 10:11:43*
%MOMM*%
%LPD*%
G01*
G04 APERTURE LIST*
G04 Aperture macros list*
%AMRoundRect*
0 Rectangle with rounded corners*
0 $1 Rounding radius*
0 $2 $3 $4 $5 $6 $7 $8 $9 X,Y pos of 4 corners*
0 Add a 4 corners polygon primitive as box body*
4,1,4,$2,$3,$4,$5,$6,$7,$8,$9,$2,$3,0*
0 Add four circle primitives for the rounded corners*
1,1,$1+$1,$2,$3*
1,1,$1+$1,$4,$5*
1,1,$1+$1,$6,$7*
1,1,$1+$1,$8,$9*
0 Add four rect primitives between the rounded corners*
20,1,$1+$1,$2,$3,$4,$5,0*
20,1,$1+$1,$4,$5,$6,$7,0*
20,1,$1+$1,$6,$7,$8,$9,0*
20,1,$1+$1,$8,$9,$2,$3,0*%
G04 Aperture macros list end*
%ADD10C,0.300000*%
%ADD11RoundRect,0.200000X-0.750000X-0.750000X0.750000X-0.750000X0.750000X0.750000X-0.750000X0.750000X0*%
%ADD12C,1.900000*%
%ADD13RoundRect,0.200000X-0.900000X-0.900000X0.900000X-0.900000X0.900000X0.900000X-0.900000X0.900000X0*%
%ADD14C,2.200000*%
%ADD15C,2.400000*%
%ADD16RoundRect,0.200000X0.800000X0.800000X-0.800000X0.800000X-0.800000X-0.800000X0.800000X-0.800000X0*%
%ADD17O,2.000000X2.000000*%
%ADD18RoundRect,0.200000X2.500000X1.000000X-2.500000X1.000000X-2.500000X-1.000000X2.500000X-1.000000X0*%
%ADD19C,18.180000*%
%ADD20C,2.000000*%
%ADD21C,2.900000*%
G04 APERTURE END LIST*
D10*
X53735489Y-52660828D02*
X53735489Y-51160828D01*
X52878346Y-52660828D02*
X53521203Y-51803685D01*
X52878346Y-51160828D02*
X53735489Y-52017971D01*
X52235489Y-52660828D02*
X52235489Y-51160828D01*
X52235489Y-51875114D02*
X51378346Y-51875114D01*
X51378346Y-52660828D02*
X51378346Y-51160828D01*
X50164060Y-51875114D02*
X50664060Y-51875114D01*
X50664060Y-52660828D02*
X50664060Y-51160828D01*
X50664060Y-51160828D02*
X49949774Y-51160828D01*
X47949774Y-51160828D02*
X47806917Y-51160828D01*
X47806917Y-51160828D02*
X47664060Y-51232257D01*
X47664060Y-51232257D02*
X47592632Y-51303685D01*
X47592632Y-51303685D02*
X47521203Y-51446542D01*
X47521203Y-51446542D02*
X47449774Y-51732257D01*
X47449774Y-51732257D02*
X47449774Y-52089400D01*
X47449774Y-52089400D02*
X47521203Y-52375114D01*
X47521203Y-52375114D02*
X47592632Y-52517971D01*
X47592632Y-52517971D02*
X47664060Y-52589400D01*
X47664060Y-52589400D02*
X47806917Y-52660828D01*
X47806917Y-52660828D02*
X47949774Y-52660828D01*
X47949774Y-52660828D02*
X48092632Y-52589400D01*
X48092632Y-52589400D02*
X48164060Y-52517971D01*
X48164060Y-52517971D02*
X48235489Y-52375114D01*
X48235489Y-52375114D02*
X48306917Y-52089400D01*
X48306917Y-52089400D02*
X48306917Y-51732257D01*
X48306917Y-51732257D02*
X48235489Y-51446542D01*
X48235489Y-51446542D02*
X48164060Y-51303685D01*
X48164060Y-51303685D02*
X48092632Y-51232257D01*
X48092632Y-51232257D02*
X47949774Y-51160828D01*
X46021203Y-52660828D02*
X46878346Y-52660828D01*
X46449775Y-52660828D02*
X46449775Y-51160828D01*
X46449775Y-51160828D02*
X46592632Y-51375114D01*
X46592632Y-51375114D02*
X46735489Y-51517971D01*
X46735489Y-51517971D02*
X46878346Y-51589400D01*
X45378347Y-52517971D02*
X45306918Y-52589400D01*
X45306918Y-52589400D02*
X45378347Y-52660828D01*
X45378347Y-52660828D02*
X45449775Y-52589400D01*
X45449775Y-52589400D02*
X45378347Y-52517971D01*
X45378347Y-52517971D02*
X45378347Y-52660828D01*
X44735489Y-51303685D02*
X44664061Y-51232257D01*
X44664061Y-51232257D02*
X44521204Y-51160828D01*
X44521204Y-51160828D02*
X44164061Y-51160828D01*
X44164061Y-51160828D02*
X44021204Y-51232257D01*
X44021204Y-51232257D02*
X43949775Y-51303685D01*
X43949775Y-51303685D02*
X43878346Y-51446542D01*
X43878346Y-51446542D02*
X43878346Y-51589400D01*
X43878346Y-51589400D02*
X43949775Y-51803685D01*
X43949775Y-51803685D02*
X44806918Y-52660828D01*
X44806918Y-52660828D02*
X43878346Y-52660828D01*
X42949775Y-51160828D02*
X42806918Y-51160828D01*
X42806918Y-51160828D02*
X42664061Y-51232257D01*
X42664061Y-51232257D02*
X42592633Y-51303685D01*
X42592633Y-51303685D02*
X42521204Y-51446542D01*
X42521204Y-51446542D02*
X42449775Y-51732257D01*
X42449775Y-51732257D02*
X42449775Y-52089400D01*
X42449775Y-52089400D02*
X42521204Y-52375114D01*
X42521204Y-52375114D02*
X42592633Y-52517971D01*
X42592633Y-52517971D02*
X42664061Y-52589400D01*
X42664061Y-52589400D02*
X42806918Y-52660828D01*
X42806918Y-52660828D02*
X42949775Y-52660828D01*
X42949775Y-52660828D02*
X43092633Y-52589400D01*
X43092633Y-52589400D02*
X43164061Y-52517971D01*
X43164061Y-52517971D02*
X43235490Y-52375114D01*
X43235490Y-52375114D02*
X43306918Y-52089400D01*
X43306918Y-52089400D02*
X43306918Y-51732257D01*
X43306918Y-51732257D02*
X43235490Y-51446542D01*
X43235490Y-51446542D02*
X43164061Y-51303685D01*
X43164061Y-51303685D02*
X43092633Y-51232257D01*
X43092633Y-51232257D02*
X42949775Y-51160828D01*
X41878347Y-51303685D02*
X41806919Y-51232257D01*
X41806919Y-51232257D02*
X41664062Y-51160828D01*
X41664062Y-51160828D02*
X41306919Y-51160828D01*
X41306919Y-51160828D02*
X41164062Y-51232257D01*
X41164062Y-51232257D02*
X41092633Y-51303685D01*
X41092633Y-51303685D02*
X41021204Y-51446542D01*
X41021204Y-51446542D02*
X41021204Y-51589400D01*
X41021204Y-51589400D02*
X41092633Y-51803685D01*
X41092633Y-51803685D02*
X41949776Y-52660828D01*
X41949776Y-52660828D02*
X41021204Y-52660828D01*
X39735491Y-51660828D02*
X39735491Y-52660828D01*
X40092633Y-51089400D02*
X40449776Y-52160828D01*
X40449776Y-52160828D02*
X39521205Y-52160828D01*
D11*
%TO.C,Q1*%
X88100000Y-71100000D03*
D12*
X90640000Y-68560000D03*
X93180000Y-71100000D03*
%TD*%
D13*
%TO.C,D1*%
X84325000Y-61200000D03*
D14*
X86865000Y-61200000D03*
%TD*%
D11*
%TO.C,Q2*%
X88100000Y-77042385D03*
D12*
X90640000Y-74502385D03*
X93180000Y-77042385D03*
%TD*%
D13*
%TO.C,D2*%
X91300000Y-62200000D03*
D14*
X93840000Y-62200000D03*
%TD*%
D15*
%TO.C,S1*%
X72900000Y-90900000D03*
X72900000Y-88360000D03*
X72900000Y-85820000D03*
%TD*%
D16*
%TO.C,D3*%
X83820000Y-81200000D03*
D17*
X76200000Y-81200000D03*
%TD*%
D18*
%TO.C,U2*%
X101254000Y-99732000D03*
X101254000Y-96176000D03*
X75360000Y-99732000D03*
X75360000Y-96176000D03*
D19*
X88300000Y-97700000D03*
%TD*%
D20*
%TO.C,R1off1*%
X107300000Y-90900000D03*
D17*
X97140000Y-90900000D03*
%TD*%
D20*
%TO.C,R3*%
X107480000Y-64900000D03*
D17*
X97320000Y-64900000D03*
%TD*%
D21*
%TO.C,VCC`*%
X80200000Y-87100000D03*
%TD*%
D16*
%TO.C,U1*%
X83920000Y-68460000D03*
D17*
X83920000Y-71000000D03*
X83920000Y-73540000D03*
X83920000Y-76080000D03*
X76300000Y-76080000D03*
X76300000Y-73540000D03*
X76300000Y-71000000D03*
X76300000Y-68460000D03*
%TD*%
D21*
%TO.C,GND*%
X91200000Y-109100000D03*
%TD*%
D20*
%TO.C,R5*%
X107360000Y-75300000D03*
D17*
X97200000Y-75300000D03*
%TD*%
D20*
%TO.C,R2on2*%
X107360000Y-85700000D03*
D17*
X97200000Y-85700000D03*
%TD*%
D16*
%TO.C,C1*%
X91800000Y-83000000D03*
D20*
X89300000Y-83000000D03*
%TD*%
%TO.C,R4*%
X107360000Y-70100000D03*
D17*
X97200000Y-70100000D03*
%TD*%
D21*
%TO.C,Q*%
X73900000Y-60500000D03*
%TD*%
D20*
%TO.C,R6*%
X107360000Y-80500000D03*
D17*
X97200000Y-80500000D03*
%TD*%
M02*
