M48
; DRILL file {KiCad 7.0.8} date Sat Aug  3 05:57:35 2024
; FORMAT={3:3/ absolute / metric / suppress leading zeros}
; #@! TF.CreationDate,2024-08-03T05:57:35+02:00
; #@! TF.GenerationSoftware,Kicad,Pcbnew,7.0.8
; #@! TF.FileFunction,MixedPlating,1,2
FMAT,2
METRIC,TZ
; #@! TA.AperFunction,Plated,PTH,ViaDrill
T1C0.100
; #@! TA.AperFunction,Plated,PTH,ViaDrill
T2C0.400
; #@! TA.AperFunction,Plated,PTH,ComponentDrill
T3C0.800
; #@! TA.AperFunction,Plated,PTH,ComponentDrill
T4C0.900
; #@! TA.AperFunction,Plated,PTH,ComponentDrill
T5C1.000
%
G90
G05
T1
X146558Y-92354
T2
X133731Y-98933
X134315Y-112878
X142748Y-73533
X146431Y-105664
T3
X111946Y-72114
X111946Y-76533
X111946Y-80951
X111946Y-85370
X111946Y-89789
X113216Y-67945
X120836Y-67945
X122106Y-72114
X122106Y-76533
X122106Y-80951
X122106Y-85370
X122106Y-89789
X122301Y-103124
X122301Y-110744
X124841Y-103124
X124841Y-110744
X127000Y-86766
X127381Y-103124
X127381Y-110744
X129540Y-89306
X129921Y-103124
X129921Y-110744
X132080Y-86766
X138430Y-80569
X148590Y-80569
X149733Y-66294
X152233Y-66294
X153780Y-83310
X156320Y-85850
X158860Y-83310
T4
X123444Y-55245
X125984Y-55245
X141351Y-54737
X143891Y-54737
T5
X143637Y-103124
X146177Y-103124
X148717Y-103124
T0
M30
