%TF.GenerationSoftware,KiCad,Pcbnew,7.0.8*%
%TF.CreationDate,2024-08-03T05:57:31+02:00*%
%TF.ProjectId,RobiV4,526f6269-5634-42e6-9b69-6361645f7063,rev?*%
%TF.SameCoordinates,Original*%
%TF.FileFunction,Soldermask,Bot*%
%TF.FilePolarity,Negative*%
%FSLAX46Y46*%
G04 Gerber Fmt 4.6, Leading zero omitted, Abs format (unit mm)*
G04 Created by KiCad (PCBNEW 7.0.8) date 2024-08-03 05:57:31*
%MOMM*%
%LPD*%
G01*
G04 APERTURE LIST*
G04 Aperture macros list*
%AMRoundRect*
0 Rectangle with rounded corners*
0 $1 Rounding radius*
0 $2 $3 $4 $5 $6 $7 $8 $9 X,Y pos of 4 corners*
0 Add a 4 corners polygon primitive as box body*
4,1,4,$2,$3,$4,$5,$6,$7,$8,$9,$2,$3,0*
0 Add four circle primitives for the rounded corners*
1,1,$1+$1,$2,$3*
1,1,$1+$1,$4,$5*
1,1,$1+$1,$6,$7*
1,1,$1+$1,$8,$9*
0 Add four rect primitives between the rounded corners*
20,1,$1+$1,$2,$3,$4,$5,0*
20,1,$1+$1,$4,$5,$6,$7,0*
20,1,$1+$1,$6,$7,$8,$9,0*
20,1,$1+$1,$8,$9,$2,$3,0*%
G04 Aperture macros list end*
%ADD10C,0.300000*%
%ADD11RoundRect,0.200000X-0.800000X-0.800000X0.800000X-0.800000X0.800000X0.800000X-0.800000X0.800000X0*%
%ADD12C,2.000000*%
%ADD13RoundRect,0.200000X-0.900000X-0.900000X0.900000X-0.900000X0.900000X0.900000X-0.900000X0.900000X0*%
%ADD14C,2.200000*%
%ADD15RoundRect,0.200000X0.750000X0.750000X-0.750000X0.750000X-0.750000X-0.750000X0.750000X-0.750000X0*%
%ADD16C,1.900000*%
%ADD17O,2.000000X2.000000*%
%ADD18C,2.400000*%
%ADD19RoundRect,0.200000X0.800000X-0.800000X0.800000X0.800000X-0.800000X0.800000X-0.800000X-0.800000X0*%
%ADD20RoundRect,0.200000X-2.500000X-1.000000X2.500000X-1.000000X2.500000X1.000000X-2.500000X1.000000X0*%
%ADD21C,18.180000*%
%ADD22C,3.400000*%
G04 APERTURE END LIST*
D10*
X141525489Y-75520828D02*
X141525489Y-74020828D01*
X140668346Y-75520828D02*
X141311203Y-74663685D01*
X140668346Y-74020828D02*
X141525489Y-74877971D01*
X140025489Y-75520828D02*
X140025489Y-74020828D01*
X140025489Y-74735114D02*
X139168346Y-74735114D01*
X139168346Y-75520828D02*
X139168346Y-74020828D01*
X137954060Y-74735114D02*
X138454060Y-74735114D01*
X138454060Y-75520828D02*
X138454060Y-74020828D01*
X138454060Y-74020828D02*
X137739774Y-74020828D01*
X135739774Y-74020828D02*
X135596917Y-74020828D01*
X135596917Y-74020828D02*
X135454060Y-74092257D01*
X135454060Y-74092257D02*
X135382632Y-74163685D01*
X135382632Y-74163685D02*
X135311203Y-74306542D01*
X135311203Y-74306542D02*
X135239774Y-74592257D01*
X135239774Y-74592257D02*
X135239774Y-74949400D01*
X135239774Y-74949400D02*
X135311203Y-75235114D01*
X135311203Y-75235114D02*
X135382632Y-75377971D01*
X135382632Y-75377971D02*
X135454060Y-75449400D01*
X135454060Y-75449400D02*
X135596917Y-75520828D01*
X135596917Y-75520828D02*
X135739774Y-75520828D01*
X135739774Y-75520828D02*
X135882632Y-75449400D01*
X135882632Y-75449400D02*
X135954060Y-75377971D01*
X135954060Y-75377971D02*
X136025489Y-75235114D01*
X136025489Y-75235114D02*
X136096917Y-74949400D01*
X136096917Y-74949400D02*
X136096917Y-74592257D01*
X136096917Y-74592257D02*
X136025489Y-74306542D01*
X136025489Y-74306542D02*
X135954060Y-74163685D01*
X135954060Y-74163685D02*
X135882632Y-74092257D01*
X135882632Y-74092257D02*
X135739774Y-74020828D01*
X134382632Y-74663685D02*
X134525489Y-74592257D01*
X134525489Y-74592257D02*
X134596918Y-74520828D01*
X134596918Y-74520828D02*
X134668346Y-74377971D01*
X134668346Y-74377971D02*
X134668346Y-74306542D01*
X134668346Y-74306542D02*
X134596918Y-74163685D01*
X134596918Y-74163685D02*
X134525489Y-74092257D01*
X134525489Y-74092257D02*
X134382632Y-74020828D01*
X134382632Y-74020828D02*
X134096918Y-74020828D01*
X134096918Y-74020828D02*
X133954061Y-74092257D01*
X133954061Y-74092257D02*
X133882632Y-74163685D01*
X133882632Y-74163685D02*
X133811203Y-74306542D01*
X133811203Y-74306542D02*
X133811203Y-74377971D01*
X133811203Y-74377971D02*
X133882632Y-74520828D01*
X133882632Y-74520828D02*
X133954061Y-74592257D01*
X133954061Y-74592257D02*
X134096918Y-74663685D01*
X134096918Y-74663685D02*
X134382632Y-74663685D01*
X134382632Y-74663685D02*
X134525489Y-74735114D01*
X134525489Y-74735114D02*
X134596918Y-74806542D01*
X134596918Y-74806542D02*
X134668346Y-74949400D01*
X134668346Y-74949400D02*
X134668346Y-75235114D01*
X134668346Y-75235114D02*
X134596918Y-75377971D01*
X134596918Y-75377971D02*
X134525489Y-75449400D01*
X134525489Y-75449400D02*
X134382632Y-75520828D01*
X134382632Y-75520828D02*
X134096918Y-75520828D01*
X134096918Y-75520828D02*
X133954061Y-75449400D01*
X133954061Y-75449400D02*
X133882632Y-75377971D01*
X133882632Y-75377971D02*
X133811203Y-75235114D01*
X133811203Y-75235114D02*
X133811203Y-74949400D01*
X133811203Y-74949400D02*
X133882632Y-74806542D01*
X133882632Y-74806542D02*
X133954061Y-74735114D01*
X133954061Y-74735114D02*
X134096918Y-74663685D01*
X133168347Y-75377971D02*
X133096918Y-75449400D01*
X133096918Y-75449400D02*
X133168347Y-75520828D01*
X133168347Y-75520828D02*
X133239775Y-75449400D01*
X133239775Y-75449400D02*
X133168347Y-75377971D01*
X133168347Y-75377971D02*
X133168347Y-75520828D01*
X132525489Y-74163685D02*
X132454061Y-74092257D01*
X132454061Y-74092257D02*
X132311204Y-74020828D01*
X132311204Y-74020828D02*
X131954061Y-74020828D01*
X131954061Y-74020828D02*
X131811204Y-74092257D01*
X131811204Y-74092257D02*
X131739775Y-74163685D01*
X131739775Y-74163685D02*
X131668346Y-74306542D01*
X131668346Y-74306542D02*
X131668346Y-74449400D01*
X131668346Y-74449400D02*
X131739775Y-74663685D01*
X131739775Y-74663685D02*
X132596918Y-75520828D01*
X132596918Y-75520828D02*
X131668346Y-75520828D01*
X130739775Y-74020828D02*
X130596918Y-74020828D01*
X130596918Y-74020828D02*
X130454061Y-74092257D01*
X130454061Y-74092257D02*
X130382633Y-74163685D01*
X130382633Y-74163685D02*
X130311204Y-74306542D01*
X130311204Y-74306542D02*
X130239775Y-74592257D01*
X130239775Y-74592257D02*
X130239775Y-74949400D01*
X130239775Y-74949400D02*
X130311204Y-75235114D01*
X130311204Y-75235114D02*
X130382633Y-75377971D01*
X130382633Y-75377971D02*
X130454061Y-75449400D01*
X130454061Y-75449400D02*
X130596918Y-75520828D01*
X130596918Y-75520828D02*
X130739775Y-75520828D01*
X130739775Y-75520828D02*
X130882633Y-75449400D01*
X130882633Y-75449400D02*
X130954061Y-75377971D01*
X130954061Y-75377971D02*
X131025490Y-75235114D01*
X131025490Y-75235114D02*
X131096918Y-74949400D01*
X131096918Y-74949400D02*
X131096918Y-74592257D01*
X131096918Y-74592257D02*
X131025490Y-74306542D01*
X131025490Y-74306542D02*
X130954061Y-74163685D01*
X130954061Y-74163685D02*
X130882633Y-74092257D01*
X130882633Y-74092257D02*
X130739775Y-74020828D01*
X129668347Y-74163685D02*
X129596919Y-74092257D01*
X129596919Y-74092257D02*
X129454062Y-74020828D01*
X129454062Y-74020828D02*
X129096919Y-74020828D01*
X129096919Y-74020828D02*
X128954062Y-74092257D01*
X128954062Y-74092257D02*
X128882633Y-74163685D01*
X128882633Y-74163685D02*
X128811204Y-74306542D01*
X128811204Y-74306542D02*
X128811204Y-74449400D01*
X128811204Y-74449400D02*
X128882633Y-74663685D01*
X128882633Y-74663685D02*
X129739776Y-75520828D01*
X129739776Y-75520828D02*
X128811204Y-75520828D01*
X127525491Y-74520828D02*
X127525491Y-75520828D01*
X127882633Y-73949400D02*
X128239776Y-75020828D01*
X128239776Y-75020828D02*
X127311205Y-75020828D01*
D11*
%TO.C,C1*%
X149733000Y-66294000D03*
D12*
X152233000Y-66294000D03*
%TD*%
D13*
%TO.C,D1*%
X123444000Y-55245000D03*
D14*
X125984000Y-55245000D03*
%TD*%
D13*
%TO.C,D2*%
X141351000Y-54737000D03*
D14*
X143891000Y-54737000D03*
%TD*%
D15*
%TO.C,T1*%
X132080000Y-86766400D03*
D16*
X129540000Y-89306400D03*
X127000000Y-86766400D03*
%TD*%
D15*
%TO.C,T2*%
X158860000Y-83310000D03*
D16*
X156320000Y-85850000D03*
X153780000Y-83310000D03*
%TD*%
D11*
%TO.C,D3*%
X113216001Y-67945000D03*
D17*
X120836001Y-67945000D03*
%TD*%
D12*
%TO.C,R3*%
X111946001Y-80951400D03*
D17*
X122106001Y-80951400D03*
%TD*%
D12*
%TO.C,R4*%
X111946001Y-85370200D03*
D17*
X122106001Y-85370200D03*
%TD*%
D12*
%TO.C,R5*%
X111946001Y-76532600D03*
D17*
X122106001Y-76532600D03*
%TD*%
D12*
%TO.C,R6*%
X111946001Y-89789000D03*
D17*
X122106001Y-89789000D03*
%TD*%
D12*
%TO.C,R1on1*%
X111946001Y-72113800D03*
D17*
X122106001Y-72113800D03*
%TD*%
D18*
%TO.C,S1*%
X143637000Y-103124000D03*
X146177000Y-103124000D03*
X148717000Y-103124000D03*
%TD*%
D19*
%TO.C,U1*%
X129921000Y-110744000D03*
D17*
X127381000Y-110744000D03*
X124841000Y-110744000D03*
X122301000Y-110744000D03*
X122301000Y-103124000D03*
X124841000Y-103124000D03*
X127381000Y-103124000D03*
X129921000Y-103124000D03*
%TD*%
D20*
%TO.C,U2*%
X124079000Y-120777000D03*
X124079000Y-124333000D03*
X149973000Y-120777000D03*
X149973000Y-124333000D03*
D21*
X137033000Y-122809000D03*
%TD*%
D22*
%TO.C,GND*%
X137160000Y-111125000D03*
%TD*%
%TO.C,VCC*%
X123698000Y-116078000D03*
%TD*%
%TO.C,T2-B*%
X150114000Y-88188800D03*
%TD*%
D12*
%TO.C,R1off1*%
X148590000Y-80568800D03*
D17*
X138430000Y-80568800D03*
%TD*%
D22*
%TO.C,Q*%
X115697000Y-104775000D03*
%TD*%
%TO.C,T1-B*%
X126212600Y-91998800D03*
%TD*%
M02*
