%TF.GenerationSoftware,KiCad,Pcbnew,9.0.6*%
%TF.CreationDate,2026-05-12T16:09:06+02:00*%
%TF.ProjectId,Eule2,45756c65-322e-46b6-9963-61645f706362,rev?*%
%TF.SameCoordinates,Original*%
%TF.FileFunction,Copper,L1,Top*%
%TF.FilePolarity,Positive*%
%FSLAX46Y46*%
G04 Gerber Fmt 4.6, Leading zero omitted, Abs format (unit mm)*
G04 Created by KiCad (PCBNEW 9.0.6) date 2026-05-12 16:09:06*
%MOMM*%
%LPD*%
G01*
G04 APERTURE LIST*
G04 Aperture macros list*
%AMRoundRect*
0 Rectangle with rounded corners*
0 $1 Rounding radius*
0 $2 $3 $4 $5 $6 $7 $8 $9 X,Y pos of 4 corners*
0 Add a 4 corners polygon primitive as box body*
4,1,4,$2,$3,$4,$5,$6,$7,$8,$9,$2,$3,0*
0 Add four circle primitives for the rounded corners*
1,1,$1+$1,$2,$3*
1,1,$1+$1,$4,$5*
1,1,$1+$1,$6,$7*
1,1,$1+$1,$8,$9*
0 Add four rect primitives between the rounded corners*
20,1,$1+$1,$2,$3,$4,$5,0*
20,1,$1+$1,$4,$5,$6,$7,0*
20,1,$1+$1,$6,$7,$8,$9,0*
20,1,$1+$1,$8,$9,$2,$3,0*%
G04 Aperture macros list end*
%TA.AperFunction,ComponentPad*%
%ADD10R,1.800000X1.800000*%
%TD*%
%TA.AperFunction,ComponentPad*%
%ADD11C,1.800000*%
%TD*%
%TA.AperFunction,ComponentPad*%
%ADD12R,1.500000X1.500000*%
%TD*%
%TA.AperFunction,ComponentPad*%
%ADD13C,1.500000*%
%TD*%
%TA.AperFunction,ComponentPad*%
%ADD14C,1.600000*%
%TD*%
%TA.AperFunction,ComponentPad*%
%ADD15C,2.000000*%
%TD*%
%TA.AperFunction,ComponentPad*%
%ADD16RoundRect,0.250000X0.550000X0.550000X-0.550000X0.550000X-0.550000X-0.550000X0.550000X-0.550000X0*%
%TD*%
%TA.AperFunction,ComponentPad*%
%ADD17R,1.600000X1.600000*%
%TD*%
%TA.AperFunction,ComponentPad*%
%ADD18O,1.600000X1.600000*%
%TD*%
%TA.AperFunction,ComponentPad*%
%ADD19RoundRect,0.250000X-0.550000X-0.550000X0.550000X-0.550000X0.550000X0.550000X-0.550000X0.550000X0*%
%TD*%
%TA.AperFunction,Conductor*%
%ADD20C,0.250000*%
%TD*%
G04 APERTURE END LIST*
D10*
%TO.P,D2,1,K*%
%TO.N,Net-(D1-K)*%
X147725000Y-74600000D03*
D11*
%TO.P,D2,2,A*%
%TO.N,Net-(D1-A)*%
X150265000Y-74600000D03*
%TD*%
D10*
%TO.P,D1,1,K*%
%TO.N,Net-(D1-K)*%
X126060000Y-74500000D03*
D11*
%TO.P,D1,2,A*%
%TO.N,Net-(D1-A)*%
X128600000Y-74500000D03*
%TD*%
D12*
%TO.P,Q2,1,E*%
%TO.N,Net-(D1-A)*%
X120754000Y-119532000D03*
D13*
%TO.P,Q2,2,B*%
%TO.N,Net-(Q1-C)*%
X123294000Y-116992000D03*
%TO.P,Q2,3,C*%
%TO.N,Net-(Q2-C)*%
X125834000Y-119532000D03*
%TD*%
D12*
%TO.P,Q1,1,E*%
%TO.N,Net-(D1-K)*%
X120554000Y-129032000D03*
D13*
%TO.P,Q1,2,B*%
%TO.N,Net-(Q1-B)*%
X123094000Y-126492000D03*
%TO.P,Q1,3,C*%
%TO.N,Net-(Q1-C)*%
X125634000Y-129032000D03*
%TD*%
D14*
%TO.P,R1off1,1*%
%TO.N,Net-(S1-E)*%
X136809821Y-112705942D03*
%TO.P,R1off1,2*%
%TO.N,Net-(D3-A)*%
X146969821Y-112705942D03*
%TD*%
D15*
%TO.P,S1,1,A*%
%TO.N,Net-(S1-A-Pad1)*%
X163854000Y-126632000D03*
%TO.P,S1,2,E*%
%TO.N,Net-(S1-E)*%
X163854000Y-124092000D03*
%TO.P,S1,3,A*%
%TO.N,unconnected-(S1-A-Pad3)*%
X163854000Y-121552000D03*
%TD*%
D16*
%TO.P,C1,1*%
%TO.N,Net-(D3-K)*%
X125380000Y-109490000D03*
D14*
%TO.P,C1,2*%
%TO.N,Net-(D1-K)*%
X122880000Y-109490000D03*
%TD*%
%TO.P,R4,1*%
%TO.N,Net-(Q1-B)*%
X136809821Y-128905942D03*
%TO.P,R4,2*%
%TO.N,Net-(D1-K)*%
X146969821Y-128905942D03*
%TD*%
%TO.P,R3,1*%
%TO.N,Net-(D3-K)*%
X136809821Y-132955942D03*
%TO.P,R3,2*%
%TO.N,Net-(Q1-B)*%
X146969821Y-132955942D03*
%TD*%
%TO.P,R6,1*%
%TO.N,Net-(S1-E)*%
X136809821Y-120805942D03*
%TO.P,R6,2*%
%TO.N,Net-(Q2-C)*%
X146969821Y-120805942D03*
%TD*%
D17*
%TO.P,D3,1,K*%
%TO.N,Net-(D3-K)*%
X145874000Y-107532000D03*
D18*
%TO.P,D3,2,A*%
%TO.N,Net-(D3-A)*%
X138254000Y-107532000D03*
%TD*%
D14*
%TO.P,R5,1*%
%TO.N,Net-(S1-E)*%
X136809821Y-124855942D03*
%TO.P,R5,2*%
%TO.N,Net-(Q1-C)*%
X146969821Y-124855942D03*
%TD*%
D19*
%TO.P,U1,1,GND*%
%TO.N,Net-(D1-K)*%
X155154000Y-114312000D03*
D14*
%TO.P,U1,2,TR*%
%TO.N,Net-(D3-K)*%
X155154000Y-111772000D03*
%TO.P,U1,3,Q*%
%TO.N,unconnected-(U1-Q-Pad3)*%
X155154000Y-109232000D03*
%TO.P,U1,4,R*%
%TO.N,Net-(S1-E)*%
X155154000Y-106692000D03*
%TO.P,U1,5,CV*%
%TO.N,unconnected-(U1-CV-Pad5)*%
X162774000Y-106692000D03*
%TO.P,U1,6,THR*%
%TO.N,Net-(D3-K)*%
X162774000Y-109232000D03*
%TO.P,U1,7,DIS*%
%TO.N,Net-(D3-A)*%
X162774000Y-111772000D03*
%TO.P,U1,8,VCC*%
%TO.N,Net-(S1-E)*%
X162774000Y-114312000D03*
%TD*%
%TO.P,R7,1*%
%TO.N,Net-(D3-K)*%
X136809821Y-116755942D03*
%TO.P,R7,2*%
%TO.N,Net-(D3-A)*%
X146969821Y-116755942D03*
%TD*%
D20*
%TO.N,Net-(D3-K)*%
X132354000Y-130532000D02*
X132354000Y-117950000D01*
X136809821Y-132955942D02*
X134777942Y-132955942D01*
X134777942Y-132955942D02*
X132354000Y-130532000D01*
X132354000Y-117950000D02*
X125380000Y-110976000D01*
X133548058Y-116755942D02*
X132354000Y-117950000D01*
X136809821Y-116755942D02*
X133548058Y-116755942D01*
X125380000Y-110976000D02*
X125380000Y-109490000D01*
X136809821Y-116755942D02*
X145874000Y-107691763D01*
X145874000Y-107691763D02*
X145874000Y-107532000D01*
X155154000Y-111772000D02*
X157514000Y-111772000D01*
X157514000Y-111772000D02*
X160054000Y-109232000D01*
X160054000Y-109232000D02*
X162774000Y-109232000D01*
%TO.N,Net-(D3-A)*%
X146969821Y-112705942D02*
X152195879Y-117932000D01*
X158354000Y-117932000D02*
X158354000Y-114132000D01*
X152195879Y-117932000D02*
X158354000Y-117932000D01*
X158354000Y-114132000D02*
X160714000Y-111772000D01*
X160714000Y-111772000D02*
X162774000Y-111772000D01*
%TO.N,Net-(S1-E)*%
X136809821Y-124855942D02*
X136809821Y-120805942D01*
%TD*%
M02*
