%TF.GenerationSoftware,KiCad,Pcbnew,9.0.6*%
%TF.CreationDate,2026-05-12T16:09:06+02:00*%
%TF.ProjectId,Eule2,45756c65-322e-46b6-9963-61645f706362,rev?*%
%TF.SameCoordinates,Original*%
%TF.FileFunction,Soldermask,Bot*%
%TF.FilePolarity,Negative*%
%FSLAX46Y46*%
G04 Gerber Fmt 4.6, Leading zero omitted, Abs format (unit mm)*
G04 Created by KiCad (PCBNEW 9.0.6) date 2026-05-12 16:09:06*
%MOMM*%
%LPD*%
G01*
G04 APERTURE LIST*
G04 Aperture macros list*
%AMRoundRect*
0 Rectangle with rounded corners*
0 $1 Rounding radius*
0 $2 $3 $4 $5 $6 $7 $8 $9 X,Y pos of 4 corners*
0 Add a 4 corners polygon primitive as box body*
4,1,4,$2,$3,$4,$5,$6,$7,$8,$9,$2,$3,0*
0 Add four circle primitives for the rounded corners*
1,1,$1+$1,$2,$3*
1,1,$1+$1,$4,$5*
1,1,$1+$1,$6,$7*
1,1,$1+$1,$8,$9*
0 Add four rect primitives between the rounded corners*
20,1,$1+$1,$2,$3,$4,$5,0*
20,1,$1+$1,$4,$5,$6,$7,0*
20,1,$1+$1,$6,$7,$8,$9,0*
20,1,$1+$1,$8,$9,$2,$3,0*%
G04 Aperture macros list end*
%ADD10C,0.150000*%
%ADD11RoundRect,0.200000X-0.900000X-0.900000X0.900000X-0.900000X0.900000X0.900000X-0.900000X0.900000X0*%
%ADD12C,2.200000*%
%ADD13RoundRect,0.200000X-0.750000X-0.750000X0.750000X-0.750000X0.750000X0.750000X-0.750000X0.750000X0*%
%ADD14C,1.900000*%
%ADD15C,2.000000*%
%ADD16C,2.400000*%
%ADD17RoundRect,0.312500X0.687500X0.687500X-0.687500X0.687500X-0.687500X-0.687500X0.687500X-0.687500X0*%
%ADD18RoundRect,0.200000X-2.500000X-1.000000X2.500000X-1.000000X2.500000X1.000000X-2.500000X1.000000X0*%
%ADD19C,18.180000*%
%ADD20RoundRect,0.200000X0.800000X0.800000X-0.800000X0.800000X-0.800000X-0.800000X0.800000X-0.800000X0*%
%ADD21O,2.000000X2.000000*%
%ADD22RoundRect,0.312500X-0.687500X-0.687500X0.687500X-0.687500X0.687500X0.687500X-0.687500X0.687500X0*%
G04 APERTURE END LIST*
D10*
X144247220Y-89679819D02*
X144247220Y-88679819D01*
X143675792Y-89679819D02*
X144104363Y-89108390D01*
X143675792Y-88679819D02*
X144247220Y-89251247D01*
X143247220Y-89679819D02*
X143247220Y-88679819D01*
X143247220Y-89156009D02*
X142675792Y-89156009D01*
X142675792Y-89679819D02*
X142675792Y-88679819D01*
X141866268Y-89156009D02*
X142199601Y-89156009D01*
X142199601Y-89679819D02*
X142199601Y-88679819D01*
X142199601Y-88679819D02*
X141723411Y-88679819D01*
X140390077Y-88679819D02*
X140294839Y-88679819D01*
X140294839Y-88679819D02*
X140199601Y-88727438D01*
X140199601Y-88727438D02*
X140151982Y-88775057D01*
X140151982Y-88775057D02*
X140104363Y-88870295D01*
X140104363Y-88870295D02*
X140056744Y-89060771D01*
X140056744Y-89060771D02*
X140056744Y-89298866D01*
X140056744Y-89298866D02*
X140104363Y-89489342D01*
X140104363Y-89489342D02*
X140151982Y-89584580D01*
X140151982Y-89584580D02*
X140199601Y-89632200D01*
X140199601Y-89632200D02*
X140294839Y-89679819D01*
X140294839Y-89679819D02*
X140390077Y-89679819D01*
X140390077Y-89679819D02*
X140485315Y-89632200D01*
X140485315Y-89632200D02*
X140532934Y-89584580D01*
X140532934Y-89584580D02*
X140580553Y-89489342D01*
X140580553Y-89489342D02*
X140628172Y-89298866D01*
X140628172Y-89298866D02*
X140628172Y-89060771D01*
X140628172Y-89060771D02*
X140580553Y-88870295D01*
X140580553Y-88870295D02*
X140532934Y-88775057D01*
X140532934Y-88775057D02*
X140485315Y-88727438D01*
X140485315Y-88727438D02*
X140390077Y-88679819D01*
X139151982Y-88679819D02*
X139628172Y-88679819D01*
X139628172Y-88679819D02*
X139675791Y-89156009D01*
X139675791Y-89156009D02*
X139628172Y-89108390D01*
X139628172Y-89108390D02*
X139532934Y-89060771D01*
X139532934Y-89060771D02*
X139294839Y-89060771D01*
X139294839Y-89060771D02*
X139199601Y-89108390D01*
X139199601Y-89108390D02*
X139151982Y-89156009D01*
X139151982Y-89156009D02*
X139104363Y-89251247D01*
X139104363Y-89251247D02*
X139104363Y-89489342D01*
X139104363Y-89489342D02*
X139151982Y-89584580D01*
X139151982Y-89584580D02*
X139199601Y-89632200D01*
X139199601Y-89632200D02*
X139294839Y-89679819D01*
X139294839Y-89679819D02*
X139532934Y-89679819D01*
X139532934Y-89679819D02*
X139628172Y-89632200D01*
X139628172Y-89632200D02*
X139675791Y-89584580D01*
X138675791Y-89584580D02*
X138628172Y-89632200D01*
X138628172Y-89632200D02*
X138675791Y-89679819D01*
X138675791Y-89679819D02*
X138723410Y-89632200D01*
X138723410Y-89632200D02*
X138675791Y-89584580D01*
X138675791Y-89584580D02*
X138675791Y-89679819D01*
X138247220Y-88775057D02*
X138199601Y-88727438D01*
X138199601Y-88727438D02*
X138104363Y-88679819D01*
X138104363Y-88679819D02*
X137866268Y-88679819D01*
X137866268Y-88679819D02*
X137771030Y-88727438D01*
X137771030Y-88727438D02*
X137723411Y-88775057D01*
X137723411Y-88775057D02*
X137675792Y-88870295D01*
X137675792Y-88870295D02*
X137675792Y-88965533D01*
X137675792Y-88965533D02*
X137723411Y-89108390D01*
X137723411Y-89108390D02*
X138294839Y-89679819D01*
X138294839Y-89679819D02*
X137675792Y-89679819D01*
X137056744Y-88679819D02*
X136961506Y-88679819D01*
X136961506Y-88679819D02*
X136866268Y-88727438D01*
X136866268Y-88727438D02*
X136818649Y-88775057D01*
X136818649Y-88775057D02*
X136771030Y-88870295D01*
X136771030Y-88870295D02*
X136723411Y-89060771D01*
X136723411Y-89060771D02*
X136723411Y-89298866D01*
X136723411Y-89298866D02*
X136771030Y-89489342D01*
X136771030Y-89489342D02*
X136818649Y-89584580D01*
X136818649Y-89584580D02*
X136866268Y-89632200D01*
X136866268Y-89632200D02*
X136961506Y-89679819D01*
X136961506Y-89679819D02*
X137056744Y-89679819D01*
X137056744Y-89679819D02*
X137151982Y-89632200D01*
X137151982Y-89632200D02*
X137199601Y-89584580D01*
X137199601Y-89584580D02*
X137247220Y-89489342D01*
X137247220Y-89489342D02*
X137294839Y-89298866D01*
X137294839Y-89298866D02*
X137294839Y-89060771D01*
X137294839Y-89060771D02*
X137247220Y-88870295D01*
X137247220Y-88870295D02*
X137199601Y-88775057D01*
X137199601Y-88775057D02*
X137151982Y-88727438D01*
X137151982Y-88727438D02*
X137056744Y-88679819D01*
X136342458Y-88775057D02*
X136294839Y-88727438D01*
X136294839Y-88727438D02*
X136199601Y-88679819D01*
X136199601Y-88679819D02*
X135961506Y-88679819D01*
X135961506Y-88679819D02*
X135866268Y-88727438D01*
X135866268Y-88727438D02*
X135818649Y-88775057D01*
X135818649Y-88775057D02*
X135771030Y-88870295D01*
X135771030Y-88870295D02*
X135771030Y-88965533D01*
X135771030Y-88965533D02*
X135818649Y-89108390D01*
X135818649Y-89108390D02*
X136390077Y-89679819D01*
X136390077Y-89679819D02*
X135771030Y-89679819D01*
X134913887Y-88679819D02*
X135104363Y-88679819D01*
X135104363Y-88679819D02*
X135199601Y-88727438D01*
X135199601Y-88727438D02*
X135247220Y-88775057D01*
X135247220Y-88775057D02*
X135342458Y-88917914D01*
X135342458Y-88917914D02*
X135390077Y-89108390D01*
X135390077Y-89108390D02*
X135390077Y-89489342D01*
X135390077Y-89489342D02*
X135342458Y-89584580D01*
X135342458Y-89584580D02*
X135294839Y-89632200D01*
X135294839Y-89632200D02*
X135199601Y-89679819D01*
X135199601Y-89679819D02*
X135009125Y-89679819D01*
X135009125Y-89679819D02*
X134913887Y-89632200D01*
X134913887Y-89632200D02*
X134866268Y-89584580D01*
X134866268Y-89584580D02*
X134818649Y-89489342D01*
X134818649Y-89489342D02*
X134818649Y-89251247D01*
X134818649Y-89251247D02*
X134866268Y-89156009D01*
X134866268Y-89156009D02*
X134913887Y-89108390D01*
X134913887Y-89108390D02*
X135009125Y-89060771D01*
X135009125Y-89060771D02*
X135199601Y-89060771D01*
X135199601Y-89060771D02*
X135294839Y-89108390D01*
X135294839Y-89108390D02*
X135342458Y-89156009D01*
X135342458Y-89156009D02*
X135390077Y-89251247D01*
D11*
%TO.C,D2*%
X147725000Y-74600000D03*
D12*
X150265000Y-74600000D03*
%TD*%
D11*
%TO.C,D1*%
X126060000Y-74500000D03*
D12*
X128600000Y-74500000D03*
%TD*%
D13*
%TO.C,Q2*%
X120754000Y-119532000D03*
D14*
X123294000Y-116992000D03*
X125834000Y-119532000D03*
%TD*%
D13*
%TO.C,Q1*%
X120554000Y-129032000D03*
D14*
X123094000Y-126492000D03*
X125634000Y-129032000D03*
%TD*%
D15*
%TO.C,R1off1*%
X136809821Y-112705942D03*
X146969821Y-112705942D03*
%TD*%
D16*
%TO.C,S1*%
X163854000Y-126632000D03*
X163854000Y-124092000D03*
X163854000Y-121552000D03*
%TD*%
D17*
%TO.C,C1*%
X125380000Y-109490000D03*
D15*
X122880000Y-109490000D03*
%TD*%
%TO.C,R4*%
X136809821Y-128905942D03*
X146969821Y-128905942D03*
%TD*%
D18*
%TO.C,U2*%
X127100000Y-56200000D03*
X127100000Y-59756000D03*
X152994000Y-56200000D03*
X152994000Y-59756000D03*
D19*
X140054000Y-58232000D03*
%TD*%
D15*
%TO.C,R3*%
X136809821Y-132955942D03*
X146969821Y-132955942D03*
%TD*%
%TO.C,R6*%
X136809821Y-120805942D03*
X146969821Y-120805942D03*
%TD*%
D20*
%TO.C,D3*%
X145874000Y-107532000D03*
D21*
X138254000Y-107532000D03*
%TD*%
D15*
%TO.C,R5*%
X136809821Y-124855942D03*
X146969821Y-124855942D03*
%TD*%
D22*
%TO.C,U1*%
X155154000Y-114312000D03*
D15*
X155154000Y-111772000D03*
X155154000Y-109232000D03*
X155154000Y-106692000D03*
X162774000Y-106692000D03*
X162774000Y-109232000D03*
X162774000Y-111772000D03*
X162774000Y-114312000D03*
%TD*%
%TO.C,R7*%
X136809821Y-116755942D03*
X146969821Y-116755942D03*
%TD*%
M02*
