M48
; DRILL file {KiCad 9.0.6} date 2026-05-12T16:09:08+0200
; FORMAT={-:-/ absolute / inch / decimal}
; #@! TF.CreationDate,2026-05-12T16:09:08+02:00
; #@! TF.GenerationSoftware,Kicad,Pcbnew,9.0.6
; #@! TF.FileFunction,Plated,1,2,PTH
FMAT,2
INCH
; #@! TA.AperFunction,Plated,PTH,ComponentDrill
T1C0.0315
; #@! TA.AperFunction,Plated,PTH,ComponentDrill
T2C0.0354
; #@! TA.AperFunction,Plated,PTH,ComponentDrill
T3C0.0394
%
G90
G05
T1
X4.7462Y-5.08
X4.7541Y-4.706
X4.8378Y-4.3106
X4.8462Y-4.98
X4.8541Y-4.606
X4.9362Y-4.3106
X4.9462Y-5.08
X4.9541Y-4.706
X5.3862Y-4.4372
X5.3862Y-4.5967
X5.3862Y-4.7561
X5.3862Y-4.9156
X5.3862Y-5.075
X5.3862Y-5.2345
X5.4431Y-4.2335
X5.7431Y-4.2335
X5.7862Y-4.4372
X5.7862Y-4.5967
X5.7862Y-4.7561
X5.7862Y-4.9156
X5.7862Y-5.075
X5.7862Y-5.2345
X6.1084Y-4.2005
X6.1084Y-4.3005
X6.1084Y-4.4005
X6.1084Y-4.5005
X6.4084Y-4.2005
X6.4084Y-4.3005
X6.4084Y-4.4005
X6.4084Y-4.5005
T2
X4.963Y-2.9331
X5.063Y-2.9331
X5.8159Y-2.937
X5.9159Y-2.937
T3
X6.4509Y-4.7855
X6.4509Y-4.8855
X6.4509Y-4.9855
M30
