%TF.GenerationSoftware,KiCad,Pcbnew,9.0.6*%
%TF.CreationDate,2026-01-05T12:28:17+01:00*%
%TF.ProjectId,Seegeist,53656567-6569-4737-942e-6b696361645f,rev?*%
%TF.SameCoordinates,Original*%
%TF.FileFunction,Soldermask,Bot*%
%TF.FilePolarity,Negative*%
%FSLAX46Y46*%
G04 Gerber Fmt 4.6, Leading zero omitted, Abs format (unit mm)*
G04 Created by KiCad (PCBNEW 9.0.6) date 2026-01-05 12:28:17*
%MOMM*%
%LPD*%
G01*
G04 APERTURE LIST*
G04 Aperture macros list*
%AMRoundRect*
0 Rectangle with rounded corners*
0 $1 Rounding radius*
0 $2 $3 $4 $5 $6 $7 $8 $9 X,Y pos of 4 corners*
0 Add a 4 corners polygon primitive as box body*
4,1,4,$2,$3,$4,$5,$6,$7,$8,$9,$2,$3,0*
0 Add four circle primitives for the rounded corners*
1,1,$1+$1,$2,$3*
1,1,$1+$1,$4,$5*
1,1,$1+$1,$6,$7*
1,1,$1+$1,$8,$9*
0 Add four rect primitives between the rounded corners*
20,1,$1+$1,$2,$3,$4,$5,0*
20,1,$1+$1,$4,$5,$6,$7,0*
20,1,$1+$1,$6,$7,$8,$9,0*
20,1,$1+$1,$8,$9,$2,$3,0*%
G04 Aperture macros list end*
%ADD10C,0.150000*%
%ADD11C,1.900000*%
%ADD12RoundRect,0.200000X-0.750000X0.750000X-0.750000X-0.750000X0.750000X-0.750000X0.750000X0.750000X0*%
%ADD13C,2.000000*%
%ADD14O,2.000000X2.000000*%
%ADD15RoundRect,0.200000X0.800000X0.800000X-0.800000X0.800000X-0.800000X-0.800000X0.800000X-0.800000X0*%
%ADD16RoundRect,0.312500X0.687500X0.687500X-0.687500X0.687500X-0.687500X-0.687500X0.687500X-0.687500X0*%
%ADD17RoundRect,0.200000X-0.900000X-0.900000X0.900000X-0.900000X0.900000X0.900000X-0.900000X0.900000X0*%
%ADD18C,2.200000*%
%ADD19RoundRect,0.200000X-0.800000X0.800000X-0.800000X-0.800000X0.800000X-0.800000X0.800000X0.800000X0*%
%ADD20C,18.180000*%
%ADD21RoundRect,0.200000X-2.500000X-1.000000X2.500000X-1.000000X2.500000X1.000000X-2.500000X1.000000X0*%
%ADD22C,2.400000*%
G04 APERTURE END LIST*
D10*
X141863220Y-65419819D02*
X141863220Y-64419819D01*
X141291792Y-65419819D02*
X141720363Y-64848390D01*
X141291792Y-64419819D02*
X141863220Y-64991247D01*
X140863220Y-65419819D02*
X140863220Y-64419819D01*
X140863220Y-64896009D02*
X140291792Y-64896009D01*
X140291792Y-65419819D02*
X140291792Y-64419819D01*
X139482268Y-64896009D02*
X139815601Y-64896009D01*
X139815601Y-65419819D02*
X139815601Y-64419819D01*
X139815601Y-64419819D02*
X139339411Y-64419819D01*
X138006077Y-64419819D02*
X137910839Y-64419819D01*
X137910839Y-64419819D02*
X137815601Y-64467438D01*
X137815601Y-64467438D02*
X137767982Y-64515057D01*
X137767982Y-64515057D02*
X137720363Y-64610295D01*
X137720363Y-64610295D02*
X137672744Y-64800771D01*
X137672744Y-64800771D02*
X137672744Y-65038866D01*
X137672744Y-65038866D02*
X137720363Y-65229342D01*
X137720363Y-65229342D02*
X137767982Y-65324580D01*
X137767982Y-65324580D02*
X137815601Y-65372200D01*
X137815601Y-65372200D02*
X137910839Y-65419819D01*
X137910839Y-65419819D02*
X138006077Y-65419819D01*
X138006077Y-65419819D02*
X138101315Y-65372200D01*
X138101315Y-65372200D02*
X138148934Y-65324580D01*
X138148934Y-65324580D02*
X138196553Y-65229342D01*
X138196553Y-65229342D02*
X138244172Y-65038866D01*
X138244172Y-65038866D02*
X138244172Y-64800771D01*
X138244172Y-64800771D02*
X138196553Y-64610295D01*
X138196553Y-64610295D02*
X138148934Y-64515057D01*
X138148934Y-64515057D02*
X138101315Y-64467438D01*
X138101315Y-64467438D02*
X138006077Y-64419819D01*
X136720363Y-65419819D02*
X137291791Y-65419819D01*
X137006077Y-65419819D02*
X137006077Y-64419819D01*
X137006077Y-64419819D02*
X137101315Y-64562676D01*
X137101315Y-64562676D02*
X137196553Y-64657914D01*
X137196553Y-64657914D02*
X137291791Y-64705533D01*
X136291791Y-65324580D02*
X136244172Y-65372200D01*
X136244172Y-65372200D02*
X136291791Y-65419819D01*
X136291791Y-65419819D02*
X136339410Y-65372200D01*
X136339410Y-65372200D02*
X136291791Y-65324580D01*
X136291791Y-65324580D02*
X136291791Y-65419819D01*
X135863220Y-64515057D02*
X135815601Y-64467438D01*
X135815601Y-64467438D02*
X135720363Y-64419819D01*
X135720363Y-64419819D02*
X135482268Y-64419819D01*
X135482268Y-64419819D02*
X135387030Y-64467438D01*
X135387030Y-64467438D02*
X135339411Y-64515057D01*
X135339411Y-64515057D02*
X135291792Y-64610295D01*
X135291792Y-64610295D02*
X135291792Y-64705533D01*
X135291792Y-64705533D02*
X135339411Y-64848390D01*
X135339411Y-64848390D02*
X135910839Y-65419819D01*
X135910839Y-65419819D02*
X135291792Y-65419819D01*
X134672744Y-64419819D02*
X134577506Y-64419819D01*
X134577506Y-64419819D02*
X134482268Y-64467438D01*
X134482268Y-64467438D02*
X134434649Y-64515057D01*
X134434649Y-64515057D02*
X134387030Y-64610295D01*
X134387030Y-64610295D02*
X134339411Y-64800771D01*
X134339411Y-64800771D02*
X134339411Y-65038866D01*
X134339411Y-65038866D02*
X134387030Y-65229342D01*
X134387030Y-65229342D02*
X134434649Y-65324580D01*
X134434649Y-65324580D02*
X134482268Y-65372200D01*
X134482268Y-65372200D02*
X134577506Y-65419819D01*
X134577506Y-65419819D02*
X134672744Y-65419819D01*
X134672744Y-65419819D02*
X134767982Y-65372200D01*
X134767982Y-65372200D02*
X134815601Y-65324580D01*
X134815601Y-65324580D02*
X134863220Y-65229342D01*
X134863220Y-65229342D02*
X134910839Y-65038866D01*
X134910839Y-65038866D02*
X134910839Y-64800771D01*
X134910839Y-64800771D02*
X134863220Y-64610295D01*
X134863220Y-64610295D02*
X134815601Y-64515057D01*
X134815601Y-64515057D02*
X134767982Y-64467438D01*
X134767982Y-64467438D02*
X134672744Y-64419819D01*
X133958458Y-64515057D02*
X133910839Y-64467438D01*
X133910839Y-64467438D02*
X133815601Y-64419819D01*
X133815601Y-64419819D02*
X133577506Y-64419819D01*
X133577506Y-64419819D02*
X133482268Y-64467438D01*
X133482268Y-64467438D02*
X133434649Y-64515057D01*
X133434649Y-64515057D02*
X133387030Y-64610295D01*
X133387030Y-64610295D02*
X133387030Y-64705533D01*
X133387030Y-64705533D02*
X133434649Y-64848390D01*
X133434649Y-64848390D02*
X134006077Y-65419819D01*
X134006077Y-65419819D02*
X133387030Y-65419819D01*
X132529887Y-64419819D02*
X132720363Y-64419819D01*
X132720363Y-64419819D02*
X132815601Y-64467438D01*
X132815601Y-64467438D02*
X132863220Y-64515057D01*
X132863220Y-64515057D02*
X132958458Y-64657914D01*
X132958458Y-64657914D02*
X133006077Y-64848390D01*
X133006077Y-64848390D02*
X133006077Y-65229342D01*
X133006077Y-65229342D02*
X132958458Y-65324580D01*
X132958458Y-65324580D02*
X132910839Y-65372200D01*
X132910839Y-65372200D02*
X132815601Y-65419819D01*
X132815601Y-65419819D02*
X132625125Y-65419819D01*
X132625125Y-65419819D02*
X132529887Y-65372200D01*
X132529887Y-65372200D02*
X132482268Y-65324580D01*
X132482268Y-65324580D02*
X132434649Y-65229342D01*
X132434649Y-65229342D02*
X132434649Y-64991247D01*
X132434649Y-64991247D02*
X132482268Y-64896009D01*
X132482268Y-64896009D02*
X132529887Y-64848390D01*
X132529887Y-64848390D02*
X132625125Y-64800771D01*
X132625125Y-64800771D02*
X132815601Y-64800771D01*
X132815601Y-64800771D02*
X132910839Y-64848390D01*
X132910839Y-64848390D02*
X132958458Y-64896009D01*
X132958458Y-64896009D02*
X133006077Y-64991247D01*
X247182220Y-148819819D02*
X247182220Y-147819819D01*
X246610792Y-148819819D02*
X247039363Y-148248390D01*
X246610792Y-147819819D02*
X247182220Y-148391247D01*
X246182220Y-148819819D02*
X246182220Y-147819819D01*
X246182220Y-148296009D02*
X245610792Y-148296009D01*
X245610792Y-148819819D02*
X245610792Y-147819819D01*
X244801268Y-148296009D02*
X245134601Y-148296009D01*
X245134601Y-148819819D02*
X245134601Y-147819819D01*
X245134601Y-147819819D02*
X244658411Y-147819819D01*
X242991744Y-148819819D02*
X243563172Y-148819819D01*
X243277458Y-148819819D02*
X243277458Y-147819819D01*
X243277458Y-147819819D02*
X243372696Y-147962676D01*
X243372696Y-147962676D02*
X243467934Y-148057914D01*
X243467934Y-148057914D02*
X243563172Y-148105533D01*
X242039363Y-148819819D02*
X242610791Y-148819819D01*
X242325077Y-148819819D02*
X242325077Y-147819819D01*
X242325077Y-147819819D02*
X242420315Y-147962676D01*
X242420315Y-147962676D02*
X242515553Y-148057914D01*
X242515553Y-148057914D02*
X242610791Y-148105533D01*
X241610791Y-148724580D02*
X241563172Y-148772200D01*
X241563172Y-148772200D02*
X241610791Y-148819819D01*
X241610791Y-148819819D02*
X241658410Y-148772200D01*
X241658410Y-148772200D02*
X241610791Y-148724580D01*
X241610791Y-148724580D02*
X241610791Y-148819819D01*
X241182220Y-147915057D02*
X241134601Y-147867438D01*
X241134601Y-147867438D02*
X241039363Y-147819819D01*
X241039363Y-147819819D02*
X240801268Y-147819819D01*
X240801268Y-147819819D02*
X240706030Y-147867438D01*
X240706030Y-147867438D02*
X240658411Y-147915057D01*
X240658411Y-147915057D02*
X240610792Y-148010295D01*
X240610792Y-148010295D02*
X240610792Y-148105533D01*
X240610792Y-148105533D02*
X240658411Y-148248390D01*
X240658411Y-148248390D02*
X241229839Y-148819819D01*
X241229839Y-148819819D02*
X240610792Y-148819819D01*
X239991744Y-147819819D02*
X239896506Y-147819819D01*
X239896506Y-147819819D02*
X239801268Y-147867438D01*
X239801268Y-147867438D02*
X239753649Y-147915057D01*
X239753649Y-147915057D02*
X239706030Y-148010295D01*
X239706030Y-148010295D02*
X239658411Y-148200771D01*
X239658411Y-148200771D02*
X239658411Y-148438866D01*
X239658411Y-148438866D02*
X239706030Y-148629342D01*
X239706030Y-148629342D02*
X239753649Y-148724580D01*
X239753649Y-148724580D02*
X239801268Y-148772200D01*
X239801268Y-148772200D02*
X239896506Y-148819819D01*
X239896506Y-148819819D02*
X239991744Y-148819819D01*
X239991744Y-148819819D02*
X240086982Y-148772200D01*
X240086982Y-148772200D02*
X240134601Y-148724580D01*
X240134601Y-148724580D02*
X240182220Y-148629342D01*
X240182220Y-148629342D02*
X240229839Y-148438866D01*
X240229839Y-148438866D02*
X240229839Y-148200771D01*
X240229839Y-148200771D02*
X240182220Y-148010295D01*
X240182220Y-148010295D02*
X240134601Y-147915057D01*
X240134601Y-147915057D02*
X240086982Y-147867438D01*
X240086982Y-147867438D02*
X239991744Y-147819819D01*
X239277458Y-147915057D02*
X239229839Y-147867438D01*
X239229839Y-147867438D02*
X239134601Y-147819819D01*
X239134601Y-147819819D02*
X238896506Y-147819819D01*
X238896506Y-147819819D02*
X238801268Y-147867438D01*
X238801268Y-147867438D02*
X238753649Y-147915057D01*
X238753649Y-147915057D02*
X238706030Y-148010295D01*
X238706030Y-148010295D02*
X238706030Y-148105533D01*
X238706030Y-148105533D02*
X238753649Y-148248390D01*
X238753649Y-148248390D02*
X239325077Y-148819819D01*
X239325077Y-148819819D02*
X238706030Y-148819819D01*
X237801268Y-147819819D02*
X238277458Y-147819819D01*
X238277458Y-147819819D02*
X238325077Y-148296009D01*
X238325077Y-148296009D02*
X238277458Y-148248390D01*
X238277458Y-148248390D02*
X238182220Y-148200771D01*
X238182220Y-148200771D02*
X237944125Y-148200771D01*
X237944125Y-148200771D02*
X237848887Y-148248390D01*
X237848887Y-148248390D02*
X237801268Y-148296009D01*
X237801268Y-148296009D02*
X237753649Y-148391247D01*
X237753649Y-148391247D02*
X237753649Y-148629342D01*
X237753649Y-148629342D02*
X237801268Y-148724580D01*
X237801268Y-148724580D02*
X237848887Y-148772200D01*
X237848887Y-148772200D02*
X237944125Y-148819819D01*
X237944125Y-148819819D02*
X238182220Y-148819819D01*
X238182220Y-148819819D02*
X238277458Y-148772200D01*
X238277458Y-148772200D02*
X238325077Y-148724580D01*
D11*
%TO.C,Q1*%
X176650000Y-99980000D03*
X179190000Y-97440000D03*
D12*
X176650000Y-94900000D03*
%TD*%
D13*
%TO.C,R6*%
X120610000Y-100600000D03*
D14*
X110450000Y-100600000D03*
%TD*%
D13*
%TO.C,R8*%
X120610000Y-108700000D03*
D14*
X110450000Y-108700000D03*
%TD*%
D13*
%TO.C,R4*%
X120610000Y-88450000D03*
D14*
X110450000Y-88450000D03*
%TD*%
D13*
%TO.C,R7*%
X120610000Y-104650000D03*
D14*
X110450000Y-104650000D03*
%TD*%
D15*
%TO.C,NE555*%
X166670000Y-99010000D03*
D14*
X166670000Y-101550000D03*
X166670000Y-104090000D03*
X166670000Y-106630000D03*
X159050000Y-106630000D03*
X159050000Y-104090000D03*
X159050000Y-101550000D03*
X159050000Y-99010000D03*
%TD*%
D13*
%TO.C,R5*%
X120610000Y-96550000D03*
D14*
X110450000Y-96550000D03*
%TD*%
D13*
%TO.C,R4*%
X120610000Y-92500000D03*
D14*
X110450000Y-92500000D03*
%TD*%
D16*
%TO.C,47uF*%
X160300000Y-117150000D03*
D13*
X157800000Y-117150000D03*
%TD*%
D17*
%TO.C,D2*%
X127580000Y-74252000D03*
D18*
X130120000Y-74252000D03*
%TD*%
D12*
%TO.C,Q2*%
X99261764Y-93346549D03*
D11*
X101801764Y-95886549D03*
X99261764Y-98426549D03*
%TD*%
D17*
%TO.C,D1*%
X144130000Y-74250000D03*
D18*
X146670000Y-74250000D03*
%TD*%
D19*
%TO.C,D3*%
X157550000Y-85900000D03*
D14*
X157550000Y-93520000D03*
%TD*%
D20*
%TO.C,U2*%
X138910000Y-106076000D03*
D21*
X151850000Y-107600000D03*
X151850000Y-104044000D03*
X125956000Y-107600000D03*
X125956000Y-104044000D03*
%TD*%
D22*
%TO.C,S1*%
X171079500Y-88850000D03*
X168539500Y-88850000D03*
X165999500Y-88850000D03*
%TD*%
M02*
