M48
; DRILL file {KiCad 9.0.6} date 2026-01-05T12:28:19+0100
; FORMAT={-:-/ absolute / inch / decimal}
; #@! TF.CreationDate,2026-01-05T12:28:19+01:00
; #@! TF.GenerationSoftware,Kicad,Pcbnew,9.0.6
; #@! TF.FileFunction,Plated,1,2,PTH
FMAT,2
INCH
; #@! TA.AperFunction,Plated,PTH,ComponentDrill
T1C0.0315
; #@! TA.AperFunction,Plated,PTH,ComponentDrill
T2C0.0354
; #@! TA.AperFunction,Plated,PTH,ComponentDrill
T3C0.0394
%
G90
G05
T1
X3.9079Y-3.6751
X3.9079Y-3.8751
X4.0079Y-3.7751
X4.3484Y-3.4823
X4.3484Y-3.6417
X4.3484Y-3.8012
X4.3484Y-3.9606
X4.3484Y-4.1201
X4.3484Y-4.2795
X4.7484Y-3.4823
X4.7484Y-3.6417
X4.7484Y-3.8012
X4.7484Y-3.9606
X4.7484Y-4.1201
X4.7484Y-4.2795
X6.2028Y-3.3819
X6.2028Y-3.6819
X6.2126Y-4.6122
X6.2618Y-3.898
X6.2618Y-3.998
X6.2618Y-4.098
X6.2618Y-4.198
X6.311Y-4.6122
X6.5618Y-3.898
X6.5618Y-3.998
X6.5618Y-4.098
X6.5618Y-4.198
X6.9547Y-3.7362
X6.9547Y-3.9362
X7.0547Y-3.8362
T2
X5.0228Y-2.9233
X5.1228Y-2.9233
X5.6744Y-2.9232
X5.7744Y-2.9232
T3
X6.5354Y-3.498
X6.6354Y-3.498
X6.7354Y-3.498
M30
