%TF.GenerationSoftware,KiCad,Pcbnew,9.0.6*%
%TF.CreationDate,2026-01-25T16:51:22+01:00*%
%TF.ProjectId,Seegeist,53656567-6569-4737-942e-6b696361645f,rev?*%
%TF.SameCoordinates,Original*%
%TF.FileFunction,Soldermask,Bot*%
%TF.FilePolarity,Negative*%
%FSLAX46Y46*%
G04 Gerber Fmt 4.6, Leading zero omitted, Abs format (unit mm)*
G04 Created by KiCad (PCBNEW 9.0.6) date 2026-01-25 16:51:22*
%MOMM*%
%LPD*%
G01*
G04 APERTURE LIST*
G04 Aperture macros list*
%AMRoundRect*
0 Rectangle with rounded corners*
0 $1 Rounding radius*
0 $2 $3 $4 $5 $6 $7 $8 $9 X,Y pos of 4 corners*
0 Add a 4 corners polygon primitive as box body*
4,1,4,$2,$3,$4,$5,$6,$7,$8,$9,$2,$3,0*
0 Add four circle primitives for the rounded corners*
1,1,$1+$1,$2,$3*
1,1,$1+$1,$4,$5*
1,1,$1+$1,$6,$7*
1,1,$1+$1,$8,$9*
0 Add four rect primitives between the rounded corners*
20,1,$1+$1,$2,$3,$4,$5,0*
20,1,$1+$1,$4,$5,$6,$7,0*
20,1,$1+$1,$6,$7,$8,$9,0*
20,1,$1+$1,$8,$9,$2,$3,0*%
G04 Aperture macros list end*
%ADD10C,0.150000*%
%ADD11O,2.000000X2.000000*%
%ADD12C,2.000000*%
%ADD13RoundRect,0.312500X0.687500X0.687500X-0.687500X0.687500X-0.687500X-0.687500X0.687500X-0.687500X0*%
%ADD14RoundRect,0.200000X-0.900000X-0.900000X0.900000X-0.900000X0.900000X0.900000X-0.900000X0.900000X0*%
%ADD15C,2.200000*%
%ADD16RoundRect,0.200000X-0.750000X0.750000X-0.750000X-0.750000X0.750000X-0.750000X0.750000X0.750000X0*%
%ADD17C,1.900000*%
%ADD18RoundRect,0.200000X0.800000X0.800000X-0.800000X0.800000X-0.800000X-0.800000X0.800000X-0.800000X0*%
%ADD19RoundRect,0.200000X-2.500000X-1.000000X2.500000X-1.000000X2.500000X1.000000X-2.500000X1.000000X0*%
%ADD20C,18.180000*%
%ADD21RoundRect,0.200000X-0.800000X0.800000X-0.800000X-0.800000X0.800000X-0.800000X0.800000X0.800000X0*%
%ADD22C,2.400000*%
G04 APERTURE END LIST*
D10*
X141563220Y-137069819D02*
X141563220Y-136069819D01*
X140991792Y-137069819D02*
X141420363Y-136498390D01*
X140991792Y-136069819D02*
X141563220Y-136641247D01*
X140563220Y-137069819D02*
X140563220Y-136069819D01*
X140563220Y-136546009D02*
X139991792Y-136546009D01*
X139991792Y-137069819D02*
X139991792Y-136069819D01*
X139182268Y-136546009D02*
X139515601Y-136546009D01*
X139515601Y-137069819D02*
X139515601Y-136069819D01*
X139515601Y-136069819D02*
X139039411Y-136069819D01*
X137706077Y-136069819D02*
X137610839Y-136069819D01*
X137610839Y-136069819D02*
X137515601Y-136117438D01*
X137515601Y-136117438D02*
X137467982Y-136165057D01*
X137467982Y-136165057D02*
X137420363Y-136260295D01*
X137420363Y-136260295D02*
X137372744Y-136450771D01*
X137372744Y-136450771D02*
X137372744Y-136688866D01*
X137372744Y-136688866D02*
X137420363Y-136879342D01*
X137420363Y-136879342D02*
X137467982Y-136974580D01*
X137467982Y-136974580D02*
X137515601Y-137022200D01*
X137515601Y-137022200D02*
X137610839Y-137069819D01*
X137610839Y-137069819D02*
X137706077Y-137069819D01*
X137706077Y-137069819D02*
X137801315Y-137022200D01*
X137801315Y-137022200D02*
X137848934Y-136974580D01*
X137848934Y-136974580D02*
X137896553Y-136879342D01*
X137896553Y-136879342D02*
X137944172Y-136688866D01*
X137944172Y-136688866D02*
X137944172Y-136450771D01*
X137944172Y-136450771D02*
X137896553Y-136260295D01*
X137896553Y-136260295D02*
X137848934Y-136165057D01*
X137848934Y-136165057D02*
X137801315Y-136117438D01*
X137801315Y-136117438D02*
X137706077Y-136069819D01*
X136420363Y-137069819D02*
X136991791Y-137069819D01*
X136706077Y-137069819D02*
X136706077Y-136069819D01*
X136706077Y-136069819D02*
X136801315Y-136212676D01*
X136801315Y-136212676D02*
X136896553Y-136307914D01*
X136896553Y-136307914D02*
X136991791Y-136355533D01*
X135991791Y-136974580D02*
X135944172Y-137022200D01*
X135944172Y-137022200D02*
X135991791Y-137069819D01*
X135991791Y-137069819D02*
X136039410Y-137022200D01*
X136039410Y-137022200D02*
X135991791Y-136974580D01*
X135991791Y-136974580D02*
X135991791Y-137069819D01*
X135563220Y-136165057D02*
X135515601Y-136117438D01*
X135515601Y-136117438D02*
X135420363Y-136069819D01*
X135420363Y-136069819D02*
X135182268Y-136069819D01*
X135182268Y-136069819D02*
X135087030Y-136117438D01*
X135087030Y-136117438D02*
X135039411Y-136165057D01*
X135039411Y-136165057D02*
X134991792Y-136260295D01*
X134991792Y-136260295D02*
X134991792Y-136355533D01*
X134991792Y-136355533D02*
X135039411Y-136498390D01*
X135039411Y-136498390D02*
X135610839Y-137069819D01*
X135610839Y-137069819D02*
X134991792Y-137069819D01*
X134372744Y-136069819D02*
X134277506Y-136069819D01*
X134277506Y-136069819D02*
X134182268Y-136117438D01*
X134182268Y-136117438D02*
X134134649Y-136165057D01*
X134134649Y-136165057D02*
X134087030Y-136260295D01*
X134087030Y-136260295D02*
X134039411Y-136450771D01*
X134039411Y-136450771D02*
X134039411Y-136688866D01*
X134039411Y-136688866D02*
X134087030Y-136879342D01*
X134087030Y-136879342D02*
X134134649Y-136974580D01*
X134134649Y-136974580D02*
X134182268Y-137022200D01*
X134182268Y-137022200D02*
X134277506Y-137069819D01*
X134277506Y-137069819D02*
X134372744Y-137069819D01*
X134372744Y-137069819D02*
X134467982Y-137022200D01*
X134467982Y-137022200D02*
X134515601Y-136974580D01*
X134515601Y-136974580D02*
X134563220Y-136879342D01*
X134563220Y-136879342D02*
X134610839Y-136688866D01*
X134610839Y-136688866D02*
X134610839Y-136450771D01*
X134610839Y-136450771D02*
X134563220Y-136260295D01*
X134563220Y-136260295D02*
X134515601Y-136165057D01*
X134515601Y-136165057D02*
X134467982Y-136117438D01*
X134467982Y-136117438D02*
X134372744Y-136069819D01*
X133658458Y-136165057D02*
X133610839Y-136117438D01*
X133610839Y-136117438D02*
X133515601Y-136069819D01*
X133515601Y-136069819D02*
X133277506Y-136069819D01*
X133277506Y-136069819D02*
X133182268Y-136117438D01*
X133182268Y-136117438D02*
X133134649Y-136165057D01*
X133134649Y-136165057D02*
X133087030Y-136260295D01*
X133087030Y-136260295D02*
X133087030Y-136355533D01*
X133087030Y-136355533D02*
X133134649Y-136498390D01*
X133134649Y-136498390D02*
X133706077Y-137069819D01*
X133706077Y-137069819D02*
X133087030Y-137069819D01*
X132229887Y-136069819D02*
X132420363Y-136069819D01*
X132420363Y-136069819D02*
X132515601Y-136117438D01*
X132515601Y-136117438D02*
X132563220Y-136165057D01*
X132563220Y-136165057D02*
X132658458Y-136307914D01*
X132658458Y-136307914D02*
X132706077Y-136498390D01*
X132706077Y-136498390D02*
X132706077Y-136879342D01*
X132706077Y-136879342D02*
X132658458Y-136974580D01*
X132658458Y-136974580D02*
X132610839Y-137022200D01*
X132610839Y-137022200D02*
X132515601Y-137069819D01*
X132515601Y-137069819D02*
X132325125Y-137069819D01*
X132325125Y-137069819D02*
X132229887Y-137022200D01*
X132229887Y-137022200D02*
X132182268Y-136974580D01*
X132182268Y-136974580D02*
X132134649Y-136879342D01*
X132134649Y-136879342D02*
X132134649Y-136641247D01*
X132134649Y-136641247D02*
X132182268Y-136546009D01*
X132182268Y-136546009D02*
X132229887Y-136498390D01*
X132229887Y-136498390D02*
X132325125Y-136450771D01*
X132325125Y-136450771D02*
X132515601Y-136450771D01*
X132515601Y-136450771D02*
X132610839Y-136498390D01*
X132610839Y-136498390D02*
X132658458Y-136546009D01*
X132658458Y-136546009D02*
X132706077Y-136641247D01*
D11*
%TO.C,R6*%
X110450000Y-108700000D03*
D12*
X120610000Y-108700000D03*
%TD*%
D11*
%TO.C,R5*%
X110450000Y-104650000D03*
D12*
X120610000Y-104650000D03*
%TD*%
D11*
%TO.C,R3*%
X110450000Y-96550000D03*
D12*
X120610000Y-96550000D03*
%TD*%
D13*
%TO.C,47uF*%
X160300000Y-117150000D03*
D12*
X157800000Y-117150000D03*
%TD*%
D14*
%TO.C,D1*%
X144130000Y-74250000D03*
D15*
X146670000Y-74250000D03*
%TD*%
D14*
%TO.C,D2*%
X127580000Y-74252000D03*
D15*
X130120000Y-74252000D03*
%TD*%
D16*
%TO.C,Q1*%
X176650000Y-94900000D03*
D17*
X179190000Y-97440000D03*
X176650000Y-99980000D03*
%TD*%
D16*
%TO.C,Q2*%
X99261764Y-93346549D03*
D17*
X101801764Y-95886549D03*
X99261764Y-98426549D03*
%TD*%
D18*
%TO.C,NE555*%
X166670000Y-99010000D03*
D11*
X166670000Y-101550000D03*
X166670000Y-104090000D03*
X166670000Y-106630000D03*
X159050000Y-106630000D03*
X159050000Y-104090000D03*
X159050000Y-101550000D03*
X159050000Y-99010000D03*
%TD*%
D12*
%TO.C,R4*%
X120610000Y-92500000D03*
D11*
X110450000Y-92500000D03*
%TD*%
D12*
%TO.C,R4*%
X120610000Y-88450000D03*
D11*
X110450000Y-88450000D03*
%TD*%
D19*
%TO.C,U2*%
X125956000Y-104044000D03*
X125956000Y-107600000D03*
X151850000Y-104044000D03*
X151850000Y-107600000D03*
D20*
X138910000Y-106076000D03*
%TD*%
D21*
%TO.C,D3*%
X157550000Y-85900000D03*
D11*
X157550000Y-93520000D03*
%TD*%
D22*
%TO.C,S1*%
X165999500Y-88850000D03*
X168539500Y-88850000D03*
X171079500Y-88850000D03*
%TD*%
D12*
%TO.C,R4*%
X120610000Y-100600000D03*
D11*
X110450000Y-100600000D03*
%TD*%
M02*
