%TF.GenerationSoftware,KiCad,Pcbnew,9.0.6*%
%TF.CreationDate,2026-01-05T12:28:17+01:00*%
%TF.ProjectId,Seegeist,53656567-6569-4737-942e-6b696361645f,rev?*%
%TF.SameCoordinates,Original*%
%TF.FileFunction,Legend,Bot*%
%TF.FilePolarity,Positive*%
%FSLAX46Y46*%
G04 Gerber Fmt 4.6, Leading zero omitted, Abs format (unit mm)*
G04 Created by KiCad (PCBNEW 9.0.6) date 2026-01-05 12:28:17*
%MOMM*%
%LPD*%
G01*
G04 APERTURE LIST*
%ADD10C,0.150000*%
%ADD11C,0.300000*%
%ADD12C,0.050000*%
%ADD13C,0.010000*%
%ADD14C,0.120000*%
G04 APERTURE END LIST*
D10*
X141877506Y-141869819D02*
X141877506Y-142584104D01*
X141877506Y-142584104D02*
X141925125Y-142726961D01*
X141925125Y-142726961D02*
X142020363Y-142822200D01*
X142020363Y-142822200D02*
X142163220Y-142869819D01*
X142163220Y-142869819D02*
X142258458Y-142869819D01*
X140925125Y-142869819D02*
X141401315Y-142869819D01*
X141401315Y-142869819D02*
X141401315Y-141869819D01*
X140020363Y-142774580D02*
X140067982Y-142822200D01*
X140067982Y-142822200D02*
X140210839Y-142869819D01*
X140210839Y-142869819D02*
X140306077Y-142869819D01*
X140306077Y-142869819D02*
X140448934Y-142822200D01*
X140448934Y-142822200D02*
X140544172Y-142726961D01*
X140544172Y-142726961D02*
X140591791Y-142631723D01*
X140591791Y-142631723D02*
X140639410Y-142441247D01*
X140639410Y-142441247D02*
X140639410Y-142298390D01*
X140639410Y-142298390D02*
X140591791Y-142107914D01*
X140591791Y-142107914D02*
X140544172Y-142012676D01*
X140544172Y-142012676D02*
X140448934Y-141917438D01*
X140448934Y-141917438D02*
X140306077Y-141869819D01*
X140306077Y-141869819D02*
X140210839Y-141869819D01*
X140210839Y-141869819D02*
X140067982Y-141917438D01*
X140067982Y-141917438D02*
X140020363Y-141965057D01*
X139306077Y-141869819D02*
X139306077Y-142584104D01*
X139306077Y-142584104D02*
X139353696Y-142726961D01*
X139353696Y-142726961D02*
X139448934Y-142822200D01*
X139448934Y-142822200D02*
X139591791Y-142869819D01*
X139591791Y-142869819D02*
X139687029Y-142869819D01*
X138353696Y-142869819D02*
X138829886Y-142869819D01*
X138829886Y-142869819D02*
X138829886Y-141869819D01*
X137448934Y-142774580D02*
X137496553Y-142822200D01*
X137496553Y-142822200D02*
X137639410Y-142869819D01*
X137639410Y-142869819D02*
X137734648Y-142869819D01*
X137734648Y-142869819D02*
X137877505Y-142822200D01*
X137877505Y-142822200D02*
X137972743Y-142726961D01*
X137972743Y-142726961D02*
X138020362Y-142631723D01*
X138020362Y-142631723D02*
X138067981Y-142441247D01*
X138067981Y-142441247D02*
X138067981Y-142298390D01*
X138067981Y-142298390D02*
X138020362Y-142107914D01*
X138020362Y-142107914D02*
X137972743Y-142012676D01*
X137972743Y-142012676D02*
X137877505Y-141917438D01*
X137877505Y-141917438D02*
X137734648Y-141869819D01*
X137734648Y-141869819D02*
X137639410Y-141869819D01*
X137639410Y-141869819D02*
X137496553Y-141917438D01*
X137496553Y-141917438D02*
X137448934Y-141965057D01*
X136734648Y-141869819D02*
X136734648Y-142584104D01*
X136734648Y-142584104D02*
X136782267Y-142726961D01*
X136782267Y-142726961D02*
X136877505Y-142822200D01*
X136877505Y-142822200D02*
X137020362Y-142869819D01*
X137020362Y-142869819D02*
X137115600Y-142869819D01*
X135782267Y-142869819D02*
X136258457Y-142869819D01*
X136258457Y-142869819D02*
X136258457Y-141869819D01*
X134877505Y-142774580D02*
X134925124Y-142822200D01*
X134925124Y-142822200D02*
X135067981Y-142869819D01*
X135067981Y-142869819D02*
X135163219Y-142869819D01*
X135163219Y-142869819D02*
X135306076Y-142822200D01*
X135306076Y-142822200D02*
X135401314Y-142726961D01*
X135401314Y-142726961D02*
X135448933Y-142631723D01*
X135448933Y-142631723D02*
X135496552Y-142441247D01*
X135496552Y-142441247D02*
X135496552Y-142298390D01*
X135496552Y-142298390D02*
X135448933Y-142107914D01*
X135448933Y-142107914D02*
X135401314Y-142012676D01*
X135401314Y-142012676D02*
X135306076Y-141917438D01*
X135306076Y-141917438D02*
X135163219Y-141869819D01*
X135163219Y-141869819D02*
X135067981Y-141869819D01*
X135067981Y-141869819D02*
X134925124Y-141917438D01*
X134925124Y-141917438D02*
X134877505Y-141965057D01*
X134163219Y-141869819D02*
X134163219Y-142584104D01*
X134163219Y-142584104D02*
X134210838Y-142726961D01*
X134210838Y-142726961D02*
X134306076Y-142822200D01*
X134306076Y-142822200D02*
X134448933Y-142869819D01*
X134448933Y-142869819D02*
X134544171Y-142869819D01*
X133210838Y-142869819D02*
X133687028Y-142869819D01*
X133687028Y-142869819D02*
X133687028Y-141869819D01*
X132306076Y-142774580D02*
X132353695Y-142822200D01*
X132353695Y-142822200D02*
X132496552Y-142869819D01*
X132496552Y-142869819D02*
X132591790Y-142869819D01*
X132591790Y-142869819D02*
X132734647Y-142822200D01*
X132734647Y-142822200D02*
X132829885Y-142726961D01*
X132829885Y-142726961D02*
X132877504Y-142631723D01*
X132877504Y-142631723D02*
X132925123Y-142441247D01*
X132925123Y-142441247D02*
X132925123Y-142298390D01*
X132925123Y-142298390D02*
X132877504Y-142107914D01*
X132877504Y-142107914D02*
X132829885Y-142012676D01*
X132829885Y-142012676D02*
X132734647Y-141917438D01*
X132734647Y-141917438D02*
X132591790Y-141869819D01*
X132591790Y-141869819D02*
X132496552Y-141869819D01*
X132496552Y-141869819D02*
X132353695Y-141917438D01*
X132353695Y-141917438D02*
X132306076Y-141965057D01*
X157613220Y-84369819D02*
X157613220Y-83369819D01*
X157041792Y-84369819D02*
X157470363Y-83798390D01*
X157041792Y-83369819D02*
X157613220Y-83941247D01*
X100606077Y-99569819D02*
X100034649Y-99569819D01*
X100320363Y-100569819D02*
X100320363Y-99569819D01*
X99748934Y-99665057D02*
X99701315Y-99617438D01*
X99701315Y-99617438D02*
X99606077Y-99569819D01*
X99606077Y-99569819D02*
X99367982Y-99569819D01*
X99367982Y-99569819D02*
X99272744Y-99617438D01*
X99272744Y-99617438D02*
X99225125Y-99665057D01*
X99225125Y-99665057D02*
X99177506Y-99760295D01*
X99177506Y-99760295D02*
X99177506Y-99855533D01*
X99177506Y-99855533D02*
X99225125Y-99998390D01*
X99225125Y-99998390D02*
X99796553Y-100569819D01*
X99796553Y-100569819D02*
X99177506Y-100569819D01*
X97950000Y-93400000D02*
G75*
G02*
X97956097Y-98103233I1250000J-2350000D01*
G01*
X97950000Y-93400000D02*
X97950000Y-98114767D01*
X175100000Y-95150000D02*
G75*
G02*
X175106097Y-99853233I1250000J-2350000D01*
G01*
X175100000Y-95150000D02*
X175100000Y-99864767D01*
X179356077Y-100169819D02*
X178784649Y-100169819D01*
X179070363Y-101169819D02*
X179070363Y-100169819D01*
X177927506Y-101169819D02*
X178498934Y-101169819D01*
X178213220Y-101169819D02*
X178213220Y-100169819D01*
X178213220Y-100169819D02*
X178308458Y-100312676D01*
X178308458Y-100312676D02*
X178403696Y-100407914D01*
X178403696Y-100407914D02*
X178498934Y-100455533D01*
X176813220Y-93046009D02*
X176479887Y-93046009D01*
X176337030Y-93569819D02*
X176813220Y-93569819D01*
X176813220Y-93569819D02*
X176813220Y-92569819D01*
X176813220Y-92569819D02*
X176337030Y-92569819D01*
X174003990Y-99279887D02*
X173956371Y-99137030D01*
X173956371Y-99137030D02*
X173908752Y-99089411D01*
X173908752Y-99089411D02*
X173813514Y-99041792D01*
X173813514Y-99041792D02*
X173670657Y-99041792D01*
X173670657Y-99041792D02*
X173575419Y-99089411D01*
X173575419Y-99089411D02*
X173527800Y-99137030D01*
X173527800Y-99137030D02*
X173480180Y-99232268D01*
X173480180Y-99232268D02*
X173480180Y-99613220D01*
X173480180Y-99613220D02*
X174480180Y-99613220D01*
X174480180Y-99613220D02*
X174480180Y-99279887D01*
X174480180Y-99279887D02*
X174432561Y-99184649D01*
X174432561Y-99184649D02*
X174384942Y-99137030D01*
X174384942Y-99137030D02*
X174289704Y-99089411D01*
X174289704Y-99089411D02*
X174194466Y-99089411D01*
X174194466Y-99089411D02*
X174099228Y-99137030D01*
X174099228Y-99137030D02*
X174051609Y-99184649D01*
X174051609Y-99184649D02*
X174003990Y-99279887D01*
X174003990Y-99279887D02*
X174003990Y-99613220D01*
X173575419Y-98041792D02*
X173527800Y-98089411D01*
X173527800Y-98089411D02*
X173480180Y-98232268D01*
X173480180Y-98232268D02*
X173480180Y-98327506D01*
X173480180Y-98327506D02*
X173527800Y-98470363D01*
X173527800Y-98470363D02*
X173623038Y-98565601D01*
X173623038Y-98565601D02*
X173718276Y-98613220D01*
X173718276Y-98613220D02*
X173908752Y-98660839D01*
X173908752Y-98660839D02*
X174051609Y-98660839D01*
X174051609Y-98660839D02*
X174242085Y-98613220D01*
X174242085Y-98613220D02*
X174337323Y-98565601D01*
X174337323Y-98565601D02*
X174432561Y-98470363D01*
X174432561Y-98470363D02*
X174480180Y-98327506D01*
X174480180Y-98327506D02*
X174480180Y-98232268D01*
X174480180Y-98232268D02*
X174432561Y-98089411D01*
X174432561Y-98089411D02*
X174384942Y-98041792D01*
X174480180Y-97137030D02*
X174480180Y-97613220D01*
X174480180Y-97613220D02*
X174003990Y-97660839D01*
X174003990Y-97660839D02*
X174051609Y-97613220D01*
X174051609Y-97613220D02*
X174099228Y-97517982D01*
X174099228Y-97517982D02*
X174099228Y-97279887D01*
X174099228Y-97279887D02*
X174051609Y-97184649D01*
X174051609Y-97184649D02*
X174003990Y-97137030D01*
X174003990Y-97137030D02*
X173908752Y-97089411D01*
X173908752Y-97089411D02*
X173670657Y-97089411D01*
X173670657Y-97089411D02*
X173575419Y-97137030D01*
X173575419Y-97137030D02*
X173527800Y-97184649D01*
X173527800Y-97184649D02*
X173480180Y-97279887D01*
X173480180Y-97279887D02*
X173480180Y-97517982D01*
X173480180Y-97517982D02*
X173527800Y-97613220D01*
X173527800Y-97613220D02*
X173575419Y-97660839D01*
X174146847Y-96232268D02*
X173480180Y-96232268D01*
X174527800Y-96470363D02*
X173813514Y-96708458D01*
X173813514Y-96708458D02*
X173813514Y-96089411D01*
X174051609Y-95565601D02*
X174099228Y-95660839D01*
X174099228Y-95660839D02*
X174146847Y-95708458D01*
X174146847Y-95708458D02*
X174242085Y-95756077D01*
X174242085Y-95756077D02*
X174289704Y-95756077D01*
X174289704Y-95756077D02*
X174384942Y-95708458D01*
X174384942Y-95708458D02*
X174432561Y-95660839D01*
X174432561Y-95660839D02*
X174480180Y-95565601D01*
X174480180Y-95565601D02*
X174480180Y-95375125D01*
X174480180Y-95375125D02*
X174432561Y-95279887D01*
X174432561Y-95279887D02*
X174384942Y-95232268D01*
X174384942Y-95232268D02*
X174289704Y-95184649D01*
X174289704Y-95184649D02*
X174242085Y-95184649D01*
X174242085Y-95184649D02*
X174146847Y-95232268D01*
X174146847Y-95232268D02*
X174099228Y-95279887D01*
X174099228Y-95279887D02*
X174051609Y-95375125D01*
X174051609Y-95375125D02*
X174051609Y-95565601D01*
X174051609Y-95565601D02*
X174003990Y-95660839D01*
X174003990Y-95660839D02*
X173956371Y-95708458D01*
X173956371Y-95708458D02*
X173861133Y-95756077D01*
X173861133Y-95756077D02*
X173670657Y-95756077D01*
X173670657Y-95756077D02*
X173575419Y-95708458D01*
X173575419Y-95708458D02*
X173527800Y-95660839D01*
X173527800Y-95660839D02*
X173480180Y-95565601D01*
X173480180Y-95565601D02*
X173480180Y-95375125D01*
X173480180Y-95375125D02*
X173527800Y-95279887D01*
X173527800Y-95279887D02*
X173575419Y-95232268D01*
X173575419Y-95232268D02*
X173670657Y-95184649D01*
X173670657Y-95184649D02*
X173861133Y-95184649D01*
X173861133Y-95184649D02*
X173956371Y-95232268D01*
X173956371Y-95232268D02*
X174003990Y-95279887D01*
X174003990Y-95279887D02*
X174051609Y-95375125D01*
X108221429Y-105344819D02*
X108792857Y-105344819D01*
X108507143Y-105344819D02*
X108507143Y-104344819D01*
X108507143Y-104344819D02*
X108602381Y-104487676D01*
X108602381Y-104487676D02*
X108697619Y-104582914D01*
X108697619Y-104582914D02*
X108792857Y-104630533D01*
X107364286Y-104344819D02*
X107554762Y-104344819D01*
X107554762Y-104344819D02*
X107650000Y-104392438D01*
X107650000Y-104392438D02*
X107697619Y-104440057D01*
X107697619Y-104440057D02*
X107792857Y-104582914D01*
X107792857Y-104582914D02*
X107840476Y-104773390D01*
X107840476Y-104773390D02*
X107840476Y-105154342D01*
X107840476Y-105154342D02*
X107792857Y-105249580D01*
X107792857Y-105249580D02*
X107745238Y-105297200D01*
X107745238Y-105297200D02*
X107650000Y-105344819D01*
X107650000Y-105344819D02*
X107459524Y-105344819D01*
X107459524Y-105344819D02*
X107364286Y-105297200D01*
X107364286Y-105297200D02*
X107316667Y-105249580D01*
X107316667Y-105249580D02*
X107269048Y-105154342D01*
X107269048Y-105154342D02*
X107269048Y-104916247D01*
X107269048Y-104916247D02*
X107316667Y-104821009D01*
X107316667Y-104821009D02*
X107364286Y-104773390D01*
X107364286Y-104773390D02*
X107459524Y-104725771D01*
X107459524Y-104725771D02*
X107650000Y-104725771D01*
X107650000Y-104725771D02*
X107745238Y-104773390D01*
X107745238Y-104773390D02*
X107792857Y-104821009D01*
X107792857Y-104821009D02*
X107840476Y-104916247D01*
X106840476Y-105344819D02*
X106840476Y-104344819D01*
X106745238Y-104963866D02*
X106459524Y-105344819D01*
X106459524Y-104678152D02*
X106840476Y-105059104D01*
X132917493Y-106780180D02*
X132917493Y-106065895D01*
X132917493Y-106065895D02*
X132869874Y-105923038D01*
X132869874Y-105923038D02*
X132774636Y-105827800D01*
X132774636Y-105827800D02*
X132631779Y-105780180D01*
X132631779Y-105780180D02*
X132536541Y-105780180D01*
X133869874Y-105780180D02*
X133393684Y-105780180D01*
X133393684Y-105780180D02*
X133393684Y-106780180D01*
X134774636Y-105875419D02*
X134727017Y-105827800D01*
X134727017Y-105827800D02*
X134584160Y-105780180D01*
X134584160Y-105780180D02*
X134488922Y-105780180D01*
X134488922Y-105780180D02*
X134346065Y-105827800D01*
X134346065Y-105827800D02*
X134250827Y-105923038D01*
X134250827Y-105923038D02*
X134203208Y-106018276D01*
X134203208Y-106018276D02*
X134155589Y-106208752D01*
X134155589Y-106208752D02*
X134155589Y-106351609D01*
X134155589Y-106351609D02*
X134203208Y-106542085D01*
X134203208Y-106542085D02*
X134250827Y-106637323D01*
X134250827Y-106637323D02*
X134346065Y-106732561D01*
X134346065Y-106732561D02*
X134488922Y-106780180D01*
X134488922Y-106780180D02*
X134584160Y-106780180D01*
X134584160Y-106780180D02*
X134727017Y-106732561D01*
X134727017Y-106732561D02*
X134774636Y-106684942D01*
X135488922Y-106780180D02*
X135488922Y-106065895D01*
X135488922Y-106065895D02*
X135441303Y-105923038D01*
X135441303Y-105923038D02*
X135346065Y-105827800D01*
X135346065Y-105827800D02*
X135203208Y-105780180D01*
X135203208Y-105780180D02*
X135107970Y-105780180D01*
X136441303Y-105780180D02*
X135965113Y-105780180D01*
X135965113Y-105780180D02*
X135965113Y-106780180D01*
X137346065Y-105875419D02*
X137298446Y-105827800D01*
X137298446Y-105827800D02*
X137155589Y-105780180D01*
X137155589Y-105780180D02*
X137060351Y-105780180D01*
X137060351Y-105780180D02*
X136917494Y-105827800D01*
X136917494Y-105827800D02*
X136822256Y-105923038D01*
X136822256Y-105923038D02*
X136774637Y-106018276D01*
X136774637Y-106018276D02*
X136727018Y-106208752D01*
X136727018Y-106208752D02*
X136727018Y-106351609D01*
X136727018Y-106351609D02*
X136774637Y-106542085D01*
X136774637Y-106542085D02*
X136822256Y-106637323D01*
X136822256Y-106637323D02*
X136917494Y-106732561D01*
X136917494Y-106732561D02*
X137060351Y-106780180D01*
X137060351Y-106780180D02*
X137155589Y-106780180D01*
X137155589Y-106780180D02*
X137298446Y-106732561D01*
X137298446Y-106732561D02*
X137346065Y-106684942D01*
X138060351Y-106780180D02*
X138060351Y-106065895D01*
X138060351Y-106065895D02*
X138012732Y-105923038D01*
X138012732Y-105923038D02*
X137917494Y-105827800D01*
X137917494Y-105827800D02*
X137774637Y-105780180D01*
X137774637Y-105780180D02*
X137679399Y-105780180D01*
X139012732Y-105780180D02*
X138536542Y-105780180D01*
X138536542Y-105780180D02*
X138536542Y-106780180D01*
X139917494Y-105875419D02*
X139869875Y-105827800D01*
X139869875Y-105827800D02*
X139727018Y-105780180D01*
X139727018Y-105780180D02*
X139631780Y-105780180D01*
X139631780Y-105780180D02*
X139488923Y-105827800D01*
X139488923Y-105827800D02*
X139393685Y-105923038D01*
X139393685Y-105923038D02*
X139346066Y-106018276D01*
X139346066Y-106018276D02*
X139298447Y-106208752D01*
X139298447Y-106208752D02*
X139298447Y-106351609D01*
X139298447Y-106351609D02*
X139346066Y-106542085D01*
X139346066Y-106542085D02*
X139393685Y-106637323D01*
X139393685Y-106637323D02*
X139488923Y-106732561D01*
X139488923Y-106732561D02*
X139631780Y-106780180D01*
X139631780Y-106780180D02*
X139727018Y-106780180D01*
X139727018Y-106780180D02*
X139869875Y-106732561D01*
X139869875Y-106732561D02*
X139917494Y-106684942D01*
X140631780Y-106780180D02*
X140631780Y-106065895D01*
X140631780Y-106065895D02*
X140584161Y-105923038D01*
X140584161Y-105923038D02*
X140488923Y-105827800D01*
X140488923Y-105827800D02*
X140346066Y-105780180D01*
X140346066Y-105780180D02*
X140250828Y-105780180D01*
X141584161Y-105780180D02*
X141107971Y-105780180D01*
X141107971Y-105780180D02*
X141107971Y-106780180D01*
X142488923Y-105875419D02*
X142441304Y-105827800D01*
X142441304Y-105827800D02*
X142298447Y-105780180D01*
X142298447Y-105780180D02*
X142203209Y-105780180D01*
X142203209Y-105780180D02*
X142060352Y-105827800D01*
X142060352Y-105827800D02*
X141965114Y-105923038D01*
X141965114Y-105923038D02*
X141917495Y-106018276D01*
X141917495Y-106018276D02*
X141869876Y-106208752D01*
X141869876Y-106208752D02*
X141869876Y-106351609D01*
X141869876Y-106351609D02*
X141917495Y-106542085D01*
X141917495Y-106542085D02*
X141965114Y-106637323D01*
X141965114Y-106637323D02*
X142060352Y-106732561D01*
X142060352Y-106732561D02*
X142203209Y-106780180D01*
X142203209Y-106780180D02*
X142298447Y-106780180D01*
X142298447Y-106780180D02*
X142441304Y-106732561D01*
X142441304Y-106732561D02*
X142488923Y-106684942D01*
X126163220Y-74719819D02*
X126163220Y-73719819D01*
X125591792Y-74719819D02*
X126020363Y-74148390D01*
X125591792Y-73719819D02*
X126163220Y-74291247D01*
X154530180Y-91324411D02*
X154530180Y-91895839D01*
X154530180Y-91610125D02*
X155530180Y-91610125D01*
X155530180Y-91610125D02*
X155387323Y-91705363D01*
X155387323Y-91705363D02*
X155292085Y-91800601D01*
X155292085Y-91800601D02*
X155244466Y-91895839D01*
X154530180Y-90895839D02*
X155530180Y-90895839D01*
X155530180Y-90895839D02*
X154530180Y-90324411D01*
X154530180Y-90324411D02*
X155530180Y-90324411D01*
X155196847Y-89419649D02*
X154530180Y-89419649D01*
X155577800Y-89657744D02*
X154863514Y-89895839D01*
X154863514Y-89895839D02*
X154863514Y-89276792D01*
X154530180Y-88372030D02*
X154530180Y-88943458D01*
X154530180Y-88657744D02*
X155530180Y-88657744D01*
X155530180Y-88657744D02*
X155387323Y-88752982D01*
X155387323Y-88752982D02*
X155292085Y-88848220D01*
X155292085Y-88848220D02*
X155244466Y-88943458D01*
X155196847Y-87514887D02*
X154530180Y-87514887D01*
X155577800Y-87752982D02*
X154863514Y-87991077D01*
X154863514Y-87991077D02*
X154863514Y-87372030D01*
X155101609Y-86848220D02*
X155149228Y-86943458D01*
X155149228Y-86943458D02*
X155196847Y-86991077D01*
X155196847Y-86991077D02*
X155292085Y-87038696D01*
X155292085Y-87038696D02*
X155339704Y-87038696D01*
X155339704Y-87038696D02*
X155434942Y-86991077D01*
X155434942Y-86991077D02*
X155482561Y-86943458D01*
X155482561Y-86943458D02*
X155530180Y-86848220D01*
X155530180Y-86848220D02*
X155530180Y-86657744D01*
X155530180Y-86657744D02*
X155482561Y-86562506D01*
X155482561Y-86562506D02*
X155434942Y-86514887D01*
X155434942Y-86514887D02*
X155339704Y-86467268D01*
X155339704Y-86467268D02*
X155292085Y-86467268D01*
X155292085Y-86467268D02*
X155196847Y-86514887D01*
X155196847Y-86514887D02*
X155149228Y-86562506D01*
X155149228Y-86562506D02*
X155101609Y-86657744D01*
X155101609Y-86657744D02*
X155101609Y-86848220D01*
X155101609Y-86848220D02*
X155053990Y-86943458D01*
X155053990Y-86943458D02*
X155006371Y-86991077D01*
X155006371Y-86991077D02*
X154911133Y-87038696D01*
X154911133Y-87038696D02*
X154720657Y-87038696D01*
X154720657Y-87038696D02*
X154625419Y-86991077D01*
X154625419Y-86991077D02*
X154577800Y-86943458D01*
X154577800Y-86943458D02*
X154530180Y-86848220D01*
X154530180Y-86848220D02*
X154530180Y-86657744D01*
X154530180Y-86657744D02*
X154577800Y-86562506D01*
X154577800Y-86562506D02*
X154625419Y-86514887D01*
X154625419Y-86514887D02*
X154720657Y-86467268D01*
X154720657Y-86467268D02*
X154911133Y-86467268D01*
X154911133Y-86467268D02*
X155006371Y-86514887D01*
X155006371Y-86514887D02*
X155053990Y-86562506D01*
X155053990Y-86562506D02*
X155101609Y-86657744D01*
X99186779Y-91403990D02*
X99520112Y-91403990D01*
X99662969Y-90880180D02*
X99186779Y-90880180D01*
X99186779Y-90880180D02*
X99186779Y-91880180D01*
X99186779Y-91880180D02*
X99662969Y-91880180D01*
X96853990Y-97579887D02*
X96806371Y-97437030D01*
X96806371Y-97437030D02*
X96758752Y-97389411D01*
X96758752Y-97389411D02*
X96663514Y-97341792D01*
X96663514Y-97341792D02*
X96520657Y-97341792D01*
X96520657Y-97341792D02*
X96425419Y-97389411D01*
X96425419Y-97389411D02*
X96377800Y-97437030D01*
X96377800Y-97437030D02*
X96330180Y-97532268D01*
X96330180Y-97532268D02*
X96330180Y-97913220D01*
X96330180Y-97913220D02*
X97330180Y-97913220D01*
X97330180Y-97913220D02*
X97330180Y-97579887D01*
X97330180Y-97579887D02*
X97282561Y-97484649D01*
X97282561Y-97484649D02*
X97234942Y-97437030D01*
X97234942Y-97437030D02*
X97139704Y-97389411D01*
X97139704Y-97389411D02*
X97044466Y-97389411D01*
X97044466Y-97389411D02*
X96949228Y-97437030D01*
X96949228Y-97437030D02*
X96901609Y-97484649D01*
X96901609Y-97484649D02*
X96853990Y-97579887D01*
X96853990Y-97579887D02*
X96853990Y-97913220D01*
X96425419Y-96341792D02*
X96377800Y-96389411D01*
X96377800Y-96389411D02*
X96330180Y-96532268D01*
X96330180Y-96532268D02*
X96330180Y-96627506D01*
X96330180Y-96627506D02*
X96377800Y-96770363D01*
X96377800Y-96770363D02*
X96473038Y-96865601D01*
X96473038Y-96865601D02*
X96568276Y-96913220D01*
X96568276Y-96913220D02*
X96758752Y-96960839D01*
X96758752Y-96960839D02*
X96901609Y-96960839D01*
X96901609Y-96960839D02*
X97092085Y-96913220D01*
X97092085Y-96913220D02*
X97187323Y-96865601D01*
X97187323Y-96865601D02*
X97282561Y-96770363D01*
X97282561Y-96770363D02*
X97330180Y-96627506D01*
X97330180Y-96627506D02*
X97330180Y-96532268D01*
X97330180Y-96532268D02*
X97282561Y-96389411D01*
X97282561Y-96389411D02*
X97234942Y-96341792D01*
X97330180Y-95437030D02*
X97330180Y-95913220D01*
X97330180Y-95913220D02*
X96853990Y-95960839D01*
X96853990Y-95960839D02*
X96901609Y-95913220D01*
X96901609Y-95913220D02*
X96949228Y-95817982D01*
X96949228Y-95817982D02*
X96949228Y-95579887D01*
X96949228Y-95579887D02*
X96901609Y-95484649D01*
X96901609Y-95484649D02*
X96853990Y-95437030D01*
X96853990Y-95437030D02*
X96758752Y-95389411D01*
X96758752Y-95389411D02*
X96520657Y-95389411D01*
X96520657Y-95389411D02*
X96425419Y-95437030D01*
X96425419Y-95437030D02*
X96377800Y-95484649D01*
X96377800Y-95484649D02*
X96330180Y-95579887D01*
X96330180Y-95579887D02*
X96330180Y-95817982D01*
X96330180Y-95817982D02*
X96377800Y-95913220D01*
X96377800Y-95913220D02*
X96425419Y-95960839D01*
X96996847Y-94532268D02*
X96330180Y-94532268D01*
X97377800Y-94770363D02*
X96663514Y-95008458D01*
X96663514Y-95008458D02*
X96663514Y-94389411D01*
X96901609Y-93865601D02*
X96949228Y-93960839D01*
X96949228Y-93960839D02*
X96996847Y-94008458D01*
X96996847Y-94008458D02*
X97092085Y-94056077D01*
X97092085Y-94056077D02*
X97139704Y-94056077D01*
X97139704Y-94056077D02*
X97234942Y-94008458D01*
X97234942Y-94008458D02*
X97282561Y-93960839D01*
X97282561Y-93960839D02*
X97330180Y-93865601D01*
X97330180Y-93865601D02*
X97330180Y-93675125D01*
X97330180Y-93675125D02*
X97282561Y-93579887D01*
X97282561Y-93579887D02*
X97234942Y-93532268D01*
X97234942Y-93532268D02*
X97139704Y-93484649D01*
X97139704Y-93484649D02*
X97092085Y-93484649D01*
X97092085Y-93484649D02*
X96996847Y-93532268D01*
X96996847Y-93532268D02*
X96949228Y-93579887D01*
X96949228Y-93579887D02*
X96901609Y-93675125D01*
X96901609Y-93675125D02*
X96901609Y-93865601D01*
X96901609Y-93865601D02*
X96853990Y-93960839D01*
X96853990Y-93960839D02*
X96806371Y-94008458D01*
X96806371Y-94008458D02*
X96711133Y-94056077D01*
X96711133Y-94056077D02*
X96520657Y-94056077D01*
X96520657Y-94056077D02*
X96425419Y-94008458D01*
X96425419Y-94008458D02*
X96377800Y-93960839D01*
X96377800Y-93960839D02*
X96330180Y-93865601D01*
X96330180Y-93865601D02*
X96330180Y-93675125D01*
X96330180Y-93675125D02*
X96377800Y-93579887D01*
X96377800Y-93579887D02*
X96425419Y-93532268D01*
X96425419Y-93532268D02*
X96520657Y-93484649D01*
X96520657Y-93484649D02*
X96711133Y-93484649D01*
X96711133Y-93484649D02*
X96806371Y-93532268D01*
X96806371Y-93532268D02*
X96853990Y-93579887D01*
X96853990Y-93579887D02*
X96901609Y-93675125D01*
X142763220Y-74569819D02*
X142763220Y-73569819D01*
X142191792Y-74569819D02*
X142620363Y-73998390D01*
X142191792Y-73569819D02*
X142763220Y-74141247D01*
D11*
X154645489Y-117329400D02*
X153502632Y-117329400D01*
D10*
X115696666Y-101026819D02*
X116029999Y-100550628D01*
X116268094Y-101026819D02*
X116268094Y-100026819D01*
X116268094Y-100026819D02*
X115887142Y-100026819D01*
X115887142Y-100026819D02*
X115791904Y-100074438D01*
X115791904Y-100074438D02*
X115744285Y-100122057D01*
X115744285Y-100122057D02*
X115696666Y-100217295D01*
X115696666Y-100217295D02*
X115696666Y-100360152D01*
X115696666Y-100360152D02*
X115744285Y-100455390D01*
X115744285Y-100455390D02*
X115791904Y-100503009D01*
X115791904Y-100503009D02*
X115887142Y-100550628D01*
X115887142Y-100550628D02*
X116268094Y-100550628D01*
X114839523Y-100026819D02*
X115029999Y-100026819D01*
X115029999Y-100026819D02*
X115125237Y-100074438D01*
X115125237Y-100074438D02*
X115172856Y-100122057D01*
X115172856Y-100122057D02*
X115268094Y-100264914D01*
X115268094Y-100264914D02*
X115315713Y-100455390D01*
X115315713Y-100455390D02*
X115315713Y-100836342D01*
X115315713Y-100836342D02*
X115268094Y-100931580D01*
X115268094Y-100931580D02*
X115220475Y-100979200D01*
X115220475Y-100979200D02*
X115125237Y-101026819D01*
X115125237Y-101026819D02*
X114934761Y-101026819D01*
X114934761Y-101026819D02*
X114839523Y-100979200D01*
X114839523Y-100979200D02*
X114791904Y-100931580D01*
X114791904Y-100931580D02*
X114744285Y-100836342D01*
X114744285Y-100836342D02*
X114744285Y-100598247D01*
X114744285Y-100598247D02*
X114791904Y-100503009D01*
X114791904Y-100503009D02*
X114839523Y-100455390D01*
X114839523Y-100455390D02*
X114934761Y-100407771D01*
X114934761Y-100407771D02*
X115125237Y-100407771D01*
X115125237Y-100407771D02*
X115220475Y-100455390D01*
X115220475Y-100455390D02*
X115268094Y-100503009D01*
X115268094Y-100503009D02*
X115315713Y-100598247D01*
X108221429Y-101280819D02*
X108792857Y-101280819D01*
X108507143Y-101280819D02*
X108507143Y-100280819D01*
X108507143Y-100280819D02*
X108602381Y-100423676D01*
X108602381Y-100423676D02*
X108697619Y-100518914D01*
X108697619Y-100518914D02*
X108792857Y-100566533D01*
X107602381Y-100280819D02*
X107507143Y-100280819D01*
X107507143Y-100280819D02*
X107411905Y-100328438D01*
X107411905Y-100328438D02*
X107364286Y-100376057D01*
X107364286Y-100376057D02*
X107316667Y-100471295D01*
X107316667Y-100471295D02*
X107269048Y-100661771D01*
X107269048Y-100661771D02*
X107269048Y-100899866D01*
X107269048Y-100899866D02*
X107316667Y-101090342D01*
X107316667Y-101090342D02*
X107364286Y-101185580D01*
X107364286Y-101185580D02*
X107411905Y-101233200D01*
X107411905Y-101233200D02*
X107507143Y-101280819D01*
X107507143Y-101280819D02*
X107602381Y-101280819D01*
X107602381Y-101280819D02*
X107697619Y-101233200D01*
X107697619Y-101233200D02*
X107745238Y-101185580D01*
X107745238Y-101185580D02*
X107792857Y-101090342D01*
X107792857Y-101090342D02*
X107840476Y-100899866D01*
X107840476Y-100899866D02*
X107840476Y-100661771D01*
X107840476Y-100661771D02*
X107792857Y-100471295D01*
X107792857Y-100471295D02*
X107745238Y-100376057D01*
X107745238Y-100376057D02*
X107697619Y-100328438D01*
X107697619Y-100328438D02*
X107602381Y-100280819D01*
X106269048Y-101280819D02*
X106602381Y-100804628D01*
X106840476Y-101280819D02*
X106840476Y-100280819D01*
X106840476Y-100280819D02*
X106459524Y-100280819D01*
X106459524Y-100280819D02*
X106364286Y-100328438D01*
X106364286Y-100328438D02*
X106316667Y-100376057D01*
X106316667Y-100376057D02*
X106269048Y-100471295D01*
X106269048Y-100471295D02*
X106269048Y-100614152D01*
X106269048Y-100614152D02*
X106316667Y-100709390D01*
X106316667Y-100709390D02*
X106364286Y-100757009D01*
X106364286Y-100757009D02*
X106459524Y-100804628D01*
X106459524Y-100804628D02*
X106840476Y-100804628D01*
X115823666Y-109154819D02*
X116156999Y-108678628D01*
X116395094Y-109154819D02*
X116395094Y-108154819D01*
X116395094Y-108154819D02*
X116014142Y-108154819D01*
X116014142Y-108154819D02*
X115918904Y-108202438D01*
X115918904Y-108202438D02*
X115871285Y-108250057D01*
X115871285Y-108250057D02*
X115823666Y-108345295D01*
X115823666Y-108345295D02*
X115823666Y-108488152D01*
X115823666Y-108488152D02*
X115871285Y-108583390D01*
X115871285Y-108583390D02*
X115918904Y-108631009D01*
X115918904Y-108631009D02*
X116014142Y-108678628D01*
X116014142Y-108678628D02*
X116395094Y-108678628D01*
X115252237Y-108583390D02*
X115347475Y-108535771D01*
X115347475Y-108535771D02*
X115395094Y-108488152D01*
X115395094Y-108488152D02*
X115442713Y-108392914D01*
X115442713Y-108392914D02*
X115442713Y-108345295D01*
X115442713Y-108345295D02*
X115395094Y-108250057D01*
X115395094Y-108250057D02*
X115347475Y-108202438D01*
X115347475Y-108202438D02*
X115252237Y-108154819D01*
X115252237Y-108154819D02*
X115061761Y-108154819D01*
X115061761Y-108154819D02*
X114966523Y-108202438D01*
X114966523Y-108202438D02*
X114918904Y-108250057D01*
X114918904Y-108250057D02*
X114871285Y-108345295D01*
X114871285Y-108345295D02*
X114871285Y-108392914D01*
X114871285Y-108392914D02*
X114918904Y-108488152D01*
X114918904Y-108488152D02*
X114966523Y-108535771D01*
X114966523Y-108535771D02*
X115061761Y-108583390D01*
X115061761Y-108583390D02*
X115252237Y-108583390D01*
X115252237Y-108583390D02*
X115347475Y-108631009D01*
X115347475Y-108631009D02*
X115395094Y-108678628D01*
X115395094Y-108678628D02*
X115442713Y-108773866D01*
X115442713Y-108773866D02*
X115442713Y-108964342D01*
X115442713Y-108964342D02*
X115395094Y-109059580D01*
X115395094Y-109059580D02*
X115347475Y-109107200D01*
X115347475Y-109107200D02*
X115252237Y-109154819D01*
X115252237Y-109154819D02*
X115061761Y-109154819D01*
X115061761Y-109154819D02*
X114966523Y-109107200D01*
X114966523Y-109107200D02*
X114918904Y-109059580D01*
X114918904Y-109059580D02*
X114871285Y-108964342D01*
X114871285Y-108964342D02*
X114871285Y-108773866D01*
X114871285Y-108773866D02*
X114918904Y-108678628D01*
X114918904Y-108678628D02*
X114966523Y-108631009D01*
X114966523Y-108631009D02*
X115061761Y-108583390D01*
X108221429Y-109154819D02*
X108792857Y-109154819D01*
X108507143Y-109154819D02*
X108507143Y-108154819D01*
X108507143Y-108154819D02*
X108602381Y-108297676D01*
X108602381Y-108297676D02*
X108697619Y-108392914D01*
X108697619Y-108392914D02*
X108792857Y-108440533D01*
X107840476Y-108250057D02*
X107792857Y-108202438D01*
X107792857Y-108202438D02*
X107697619Y-108154819D01*
X107697619Y-108154819D02*
X107459524Y-108154819D01*
X107459524Y-108154819D02*
X107364286Y-108202438D01*
X107364286Y-108202438D02*
X107316667Y-108250057D01*
X107316667Y-108250057D02*
X107269048Y-108345295D01*
X107269048Y-108345295D02*
X107269048Y-108440533D01*
X107269048Y-108440533D02*
X107316667Y-108583390D01*
X107316667Y-108583390D02*
X107888095Y-109154819D01*
X107888095Y-109154819D02*
X107269048Y-109154819D01*
X106840476Y-109154819D02*
X106840476Y-108154819D01*
X106269048Y-109154819D02*
X106697619Y-108583390D01*
X106269048Y-108154819D02*
X106840476Y-108726247D01*
X108269047Y-87961819D02*
X108745237Y-87961819D01*
X108745237Y-87961819D02*
X108792856Y-88438009D01*
X108792856Y-88438009D02*
X108745237Y-88390390D01*
X108745237Y-88390390D02*
X108649999Y-88342771D01*
X108649999Y-88342771D02*
X108411904Y-88342771D01*
X108411904Y-88342771D02*
X108316666Y-88390390D01*
X108316666Y-88390390D02*
X108269047Y-88438009D01*
X108269047Y-88438009D02*
X108221428Y-88533247D01*
X108221428Y-88533247D02*
X108221428Y-88771342D01*
X108221428Y-88771342D02*
X108269047Y-88866580D01*
X108269047Y-88866580D02*
X108316666Y-88914200D01*
X108316666Y-88914200D02*
X108411904Y-88961819D01*
X108411904Y-88961819D02*
X108649999Y-88961819D01*
X108649999Y-88961819D02*
X108745237Y-88914200D01*
X108745237Y-88914200D02*
X108792856Y-88866580D01*
X107364285Y-87961819D02*
X107554761Y-87961819D01*
X107554761Y-87961819D02*
X107649999Y-88009438D01*
X107649999Y-88009438D02*
X107697618Y-88057057D01*
X107697618Y-88057057D02*
X107792856Y-88199914D01*
X107792856Y-88199914D02*
X107840475Y-88390390D01*
X107840475Y-88390390D02*
X107840475Y-88771342D01*
X107840475Y-88771342D02*
X107792856Y-88866580D01*
X107792856Y-88866580D02*
X107745237Y-88914200D01*
X107745237Y-88914200D02*
X107649999Y-88961819D01*
X107649999Y-88961819D02*
X107459523Y-88961819D01*
X107459523Y-88961819D02*
X107364285Y-88914200D01*
X107364285Y-88914200D02*
X107316666Y-88866580D01*
X107316666Y-88866580D02*
X107269047Y-88771342D01*
X107269047Y-88771342D02*
X107269047Y-88533247D01*
X107269047Y-88533247D02*
X107316666Y-88438009D01*
X107316666Y-88438009D02*
X107364285Y-88390390D01*
X107364285Y-88390390D02*
X107459523Y-88342771D01*
X107459523Y-88342771D02*
X107649999Y-88342771D01*
X107649999Y-88342771D02*
X107745237Y-88390390D01*
X107745237Y-88390390D02*
X107792856Y-88438009D01*
X107792856Y-88438009D02*
X107840475Y-88533247D01*
X106649999Y-87961819D02*
X106554761Y-87961819D01*
X106554761Y-87961819D02*
X106459523Y-88009438D01*
X106459523Y-88009438D02*
X106411904Y-88057057D01*
X106411904Y-88057057D02*
X106364285Y-88152295D01*
X106364285Y-88152295D02*
X106316666Y-88342771D01*
X106316666Y-88342771D02*
X106316666Y-88580866D01*
X106316666Y-88580866D02*
X106364285Y-88771342D01*
X106364285Y-88771342D02*
X106411904Y-88866580D01*
X106411904Y-88866580D02*
X106459523Y-88914200D01*
X106459523Y-88914200D02*
X106554761Y-88961819D01*
X106554761Y-88961819D02*
X106649999Y-88961819D01*
X106649999Y-88961819D02*
X106745237Y-88914200D01*
X106745237Y-88914200D02*
X106792856Y-88866580D01*
X106792856Y-88866580D02*
X106840475Y-88771342D01*
X106840475Y-88771342D02*
X106888094Y-88580866D01*
X106888094Y-88580866D02*
X106888094Y-88342771D01*
X106888094Y-88342771D02*
X106840475Y-88152295D01*
X106840475Y-88152295D02*
X106792856Y-88057057D01*
X106792856Y-88057057D02*
X106745237Y-88009438D01*
X106745237Y-88009438D02*
X106649999Y-87961819D01*
X105888094Y-88961819D02*
X105888094Y-87961819D01*
X105792856Y-88580866D02*
X105507142Y-88961819D01*
X105507142Y-88295152D02*
X105888094Y-88676104D01*
X115950666Y-88961819D02*
X116283999Y-88485628D01*
X116522094Y-88961819D02*
X116522094Y-87961819D01*
X116522094Y-87961819D02*
X116141142Y-87961819D01*
X116141142Y-87961819D02*
X116045904Y-88009438D01*
X116045904Y-88009438D02*
X115998285Y-88057057D01*
X115998285Y-88057057D02*
X115950666Y-88152295D01*
X115950666Y-88152295D02*
X115950666Y-88295152D01*
X115950666Y-88295152D02*
X115998285Y-88390390D01*
X115998285Y-88390390D02*
X116045904Y-88438009D01*
X116045904Y-88438009D02*
X116141142Y-88485628D01*
X116141142Y-88485628D02*
X116522094Y-88485628D01*
X115617332Y-87961819D02*
X114998285Y-87961819D01*
X114998285Y-87961819D02*
X115331618Y-88342771D01*
X115331618Y-88342771D02*
X115188761Y-88342771D01*
X115188761Y-88342771D02*
X115093523Y-88390390D01*
X115093523Y-88390390D02*
X115045904Y-88438009D01*
X115045904Y-88438009D02*
X114998285Y-88533247D01*
X114998285Y-88533247D02*
X114998285Y-88771342D01*
X114998285Y-88771342D02*
X115045904Y-88866580D01*
X115045904Y-88866580D02*
X115093523Y-88914200D01*
X115093523Y-88914200D02*
X115188761Y-88961819D01*
X115188761Y-88961819D02*
X115474475Y-88961819D01*
X115474475Y-88961819D02*
X115569713Y-88914200D01*
X115569713Y-88914200D02*
X115617332Y-88866580D01*
X115696666Y-105090819D02*
X116029999Y-104614628D01*
X116268094Y-105090819D02*
X116268094Y-104090819D01*
X116268094Y-104090819D02*
X115887142Y-104090819D01*
X115887142Y-104090819D02*
X115791904Y-104138438D01*
X115791904Y-104138438D02*
X115744285Y-104186057D01*
X115744285Y-104186057D02*
X115696666Y-104281295D01*
X115696666Y-104281295D02*
X115696666Y-104424152D01*
X115696666Y-104424152D02*
X115744285Y-104519390D01*
X115744285Y-104519390D02*
X115791904Y-104567009D01*
X115791904Y-104567009D02*
X115887142Y-104614628D01*
X115887142Y-104614628D02*
X116268094Y-104614628D01*
X115363332Y-104090819D02*
X114696666Y-104090819D01*
X114696666Y-104090819D02*
X115125237Y-105090819D01*
X165026666Y-96670819D02*
X165026666Y-95670819D01*
X165026666Y-95670819D02*
X164455238Y-96670819D01*
X164455238Y-96670819D02*
X164455238Y-95670819D01*
X163979047Y-96147009D02*
X163645714Y-96147009D01*
X163502857Y-96670819D02*
X163979047Y-96670819D01*
X163979047Y-96670819D02*
X163979047Y-95670819D01*
X163979047Y-95670819D02*
X163502857Y-95670819D01*
X162598095Y-95670819D02*
X163074285Y-95670819D01*
X163074285Y-95670819D02*
X163121904Y-96147009D01*
X163121904Y-96147009D02*
X163074285Y-96099390D01*
X163074285Y-96099390D02*
X162979047Y-96051771D01*
X162979047Y-96051771D02*
X162740952Y-96051771D01*
X162740952Y-96051771D02*
X162645714Y-96099390D01*
X162645714Y-96099390D02*
X162598095Y-96147009D01*
X162598095Y-96147009D02*
X162550476Y-96242247D01*
X162550476Y-96242247D02*
X162550476Y-96480342D01*
X162550476Y-96480342D02*
X162598095Y-96575580D01*
X162598095Y-96575580D02*
X162645714Y-96623200D01*
X162645714Y-96623200D02*
X162740952Y-96670819D01*
X162740952Y-96670819D02*
X162979047Y-96670819D01*
X162979047Y-96670819D02*
X163074285Y-96623200D01*
X163074285Y-96623200D02*
X163121904Y-96575580D01*
X161645714Y-95670819D02*
X162121904Y-95670819D01*
X162121904Y-95670819D02*
X162169523Y-96147009D01*
X162169523Y-96147009D02*
X162121904Y-96099390D01*
X162121904Y-96099390D02*
X162026666Y-96051771D01*
X162026666Y-96051771D02*
X161788571Y-96051771D01*
X161788571Y-96051771D02*
X161693333Y-96099390D01*
X161693333Y-96099390D02*
X161645714Y-96147009D01*
X161645714Y-96147009D02*
X161598095Y-96242247D01*
X161598095Y-96242247D02*
X161598095Y-96480342D01*
X161598095Y-96480342D02*
X161645714Y-96575580D01*
X161645714Y-96575580D02*
X161693333Y-96623200D01*
X161693333Y-96623200D02*
X161788571Y-96670819D01*
X161788571Y-96670819D02*
X162026666Y-96670819D01*
X162026666Y-96670819D02*
X162121904Y-96623200D01*
X162121904Y-96623200D02*
X162169523Y-96575580D01*
X160693333Y-95670819D02*
X161169523Y-95670819D01*
X161169523Y-95670819D02*
X161217142Y-96147009D01*
X161217142Y-96147009D02*
X161169523Y-96099390D01*
X161169523Y-96099390D02*
X161074285Y-96051771D01*
X161074285Y-96051771D02*
X160836190Y-96051771D01*
X160836190Y-96051771D02*
X160740952Y-96099390D01*
X160740952Y-96099390D02*
X160693333Y-96147009D01*
X160693333Y-96147009D02*
X160645714Y-96242247D01*
X160645714Y-96242247D02*
X160645714Y-96480342D01*
X160645714Y-96480342D02*
X160693333Y-96575580D01*
X160693333Y-96575580D02*
X160740952Y-96623200D01*
X160740952Y-96623200D02*
X160836190Y-96670819D01*
X160836190Y-96670819D02*
X161074285Y-96670819D01*
X161074285Y-96670819D02*
X161169523Y-96623200D01*
X161169523Y-96623200D02*
X161217142Y-96575580D01*
X115823666Y-96962819D02*
X116156999Y-96486628D01*
X116395094Y-96962819D02*
X116395094Y-95962819D01*
X116395094Y-95962819D02*
X116014142Y-95962819D01*
X116014142Y-95962819D02*
X115918904Y-96010438D01*
X115918904Y-96010438D02*
X115871285Y-96058057D01*
X115871285Y-96058057D02*
X115823666Y-96153295D01*
X115823666Y-96153295D02*
X115823666Y-96296152D01*
X115823666Y-96296152D02*
X115871285Y-96391390D01*
X115871285Y-96391390D02*
X115918904Y-96439009D01*
X115918904Y-96439009D02*
X116014142Y-96486628D01*
X116014142Y-96486628D02*
X116395094Y-96486628D01*
X114918904Y-95962819D02*
X115395094Y-95962819D01*
X115395094Y-95962819D02*
X115442713Y-96439009D01*
X115442713Y-96439009D02*
X115395094Y-96391390D01*
X115395094Y-96391390D02*
X115299856Y-96343771D01*
X115299856Y-96343771D02*
X115061761Y-96343771D01*
X115061761Y-96343771D02*
X114966523Y-96391390D01*
X114966523Y-96391390D02*
X114918904Y-96439009D01*
X114918904Y-96439009D02*
X114871285Y-96534247D01*
X114871285Y-96534247D02*
X114871285Y-96772342D01*
X114871285Y-96772342D02*
X114918904Y-96867580D01*
X114918904Y-96867580D02*
X114966523Y-96915200D01*
X114966523Y-96915200D02*
X115061761Y-96962819D01*
X115061761Y-96962819D02*
X115299856Y-96962819D01*
X115299856Y-96962819D02*
X115395094Y-96915200D01*
X115395094Y-96915200D02*
X115442713Y-96867580D01*
X108316667Y-96550152D02*
X108316667Y-97216819D01*
X108554762Y-96169200D02*
X108792857Y-96883485D01*
X108792857Y-96883485D02*
X108173810Y-96883485D01*
X107792857Y-97216819D02*
X107792857Y-96216819D01*
X107697619Y-96835866D02*
X107411905Y-97216819D01*
X107411905Y-96550152D02*
X107792857Y-96931104D01*
X107078571Y-96216819D02*
X106411905Y-96216819D01*
X106411905Y-96216819D02*
X106840476Y-97216819D01*
X108840475Y-92152819D02*
X108221428Y-92152819D01*
X108221428Y-92152819D02*
X108554761Y-92533771D01*
X108554761Y-92533771D02*
X108411904Y-92533771D01*
X108411904Y-92533771D02*
X108316666Y-92581390D01*
X108316666Y-92581390D02*
X108269047Y-92629009D01*
X108269047Y-92629009D02*
X108221428Y-92724247D01*
X108221428Y-92724247D02*
X108221428Y-92962342D01*
X108221428Y-92962342D02*
X108269047Y-93057580D01*
X108269047Y-93057580D02*
X108316666Y-93105200D01*
X108316666Y-93105200D02*
X108411904Y-93152819D01*
X108411904Y-93152819D02*
X108697618Y-93152819D01*
X108697618Y-93152819D02*
X108792856Y-93105200D01*
X108792856Y-93105200D02*
X108840475Y-93057580D01*
X107745237Y-93152819D02*
X107554761Y-93152819D01*
X107554761Y-93152819D02*
X107459523Y-93105200D01*
X107459523Y-93105200D02*
X107411904Y-93057580D01*
X107411904Y-93057580D02*
X107316666Y-92914723D01*
X107316666Y-92914723D02*
X107269047Y-92724247D01*
X107269047Y-92724247D02*
X107269047Y-92343295D01*
X107269047Y-92343295D02*
X107316666Y-92248057D01*
X107316666Y-92248057D02*
X107364285Y-92200438D01*
X107364285Y-92200438D02*
X107459523Y-92152819D01*
X107459523Y-92152819D02*
X107649999Y-92152819D01*
X107649999Y-92152819D02*
X107745237Y-92200438D01*
X107745237Y-92200438D02*
X107792856Y-92248057D01*
X107792856Y-92248057D02*
X107840475Y-92343295D01*
X107840475Y-92343295D02*
X107840475Y-92581390D01*
X107840475Y-92581390D02*
X107792856Y-92676628D01*
X107792856Y-92676628D02*
X107745237Y-92724247D01*
X107745237Y-92724247D02*
X107649999Y-92771866D01*
X107649999Y-92771866D02*
X107459523Y-92771866D01*
X107459523Y-92771866D02*
X107364285Y-92724247D01*
X107364285Y-92724247D02*
X107316666Y-92676628D01*
X107316666Y-92676628D02*
X107269047Y-92581390D01*
X106649999Y-92152819D02*
X106554761Y-92152819D01*
X106554761Y-92152819D02*
X106459523Y-92200438D01*
X106459523Y-92200438D02*
X106411904Y-92248057D01*
X106411904Y-92248057D02*
X106364285Y-92343295D01*
X106364285Y-92343295D02*
X106316666Y-92533771D01*
X106316666Y-92533771D02*
X106316666Y-92771866D01*
X106316666Y-92771866D02*
X106364285Y-92962342D01*
X106364285Y-92962342D02*
X106411904Y-93057580D01*
X106411904Y-93057580D02*
X106459523Y-93105200D01*
X106459523Y-93105200D02*
X106554761Y-93152819D01*
X106554761Y-93152819D02*
X106649999Y-93152819D01*
X106649999Y-93152819D02*
X106745237Y-93105200D01*
X106745237Y-93105200D02*
X106792856Y-93057580D01*
X106792856Y-93057580D02*
X106840475Y-92962342D01*
X106840475Y-92962342D02*
X106888094Y-92771866D01*
X106888094Y-92771866D02*
X106888094Y-92533771D01*
X106888094Y-92533771D02*
X106840475Y-92343295D01*
X106840475Y-92343295D02*
X106792856Y-92248057D01*
X106792856Y-92248057D02*
X106745237Y-92200438D01*
X106745237Y-92200438D02*
X106649999Y-92152819D01*
X105888094Y-93152819D02*
X105888094Y-92152819D01*
X105792856Y-92771866D02*
X105507142Y-93152819D01*
X105507142Y-92486152D02*
X105888094Y-92867104D01*
X115696666Y-92954819D02*
X116029999Y-92478628D01*
X116268094Y-92954819D02*
X116268094Y-91954819D01*
X116268094Y-91954819D02*
X115887142Y-91954819D01*
X115887142Y-91954819D02*
X115791904Y-92002438D01*
X115791904Y-92002438D02*
X115744285Y-92050057D01*
X115744285Y-92050057D02*
X115696666Y-92145295D01*
X115696666Y-92145295D02*
X115696666Y-92288152D01*
X115696666Y-92288152D02*
X115744285Y-92383390D01*
X115744285Y-92383390D02*
X115791904Y-92431009D01*
X115791904Y-92431009D02*
X115887142Y-92478628D01*
X115887142Y-92478628D02*
X116268094Y-92478628D01*
X114839523Y-92288152D02*
X114839523Y-92954819D01*
X115077618Y-91907200D02*
X115315713Y-92621485D01*
X115315713Y-92621485D02*
X114696666Y-92621485D01*
X160216666Y-112538152D02*
X160216666Y-113204819D01*
X160454761Y-112157200D02*
X160692856Y-112871485D01*
X160692856Y-112871485D02*
X160073809Y-112871485D01*
X159788094Y-112204819D02*
X159121428Y-112204819D01*
X159121428Y-112204819D02*
X159549999Y-113204819D01*
X158311904Y-112538152D02*
X158311904Y-113204819D01*
X158740475Y-112538152D02*
X158740475Y-113061961D01*
X158740475Y-113061961D02*
X158692856Y-113157200D01*
X158692856Y-113157200D02*
X158597618Y-113204819D01*
X158597618Y-113204819D02*
X158454761Y-113204819D01*
X158454761Y-113204819D02*
X158359523Y-113157200D01*
X158359523Y-113157200D02*
X158311904Y-113109580D01*
X157502380Y-112681009D02*
X157835713Y-112681009D01*
X157835713Y-113204819D02*
X157835713Y-112204819D01*
X157835713Y-112204819D02*
X157359523Y-112204819D01*
D12*
X139825714Y-98896019D02*
X139825714Y-99705542D01*
X139825714Y-99705542D02*
X139782857Y-99800780D01*
X139782857Y-99800780D02*
X139740000Y-99848400D01*
X139740000Y-99848400D02*
X139654285Y-99896019D01*
X139654285Y-99896019D02*
X139482857Y-99896019D01*
X139482857Y-99896019D02*
X139397142Y-99848400D01*
X139397142Y-99848400D02*
X139354285Y-99800780D01*
X139354285Y-99800780D02*
X139311428Y-99705542D01*
X139311428Y-99705542D02*
X139311428Y-98896019D01*
X138925714Y-98991257D02*
X138882857Y-98943638D01*
X138882857Y-98943638D02*
X138797143Y-98896019D01*
X138797143Y-98896019D02*
X138582857Y-98896019D01*
X138582857Y-98896019D02*
X138497143Y-98943638D01*
X138497143Y-98943638D02*
X138454285Y-98991257D01*
X138454285Y-98991257D02*
X138411428Y-99086495D01*
X138411428Y-99086495D02*
X138411428Y-99181733D01*
X138411428Y-99181733D02*
X138454285Y-99324590D01*
X138454285Y-99324590D02*
X138968571Y-99896019D01*
X138968571Y-99896019D02*
X138411428Y-99896019D01*
X138418570Y-103492209D02*
X138289998Y-103539828D01*
X138289998Y-103539828D02*
X138247141Y-103587447D01*
X138247141Y-103587447D02*
X138204284Y-103682685D01*
X138204284Y-103682685D02*
X138204284Y-103825542D01*
X138204284Y-103825542D02*
X138247141Y-103920780D01*
X138247141Y-103920780D02*
X138289998Y-103968400D01*
X138289998Y-103968400D02*
X138375713Y-104016019D01*
X138375713Y-104016019D02*
X138718570Y-104016019D01*
X138718570Y-104016019D02*
X138718570Y-103016019D01*
X138718570Y-103016019D02*
X138418570Y-103016019D01*
X138418570Y-103016019D02*
X138332856Y-103063638D01*
X138332856Y-103063638D02*
X138289998Y-103111257D01*
X138289998Y-103111257D02*
X138247141Y-103206495D01*
X138247141Y-103206495D02*
X138247141Y-103301733D01*
X138247141Y-103301733D02*
X138289998Y-103396971D01*
X138289998Y-103396971D02*
X138332856Y-103444590D01*
X138332856Y-103444590D02*
X138418570Y-103492209D01*
X138418570Y-103492209D02*
X138718570Y-103492209D01*
X137861427Y-103730304D02*
X137432856Y-103730304D01*
X137947141Y-104016019D02*
X137647141Y-103016019D01*
X137647141Y-103016019D02*
X137347141Y-104016019D01*
X137175712Y-103016019D02*
X136661427Y-103016019D01*
X136918569Y-104016019D02*
X136918569Y-103016019D01*
X136575713Y-104111257D02*
X135889998Y-104111257D01*
X135675713Y-104016019D02*
X135675713Y-103016019D01*
X135675713Y-103492209D02*
X135161427Y-103492209D01*
X135161427Y-104016019D02*
X135161427Y-103016019D01*
X134304284Y-104016019D02*
X134732856Y-104016019D01*
X134732856Y-104016019D02*
X134732856Y-103016019D01*
X134004285Y-104016019D02*
X134004285Y-103016019D01*
X134004285Y-103016019D02*
X133789999Y-103016019D01*
X133789999Y-103016019D02*
X133661428Y-103063638D01*
X133661428Y-103063638D02*
X133575713Y-103158876D01*
X133575713Y-103158876D02*
X133532856Y-103254114D01*
X133532856Y-103254114D02*
X133489999Y-103444590D01*
X133489999Y-103444590D02*
X133489999Y-103587447D01*
X133489999Y-103587447D02*
X133532856Y-103777923D01*
X133532856Y-103777923D02*
X133575713Y-103873161D01*
X133575713Y-103873161D02*
X133661428Y-103968400D01*
X133661428Y-103968400D02*
X133789999Y-104016019D01*
X133789999Y-104016019D02*
X134004285Y-104016019D01*
X133318571Y-104111257D02*
X132632856Y-104111257D01*
X132461428Y-103968400D02*
X132332857Y-104016019D01*
X132332857Y-104016019D02*
X132118571Y-104016019D01*
X132118571Y-104016019D02*
X132032857Y-103968400D01*
X132032857Y-103968400D02*
X131989999Y-103920780D01*
X131989999Y-103920780D02*
X131947142Y-103825542D01*
X131947142Y-103825542D02*
X131947142Y-103730304D01*
X131947142Y-103730304D02*
X131989999Y-103635066D01*
X131989999Y-103635066D02*
X132032857Y-103587447D01*
X132032857Y-103587447D02*
X132118571Y-103539828D01*
X132118571Y-103539828D02*
X132289999Y-103492209D01*
X132289999Y-103492209D02*
X132375714Y-103444590D01*
X132375714Y-103444590D02*
X132418571Y-103396971D01*
X132418571Y-103396971D02*
X132461428Y-103301733D01*
X132461428Y-103301733D02*
X132461428Y-103206495D01*
X132461428Y-103206495D02*
X132418571Y-103111257D01*
X132418571Y-103111257D02*
X132375714Y-103063638D01*
X132375714Y-103063638D02*
X132289999Y-103016019D01*
X132289999Y-103016019D02*
X132075714Y-103016019D01*
X132075714Y-103016019D02*
X131947142Y-103063638D01*
X131561428Y-104016019D02*
X131561428Y-103016019D01*
X131561428Y-103016019D02*
X131261428Y-103730304D01*
X131261428Y-103730304D02*
X130961428Y-103016019D01*
X130961428Y-103016019D02*
X130961428Y-104016019D01*
X130532857Y-104016019D02*
X130532857Y-103016019D01*
X130532857Y-103016019D02*
X130318571Y-103016019D01*
X130318571Y-103016019D02*
X130190000Y-103063638D01*
X130190000Y-103063638D02*
X130104285Y-103158876D01*
X130104285Y-103158876D02*
X130061428Y-103254114D01*
X130061428Y-103254114D02*
X130018571Y-103444590D01*
X130018571Y-103444590D02*
X130018571Y-103587447D01*
X130018571Y-103587447D02*
X130061428Y-103777923D01*
X130061428Y-103777923D02*
X130104285Y-103873161D01*
X130104285Y-103873161D02*
X130190000Y-103968400D01*
X130190000Y-103968400D02*
X130318571Y-104016019D01*
X130318571Y-104016019D02*
X130532857Y-104016019D01*
D10*
X169301404Y-93257200D02*
X169158547Y-93304819D01*
X169158547Y-93304819D02*
X168920452Y-93304819D01*
X168920452Y-93304819D02*
X168825214Y-93257200D01*
X168825214Y-93257200D02*
X168777595Y-93209580D01*
X168777595Y-93209580D02*
X168729976Y-93114342D01*
X168729976Y-93114342D02*
X168729976Y-93019104D01*
X168729976Y-93019104D02*
X168777595Y-92923866D01*
X168777595Y-92923866D02*
X168825214Y-92876247D01*
X168825214Y-92876247D02*
X168920452Y-92828628D01*
X168920452Y-92828628D02*
X169110928Y-92781009D01*
X169110928Y-92781009D02*
X169206166Y-92733390D01*
X169206166Y-92733390D02*
X169253785Y-92685771D01*
X169253785Y-92685771D02*
X169301404Y-92590533D01*
X169301404Y-92590533D02*
X169301404Y-92495295D01*
X169301404Y-92495295D02*
X169253785Y-92400057D01*
X169253785Y-92400057D02*
X169206166Y-92352438D01*
X169206166Y-92352438D02*
X169110928Y-92304819D01*
X169110928Y-92304819D02*
X168872833Y-92304819D01*
X168872833Y-92304819D02*
X168729976Y-92352438D01*
X167777595Y-93304819D02*
X168349023Y-93304819D01*
X168063309Y-93304819D02*
X168063309Y-92304819D01*
X168063309Y-92304819D02*
X168158547Y-92447676D01*
X168158547Y-92447676D02*
X168253785Y-92542914D01*
X168253785Y-92542914D02*
X168349023Y-92590533D01*
D13*
%TO.C,G\u002A\u002A\u002A*%
X150622361Y-136895226D02*
X150558542Y-136959045D01*
X150494723Y-136895226D01*
X150558542Y-136831407D01*
X150622361Y-136895226D01*
G36*
X150622361Y-136895226D02*
G01*
X150558542Y-136959045D01*
X150494723Y-136895226D01*
X150558542Y-136831407D01*
X150622361Y-136895226D01*
G37*
D14*
X142125000Y-83000000D02*
G75*
G02*
X140425000Y-83000000I-850000J0D01*
G01*
X141625000Y-83000000D02*
G75*
G02*
X140925000Y-83000000I-350000J0D01*
G01*
X140925000Y-82300000D02*
G75*
G02*
X141625000Y-82300000I350000J0D01*
G01*
X140425000Y-82300000D02*
G75*
G02*
X142125000Y-82300000I850000J0D01*
G01*
X139175000Y-82350000D02*
G75*
G02*
X139235634Y-81857464I0J250000D01*
G01*
X139025001Y-83349999D02*
G75*
G02*
X139074999Y-82845050I49999J249999D01*
G01*
X138825001Y-83899999D02*
G75*
G02*
X138648744Y-82591063I249998J699999D01*
G01*
X138625001Y-82549999D02*
G75*
G02*
X139075000Y-81463605I449999J449999D01*
G01*
X135175001Y-82449999D02*
G75*
G02*
X135175001Y-81900001I124999J274999D01*
G01*
X135050001Y-82899999D02*
G75*
G02*
X135066269Y-81444594I249999J724999D01*
G01*
X129600000Y-82375000D02*
G75*
G02*
X129660634Y-81882464I0J250000D01*
G01*
X129450001Y-83374999D02*
G75*
G02*
X129499999Y-82870050I49999J249999D01*
G01*
X129250001Y-83924999D02*
G75*
G02*
X129073744Y-82616063I249998J699999D01*
G01*
X129050001Y-82574999D02*
G75*
G02*
X129500000Y-81488605I449999J449999D01*
G01*
D12*
X145075000Y-82650000D02*
X143750000Y-83125000D01*
X145075000Y-82650000D02*
X142175000Y-82175000D01*
X145075000Y-82650000D02*
X141175000Y-78475000D01*
X143750000Y-83125000D02*
X142925000Y-82775000D01*
X142675000Y-83175000D02*
X142100000Y-82375000D01*
X142400000Y-82800000D02*
X145075000Y-82650000D01*
X142175000Y-82175000D02*
X142400000Y-82800000D01*
D14*
X142125000Y-83000000D02*
X142125000Y-82300000D01*
D12*
X142125000Y-82900000D02*
X142675000Y-83175000D01*
D14*
X141625000Y-82300000D02*
X141625000Y-83000000D01*
D12*
X141575000Y-82150000D02*
X141250000Y-82550000D01*
X141250000Y-82550000D02*
X141625000Y-82725000D01*
X141175000Y-78475000D02*
X140150000Y-78225000D01*
X141175000Y-78475000D02*
X139425000Y-79800000D01*
D14*
X140925000Y-82300000D02*
X140925000Y-82950000D01*
D12*
X140725000Y-81625000D02*
X133625000Y-77025000D01*
D14*
X140425000Y-82300000D02*
X140425000Y-83000000D01*
D12*
X140150000Y-78225000D02*
X139425000Y-79800000D01*
X140050000Y-78400000D02*
X138475000Y-79300000D01*
D14*
X140025000Y-83900000D02*
X138825000Y-83900000D01*
X139975000Y-81450000D02*
X140025000Y-83900000D01*
X139475000Y-83350000D02*
X139025000Y-83350000D01*
X139475000Y-82850000D02*
X139475000Y-83350000D01*
X139475000Y-82350000D02*
X139175000Y-82350000D01*
X139475000Y-81900000D02*
X139475000Y-82350000D01*
X139475000Y-81850000D02*
X139225000Y-81850000D01*
X139474999Y-82845050D02*
X139074999Y-82845050D01*
D12*
X139425000Y-79800000D02*
X145075000Y-82650000D01*
X139425000Y-79800000D02*
X140900000Y-81525000D01*
D14*
X139075000Y-81463605D02*
X139975000Y-81450000D01*
X137975000Y-83900000D02*
X137875000Y-83900000D01*
X137925000Y-81450000D02*
X137975000Y-83900000D01*
X137875000Y-83900000D02*
X136625000Y-83900000D01*
D12*
X137850000Y-77225000D02*
X140050000Y-78400000D01*
X137850000Y-77225000D02*
X137100000Y-78650000D01*
X137500000Y-81425000D02*
X136725000Y-80825000D01*
D14*
X137475000Y-83400000D02*
X137475000Y-82850000D01*
X137475000Y-82850000D02*
X136825000Y-82850000D01*
X137475000Y-82400000D02*
X137475000Y-81950000D01*
X137475000Y-81950000D02*
X136625000Y-81950000D01*
D12*
X137100000Y-78650000D02*
X139425000Y-79800000D01*
X137100000Y-78650000D02*
X133625000Y-77025000D01*
X136850000Y-80650000D02*
X138675000Y-81550000D01*
D14*
X136825000Y-82850000D02*
X136825000Y-82400000D01*
X136825000Y-82400000D02*
X137475000Y-82400000D01*
D12*
X136725000Y-80825000D02*
X136325000Y-81100000D01*
D14*
X136625000Y-83900000D02*
X136625000Y-83400000D01*
X136625000Y-83400000D02*
X137475000Y-83400000D01*
X136625000Y-81950000D02*
X136625000Y-81450000D01*
X136625000Y-81450000D02*
X137925000Y-81450000D01*
D12*
X136325000Y-81100000D02*
X137300000Y-81450000D01*
D14*
X136175000Y-83900000D02*
X135725000Y-83900000D01*
X136175000Y-81450000D02*
X136175000Y-83900000D01*
X135725000Y-83900000D02*
X135725000Y-82950000D01*
X135725000Y-82950000D02*
X135575000Y-82950000D01*
X135675000Y-82450000D02*
X135175000Y-82450000D01*
X135675000Y-81900000D02*
X135675000Y-82450000D01*
X135575000Y-82950000D02*
X134825000Y-83900000D01*
X135225000Y-81900000D02*
X135675000Y-81900000D01*
D12*
X135175000Y-80875000D02*
X136850000Y-80650000D01*
D14*
X135066269Y-81444594D02*
X136175000Y-81450000D01*
X134825000Y-83900000D02*
X134425000Y-83900000D01*
D12*
X134725000Y-78650000D02*
X134150000Y-80150000D01*
D14*
X134425000Y-83900000D02*
X134325000Y-83900000D01*
X134325000Y-83900000D02*
X135025000Y-82950000D01*
X134150000Y-83900000D02*
X134125000Y-81450000D01*
X134125000Y-81450000D02*
X133675000Y-81450000D01*
X133675000Y-81450000D02*
X133650000Y-83450000D01*
X133650000Y-83450000D02*
X132900000Y-83450000D01*
D12*
X133625000Y-77025000D02*
X133550000Y-79750000D01*
X133600000Y-77425000D02*
X134725000Y-78650000D01*
X133550000Y-79750000D02*
X135175000Y-80875000D01*
X133400000Y-80200000D02*
X132400000Y-79525000D01*
D14*
X132900000Y-83900000D02*
X134150000Y-83900000D01*
X132900000Y-83450000D02*
X132900000Y-83900000D01*
D12*
X132400000Y-79525000D02*
X131700000Y-80100000D01*
X132275000Y-78050000D02*
X130125000Y-79175000D01*
D14*
X132225000Y-83925000D02*
X132725000Y-83925000D01*
X132225000Y-83925000D02*
X131975000Y-83325000D01*
X131975000Y-83325000D02*
X131375000Y-83325000D01*
X131950000Y-82925000D02*
X131450000Y-82925000D01*
X131825000Y-81475000D02*
X132725000Y-83925000D01*
D12*
X131700000Y-80100000D02*
X133375000Y-80200000D01*
D14*
X131675000Y-82175000D02*
X131950000Y-82925000D01*
X131500000Y-81475000D02*
X131825000Y-81475000D01*
X131450000Y-82925000D02*
X131675000Y-82175000D01*
X131375000Y-83325000D02*
X131125000Y-83925000D01*
X131125000Y-83925000D02*
X130725000Y-83925000D01*
X130725000Y-83925000D02*
X131500000Y-81475000D01*
D12*
X130475000Y-78000000D02*
X132275000Y-78050000D01*
D14*
X130450000Y-83925000D02*
X129250000Y-83925000D01*
X130400000Y-81475000D02*
X130450000Y-83925000D01*
D12*
X130125000Y-79175000D02*
X130475000Y-78000000D01*
D14*
X129900000Y-83375000D02*
X129450000Y-83375000D01*
X129900000Y-82875000D02*
X129900000Y-83375000D01*
X129900000Y-82375000D02*
X129600000Y-82375000D01*
X129900000Y-81925000D02*
X129900000Y-82375000D01*
X129900000Y-81875000D02*
X129650000Y-81875000D01*
X129899999Y-82870050D02*
X129499999Y-82870050D01*
X129500000Y-81488605D02*
X130400000Y-81475000D01*
D12*
X129175000Y-80050000D02*
X128175000Y-79900000D01*
X128750000Y-80375000D02*
X129175000Y-80050000D01*
X128175000Y-79900000D02*
X128750000Y-80375000D01*
D14*
%TO.C,R6*%
X111490000Y-100600000D02*
X112260000Y-100600000D01*
X112260000Y-99230000D02*
X118800000Y-99230000D01*
X112260000Y-101970000D02*
X112260000Y-99230000D01*
X118800000Y-99230000D02*
X118800000Y-101970000D01*
X118800000Y-101970000D02*
X112260000Y-101970000D01*
X119570000Y-100600000D02*
X118800000Y-100600000D01*
%TO.C,R8*%
X111490000Y-108700000D02*
X112260000Y-108700000D01*
X112260000Y-107330000D02*
X118800000Y-107330000D01*
X112260000Y-110070000D02*
X112260000Y-107330000D01*
X118800000Y-107330000D02*
X118800000Y-110070000D01*
X118800000Y-110070000D02*
X112260000Y-110070000D01*
X119570000Y-108700000D02*
X118800000Y-108700000D01*
%TO.C,R4*%
X111490000Y-88450000D02*
X112260000Y-88450000D01*
X112260000Y-87080000D02*
X118800000Y-87080000D01*
X112260000Y-89820000D02*
X112260000Y-87080000D01*
X118800000Y-87080000D02*
X118800000Y-89820000D01*
X118800000Y-89820000D02*
X112260000Y-89820000D01*
X119570000Y-88450000D02*
X118800000Y-88450000D01*
%TO.C,R7*%
X111490000Y-104650000D02*
X112260000Y-104650000D01*
X112260000Y-103280000D02*
X118800000Y-103280000D01*
X112260000Y-106020000D02*
X112260000Y-103280000D01*
X118800000Y-103280000D02*
X118800000Y-106020000D01*
X118800000Y-106020000D02*
X112260000Y-106020000D01*
X119570000Y-104650000D02*
X118800000Y-104650000D01*
%TO.C,NE555*%
X160210000Y-97680000D02*
X161860000Y-97680000D01*
X160210000Y-107960000D02*
X160210000Y-97680000D01*
X163860000Y-97680000D02*
X165510000Y-97680000D01*
X165510000Y-97680000D02*
X165510000Y-107960000D01*
X165510000Y-107960000D02*
X160210000Y-107960000D01*
X163860000Y-97680000D02*
G75*
G02*
X161860000Y-97680000I-1000000J0D01*
G01*
%TO.C,R5*%
X111490000Y-96550000D02*
X112260000Y-96550000D01*
X112260000Y-95180000D02*
X118800000Y-95180000D01*
X112260000Y-97920000D02*
X112260000Y-95180000D01*
X118800000Y-95180000D02*
X118800000Y-97920000D01*
X118800000Y-97920000D02*
X112260000Y-97920000D01*
X119570000Y-96550000D02*
X118800000Y-96550000D01*
%TO.C,R4*%
X111490000Y-92500000D02*
X112260000Y-92500000D01*
X112260000Y-91130000D02*
X118800000Y-91130000D01*
X112260000Y-93870000D02*
X112260000Y-91130000D01*
X118800000Y-91130000D02*
X118800000Y-93870000D01*
X118800000Y-93870000D02*
X112260000Y-93870000D01*
X119570000Y-92500000D02*
X118800000Y-92500000D01*
%TO.C,47uF*%
X155810000Y-116748000D02*
X155810000Y-117552000D01*
X155850000Y-116517000D02*
X155850000Y-117783000D01*
X155890000Y-116349000D02*
X155890000Y-117951000D01*
X155930000Y-116211000D02*
X155930000Y-118089000D01*
X155970000Y-116092000D02*
X155970000Y-118208000D01*
X156010000Y-115985000D02*
X156010000Y-118315000D01*
X156050000Y-115889000D02*
X156050000Y-118411000D01*
X156090000Y-115800000D02*
X156090000Y-118500000D01*
X156130000Y-115718000D02*
X156130000Y-118582000D01*
X156170000Y-115641000D02*
X156170000Y-118659000D01*
X156210000Y-115569000D02*
X156210000Y-118731000D01*
X156250000Y-115501000D02*
X156250000Y-118799000D01*
X156290000Y-115436000D02*
X156290000Y-118864000D01*
X156330000Y-115375000D02*
X156330000Y-118925000D01*
X156370000Y-115316000D02*
X156370000Y-118984000D01*
X156410000Y-115260000D02*
X156410000Y-119040000D01*
X156450000Y-115207000D02*
X156450000Y-119093000D01*
X156490000Y-115155000D02*
X156490000Y-119145000D01*
X156530000Y-115106000D02*
X156530000Y-119194000D01*
X156570000Y-115059000D02*
X156570000Y-119241000D01*
X156610000Y-115013000D02*
X156610000Y-119287000D01*
X156650000Y-114969000D02*
X156650000Y-119331000D01*
X156690000Y-114927000D02*
X156690000Y-119373000D01*
X156730000Y-114886000D02*
X156730000Y-119414000D01*
X156770000Y-114846000D02*
X156770000Y-116110000D01*
X156770000Y-118190000D02*
X156770000Y-119454000D01*
X156810000Y-114808000D02*
X156810000Y-116110000D01*
X156810000Y-118190000D02*
X156810000Y-119492000D01*
X156850000Y-114771000D02*
X156850000Y-116110000D01*
X156850000Y-118190000D02*
X156850000Y-119529000D01*
X156890000Y-114735000D02*
X156890000Y-116110000D01*
X156890000Y-118190000D02*
X156890000Y-119565000D01*
X156930000Y-114700000D02*
X156930000Y-116110000D01*
X156930000Y-118190000D02*
X156930000Y-119600000D01*
X156970000Y-114667000D02*
X156970000Y-116110000D01*
X156970000Y-118190000D02*
X156970000Y-119633000D01*
X157010000Y-114634000D02*
X157010000Y-116110000D01*
X157010000Y-118190000D02*
X157010000Y-119666000D01*
X157050000Y-114603000D02*
X157050000Y-116110000D01*
X157050000Y-118190000D02*
X157050000Y-119697000D01*
X157090000Y-114573000D02*
X157090000Y-116110000D01*
X157090000Y-118190000D02*
X157090000Y-119727000D01*
X157130000Y-114543000D02*
X157130000Y-116110000D01*
X157130000Y-118190000D02*
X157130000Y-119757000D01*
X157170000Y-114514000D02*
X157170000Y-116110000D01*
X157170000Y-118190000D02*
X157170000Y-119786000D01*
X157210000Y-114487000D02*
X157210000Y-116110000D01*
X157210000Y-118190000D02*
X157210000Y-119813000D01*
X157250000Y-114460000D02*
X157250000Y-116110000D01*
X157250000Y-118190000D02*
X157250000Y-119840000D01*
X157290000Y-114434000D02*
X157290000Y-116110000D01*
X157290000Y-118190000D02*
X157290000Y-119866000D01*
X157330000Y-114409000D02*
X157330000Y-116110000D01*
X157330000Y-118190000D02*
X157330000Y-119891000D01*
X157370000Y-114385000D02*
X157370000Y-116110000D01*
X157370000Y-118190000D02*
X157370000Y-119915000D01*
X157410000Y-114361000D02*
X157410000Y-116110000D01*
X157410000Y-118190000D02*
X157410000Y-119939000D01*
X157450000Y-114338000D02*
X157450000Y-116110000D01*
X157450000Y-118190000D02*
X157450000Y-119962000D01*
X157490000Y-114316000D02*
X157490000Y-116110000D01*
X157490000Y-118190000D02*
X157490000Y-119984000D01*
X157530000Y-114295000D02*
X157530000Y-116110000D01*
X157530000Y-118190000D02*
X157530000Y-120005000D01*
X157570000Y-114274000D02*
X157570000Y-116110000D01*
X157570000Y-118190000D02*
X157570000Y-120026000D01*
X157610000Y-114254000D02*
X157610000Y-116110000D01*
X157610000Y-118190000D02*
X157610000Y-120046000D01*
X157650000Y-114235000D02*
X157650000Y-116110000D01*
X157650000Y-118190000D02*
X157650000Y-120065000D01*
X157690000Y-114216000D02*
X157690000Y-116110000D01*
X157690000Y-118190000D02*
X157690000Y-120084000D01*
X157730000Y-114198000D02*
X157730000Y-116110000D01*
X157730000Y-118190000D02*
X157730000Y-120102000D01*
X157770000Y-114181000D02*
X157770000Y-116110000D01*
X157770000Y-118190000D02*
X157770000Y-120119000D01*
X157810000Y-114164000D02*
X157810000Y-116110000D01*
X157810000Y-118190000D02*
X157810000Y-120136000D01*
X157850000Y-114148000D02*
X157850000Y-116110000D01*
X157850000Y-118190000D02*
X157850000Y-120152000D01*
X157890000Y-114133000D02*
X157890000Y-116110000D01*
X157890000Y-118190000D02*
X157890000Y-120167000D01*
X157930000Y-114118000D02*
X157930000Y-116110000D01*
X157930000Y-118190000D02*
X157930000Y-120182000D01*
X157970000Y-114103000D02*
X157970000Y-116110000D01*
X157970000Y-118190000D02*
X157970000Y-120197000D01*
X158010000Y-114090000D02*
X158010000Y-116110000D01*
X158010000Y-118190000D02*
X158010000Y-120210000D01*
X158050000Y-114077000D02*
X158050000Y-116110000D01*
X158050000Y-118190000D02*
X158050000Y-120223000D01*
X158090000Y-114064000D02*
X158090000Y-116110000D01*
X158090000Y-118190000D02*
X158090000Y-120236000D01*
X158130000Y-114052000D02*
X158130000Y-116110000D01*
X158130000Y-118190000D02*
X158130000Y-120248000D01*
X158170000Y-114041000D02*
X158170000Y-116110000D01*
X158170000Y-118190000D02*
X158170000Y-120259000D01*
X158210000Y-114030000D02*
X158210000Y-116110000D01*
X158210000Y-118190000D02*
X158210000Y-120270000D01*
X158250000Y-114019000D02*
X158250000Y-116110000D01*
X158250000Y-118190000D02*
X158250000Y-120281000D01*
X158290000Y-114010000D02*
X158290000Y-116110000D01*
X158290000Y-118190000D02*
X158290000Y-120290000D01*
X158330000Y-114000000D02*
X158330000Y-116110000D01*
X158330000Y-118190000D02*
X158330000Y-120300000D01*
X158370000Y-113991000D02*
X158370000Y-116110000D01*
X158370000Y-118190000D02*
X158370000Y-120309000D01*
X158410000Y-113983000D02*
X158410000Y-116110000D01*
X158410000Y-118190000D02*
X158410000Y-120317000D01*
X158450000Y-113976000D02*
X158450000Y-116110000D01*
X158450000Y-118190000D02*
X158450000Y-120324000D01*
X158490000Y-113968000D02*
X158490000Y-116110000D01*
X158490000Y-118190000D02*
X158490000Y-120332000D01*
X158530000Y-113962000D02*
X158530000Y-116110000D01*
X158530000Y-118190000D02*
X158530000Y-120338000D01*
X158570000Y-113955000D02*
X158570000Y-116110000D01*
X158570000Y-118190000D02*
X158570000Y-120345000D01*
X158610000Y-113950000D02*
X158610000Y-116110000D01*
X158610000Y-118190000D02*
X158610000Y-120350000D01*
X158650000Y-113945000D02*
X158650000Y-116110000D01*
X158650000Y-118190000D02*
X158650000Y-120355000D01*
X158690000Y-113940000D02*
X158690000Y-116110000D01*
X158690000Y-118190000D02*
X158690000Y-120360000D01*
X158730000Y-113936000D02*
X158730000Y-116110000D01*
X158730000Y-118190000D02*
X158730000Y-120364000D01*
X158770000Y-113932000D02*
X158770000Y-116110000D01*
X158770000Y-118190000D02*
X158770000Y-120368000D01*
X158810000Y-113929000D02*
X158810000Y-116110000D01*
X158810000Y-118190000D02*
X158810000Y-120371000D01*
X158850000Y-113926000D02*
X158850000Y-120374000D01*
X158890000Y-113924000D02*
X158890000Y-120376000D01*
X158930000Y-113922000D02*
X158930000Y-120378000D01*
X158970000Y-113921000D02*
X158970000Y-120379000D01*
X159010000Y-113920000D02*
X159010000Y-120380000D01*
X159050000Y-113920000D02*
X159050000Y-120380000D01*
X163485000Y-116835000D02*
X163485000Y-117465000D01*
X163800000Y-117150000D02*
X163170000Y-117150000D01*
X162320000Y-117150000D02*
G75*
G02*
X155780000Y-117150000I-3270000J0D01*
G01*
X155780000Y-117150000D02*
G75*
G02*
X162320000Y-117150000I3270000J0D01*
G01*
%TO.C,D3*%
X156430000Y-87590000D02*
X158670000Y-87590000D01*
X156430000Y-88190000D02*
X158670000Y-88190000D01*
X156430000Y-88310000D02*
X158670000Y-88310000D01*
X156430000Y-88430000D02*
X158670000Y-88430000D01*
X156430000Y-91830000D02*
X156430000Y-87590000D01*
X157550000Y-86940000D02*
X157550000Y-87590000D01*
X157550000Y-92480000D02*
X157550000Y-91830000D01*
X158670000Y-87590000D02*
X158670000Y-91830000D01*
X158670000Y-91830000D02*
X156430000Y-91830000D01*
%TO.C,S1*%
X173568700Y-90856600D02*
X173568700Y-86919600D01*
X173568700Y-86919600D02*
X163611900Y-86919600D01*
X163611900Y-90856600D02*
X173568700Y-90856600D01*
X163611900Y-86919600D02*
X163586500Y-90856600D01*
%TD*%
M02*
