%TF.GenerationSoftware,KiCad,Pcbnew,9.0.6*%
%TF.CreationDate,2026-01-25T16:51:22+01:00*%
%TF.ProjectId,Seegeist,53656567-6569-4737-942e-6b696361645f,rev?*%
%TF.SameCoordinates,Original*%
%TF.FileFunction,Copper,L2,Bot*%
%TF.FilePolarity,Positive*%
%FSLAX46Y46*%
G04 Gerber Fmt 4.6, Leading zero omitted, Abs format (unit mm)*
G04 Created by KiCad (PCBNEW 9.0.6) date 2026-01-25 16:51:22*
%MOMM*%
%LPD*%
G01*
G04 APERTURE LIST*
G04 Aperture macros list*
%AMRoundRect*
0 Rectangle with rounded corners*
0 $1 Rounding radius*
0 $2 $3 $4 $5 $6 $7 $8 $9 X,Y pos of 4 corners*
0 Add a 4 corners polygon primitive as box body*
4,1,4,$2,$3,$4,$5,$6,$7,$8,$9,$2,$3,0*
0 Add four circle primitives for the rounded corners*
1,1,$1+$1,$2,$3*
1,1,$1+$1,$4,$5*
1,1,$1+$1,$6,$7*
1,1,$1+$1,$8,$9*
0 Add four rect primitives between the rounded corners*
20,1,$1+$1,$2,$3,$4,$5,0*
20,1,$1+$1,$4,$5,$6,$7,0*
20,1,$1+$1,$6,$7,$8,$9,0*
20,1,$1+$1,$8,$9,$2,$3,0*%
G04 Aperture macros list end*
%ADD10C,0.150000*%
%TA.AperFunction,NonConductor*%
%ADD11C,0.150000*%
%TD*%
%TA.AperFunction,ComponentPad*%
%ADD12O,1.600000X1.600000*%
%TD*%
%TA.AperFunction,ComponentPad*%
%ADD13C,1.600000*%
%TD*%
%TA.AperFunction,ComponentPad*%
%ADD14RoundRect,0.250000X0.550000X0.550000X-0.550000X0.550000X-0.550000X-0.550000X0.550000X-0.550000X0*%
%TD*%
%TA.AperFunction,ComponentPad*%
%ADD15R,1.800000X1.800000*%
%TD*%
%TA.AperFunction,ComponentPad*%
%ADD16C,1.800000*%
%TD*%
%TA.AperFunction,ComponentPad*%
%ADD17R,1.500000X1.500000*%
%TD*%
%TA.AperFunction,ComponentPad*%
%ADD18C,1.500000*%
%TD*%
%TA.AperFunction,ComponentPad*%
%ADD19R,1.600000X1.600000*%
%TD*%
%TA.AperFunction,SMDPad,CuDef*%
%ADD20R,5.000000X2.000000*%
%TD*%
%TA.AperFunction,SMDPad,CuDef*%
%ADD21C,17.780000*%
%TD*%
%TA.AperFunction,ComponentPad*%
%ADD22C,2.000000*%
%TD*%
%TA.AperFunction,Conductor*%
%ADD23C,0.250000*%
%TD*%
G04 APERTURE END LIST*
D10*
D11*
X141563220Y-137069819D02*
X141563220Y-136069819D01*
X140991792Y-137069819D02*
X141420363Y-136498390D01*
X140991792Y-136069819D02*
X141563220Y-136641247D01*
X140563220Y-137069819D02*
X140563220Y-136069819D01*
X140563220Y-136546009D02*
X139991792Y-136546009D01*
X139991792Y-137069819D02*
X139991792Y-136069819D01*
X139182268Y-136546009D02*
X139515601Y-136546009D01*
X139515601Y-137069819D02*
X139515601Y-136069819D01*
X139515601Y-136069819D02*
X139039411Y-136069819D01*
X137706077Y-136069819D02*
X137610839Y-136069819D01*
X137610839Y-136069819D02*
X137515601Y-136117438D01*
X137515601Y-136117438D02*
X137467982Y-136165057D01*
X137467982Y-136165057D02*
X137420363Y-136260295D01*
X137420363Y-136260295D02*
X137372744Y-136450771D01*
X137372744Y-136450771D02*
X137372744Y-136688866D01*
X137372744Y-136688866D02*
X137420363Y-136879342D01*
X137420363Y-136879342D02*
X137467982Y-136974580D01*
X137467982Y-136974580D02*
X137515601Y-137022200D01*
X137515601Y-137022200D02*
X137610839Y-137069819D01*
X137610839Y-137069819D02*
X137706077Y-137069819D01*
X137706077Y-137069819D02*
X137801315Y-137022200D01*
X137801315Y-137022200D02*
X137848934Y-136974580D01*
X137848934Y-136974580D02*
X137896553Y-136879342D01*
X137896553Y-136879342D02*
X137944172Y-136688866D01*
X137944172Y-136688866D02*
X137944172Y-136450771D01*
X137944172Y-136450771D02*
X137896553Y-136260295D01*
X137896553Y-136260295D02*
X137848934Y-136165057D01*
X137848934Y-136165057D02*
X137801315Y-136117438D01*
X137801315Y-136117438D02*
X137706077Y-136069819D01*
X136420363Y-137069819D02*
X136991791Y-137069819D01*
X136706077Y-137069819D02*
X136706077Y-136069819D01*
X136706077Y-136069819D02*
X136801315Y-136212676D01*
X136801315Y-136212676D02*
X136896553Y-136307914D01*
X136896553Y-136307914D02*
X136991791Y-136355533D01*
X135991791Y-136974580D02*
X135944172Y-137022200D01*
X135944172Y-137022200D02*
X135991791Y-137069819D01*
X135991791Y-137069819D02*
X136039410Y-137022200D01*
X136039410Y-137022200D02*
X135991791Y-136974580D01*
X135991791Y-136974580D02*
X135991791Y-137069819D01*
X135563220Y-136165057D02*
X135515601Y-136117438D01*
X135515601Y-136117438D02*
X135420363Y-136069819D01*
X135420363Y-136069819D02*
X135182268Y-136069819D01*
X135182268Y-136069819D02*
X135087030Y-136117438D01*
X135087030Y-136117438D02*
X135039411Y-136165057D01*
X135039411Y-136165057D02*
X134991792Y-136260295D01*
X134991792Y-136260295D02*
X134991792Y-136355533D01*
X134991792Y-136355533D02*
X135039411Y-136498390D01*
X135039411Y-136498390D02*
X135610839Y-137069819D01*
X135610839Y-137069819D02*
X134991792Y-137069819D01*
X134372744Y-136069819D02*
X134277506Y-136069819D01*
X134277506Y-136069819D02*
X134182268Y-136117438D01*
X134182268Y-136117438D02*
X134134649Y-136165057D01*
X134134649Y-136165057D02*
X134087030Y-136260295D01*
X134087030Y-136260295D02*
X134039411Y-136450771D01*
X134039411Y-136450771D02*
X134039411Y-136688866D01*
X134039411Y-136688866D02*
X134087030Y-136879342D01*
X134087030Y-136879342D02*
X134134649Y-136974580D01*
X134134649Y-136974580D02*
X134182268Y-137022200D01*
X134182268Y-137022200D02*
X134277506Y-137069819D01*
X134277506Y-137069819D02*
X134372744Y-137069819D01*
X134372744Y-137069819D02*
X134467982Y-137022200D01*
X134467982Y-137022200D02*
X134515601Y-136974580D01*
X134515601Y-136974580D02*
X134563220Y-136879342D01*
X134563220Y-136879342D02*
X134610839Y-136688866D01*
X134610839Y-136688866D02*
X134610839Y-136450771D01*
X134610839Y-136450771D02*
X134563220Y-136260295D01*
X134563220Y-136260295D02*
X134515601Y-136165057D01*
X134515601Y-136165057D02*
X134467982Y-136117438D01*
X134467982Y-136117438D02*
X134372744Y-136069819D01*
X133658458Y-136165057D02*
X133610839Y-136117438D01*
X133610839Y-136117438D02*
X133515601Y-136069819D01*
X133515601Y-136069819D02*
X133277506Y-136069819D01*
X133277506Y-136069819D02*
X133182268Y-136117438D01*
X133182268Y-136117438D02*
X133134649Y-136165057D01*
X133134649Y-136165057D02*
X133087030Y-136260295D01*
X133087030Y-136260295D02*
X133087030Y-136355533D01*
X133087030Y-136355533D02*
X133134649Y-136498390D01*
X133134649Y-136498390D02*
X133706077Y-137069819D01*
X133706077Y-137069819D02*
X133087030Y-137069819D01*
X132229887Y-136069819D02*
X132420363Y-136069819D01*
X132420363Y-136069819D02*
X132515601Y-136117438D01*
X132515601Y-136117438D02*
X132563220Y-136165057D01*
X132563220Y-136165057D02*
X132658458Y-136307914D01*
X132658458Y-136307914D02*
X132706077Y-136498390D01*
X132706077Y-136498390D02*
X132706077Y-136879342D01*
X132706077Y-136879342D02*
X132658458Y-136974580D01*
X132658458Y-136974580D02*
X132610839Y-137022200D01*
X132610839Y-137022200D02*
X132515601Y-137069819D01*
X132515601Y-137069819D02*
X132325125Y-137069819D01*
X132325125Y-137069819D02*
X132229887Y-137022200D01*
X132229887Y-137022200D02*
X132182268Y-136974580D01*
X132182268Y-136974580D02*
X132134649Y-136879342D01*
X132134649Y-136879342D02*
X132134649Y-136641247D01*
X132134649Y-136641247D02*
X132182268Y-136546009D01*
X132182268Y-136546009D02*
X132229887Y-136498390D01*
X132229887Y-136498390D02*
X132325125Y-136450771D01*
X132325125Y-136450771D02*
X132515601Y-136450771D01*
X132515601Y-136450771D02*
X132610839Y-136498390D01*
X132610839Y-136498390D02*
X132658458Y-136546009D01*
X132658458Y-136546009D02*
X132706077Y-136641247D01*
D12*
%TO.P,R6,2*%
%TO.N,Net-(D3-A)*%
X110450000Y-108700000D03*
D13*
%TO.P,R6,1*%
%TO.N,Net-(S1-E)*%
X120610000Y-108700000D03*
%TD*%
D12*
%TO.P,R5,2*%
%TO.N,Net-(D3-A)*%
X110450000Y-104650000D03*
D13*
%TO.P,R5,1*%
%TO.N,Net-(D3-K)*%
X120610000Y-104650000D03*
%TD*%
D12*
%TO.P,R3,2*%
%TO.N,Net-(Q1-C)*%
X110450000Y-96550000D03*
D13*
%TO.P,R3,1*%
%TO.N,Net-(S1-E)*%
X120610000Y-96550000D03*
%TD*%
D14*
%TO.P,47uF,1*%
%TO.N,Net-(D3-K)*%
X160300000Y-117150000D03*
D13*
%TO.P,47uF,2*%
%TO.N,Net-(D1-K)*%
X157800000Y-117150000D03*
%TD*%
D15*
%TO.P,D1,1,K*%
%TO.N,Net-(D1-K)*%
X144130000Y-74250000D03*
D16*
%TO.P,D1,2,A*%
%TO.N,Net-(D1-A)*%
X146670000Y-74250000D03*
%TD*%
D15*
%TO.P,D2,1,K*%
%TO.N,Net-(D1-K)*%
X127580000Y-74252000D03*
D16*
%TO.P,D2,2,A*%
%TO.N,Net-(D1-A)*%
X130120000Y-74252000D03*
%TD*%
D17*
%TO.P,Q1,1,E*%
%TO.N,Net-(D1-K)*%
X176650000Y-94900000D03*
D18*
%TO.P,Q1,2,B*%
%TO.N,Net-(Q1-B)*%
X179190000Y-97440000D03*
%TO.P,Q1,3,C*%
%TO.N,Net-(Q1-C)*%
X176650000Y-99980000D03*
%TD*%
D17*
%TO.P,Q2,1,E*%
%TO.N,Net-(D1-A)*%
X99261764Y-93346549D03*
D18*
%TO.P,Q2,2,B*%
%TO.N,Net-(Q1-C)*%
X101801764Y-95886549D03*
%TO.P,Q2,3,C*%
%TO.N,Net-(Q2-C)*%
X99261764Y-98426549D03*
%TD*%
D19*
%TO.P,NE555,1,GND*%
%TO.N,Net-(D1-K)*%
X166670000Y-99010000D03*
D12*
%TO.P,NE555,2,TR*%
%TO.N,Net-(D3-K)*%
X166670000Y-101550000D03*
%TO.P,NE555,3,Q*%
%TO.N,unconnected-(U1-Q-Pad3)*%
X166670000Y-104090000D03*
%TO.P,NE555,4,R*%
%TO.N,Net-(S1-E)*%
X166670000Y-106630000D03*
%TO.P,NE555,5,CV*%
%TO.N,unconnected-(U1-CV-Pad5)*%
X159050000Y-106630000D03*
%TO.P,NE555,6,THR*%
%TO.N,Net-(D3-K)*%
X159050000Y-104090000D03*
%TO.P,NE555,7,DIS*%
%TO.N,Net-(D3-A)*%
X159050000Y-101550000D03*
%TO.P,NE555,8,VCC*%
%TO.N,Net-(S1-E)*%
X159050000Y-99010000D03*
%TD*%
D13*
%TO.P,R4,1*%
%TO.N,Net-(Q1-B)*%
X120610000Y-92500000D03*
D12*
%TO.P,R4,2*%
%TO.N,Net-(D1-K)*%
X110450000Y-92500000D03*
%TD*%
D13*
%TO.P,R4,1*%
%TO.N,Net-(D3-K)*%
X120610000Y-88450000D03*
D12*
%TO.P,R4,2*%
%TO.N,Net-(Q1-B)*%
X110450000Y-88450000D03*
%TD*%
D20*
%TO.P,U2,*%
%TO.N,*%
X125956000Y-104044000D03*
X125956000Y-107600000D03*
%TO.P,U2,1*%
%TO.N,Net-(S1-A-Pad1)*%
X151850000Y-104044000D03*
X151850000Y-107600000D03*
D21*
%TO.P,U2,2*%
%TO.N,Net-(D1-K)*%
X138910000Y-106076000D03*
%TD*%
D19*
%TO.P,D3,1,K*%
%TO.N,Net-(D3-K)*%
X157550000Y-85900000D03*
D12*
%TO.P,D3,2,A*%
%TO.N,Net-(D3-A)*%
X157550000Y-93520000D03*
%TD*%
D22*
%TO.P,S1,1,A*%
%TO.N,Net-(S1-A-Pad1)*%
X165999500Y-88850000D03*
%TO.P,S1,2,E*%
%TO.N,Net-(S1-E)*%
X168539500Y-88850000D03*
%TO.P,S1,3,A*%
%TO.N,unconnected-(S1-A-Pad3)*%
X171079500Y-88850000D03*
%TD*%
D13*
%TO.P,R4,1*%
%TO.N,Net-(S1-E)*%
X120610000Y-100600000D03*
D12*
%TO.P,R4,2*%
%TO.N,Net-(Q2-C)*%
X110450000Y-100600000D03*
%TD*%
D23*
%TO.N,Net-(D1-K)*%
X176650000Y-94900000D02*
X170780000Y-94900000D01*
X144130000Y-74250000D02*
X144130000Y-100856000D01*
X145594630Y-106076000D02*
X138910000Y-106076000D01*
X170780000Y-94900000D02*
X166670000Y-99010000D01*
X157800000Y-117150000D02*
X156668630Y-117150000D01*
X144130000Y-100856000D02*
X138910000Y-106076000D01*
X156668630Y-117150000D02*
X145594630Y-106076000D01*
%TO.N,Net-(D3-K)*%
X123200000Y-89900000D02*
X121750000Y-88450000D01*
X160300000Y-115750000D02*
X160300000Y-117150000D01*
X120610000Y-104650000D02*
X123200000Y-102060000D01*
X121750000Y-88450000D02*
X120610000Y-88450000D01*
X161250000Y-114800000D02*
X160300000Y-115750000D01*
X161250000Y-106290000D02*
X161250000Y-114800000D01*
X159050000Y-104090000D02*
X161250000Y-106290000D01*
X123200000Y-102060000D02*
X123200000Y-89900000D01*
%TO.N,Net-(D1-A)*%
X123850000Y-78750000D02*
X127800000Y-78750000D01*
X146670000Y-74250000D02*
X146670000Y-72120000D01*
X116650000Y-85950000D02*
X123850000Y-78750000D01*
X105250000Y-85950000D02*
X116650000Y-85950000D01*
X131050000Y-71750000D02*
X131000000Y-71700000D01*
X99261764Y-93346549D02*
X99261764Y-91938236D01*
X146670000Y-72120000D02*
X146300000Y-71750000D01*
X99261764Y-91938236D02*
X105250000Y-85950000D01*
X130120000Y-72580000D02*
X130120000Y-74252000D01*
X130120000Y-76430000D02*
X130120000Y-74252000D01*
X131000000Y-71700000D02*
X130120000Y-72580000D01*
X146300000Y-71750000D02*
X131050000Y-71750000D01*
X127800000Y-78750000D02*
X130120000Y-76430000D01*
%TO.N,Net-(D3-A)*%
X110450000Y-108700000D02*
X110450000Y-104650000D01*
%TO.N,Net-(Q1-C)*%
X101801764Y-95886549D02*
X109786549Y-95886549D01*
X167136405Y-107756000D02*
X164308405Y-107756000D01*
X164308405Y-107756000D02*
X159228405Y-102676000D01*
X120143595Y-87324000D02*
X109983595Y-87324000D01*
X145356000Y-73024000D02*
X134443595Y-73024000D01*
X158274000Y-102676000D02*
X154676000Y-106274000D01*
X109983595Y-87324000D02*
X101801764Y-95505831D01*
X176650000Y-99980000D02*
X174912405Y-99980000D01*
X145356000Y-75476000D02*
X145356000Y-73024000D01*
X109786549Y-95886549D02*
X110450000Y-96550000D01*
X154676000Y-106274000D02*
X154676000Y-108926000D01*
X148126000Y-107969560D02*
X148126000Y-78246000D01*
X154676000Y-108926000D02*
X149082440Y-108926000D01*
X148126000Y-78246000D02*
X145356000Y-75476000D01*
X174912405Y-99980000D02*
X167136405Y-107756000D01*
X101801764Y-95505831D02*
X101801764Y-95886549D01*
X149082440Y-108926000D02*
X148126000Y-107969560D01*
X159228405Y-102676000D02*
X158274000Y-102676000D01*
X134443595Y-73024000D02*
X120143595Y-87324000D01*
%TO.N,Net-(Q1-B)*%
X113200000Y-88450000D02*
X117250000Y-92500000D01*
X110450000Y-88450000D02*
X113200000Y-88450000D01*
X117250000Y-92500000D02*
X120610000Y-92500000D01*
%TO.N,Net-(Q2-C)*%
X106400000Y-100600000D02*
X110450000Y-100600000D01*
X104226549Y-98426549D02*
X106400000Y-100600000D01*
X99261764Y-98426549D02*
X104226549Y-98426549D01*
%TO.N,Net-(S1-E)*%
X118000000Y-100800000D02*
X118000000Y-107800000D01*
X164680000Y-106630000D02*
X163300000Y-105250000D01*
X163300000Y-105250000D02*
X163300000Y-103260000D01*
X168539500Y-89520500D02*
X168539500Y-88850000D01*
X163300000Y-103260000D02*
X159050000Y-99010000D01*
X120610000Y-100600000D02*
X120610000Y-96550000D01*
X118900000Y-108700000D02*
X120610000Y-108700000D01*
X159050000Y-99010000D02*
X168539500Y-89520500D01*
X120610000Y-100600000D02*
X118200000Y-100600000D01*
X118000000Y-107800000D02*
X118900000Y-108700000D01*
X118200000Y-100600000D02*
X118000000Y-100800000D01*
X166670000Y-106630000D02*
X164680000Y-106630000D01*
%TO.N,Net-(S1-A-Pad1)*%
X151800000Y-99800000D02*
X151850000Y-99850000D01*
X151850000Y-99850000D02*
X151850000Y-104044000D01*
X155249500Y-99600000D02*
X151800000Y-99600000D01*
X151850000Y-107600000D02*
X151850000Y-104044000D01*
X165999500Y-88850000D02*
X155249500Y-99600000D01*
X151800000Y-99600000D02*
X151800000Y-99800000D01*
%TD*%
M02*
