%TF.GenerationSoftware,KiCad,Pcbnew,9.0.6*%
%TF.CreationDate,2026-01-05T12:28:17+01:00*%
%TF.ProjectId,Seegeist,53656567-6569-4737-942e-6b696361645f,rev?*%
%TF.SameCoordinates,Original*%
%TF.FileFunction,Profile,NP*%
%FSLAX46Y46*%
G04 Gerber Fmt 4.6, Leading zero omitted, Abs format (unit mm)*
G04 Created by KiCad (PCBNEW 9.0.6) date 2026-01-05 12:28:17*
%MOMM*%
%LPD*%
G01*
G04 APERTURE LIST*
%TA.AperFunction,Profile*%
%ADD10C,0.100000*%
%TD*%
G04 APERTURE END LIST*
D10*
X151927260Y-120907500D02*
X151686260Y-118974100D01*
X136602860Y-59661500D02*
X136041660Y-59690240D01*
X136041660Y-59690240D02*
X135483060Y-59737640D01*
X135483060Y-59737640D02*
X134374860Y-59886810D01*
X134374860Y-59886810D02*
X133281060Y-60106510D01*
X133281060Y-60106510D02*
X132204360Y-60394270D01*
X132204360Y-60394270D02*
X131147760Y-60747460D01*
X131147760Y-60747460D02*
X130114060Y-61163480D01*
X130114060Y-61163480D02*
X129105860Y-61639960D01*
X129105860Y-61639960D02*
X128126360Y-62174300D01*
X128126360Y-62174300D02*
X127177860Y-62763990D01*
X127177860Y-62763990D02*
X126263460Y-63406430D01*
X126263460Y-63406430D02*
X125385960Y-64099010D01*
X125385960Y-64099010D02*
X124548060Y-64839400D01*
X124548060Y-64839400D02*
X123752760Y-65624800D01*
X123752760Y-65624800D02*
X123002660Y-66452900D01*
X123002660Y-66452900D02*
X122300660Y-67321100D01*
X122300660Y-67321100D02*
X121649660Y-68226700D01*
X121649660Y-68226700D02*
X121199760Y-68869700D01*
X121199760Y-68869700D02*
X120779860Y-69528500D01*
X120779860Y-69528500D02*
X120388260Y-70202000D01*
X120388260Y-70202000D02*
X120023260Y-70888800D01*
X120023260Y-70888800D02*
X119683260Y-71588000D01*
X119683260Y-71588000D02*
X119366660Y-72298400D01*
X119366660Y-72298400D02*
X119071760Y-73018700D01*
X119071760Y-73018700D02*
X118797060Y-73747700D01*
X118797060Y-73747700D02*
X118540960Y-74484600D01*
X118540960Y-74484600D02*
X118301660Y-75227800D01*
X118301660Y-75227800D02*
X117867360Y-76729200D01*
X117867360Y-76729200D02*
X117481060Y-78242600D01*
X117481060Y-78242600D02*
X117130060Y-79758700D01*
X117130060Y-79758700D02*
X116929760Y-80501800D01*
X116929760Y-80501800D02*
X116667060Y-81244800D01*
X116667060Y-81244800D02*
X116510560Y-81608700D01*
X116510560Y-81608700D02*
X116336160Y-81963600D01*
X116336160Y-81963600D02*
X116143060Y-82306500D01*
X116143060Y-82306500D02*
X115930760Y-82634400D01*
X115930760Y-82634400D02*
X115698060Y-82944500D01*
X115698060Y-82944500D02*
X115444460Y-83233300D01*
X115444460Y-83233300D02*
X115168960Y-83498300D01*
X115168960Y-83498300D02*
X114871160Y-83736300D01*
X114871160Y-83736300D02*
X114549960Y-83944300D01*
X114549960Y-83944300D02*
X114204660Y-84119400D01*
X114204660Y-84119400D02*
X113834560Y-84258500D01*
X113834560Y-84258500D02*
X113438960Y-84358600D01*
X113438960Y-84358600D02*
X112771960Y-84499800D01*
X112771960Y-84499800D02*
X112097260Y-84619900D01*
X112097260Y-84619900D02*
X111416160Y-84713700D01*
X111416160Y-84713700D02*
X110730360Y-84776500D01*
X110730360Y-84776500D02*
X110041260Y-84803200D01*
X110041260Y-84803200D02*
X109350560Y-84788900D01*
X109350560Y-84788900D02*
X108659560Y-84728700D01*
X108659560Y-84728700D02*
X107969960Y-84617500D01*
X107969960Y-84617500D02*
X106852160Y-84451200D01*
X106852160Y-84451200D02*
X105732460Y-84267600D01*
X105732460Y-84267600D02*
X103486560Y-83905700D01*
X103486560Y-83905700D02*
X102360160Y-83755500D01*
X102360160Y-83755500D02*
X101231060Y-83644200D01*
X101231060Y-83644200D02*
X100099360Y-83586300D01*
X100099360Y-83586300D02*
X99532260Y-83581600D01*
X99532260Y-83581600D02*
X98964560Y-83595500D01*
X98964560Y-83595500D02*
X98499660Y-83703400D01*
X98499660Y-83703400D02*
X98060860Y-83857600D01*
X98060860Y-83857600D02*
X97647860Y-84055200D01*
X97647860Y-84055200D02*
X97260450Y-84292200D01*
X97260450Y-84292200D02*
X96898420Y-84565400D01*
X96898420Y-84565400D02*
X96561530Y-84871300D01*
X96561530Y-84871300D02*
X96249640Y-85206300D01*
X96249640Y-85206300D02*
X95962630Y-85567100D01*
X95962630Y-85567100D02*
X95700000Y-85950000D01*
X95700000Y-85950000D02*
X95461880Y-86351800D01*
X95461880Y-86351800D02*
X95247900Y-86768800D01*
X95247900Y-86768800D02*
X95057810Y-87197500D01*
X95057810Y-87197500D02*
X94891470Y-87634700D01*
X94891470Y-87634700D02*
X94748780Y-88076500D01*
X94748780Y-88076500D02*
X94629220Y-88519800D01*
X94629220Y-88519800D02*
X94532930Y-88961000D01*
X94532930Y-88961000D02*
X93396340Y-93618400D01*
X93396340Y-93618400D02*
X92314140Y-98289300D01*
X92314140Y-98289300D02*
X91278190Y-102970400D01*
X91278190Y-102970400D02*
X90280290Y-107658200D01*
X90280290Y-107658200D02*
X90256010Y-107877600D01*
X90256010Y-107877600D02*
X90251210Y-108095200D01*
X90251210Y-108095200D02*
X90297500Y-108521500D01*
X90297500Y-108521500D02*
X90413980Y-108929400D01*
X90413980Y-108929400D02*
X90595460Y-109311000D01*
X90595460Y-109311000D02*
X90836750Y-109658200D01*
X90836750Y-109658200D02*
X91132640Y-109963400D01*
X91132640Y-109963400D02*
X91477960Y-110218600D01*
X91477960Y-110218600D02*
X91667530Y-110324900D01*
X91667530Y-110324900D02*
X91867500Y-110415700D01*
X91867500Y-110415700D02*
X92428560Y-110724800D01*
X92428560Y-110724800D02*
X93001440Y-111018600D01*
X93001440Y-111018600D02*
X93584820Y-111295100D01*
X93584820Y-111295100D02*
X94177250Y-111551200D01*
X94177250Y-111551200D02*
X94777270Y-111784700D01*
X94777270Y-111784700D02*
X95383760Y-111993000D01*
X95383760Y-111993000D02*
X95995100Y-112173500D01*
X95995100Y-112173500D02*
X96610050Y-112323500D01*
X96610050Y-112323500D02*
X96877770Y-112242300D01*
X96877770Y-112242300D02*
X97122110Y-112132200D01*
X97122110Y-112132200D02*
X97345170Y-111996200D01*
X97345170Y-111996200D02*
X97549080Y-111837100D01*
X97549080Y-111837100D02*
X97735960Y-111657600D01*
X97735960Y-111657600D02*
X97907860Y-111460600D01*
X97907860Y-111460600D02*
X98215360Y-111025300D01*
X98215360Y-111025300D02*
X98488260Y-110554000D01*
X98488260Y-110554000D02*
X98743360Y-110068900D01*
X98743360Y-110068900D02*
X98997660Y-109592500D01*
X98997660Y-109592500D02*
X99267860Y-109147800D01*
X99267860Y-109147800D02*
X100689460Y-106424600D01*
X100689460Y-106424600D02*
X101374760Y-105050000D01*
X101374760Y-105050000D02*
X102040660Y-103666000D01*
X102040660Y-103666000D02*
X101279060Y-106760400D01*
X101279060Y-106760400D02*
X100530560Y-109857800D01*
X100530560Y-109857800D02*
X99828260Y-112965000D01*
X99828260Y-112965000D02*
X99504860Y-114524200D01*
X99504860Y-114524200D02*
X99205560Y-116088100D01*
X99205560Y-116088100D02*
X99015560Y-116761900D01*
X99015560Y-116761900D02*
X98860460Y-117464300D01*
X98860460Y-117464300D02*
X98759560Y-118180800D01*
X98759560Y-118180800D02*
X98735460Y-118539800D01*
X98735460Y-118539800D02*
X98732060Y-118897000D01*
X98732060Y-118897000D02*
X98751960Y-119250400D01*
X98751960Y-119250400D02*
X98797460Y-119598400D01*
X98797460Y-119598400D02*
X98870960Y-119939000D01*
X98870960Y-119939000D02*
X98975060Y-120270600D01*
X98975060Y-120270600D02*
X99111860Y-120591200D01*
X99111860Y-120591200D02*
X99284060Y-120899000D01*
X99284060Y-120899000D02*
X99493960Y-121192300D01*
X99493960Y-121192300D02*
X99743860Y-121469300D01*
X99743860Y-121469300D02*
X99962360Y-121679500D01*
X99962360Y-121679500D02*
X100193260Y-121875200D01*
X100193260Y-121875200D02*
X100688860Y-122222700D01*
X100688860Y-122222700D02*
X101222160Y-122512500D01*
X101222160Y-122512500D02*
X101785160Y-122745900D01*
X101785160Y-122745900D02*
X102369160Y-122923700D01*
X102369160Y-122923700D02*
X102965860Y-123046800D01*
X102965860Y-123046800D02*
X103567060Y-123116200D01*
X103567060Y-123116200D02*
X104164160Y-123133000D01*
X104164160Y-123133000D02*
X104430560Y-123045400D01*
X104430560Y-123045400D02*
X104679360Y-122932900D01*
X104679360Y-122932900D02*
X104911860Y-122798300D01*
X104911860Y-122798300D02*
X105130060Y-122643900D01*
X105130060Y-122643900D02*
X105335660Y-122472000D01*
X105335660Y-122472000D02*
X105529960Y-122285100D01*
X105529960Y-122285100D02*
X105891860Y-121876200D01*
X105891860Y-121876200D02*
X106229260Y-121436700D01*
X106229260Y-121436700D02*
X106555060Y-120986100D01*
X106555060Y-120986100D02*
X106882860Y-120543900D01*
X106882860Y-120543900D02*
X107225660Y-120129600D01*
X107225660Y-120129600D02*
X107916960Y-119165300D01*
X107916960Y-119165300D02*
X108570260Y-118174100D01*
X108570260Y-118174100D02*
X109183560Y-117157200D01*
X109183560Y-117157200D02*
X109754760Y-116116100D01*
X109754760Y-116116100D02*
X110281660Y-115052300D01*
X110281660Y-115052300D02*
X110762560Y-113967100D01*
X110762560Y-113967100D02*
X111195360Y-112861800D01*
X111195360Y-112861800D02*
X111577760Y-111737900D01*
X111577760Y-111737900D02*
X111215360Y-113654100D01*
X111215360Y-113654100D02*
X110813960Y-115559000D01*
X110813960Y-115559000D02*
X110380960Y-117455100D01*
X110380960Y-117455100D02*
X109924260Y-119345000D01*
X109924260Y-119345000D02*
X108969560Y-123116900D01*
X108969560Y-123116900D02*
X108010860Y-126895300D01*
X108010860Y-126895300D02*
X107876760Y-127453800D01*
X107876760Y-127453800D02*
X107792560Y-128027300D01*
X107792560Y-128027300D02*
X107766260Y-128605700D01*
X107766260Y-128605700D02*
X107805760Y-129178800D01*
X107805760Y-129178800D02*
X107852660Y-129460200D01*
X107852660Y-129460200D02*
X107918960Y-129736500D01*
X107918960Y-129736500D02*
X108005560Y-130006400D01*
X108005560Y-130006400D02*
X108113560Y-130268600D01*
X108113560Y-130268600D02*
X108243860Y-130521900D01*
X108243860Y-130521900D02*
X108397560Y-130765100D01*
X108397560Y-130765100D02*
X108575560Y-130996800D01*
X108575560Y-130996800D02*
X108778860Y-131215800D01*
X108778860Y-131215800D02*
X109004760Y-131465100D01*
X109004760Y-131465100D02*
X109248860Y-131690900D01*
X109248860Y-131690900D02*
X109509660Y-131893200D01*
X109509660Y-131893200D02*
X109785060Y-132071900D01*
X109785060Y-132071900D02*
X110073560Y-132227300D01*
X110073560Y-132227300D02*
X110373360Y-132359200D01*
X110373360Y-132359200D02*
X110682660Y-132467700D01*
X110682660Y-132467700D02*
X110999660Y-132552800D01*
X110999660Y-132552800D02*
X111322660Y-132614600D01*
X111322660Y-132614600D02*
X111649960Y-132653000D01*
X111649960Y-132653000D02*
X111979660Y-132668300D01*
X111979660Y-132668300D02*
X112310160Y-132660200D01*
X112310160Y-132660200D02*
X112639560Y-132629000D01*
X112639560Y-132629000D02*
X112966260Y-132574600D01*
X112966260Y-132574600D02*
X113288360Y-132497100D01*
X113288360Y-132497100D02*
X113604360Y-132396500D01*
X113604360Y-132396500D02*
X114093160Y-132251900D01*
X114093160Y-132251900D02*
X114557460Y-132067800D01*
X114557460Y-132067800D02*
X114997960Y-131847400D01*
X114997960Y-131847400D02*
X115416060Y-131593200D01*
X115416060Y-131593200D02*
X115812460Y-131308300D01*
X115812460Y-131308300D02*
X116188460Y-130995700D01*
X116188460Y-130995700D02*
X116545160Y-130658100D01*
X116545160Y-130658100D02*
X116883360Y-130298600D01*
X116883360Y-130298600D02*
X117204360Y-129920200D01*
X117204360Y-129920200D02*
X117509260Y-129525700D01*
X117509260Y-129525700D02*
X118074460Y-128699800D01*
X118074460Y-128699800D02*
X118587560Y-127844800D01*
X118587560Y-127844800D02*
X119057060Y-126983800D01*
X119057060Y-126983800D02*
X119617060Y-125812900D01*
X119617060Y-125812900D02*
X120146260Y-124628000D01*
X120146260Y-124628000D02*
X120647360Y-123430300D01*
X120647360Y-123430300D02*
X121123260Y-122222000D01*
X121123260Y-122222000D02*
X121576560Y-121004800D01*
X121576560Y-121004800D02*
X122010260Y-119780500D01*
X122010260Y-119780500D02*
X122829160Y-117317600D01*
X122829160Y-117317600D02*
X122827460Y-117565000D01*
X122827460Y-117565000D02*
X122775560Y-118068600D01*
X122775560Y-118068600D02*
X122647860Y-119138700D01*
X122647860Y-119138700D02*
X122437760Y-120874700D01*
X122437760Y-120874700D02*
X122201160Y-122605000D01*
X122201160Y-122605000D02*
X121942460Y-124330600D01*
X121942460Y-124330600D02*
X121667060Y-126053300D01*
X121667060Y-126053300D02*
X121084960Y-129494600D01*
X121084960Y-129494600D02*
X120493660Y-132939200D01*
X120493660Y-132939200D02*
X120419460Y-133547900D01*
X120419460Y-133547900D02*
X120304660Y-134150300D01*
X120304660Y-134150300D02*
X120159860Y-134747900D01*
X120159860Y-134747900D02*
X119995660Y-135342600D01*
X119995660Y-135342600D02*
X119650860Y-136529600D01*
X119650860Y-136529600D02*
X119491560Y-137125200D01*
X119491560Y-137125200D02*
X119355060Y-137724600D01*
X119355060Y-137724600D02*
X119306560Y-137995800D01*
X119306560Y-137995800D02*
X119278460Y-138268900D01*
X119278460Y-138268900D02*
X119270560Y-138542500D01*
X119270560Y-138542500D02*
X119282460Y-138815100D01*
X119282460Y-138815100D02*
X119314160Y-139085500D01*
X119314160Y-139085500D02*
X119365360Y-139352300D01*
X119365360Y-139352300D02*
X119435760Y-139613900D01*
X119435760Y-139613900D02*
X119525060Y-139869200D01*
X119525060Y-139869200D02*
X119633160Y-140116600D01*
X119633160Y-140116600D02*
X119759860Y-140354900D01*
X119759860Y-140354900D02*
X119904660Y-140582500D01*
X119904660Y-140582500D02*
X120067460Y-140798300D01*
X120067460Y-140798300D02*
X120248260Y-141000700D01*
X120248260Y-141000700D02*
X120446460Y-141188300D01*
X120446460Y-141188300D02*
X120662060Y-141360000D01*
X120662060Y-141360000D02*
X120894560Y-141514000D01*
X120894560Y-141514000D02*
X121425360Y-141879900D01*
X121425360Y-141879900D02*
X121973760Y-142206600D01*
X121973760Y-142206600D02*
X122537960Y-142497000D01*
X122537960Y-142497000D02*
X123116460Y-142754200D01*
X123116460Y-142754200D02*
X123707660Y-142981000D01*
X123707660Y-142981000D02*
X124309960Y-143180200D01*
X124309960Y-143180200D02*
X124921660Y-143354600D01*
X124921660Y-143354600D02*
X125541260Y-143507400D01*
X125541260Y-143507400D02*
X126797660Y-143758900D01*
X126797660Y-143758900D02*
X128066460Y-143958100D01*
X128066460Y-143958100D02*
X130589060Y-144291400D01*
X130589060Y-144291400D02*
X132086260Y-144393500D01*
X132086260Y-144393500D02*
X133585560Y-144459400D01*
X133585560Y-144459400D02*
X135085960Y-144493500D01*
X135085960Y-144493500D02*
X136587360Y-144501100D01*
X136587360Y-144501100D02*
X138088960Y-144486500D01*
X138088960Y-144486500D02*
X139590160Y-144454700D01*
X139590160Y-144454700D02*
X142590060Y-144358900D01*
X142590060Y-144358900D02*
X143879660Y-144244700D01*
X143879660Y-144244700D02*
X145174160Y-144106000D01*
X145174160Y-144106000D02*
X146466360Y-143930100D01*
X146466360Y-143930100D02*
X147749460Y-143704100D01*
X147749460Y-143704100D02*
X149016860Y-143415800D01*
X149016860Y-143415800D02*
X149642360Y-143244100D01*
X149642360Y-143244100D02*
X150261260Y-143052000D01*
X150261260Y-143052000D02*
X150872860Y-142837900D01*
X150872860Y-142837900D02*
X151476160Y-142600400D01*
X151476160Y-142600400D02*
X152070260Y-142337600D01*
X152070260Y-142337600D02*
X152654360Y-142048100D01*
X152654360Y-142048100D02*
X152930060Y-141896100D01*
X152930060Y-141896100D02*
X153197960Y-141725800D01*
X153197960Y-141725800D02*
X153456060Y-141537900D01*
X153456060Y-141537900D02*
X153702560Y-141333800D01*
X153702560Y-141333800D02*
X153935260Y-141114100D01*
X153935260Y-141114100D02*
X154152360Y-140879800D01*
X154152360Y-140879800D02*
X154351960Y-140632100D01*
X154351960Y-140632100D02*
X154531760Y-140371900D01*
X154531760Y-140371900D02*
X154689960Y-140099900D01*
X154689960Y-140099900D02*
X154824560Y-139817500D01*
X154824560Y-139817500D02*
X154933660Y-139525300D01*
X154933660Y-139525300D02*
X155015160Y-139224500D01*
X155015160Y-139224500D02*
X155067160Y-138915900D01*
X155067160Y-138915900D02*
X155087560Y-138600700D01*
X155087560Y-138600700D02*
X155074460Y-138279700D01*
X155074460Y-138279700D02*
X155025960Y-137953700D01*
X155025960Y-137953700D02*
X154897760Y-137261200D01*
X154897760Y-137261200D02*
X154729860Y-136577400D01*
X154729860Y-136577400D02*
X154339860Y-135222400D01*
X154339860Y-135222400D02*
X154149560Y-134544100D01*
X154149560Y-134544100D02*
X153983860Y-133860900D01*
X153983860Y-133860900D02*
X153858460Y-133169000D01*
X153858460Y-133169000D02*
X153789660Y-132465200D01*
X153789660Y-132465200D02*
X153110960Y-128618900D01*
X153110960Y-128618900D02*
X152481560Y-124767100D01*
X152481560Y-124767100D02*
X152193460Y-122838400D01*
X152193460Y-122838400D02*
X151927260Y-120907500D01*
X151686260Y-118974100D02*
X151473560Y-117037700D01*
X151473560Y-117037700D02*
X151845260Y-118279900D01*
X151845260Y-118279900D02*
X152247160Y-119512800D01*
X152247160Y-119512800D02*
X152677460Y-120736600D01*
X152677460Y-120736600D02*
X153133760Y-121951200D01*
X153133760Y-121951200D02*
X153613860Y-123156700D01*
X153613860Y-123156700D02*
X154115560Y-124353200D01*
X154115560Y-124353200D02*
X154636960Y-125540900D01*
X154636960Y-125540900D02*
X155175860Y-126719700D01*
X155175860Y-126719700D02*
X155637560Y-127583600D01*
X155637560Y-127583600D02*
X156139960Y-128446700D01*
X156139960Y-128446700D02*
X156692060Y-129285600D01*
X156692060Y-129285600D02*
X156989660Y-129688500D01*
X156989660Y-129688500D02*
X157303060Y-130076500D01*
X157303060Y-130076500D02*
X157633460Y-130446600D01*
X157633460Y-130446600D02*
X157981760Y-130795900D01*
X157981760Y-130795900D02*
X158349560Y-131121500D01*
X158349560Y-131121500D02*
X158737560Y-131420300D01*
X158737560Y-131420300D02*
X159146960Y-131689400D01*
X159146960Y-131689400D02*
X159579160Y-131925900D01*
X159579160Y-131925900D02*
X160035060Y-132126900D01*
X160035060Y-132126900D02*
X160515760Y-132289200D01*
X160515760Y-132289200D02*
X161130160Y-132467200D01*
X161130160Y-132467200D02*
X161765060Y-132577600D01*
X161765060Y-132577600D02*
X162086360Y-132605500D01*
X162086360Y-132605500D02*
X162407960Y-132614100D01*
X162407960Y-132614100D02*
X162728460Y-132602500D01*
X162728460Y-132602500D02*
X163046160Y-132570100D01*
X163046160Y-132570100D02*
X163359660Y-132516100D01*
X163359660Y-132516100D02*
X163667260Y-132439800D01*
X163667260Y-132439800D02*
X163967260Y-132340100D01*
X163967260Y-132340100D02*
X164258260Y-132216600D01*
X164258260Y-132216600D02*
X164538760Y-132068100D01*
X164538760Y-132068100D02*
X164806960Y-131894200D01*
X164806960Y-131894200D02*
X165061460Y-131693900D01*
X165061460Y-131693900D02*
X165300560Y-131466400D01*
X165300560Y-131466400D02*
X165514960Y-131260100D01*
X165514960Y-131260100D02*
X165710660Y-131039200D01*
X165710660Y-131039200D02*
X165887660Y-130805000D01*
X165887660Y-130805000D02*
X166045660Y-130559000D01*
X166045660Y-130559000D02*
X166184360Y-130302400D01*
X166184360Y-130302400D02*
X166303860Y-130036700D01*
X166303860Y-130036700D02*
X166403560Y-129763100D01*
X166403560Y-129763100D02*
X166483460Y-129483100D01*
X166483460Y-129483100D02*
X166543460Y-129197800D01*
X166543460Y-129197800D02*
X166582960Y-128908900D01*
X166582960Y-128908900D02*
X166602260Y-128617600D01*
X166602260Y-128617600D02*
X166600760Y-128325100D01*
X166600760Y-128325100D02*
X166578360Y-128032800D01*
X166578360Y-128032800D02*
X166534960Y-127742200D01*
X166534960Y-127742200D02*
X166470260Y-127454600D01*
X166470260Y-127454600D02*
X166384060Y-127171300D01*
X166384060Y-127171300D02*
X165989660Y-125449600D01*
X165989660Y-125449600D02*
X165565760Y-123734800D01*
X165565760Y-123734800D02*
X164680560Y-120314000D01*
X164680560Y-120314000D02*
X164244060Y-118602100D01*
X164244060Y-118602100D02*
X163828560Y-116885300D01*
X163828560Y-116885300D02*
X163446560Y-115160700D01*
X163446560Y-115160700D02*
X163110460Y-113425400D01*
X163110460Y-113425400D02*
X162894360Y-112331400D01*
X162894360Y-112331400D02*
X162831560Y-111946200D01*
X162831560Y-111946200D02*
X162837860Y-111933600D01*
X162837860Y-111933600D02*
X162856160Y-111966700D01*
X162856160Y-111966700D02*
X162935060Y-112195100D01*
X162935060Y-112195100D02*
X163201060Y-112927200D01*
X163201060Y-112927200D02*
X163485760Y-113652700D01*
X163485760Y-113652700D02*
X163789460Y-114370900D01*
X163789460Y-114370900D02*
X164111660Y-115081100D01*
X164111660Y-115081100D02*
X164452460Y-115782900D01*
X164452460Y-115782900D02*
X164811460Y-116475600D01*
X164811460Y-116475600D02*
X165188760Y-117158300D01*
X165188760Y-117158300D02*
X165584160Y-117830900D01*
X165584160Y-117830900D02*
X165997560Y-118492400D01*
X165997560Y-118492400D02*
X166428660Y-119142200D01*
X166428660Y-119142200D02*
X166877360Y-119779700D01*
X166877360Y-119779700D02*
X167343760Y-120404500D01*
X167343760Y-120404500D02*
X167827360Y-121015700D01*
X167827360Y-121015700D02*
X168328360Y-121612900D01*
X168328360Y-121612900D02*
X168846360Y-122195400D01*
X168846360Y-122195400D02*
X169381360Y-122762400D01*
X169381360Y-122762400D02*
X169631560Y-122905600D01*
X169631560Y-122905600D02*
X169887060Y-123011400D01*
X169887060Y-123011400D02*
X170147160Y-123082900D01*
X170147160Y-123082900D02*
X170411060Y-123123200D01*
X170411060Y-123123200D02*
X170677960Y-123135200D01*
X170677960Y-123135200D02*
X170946760Y-123122000D01*
X170946760Y-123122000D02*
X171216860Y-123086600D01*
X171216860Y-123086600D02*
X171487460Y-123032200D01*
X171487460Y-123032200D02*
X172026260Y-122877800D01*
X172026260Y-122877800D02*
X172556760Y-122683200D01*
X172556760Y-122683200D02*
X173565360Y-122270000D01*
X173565360Y-122270000D02*
X173891660Y-122080700D01*
X173891660Y-122080700D02*
X174192060Y-121861200D01*
X174192060Y-121861200D02*
X174466060Y-121614500D01*
X174466060Y-121614500D02*
X174712860Y-121343200D01*
X174712860Y-121343200D02*
X174932460Y-121050100D01*
X174932460Y-121050100D02*
X175124160Y-120737800D01*
X175124160Y-120737800D02*
X175287360Y-120409000D01*
X175287360Y-120409000D02*
X175421860Y-120066600D01*
X175421860Y-120066600D02*
X175526960Y-119713300D01*
X175526960Y-119713300D02*
X175602460Y-119351700D01*
X175602460Y-119351700D02*
X175647660Y-118984500D01*
X175647660Y-118984500D02*
X175662060Y-118614600D01*
X175662060Y-118614600D02*
X175645560Y-118244600D01*
X175645560Y-118244600D02*
X175597160Y-117877200D01*
X175597160Y-117877200D02*
X175516760Y-117515200D01*
X175516760Y-117515200D02*
X175403960Y-117161300D01*
X175403960Y-117161300D02*
X174860660Y-114509800D01*
X174860660Y-114509800D02*
X174294760Y-111864100D01*
X174294760Y-111864100D02*
X173690760Y-109226900D01*
X173690760Y-109226900D02*
X173033360Y-106601200D01*
X173033360Y-106601200D02*
X172319160Y-103644400D01*
X172319160Y-103644400D02*
X173310460Y-105705000D01*
X173310460Y-105705000D02*
X174343460Y-107748400D01*
X174343460Y-107748400D02*
X174884760Y-108756500D01*
X174884760Y-108756500D02*
X175447460Y-109751700D01*
X175447460Y-109751700D02*
X176035160Y-110731200D01*
X176035160Y-110731200D02*
X176651560Y-111692100D01*
X176651560Y-111692100D02*
X176893860Y-111927500D01*
X176893860Y-111927500D02*
X177168160Y-112099700D01*
X177168160Y-112099700D02*
X177466160Y-112211200D01*
X177466160Y-112211200D02*
X177779360Y-112264500D01*
X177779360Y-112264500D02*
X178099460Y-112262200D01*
X178099460Y-112262200D02*
X178418360Y-112207000D01*
X178418360Y-112207000D02*
X178727560Y-112101400D01*
X178727560Y-112101400D02*
X179018460Y-111948000D01*
X179018460Y-111948000D02*
X180303160Y-111443500D01*
X180303160Y-111443500D02*
X180952760Y-111182500D01*
X180952760Y-111182500D02*
X181590860Y-110898000D01*
X181590860Y-110898000D02*
X182205060Y-110576600D01*
X182205060Y-110576600D02*
X182782960Y-110205400D01*
X182782960Y-110205400D02*
X183054460Y-109996700D01*
X183054460Y-109996700D02*
X183312360Y-109770800D01*
X183312360Y-109770800D02*
X183554960Y-109525600D01*
X183554960Y-109525600D02*
X183780760Y-109259800D01*
X183780760Y-109259800D02*
X183902660Y-108988200D01*
X183902660Y-108988200D02*
X183990560Y-108713600D01*
X183990560Y-108713600D02*
X184047560Y-108436200D01*
X184047560Y-108436200D02*
X184076960Y-108156500D01*
X184076960Y-108156500D02*
X184082660Y-107874700D01*
X184082660Y-107874700D02*
X184066960Y-107591400D01*
X184066960Y-107591400D02*
X183985960Y-107021800D01*
X183985960Y-107021800D02*
X183861060Y-106450500D01*
X183861060Y-106450500D02*
X183718860Y-105880700D01*
X183718860Y-105880700D02*
X183585660Y-105315500D01*
X183585660Y-105315500D02*
X183487960Y-104758100D01*
X183487960Y-104758100D02*
X182492560Y-100345400D01*
X182492560Y-100345400D02*
X181514760Y-95927700D01*
X181514760Y-95927700D02*
X181007860Y-93723400D01*
X181007860Y-93723400D02*
X180476060Y-91525800D01*
X180476060Y-91525800D02*
X179909260Y-89337200D01*
X179909260Y-89337200D02*
X179297960Y-87160300D01*
X179297960Y-87160300D02*
X179137460Y-86767700D01*
X179137460Y-86767700D02*
X178947860Y-86383000D01*
X178947860Y-86383000D02*
X178730760Y-86009300D01*
X178730760Y-86009300D02*
X178487660Y-85649500D01*
X178487660Y-85649500D02*
X178219960Y-85306900D01*
X178219960Y-85306900D02*
X177928960Y-84984400D01*
X177928960Y-84984400D02*
X177616260Y-84685200D01*
X177616260Y-84685200D02*
X177283360Y-84412400D01*
X177283360Y-84412400D02*
X176931660Y-84168800D01*
X176931660Y-84168800D02*
X176562460Y-83957700D01*
X176562460Y-83957700D02*
X176177360Y-83782000D01*
X176177360Y-83782000D02*
X175777760Y-83645000D01*
X175777760Y-83645000D02*
X175365260Y-83549600D01*
X175365260Y-83549600D02*
X174941060Y-83499000D01*
X174941060Y-83499000D02*
X174506560Y-83496000D01*
X174506560Y-83496000D02*
X174063560Y-83544000D01*
X174063560Y-83544000D02*
X172859960Y-83634300D01*
X172859960Y-83634300D02*
X171661360Y-83772200D01*
X171661360Y-83772200D02*
X170466460Y-83942900D01*
X170466460Y-83942900D02*
X169273760Y-84132300D01*
X169273760Y-84132300D02*
X166889460Y-84509900D01*
X166889460Y-84509900D02*
X165695160Y-84669300D01*
X165695160Y-84669300D02*
X164497460Y-84790100D01*
X164497460Y-84790100D02*
X162842260Y-84663700D01*
X162842260Y-84663700D02*
X161996960Y-84562900D01*
X161996960Y-84562900D02*
X161579260Y-84491900D01*
X161579260Y-84491900D02*
X161168360Y-84402700D01*
X161168360Y-84402700D02*
X160766760Y-84292200D01*
X160766760Y-84292200D02*
X160377360Y-84157200D01*
X160377360Y-84157200D02*
X160002660Y-83994400D01*
X160002660Y-83994400D02*
X159645160Y-83800500D01*
X159645160Y-83800500D02*
X159307960Y-83572500D01*
X159307960Y-83572500D02*
X158992960Y-83306800D01*
X158992960Y-83306800D02*
X158703560Y-83000500D01*
X158703560Y-83000500D02*
X158442360Y-82650300D01*
X158442360Y-82650300D02*
X158180460Y-82210400D01*
X158180460Y-82210400D02*
X157948260Y-81758800D01*
X157948260Y-81758800D02*
X157742560Y-81297000D01*
X157742560Y-81297000D02*
X157559860Y-80826000D01*
X157559860Y-80826000D02*
X157397060Y-80347300D01*
X157397060Y-80347300D02*
X157250860Y-79862100D01*
X157250860Y-79862100D02*
X156995160Y-78877300D01*
X156995160Y-78877300D02*
X156539260Y-76885500D01*
X156539260Y-76885500D02*
X156286660Y-75898900D01*
X156286660Y-75898900D02*
X155982760Y-74932100D01*
X155982760Y-74932100D02*
X155596560Y-73771700D01*
X155596560Y-73771700D02*
X155150360Y-72629200D01*
X155150360Y-72629200D02*
X154645360Y-71508400D01*
X154645360Y-71508400D02*
X154083060Y-70413300D01*
X154083060Y-70413300D02*
X153464760Y-69348300D01*
X153464760Y-69348300D02*
X152791760Y-68317200D01*
X152791760Y-68317200D02*
X152065560Y-67324000D01*
X152065560Y-67324000D02*
X151287260Y-66373100D01*
X151287260Y-66373100D02*
X150458360Y-65468400D01*
X150458360Y-65468400D02*
X149580260Y-64613800D01*
X149580260Y-64613800D02*
X148654260Y-63813620D01*
X148654260Y-63813620D02*
X148173660Y-63435170D01*
X148173660Y-63435170D02*
X147681460Y-63071900D01*
X147681460Y-63071900D02*
X147178160Y-62724180D01*
X147178160Y-62724180D02*
X146663760Y-62392510D01*
X146663760Y-62392510D02*
X146138260Y-62077630D01*
X146138260Y-62077630D02*
X145601860Y-61779800D01*
X145601860Y-61779800D02*
X145054960Y-61499630D01*
X145054960Y-61499630D02*
X144497660Y-61237630D01*
X144497660Y-61237630D02*
X143929960Y-60994280D01*
X143929960Y-60994280D02*
X143352060Y-60770230D01*
X143352060Y-60770230D02*
X142539860Y-60486080D01*
X142539860Y-60486080D02*
X141714360Y-60242240D01*
X141714360Y-60242240D02*
X140877960Y-60039580D01*
X140877960Y-60039580D02*
X140032760Y-59878470D01*
X140032760Y-59878470D02*
X139180460Y-59759540D01*
X139180460Y-59759540D02*
X138323360Y-59683390D01*
X138323360Y-59683390D02*
X137463460Y-59650420D01*
X137463460Y-59650420D02*
X136602860Y-59661490D01*
X136602860Y-59661490D02*
X136602860Y-59661490D01*
X136602860Y-59661490D02*
X136602860Y-59661500D01*
M02*
