%TF.GenerationSoftware,KiCad,Pcbnew,9.0.6*%
%TF.CreationDate,2026-01-05T12:28:17+01:00*%
%TF.ProjectId,Seegeist,53656567-6569-4737-942e-6b696361645f,rev?*%
%TF.SameCoordinates,Original*%
%TF.FileFunction,Legend,Top*%
%TF.FilePolarity,Positive*%
%FSLAX46Y46*%
G04 Gerber Fmt 4.6, Leading zero omitted, Abs format (unit mm)*
G04 Created by KiCad (PCBNEW 9.0.6) date 2026-01-05 12:28:17*
%MOMM*%
%LPD*%
G01*
G04 APERTURE LIST*
%ADD10C,0.150000*%
%ADD11C,0.120000*%
%ADD12C,0.010000*%
G04 APERTURE END LIST*
D10*
X101830180Y-99513922D02*
X101830180Y-100085350D01*
X100830180Y-99799636D02*
X101830180Y-99799636D01*
X101734942Y-100371065D02*
X101782561Y-100418684D01*
X101782561Y-100418684D02*
X101830180Y-100513922D01*
X101830180Y-100513922D02*
X101830180Y-100752017D01*
X101830180Y-100752017D02*
X101782561Y-100847255D01*
X101782561Y-100847255D02*
X101734942Y-100894874D01*
X101734942Y-100894874D02*
X101639704Y-100942493D01*
X101639704Y-100942493D02*
X101544466Y-100942493D01*
X101544466Y-100942493D02*
X101401609Y-100894874D01*
X101401609Y-100894874D02*
X100830180Y-100323446D01*
X100830180Y-100323446D02*
X100830180Y-100942493D01*
D11*
%TO.C,D2*%
X127290000Y-75332000D02*
X127290000Y-75488000D01*
D12*
%TO.C,G\u002A\u002A\u002A*%
X138292976Y-60438328D02*
X139949168Y-60615718D01*
X141591766Y-60961234D01*
X143217019Y-61474671D01*
X144785027Y-62138504D01*
X146286892Y-62949399D01*
X147715824Y-63909946D01*
X149066284Y-65014453D01*
X150332732Y-66257228D01*
X151509630Y-67632579D01*
X152591441Y-69134816D01*
X153572625Y-70758246D01*
X154043740Y-71653433D01*
X154336339Y-72258316D01*
X154605122Y-72862405D01*
X154857602Y-73487948D01*
X155101289Y-74157193D01*
X155343696Y-74892389D01*
X155592336Y-75715783D01*
X155854720Y-76649625D01*
X156138361Y-77716161D01*
X156291987Y-78311957D01*
X156555525Y-79322527D01*
X156793570Y-80184740D01*
X157013780Y-80916296D01*
X157223814Y-81534895D01*
X157431331Y-82058236D01*
X157643989Y-82504018D01*
X157869445Y-82889942D01*
X158115360Y-83233707D01*
X158389390Y-83553013D01*
X158691996Y-83858684D01*
X159391562Y-84414256D01*
X160172693Y-84826238D01*
X160617693Y-84983799D01*
X161044518Y-85090238D01*
X161596247Y-85197284D01*
X162228598Y-85298515D01*
X162897290Y-85387508D01*
X163558039Y-85457842D01*
X164166562Y-85503094D01*
X164216027Y-85505656D01*
X164551168Y-85519581D01*
X164849310Y-85523250D01*
X165141085Y-85513748D01*
X165457128Y-85488162D01*
X165828072Y-85443576D01*
X166284551Y-85377078D01*
X166857199Y-85285753D01*
X167306360Y-85211675D01*
X168515942Y-85012987D01*
X169575376Y-84844030D01*
X170500841Y-84702773D01*
X171308517Y-84587187D01*
X172014584Y-84495241D01*
X172635221Y-84424905D01*
X173186609Y-84374148D01*
X173684926Y-84340940D01*
X174146352Y-84323250D01*
X174418360Y-84319202D01*
X174917968Y-84317106D01*
X175283674Y-84321197D01*
X175550903Y-84336329D01*
X175755080Y-84367357D01*
X175931630Y-84419133D01*
X176115979Y-84496514D01*
X176281027Y-84574443D01*
X176958800Y-84989360D01*
X177583424Y-85554958D01*
X178141889Y-86257415D01*
X178598279Y-87036882D01*
X178693699Y-87248083D01*
X178799050Y-87523811D01*
X178916126Y-87871277D01*
X179046717Y-88297689D01*
X179192618Y-88810256D01*
X179355621Y-89416188D01*
X179537518Y-90122692D01*
X179740103Y-90936980D01*
X179965169Y-91866258D01*
X180214507Y-92917737D01*
X180489912Y-94098626D01*
X180793175Y-95416134D01*
X181126089Y-96877469D01*
X181490448Y-98489842D01*
X181888043Y-100260460D01*
X181899832Y-100313100D01*
X182177911Y-101555950D01*
X182421117Y-102645524D01*
X182631986Y-103593697D01*
X182813055Y-104412342D01*
X182966860Y-105113334D01*
X183095940Y-105708545D01*
X183202829Y-106209850D01*
X183290066Y-106629124D01*
X183360186Y-106978238D01*
X183415726Y-107269068D01*
X183459224Y-107513488D01*
X183493215Y-107723370D01*
X183515336Y-107874872D01*
X183528494Y-108282510D01*
X183443606Y-108661615D01*
X183251135Y-109020866D01*
X182941545Y-109368938D01*
X182505298Y-109714511D01*
X181932856Y-110066260D01*
X181214684Y-110432864D01*
X180341243Y-110823000D01*
X180218027Y-110874963D01*
X179722205Y-111076889D01*
X179228963Y-111267137D01*
X178768306Y-111435157D01*
X178370234Y-111570396D01*
X178064753Y-111662303D01*
X177881863Y-111700325D01*
X177869928Y-111700767D01*
X177705264Y-111656853D01*
X177512489Y-111520317D01*
X177286976Y-111283968D01*
X177024101Y-110940614D01*
X176719239Y-110483065D01*
X176367763Y-109904128D01*
X175965048Y-109196614D01*
X175506469Y-108353329D01*
X174987401Y-107367084D01*
X174602470Y-106620767D01*
X173611729Y-104635761D01*
X172714632Y-102728039D01*
X171889568Y-100850823D01*
X171461193Y-99820628D01*
X171251001Y-99308770D01*
X171054835Y-98838003D01*
X170884185Y-98435362D01*
X170750544Y-98127881D01*
X170665402Y-97942595D01*
X170651451Y-97915628D01*
X170575858Y-97786121D01*
X170546252Y-97776954D01*
X170553441Y-97906164D01*
X170573060Y-98069433D01*
X170621856Y-98425686D01*
X170685751Y-98824826D01*
X170767220Y-99278011D01*
X170868742Y-99796394D01*
X170992791Y-100391131D01*
X171141844Y-101073378D01*
X171318378Y-101854290D01*
X171524869Y-102745021D01*
X171763794Y-103756727D01*
X172037628Y-104900564D01*
X172348849Y-106187686D01*
X172648587Y-107418942D01*
X172943851Y-108631384D01*
X173200886Y-109692959D01*
X173422738Y-110617025D01*
X173612457Y-111416941D01*
X173773090Y-112106064D01*
X173907686Y-112697753D01*
X174019292Y-113205367D01*
X174110956Y-113642263D01*
X174185728Y-114021800D01*
X174246654Y-114357336D01*
X174286601Y-114597577D01*
X174355959Y-114987604D01*
X174454955Y-115484923D01*
X174571735Y-116032654D01*
X174694447Y-116573917D01*
X174727699Y-116714244D01*
X174916496Y-117591930D01*
X175028118Y-118337921D01*
X175062978Y-118971034D01*
X175021486Y-119510085D01*
X174904057Y-119973891D01*
X174804302Y-120209767D01*
X174437134Y-120797766D01*
X173950718Y-121298285D01*
X173335165Y-121718161D01*
X172580585Y-122064237D01*
X171744697Y-122326031D01*
X171193418Y-122456864D01*
X170763059Y-122518682D01*
X170416037Y-122502061D01*
X170114770Y-122397575D01*
X169821676Y-122195800D01*
X169499172Y-121887309D01*
X169346854Y-121724679D01*
X168619841Y-120879143D01*
X167873114Y-119909686D01*
X167128845Y-118851509D01*
X166409206Y-117739816D01*
X165736371Y-116609810D01*
X165132513Y-115496695D01*
X164619805Y-114435675D01*
X164339766Y-113775100D01*
X164033892Y-112971059D01*
X163702868Y-112044227D01*
X163360402Y-111036627D01*
X163020202Y-109990281D01*
X162695979Y-108947212D01*
X162401439Y-107949443D01*
X162185397Y-107171100D01*
X161914347Y-106166319D01*
X161682170Y-105322511D01*
X161487768Y-104636101D01*
X161330045Y-104103513D01*
X161207904Y-103721171D01*
X161120248Y-103485501D01*
X161065979Y-103392926D01*
X161044001Y-103439872D01*
X161043601Y-103449665D01*
X161052368Y-103596140D01*
X161080433Y-103884556D01*
X161124608Y-104289024D01*
X161181705Y-104783652D01*
X161248536Y-105342548D01*
X161321915Y-105939821D01*
X161398652Y-106549580D01*
X161475562Y-107145933D01*
X161549456Y-107702988D01*
X161617146Y-108194856D01*
X161675446Y-108595643D01*
X161684180Y-108652767D01*
X161935881Y-110186545D01*
X162234905Y-111841313D01*
X162573078Y-113578077D01*
X162942226Y-115357844D01*
X163334176Y-117141624D01*
X163740752Y-118890423D01*
X164153782Y-120565249D01*
X164302096Y-121141100D01*
X164623280Y-122374876D01*
X164903599Y-123456871D01*
X165145639Y-124398964D01*
X165351990Y-125213038D01*
X165525239Y-125910972D01*
X165667974Y-126504648D01*
X165782782Y-127005947D01*
X165872253Y-127426750D01*
X165938974Y-127778938D01*
X165985533Y-128074392D01*
X166014518Y-128324992D01*
X166028516Y-128542620D01*
X166030117Y-128739156D01*
X166021907Y-128926482D01*
X166015875Y-129008778D01*
X165890562Y-129617951D01*
X165610110Y-130208553D01*
X165167665Y-130794914D01*
X165154936Y-130809123D01*
X164571652Y-131346194D01*
X163930661Y-131724070D01*
X163231927Y-131942766D01*
X162475411Y-132002296D01*
X162237871Y-131989177D01*
X161796544Y-131922519D01*
X161272526Y-131798144D01*
X160717401Y-131632665D01*
X160182753Y-131442694D01*
X159720167Y-131244844D01*
X159420611Y-131081894D01*
X159085904Y-130827962D01*
X158689226Y-130464801D01*
X158260915Y-130025137D01*
X157831311Y-129541701D01*
X157430754Y-129047219D01*
X157089584Y-128574420D01*
X157072972Y-128549433D01*
X156656183Y-127869372D01*
X156205321Y-127041390D01*
X155727636Y-126081782D01*
X155230376Y-125006840D01*
X154720789Y-123832860D01*
X154206125Y-122576135D01*
X153693632Y-121252959D01*
X153190559Y-119879625D01*
X153091583Y-119600005D01*
X152847490Y-118895813D01*
X152629135Y-118239469D01*
X152431027Y-117609088D01*
X152247676Y-116982791D01*
X152073592Y-116338695D01*
X151903285Y-115654919D01*
X151731264Y-114909580D01*
X151552039Y-114080798D01*
X151360120Y-113146691D01*
X151150017Y-112085376D01*
X150960942Y-111108100D01*
X150826720Y-110416514D01*
X150718552Y-109878162D01*
X150633064Y-109479520D01*
X150566879Y-109207065D01*
X150516622Y-109047275D01*
X150478916Y-108986627D01*
X150450386Y-109011598D01*
X150443111Y-109033767D01*
X150419881Y-109228709D01*
X150412697Y-109575186D01*
X150420446Y-110056268D01*
X150442017Y-110655028D01*
X150476300Y-111354539D01*
X150522181Y-112137871D01*
X150578550Y-112988098D01*
X150644296Y-113888290D01*
X150718307Y-114821521D01*
X150799470Y-115770862D01*
X150886676Y-116719384D01*
X150978813Y-117650161D01*
X151057390Y-118389433D01*
X151150768Y-119189533D01*
X151268188Y-120116773D01*
X151405544Y-121143785D01*
X151558727Y-122243202D01*
X151723627Y-123387657D01*
X151896137Y-124549782D01*
X152072148Y-125702209D01*
X152247552Y-126817571D01*
X152418239Y-127868501D01*
X152580102Y-128827631D01*
X152729031Y-129667594D01*
X152834652Y-130227950D01*
X152952698Y-130849460D01*
X153071836Y-131506732D01*
X153183136Y-132148383D01*
X153277671Y-132723030D01*
X153342417Y-133150170D01*
X153429368Y-133748607D01*
X153505539Y-134223548D01*
X153580726Y-134619572D01*
X153664725Y-134981263D01*
X153767332Y-135353200D01*
X153898342Y-135779967D01*
X153968634Y-136000100D01*
X154243564Y-136932857D01*
X154422752Y-137740840D01*
X154503152Y-138440984D01*
X154481717Y-139050227D01*
X154355398Y-139585503D01*
X154121149Y-140063748D01*
X153775922Y-140501898D01*
X153316670Y-140916890D01*
X153047765Y-141117852D01*
X152360384Y-141554056D01*
X151586215Y-141945605D01*
X150711896Y-142296710D01*
X149724060Y-142611585D01*
X148609344Y-142894443D01*
X147354382Y-143149497D01*
X145945809Y-143380960D01*
X145801027Y-143402238D01*
X145211961Y-143483329D01*
X144579367Y-143562596D01*
X143964002Y-143632915D01*
X143426625Y-143687161D01*
X143218693Y-143705045D01*
X142834755Y-143728176D01*
X142303889Y-143749477D01*
X141648495Y-143768774D01*
X140890972Y-143785893D01*
X140053716Y-143800659D01*
X139159128Y-143812899D01*
X138229605Y-143822439D01*
X137287545Y-143829105D01*
X136355348Y-143832722D01*
X135455411Y-143833117D01*
X134610133Y-143830116D01*
X133841913Y-143823545D01*
X133173148Y-143813229D01*
X132626238Y-143798995D01*
X132381360Y-143789239D01*
X131788913Y-143759327D01*
X131279356Y-143727796D01*
X130812425Y-143690448D01*
X130347854Y-143643086D01*
X129845377Y-143581513D01*
X129264730Y-143501531D01*
X128565647Y-143398945D01*
X128402027Y-143374437D01*
X126935360Y-143125940D01*
X125626565Y-142843290D01*
X124467033Y-142523288D01*
X123448156Y-142162735D01*
X122561325Y-141758433D01*
X121797932Y-141307182D01*
X121149367Y-140805783D01*
X120926036Y-140596294D01*
X120580920Y-140202695D01*
X120328801Y-139786968D01*
X120168560Y-139330876D01*
X120099080Y-138816180D01*
X120119243Y-138224642D01*
X120227933Y-137538024D01*
X120424030Y-136738087D01*
X120644419Y-136000100D01*
X120800563Y-135496017D01*
X120922308Y-135069231D01*
X121019917Y-134672869D01*
X121103656Y-134260056D01*
X121183789Y-133783918D01*
X121270581Y-133197579D01*
X121293330Y-133036767D01*
X121351196Y-132657697D01*
X121434809Y-132153627D01*
X121536984Y-131565653D01*
X121650538Y-130934876D01*
X121768289Y-130302394D01*
X121803875Y-130115767D01*
X121992892Y-129088836D01*
X122193213Y-127924719D01*
X122400287Y-126654821D01*
X122609566Y-125310544D01*
X122816501Y-123923294D01*
X123016541Y-122524473D01*
X123205138Y-121145486D01*
X123377742Y-119817736D01*
X123529804Y-118572628D01*
X123656775Y-117441565D01*
X123698850Y-117034767D01*
X123783256Y-116159093D01*
X123862306Y-115269696D01*
X123935161Y-114381862D01*
X124000984Y-113510876D01*
X124058939Y-112672022D01*
X124108187Y-111880588D01*
X124147892Y-111151856D01*
X124177216Y-110501114D01*
X124195322Y-109943646D01*
X124201373Y-109494738D01*
X124194532Y-109169675D01*
X124173960Y-108983743D01*
X124141758Y-108949100D01*
X124103367Y-109050987D01*
X124038807Y-109297885D01*
X123952840Y-109668319D01*
X123850226Y-110140816D01*
X123735725Y-110693901D01*
X123614098Y-111306101D01*
X123578660Y-111489100D01*
X123347256Y-112678521D01*
X123136949Y-113726166D01*
X122940795Y-114657254D01*
X122751852Y-115497005D01*
X122563173Y-116270637D01*
X122367816Y-117003369D01*
X122158837Y-117720422D01*
X121929291Y-118447013D01*
X121672233Y-119208363D01*
X121380721Y-120029691D01*
X121047810Y-120936215D01*
X120781110Y-121649100D01*
X120175538Y-123209225D01*
X119591308Y-124610477D01*
X119023966Y-125861342D01*
X118469058Y-126970304D01*
X117922132Y-127945848D01*
X117378734Y-128796459D01*
X116834410Y-129530620D01*
X116353664Y-130084373D01*
X115781073Y-130640247D01*
X115214256Y-131069993D01*
X114601655Y-131406816D01*
X113891713Y-131683920D01*
X113847160Y-131698632D01*
X113428056Y-131829233D01*
X113091305Y-131911857D01*
X112769038Y-131957129D01*
X112393387Y-131975670D01*
X112059580Y-131978433D01*
X111639222Y-131975324D01*
X111338554Y-131959878D01*
X111107961Y-131922912D01*
X110897830Y-131855245D01*
X110658546Y-131747698D01*
X110564478Y-131701768D01*
X110021041Y-131357075D01*
X109508939Y-130889295D01*
X109072881Y-130344145D01*
X108831058Y-129929296D01*
X108707923Y-129656137D01*
X108636494Y-129417166D01*
X108604475Y-129147846D01*
X108599566Y-128783640D01*
X108600380Y-128718767D01*
X108622607Y-128309221D01*
X108680409Y-127827960D01*
X108776803Y-127260526D01*
X108914806Y-126592462D01*
X109097436Y-125809314D01*
X109327709Y-124896625D01*
X109608644Y-123839938D01*
X109651804Y-123681100D01*
X110259341Y-121384605D01*
X110827896Y-119102579D01*
X111353316Y-116854884D01*
X111831444Y-114661382D01*
X112258127Y-112541935D01*
X112629209Y-110516406D01*
X112940534Y-108604657D01*
X113187949Y-106826550D01*
X113203034Y-106705433D01*
X113315271Y-105791578D01*
X113406497Y-105036765D01*
X113477703Y-104432139D01*
X113529878Y-103968846D01*
X113564011Y-103638029D01*
X113581093Y-103430834D01*
X113582113Y-103338404D01*
X113580030Y-103332256D01*
X113541605Y-103390054D01*
X113465299Y-103594533D01*
X113356247Y-103928594D01*
X113219580Y-104375140D01*
X113060433Y-104917072D01*
X112883937Y-105537292D01*
X112695227Y-106218701D01*
X112529268Y-106832433D01*
X112186372Y-108067832D01*
X111821537Y-109296372D01*
X111442190Y-110496949D01*
X111055754Y-111648458D01*
X110669655Y-112729795D01*
X110291319Y-113719855D01*
X109928170Y-114597534D01*
X109587632Y-115341727D01*
X109417285Y-115677776D01*
X109015400Y-116407091D01*
X108569377Y-117164680D01*
X108091758Y-117933030D01*
X107595079Y-118694628D01*
X107091881Y-119431963D01*
X106594702Y-120127520D01*
X106116082Y-120763788D01*
X105668559Y-121323255D01*
X105264672Y-121788406D01*
X104916961Y-122141730D01*
X104637963Y-122365715D01*
X104621296Y-122376119D01*
X104268364Y-122504915D01*
X103801376Y-122527659D01*
X103213796Y-122444173D01*
X102736331Y-122325019D01*
X101891472Y-122041378D01*
X101196272Y-121708671D01*
X100635496Y-121316342D01*
X100193907Y-120853836D01*
X99870950Y-120339905D01*
X99709445Y-119980725D01*
X99599332Y-119624704D01*
X99540956Y-119246529D01*
X99534661Y-118820886D01*
X99580792Y-118322461D01*
X99679693Y-117725942D01*
X99831708Y-117006015D01*
X99921607Y-116617796D01*
X100034517Y-116117039D01*
X100146846Y-115579690D01*
X100243954Y-115077813D01*
X100300065Y-114755129D01*
X100356497Y-114419847D01*
X100423541Y-114056139D01*
X100504456Y-113649642D01*
X100602502Y-113185991D01*
X100720939Y-112650820D01*
X100863027Y-112029767D01*
X101032027Y-111308467D01*
X101231197Y-110472554D01*
X101463799Y-109507665D01*
X101733092Y-108399436D01*
X101867530Y-107848433D01*
X102267446Y-106203543D01*
X102624610Y-104718456D01*
X102939864Y-103389348D01*
X103214049Y-102212396D01*
X103448007Y-101183776D01*
X103642578Y-100299666D01*
X103798604Y-99556242D01*
X103916927Y-98949680D01*
X103998388Y-98476158D01*
X104043829Y-98131852D01*
X104054091Y-97912939D01*
X104054087Y-97912853D01*
X104021223Y-97903327D01*
X103932020Y-98047892D01*
X103788688Y-98341750D01*
X103593437Y-98780100D01*
X103348478Y-99358146D01*
X103056019Y-100071088D01*
X103026611Y-100143767D01*
X102665336Y-101014136D01*
X102267605Y-101930544D01*
X101840811Y-102878693D01*
X101392351Y-103844289D01*
X100929620Y-104813036D01*
X100460012Y-105770640D01*
X99990924Y-106702804D01*
X99529750Y-107595234D01*
X99083886Y-108433635D01*
X98660727Y-109203711D01*
X98267668Y-109891167D01*
X97912105Y-110481707D01*
X97601432Y-110961036D01*
X97343045Y-111314860D01*
X97144340Y-111528883D01*
X97131382Y-111539427D01*
X96905543Y-111664077D01*
X96635438Y-111684566D01*
X96567360Y-111677953D01*
X96294135Y-111617219D01*
X95901084Y-111490843D01*
X95417013Y-111311605D01*
X94870725Y-111092279D01*
X94291024Y-110845644D01*
X93706715Y-110584475D01*
X93146602Y-110321550D01*
X92639488Y-110069646D01*
X92214179Y-109841538D01*
X91899478Y-109650005D01*
X91763017Y-109546869D01*
X91398452Y-109153839D01*
X91185405Y-108750417D01*
X91107526Y-108304018D01*
X91106476Y-108238785D01*
X91108991Y-108082622D01*
X91118137Y-107916529D01*
X91136428Y-107727898D01*
X91166379Y-107504118D01*
X91210502Y-107232581D01*
X91271313Y-106900677D01*
X91351325Y-106495797D01*
X91453052Y-106005332D01*
X91579009Y-105416672D01*
X91731710Y-104717207D01*
X91913668Y-103894330D01*
X92127398Y-102935430D01*
X92375413Y-101827898D01*
X92458825Y-101456100D01*
X92860393Y-99669164D01*
X93227904Y-98039623D01*
X93563415Y-96559436D01*
X93868983Y-95220559D01*
X94146666Y-94014950D01*
X94398521Y-92934568D01*
X94626605Y-91971369D01*
X94832976Y-91117312D01*
X95019689Y-90364355D01*
X95188804Y-89704454D01*
X95342376Y-89129568D01*
X95482463Y-88631655D01*
X95611123Y-88202673D01*
X95730412Y-87834578D01*
X95842387Y-87519330D01*
X95949107Y-87248884D01*
X96052628Y-87015201D01*
X96155007Y-86810236D01*
X96247804Y-86643792D01*
X96585819Y-86141111D01*
X96994916Y-85649333D01*
X97436419Y-85208573D01*
X97871651Y-84858942D01*
X98111676Y-84710666D01*
X98552962Y-84508526D01*
X99008090Y-84374836D01*
X99513543Y-84304706D01*
X100105804Y-84293243D01*
X100821355Y-84335556D01*
X100874705Y-84340202D01*
X101356524Y-84389377D01*
X101974568Y-84462541D01*
X102698124Y-84555312D01*
X103496479Y-84663308D01*
X104338919Y-84782144D01*
X105194730Y-84907440D01*
X106033199Y-85034813D01*
X106823611Y-85159879D01*
X107535254Y-85278258D01*
X107912693Y-85344438D01*
X108658285Y-85464000D01*
X109325487Y-85534846D01*
X109968237Y-85557959D01*
X110640469Y-85534317D01*
X111396121Y-85464901D01*
X111807360Y-85415220D01*
X112475669Y-85320086D01*
X122460839Y-85320086D01*
X122469197Y-86368322D01*
X122550799Y-87463651D01*
X122698522Y-88534453D01*
X122901766Y-89610286D01*
X123132634Y-90561143D01*
X123407505Y-91431007D01*
X123742762Y-92263859D01*
X124154784Y-93103685D01*
X124659951Y-93994466D01*
X124846175Y-94301071D01*
X125383551Y-95136188D01*
X125887071Y-95832597D01*
X126377727Y-96411795D01*
X126876511Y-96895278D01*
X127404412Y-97304545D01*
X127982423Y-97661091D01*
X128280586Y-97818187D01*
X128887743Y-98098980D01*
X129410803Y-98280861D01*
X129894420Y-98374902D01*
X130383248Y-98392177D01*
X130556813Y-98382662D01*
X131192495Y-98295036D01*
X131730899Y-98122914D01*
X132196906Y-97848643D01*
X132615394Y-97454567D01*
X133011244Y-96923033D01*
X133302139Y-96434598D01*
X133548514Y-96012343D01*
X133755627Y-95724808D01*
X133950151Y-95550742D01*
X134158757Y-95468894D01*
X134408117Y-95458014D01*
X134515703Y-95467681D01*
X134808949Y-95528295D01*
X134994635Y-95651088D01*
X135094731Y-95867310D01*
X135131204Y-96208208D01*
X135133027Y-96345781D01*
X135181978Y-97098567D01*
X135332756Y-97720371D01*
X135591242Y-98219744D01*
X135963321Y-98605236D01*
X136454875Y-98885396D01*
X136995693Y-99052652D01*
X137250276Y-99109905D01*
X137423411Y-99150369D01*
X137470970Y-99163004D01*
X137551780Y-99152589D01*
X137749861Y-99118263D01*
X137934659Y-99083986D01*
X138445910Y-98922851D01*
X138862400Y-98660646D01*
X139154355Y-98316987D01*
X139185459Y-98259839D01*
X139281371Y-98020056D01*
X139385075Y-97681675D01*
X139475905Y-97313023D01*
X139485163Y-97269001D01*
X139672414Y-96545843D01*
X139899368Y-95985114D01*
X140160275Y-95587622D01*
X140449389Y-95354179D01*
X140760959Y-95285594D01*
X141089239Y-95382676D01*
X141428479Y-95646237D01*
X141772932Y-96077085D01*
X142116849Y-96676031D01*
X142216970Y-96884100D01*
X142519357Y-97443608D01*
X142840605Y-97845618D01*
X143194593Y-98101890D01*
X143595202Y-98224184D01*
X143815701Y-98238767D01*
X144204510Y-98200025D01*
X144694413Y-98093022D01*
X145238400Y-97931591D01*
X145789462Y-97729565D01*
X146266918Y-97517461D01*
X146988876Y-97114193D01*
X147684960Y-96622249D01*
X148367713Y-96028835D01*
X149049679Y-95321156D01*
X149743403Y-94486420D01*
X150461427Y-93511831D01*
X151053951Y-92634831D01*
X151638669Y-91700825D01*
X152112353Y-90849670D01*
X152488771Y-90049771D01*
X152781694Y-89269532D01*
X153004890Y-88477361D01*
X153133583Y-87863144D01*
X153189792Y-87451440D01*
X153234473Y-86915432D01*
X153267569Y-86286158D01*
X153289028Y-85594656D01*
X153298793Y-84871965D01*
X153296812Y-84149121D01*
X153283029Y-83457163D01*
X153257390Y-82827129D01*
X153219840Y-82290056D01*
X153170326Y-81876983D01*
X153144322Y-81740688D01*
X152964750Y-81145517D01*
X152727687Y-80662501D01*
X152444899Y-80303015D01*
X152128149Y-80078434D01*
X151789200Y-80000133D01*
X151439818Y-80079485D01*
X151430661Y-80083773D01*
X151136433Y-80300642D01*
X150891334Y-80653871D01*
X150689632Y-81153939D01*
X150549622Y-81694785D01*
X150408704Y-82286221D01*
X150265925Y-82734227D01*
X150110615Y-83064479D01*
X149932103Y-83302650D01*
X149849211Y-83380082D01*
X149613742Y-83539530D01*
X149384251Y-83598306D01*
X149137123Y-83548873D01*
X148848745Y-83383696D01*
X148495504Y-83095237D01*
X148254314Y-82871074D01*
X147808177Y-82473863D01*
X147367119Y-82135374D01*
X146957891Y-81872794D01*
X146607240Y-81703311D01*
X146344730Y-81644100D01*
X146047604Y-81718217D01*
X145746952Y-81915888D01*
X145493000Y-82200092D01*
X145416514Y-82328226D01*
X145334331Y-82536526D01*
X145243111Y-82841710D01*
X145170254Y-83143641D01*
X144998983Y-83824743D01*
X144803491Y-84350788D01*
X144576032Y-84735251D01*
X144308855Y-84991606D01*
X144032076Y-85122725D01*
X143777446Y-85178043D01*
X143568695Y-85161894D01*
X143385953Y-85056561D01*
X143209352Y-84844326D01*
X143019022Y-84507474D01*
X142795095Y-84028287D01*
X142788792Y-84014101D01*
X142600247Y-83612586D01*
X142408688Y-83244303D01*
X142236863Y-82950756D01*
X142110467Y-82776573D01*
X141795120Y-82553195D01*
X141396069Y-82435646D01*
X140962948Y-82425374D01*
X140545390Y-82523826D01*
X140206376Y-82721022D01*
X140040373Y-82883859D01*
X139888611Y-83091713D01*
X139734595Y-83374499D01*
X139561827Y-83762135D01*
X139376260Y-84226433D01*
X139160811Y-84747023D01*
X138970556Y-85123435D01*
X138792738Y-85376515D01*
X138614605Y-85527113D01*
X138564728Y-85552941D01*
X138423830Y-85597179D01*
X138298640Y-85576406D01*
X138171521Y-85471754D01*
X138024837Y-85264357D01*
X137840950Y-84935348D01*
X137663973Y-84589391D01*
X137307723Y-83945491D01*
X136954998Y-83452373D01*
X136588308Y-83092795D01*
X136190165Y-82849515D01*
X135755631Y-82707965D01*
X135399924Y-82712242D01*
X135043994Y-82857172D01*
X134736386Y-83121248D01*
X134689515Y-83180283D01*
X134558612Y-83379966D01*
X134381559Y-83682153D01*
X134186792Y-84037324D01*
X134081708Y-84238710D01*
X133879311Y-84606866D01*
X133664818Y-84952231D01*
X133471394Y-85223096D01*
X133389304Y-85318210D01*
X133175708Y-85511332D01*
X132981974Y-85601206D01*
X132731031Y-85623432D01*
X132728472Y-85623433D01*
X132309934Y-85542735D01*
X131920457Y-85315670D01*
X131645540Y-85028029D01*
X131556260Y-84839953D01*
X131459135Y-84522087D01*
X131365163Y-84112923D01*
X131328293Y-83917535D01*
X131228662Y-83401872D01*
X131129108Y-83023461D01*
X131013018Y-82751043D01*
X130863777Y-82553361D01*
X130664771Y-82399158D01*
X130462083Y-82287843D01*
X129994634Y-82112130D01*
X129581037Y-82085680D01*
X129196203Y-82207945D01*
X129106953Y-82258367D01*
X128833457Y-82456521D01*
X128605543Y-82703493D01*
X128387335Y-83043066D01*
X128246932Y-83307914D01*
X127973605Y-83737038D01*
X127670443Y-84000274D01*
X127336242Y-84098628D01*
X127301360Y-84099433D01*
X127005105Y-84047797D01*
X126748510Y-83884417D01*
X126522969Y-83596583D01*
X126319875Y-83171586D01*
X126130622Y-82596717D01*
X126032784Y-82226105D01*
X125866495Y-81652712D01*
X125681550Y-81225346D01*
X125463262Y-80920744D01*
X125196945Y-80715647D01*
X125030844Y-80639162D01*
X124624718Y-80564060D01*
X124225880Y-80654139D01*
X123826012Y-80911319D01*
X123816697Y-80919249D01*
X123435133Y-81347566D01*
X123112659Y-81919365D01*
X122851634Y-82618582D01*
X122654416Y-83429151D01*
X122523365Y-84335007D01*
X122460839Y-85320086D01*
X112475669Y-85320086D01*
X112682575Y-85290633D01*
X113414349Y-85154406D01*
X114028569Y-84996398D01*
X114551119Y-84806466D01*
X115007886Y-84574470D01*
X115424755Y-84290266D01*
X115827613Y-83943713D01*
X116005557Y-83770415D01*
X116312719Y-83446825D01*
X116582015Y-83123662D01*
X116821400Y-82782338D01*
X117038827Y-82404265D01*
X117242246Y-81970857D01*
X117439613Y-81463524D01*
X117638878Y-80863681D01*
X117847996Y-80152739D01*
X118074918Y-79312110D01*
X118315447Y-78371612D01*
X118607646Y-77229187D01*
X118875379Y-76230809D01*
X119126123Y-75354230D01*
X119131083Y-75338252D01*
X124996879Y-75338252D01*
X125026704Y-76059588D01*
X125035053Y-76111000D01*
X125238287Y-76846659D01*
X125579854Y-77560960D01*
X126035137Y-78219197D01*
X126579520Y-78786663D01*
X127188385Y-79228650D01*
X127284480Y-79282371D01*
X127605931Y-79438277D01*
X127904562Y-79535341D01*
X128253563Y-79593326D01*
X128529027Y-79618448D01*
X128929957Y-79637449D01*
X129467519Y-79646449D01*
X130109342Y-79646043D01*
X130823056Y-79636826D01*
X131576292Y-79619395D01*
X132336679Y-79594345D01*
X133071847Y-79562271D01*
X133749426Y-79523769D01*
X133778360Y-79521874D01*
X134400274Y-79470910D01*
X134865600Y-79402343D01*
X135187012Y-79303352D01*
X135377188Y-79161120D01*
X135448803Y-78962828D01*
X135414535Y-78695657D01*
X135374042Y-78584837D01*
X138451578Y-78584837D01*
X138469645Y-78781926D01*
X138574486Y-78944275D01*
X138625527Y-78994246D01*
X138788611Y-79118015D01*
X138992514Y-79221088D01*
X139252333Y-79305070D01*
X139583162Y-79371564D01*
X140000099Y-79422174D01*
X140518237Y-79458506D01*
X141152674Y-79482163D01*
X141918504Y-79494749D01*
X142830824Y-79497869D01*
X143350416Y-79496364D01*
X145852805Y-79485100D01*
X146509441Y-79160409D01*
X147202944Y-78731089D01*
X147794503Y-78190444D01*
X148273695Y-77560228D01*
X148630098Y-76862193D01*
X148853288Y-76118092D01*
X148932843Y-75349679D01*
X148858338Y-74578707D01*
X148807937Y-74363407D01*
X148507543Y-73546384D01*
X148071367Y-72816111D01*
X147514024Y-72187543D01*
X146850127Y-71675632D01*
X146094292Y-71295332D01*
X145672583Y-71155331D01*
X145103596Y-71066720D01*
X144541856Y-71123766D01*
X143976545Y-71330879D01*
X143396846Y-71692469D01*
X142791940Y-72212945D01*
X142595077Y-72409855D01*
X142210323Y-72834507D01*
X141768542Y-73368438D01*
X141289773Y-73983296D01*
X140794054Y-74650729D01*
X140301425Y-75342386D01*
X139831925Y-76029914D01*
X139405593Y-76684964D01*
X139042467Y-77279182D01*
X138762587Y-77784217D01*
X138683662Y-77943816D01*
X138522259Y-78317352D01*
X138451578Y-78584837D01*
X135374042Y-78584837D01*
X135287058Y-78346788D01*
X135177715Y-78106811D01*
X134825650Y-77422627D01*
X134400924Y-76691192D01*
X133919678Y-75933623D01*
X133398052Y-75171042D01*
X132852189Y-74424568D01*
X132298229Y-73715322D01*
X131752313Y-73064422D01*
X131230582Y-72492990D01*
X130749179Y-72022145D01*
X130324242Y-71673007D01*
X130192514Y-71583894D01*
X129662483Y-71347573D01*
X129062943Y-71254783D01*
X128413417Y-71305015D01*
X127733430Y-71497762D01*
X127367751Y-71657336D01*
X126744021Y-72050659D01*
X126191734Y-72570215D01*
X125725883Y-73187378D01*
X125361461Y-73873522D01*
X125113462Y-74600022D01*
X124996879Y-75338252D01*
X119131083Y-75338252D01*
X119367354Y-74577204D01*
X119606550Y-73877485D01*
X119851188Y-73232826D01*
X120108745Y-72620979D01*
X120386697Y-72019699D01*
X120586163Y-71615432D01*
X121475376Y-70012205D01*
X122478719Y-68494648D01*
X123583522Y-67077521D01*
X124777116Y-65775584D01*
X126046830Y-64603595D01*
X127379994Y-63576314D01*
X127640027Y-63398303D01*
X128204719Y-63045800D01*
X128878170Y-62667424D01*
X129610109Y-62288318D01*
X130350262Y-61933624D01*
X131048359Y-61628484D01*
X131607291Y-61414164D01*
X133280348Y-60916984D01*
X134954815Y-60588755D01*
X136626941Y-60429272D01*
X138292976Y-60438328D01*
G36*
X138292976Y-60438328D02*
G01*
X139949168Y-60615718D01*
X141591766Y-60961234D01*
X143217019Y-61474671D01*
X144785027Y-62138504D01*
X146286892Y-62949399D01*
X147715824Y-63909946D01*
X149066284Y-65014453D01*
X150332732Y-66257228D01*
X151509630Y-67632579D01*
X152591441Y-69134816D01*
X153572625Y-70758246D01*
X154043740Y-71653433D01*
X154336339Y-72258316D01*
X154605122Y-72862405D01*
X154857602Y-73487948D01*
X155101289Y-74157193D01*
X155343696Y-74892389D01*
X155592336Y-75715783D01*
X155854720Y-76649625D01*
X156138361Y-77716161D01*
X156291987Y-78311957D01*
X156555525Y-79322527D01*
X156793570Y-80184740D01*
X157013780Y-80916296D01*
X157223814Y-81534895D01*
X157431331Y-82058236D01*
X157643989Y-82504018D01*
X157869445Y-82889942D01*
X158115360Y-83233707D01*
X158389390Y-83553013D01*
X158691996Y-83858684D01*
X159391562Y-84414256D01*
X160172693Y-84826238D01*
X160617693Y-84983799D01*
X161044518Y-85090238D01*
X161596247Y-85197284D01*
X162228598Y-85298515D01*
X162897290Y-85387508D01*
X163558039Y-85457842D01*
X164166562Y-85503094D01*
X164216027Y-85505656D01*
X164551168Y-85519581D01*
X164849310Y-85523250D01*
X165141085Y-85513748D01*
X165457128Y-85488162D01*
X165828072Y-85443576D01*
X166284551Y-85377078D01*
X166857199Y-85285753D01*
X167306360Y-85211675D01*
X168515942Y-85012987D01*
X169575376Y-84844030D01*
X170500841Y-84702773D01*
X171308517Y-84587187D01*
X172014584Y-84495241D01*
X172635221Y-84424905D01*
X173186609Y-84374148D01*
X173684926Y-84340940D01*
X174146352Y-84323250D01*
X174418360Y-84319202D01*
X174917968Y-84317106D01*
X175283674Y-84321197D01*
X175550903Y-84336329D01*
X175755080Y-84367357D01*
X175931630Y-84419133D01*
X176115979Y-84496514D01*
X176281027Y-84574443D01*
X176958800Y-84989360D01*
X177583424Y-85554958D01*
X178141889Y-86257415D01*
X178598279Y-87036882D01*
X178693699Y-87248083D01*
X178799050Y-87523811D01*
X178916126Y-87871277D01*
X179046717Y-88297689D01*
X179192618Y-88810256D01*
X179355621Y-89416188D01*
X179537518Y-90122692D01*
X179740103Y-90936980D01*
X179965169Y-91866258D01*
X180214507Y-92917737D01*
X180489912Y-94098626D01*
X180793175Y-95416134D01*
X181126089Y-96877469D01*
X181490448Y-98489842D01*
X181888043Y-100260460D01*
X181899832Y-100313100D01*
X182177911Y-101555950D01*
X182421117Y-102645524D01*
X182631986Y-103593697D01*
X182813055Y-104412342D01*
X182966860Y-105113334D01*
X183095940Y-105708545D01*
X183202829Y-106209850D01*
X183290066Y-106629124D01*
X183360186Y-106978238D01*
X183415726Y-107269068D01*
X183459224Y-107513488D01*
X183493215Y-107723370D01*
X183515336Y-107874872D01*
X183528494Y-108282510D01*
X183443606Y-108661615D01*
X183251135Y-109020866D01*
X182941545Y-109368938D01*
X182505298Y-109714511D01*
X181932856Y-110066260D01*
X181214684Y-110432864D01*
X180341243Y-110823000D01*
X180218027Y-110874963D01*
X179722205Y-111076889D01*
X179228963Y-111267137D01*
X178768306Y-111435157D01*
X178370234Y-111570396D01*
X178064753Y-111662303D01*
X177881863Y-111700325D01*
X177869928Y-111700767D01*
X177705264Y-111656853D01*
X177512489Y-111520317D01*
X177286976Y-111283968D01*
X177024101Y-110940614D01*
X176719239Y-110483065D01*
X176367763Y-109904128D01*
X175965048Y-109196614D01*
X175506469Y-108353329D01*
X174987401Y-107367084D01*
X174602470Y-106620767D01*
X173611729Y-104635761D01*
X172714632Y-102728039D01*
X171889568Y-100850823D01*
X171461193Y-99820628D01*
X171251001Y-99308770D01*
X171054835Y-98838003D01*
X170884185Y-98435362D01*
X170750544Y-98127881D01*
X170665402Y-97942595D01*
X170651451Y-97915628D01*
X170575858Y-97786121D01*
X170546252Y-97776954D01*
X170553441Y-97906164D01*
X170573060Y-98069433D01*
X170621856Y-98425686D01*
X170685751Y-98824826D01*
X170767220Y-99278011D01*
X170868742Y-99796394D01*
X170992791Y-100391131D01*
X171141844Y-101073378D01*
X171318378Y-101854290D01*
X171524869Y-102745021D01*
X171763794Y-103756727D01*
X172037628Y-104900564D01*
X172348849Y-106187686D01*
X172648587Y-107418942D01*
X172943851Y-108631384D01*
X173200886Y-109692959D01*
X173422738Y-110617025D01*
X173612457Y-111416941D01*
X173773090Y-112106064D01*
X173907686Y-112697753D01*
X174019292Y-113205367D01*
X174110956Y-113642263D01*
X174185728Y-114021800D01*
X174246654Y-114357336D01*
X174286601Y-114597577D01*
X174355959Y-114987604D01*
X174454955Y-115484923D01*
X174571735Y-116032654D01*
X174694447Y-116573917D01*
X174727699Y-116714244D01*
X174916496Y-117591930D01*
X175028118Y-118337921D01*
X175062978Y-118971034D01*
X175021486Y-119510085D01*
X174904057Y-119973891D01*
X174804302Y-120209767D01*
X174437134Y-120797766D01*
X173950718Y-121298285D01*
X173335165Y-121718161D01*
X172580585Y-122064237D01*
X171744697Y-122326031D01*
X171193418Y-122456864D01*
X170763059Y-122518682D01*
X170416037Y-122502061D01*
X170114770Y-122397575D01*
X169821676Y-122195800D01*
X169499172Y-121887309D01*
X169346854Y-121724679D01*
X168619841Y-120879143D01*
X167873114Y-119909686D01*
X167128845Y-118851509D01*
X166409206Y-117739816D01*
X165736371Y-116609810D01*
X165132513Y-115496695D01*
X164619805Y-114435675D01*
X164339766Y-113775100D01*
X164033892Y-112971059D01*
X163702868Y-112044227D01*
X163360402Y-111036627D01*
X163020202Y-109990281D01*
X162695979Y-108947212D01*
X162401439Y-107949443D01*
X162185397Y-107171100D01*
X161914347Y-106166319D01*
X161682170Y-105322511D01*
X161487768Y-104636101D01*
X161330045Y-104103513D01*
X161207904Y-103721171D01*
X161120248Y-103485501D01*
X161065979Y-103392926D01*
X161044001Y-103439872D01*
X161043601Y-103449665D01*
X161052368Y-103596140D01*
X161080433Y-103884556D01*
X161124608Y-104289024D01*
X161181705Y-104783652D01*
X161248536Y-105342548D01*
X161321915Y-105939821D01*
X161398652Y-106549580D01*
X161475562Y-107145933D01*
X161549456Y-107702988D01*
X161617146Y-108194856D01*
X161675446Y-108595643D01*
X161684180Y-108652767D01*
X161935881Y-110186545D01*
X162234905Y-111841313D01*
X162573078Y-113578077D01*
X162942226Y-115357844D01*
X163334176Y-117141624D01*
X163740752Y-118890423D01*
X164153782Y-120565249D01*
X164302096Y-121141100D01*
X164623280Y-122374876D01*
X164903599Y-123456871D01*
X165145639Y-124398964D01*
X165351990Y-125213038D01*
X165525239Y-125910972D01*
X165667974Y-126504648D01*
X165782782Y-127005947D01*
X165872253Y-127426750D01*
X165938974Y-127778938D01*
X165985533Y-128074392D01*
X166014518Y-128324992D01*
X166028516Y-128542620D01*
X166030117Y-128739156D01*
X166021907Y-128926482D01*
X166015875Y-129008778D01*
X165890562Y-129617951D01*
X165610110Y-130208553D01*
X165167665Y-130794914D01*
X165154936Y-130809123D01*
X164571652Y-131346194D01*
X163930661Y-131724070D01*
X163231927Y-131942766D01*
X162475411Y-132002296D01*
X162237871Y-131989177D01*
X161796544Y-131922519D01*
X161272526Y-131798144D01*
X160717401Y-131632665D01*
X160182753Y-131442694D01*
X159720167Y-131244844D01*
X159420611Y-131081894D01*
X159085904Y-130827962D01*
X158689226Y-130464801D01*
X158260915Y-130025137D01*
X157831311Y-129541701D01*
X157430754Y-129047219D01*
X157089584Y-128574420D01*
X157072972Y-128549433D01*
X156656183Y-127869372D01*
X156205321Y-127041390D01*
X155727636Y-126081782D01*
X155230376Y-125006840D01*
X154720789Y-123832860D01*
X154206125Y-122576135D01*
X153693632Y-121252959D01*
X153190559Y-119879625D01*
X153091583Y-119600005D01*
X152847490Y-118895813D01*
X152629135Y-118239469D01*
X152431027Y-117609088D01*
X152247676Y-116982791D01*
X152073592Y-116338695D01*
X151903285Y-115654919D01*
X151731264Y-114909580D01*
X151552039Y-114080798D01*
X151360120Y-113146691D01*
X151150017Y-112085376D01*
X150960942Y-111108100D01*
X150826720Y-110416514D01*
X150718552Y-109878162D01*
X150633064Y-109479520D01*
X150566879Y-109207065D01*
X150516622Y-109047275D01*
X150478916Y-108986627D01*
X150450386Y-109011598D01*
X150443111Y-109033767D01*
X150419881Y-109228709D01*
X150412697Y-109575186D01*
X150420446Y-110056268D01*
X150442017Y-110655028D01*
X150476300Y-111354539D01*
X150522181Y-112137871D01*
X150578550Y-112988098D01*
X150644296Y-113888290D01*
X150718307Y-114821521D01*
X150799470Y-115770862D01*
X150886676Y-116719384D01*
X150978813Y-117650161D01*
X151057390Y-118389433D01*
X151150768Y-119189533D01*
X151268188Y-120116773D01*
X151405544Y-121143785D01*
X151558727Y-122243202D01*
X151723627Y-123387657D01*
X151896137Y-124549782D01*
X152072148Y-125702209D01*
X152247552Y-126817571D01*
X152418239Y-127868501D01*
X152580102Y-128827631D01*
X152729031Y-129667594D01*
X152834652Y-130227950D01*
X152952698Y-130849460D01*
X153071836Y-131506732D01*
X153183136Y-132148383D01*
X153277671Y-132723030D01*
X153342417Y-133150170D01*
X153429368Y-133748607D01*
X153505539Y-134223548D01*
X153580726Y-134619572D01*
X153664725Y-134981263D01*
X153767332Y-135353200D01*
X153898342Y-135779967D01*
X153968634Y-136000100D01*
X154243564Y-136932857D01*
X154422752Y-137740840D01*
X154503152Y-138440984D01*
X154481717Y-139050227D01*
X154355398Y-139585503D01*
X154121149Y-140063748D01*
X153775922Y-140501898D01*
X153316670Y-140916890D01*
X153047765Y-141117852D01*
X152360384Y-141554056D01*
X151586215Y-141945605D01*
X150711896Y-142296710D01*
X149724060Y-142611585D01*
X148609344Y-142894443D01*
X147354382Y-143149497D01*
X145945809Y-143380960D01*
X145801027Y-143402238D01*
X145211961Y-143483329D01*
X144579367Y-143562596D01*
X143964002Y-143632915D01*
X143426625Y-143687161D01*
X143218693Y-143705045D01*
X142834755Y-143728176D01*
X142303889Y-143749477D01*
X141648495Y-143768774D01*
X140890972Y-143785893D01*
X140053716Y-143800659D01*
X139159128Y-143812899D01*
X138229605Y-143822439D01*
X137287545Y-143829105D01*
X136355348Y-143832722D01*
X135455411Y-143833117D01*
X134610133Y-143830116D01*
X133841913Y-143823545D01*
X133173148Y-143813229D01*
X132626238Y-143798995D01*
X132381360Y-143789239D01*
X131788913Y-143759327D01*
X131279356Y-143727796D01*
X130812425Y-143690448D01*
X130347854Y-143643086D01*
X129845377Y-143581513D01*
X129264730Y-143501531D01*
X128565647Y-143398945D01*
X128402027Y-143374437D01*
X126935360Y-143125940D01*
X125626565Y-142843290D01*
X124467033Y-142523288D01*
X123448156Y-142162735D01*
X122561325Y-141758433D01*
X121797932Y-141307182D01*
X121149367Y-140805783D01*
X120926036Y-140596294D01*
X120580920Y-140202695D01*
X120328801Y-139786968D01*
X120168560Y-139330876D01*
X120099080Y-138816180D01*
X120119243Y-138224642D01*
X120227933Y-137538024D01*
X120424030Y-136738087D01*
X120644419Y-136000100D01*
X120800563Y-135496017D01*
X120922308Y-135069231D01*
X121019917Y-134672869D01*
X121103656Y-134260056D01*
X121183789Y-133783918D01*
X121270581Y-133197579D01*
X121293330Y-133036767D01*
X121351196Y-132657697D01*
X121434809Y-132153627D01*
X121536984Y-131565653D01*
X121650538Y-130934876D01*
X121768289Y-130302394D01*
X121803875Y-130115767D01*
X121992892Y-129088836D01*
X122193213Y-127924719D01*
X122400287Y-126654821D01*
X122609566Y-125310544D01*
X122816501Y-123923294D01*
X123016541Y-122524473D01*
X123205138Y-121145486D01*
X123377742Y-119817736D01*
X123529804Y-118572628D01*
X123656775Y-117441565D01*
X123698850Y-117034767D01*
X123783256Y-116159093D01*
X123862306Y-115269696D01*
X123935161Y-114381862D01*
X124000984Y-113510876D01*
X124058939Y-112672022D01*
X124108187Y-111880588D01*
X124147892Y-111151856D01*
X124177216Y-110501114D01*
X124195322Y-109943646D01*
X124201373Y-109494738D01*
X124194532Y-109169675D01*
X124173960Y-108983743D01*
X124141758Y-108949100D01*
X124103367Y-109050987D01*
X124038807Y-109297885D01*
X123952840Y-109668319D01*
X123850226Y-110140816D01*
X123735725Y-110693901D01*
X123614098Y-111306101D01*
X123578660Y-111489100D01*
X123347256Y-112678521D01*
X123136949Y-113726166D01*
X122940795Y-114657254D01*
X122751852Y-115497005D01*
X122563173Y-116270637D01*
X122367816Y-117003369D01*
X122158837Y-117720422D01*
X121929291Y-118447013D01*
X121672233Y-119208363D01*
X121380721Y-120029691D01*
X121047810Y-120936215D01*
X120781110Y-121649100D01*
X120175538Y-123209225D01*
X119591308Y-124610477D01*
X119023966Y-125861342D01*
X118469058Y-126970304D01*
X117922132Y-127945848D01*
X117378734Y-128796459D01*
X116834410Y-129530620D01*
X116353664Y-130084373D01*
X115781073Y-130640247D01*
X115214256Y-131069993D01*
X114601655Y-131406816D01*
X113891713Y-131683920D01*
X113847160Y-131698632D01*
X113428056Y-131829233D01*
X113091305Y-131911857D01*
X112769038Y-131957129D01*
X112393387Y-131975670D01*
X112059580Y-131978433D01*
X111639222Y-131975324D01*
X111338554Y-131959878D01*
X111107961Y-131922912D01*
X110897830Y-131855245D01*
X110658546Y-131747698D01*
X110564478Y-131701768D01*
X110021041Y-131357075D01*
X109508939Y-130889295D01*
X109072881Y-130344145D01*
X108831058Y-129929296D01*
X108707923Y-129656137D01*
X108636494Y-129417166D01*
X108604475Y-129147846D01*
X108599566Y-128783640D01*
X108600380Y-128718767D01*
X108622607Y-128309221D01*
X108680409Y-127827960D01*
X108776803Y-127260526D01*
X108914806Y-126592462D01*
X109097436Y-125809314D01*
X109327709Y-124896625D01*
X109608644Y-123839938D01*
X109651804Y-123681100D01*
X110259341Y-121384605D01*
X110827896Y-119102579D01*
X111353316Y-116854884D01*
X111831444Y-114661382D01*
X112258127Y-112541935D01*
X112629209Y-110516406D01*
X112940534Y-108604657D01*
X113187949Y-106826550D01*
X113203034Y-106705433D01*
X113315271Y-105791578D01*
X113406497Y-105036765D01*
X113477703Y-104432139D01*
X113529878Y-103968846D01*
X113564011Y-103638029D01*
X113581093Y-103430834D01*
X113582113Y-103338404D01*
X113580030Y-103332256D01*
X113541605Y-103390054D01*
X113465299Y-103594533D01*
X113356247Y-103928594D01*
X113219580Y-104375140D01*
X113060433Y-104917072D01*
X112883937Y-105537292D01*
X112695227Y-106218701D01*
X112529268Y-106832433D01*
X112186372Y-108067832D01*
X111821537Y-109296372D01*
X111442190Y-110496949D01*
X111055754Y-111648458D01*
X110669655Y-112729795D01*
X110291319Y-113719855D01*
X109928170Y-114597534D01*
X109587632Y-115341727D01*
X109417285Y-115677776D01*
X109015400Y-116407091D01*
X108569377Y-117164680D01*
X108091758Y-117933030D01*
X107595079Y-118694628D01*
X107091881Y-119431963D01*
X106594702Y-120127520D01*
X106116082Y-120763788D01*
X105668559Y-121323255D01*
X105264672Y-121788406D01*
X104916961Y-122141730D01*
X104637963Y-122365715D01*
X104621296Y-122376119D01*
X104268364Y-122504915D01*
X103801376Y-122527659D01*
X103213796Y-122444173D01*
X102736331Y-122325019D01*
X101891472Y-122041378D01*
X101196272Y-121708671D01*
X100635496Y-121316342D01*
X100193907Y-120853836D01*
X99870950Y-120339905D01*
X99709445Y-119980725D01*
X99599332Y-119624704D01*
X99540956Y-119246529D01*
X99534661Y-118820886D01*
X99580792Y-118322461D01*
X99679693Y-117725942D01*
X99831708Y-117006015D01*
X99921607Y-116617796D01*
X100034517Y-116117039D01*
X100146846Y-115579690D01*
X100243954Y-115077813D01*
X100300065Y-114755129D01*
X100356497Y-114419847D01*
X100423541Y-114056139D01*
X100504456Y-113649642D01*
X100602502Y-113185991D01*
X100720939Y-112650820D01*
X100863027Y-112029767D01*
X101032027Y-111308467D01*
X101231197Y-110472554D01*
X101463799Y-109507665D01*
X101733092Y-108399436D01*
X101867530Y-107848433D01*
X102267446Y-106203543D01*
X102624610Y-104718456D01*
X102939864Y-103389348D01*
X103214049Y-102212396D01*
X103448007Y-101183776D01*
X103642578Y-100299666D01*
X103798604Y-99556242D01*
X103916927Y-98949680D01*
X103998388Y-98476158D01*
X104043829Y-98131852D01*
X104054091Y-97912939D01*
X104054087Y-97912853D01*
X104021223Y-97903327D01*
X103932020Y-98047892D01*
X103788688Y-98341750D01*
X103593437Y-98780100D01*
X103348478Y-99358146D01*
X103056019Y-100071088D01*
X103026611Y-100143767D01*
X102665336Y-101014136D01*
X102267605Y-101930544D01*
X101840811Y-102878693D01*
X101392351Y-103844289D01*
X100929620Y-104813036D01*
X100460012Y-105770640D01*
X99990924Y-106702804D01*
X99529750Y-107595234D01*
X99083886Y-108433635D01*
X98660727Y-109203711D01*
X98267668Y-109891167D01*
X97912105Y-110481707D01*
X97601432Y-110961036D01*
X97343045Y-111314860D01*
X97144340Y-111528883D01*
X97131382Y-111539427D01*
X96905543Y-111664077D01*
X96635438Y-111684566D01*
X96567360Y-111677953D01*
X96294135Y-111617219D01*
X95901084Y-111490843D01*
X95417013Y-111311605D01*
X94870725Y-111092279D01*
X94291024Y-110845644D01*
X93706715Y-110584475D01*
X93146602Y-110321550D01*
X92639488Y-110069646D01*
X92214179Y-109841538D01*
X91899478Y-109650005D01*
X91763017Y-109546869D01*
X91398452Y-109153839D01*
X91185405Y-108750417D01*
X91107526Y-108304018D01*
X91106476Y-108238785D01*
X91108991Y-108082622D01*
X91118137Y-107916529D01*
X91136428Y-107727898D01*
X91166379Y-107504118D01*
X91210502Y-107232581D01*
X91271313Y-106900677D01*
X91351325Y-106495797D01*
X91453052Y-106005332D01*
X91579009Y-105416672D01*
X91731710Y-104717207D01*
X91913668Y-103894330D01*
X92127398Y-102935430D01*
X92375413Y-101827898D01*
X92458825Y-101456100D01*
X92860393Y-99669164D01*
X93227904Y-98039623D01*
X93563415Y-96559436D01*
X93868983Y-95220559D01*
X94146666Y-94014950D01*
X94398521Y-92934568D01*
X94626605Y-91971369D01*
X94832976Y-91117312D01*
X95019689Y-90364355D01*
X95188804Y-89704454D01*
X95342376Y-89129568D01*
X95482463Y-88631655D01*
X95611123Y-88202673D01*
X95730412Y-87834578D01*
X95842387Y-87519330D01*
X95949107Y-87248884D01*
X96052628Y-87015201D01*
X96155007Y-86810236D01*
X96247804Y-86643792D01*
X96585819Y-86141111D01*
X96994916Y-85649333D01*
X97436419Y-85208573D01*
X97871651Y-84858942D01*
X98111676Y-84710666D01*
X98552962Y-84508526D01*
X99008090Y-84374836D01*
X99513543Y-84304706D01*
X100105804Y-84293243D01*
X100821355Y-84335556D01*
X100874705Y-84340202D01*
X101356524Y-84389377D01*
X101974568Y-84462541D01*
X102698124Y-84555312D01*
X103496479Y-84663308D01*
X104338919Y-84782144D01*
X105194730Y-84907440D01*
X106033199Y-85034813D01*
X106823611Y-85159879D01*
X107535254Y-85278258D01*
X107912693Y-85344438D01*
X108658285Y-85464000D01*
X109325487Y-85534846D01*
X109968237Y-85557959D01*
X110640469Y-85534317D01*
X111396121Y-85464901D01*
X111807360Y-85415220D01*
X112475669Y-85320086D01*
X122460839Y-85320086D01*
X122469197Y-86368322D01*
X122550799Y-87463651D01*
X122698522Y-88534453D01*
X122901766Y-89610286D01*
X123132634Y-90561143D01*
X123407505Y-91431007D01*
X123742762Y-92263859D01*
X124154784Y-93103685D01*
X124659951Y-93994466D01*
X124846175Y-94301071D01*
X125383551Y-95136188D01*
X125887071Y-95832597D01*
X126377727Y-96411795D01*
X126876511Y-96895278D01*
X127404412Y-97304545D01*
X127982423Y-97661091D01*
X128280586Y-97818187D01*
X128887743Y-98098980D01*
X129410803Y-98280861D01*
X129894420Y-98374902D01*
X130383248Y-98392177D01*
X130556813Y-98382662D01*
X131192495Y-98295036D01*
X131730899Y-98122914D01*
X132196906Y-97848643D01*
X132615394Y-97454567D01*
X133011244Y-96923033D01*
X133302139Y-96434598D01*
X133548514Y-96012343D01*
X133755627Y-95724808D01*
X133950151Y-95550742D01*
X134158757Y-95468894D01*
X134408117Y-95458014D01*
X134515703Y-95467681D01*
X134808949Y-95528295D01*
X134994635Y-95651088D01*
X135094731Y-95867310D01*
X135131204Y-96208208D01*
X135133027Y-96345781D01*
X135181978Y-97098567D01*
X135332756Y-97720371D01*
X135591242Y-98219744D01*
X135963321Y-98605236D01*
X136454875Y-98885396D01*
X136995693Y-99052652D01*
X137250276Y-99109905D01*
X137423411Y-99150369D01*
X137470970Y-99163004D01*
X137551780Y-99152589D01*
X137749861Y-99118263D01*
X137934659Y-99083986D01*
X138445910Y-98922851D01*
X138862400Y-98660646D01*
X139154355Y-98316987D01*
X139185459Y-98259839D01*
X139281371Y-98020056D01*
X139385075Y-97681675D01*
X139475905Y-97313023D01*
X139485163Y-97269001D01*
X139672414Y-96545843D01*
X139899368Y-95985114D01*
X140160275Y-95587622D01*
X140449389Y-95354179D01*
X140760959Y-95285594D01*
X141089239Y-95382676D01*
X141428479Y-95646237D01*
X141772932Y-96077085D01*
X142116849Y-96676031D01*
X142216970Y-96884100D01*
X142519357Y-97443608D01*
X142840605Y-97845618D01*
X143194593Y-98101890D01*
X143595202Y-98224184D01*
X143815701Y-98238767D01*
X144204510Y-98200025D01*
X144694413Y-98093022D01*
X145238400Y-97931591D01*
X145789462Y-97729565D01*
X146266918Y-97517461D01*
X146988876Y-97114193D01*
X147684960Y-96622249D01*
X148367713Y-96028835D01*
X149049679Y-95321156D01*
X149743403Y-94486420D01*
X150461427Y-93511831D01*
X151053951Y-92634831D01*
X151638669Y-91700825D01*
X152112353Y-90849670D01*
X152488771Y-90049771D01*
X152781694Y-89269532D01*
X153004890Y-88477361D01*
X153133583Y-87863144D01*
X153189792Y-87451440D01*
X153234473Y-86915432D01*
X153267569Y-86286158D01*
X153289028Y-85594656D01*
X153298793Y-84871965D01*
X153296812Y-84149121D01*
X153283029Y-83457163D01*
X153257390Y-82827129D01*
X153219840Y-82290056D01*
X153170326Y-81876983D01*
X153144322Y-81740688D01*
X152964750Y-81145517D01*
X152727687Y-80662501D01*
X152444899Y-80303015D01*
X152128149Y-80078434D01*
X151789200Y-80000133D01*
X151439818Y-80079485D01*
X151430661Y-80083773D01*
X151136433Y-80300642D01*
X150891334Y-80653871D01*
X150689632Y-81153939D01*
X150549622Y-81694785D01*
X150408704Y-82286221D01*
X150265925Y-82734227D01*
X150110615Y-83064479D01*
X149932103Y-83302650D01*
X149849211Y-83380082D01*
X149613742Y-83539530D01*
X149384251Y-83598306D01*
X149137123Y-83548873D01*
X148848745Y-83383696D01*
X148495504Y-83095237D01*
X148254314Y-82871074D01*
X147808177Y-82473863D01*
X147367119Y-82135374D01*
X146957891Y-81872794D01*
X146607240Y-81703311D01*
X146344730Y-81644100D01*
X146047604Y-81718217D01*
X145746952Y-81915888D01*
X145493000Y-82200092D01*
X145416514Y-82328226D01*
X145334331Y-82536526D01*
X145243111Y-82841710D01*
X145170254Y-83143641D01*
X144998983Y-83824743D01*
X144803491Y-84350788D01*
X144576032Y-84735251D01*
X144308855Y-84991606D01*
X144032076Y-85122725D01*
X143777446Y-85178043D01*
X143568695Y-85161894D01*
X143385953Y-85056561D01*
X143209352Y-84844326D01*
X143019022Y-84507474D01*
X142795095Y-84028287D01*
X142788792Y-84014101D01*
X142600247Y-83612586D01*
X142408688Y-83244303D01*
X142236863Y-82950756D01*
X142110467Y-82776573D01*
X141795120Y-82553195D01*
X141396069Y-82435646D01*
X140962948Y-82425374D01*
X140545390Y-82523826D01*
X140206376Y-82721022D01*
X140040373Y-82883859D01*
X139888611Y-83091713D01*
X139734595Y-83374499D01*
X139561827Y-83762135D01*
X139376260Y-84226433D01*
X139160811Y-84747023D01*
X138970556Y-85123435D01*
X138792738Y-85376515D01*
X138614605Y-85527113D01*
X138564728Y-85552941D01*
X138423830Y-85597179D01*
X138298640Y-85576406D01*
X138171521Y-85471754D01*
X138024837Y-85264357D01*
X137840950Y-84935348D01*
X137663973Y-84589391D01*
X137307723Y-83945491D01*
X136954998Y-83452373D01*
X136588308Y-83092795D01*
X136190165Y-82849515D01*
X135755631Y-82707965D01*
X135399924Y-82712242D01*
X135043994Y-82857172D01*
X134736386Y-83121248D01*
X134689515Y-83180283D01*
X134558612Y-83379966D01*
X134381559Y-83682153D01*
X134186792Y-84037324D01*
X134081708Y-84238710D01*
X133879311Y-84606866D01*
X133664818Y-84952231D01*
X133471394Y-85223096D01*
X133389304Y-85318210D01*
X133175708Y-85511332D01*
X132981974Y-85601206D01*
X132731031Y-85623432D01*
X132728472Y-85623433D01*
X132309934Y-85542735D01*
X131920457Y-85315670D01*
X131645540Y-85028029D01*
X131556260Y-84839953D01*
X131459135Y-84522087D01*
X131365163Y-84112923D01*
X131328293Y-83917535D01*
X131228662Y-83401872D01*
X131129108Y-83023461D01*
X131013018Y-82751043D01*
X130863777Y-82553361D01*
X130664771Y-82399158D01*
X130462083Y-82287843D01*
X129994634Y-82112130D01*
X129581037Y-82085680D01*
X129196203Y-82207945D01*
X129106953Y-82258367D01*
X128833457Y-82456521D01*
X128605543Y-82703493D01*
X128387335Y-83043066D01*
X128246932Y-83307914D01*
X127973605Y-83737038D01*
X127670443Y-84000274D01*
X127336242Y-84098628D01*
X127301360Y-84099433D01*
X127005105Y-84047797D01*
X126748510Y-83884417D01*
X126522969Y-83596583D01*
X126319875Y-83171586D01*
X126130622Y-82596717D01*
X126032784Y-82226105D01*
X125866495Y-81652712D01*
X125681550Y-81225346D01*
X125463262Y-80920744D01*
X125196945Y-80715647D01*
X125030844Y-80639162D01*
X124624718Y-80564060D01*
X124225880Y-80654139D01*
X123826012Y-80911319D01*
X123816697Y-80919249D01*
X123435133Y-81347566D01*
X123112659Y-81919365D01*
X122851634Y-82618582D01*
X122654416Y-83429151D01*
X122523365Y-84335007D01*
X122460839Y-85320086D01*
X112475669Y-85320086D01*
X112682575Y-85290633D01*
X113414349Y-85154406D01*
X114028569Y-84996398D01*
X114551119Y-84806466D01*
X115007886Y-84574470D01*
X115424755Y-84290266D01*
X115827613Y-83943713D01*
X116005557Y-83770415D01*
X116312719Y-83446825D01*
X116582015Y-83123662D01*
X116821400Y-82782338D01*
X117038827Y-82404265D01*
X117242246Y-81970857D01*
X117439613Y-81463524D01*
X117638878Y-80863681D01*
X117847996Y-80152739D01*
X118074918Y-79312110D01*
X118315447Y-78371612D01*
X118607646Y-77229187D01*
X118875379Y-76230809D01*
X119126123Y-75354230D01*
X119131083Y-75338252D01*
X124996879Y-75338252D01*
X125026704Y-76059588D01*
X125035053Y-76111000D01*
X125238287Y-76846659D01*
X125579854Y-77560960D01*
X126035137Y-78219197D01*
X126579520Y-78786663D01*
X127188385Y-79228650D01*
X127284480Y-79282371D01*
X127605931Y-79438277D01*
X127904562Y-79535341D01*
X128253563Y-79593326D01*
X128529027Y-79618448D01*
X128929957Y-79637449D01*
X129467519Y-79646449D01*
X130109342Y-79646043D01*
X130823056Y-79636826D01*
X131576292Y-79619395D01*
X132336679Y-79594345D01*
X133071847Y-79562271D01*
X133749426Y-79523769D01*
X133778360Y-79521874D01*
X134400274Y-79470910D01*
X134865600Y-79402343D01*
X135187012Y-79303352D01*
X135377188Y-79161120D01*
X135448803Y-78962828D01*
X135414535Y-78695657D01*
X135374042Y-78584837D01*
X138451578Y-78584837D01*
X138469645Y-78781926D01*
X138574486Y-78944275D01*
X138625527Y-78994246D01*
X138788611Y-79118015D01*
X138992514Y-79221088D01*
X139252333Y-79305070D01*
X139583162Y-79371564D01*
X140000099Y-79422174D01*
X140518237Y-79458506D01*
X141152674Y-79482163D01*
X141918504Y-79494749D01*
X142830824Y-79497869D01*
X143350416Y-79496364D01*
X145852805Y-79485100D01*
X146509441Y-79160409D01*
X147202944Y-78731089D01*
X147794503Y-78190444D01*
X148273695Y-77560228D01*
X148630098Y-76862193D01*
X148853288Y-76118092D01*
X148932843Y-75349679D01*
X148858338Y-74578707D01*
X148807937Y-74363407D01*
X148507543Y-73546384D01*
X148071367Y-72816111D01*
X147514024Y-72187543D01*
X146850127Y-71675632D01*
X146094292Y-71295332D01*
X145672583Y-71155331D01*
X145103596Y-71066720D01*
X144541856Y-71123766D01*
X143976545Y-71330879D01*
X143396846Y-71692469D01*
X142791940Y-72212945D01*
X142595077Y-72409855D01*
X142210323Y-72834507D01*
X141768542Y-73368438D01*
X141289773Y-73983296D01*
X140794054Y-74650729D01*
X140301425Y-75342386D01*
X139831925Y-76029914D01*
X139405593Y-76684964D01*
X139042467Y-77279182D01*
X138762587Y-77784217D01*
X138683662Y-77943816D01*
X138522259Y-78317352D01*
X138451578Y-78584837D01*
X135374042Y-78584837D01*
X135287058Y-78346788D01*
X135177715Y-78106811D01*
X134825650Y-77422627D01*
X134400924Y-76691192D01*
X133919678Y-75933623D01*
X133398052Y-75171042D01*
X132852189Y-74424568D01*
X132298229Y-73715322D01*
X131752313Y-73064422D01*
X131230582Y-72492990D01*
X130749179Y-72022145D01*
X130324242Y-71673007D01*
X130192514Y-71583894D01*
X129662483Y-71347573D01*
X129062943Y-71254783D01*
X128413417Y-71305015D01*
X127733430Y-71497762D01*
X127367751Y-71657336D01*
X126744021Y-72050659D01*
X126191734Y-72570215D01*
X125725883Y-73187378D01*
X125361461Y-73873522D01*
X125113462Y-74600022D01*
X124996879Y-75338252D01*
X119131083Y-75338252D01*
X119367354Y-74577204D01*
X119606550Y-73877485D01*
X119851188Y-73232826D01*
X120108745Y-72620979D01*
X120386697Y-72019699D01*
X120586163Y-71615432D01*
X121475376Y-70012205D01*
X122478719Y-68494648D01*
X123583522Y-67077521D01*
X124777116Y-65775584D01*
X126046830Y-64603595D01*
X127379994Y-63576314D01*
X127640027Y-63398303D01*
X128204719Y-63045800D01*
X128878170Y-62667424D01*
X129610109Y-62288318D01*
X130350262Y-61933624D01*
X131048359Y-61628484D01*
X131607291Y-61414164D01*
X133280348Y-60916984D01*
X134954815Y-60588755D01*
X136626941Y-60429272D01*
X138292976Y-60438328D01*
G37*
%TD*%
M02*
