%TF.GenerationSoftware,KiCad,Pcbnew,7.0.8*%
%TF.CreationDate,2024-08-03T05:57:31+02:00*%
%TF.ProjectId,RobiV4,526f6269-5634-42e6-9b69-6361645f7063,rev?*%
%TF.SameCoordinates,Original*%
%TF.FileFunction,Soldermask,Top*%
%TF.FilePolarity,Negative*%
%FSLAX46Y46*%
G04 Gerber Fmt 4.6, Leading zero omitted, Abs format (unit mm)*
G04 Created by KiCad (PCBNEW 7.0.8) date 2024-08-03 05:57:31*
%MOMM*%
%LPD*%
G01*
G04 APERTURE LIST*
G04 Aperture macros list*
%AMRoundRect*
0 Rectangle with rounded corners*
0 $1 Rounding radius*
0 $2 $3 $4 $5 $6 $7 $8 $9 X,Y pos of 4 corners*
0 Add a 4 corners polygon primitive as box body*
4,1,4,$2,$3,$4,$5,$6,$7,$8,$9,$2,$3,0*
0 Add four circle primitives for the rounded corners*
1,1,$1+$1,$2,$3*
1,1,$1+$1,$4,$5*
1,1,$1+$1,$6,$7*
1,1,$1+$1,$8,$9*
0 Add four rect primitives between the rounded corners*
20,1,$1+$1,$2,$3,$4,$5,0*
20,1,$1+$1,$4,$5,$6,$7,0*
20,1,$1+$1,$6,$7,$8,$9,0*
20,1,$1+$1,$8,$9,$2,$3,0*%
G04 Aperture macros list end*
%ADD10RoundRect,0.200000X-0.800000X-0.800000X0.800000X-0.800000X0.800000X0.800000X-0.800000X0.800000X0*%
%ADD11C,2.000000*%
%ADD12RoundRect,0.200000X-0.900000X-0.900000X0.900000X-0.900000X0.900000X0.900000X-0.900000X0.900000X0*%
%ADD13C,2.200000*%
%ADD14RoundRect,0.200000X0.750000X0.750000X-0.750000X0.750000X-0.750000X-0.750000X0.750000X-0.750000X0*%
%ADD15C,1.900000*%
%ADD16O,2.000000X2.000000*%
%ADD17C,2.400000*%
%ADD18RoundRect,0.200000X0.800000X-0.800000X0.800000X0.800000X-0.800000X0.800000X-0.800000X-0.800000X0*%
G04 APERTURE END LIST*
D10*
%TO.C,C1*%
X149733000Y-66294000D03*
D11*
X152233000Y-66294000D03*
%TD*%
D12*
%TO.C,D1*%
X123444000Y-55245000D03*
D13*
X125984000Y-55245000D03*
%TD*%
D12*
%TO.C,D2*%
X141351000Y-54737000D03*
D13*
X143891000Y-54737000D03*
%TD*%
D14*
%TO.C,T1*%
X132080000Y-86766400D03*
D15*
X129540000Y-89306400D03*
X127000000Y-86766400D03*
%TD*%
D14*
%TO.C,T2*%
X158860000Y-83310000D03*
D15*
X156320000Y-85850000D03*
X153780000Y-83310000D03*
%TD*%
D10*
%TO.C,D3*%
X113216001Y-67945000D03*
D16*
X120836001Y-67945000D03*
%TD*%
D11*
%TO.C,R3*%
X111946001Y-80951400D03*
D16*
X122106001Y-80951400D03*
%TD*%
D11*
%TO.C,R4*%
X111946001Y-85370200D03*
D16*
X122106001Y-85370200D03*
%TD*%
D11*
%TO.C,R5*%
X111946001Y-76532600D03*
D16*
X122106001Y-76532600D03*
%TD*%
D11*
%TO.C,R6*%
X111946001Y-89789000D03*
D16*
X122106001Y-89789000D03*
%TD*%
D11*
%TO.C,R1on1*%
X111946001Y-72113800D03*
D16*
X122106001Y-72113800D03*
%TD*%
D17*
%TO.C,S1*%
X143637000Y-103124000D03*
X146177000Y-103124000D03*
X148717000Y-103124000D03*
%TD*%
D18*
%TO.C,U1*%
X129921000Y-110744000D03*
D16*
X127381000Y-110744000D03*
X124841000Y-110744000D03*
X122301000Y-110744000D03*
X122301000Y-103124000D03*
X124841000Y-103124000D03*
X127381000Y-103124000D03*
X129921000Y-103124000D03*
%TD*%
D11*
%TO.C,R1off1*%
X148590000Y-80568800D03*
D16*
X138430000Y-80568800D03*
%TD*%
M02*
