%TF.GenerationSoftware,KiCad,Pcbnew,9.0.6*%
%TF.CreationDate,2026-01-10T10:01:33+01:00*%
%TF.ProjectId,Jumbo,4a756d62-6f2e-46b6-9963-61645f706362,rev?*%
%TF.SameCoordinates,Original*%
%TF.FileFunction,Legend,Bot*%
%TF.FilePolarity,Positive*%
%FSLAX46Y46*%
G04 Gerber Fmt 4.6, Leading zero omitted, Abs format (unit mm)*
G04 Created by KiCad (PCBNEW 9.0.6) date 2026-01-10 10:01:33*
%MOMM*%
%LPD*%
G01*
G04 APERTURE LIST*
%ADD10C,0.150000*%
%ADD11C,0.300000*%
%ADD12C,0.050000*%
%ADD13C,0.120000*%
%ADD14C,0.010000*%
G04 APERTURE END LIST*
D10*
X129843474Y-103050245D02*
G75*
G02*
X133600000Y-103000000I1856526J1650245D01*
G01*
X153900000Y-85200000D02*
G75*
G02*
X148711552Y-85200000I-2594224J0D01*
G01*
X148711552Y-85200000D02*
G75*
G02*
X153900000Y-85200000I2594224J0D01*
G01*
X129843474Y-103050245D02*
X133543474Y-103050245D01*
X129900000Y-94900000D02*
X133600000Y-94900000D01*
X129900000Y-94900000D02*
G75*
G02*
X133656530Y-94849758I1856530J1650240D01*
G01*
X113494224Y-83905776D02*
G75*
G02*
X108305776Y-83905776I-2594224J0D01*
G01*
X108305776Y-83905776D02*
G75*
G02*
X113494224Y-83905776I2594224J0D01*
G01*
D11*
X137861904Y-108847733D02*
X136338095Y-108847733D01*
D10*
X127514285Y-101431009D02*
X127180952Y-101431009D01*
X127038095Y-101954819D02*
X127514285Y-101954819D01*
X127514285Y-101954819D02*
X127514285Y-100954819D01*
X127514285Y-100954819D02*
X127038095Y-100954819D01*
X107861904Y-84454819D02*
X107861904Y-83454819D01*
X107290476Y-84454819D02*
X107719047Y-83883390D01*
X107290476Y-83454819D02*
X107861904Y-84026247D01*
X164177506Y-139269819D02*
X164177506Y-139984104D01*
X164177506Y-139984104D02*
X164225125Y-140126961D01*
X164225125Y-140126961D02*
X164320363Y-140222200D01*
X164320363Y-140222200D02*
X164463220Y-140269819D01*
X164463220Y-140269819D02*
X164558458Y-140269819D01*
X163225125Y-140269819D02*
X163701315Y-140269819D01*
X163701315Y-140269819D02*
X163701315Y-139269819D01*
X162320363Y-140174580D02*
X162367982Y-140222200D01*
X162367982Y-140222200D02*
X162510839Y-140269819D01*
X162510839Y-140269819D02*
X162606077Y-140269819D01*
X162606077Y-140269819D02*
X162748934Y-140222200D01*
X162748934Y-140222200D02*
X162844172Y-140126961D01*
X162844172Y-140126961D02*
X162891791Y-140031723D01*
X162891791Y-140031723D02*
X162939410Y-139841247D01*
X162939410Y-139841247D02*
X162939410Y-139698390D01*
X162939410Y-139698390D02*
X162891791Y-139507914D01*
X162891791Y-139507914D02*
X162844172Y-139412676D01*
X162844172Y-139412676D02*
X162748934Y-139317438D01*
X162748934Y-139317438D02*
X162606077Y-139269819D01*
X162606077Y-139269819D02*
X162510839Y-139269819D01*
X162510839Y-139269819D02*
X162367982Y-139317438D01*
X162367982Y-139317438D02*
X162320363Y-139365057D01*
X161606077Y-139269819D02*
X161606077Y-139984104D01*
X161606077Y-139984104D02*
X161653696Y-140126961D01*
X161653696Y-140126961D02*
X161748934Y-140222200D01*
X161748934Y-140222200D02*
X161891791Y-140269819D01*
X161891791Y-140269819D02*
X161987029Y-140269819D01*
X160653696Y-140269819D02*
X161129886Y-140269819D01*
X161129886Y-140269819D02*
X161129886Y-139269819D01*
X159748934Y-140174580D02*
X159796553Y-140222200D01*
X159796553Y-140222200D02*
X159939410Y-140269819D01*
X159939410Y-140269819D02*
X160034648Y-140269819D01*
X160034648Y-140269819D02*
X160177505Y-140222200D01*
X160177505Y-140222200D02*
X160272743Y-140126961D01*
X160272743Y-140126961D02*
X160320362Y-140031723D01*
X160320362Y-140031723D02*
X160367981Y-139841247D01*
X160367981Y-139841247D02*
X160367981Y-139698390D01*
X160367981Y-139698390D02*
X160320362Y-139507914D01*
X160320362Y-139507914D02*
X160272743Y-139412676D01*
X160272743Y-139412676D02*
X160177505Y-139317438D01*
X160177505Y-139317438D02*
X160034648Y-139269819D01*
X160034648Y-139269819D02*
X159939410Y-139269819D01*
X159939410Y-139269819D02*
X159796553Y-139317438D01*
X159796553Y-139317438D02*
X159748934Y-139365057D01*
X159034648Y-139269819D02*
X159034648Y-139984104D01*
X159034648Y-139984104D02*
X159082267Y-140126961D01*
X159082267Y-140126961D02*
X159177505Y-140222200D01*
X159177505Y-140222200D02*
X159320362Y-140269819D01*
X159320362Y-140269819D02*
X159415600Y-140269819D01*
X158082267Y-140269819D02*
X158558457Y-140269819D01*
X158558457Y-140269819D02*
X158558457Y-139269819D01*
X157177505Y-140174580D02*
X157225124Y-140222200D01*
X157225124Y-140222200D02*
X157367981Y-140269819D01*
X157367981Y-140269819D02*
X157463219Y-140269819D01*
X157463219Y-140269819D02*
X157606076Y-140222200D01*
X157606076Y-140222200D02*
X157701314Y-140126961D01*
X157701314Y-140126961D02*
X157748933Y-140031723D01*
X157748933Y-140031723D02*
X157796552Y-139841247D01*
X157796552Y-139841247D02*
X157796552Y-139698390D01*
X157796552Y-139698390D02*
X157748933Y-139507914D01*
X157748933Y-139507914D02*
X157701314Y-139412676D01*
X157701314Y-139412676D02*
X157606076Y-139317438D01*
X157606076Y-139317438D02*
X157463219Y-139269819D01*
X157463219Y-139269819D02*
X157367981Y-139269819D01*
X157367981Y-139269819D02*
X157225124Y-139317438D01*
X157225124Y-139317438D02*
X157177505Y-139365057D01*
X156463219Y-139269819D02*
X156463219Y-139984104D01*
X156463219Y-139984104D02*
X156510838Y-140126961D01*
X156510838Y-140126961D02*
X156606076Y-140222200D01*
X156606076Y-140222200D02*
X156748933Y-140269819D01*
X156748933Y-140269819D02*
X156844171Y-140269819D01*
X155510838Y-140269819D02*
X155987028Y-140269819D01*
X155987028Y-140269819D02*
X155987028Y-139269819D01*
X154606076Y-140174580D02*
X154653695Y-140222200D01*
X154653695Y-140222200D02*
X154796552Y-140269819D01*
X154796552Y-140269819D02*
X154891790Y-140269819D01*
X154891790Y-140269819D02*
X155034647Y-140222200D01*
X155034647Y-140222200D02*
X155129885Y-140126961D01*
X155129885Y-140126961D02*
X155177504Y-140031723D01*
X155177504Y-140031723D02*
X155225123Y-139841247D01*
X155225123Y-139841247D02*
X155225123Y-139698390D01*
X155225123Y-139698390D02*
X155177504Y-139507914D01*
X155177504Y-139507914D02*
X155129885Y-139412676D01*
X155129885Y-139412676D02*
X155034647Y-139317438D01*
X155034647Y-139317438D02*
X154891790Y-139269819D01*
X154891790Y-139269819D02*
X154796552Y-139269819D01*
X154796552Y-139269819D02*
X154653695Y-139317438D01*
X154653695Y-139317438D02*
X154606076Y-139365057D01*
X148261904Y-85754819D02*
X148261904Y-84754819D01*
X147690476Y-85754819D02*
X148119047Y-85183390D01*
X147690476Y-84754819D02*
X148261904Y-85326247D01*
X127414285Y-93031009D02*
X127080952Y-93031009D01*
X126938095Y-93554819D02*
X127414285Y-93554819D01*
X127414285Y-93554819D02*
X127414285Y-92554819D01*
X127414285Y-92554819D02*
X126938095Y-92554819D01*
X132471904Y-96844819D02*
X131900476Y-96844819D01*
X132186190Y-97844819D02*
X132186190Y-96844819D01*
X131614761Y-96940057D02*
X131567142Y-96892438D01*
X131567142Y-96892438D02*
X131471904Y-96844819D01*
X131471904Y-96844819D02*
X131233809Y-96844819D01*
X131233809Y-96844819D02*
X131138571Y-96892438D01*
X131138571Y-96892438D02*
X131090952Y-96940057D01*
X131090952Y-96940057D02*
X131043333Y-97035295D01*
X131043333Y-97035295D02*
X131043333Y-97130533D01*
X131043333Y-97130533D02*
X131090952Y-97273390D01*
X131090952Y-97273390D02*
X131662380Y-97844819D01*
X131662380Y-97844819D02*
X131043333Y-97844819D01*
X132511904Y-88604819D02*
X131940476Y-88604819D01*
X132226190Y-89604819D02*
X132226190Y-88604819D01*
X131083333Y-89604819D02*
X131654761Y-89604819D01*
X131369047Y-89604819D02*
X131369047Y-88604819D01*
X131369047Y-88604819D02*
X131464285Y-88747676D01*
X131464285Y-88747676D02*
X131559523Y-88842914D01*
X131559523Y-88842914D02*
X131654761Y-88890533D01*
X127590475Y-127504819D02*
X126971428Y-127504819D01*
X126971428Y-127504819D02*
X127304761Y-127885771D01*
X127304761Y-127885771D02*
X127161904Y-127885771D01*
X127161904Y-127885771D02*
X127066666Y-127933390D01*
X127066666Y-127933390D02*
X127019047Y-127981009D01*
X127019047Y-127981009D02*
X126971428Y-128076247D01*
X126971428Y-128076247D02*
X126971428Y-128314342D01*
X126971428Y-128314342D02*
X127019047Y-128409580D01*
X127019047Y-128409580D02*
X127066666Y-128457200D01*
X127066666Y-128457200D02*
X127161904Y-128504819D01*
X127161904Y-128504819D02*
X127447618Y-128504819D01*
X127447618Y-128504819D02*
X127542856Y-128457200D01*
X127542856Y-128457200D02*
X127590475Y-128409580D01*
X126495237Y-128504819D02*
X126304761Y-128504819D01*
X126304761Y-128504819D02*
X126209523Y-128457200D01*
X126209523Y-128457200D02*
X126161904Y-128409580D01*
X126161904Y-128409580D02*
X126066666Y-128266723D01*
X126066666Y-128266723D02*
X126019047Y-128076247D01*
X126019047Y-128076247D02*
X126019047Y-127695295D01*
X126019047Y-127695295D02*
X126066666Y-127600057D01*
X126066666Y-127600057D02*
X126114285Y-127552438D01*
X126114285Y-127552438D02*
X126209523Y-127504819D01*
X126209523Y-127504819D02*
X126399999Y-127504819D01*
X126399999Y-127504819D02*
X126495237Y-127552438D01*
X126495237Y-127552438D02*
X126542856Y-127600057D01*
X126542856Y-127600057D02*
X126590475Y-127695295D01*
X126590475Y-127695295D02*
X126590475Y-127933390D01*
X126590475Y-127933390D02*
X126542856Y-128028628D01*
X126542856Y-128028628D02*
X126495237Y-128076247D01*
X126495237Y-128076247D02*
X126399999Y-128123866D01*
X126399999Y-128123866D02*
X126209523Y-128123866D01*
X126209523Y-128123866D02*
X126114285Y-128076247D01*
X126114285Y-128076247D02*
X126066666Y-128028628D01*
X126066666Y-128028628D02*
X126019047Y-127933390D01*
X125399999Y-127504819D02*
X125304761Y-127504819D01*
X125304761Y-127504819D02*
X125209523Y-127552438D01*
X125209523Y-127552438D02*
X125161904Y-127600057D01*
X125161904Y-127600057D02*
X125114285Y-127695295D01*
X125114285Y-127695295D02*
X125066666Y-127885771D01*
X125066666Y-127885771D02*
X125066666Y-128123866D01*
X125066666Y-128123866D02*
X125114285Y-128314342D01*
X125114285Y-128314342D02*
X125161904Y-128409580D01*
X125161904Y-128409580D02*
X125209523Y-128457200D01*
X125209523Y-128457200D02*
X125304761Y-128504819D01*
X125304761Y-128504819D02*
X125399999Y-128504819D01*
X125399999Y-128504819D02*
X125495237Y-128457200D01*
X125495237Y-128457200D02*
X125542856Y-128409580D01*
X125542856Y-128409580D02*
X125590475Y-128314342D01*
X125590475Y-128314342D02*
X125638094Y-128123866D01*
X125638094Y-128123866D02*
X125638094Y-127885771D01*
X125638094Y-127885771D02*
X125590475Y-127695295D01*
X125590475Y-127695295D02*
X125542856Y-127600057D01*
X125542856Y-127600057D02*
X125495237Y-127552438D01*
X125495237Y-127552438D02*
X125399999Y-127504819D01*
X124638094Y-128504819D02*
X124638094Y-127504819D01*
X124542856Y-128123866D02*
X124257142Y-128504819D01*
X124257142Y-127838152D02*
X124638094Y-128219104D01*
X117286666Y-128604819D02*
X117619999Y-128128628D01*
X117858094Y-128604819D02*
X117858094Y-127604819D01*
X117858094Y-127604819D02*
X117477142Y-127604819D01*
X117477142Y-127604819D02*
X117381904Y-127652438D01*
X117381904Y-127652438D02*
X117334285Y-127700057D01*
X117334285Y-127700057D02*
X117286666Y-127795295D01*
X117286666Y-127795295D02*
X117286666Y-127938152D01*
X117286666Y-127938152D02*
X117334285Y-128033390D01*
X117334285Y-128033390D02*
X117381904Y-128081009D01*
X117381904Y-128081009D02*
X117477142Y-128128628D01*
X117477142Y-128128628D02*
X117858094Y-128128628D01*
X116429523Y-127938152D02*
X116429523Y-128604819D01*
X116667618Y-127557200D02*
X116905713Y-128271485D01*
X116905713Y-128271485D02*
X116286666Y-128271485D01*
X126209524Y-120504819D02*
X126780952Y-120504819D01*
X126495238Y-120504819D02*
X126495238Y-119504819D01*
X126495238Y-119504819D02*
X126590476Y-119647676D01*
X126590476Y-119647676D02*
X126685714Y-119742914D01*
X126685714Y-119742914D02*
X126780952Y-119790533D01*
X125590476Y-119504819D02*
X125495238Y-119504819D01*
X125495238Y-119504819D02*
X125400000Y-119552438D01*
X125400000Y-119552438D02*
X125352381Y-119600057D01*
X125352381Y-119600057D02*
X125304762Y-119695295D01*
X125304762Y-119695295D02*
X125257143Y-119885771D01*
X125257143Y-119885771D02*
X125257143Y-120123866D01*
X125257143Y-120123866D02*
X125304762Y-120314342D01*
X125304762Y-120314342D02*
X125352381Y-120409580D01*
X125352381Y-120409580D02*
X125400000Y-120457200D01*
X125400000Y-120457200D02*
X125495238Y-120504819D01*
X125495238Y-120504819D02*
X125590476Y-120504819D01*
X125590476Y-120504819D02*
X125685714Y-120457200D01*
X125685714Y-120457200D02*
X125733333Y-120409580D01*
X125733333Y-120409580D02*
X125780952Y-120314342D01*
X125780952Y-120314342D02*
X125828571Y-120123866D01*
X125828571Y-120123866D02*
X125828571Y-119885771D01*
X125828571Y-119885771D02*
X125780952Y-119695295D01*
X125780952Y-119695295D02*
X125733333Y-119600057D01*
X125733333Y-119600057D02*
X125685714Y-119552438D01*
X125685714Y-119552438D02*
X125590476Y-119504819D01*
X124257143Y-120504819D02*
X124590476Y-120028628D01*
X124828571Y-120504819D02*
X124828571Y-119504819D01*
X124828571Y-119504819D02*
X124447619Y-119504819D01*
X124447619Y-119504819D02*
X124352381Y-119552438D01*
X124352381Y-119552438D02*
X124304762Y-119600057D01*
X124304762Y-119600057D02*
X124257143Y-119695295D01*
X124257143Y-119695295D02*
X124257143Y-119838152D01*
X124257143Y-119838152D02*
X124304762Y-119933390D01*
X124304762Y-119933390D02*
X124352381Y-119981009D01*
X124352381Y-119981009D02*
X124447619Y-120028628D01*
X124447619Y-120028628D02*
X124828571Y-120028628D01*
X117286666Y-120504819D02*
X117619999Y-120028628D01*
X117858094Y-120504819D02*
X117858094Y-119504819D01*
X117858094Y-119504819D02*
X117477142Y-119504819D01*
X117477142Y-119504819D02*
X117381904Y-119552438D01*
X117381904Y-119552438D02*
X117334285Y-119600057D01*
X117334285Y-119600057D02*
X117286666Y-119695295D01*
X117286666Y-119695295D02*
X117286666Y-119838152D01*
X117286666Y-119838152D02*
X117334285Y-119933390D01*
X117334285Y-119933390D02*
X117381904Y-119981009D01*
X117381904Y-119981009D02*
X117477142Y-120028628D01*
X117477142Y-120028628D02*
X117858094Y-120028628D01*
X116429523Y-119504819D02*
X116619999Y-119504819D01*
X116619999Y-119504819D02*
X116715237Y-119552438D01*
X116715237Y-119552438D02*
X116762856Y-119600057D01*
X116762856Y-119600057D02*
X116858094Y-119742914D01*
X116858094Y-119742914D02*
X116905713Y-119933390D01*
X116905713Y-119933390D02*
X116905713Y-120314342D01*
X116905713Y-120314342D02*
X116858094Y-120409580D01*
X116858094Y-120409580D02*
X116810475Y-120457200D01*
X116810475Y-120457200D02*
X116715237Y-120504819D01*
X116715237Y-120504819D02*
X116524761Y-120504819D01*
X116524761Y-120504819D02*
X116429523Y-120457200D01*
X116429523Y-120457200D02*
X116381904Y-120409580D01*
X116381904Y-120409580D02*
X116334285Y-120314342D01*
X116334285Y-120314342D02*
X116334285Y-120076247D01*
X116334285Y-120076247D02*
X116381904Y-119981009D01*
X116381904Y-119981009D02*
X116429523Y-119933390D01*
X116429523Y-119933390D02*
X116524761Y-119885771D01*
X116524761Y-119885771D02*
X116715237Y-119885771D01*
X116715237Y-119885771D02*
X116810475Y-119933390D01*
X116810475Y-119933390D02*
X116858094Y-119981009D01*
X116858094Y-119981009D02*
X116905713Y-120076247D01*
X126209524Y-116504819D02*
X126780952Y-116504819D01*
X126495238Y-116504819D02*
X126495238Y-115504819D01*
X126495238Y-115504819D02*
X126590476Y-115647676D01*
X126590476Y-115647676D02*
X126685714Y-115742914D01*
X126685714Y-115742914D02*
X126780952Y-115790533D01*
X125352381Y-115504819D02*
X125542857Y-115504819D01*
X125542857Y-115504819D02*
X125638095Y-115552438D01*
X125638095Y-115552438D02*
X125685714Y-115600057D01*
X125685714Y-115600057D02*
X125780952Y-115742914D01*
X125780952Y-115742914D02*
X125828571Y-115933390D01*
X125828571Y-115933390D02*
X125828571Y-116314342D01*
X125828571Y-116314342D02*
X125780952Y-116409580D01*
X125780952Y-116409580D02*
X125733333Y-116457200D01*
X125733333Y-116457200D02*
X125638095Y-116504819D01*
X125638095Y-116504819D02*
X125447619Y-116504819D01*
X125447619Y-116504819D02*
X125352381Y-116457200D01*
X125352381Y-116457200D02*
X125304762Y-116409580D01*
X125304762Y-116409580D02*
X125257143Y-116314342D01*
X125257143Y-116314342D02*
X125257143Y-116076247D01*
X125257143Y-116076247D02*
X125304762Y-115981009D01*
X125304762Y-115981009D02*
X125352381Y-115933390D01*
X125352381Y-115933390D02*
X125447619Y-115885771D01*
X125447619Y-115885771D02*
X125638095Y-115885771D01*
X125638095Y-115885771D02*
X125733333Y-115933390D01*
X125733333Y-115933390D02*
X125780952Y-115981009D01*
X125780952Y-115981009D02*
X125828571Y-116076247D01*
X124828571Y-116504819D02*
X124828571Y-115504819D01*
X124257143Y-116504819D02*
X124685714Y-115933390D01*
X124257143Y-115504819D02*
X124828571Y-116076247D01*
X117286666Y-116454819D02*
X117619999Y-115978628D01*
X117858094Y-116454819D02*
X117858094Y-115454819D01*
X117858094Y-115454819D02*
X117477142Y-115454819D01*
X117477142Y-115454819D02*
X117381904Y-115502438D01*
X117381904Y-115502438D02*
X117334285Y-115550057D01*
X117334285Y-115550057D02*
X117286666Y-115645295D01*
X117286666Y-115645295D02*
X117286666Y-115788152D01*
X117286666Y-115788152D02*
X117334285Y-115883390D01*
X117334285Y-115883390D02*
X117381904Y-115931009D01*
X117381904Y-115931009D02*
X117477142Y-115978628D01*
X117477142Y-115978628D02*
X117858094Y-115978628D01*
X116953332Y-115454819D02*
X116286666Y-115454819D01*
X116286666Y-115454819D02*
X116715237Y-116454819D01*
X126209524Y-112504819D02*
X126780952Y-112504819D01*
X126495238Y-112504819D02*
X126495238Y-111504819D01*
X126495238Y-111504819D02*
X126590476Y-111647676D01*
X126590476Y-111647676D02*
X126685714Y-111742914D01*
X126685714Y-111742914D02*
X126780952Y-111790533D01*
X125828571Y-111600057D02*
X125780952Y-111552438D01*
X125780952Y-111552438D02*
X125685714Y-111504819D01*
X125685714Y-111504819D02*
X125447619Y-111504819D01*
X125447619Y-111504819D02*
X125352381Y-111552438D01*
X125352381Y-111552438D02*
X125304762Y-111600057D01*
X125304762Y-111600057D02*
X125257143Y-111695295D01*
X125257143Y-111695295D02*
X125257143Y-111790533D01*
X125257143Y-111790533D02*
X125304762Y-111933390D01*
X125304762Y-111933390D02*
X125876190Y-112504819D01*
X125876190Y-112504819D02*
X125257143Y-112504819D01*
X124828571Y-112504819D02*
X124828571Y-111504819D01*
X124257143Y-112504819D02*
X124685714Y-111933390D01*
X124257143Y-111504819D02*
X124828571Y-112076247D01*
X117286666Y-112404819D02*
X117619999Y-111928628D01*
X117858094Y-112404819D02*
X117858094Y-111404819D01*
X117858094Y-111404819D02*
X117477142Y-111404819D01*
X117477142Y-111404819D02*
X117381904Y-111452438D01*
X117381904Y-111452438D02*
X117334285Y-111500057D01*
X117334285Y-111500057D02*
X117286666Y-111595295D01*
X117286666Y-111595295D02*
X117286666Y-111738152D01*
X117286666Y-111738152D02*
X117334285Y-111833390D01*
X117334285Y-111833390D02*
X117381904Y-111881009D01*
X117381904Y-111881009D02*
X117477142Y-111928628D01*
X117477142Y-111928628D02*
X117858094Y-111928628D01*
X116715237Y-111833390D02*
X116810475Y-111785771D01*
X116810475Y-111785771D02*
X116858094Y-111738152D01*
X116858094Y-111738152D02*
X116905713Y-111642914D01*
X116905713Y-111642914D02*
X116905713Y-111595295D01*
X116905713Y-111595295D02*
X116858094Y-111500057D01*
X116858094Y-111500057D02*
X116810475Y-111452438D01*
X116810475Y-111452438D02*
X116715237Y-111404819D01*
X116715237Y-111404819D02*
X116524761Y-111404819D01*
X116524761Y-111404819D02*
X116429523Y-111452438D01*
X116429523Y-111452438D02*
X116381904Y-111500057D01*
X116381904Y-111500057D02*
X116334285Y-111595295D01*
X116334285Y-111595295D02*
X116334285Y-111642914D01*
X116334285Y-111642914D02*
X116381904Y-111738152D01*
X116381904Y-111738152D02*
X116429523Y-111785771D01*
X116429523Y-111785771D02*
X116524761Y-111833390D01*
X116524761Y-111833390D02*
X116715237Y-111833390D01*
X116715237Y-111833390D02*
X116810475Y-111881009D01*
X116810475Y-111881009D02*
X116858094Y-111928628D01*
X116858094Y-111928628D02*
X116905713Y-112023866D01*
X116905713Y-112023866D02*
X116905713Y-112214342D01*
X116905713Y-112214342D02*
X116858094Y-112309580D01*
X116858094Y-112309580D02*
X116810475Y-112357200D01*
X116810475Y-112357200D02*
X116715237Y-112404819D01*
X116715237Y-112404819D02*
X116524761Y-112404819D01*
X116524761Y-112404819D02*
X116429523Y-112357200D01*
X116429523Y-112357200D02*
X116381904Y-112309580D01*
X116381904Y-112309580D02*
X116334285Y-112214342D01*
X116334285Y-112214342D02*
X116334285Y-112023866D01*
X116334285Y-112023866D02*
X116381904Y-111928628D01*
X116381904Y-111928628D02*
X116429523Y-111881009D01*
X116429523Y-111881009D02*
X116524761Y-111833390D01*
X126114286Y-123838152D02*
X126114286Y-124504819D01*
X126352381Y-123457200D02*
X126590476Y-124171485D01*
X126590476Y-124171485D02*
X125971429Y-124171485D01*
X125590476Y-124504819D02*
X125590476Y-123504819D01*
X125495238Y-124123866D02*
X125209524Y-124504819D01*
X125209524Y-123838152D02*
X125590476Y-124219104D01*
X124876190Y-123504819D02*
X124209524Y-123504819D01*
X124209524Y-123504819D02*
X124638095Y-124504819D01*
X117286666Y-124554819D02*
X117619999Y-124078628D01*
X117858094Y-124554819D02*
X117858094Y-123554819D01*
X117858094Y-123554819D02*
X117477142Y-123554819D01*
X117477142Y-123554819D02*
X117381904Y-123602438D01*
X117381904Y-123602438D02*
X117334285Y-123650057D01*
X117334285Y-123650057D02*
X117286666Y-123745295D01*
X117286666Y-123745295D02*
X117286666Y-123888152D01*
X117286666Y-123888152D02*
X117334285Y-123983390D01*
X117334285Y-123983390D02*
X117381904Y-124031009D01*
X117381904Y-124031009D02*
X117477142Y-124078628D01*
X117477142Y-124078628D02*
X117858094Y-124078628D01*
X116381904Y-123554819D02*
X116858094Y-123554819D01*
X116858094Y-123554819D02*
X116905713Y-124031009D01*
X116905713Y-124031009D02*
X116858094Y-123983390D01*
X116858094Y-123983390D02*
X116762856Y-123935771D01*
X116762856Y-123935771D02*
X116524761Y-123935771D01*
X116524761Y-123935771D02*
X116429523Y-123983390D01*
X116429523Y-123983390D02*
X116381904Y-124031009D01*
X116381904Y-124031009D02*
X116334285Y-124126247D01*
X116334285Y-124126247D02*
X116334285Y-124364342D01*
X116334285Y-124364342D02*
X116381904Y-124459580D01*
X116381904Y-124459580D02*
X116429523Y-124507200D01*
X116429523Y-124507200D02*
X116524761Y-124554819D01*
X116524761Y-124554819D02*
X116762856Y-124554819D01*
X116762856Y-124554819D02*
X116858094Y-124507200D01*
X116858094Y-124507200D02*
X116905713Y-124459580D01*
X146152857Y-111834819D02*
X146724285Y-111834819D01*
X146438571Y-111834819D02*
X146438571Y-110834819D01*
X146438571Y-110834819D02*
X146533809Y-110977676D01*
X146533809Y-110977676D02*
X146629047Y-111072914D01*
X146629047Y-111072914D02*
X146724285Y-111120533D01*
X145724285Y-111834819D02*
X145724285Y-110834819D01*
X145724285Y-110834819D02*
X145152857Y-111834819D01*
X145152857Y-111834819D02*
X145152857Y-110834819D01*
X144248095Y-111168152D02*
X144248095Y-111834819D01*
X144486190Y-110787200D02*
X144724285Y-111501485D01*
X144724285Y-111501485D02*
X144105238Y-111501485D01*
X143200476Y-111834819D02*
X143771904Y-111834819D01*
X143486190Y-111834819D02*
X143486190Y-110834819D01*
X143486190Y-110834819D02*
X143581428Y-110977676D01*
X143581428Y-110977676D02*
X143676666Y-111072914D01*
X143676666Y-111072914D02*
X143771904Y-111120533D01*
X142343333Y-111168152D02*
X142343333Y-111834819D01*
X142581428Y-110787200D02*
X142819523Y-111501485D01*
X142819523Y-111501485D02*
X142200476Y-111501485D01*
X141676666Y-111263390D02*
X141771904Y-111215771D01*
X141771904Y-111215771D02*
X141819523Y-111168152D01*
X141819523Y-111168152D02*
X141867142Y-111072914D01*
X141867142Y-111072914D02*
X141867142Y-111025295D01*
X141867142Y-111025295D02*
X141819523Y-110930057D01*
X141819523Y-110930057D02*
X141771904Y-110882438D01*
X141771904Y-110882438D02*
X141676666Y-110834819D01*
X141676666Y-110834819D02*
X141486190Y-110834819D01*
X141486190Y-110834819D02*
X141390952Y-110882438D01*
X141390952Y-110882438D02*
X141343333Y-110930057D01*
X141343333Y-110930057D02*
X141295714Y-111025295D01*
X141295714Y-111025295D02*
X141295714Y-111072914D01*
X141295714Y-111072914D02*
X141343333Y-111168152D01*
X141343333Y-111168152D02*
X141390952Y-111215771D01*
X141390952Y-111215771D02*
X141486190Y-111263390D01*
X141486190Y-111263390D02*
X141676666Y-111263390D01*
X141676666Y-111263390D02*
X141771904Y-111311009D01*
X141771904Y-111311009D02*
X141819523Y-111358628D01*
X141819523Y-111358628D02*
X141867142Y-111453866D01*
X141867142Y-111453866D02*
X141867142Y-111644342D01*
X141867142Y-111644342D02*
X141819523Y-111739580D01*
X141819523Y-111739580D02*
X141771904Y-111787200D01*
X141771904Y-111787200D02*
X141676666Y-111834819D01*
X141676666Y-111834819D02*
X141486190Y-111834819D01*
X141486190Y-111834819D02*
X141390952Y-111787200D01*
X141390952Y-111787200D02*
X141343333Y-111739580D01*
X141343333Y-111739580D02*
X141295714Y-111644342D01*
X141295714Y-111644342D02*
X141295714Y-111453866D01*
X141295714Y-111453866D02*
X141343333Y-111358628D01*
X141343333Y-111358628D02*
X141390952Y-111311009D01*
X141390952Y-111311009D02*
X141486190Y-111263390D01*
X140461904Y-115754819D02*
X140461904Y-114754819D01*
X139890476Y-115754819D02*
X140319047Y-115183390D01*
X139890476Y-114754819D02*
X140461904Y-115326247D01*
X127019047Y-131504819D02*
X127495237Y-131504819D01*
X127495237Y-131504819D02*
X127542856Y-131981009D01*
X127542856Y-131981009D02*
X127495237Y-131933390D01*
X127495237Y-131933390D02*
X127399999Y-131885771D01*
X127399999Y-131885771D02*
X127161904Y-131885771D01*
X127161904Y-131885771D02*
X127066666Y-131933390D01*
X127066666Y-131933390D02*
X127019047Y-131981009D01*
X127019047Y-131981009D02*
X126971428Y-132076247D01*
X126971428Y-132076247D02*
X126971428Y-132314342D01*
X126971428Y-132314342D02*
X127019047Y-132409580D01*
X127019047Y-132409580D02*
X127066666Y-132457200D01*
X127066666Y-132457200D02*
X127161904Y-132504819D01*
X127161904Y-132504819D02*
X127399999Y-132504819D01*
X127399999Y-132504819D02*
X127495237Y-132457200D01*
X127495237Y-132457200D02*
X127542856Y-132409580D01*
X126114285Y-131504819D02*
X126304761Y-131504819D01*
X126304761Y-131504819D02*
X126399999Y-131552438D01*
X126399999Y-131552438D02*
X126447618Y-131600057D01*
X126447618Y-131600057D02*
X126542856Y-131742914D01*
X126542856Y-131742914D02*
X126590475Y-131933390D01*
X126590475Y-131933390D02*
X126590475Y-132314342D01*
X126590475Y-132314342D02*
X126542856Y-132409580D01*
X126542856Y-132409580D02*
X126495237Y-132457200D01*
X126495237Y-132457200D02*
X126399999Y-132504819D01*
X126399999Y-132504819D02*
X126209523Y-132504819D01*
X126209523Y-132504819D02*
X126114285Y-132457200D01*
X126114285Y-132457200D02*
X126066666Y-132409580D01*
X126066666Y-132409580D02*
X126019047Y-132314342D01*
X126019047Y-132314342D02*
X126019047Y-132076247D01*
X126019047Y-132076247D02*
X126066666Y-131981009D01*
X126066666Y-131981009D02*
X126114285Y-131933390D01*
X126114285Y-131933390D02*
X126209523Y-131885771D01*
X126209523Y-131885771D02*
X126399999Y-131885771D01*
X126399999Y-131885771D02*
X126495237Y-131933390D01*
X126495237Y-131933390D02*
X126542856Y-131981009D01*
X126542856Y-131981009D02*
X126590475Y-132076247D01*
X125399999Y-131504819D02*
X125304761Y-131504819D01*
X125304761Y-131504819D02*
X125209523Y-131552438D01*
X125209523Y-131552438D02*
X125161904Y-131600057D01*
X125161904Y-131600057D02*
X125114285Y-131695295D01*
X125114285Y-131695295D02*
X125066666Y-131885771D01*
X125066666Y-131885771D02*
X125066666Y-132123866D01*
X125066666Y-132123866D02*
X125114285Y-132314342D01*
X125114285Y-132314342D02*
X125161904Y-132409580D01*
X125161904Y-132409580D02*
X125209523Y-132457200D01*
X125209523Y-132457200D02*
X125304761Y-132504819D01*
X125304761Y-132504819D02*
X125399999Y-132504819D01*
X125399999Y-132504819D02*
X125495237Y-132457200D01*
X125495237Y-132457200D02*
X125542856Y-132409580D01*
X125542856Y-132409580D02*
X125590475Y-132314342D01*
X125590475Y-132314342D02*
X125638094Y-132123866D01*
X125638094Y-132123866D02*
X125638094Y-131885771D01*
X125638094Y-131885771D02*
X125590475Y-131695295D01*
X125590475Y-131695295D02*
X125542856Y-131600057D01*
X125542856Y-131600057D02*
X125495237Y-131552438D01*
X125495237Y-131552438D02*
X125399999Y-131504819D01*
X124638094Y-132504819D02*
X124638094Y-131504819D01*
X124542856Y-132123866D02*
X124257142Y-132504819D01*
X124257142Y-131838152D02*
X124638094Y-132219104D01*
X117286666Y-132654819D02*
X117619999Y-132178628D01*
X117858094Y-132654819D02*
X117858094Y-131654819D01*
X117858094Y-131654819D02*
X117477142Y-131654819D01*
X117477142Y-131654819D02*
X117381904Y-131702438D01*
X117381904Y-131702438D02*
X117334285Y-131750057D01*
X117334285Y-131750057D02*
X117286666Y-131845295D01*
X117286666Y-131845295D02*
X117286666Y-131988152D01*
X117286666Y-131988152D02*
X117334285Y-132083390D01*
X117334285Y-132083390D02*
X117381904Y-132131009D01*
X117381904Y-132131009D02*
X117477142Y-132178628D01*
X117477142Y-132178628D02*
X117858094Y-132178628D01*
X116953332Y-131654819D02*
X116334285Y-131654819D01*
X116334285Y-131654819D02*
X116667618Y-132035771D01*
X116667618Y-132035771D02*
X116524761Y-132035771D01*
X116524761Y-132035771D02*
X116429523Y-132083390D01*
X116429523Y-132083390D02*
X116381904Y-132131009D01*
X116381904Y-132131009D02*
X116334285Y-132226247D01*
X116334285Y-132226247D02*
X116334285Y-132464342D01*
X116334285Y-132464342D02*
X116381904Y-132559580D01*
X116381904Y-132559580D02*
X116429523Y-132607200D01*
X116429523Y-132607200D02*
X116524761Y-132654819D01*
X116524761Y-132654819D02*
X116810475Y-132654819D01*
X116810475Y-132654819D02*
X116905713Y-132607200D01*
X116905713Y-132607200D02*
X116953332Y-132559580D01*
X170321904Y-55907200D02*
X170179047Y-55954819D01*
X170179047Y-55954819D02*
X169940952Y-55954819D01*
X169940952Y-55954819D02*
X169845714Y-55907200D01*
X169845714Y-55907200D02*
X169798095Y-55859580D01*
X169798095Y-55859580D02*
X169750476Y-55764342D01*
X169750476Y-55764342D02*
X169750476Y-55669104D01*
X169750476Y-55669104D02*
X169798095Y-55573866D01*
X169798095Y-55573866D02*
X169845714Y-55526247D01*
X169845714Y-55526247D02*
X169940952Y-55478628D01*
X169940952Y-55478628D02*
X170131428Y-55431009D01*
X170131428Y-55431009D02*
X170226666Y-55383390D01*
X170226666Y-55383390D02*
X170274285Y-55335771D01*
X170274285Y-55335771D02*
X170321904Y-55240533D01*
X170321904Y-55240533D02*
X170321904Y-55145295D01*
X170321904Y-55145295D02*
X170274285Y-55050057D01*
X170274285Y-55050057D02*
X170226666Y-55002438D01*
X170226666Y-55002438D02*
X170131428Y-54954819D01*
X170131428Y-54954819D02*
X169893333Y-54954819D01*
X169893333Y-54954819D02*
X169750476Y-55002438D01*
X168798095Y-55954819D02*
X169369523Y-55954819D01*
X169083809Y-55954819D02*
X169083809Y-54954819D01*
X169083809Y-54954819D02*
X169179047Y-55097676D01*
X169179047Y-55097676D02*
X169274285Y-55192914D01*
X169274285Y-55192914D02*
X169369523Y-55240533D01*
X147176666Y-120514819D02*
X147176666Y-119514819D01*
X147176666Y-119514819D02*
X146605238Y-120514819D01*
X146605238Y-120514819D02*
X146605238Y-119514819D01*
X146129047Y-119991009D02*
X145795714Y-119991009D01*
X145652857Y-120514819D02*
X146129047Y-120514819D01*
X146129047Y-120514819D02*
X146129047Y-119514819D01*
X146129047Y-119514819D02*
X145652857Y-119514819D01*
X144748095Y-119514819D02*
X145224285Y-119514819D01*
X145224285Y-119514819D02*
X145271904Y-119991009D01*
X145271904Y-119991009D02*
X145224285Y-119943390D01*
X145224285Y-119943390D02*
X145129047Y-119895771D01*
X145129047Y-119895771D02*
X144890952Y-119895771D01*
X144890952Y-119895771D02*
X144795714Y-119943390D01*
X144795714Y-119943390D02*
X144748095Y-119991009D01*
X144748095Y-119991009D02*
X144700476Y-120086247D01*
X144700476Y-120086247D02*
X144700476Y-120324342D01*
X144700476Y-120324342D02*
X144748095Y-120419580D01*
X144748095Y-120419580D02*
X144795714Y-120467200D01*
X144795714Y-120467200D02*
X144890952Y-120514819D01*
X144890952Y-120514819D02*
X145129047Y-120514819D01*
X145129047Y-120514819D02*
X145224285Y-120467200D01*
X145224285Y-120467200D02*
X145271904Y-120419580D01*
X143795714Y-119514819D02*
X144271904Y-119514819D01*
X144271904Y-119514819D02*
X144319523Y-119991009D01*
X144319523Y-119991009D02*
X144271904Y-119943390D01*
X144271904Y-119943390D02*
X144176666Y-119895771D01*
X144176666Y-119895771D02*
X143938571Y-119895771D01*
X143938571Y-119895771D02*
X143843333Y-119943390D01*
X143843333Y-119943390D02*
X143795714Y-119991009D01*
X143795714Y-119991009D02*
X143748095Y-120086247D01*
X143748095Y-120086247D02*
X143748095Y-120324342D01*
X143748095Y-120324342D02*
X143795714Y-120419580D01*
X143795714Y-120419580D02*
X143843333Y-120467200D01*
X143843333Y-120467200D02*
X143938571Y-120514819D01*
X143938571Y-120514819D02*
X144176666Y-120514819D01*
X144176666Y-120514819D02*
X144271904Y-120467200D01*
X144271904Y-120467200D02*
X144319523Y-120419580D01*
X142843333Y-119514819D02*
X143319523Y-119514819D01*
X143319523Y-119514819D02*
X143367142Y-119991009D01*
X143367142Y-119991009D02*
X143319523Y-119943390D01*
X143319523Y-119943390D02*
X143224285Y-119895771D01*
X143224285Y-119895771D02*
X142986190Y-119895771D01*
X142986190Y-119895771D02*
X142890952Y-119943390D01*
X142890952Y-119943390D02*
X142843333Y-119991009D01*
X142843333Y-119991009D02*
X142795714Y-120086247D01*
X142795714Y-120086247D02*
X142795714Y-120324342D01*
X142795714Y-120324342D02*
X142843333Y-120419580D01*
X142843333Y-120419580D02*
X142890952Y-120467200D01*
X142890952Y-120467200D02*
X142986190Y-120514819D01*
X142986190Y-120514819D02*
X143224285Y-120514819D01*
X143224285Y-120514819D02*
X143319523Y-120467200D01*
X143319523Y-120467200D02*
X143367142Y-120419580D01*
X142367142Y-120514819D02*
X142367142Y-119514819D01*
X142367142Y-119514819D02*
X141986190Y-119514819D01*
X141986190Y-119514819D02*
X141890952Y-119562438D01*
X141890952Y-119562438D02*
X141843333Y-119610057D01*
X141843333Y-119610057D02*
X141795714Y-119705295D01*
X141795714Y-119705295D02*
X141795714Y-119848152D01*
X141795714Y-119848152D02*
X141843333Y-119943390D01*
X141843333Y-119943390D02*
X141890952Y-119991009D01*
X141890952Y-119991009D02*
X141986190Y-120038628D01*
X141986190Y-120038628D02*
X142367142Y-120038628D01*
D12*
X129969714Y-51644019D02*
X129969714Y-52453542D01*
X129969714Y-52453542D02*
X129926857Y-52548780D01*
X129926857Y-52548780D02*
X129884000Y-52596400D01*
X129884000Y-52596400D02*
X129798285Y-52644019D01*
X129798285Y-52644019D02*
X129626857Y-52644019D01*
X129626857Y-52644019D02*
X129541142Y-52596400D01*
X129541142Y-52596400D02*
X129498285Y-52548780D01*
X129498285Y-52548780D02*
X129455428Y-52453542D01*
X129455428Y-52453542D02*
X129455428Y-51644019D01*
X129069714Y-51739257D02*
X129026857Y-51691638D01*
X129026857Y-51691638D02*
X128941143Y-51644019D01*
X128941143Y-51644019D02*
X128726857Y-51644019D01*
X128726857Y-51644019D02*
X128641143Y-51691638D01*
X128641143Y-51691638D02*
X128598285Y-51739257D01*
X128598285Y-51739257D02*
X128555428Y-51834495D01*
X128555428Y-51834495D02*
X128555428Y-51929733D01*
X128555428Y-51929733D02*
X128598285Y-52072590D01*
X128598285Y-52072590D02*
X129112571Y-52644019D01*
X129112571Y-52644019D02*
X128555428Y-52644019D01*
X128562570Y-56240209D02*
X128433998Y-56287828D01*
X128433998Y-56287828D02*
X128391141Y-56335447D01*
X128391141Y-56335447D02*
X128348284Y-56430685D01*
X128348284Y-56430685D02*
X128348284Y-56573542D01*
X128348284Y-56573542D02*
X128391141Y-56668780D01*
X128391141Y-56668780D02*
X128433998Y-56716400D01*
X128433998Y-56716400D02*
X128519713Y-56764019D01*
X128519713Y-56764019D02*
X128862570Y-56764019D01*
X128862570Y-56764019D02*
X128862570Y-55764019D01*
X128862570Y-55764019D02*
X128562570Y-55764019D01*
X128562570Y-55764019D02*
X128476856Y-55811638D01*
X128476856Y-55811638D02*
X128433998Y-55859257D01*
X128433998Y-55859257D02*
X128391141Y-55954495D01*
X128391141Y-55954495D02*
X128391141Y-56049733D01*
X128391141Y-56049733D02*
X128433998Y-56144971D01*
X128433998Y-56144971D02*
X128476856Y-56192590D01*
X128476856Y-56192590D02*
X128562570Y-56240209D01*
X128562570Y-56240209D02*
X128862570Y-56240209D01*
X128005427Y-56478304D02*
X127576856Y-56478304D01*
X128091141Y-56764019D02*
X127791141Y-55764019D01*
X127791141Y-55764019D02*
X127491141Y-56764019D01*
X127319712Y-55764019D02*
X126805427Y-55764019D01*
X127062569Y-56764019D02*
X127062569Y-55764019D01*
X126719713Y-56859257D02*
X126033998Y-56859257D01*
X125819713Y-56764019D02*
X125819713Y-55764019D01*
X125819713Y-56240209D02*
X125305427Y-56240209D01*
X125305427Y-56764019D02*
X125305427Y-55764019D01*
X124448284Y-56764019D02*
X124876856Y-56764019D01*
X124876856Y-56764019D02*
X124876856Y-55764019D01*
X124148285Y-56764019D02*
X124148285Y-55764019D01*
X124148285Y-55764019D02*
X123933999Y-55764019D01*
X123933999Y-55764019D02*
X123805428Y-55811638D01*
X123805428Y-55811638D02*
X123719713Y-55906876D01*
X123719713Y-55906876D02*
X123676856Y-56002114D01*
X123676856Y-56002114D02*
X123633999Y-56192590D01*
X123633999Y-56192590D02*
X123633999Y-56335447D01*
X123633999Y-56335447D02*
X123676856Y-56525923D01*
X123676856Y-56525923D02*
X123719713Y-56621161D01*
X123719713Y-56621161D02*
X123805428Y-56716400D01*
X123805428Y-56716400D02*
X123933999Y-56764019D01*
X123933999Y-56764019D02*
X124148285Y-56764019D01*
X123462571Y-56859257D02*
X122776856Y-56859257D01*
X122605428Y-56716400D02*
X122476857Y-56764019D01*
X122476857Y-56764019D02*
X122262571Y-56764019D01*
X122262571Y-56764019D02*
X122176857Y-56716400D01*
X122176857Y-56716400D02*
X122133999Y-56668780D01*
X122133999Y-56668780D02*
X122091142Y-56573542D01*
X122091142Y-56573542D02*
X122091142Y-56478304D01*
X122091142Y-56478304D02*
X122133999Y-56383066D01*
X122133999Y-56383066D02*
X122176857Y-56335447D01*
X122176857Y-56335447D02*
X122262571Y-56287828D01*
X122262571Y-56287828D02*
X122433999Y-56240209D01*
X122433999Y-56240209D02*
X122519714Y-56192590D01*
X122519714Y-56192590D02*
X122562571Y-56144971D01*
X122562571Y-56144971D02*
X122605428Y-56049733D01*
X122605428Y-56049733D02*
X122605428Y-55954495D01*
X122605428Y-55954495D02*
X122562571Y-55859257D01*
X122562571Y-55859257D02*
X122519714Y-55811638D01*
X122519714Y-55811638D02*
X122433999Y-55764019D01*
X122433999Y-55764019D02*
X122219714Y-55764019D01*
X122219714Y-55764019D02*
X122091142Y-55811638D01*
X121705428Y-56764019D02*
X121705428Y-55764019D01*
X121705428Y-55764019D02*
X121405428Y-56478304D01*
X121405428Y-56478304D02*
X121105428Y-55764019D01*
X121105428Y-55764019D02*
X121105428Y-56764019D01*
X120676857Y-56764019D02*
X120676857Y-55764019D01*
X120676857Y-55764019D02*
X120462571Y-55764019D01*
X120462571Y-55764019D02*
X120334000Y-55811638D01*
X120334000Y-55811638D02*
X120248285Y-55906876D01*
X120248285Y-55906876D02*
X120205428Y-56002114D01*
X120205428Y-56002114D02*
X120162571Y-56192590D01*
X120162571Y-56192590D02*
X120162571Y-56335447D01*
X120162571Y-56335447D02*
X120205428Y-56525923D01*
X120205428Y-56525923D02*
X120248285Y-56621161D01*
X120248285Y-56621161D02*
X120334000Y-56716400D01*
X120334000Y-56716400D02*
X120462571Y-56764019D01*
X120462571Y-56764019D02*
X120676857Y-56764019D01*
%TO.C,G\u002A\u002A\u002A*%
X121225000Y-73200000D02*
X121800000Y-73675000D01*
X121800000Y-73675000D02*
X122225000Y-73350000D01*
X122225000Y-73350000D02*
X121225000Y-73200000D01*
D13*
X122550000Y-74788605D02*
X123450000Y-74775000D01*
X122949999Y-76170050D02*
X122549999Y-76170050D01*
X122950000Y-75175000D02*
X122700000Y-75175000D01*
X122950000Y-75225000D02*
X122950000Y-75675000D01*
X122950000Y-75675000D02*
X122650000Y-75675000D01*
X122950000Y-76175000D02*
X122950000Y-76675000D01*
X122950000Y-76675000D02*
X122500000Y-76675000D01*
D12*
X123175000Y-72475000D02*
X123525000Y-71300000D01*
D13*
X123450000Y-74775000D02*
X123500000Y-77225000D01*
X123500000Y-77225000D02*
X122300000Y-77225000D01*
D12*
X123525000Y-71300000D02*
X125325000Y-71350000D01*
D13*
X123775000Y-77225000D02*
X124550000Y-74775000D01*
X124175000Y-77225000D02*
X123775000Y-77225000D01*
X124425000Y-76625000D02*
X124175000Y-77225000D01*
X124500000Y-76225000D02*
X124725000Y-75475000D01*
X124550000Y-74775000D02*
X124875000Y-74775000D01*
X124725000Y-75475000D02*
X125000000Y-76225000D01*
D12*
X124750000Y-73400000D02*
X126425000Y-73500000D01*
D13*
X124875000Y-74775000D02*
X125775000Y-77225000D01*
X125000000Y-76225000D02*
X124500000Y-76225000D01*
X125025000Y-76625000D02*
X124425000Y-76625000D01*
X125275000Y-77225000D02*
X125025000Y-76625000D01*
X125275000Y-77225000D02*
X125775000Y-77225000D01*
D12*
X125325000Y-71350000D02*
X123175000Y-72475000D01*
X125450000Y-72825000D02*
X124750000Y-73400000D01*
D13*
X125950000Y-76750000D02*
X125950000Y-77200000D01*
X125950000Y-77200000D02*
X127200000Y-77200000D01*
D12*
X126450000Y-73500000D02*
X125450000Y-72825000D01*
X126600000Y-73050000D02*
X128225000Y-74175000D01*
X126650000Y-70725000D02*
X127775000Y-71950000D01*
X126675000Y-70325000D02*
X126600000Y-73050000D01*
D13*
X126700000Y-76750000D02*
X125950000Y-76750000D01*
X126725000Y-74750000D02*
X126700000Y-76750000D01*
X127175000Y-74750000D02*
X126725000Y-74750000D01*
X127200000Y-77200000D02*
X127175000Y-74750000D01*
X127375000Y-77200000D02*
X128075000Y-76250000D01*
X127475000Y-77200000D02*
X127375000Y-77200000D01*
D12*
X127775000Y-71950000D02*
X127200000Y-73450000D01*
D13*
X127875000Y-77200000D02*
X127475000Y-77200000D01*
X128116269Y-74744594D02*
X129225000Y-74750000D01*
D12*
X128225000Y-74175000D02*
X129900000Y-73950000D01*
D13*
X128275000Y-75200000D02*
X128725000Y-75200000D01*
X128625000Y-76250000D02*
X127875000Y-77200000D01*
X128725000Y-75200000D02*
X128725000Y-75750000D01*
X128725000Y-75750000D02*
X128225000Y-75750000D01*
X128775000Y-76250000D02*
X128625000Y-76250000D01*
X128775000Y-77200000D02*
X128775000Y-76250000D01*
X129225000Y-74750000D02*
X129225000Y-77200000D01*
X129225000Y-77200000D02*
X128775000Y-77200000D01*
D12*
X129375000Y-74400000D02*
X130350000Y-74750000D01*
D13*
X129675000Y-74750000D02*
X130975000Y-74750000D01*
X129675000Y-75250000D02*
X129675000Y-74750000D01*
X129675000Y-76700000D02*
X130525000Y-76700000D01*
X129675000Y-77200000D02*
X129675000Y-76700000D01*
D12*
X129775000Y-74125000D02*
X129375000Y-74400000D01*
D13*
X129875000Y-75700000D02*
X130525000Y-75700000D01*
X129875000Y-76150000D02*
X129875000Y-75700000D01*
D12*
X129900000Y-73950000D02*
X131725000Y-74850000D01*
X130150000Y-71950000D02*
X126675000Y-70325000D01*
X130150000Y-71950000D02*
X132475000Y-73100000D01*
D13*
X130525000Y-75250000D02*
X129675000Y-75250000D01*
X130525000Y-75700000D02*
X130525000Y-75250000D01*
X130525000Y-76150000D02*
X129875000Y-76150000D01*
X130525000Y-76700000D02*
X130525000Y-76150000D01*
D12*
X130550000Y-74725000D02*
X129775000Y-74125000D01*
X130900000Y-70525000D02*
X130150000Y-71950000D01*
X130900000Y-70525000D02*
X133100000Y-71700000D01*
D13*
X130925000Y-77200000D02*
X129675000Y-77200000D01*
X130975000Y-74750000D02*
X131025000Y-77200000D01*
X131025000Y-77200000D02*
X130925000Y-77200000D01*
X132125000Y-74763605D02*
X133025000Y-74750000D01*
D12*
X132475000Y-73100000D02*
X133950000Y-74825000D01*
X132475000Y-73100000D02*
X138125000Y-75950000D01*
D13*
X132524999Y-76145050D02*
X132124999Y-76145050D01*
X132525000Y-75150000D02*
X132275000Y-75150000D01*
X132525000Y-75200000D02*
X132525000Y-75650000D01*
X132525000Y-75650000D02*
X132225000Y-75650000D01*
X132525000Y-76150000D02*
X132525000Y-76650000D01*
X132525000Y-76650000D02*
X132075000Y-76650000D01*
X133025000Y-74750000D02*
X133075000Y-77200000D01*
X133075000Y-77200000D02*
X131875000Y-77200000D01*
D12*
X133100000Y-71700000D02*
X131525000Y-72600000D01*
X133200000Y-71525000D02*
X132475000Y-73100000D01*
D13*
X133475000Y-75600000D02*
X133475000Y-76300000D01*
D12*
X133775000Y-74925000D02*
X126675000Y-70325000D01*
D13*
X133975000Y-75600000D02*
X133975000Y-76250000D01*
D12*
X134225000Y-71775000D02*
X132475000Y-73100000D01*
X134225000Y-71775000D02*
X133200000Y-71525000D01*
X134300000Y-75850000D02*
X134675000Y-76025000D01*
X134625000Y-75450000D02*
X134300000Y-75850000D01*
D13*
X134675000Y-75600000D02*
X134675000Y-76300000D01*
D12*
X135175000Y-76200000D02*
X135725000Y-76475000D01*
D13*
X135175000Y-76300000D02*
X135175000Y-75600000D01*
D12*
X135225000Y-75475000D02*
X135450000Y-76100000D01*
X135450000Y-76100000D02*
X138125000Y-75950000D01*
X135725000Y-76475000D02*
X135150000Y-75675000D01*
X136800000Y-76425000D02*
X135975000Y-76075000D01*
X138125000Y-75950000D02*
X134225000Y-71775000D01*
X138125000Y-75950000D02*
X135225000Y-75475000D01*
X138125000Y-75950000D02*
X136800000Y-76425000D01*
D13*
X122100001Y-75874999D02*
G75*
G02*
X122550000Y-74788605I449999J449999D01*
G01*
X122300001Y-77224999D02*
G75*
G02*
X122123744Y-75916063I249998J699999D01*
G01*
X122500001Y-76674999D02*
G75*
G02*
X122549999Y-76170050I49999J249999D01*
G01*
X122650000Y-75675000D02*
G75*
G02*
X122710634Y-75182464I0J250000D01*
G01*
X128100001Y-76199999D02*
G75*
G02*
X128116269Y-74744594I249999J724999D01*
G01*
X128225001Y-75749999D02*
G75*
G02*
X128225001Y-75200001I124999J274999D01*
G01*
X131675001Y-75849999D02*
G75*
G02*
X132125000Y-74763605I449999J449999D01*
G01*
X131875001Y-77199999D02*
G75*
G02*
X131698744Y-75891063I249998J699999D01*
G01*
X132075001Y-76649999D02*
G75*
G02*
X132124999Y-76145050I49999J249999D01*
G01*
X132225000Y-75650000D02*
G75*
G02*
X132285634Y-75157464I0J250000D01*
G01*
X133475000Y-75600000D02*
G75*
G02*
X135175000Y-75600000I850000J0D01*
G01*
X133975000Y-75600000D02*
G75*
G02*
X134675000Y-75600000I350000J0D01*
G01*
X134675000Y-76300000D02*
G75*
G02*
X133975000Y-76300000I-350000J0D01*
G01*
X135175000Y-76300000D02*
G75*
G02*
X133475000Y-76300000I-850000J0D01*
G01*
D14*
X143672361Y-130195226D02*
X143608542Y-130259045D01*
X143544723Y-130195226D01*
X143608542Y-130131407D01*
X143672361Y-130195226D01*
G36*
X143672361Y-130195226D02*
G01*
X143608542Y-130259045D01*
X143544723Y-130195226D01*
X143608542Y-130131407D01*
X143672361Y-130195226D01*
G37*
D13*
%TO.C,R4*%
X113080000Y-128150000D02*
X113850000Y-128150000D01*
X121160000Y-128150000D02*
X120390000Y-128150000D01*
X113850000Y-129520000D02*
X120390000Y-129520000D01*
X120390000Y-126780000D01*
X113850000Y-126780000D01*
X113850000Y-129520000D01*
%TO.C,R6*%
X113080000Y-120050000D02*
X113850000Y-120050000D01*
X121160000Y-120050000D02*
X120390000Y-120050000D01*
X113850000Y-121420000D02*
X120390000Y-121420000D01*
X120390000Y-118680000D01*
X113850000Y-118680000D01*
X113850000Y-121420000D01*
%TO.C,R7*%
X113080000Y-116000000D02*
X113850000Y-116000000D01*
X121160000Y-116000000D02*
X120390000Y-116000000D01*
X113850000Y-117370000D02*
X120390000Y-117370000D01*
X120390000Y-114630000D01*
X113850000Y-114630000D01*
X113850000Y-117370000D01*
%TO.C,R1off1*%
X113080000Y-111950000D02*
X113850000Y-111950000D01*
X121160000Y-111950000D02*
X120390000Y-111950000D01*
X113850000Y-113320000D02*
X120390000Y-113320000D01*
X120390000Y-110580000D01*
X113850000Y-110580000D01*
X113850000Y-113320000D01*
%TO.C,R5*%
X113080000Y-124100000D02*
X113850000Y-124100000D01*
X121160000Y-124100000D02*
X120390000Y-124100000D01*
X113850000Y-125470000D02*
X120390000Y-125470000D01*
X120390000Y-122730000D01*
X113850000Y-122730000D01*
X113850000Y-125470000D01*
%TO.C,D3*%
X141240000Y-113500000D02*
X141890000Y-113500000D01*
X141890000Y-112380000D02*
X146130000Y-112380000D01*
X141890000Y-114620000D02*
X141890000Y-112380000D01*
X142490000Y-114620000D02*
X142490000Y-112380000D01*
X142610000Y-114620000D02*
X142610000Y-112380000D01*
X142730000Y-114620000D02*
X142730000Y-112380000D01*
X146130000Y-112380000D02*
X146130000Y-114620000D01*
X146130000Y-114620000D02*
X141890000Y-114620000D01*
X146780000Y-113500000D02*
X146130000Y-113500000D01*
%TO.C,R3*%
X113080000Y-132200000D02*
X113850000Y-132200000D01*
X121160000Y-132200000D02*
X120390000Y-132200000D01*
X113850000Y-133570000D02*
X120390000Y-133570000D01*
X120390000Y-130830000D01*
X113850000Y-130830000D01*
X113850000Y-133570000D01*
%TO.C,C1*%
X127985000Y-108925000D02*
X128615000Y-108925000D01*
X128300000Y-109240000D02*
X128300000Y-108610000D01*
X132250000Y-112130000D02*
X132250000Y-105670000D01*
X132290000Y-112130000D02*
X132290000Y-105670000D01*
X132330000Y-112130000D02*
X132330000Y-105670000D01*
X132370000Y-112128000D02*
X132370000Y-105672000D01*
X132410000Y-112127000D02*
X132410000Y-105673000D01*
X132450000Y-112124000D02*
X132450000Y-105676000D01*
X132490000Y-107860000D02*
X132490000Y-105678000D01*
X132490000Y-112122000D02*
X132490000Y-109940000D01*
X132530000Y-107860000D02*
X132530000Y-105682000D01*
X132530000Y-112118000D02*
X132530000Y-109940000D01*
X132570000Y-107860000D02*
X132570000Y-105685000D01*
X132570000Y-112115000D02*
X132570000Y-109940000D01*
X132610000Y-107860000D02*
X132610000Y-105689000D01*
X132610000Y-112111000D02*
X132610000Y-109940000D01*
X132650000Y-107860000D02*
X132650000Y-105694000D01*
X132650000Y-112106000D02*
X132650000Y-109940000D01*
X132690000Y-107860000D02*
X132690000Y-105699000D01*
X132690000Y-112101000D02*
X132690000Y-109940000D01*
X132730000Y-107860000D02*
X132730000Y-105705000D01*
X132730000Y-112095000D02*
X132730000Y-109940000D01*
X132770000Y-107860000D02*
X132770000Y-105711000D01*
X132770000Y-112089000D02*
X132770000Y-109940000D01*
X132810000Y-107860000D02*
X132810000Y-105718000D01*
X132810000Y-112082000D02*
X132810000Y-109940000D01*
X132850000Y-107860000D02*
X132850000Y-105725000D01*
X132850000Y-112075000D02*
X132850000Y-109940000D01*
X132890000Y-107860000D02*
X132890000Y-105733000D01*
X132890000Y-112067000D02*
X132890000Y-109940000D01*
X132930000Y-107860000D02*
X132930000Y-105741000D01*
X132930000Y-112059000D02*
X132930000Y-109940000D01*
X132971000Y-107860000D02*
X132971000Y-105750000D01*
X132971000Y-112050000D02*
X132971000Y-109940000D01*
X133011000Y-107860000D02*
X133011000Y-105759000D01*
X133011000Y-112041000D02*
X133011000Y-109940000D01*
X133051000Y-107860000D02*
X133051000Y-105769000D01*
X133051000Y-112031000D02*
X133051000Y-109940000D01*
X133091000Y-107860000D02*
X133091000Y-105779000D01*
X133091000Y-112021000D02*
X133091000Y-109940000D01*
X133131000Y-107860000D02*
X133131000Y-105790000D01*
X133131000Y-112010000D02*
X133131000Y-109940000D01*
X133171000Y-107860000D02*
X133171000Y-105802000D01*
X133171000Y-111998000D02*
X133171000Y-109940000D01*
X133211000Y-107860000D02*
X133211000Y-105814000D01*
X133211000Y-111986000D02*
X133211000Y-109940000D01*
X133251000Y-107860000D02*
X133251000Y-105826000D01*
X133251000Y-111974000D02*
X133251000Y-109940000D01*
X133291000Y-107860000D02*
X133291000Y-105839000D01*
X133291000Y-111961000D02*
X133291000Y-109940000D01*
X133331000Y-107860000D02*
X133331000Y-105853000D01*
X133331000Y-111947000D02*
X133331000Y-109940000D01*
X133371000Y-107860000D02*
X133371000Y-105867000D01*
X133371000Y-111933000D02*
X133371000Y-109940000D01*
X133411000Y-107860000D02*
X133411000Y-105882000D01*
X133411000Y-111918000D02*
X133411000Y-109940000D01*
X133451000Y-107860000D02*
X133451000Y-105898000D01*
X133451000Y-111902000D02*
X133451000Y-109940000D01*
X133491000Y-107860000D02*
X133491000Y-105914000D01*
X133491000Y-111886000D02*
X133491000Y-109940000D01*
X133531000Y-107860000D02*
X133531000Y-105930000D01*
X133531000Y-111870000D02*
X133531000Y-109940000D01*
X133571000Y-107860000D02*
X133571000Y-105948000D01*
X133571000Y-111852000D02*
X133571000Y-109940000D01*
X133611000Y-107860000D02*
X133611000Y-105966000D01*
X133611000Y-111834000D02*
X133611000Y-109940000D01*
X133651000Y-107860000D02*
X133651000Y-105984000D01*
X133651000Y-111816000D02*
X133651000Y-109940000D01*
X133691000Y-107860000D02*
X133691000Y-106004000D01*
X133691000Y-111796000D02*
X133691000Y-109940000D01*
X133731000Y-107860000D02*
X133731000Y-106024000D01*
X133731000Y-111776000D02*
X133731000Y-109940000D01*
X133771000Y-107860000D02*
X133771000Y-106044000D01*
X133771000Y-111756000D02*
X133771000Y-109940000D01*
X133811000Y-107860000D02*
X133811000Y-106066000D01*
X133811000Y-111734000D02*
X133811000Y-109940000D01*
X133851000Y-107860000D02*
X133851000Y-106088000D01*
X133851000Y-111712000D02*
X133851000Y-109940000D01*
X133891000Y-107860000D02*
X133891000Y-106110000D01*
X133891000Y-111690000D02*
X133891000Y-109940000D01*
X133931000Y-107860000D02*
X133931000Y-106134000D01*
X133931000Y-111666000D02*
X133931000Y-109940000D01*
X133971000Y-107860000D02*
X133971000Y-106158000D01*
X133971000Y-111642000D02*
X133971000Y-109940000D01*
X134011000Y-107860000D02*
X134011000Y-106184000D01*
X134011000Y-111616000D02*
X134011000Y-109940000D01*
X134051000Y-107860000D02*
X134051000Y-106210000D01*
X134051000Y-111590000D02*
X134051000Y-109940000D01*
X134091000Y-107860000D02*
X134091000Y-106236000D01*
X134091000Y-111564000D02*
X134091000Y-109940000D01*
X134131000Y-107860000D02*
X134131000Y-106264000D01*
X134131000Y-111536000D02*
X134131000Y-109940000D01*
X134171000Y-107860000D02*
X134171000Y-106293000D01*
X134171000Y-111507000D02*
X134171000Y-109940000D01*
X134211000Y-107860000D02*
X134211000Y-106322000D01*
X134211000Y-111478000D02*
X134211000Y-109940000D01*
X134251000Y-107860000D02*
X134251000Y-106352000D01*
X134251000Y-111448000D02*
X134251000Y-109940000D01*
X134291000Y-107860000D02*
X134291000Y-106384000D01*
X134291000Y-111416000D02*
X134291000Y-109940000D01*
X134331000Y-107860000D02*
X134331000Y-106416000D01*
X134331000Y-111384000D02*
X134331000Y-109940000D01*
X134371000Y-107860000D02*
X134371000Y-106450000D01*
X134371000Y-111350000D02*
X134371000Y-109940000D01*
X134411000Y-107860000D02*
X134411000Y-106484000D01*
X134411000Y-111316000D02*
X134411000Y-109940000D01*
X134451000Y-107860000D02*
X134451000Y-106520000D01*
X134451000Y-111280000D02*
X134451000Y-109940000D01*
X134491000Y-107860000D02*
X134491000Y-106557000D01*
X134491000Y-111243000D02*
X134491000Y-109940000D01*
X134531000Y-107860000D02*
X134531000Y-106595000D01*
X134531000Y-111205000D02*
X134531000Y-109940000D01*
X134571000Y-111165000D02*
X134571000Y-106635000D01*
X134611000Y-111124000D02*
X134611000Y-106676000D01*
X134651000Y-111082000D02*
X134651000Y-106718000D01*
X134691000Y-111037000D02*
X134691000Y-106763000D01*
X134731000Y-110992000D02*
X134731000Y-106808000D01*
X134771000Y-110944000D02*
X134771000Y-106856000D01*
X134811000Y-110895000D02*
X134811000Y-106905000D01*
X134851000Y-110844000D02*
X134851000Y-106956000D01*
X134891000Y-110790000D02*
X134891000Y-107010000D01*
X134931000Y-110734000D02*
X134931000Y-107066000D01*
X134971000Y-110676000D02*
X134971000Y-107124000D01*
X135011000Y-110614000D02*
X135011000Y-107186000D01*
X135051000Y-110550000D02*
X135051000Y-107250000D01*
X135091000Y-110481000D02*
X135091000Y-107319000D01*
X135131000Y-110409000D02*
X135131000Y-107391000D01*
X135171000Y-110332000D02*
X135171000Y-107468000D01*
X135211000Y-110250000D02*
X135211000Y-107550000D01*
X135251000Y-110162000D02*
X135251000Y-107638000D01*
X135291000Y-110065000D02*
X135291000Y-107735000D01*
X135331000Y-109959000D02*
X135331000Y-107841000D01*
X135371000Y-109840000D02*
X135371000Y-107960000D01*
X135411000Y-109702000D02*
X135411000Y-108098000D01*
X135451000Y-109533000D02*
X135451000Y-108267000D01*
X135491000Y-109302000D02*
X135491000Y-108498000D01*
X136370000Y-108900000D02*
X137000000Y-108900000D01*
X135520000Y-108900000D02*
G75*
G02*
X128980000Y-108900000I-3270000J0D01*
G01*
X128980000Y-108900000D02*
G75*
G02*
X135520000Y-108900000I3270000J0D01*
G01*
%TO.C,S1*%
X164632400Y-49569600D02*
X164607000Y-53506600D01*
X164632400Y-53506600D02*
X174589200Y-53506600D01*
X174589200Y-49569600D02*
X164632400Y-49569600D01*
X174589200Y-53506600D02*
X174589200Y-49569600D01*
%TO.C,U1*%
X142060000Y-121290000D02*
X143710000Y-121290000D01*
X142060000Y-131570000D02*
X142060000Y-121290000D01*
X145710000Y-121290000D02*
X147360000Y-121290000D01*
X147360000Y-121290000D02*
X147360000Y-131570000D01*
X147360000Y-131570000D02*
X142060000Y-131570000D01*
X145710000Y-121290000D02*
G75*
G02*
X143710000Y-121290000I-1000000J0D01*
G01*
%TD*%
M02*
