%TF.GenerationSoftware,KiCad,Pcbnew,9.0.6*%
%TF.CreationDate,2026-01-10T10:01:34+01:00*%
%TF.ProjectId,Jumbo,4a756d62-6f2e-46b6-9963-61645f706362,rev?*%
%TF.SameCoordinates,Original*%
%TF.FileFunction,Profile,NP*%
%FSLAX46Y46*%
G04 Gerber Fmt 4.6, Leading zero omitted, Abs format (unit mm)*
G04 Created by KiCad (PCBNEW 9.0.6) date 2026-01-10 10:01:34*
%MOMM*%
%LPD*%
G01*
G04 APERTURE LIST*
%TA.AperFunction,Profile*%
%ADD10C,0.100000*%
%TD*%
G04 APERTURE END LIST*
D10*
X179512000Y-49731700D02*
X179098000Y-49408700D01*
X114549900Y-144101000D02*
X114939400Y-144321000D01*
X149328800Y-53244100D02*
X148953600Y-53167900D01*
X132919800Y-46332900D02*
X132070700Y-46021700D01*
X105558700Y-115074200D02*
X105466200Y-115699400D01*
X167678500Y-119127700D02*
X167153300Y-118949600D01*
X153797700Y-51579800D02*
X153511100Y-51826200D01*
X128267800Y-43755170D02*
X128007600Y-43731950D01*
X70328410Y-74548200D02*
X70419830Y-75191900D01*
X130912900Y-45284900D02*
X130554100Y-44905400D01*
X72733910Y-82634900D02*
X73319150Y-83802500D01*
X77007250Y-55940100D02*
X76589630Y-56291200D01*
X128149400Y-144052000D02*
X129030800Y-143603000D01*
X91074500Y-140460000D02*
X91378000Y-140865000D01*
X186871000Y-66133200D02*
X186859000Y-65489300D01*
X102082600Y-105218900D02*
X102651500Y-105104000D01*
X154069400Y-51323800D02*
X153797700Y-51579800D01*
X111394900Y-143500000D02*
X111977700Y-143504000D01*
X186831000Y-64845200D02*
X186785000Y-64201200D01*
X155850400Y-104078900D02*
X155791500Y-103862800D01*
X88669300Y-135442000D02*
X88815400Y-135930000D01*
X178282000Y-91856100D02*
X178695000Y-90486600D01*
X152917300Y-143586000D02*
X153778500Y-143859000D01*
X163231400Y-101197200D02*
X164439300Y-101338300D01*
X106388800Y-108133700D02*
X106208000Y-108744800D01*
X102783600Y-119025900D02*
X102340500Y-119021500D01*
X95292600Y-119036600D02*
X94708400Y-119277100D01*
X156873700Y-115743400D02*
X156869100Y-115291000D01*
X103643900Y-118873200D02*
X103435200Y-118934100D01*
X80275200Y-53915000D02*
X79773600Y-54151600D01*
X184575000Y-77445500D02*
X185033000Y-76234800D01*
X157719800Y-112735900D02*
X157870800Y-112292100D01*
X98443700Y-54237800D02*
X97954700Y-54048100D01*
X177542000Y-93857000D02*
X177809000Y-93199600D01*
X88043100Y-130422000D02*
X88035900Y-130926700D01*
X142859600Y-145986000D02*
X143418200Y-145951000D01*
X70453310Y-67619200D02*
X70296630Y-68696100D01*
X166065300Y-118712400D02*
X165504400Y-118657800D01*
X181064000Y-84214400D02*
X181739000Y-83174400D01*
X94223400Y-106687600D02*
X94751100Y-106687200D01*
X107780500Y-55745800D02*
X107612300Y-55951800D01*
X106315600Y-105791800D02*
X106425500Y-105984000D01*
X103435200Y-118934100D02*
X103221400Y-118979200D01*
X88103900Y-129105600D02*
X88057200Y-129763400D01*
X157225400Y-117052200D02*
X157098300Y-116787800D01*
X82308300Y-97549000D02*
X82546200Y-98272300D01*
X104368700Y-104933900D02*
X104651000Y-104945200D01*
X143198300Y-49945100D02*
X142361600Y-49593100D01*
X174333000Y-133871700D02*
X174424000Y-133280500D01*
X147565600Y-52605700D02*
X147094600Y-52318600D01*
X159882800Y-118747300D02*
X159592800Y-118677800D01*
X185465000Y-58219700D02*
X185076000Y-57241800D01*
X179916000Y-50066800D02*
X179512000Y-49731700D01*
X70527850Y-75833200D02*
X70652190Y-76471800D01*
X77984010Y-90568100D02*
X78906400Y-91760900D01*
X179857000Y-86368800D02*
X180115000Y-85806200D01*
X159592800Y-118677800D02*
X159304800Y-118592600D01*
X99627700Y-118474500D02*
X98999700Y-118427400D01*
X118094400Y-48928300D02*
X117710900Y-49186200D01*
X157637800Y-101272100D02*
X157945000Y-101158100D01*
X73700390Y-59545700D02*
X73396850Y-60000600D01*
X141180800Y-145979000D02*
X141740300Y-146001000D01*
X106186300Y-105612800D02*
X106315600Y-105791800D01*
X166850900Y-101458800D02*
X167448600Y-101431200D01*
X169817000Y-46116700D02*
X168974000Y-46099100D01*
X105870600Y-105303300D02*
X106037900Y-105449200D01*
X96499900Y-118670600D02*
X95890600Y-118834100D01*
X129890500Y-143117000D02*
X130726600Y-142596000D01*
X159553300Y-100862200D02*
X159879500Y-100853500D01*
X71509250Y-79611800D02*
X71725860Y-80227000D01*
X174087000Y-135042000D02*
X174221000Y-134459100D01*
X91599300Y-121465200D02*
X91144800Y-121944500D01*
X127743900Y-43729330D02*
X127269300Y-43759260D01*
X158073800Y-110947200D02*
X158067900Y-110496900D01*
X117710900Y-49186200D02*
X117315500Y-49428200D01*
X156916900Y-114842800D02*
X157010900Y-114401000D01*
X172327000Y-123003400D02*
X172008000Y-122547500D01*
X91794900Y-106373200D02*
X92635700Y-106527400D01*
X171856000Y-99990900D02*
X172591000Y-99590300D01*
X161040000Y-145502000D02*
X161446900Y-145539000D01*
X151517000Y-143191000D02*
X151787600Y-143258000D01*
X73396850Y-60000600D02*
X73106370Y-60464500D01*
X97954700Y-54048100D02*
X97460100Y-53873100D01*
X142361600Y-49593100D02*
X141517300Y-49259500D01*
X157001400Y-116503200D02*
X156937300Y-116198100D01*
X150127800Y-143221000D02*
X150401900Y-143167000D01*
X124448800Y-145434000D02*
X125396100Y-145155000D01*
X88057200Y-129763400D02*
X88043100Y-130422000D01*
X159304800Y-118592600D02*
X159021300Y-118491300D01*
X186807000Y-68061900D02*
X186844000Y-67419700D01*
X177809000Y-93199600D02*
X178055000Y-92532000D01*
X186100000Y-60223900D02*
X185807000Y-59214800D01*
X164687200Y-145235000D02*
X165475100Y-145005000D01*
X119735900Y-47364900D02*
X119453700Y-47717500D01*
X110223200Y-53048300D02*
X109777500Y-53391900D01*
X123490300Y-145665000D02*
X124448800Y-145434000D01*
X85154900Y-102651900D02*
X85765700Y-103251100D01*
X135758300Y-144736000D02*
X136276200Y-144943000D01*
X81022800Y-94847500D02*
X81387800Y-95497900D01*
X169716000Y-142535000D02*
X170305000Y-141966000D01*
X159182400Y-48384800D02*
X158510900Y-48693600D01*
X156937300Y-116198100D02*
X156897700Y-115970600D01*
X158126700Y-145012000D02*
X158577400Y-145043000D01*
X157870800Y-112292100D02*
X157978200Y-111845500D01*
X127743900Y-43729330D02*
X127743900Y-43729330D01*
X182348000Y-82096500D02*
X182958000Y-80966100D01*
X151787600Y-143258000D02*
X152049600Y-143350000D01*
X134633200Y-46923700D02*
X132919800Y-46332900D01*
X174494000Y-132686400D02*
X174542000Y-132090100D01*
X98999700Y-118427400D02*
X98370400Y-118424500D01*
X178055000Y-92532000D02*
X178282000Y-91856100D01*
X100309400Y-145504000D02*
X100908800Y-145492000D01*
X110812100Y-143530000D02*
X111394900Y-143500000D01*
X186866000Y-66776800D02*
X186871000Y-66133200D01*
X89547000Y-137831000D02*
X89766100Y-138290000D01*
X89963700Y-123524200D02*
X89631300Y-124091900D01*
X93259100Y-52723000D02*
X92169300Y-52528500D01*
X173653000Y-98929400D02*
X173990000Y-98687900D01*
X108581400Y-54579000D02*
X108239000Y-55034600D01*
X148550400Y-144263000D02*
X148721100Y-144045000D01*
X166246300Y-144719000D02*
X166997000Y-144379000D01*
X150960900Y-143130000D02*
X151240600Y-143148000D01*
X127743900Y-43729330D02*
X127743900Y-43729330D01*
X73955650Y-84942400D02*
X74641270Y-86052300D01*
X82683400Y-98683200D02*
X82836700Y-99086600D01*
X92083800Y-121012700D02*
X91599300Y-121465200D01*
X172561000Y-138918000D02*
X172842000Y-138392000D01*
X88421700Y-134453400D02*
X88538000Y-134950000D01*
X145628600Y-145618000D02*
X146171900Y-145487000D01*
X105883200Y-110620600D02*
X105825700Y-111255700D01*
X163358500Y-46909000D02*
X162647400Y-47108700D01*
X149704100Y-53282400D02*
X149328800Y-53244100D01*
X155791500Y-103862800D02*
X155749200Y-103646800D01*
X71261730Y-64438300D02*
X70936480Y-65486200D01*
X106046200Y-56884600D02*
X105788200Y-56934600D01*
X148315300Y-52959900D02*
X148058600Y-52854000D01*
X88320600Y-133954200D02*
X88421700Y-134453400D01*
X78906400Y-91760900D02*
X79798300Y-92970000D01*
X160841400Y-100917000D02*
X162030100Y-101045800D01*
X186686000Y-69342800D02*
X186754000Y-68703000D01*
X129262600Y-44034480D02*
X129021900Y-43938640D01*
X77057020Y-89376600D02*
X77984010Y-90568100D01*
X166450700Y-46271400D02*
X165618700Y-46401600D01*
X167448600Y-101431200D02*
X168042800Y-101372500D01*
X99116100Y-145444000D02*
X99711400Y-145488000D01*
X70792580Y-77107200D02*
X70948750Y-77739300D01*
X170305000Y-141966000D02*
X170850000Y-141359000D01*
X165647700Y-101436400D02*
X166250400Y-101459100D01*
X139810700Y-48636200D02*
X138088200Y-48053600D01*
X119145600Y-48049000D02*
X118814500Y-48360700D01*
X97460100Y-53873100D02*
X96958800Y-53715200D01*
X108953800Y-54154900D02*
X108581400Y-54579000D01*
X105788200Y-56934600D02*
X105527100Y-56961300D01*
X118463200Y-48653400D02*
X118094400Y-48928300D01*
X94337800Y-52963700D02*
X93259100Y-52723000D01*
X173756000Y-136190000D02*
X173932000Y-135619000D01*
X93880900Y-143361000D02*
X94291300Y-143662000D01*
X127248400Y-144462000D02*
X128149400Y-144052000D01*
X106635300Y-106617000D02*
X106664400Y-106839300D01*
X173148000Y-46578600D02*
X172326000Y-46403100D01*
X132070700Y-46021700D02*
X131228300Y-45696100D01*
X162978400Y-118904400D02*
X162348200Y-118949000D01*
X157505400Y-113132800D02*
X157719800Y-112735900D01*
X106568400Y-107724700D02*
X106489800Y-107933900D01*
X173409000Y-125079600D02*
X173169000Y-124533300D01*
X157193100Y-49362800D02*
X156547900Y-49722600D01*
X157621100Y-108266000D02*
X157469100Y-107829300D01*
X147094600Y-52318600D02*
X146639100Y-52004400D01*
X88820900Y-125892200D02*
X88613700Y-126518600D01*
X110229400Y-143590000D02*
X110812100Y-143530000D01*
X146639100Y-52004400D02*
X145749100Y-51342400D01*
X83602000Y-100619300D02*
X83829000Y-100981200D01*
X153210700Y-52060900D02*
X152897600Y-52281600D01*
X75411280Y-57424000D02*
X75043590Y-57826300D01*
X172907000Y-123996800D02*
X172622000Y-123470900D01*
X181061000Y-51141200D02*
X180690000Y-50772000D01*
X121960400Y-45618000D02*
X121501200Y-45698200D01*
X165043800Y-101394800D02*
X165647700Y-101436400D01*
X92370300Y-142012000D02*
X92728100Y-142369000D01*
X107225300Y-56313600D02*
X107010200Y-56467600D01*
X70296630Y-68696100D02*
X70226610Y-69347700D01*
X94140600Y-119554500D02*
X93591800Y-119867800D01*
X131228300Y-45696100D02*
X130912900Y-45284900D01*
X106208000Y-108744800D02*
X106067800Y-109363800D01*
X75791560Y-57033700D02*
X75411280Y-57424000D01*
X83932400Y-52710400D02*
X83396900Y-52835500D01*
X186859000Y-65489300D02*
X186831000Y-64845200D01*
X150078400Y-53285000D02*
X149704100Y-53282400D01*
X164439300Y-101338300D02*
X165043800Y-101394800D01*
X179076000Y-89105700D02*
X179454000Y-87728200D01*
X104651000Y-104945200D02*
X104930700Y-104971300D01*
X120567700Y-146052000D02*
X121547600Y-145977000D01*
X116911100Y-49655300D02*
X116086000Y-50069000D01*
X87104800Y-104321000D02*
X87825700Y-104788200D01*
X90720600Y-122448600D02*
X90326800Y-122975800D01*
X119989500Y-46990500D02*
X119735900Y-47364900D01*
X104720600Y-118119600D02*
X104568300Y-118296400D01*
X148404800Y-144505000D02*
X148550400Y-144263000D01*
X105626500Y-114443500D02*
X105558700Y-115074200D01*
X92026000Y-141641000D02*
X92370300Y-142012000D01*
X159033000Y-145048000D02*
X159429000Y-145176000D01*
X135248300Y-144509000D02*
X135758300Y-144736000D01*
X157144500Y-113967400D02*
X157311500Y-113544000D01*
X103224900Y-105011000D02*
X103798700Y-104950800D01*
X94708400Y-119277100D02*
X94140600Y-119554500D01*
X93064300Y-120215900D02*
X92560800Y-120597900D01*
X88575800Y-105207700D02*
X89351500Y-105577800D01*
X157469100Y-107829300D02*
X157303100Y-107397500D01*
X114939400Y-144321000D02*
X115312800Y-144568000D01*
X151240600Y-143148000D02*
X151517000Y-143191000D01*
X119453700Y-47717500D02*
X119145600Y-48049000D01*
X104227400Y-118585600D02*
X104041300Y-118700000D01*
X155726600Y-103431600D02*
X155726700Y-103217800D01*
X130554100Y-44905400D02*
X130156400Y-44565220D01*
X70134000Y-71954900D02*
X70156370Y-72605300D01*
X155287200Y-50491300D02*
X154672700Y-50899700D01*
X107903100Y-144044000D02*
X109064900Y-143782000D01*
X105002200Y-56941100D02*
X104742100Y-56892400D01*
X174221000Y-134459100D02*
X174333000Y-133871700D01*
X169631000Y-120183400D02*
X169167000Y-119872500D01*
X117618000Y-145933000D02*
X118109100Y-145990000D01*
X174556000Y-130297100D02*
X174518000Y-129700900D01*
X113723400Y-143757000D02*
X114144400Y-143912000D01*
X116086000Y-50069000D02*
X115258100Y-50435100D01*
X70175600Y-69999700D02*
X70143350Y-70651700D01*
X168421000Y-143549000D02*
X169087000Y-143064000D01*
X110687700Y-52726700D02*
X110223200Y-53048300D01*
X70156370Y-72605300D02*
X70196410Y-73254500D01*
X84588300Y-102012300D02*
X84865900Y-102337000D01*
X186785000Y-64201200D02*
X186722000Y-63557400D01*
X105181600Y-116928400D02*
X104976400Y-117529400D01*
X88108600Y-132444000D02*
X88163900Y-132948900D01*
X185033000Y-76234800D02*
X185447000Y-75008300D01*
X168042800Y-101372500D02*
X168633000Y-101278400D01*
X92728100Y-142369000D02*
X93099200Y-142714000D01*
X145080900Y-145730000D02*
X145628600Y-145618000D01*
X169217000Y-101144800D02*
X169796000Y-100967700D01*
X155497200Y-144428000D02*
X156362800Y-144680000D01*
X162030100Y-101045800D02*
X163231400Y-101197200D01*
X76151200Y-88171400D02*
X77057020Y-89376600D01*
X157963700Y-109598200D02*
X157871400Y-109151200D01*
X82836700Y-99086600D02*
X83005700Y-99482100D01*
X159861800Y-48093500D02*
X159182400Y-48384800D01*
X180690000Y-50772000D02*
X180308000Y-50413700D01*
X174457000Y-129106800D02*
X174374000Y-128515700D01*
X126329900Y-144830000D02*
X127248400Y-144462000D01*
X120211600Y-46593100D02*
X119989500Y-46990500D01*
X158067900Y-110496900D02*
X158030200Y-110047000D01*
X96232900Y-144746000D02*
X96792100Y-144954000D01*
X77437180Y-55602900D02*
X77007250Y-55940100D01*
X113142100Y-143628000D02*
X113723400Y-143757000D01*
X156798900Y-144789000D02*
X157237900Y-144882000D01*
X160230100Y-145376000D02*
X160634200Y-145448000D01*
X102105300Y-145393000D02*
X102699600Y-145308000D01*
X159429000Y-145176000D02*
X159828300Y-145285000D01*
X140065800Y-145880000D02*
X140622400Y-145939000D01*
X149860700Y-143300000D02*
X150127800Y-143221000D01*
X108239000Y-55034600D02*
X107929400Y-55524300D01*
X180729000Y-84734900D02*
X181064000Y-84214400D01*
X70936480Y-65486200D02*
X70666800Y-66547900D01*
X157847600Y-49019700D02*
X157193100Y-49362800D01*
X174374000Y-128515700D02*
X174269000Y-127928400D01*
X71956890Y-80837300D02*
X72202090Y-81442200D01*
X158901300Y-100928300D02*
X159226800Y-100886900D01*
X157978200Y-111845500D02*
X158044900Y-111397000D01*
X168189800Y-119342400D02*
X167678500Y-119127700D01*
X91071100Y-52381800D02*
X89967600Y-52284600D01*
X148721100Y-144045000D02*
X148914300Y-143849000D01*
X109646900Y-143675000D02*
X110229400Y-143590000D01*
X168686000Y-119591400D02*
X168189800Y-119342400D01*
X104930700Y-104971300D02*
X105207400Y-105013600D01*
X84069400Y-101334200D02*
X84322600Y-101678000D01*
X148058600Y-52854000D02*
X147565600Y-52605700D01*
X174759000Y-47053500D02*
X173959000Y-46795200D01*
X180409000Y-85263500D02*
X180729000Y-84734900D01*
X94291300Y-143662000D02*
X94714700Y-143948000D01*
X152049600Y-143350000D02*
X152917300Y-143586000D01*
X89342300Y-137365000D02*
X89547000Y-137831000D01*
X122855000Y-45357200D02*
X122411200Y-45502100D01*
X95150900Y-144218000D02*
X95685300Y-144501000D01*
X98525000Y-145370000D02*
X99116100Y-145444000D01*
X86653900Y-52307100D02*
X85558000Y-52424800D01*
X170850000Y-141359000D02*
X171233000Y-140899000D01*
X143418200Y-145951000D02*
X143975000Y-145896000D01*
X155912400Y-50098900D02*
X155287200Y-50491300D01*
X178237000Y-48800700D02*
X177791000Y-48516400D01*
X174574000Y-130894600D02*
X174556000Y-130297100D01*
X106672500Y-107063500D02*
X106659400Y-107287300D01*
X96449900Y-53577000D02*
X95402300Y-53248900D01*
X157098300Y-116787800D02*
X157001400Y-116503200D01*
X120550500Y-45725400D02*
X120399600Y-46171700D01*
X70226610Y-69347700D02*
X70175600Y-69999700D01*
X179454000Y-87728200D02*
X179857000Y-86368800D01*
X75373840Y-87129400D02*
X76151200Y-88171400D01*
X92169300Y-52528500D02*
X91071100Y-52381800D01*
X182057000Y-82643100D02*
X182348000Y-82096500D01*
X150680500Y-143136000D02*
X150960900Y-143130000D01*
X148579800Y-53051600D02*
X148315300Y-52959900D01*
X160773500Y-118893100D02*
X160458500Y-118840600D01*
X150819400Y-53191800D02*
X150450600Y-53254000D01*
X172260000Y-139433000D02*
X172561000Y-138918000D01*
X103289200Y-145202000D02*
X103872600Y-145075000D01*
X173340000Y-137309000D02*
X173559000Y-136753000D01*
X107929400Y-55524300D02*
X107780500Y-55745800D01*
X159879500Y-100853500D02*
X160203800Y-100860100D01*
X128007600Y-43731950D02*
X127743900Y-43729330D01*
X89631300Y-124091900D02*
X89329900Y-124677000D01*
X160458500Y-118840600D02*
X159882800Y-118747300D01*
X157756200Y-108706900D02*
X157621100Y-108266000D01*
X94714700Y-143948000D02*
X95150900Y-144218000D01*
X174936000Y-97881900D02*
X175223000Y-97581700D01*
X159021300Y-118491300D02*
X158745000Y-118373500D01*
X85013400Y-52505200D02*
X84471400Y-52600300D01*
X156252000Y-102149100D02*
X156504400Y-101930700D01*
X112560100Y-143545000D02*
X113142100Y-143628000D01*
X177062000Y-48084900D02*
X176312000Y-47697700D01*
X157762100Y-117728900D02*
X157559800Y-117522400D01*
X186641000Y-62914200D02*
X186542000Y-62271700D01*
X111168300Y-52424900D02*
X110687700Y-52726700D01*
X90509000Y-139619000D02*
X90784800Y-140044000D01*
X125463600Y-44246740D02*
X125027200Y-44427640D01*
X70129570Y-71303600D02*
X70134000Y-71954900D01*
X118814500Y-48360700D02*
X118463200Y-48653400D01*
X165475100Y-145005000D02*
X166246300Y-144719000D01*
X171596000Y-140424000D02*
X171938000Y-139935000D01*
X156869100Y-115291000D02*
X156916900Y-114842800D01*
X106745400Y-144344000D02*
X107903100Y-144044000D01*
X185814000Y-73768000D02*
X186131000Y-72515500D01*
X104041300Y-118700000D02*
X103846400Y-118795500D01*
X91695200Y-141259000D02*
X92026000Y-141641000D01*
X136801300Y-145133000D02*
X137333000Y-145304000D01*
X157984300Y-117916800D02*
X157762100Y-117728900D01*
X88035900Y-130926700D02*
X88044500Y-131432300D01*
X90149100Y-105896600D02*
X90964800Y-106162400D01*
X81295800Y-53491100D02*
X80782700Y-53694900D01*
X129030800Y-143603000D02*
X129890500Y-143117000D01*
X80782700Y-53694900D02*
X80275200Y-53915000D01*
X164794700Y-46567200D02*
X164074400Y-46728400D01*
X103242900Y-56369800D02*
X102272200Y-55971000D01*
X105782900Y-111893300D02*
X105714700Y-113171200D01*
X100975700Y-105471700D02*
X102082600Y-105218900D01*
X129724400Y-44272320D02*
X129496900Y-44146030D01*
X132841700Y-143103000D02*
X133301600Y-143421000D01*
X92560800Y-120597900D02*
X92083800Y-121012700D01*
X116332900Y-145444000D02*
X116638400Y-145770000D01*
X161446900Y-145539000D02*
X161854600Y-145558000D01*
X116638400Y-145770000D02*
X117127700Y-145859000D01*
X70948750Y-77739300D02*
X71120430Y-78367600D01*
X152897600Y-52281600D02*
X152573100Y-52486300D01*
X171495000Y-46268000D02*
X170658000Y-46172800D01*
X106659400Y-107287300D02*
X106624800Y-107508400D01*
X156547900Y-49722600D02*
X155912400Y-50098900D01*
X127269300Y-43759260D02*
X126805600Y-43832550D01*
X84471400Y-52600300D02*
X83932400Y-52710400D01*
X151542500Y-52981800D02*
X151183800Y-53100300D01*
X157380100Y-117297000D02*
X157225400Y-117052200D01*
X97893700Y-106268900D02*
X98929100Y-106022400D01*
X186604000Y-69981200D02*
X186686000Y-69342800D01*
X185447000Y-75008300D02*
X185814000Y-73768000D01*
X72314040Y-61904900D02*
X72076550Y-62399700D01*
X93099200Y-142714000D02*
X93483500Y-143044000D01*
X81387800Y-95497900D02*
X81725900Y-96163600D01*
X106782900Y-56602600D02*
X106545300Y-56717700D01*
X168130300Y-46119500D02*
X167288600Y-46177100D01*
X145301800Y-51018400D02*
X144844500Y-50714800D01*
X76184370Y-56656000D02*
X75791560Y-57033700D01*
X176572000Y-95749400D02*
X176926000Y-95133700D01*
X152238300Y-52672700D02*
X151894400Y-52838600D01*
X131536900Y-142042000D02*
X131958600Y-142414000D01*
X85765700Y-103251100D02*
X86416900Y-103808000D01*
X103735900Y-56549900D02*
X103242900Y-56369800D01*
X156897700Y-115970600D02*
X156873700Y-115743400D01*
X72829030Y-60936800D02*
X72564890Y-61417100D01*
X93165500Y-106609900D02*
X93694800Y-106662600D01*
X111662300Y-52140400D02*
X111168300Y-52424900D01*
X173990000Y-98687900D02*
X174318000Y-98433700D01*
X106624800Y-107508400D02*
X106568400Y-107724700D01*
X158030200Y-110047000D02*
X157963700Y-109598200D01*
X79798300Y-92970000D02*
X80224800Y-93585500D01*
X105825700Y-111255700D02*
X105782900Y-111893300D01*
X70143350Y-70651700D02*
X70129570Y-71303600D01*
X170913000Y-121272200D02*
X170505000Y-120885500D01*
X148914300Y-143849000D02*
X149127500Y-143677000D01*
X121501200Y-45698200D02*
X121031700Y-45736200D01*
X156559600Y-105735500D02*
X156385000Y-105342600D01*
X138413300Y-145590000D02*
X138960600Y-145705000D01*
X186844000Y-67419700D02*
X186866000Y-66776800D01*
X148953600Y-53167900D02*
X148579800Y-53051600D01*
X174542000Y-132090100D02*
X174569000Y-131492600D01*
X140622400Y-145939000D02*
X141180800Y-145979000D01*
X96958800Y-53715200D02*
X96449900Y-53577000D01*
X143975000Y-145896000D02*
X144529500Y-145823000D01*
X170505000Y-120885500D02*
X170077000Y-120521800D01*
X102699600Y-145308000D02*
X103289200Y-145202000D01*
X86416900Y-103808000D02*
X87104800Y-104321000D01*
X71725860Y-80227000D02*
X71956890Y-80837300D01*
X137870500Y-145456000D02*
X138413300Y-145590000D01*
X147768200Y-144977000D02*
X148286900Y-144768000D01*
X125904300Y-44082880D02*
X125463600Y-44246740D01*
X93591800Y-119867800D02*
X93064300Y-120215900D01*
X72202090Y-81442200D02*
X72733910Y-82634900D01*
X176181000Y-96347500D02*
X176572000Y-95749400D01*
X105961700Y-109989600D02*
X105883200Y-110620600D01*
X103872600Y-145075000D02*
X104448400Y-144930000D01*
X90247200Y-139184000D02*
X90509000Y-139619000D01*
X162647400Y-47108700D02*
X161941700Y-47327300D01*
X83829000Y-100981200D02*
X84069400Y-101334200D01*
X164871800Y-118704500D02*
X164240000Y-118769500D01*
X133301600Y-143421000D02*
X133773000Y-143720000D01*
X177249000Y-94502300D02*
X177542000Y-93857000D01*
X173306000Y-99159400D02*
X173653000Y-98929400D01*
X186395000Y-71252600D02*
X186604000Y-69981200D01*
X113196000Y-51367200D02*
X112166700Y-51870900D01*
X83189900Y-99869500D02*
X83388800Y-100248700D01*
X162262500Y-145561000D02*
X162670100Y-145546000D01*
X79773600Y-54151600D02*
X79278300Y-54405100D01*
X173559000Y-136753000D02*
X173756000Y-136190000D01*
X82033800Y-96846700D02*
X82308300Y-97549000D01*
X107010200Y-56467600D02*
X106782900Y-56602600D01*
X132393800Y-142767000D02*
X132841700Y-143103000D01*
X181770000Y-51910900D02*
X181421000Y-51521000D01*
X162348200Y-118949000D02*
X161718300Y-118961600D01*
X144529500Y-145823000D02*
X145080900Y-145730000D01*
X141517300Y-49259500D02*
X139810700Y-48636200D01*
X175751000Y-96926300D02*
X176181000Y-96347500D01*
X151894400Y-52838600D02*
X151542500Y-52981800D01*
X128775500Y-43859490D02*
X128524000Y-43798010D01*
X130726600Y-142596000D02*
X131536900Y-142042000D01*
X106489800Y-107933900D02*
X106388800Y-108133700D01*
X104235200Y-56713600D02*
X103735900Y-56549900D01*
X141740300Y-146001000D02*
X142300100Y-146003000D01*
X89152000Y-136892000D02*
X89342300Y-137365000D01*
X70253840Y-73902200D02*
X70328410Y-74548200D01*
X181739000Y-83174400D02*
X182057000Y-82643100D01*
X105264500Y-56963800D02*
X105002200Y-56941100D01*
X105714700Y-113171200D02*
X105626500Y-114443500D01*
X158223900Y-118086600D02*
X157984300Y-117916800D01*
X95890600Y-118834100D02*
X95292600Y-119036600D01*
X170369000Y-100743000D02*
X171856000Y-99990900D01*
X144026400Y-50318100D02*
X143198300Y-49945100D01*
X90964800Y-106162400D02*
X91794900Y-106373200D01*
X100251800Y-118566800D02*
X99627700Y-118474500D01*
X180115000Y-85806200D02*
X180409000Y-85263500D01*
X177791000Y-48516400D02*
X177062000Y-48084900D01*
X120399600Y-46171700D02*
X120211600Y-46593100D01*
X88438100Y-127154900D02*
X88294500Y-127799500D01*
X106545300Y-56717700D02*
X106299100Y-56811900D01*
X107426600Y-56141400D02*
X107225300Y-56313600D01*
X156362800Y-144680000D02*
X156798900Y-144789000D01*
X145749100Y-51342400D02*
X145301800Y-51018400D01*
X106299100Y-56811900D02*
X106046200Y-56884600D01*
X156941400Y-106552000D02*
X156559600Y-105735500D01*
X178673000Y-49098200D02*
X178237000Y-48800700D01*
X176926000Y-95133700D02*
X177249000Y-94502300D01*
X77879320Y-55280400D02*
X77437180Y-55602900D01*
X105480500Y-105073600D02*
X105684700Y-105177400D01*
X83005700Y-99482100D02*
X83189900Y-99869500D01*
X170658000Y-46172800D02*
X169817000Y-46116700D01*
X99408600Y-54650600D02*
X98443700Y-54237800D01*
X124161300Y-44814210D02*
X123293600Y-45189900D01*
X184640000Y-56284300D02*
X184158000Y-55350100D01*
X90784800Y-140044000D02*
X91074500Y-140460000D01*
X125396100Y-145155000D02*
X126329900Y-144830000D01*
X73106370Y-60464500D02*
X72829030Y-60936800D01*
X72076550Y-62399700D02*
X71641960Y-63408100D01*
X164288200Y-145328000D02*
X164687200Y-145235000D01*
X104448400Y-144930000D02*
X105593300Y-144650000D01*
X175543000Y-47354100D02*
X174759000Y-47053500D01*
X161941700Y-47327300D02*
X161241900Y-47564500D01*
X97939600Y-145264000D02*
X98525000Y-145370000D01*
X148286900Y-144768000D02*
X148404800Y-144505000D01*
X131958600Y-142414000D02*
X132393800Y-142767000D01*
X165618700Y-46401600D02*
X164794700Y-46567200D01*
X88976400Y-136414000D02*
X89152000Y-136892000D01*
X102340500Y-119021500D02*
X101902100Y-118974000D01*
X99711400Y-145488000D02*
X100309400Y-145504000D01*
X160634200Y-145448000D02*
X161040000Y-145502000D01*
X106515600Y-106187100D02*
X106585600Y-106398900D01*
X73319150Y-83802500D02*
X73955650Y-84942400D01*
X161241900Y-47564500D02*
X160548400Y-47819900D01*
X90326800Y-122975800D02*
X89963700Y-123524200D01*
X158745000Y-118373500D02*
X158478300Y-118238700D01*
X88861600Y-52238700D02*
X87756100Y-52245600D01*
X169796000Y-100967700D02*
X170369000Y-100743000D01*
X102651500Y-105104000D02*
X103224900Y-105011000D01*
X74016910Y-59100400D02*
X73700390Y-59545700D01*
X161854600Y-145558000D02*
X162262500Y-145561000D01*
X71307360Y-78991900D02*
X71509250Y-79611800D01*
X186542000Y-62271700D02*
X186346000Y-61244000D01*
X88815400Y-135930000D02*
X88976400Y-136414000D01*
X128524000Y-43798010D02*
X128267800Y-43755170D01*
X157338700Y-101405700D02*
X157637800Y-101272100D01*
X174633000Y-98165500D02*
X174936000Y-97881900D01*
X168974000Y-46099100D02*
X168130300Y-46119500D01*
X166997000Y-144379000D02*
X167723200Y-143988000D01*
X149603300Y-143402000D02*
X149860700Y-143300000D01*
X105593300Y-144650000D02*
X106745400Y-144344000D01*
X101478300Y-118891400D02*
X100869500Y-118705500D01*
X109353400Y-53760000D02*
X108953800Y-54154900D01*
X157945000Y-101158100D02*
X158259000Y-101063300D01*
X173626000Y-125634900D02*
X173409000Y-125079600D01*
X71641960Y-63408100D02*
X71261730Y-64438300D01*
X156006200Y-104509100D02*
X155850400Y-104078900D01*
X115669800Y-144839000D02*
X116009900Y-145132000D01*
X74346340Y-58665000D02*
X74016910Y-59100400D01*
X157303100Y-107397500D02*
X156941400Y-106552000D01*
X89329900Y-124677000D02*
X89059700Y-125277800D01*
X79278300Y-54405100D02*
X78800000Y-54680900D01*
X88183000Y-128450300D02*
X88103900Y-129105600D01*
X164074400Y-46728400D02*
X163358500Y-46909000D01*
X168633000Y-101278400D02*
X169217000Y-101144800D01*
X107612300Y-55951800D02*
X107426600Y-56141400D01*
X104568300Y-118296400D02*
X104403500Y-118451500D01*
X105466200Y-115699400D02*
X105342700Y-116318000D01*
X183534000Y-79813000D02*
X184074000Y-78638900D01*
X171938000Y-139935000D02*
X172260000Y-139433000D01*
X129496900Y-44146030D02*
X129262600Y-44034480D01*
X165504400Y-118657800D02*
X164871800Y-118704500D01*
X89766100Y-138290000D02*
X89999600Y-138741000D01*
X155726700Y-103217800D02*
X155752600Y-103006200D01*
X157680300Y-144958000D02*
X158126700Y-145012000D01*
X106067800Y-109363800D02*
X105961700Y-109989600D01*
X133773000Y-143720000D02*
X134255000Y-144002000D01*
X98929100Y-106022400D02*
X99956800Y-105751000D01*
X88044500Y-131432300D02*
X88068700Y-131938200D01*
X122411200Y-45502100D02*
X121960400Y-45618000D01*
X174569000Y-131492600D02*
X174574000Y-130894600D01*
X119584700Y-146071000D02*
X120567700Y-146052000D01*
X166250400Y-101459100D02*
X166850900Y-101458800D01*
X186131000Y-72515500D02*
X186395000Y-71252600D01*
X70652190Y-76471800D02*
X70792580Y-77107200D01*
X154672700Y-50899700D02*
X154069400Y-51323800D01*
X97118000Y-118547100D02*
X96499900Y-118670600D01*
X105527100Y-56961300D02*
X105264500Y-56963800D01*
X186346000Y-61244000D02*
X186100000Y-60223900D01*
X89967600Y-52284600D02*
X88861600Y-52238700D01*
X87756100Y-52245600D02*
X86653900Y-52307100D01*
X169087000Y-143064000D02*
X169716000Y-142535000D01*
X144844500Y-50714800D02*
X144026400Y-50318100D01*
X105342700Y-116318000D02*
X105181600Y-116928400D01*
X153511100Y-51826200D02*
X153210700Y-52060900D01*
X174318000Y-98433700D02*
X174633000Y-98165500D01*
X100908800Y-145492000D02*
X101507900Y-145455000D01*
X101902100Y-118974000D02*
X101478300Y-118891400D01*
X95278000Y-106663400D02*
X95803700Y-106618400D01*
X88538000Y-134950000D02*
X88669300Y-135442000D01*
X109064900Y-143782000D02*
X109646900Y-143675000D01*
X178695000Y-90486600D02*
X179076000Y-89105700D01*
X96851600Y-106473200D02*
X97893700Y-106268900D01*
X118600800Y-146032000D02*
X119584700Y-146071000D01*
X76589630Y-56291200D02*
X76184370Y-56656000D01*
X100869500Y-118705500D02*
X100251800Y-118566800D01*
X103798700Y-104950800D02*
X104368700Y-104933900D01*
X179098000Y-49408700D02*
X178673000Y-49098200D01*
X104742100Y-56892400D02*
X104485800Y-56816900D01*
X82546200Y-98272300D02*
X82683400Y-98683200D01*
X171665000Y-122105400D02*
X171300000Y-121679600D01*
X126351100Y-43942620D02*
X125904300Y-44082880D01*
X175496000Y-97263600D02*
X175751000Y-96926300D01*
X122522500Y-145847000D02*
X123490300Y-145665000D01*
X78333610Y-54972900D02*
X77879320Y-55280400D01*
X156770600Y-101734400D02*
X157049200Y-101559500D01*
X89351500Y-105577800D02*
X90149100Y-105896600D01*
X146710000Y-145336000D02*
X147242300Y-145166000D01*
X89059700Y-125277800D02*
X88820900Y-125892200D01*
X174518000Y-129700900D02*
X174457000Y-129106800D01*
X88294500Y-127799500D02*
X88183000Y-128450300D01*
X126805600Y-43832550D02*
X126351100Y-43942620D01*
X70196410Y-73254500D02*
X70253840Y-73902200D01*
X95803700Y-106618400D02*
X96328300Y-106554300D01*
X155752600Y-103006200D02*
X155807200Y-102797300D01*
X176312000Y-47697700D02*
X175543000Y-47354100D01*
X96792100Y-144954000D02*
X97361500Y-145126000D01*
X81725900Y-96163600D02*
X82033800Y-96846700D01*
X138088200Y-48053600D02*
X134633200Y-46923700D01*
X171300000Y-121679600D02*
X170913000Y-121272200D01*
X129944400Y-44412380D02*
X129724400Y-44272320D01*
X185076000Y-57241800D02*
X184640000Y-56284300D01*
X115258100Y-50435100D02*
X113196000Y-51367200D01*
X172008000Y-122547500D02*
X171665000Y-122105400D01*
X150450600Y-53254000D02*
X150078400Y-53285000D01*
X157010900Y-114401000D02*
X157144500Y-113967400D01*
X174142000Y-127345900D02*
X173992000Y-126768800D01*
X118109100Y-145990000D02*
X118600800Y-146032000D01*
X91144800Y-121944500D02*
X90720600Y-122448600D01*
X75043590Y-57826300D02*
X74688590Y-58240200D01*
X106585600Y-106398900D02*
X106635300Y-106617000D01*
X173959000Y-46795200D02*
X173148000Y-46578600D01*
X157871400Y-109151200D02*
X157756200Y-108706900D01*
X82865100Y-52975900D02*
X82337400Y-53131900D01*
X159828300Y-145285000D02*
X160230100Y-145376000D01*
X101314900Y-55537700D02*
X100363000Y-55090700D01*
X134255000Y-144002000D02*
X134747000Y-144265000D01*
X88234600Y-133452500D02*
X88320600Y-133954200D01*
X70419830Y-75191900D02*
X70527850Y-75833200D01*
X156014800Y-102390400D02*
X156252000Y-102149100D01*
X156192500Y-104932100D02*
X156006200Y-104509100D01*
X82337400Y-53131900D02*
X81814200Y-53303500D01*
X83388800Y-100248700D02*
X83602000Y-100619300D01*
X155749200Y-103646800D02*
X155726600Y-103431600D01*
X101507900Y-145455000D02*
X102105300Y-145393000D01*
X80224800Y-93585500D02*
X80634100Y-94210700D01*
X160548400Y-47819900D02*
X159861800Y-48093500D01*
X172622000Y-123470900D02*
X172327000Y-123003400D01*
X167153300Y-118949600D02*
X166615200Y-118810400D01*
X99956800Y-105751000D02*
X100975700Y-105471700D01*
X117127700Y-145859000D02*
X117618000Y-145933000D01*
X97361500Y-145126000D02*
X97939600Y-145264000D01*
X159226800Y-100886900D02*
X159553300Y-100862200D01*
X155893600Y-102591800D02*
X156014800Y-102390400D01*
X173992000Y-126768800D02*
X173820000Y-126198200D01*
X184158000Y-55350100D02*
X183629000Y-54442600D01*
X155807200Y-102797300D02*
X155893600Y-102591800D01*
X149358000Y-143528000D02*
X149603300Y-143402000D01*
X151183800Y-53100300D02*
X150819400Y-53191800D01*
X186722000Y-63557400D02*
X186641000Y-62914200D01*
X183054000Y-53564800D02*
X182435000Y-52719900D01*
X183629000Y-54442600D02*
X183054000Y-53564800D01*
X166615200Y-118810400D02*
X166065300Y-118712400D01*
X146171900Y-145487000D02*
X146710000Y-145336000D01*
X103221400Y-118979200D02*
X102783600Y-119025900D01*
X84865900Y-102337000D02*
X85154900Y-102651900D01*
X98370400Y-118424500D02*
X97742400Y-118464700D01*
X105207400Y-105013600D02*
X105480500Y-105073600D01*
X158510900Y-48693600D02*
X157847600Y-49019700D01*
X136276200Y-144943000D02*
X136801300Y-145133000D01*
X172326000Y-46403100D02*
X171495000Y-46268000D01*
X72564890Y-61417100D02*
X72314040Y-61904900D01*
X172842000Y-138392000D02*
X173101000Y-137855000D01*
X93694800Y-106662600D02*
X94223400Y-106687600D01*
X96328300Y-106554300D02*
X96851600Y-106473200D01*
X100363000Y-55090700D02*
X99408600Y-54650600D01*
X173932000Y-135619000D02*
X174087000Y-135042000D01*
X157559800Y-117522400D02*
X157380100Y-117297000D01*
X130156400Y-44565220D02*
X129944400Y-44412380D01*
X102272200Y-55971000D02*
X101314900Y-55537700D01*
X114144400Y-143912000D02*
X114549900Y-144101000D01*
X147242300Y-145166000D02*
X147768200Y-144977000D01*
X160203800Y-100860100D02*
X160841400Y-100917000D01*
X91378000Y-140865000D02*
X91695200Y-141259000D01*
X156504400Y-101930700D02*
X156770600Y-101734400D01*
X167288600Y-46177100D02*
X166450700Y-46271400D01*
X83396900Y-52835500D02*
X82865100Y-52975900D01*
X171233000Y-140899000D02*
X171596000Y-140424000D01*
X181421000Y-51521000D02*
X181061000Y-51141200D01*
X164240000Y-118769500D02*
X162978400Y-118904400D01*
X109777500Y-53391900D02*
X109353400Y-53760000D01*
X106037900Y-105449200D02*
X106186300Y-105612800D01*
X129021900Y-43938640D02*
X128775500Y-43859490D01*
X70666800Y-66547900D02*
X70453310Y-67619200D01*
X121547600Y-145977000D02*
X122522500Y-145847000D01*
X185807000Y-59214800D02*
X185465000Y-58219700D01*
X149127500Y-143677000D02*
X149358000Y-143528000D01*
X182958000Y-80966100D02*
X183534000Y-79813000D01*
X158577400Y-145043000D02*
X159033000Y-145048000D01*
X112166700Y-51870900D02*
X111662300Y-52140400D01*
X74688590Y-58240200D02*
X74346340Y-58665000D01*
X117315500Y-49428200D02*
X116911100Y-49655300D01*
X121031700Y-45736200D02*
X120550500Y-45725400D01*
X174424000Y-133280500D02*
X174494000Y-132686400D01*
X104485800Y-56816900D02*
X104235200Y-56713600D01*
X78800000Y-54680900D02*
X78333610Y-54972900D01*
X88163900Y-132948900D02*
X88234600Y-133452500D01*
X158578200Y-100986900D02*
X158901300Y-100928300D01*
X157237900Y-144882000D02*
X157680300Y-144958000D01*
X162670100Y-145546000D02*
X163077000Y-145515000D01*
X106425500Y-105984000D02*
X106515600Y-106187100D01*
X84322600Y-101678000D02*
X84588300Y-102012300D01*
X173101000Y-137855000D02*
X173340000Y-137309000D01*
X180308000Y-50413700D02*
X179916000Y-50066800D01*
X157049200Y-101559500D02*
X157338700Y-101405700D01*
X169167000Y-119872500D02*
X168686000Y-119591400D01*
X161718300Y-118961600D02*
X161088400Y-118929700D01*
X81814200Y-53303500D02*
X81295800Y-53491100D01*
X139511600Y-145802000D02*
X140065800Y-145880000D01*
X89999600Y-138741000D02*
X90247200Y-139184000D01*
X174269000Y-127928400D02*
X174142000Y-127345900D01*
X88068700Y-131938200D02*
X88108600Y-132444000D01*
X182435000Y-52719900D02*
X181770000Y-51910900D01*
X125027200Y-44427640D02*
X124161300Y-44814210D01*
X92635700Y-106527400D02*
X93165500Y-106609900D01*
X95402300Y-53248900D02*
X94337800Y-52963700D01*
X123293600Y-45189900D02*
X122855000Y-45357200D01*
X142300100Y-146003000D02*
X142859600Y-145986000D01*
X88613700Y-126518600D02*
X88438100Y-127154900D01*
X186754000Y-68703000D02*
X186807000Y-68061900D01*
X95685300Y-144501000D02*
X96232900Y-144746000D01*
X103846400Y-118795500D02*
X103643900Y-118873200D01*
X158044900Y-111397000D02*
X158073800Y-110947200D01*
X163482600Y-145468000D02*
X163886500Y-145406000D01*
X167723200Y-143988000D02*
X168421000Y-143549000D01*
X173820000Y-126198200D02*
X173626000Y-125634900D01*
X105684700Y-105177400D02*
X105870600Y-105303300D01*
X175223000Y-97581700D02*
X175496000Y-97263600D01*
X111977700Y-143504000D02*
X112560100Y-143545000D01*
X184074000Y-78638900D02*
X184575000Y-77445500D01*
X157311500Y-113544000D02*
X157505400Y-113132800D01*
X170077000Y-120521800D02*
X169631000Y-120183400D01*
X104976400Y-117529400D02*
X104720600Y-118119600D01*
X173169000Y-124533300D02*
X172907000Y-123996800D01*
X137333000Y-145304000D02*
X137870500Y-145456000D01*
X104403500Y-118451500D02*
X104227400Y-118585600D01*
X74641270Y-86052300D02*
X75373840Y-87129400D01*
X134747000Y-144265000D02*
X135248300Y-144509000D01*
X158478300Y-118238700D02*
X158223900Y-118086600D01*
X94751100Y-106687200D02*
X95278000Y-106663400D01*
X153778500Y-143859000D02*
X155497200Y-144428000D01*
X80634100Y-94210700D02*
X81022800Y-94847500D01*
X152573100Y-52486300D02*
X152238300Y-52672700D01*
X71120430Y-78367600D02*
X71307360Y-78991900D01*
X161088400Y-118929700D02*
X160773500Y-118893100D01*
X87825700Y-104788200D02*
X88575800Y-105207700D01*
X158259000Y-101063300D02*
X158578200Y-100986900D01*
X163077000Y-145515000D02*
X163482600Y-145468000D01*
X150401900Y-143167000D02*
X150680500Y-143136000D01*
X115312800Y-144568000D02*
X115669800Y-144839000D01*
X97742400Y-118464700D02*
X97118000Y-118547100D01*
X93483500Y-143044000D02*
X93880900Y-143361000D01*
X163886500Y-145406000D02*
X164288200Y-145328000D01*
X156385000Y-105342600D02*
X156192500Y-104932100D01*
X172591000Y-99590300D02*
X173306000Y-99159400D01*
X116009900Y-145132000D02*
X116332900Y-145444000D01*
X85558000Y-52424800D02*
X85013400Y-52505200D01*
X138960600Y-145705000D02*
X139511600Y-145802000D01*
X106664400Y-106839300D02*
X106672500Y-107063500D01*
M02*
