%TF.GenerationSoftware,KiCad,Pcbnew,9.0.6*%
%TF.CreationDate,2026-01-10T10:01:33+01:00*%
%TF.ProjectId,Jumbo,4a756d62-6f2e-46b6-9963-61645f706362,rev?*%
%TF.SameCoordinates,Original*%
%TF.FileFunction,Copper,L2,Bot*%
%TF.FilePolarity,Positive*%
%FSLAX46Y46*%
G04 Gerber Fmt 4.6, Leading zero omitted, Abs format (unit mm)*
G04 Created by KiCad (PCBNEW 9.0.6) date 2026-01-10 10:01:33*
%MOMM*%
%LPD*%
G01*
G04 APERTURE LIST*
G04 Aperture macros list*
%AMRoundRect*
0 Rectangle with rounded corners*
0 $1 Rounding radius*
0 $2 $3 $4 $5 $6 $7 $8 $9 X,Y pos of 4 corners*
0 Add a 4 corners polygon primitive as box body*
4,1,4,$2,$3,$4,$5,$6,$7,$8,$9,$2,$3,0*
0 Add four circle primitives for the rounded corners*
1,1,$1+$1,$2,$3*
1,1,$1+$1,$4,$5*
1,1,$1+$1,$6,$7*
1,1,$1+$1,$8,$9*
0 Add four rect primitives between the rounded corners*
20,1,$1+$1,$2,$3,$4,$5,0*
20,1,$1+$1,$4,$5,$6,$7,0*
20,1,$1+$1,$6,$7,$8,$9,0*
20,1,$1+$1,$8,$9,$2,$3,0*%
G04 Aperture macros list end*
%ADD10C,0.200000*%
%TA.AperFunction,NonConductor*%
%ADD11C,0.200000*%
%TD*%
%TA.AperFunction,ComponentPad*%
%ADD12R,1.800000X1.800000*%
%TD*%
%TA.AperFunction,ComponentPad*%
%ADD13C,1.800000*%
%TD*%
%TA.AperFunction,ComponentPad*%
%ADD14R,1.500000X1.500000*%
%TD*%
%TA.AperFunction,ComponentPad*%
%ADD15C,1.500000*%
%TD*%
%TA.AperFunction,ComponentPad*%
%ADD16C,1.600000*%
%TD*%
%TA.AperFunction,ComponentPad*%
%ADD17R,1.600000X1.600000*%
%TD*%
%TA.AperFunction,ComponentPad*%
%ADD18O,1.600000X1.600000*%
%TD*%
%TA.AperFunction,ComponentPad*%
%ADD19C,2.000000*%
%TD*%
%TA.AperFunction,ComponentPad*%
%ADD20RoundRect,0.250000X0.550000X0.550000X-0.550000X0.550000X-0.550000X-0.550000X0.550000X-0.550000X0*%
%TD*%
%TA.AperFunction,SMDPad,CuDef*%
%ADD21R,5.000000X2.000000*%
%TD*%
%TA.AperFunction,SMDPad,CuDef*%
%ADD22C,17.780000*%
%TD*%
%TA.AperFunction,Conductor*%
%ADD23C,0.250000*%
%TD*%
G04 APERTURE END LIST*
D10*
D11*
X135161279Y-81106028D02*
X135161279Y-79606028D01*
X134304136Y-81106028D02*
X134946993Y-80248885D01*
X134304136Y-79606028D02*
X135161279Y-80463171D01*
X133661279Y-81106028D02*
X133661279Y-79606028D01*
X133661279Y-80320314D02*
X132804136Y-80320314D01*
X132804136Y-81106028D02*
X132804136Y-79606028D01*
X131589850Y-80320314D02*
X132089850Y-80320314D01*
X132089850Y-81106028D02*
X132089850Y-79606028D01*
X132089850Y-79606028D02*
X131375564Y-79606028D01*
X130018421Y-81106028D02*
X130875564Y-81106028D01*
X130446993Y-81106028D02*
X130446993Y-79606028D01*
X130446993Y-79606028D02*
X130589850Y-79820314D01*
X130589850Y-79820314D02*
X130732707Y-79963171D01*
X130732707Y-79963171D02*
X130875564Y-80034600D01*
X129446993Y-79748885D02*
X129375565Y-79677457D01*
X129375565Y-79677457D02*
X129232708Y-79606028D01*
X129232708Y-79606028D02*
X128875565Y-79606028D01*
X128875565Y-79606028D02*
X128732708Y-79677457D01*
X128732708Y-79677457D02*
X128661279Y-79748885D01*
X128661279Y-79748885D02*
X128589850Y-79891742D01*
X128589850Y-79891742D02*
X128589850Y-80034600D01*
X128589850Y-80034600D02*
X128661279Y-80248885D01*
X128661279Y-80248885D02*
X129518422Y-81106028D01*
X129518422Y-81106028D02*
X128589850Y-81106028D01*
X127946994Y-80963171D02*
X127875565Y-81034600D01*
X127875565Y-81034600D02*
X127946994Y-81106028D01*
X127946994Y-81106028D02*
X128018422Y-81034600D01*
X128018422Y-81034600D02*
X127946994Y-80963171D01*
X127946994Y-80963171D02*
X127946994Y-81106028D01*
X127304136Y-79748885D02*
X127232708Y-79677457D01*
X127232708Y-79677457D02*
X127089851Y-79606028D01*
X127089851Y-79606028D02*
X126732708Y-79606028D01*
X126732708Y-79606028D02*
X126589851Y-79677457D01*
X126589851Y-79677457D02*
X126518422Y-79748885D01*
X126518422Y-79748885D02*
X126446993Y-79891742D01*
X126446993Y-79891742D02*
X126446993Y-80034600D01*
X126446993Y-80034600D02*
X126518422Y-80248885D01*
X126518422Y-80248885D02*
X127375565Y-81106028D01*
X127375565Y-81106028D02*
X126446993Y-81106028D01*
X125518422Y-79606028D02*
X125375565Y-79606028D01*
X125375565Y-79606028D02*
X125232708Y-79677457D01*
X125232708Y-79677457D02*
X125161280Y-79748885D01*
X125161280Y-79748885D02*
X125089851Y-79891742D01*
X125089851Y-79891742D02*
X125018422Y-80177457D01*
X125018422Y-80177457D02*
X125018422Y-80534600D01*
X125018422Y-80534600D02*
X125089851Y-80820314D01*
X125089851Y-80820314D02*
X125161280Y-80963171D01*
X125161280Y-80963171D02*
X125232708Y-81034600D01*
X125232708Y-81034600D02*
X125375565Y-81106028D01*
X125375565Y-81106028D02*
X125518422Y-81106028D01*
X125518422Y-81106028D02*
X125661280Y-81034600D01*
X125661280Y-81034600D02*
X125732708Y-80963171D01*
X125732708Y-80963171D02*
X125804137Y-80820314D01*
X125804137Y-80820314D02*
X125875565Y-80534600D01*
X125875565Y-80534600D02*
X125875565Y-80177457D01*
X125875565Y-80177457D02*
X125804137Y-79891742D01*
X125804137Y-79891742D02*
X125732708Y-79748885D01*
X125732708Y-79748885D02*
X125661280Y-79677457D01*
X125661280Y-79677457D02*
X125518422Y-79606028D01*
X124446994Y-79748885D02*
X124375566Y-79677457D01*
X124375566Y-79677457D02*
X124232709Y-79606028D01*
X124232709Y-79606028D02*
X123875566Y-79606028D01*
X123875566Y-79606028D02*
X123732709Y-79677457D01*
X123732709Y-79677457D02*
X123661280Y-79748885D01*
X123661280Y-79748885D02*
X123589851Y-79891742D01*
X123589851Y-79891742D02*
X123589851Y-80034600D01*
X123589851Y-80034600D02*
X123661280Y-80248885D01*
X123661280Y-80248885D02*
X124518423Y-81106028D01*
X124518423Y-81106028D02*
X123589851Y-81106028D01*
X122232709Y-79606028D02*
X122946995Y-79606028D01*
X122946995Y-79606028D02*
X123018423Y-80320314D01*
X123018423Y-80320314D02*
X122946995Y-80248885D01*
X122946995Y-80248885D02*
X122804138Y-80177457D01*
X122804138Y-80177457D02*
X122446995Y-80177457D01*
X122446995Y-80177457D02*
X122304138Y-80248885D01*
X122304138Y-80248885D02*
X122232709Y-80320314D01*
X122232709Y-80320314D02*
X122161280Y-80463171D01*
X122161280Y-80463171D02*
X122161280Y-80820314D01*
X122161280Y-80820314D02*
X122232709Y-80963171D01*
X122232709Y-80963171D02*
X122304138Y-81034600D01*
X122304138Y-81034600D02*
X122446995Y-81106028D01*
X122446995Y-81106028D02*
X122804138Y-81106028D01*
X122804138Y-81106028D02*
X122946995Y-81034600D01*
X122946995Y-81034600D02*
X123018423Y-80963171D01*
D12*
%TO.P,D1,1,K*%
%TO.N,Net-(D1-K)*%
X150100000Y-85200000D03*
D13*
%TO.P,D1,2,A*%
%TO.N,Net-(D1-A)*%
X152640000Y-85200000D03*
%TD*%
D14*
%TO.P,T2,1,E*%
%TO.N,Net-(D1-A)*%
X129160000Y-101540000D03*
D15*
%TO.P,T2,2,B*%
%TO.N,Net-(Q1-C)*%
X131700000Y-99000000D03*
%TO.P,T2,3,C*%
%TO.N,Net-(Q2-C)*%
X134240000Y-101540000D03*
%TD*%
D14*
%TO.P,T1,1,E*%
%TO.N,Net-(D1-K)*%
X129200000Y-93300000D03*
D15*
%TO.P,T1,2,B*%
%TO.N,Net-(Q1-B)*%
X131740000Y-90760000D03*
%TO.P,T1,3,C*%
%TO.N,Net-(Q1-C)*%
X134280000Y-93300000D03*
%TD*%
D12*
%TO.P,D2,1,K*%
%TO.N,Net-(D1-K)*%
X109725000Y-83900000D03*
D13*
%TO.P,D2,2,A*%
%TO.N,Net-(D1-A)*%
X112265000Y-83900000D03*
%TD*%
D16*
%TO.P,R4,1*%
%TO.N,Net-(Q1-B)*%
X112040000Y-128150000D03*
%TO.P,R4,2*%
%TO.N,Net-(D1-K)*%
X122200000Y-128150000D03*
%TD*%
%TO.P,R6,1*%
%TO.N,Net-(S1-E)*%
X112040000Y-120050000D03*
%TO.P,R6,2*%
%TO.N,Net-(Q2-C)*%
X122200000Y-120050000D03*
%TD*%
%TO.P,R7,1*%
%TO.N,Net-(D3-K)*%
X112040000Y-116000000D03*
%TO.P,R7,2*%
%TO.N,Net-(D3-A)*%
X122200000Y-116000000D03*
%TD*%
%TO.P,R1off1,1*%
%TO.N,Net-(S1-E)*%
X112040000Y-111950000D03*
%TO.P,R1off1,2*%
%TO.N,Net-(D3-A)*%
X122200000Y-111950000D03*
%TD*%
%TO.P,R5,1*%
%TO.N,Net-(S1-E)*%
X112040000Y-124100000D03*
%TO.P,R5,2*%
%TO.N,Net-(Q1-C)*%
X122200000Y-124100000D03*
%TD*%
D17*
%TO.P,D3,1,K*%
%TO.N,Net-(D3-K)*%
X140200000Y-113500000D03*
D18*
%TO.P,D3,2,A*%
%TO.N,Net-(D3-A)*%
X147820000Y-113500000D03*
%TD*%
D16*
%TO.P,R3,1*%
%TO.N,Net-(D3-K)*%
X112040000Y-132200000D03*
%TO.P,R3,2*%
%TO.N,Net-(Q1-B)*%
X122200000Y-132200000D03*
%TD*%
D17*
%TO.P,C1,1*%
%TO.N,Net-(D3-K)*%
X131000000Y-108900000D03*
D16*
%TO.P,C1,2*%
%TO.N,Net-(D1-K)*%
X133500000Y-108900000D03*
%TD*%
D19*
%TO.P,S1,1,A*%
%TO.N,Net-(S1-A-Pad1)*%
X167020000Y-51500000D03*
%TO.P,S1,2,E*%
%TO.N,Net-(S1-E)*%
X169560000Y-51500000D03*
%TO.P,S1,3,A*%
%TO.N,unconnected-(S1-A-Pad3)*%
X172100000Y-51500000D03*
%TD*%
D20*
%TO.P,U1,1,GND*%
%TO.N,Net-(D1-K)*%
X148520000Y-122620000D03*
D16*
%TO.P,U1,2,TR*%
%TO.N,Net-(D3-K)*%
X148520000Y-125160000D03*
%TO.P,U1,3,Q*%
%TO.N,unconnected-(U1-Q-Pad3)*%
X148520000Y-127700000D03*
%TO.P,U1,4,R*%
%TO.N,Net-(S1-E)*%
X148520000Y-130240000D03*
%TO.P,U1,5,CV*%
%TO.N,unconnected-(U1-CV-Pad5)*%
X140900000Y-130240000D03*
%TO.P,U1,6,THR*%
%TO.N,Net-(D3-K)*%
X140900000Y-127700000D03*
%TO.P,U1,7,DIS*%
%TO.N,Net-(D3-A)*%
X140900000Y-125160000D03*
%TO.P,U1,8,VCC*%
%TO.N,Net-(S1-E)*%
X140900000Y-122620000D03*
%TD*%
D21*
%TO.P,U2,*%
%TO.N,*%
X116100000Y-56792000D03*
X116100000Y-60348000D03*
%TO.P,U2,1*%
%TO.N,Net-(S1-A-Pad1)*%
X141994000Y-56792000D03*
X141994000Y-60348000D03*
D22*
%TO.P,U2,2*%
%TO.N,Net-(D1-K)*%
X129054000Y-58824000D03*
%TD*%
D23*
%TO.N,Net-(D1-K)*%
X124451000Y-117949000D02*
X133500000Y-108900000D01*
X122200000Y-128150000D02*
X122200000Y-129400000D01*
X147500000Y-85200000D02*
X140600000Y-92100000D01*
X110300000Y-126200000D02*
X109600000Y-125500000D01*
X121600000Y-130000000D02*
X110300000Y-130000000D01*
X116400000Y-93300000D02*
X129200000Y-93300000D01*
X109600000Y-120100000D02*
X111751000Y-117949000D01*
X131500000Y-93300000D02*
X129200000Y-93300000D01*
X109725000Y-83900000D02*
X109725000Y-86625000D01*
X111751000Y-117949000D02*
X124451000Y-117949000D01*
X140500000Y-92200000D02*
X132600000Y-92200000D01*
X109725000Y-78153000D02*
X109725000Y-83900000D01*
X109725000Y-86625000D02*
X116400000Y-93300000D01*
X140600000Y-92100000D02*
X140500000Y-92200000D01*
X150100000Y-85200000D02*
X147500000Y-85200000D01*
X133500000Y-108900000D02*
X135000000Y-108900000D01*
X140600000Y-103300000D02*
X140600000Y-92100000D01*
X132600000Y-92200000D02*
X131500000Y-93300000D01*
X110300000Y-130000000D02*
X110300000Y-126200000D01*
X135000000Y-108900000D02*
X140600000Y-103300000D01*
X122200000Y-129400000D02*
X121600000Y-130000000D01*
X129054000Y-58824000D02*
X109725000Y-78153000D01*
X109600000Y-125500000D02*
X109600000Y-120100000D01*
%TO.N,Net-(D3-K)*%
X118800000Y-108900000D02*
X131000000Y-108900000D01*
X145340000Y-125160000D02*
X148520000Y-125160000D01*
X109149000Y-118891000D02*
X112040000Y-116000000D01*
X118500000Y-109200000D02*
X118800000Y-108900000D01*
X140900000Y-127700000D02*
X142800000Y-127700000D01*
X111862190Y-132200000D02*
X109149000Y-129486810D01*
X118500000Y-109540000D02*
X118500000Y-109200000D01*
X112040000Y-132200000D02*
X111862190Y-132200000D01*
X109149000Y-129486810D02*
X109149000Y-118891000D01*
X142800000Y-127700000D02*
X145340000Y-125160000D01*
X112040000Y-116000000D02*
X118500000Y-109540000D01*
%TO.N,Net-(Q1-C)*%
X130300000Y-137800000D02*
X130300000Y-124800000D01*
X107700000Y-137500000D02*
X109700000Y-139500000D01*
X131700000Y-99000000D02*
X111100000Y-99000000D01*
X129400000Y-124100000D02*
X122200000Y-124100000D01*
X111100000Y-99000000D02*
X107700000Y-102400000D01*
X128600000Y-139500000D02*
X130300000Y-137800000D01*
X107700000Y-102400000D02*
X107700000Y-137500000D01*
X134280000Y-93300000D02*
X134280000Y-96420000D01*
X130300000Y-124800000D02*
X130100000Y-124800000D01*
X134280000Y-96420000D02*
X131700000Y-99000000D01*
X109700000Y-139500000D02*
X128600000Y-139500000D01*
X130100000Y-124800000D02*
X129400000Y-124100000D01*
%TO.N,Net-(S1-E)*%
X143000000Y-118600000D02*
X143600000Y-118000000D01*
X140900000Y-122620000D02*
X140900000Y-120700000D01*
X152000000Y-102800000D02*
X159200000Y-95600000D01*
X112040000Y-120050000D02*
X113690000Y-118400000D01*
X142800000Y-118400000D02*
X143000000Y-118600000D01*
X140900000Y-120700000D02*
X143000000Y-118600000D01*
X162800000Y-58260000D02*
X169560000Y-51500000D01*
X143600000Y-118000000D02*
X152000000Y-118000000D01*
X152000000Y-118000000D02*
X152000000Y-102800000D01*
X159200000Y-95600000D02*
X162800000Y-95600000D01*
X113690000Y-118400000D02*
X142800000Y-118400000D01*
X162800000Y-95600000D02*
X162800000Y-58260000D01*
%TO.N,Net-(S1-A-Pad1)*%
X167020000Y-51500000D02*
X161728000Y-56792000D01*
X141994000Y-60348000D02*
X141994000Y-56792000D01*
X161728000Y-56792000D02*
X141994000Y-56792000D01*
%TD*%
M02*
