%TF.GenerationSoftware,KiCad,Pcbnew,9.0.6*%
%TF.CreationDate,2026-01-10T10:01:33+01:00*%
%TF.ProjectId,Jumbo,4a756d62-6f2e-46b6-9963-61645f706362,rev?*%
%TF.SameCoordinates,Original*%
%TF.FileFunction,Copper,L1,Top*%
%TF.FilePolarity,Positive*%
%FSLAX46Y46*%
G04 Gerber Fmt 4.6, Leading zero omitted, Abs format (unit mm)*
G04 Created by KiCad (PCBNEW 9.0.6) date 2026-01-10 10:01:33*
%MOMM*%
%LPD*%
G01*
G04 APERTURE LIST*
G04 Aperture macros list*
%AMRoundRect*
0 Rectangle with rounded corners*
0 $1 Rounding radius*
0 $2 $3 $4 $5 $6 $7 $8 $9 X,Y pos of 4 corners*
0 Add a 4 corners polygon primitive as box body*
4,1,4,$2,$3,$4,$5,$6,$7,$8,$9,$2,$3,0*
0 Add four circle primitives for the rounded corners*
1,1,$1+$1,$2,$3*
1,1,$1+$1,$4,$5*
1,1,$1+$1,$6,$7*
1,1,$1+$1,$8,$9*
0 Add four rect primitives between the rounded corners*
20,1,$1+$1,$2,$3,$4,$5,0*
20,1,$1+$1,$4,$5,$6,$7,0*
20,1,$1+$1,$6,$7,$8,$9,0*
20,1,$1+$1,$8,$9,$2,$3,0*%
G04 Aperture macros list end*
%TA.AperFunction,ComponentPad*%
%ADD10R,1.800000X1.800000*%
%TD*%
%TA.AperFunction,ComponentPad*%
%ADD11C,1.800000*%
%TD*%
%TA.AperFunction,ComponentPad*%
%ADD12R,1.500000X1.500000*%
%TD*%
%TA.AperFunction,ComponentPad*%
%ADD13C,1.500000*%
%TD*%
%TA.AperFunction,ComponentPad*%
%ADD14C,1.600000*%
%TD*%
%TA.AperFunction,ComponentPad*%
%ADD15R,1.600000X1.600000*%
%TD*%
%TA.AperFunction,ComponentPad*%
%ADD16O,1.600000X1.600000*%
%TD*%
%TA.AperFunction,ComponentPad*%
%ADD17C,2.000000*%
%TD*%
%TA.AperFunction,ComponentPad*%
%ADD18RoundRect,0.250000X0.550000X0.550000X-0.550000X0.550000X-0.550000X-0.550000X0.550000X-0.550000X0*%
%TD*%
%TA.AperFunction,Conductor*%
%ADD19C,0.250000*%
%TD*%
G04 APERTURE END LIST*
D10*
%TO.P,D1,1,K*%
%TO.N,Net-(D1-K)*%
X150100000Y-85200000D03*
D11*
%TO.P,D1,2,A*%
%TO.N,Net-(D1-A)*%
X152640000Y-85200000D03*
%TD*%
D12*
%TO.P,T2,1,E*%
%TO.N,Net-(D1-A)*%
X129160000Y-101540000D03*
D13*
%TO.P,T2,2,B*%
%TO.N,Net-(Q1-C)*%
X131700000Y-99000000D03*
%TO.P,T2,3,C*%
%TO.N,Net-(Q2-C)*%
X134240000Y-101540000D03*
%TD*%
D12*
%TO.P,T1,1,E*%
%TO.N,Net-(D1-K)*%
X129200000Y-93300000D03*
D13*
%TO.P,T1,2,B*%
%TO.N,Net-(Q1-B)*%
X131740000Y-90760000D03*
%TO.P,T1,3,C*%
%TO.N,Net-(Q1-C)*%
X134280000Y-93300000D03*
%TD*%
D10*
%TO.P,D2,1,K*%
%TO.N,Net-(D1-K)*%
X109725000Y-83900000D03*
D11*
%TO.P,D2,2,A*%
%TO.N,Net-(D1-A)*%
X112265000Y-83900000D03*
%TD*%
D14*
%TO.P,R4,1*%
%TO.N,Net-(Q1-B)*%
X112040000Y-128150000D03*
%TO.P,R4,2*%
%TO.N,Net-(D1-K)*%
X122200000Y-128150000D03*
%TD*%
%TO.P,R6,1*%
%TO.N,Net-(S1-E)*%
X112040000Y-120050000D03*
%TO.P,R6,2*%
%TO.N,Net-(Q2-C)*%
X122200000Y-120050000D03*
%TD*%
%TO.P,R7,1*%
%TO.N,Net-(D3-K)*%
X112040000Y-116000000D03*
%TO.P,R7,2*%
%TO.N,Net-(D3-A)*%
X122200000Y-116000000D03*
%TD*%
%TO.P,R1off1,1*%
%TO.N,Net-(S1-E)*%
X112040000Y-111950000D03*
%TO.P,R1off1,2*%
%TO.N,Net-(D3-A)*%
X122200000Y-111950000D03*
%TD*%
%TO.P,R5,1*%
%TO.N,Net-(S1-E)*%
X112040000Y-124100000D03*
%TO.P,R5,2*%
%TO.N,Net-(Q1-C)*%
X122200000Y-124100000D03*
%TD*%
D15*
%TO.P,D3,1,K*%
%TO.N,Net-(D3-K)*%
X140200000Y-113500000D03*
D16*
%TO.P,D3,2,A*%
%TO.N,Net-(D3-A)*%
X147820000Y-113500000D03*
%TD*%
D14*
%TO.P,R3,1*%
%TO.N,Net-(D3-K)*%
X112040000Y-132200000D03*
%TO.P,R3,2*%
%TO.N,Net-(Q1-B)*%
X122200000Y-132200000D03*
%TD*%
D15*
%TO.P,C1,1*%
%TO.N,Net-(D3-K)*%
X131000000Y-108900000D03*
D14*
%TO.P,C1,2*%
%TO.N,Net-(D1-K)*%
X133500000Y-108900000D03*
%TD*%
D17*
%TO.P,S1,1,A*%
%TO.N,Net-(S1-A-Pad1)*%
X167020000Y-51500000D03*
%TO.P,S1,2,E*%
%TO.N,Net-(S1-E)*%
X169560000Y-51500000D03*
%TO.P,S1,3,A*%
%TO.N,unconnected-(S1-A-Pad3)*%
X172100000Y-51500000D03*
%TD*%
D18*
%TO.P,U1,1,GND*%
%TO.N,Net-(D1-K)*%
X148520000Y-122620000D03*
D14*
%TO.P,U1,2,TR*%
%TO.N,Net-(D3-K)*%
X148520000Y-125160000D03*
%TO.P,U1,3,Q*%
%TO.N,unconnected-(U1-Q-Pad3)*%
X148520000Y-127700000D03*
%TO.P,U1,4,R*%
%TO.N,Net-(S1-E)*%
X148520000Y-130240000D03*
%TO.P,U1,5,CV*%
%TO.N,unconnected-(U1-CV-Pad5)*%
X140900000Y-130240000D03*
%TO.P,U1,6,THR*%
%TO.N,Net-(D3-K)*%
X140900000Y-127700000D03*
%TO.P,U1,7,DIS*%
%TO.N,Net-(D3-A)*%
X140900000Y-125160000D03*
%TO.P,U1,8,VCC*%
%TO.N,Net-(S1-E)*%
X140900000Y-122620000D03*
%TD*%
D19*
%TO.N,Net-(D3-K)*%
X140200000Y-113500000D02*
X142500000Y-111200000D01*
X131000000Y-110000000D02*
X134600000Y-113600000D01*
X154100000Y-111200000D02*
X154600000Y-111700000D01*
X142500000Y-111200000D02*
X154100000Y-111200000D01*
X134600000Y-113600000D02*
X134700000Y-113500000D01*
X134700000Y-113500000D02*
X140200000Y-113500000D01*
X131000000Y-108900000D02*
X131000000Y-110000000D01*
X154600000Y-111700000D02*
X154600000Y-124400000D01*
X153840000Y-125160000D02*
X148520000Y-125160000D01*
X154600000Y-124400000D02*
X153840000Y-125160000D01*
%TO.N,Net-(D1-A)*%
X121700000Y-82700000D02*
X120500000Y-83900000D01*
X112265000Y-83900000D02*
X120500000Y-83900000D01*
X126900000Y-90200000D02*
X126900000Y-100100000D01*
X126800000Y-100200000D02*
X128140000Y-101540000D01*
X120500000Y-83900000D02*
X120600000Y-83900000D01*
X152640000Y-85200000D02*
X152640000Y-82840000D01*
X126900000Y-100100000D02*
X126800000Y-100200000D01*
X128140000Y-101540000D02*
X129160000Y-101540000D01*
X120600000Y-83900000D02*
X126900000Y-90200000D01*
X152500000Y-82700000D02*
X121700000Y-82700000D01*
X152640000Y-82840000D02*
X152500000Y-82700000D01*
%TO.N,Net-(D3-A)*%
X122200000Y-116000000D02*
X130900000Y-116000000D01*
X135600000Y-120900000D02*
X135600000Y-124000000D01*
X136760000Y-125160000D02*
X140900000Y-125160000D01*
X130900000Y-116000000D02*
X135600000Y-120700000D01*
X144600000Y-116720000D02*
X144600000Y-117500000D01*
X135600000Y-124000000D02*
X136760000Y-125160000D01*
X147820000Y-113500000D02*
X144600000Y-116720000D01*
X139200000Y-117500000D02*
X135800000Y-120900000D01*
X144600000Y-117500000D02*
X139200000Y-117500000D01*
X135800000Y-120900000D02*
X135600000Y-120900000D01*
X135600000Y-120700000D02*
X135600000Y-120900000D01*
%TO.N,Net-(Q1-B)*%
X116000000Y-128100000D02*
X113250000Y-128100000D01*
X130100000Y-99900000D02*
X131200000Y-101000000D01*
X113950000Y-128150000D02*
X118000000Y-132200000D01*
X113250000Y-128100000D02*
X113200000Y-128150000D01*
X118000000Y-132200000D02*
X122200000Y-132200000D01*
X123700000Y-103600000D02*
X118300000Y-109000000D01*
X131200000Y-103600000D02*
X123700000Y-103600000D01*
X118300000Y-109000000D02*
X118300000Y-125800000D01*
X112040000Y-128150000D02*
X113200000Y-128150000D01*
X131740000Y-90760000D02*
X131740000Y-94760000D01*
X118300000Y-125800000D02*
X116000000Y-128100000D01*
X131200000Y-101000000D02*
X131200000Y-103600000D01*
X131740000Y-94760000D02*
X130100000Y-96400000D01*
X113200000Y-128150000D02*
X113950000Y-128150000D01*
X130100000Y-96400000D02*
X130100000Y-99900000D01*
%TO.N,Net-(Q2-C)*%
X134400000Y-125200000D02*
X129250000Y-120050000D01*
X129250000Y-120050000D02*
X122200000Y-120050000D01*
X136800000Y-136600000D02*
X134400000Y-134200000D01*
X152140000Y-101540000D02*
X155051000Y-104451000D01*
X155051000Y-104451000D02*
X155051000Y-133049000D01*
X155051000Y-133049000D02*
X151500000Y-136600000D01*
X151500000Y-136600000D02*
X136800000Y-136600000D01*
X134240000Y-101540000D02*
X152140000Y-101540000D01*
X134400000Y-134200000D02*
X134400000Y-125200000D01*
%TO.N,Net-(S1-E)*%
X110700000Y-120200000D02*
X110850000Y-120050000D01*
X110000000Y-120200000D02*
X110700000Y-120200000D01*
X145740000Y-130240000D02*
X148520000Y-130240000D01*
X144600000Y-129200000D02*
X144700000Y-129200000D01*
X110150000Y-111950000D02*
X108900000Y-113200000D01*
X144600000Y-126320000D02*
X144600000Y-129200000D01*
X108900000Y-113200000D02*
X108900000Y-119100000D01*
X144700000Y-129200000D02*
X145740000Y-130240000D01*
X112040000Y-111950000D02*
X110150000Y-111950000D01*
X108900000Y-119100000D02*
X110000000Y-120200000D01*
X140900000Y-122620000D02*
X144600000Y-126320000D01*
X110850000Y-120050000D02*
X112040000Y-120050000D01*
%TD*%
M02*
