M48
; DRILL file {KiCad 9.0.6} date 2026-01-10T10:01:36+0100
; FORMAT={-:-/ absolute / inch / decimal}
; #@! TF.CreationDate,2026-01-10T10:01:36+01:00
; #@! TF.GenerationSoftware,Kicad,Pcbnew,9.0.6
; #@! TF.FileFunction,Plated,1,2,PTH
FMAT,2
INCH
; #@! TA.AperFunction,Plated,PTH,ComponentDrill
T1C0.0315
; #@! TA.AperFunction,Plated,PTH,ComponentDrill
T2C0.0354
; #@! TA.AperFunction,Plated,PTH,ComponentDrill
T3C0.0394
%
G90
G05
T1
X4.411Y-4.4075
X4.411Y-4.5669
X4.411Y-4.7264
X4.411Y-4.8858
X4.411Y-5.0453
X4.411Y-5.2047
X4.811Y-4.4075
X4.811Y-4.5669
X4.811Y-4.7264
X4.811Y-4.8858
X4.811Y-5.0453
X4.811Y-5.2047
X5.085Y-3.9976
X5.0866Y-3.6732
X5.1575Y-4.2874
X5.185Y-3.8976
X5.1866Y-3.5732
X5.2559Y-4.2874
X5.285Y-3.9976
X5.2866Y-3.6732
X5.5197Y-4.4685
X5.5472Y-4.8276
X5.5472Y-4.9276
X5.5472Y-5.0276
X5.5472Y-5.1276
X5.8197Y-4.4685
X5.8472Y-4.8276
X5.8472Y-4.9276
X5.8472Y-5.0276
X5.8472Y-5.1276
T2
X4.3199Y-3.3031
X4.4199Y-3.3031
X5.9094Y-3.3543
X6.0094Y-3.3543
T3
X6.5756Y-2.0276
X6.6756Y-2.0276
X6.7756Y-2.0276
M30
