%TF.GenerationSoftware,KiCad,Pcbnew,9.0.6*%
%TF.CreationDate,2025-12-06T15:38:28+01:00*%
%TF.ProjectId,Jumpo,4a756d70-6f2e-46b6-9963-61645f706362,rev?*%
%TF.SameCoordinates,Original*%
%TF.FileFunction,Soldermask,Bot*%
%TF.FilePolarity,Negative*%
%FSLAX46Y46*%
G04 Gerber Fmt 4.6, Leading zero omitted, Abs format (unit mm)*
G04 Created by KiCad (PCBNEW 9.0.6) date 2025-12-06 15:38:28*
%MOMM*%
%LPD*%
G01*
G04 APERTURE LIST*
G04 Aperture macros list*
%AMRoundRect*
0 Rectangle with rounded corners*
0 $1 Rounding radius*
0 $2 $3 $4 $5 $6 $7 $8 $9 X,Y pos of 4 corners*
0 Add a 4 corners polygon primitive as box body*
4,1,4,$2,$3,$4,$5,$6,$7,$8,$9,$2,$3,0*
0 Add four circle primitives for the rounded corners*
1,1,$1+$1,$2,$3*
1,1,$1+$1,$4,$5*
1,1,$1+$1,$6,$7*
1,1,$1+$1,$8,$9*
0 Add four rect primitives between the rounded corners*
20,1,$1+$1,$2,$3,$4,$5,0*
20,1,$1+$1,$4,$5,$6,$7,0*
20,1,$1+$1,$6,$7,$8,$9,0*
20,1,$1+$1,$8,$9,$2,$3,0*%
G04 Aperture macros list end*
%ADD10C,0.200000*%
%ADD11C,2.200000*%
%ADD12RoundRect,0.200000X-0.900000X-0.900000X0.900000X-0.900000X0.900000X0.900000X-0.900000X0.900000X0*%
%ADD13C,2.000000*%
%ADD14RoundRect,0.200000X-0.800000X-0.800000X0.800000X-0.800000X0.800000X0.800000X-0.800000X0.800000X0*%
%ADD15RoundRect,0.200000X-2.500000X-1.000000X2.500000X-1.000000X2.500000X1.000000X-2.500000X1.000000X0*%
%ADD16C,18.180000*%
%ADD17RoundRect,0.312500X0.687500X0.687500X-0.687500X0.687500X-0.687500X-0.687500X0.687500X-0.687500X0*%
%ADD18C,2.400000*%
%ADD19RoundRect,0.200000X-0.750000X-0.750000X0.750000X-0.750000X0.750000X0.750000X-0.750000X0.750000X0*%
%ADD20C,1.900000*%
%ADD21O,2.000000X2.000000*%
G04 APERTURE END LIST*
D10*
X135111279Y-82606028D02*
X135111279Y-81106028D01*
X134254136Y-82606028D02*
X134896993Y-81748885D01*
X134254136Y-81106028D02*
X135111279Y-81963171D01*
X133611279Y-82606028D02*
X133611279Y-81106028D01*
X133611279Y-81820314D02*
X132754136Y-81820314D01*
X132754136Y-82606028D02*
X132754136Y-81106028D01*
X131539850Y-81820314D02*
X132039850Y-81820314D01*
X132039850Y-82606028D02*
X132039850Y-81106028D01*
X132039850Y-81106028D02*
X131325564Y-81106028D01*
X129968421Y-82606028D02*
X130825564Y-82606028D01*
X130396993Y-82606028D02*
X130396993Y-81106028D01*
X130396993Y-81106028D02*
X130539850Y-81320314D01*
X130539850Y-81320314D02*
X130682707Y-81463171D01*
X130682707Y-81463171D02*
X130825564Y-81534600D01*
X129396993Y-81248885D02*
X129325565Y-81177457D01*
X129325565Y-81177457D02*
X129182708Y-81106028D01*
X129182708Y-81106028D02*
X128825565Y-81106028D01*
X128825565Y-81106028D02*
X128682708Y-81177457D01*
X128682708Y-81177457D02*
X128611279Y-81248885D01*
X128611279Y-81248885D02*
X128539850Y-81391742D01*
X128539850Y-81391742D02*
X128539850Y-81534600D01*
X128539850Y-81534600D02*
X128611279Y-81748885D01*
X128611279Y-81748885D02*
X129468422Y-82606028D01*
X129468422Y-82606028D02*
X128539850Y-82606028D01*
X127896994Y-82463171D02*
X127825565Y-82534600D01*
X127825565Y-82534600D02*
X127896994Y-82606028D01*
X127896994Y-82606028D02*
X127968422Y-82534600D01*
X127968422Y-82534600D02*
X127896994Y-82463171D01*
X127896994Y-82463171D02*
X127896994Y-82606028D01*
X127254136Y-81248885D02*
X127182708Y-81177457D01*
X127182708Y-81177457D02*
X127039851Y-81106028D01*
X127039851Y-81106028D02*
X126682708Y-81106028D01*
X126682708Y-81106028D02*
X126539851Y-81177457D01*
X126539851Y-81177457D02*
X126468422Y-81248885D01*
X126468422Y-81248885D02*
X126396993Y-81391742D01*
X126396993Y-81391742D02*
X126396993Y-81534600D01*
X126396993Y-81534600D02*
X126468422Y-81748885D01*
X126468422Y-81748885D02*
X127325565Y-82606028D01*
X127325565Y-82606028D02*
X126396993Y-82606028D01*
X125468422Y-81106028D02*
X125325565Y-81106028D01*
X125325565Y-81106028D02*
X125182708Y-81177457D01*
X125182708Y-81177457D02*
X125111280Y-81248885D01*
X125111280Y-81248885D02*
X125039851Y-81391742D01*
X125039851Y-81391742D02*
X124968422Y-81677457D01*
X124968422Y-81677457D02*
X124968422Y-82034600D01*
X124968422Y-82034600D02*
X125039851Y-82320314D01*
X125039851Y-82320314D02*
X125111280Y-82463171D01*
X125111280Y-82463171D02*
X125182708Y-82534600D01*
X125182708Y-82534600D02*
X125325565Y-82606028D01*
X125325565Y-82606028D02*
X125468422Y-82606028D01*
X125468422Y-82606028D02*
X125611280Y-82534600D01*
X125611280Y-82534600D02*
X125682708Y-82463171D01*
X125682708Y-82463171D02*
X125754137Y-82320314D01*
X125754137Y-82320314D02*
X125825565Y-82034600D01*
X125825565Y-82034600D02*
X125825565Y-81677457D01*
X125825565Y-81677457D02*
X125754137Y-81391742D01*
X125754137Y-81391742D02*
X125682708Y-81248885D01*
X125682708Y-81248885D02*
X125611280Y-81177457D01*
X125611280Y-81177457D02*
X125468422Y-81106028D01*
X124396994Y-81248885D02*
X124325566Y-81177457D01*
X124325566Y-81177457D02*
X124182709Y-81106028D01*
X124182709Y-81106028D02*
X123825566Y-81106028D01*
X123825566Y-81106028D02*
X123682709Y-81177457D01*
X123682709Y-81177457D02*
X123611280Y-81248885D01*
X123611280Y-81248885D02*
X123539851Y-81391742D01*
X123539851Y-81391742D02*
X123539851Y-81534600D01*
X123539851Y-81534600D02*
X123611280Y-81748885D01*
X123611280Y-81748885D02*
X124468423Y-82606028D01*
X124468423Y-82606028D02*
X123539851Y-82606028D01*
X122182709Y-81106028D02*
X122896995Y-81106028D01*
X122896995Y-81106028D02*
X122968423Y-81820314D01*
X122968423Y-81820314D02*
X122896995Y-81748885D01*
X122896995Y-81748885D02*
X122754138Y-81677457D01*
X122754138Y-81677457D02*
X122396995Y-81677457D01*
X122396995Y-81677457D02*
X122254138Y-81748885D01*
X122254138Y-81748885D02*
X122182709Y-81820314D01*
X122182709Y-81820314D02*
X122111280Y-81963171D01*
X122111280Y-81963171D02*
X122111280Y-82320314D01*
X122111280Y-82320314D02*
X122182709Y-82463171D01*
X122182709Y-82463171D02*
X122254138Y-82534600D01*
X122254138Y-82534600D02*
X122396995Y-82606028D01*
X122396995Y-82606028D02*
X122754138Y-82606028D01*
X122754138Y-82606028D02*
X122896995Y-82534600D01*
X122896995Y-82534600D02*
X122968423Y-82463171D01*
D11*
%TO.C,D1*%
X152640000Y-85200000D03*
D12*
X150100000Y-85200000D03*
%TD*%
%TO.C,D2*%
X109725000Y-83900000D03*
D11*
X112265000Y-83900000D03*
%TD*%
D13*
%TO.C,C1*%
X133500000Y-108900000D03*
D14*
X131000000Y-108900000D03*
%TD*%
D13*
%TO.C,R1off1*%
X122200000Y-111950000D03*
X112040000Y-111950000D03*
%TD*%
%TO.C,R3*%
X122200000Y-132200000D03*
X112040000Y-132200000D03*
%TD*%
D15*
%TO.C,U2*%
X116100000Y-60348000D03*
X116100000Y-56792000D03*
X141994000Y-60348000D03*
X141994000Y-56792000D03*
D16*
X129054000Y-58824000D03*
%TD*%
D17*
%TO.C,U1*%
X148520000Y-122620000D03*
D13*
X148520000Y-125160000D03*
X148520000Y-127700000D03*
X148520000Y-130240000D03*
X140900000Y-130240000D03*
X140900000Y-127700000D03*
X140900000Y-125160000D03*
X140900000Y-122620000D03*
%TD*%
D18*
%TO.C,S1*%
X167020000Y-51500000D03*
X169560000Y-51500000D03*
X172100000Y-51500000D03*
%TD*%
D13*
%TO.C,R7*%
X112040000Y-116000000D03*
X122200000Y-116000000D03*
%TD*%
%TO.C,R6*%
X112040000Y-120050000D03*
X122200000Y-120050000D03*
%TD*%
%TO.C,R5*%
X112040000Y-124100000D03*
X122200000Y-124100000D03*
%TD*%
%TO.C,R4*%
X112040000Y-128150000D03*
X122200000Y-128150000D03*
%TD*%
D19*
%TO.C,T2*%
X129160000Y-101540000D03*
D20*
X131700000Y-99000000D03*
X134240000Y-101540000D03*
%TD*%
D19*
%TO.C,T1*%
X129200000Y-93300000D03*
D20*
X131740000Y-90760000D03*
X134280000Y-93300000D03*
%TD*%
D14*
%TO.C,D3*%
X140200000Y-113500000D03*
D21*
X147820000Y-113500000D03*
%TD*%
M02*
