%TF.GenerationSoftware,KiCad,Pcbnew,9.0.6*%
%TF.CreationDate,2025-12-06T15:38:28+01:00*%
%TF.ProjectId,Jumpo,4a756d70-6f2e-46b6-9963-61645f706362,rev?*%
%TF.SameCoordinates,Original*%
%TF.FileFunction,Soldermask,Top*%
%TF.FilePolarity,Negative*%
%FSLAX46Y46*%
G04 Gerber Fmt 4.6, Leading zero omitted, Abs format (unit mm)*
G04 Created by KiCad (PCBNEW 9.0.6) date 2025-12-06 15:38:28*
%MOMM*%
%LPD*%
G01*
G04 APERTURE LIST*
G04 Aperture macros list*
%AMRoundRect*
0 Rectangle with rounded corners*
0 $1 Rounding radius*
0 $2 $3 $4 $5 $6 $7 $8 $9 X,Y pos of 4 corners*
0 Add a 4 corners polygon primitive as box body*
4,1,4,$2,$3,$4,$5,$6,$7,$8,$9,$2,$3,0*
0 Add four circle primitives for the rounded corners*
1,1,$1+$1,$2,$3*
1,1,$1+$1,$4,$5*
1,1,$1+$1,$6,$7*
1,1,$1+$1,$8,$9*
0 Add four rect primitives between the rounded corners*
20,1,$1+$1,$2,$3,$4,$5,0*
20,1,$1+$1,$4,$5,$6,$7,0*
20,1,$1+$1,$6,$7,$8,$9,0*
20,1,$1+$1,$8,$9,$2,$3,0*%
G04 Aperture macros list end*
%ADD10C,2.200000*%
%ADD11RoundRect,0.200000X-0.900000X-0.900000X0.900000X-0.900000X0.900000X0.900000X-0.900000X0.900000X0*%
%ADD12C,2.000000*%
%ADD13RoundRect,0.200000X-0.800000X-0.800000X0.800000X-0.800000X0.800000X0.800000X-0.800000X0.800000X0*%
%ADD14RoundRect,0.312500X0.687500X0.687500X-0.687500X0.687500X-0.687500X-0.687500X0.687500X-0.687500X0*%
%ADD15C,2.400000*%
%ADD16RoundRect,0.200000X-0.750000X-0.750000X0.750000X-0.750000X0.750000X0.750000X-0.750000X0.750000X0*%
%ADD17C,1.900000*%
%ADD18O,2.000000X2.000000*%
G04 APERTURE END LIST*
D10*
%TO.C,D1*%
X152640000Y-85200000D03*
D11*
X150100000Y-85200000D03*
%TD*%
%TO.C,D2*%
X109725000Y-83900000D03*
D10*
X112265000Y-83900000D03*
%TD*%
D12*
%TO.C,C1*%
X133500000Y-108900000D03*
D13*
X131000000Y-108900000D03*
%TD*%
D12*
%TO.C,R1off1*%
X122200000Y-111950000D03*
X112040000Y-111950000D03*
%TD*%
%TO.C,R3*%
X122200000Y-132200000D03*
X112040000Y-132200000D03*
%TD*%
D14*
%TO.C,U1*%
X148520000Y-122620000D03*
D12*
X148520000Y-125160000D03*
X148520000Y-127700000D03*
X148520000Y-130240000D03*
X140900000Y-130240000D03*
X140900000Y-127700000D03*
X140900000Y-125160000D03*
X140900000Y-122620000D03*
%TD*%
D15*
%TO.C,S1*%
X167020000Y-51500000D03*
X169560000Y-51500000D03*
X172100000Y-51500000D03*
%TD*%
D12*
%TO.C,R7*%
X112040000Y-116000000D03*
X122200000Y-116000000D03*
%TD*%
%TO.C,R6*%
X112040000Y-120050000D03*
X122200000Y-120050000D03*
%TD*%
%TO.C,R5*%
X112040000Y-124100000D03*
X122200000Y-124100000D03*
%TD*%
%TO.C,R4*%
X112040000Y-128150000D03*
X122200000Y-128150000D03*
%TD*%
D16*
%TO.C,T2*%
X129160000Y-101540000D03*
D17*
X131700000Y-99000000D03*
X134240000Y-101540000D03*
%TD*%
D16*
%TO.C,T1*%
X129200000Y-93300000D03*
D17*
X131740000Y-90760000D03*
X134280000Y-93300000D03*
%TD*%
D13*
%TO.C,D3*%
X140200000Y-113500000D03*
D18*
X147820000Y-113500000D03*
%TD*%
M02*
