<?xml version="1.0" encoding="UTF-8" standalone="no"?>
<!-- Created with Inkscape (http://www.inkscape.org/) -->

<svg
   width="120.0mm"
   height="120.0mm"
   viewBox="0 0 120.0 120.0"
   version="1.1"
   id="svg1"
   xml:space="preserve"
   inkscape:version="1.4.2 (f4327f4, 2025-05-13)"
   sodipodi:docname="Jo_Rabbit.svg"
   xmlns:inkscape="http://www.inkscape.org/namespaces/inkscape"
   xmlns:sodipodi="http://sodipodi.sourceforge.net/DTD/sodipodi-0.dtd"
   xmlns="http://www.w3.org/2000/svg"
   xmlns:svg="http://www.w3.org/2000/svg"><sodipodi:namedview
     id="namedview1"
     pagecolor="#ffffff"
     bordercolor="#666666"
     borderopacity="1.0"
     inkscape:showpageshadow="2"
     inkscape:pageopacity="0.0"
     inkscape:pagecheckerboard="0"
     inkscape:deskcolor="#d1d1d1"
     inkscape:document-units="mm"
     inkscape:zoom="1.4142136"
     inkscape:cx="211.77848"
     inkscape:cy="226.62772"
     inkscape:window-width="1920"
     inkscape:window-height="1009"
     inkscape:window-x="-8"
     inkscape:window-y="-8"
     inkscape:window-maximized="1"
     inkscape:current-layer="g2489"
     inkscape:pageshadow="2"
     showgrid="false"
     showguides="true"
     inkscape:snap-global="false"
     borderlayer="true"><inkscape:grid
       spacingx="2.54"
       spacingy="2.54"
       empspacing="1"
       type="xygrid"
       units="mm"
       id="grid2459"
       originx="0"
       originy="0"
       visible="false" /><inkscape:grid
       spacingx="2.54"
       spacingy="2.54"
       empspacing="1"
       type="xygrid"
       units="mm"
       id="grid989"
       originx="0"
       originy="0"
       visible="false" /></sodipodi:namedview><defs
     id="defs1" /><g
     inkscape:label="Ebene 1"
     inkscape:groupmode="layer"
     id="layer1"
     style="display:inline" /><g
     inkscape:label="[fixed] BG"
     inkscape:groupmode="layer"
     sodipodi:insensitive="true"
     id="g2475"><rect
       x="0"
       y="0"
       width="120.0"
       height="120.0"
       style="fill:#FFFFFF;fill-opacity:1;stroke:none"
       id="rect2473" /></g><g
     inkscape:label="Edge.Cuts"
     inkscape:groupmode="layer"
     id="g2477"
     style="display:inline"><path
       style="fill:none;stroke:#000000;stroke-width:0.05mm"
       d="m 36.419,7.84768 -0.3636,0.03159 -0.3608,0.048 -0.3573,0.0641 -0.3536,0.07971 -0.3494,0.0949 -0.3447,0.10975 -0.3396,0.12421 -0.3341,0.13827 -0.6498,0.31716 -0.6223,0.36874 -0.5915,0.4171 -0.557,0.46239 -0.5192,0.5046 -0.4777,0.5436 -0.4327,0.5795 -0.3843,0.6122 -0.1729,0.3175 -0.1595,0.3244 -0.1456,0.3311 -0.1314,0.3373 -0.1165,0.3432 -0.1014,0.3486 -0.0858,0.3537 -0.0697,0.3583 -0.0826,0.5841 -0.0498,0.5838 -0.0193,0.5834 0.009,0.5826 0.0348,0.5817 0.0585,0.5804 0.0799,0.5791 0.099,0.5773 0.1158,0.5755 0.1303,0.5733 0.2953,1.1391 0.3261,1.1277 0.3387,1.1143 0.3414,0.9743 0.366,0.964 0.3893,0.9539 0.4116,0.944 0.4326,0.9345 0.4524,0.9251 0.471,0.9161 0.4885,0.9073 0.5048,0.8988 0.5198,0.8905 0.5338,0.8825 0.5465,0.8747 1.1265,1.7273 1.1631,1.6995 -0.4571,0.4552 -0.4435,0.4729 -0.4277,0.49 -0.4099,0.5065 -0.39,0.5222 -0.3681,0.5375 -0.3442,0.5522 -0.3181,0.5661 -0.2899,0.5794 -0.2598,0.5922 -0.2276,0.6044 -0.1932,0.6158 -0.1568,0.6268 -0.1185,0.637 -0.0779,0.6467 -0.0353,0.6557 -0.0124,0.5969 0.0154,0.5965 0.0422,0.5952 0.068,0.5927 0.0929,0.5896 0.1169,0.5854 0.14,0.5803 0.162,0.5743 -0.3225,0.1827 -0.317,0.1998 -0.3093,0.2164 -0.2994,0.2325 -0.2873,0.248 -0.273,0.2632 -0.2565,0.2777 -0.2378,0.2919 -0.2169,0.3053 -0.1937,0.3185 -0.1685,0.3309 -0.141,0.343 -0.1113,0.3546 -0.0794,0.3656 -0.0454,0.3761 -0.009,0.3861 -0.0224,0.3559 -0.007,0.3618 0.009,0.3656 0.0264,0.367 0.0446,0.3661 0.064,0.363 0.0843,0.3575 0.1056,0.3498 0.1281,0.3398 0.1514,0.3276 0.1759,0.3129 0.2013,0.2961 0.2278,0.277 0.2553,0.2555 0.2838,0.2318 0.3133,0.2058 0.1264,0.0855 0.1478,0.0623 0.3183,0.0933 0.1501,0.0502 0.1304,0.0653 0.1003,0.0901 0.0358,0.0573 0.0243,0.067 0.0778,0.3489 0.105,0.3404 0.1309,0.3307 0.1552,0.3199 0.1781,0.308 0.1996,0.295 0.2195,0.2809 0.238,0.2657 0.255,0.2493 0.2705,0.2319 0.2847,0.2133 0.2972,0.1937 0.3084,0.1729 0.3181,0.1511 0.3263,0.128 0.333,0.1039 -0.4297,0.3835 -0.414,0.4015 -0.3997,0.4171 -0.3868,0.4303 -0.7401,0.8911 -0.7048,0.9158 -0.3067,0.4253 -0.2889,0.437 -0.2708,0.448 -0.2523,0.4584 -0.2335,0.4678 -0.2144,0.4768 -0.1949,0.4848 -0.1752,0.4921 -0.155,0.4988 -0.1346,0.5047 -0.1138,0.5099 -0.0927,0.5144 -0.0712,0.518 -0.0495,0.5211 -0.0274,0.5233 -0.005,0.5248 0.007,0.4465 0.023,0.4461 0.0422,0.4445 0.0651,0.4418 -0.3365,0.0718 -0.3284,0.0984 -0.32,0.1227 -0.3111,0.1446 -0.3019,0.1644 -0.2921,0.1816 -0.282,0.1967 -0.2714,0.2093 -0.3703,-0.1843 -0.3836,-0.1695 -0.3948,-0.1528 -0.404,-0.1339 -0.4112,-0.113 -0.4163,-0.0903 -0.4195,-0.0654 -0.4205,-0.0386 -0.4196,-0.01 -0.4166,0.0212 -0.4117,0.054 -0.4047,0.0889 -0.3956,0.1258 -0.3846,0.1647 -0.3715,0.2056 -0.3564,0.2485 -0.2877,0.2466 -0.2635,0.2704 -0.2398,0.2913 -0.2166,0.3094 -0.1943,0.3247 -0.1724,0.3372 -0.1512,0.347 -0.1307,0.3538 -0.6525,0.1246 -0.652,0.1749 -0.321,0.108 -0.3152,0.1228 -0.3075,0.1382 -0.2978,0.1543 -0.2863,0.1713 -0.2729,0.1889 -0.2575,0.2072 -0.2403,0.2262 -0.2211,0.2461 -0.2,0.2666 -0.1771,0.2877 -0.1523,0.3098 -0.0868,0.2214 -0.0717,0.2244 -0.102,0.4566 -0.0529,0.4642 -0.0112,0.4689 0.0232,0.4706 0.0502,0.4691 0.0697,0.4648 0.0819,0.4573 -0.2304,0.2176 -0.2172,0.2306 -0.2036,0.2429 -0.1894,0.254 -0.1747,0.2644 -0.1595,0.2739 -0.1438,0.2823 -0.1277,0.2901 -0.1109,0.2968 -0.0937,0.3026 -0.0759,0.3076 -0.0578,0.3116 -0.0389,0.3147 -0.0197,0.317 v 0.3184 l 0.0203,0.3188 0.024,0.3591 0.0518,0.3509 0.0779,0.3424 0.1024,0.3339 0.1254,0.3251 0.1468,0.3162 0.1665,0.3072 0.1846,0.298 0.2012,0.2886 0.216,0.2792 0.2295,0.2694 0.2411,0.2597 0.511,0.4893 0.5387,0.4478 5.0342,4.0858 2.5338,2.026 1.2766,1 1.285,0.988 0.54,0.354 0.5568,0.326 0.5722,0.297 0.5861,0.27 0.5985,0.241 0.6096,0.213 0.619,0.185 0.6271,0.157 0.6338,0.128 0.6389,0.099 0.6426,0.072 0.6449,0.042 0.6456,0.014 0.645,-0.015 0.6428,-0.044 0.6392,-0.072 0.3842,-0.06 0.38,-0.084 0.3758,-0.104 0.3718,-0.119 0.7314,-0.261 0.7156,-0.261 1.1401,0.233 0.5728,0.098 0.5746,0.082 0.5767,0.066 0.5787,0.048 0.5809,0.028 0.5831,0.006 1.5369,0.005 1.5347,-0.03 3.0634,-0.108 1.5289,-0.048 1.5272,-0.022 1.5258,0.018 0.7624,0.029 0.762,0.045 3.8263,0.139 1.9165,0.055 1.9164,0.023 1.9144,-0.023 0.956,-0.034 0.9548,-0.052 0.9535,-0.072 0.9518,-0.094 0.9501,-0.118 0.948,-0.143 0.532,-0.13 0.5231,-0.155 0.514,-0.178 0.5052,-0.2 0.4964,-0.221 0.4877,-0.24 0.4789,-0.258 0.4704,-0.275 0.4617,-0.289 0.4533,-0.303 0.8814,-0.64 0.8481,-0.677 0.8154,-0.701 1.0539,-0.855 1.063,-0.846 2.1252,-1.694 1.0482,-0.863 1.0291,-0.8848 1.0031,-0.9125 0.9699,-0.9491 0.2527,-0.3507 0.226,-0.3706 0.1985,-0.388 0.1703,-0.4027 0.1412,-0.4147 0.1114,-0.4243 0.0808,-0.4308 0.0495,-0.4353 0.0174,-0.4366 -0.0155,-0.4355 -0.0492,-0.4319 -0.0836,-0.4254 -0.1187,-0.4164 -0.1548,-0.4048 -0.1915,-0.3905 -0.2289,-0.3737 -0.1315,-0.1569 -0.1617,-0.1472 -0.3349,-0.2904 -0.1334,-0.1555 -0.0495,-0.0831 -0.0346,-0.0876 -0.0174,-0.0928 0.002,-0.0992 0.0247,-0.1059 0.0493,-0.1135 0.1139,-0.6429 0.0366,-0.3307 0.0211,-0.3341 0.004,-0.3356 -0.0137,-0.3347 -0.033,-0.3322 -0.0536,-0.3275 -0.0757,-0.3207 -0.0989,-0.3118 -0.1236,-0.301 -0.1495,-0.2881 -0.1767,-0.2731 -0.2054,-0.2562 -0.2353,-0.2371 -0.2664,-0.216 -0.3281,-0.2418 -0.3453,-0.2157 -0.3603,-0.1896 -0.3732,-0.1634 -0.3838,-0.1372 -0.3923,-0.1109 -0.3987,-0.0845 -0.4027,-0.0581 -0.12,-0.3783 -0.1526,-0.3667 -0.1832,-0.353 -0.2118,-0.337 -0.2386,-0.3188 -0.2633,-0.2986 -0.2862,-0.2759 -0.3072,-0.2513 -0.326,-0.2243 -0.3432,-0.1951 -0.3582,-0.1638 -0.3713,-0.1303 -0.3826,-0.0945 -0.3918,-0.0566 -0.3992,-0.0164 -0.4046,0.0259 -0.5489,0.038 -0.5391,0.0765 -0.5291,0.1126 -0.5191,0.1464 -0.5088,0.178 -0.4984,0.2072 -0.4878,0.2341 -0.4772,0.2587 -0.4663,0.281 -0.4554,0.3011 -0.4443,0.3187 -0.433,0.3341 -0.4216,0.3472 -0.41,0.358 -0.7849,0.7392 -0.2601,-0.1869 -0.1399,-0.0978 -0.1255,-0.1047 -0.0957,-0.1143 -0.0502,-0.1269 -0.003,-0.069 0.014,-0.0734 0.0332,-0.0779 0.0543,-0.0829 0.2139,-0.7261 0.1765,-0.7382 0.1383,-0.7475 0.0995,-0.7545 0.0599,-0.7588 0.0197,-0.7607 -0.0213,-0.7599 -0.063,-0.7567 -0.1052,-0.7509 -0.1483,-0.7426 -0.1921,-0.7318 -0.2364,-0.7184 -0.2816,-0.7023 -0.3275,-0.6841 -0.3739,-0.6631 -0.4212,-0.6393 -0.5465,-0.7851 -0.5846,-0.7569 -0.616,-0.7319 -0.6409,-0.7101 0.3969,-0.133 0.3951,-0.1505 0.3909,-0.168 0.3846,-0.1858 0.3758,-0.2038 0.3649,-0.2219 0.3516,-0.2404 0.336,-0.2589 0.3181,-0.2778 0.298,-0.2967 0.2755,-0.3161 0.2507,-0.3354 0.2237,-0.355 0.1944,-0.3749 0.1627,-0.3949 0.1288,-0.4151 0.1184,-0.5314 0.064,-0.5408 0.007,-0.5442 -0.0188,-0.2716 -0.0339,-0.2702 0.2814,-0.2543 0.2703,-0.2731 0.2568,-0.2903 0.2412,-0.3061 0.2231,-0.3204 0.2028,-0.3331 0.1802,-0.3444 0.1553,-0.3541 0.1282,-0.3623 0.0987,-0.369 0.0669,-0.3743 0.0329,-0.3779 -0.003,-0.3801 -0.0421,-0.3808 -0.0829,-0.38 -0.1262,-0.3776 -0.0991,-0.2464 -0.1128,-0.2382 -0.2631,-0.4531 -0.3066,-0.4245 -0.3426,-0.3988 -0.3709,-0.376 -0.3916,-0.3561 -0.4047,-0.339 -0.4102,-0.3249 0.1306,-0.6718 0.1106,-0.6777 0.0895,-0.6824 0.067,-0.6857 0.0435,-0.6877 0.0186,-0.6885 -0.007,-0.6881 -0.0346,-0.6863 -0.0629,-0.6833 -0.0926,-0.679 -0.1234,-0.6734 -0.1554,-0.6666 -0.1886,-0.6584 -0.2231,-0.6492 -0.2587,-0.6383 -0.2955,-0.6264 -0.3115,-0.6151 -0.3407,-0.5996 -0.3688,-0.5829 -0.3957,-0.5651 -0.4217,-0.5461 -0.4465,-0.5259 -0.4703,-0.5045 -0.493,-0.482 0.9639,-0.7553 0.4861,-0.3723 0.4993,-0.3548 0.9576,0.6165 0.9833,0.6085 0.5016,0.2928 0.5086,0.2806 0.5155,0.265 0.5228,0.2459 0.53,0.2236 0.5376,0.1977 0.5452,0.1684 0.5531,0.1358 0.561,0.0997 0.5691,0.0603 0.5774,0.0174 0.5858,-0.0289 0.4721,-0.0845 0.4518,-0.1326 0.4303,-0.1772 0.4081,-0.2186 0.3846,-0.2568 0.3604,-0.2916 0.3351,-0.3231 0.3087,-0.3513 0.2815,-0.3763 0.2532,-0.3979 0.224,-0.4163 0.1937,-0.4314 0.1624,-0.4431 0.1303,-0.4516 0.097,-0.4568 0.0627,-0.4587 0.0371,-0.4886 0.015,-0.4877 -0.005,-0.4867 -0.0235,-0.4858 -0.0398,-0.4849 -0.0542,-0.4841 -0.144,-0.9656 -0.179,-0.9625 L 81.4454,28.8287 81.2431,27.8721 81.052,26.9183 80.7385,25.6622 80.3809,24.41 80.1827,23.7885 79.97,23.1718 79.7417,22.5612 79.4965,21.9579 79.2334,21.3632 78.9511,20.7784 78.6486,20.2047 78.3247,19.6435 77.9782,19.096 77.6079,18.5635 77.2127,18.0473 76.7915,17.5486 76.4726,17.2333 76.1317,16.94 l -0.3608,-0.27 -0.3787,-0.2453 -0.3943,-0.2192 -0.4081,-0.1919 -0.4196,-0.1631 -0.4291,-0.1329 -0.4364,-0.1014 -0.4418,-0.0686 -0.445,-0.0344 -0.4461,0.001 -0.4451,0.0381 -0.4422,0.0765 -0.4369,0.1162 -0.4298,0.1572 -0.6584,0.2636 -0.637,0.3005 -0.6162,0.335 -0.5961,0.367 -0.5766,0.3969 -0.5578,0.4243 -0.5395,0.4493 -0.5219,0.472 -0.505,0.4922 -0.4886,0.5103 -0.473,0.5258 -0.4579,0.539 -0.4434,0.5499 -0.4297,0.5584 -0.8206,1.1327 -0.7632,1.1555 -0.7284,1.1773 -0.6955,1.1971 -0.6646,1.2148 -0.6358,1.2304 -0.6091,1.244 -0.5843,1.2554 -0.5615,1.2648 -0.4133,-0.1295 -0.4177,-0.1124 -0.4214,-0.0958 -0.4246,-0.0795 -0.4274,-0.0635 -0.4294,-0.0478 -0.4311,-0.0325 -0.4321,-0.0176 -0.865,0.008 -0.8625,0.0643 -0.8555,0.1174 -0.8443,0.1677 -0.1946,-2.3229 -0.1164,-1.163 -0.1316,-1.1626 -0.1487,-1.1611 -0.1675,-1.1588 -0.1884,-1.1553 -0.211,-1.1509 -0.2354,-1.1454 -0.2618,-1.1389 -0.29,-1.1314 -0.32,-1.1229 -0.3519,-1.1134 -0.3856,-1.1028 -0.4212,-1.0912 -0.4587,-1.0786 -0.4533,-0.9276 -0.2467,-0.4607 -0.261,-0.4553 -0.2763,-0.4472 -0.2923,-0.4364 -0.3093,-0.423 -0.3271,-0.407 L 43.435,10.5924 43.07,10.2254 42.6847,9.88224 42.2782,9.56564 41.8499,9.27814 41.3988,9.02252 40.924,8.80129 40.4249,8.61713 39.9409,8.45079 39.4501,8.30601 38.9535,8.182 38.4521,8.07799 37.947,7.99319 37.4392,7.92689 36.9296,7.87829 36.4193,7.84659"
       id="path1158" /></g><g
     inkscape:label="B.Cu"
     inkscape:groupmode="layer"
     id="g2479"
     style="display:inline" /><g
     inkscape:label="B.Mask"
     inkscape:groupmode="layer"
     id="g2481"
     style="display:inline" /><g
     inkscape:label="B.SilkS"
     inkscape:groupmode="layer"
     id="g2483"
     style="display:inline" /><g
     inkscape:label="F.Cu"
     inkscape:groupmode="layer"
     id="g2485"
     style="display:inline" /><g
     inkscape:label="F.Mask"
     inkscape:groupmode="layer"
     id="g2487"
     style="display:inline" /><g
     inkscape:label="F.SilkS"
     inkscape:groupmode="layer"
     id="g2489"
     style="display:inline"><path
       id="path1160"
       style="display:inline;opacity:1;fill:none;fill-opacity:1;stroke:#000100;stroke-width:0.05mm;stroke-opacity:1"
       d="m 36.388331,8.4649823 c -3.403361,0.19626 -6.468974,2.7433697 -7.341981,6.0283097 -0.742964,2.72167 0.03895,5.54654 0.724794,8.19435 1.657833,5.51803 4.546684,10.59336 7.844344,15.28893 0.267715,0.39095 0.863452,0.87519 0.214249,1.21692 -2.650868,2.38109 -4.539043,5.842081 -4.36846,9.480463 0.01751,1.399669 0.320416,2.782255 0.757132,4.107433 -1.161915,0.702318 -2.448569,1.429647 -3.000353,2.746697 -0.608975,1.359383 -0.489475,2.944957 -0.131378,4.353791 0.363527,1.199944 1.414054,2.230304 2.717669,2.258887 0.108553,1.925457 1.582509,3.755234 3.482422,4.091797 0.368289,0.03667 1.037514,0.456154 0.484375,0.748046 -1.955629,1.598 -3.533438,3.648799 -4.707123,5.87684 -1.11414,2.324789 -1.308479,4.992353 -0.951081,7.511832 -1.121167,0.122394 -2.186306,0.650134 -3.019531,1.404297 -1.734761,-0.950524 -4.020759,-1.615363 -5.823827,-0.458788 -0.943371,0.593912 -1.487675,1.642714 -1.818751,2.663866 -0.724925,0.388234 -1.632766,0.207386 -2.352456,0.653361 -1.533325,0.644474 -2.497004,2.382941 -2.141685,4.022421 -0.01428,0.504151 0.322154,1.074734 0.161424,1.529405 -1.172936,1.080449 -2.064676,2.638702 -1.78205,4.282975 0.08226,1.45498 0.855589,2.809363 2.035515,3.654205 2.8961,2.62137 6.102817,4.86769 9.064178,7.41537 1.718297,1.45588 3.722366,2.59637 5.93704,3.07141 2.572717,0.64883 5.418159,0.58229 7.807861,-0.64754 0.842151,-0.0895 1.63687,0.37163 2.485017,0.40316 3.971702,0.52806 7.953886,-0.18332 11.922596,-0.015 5.161522,0.091 10.398123,0.5555 15.580622,0.0816 3.291031,-0.13374 6.386678,-1.675 8.786399,-3.87802 2.975646,-2.47058 6.165163,-4.755837 8.939297,-7.473843 1.161008,-1.623568 1.548207,-4.017617 0.388273,-5.738175 -0.294419,-0.447378 -0.921694,-0.746762 -1.098612,-1.185145 0.416256,-1.405496 0.611366,-3.133958 -0.30936,-4.379789 -0.880897,-1.076688 -2.288694,-1.573476 -3.640856,-1.675301 -0.339481,-1.795078 -1.879885,-3.365199 -3.761729,-3.399415 -3.006554,-0.07093 -5.605296,1.834676 -7.658193,3.844728 -0.394435,0.697419 -0.822737,-0.202395 -1.249672,-0.444399 -0.514822,-0.261615 -0.536984,-0.637111 -0.275718,-1.127867 0.611447,-2.095113 0.94502,-4.310281 0.519531,-6.476562 -0.376232,-2.418641 -1.608911,-4.606038 -3.208957,-6.426342 -0.525173,-0.655973 -1.088678,-1.281997 -1.697293,-1.860768 1.945308,-0.597623 4.12507,-1.404858 5.04999,-3.381388 0.490943,-0.91954 0.630722,-2.015178 0.426573,-3.034628 1.006844,-0.996784 2.09453,-2.105756 2.148437,-3.611328 C 73.67162,56.41704 72.380821,54.999771 71.046763,54.03743 70.568,53.818176 70.4374,53.390367 70.631897,52.916458 c 0.838202,-3.654009 0.501936,-7.678361 -1.429066,-10.948016 -0.843118,-1.43454 -1.937132,-2.71673 -3.185594,-3.81401 0.996487,-0.71186 1.859363,-1.57371 2.935547,-2.17578 2.137002,1.40259 4.357178,2.94524 6.950983,3.29005 1.72777,0.29313 3.539796,-0.51942 4.453314,-2.01856 1.194038,-1.78916 1.164205,-4.05292 0.78125,-6.0879 -0.644996,-3.88171 -1.474295,-7.84752 -3.480469,-11.2832 -1.078906,-1.77461 -2.697102,-3.49682 -4.882082,-3.70032 -2.016764,-0.30763 -3.848689,0.85123 -5.442515,1.93093 -3.367125,2.48404 -5.607754,6.13425 -7.634387,9.72056 -1.032347,1.90861 -1.961645,3.87114 -2.806641,5.86914 -1.498043,-0.42962 -3.02876,-0.87662 -4.606298,-0.6888 -1.037969,0.05 -2.067744,0.21793 -3.075342,0.47005 -0.522685,-6.09168 -1.25645,-12.28216 -3.601563,-17.97851 -0.859702,-1.88893 -1.861475,-3.8164 -3.450729,-5.1933 C 40.5307,9.0489123 38.401808,8.5905123 36.388331,8.4649823 Z" /><path
       id="path1160-6"
       style="display:inline;fill:#000000;fill-opacity:0.379728;stroke:#000100;stroke-width:0.188976mm;stroke-opacity:1"
       d="m 137.40235,33.869141 c -0.62313,0.0083 -1.24772,0.03692 -1.8711,0.08594 -14.12995,1.913371 -25.43648,15.844913 -24.3418,29.980469 0.71384,12.897209 4.90979,25.357268 9.88868,37.18164 6.58504,15.42446 15.64231,29.64613 25.1875,43.36523 1.44386,3.27541 -2.24318,5.23687 -4.09766,7.20508 -2.29614,2.28701 -4.33035,4.85019 -6.10547,7.58203 1.47488,-0.13026 2.96036,-0.28712 4.45703,-0.47265 0.33336,-0.0408 0.66235,-0.0838 0.98633,-0.12696 1.62695,-0.21559 3.40917,-0.41832 5.34961,-0.60937 1.5581,-0.15394 3.34792,-0.26712 5.36524,-0.3418 0.29715,-0.0124 0.57086,-0.12595 0.875,-0.14258 0.65609,-0.0351 1.31024,-0.0883 1.96289,-0.1582 0.89966,-0.0957 1.55159,-0.15512 1.95703,-0.17969 0.88108,-0.0513 1.77808,-0.0912 2.68945,-0.11914 0.34612,-0.0105 0.72483,-0.17219 1.10938,-0.18164 1.27548,-0.0357 2.55668,-0.0702 3.83984,-0.0684 h 0.002 c 1.28311,0.002 2.56819,0.04 3.85156,0.14649 1.01507,0.0852 2.0713,0.15339 3.16797,0.20703 0.80414,0.0403 1.63345,0.16343 2.45508,0.24023 0.77611,0.0734 1.60719,0.2853 2.4043,0.35352 0.35667,0.0298 0.73318,0.18064 1.12305,0.2207 0.15149,0.0162 0.30132,0.0401 0.44921,0.0703 2.31571,0.46733 4.53561,1.13132 6.66016,1.99024 1.20852,0.48829 2.29598,1.08636 3.25977,1.79492 0.64681,0.47548 0.99109,1.17134 1.49804,1.7832 0.32749,0.39508 0.59654,0.87184 0.80274,1.42774 0.43468,1.17476 0.67798,1.96435 0.73047,2.37109 0.11192,0.87755 0.27129,1.80823 0.30078,2.6211 0.0488,1.36932 -0.10114,2.86999 -0.45313,4.5039 -0.19466,0.89851 -0.35374,1.54633 -0.47851,1.94141 -0.34612,1.09432 -0.64711,2.28897 -0.96875,3.2539 -0.70858,2.11872 -1.52737,4.1751 -2.45508,6.16797 -0.47899,1.02962 -0.87123,2.10598 -1.45508,3.10938 -0.91428,1.57509 -1.95301,3.31529 -3.10156,4.65429 -1.14787,1.33906 -2.39295,2.56516 -3.73438,3.68165 -0.53021,0.4405 -1.27603,0.97616 -2.23633,1.60546 -0.7633,0.50113 -1.52889,1.01186 -2.29687,1.5293 -0.33095,0.22258 -0.61133,0.3809 -0.83984,0.47656 -2.79114,1.16545 -4.6283,1.87442 -5.51172,2.125 -0.86807,0.24589 -1.72578,0.48165 -2.57422,0.70899 -1.11063,0.29724 -2.46556,0.47212 -4.06445,0.52344 -1.36123,0.0435 -2.81881,0.054 -4.3711,0.0352 -1.16661,-0.0152 -2.3168,-0.14351 -3.45312,-0.38476 -2.01851,-0.43005 -3.98764,-1.16911 -5.90821,-2.2168 -0.25405,-0.13752 -0.5546,-0.3386 -0.89843,-0.60547 -0.38631,-0.30071 -0.808,-0.55723 -1.15235,-0.87891 -0.59439,-0.55938 -1.19191,-1.14991 -1.79101,-1.76757 -0.32041,-0.331 -0.59266,-0.70824 -0.81641,-1.13477 -0.56752,-1.08735 -1.08581,-2.14159 -1.55664,-3.16016 -0.1853,-0.40089 -0.4657,-1.26677 -0.83984,-2.59765 -0.65145,-2.31686 -1.17088,-4.70547 -1.55665,-7.16797 -0.20096,-1.2814 -0.25621,-2.59074 -0.45898,-3.88086 -0.0578,-0.36011 -0.0465,-0.76985 -0.0898,-1.10547 -0.2016,-1.543 -0.39594,-3.08747 -0.58008,-4.63281 -0.0792,-0.66197 -0.25782,-1.37928 -0.53516,-2.1543 -0.25178,-0.70623 -0.68584,-1.3655 -1.30469,-1.97851 -0.77845,-0.76917 -1.59215,-1.45963 -2.43945,-2.07032 C 133.14588,168.46602 133,168.18675 133,167.8418 v -3.10547 c -3.6622,7.77925 -5.11671,16.55612 -3.38672,25.08203 0.57818,3.4375 1.63321,6.7677 2.66992,10.08789 -5.573,3.24327 -12.55127,7.03992 -13.09765,14.27149 -0.65735,5.57791 -0.32343,12.6335 4.6543,16.22656 1.80907,1.31542 4.08887,1.55039 6.25781,1.50195 -0.36412,7.39887 5.11024,14.81679 12.63867,15.71875 2.84006,0.56989 4.69286,4.86798 1.83789,6.61914 -8.83149,7.44407 -16.44409,16.99195 -19.77734,28.1836 -3.40524,9.59915 -1.42716,16.75654 -0.64844,20.5625 0.0915,0.44724 -0.0369,0.81658 -0.31836,1.14062 l 0.34766,-0.16992 c 7.17493,15.4769 19.04127,29.656 36.89257,29.58594 5.30075,-1.26939 4.3455,-7.37232 4.83204,-11.08008 4.8263,3.18687 13.14057,2.35904 11.73046,-4.90039 -0.99103,-9.56225 5.60673,-3.37783 3.50977,2.63672 0.17386,6.61442 -6.55634,8.38246 -11.81445,6.79687 0.71765,10.68219 -11.81973,12.8825 -19.24219,8.35157 -13.55394,-5.173 -24.58074,-15.83473 -29.67188,-29.55469 l 0.79493,-0.38867 c -1.10743,0.36207 -2.26355,0.70193 -3.66797,1.10742 -1.25477,0.47712 -2.41153,1.13568 -3.51367,1.87891 2.23431,0.42753 8.10075,7.51738 16.6875,15.80273 17.06265,16.46392 37.10449,48.53398 37.91796,73.51367 l 53.91993,-0.90039 c 6.46373,-37.09166 27.4805,-55.06106 44.04687,-76.5918 -0.80644,-0.72169 -1.59807,-1.46076 -2.4082,-1.96679 -0.13516,-0.1266 -0.20013,-0.26567 -0.3125,-0.39649 -5.09973,13.67751 -15.08423,22.57876 -28.61328,27.74219 -7.42231,4.53104 -19.95985,2.33063 -19.24219,-8.35156 -5.25812,1.58558 -11.98831,-0.18235 -11.81445,-6.79688 -2.09696,-6.01472 4.50276,-12.19898 3.51172,-2.63672 -1.41011,7.25954 6.90415,8.08911 11.73046,4.90235 0.48654,3.70766 -0.47056,9.80873 4.83008,11.07812 17.85133,0.0702 31.07105,-15.07387 38.2461,-30.55078 0.0664,1.98092 -0.11167,3.38369 1.15234,4.35938 -2.04813,-2.77033 0.39578,-6.36193 0.83594,-9.36328 3.4241,-12.89829 1.00364,-27.33838 -7.25,-38.07813 -3.69359,-5.11463 -7.97335,-9.71424 -12.60742,-14.11523 7.63648,-2.49475 16.75831,-4.49677 21.08984,-12.00977 2.11925,-3.60234 2.51685,-7.97004 1.56445,-11.99609 4.37616,-4.09721 9.68804,-9.50746 8.0625,-16.09766 -1.20265,-5.37465 -6.06462,-8.65678 -9.97851,-11.97656 -2.48761,-3.4982 0.51581,-7.58261 0.38867,-11.36133 1.17159,-8.63958 0.32825,-17.5811 -2.66797,-25.79297 -0.004,0.30035 -0.008,0.5998 -0.0156,0.89648 -0.005,0.1882 -0.0822,0.36686 -0.2168,0.49805 -0.67362,0.65964 -1.34198,1.30513 -2.00391,1.93555 -0.1306,0.12477 -0.2921,0.24239 -0.48437,0.35547 -0.66603,0.39159 -1.1161,1.14337 -1.49024,1.84961 -0.18527,0.34842 -0.30165,0.76874 -0.34961,1.26171 -0.0641,0.66315 -0.12612,1.32874 -0.18554,1.99414 -0.22258,2.47301 -0.57928,4.90234 -1.07227,7.28907 -0.19401,0.9405 -0.32598,1.92443 -0.55664,2.91211 -0.60136,2.55922 -1.16348,4.60257 -1.68555,6.12695 -0.22728,0.66078 -0.47332,1.32595 -0.74023,1.99609 -0.29601,0.74003 -0.58751,1.39416 -0.87305,1.96289 -0.53023,1.05585 -1.14726,2.01535 -1.85351,2.87891 -0.69801,0.85427 -1.29496,1.45227 -1.78907,1.79492 -0.91416,0.6328 -1.86788,1.31298 -2.83984,1.78321 -2.44157,1.18517 -5.02768,1.86235 -7.76172,2.03125 -0.82974,0.0518 -2.08427,0.0631 -3.76367,0.0352 -1.32629,-0.0222 -2.48046,-0.0937 -3.46289,-0.21484 -1.79359,-0.22145 -3.54185,-0.59592 -5.24219,-1.125 -0.81114,-0.25291 -1.70933,-0.61079 -2.69531,-1.07227 -0.55068,-0.25701 -1.1582,-0.41985 -1.67383,-0.75195 -0.38697,-0.24942 -0.79768,-0.53778 -1.23242,-0.86523 -0.73421,-0.55415 -1.48863,-1.04859 -2.25781,-1.5625 -0.35547,-0.23659 -0.68645,-0.48544 -0.99414,-0.74415 -0.53955,-0.45103 -1.12616,-0.90411 -1.75782,-1.36328 -0.93174,-0.67476 -1.73324,-1.528 -2.52343,-2.34961 -0.31817,-0.33391 -0.53055,-0.77623 -0.82422,-1.09961 -0.27448,-0.30419 -0.54022,-0.56598 -0.76563,-0.91211 -0.49652,-0.76387 -1.04935,-1.53663 -1.4707,-2.33203 -1.3798,-2.60816 -2.50641,-5.20532 -3.38281,-7.78906 -0.11884,-0.35137 -0.48459,-1.11894 -0.61914,-1.7168 -0.0735,-0.32864 -0.14364,-0.58387 -0.20899,-0.76562 -0.57806,-1.60362 -1.07733,-3.27926 -1.49805,-5.02734 -0.0188,-0.0781 -0.0632,-0.39015 -0.13671,-0.93555 -0.0595,-0.4388 -0.2582,-0.80938 -0.26758,-1.23242 -0.0166,-1.03607 -0.027,-2.06503 -0.0176,-3.08594 0.009,-0.85656 0.11122,-1.64853 0.30469,-2.37695 0.2786,-1.04304 0.62258,-2.01279 1.02929,-2.91016 0.29198,-0.64681 0.7981,-1.11558 1.22461,-1.66797 0.25056,-0.32747 0.52586,-0.61149 0.82422,-0.85156 1.05938,-0.8531 2.22274,-1.37093 3.63867,-1.90235 2.61057,-0.98007 5.06472,-1.64883 7.36524,-2.00195 2.78413,-0.42771 5.4315,-0.69899 7.93945,-0.81445 0.8544,-0.0396 1.90714,-0.0624 3.16016,-0.0703 h 0.002 c 1.25355,-0.008 2.70704,-2.7e-4 4.35938,0.0234 1.39327,0.0193 2.96358,0.20695 4.38476,0.25586 2.2446,0.0787 4.30739,0.25762 6.41211,0.48828 0.18532,0.0198 0.36234,0.0361 0.53125,0.0527 0.66193,0.0651 1.37216,0.11019 2.13086,0.13476 0.36714,0.0105 0.66766,0.17673 1.03125,0.19336 0.71553,0.0303 1.46725,0.0853 2.25391,0.16211 1.47543,0.14684 2.91834,0.30016 4.32617,0.46094 0.32169,0.0372 0.65703,0.0749 1.00781,0.11328 0.89741,0.0967 1.79919,0.20879 2.70703,0.33594 0.1583,0.022 0.31882,0.0401 0.47852,0.0586 -1.0691,-1.84465 -2.22261,-3.64799 -3.55664,-5.35156 -2.94912,-3.86469 -6.4615,-7.2456 -10.11328,-10.4375 5.04984,-3.52852 9.49413,-7.88585 14.91211,-10.88086 9.2946,5.89602 18.97353,13.41905 30.56836,12.99023 8.32656,-0.82136 13.65195,-9.32096 13.81836,-17.16992 0.50782,-8.52722 -2.01671,-16.98846 -3.5879,-25.45312 -2.98741,-12.588522 -7.00005,-25.81522 -16.40234,-35.17969 -5.38972,-5.014329 -13.84063,-6.590152 -20.41992,-2.980469 -15.00683,6.718193 -24.88927,20.755198 -33.09375,34.423828 -5.82141,9.744241 -10.70565,19.968041 -15.14453,30.482421 -7.59641,-2.46412 -15.57506,-4.20364 -23.42969,-2.63672 -3.07032,0.43688 -6.08865,1.17508 -9.10938,1.86914 -2.17007,-24.51983 -4.65116,-49.640837 -14.83789,-72.404294 -3.95307,-8.421973 -9.37985,-17.523927 -18.89843,-20.291016 -4.11654,-1.41372 -8.45659,-2.319732 -12.81836,-2.261719 z M 259.51563,159.15039 c 1.42412,2.45705 2.63621,5.01438 3.60156,7.66016 0.0139,-1.1131 0.003,-2.25031 -0.0391,-3.41406 -0.012,-0.34435 -0.2225,-0.6022 -0.23633,-0.95703 -0.0166,-0.46966 -0.0315,-0.96104 -0.0469,-1.47266 -0.0193,-0.59435 -0.16646,-0.96022 -0.48633,-1.41992 -0.11546,-0.16555 -0.26742,-0.24965 -0.45508,-0.25196 -0.79604,-0.006 -1.5744,-0.0562 -2.33789,-0.14453 z m 4.16406,158.45118 c 0.063,0.0852 0.12738,0.17027 0.19922,0.2539 0.009,-0.0251 0.02,-0.0491 0.0293,-0.0742 -0.0882,-0.0562 -0.15153,-0.12026 -0.22852,-0.17968 z m 2.91992,2.61718 c 0.9201,0.8234 1.86743,1.60013 2.94336,1.87696 l -2.92578,-1.90039 c -0.006,0.008 -0.0116,0.0157 -0.0176,0.0234 z m 2.94336,1.87696 0.0195,0.0137 c -32.73373,31.94017 -39.57342,56.43374 -41.78711,78.87891 l -62.875,0.45507 c -1.40563,-43.60913 -34.28515,-75.66276 -53.38281,-91.0957 -0.37276,0.3107 -0.77246,0.58828 -1.13672,0.90625 -6.19677,-3.48009 -14.41714,-6.68543 -21.058593,-2.50391 -3.397232,2.16624 -5.036239,6.06586 -6.216797,9.75391 -4.381765,2.26695 -10.175229,1.36236 -13.591797,5.47852 -3.600196,3.61739 -3.765054,9.2154 -2.242188,13.80273 0.584398,2.73257 -1.194595,5.01352 -3.15039,6.62695 -4.621013,5.21591 -5.046187,13.09169 -1.351563,18.97852 3.308738,4.98237 8.627362,8.13225 12.910156,12.0918 10.107167,8.15889 20.376288,16.29609 30.523442,24.47265 10.96858,7.5775 25.11688,10.95227 38.04101,7.78907 3.76138,-0.71985 7.07249,-3.68128 11.04102,-2.53321 5.45212,1.45553 11.16107,1.99948 16.70508,1.98047 14.12788,0.0839 28.28029,-1.50442 42.45898,-0.5293 19.6593,0.49795 39.42349,2.18457 58.93946,-1.04492 10.45387,-2.35435 19.28721,-8.83969 27.13086,-15.85351 10.22385,-8.40582 21.10386,-16.15517 30.32617,-25.68555 4.0969,-6.08366 4.86759,-15.83586 -1.61914,-20.61328 -1.96883,-1.49904 -2.51609,-4.1866 -1.33008,-6.32813 1.4767,-5.3302 0.72377,-12.4103 -4.85742,-15.06836 -3.13753,-1.81883 -6.77996,-2.4267 -10.34961,-2.67187 -0.50426,-7.29031 -7.45036,-14.01826 -14.97657,-12.54297 -10.38399,1.05479 -18.67149,7.93532 -25.77148,14.99414 -0.87553,0.41287 -1.66304,0.43727 -2.39844,0.24805 z M 111.51758,310.34766 c 0.81606,-0.68021 1.63091,-1.3606 2.50977,-1.95312 -0.091,-0.0174 -0.17892,-0.0285 -0.25782,-0.0234 l -2.38476,1.86719 c 0.0435,0.0351 0.0892,0.0741 0.13281,0.10937 z m 9.69141,-4.93945 c 1.11662,-0.36512 2.16935,-0.75725 2.62109,-1.27735 z M 133,164.73633 c 0.89052,-1.89163 1.92242,-3.71222 3.0625,-5.4668 -0.4786,0.0423 -0.95733,0.0826 -1.43359,0.11914 -0.40557,0.0299 -0.84978,0.14254 -1.23438,0.27539 -0.26336,0.0909 -0.39453,0.2773 -0.39453,0.55469 z m 9.86328,-116.863283 c 2.41081,0 6.28672,1.38982 8.17188,2.931641 3.85817,3.155603 8.42542,11.791502 11.66992,22.0625 0.8877,2.810211 2.69417,9.742241 4.12109,15.81836 1.23564,5.260818 4.11065,23.421742 4.89063,30.892582 0.20447,1.95935 0.128,2.50082 -0.42774,3.05664 -0.4487,0.44893 -0.95082,0.58406 -1.49609,0.40234 -0.45128,-0.15043 -2.27241,-0.35952 -4.04883,-0.46289 -3.03726,-0.17651 -3.31168,-0.12547 -4.58984,0.84961 -0.74752,0.57014 -1.35938,1.23071 -1.35938,1.46875 0,0.75382 -3.65491,3.82422 -4.55273,3.82422 -0.49716,0 -1.17719,-0.45385 -1.60938,-1.07422 -0.66156,-0.94995 -2.24067,-3.61632 -4.68164,-7.9082 -0.42754,-0.75183 -1.43328,-2.51001 -2.23632,-3.90625 -1.57398,-2.73593 -6.66013,-12.93014 -8.66993,-17.37891 -5.09729,-11.28342 -8.38143,-22.622309 -8.95312,-30.908204 -0.29103,-4.219823 0.594,-9.874702 1.9668,-12.560547 2.0832,-4.076164 7.11826,-7.107422 11.80468,-7.107422 z m 109.50391,47.13672 c 0.1307,0.01585 0.17302,0.314293 0.0859,0.93164 -0.67711,4.819803 -0.6941,7.164063 -0.0918,12.583983 0.55853,5.02665 0.78255,6.0822 1.97852,9.30469 1.29061,3.47743 2.80481,6.35636 4.65039,8.9043 -1.5593,1.56712 -15.72417,11.99567 -17.58789,12.98632 -1.14042,0.60622 -1.24762,0.60457 -1.93555,0.008 -0.40083,-0.34881 -1.54682,-0.49692 -1.58398,-0.95313 -0.0784,-0.96253 -1.81663,-3.92941 -2.7168,-4.63672 -0.33857,-0.26619 -1.29268,-0.5686 -2.1211,-0.67382 -2.24423,-0.28502 -4.21069,-0.91644 -4.62695,-1.48438 -0.25701,-0.35112 -0.2248,-0.86367 0.10742,-1.69141 0.39683,-0.98922 2.90824,-5.16249 4.91602,-8.16992 0.27375,-0.40993 1.30329,-1.98277 2.28711,-3.49414 3.01732,-4.63521 5.80538,-8.42734 10.3457,-14.06836 3.21382,-3.99259 4.55006,-5.944923 5.11328,-7.466795 0.50046,-1.352331 0.96185,-2.106499 1.17969,-2.080078 z m -90.64844,64.884763 c -0.75907,0.003 -1.57272,0.0109 -2.43945,0.0215 -1.0821,0.0141 -2.11767,0.16978 -3.1875,0.23633 -2.40195,0.14683 -4.82602,0.65599 -7.12305,1.35351 -1.41596,0.43119 -2.59116,0.97551 -3.5293,1.63281 -1.22946,0.8624 -2.14153,2.02097 -2.73242,3.47657 -0.51859,1.27732 -0.88004,2.51443 -1.08398,3.70898 -0.21801,1.27731 -0.34073,2.62664 -0.36719,4.05078 -0.007,0.35662 0.052,0.69592 0.0664,1.05078 0.12938,3.25967 0.37234,6.5117 0.73242,9.75391 0.11188,1.00457 0.23945,1.94313 0.38281,2.81836 0.15147,0.91716 0.35215,1.85492 0.60156,2.81055 0.0714,0.27504 0.13939,0.54722 0.20118,0.8164 0.0653,0.2902 0.14019,0.56157 0.22656,0.81446 0.42419,1.23178 0.99936,2.4046 1.72656,3.51757 0.31001,0.47548 0.71208,0.96571 1.20508,1.47266 0.53962,0.55589 1.01209,0.98961 1.41992,1.30078 1.44633,1.10361 3.21867,1.94972 5.31641,2.53711 0.64792,0.18063 1.42174,0.32683 2.32031,0.4375 1.66072,0.20621 3.23783,0.36488 4.94922,0.24609 2.84479,-0.19582 5.7154,-0.84793 8.61133,-1.95507 1.8216,-0.69692 3.38852,-1.46403 4.70312,-2.30079 0.41838,-0.26568 0.93779,-0.63506 1.55664,-1.10937 0.51747,-0.39507 1.02496,-0.78258 1.52149,-1.16016 0.63385,-0.48247 1.39079,-1.24208 2.26953,-2.27929 1.07565,-1.27147 2.04152,-2.53235 2.90039,-3.78516 0.78203,-1.14211 1.73035,-2.86313 2.8457,-5.16016 0.5017,-1.03486 0.88993,-2.17119 1.28321,-3.24804 0.52908,-1.45083 0.91851,-3.01396 1.16796,-4.6875 0.18656,-1.25618 0.22683,-2.43858 0.12305,-3.54688 -0.12471,-1.32274 -0.37875,-2.59819 -0.76562,-3.82422 -0.3893,-1.23299 -0.9202,-2.24027 -1.59375,-3.02343 -0.75402,-0.87754 -1.33503,-1.46255 -1.73829,-1.75391 -1.44033,-1.04071 -2.80519,-1.79002 -4.09765,-2.24805 -0.70859,-0.2517 -1.72377,-0.53696 -3.04297,-0.85742 -0.35665,-0.0861 -0.74172,-0.15918 -1.1543,-0.21484 -0.40783,-0.0558 -0.79621,-0.11398 -1.16797,-0.17578 -1.88326,-0.31352 -4.12693,-0.52844 -6.73046,-0.64844 -1.30758,-0.0598 -3.0998,-0.0868 -5.37696,-0.0781 z m 67.50586,0.01 c -1.58031,0 -3.13044,0.1391 -4.67578,0.29297 -2.2504,0.22492 -4.47783,0.62982 -6.68164,1.21484 -1.47712,0.39333 -2.86126,0.89303 -4.22656,1.67969 -1.50685,0.86881 -2.39724,1.87941 -3.33594,3.26562 -0.50232,0.74237 -0.8543,1.64299 -1.05469,2.70118 -0.0453,0.24472 -0.11703,0.5876 -0.21484,1.02929 -0.07,0.317 -0.10547,0.64567 -0.10547,0.98828 -0.004,1.83438 0.011,3.32551 0.0469,4.47461 0.007,0.19755 0.11756,0.30608 0.15234,0.46875 v 0.002 c 0.077,0.36593 0.12242,0.82019 0.13672,1.36328 0.0123,0.43528 0.21846,0.76731 0.26953,1.18164 0.0327,0.28085 0.0983,0.55894 0.19726,0.83398 0.13274,0.3741 0.16403,0.77423 0.29688,1.16407 0.44633,1.31918 0.86626,2.5924 1.26367,3.81835 0.26042,0.80588 0.70001,1.54599 0.99024,2.3379 0.27273,0.74115 0.61723,1.44947 1.0332,2.1289 1.67651,2.72882 3.39138,5.1065 6.0625,7.19727 0.33562,0.26331 0.68563,0.54899 1.05273,0.85547 0.29138,0.24358 1.04189,0.7231 2.24805,1.4375 0.67595,0.40092 1.43628,0.76906 2.28125,1.10351 1.92636,0.76101 3.84808,1.35199 5.76758,1.77735 0.30302,0.0663 0.59254,0.11638 0.86523,0.15039 0.67128,0.0821 1.31468,0.25321 1.94922,0.27929 2.68688,0.11188 5.2647,0.0981 7.73828,-0.41406 2.38792,-0.49647 4.61619,-1.53137 6.6836,-3.10352 0.57227,-0.43465 1.09476,-0.94858 1.56445,-1.54296 1.34837,-1.70733 2.33076,-3.61916 2.94727,-5.73438 0.54543,-1.86936 1.04393,-3.85936 1.49609,-5.96875 0.28206,-1.31107 0.4854,-2.6707 0.61133,-4.08203 0.2007,-2.2743 0.38739,-4.56534 0.25976,-6.80469 -0.0572,-1.0139 -0.16332,-2.08395 -0.31836,-3.21094 -0.1562,-1.1432 -0.49229,-2.42905 -1.00976,-3.85546 -0.22956,-0.63282 -0.50918,-1.18938 -0.83789,-1.67188 -0.80584,-1.18521 -1.96582,-2.33118 -3.25586,-2.99023 -0.98478,-0.50346 -1.87633,-0.86685 -2.67578,-1.0918 -1.92643,-0.54309 -3.8908,-0.89337 -5.89063,-1.05078 -0.99114,-0.0787 -1.96962,-0.19431 -3.00976,-0.19922 -3.13033,-0.0151 -6.00476,-0.0241 -8.6211,-0.0254 z m -31.74805,0.64648 c 0.46267,-0.004 0.92601,0.0208 1.38868,0.0762 1.40897,0.16778 2.81736,0.25253 4.22461,0.42382 0.36826,0.0444 0.72688,0.12535 1.07422,0.24414 0.35306,0.12068 0.67031,0.12492 1.02343,0.17383 0.0606,0.008 0.11399,0.0437 0.14649,0.0957 0.0336,0.052 0.0404,0.11562 0.0215,0.17382 -0.34727,1.04887 -0.69484,2.10197 -1.04101,3.16016 -0.215,0.66078 -0.38929,1.38154 -0.47852,2.07031 -0.0664,0.52092 -0.26803,0.99849 -0.30469,1.46875 -0.0598,0.78315 -0.0852,1.54433 -0.0781,2.28321 0.001,0.18181 -0.0652,0.36031 -0.19922,0.53515 -0.036,0.0486 -0.0832,0.0697 -0.14258,0.0625 -0.18528,-0.0174 -0.37489,-0.11576 -0.55664,-0.16992 -0.73769,-0.21853 -1.43851,-0.5159 -2.19531,-0.65234 -0.49298,-0.089 -0.98381,-0.21723 -1.47852,-0.21485 -0.97547,0.007 -1.9144,0.0733 -2.8164,0.19922 -1.07157,0.14859 -2.12271,0.5292 -3.15235,0.91016 -0.0963,0.0353 -0.20505,-0.0112 -0.24609,-0.10547 -0.13274,-0.30417 -0.25769,-0.58899 -0.28906,-0.93164 -0.0663,-0.70857 -0.13747,-1.42748 -0.21094,-2.15821 -0.0431,-0.42999 -0.19919,-1.17066 -0.47071,-2.2207 -0.40728,-1.58382 -1.119,-2.85419 -1.83398,-4.24219 -0.0349,-0.0687 -0.0307,-0.15067 0.0117,-0.21484 0.0424,-0.0641 0.11701,-0.10108 0.19336,-0.0937 0.28085,0.0221 0.5586,-0.05 0.83594,-0.2168 0.0582,-0.0343 0.12095,-0.0542 0.1875,-0.0566 0.94749,-0.0315 2.00087,-0.23391 2.79101,-0.29687 0.37878,-0.0303 0.7477,-0.0583 1.10547,-0.084 0.35662,-0.0267 0.72474,-0.0659 1.10352,-0.11718 0.46268,-0.064 0.92409,-0.0972 1.38671,-0.10157 z m -35.7539,1.13282 c 1.84607,-0.003 3.69548,0.0221 5.47851,0.0117 0.47317,-0.002 0.92308,0.0327 1.34961,0.10743 0.49648,0.0876 0.85196,0.13993 1.06641,0.15429 0.52095,0.0385 1.31739,-0.0353 1.70898,0.36328 0.0379,0.0384 0.0576,0.093 0.0527,0.14649 -0.005,0.0534 -0.0335,0.10138 -0.0781,0.13086 -0.29717,0.19928 -0.62187,0.3882 -0.97265,0.5664 -1.08198,0.5454 -2.0632,1.13142 -3.10157,1.71875 -0.28553,0.162 -0.55789,0.4257 -0.92968,0.53907 -5.87369,1.79106 -6.40238,9.55743 -11.99024,11.41406 -0.49819,0.47548 -1.08854,0.8151 -1.59375,1.28711 -0.34033,0.31816 -0.72909,0.64719 -1.16601,0.98633 -0.53317,0.41418 -1.0356,0.87711 -1.57227,1.29492 -1.03489,0.80648 -2.04728,1.64347 -3.03906,2.51172 -0.2255,0.19931 -0.49184,0.31676 -0.70508,0.51953 -0.28086,0.26688 -0.58976,0.49644 -0.92773,0.6875 -0.24122,0.13634 -0.37837,0.30293 -0.57422,0.48828 -0.0336,0.0318 -0.0824,0.0434 -0.12696,0.0312 -0.0449,-0.0117 -0.0797,-0.0456 -0.0937,-0.0898 -0.23248,-0.73072 -0.63194,-1.20711 0.041,-1.89063 0.93816,-0.9498 1.8625,-1.87331 2.77148,-2.76953 0.48772,-0.48248 1.11763,-0.86034 1.6543,-1.35156 0.6241,-0.57339 1.30694,-1.03374 1.92578,-1.6211 0.25756,-0.24474 0.51946,-0.46356 0.78516,-0.6582 0.96497,-0.70508 1.61555,-1.19684 1.95117,-1.47656 0.34786,-0.29019 0.76819,-0.52252 1.05664,-0.81445 0.53958,-0.54542 1.11195,-1.10909 1.7168,-1.68946 0.14188,-0.13752 0.1953,-0.34489 0.16015,-0.62109 -0.0361,-0.2871 -0.19574,-0.37766 -0.48242,-0.27149 -0.25638,0.0957 -0.51988,0.19051 -0.78906,0.28711 -0.23542,0.0863 -0.47715,0.20236 -0.72656,0.34571 -2.10652,1.21845 -3.87664,2.56995 -5.75586,3.94922 -0.68178,0.49991 -1.6904,1.3195 -2.53125,1.8789 -0.31934,0.21209 -0.69852,0.51271 -1.13672,0.9043 -0.35777,0.31931 -0.78518,0.60056 -1.28516,0.8418 -0.0463,0.0219 -0.10188,0.0196 -0.14648,-0.008 -0.0444,-0.0269 -0.0725,-0.0747 -0.0742,-0.12695 -0.0162,-0.45216 -0.0409,-0.89182 -0.0723,-1.31836 -0.035,-0.47551 -0.19134,-0.85777 -0.21289,-1.34375 -0.11538,-2.65482 0.0454,-4.92925 0.48243,-6.82422 0.42771,-1.84719 1.26479,-3.45132 2.51171,-4.8125 1.19748,-1.30587 3.15731,-2.12702 4.86524,-2.52734 1.44627,-0.33916 2.82403,-0.57774 4.13281,-0.71289 0.84608,-0.0876 1.87,-0.14985 3.07031,-0.18946 1.08952,-0.0354 2.19509,-0.0472 3.30274,-0.0488 z m 71.78125,0.002 c 1.33993,10e-4 2.6724,0.009 3.99805,0.0234 0.27024,0.003 0.30507,0.0948 0.10351,0.27539 -0.27621,0.24819 -0.74813,0.40404 -1.04883,0.60156 -1.20621,0.79131 -2.4082,1.58803 -3.60742,2.38867 -0.4475,0.29894 -0.93373,0.75063 -1.45117,1.07227 -0.36187,0.2237 -0.74967,0.74748 -1.17969,0.77734 -3.74277,2.57341 -6.1901,7.61042 -11.22656,9.6875 -0.5157,0.49995 -1.26741,0.98459 -1.83203,1.55274 -1.13978,1.14903 -2.2904,2.2879 -3.45117,3.41601 -0.41954,0.41081 -0.98777,0.6815 -1.44922,1.11328 -0.0341,0.0332 -0.0824,0.0482 -0.12891,0.041 -0.0465,-0.007 -0.0871,-0.0354 -0.11133,-0.0762 -0.37527,-0.6468 -0.54509,-1.11578 -0.39648,-1.91993 0.0114,-0.0635 0.0414,-0.12164 0.0879,-0.16601 0.70272,-0.67477 1.33513,-1.36247 2.14453,-1.95508 0.42887,-0.31466 0.85154,-0.69899 1.26758,-1.15234 0.36886,-0.40208 0.87754,-0.60997 1.26562,-0.99805 0.28086,-0.27969 0.57,-0.51747 0.86719,-0.71094 0.701,-0.458 1.19293,-1.0877 1.82227,-1.58594 0.74471,-0.58848 1.22347,-0.98988 1.43554,-1.20312 0.47083,-0.47315 0.91205,-0.93728 1.32227,-1.39063 0.0586,-0.0635 0.0673,-0.15728 0.0234,-0.23242 -0.0757,-0.12805 -0.18368,-0.16067 -0.32227,-0.0976 -1.74813,0.78784 -3.39292,1.69713 -4.93359,2.72851 -0.75049,0.50113 -1.44452,0.9684 -2.08203,1.39844 -0.74818,0.5052 -1.64352,1.21855 -2.51758,1.7832 -0.155,0.1002 -0.31699,0.18082 -0.48828,0.24024 -0.0999,0.0341 -0.20965,0.0241 -0.30078,-0.0293 -0.0909,-0.0534 -0.15493,-0.14404 -0.17383,-0.24805 -0.0581,-0.32396 -0.0921,-0.64434 -0.10156,-0.95898 -0.0124,-0.34264 -0.21548,-0.57059 -0.22266,-0.90625 -0.0234,-1.10829 -0.0162,-2.20292 0.0234,-3.2832 0.0105,-0.29138 0.0468,-0.57302 0.10742,-0.84571 0.0892,-0.39507 0.11574,-0.79047 0.2207,-1.18554 0.31585,-1.1829 0.78943,-2.27825 1.41992,-3.28516 0.29601,-0.47432 0.66575,-0.88356 1.10743,-1.22852 1.25508,-0.9778 2.5875,-1.6876 4,-2.12695 1.69445,-0.52677 3.01853,-0.83793 3.9707,-0.93359 1.28485,-0.1293 2.6006,-0.33938 3.8418,-0.40235 1.32502,-0.0682 2.60724,-0.15001 3.95507,-0.16211 1.3542,-0.0121 2.70108,-0.0168 4.04102,-0.0156 z m 6.8125,0.31836 c 0.61417,0.002 1.21735,0.008 1.81055,0.0156 0.0487,7.2e-4 0.0891,0.0368 0.0937,0.0859 0.002,0.0246 -0.0137,0.0573 -0.0488,0.0957 -0.20279,0.22145 -0.42477,0.41891 -0.66602,0.59375 -0.26457,0.19112 -0.50941,0.38828 -0.73437,0.58985 -0.70622,0.63046 -1.4066,1.19297 -2.10352,1.68945 -1.00574,0.71558 -2.40288,1.48622 -4.18945,2.3125 -0.40557,0.18706 -0.66387,-0.0174 -0.91211,-0.29883 -0.12477,-0.14102 -0.12536,-0.28317 -0.002,-0.42773 0.40383,-0.47723 0.77274,-0.88411 1.2832,-1.26172 0.50346,-0.37175 1.00156,-0.75972 1.49219,-1.16406 0.60485,-0.49651 1.56247,-0.98658 2.36132,-1.48828 0.29801,-0.18857 0.67039,-0.38978 1.11719,-0.60157 0.19856,-0.094 0.36673,-0.14148 0.49805,-0.14062 z m -66.43555,0.60547 c 0.0421,-0.002 0.0844,0.0113 0.11914,0.0371 0.18005,0.13278 0.35641,0.30437 0.59766,0.29492 0.22959,-0.0105 0.46184,0.007 0.69726,0.0527 0.0553,0.0103 0.0966,0.0589 0.0957,0.11524 -0.006,0.17119 -0.0864,0.30757 -0.24024,0.41015 -0.84956,0.56987 -1.48128,1.41053 -2.25976,1.97461 -0.60019,0.43467 -1.22181,0.86318 -1.77539,1.19532 -0.6235,0.37289 -1.2858,0.81434 -1.89649,1.14062 -0.20801,0.11188 -0.51672,-0.30614 -0.70898,-0.45312 -0.36712,-0.28137 -0.79788,-0.21911 -1.15625,-0.48829 -0.0593,-0.0441 -0.0922,-0.11526 -0.0899,-0.18945 0.004,-0.0742 0.0442,-0.1423 0.10743,-0.18164 0.53667,-0.33563 1.03725,-0.74362 1.58789,-1.03906 0.56756,-0.30534 1.12137,-0.66638 1.66211,-1.08008 0.47201,-0.35896 0.94401,-0.69825 1.41601,-1.01758 0.4475,-0.30302 0.89664,-0.48465 1.34766,-0.54883 0.0606,-0.009 0.11515,-0.0333 0.16406,-0.0703 0.0886,-0.0663 0.18607,-0.1143 0.29102,-0.14453 0.0138,-0.004 0.027,-0.007 0.041,-0.008 z m 67.39844,19.91797 c 0.11397,-0.01 0.0438,0.31627 -0.33594,1.23242 -1.32333,2.27082 -3.08096,5.04912 -5.76953,5.18554 -3.56134,-0.44478 -7.66334,-6.20142 -6.77344,-6.4121 l 6.02539,2.63085 c 1.40871,0.20588 3.25614,0.45455 4.0293,0.13868 0.24359,-0.0991 0.48887,-0.25639 0.73828,-0.47657 0.69372,-0.62119 1.8352,-2.27723 2.08594,-2.29882 z m -69.47656,0.006 c 0.11397,-0.01 0.0438,0.31822 -0.33594,1.23437 -1.32333,2.27082 -3.08096,5.04715 -5.76953,5.18359 -3.56135,-0.4448 -7.66335,-6.19947 -6.77344,-6.41015 l 6.02539,2.63086 c 1.40871,0.20587 3.25614,0.45455 4.0293,0.13867 0.24359,-0.0991 0.48887,-0.25834 0.73828,-0.47852 0.69371,-0.62119 1.8352,-2.27723 2.08594,-2.29882 z m 6.45507,1.13476 c 0.099,-7.3e-4 0.10775,0.14108 -0.0312,0.50195 -0.5594,1.46668 -1.11434,2.97188 -1.93945,4.34766 -1.16602,1.94216 -2.67828,3.91029 -4.41797,5.27734 -2.21953,1.74416 -4.33837,3.06986 -6.875,3.99219 -0.23331,0.1307 -0.33769,-0.002 -0.24218,-0.11523 0.35633,-0.45037 0.80104,-0.80927 1.23242,-1.18164 0.56053,-0.43359 0.84891,-0.65783 0.86328,-0.66993 3.36089,-3.13962 6.55129,-6.53715 9.41211,-10.14257 0.12586,-0.17356 1.52645,-1.86388 1.95117,-2.00196 0.0177,-0.006 0.0327,-0.008 0.0469,-0.008 z m 72.95313,2.00781 c 0.14158,-0.046 0.17438,0.0817 0.0156,0.49414 -0.5594,1.46668 -1.11435,2.97188 -1.93946,4.34766 -1.16602,1.94216 -2.67828,3.91031 -4.41797,5.27734 -2.2195,1.74416 -4.33837,3.06986 -6.875,3.99219 -0.2333,0.13068 -0.33768,-0.002 -0.24218,-0.11523 0.35632,-0.45037 0.80105,-0.80927 1.23242,-1.18164 0.56054,-0.43359 0.84891,-0.65783 0.86328,-0.66993 3.3609,-3.1396 6.55129,-6.53717 9.41211,-10.14257 0.12586,-0.17356 1.52645,-1.86388 1.95117,-2.00196 z m -57.52344,15.55469 c 1.13643,-4.5e-4 2.27262,0.29027 3.32227,0.88477 l 1.54687,0.875 1.74219,-0.88282 c 2.19942,-1.11335 3.71866,-1.1129 5.91797,-0.002 2.43046,1.22785 3.22355,2.96337 3.30273,5.17383 -0.53741,2.92264 -1.03432,4.9182 -4.08984,6.55078 -1.21565,0.64952 -2.83588,1.2579 -3.66602,1.39063 -1.85815,0.29707 -3.09535,0.64662 -1.8164,2.94726 4.3661,7.85416 12.9886,12.9688 21.19726,10.12305 2.52329,-0.87474 3.33985,-1.51417 3.33985,-2.02539 0,-0.19109 -1.86974,-0.90931 -4.87696,-3.00586 -5.17026,-3.60465 -5.15475,-5.52114 -4.02929,-6.2168 0.21467,-0.13262 2.94306,1.57107 6.06445,3.78516 3.12136,2.21428 5.87272,4.02735 6.11328,4.02734 0.5102,0 2.31347,-3.85393 2.32031,-4.75195 0.003,-0.41238 -0.61107,-0.72534 -1.99804,-1.06641 -1.12758,-0.27741 -3.40853,-1.12858 -5.23438,-1.66992 -6.92706,-2.05376 -6.43838,-2.49341 -5.75976,-3.56445 0.25285,-0.39915 1.66095,-0.129 6.6289,1.26953 7.58645,2.13592 7.87696,2.15995 7.87696,0.64648 0,-1.19331 1.16074,-1.97248 2.01367,-1.44531 0.3394,0.20976 0.75347,0.91166 0.60547,1.82422 -0.25852,1.5939 -1.06406,1.66502 4.60742,3.20703 13.56202,3.68727 15.81588,4.36348 15.81055,4.73828 -0.0151,1.03653 -0.77201,2.81535 -1.91407,2.4668 -1.66657,-0.50865 -3.70611,-1.08306 -12.37304,-3.47266 -7.7978,-2.1499 -7.25968,-1.60999 -7.78125,-0.79101 -1.41525,2.24688 -2.50113,3.28848 -1.75782,3.90234 1.63472,1.34998 2.77214,2.46918 6.12696,4.79883 3.3268,2.31029 6.39296,5.38212 6.3789,5.7207 -0.0574,1.37966 -2.35389,1.47479 -8.90429,-3.09961 l -6.88477,-4.63086 c -6.17638,4.34081 -12.25557,5.53606 -19.63867,2.82422 l -1.72656,-0.62695 -0.0449,2.0332 0.13672,3.17383 -7.66211,0.77344 -8.44531,-0.31836 v -1.69531 c 0.25247,-2.68934 0.85848,-4.33143 -1.40625,-3.47071 -7.16412,2.72281 -10.94793,2.20702 -17.69922,-0.32031 l -6.73242,5.34375 c -4.80343,3.18954 -9.49074,4.79884 -9.63867,4.79883 -0.14778,0 -0.38613,-0.11652 -0.5293,-0.25977 -0.628,-0.628 -0.55338,-2.24715 0.67969,-3.04101 3.05805,-1.96883 4.2459,-2.52358 9.28711,-5.81836 l 5.24219,-3.66797 -0.88672,-0.91406 c -0.93781,-0.97818 -2.13631,-2.25544 -2.55274,-2.78125 l -1.49804,-1.25196 -2.57227,0.52149 c -2.12235,0.49928 -4.4747,1.04585 -5.22656,1.21289 -0.75179,0.16705 -3.8935,0.94397 -6.98242,1.72656 -3.08905,0.78262 -5.90221,1.36779 -6.25,1.30078 -0.91775,-0.17684 -1.30941,-3.37288 -0.36329,-3.53906 1.3558,-0.23811 20.42369,-4.92761 20.55469,-5.05859 0.006,-0.006 0.0102,0.0122 0.0156,0.0156 -0.0244,-0.029 -0.0586,-0.0803 -0.18164,-0.52539 -0.29481,-1.06617 -0.57587,-2.56798 -0.70313,-3.33594 l -0.55273,-1.33203 -4.66211,-0.91211 c -6.05083,-0.89267 -13.66295,-1.95517 -16.30078,-2.27344 -2.9029,-0.35036 -2.73442,-4.40747 7.42187,-2.86914 8.20334,1.24256 31.472,4.95703 32.4043,4.95703 1.61446,0 1.37695,1.66533 1.37695,2.50196 0,0.62324 -0.29707,0.73828 -1.88867,0.73828 -1.03816,0 -2.83843,-0.16313 -4.00195,-0.36328 -2.64507,-0.45535 -7.92226,-1.15537 -9.73243,-1.29102 -1.3325,-0.0998 -1.36208,-0.0705 -1.23437,1.20313 0.25209,2.51372 1.04099,3.33463 2.05273,3.44336 0.51678,0.0556 3.39515,-0.31166 6.61719,-1.14844 3.22201,-0.83682 6.17095,-0.89646 6.33203,-0.80078 0.16101,0.096 0.29297,0.50933 0.29297,0.91797 0,0.53106 -0.22505,1.55811 -1.27148,1.82812 -3.14649,0.81165 -10.57222,2.61671 -10.9668,2.90625 2.63444,6.33163 6.97076,1.80706 12.05859,-1.64258 0.35868,-0.5803 1.53583,-0.3773 1.88672,0.22852 1.53309,2.64676 -1.77782,3.16181 -5.76953,5.68359 -0.98876,0.62468 -0.62462,0.42941 -0.625,0.57032 -9.8e-4,0.6532 3.06409,0.83398 6.06836,0.83398 2.59502,0 2.6682,-0.75237 4.7207,-1.57422 3.68073,-2.28899 8.68761,-4.78331 10.08985,-9.81836 0.50366,-1.80846 0.74843,-2.05467 0.29492,-2.01562 -0.96264,0.0828 -4.78956,-1.37713 -7.77148,-4.62305 -2.54502,-2.77022 -2.95871,-5.67499 -1.10743,-7.60742 1.47651,-1.54096 3.36769,-2.34688 5.26172,-2.34766 z m 62.53516,3.58985 c 0.93074,-0.0181 1.35553,0.0354 1.9668,0.0293 1.22252,-0.0121 1.13086,1.79786 1.13086,2.32813 0,0.9123 -0.12864,0.94977 -4.78516,1.41601 -2.63138,0.26344 -9.5304,1.0132 -15.33008,1.66407 -5.7996,0.65072 -12.21326,1.33672 -14.25391,1.52539 -2.04052,0.18859 -4.98577,0.46509 -6.54296,0.61328 -2.71159,0.25814 -2.83008,0.23274 -2.83008,-0.5625 0,-0.98487 -0.14337,-2.98009 5.66601,-3.56055 9.17759,-0.97356 20.80494,-2.04124 29.97852,-3.05273 2.63212,-0.2915 4.06926,-0.3823 5,-0.40039 z m -56.27539,18.89062 c -0.5254,0.24531 -0.008,4.23343 -0.0137,5.01563 l -0.082,4.58984 1.55078,-0.0644 h 2.06836 v -2.59766 c 0,-2.42559 -0.28046,-2.57509 -1.46485,-4.36133 -0.67309,-1.01509 -1.37846,-2.3404 -1.93945,-2.57812 -0.0447,-0.019 -0.0841,-0.0196 -0.11914,-0.004 z m -3.03711,0.0684 c -0.35376,0.0952 -0.94025,0.7829 -1.875,1.88477 -2.03036,2.39322 -2.10938,2.57197 -2.10938,4.77539 0,1.2594 0.11653,2.40757 0.25977,2.55078 0.14324,0.14324 1.08982,0.26172 2.10351,0.26172 h 1.39454 l 0.22265,-4.26368 c 0.15156,-3.94735 0.59285,-5.36774 0.004,-5.20898 z m 97.47461,96.38867 c 0.33502,-0.0259 0.67168,-0.0205 1.00976,0.0176 2.67655,0.30161 4.02149,2.24125 4.02149,5.80274 0,3.47775 -2.73905,7.8271 -5.60938,8.9082 -2.26301,0.85239 -3.20994,0.83672 -4.56445,-0.0742 -0.74116,-0.49856 -1.64808,-1.51366 -2.01367,-2.25781 -2.32675,-4.73605 2.1309,-12.00867 7.15625,-12.39649 z m -194.460941,0.33594 c 5.085881,0.3909 9.595011,7.72045 7.240231,12.49414 -0.36997,0.75009 -1.28503,1.77491 -2.03515,2.27734 -1.37084,0.91854 -2.33063,0.9336 -4.6211,0.0742 -2.90469,-1.08971 -5.675778,-5.47302 -5.675778,-8.97851 0,-3.58991 1.359626,-5.54536 4.06836,-5.84961 0.342318,-0.0384 0.684396,-0.0436 1.023437,-0.0176 z m 209.761721,11.30078 c 5.86804,-0.0265 7.20336,5.51228 2.49219,10.34375 -1.5487,1.58827 -2.51938,2.21834 -4.14453,2.69531 -2.71574,0.79707 -3.01445,0.78559 -4.98438,-0.18945 -1.2782,-0.63269 -1.7819,-1.18494 -2.28711,-2.50781 -0.6065,-1.58804 -0.60592,-1.82677 0.0254,-3.72852 1.24607,-3.75139 5.07258,-6.59578 8.89844,-6.61328 z m -225.248049,0.42774 c 3.871865,0.0177 7.744801,2.88469 9.00586,6.66601 0.638495,1.9169 0.639188,2.15724 0.02539,3.75781 -0.511014,1.33283 -1.020198,1.89002 -2.3125,2.52735 h -0.002 c -1.991835,0.98183 -2.297439,0.99459 -5.044922,0.1914 -1.644701,-0.48079 -2.624034,-1.11582 -4.191406,-2.71679 -4.767936,-4.87015 -3.419246,-10.45224 2.519531,-10.42578 z m 233.431639,15.15039 c 1.09837,0.005 2.11208,0.20603 2.88282,0.62109 2.26578,1.2203 3.07137,4.11727 1.85742,6.67578 -2.17587,4.58528 -8.75537,7.12034 -12.29297,4.73633 -1.75948,-1.18567 -2.37561,-2.45875 -2.17578,-4.48828 0.21619,-2.1939 1.80692,-4.43483 4.27344,-6.01758 1.55868,-1.0003 3.62462,-1.53649 5.45507,-1.52734 z m -241.712889,0.55273 c 1.852619,-0.009 3.941945,0.53078 5.519531,1.53906 2.496191,1.59542 4.107338,3.85494 4.326172,6.06641 0.202432,2.04567 -0.422474,3.32831 -2.203125,4.52344 -3.580124,2.40302 -10.239376,-0.15157 -12.441406,-4.77344 -1.228706,-2.579 -0.412371,-5.49851 1.880859,-6.72852 0.780006,-0.41839 1.806394,-0.62141 2.917969,-0.62695 z m 211.617189,0.041 c 5.63094,-0.062 10.04886,1.95307 12.35156,5.79883 1.18991,1.98696 1.29834,2.44458 1.3418,5.61718 0.0548,3.99783 -0.57829,6.42428 -2.66601,10.22266 -1.77691,3.23274 -5.073,7.62353 -7.20118,9.5918 -6.71703,6.21224 -9.87424,6.90693 -11.54101,8.19726 -4.59647,2.29859 -9.41294,3.54867 -14.61133,2.9707 -3.8776,-0.008 -7.25277,-1.3771 -9.48828,-3.85156 -2.0053,-2.2196 -2.70541,-3.774 -2.91797,-6.47656 -1.43656,-18.26722 19.80952,-29.23176 28.73047,-31.30664 2.11322,-0.49151 4.12497,-0.74299 6.00195,-0.76367 z m -181.16016,0.55664 c 1.89959,0.0208 3.93766,0.27411 6.07617,0.76953 9.02857,2.09144 30.52809,13.14567 29.07422,31.55859 -0.21513,2.72432 -0.92172,4.28824 -2.95117,6.52539 -2.26242,2.49419 -5.67937,3.87721 -9.60351,3.88477 -5.26114,0.58258 -10.13563,-0.67934 -14.78711,-2.99609 -1.68684,-1.30065 -4.88175,-1.99994 -11.67969,-8.26172 -2.1538,-1.98403 -5.490725,-6.41141 -7.289064,-9.66993 -2.112984,-3.82856 -2.752824,-6.27304 -2.697265,-10.30273 0.04399,-3.19808 0.153224,-3.65911 1.357421,-5.66211 2.330553,-3.87646 6.801398,-5.90825 12.499998,-5.8457 z"
       transform="scale(0.26458333)"
       sodipodi:nodetypes="scccccccccccccccsscccccccsccccccccccccccccccccccccsccccccccscccccccccscccccccccccccccccccccccccccccccccccccccccccccccccccccccccccccccccccsccccccccccsscccscccccccccccccccccccccsccccccccccccccccccccccccccccccccccccccccccccccccccccccccscscscccsccssccccccssccscscscscccscssccccccccccccccccccccccccccccccccscccccccccccccccccccccccccccccccccccccccscccccccccccccccccccccccccccccsccccccccccccccccsccccccssccccccccccccccccccccsccccccccccccccccccccccccccccccccccccccccccccccccccccccccccccccccccccccccccccccccccscsccccccssccccccssccscccccsssccccccccsscccccsscsscscsccsscsssccsccscccccccccccsccscsccccccsssssccccccsssscsscscsccccscscscccsscsscccsccscccccssscccssscccsssscsscsccssccsssscccccccssccccscsccsscsscscsssccscssscscccsscss" /><path
       style="display:inline;fill:none;stroke:#000000;stroke-width:0.6;stroke-dasharray:none"
       d="m 25.417709,81.816923 0.2812,0.009 0.2852,0.0269 0.28939,0.0448 0.294,0.0628 0.2987,0.0811 0.3037,0.0993 0.309,0.11769 0.3145,0.1362 0.6466,0.3284 0.6716,0.40381 0.6988,0.4802 0.7279,0.5574 0.4622,0.38971 0.5569,0.4998 1.2682,1.203 1.2564,1.2616 0.5422,0.5733 0.4415,0.4925 0.5311,0.63391 0.5314,0.66749 0.528,0.69521 0.521,0.7166 0.5104,0.73219 0.4961,0.7417 0.4783,0.74521 0.45669,0.74249 0.4316,0.73401 0.4028,0.7193 0.3704,0.69859 0.33441,0.67191 0.2947,0.6391 0.2514,0.6004 0.20449,0.5555 0.154,0.50439 0.1282,0.532 0.08,0.481007 0.0406,0.50501 0.0101,0.59999 -0.0232,0.718 -0.0661,0.658 -0.1108,0.601 -0.157,0.551 -0.0963,0.257 -0.1085,0.24701 -0.1209,0.23599 -0.1335,0.226 -0.1463,0.21701 -0.1592,0.209 -0.3582,0.39299 -0.256,0.237 -0.2616,0.21201 -0.2715,0.188 -0.2856,0.16699 -0.304,0.14801 -0.3265,0.132 -0.3533,0.118 -0.3843,0.106 -0.3316,0.071 -0.3833,0.064 -0.843,0.096 -0.8132,0.043 -0.3461,-0.002 -0.2795,-0.019 -1.2843,-0.18499 -0.5844,-0.10701 -0.5525,-0.121 -0.5258,-0.135 -0.5042,-0.15201 -0.4876,-0.172 -0.4762,-0.194 -0.4698,-0.218 -0.4685,-0.244 -0.4723,-0.272 -0.4811,-0.303 -0.49509,-0.336 -0.5142,-0.371 -1.1057,-0.85501 -3.5646,-2.82599 -2.2738,-1.812807 -0.7746,-0.6124 -0.8731,-0.6824 -0.7062,-0.6024 -0.2957,-0.2784 -0.2602,-0.267 -0.2267,-0.25859 -0.1954,-0.2529 -0.166,-0.2502 -0.1388,-0.2503 -0.1137,-0.25341 -0.0905,-0.2592 -0.0695,-0.26799 -0.0505,-0.27971 -0.0335,-0.29418 -0.0188,-0.3116 -0.009,-0.49961 0.022,-0.36371 0.0624,-0.29669 0.1116,-0.2988 0.11721,-0.2294 0.1558,-0.23851 0.1874,-0.24029 0.2119,-0.235 0.2294,-0.22231 0.2401,-0.20239 0.2436,-0.17531 0.2403,-0.1409 0.1523,-0.0815 0.1109,-0.0727 0.0707,-0.0744 0.0322,-0.0862 -0.005,-0.10831 -0.0408,-0.1405 -0.1833,-0.41879 -0.139,-0.3504 -0.1118,-0.38871 -0.083,-0.4109 -0.0529,-0.41679 -0.0213,-0.40621 0.0119,-0.37939 0.0465,-0.33641 0.0825,-0.2769 0.0873,-0.1801 0.1074,-0.1718 0.1267,-0.16291 0.1451,-0.15379 0.1625,-0.1441 0.1791,-0.1339 0.1948,-0.1235 0.2095,-0.1124 0.2234,-0.101 0.2364,-0.0891 0.2485,-0.0768 0.2597,-0.064 0.2699,-0.0508 0.2794,-0.0372 0.2878,-0.023 0.2954,-0.009 0.5449,-0.0246 0.1923,-0.0248 0.1021,-0.0297 0.0588,-0.0906 0.0743,-0.1905 0.0804,-0.26261 0.0769,-0.3069 0.0766,-0.30499 0.0881,-0.28441 0.0995,-0.2639 0.1112,-0.2437 0.1229,-0.22339 0.1349,-0.2034 0.1468,-0.1833 0.1591,-0.16359 0.1713,-0.1438 0.1837,-0.1242 0.1963,-0.1048 0.2089,-0.0854 0.2218,-0.0662 0.2347,-0.047 0.2477,-0.0281 0.2609,-0.009"
       id="path1170"
       sodipodi:nodetypes="ccccccccccccccccccccccccccccccccccccccccccccccccccccccccccccccccccccccccccccccccccccccccccccccccccccccccccccccccccccccccccccccccccccccccccccccccccccccccccccccccc" /><path
       style="display:inline;fill:none;stroke:#000000;stroke-width:0.6;stroke-dasharray:none"
       d="m 79.060743,81.873364 0.31731,0.002 0.29469,0.0313 0.27091,0.0609 0.2462,0.091 0.27899,0.15829 0.26511,0.21131 0.2462,0.25689 0.22209,0.29451 0.1927,0.3246 0.15831,0.3469 0.1187,0.36151 0.0739,0.36839 0.0759,0.5282 0.0482,0.15651 0.0761,0.10229 0.12001,0.0615 0.17979,0.0339 0.60221,0.0379 0.5845,0.0582 0.5361,0.10521 0.48441,0.1505 0.22169,0.0916 0.20761,0.1024 0.193,0.1127 0.1779,0.1229 0.1626,0.1329 0.1466,0.1427 0.13041,0.1521 0.11369,0.1615 0.0966,0.1705 0.0791,0.1794 0.082,0.2908 0.0422,0.3335 0.003,0.3699 -0.0348,0.4001 -0.072,0.4241 -0.10851,0.44161 -0.14409,0.45309 -0.179,0.4583 -0.1172,0.2827 -0.024,0.0891 0.002,0.0662 0.0314,0.0522 0.063,0.0469 0.23091,0.114 0.2177,0.1167 0.21429,0.14079 0.20731,0.16141 0.19699,0.1785 0.18291,0.19229 0.16539,0.2024 0.1443,0.2093 0.1196,0.2125 0.1197,0.2961 0.0872,0.33659 0.0544,0.36771 0.0217,0.3893 -0.0113,0.40159 -0.0444,0.40451 -0.0776,0.39811 -0.1109,0.38209 -0.14769,0.37271 -0.0845,0.16139 -0.1,0.15651 -0.2708,0.3342 -0.4068,0.4216 -0.4993,0.4908 -0.3799,0.3501 -0.3674,0.30299 -0.46179,0.34911 -0.30571,0.2348 -0.1573,0.1367 -0.765,0.6185 -1.7666,1.393486 -3.4102,2.686 -0.9519,0.733 -0.8932,0.63401 -0.8506,0.541 -0.4144,0.239 -0.4097,0.21899 -0.4071,0.2 -0.4065,0.183 -0.4079,0.165 -0.4113,0.15 -0.4167,0.13501 -0.4241,0.121 -0.8785,0.20599 -0.415,0.065 -0.5572,0.058 -0.6265,0.047 -0.62291,0.028 -0.76989,0.002 -0.69461,-0.041 -0.62819,-0.087 -0.2919,-0.061 -0.27881,-0.073 -0.2666,-0.086 -0.2556,-0.098 -0.24579,-0.113 -0.237,-0.125 -0.2293,-0.14 -0.22281,-0.15399 -0.4306,-0.35201 -0.1932,-0.185 -0.1811,-0.19699 -0.1689,-0.20801 -0.1568,-0.21899 -0.1444,-0.229 -0.132,-0.239 -0.1197,-0.25 -0.1071,-0.26 -0.0945,-0.26899 -0.0818,-0.28 -0.1255,-0.58701 -0.074,-0.623 -0.0219,-0.659 0.0161,-0.64299 0.0429,-0.58499 0.0739,-0.544996 0.10959,-0.52089 0.1497,-0.51621 0.1941,-0.52899 0.2431,-0.5597 0.2966,-0.6082 0.4252,-0.8158 0.4375,-0.79921 0.4498,-0.7831 0.4625,-0.76699 0.47531,-0.7515 0.4884,-0.73601 0.5016,-0.7211 0.5152,-0.70619 0.5289,-0.6918 0.5429,-0.6776 0.5571,-0.6638 0.5714,-0.65021 0.5861,-0.6369 0.601,-0.62399 0.616,-0.6113 0.6313,-0.59891 0.4614,-0.4101 0.5414,-0.4524 1.1886,-0.9305 0.5801,-0.42749 0.5257,-0.3687 0.4378,-0.2845 0.3164,-0.1752 0.72689,-0.30321 0.34671,-0.12179 0.3349,-0.10181 0.3223,-0.0817 0.3092,-0.0615 0.2954,-0.0413 0.28099,-0.021"
       id="path1172" /></g></svg>
