%TF.GenerationSoftware,KiCad,Pcbnew,9.0.6*%
%TF.CreationDate,2025-11-24T07:47:15+01:00*%
%TF.ProjectId,Jo_Rabbit,4a6f5f52-6162-4626-9974-2e6b69636164,rev?*%
%TF.SameCoordinates,Original*%
%TF.FileFunction,Copper,L2,Bot*%
%TF.FilePolarity,Positive*%
%FSLAX46Y46*%
G04 Gerber Fmt 4.6, Leading zero omitted, Abs format (unit mm)*
G04 Created by KiCad (PCBNEW 9.0.6) date 2025-11-24 07:47:15*
%MOMM*%
%LPD*%
G01*
G04 APERTURE LIST*
G04 Aperture macros list*
%AMRoundRect*
0 Rectangle with rounded corners*
0 $1 Rounding radius*
0 $2 $3 $4 $5 $6 $7 $8 $9 X,Y pos of 4 corners*
0 Add a 4 corners polygon primitive as box body*
4,1,4,$2,$3,$4,$5,$6,$7,$8,$9,$2,$3,0*
0 Add four circle primitives for the rounded corners*
1,1,$1+$1,$2,$3*
1,1,$1+$1,$4,$5*
1,1,$1+$1,$6,$7*
1,1,$1+$1,$8,$9*
0 Add four rect primitives between the rounded corners*
20,1,$1+$1,$2,$3,$4,$5,0*
20,1,$1+$1,$4,$5,$6,$7,0*
20,1,$1+$1,$6,$7,$8,$9,0*
20,1,$1+$1,$8,$9,$2,$3,0*%
G04 Aperture macros list end*
%ADD10C,0.150000*%
%TA.AperFunction,NonConductor*%
%ADD11C,0.150000*%
%TD*%
%TA.AperFunction,ComponentPad*%
%ADD12R,1.500000X1.500000*%
%TD*%
%TA.AperFunction,ComponentPad*%
%ADD13C,1.500000*%
%TD*%
%TA.AperFunction,ComponentPad*%
%ADD14R,1.800000X1.800000*%
%TD*%
%TA.AperFunction,ComponentPad*%
%ADD15C,1.800000*%
%TD*%
%TA.AperFunction,ComponentPad*%
%ADD16R,1.600000X1.600000*%
%TD*%
%TA.AperFunction,ComponentPad*%
%ADD17O,1.600000X1.600000*%
%TD*%
%TA.AperFunction,ComponentPad*%
%ADD18C,2.000000*%
%TD*%
%TA.AperFunction,ComponentPad*%
%ADD19C,1.600000*%
%TD*%
%TA.AperFunction,SMDPad,CuDef*%
%ADD20R,5.000000X2.000000*%
%TD*%
%TA.AperFunction,SMDPad,CuDef*%
%ADD21C,17.780000*%
%TD*%
%TA.AperFunction,ComponentPad*%
%ADD22RoundRect,0.250000X0.550000X0.550000X-0.550000X0.550000X-0.550000X-0.550000X0.550000X-0.550000X0*%
%TD*%
%TA.AperFunction,Conductor*%
%ADD23C,0.250000*%
%TD*%
G04 APERTURE END LIST*
D10*
D11*
X121163220Y-153669819D02*
X121163220Y-152669819D01*
X120591792Y-153669819D02*
X121020363Y-153098390D01*
X120591792Y-152669819D02*
X121163220Y-153241247D01*
X120163220Y-153669819D02*
X120163220Y-152669819D01*
X120163220Y-153146009D02*
X119591792Y-153146009D01*
X119591792Y-153669819D02*
X119591792Y-152669819D01*
X118782268Y-153146009D02*
X119115601Y-153146009D01*
X119115601Y-153669819D02*
X119115601Y-152669819D01*
X119115601Y-152669819D02*
X118639411Y-152669819D01*
X116972744Y-153669819D02*
X117544172Y-153669819D01*
X117258458Y-153669819D02*
X117258458Y-152669819D01*
X117258458Y-152669819D02*
X117353696Y-152812676D01*
X117353696Y-152812676D02*
X117448934Y-152907914D01*
X117448934Y-152907914D02*
X117544172Y-152955533D01*
X116020363Y-153669819D02*
X116591791Y-153669819D01*
X116306077Y-153669819D02*
X116306077Y-152669819D01*
X116306077Y-152669819D02*
X116401315Y-152812676D01*
X116401315Y-152812676D02*
X116496553Y-152907914D01*
X116496553Y-152907914D02*
X116591791Y-152955533D01*
X115591791Y-153574580D02*
X115544172Y-153622200D01*
X115544172Y-153622200D02*
X115591791Y-153669819D01*
X115591791Y-153669819D02*
X115639410Y-153622200D01*
X115639410Y-153622200D02*
X115591791Y-153574580D01*
X115591791Y-153574580D02*
X115591791Y-153669819D01*
X115163220Y-152765057D02*
X115115601Y-152717438D01*
X115115601Y-152717438D02*
X115020363Y-152669819D01*
X115020363Y-152669819D02*
X114782268Y-152669819D01*
X114782268Y-152669819D02*
X114687030Y-152717438D01*
X114687030Y-152717438D02*
X114639411Y-152765057D01*
X114639411Y-152765057D02*
X114591792Y-152860295D01*
X114591792Y-152860295D02*
X114591792Y-152955533D01*
X114591792Y-152955533D02*
X114639411Y-153098390D01*
X114639411Y-153098390D02*
X115210839Y-153669819D01*
X115210839Y-153669819D02*
X114591792Y-153669819D01*
X113972744Y-152669819D02*
X113877506Y-152669819D01*
X113877506Y-152669819D02*
X113782268Y-152717438D01*
X113782268Y-152717438D02*
X113734649Y-152765057D01*
X113734649Y-152765057D02*
X113687030Y-152860295D01*
X113687030Y-152860295D02*
X113639411Y-153050771D01*
X113639411Y-153050771D02*
X113639411Y-153288866D01*
X113639411Y-153288866D02*
X113687030Y-153479342D01*
X113687030Y-153479342D02*
X113734649Y-153574580D01*
X113734649Y-153574580D02*
X113782268Y-153622200D01*
X113782268Y-153622200D02*
X113877506Y-153669819D01*
X113877506Y-153669819D02*
X113972744Y-153669819D01*
X113972744Y-153669819D02*
X114067982Y-153622200D01*
X114067982Y-153622200D02*
X114115601Y-153574580D01*
X114115601Y-153574580D02*
X114163220Y-153479342D01*
X114163220Y-153479342D02*
X114210839Y-153288866D01*
X114210839Y-153288866D02*
X114210839Y-153050771D01*
X114210839Y-153050771D02*
X114163220Y-152860295D01*
X114163220Y-152860295D02*
X114115601Y-152765057D01*
X114115601Y-152765057D02*
X114067982Y-152717438D01*
X114067982Y-152717438D02*
X113972744Y-152669819D01*
X113258458Y-152765057D02*
X113210839Y-152717438D01*
X113210839Y-152717438D02*
X113115601Y-152669819D01*
X113115601Y-152669819D02*
X112877506Y-152669819D01*
X112877506Y-152669819D02*
X112782268Y-152717438D01*
X112782268Y-152717438D02*
X112734649Y-152765057D01*
X112734649Y-152765057D02*
X112687030Y-152860295D01*
X112687030Y-152860295D02*
X112687030Y-152955533D01*
X112687030Y-152955533D02*
X112734649Y-153098390D01*
X112734649Y-153098390D02*
X113306077Y-153669819D01*
X113306077Y-153669819D02*
X112687030Y-153669819D01*
X111782268Y-152669819D02*
X112258458Y-152669819D01*
X112258458Y-152669819D02*
X112306077Y-153146009D01*
X112306077Y-153146009D02*
X112258458Y-153098390D01*
X112258458Y-153098390D02*
X112163220Y-153050771D01*
X112163220Y-153050771D02*
X111925125Y-153050771D01*
X111925125Y-153050771D02*
X111829887Y-153098390D01*
X111829887Y-153098390D02*
X111782268Y-153146009D01*
X111782268Y-153146009D02*
X111734649Y-153241247D01*
X111734649Y-153241247D02*
X111734649Y-153479342D01*
X111734649Y-153479342D02*
X111782268Y-153574580D01*
X111782268Y-153574580D02*
X111829887Y-153622200D01*
X111829887Y-153622200D02*
X111925125Y-153669819D01*
X111925125Y-153669819D02*
X112163220Y-153669819D01*
X112163220Y-153669819D02*
X112258458Y-153622200D01*
X112258458Y-153622200D02*
X112306077Y-153574580D01*
D12*
%TO.P,Q1,1,E*%
%TO.N,Net-(D1-K)*%
X123805000Y-146340000D03*
D13*
%TO.P,Q1,2,B*%
%TO.N,Net-(Q1-B)*%
X126345000Y-143800000D03*
%TO.P,Q1,3,C*%
%TO.N,Net-(Q1-C)*%
X128885000Y-146340000D03*
%TD*%
D14*
%TO.P,D2,1,K*%
%TO.N,Net-(D1-K)*%
X104585000Y-96875000D03*
D15*
%TO.P,D2,2,A*%
%TO.N,Net-(D1-A)*%
X107125000Y-96875000D03*
%TD*%
D12*
%TO.P,Q2,1,E*%
%TO.N,Net-(D1-A)*%
X102300000Y-107600000D03*
D13*
%TO.P,Q2,2,B*%
%TO.N,Net-(Q1-C)*%
X99760000Y-110140000D03*
%TO.P,Q2,3,C*%
%TO.N,Net-(Q2-C)*%
X97220000Y-107600000D03*
%TD*%
D14*
%TO.P,D1,1,K*%
%TO.N,Net-(D1-K)*%
X123110000Y-96850000D03*
D15*
%TO.P,D1,2,A*%
%TO.N,Net-(D1-A)*%
X125650000Y-96850000D03*
%TD*%
D16*
%TO.P,D3,1,K*%
%TO.N,Net-(D3-K)*%
X129375000Y-106515000D03*
D17*
%TO.P,D3,2,A*%
%TO.N,Net-(D3-A)*%
X129375000Y-114135000D03*
%TD*%
D18*
%TO.P,S1,1,A*%
%TO.N,Net-(S1-A-Pad1)*%
X113426000Y-85773000D03*
%TO.P,S1,2,E*%
%TO.N,Net-(S1-E)*%
X115966000Y-85773000D03*
%TO.P,S1,3,A*%
%TO.N,unconnected-(S1-A-Pad3)*%
X118506000Y-85773000D03*
%TD*%
D19*
%TO.P,R1off1,1*%
%TO.N,Net-(S1-E)*%
X119522000Y-132255000D03*
D17*
%TO.P,R1off1,2*%
%TO.N,Net-(D3-A)*%
X109362000Y-132255000D03*
%TD*%
D19*
%TO.P,R5,1*%
%TO.N,Net-(S1-E)*%
X119522000Y-120105000D03*
D17*
%TO.P,R5,2*%
%TO.N,Net-(Q1-C)*%
X109362000Y-120105000D03*
%TD*%
D19*
%TO.P,R4,1*%
%TO.N,Net-(Q1-B)*%
X119522000Y-116055000D03*
D17*
%TO.P,R4,2*%
%TO.N,Net-(D1-K)*%
X109362000Y-116055000D03*
%TD*%
D19*
%TO.P,R6,1*%
%TO.N,Net-(S1-E)*%
X119522000Y-124155000D03*
D17*
%TO.P,R6,2*%
%TO.N,Net-(Q2-C)*%
X109362000Y-124155000D03*
%TD*%
D20*
%TO.P,U2,*%
%TO.N,*%
X108600000Y-144447000D03*
X108600000Y-140891000D03*
%TO.P,U2,1*%
%TO.N,Net-(S1-A-Pad1)*%
X82706000Y-144447000D03*
X82706000Y-140891000D03*
D21*
%TO.P,U2,2*%
%TO.N,Net-(D1-K)*%
X95646000Y-142415000D03*
%TD*%
D19*
%TO.P,R4,1*%
%TO.N,Net-(D3-K)*%
X119522000Y-112005000D03*
D17*
%TO.P,R4,2*%
%TO.N,Net-(Q1-B)*%
X109362000Y-112005000D03*
%TD*%
D19*
%TO.P,R7,1*%
%TO.N,Net-(D3-K)*%
X119522000Y-128205000D03*
D17*
%TO.P,R7,2*%
%TO.N,Net-(D3-A)*%
X109362000Y-128205000D03*
%TD*%
D16*
%TO.P,NE555,1,GND*%
%TO.N,Net-(D1-K)*%
X130550000Y-123130000D03*
D17*
%TO.P,NE555,2,TR*%
%TO.N,Net-(D3-K)*%
X130550000Y-125670000D03*
%TO.P,NE555,3,Q*%
%TO.N,unconnected-(U1-Q-Pad3)*%
X130550000Y-128210000D03*
%TO.P,NE555,4,R*%
%TO.N,Net-(S1-E)*%
X130550000Y-130750000D03*
%TO.P,NE555,5,CV*%
%TO.N,unconnected-(U1-CV-Pad5)*%
X122930000Y-130750000D03*
%TO.P,NE555,6,THR*%
%TO.N,Net-(D3-K)*%
X122930000Y-128210000D03*
%TO.P,NE555,7,DIS*%
%TO.N,Net-(D3-A)*%
X122930000Y-125670000D03*
%TO.P,NE555,8,VCC*%
%TO.N,Net-(S1-E)*%
X122930000Y-123130000D03*
%TD*%
D22*
%TO.P,47uF,1*%
%TO.N,Net-(D3-K)*%
X119395000Y-142542000D03*
D19*
%TO.P,47uF,2*%
%TO.N,Net-(D1-K)*%
X116895000Y-142542000D03*
%TD*%
D23*
%TO.N,Net-(D3-K)*%
X119522000Y-112005000D02*
X125012000Y-106515000D01*
X125012000Y-106515000D02*
X129375000Y-106515000D01*
X119522000Y-128205000D02*
X117400000Y-130327000D01*
X117400000Y-140547000D02*
X119395000Y-142542000D01*
X117400000Y-130327000D02*
X117400000Y-140547000D01*
%TO.N,Net-(D1-K)*%
X116895000Y-145205000D02*
X112600000Y-149500000D01*
X116895000Y-142542000D02*
X116895000Y-145000000D01*
X114300000Y-138200000D02*
X116895000Y-140795000D01*
X110500000Y-126500000D02*
X107300000Y-126500000D01*
X118235000Y-146340000D02*
X116895000Y-145000000D01*
X109362000Y-116862000D02*
X112500000Y-120000000D01*
X107400000Y-93400000D02*
X120300000Y-93400000D01*
X120300000Y-93400000D02*
X123110000Y-96210000D01*
X109362000Y-116055000D02*
X109362000Y-116862000D01*
X116895000Y-140795000D02*
X116895000Y-142542000D01*
X106400000Y-127800000D02*
X106400000Y-134600000D01*
X104585000Y-96875000D02*
X104585000Y-96215000D01*
X130550000Y-123130000D02*
X128270000Y-123130000D01*
X107300000Y-126500000D02*
X106200000Y-127600000D01*
X112500000Y-124500000D02*
X110500000Y-126500000D01*
X112500000Y-120000000D02*
X112500000Y-124500000D01*
X112600000Y-149500000D02*
X102731000Y-149500000D01*
X104585000Y-96215000D02*
X107400000Y-93400000D01*
X123805000Y-140191620D02*
X123805000Y-146340000D01*
X123110000Y-96210000D02*
X123110000Y-96850000D01*
X123805000Y-146340000D02*
X118235000Y-146340000D01*
X128270000Y-123130000D02*
X127600000Y-123800000D01*
X102731000Y-149500000D02*
X95646000Y-142415000D01*
X127600000Y-136396620D02*
X123805000Y-140191620D01*
X106200000Y-127600000D02*
X106400000Y-127800000D01*
X110000000Y-138200000D02*
X114300000Y-138200000D01*
X116895000Y-145000000D02*
X116895000Y-145205000D01*
X106400000Y-134600000D02*
X110000000Y-138200000D01*
X127600000Y-123800000D02*
X127600000Y-136396620D01*
%TO.N,Net-(D1-A)*%
X104000000Y-107600000D02*
X102300000Y-107600000D01*
X125650000Y-96850000D02*
X125650000Y-99050000D01*
X124600000Y-100100000D02*
X109300000Y-100100000D01*
X107125000Y-104475000D02*
X104000000Y-107600000D01*
X107125000Y-96875000D02*
X107125000Y-104475000D01*
X125650000Y-99050000D02*
X124600000Y-100100000D01*
X109300000Y-99050000D02*
X107125000Y-96875000D01*
X109300000Y-100100000D02*
X109300000Y-99050000D01*
%TO.N,Net-(D3-A)*%
X126100000Y-115100000D02*
X126100000Y-124900000D01*
X115695000Y-128205000D02*
X109362000Y-128205000D01*
X120800000Y-126300000D02*
X117600000Y-126300000D01*
X121430000Y-125670000D02*
X120800000Y-126300000D01*
X122930000Y-125670000D02*
X121430000Y-125670000D01*
X117600000Y-126300000D02*
X115695000Y-128205000D01*
X109362000Y-128205000D02*
X109362000Y-132255000D01*
X125330000Y-125670000D02*
X122930000Y-125670000D01*
X126100000Y-124900000D02*
X125330000Y-125670000D01*
X129375000Y-114135000D02*
X127065000Y-114135000D01*
X127065000Y-114135000D02*
X126100000Y-115100000D01*
%TO.N,Net-(Q1-B)*%
X119522000Y-116055000D02*
X115755000Y-116055000D01*
X115755000Y-116055000D02*
X111705000Y-112005000D01*
X111705000Y-112005000D02*
X109362000Y-112005000D01*
%TO.N,Net-(Q1-C)*%
X99760000Y-110140000D02*
X99760000Y-113660000D01*
X99760000Y-113660000D02*
X106205000Y-120105000D01*
X106205000Y-120105000D02*
X109362000Y-120105000D01*
%TO.N,Net-(S1-E)*%
X119522000Y-120105000D02*
X119522000Y-121082000D01*
X119522000Y-124155000D02*
X120545000Y-124155000D01*
X119522000Y-121082000D02*
X121570000Y-123130000D01*
X121570000Y-123130000D02*
X122930000Y-123130000D01*
X120545000Y-124155000D02*
X121570000Y-123130000D01*
%TO.N,Net-(S1-A-Pad1)*%
X97500000Y-102300000D02*
X94800000Y-105000000D01*
X82706000Y-144447000D02*
X82706000Y-140891000D01*
X105127000Y-85773000D02*
X97500000Y-93400000D01*
X96400000Y-131400000D02*
X97700000Y-130100000D01*
X113426000Y-85773000D02*
X105127000Y-85773000D01*
X88000000Y-131400000D02*
X96400000Y-131400000D01*
X97700000Y-120300000D02*
X97700000Y-130100000D01*
X82706000Y-136694000D02*
X88000000Y-131400000D01*
X94800000Y-105000000D02*
X94800000Y-109600000D01*
X82706000Y-140891000D02*
X82706000Y-136694000D01*
X94800000Y-109600000D02*
X101600000Y-116400000D01*
X101600000Y-116400000D02*
X97700000Y-120300000D01*
X97500000Y-93400000D02*
X97500000Y-102300000D01*
%TD*%
M02*
