M48
; DRILL file {KiCad 9.0.6} date 2025-11-24T07:47:25+0100
; FORMAT={-:-/ absolute / inch / decimal}
; #@! TF.CreationDate,2025-11-24T07:47:25+01:00
; #@! TF.GenerationSoftware,Kicad,Pcbnew,9.0.6
; #@! TF.FileFunction,Plated,1,2,PTH
FMAT,2
INCH
; #@! TA.AperFunction,Plated,PTH,ComponentDrill
T1C0.0315
; #@! TA.AperFunction,Plated,PTH,ComponentDrill
T2C0.0354
; #@! TA.AperFunction,Plated,PTH,ComponentDrill
T3C0.0394
%
G90
G05
T1
X3.8276Y-4.2362
X3.9276Y-4.3362
X4.0276Y-4.2362
X4.3056Y-4.4096
X4.3056Y-4.5691
X4.3056Y-4.7285
X4.3056Y-4.888
X4.3056Y-5.0474
X4.3056Y-5.2069
X4.6022Y-5.6119
X4.7006Y-5.6119
X4.7056Y-4.4096
X4.7056Y-4.5691
X4.7056Y-4.7285
X4.7056Y-4.888
X4.7056Y-5.0474
X4.7056Y-5.2069
X4.8398Y-4.8476
X4.8398Y-4.9476
X4.8398Y-5.0476
X4.8398Y-5.1476
X4.8742Y-5.7614
X4.9742Y-5.6614
X5.0742Y-5.7614
X5.0935Y-4.1935
X5.0935Y-4.4935
X5.1398Y-4.8476
X5.1398Y-4.9476
X5.1398Y-5.0476
X5.1398Y-5.1476
T2
X4.1175Y-3.814
X4.2175Y-3.814
X4.8469Y-3.813
X4.9469Y-3.813
T3
X4.4656Y-3.3769
X4.5656Y-3.3769
X4.6656Y-3.3769
M30
