%TF.GenerationSoftware,KiCad,Pcbnew,9.0.6*%
%TF.CreationDate,2025-11-24T07:47:15+01:00*%
%TF.ProjectId,Jo_Rabbit,4a6f5f52-6162-4626-9974-2e6b69636164,rev?*%
%TF.SameCoordinates,Original*%
%TF.FileFunction,Legend,Top*%
%TF.FilePolarity,Positive*%
%FSLAX46Y46*%
G04 Gerber Fmt 4.6, Leading zero omitted, Abs format (unit mm)*
G04 Created by KiCad (PCBNEW 9.0.6) date 2025-11-24 07:47:15*
%MOMM*%
%LPD*%
G01*
G04 APERTURE LIST*
%ADD10C,0.150000*%
%ADD11C,0.010000*%
%ADD12C,0.120000*%
G04 APERTURE END LIST*
D10*
X124307000Y-148115000D02*
X128117000Y-148115000D01*
D11*
%TO.C,G\u002A\u002A\u002A*%
X115024904Y-108579904D02*
X115074545Y-108626103D01*
X115106216Y-108721524D01*
X115120951Y-108887345D01*
X115119787Y-109144746D01*
X115103759Y-109514907D01*
X115073903Y-110019007D01*
X115047542Y-110428966D01*
X114993763Y-111254466D01*
X114449236Y-111254466D01*
X114151241Y-111249118D01*
X113977721Y-111222737D01*
X113883908Y-111159819D01*
X113825035Y-111044859D01*
X113822137Y-111037288D01*
X113755903Y-110725733D01*
X113744097Y-110330404D01*
X113788871Y-109928588D01*
X113790992Y-109917837D01*
X113875895Y-109704462D01*
X114040016Y-109440099D01*
X114253178Y-109159869D01*
X114485206Y-108898887D01*
X114705922Y-108692273D01*
X114885150Y-108575145D01*
X114956258Y-108561746D01*
X115024904Y-108579904D01*
G36*
X115024904Y-108579904D02*
G01*
X115074545Y-108626103D01*
X115106216Y-108721524D01*
X115120951Y-108887345D01*
X115119787Y-109144746D01*
X115103759Y-109514907D01*
X115073903Y-110019007D01*
X115047542Y-110428966D01*
X114993763Y-111254466D01*
X114449236Y-111254466D01*
X114151241Y-111249118D01*
X113977721Y-111222737D01*
X113883908Y-111159819D01*
X113825035Y-111044859D01*
X113822137Y-111037288D01*
X113755903Y-110725733D01*
X113744097Y-110330404D01*
X113788871Y-109928588D01*
X113790992Y-109917837D01*
X113875895Y-109704462D01*
X114040016Y-109440099D01*
X114253178Y-109159869D01*
X114485206Y-108898887D01*
X114705922Y-108692273D01*
X114885150Y-108575145D01*
X114956258Y-108561746D01*
X115024904Y-108579904D01*
G37*
X115937584Y-108589202D02*
X116135905Y-108825832D01*
X116389257Y-109209345D01*
X116444960Y-109300613D01*
X116616441Y-109595123D01*
X116718479Y-109820316D01*
X116769020Y-110042214D01*
X116786010Y-110326841D01*
X116787566Y-110561056D01*
X116787566Y-111254466D01*
X116328824Y-111254466D01*
X116044739Y-111263601D01*
X115817569Y-111286984D01*
X115736158Y-111305858D01*
X115680564Y-111308880D01*
X115641567Y-111251501D01*
X115615549Y-111108996D01*
X115598889Y-110856641D01*
X115587969Y-110469710D01*
X115584347Y-110268691D01*
X115575892Y-109701697D01*
X115572626Y-109280177D01*
X115575772Y-108980321D01*
X115586551Y-108778315D01*
X115606186Y-108650347D01*
X115635901Y-108572607D01*
X115673917Y-108524248D01*
X115786265Y-108491370D01*
X115937584Y-108589202D01*
G36*
X115937584Y-108589202D02*
G01*
X116135905Y-108825832D01*
X116389257Y-109209345D01*
X116444960Y-109300613D01*
X116616441Y-109595123D01*
X116718479Y-109820316D01*
X116769020Y-110042214D01*
X116786010Y-110326841D01*
X116787566Y-110561056D01*
X116787566Y-111254466D01*
X116328824Y-111254466D01*
X116044739Y-111263601D01*
X115817569Y-111286984D01*
X115736158Y-111305858D01*
X115680564Y-111308880D01*
X115641567Y-111251501D01*
X115615549Y-111108996D01*
X115598889Y-110856641D01*
X115587969Y-110469710D01*
X115584347Y-110268691D01*
X115575892Y-109701697D01*
X115572626Y-109280177D01*
X115575772Y-108980321D01*
X115586551Y-108778315D01*
X115606186Y-108650347D01*
X115635901Y-108572607D01*
X115673917Y-108524248D01*
X115786265Y-108491370D01*
X115937584Y-108589202D01*
G37*
X124945232Y-91637152D02*
X125000233Y-91638323D01*
X126045994Y-91676581D01*
X126938354Y-91746322D01*
X127691437Y-91854365D01*
X128319371Y-92007532D01*
X128836280Y-92212642D01*
X129256291Y-92476515D01*
X129593530Y-92805971D01*
X129862122Y-93207831D01*
X130076194Y-93688915D01*
X130224614Y-94160704D01*
X130297507Y-94550918D01*
X130345862Y-95066832D01*
X130369747Y-95666612D01*
X130369232Y-96308423D01*
X130344389Y-96950431D01*
X130295286Y-97550801D01*
X130221994Y-98067698D01*
X130218038Y-98088800D01*
X130051887Y-98863884D01*
X129859181Y-99593479D01*
X129651293Y-100239431D01*
X129439600Y-100763590D01*
X129389926Y-100866166D01*
X128987821Y-101478559D01*
X128453032Y-102000281D01*
X127803900Y-102417253D01*
X127058762Y-102715393D01*
X126936439Y-102749906D01*
X126647935Y-102804911D01*
X126246043Y-102853065D01*
X125781076Y-102891384D01*
X125303346Y-102916889D01*
X124863166Y-102926597D01*
X124510848Y-102917527D01*
X124365233Y-102902269D01*
X123230430Y-102643377D01*
X122197038Y-102251855D01*
X121291308Y-101742435D01*
X126585623Y-101742435D01*
X126628268Y-101743463D01*
X126743931Y-101687116D01*
X126762936Y-101676727D01*
X127003315Y-101520944D01*
X127306452Y-101291963D01*
X127613647Y-101034577D01*
X127666332Y-100987336D01*
X127985908Y-100662641D01*
X128306277Y-100278235D01*
X128594019Y-99879700D01*
X128815713Y-99512620D01*
X128922416Y-99274133D01*
X128903874Y-99246087D01*
X128801182Y-99331719D01*
X128636094Y-99512580D01*
X128622929Y-99528133D01*
X128435324Y-99741236D01*
X128160586Y-100041079D01*
X127830346Y-100393695D01*
X127476232Y-100765119D01*
X127331707Y-100914727D01*
X126989038Y-101270177D01*
X126756684Y-101518283D01*
X126625320Y-101671539D01*
X126585623Y-101742435D01*
X121291308Y-101742435D01*
X121267941Y-101729293D01*
X120446023Y-101077277D01*
X119809203Y-100392136D01*
X119317834Y-99683602D01*
X118884097Y-98863655D01*
X118553274Y-98051260D01*
X123526752Y-98051260D01*
X123551294Y-98113185D01*
X123689463Y-98296124D01*
X123921105Y-98533621D01*
X124199898Y-98784675D01*
X124479521Y-99008285D01*
X124713654Y-99163450D01*
X124768748Y-99190806D01*
X124962763Y-99274970D01*
X125077398Y-99302018D01*
X125192242Y-99273169D01*
X125362786Y-99199894D01*
X125607456Y-99056061D01*
X125845765Y-98858360D01*
X125870494Y-98832893D01*
X126105755Y-98582465D01*
X125658827Y-98616452D01*
X125305607Y-98615053D01*
X124932781Y-98549779D01*
X124500271Y-98410405D01*
X123967998Y-98186706D01*
X123959912Y-98183047D01*
X123698373Y-98069336D01*
X123562571Y-98026875D01*
X123526752Y-98051260D01*
X118553274Y-98051260D01*
X118521138Y-97972347D01*
X118242102Y-97049727D01*
X118060135Y-96135847D01*
X117988383Y-95270758D01*
X117988804Y-95252755D01*
X118748316Y-95252755D01*
X118751527Y-95661479D01*
X118789097Y-95903742D01*
X118861900Y-96174018D01*
X119655302Y-95632507D01*
X120240639Y-95246517D01*
X120737099Y-94947077D01*
X121134936Y-94739138D01*
X121424400Y-94627651D01*
X121595744Y-94617569D01*
X121621409Y-94633776D01*
X121670225Y-94691953D01*
X121689780Y-94755317D01*
X121668489Y-94835875D01*
X121594765Y-94945633D01*
X121457024Y-95096598D01*
X121243680Y-95300777D01*
X120943149Y-95570177D01*
X120543845Y-95916803D01*
X120034183Y-96352664D01*
X119635966Y-96691440D01*
X119361587Y-96938748D01*
X119144921Y-97160871D01*
X119014285Y-97327241D01*
X118988900Y-97389940D01*
X119013690Y-97515989D01*
X119041344Y-97538466D01*
X119119453Y-97483408D01*
X119293704Y-97333399D01*
X119538501Y-97111191D01*
X119828246Y-96839533D01*
X119835517Y-96832616D01*
X120181555Y-96520186D01*
X120542253Y-96222593D01*
X120869881Y-95977828D01*
X121074239Y-95846629D01*
X121392386Y-95629382D01*
X121792816Y-95293880D01*
X122255923Y-94857119D01*
X122502566Y-94608431D01*
X122846881Y-94260785D01*
X123174533Y-93941769D01*
X123456834Y-93678483D01*
X123628928Y-93529361D01*
X124853779Y-93529361D01*
X124900949Y-93546203D01*
X125069518Y-93475686D01*
X125368377Y-93315114D01*
X125457763Y-93264427D01*
X125787037Y-93063895D01*
X126076068Y-92865198D01*
X126301551Y-92687488D01*
X126440180Y-92549920D01*
X126468653Y-92471645D01*
X126435646Y-92460744D01*
X126309172Y-92505253D01*
X126085678Y-92624101D01*
X125804991Y-92791890D01*
X125506935Y-92983223D01*
X125231337Y-93172702D01*
X125018022Y-93334930D01*
X124919114Y-93427858D01*
X124853779Y-93529361D01*
X123628928Y-93529361D01*
X123665092Y-93498025D01*
X123730233Y-93448850D01*
X123938602Y-93306118D01*
X124232241Y-93103683D01*
X124557448Y-92878595D01*
X124655475Y-92810565D01*
X125284385Y-92373800D01*
X123933588Y-92373800D01*
X122995761Y-92387613D01*
X122201105Y-92431548D01*
X121525527Y-92509346D01*
X120944931Y-92624748D01*
X120435223Y-92781497D01*
X119972309Y-92983333D01*
X119956355Y-92991414D01*
X119553112Y-93235956D01*
X119264622Y-93520158D01*
X119037148Y-93900524D01*
X118985977Y-94011688D01*
X118872245Y-94363422D01*
X118790790Y-94798590D01*
X118748316Y-95252755D01*
X117988804Y-95252755D01*
X117997692Y-94872905D01*
X118048948Y-94338182D01*
X118133296Y-93924113D01*
X118265295Y-93583039D01*
X118459504Y-93267296D01*
X118508271Y-93201438D01*
X118891465Y-92794174D01*
X119378719Y-92451341D01*
X119978207Y-92170968D01*
X120698103Y-91951090D01*
X121546580Y-91789737D01*
X122531811Y-91684942D01*
X123661971Y-91634736D01*
X124945232Y-91637152D01*
G36*
X124945232Y-91637152D02*
G01*
X125000233Y-91638323D01*
X126045994Y-91676581D01*
X126938354Y-91746322D01*
X127691437Y-91854365D01*
X128319371Y-92007532D01*
X128836280Y-92212642D01*
X129256291Y-92476515D01*
X129593530Y-92805971D01*
X129862122Y-93207831D01*
X130076194Y-93688915D01*
X130224614Y-94160704D01*
X130297507Y-94550918D01*
X130345862Y-95066832D01*
X130369747Y-95666612D01*
X130369232Y-96308423D01*
X130344389Y-96950431D01*
X130295286Y-97550801D01*
X130221994Y-98067698D01*
X130218038Y-98088800D01*
X130051887Y-98863884D01*
X129859181Y-99593479D01*
X129651293Y-100239431D01*
X129439600Y-100763590D01*
X129389926Y-100866166D01*
X128987821Y-101478559D01*
X128453032Y-102000281D01*
X127803900Y-102417253D01*
X127058762Y-102715393D01*
X126936439Y-102749906D01*
X126647935Y-102804911D01*
X126246043Y-102853065D01*
X125781076Y-102891384D01*
X125303346Y-102916889D01*
X124863166Y-102926597D01*
X124510848Y-102917527D01*
X124365233Y-102902269D01*
X123230430Y-102643377D01*
X122197038Y-102251855D01*
X121291308Y-101742435D01*
X126585623Y-101742435D01*
X126628268Y-101743463D01*
X126743931Y-101687116D01*
X126762936Y-101676727D01*
X127003315Y-101520944D01*
X127306452Y-101291963D01*
X127613647Y-101034577D01*
X127666332Y-100987336D01*
X127985908Y-100662641D01*
X128306277Y-100278235D01*
X128594019Y-99879700D01*
X128815713Y-99512620D01*
X128922416Y-99274133D01*
X128903874Y-99246087D01*
X128801182Y-99331719D01*
X128636094Y-99512580D01*
X128622929Y-99528133D01*
X128435324Y-99741236D01*
X128160586Y-100041079D01*
X127830346Y-100393695D01*
X127476232Y-100765119D01*
X127331707Y-100914727D01*
X126989038Y-101270177D01*
X126756684Y-101518283D01*
X126625320Y-101671539D01*
X126585623Y-101742435D01*
X121291308Y-101742435D01*
X121267941Y-101729293D01*
X120446023Y-101077277D01*
X119809203Y-100392136D01*
X119317834Y-99683602D01*
X118884097Y-98863655D01*
X118553274Y-98051260D01*
X123526752Y-98051260D01*
X123551294Y-98113185D01*
X123689463Y-98296124D01*
X123921105Y-98533621D01*
X124199898Y-98784675D01*
X124479521Y-99008285D01*
X124713654Y-99163450D01*
X124768748Y-99190806D01*
X124962763Y-99274970D01*
X125077398Y-99302018D01*
X125192242Y-99273169D01*
X125362786Y-99199894D01*
X125607456Y-99056061D01*
X125845765Y-98858360D01*
X125870494Y-98832893D01*
X126105755Y-98582465D01*
X125658827Y-98616452D01*
X125305607Y-98615053D01*
X124932781Y-98549779D01*
X124500271Y-98410405D01*
X123967998Y-98186706D01*
X123959912Y-98183047D01*
X123698373Y-98069336D01*
X123562571Y-98026875D01*
X123526752Y-98051260D01*
X118553274Y-98051260D01*
X118521138Y-97972347D01*
X118242102Y-97049727D01*
X118060135Y-96135847D01*
X117988383Y-95270758D01*
X117988804Y-95252755D01*
X118748316Y-95252755D01*
X118751527Y-95661479D01*
X118789097Y-95903742D01*
X118861900Y-96174018D01*
X119655302Y-95632507D01*
X120240639Y-95246517D01*
X120737099Y-94947077D01*
X121134936Y-94739138D01*
X121424400Y-94627651D01*
X121595744Y-94617569D01*
X121621409Y-94633776D01*
X121670225Y-94691953D01*
X121689780Y-94755317D01*
X121668489Y-94835875D01*
X121594765Y-94945633D01*
X121457024Y-95096598D01*
X121243680Y-95300777D01*
X120943149Y-95570177D01*
X120543845Y-95916803D01*
X120034183Y-96352664D01*
X119635966Y-96691440D01*
X119361587Y-96938748D01*
X119144921Y-97160871D01*
X119014285Y-97327241D01*
X118988900Y-97389940D01*
X119013690Y-97515989D01*
X119041344Y-97538466D01*
X119119453Y-97483408D01*
X119293704Y-97333399D01*
X119538501Y-97111191D01*
X119828246Y-96839533D01*
X119835517Y-96832616D01*
X120181555Y-96520186D01*
X120542253Y-96222593D01*
X120869881Y-95977828D01*
X121074239Y-95846629D01*
X121392386Y-95629382D01*
X121792816Y-95293880D01*
X122255923Y-94857119D01*
X122502566Y-94608431D01*
X122846881Y-94260785D01*
X123174533Y-93941769D01*
X123456834Y-93678483D01*
X123628928Y-93529361D01*
X124853779Y-93529361D01*
X124900949Y-93546203D01*
X125069518Y-93475686D01*
X125368377Y-93315114D01*
X125457763Y-93264427D01*
X125787037Y-93063895D01*
X126076068Y-92865198D01*
X126301551Y-92687488D01*
X126440180Y-92549920D01*
X126468653Y-92471645D01*
X126435646Y-92460744D01*
X126309172Y-92505253D01*
X126085678Y-92624101D01*
X125804991Y-92791890D01*
X125506935Y-92983223D01*
X125231337Y-93172702D01*
X125018022Y-93334930D01*
X124919114Y-93427858D01*
X124853779Y-93529361D01*
X123628928Y-93529361D01*
X123665092Y-93498025D01*
X123730233Y-93448850D01*
X123938602Y-93306118D01*
X124232241Y-93103683D01*
X124557448Y-92878595D01*
X124655475Y-92810565D01*
X125284385Y-92373800D01*
X123933588Y-92373800D01*
X122995761Y-92387613D01*
X122201105Y-92431548D01*
X121525527Y-92509346D01*
X120944931Y-92624748D01*
X120435223Y-92781497D01*
X119972309Y-92983333D01*
X119956355Y-92991414D01*
X119553112Y-93235956D01*
X119264622Y-93520158D01*
X119037148Y-93900524D01*
X118985977Y-94011688D01*
X118872245Y-94363422D01*
X118790790Y-94798590D01*
X118748316Y-95252755D01*
X117988804Y-95252755D01*
X117997692Y-94872905D01*
X118048948Y-94338182D01*
X118133296Y-93924113D01*
X118265295Y-93583039D01*
X118459504Y-93267296D01*
X118508271Y-93201438D01*
X118891465Y-92794174D01*
X119378719Y-92451341D01*
X119978207Y-92170968D01*
X120698103Y-91951090D01*
X121546580Y-91789737D01*
X122531811Y-91684942D01*
X123661971Y-91634736D01*
X124945232Y-91637152D01*
G37*
X106585233Y-91639427D02*
X107618504Y-91687232D01*
X108503458Y-91764583D01*
X109259173Y-91875493D01*
X109904729Y-92023975D01*
X110459205Y-92214041D01*
X110941680Y-92449705D01*
X111196681Y-92609298D01*
X111676544Y-92994080D01*
X112036317Y-93425136D01*
X112286872Y-93926837D01*
X112439077Y-94523557D01*
X112503803Y-95239667D01*
X112507721Y-95548800D01*
X112499610Y-96002055D01*
X112473134Y-96350886D01*
X112417982Y-96660009D01*
X112323845Y-96994142D01*
X112234948Y-97260972D01*
X111752661Y-98446957D01*
X111167942Y-99502510D01*
X110483698Y-100425103D01*
X109702836Y-101212208D01*
X108828265Y-101861301D01*
X107862893Y-102369852D01*
X106809628Y-102735336D01*
X105683894Y-102953665D01*
X105303357Y-102999404D01*
X105026004Y-103022820D01*
X104787157Y-103023879D01*
X104522141Y-103002545D01*
X104166278Y-102958782D01*
X104120422Y-102952808D01*
X103228973Y-102770100D01*
X102459937Y-102470497D01*
X101813064Y-102053841D01*
X101288105Y-101519974D01*
X101075017Y-101183658D01*
X107337455Y-101183658D01*
X107401352Y-101167137D01*
X107536948Y-101098535D01*
X107558020Y-101087232D01*
X107789079Y-100934352D01*
X108085834Y-100698202D01*
X108398593Y-100419446D01*
X108532124Y-100290133D01*
X108793241Y-100004431D01*
X109057991Y-99672413D01*
X109302445Y-99329415D01*
X109502669Y-99010776D01*
X109634734Y-98751832D01*
X109675566Y-98601719D01*
X109626429Y-98635443D01*
X109495524Y-98774042D01*
X109307606Y-98990762D01*
X109233678Y-99079237D01*
X108999469Y-99351465D01*
X108687066Y-99699887D01*
X108336994Y-100079950D01*
X107989776Y-100447101D01*
X107984845Y-100452232D01*
X107668951Y-100782386D01*
X107461955Y-101005118D01*
X107354556Y-101134264D01*
X107337455Y-101183658D01*
X101075017Y-101183658D01*
X100917959Y-100935776D01*
X100697642Y-100392209D01*
X100511902Y-99697711D01*
X100360143Y-98848724D01*
X100241771Y-97841692D01*
X100156187Y-96673058D01*
X100135906Y-96270516D01*
X100131684Y-96049267D01*
X100905994Y-96049267D01*
X100918938Y-96238447D01*
X100972730Y-96758760D01*
X101789315Y-96146966D01*
X102481069Y-95639063D01*
X103054595Y-95241492D01*
X103516858Y-94950564D01*
X103874820Y-94762589D01*
X104135447Y-94673878D01*
X104305703Y-94680744D01*
X104389115Y-94769861D01*
X104406996Y-94885604D01*
X104363555Y-95016516D01*
X104243988Y-95179049D01*
X104033493Y-95389656D01*
X103717268Y-95664786D01*
X103280510Y-96020893D01*
X103219766Y-96069473D01*
X102621473Y-96555913D01*
X102113221Y-96986884D01*
X101702803Y-97354809D01*
X101398014Y-97652111D01*
X101206649Y-97871213D01*
X101136501Y-98004537D01*
X101187733Y-98044888D01*
X101234345Y-98015661D01*
X105103566Y-98015661D01*
X105164274Y-98124046D01*
X105323315Y-98305092D01*
X105546065Y-98526600D01*
X105797898Y-98756370D01*
X106044190Y-98962200D01*
X106250316Y-99111892D01*
X106331233Y-99157362D01*
X106548665Y-99257630D01*
X106675732Y-99299827D01*
X106779484Y-99288280D01*
X106926973Y-99227319D01*
X106990119Y-99199894D01*
X107237567Y-99054666D01*
X107473616Y-98857879D01*
X107490751Y-98840060D01*
X107718937Y-98596800D01*
X107109751Y-98593488D01*
X106764993Y-98579408D01*
X106470657Y-98530610D01*
X106158453Y-98430851D01*
X105802066Y-98282448D01*
X105495350Y-98151507D01*
X105257201Y-98057802D01*
X105121917Y-98014433D01*
X105103566Y-98015661D01*
X101234345Y-98015661D01*
X101270705Y-97992863D01*
X101460820Y-97849691D01*
X101735523Y-97633093D01*
X102072261Y-97360794D01*
X102366489Y-97118631D01*
X102760529Y-96798073D01*
X103134946Y-96504635D01*
X103459969Y-96260832D01*
X103705828Y-96089182D01*
X103811597Y-96025674D01*
X104159140Y-95789896D01*
X104525868Y-95422923D01*
X104923855Y-94911910D01*
X105102921Y-94651712D01*
X105536330Y-94062515D01*
X105965815Y-93609720D01*
X106062979Y-93536047D01*
X107427651Y-93536047D01*
X107439283Y-93598822D01*
X107462795Y-93617264D01*
X107624739Y-93626021D01*
X107878972Y-93525341D01*
X108201226Y-93328618D01*
X108567231Y-93049248D01*
X108703270Y-92932576D01*
X108890068Y-92747694D01*
X108944893Y-92645582D01*
X108881788Y-92623256D01*
X108714792Y-92677731D01*
X108457948Y-92806023D01*
X108125297Y-93005149D01*
X108010457Y-93079815D01*
X107694968Y-93294473D01*
X107506789Y-93440574D01*
X107427651Y-93536047D01*
X106062979Y-93536047D01*
X106421863Y-93263930D01*
X106712233Y-93099970D01*
X107035727Y-92932117D01*
X107341923Y-92766025D01*
X107551711Y-92645245D01*
X107840856Y-92468709D01*
X107616148Y-92412311D01*
X107469042Y-92397890D01*
X107179864Y-92388387D01*
X106775813Y-92383992D01*
X106284084Y-92384896D01*
X105731875Y-92391287D01*
X105422003Y-92397005D01*
X104668996Y-92416897D01*
X104059032Y-92444427D01*
X103565861Y-92483537D01*
X103163231Y-92538169D01*
X102824893Y-92612264D01*
X102524596Y-92709763D01*
X102236091Y-92834608D01*
X102118103Y-92893089D01*
X101822436Y-93110998D01*
X101528762Y-93441015D01*
X101278385Y-93830541D01*
X101141525Y-94136695D01*
X101036615Y-94536640D01*
X100957467Y-95035198D01*
X100911466Y-95562647D01*
X100905994Y-96049267D01*
X100131684Y-96049267D01*
X100120531Y-95464925D01*
X100157374Y-94789643D01*
X100250599Y-94212607D01*
X100404372Y-93701756D01*
X100499056Y-93474716D01*
X100740248Y-93030914D01*
X101030128Y-92682891D01*
X101399645Y-92406964D01*
X101879745Y-92179450D01*
X102430007Y-91997074D01*
X103123783Y-91829699D01*
X103885965Y-91713269D01*
X104741744Y-91645616D01*
X105716315Y-91624572D01*
X106585233Y-91639427D01*
G36*
X106585233Y-91639427D02*
G01*
X107618504Y-91687232D01*
X108503458Y-91764583D01*
X109259173Y-91875493D01*
X109904729Y-92023975D01*
X110459205Y-92214041D01*
X110941680Y-92449705D01*
X111196681Y-92609298D01*
X111676544Y-92994080D01*
X112036317Y-93425136D01*
X112286872Y-93926837D01*
X112439077Y-94523557D01*
X112503803Y-95239667D01*
X112507721Y-95548800D01*
X112499610Y-96002055D01*
X112473134Y-96350886D01*
X112417982Y-96660009D01*
X112323845Y-96994142D01*
X112234948Y-97260972D01*
X111752661Y-98446957D01*
X111167942Y-99502510D01*
X110483698Y-100425103D01*
X109702836Y-101212208D01*
X108828265Y-101861301D01*
X107862893Y-102369852D01*
X106809628Y-102735336D01*
X105683894Y-102953665D01*
X105303357Y-102999404D01*
X105026004Y-103022820D01*
X104787157Y-103023879D01*
X104522141Y-103002545D01*
X104166278Y-102958782D01*
X104120422Y-102952808D01*
X103228973Y-102770100D01*
X102459937Y-102470497D01*
X101813064Y-102053841D01*
X101288105Y-101519974D01*
X101075017Y-101183658D01*
X107337455Y-101183658D01*
X107401352Y-101167137D01*
X107536948Y-101098535D01*
X107558020Y-101087232D01*
X107789079Y-100934352D01*
X108085834Y-100698202D01*
X108398593Y-100419446D01*
X108532124Y-100290133D01*
X108793241Y-100004431D01*
X109057991Y-99672413D01*
X109302445Y-99329415D01*
X109502669Y-99010776D01*
X109634734Y-98751832D01*
X109675566Y-98601719D01*
X109626429Y-98635443D01*
X109495524Y-98774042D01*
X109307606Y-98990762D01*
X109233678Y-99079237D01*
X108999469Y-99351465D01*
X108687066Y-99699887D01*
X108336994Y-100079950D01*
X107989776Y-100447101D01*
X107984845Y-100452232D01*
X107668951Y-100782386D01*
X107461955Y-101005118D01*
X107354556Y-101134264D01*
X107337455Y-101183658D01*
X101075017Y-101183658D01*
X100917959Y-100935776D01*
X100697642Y-100392209D01*
X100511902Y-99697711D01*
X100360143Y-98848724D01*
X100241771Y-97841692D01*
X100156187Y-96673058D01*
X100135906Y-96270516D01*
X100131684Y-96049267D01*
X100905994Y-96049267D01*
X100918938Y-96238447D01*
X100972730Y-96758760D01*
X101789315Y-96146966D01*
X102481069Y-95639063D01*
X103054595Y-95241492D01*
X103516858Y-94950564D01*
X103874820Y-94762589D01*
X104135447Y-94673878D01*
X104305703Y-94680744D01*
X104389115Y-94769861D01*
X104406996Y-94885604D01*
X104363555Y-95016516D01*
X104243988Y-95179049D01*
X104033493Y-95389656D01*
X103717268Y-95664786D01*
X103280510Y-96020893D01*
X103219766Y-96069473D01*
X102621473Y-96555913D01*
X102113221Y-96986884D01*
X101702803Y-97354809D01*
X101398014Y-97652111D01*
X101206649Y-97871213D01*
X101136501Y-98004537D01*
X101187733Y-98044888D01*
X101234345Y-98015661D01*
X105103566Y-98015661D01*
X105164274Y-98124046D01*
X105323315Y-98305092D01*
X105546065Y-98526600D01*
X105797898Y-98756370D01*
X106044190Y-98962200D01*
X106250316Y-99111892D01*
X106331233Y-99157362D01*
X106548665Y-99257630D01*
X106675732Y-99299827D01*
X106779484Y-99288280D01*
X106926973Y-99227319D01*
X106990119Y-99199894D01*
X107237567Y-99054666D01*
X107473616Y-98857879D01*
X107490751Y-98840060D01*
X107718937Y-98596800D01*
X107109751Y-98593488D01*
X106764993Y-98579408D01*
X106470657Y-98530610D01*
X106158453Y-98430851D01*
X105802066Y-98282448D01*
X105495350Y-98151507D01*
X105257201Y-98057802D01*
X105121917Y-98014433D01*
X105103566Y-98015661D01*
X101234345Y-98015661D01*
X101270705Y-97992863D01*
X101460820Y-97849691D01*
X101735523Y-97633093D01*
X102072261Y-97360794D01*
X102366489Y-97118631D01*
X102760529Y-96798073D01*
X103134946Y-96504635D01*
X103459969Y-96260832D01*
X103705828Y-96089182D01*
X103811597Y-96025674D01*
X104159140Y-95789896D01*
X104525868Y-95422923D01*
X104923855Y-94911910D01*
X105102921Y-94651712D01*
X105536330Y-94062515D01*
X105965815Y-93609720D01*
X106062979Y-93536047D01*
X107427651Y-93536047D01*
X107439283Y-93598822D01*
X107462795Y-93617264D01*
X107624739Y-93626021D01*
X107878972Y-93525341D01*
X108201226Y-93328618D01*
X108567231Y-93049248D01*
X108703270Y-92932576D01*
X108890068Y-92747694D01*
X108944893Y-92645582D01*
X108881788Y-92623256D01*
X108714792Y-92677731D01*
X108457948Y-92806023D01*
X108125297Y-93005149D01*
X108010457Y-93079815D01*
X107694968Y-93294473D01*
X107506789Y-93440574D01*
X107427651Y-93536047D01*
X106062979Y-93536047D01*
X106421863Y-93263930D01*
X106712233Y-93099970D01*
X107035727Y-92932117D01*
X107341923Y-92766025D01*
X107551711Y-92645245D01*
X107840856Y-92468709D01*
X107616148Y-92412311D01*
X107469042Y-92397890D01*
X107179864Y-92388387D01*
X106775813Y-92383992D01*
X106284084Y-92384896D01*
X105731875Y-92391287D01*
X105422003Y-92397005D01*
X104668996Y-92416897D01*
X104059032Y-92444427D01*
X103565861Y-92483537D01*
X103163231Y-92538169D01*
X102824893Y-92612264D01*
X102524596Y-92709763D01*
X102236091Y-92834608D01*
X102118103Y-92893089D01*
X101822436Y-93110998D01*
X101528762Y-93441015D01*
X101278385Y-93830541D01*
X101141525Y-94136695D01*
X101036615Y-94536640D01*
X100957467Y-95035198D01*
X100911466Y-95562647D01*
X100905994Y-96049267D01*
X100131684Y-96049267D01*
X100120531Y-95464925D01*
X100157374Y-94789643D01*
X100250599Y-94212607D01*
X100404372Y-93701756D01*
X100499056Y-93474716D01*
X100740248Y-93030914D01*
X101030128Y-92682891D01*
X101399645Y-92406964D01*
X101879745Y-92179450D01*
X102430007Y-91997074D01*
X103123783Y-91829699D01*
X103885965Y-91713269D01*
X104741744Y-91645616D01*
X105716315Y-91624572D01*
X106585233Y-91639427D01*
G37*
X100166175Y-57863482D02*
X100827900Y-57956029D01*
X101624417Y-58112619D01*
X102313320Y-58292141D01*
X102956288Y-58514006D01*
X103615003Y-58797622D01*
X103833566Y-58901856D01*
X104268457Y-59119646D01*
X104600296Y-59307960D01*
X104880462Y-59503548D01*
X105160331Y-59743161D01*
X105491280Y-60063550D01*
X105575176Y-60147650D01*
X106146010Y-60768502D01*
X106671700Y-61443836D01*
X107174442Y-62205891D01*
X107676433Y-63086906D01*
X107917797Y-63550016D01*
X108582272Y-64973495D01*
X109192898Y-66525890D01*
X109750651Y-68211429D01*
X110256506Y-70034341D01*
X110711436Y-71998856D01*
X111116418Y-74109202D01*
X111472424Y-76369610D01*
X111780432Y-78784307D01*
X112041414Y-81357523D01*
X112053574Y-81494133D01*
X112092284Y-81921714D01*
X112126780Y-82283915D01*
X112153989Y-82549857D01*
X112170840Y-82688662D01*
X112173702Y-82701465D01*
X112257744Y-82695785D01*
X112475579Y-82664180D01*
X112794539Y-82611773D01*
X113181952Y-82543689D01*
X113197120Y-82540946D01*
X113667562Y-82464660D01*
X114129017Y-82411159D01*
X114628345Y-82377029D01*
X115212408Y-82358862D01*
X115771566Y-82353528D01*
X116328321Y-82352838D01*
X116755781Y-82357709D01*
X117093981Y-82372605D01*
X117382955Y-82401985D01*
X117662740Y-82450311D01*
X117973368Y-82522043D01*
X118354876Y-82621642D01*
X118480900Y-82655412D01*
X118896327Y-82762215D01*
X119251271Y-82844584D01*
X119514967Y-82896057D01*
X119656648Y-82910170D01*
X119671409Y-82905497D01*
X119720386Y-82811441D01*
X119823155Y-82590831D01*
X119966558Y-82272651D01*
X120137437Y-81885884D01*
X120216044Y-81705800D01*
X120800897Y-80419622D01*
X121452294Y-79091584D01*
X122154886Y-77748106D01*
X122893325Y-76415608D01*
X123652261Y-75120509D01*
X124416345Y-73889230D01*
X125170229Y-72748192D01*
X125898564Y-71723813D01*
X126378313Y-71098674D01*
X127507769Y-69785029D01*
X128684204Y-68620481D01*
X129901947Y-67609802D01*
X131155330Y-66757764D01*
X132239233Y-66164395D01*
X133226392Y-65760790D01*
X134190552Y-65524118D01*
X135129039Y-65454002D01*
X136039176Y-65550064D01*
X136918289Y-65811927D01*
X137763700Y-66239213D01*
X138572735Y-66831544D01*
X138870701Y-67100424D01*
X139528864Y-67785933D01*
X140117105Y-68530955D01*
X140660031Y-69370434D01*
X141182250Y-70339317D01*
X141254127Y-70485262D01*
X141672887Y-71387716D01*
X142053523Y-72304756D01*
X142402440Y-73258023D01*
X142726046Y-74269157D01*
X143030747Y-75359798D01*
X143322950Y-76551585D01*
X143609061Y-77866160D01*
X143895486Y-79325162D01*
X143936833Y-79546800D01*
X144047339Y-80154388D01*
X144128665Y-80643009D01*
X144185355Y-81059636D01*
X144221957Y-81451240D01*
X144243014Y-81864794D01*
X144253074Y-82347273D01*
X144256380Y-82848800D01*
X144256610Y-83427221D01*
X144250904Y-83869244D01*
X144236433Y-84207775D01*
X144210371Y-84475719D01*
X144169891Y-84705982D01*
X144112167Y-84931471D01*
X144063622Y-85092466D01*
X143701243Y-86020754D01*
X143235538Y-86831158D01*
X142675989Y-87516896D01*
X142032078Y-88071186D01*
X141313289Y-88487246D01*
X140529102Y-88758297D01*
X139689000Y-88877554D01*
X138822484Y-88840868D01*
X137875670Y-88662089D01*
X136882626Y-88362693D01*
X135832576Y-87938103D01*
X134714748Y-87383739D01*
X133518366Y-86695024D01*
X132979906Y-86358231D01*
X131773245Y-85586854D01*
X131470163Y-85774169D01*
X131297409Y-85892325D01*
X131024236Y-86092513D01*
X130682389Y-86350902D01*
X130303612Y-86643664D01*
X130123204Y-86785296D01*
X129079325Y-87609110D01*
X129756629Y-88276955D01*
X130817914Y-89432048D01*
X131725631Y-90654417D01*
X132481508Y-91947927D01*
X133087276Y-93316444D01*
X133544663Y-94763831D01*
X133855400Y-96293956D01*
X134014154Y-97792466D01*
X134031132Y-98478865D01*
X134007568Y-99271287D01*
X133947688Y-100112451D01*
X133855721Y-100945072D01*
X133735892Y-101711868D01*
X133717942Y-101806544D01*
X133647642Y-102186098D01*
X133592063Y-102519443D01*
X133558454Y-102761188D01*
X133551822Y-102846636D01*
X133604527Y-102983665D01*
X133771225Y-103176163D01*
X134064318Y-103437304D01*
X134250066Y-103588137D01*
X135037300Y-104289739D01*
X135657152Y-105007401D01*
X136109400Y-105738723D01*
X136393825Y-106481303D01*
X136510204Y-107232743D01*
X136458318Y-107990641D01*
X136237944Y-108752597D01*
X135848861Y-109516210D01*
X135290849Y-110279082D01*
X134905402Y-110704133D01*
X134412430Y-111212133D01*
X134378425Y-112228133D01*
X134335806Y-112888097D01*
X134247417Y-113434750D01*
X134098728Y-113921207D01*
X133875211Y-114400582D01*
X133701377Y-114703213D01*
X133284109Y-115284518D01*
X132763427Y-115813663D01*
X132126705Y-116298852D01*
X131361314Y-116748289D01*
X130454627Y-117170176D01*
X129394015Y-117572717D01*
X129163395Y-117651263D01*
X129142148Y-117727608D01*
X129248527Y-117903071D01*
X129403717Y-118091202D01*
X130187792Y-119000828D01*
X130858912Y-119816226D01*
X131429789Y-120556667D01*
X131913136Y-121241420D01*
X132321665Y-121889755D01*
X132668088Y-122520941D01*
X132965118Y-123154248D01*
X133225467Y-123808945D01*
X133285016Y-123974545D01*
X133636007Y-125205248D01*
X133853910Y-126511916D01*
X133938395Y-127865396D01*
X133889128Y-129236533D01*
X133705779Y-130596175D01*
X133388015Y-131915168D01*
X133375899Y-131955466D01*
X133243094Y-132411591D01*
X133166823Y-132739430D01*
X133148471Y-132970797D01*
X133189418Y-133137505D01*
X133291048Y-133271369D01*
X133438336Y-133392129D01*
X133710278Y-133605872D01*
X133980190Y-133836711D01*
X134037408Y-133889134D01*
X134311583Y-134145761D01*
X134968741Y-133511450D01*
X136094071Y-132509687D01*
X137220776Y-131676120D01*
X138351032Y-131009615D01*
X139487011Y-130509039D01*
X140630890Y-130173257D01*
X141679566Y-130010039D01*
X142407393Y-130009584D01*
X143135986Y-130129099D01*
X143803760Y-130356912D01*
X143988905Y-130447759D01*
X144574071Y-130844767D01*
X145113964Y-131372060D01*
X145577947Y-131991223D01*
X145935384Y-132663842D01*
X146086022Y-133077300D01*
X146171552Y-133307499D01*
X146270084Y-133413128D01*
X146407725Y-133437133D01*
X146730367Y-133472572D01*
X147152251Y-133568840D01*
X147621249Y-133710864D01*
X148085236Y-133883570D01*
X148340012Y-133995877D01*
X149047083Y-134412773D01*
X149619340Y-134927536D01*
X150052682Y-135535206D01*
X150343006Y-136230824D01*
X150411346Y-136500064D01*
X150456770Y-136868252D01*
X150468496Y-137346191D01*
X150449362Y-137878288D01*
X150402206Y-138408950D01*
X150329867Y-138882585D01*
X150278258Y-139106446D01*
X150152161Y-139568760D01*
X150743093Y-140178190D01*
X151225290Y-140748037D01*
X151570695Y-141335837D01*
X151792618Y-141976194D01*
X151904367Y-142703711D01*
X151924233Y-143249090D01*
X151844465Y-144128402D01*
X151610746Y-145023741D01*
X151236093Y-145894009D01*
X151075933Y-146184892D01*
X150912306Y-146434600D01*
X150716889Y-146676697D01*
X150461363Y-146944746D01*
X150117407Y-147272313D01*
X149919986Y-147453781D01*
X149465670Y-147864499D01*
X149001788Y-148274828D01*
X148511767Y-148698608D01*
X147979031Y-149149674D01*
X147387003Y-149641866D01*
X146719110Y-150189021D01*
X145958776Y-150804977D01*
X145089426Y-151503570D01*
X144600566Y-151894672D01*
X144009259Y-152368158D01*
X143422348Y-152839963D01*
X142862407Y-153291807D01*
X142352012Y-153705411D01*
X141913736Y-154062495D01*
X141570153Y-154344779D01*
X141403083Y-154483874D01*
X140656205Y-155084511D01*
X139948718Y-155590110D01*
X139218539Y-156041191D01*
X138403584Y-156478276D01*
X138165900Y-156596716D01*
X137418939Y-156947851D01*
X136726634Y-157233987D01*
X136053967Y-157463901D01*
X135365923Y-157646369D01*
X134627486Y-157790170D01*
X133803638Y-157904079D01*
X132859364Y-157996874D01*
X132450900Y-158029237D01*
X131534568Y-158084108D01*
X130464599Y-158123453D01*
X129255974Y-158147277D01*
X127923675Y-158155588D01*
X126482684Y-158148391D01*
X124947982Y-158125693D01*
X123334551Y-158087500D01*
X121657373Y-158033820D01*
X121401900Y-158024457D01*
X119509820Y-157964707D01*
X117776772Y-157932284D01*
X116205754Y-157927230D01*
X115221233Y-157939653D01*
X114426632Y-157955519D01*
X113518274Y-157973610D01*
X112551704Y-157992824D01*
X111582464Y-158012057D01*
X110666099Y-158030205D01*
X109987565Y-158043613D01*
X108876375Y-158059248D01*
X107914148Y-158058332D01*
X107081215Y-158039722D01*
X106357906Y-158002273D01*
X105724553Y-157944839D01*
X105161488Y-157866275D01*
X104649040Y-157765437D01*
X104468634Y-157722329D01*
X103950772Y-157606656D01*
X103532851Y-157555994D01*
X103157031Y-157573873D01*
X102765474Y-157663822D01*
X102300344Y-157829370D01*
X102224900Y-157859244D01*
X101770464Y-158024605D01*
X101263101Y-158184341D01*
X100791741Y-158311090D01*
X100658566Y-158341159D01*
X100153594Y-158423637D01*
X99539109Y-158487170D01*
X98869350Y-158529387D01*
X98198555Y-158547914D01*
X97580960Y-158540379D01*
X97070805Y-158504409D01*
X97032716Y-158499785D01*
X95482181Y-158230050D01*
X94019881Y-157826116D01*
X92654313Y-157290767D01*
X91490351Y-156684350D01*
X91125138Y-156463981D01*
X90786280Y-156247693D01*
X90449909Y-156017817D01*
X90092157Y-155756681D01*
X89689154Y-155446615D01*
X89217031Y-155069948D01*
X88651919Y-154609009D01*
X88339566Y-154351761D01*
X87909877Y-153999720D01*
X87378133Y-153568225D01*
X86775512Y-153082330D01*
X86133192Y-152567091D01*
X85482351Y-152047564D01*
X84854169Y-151548805D01*
X84698900Y-151426016D01*
X83893255Y-150784736D01*
X83106275Y-150149232D01*
X82351800Y-149531241D01*
X81643671Y-148942500D01*
X80995727Y-148394743D01*
X80421809Y-147899707D01*
X79935759Y-147469128D01*
X79551415Y-147114742D01*
X79282619Y-146848285D01*
X79221375Y-146781358D01*
X78749107Y-146146233D01*
X78405449Y-145451238D01*
X78183203Y-144675027D01*
X78075168Y-143796251D01*
X78061804Y-143343133D01*
X78063864Y-142999926D01*
X78293901Y-142999926D01*
X78301141Y-143543475D01*
X78359325Y-144129177D01*
X78462890Y-144699332D01*
X78594498Y-145163466D01*
X78695878Y-145425179D01*
X78817134Y-145681017D01*
X78966866Y-145939177D01*
X79153673Y-146207854D01*
X79386154Y-146495245D01*
X79672909Y-146809545D01*
X80022536Y-147158951D01*
X80443635Y-147551657D01*
X80944806Y-147995860D01*
X81534647Y-148499756D01*
X82221758Y-149071541D01*
X83014738Y-149719411D01*
X83922186Y-150451560D01*
X84952702Y-151276186D01*
X85291566Y-151546358D01*
X85939374Y-152063399D01*
X86577701Y-152574559D01*
X87187478Y-153064450D01*
X87749636Y-153517685D01*
X88245107Y-153918876D01*
X88654820Y-154252634D01*
X88959708Y-154503571D01*
X89059233Y-154586725D01*
X90160294Y-155461968D01*
X91217260Y-156192870D01*
X92250221Y-156791791D01*
X93279272Y-157271084D01*
X93673566Y-157424457D01*
X94359174Y-157649145D01*
X95146028Y-157861371D01*
X95966080Y-158045217D01*
X96751278Y-158184766D01*
X97149475Y-158237527D01*
X97757299Y-158278673D01*
X98462514Y-158283367D01*
X99197733Y-158254170D01*
X99895570Y-158193640D01*
X100447974Y-158112226D01*
X101191765Y-157934605D01*
X101962787Y-157687377D01*
X102648233Y-157408575D01*
X102895758Y-157307498D01*
X103128444Y-157252889D01*
X103385812Y-157245293D01*
X103707382Y-157285255D01*
X104132673Y-157373320D01*
X104383900Y-157432511D01*
X104985269Y-157560349D01*
X105620855Y-157659856D01*
X106313614Y-157732511D01*
X107086508Y-157779794D01*
X107962493Y-157803185D01*
X108964531Y-157804161D01*
X109914542Y-157788874D01*
X111261871Y-157759344D01*
X112457524Y-157734071D01*
X113519107Y-157713044D01*
X114464223Y-157696247D01*
X115310478Y-157683667D01*
X116075475Y-157675290D01*
X116776819Y-157671103D01*
X117432115Y-157671092D01*
X118058966Y-157675244D01*
X118674977Y-157683544D01*
X119297754Y-157695979D01*
X119944899Y-157712535D01*
X120634017Y-157733198D01*
X121382713Y-157757956D01*
X122001634Y-157779474D01*
X124006330Y-157840831D01*
X125871773Y-157878796D01*
X127594452Y-157893451D01*
X129170857Y-157884878D01*
X130597474Y-157853161D01*
X131870794Y-157798382D01*
X132987305Y-157720622D01*
X133943495Y-157619964D01*
X134735853Y-157496491D01*
X134827040Y-157478688D01*
X136195564Y-157120969D01*
X137550282Y-156602946D01*
X138873265Y-155933596D01*
X140146581Y-155121899D01*
X141256233Y-154259281D01*
X141483174Y-154069427D01*
X141823341Y-153789374D01*
X142257662Y-153434611D01*
X142767064Y-153020631D01*
X143332476Y-152562926D01*
X143934824Y-152076988D01*
X144555035Y-151578308D01*
X144705581Y-151457524D01*
X145763961Y-150606044D01*
X146696404Y-149849552D01*
X147511522Y-149180226D01*
X148217927Y-148590243D01*
X148824231Y-148071782D01*
X149339048Y-147617019D01*
X149770990Y-147218133D01*
X150128669Y-146867301D01*
X150420699Y-146556701D01*
X150655690Y-146278511D01*
X150842257Y-146024907D01*
X150989011Y-145788069D01*
X151029204Y-145714100D01*
X151370822Y-144911989D01*
X151585241Y-144066398D01*
X151666297Y-143216774D01*
X151607827Y-142402566D01*
X151574212Y-142225467D01*
X151375935Y-141578247D01*
X151062558Y-140996970D01*
X150610897Y-140441165D01*
X150469907Y-140297756D01*
X150220065Y-140039941D01*
X150024839Y-139815820D01*
X149911196Y-139657555D01*
X149893238Y-139609986D01*
X149914939Y-139466153D01*
X149969753Y-139222014D01*
X150020481Y-139025133D01*
X150088282Y-138708961D01*
X150150701Y-138304323D01*
X150195540Y-137891948D01*
X150199603Y-137839800D01*
X150200256Y-137015734D01*
X150070964Y-136294317D01*
X149808534Y-135665917D01*
X149409775Y-135120901D01*
X149243278Y-134953537D01*
X148574157Y-134441326D01*
X147799264Y-134050627D01*
X146939838Y-133790958D01*
X146472106Y-133711573D01*
X145978191Y-133648800D01*
X145832817Y-133178478D01*
X145538503Y-132448815D01*
X145125151Y-131808850D01*
X144677029Y-131318972D01*
X144235792Y-130931071D01*
X143819719Y-130656259D01*
X143382366Y-130475937D01*
X142877294Y-130371510D01*
X142258060Y-130324380D01*
X142187566Y-130322087D01*
X141700255Y-130314801D01*
X141314381Y-130330509D01*
X140962828Y-130375998D01*
X140578476Y-130458055D01*
X140399501Y-130502899D01*
X139335415Y-130856733D01*
X138254717Y-131373052D01*
X137165545Y-132046828D01*
X136076041Y-132873030D01*
X135006767Y-133834558D01*
X134745517Y-134072491D01*
X134513402Y-134255830D01*
X134346693Y-134357044D01*
X134303372Y-134368466D01*
X134162501Y-134315341D01*
X133948450Y-134176949D01*
X133737706Y-134008633D01*
X133477349Y-133782473D01*
X133231059Y-133570391D01*
X133092125Y-133452117D01*
X132949199Y-133310273D01*
X132890802Y-133162327D01*
X132894190Y-132937320D01*
X132902165Y-132859450D01*
X132944646Y-132599135D01*
X133021539Y-132237746D01*
X133119329Y-131836617D01*
X133166649Y-131659133D01*
X133404545Y-130688444D01*
X133559968Y-129781522D01*
X133643453Y-128860629D01*
X133665780Y-127976133D01*
X133608948Y-126732678D01*
X133432042Y-125536878D01*
X133129150Y-124375907D01*
X132694358Y-123236941D01*
X132121753Y-122107153D01*
X131405421Y-120973719D01*
X130539450Y-119823814D01*
X129517927Y-118644613D01*
X129212294Y-118317023D01*
X128949394Y-118034436D01*
X128739632Y-117799641D01*
X128604689Y-117637574D01*
X128565803Y-117573436D01*
X128654277Y-117537372D01*
X128869931Y-117458997D01*
X129179515Y-117350176D01*
X129517724Y-117233708D01*
X130496732Y-116857794D01*
X131366560Y-116438289D01*
X132111203Y-115984648D01*
X132714657Y-115506326D01*
X133063454Y-115138924D01*
X133336081Y-114749721D01*
X133608942Y-114266055D01*
X133848329Y-113755238D01*
X134020530Y-113284585D01*
X134054250Y-113160462D01*
X134099215Y-112876126D01*
X134128205Y-112493060D01*
X134136511Y-112081495D01*
X134134336Y-111965347D01*
X134111843Y-111192569D01*
X134699538Y-110540736D01*
X135215647Y-109939171D01*
X135607841Y-109407739D01*
X135889729Y-108917774D01*
X136074920Y-108440610D01*
X136177021Y-107947581D01*
X136209641Y-107410022D01*
X136209640Y-107359800D01*
X136171951Y-106785860D01*
X136051891Y-106277940D01*
X135831061Y-105783238D01*
X135491063Y-105248955D01*
X135457910Y-105202567D01*
X134944822Y-104576186D01*
X134339730Y-104007770D01*
X133871204Y-103645003D01*
X133538175Y-103367664D01*
X133347373Y-103099284D01*
X133281003Y-102793451D01*
X133321267Y-102403752D01*
X133347731Y-102279800D01*
X133535252Y-101267976D01*
X133662434Y-100163731D01*
X133726996Y-99021532D01*
X133726659Y-97895849D01*
X133659144Y-96841150D01*
X133596437Y-96336870D01*
X133494693Y-95758959D01*
X133358725Y-95135828D01*
X133201086Y-94515340D01*
X133034326Y-93945356D01*
X132870996Y-93473739D01*
X132801418Y-93305133D01*
X132632194Y-92924133D01*
X132626860Y-93262800D01*
X132649858Y-93525826D01*
X132714994Y-93866461D01*
X132790939Y-94151800D01*
X133109519Y-95425742D01*
X133314055Y-96781853D01*
X133402557Y-98175466D01*
X133373031Y-99561911D01*
X133223484Y-100896522D01*
X133117210Y-101464948D01*
X133023938Y-101986759D01*
X132978132Y-102436362D01*
X132980585Y-102729696D01*
X133027297Y-103016375D01*
X133127503Y-103219973D01*
X133323868Y-103423239D01*
X133350167Y-103446498D01*
X133966437Y-103995156D01*
X134463995Y-104459034D01*
X134857988Y-104857063D01*
X135163565Y-105208172D01*
X135395871Y-105531291D01*
X135570055Y-105845349D01*
X135701263Y-106169276D01*
X135801608Y-106510059D01*
X135888850Y-107189118D01*
X135807445Y-107881383D01*
X135557539Y-108586508D01*
X135139276Y-109304146D01*
X134552800Y-110033951D01*
X134164123Y-110435018D01*
X133745129Y-110843236D01*
X133786330Y-111630937D01*
X133768542Y-112488718D01*
X133615360Y-113259398D01*
X133319720Y-113966354D01*
X132881815Y-114623851D01*
X132428024Y-115110818D01*
X131869191Y-115555158D01*
X131190616Y-115965350D01*
X130377599Y-116349868D01*
X129415438Y-116717189D01*
X129021900Y-116849394D01*
X128618155Y-116981932D01*
X128275933Y-117096419D01*
X128025620Y-117182526D01*
X127897603Y-117229925D01*
X127887820Y-117234848D01*
X127932932Y-117301121D01*
X128078637Y-117468617D01*
X128306944Y-117717682D01*
X128599858Y-118028663D01*
X128914475Y-118356212D01*
X129670904Y-119176056D01*
X130380793Y-120021736D01*
X131021892Y-120863788D01*
X131571950Y-121672748D01*
X132008715Y-122419151D01*
X132065601Y-122528842D01*
X132624372Y-123811853D01*
X133023674Y-125144434D01*
X133262881Y-126517481D01*
X133341370Y-127921890D01*
X133258513Y-129348557D01*
X133013686Y-130788376D01*
X132710372Y-131913133D01*
X132578421Y-132429998D01*
X132546787Y-132833909D01*
X132615029Y-133148004D01*
X132684291Y-133275389D01*
X132883226Y-133512979D01*
X133164442Y-133775949D01*
X133490262Y-134036795D01*
X133823011Y-134268012D01*
X134125013Y-134442096D01*
X134358591Y-134531543D01*
X134413560Y-134537800D01*
X134581173Y-134474173D01*
X134851399Y-134286740D01*
X135217130Y-133980669D01*
X135374236Y-133839300D01*
X136159513Y-133142807D01*
X136867874Y-132562530D01*
X137525029Y-132079994D01*
X138156687Y-131676724D01*
X138788560Y-131334246D01*
X139007060Y-131228815D01*
X139738491Y-130916020D01*
X140404151Y-130703335D01*
X141063529Y-130576925D01*
X141776114Y-130522952D01*
X142060566Y-130518581D01*
X142495906Y-130519625D01*
X142805868Y-130530412D01*
X143034400Y-130558725D01*
X143225445Y-130612341D01*
X143422949Y-130699042D01*
X143604564Y-130791928D01*
X144256389Y-131225702D01*
X144810808Y-131786327D01*
X145250455Y-132451429D01*
X145557963Y-133198637D01*
X145605665Y-133369892D01*
X145720209Y-133818133D01*
X146244725Y-133877031D01*
X146904132Y-133992414D01*
X147558414Y-134181809D01*
X148164926Y-134428299D01*
X148681019Y-134714968D01*
X149015052Y-134975962D01*
X149370095Y-135424075D01*
X149637344Y-135986117D01*
X149810874Y-136627793D01*
X149884759Y-137314805D01*
X149853073Y-138012855D01*
X149709890Y-138687647D01*
X149674898Y-138795070D01*
X149581889Y-139153876D01*
X149585229Y-139458975D01*
X149697700Y-139748877D01*
X149932082Y-140062092D01*
X150181577Y-140321775D01*
X150460274Y-140621055D01*
X150716962Y-140941226D01*
X150904266Y-141222234D01*
X150930844Y-141271621D01*
X151194893Y-141976336D01*
X151314526Y-142744775D01*
X151290927Y-143554217D01*
X151125284Y-144381936D01*
X150818783Y-145205210D01*
X150714300Y-145419369D01*
X150543278Y-145688823D01*
X150273402Y-146020023D01*
X149899829Y-146417365D01*
X149417715Y-146885247D01*
X148822218Y-147428066D01*
X148108493Y-148050218D01*
X147271697Y-148756101D01*
X146306987Y-149550112D01*
X145209519Y-150436647D01*
X145023900Y-150585278D01*
X144415320Y-151073264D01*
X143804776Y-151565050D01*
X143215638Y-152041655D01*
X142671275Y-152484098D01*
X142195055Y-152873394D01*
X141810347Y-153190564D01*
X141594900Y-153370558D01*
X140343338Y-154356845D01*
X139105677Y-155193646D01*
X137887898Y-155877834D01*
X136695980Y-156406285D01*
X135535906Y-156775871D01*
X134779233Y-156933096D01*
X134093526Y-157036074D01*
X133394324Y-157124903D01*
X132669805Y-157199735D01*
X131908147Y-157260723D01*
X131097529Y-157308019D01*
X130226130Y-157341775D01*
X129282127Y-157362144D01*
X128253699Y-157369278D01*
X127129025Y-157363329D01*
X125896282Y-157344450D01*
X124543650Y-157312793D01*
X123059305Y-157268510D01*
X121431428Y-157211754D01*
X119648196Y-157142677D01*
X119374980Y-157131605D01*
X118781432Y-157109331D01*
X118222511Y-157093041D01*
X117674605Y-157082923D01*
X117114104Y-157079165D01*
X116517394Y-157081956D01*
X115860865Y-157091486D01*
X115120903Y-157107941D01*
X114273899Y-157131512D01*
X113296238Y-157162386D01*
X112601647Y-157185704D01*
X111386547Y-157225026D01*
X110324048Y-157254126D01*
X109397700Y-157272510D01*
X108591051Y-157279686D01*
X107887649Y-157275159D01*
X107271043Y-157258438D01*
X106724781Y-157229027D01*
X106232412Y-157186435D01*
X105777483Y-157130168D01*
X105343544Y-157059732D01*
X104914142Y-156974634D01*
X104810426Y-156952083D01*
X104171952Y-156827562D01*
X103644252Y-156768611D01*
X103181066Y-156777448D01*
X102736131Y-156856293D01*
X102263186Y-157007363D01*
X102067896Y-157083603D01*
X101056680Y-157412027D01*
X99949852Y-157624269D01*
X98775025Y-157720288D01*
X97559812Y-157700046D01*
X96331825Y-157563503D01*
X95118678Y-157310619D01*
X94383437Y-157094516D01*
X93898662Y-156916077D01*
X93330148Y-156677273D01*
X92729585Y-156402412D01*
X92148667Y-156115805D01*
X91639086Y-155841763D01*
X91344687Y-155665437D01*
X91187365Y-155553810D01*
X90911827Y-155345982D01*
X90531294Y-155052515D01*
X90058989Y-154683967D01*
X89508131Y-154250901D01*
X88891944Y-153763875D01*
X88223649Y-153233450D01*
X87516467Y-152670186D01*
X86783620Y-152084643D01*
X86038330Y-151487382D01*
X85293819Y-150888963D01*
X84563307Y-150299947D01*
X83860018Y-149730892D01*
X83197172Y-149192360D01*
X82587991Y-148694911D01*
X82045696Y-148249105D01*
X81685784Y-147950799D01*
X81235144Y-147569993D01*
X80803885Y-147195310D01*
X80418146Y-146850238D01*
X80104064Y-146558272D01*
X79887778Y-146342901D01*
X79847585Y-146298703D01*
X79318745Y-145575302D01*
X78947903Y-144797524D01*
X78737895Y-143972705D01*
X78687566Y-143300799D01*
X78733327Y-142757475D01*
X81735566Y-142757475D01*
X81766020Y-143097229D01*
X81873770Y-143393363D01*
X82083397Y-143699572D01*
X82258585Y-143899953D01*
X82708211Y-144296400D01*
X83207777Y-144580780D01*
X83727074Y-144744982D01*
X84235899Y-144780893D01*
X84704046Y-144680401D01*
X84870793Y-144601521D01*
X85091188Y-144423545D01*
X87549122Y-144423545D01*
X87549491Y-144824800D01*
X87573752Y-145412987D01*
X87644885Y-145911365D01*
X87778684Y-146378438D01*
X87990946Y-146872710D01*
X88222316Y-147316909D01*
X88938253Y-148448752D01*
X89793122Y-149484981D01*
X90784483Y-150423193D01*
X91909900Y-151260984D01*
X92733014Y-151762292D01*
X93222025Y-152029382D01*
X93628359Y-152229533D01*
X94011675Y-152387542D01*
X94431628Y-152528205D01*
X94901233Y-152663501D01*
X95354686Y-152751091D01*
X95906792Y-152800705D01*
X96509786Y-152813508D01*
X97115904Y-152790670D01*
X97677380Y-152733356D01*
X98146449Y-152642735D01*
X98347304Y-152579288D01*
X98815807Y-152334415D01*
X99280622Y-151980578D01*
X99682030Y-151568497D01*
X99900786Y-151259903D01*
X100071960Y-150840245D01*
X100176218Y-150306422D01*
X100212632Y-149700219D01*
X100180272Y-149063419D01*
X100078210Y-148437806D01*
X99972128Y-148051059D01*
X99705258Y-147383032D01*
X99345493Y-146692427D01*
X98934885Y-146058956D01*
X98887155Y-145994500D01*
X98261984Y-145270826D01*
X97499303Y-144565348D01*
X96630922Y-143898114D01*
X95688654Y-143289176D01*
X94704310Y-142758582D01*
X93709703Y-142326381D01*
X92736645Y-142012624D01*
X92465404Y-141947178D01*
X91914980Y-141861431D01*
X91298824Y-141824855D01*
X90667480Y-141835560D01*
X90071496Y-141891654D01*
X89561415Y-141991245D01*
X89334682Y-142064312D01*
X88862878Y-142313285D01*
X88403628Y-142668974D01*
X88009535Y-143084381D01*
X87748320Y-143481695D01*
X87654739Y-143685495D01*
X87594831Y-143880106D01*
X87561868Y-144110975D01*
X87549122Y-144423545D01*
X85091188Y-144423545D01*
X85203860Y-144332559D01*
X85397732Y-143994255D01*
X85455760Y-143608665D01*
X85381295Y-143197847D01*
X85177692Y-142783857D01*
X84848300Y-142388752D01*
X84490103Y-142096681D01*
X84204645Y-141923433D01*
X83915279Y-141784182D01*
X83782943Y-141737319D01*
X83443393Y-141675846D01*
X83057323Y-141654775D01*
X82688135Y-141673200D01*
X82399228Y-141730213D01*
X82330774Y-141758114D01*
X82063127Y-141974645D01*
X81854118Y-142292525D01*
X81743618Y-142644813D01*
X81735566Y-142757475D01*
X78733327Y-142757475D01*
X78756435Y-142483113D01*
X78968747Y-141732576D01*
X79333055Y-141027754D01*
X79857915Y-140347209D01*
X79872939Y-140330573D01*
X80202141Y-139938941D01*
X80409638Y-139605958D01*
X80508949Y-139288350D01*
X80513594Y-138942843D01*
X80439664Y-138540176D01*
X83936900Y-138540176D01*
X84016404Y-139020517D01*
X84236313Y-139492624D01*
X84568717Y-139929698D01*
X84985708Y-140304942D01*
X85459377Y-140591558D01*
X85961814Y-140762746D01*
X86289772Y-140799417D01*
X86543898Y-140762111D01*
X86833674Y-140664629D01*
X86909969Y-140628832D01*
X87221611Y-140398977D01*
X87412737Y-140099666D01*
X87516547Y-139857898D01*
X87561155Y-139678170D01*
X87546063Y-139498376D01*
X87470776Y-139256410D01*
X87404549Y-139077056D01*
X87121821Y-138546606D01*
X86717823Y-138102442D01*
X86223107Y-137766212D01*
X85668225Y-137559564D01*
X85181528Y-137501960D01*
X84678124Y-137552524D01*
X84306790Y-137707759D01*
X84064611Y-137970096D01*
X83948671Y-138341967D01*
X83936900Y-138540176D01*
X80439664Y-138540176D01*
X80437090Y-138526161D01*
X80436890Y-138525333D01*
X80311969Y-137739529D01*
X80317243Y-136984585D01*
X80448625Y-136285437D01*
X80702025Y-135667021D01*
X80827741Y-135481225D01*
X88091645Y-135481225D01*
X88109897Y-136000305D01*
X88246138Y-136539379D01*
X88490872Y-137058673D01*
X88783612Y-137462236D01*
X89182828Y-137833776D01*
X89596946Y-138069882D01*
X90004940Y-138164101D01*
X90385785Y-138109977D01*
X90578328Y-138013148D01*
X90917683Y-137696135D01*
X91128880Y-137293405D01*
X91212551Y-136829182D01*
X91169326Y-136327693D01*
X90999836Y-135813162D01*
X90704712Y-135309815D01*
X90501411Y-135060097D01*
X90105865Y-134706631D01*
X89688742Y-134480513D01*
X89274093Y-134382143D01*
X88885967Y-134411919D01*
X88548416Y-134570241D01*
X88285489Y-134857509D01*
X88200881Y-135021913D01*
X88091645Y-135481225D01*
X80827741Y-135481225D01*
X80970601Y-135270092D01*
X81236699Y-134965369D01*
X81485764Y-134728543D01*
X81750912Y-134542002D01*
X82065259Y-134388134D01*
X82461922Y-134249327D01*
X82974018Y-134107970D01*
X83315369Y-134023121D01*
X83885441Y-133876397D01*
X84302679Y-133748947D01*
X84581695Y-133634835D01*
X84737102Y-133528122D01*
X84783566Y-133426490D01*
X84826718Y-133253932D01*
X84941746Y-132980387D01*
X85107006Y-132646035D01*
X85300855Y-132291054D01*
X85501649Y-131955624D01*
X85687744Y-131679924D01*
X85797521Y-131544158D01*
X86356136Y-131056293D01*
X86994477Y-130716735D01*
X87710340Y-130525602D01*
X88501518Y-130483008D01*
X89365805Y-130589071D01*
X90300997Y-130843906D01*
X91304887Y-131247630D01*
X91317705Y-131253547D01*
X92052178Y-131593115D01*
X92106329Y-131541874D01*
X92568660Y-131541874D01*
X93480947Y-132311617D01*
X95251805Y-133883283D01*
X96945897Y-135541497D01*
X98536637Y-137258309D01*
X99997441Y-139005768D01*
X100631388Y-139829466D01*
X101843086Y-141557259D01*
X102928625Y-143328948D01*
X103882756Y-145131702D01*
X104700232Y-146952688D01*
X105375805Y-148779074D01*
X105904228Y-150598027D01*
X106280253Y-152396716D01*
X106498632Y-154162308D01*
X106500057Y-154180466D01*
X106531172Y-154551250D01*
X106564763Y-154908533D01*
X106593029Y-155170328D01*
X106636451Y-155525189D01*
X109320175Y-155488217D01*
X109903855Y-155480803D01*
X110631793Y-155472581D01*
X111478913Y-155463783D01*
X112420142Y-155454638D01*
X113430408Y-155445379D01*
X114484636Y-155436235D01*
X115557753Y-155427439D01*
X116624685Y-155419222D01*
X117457000Y-155413219D01*
X118646488Y-155404003D01*
X119674080Y-155393985D01*
X120547209Y-155382983D01*
X121273312Y-155370816D01*
X121859824Y-155357301D01*
X122314179Y-155342256D01*
X122643813Y-155325499D01*
X122856161Y-155306847D01*
X122958658Y-155286120D01*
X122970052Y-155278190D01*
X123007941Y-155148841D01*
X123049005Y-154904278D01*
X123083367Y-154607019D01*
X123152377Y-154024472D01*
X123259094Y-153326713D01*
X123394979Y-152561427D01*
X123551492Y-151776296D01*
X123720095Y-151019004D01*
X123743486Y-150920800D01*
X124139994Y-149519140D01*
X129915080Y-149519140D01*
X129949528Y-150143108D01*
X130073701Y-150670486D01*
X130155832Y-150861115D01*
X130548956Y-151459335D01*
X131054991Y-151932707D01*
X131677908Y-152284536D01*
X132013712Y-152409338D01*
X132439507Y-152502678D01*
X132980626Y-152557888D01*
X133587431Y-152575073D01*
X134210288Y-152554341D01*
X134799558Y-152495798D01*
X135294856Y-152402292D01*
X136017545Y-152165079D01*
X136805369Y-151810028D01*
X137624351Y-151356596D01*
X138440516Y-150824245D01*
X139219887Y-150232434D01*
X139505345Y-149990751D01*
X140083167Y-149429809D01*
X140646915Y-148779208D01*
X141172217Y-148074642D01*
X141634698Y-147351804D01*
X142009985Y-146646389D01*
X142273704Y-145994089D01*
X142306310Y-145888932D01*
X142392333Y-145475600D01*
X142438703Y-144990287D01*
X142446108Y-144483023D01*
X142415238Y-144003838D01*
X142356860Y-143661807D01*
X144513504Y-143661807D01*
X144642301Y-144030317D01*
X144911473Y-144335157D01*
X145235566Y-144523473D01*
X145521617Y-144583616D01*
X145900849Y-144583614D01*
X146310689Y-144529763D01*
X146688563Y-144428357D01*
X146846723Y-144361405D01*
X147340850Y-144051591D01*
X147732273Y-143679889D01*
X148009572Y-143269095D01*
X148161328Y-142842006D01*
X148176120Y-142421418D01*
X148042529Y-142030127D01*
X148027396Y-142004538D01*
X147762485Y-141721318D01*
X147400976Y-141549064D01*
X146971088Y-141484310D01*
X146501041Y-141523591D01*
X146019052Y-141663441D01*
X145553340Y-141900394D01*
X145132124Y-142230985D01*
X144992367Y-142377291D01*
X144686236Y-142814991D01*
X144527382Y-143249931D01*
X144513504Y-143661807D01*
X142356860Y-143661807D01*
X142346781Y-143602761D01*
X142271829Y-143384633D01*
X141903658Y-142808616D01*
X141418046Y-142344863D01*
X140826522Y-141995903D01*
X140140610Y-141764265D01*
X139371839Y-141652480D01*
X138531734Y-141663078D01*
X137631822Y-141798588D01*
X136683629Y-142061540D01*
X136513581Y-142120851D01*
X135495967Y-142543242D01*
X134512679Y-143060527D01*
X133582417Y-143656776D01*
X132723879Y-144316058D01*
X131955766Y-145022445D01*
X131296776Y-145760007D01*
X130765608Y-146512813D01*
X130380962Y-147264936D01*
X130333819Y-147385339D01*
X130108852Y-148108493D01*
X129968730Y-148830347D01*
X129915080Y-149519140D01*
X124139994Y-149519140D01*
X124280661Y-149021882D01*
X124975905Y-147141610D01*
X125830803Y-145277335D01*
X126846943Y-143426409D01*
X128025912Y-141586183D01*
X129369296Y-139754010D01*
X129628227Y-139440632D01*
X142452095Y-139440632D01*
X142494352Y-139718508D01*
X142576264Y-139951016D01*
X142701438Y-140183809D01*
X142889664Y-140358697D01*
X143143747Y-140503324D01*
X143403571Y-140616392D01*
X143616820Y-140680373D01*
X143707550Y-140685448D01*
X143863511Y-140645135D01*
X144111405Y-140580694D01*
X144250852Y-140544349D01*
X144583090Y-140400163D01*
X144954889Y-140148957D01*
X145320702Y-139830101D01*
X145634982Y-139482966D01*
X145840644Y-139170139D01*
X145997869Y-138728870D01*
X146023376Y-138306885D01*
X145922176Y-137935247D01*
X145699282Y-137645021D01*
X145581032Y-137560950D01*
X145142528Y-137394999D01*
X144659984Y-137369741D01*
X144162111Y-137472959D01*
X143677621Y-137692439D01*
X143235224Y-138015964D01*
X142863634Y-138431319D01*
X142641154Y-138811749D01*
X142499731Y-139161168D01*
X142452095Y-139440632D01*
X129628227Y-139440632D01*
X130878683Y-137927240D01*
X132062429Y-136639702D01*
X138800900Y-136639702D01*
X138867855Y-137023943D01*
X139044585Y-137418326D01*
X139294881Y-137754470D01*
X139469587Y-137902616D01*
X139667899Y-138025481D01*
X139825110Y-138078759D01*
X140001649Y-138065970D01*
X140257946Y-137990634D01*
X140364223Y-137954727D01*
X140810771Y-137719847D01*
X141215128Y-137351082D01*
X141551182Y-136883115D01*
X141792818Y-136350630D01*
X141898296Y-135917211D01*
X141908974Y-135535190D01*
X141844991Y-135137551D01*
X141721541Y-134785183D01*
X141554557Y-134539670D01*
X141254385Y-134365798D01*
X140869730Y-134301821D01*
X140449140Y-134352860D01*
X140284240Y-134405660D01*
X139886581Y-134636295D01*
X139513301Y-134994279D01*
X139192250Y-135437666D01*
X138951281Y-135924507D01*
X138818246Y-136412856D01*
X138800900Y-136639702D01*
X132062429Y-136639702D01*
X132555660Y-136103225D01*
X132730377Y-135923190D01*
X133898855Y-134724803D01*
X133647664Y-134545939D01*
X133396474Y-134367076D01*
X132694830Y-135235604D01*
X132421749Y-135571282D01*
X132069163Y-136001164D01*
X131666382Y-136489711D01*
X131242717Y-137001388D01*
X130827477Y-137500655D01*
X130756445Y-137585800D01*
X129803396Y-138736707D01*
X128955904Y-139781175D01*
X128202721Y-140735359D01*
X127532601Y-141615418D01*
X126934294Y-142437511D01*
X126396555Y-143217795D01*
X125908134Y-143972428D01*
X125457785Y-144717568D01*
X125034259Y-145469373D01*
X124626310Y-146244002D01*
X124361842Y-146772133D01*
X123578089Y-148493023D01*
X122933759Y-150194295D01*
X122412663Y-151923109D01*
X122031896Y-153560124D01*
X121954514Y-153932191D01*
X121887201Y-154238029D01*
X121837931Y-154442509D01*
X121816266Y-154510300D01*
X121729856Y-154516492D01*
X121489509Y-154525167D01*
X121110598Y-154536031D01*
X120608497Y-154548788D01*
X119998579Y-154563141D01*
X119296217Y-154578797D01*
X118516785Y-154595458D01*
X117675656Y-154612830D01*
X116788204Y-154630616D01*
X115869801Y-154648521D01*
X114935822Y-154666250D01*
X114001640Y-154683507D01*
X113082627Y-154699997D01*
X112194159Y-154715423D01*
X111351607Y-154729490D01*
X110570345Y-154741903D01*
X109865747Y-154752366D01*
X109253186Y-154760583D01*
X108748035Y-154766259D01*
X108365668Y-154769098D01*
X108354563Y-154769143D01*
X107329893Y-154773133D01*
X107272850Y-153961631D01*
X107112210Y-152627377D01*
X106816017Y-151214475D01*
X106390742Y-149736489D01*
X105842859Y-148206983D01*
X105178837Y-146639520D01*
X104405149Y-145047664D01*
X103528267Y-143444977D01*
X102554661Y-141845024D01*
X101490804Y-140261369D01*
X100343168Y-138707573D01*
X99479539Y-137628133D01*
X99268304Y-137384274D01*
X98967272Y-137053099D01*
X98590497Y-136648894D01*
X98152035Y-136185947D01*
X97665940Y-135678544D01*
X97146267Y-135140973D01*
X96607070Y-134587520D01*
X96062404Y-134032472D01*
X95526324Y-133490117D01*
X95012885Y-132974741D01*
X94536141Y-132500631D01*
X94110147Y-132082074D01*
X93748957Y-131733358D01*
X93466626Y-131468768D01*
X93277209Y-131302593D01*
X93207657Y-131252592D01*
X93051575Y-131218829D01*
X92878930Y-131297895D01*
X92803370Y-131354723D01*
X92568660Y-131541874D01*
X92106329Y-131541874D01*
X92291372Y-131366775D01*
X92656478Y-131081763D01*
X93144986Y-130788917D01*
X93713759Y-130511044D01*
X93914580Y-130431466D01*
X94863842Y-130431466D01*
X95278001Y-131295279D01*
X96002451Y-132614100D01*
X96860012Y-133829546D01*
X97845742Y-134936297D01*
X98954698Y-135929036D01*
X100181939Y-136802444D01*
X100668173Y-137096121D01*
X101026368Y-137290901D01*
X101468828Y-137513629D01*
X101959629Y-137748079D01*
X102462844Y-137978026D01*
X102942547Y-138187244D01*
X103362814Y-138359509D01*
X103687719Y-138478595D01*
X103808836Y-138514568D01*
X104142907Y-138560775D01*
X104580431Y-138569729D01*
X105060553Y-138545113D01*
X105522415Y-138490612D01*
X105905161Y-138409910D01*
X105991847Y-138382422D01*
X106376147Y-138185911D01*
X106754323Y-137888817D01*
X107081692Y-137535459D01*
X107313570Y-137170160D01*
X107376155Y-137009334D01*
X107444022Y-136689310D01*
X107483539Y-136329286D01*
X107484811Y-136292270D01*
X116925223Y-136292270D01*
X116960636Y-136739133D01*
X117075795Y-137312258D01*
X117243529Y-137749345D01*
X117480460Y-138079824D01*
X117803206Y-138333128D01*
X117888296Y-138381922D01*
X118216235Y-138535372D01*
X118528965Y-138612319D01*
X118897237Y-138635922D01*
X119251729Y-138629675D01*
X119593451Y-138605030D01*
X119793233Y-138577002D01*
X120131900Y-138509871D01*
X120146726Y-139024006D01*
X120242004Y-139615746D01*
X120481948Y-140138649D01*
X120851526Y-140580193D01*
X121335706Y-140927854D01*
X121919460Y-141169109D01*
X122587755Y-141291435D01*
X122883566Y-141304308D01*
X123247521Y-141291381D01*
X123608941Y-141255215D01*
X123814900Y-141219387D01*
X124181575Y-141107934D01*
X124691769Y-140909374D01*
X125344133Y-140624278D01*
X126137318Y-140253217D01*
X126416272Y-140118546D01*
X127665790Y-139424726D01*
X128810751Y-138611919D01*
X129841288Y-137690223D01*
X130747535Y-136669737D01*
X131519626Y-135560561D01*
X132147695Y-134372792D01*
X132243723Y-134153706D01*
X132470909Y-133619158D01*
X132314324Y-133291405D01*
X132157740Y-132963652D01*
X131541957Y-134018837D01*
X130733870Y-135297790D01*
X129890844Y-136421800D01*
X129002652Y-137403445D01*
X128175509Y-138159561D01*
X127196742Y-138905054D01*
X126227806Y-139496470D01*
X125243192Y-139945331D01*
X124217387Y-140263166D01*
X123124882Y-140461497D01*
X123063639Y-140469013D01*
X122666063Y-140511411D01*
X122386069Y-140524021D01*
X122174240Y-140505061D01*
X121981157Y-140452751D01*
X121912229Y-140427523D01*
X121520330Y-140214513D01*
X121228279Y-139904259D01*
X121026671Y-139480124D01*
X120906099Y-138925475D01*
X120872955Y-138589541D01*
X120844435Y-138266084D01*
X120809775Y-138005324D01*
X120775731Y-137856303D01*
X120770490Y-137845609D01*
X120671595Y-137803849D01*
X120461241Y-137845733D01*
X120337580Y-137887485D01*
X120052025Y-137959411D01*
X119683690Y-138011091D01*
X119362076Y-138029790D01*
X118990006Y-138020309D01*
X118715608Y-137972351D01*
X118468956Y-137871625D01*
X118395909Y-137832337D01*
X118114671Y-137659565D01*
X117917327Y-137484898D01*
X117789365Y-137274279D01*
X117716270Y-136993649D01*
X117683528Y-136608950D01*
X117676566Y-136144347D01*
X117668591Y-135635012D01*
X117641382Y-135280700D01*
X117590015Y-135067707D01*
X117509568Y-134982327D01*
X117395117Y-135010856D01*
X117296723Y-135087086D01*
X117090763Y-135378683D01*
X116964772Y-135791016D01*
X116925223Y-136292270D01*
X107484811Y-136292270D01*
X107487293Y-136220106D01*
X107490581Y-135795677D01*
X107842240Y-135865238D01*
X108488371Y-135936528D01*
X109093308Y-135894557D01*
X109616797Y-135743255D01*
X109748269Y-135679139D01*
X110064332Y-135474200D01*
X110294425Y-135233590D01*
X110460552Y-134920387D01*
X110584716Y-134497673D01*
X110649968Y-134166162D01*
X110719091Y-133595931D01*
X110700446Y-133140082D01*
X110589067Y-132765288D01*
X110395163Y-132456844D01*
X110245754Y-132302181D01*
X110133763Y-132266677D01*
X110054795Y-132360494D01*
X110004451Y-132593796D01*
X109978335Y-132976743D01*
X109971900Y-133435014D01*
X109963052Y-133943098D01*
X109926940Y-134316302D01*
X109849212Y-134588587D01*
X109715517Y-134793912D01*
X109511500Y-134966239D01*
X109260345Y-135118707D01*
X108894483Y-135251408D01*
X108433685Y-135315082D01*
X107938481Y-135307816D01*
X107469400Y-135227698D01*
X107317051Y-135180101D01*
X107081692Y-135109896D01*
X106911690Y-135085852D01*
X106872551Y-135093705D01*
X106831000Y-135197491D01*
X106802654Y-135416708D01*
X106794830Y-135622296D01*
X106737900Y-136310196D01*
X106574944Y-136875359D01*
X106308076Y-137313357D01*
X105939409Y-137619764D01*
X105810112Y-137684993D01*
X105616567Y-137762601D01*
X105438668Y-137805226D01*
X105228397Y-137816034D01*
X104937737Y-137798191D01*
X104605758Y-137764405D01*
X103472363Y-137574227D01*
X102411874Y-137253761D01*
X101407378Y-136794476D01*
X100441964Y-136187837D01*
X99498720Y-135425311D01*
X98965233Y-134918374D01*
X98190341Y-134087288D01*
X97497055Y-133219260D01*
X96857527Y-132275232D01*
X96243909Y-131216146D01*
X96013046Y-130777950D01*
X95656181Y-130084420D01*
X95260011Y-130257943D01*
X94863842Y-130431466D01*
X93914580Y-130431466D01*
X94319660Y-130270948D01*
X94444547Y-130228461D01*
X94892735Y-130080506D01*
X95202918Y-129963176D01*
X95395512Y-129847303D01*
X95490938Y-129703717D01*
X95509612Y-129503249D01*
X95471954Y-129216728D01*
X95405709Y-128855349D01*
X95318612Y-128235177D01*
X95266754Y-127554658D01*
X95250886Y-126865832D01*
X95271760Y-126220741D01*
X95330126Y-125671427D01*
X95357585Y-125520800D01*
X95739149Y-124095190D01*
X96283136Y-122694859D01*
X96983338Y-121329710D01*
X97833543Y-120009645D01*
X98827542Y-118744567D01*
X99959126Y-117544377D01*
X100893069Y-116693884D01*
X101170377Y-116408833D01*
X101300503Y-116138078D01*
X101298298Y-115846732D01*
X101282359Y-115779468D01*
X101123922Y-115460576D01*
X100834784Y-115219827D01*
X100401981Y-115047389D01*
X100274001Y-115014775D01*
X99601523Y-114795117D01*
X99000139Y-114457015D01*
X98428295Y-113976571D01*
X98372566Y-113921218D01*
X97921010Y-113375978D01*
X97555329Y-112751624D01*
X97295073Y-112092040D01*
X97159794Y-111441108D01*
X97144900Y-111165632D01*
X97126503Y-110994586D01*
X97036470Y-110926854D01*
X96863933Y-110915800D01*
X96301055Y-110834985D01*
X95757334Y-110606911D01*
X95265201Y-110253130D01*
X94857088Y-109795192D01*
X94647960Y-109443200D01*
X94414571Y-108821809D01*
X94262137Y-108105796D01*
X94191281Y-107339384D01*
X94202624Y-106566792D01*
X94296790Y-105832242D01*
X94474400Y-105179954D01*
X94519520Y-105073099D01*
X99937616Y-105073099D01*
X100008740Y-105191492D01*
X100015406Y-105195756D01*
X100117167Y-105219988D01*
X100363193Y-105263304D01*
X100729951Y-105322023D01*
X101193910Y-105392468D01*
X101731536Y-105470959D01*
X102195572Y-105536613D01*
X102826567Y-105626170D01*
X103450137Y-105717396D01*
X104031198Y-105804957D01*
X104534668Y-105883517D01*
X104925463Y-105947741D01*
X105084673Y-105975949D01*
X105870113Y-106121710D01*
X105999525Y-106566873D01*
X106079624Y-106902945D01*
X106134206Y-107244037D01*
X106145418Y-107376417D01*
X106161900Y-107740800D01*
X100701582Y-109095466D01*
X100701241Y-109373290D01*
X100741345Y-109603303D01*
X100832611Y-109701656D01*
X100949092Y-109696587D01*
X101205322Y-109655181D01*
X101576831Y-109582403D01*
X102039149Y-109483217D01*
X102567805Y-109362590D01*
X102936632Y-109274741D01*
X103542333Y-109128874D01*
X104140652Y-108986164D01*
X104696248Y-108854938D01*
X105173778Y-108743524D01*
X105537899Y-108660249D01*
X105654330Y-108634395D01*
X106399720Y-108471506D01*
X106945763Y-108995153D01*
X107214606Y-109261015D01*
X107453197Y-109511240D01*
X107621247Y-109703115D01*
X107654378Y-109746380D01*
X107816950Y-109973961D01*
X106989425Y-110558211D01*
X106613083Y-110817004D01*
X106143069Y-111129853D01*
X105630615Y-111463200D01*
X105126955Y-111783490D01*
X104952929Y-111892068D01*
X104450449Y-112211190D01*
X104083588Y-112464622D01*
X103838335Y-112665950D01*
X103700681Y-112828759D01*
X103656615Y-112966636D01*
X103692127Y-113093168D01*
X103700212Y-113106852D01*
X103801753Y-113120433D01*
X104021424Y-113064309D01*
X104329221Y-112950814D01*
X104695143Y-112792282D01*
X105089186Y-112601046D01*
X105481347Y-112389439D01*
X105569233Y-112338533D01*
X105864341Y-112150430D01*
X106243429Y-111887606D01*
X106660011Y-111583292D01*
X107067608Y-111270718D01*
X107111921Y-111235652D01*
X108061942Y-110481114D01*
X108696247Y-110694155D01*
X109427971Y-110911585D01*
X110073218Y-111032165D01*
X110683904Y-111056622D01*
X111311946Y-110985682D01*
X112009259Y-110820070D01*
X112265702Y-110744064D01*
X112692824Y-110618596D01*
X112985079Y-110560927D01*
X113168007Y-110584599D01*
X113267148Y-110703152D01*
X113308041Y-110930128D01*
X113316224Y-111279070D01*
X113316233Y-111301074D01*
X113316233Y-111919615D01*
X113801147Y-111980201D01*
X114079319Y-111998751D01*
X114482304Y-112005070D01*
X114966130Y-112000541D01*
X115486825Y-111986546D01*
X116000417Y-111964467D01*
X116462934Y-111935687D01*
X116830405Y-111901589D01*
X116980964Y-111880219D01*
X117301362Y-111824036D01*
X117245741Y-111332411D01*
X117223683Y-111023956D01*
X117226248Y-110754768D01*
X117242256Y-110633057D01*
X117294393Y-110425328D01*
X118078146Y-110687465D01*
X118470989Y-110811141D01*
X118797609Y-110889337D01*
X119123948Y-110932265D01*
X119515949Y-110950134D01*
X119793233Y-110953018D01*
X120454839Y-110928368D01*
X121024707Y-110838048D01*
X121563365Y-110665503D01*
X122131342Y-110394181D01*
X122408683Y-110237755D01*
X122690082Y-110078484D01*
X122916961Y-109959608D01*
X123048757Y-109902128D01*
X123061477Y-109899800D01*
X123151824Y-109945237D01*
X123358765Y-110071698D01*
X123659265Y-110264400D01*
X124030292Y-110508563D01*
X124448813Y-110789408D01*
X124466804Y-110801594D01*
X125138012Y-111247194D01*
X125688899Y-111591754D01*
X126130487Y-111841111D01*
X126473796Y-112001104D01*
X126729848Y-112077572D01*
X126883526Y-112081868D01*
X126973189Y-112055710D01*
X126982485Y-112000456D01*
X126897289Y-111889658D01*
X126703477Y-111696869D01*
X126651233Y-111646903D01*
X126403702Y-111425836D01*
X126068171Y-111146409D01*
X125694135Y-110849105D01*
X125423566Y-110642814D01*
X124849782Y-110208328D01*
X124406725Y-109857872D01*
X124083897Y-109582047D01*
X123870799Y-109371451D01*
X123756933Y-109216684D01*
X123730233Y-109126607D01*
X123776022Y-108976547D01*
X123896494Y-108739321D01*
X124066310Y-108464397D01*
X124079394Y-108445013D01*
X124428554Y-107930851D01*
X124905580Y-107974106D01*
X125115211Y-108008378D01*
X125460378Y-108082674D01*
X125913842Y-108190335D01*
X126448368Y-108324704D01*
X127036719Y-108479120D01*
X127606802Y-108634464D01*
X128270601Y-108815099D01*
X128841745Y-108963378D01*
X129305389Y-109075816D01*
X129646690Y-109148932D01*
X129850804Y-109179240D01*
X129903766Y-109173517D01*
X129986761Y-109032511D01*
X130029798Y-108918486D01*
X130039792Y-108863863D01*
X130024963Y-108812962D01*
X129970620Y-108760702D01*
X129862074Y-108702001D01*
X129684633Y-108631777D01*
X129423609Y-108544950D01*
X129064312Y-108436438D01*
X128592050Y-108301158D01*
X127992134Y-108134031D01*
X127249874Y-107929973D01*
X126877037Y-107827901D01*
X126218957Y-107647110D01*
X125706099Y-107501600D01*
X125320359Y-107381944D01*
X125043632Y-107278718D01*
X124857814Y-107182495D01*
X124744803Y-107083849D01*
X124686494Y-106973355D01*
X124664783Y-106841586D01*
X124661566Y-106679117D01*
X124661566Y-106674403D01*
X124655016Y-106422942D01*
X124622693Y-106300765D01*
X124545587Y-106267961D01*
X124471066Y-106274411D01*
X124311255Y-106358050D01*
X124254374Y-106528104D01*
X124190747Y-106737245D01*
X124105378Y-106856659D01*
X124043028Y-106894523D01*
X123954267Y-106913180D01*
X123819385Y-106908940D01*
X123618671Y-106878116D01*
X123332416Y-106817017D01*
X122940909Y-106721955D01*
X122424440Y-106589243D01*
X121803960Y-106425954D01*
X121344966Y-106309004D01*
X120943273Y-106215234D01*
X120627130Y-106150551D01*
X120424786Y-106120860D01*
X120364760Y-106125050D01*
X120349435Y-106193946D01*
X120436778Y-106278852D01*
X120638768Y-106385103D01*
X120967382Y-106518032D01*
X121434596Y-106682971D01*
X122052388Y-106885254D01*
X122121566Y-106907313D01*
X122600044Y-107062316D01*
X123025986Y-107205440D01*
X123371638Y-107326946D01*
X123609244Y-107417095D01*
X123709066Y-107464368D01*
X123796325Y-107613469D01*
X123814833Y-107730000D01*
X123776636Y-107919378D01*
X123678176Y-108184362D01*
X123543495Y-108476300D01*
X123396639Y-108746541D01*
X123261650Y-108946434D01*
X123175162Y-109024333D01*
X123047941Y-108995708D01*
X122788966Y-108863851D01*
X122399938Y-108629757D01*
X121882561Y-108294421D01*
X121584805Y-108094868D01*
X121044369Y-107730812D01*
X120627511Y-107454267D01*
X120318412Y-107256609D01*
X120101252Y-107129210D01*
X119960215Y-107063445D01*
X119879481Y-107050686D01*
X119843231Y-107082309D01*
X119835566Y-107140966D01*
X119904029Y-107316843D01*
X120093710Y-107558033D01*
X120381049Y-107842028D01*
X120742486Y-108146318D01*
X121154460Y-108448394D01*
X121317233Y-108556547D01*
X121732531Y-108825049D01*
X122025479Y-109018038D01*
X122215833Y-109152091D01*
X122323346Y-109243782D01*
X122367773Y-109309687D01*
X122368868Y-109366382D01*
X122349376Y-109422596D01*
X122230355Y-109551893D01*
X121987014Y-109701267D01*
X121659845Y-109851940D01*
X121289343Y-109985132D01*
X120936233Y-110077929D01*
X120418262Y-110136999D01*
X119825021Y-110128435D01*
X119230825Y-110057930D01*
X118709984Y-109931176D01*
X118624522Y-109900852D01*
X118157235Y-109684108D01*
X117646786Y-109382525D01*
X117149875Y-109034530D01*
X116723198Y-108678547D01*
X116525680Y-108478443D01*
X116132614Y-107998447D01*
X115830466Y-107549098D01*
X115626924Y-107147802D01*
X115529675Y-106811967D01*
X115546406Y-106559001D01*
X115626862Y-106443159D01*
X115770162Y-106372273D01*
X116011035Y-106294458D01*
X116152097Y-106259238D01*
X116596008Y-106120076D01*
X117035331Y-105913971D01*
X117421530Y-105668886D01*
X117706072Y-105412780D01*
X117710568Y-105406900D01*
X120004900Y-105406900D01*
X120038885Y-105453597D01*
X120150893Y-105481652D01*
X120356005Y-105490564D01*
X120669301Y-105479830D01*
X121105859Y-105448947D01*
X121680761Y-105397414D01*
X122379241Y-105327798D01*
X123569371Y-105204573D01*
X124716430Y-105084080D01*
X125808936Y-104967623D01*
X126835407Y-104856503D01*
X127784361Y-104752023D01*
X128644317Y-104655484D01*
X129403792Y-104568190D01*
X130051304Y-104491441D01*
X130575372Y-104426542D01*
X130964513Y-104374793D01*
X131207246Y-104337497D01*
X131291420Y-104317033D01*
X131323383Y-104194714D01*
X131303408Y-104027713D01*
X131266130Y-103913696D01*
X131199528Y-103846908D01*
X131064654Y-103814738D01*
X130822563Y-103804577D01*
X130611818Y-103803800D01*
X130348215Y-103812801D01*
X129949045Y-103838476D01*
X129433178Y-103878829D01*
X128819481Y-103931865D01*
X128126824Y-103995590D01*
X127374075Y-104068009D01*
X126580103Y-104147127D01*
X125763776Y-104230949D01*
X124943963Y-104317480D01*
X124139532Y-104404725D01*
X123369352Y-104490690D01*
X122652291Y-104573380D01*
X122007219Y-104650800D01*
X121453003Y-104720954D01*
X121008512Y-104781849D01*
X120692616Y-104831489D01*
X120524181Y-104867879D01*
X120514672Y-104871302D01*
X120202905Y-105049060D01*
X120032270Y-105268744D01*
X120004900Y-105406900D01*
X117710568Y-105406900D01*
X117772761Y-105325566D01*
X117909326Y-105058976D01*
X118029499Y-104724120D01*
X118073792Y-104550749D01*
X118124376Y-104264720D01*
X118120914Y-104059427D01*
X118053337Y-103852087D01*
X117966635Y-103669713D01*
X117778387Y-103365384D01*
X117540001Y-103155845D01*
X117358855Y-103053219D01*
X116915832Y-102890215D01*
X116480976Y-102868742D01*
X116012032Y-102989190D01*
X115826816Y-103067329D01*
X115350743Y-103285282D01*
X114989655Y-103085264D01*
X114461101Y-102867408D01*
X113961976Y-102816244D01*
X113491095Y-102931920D01*
X113047276Y-103214585D01*
X112904717Y-103346368D01*
X112700697Y-103559027D01*
X112593755Y-103715783D01*
X112558598Y-103877777D01*
X112569934Y-104106151D01*
X112573747Y-104146431D01*
X112695094Y-104627383D01*
X112868087Y-104929934D01*
X113151923Y-105253085D01*
X113539473Y-105594985D01*
X113976016Y-105914610D01*
X114406833Y-106170937D01*
X114690045Y-106295841D01*
X114947026Y-106391163D01*
X115135547Y-106470997D01*
X115197614Y-106505574D01*
X115212631Y-106617853D01*
X115168834Y-106841202D01*
X115078912Y-107133197D01*
X114955551Y-107451410D01*
X114841799Y-107695395D01*
X114564187Y-108104339D01*
X114140941Y-108542159D01*
X113590097Y-108994292D01*
X112929689Y-109446175D01*
X112177750Y-109883245D01*
X112046233Y-109952877D01*
X111829128Y-110060283D01*
X111640717Y-110129748D01*
X111435130Y-110168822D01*
X111166496Y-110185055D01*
X110788945Y-110185996D01*
X110639996Y-110184330D01*
X110071978Y-110162739D01*
X109669326Y-110111949D01*
X109430028Y-110028409D01*
X109352071Y-109908569D01*
X109433444Y-109748879D01*
X109672133Y-109545789D01*
X110066126Y-109295749D01*
X110118917Y-109265194D01*
X110448462Y-109070082D01*
X110732870Y-108891147D01*
X110932436Y-108753897D01*
X110994368Y-108702740D01*
X111077012Y-108538780D01*
X111068639Y-108358581D01*
X110981915Y-108230271D01*
X110902102Y-108206466D01*
X110789050Y-108253113D01*
X110572444Y-108379514D01*
X110285333Y-108565360D01*
X110016494Y-108750680D01*
X109440839Y-109131949D01*
X108960817Y-109387997D01*
X108561347Y-109521731D01*
X108227348Y-109536055D01*
X107943739Y-109433875D01*
X107695440Y-109218096D01*
X107680589Y-109200715D01*
X107444228Y-108883133D01*
X107332144Y-108643564D01*
X107348840Y-108492885D01*
X107377226Y-108468093D01*
X107490785Y-108426647D01*
X107739479Y-108352564D01*
X108094101Y-108254009D01*
X108525440Y-108139146D01*
X108896412Y-108043468D01*
X109367581Y-107920221D01*
X109784832Y-107804672D01*
X110118897Y-107705436D01*
X110340511Y-107631127D01*
X110416400Y-107596078D01*
X110506158Y-107442963D01*
X110522233Y-107341488D01*
X110506581Y-107246485D01*
X110432227Y-107206479D01*
X110258080Y-107211470D01*
X110077733Y-107233335D01*
X109807946Y-107275988D01*
X109429296Y-107344921D01*
X108998191Y-107429548D01*
X108682171Y-107495280D01*
X108072177Y-107614729D01*
X107601872Y-107679906D01*
X107250674Y-107691181D01*
X106997995Y-107648924D01*
X106823251Y-107553504D01*
X106796900Y-107529133D01*
X106671934Y-107385061D01*
X106623879Y-107296300D01*
X106606773Y-107180801D01*
X106567969Y-106963987D01*
X106547769Y-106857591D01*
X106512501Y-106604890D01*
X106509483Y-106413281D01*
X106518182Y-106370758D01*
X106586268Y-106307932D01*
X106741442Y-106273311D01*
X106998391Y-106267539D01*
X107371803Y-106291258D01*
X107876365Y-106345113D01*
X108526764Y-106429747D01*
X108828049Y-106471936D01*
X109334063Y-106541335D01*
X109803944Y-106601099D01*
X110202834Y-106647147D01*
X110495874Y-106675402D01*
X110627216Y-106682466D01*
X110835790Y-106670770D01*
X110925226Y-106608861D01*
X110945423Y-106456509D01*
X110945566Y-106425809D01*
X110914335Y-106233389D01*
X110839733Y-106132518D01*
X110738018Y-106112912D01*
X110484801Y-106070093D01*
X110095946Y-106006587D01*
X109587318Y-105924921D01*
X108974781Y-105827622D01*
X108274197Y-105717215D01*
X107501432Y-105596228D01*
X106672349Y-105467187D01*
X106288900Y-105407749D01*
X105155310Y-105233788D01*
X104176074Y-105087256D01*
X103338655Y-104966917D01*
X102630516Y-104871539D01*
X102039123Y-104799886D01*
X101551937Y-104750724D01*
X101156423Y-104722818D01*
X100840044Y-104714935D01*
X100590265Y-104725840D01*
X100394548Y-104754299D01*
X100240358Y-104799076D01*
X100214066Y-104809601D01*
X100011338Y-104935540D01*
X99937616Y-105073099D01*
X94519520Y-105073099D01*
X94584310Y-104919666D01*
X94908173Y-104408279D01*
X95389228Y-103880056D01*
X96017425Y-103344683D01*
X96748312Y-102833814D01*
X97130900Y-102584265D01*
X97388414Y-102402861D01*
X97541481Y-102271458D01*
X97610727Y-102171914D01*
X97616779Y-102086085D01*
X97613396Y-102072874D01*
X97278127Y-100828539D01*
X97035387Y-99700396D01*
X96885142Y-98662840D01*
X96827358Y-97690267D01*
X96862004Y-96757070D01*
X96989045Y-95837647D01*
X97208450Y-94906391D01*
X97520185Y-93937698D01*
X97602626Y-93713087D01*
X97695827Y-93443645D01*
X98160900Y-93443645D01*
X98168413Y-93686168D01*
X98210955Y-93853040D01*
X98318525Y-94000153D01*
X98521127Y-94183404D01*
X98588250Y-94239830D01*
X98813925Y-94439927D01*
X98992386Y-94634744D01*
X99132753Y-94849840D01*
X99244148Y-95110772D01*
X99335691Y-95443098D01*
X99416502Y-95872377D01*
X99495703Y-96424166D01*
X99564616Y-96975813D01*
X99722769Y-98129264D01*
X99901448Y-99125974D01*
X100104541Y-99977719D01*
X100335933Y-100696271D01*
X100599513Y-101293404D01*
X100899167Y-101780893D01*
X101238782Y-102170511D01*
X101297555Y-102224974D01*
X101847128Y-102632209D01*
X102499704Y-102974631D01*
X103192105Y-103219938D01*
X103294956Y-103246230D01*
X103762843Y-103323851D01*
X104341674Y-103366225D01*
X104976887Y-103373903D01*
X105613921Y-103347433D01*
X106198212Y-103287364D01*
X106601612Y-103212964D01*
X107710219Y-102872691D01*
X108738301Y-102407136D01*
X109670156Y-101826647D01*
X110490083Y-101141571D01*
X111182380Y-100362256D01*
X111406863Y-100046354D01*
X111797662Y-99394858D01*
X112168821Y-98655570D01*
X112508192Y-97863261D01*
X112803624Y-97052705D01*
X113042969Y-96258677D01*
X113214078Y-95515949D01*
X113304803Y-94859296D01*
X113314743Y-94617466D01*
X117086518Y-94617466D01*
X117096763Y-95057638D01*
X117132019Y-95422975D01*
X117203717Y-95784311D01*
X117323290Y-96212478D01*
X117366640Y-96353133D01*
X117706358Y-97388384D01*
X118037461Y-98276909D01*
X118372683Y-99039967D01*
X118724757Y-99698813D01*
X119106416Y-100274706D01*
X119530392Y-100788902D01*
X120009419Y-101262659D01*
X120556229Y-101717233D01*
X120599766Y-101750715D01*
X121378309Y-102300449D01*
X122122727Y-102720638D01*
X122872249Y-103024550D01*
X123666103Y-103225455D01*
X124543519Y-103336620D01*
X125388856Y-103370508D01*
X125966243Y-103364748D01*
X126433069Y-103331208D01*
X126846615Y-103264516D01*
X127066437Y-103213212D01*
X127884875Y-102934904D01*
X128588152Y-102551071D01*
X129165728Y-102068906D01*
X129607062Y-101495601D01*
X129622797Y-101469059D01*
X129875177Y-100960722D01*
X130124299Y-100314113D01*
X130362144Y-99560226D01*
X130580691Y-98730056D01*
X130771919Y-97854596D01*
X130927808Y-96964842D01*
X131040338Y-96091787D01*
X131056207Y-95929800D01*
X131127798Y-95410443D01*
X131247175Y-95010517D01*
X131436583Y-94682053D01*
X131718267Y-94377087D01*
X131817146Y-94288992D01*
X132081206Y-94042906D01*
X132227265Y-93854121D01*
X132280026Y-93688782D01*
X132281566Y-93652581D01*
X132243999Y-93464868D01*
X132143745Y-93184873D01*
X131999474Y-92850115D01*
X131829858Y-92498113D01*
X131653567Y-92166386D01*
X131489273Y-91892453D01*
X131355646Y-91713833D01*
X131293129Y-91666323D01*
X131157658Y-91642943D01*
X130879134Y-91607234D01*
X130483177Y-91561789D01*
X129995408Y-91509200D01*
X129441448Y-91452060D01*
X128846919Y-91392964D01*
X128237441Y-91334503D01*
X127638635Y-91279271D01*
X127076123Y-91229860D01*
X126575524Y-91188865D01*
X126575438Y-91188858D01*
X125898739Y-91147646D01*
X125139536Y-91120787D01*
X124339942Y-91108207D01*
X123542075Y-91109832D01*
X122788049Y-91125590D01*
X122119978Y-91155409D01*
X121595720Y-91197502D01*
X120754982Y-91317396D01*
X119962088Y-91487318D01*
X119240265Y-91699136D01*
X118612738Y-91944720D01*
X118102735Y-92215941D01*
X117733483Y-92504669D01*
X117672591Y-92570725D01*
X117404296Y-92952297D01*
X117223974Y-93383081D01*
X117121472Y-93898526D01*
X117086641Y-94534084D01*
X117086518Y-94617466D01*
X113314743Y-94617466D01*
X113316233Y-94581231D01*
X113270765Y-93896108D01*
X113126699Y-93316598D01*
X112872543Y-92829991D01*
X112496804Y-92423577D01*
X112239230Y-92252002D01*
X113326936Y-92252002D01*
X113340043Y-92339230D01*
X113404654Y-92539667D01*
X113506877Y-92810326D01*
X113509354Y-92816522D01*
X113633421Y-93171068D01*
X113734022Y-93537907D01*
X113779265Y-93772670D01*
X113833636Y-94168247D01*
X113877382Y-94421865D01*
X113920430Y-94559645D01*
X113972710Y-94607711D01*
X114044148Y-94592183D01*
X114083233Y-94572457D01*
X114247235Y-94518237D01*
X114519566Y-94460268D01*
X114827471Y-94413008D01*
X115315725Y-94378341D01*
X115769881Y-94413467D01*
X116279855Y-94525445D01*
X116288045Y-94527653D01*
X116410948Y-94552094D01*
X116482172Y-94517880D01*
X116523212Y-94390045D01*
X116555563Y-94133626D01*
X116560774Y-94084028D01*
X116615196Y-93742769D01*
X116707375Y-93331261D01*
X116817382Y-92938460D01*
X116817647Y-92937624D01*
X116909970Y-92651696D01*
X116958229Y-92455164D01*
X116940804Y-92327659D01*
X116836078Y-92248810D01*
X116622434Y-92198249D01*
X116278253Y-92155604D01*
X115949648Y-92119730D01*
X115302080Y-92074816D01*
X114646442Y-92091661D01*
X114256315Y-92126416D01*
X113886143Y-92168228D01*
X113583919Y-92206768D01*
X113385836Y-92237146D01*
X113326936Y-92252002D01*
X112239230Y-92252002D01*
X111987990Y-92084647D01*
X111334608Y-91800491D01*
X110600312Y-91577654D01*
X110065498Y-91444397D01*
X109589728Y-91341491D01*
X109137132Y-91265146D01*
X108671839Y-91211568D01*
X108157982Y-91176965D01*
X107559691Y-91157544D01*
X106841095Y-91149514D01*
X106542900Y-91148677D01*
X105781478Y-91152348D01*
X105067883Y-91166810D01*
X104368933Y-91194182D01*
X103651443Y-91236580D01*
X102882233Y-91296122D01*
X102028117Y-91374927D01*
X101055914Y-91475112D01*
X100525830Y-91532710D01*
X100041689Y-91585680D01*
X99617057Y-91631511D01*
X99280086Y-91667216D01*
X99058927Y-91689805D01*
X98982732Y-91696466D01*
X98918162Y-91764619D01*
X98792319Y-91947017D01*
X98627391Y-92210568D01*
X98543968Y-92350863D01*
X98348773Y-92701203D01*
X98232125Y-92965172D01*
X98175631Y-93195237D01*
X98160900Y-93443645D01*
X97695827Y-93443645D01*
X97732631Y-93337247D01*
X97833994Y-92989351D01*
X97893113Y-92719128D01*
X97902667Y-92616084D01*
X97895156Y-92489561D01*
X97867789Y-92456350D01*
X97805819Y-92532160D01*
X97694501Y-92732705D01*
X97573824Y-92966466D01*
X97205115Y-93793907D01*
X96889011Y-94712605D01*
X96650304Y-95646786D01*
X96585499Y-95987411D01*
X96489947Y-96832451D01*
X96466120Y-97776575D01*
X96509777Y-98771063D01*
X96616677Y-99767192D01*
X96782576Y-100716243D01*
X97003234Y-101569493D01*
X97095434Y-101844315D01*
X97167356Y-102075798D01*
X97196513Y-102237649D01*
X97191631Y-102272683D01*
X97107948Y-102339091D01*
X96911303Y-102471076D01*
X96634104Y-102647378D01*
X96409039Y-102786048D01*
X95853303Y-103164552D01*
X95326797Y-103598070D01*
X94861197Y-104055564D01*
X94488174Y-104505996D01*
X94244699Y-104906933D01*
X93997227Y-105583739D01*
X93837389Y-106344876D01*
X93776829Y-107123348D01*
X93789426Y-107526277D01*
X93866236Y-108232632D01*
X93983228Y-108881231D01*
X94131986Y-109432511D01*
X94268154Y-109776769D01*
X94604803Y-110312217D01*
X95044116Y-110768598D01*
X95552815Y-111120380D01*
X96097624Y-111342034D01*
X96379858Y-111396888D01*
X96631312Y-111433129D01*
X96757389Y-111485614D01*
X96801275Y-111586724D01*
X96806233Y-111716559D01*
X96851020Y-112083369D01*
X96974158Y-112537003D01*
X97158811Y-113024235D01*
X97339442Y-113402314D01*
X97743102Y-114007024D01*
X98267848Y-114552488D01*
X98876157Y-115009004D01*
X99530503Y-115346871D01*
X99981233Y-115493358D01*
X100458821Y-115646974D01*
X100773883Y-115835142D01*
X100924614Y-116056766D01*
X100927639Y-116068043D01*
X100933099Y-116186121D01*
X100872519Y-116313108D01*
X100723655Y-116479445D01*
X100464262Y-116715576D01*
X100437320Y-116739044D01*
X99573947Y-117547171D01*
X98740972Y-118437661D01*
X97956711Y-119384863D01*
X97239481Y-120363125D01*
X96607598Y-121346794D01*
X96079378Y-122310221D01*
X95673136Y-123227751D01*
X95543396Y-123592948D01*
X95344005Y-124248284D01*
X95196750Y-124850238D01*
X95094753Y-125446065D01*
X95031135Y-126083020D01*
X94999016Y-126808361D01*
X94991631Y-127383466D01*
X94992132Y-127916273D01*
X94997140Y-128428656D01*
X95005936Y-128880873D01*
X95017802Y-129233181D01*
X95028233Y-129407346D01*
X95070566Y-129907225D01*
X94531312Y-130017919D01*
X93884409Y-130207519D01*
X93213071Y-130503472D01*
X92588899Y-130872668D01*
X92418501Y-130995056D01*
X91965318Y-131337213D01*
X91316609Y-131041606D01*
X90623164Y-130747946D01*
X90009986Y-130542560D01*
X89422591Y-130411174D01*
X88806493Y-130339515D01*
X88587065Y-130326516D01*
X87735878Y-130345048D01*
X86990967Y-130491601D01*
X86340663Y-130773018D01*
X85773298Y-131196142D01*
X85277202Y-131767816D01*
X84840707Y-132494883D01*
X84820170Y-132535573D01*
X84660084Y-132865351D01*
X84534023Y-133144213D01*
X84458736Y-133334032D01*
X84444900Y-133389816D01*
X84380757Y-133500773D01*
X84181199Y-133605154D01*
X83835527Y-133706826D01*
X83333043Y-133809656D01*
X83236302Y-133826660D01*
X82399083Y-134043237D01*
X81663997Y-134381854D01*
X81040509Y-134834082D01*
X80538088Y-135391492D01*
X80166200Y-136045658D01*
X79939831Y-136761380D01*
X79892200Y-137060898D01*
X79882776Y-137365277D01*
X79912079Y-137735284D01*
X79950622Y-138029202D01*
X80028648Y-138570362D01*
X80082205Y-138973368D01*
X80106756Y-139268223D01*
X80097763Y-139484930D01*
X80050690Y-139653492D01*
X79961000Y-139803911D01*
X79824156Y-139966189D01*
X79635620Y-140170329D01*
X79625103Y-140181794D01*
X79202250Y-140714679D01*
X78828347Y-141321732D01*
X78533447Y-141947286D01*
X78347603Y-142535677D01*
X78343165Y-142556226D01*
X78293901Y-142999926D01*
X78063864Y-142999926D01*
X78064496Y-142894692D01*
X78081650Y-142564547D01*
X78120612Y-142301811D01*
X78188729Y-142055595D01*
X78285243Y-141795420D01*
X78704377Y-140952558D01*
X79279927Y-140137763D01*
X79511156Y-139868266D01*
X79670203Y-139691501D01*
X79777087Y-139552630D01*
X79836231Y-139416143D01*
X79852056Y-139246532D01*
X79828984Y-139008289D01*
X79771438Y-138665903D01*
X79705784Y-138305466D01*
X79626620Y-137452138D01*
X79704766Y-136648723D01*
X79937355Y-135904190D01*
X80321523Y-135227506D01*
X80854403Y-134627639D01*
X80892019Y-134593407D01*
X81502484Y-134152474D01*
X82232438Y-133812982D01*
X83058497Y-133585482D01*
X83172056Y-133564626D01*
X83523795Y-133501006D01*
X83818808Y-133442885D01*
X84012141Y-133399324D01*
X84054225Y-133386796D01*
X84150360Y-133286066D01*
X84263194Y-133080253D01*
X84319304Y-132944858D01*
X84695722Y-132147099D01*
X85197540Y-131416493D01*
X85374844Y-131211105D01*
X85940939Y-130713630D01*
X86600727Y-130349057D01*
X87341793Y-130118321D01*
X88151723Y-130022357D01*
X89018102Y-130062101D01*
X89928516Y-130238488D01*
X90870551Y-130552452D01*
X91349009Y-130761065D01*
X91945451Y-131041602D01*
X92238009Y-130791220D01*
X92535692Y-130579403D01*
X92940603Y-130347951D01*
X93397160Y-130123779D01*
X93849781Y-129933803D01*
X94242884Y-129804937D01*
X94306656Y-129789493D01*
X94755030Y-129689151D01*
X94711463Y-128112975D01*
X94718087Y-126774804D01*
X94821186Y-125551462D01*
X95029059Y-124413216D01*
X95350005Y-123330330D01*
X95792323Y-122273072D01*
X96364311Y-121211706D01*
X96852711Y-120440800D01*
X97354055Y-119731801D01*
X97914443Y-119008330D01*
X98507953Y-118299605D01*
X99108665Y-117634845D01*
X99690659Y-117043268D01*
X100228014Y-116554093D01*
X100483248Y-116348323D01*
X100639204Y-116215363D01*
X100671693Y-116124891D01*
X100602758Y-116030706D01*
X100453889Y-115940655D01*
X100201341Y-115840311D01*
X99973743Y-115771690D01*
X99297578Y-115547030D01*
X98713180Y-115237640D01*
X98163675Y-114810742D01*
X97941818Y-114600645D01*
X97388113Y-113951670D01*
X96961200Y-113237117D01*
X96678905Y-112489082D01*
X96614905Y-112211448D01*
X96556622Y-111927853D01*
X96497332Y-111768266D01*
X96405260Y-111690179D01*
X96248630Y-111651086D01*
X96188711Y-111641312D01*
X95707454Y-111497558D01*
X95211811Y-111233122D01*
X94760261Y-110880177D01*
X94701389Y-110823034D01*
X94314529Y-110374182D01*
X94016377Y-109879043D01*
X93799355Y-109313524D01*
X93655887Y-108653530D01*
X93578394Y-107874967D01*
X93558969Y-107190466D01*
X93558996Y-106691806D01*
X93568172Y-106321279D01*
X93591307Y-106037741D01*
X93633211Y-105800049D01*
X93698694Y-105567058D01*
X93774386Y-105347803D01*
X94005519Y-104794038D01*
X94286072Y-104300979D01*
X94635896Y-103847958D01*
X95074842Y-103414308D01*
X95622761Y-102979361D01*
X96299504Y-102522449D01*
X96761802Y-102237466D01*
X96825666Y-102183864D01*
X96850070Y-102098877D01*
X96832076Y-101947401D01*
X96768745Y-101694334D01*
X96694473Y-101433133D01*
X96464942Y-100474577D01*
X96303004Y-99443041D01*
X96211751Y-98386285D01*
X96194277Y-97352068D01*
X96253673Y-96388148D01*
X96332131Y-95837494D01*
X96651704Y-94537303D01*
X97133029Y-93256837D01*
X97768646Y-92009440D01*
X98551095Y-90808458D01*
X99472914Y-89667234D01*
X100213263Y-88895364D01*
X100873812Y-88253261D01*
X100527116Y-87752364D01*
X99606143Y-86405521D01*
X98780279Y-85161486D01*
X98034101Y-83994786D01*
X97352182Y-82879950D01*
X96719096Y-81791506D01*
X96119419Y-80703981D01*
X95537725Y-79591903D01*
X95298933Y-79119116D01*
X94319764Y-77047784D01*
X93484527Y-75032608D01*
X92786011Y-73053395D01*
X92217006Y-71089952D01*
X91823329Y-69386800D01*
X91588150Y-67967590D01*
X91499598Y-66832186D01*
X91745266Y-66832186D01*
X91800117Y-67549146D01*
X91972228Y-68738554D01*
X92236733Y-70037640D01*
X92586080Y-71419392D01*
X93012718Y-72856795D01*
X93509096Y-74322838D01*
X94067663Y-75790505D01*
X94183547Y-76075466D01*
X94656149Y-77159882D01*
X95220805Y-78345136D01*
X95860960Y-79602153D01*
X96560061Y-80901856D01*
X97301552Y-82215169D01*
X98068880Y-83513015D01*
X98845489Y-84766318D01*
X99614825Y-85946002D01*
X100360334Y-87022989D01*
X100619721Y-87379999D01*
X100881687Y-87746300D01*
X101037308Y-88018162D01*
X101084369Y-88234677D01*
X101020654Y-88434939D01*
X100843947Y-88658041D01*
X100552031Y-88943078D01*
X100529936Y-88963817D01*
X100038821Y-89456782D01*
X99509794Y-90043552D01*
X98989237Y-90671066D01*
X98640804Y-91124966D01*
X98406282Y-91442466D01*
X98604003Y-91442466D01*
X98811356Y-91360055D01*
X98960523Y-91173639D01*
X99176068Y-90857727D01*
X99491921Y-90460370D01*
X99881478Y-90012226D01*
X100318136Y-89543952D01*
X100754769Y-89106033D01*
X101057381Y-88809201D01*
X101277660Y-88565926D01*
X101413927Y-88350377D01*
X101464504Y-88136724D01*
X101427714Y-87899136D01*
X101301879Y-87611784D01*
X101085320Y-87248838D01*
X100776361Y-86784467D01*
X100585805Y-86504853D01*
X99093951Y-84244975D01*
X99045004Y-84165156D01*
X123391566Y-84165156D01*
X123454571Y-84298034D01*
X123651977Y-84413380D01*
X123996375Y-84516675D01*
X124371550Y-84591779D01*
X124831159Y-84714536D01*
X125187829Y-84920052D01*
X125478294Y-85237595D01*
X125727609Y-85672230D01*
X125933339Y-86043243D01*
X126132311Y-86259958D01*
X126353902Y-86329793D01*
X126627488Y-86260169D01*
X126982448Y-86058502D01*
X127058045Y-86008215D01*
X127430568Y-85750906D01*
X127901291Y-85417158D01*
X128433942Y-85033442D01*
X128992245Y-84626227D01*
X129539927Y-84221982D01*
X130040712Y-83847178D01*
X130458328Y-83528284D01*
X130486016Y-83506790D01*
X131188133Y-82960960D01*
X131011680Y-82693213D01*
X130447685Y-81699925D01*
X130007113Y-80615699D01*
X129687922Y-79432581D01*
X129488073Y-78142616D01*
X129405524Y-76737850D01*
X129402900Y-76422070D01*
X129402900Y-75324285D01*
X129036662Y-75869209D01*
X128865322Y-76112136D01*
X128612640Y-76454739D01*
X128303136Y-76864530D01*
X127961331Y-77309023D01*
X127634852Y-77726466D01*
X127226454Y-78256090D01*
X126791441Y-78841758D01*
X126340844Y-79466735D01*
X125885692Y-80114285D01*
X125437013Y-80767673D01*
X125005839Y-81410162D01*
X124603197Y-82025016D01*
X124240117Y-82595501D01*
X123927629Y-83104880D01*
X123676762Y-83536417D01*
X123498546Y-83873377D01*
X123404009Y-84099024D01*
X123391566Y-84165156D01*
X99045004Y-84165156D01*
X97751225Y-82055375D01*
X96555207Y-79930786D01*
X95503478Y-77865938D01*
X94593620Y-75855562D01*
X93823211Y-73894390D01*
X93189835Y-71977153D01*
X92691071Y-70098581D01*
X92395794Y-68667133D01*
X92301632Y-68038708D01*
X92231059Y-67351901D01*
X92222230Y-67215500D01*
X97167179Y-67215500D01*
X97169539Y-67270133D01*
X97269707Y-68365014D01*
X97476119Y-69538806D01*
X97790861Y-70797877D01*
X98216017Y-72148595D01*
X98753674Y-73597330D01*
X99405915Y-75150450D01*
X100174827Y-76814323D01*
X100537736Y-77557133D01*
X100854118Y-78185463D01*
X101197319Y-78850116D01*
X101556379Y-79531308D01*
X101920337Y-80209253D01*
X102278234Y-80864165D01*
X102619109Y-81476261D01*
X102932002Y-82025753D01*
X103205954Y-82492859D01*
X103430004Y-82857791D01*
X103593192Y-83100766D01*
X103644950Y-83166300D01*
X103798070Y-83284904D01*
X103975538Y-83292613D01*
X104207928Y-83183267D01*
X104460839Y-83002001D01*
X104702807Y-82790089D01*
X104900626Y-82575734D01*
X104982645Y-82456045D01*
X105212391Y-82159715D01*
X105541991Y-81909610D01*
X105902461Y-81754267D01*
X106010563Y-81732824D01*
X106239313Y-81723414D01*
X106577154Y-81734402D01*
X106965399Y-81763302D01*
X107129953Y-81780248D01*
X107567075Y-81823983D01*
X107861758Y-81826187D01*
X108039412Y-81767682D01*
X108125450Y-81629287D01*
X108145283Y-81391823D01*
X108124323Y-81036111D01*
X108123854Y-81030101D01*
X108082593Y-80610501D01*
X108014058Y-80045710D01*
X107921359Y-79357119D01*
X107807610Y-78566122D01*
X107675922Y-77694110D01*
X107529408Y-76762477D01*
X107371180Y-75792615D01*
X107300033Y-75367467D01*
X106974870Y-73602296D01*
X106611197Y-71928013D01*
X106212391Y-70354669D01*
X105781828Y-68892315D01*
X105322887Y-67551005D01*
X104838944Y-66340789D01*
X104333376Y-65271720D01*
X103809561Y-64353851D01*
X103401603Y-63763929D01*
X103059828Y-63343950D01*
X102743361Y-63035095D01*
X102401180Y-62797334D01*
X101982259Y-62590638D01*
X101819711Y-62522921D01*
X101100479Y-62316169D01*
X100390811Y-62276060D01*
X99701644Y-62399909D01*
X99043919Y-62685032D01*
X98428574Y-63128745D01*
X98120107Y-63430812D01*
X97736024Y-63951856D01*
X97450732Y-64582598D01*
X97262188Y-65331287D01*
X97168352Y-66206171D01*
X97167179Y-67215500D01*
X92222230Y-67215500D01*
X92185340Y-66645589D01*
X92165741Y-65958649D01*
X92173525Y-65329957D01*
X92209958Y-64798392D01*
X92259391Y-64474734D01*
X92561519Y-63439192D01*
X93008230Y-62448431D01*
X93583565Y-61521163D01*
X94271566Y-60676101D01*
X95056274Y-59931958D01*
X95921729Y-59307446D01*
X96851975Y-58821280D01*
X97197370Y-58684558D01*
X97931655Y-58456485D01*
X98643137Y-58322062D01*
X99373397Y-58279044D01*
X100164018Y-58325183D01*
X101056582Y-58458236D01*
X101131198Y-58472108D01*
X102193763Y-58727197D01*
X103152604Y-59078430D01*
X104020685Y-59536450D01*
X104810970Y-60111901D01*
X105536422Y-60815427D01*
X106210005Y-61657673D01*
X106844683Y-62649281D01*
X107339102Y-63569179D01*
X107964484Y-64912103D01*
X108537689Y-66343956D01*
X109060893Y-67873917D01*
X109536270Y-69511164D01*
X109965995Y-71264876D01*
X110352244Y-73144230D01*
X110697191Y-75158405D01*
X111003012Y-77316579D01*
X111271881Y-79627931D01*
X111366220Y-80562800D01*
X111439301Y-81315565D01*
X111498288Y-81916801D01*
X111545335Y-82383532D01*
X111582599Y-82732779D01*
X111612234Y-82981567D01*
X111636395Y-83146918D01*
X111657237Y-83245856D01*
X111676915Y-83295403D01*
X111697584Y-83312582D01*
X111714572Y-83314466D01*
X111819542Y-83298064D01*
X112059931Y-83252815D01*
X112405433Y-83184651D01*
X112825745Y-83099507D01*
X113082092Y-83046706D01*
X114250268Y-82851035D01*
X115361262Y-82766801D01*
X116457571Y-82795566D01*
X117581694Y-82938892D01*
X118776130Y-83198340D01*
X119031233Y-83265391D01*
X119380508Y-83361212D01*
X119676008Y-83445192D01*
X119873402Y-83504602D01*
X119920233Y-83520633D01*
X119988204Y-83502990D01*
X120078951Y-83392080D01*
X120202010Y-83171043D01*
X120366921Y-82823019D01*
X120551258Y-82405214D01*
X120837355Y-81764832D01*
X121183442Y-81024014D01*
X121572507Y-80216602D01*
X121987536Y-79376439D01*
X122411516Y-78537367D01*
X122827433Y-77733230D01*
X123218274Y-76997868D01*
X123567025Y-76365126D01*
X123733360Y-76075466D01*
X124272950Y-75186466D01*
X129402900Y-75186466D01*
X129433878Y-75256156D01*
X129459344Y-75242911D01*
X129469477Y-75142431D01*
X129459344Y-75130022D01*
X129409010Y-75141644D01*
X129402900Y-75186466D01*
X124272950Y-75186466D01*
X124699647Y-74483464D01*
X125644123Y-73049273D01*
X126574986Y-71764055D01*
X127500435Y-70618968D01*
X128428670Y-69605172D01*
X129367891Y-68713826D01*
X130326296Y-67936091D01*
X131312084Y-67263126D01*
X132333455Y-66686090D01*
X132535566Y-66584924D01*
X133132256Y-66308932D01*
X133638873Y-66118116D01*
X134103726Y-66000059D01*
X134575125Y-65942348D01*
X135075566Y-65932145D01*
X135971931Y-66023437D01*
X136810403Y-66271160D01*
X137595605Y-66677483D01*
X138332159Y-67244575D01*
X138745507Y-67655155D01*
X139380850Y-68406875D01*
X139967058Y-69238968D01*
X140508821Y-70162729D01*
X141010829Y-71189454D01*
X141477771Y-72330436D01*
X141914337Y-73596972D01*
X142325216Y-75000356D01*
X142715097Y-76551884D01*
X143028255Y-77970505D01*
X143229668Y-78959124D01*
X143390745Y-79808398D01*
X143514885Y-80542569D01*
X143605491Y-81185879D01*
X143665964Y-81762570D01*
X143699703Y-82296885D01*
X143710112Y-82813066D01*
X143710096Y-82830544D01*
X143674219Y-83682761D01*
X143563804Y-84422135D01*
X143370387Y-85091733D01*
X143174558Y-85555704D01*
X142730841Y-86316280D01*
X142187978Y-86956192D01*
X141558645Y-87463726D01*
X140855519Y-87827169D01*
X140630053Y-87907000D01*
X140334172Y-87987943D01*
X140044966Y-88031375D01*
X139703691Y-88042473D01*
X139266566Y-88027204D01*
X138628463Y-87970460D01*
X138003765Y-87862933D01*
X137373366Y-87696648D01*
X136718159Y-87463629D01*
X136019036Y-87155900D01*
X135256890Y-86765487D01*
X134412614Y-86284414D01*
X133467101Y-85704706D01*
X133018783Y-85419353D01*
X132625370Y-85168227D01*
X132283126Y-84952825D01*
X132016693Y-84788412D01*
X131850717Y-84690253D01*
X131807637Y-84669133D01*
X131700533Y-84719210D01*
X131477307Y-84861230D01*
X131155267Y-85082880D01*
X130751725Y-85371844D01*
X130283988Y-85715808D01*
X129769366Y-86102457D01*
X129445233Y-86349855D01*
X129046448Y-86655933D01*
X128695849Y-86924869D01*
X128414749Y-87140327D01*
X128224463Y-87285969D01*
X128146306Y-87345458D01*
X128145813Y-87345815D01*
X128192664Y-87408386D01*
X128341459Y-87566017D01*
X128571204Y-87797317D01*
X128860907Y-88080896D01*
X128977805Y-88193554D01*
X129979549Y-89230012D01*
X130820313Y-90263049D01*
X131241619Y-90870966D01*
X131429422Y-91138268D01*
X131597601Y-91338698D01*
X131716249Y-91437638D01*
X131735335Y-91442466D01*
X131845594Y-91416637D01*
X131858233Y-91396309D01*
X131813922Y-91310220D01*
X131695312Y-91118652D01*
X131523885Y-90855764D01*
X131431637Y-90717964D01*
X131026787Y-90154122D01*
X130558435Y-89560607D01*
X130064777Y-88982319D01*
X129584012Y-88464160D01*
X129189517Y-88082379D01*
X128641877Y-87590133D01*
X129833880Y-86658800D01*
X130249922Y-86337144D01*
X130648951Y-86034807D01*
X131000111Y-85774714D01*
X131272545Y-85579796D01*
X131406344Y-85490357D01*
X131786805Y-85253249D01*
X132817352Y-85920831D01*
X133826003Y-86556848D01*
X134731687Y-87088415D01*
X135556433Y-87525321D01*
X136322268Y-87877352D01*
X137051219Y-88154298D01*
X137765314Y-88365945D01*
X138486581Y-88522083D01*
X138781951Y-88571175D01*
X139622645Y-88618431D01*
X140433173Y-88505515D01*
X141197653Y-88240984D01*
X141900207Y-87833395D01*
X142524954Y-87291307D01*
X143056014Y-86623277D01*
X143352020Y-86108466D01*
X143605090Y-85560539D01*
X143786287Y-85056337D01*
X143908567Y-84542150D01*
X143984886Y-83964268D01*
X144026391Y-83312732D01*
X144039312Y-82883034D01*
X144037818Y-82478717D01*
X144018929Y-82072106D01*
X143979667Y-81635523D01*
X143917050Y-81141290D01*
X143828099Y-80561732D01*
X143709833Y-79869170D01*
X143575335Y-79123466D01*
X143181417Y-77168259D01*
X142744894Y-75372599D01*
X142264075Y-73731718D01*
X141737270Y-72240845D01*
X141162786Y-70895213D01*
X140538932Y-69690051D01*
X139864018Y-68620592D01*
X139837273Y-68582466D01*
X139470471Y-68114257D01*
X139025863Y-67628176D01*
X138544671Y-67163826D01*
X138068119Y-66760811D01*
X137637429Y-66458737D01*
X137609249Y-66441916D01*
X136968750Y-66113101D01*
X136337552Y-65898389D01*
X135659967Y-65783364D01*
X134948566Y-65753192D01*
X134485778Y-65761242D01*
X134130575Y-65788452D01*
X133821513Y-65843835D01*
X133497148Y-65936400D01*
X133339900Y-65989108D01*
X132305942Y-66422603D01*
X131252049Y-67013737D01*
X130188104Y-67753462D01*
X129123991Y-68632730D01*
X128069595Y-69642492D01*
X127034799Y-70773701D01*
X126029487Y-72017307D01*
X125063544Y-73364265D01*
X124726436Y-73874133D01*
X123863854Y-75264084D01*
X122992344Y-76776076D01*
X122135545Y-78365976D01*
X121317093Y-79989652D01*
X120560626Y-81602972D01*
X120428643Y-81898397D01*
X120193206Y-82421600D01*
X120011785Y-82803953D01*
X119875337Y-83061759D01*
X119774819Y-83211324D01*
X119701189Y-83268949D01*
X119669261Y-83267515D01*
X119348200Y-83161136D01*
X118905252Y-83041152D01*
X118386239Y-82917360D01*
X117836981Y-82799557D01*
X117303301Y-82697541D01*
X116831019Y-82621109D01*
X116465958Y-82580057D01*
X116448900Y-82578960D01*
X115793423Y-82567640D01*
X115032518Y-82601332D01*
X114222563Y-82675134D01*
X113419941Y-82784147D01*
X112813536Y-82894969D01*
X112393767Y-82974069D01*
X112120848Y-83004623D01*
X111979794Y-82987923D01*
X111957291Y-82968883D01*
X111926107Y-82847634D01*
X111890736Y-82600871D01*
X111856904Y-82272123D01*
X111843081Y-82100553D01*
X111805030Y-81644468D01*
X111749060Y-81055960D01*
X111679117Y-80370520D01*
X111599146Y-79623642D01*
X111513094Y-78850817D01*
X111424909Y-78087537D01*
X111338535Y-77369296D01*
X111257919Y-76731585D01*
X111191986Y-76244800D01*
X110847351Y-74078989D01*
X110444518Y-72020452D01*
X109985935Y-70076903D01*
X109474046Y-68256056D01*
X108911300Y-66565625D01*
X108300143Y-65013324D01*
X107643020Y-63606868D01*
X106942380Y-62353971D01*
X106633912Y-61872694D01*
X105956625Y-60958327D01*
X105241955Y-60197097D01*
X104467422Y-59573467D01*
X103610546Y-59071899D01*
X102648846Y-58676853D01*
X101575510Y-58376365D01*
X100411638Y-58169679D01*
X99328273Y-58104952D01*
X98308696Y-58185507D01*
X97336189Y-58414663D01*
X96394031Y-58795742D01*
X95465503Y-59332066D01*
X94959797Y-59690475D01*
X94080148Y-60455264D01*
X93335223Y-61318683D01*
X92728273Y-62272646D01*
X92262551Y-63309066D01*
X91941308Y-64419853D01*
X91767796Y-65596923D01*
X91745266Y-66832186D01*
X91499598Y-66832186D01*
X91485301Y-66648877D01*
X91516255Y-65423685D01*
X91682484Y-64285038D01*
X91985462Y-63225961D01*
X92426661Y-62239478D01*
X93007555Y-61318613D01*
X93703134Y-60484392D01*
X94295865Y-59893808D01*
X94866812Y-59415049D01*
X95469504Y-59008277D01*
X96157470Y-58633654D01*
X96252977Y-58586689D01*
X97224313Y-58181962D01*
X98178519Y-57929520D01*
X99148254Y-57824860D01*
X100166175Y-57863482D01*
G36*
X100166175Y-57863482D02*
G01*
X100827900Y-57956029D01*
X101624417Y-58112619D01*
X102313320Y-58292141D01*
X102956288Y-58514006D01*
X103615003Y-58797622D01*
X103833566Y-58901856D01*
X104268457Y-59119646D01*
X104600296Y-59307960D01*
X104880462Y-59503548D01*
X105160331Y-59743161D01*
X105491280Y-60063550D01*
X105575176Y-60147650D01*
X106146010Y-60768502D01*
X106671700Y-61443836D01*
X107174442Y-62205891D01*
X107676433Y-63086906D01*
X107917797Y-63550016D01*
X108582272Y-64973495D01*
X109192898Y-66525890D01*
X109750651Y-68211429D01*
X110256506Y-70034341D01*
X110711436Y-71998856D01*
X111116418Y-74109202D01*
X111472424Y-76369610D01*
X111780432Y-78784307D01*
X112041414Y-81357523D01*
X112053574Y-81494133D01*
X112092284Y-81921714D01*
X112126780Y-82283915D01*
X112153989Y-82549857D01*
X112170840Y-82688662D01*
X112173702Y-82701465D01*
X112257744Y-82695785D01*
X112475579Y-82664180D01*
X112794539Y-82611773D01*
X113181952Y-82543689D01*
X113197120Y-82540946D01*
X113667562Y-82464660D01*
X114129017Y-82411159D01*
X114628345Y-82377029D01*
X115212408Y-82358862D01*
X115771566Y-82353528D01*
X116328321Y-82352838D01*
X116755781Y-82357709D01*
X117093981Y-82372605D01*
X117382955Y-82401985D01*
X117662740Y-82450311D01*
X117973368Y-82522043D01*
X118354876Y-82621642D01*
X118480900Y-82655412D01*
X118896327Y-82762215D01*
X119251271Y-82844584D01*
X119514967Y-82896057D01*
X119656648Y-82910170D01*
X119671409Y-82905497D01*
X119720386Y-82811441D01*
X119823155Y-82590831D01*
X119966558Y-82272651D01*
X120137437Y-81885884D01*
X120216044Y-81705800D01*
X120800897Y-80419622D01*
X121452294Y-79091584D01*
X122154886Y-77748106D01*
X122893325Y-76415608D01*
X123652261Y-75120509D01*
X124416345Y-73889230D01*
X125170229Y-72748192D01*
X125898564Y-71723813D01*
X126378313Y-71098674D01*
X127507769Y-69785029D01*
X128684204Y-68620481D01*
X129901947Y-67609802D01*
X131155330Y-66757764D01*
X132239233Y-66164395D01*
X133226392Y-65760790D01*
X134190552Y-65524118D01*
X135129039Y-65454002D01*
X136039176Y-65550064D01*
X136918289Y-65811927D01*
X137763700Y-66239213D01*
X138572735Y-66831544D01*
X138870701Y-67100424D01*
X139528864Y-67785933D01*
X140117105Y-68530955D01*
X140660031Y-69370434D01*
X141182250Y-70339317D01*
X141254127Y-70485262D01*
X141672887Y-71387716D01*
X142053523Y-72304756D01*
X142402440Y-73258023D01*
X142726046Y-74269157D01*
X143030747Y-75359798D01*
X143322950Y-76551585D01*
X143609061Y-77866160D01*
X143895486Y-79325162D01*
X143936833Y-79546800D01*
X144047339Y-80154388D01*
X144128665Y-80643009D01*
X144185355Y-81059636D01*
X144221957Y-81451240D01*
X144243014Y-81864794D01*
X144253074Y-82347273D01*
X144256380Y-82848800D01*
X144256610Y-83427221D01*
X144250904Y-83869244D01*
X144236433Y-84207775D01*
X144210371Y-84475719D01*
X144169891Y-84705982D01*
X144112167Y-84931471D01*
X144063622Y-85092466D01*
X143701243Y-86020754D01*
X143235538Y-86831158D01*
X142675989Y-87516896D01*
X142032078Y-88071186D01*
X141313289Y-88487246D01*
X140529102Y-88758297D01*
X139689000Y-88877554D01*
X138822484Y-88840868D01*
X137875670Y-88662089D01*
X136882626Y-88362693D01*
X135832576Y-87938103D01*
X134714748Y-87383739D01*
X133518366Y-86695024D01*
X132979906Y-86358231D01*
X131773245Y-85586854D01*
X131470163Y-85774169D01*
X131297409Y-85892325D01*
X131024236Y-86092513D01*
X130682389Y-86350902D01*
X130303612Y-86643664D01*
X130123204Y-86785296D01*
X129079325Y-87609110D01*
X129756629Y-88276955D01*
X130817914Y-89432048D01*
X131725631Y-90654417D01*
X132481508Y-91947927D01*
X133087276Y-93316444D01*
X133544663Y-94763831D01*
X133855400Y-96293956D01*
X134014154Y-97792466D01*
X134031132Y-98478865D01*
X134007568Y-99271287D01*
X133947688Y-100112451D01*
X133855721Y-100945072D01*
X133735892Y-101711868D01*
X133717942Y-101806544D01*
X133647642Y-102186098D01*
X133592063Y-102519443D01*
X133558454Y-102761188D01*
X133551822Y-102846636D01*
X133604527Y-102983665D01*
X133771225Y-103176163D01*
X134064318Y-103437304D01*
X134250066Y-103588137D01*
X135037300Y-104289739D01*
X135657152Y-105007401D01*
X136109400Y-105738723D01*
X136393825Y-106481303D01*
X136510204Y-107232743D01*
X136458318Y-107990641D01*
X136237944Y-108752597D01*
X135848861Y-109516210D01*
X135290849Y-110279082D01*
X134905402Y-110704133D01*
X134412430Y-111212133D01*
X134378425Y-112228133D01*
X134335806Y-112888097D01*
X134247417Y-113434750D01*
X134098728Y-113921207D01*
X133875211Y-114400582D01*
X133701377Y-114703213D01*
X133284109Y-115284518D01*
X132763427Y-115813663D01*
X132126705Y-116298852D01*
X131361314Y-116748289D01*
X130454627Y-117170176D01*
X129394015Y-117572717D01*
X129163395Y-117651263D01*
X129142148Y-117727608D01*
X129248527Y-117903071D01*
X129403717Y-118091202D01*
X130187792Y-119000828D01*
X130858912Y-119816226D01*
X131429789Y-120556667D01*
X131913136Y-121241420D01*
X132321665Y-121889755D01*
X132668088Y-122520941D01*
X132965118Y-123154248D01*
X133225467Y-123808945D01*
X133285016Y-123974545D01*
X133636007Y-125205248D01*
X133853910Y-126511916D01*
X133938395Y-127865396D01*
X133889128Y-129236533D01*
X133705779Y-130596175D01*
X133388015Y-131915168D01*
X133375899Y-131955466D01*
X133243094Y-132411591D01*
X133166823Y-132739430D01*
X133148471Y-132970797D01*
X133189418Y-133137505D01*
X133291048Y-133271369D01*
X133438336Y-133392129D01*
X133710278Y-133605872D01*
X133980190Y-133836711D01*
X134037408Y-133889134D01*
X134311583Y-134145761D01*
X134968741Y-133511450D01*
X136094071Y-132509687D01*
X137220776Y-131676120D01*
X138351032Y-131009615D01*
X139487011Y-130509039D01*
X140630890Y-130173257D01*
X141679566Y-130010039D01*
X142407393Y-130009584D01*
X143135986Y-130129099D01*
X143803760Y-130356912D01*
X143988905Y-130447759D01*
X144574071Y-130844767D01*
X145113964Y-131372060D01*
X145577947Y-131991223D01*
X145935384Y-132663842D01*
X146086022Y-133077300D01*
X146171552Y-133307499D01*
X146270084Y-133413128D01*
X146407725Y-133437133D01*
X146730367Y-133472572D01*
X147152251Y-133568840D01*
X147621249Y-133710864D01*
X148085236Y-133883570D01*
X148340012Y-133995877D01*
X149047083Y-134412773D01*
X149619340Y-134927536D01*
X150052682Y-135535206D01*
X150343006Y-136230824D01*
X150411346Y-136500064D01*
X150456770Y-136868252D01*
X150468496Y-137346191D01*
X150449362Y-137878288D01*
X150402206Y-138408950D01*
X150329867Y-138882585D01*
X150278258Y-139106446D01*
X150152161Y-139568760D01*
X150743093Y-140178190D01*
X151225290Y-140748037D01*
X151570695Y-141335837D01*
X151792618Y-141976194D01*
X151904367Y-142703711D01*
X151924233Y-143249090D01*
X151844465Y-144128402D01*
X151610746Y-145023741D01*
X151236093Y-145894009D01*
X151075933Y-146184892D01*
X150912306Y-146434600D01*
X150716889Y-146676697D01*
X150461363Y-146944746D01*
X150117407Y-147272313D01*
X149919986Y-147453781D01*
X149465670Y-147864499D01*
X149001788Y-148274828D01*
X148511767Y-148698608D01*
X147979031Y-149149674D01*
X147387003Y-149641866D01*
X146719110Y-150189021D01*
X145958776Y-150804977D01*
X145089426Y-151503570D01*
X144600566Y-151894672D01*
X144009259Y-152368158D01*
X143422348Y-152839963D01*
X142862407Y-153291807D01*
X142352012Y-153705411D01*
X141913736Y-154062495D01*
X141570153Y-154344779D01*
X141403083Y-154483874D01*
X140656205Y-155084511D01*
X139948718Y-155590110D01*
X139218539Y-156041191D01*
X138403584Y-156478276D01*
X138165900Y-156596716D01*
X137418939Y-156947851D01*
X136726634Y-157233987D01*
X136053967Y-157463901D01*
X135365923Y-157646369D01*
X134627486Y-157790170D01*
X133803638Y-157904079D01*
X132859364Y-157996874D01*
X132450900Y-158029237D01*
X131534568Y-158084108D01*
X130464599Y-158123453D01*
X129255974Y-158147277D01*
X127923675Y-158155588D01*
X126482684Y-158148391D01*
X124947982Y-158125693D01*
X123334551Y-158087500D01*
X121657373Y-158033820D01*
X121401900Y-158024457D01*
X119509820Y-157964707D01*
X117776772Y-157932284D01*
X116205754Y-157927230D01*
X115221233Y-157939653D01*
X114426632Y-157955519D01*
X113518274Y-157973610D01*
X112551704Y-157992824D01*
X111582464Y-158012057D01*
X110666099Y-158030205D01*
X109987565Y-158043613D01*
X108876375Y-158059248D01*
X107914148Y-158058332D01*
X107081215Y-158039722D01*
X106357906Y-158002273D01*
X105724553Y-157944839D01*
X105161488Y-157866275D01*
X104649040Y-157765437D01*
X104468634Y-157722329D01*
X103950772Y-157606656D01*
X103532851Y-157555994D01*
X103157031Y-157573873D01*
X102765474Y-157663822D01*
X102300344Y-157829370D01*
X102224900Y-157859244D01*
X101770464Y-158024605D01*
X101263101Y-158184341D01*
X100791741Y-158311090D01*
X100658566Y-158341159D01*
X100153594Y-158423637D01*
X99539109Y-158487170D01*
X98869350Y-158529387D01*
X98198555Y-158547914D01*
X97580960Y-158540379D01*
X97070805Y-158504409D01*
X97032716Y-158499785D01*
X95482181Y-158230050D01*
X94019881Y-157826116D01*
X92654313Y-157290767D01*
X91490351Y-156684350D01*
X91125138Y-156463981D01*
X90786280Y-156247693D01*
X90449909Y-156017817D01*
X90092157Y-155756681D01*
X89689154Y-155446615D01*
X89217031Y-155069948D01*
X88651919Y-154609009D01*
X88339566Y-154351761D01*
X87909877Y-153999720D01*
X87378133Y-153568225D01*
X86775512Y-153082330D01*
X86133192Y-152567091D01*
X85482351Y-152047564D01*
X84854169Y-151548805D01*
X84698900Y-151426016D01*
X83893255Y-150784736D01*
X83106275Y-150149232D01*
X82351800Y-149531241D01*
X81643671Y-148942500D01*
X80995727Y-148394743D01*
X80421809Y-147899707D01*
X79935759Y-147469128D01*
X79551415Y-147114742D01*
X79282619Y-146848285D01*
X79221375Y-146781358D01*
X78749107Y-146146233D01*
X78405449Y-145451238D01*
X78183203Y-144675027D01*
X78075168Y-143796251D01*
X78061804Y-143343133D01*
X78063864Y-142999926D01*
X78293901Y-142999926D01*
X78301141Y-143543475D01*
X78359325Y-144129177D01*
X78462890Y-144699332D01*
X78594498Y-145163466D01*
X78695878Y-145425179D01*
X78817134Y-145681017D01*
X78966866Y-145939177D01*
X79153673Y-146207854D01*
X79386154Y-146495245D01*
X79672909Y-146809545D01*
X80022536Y-147158951D01*
X80443635Y-147551657D01*
X80944806Y-147995860D01*
X81534647Y-148499756D01*
X82221758Y-149071541D01*
X83014738Y-149719411D01*
X83922186Y-150451560D01*
X84952702Y-151276186D01*
X85291566Y-151546358D01*
X85939374Y-152063399D01*
X86577701Y-152574559D01*
X87187478Y-153064450D01*
X87749636Y-153517685D01*
X88245107Y-153918876D01*
X88654820Y-154252634D01*
X88959708Y-154503571D01*
X89059233Y-154586725D01*
X90160294Y-155461968D01*
X91217260Y-156192870D01*
X92250221Y-156791791D01*
X93279272Y-157271084D01*
X93673566Y-157424457D01*
X94359174Y-157649145D01*
X95146028Y-157861371D01*
X95966080Y-158045217D01*
X96751278Y-158184766D01*
X97149475Y-158237527D01*
X97757299Y-158278673D01*
X98462514Y-158283367D01*
X99197733Y-158254170D01*
X99895570Y-158193640D01*
X100447974Y-158112226D01*
X101191765Y-157934605D01*
X101962787Y-157687377D01*
X102648233Y-157408575D01*
X102895758Y-157307498D01*
X103128444Y-157252889D01*
X103385812Y-157245293D01*
X103707382Y-157285255D01*
X104132673Y-157373320D01*
X104383900Y-157432511D01*
X104985269Y-157560349D01*
X105620855Y-157659856D01*
X106313614Y-157732511D01*
X107086508Y-157779794D01*
X107962493Y-157803185D01*
X108964531Y-157804161D01*
X109914542Y-157788874D01*
X111261871Y-157759344D01*
X112457524Y-157734071D01*
X113519107Y-157713044D01*
X114464223Y-157696247D01*
X115310478Y-157683667D01*
X116075475Y-157675290D01*
X116776819Y-157671103D01*
X117432115Y-157671092D01*
X118058966Y-157675244D01*
X118674977Y-157683544D01*
X119297754Y-157695979D01*
X119944899Y-157712535D01*
X120634017Y-157733198D01*
X121382713Y-157757956D01*
X122001634Y-157779474D01*
X124006330Y-157840831D01*
X125871773Y-157878796D01*
X127594452Y-157893451D01*
X129170857Y-157884878D01*
X130597474Y-157853161D01*
X131870794Y-157798382D01*
X132987305Y-157720622D01*
X133943495Y-157619964D01*
X134735853Y-157496491D01*
X134827040Y-157478688D01*
X136195564Y-157120969D01*
X137550282Y-156602946D01*
X138873265Y-155933596D01*
X140146581Y-155121899D01*
X141256233Y-154259281D01*
X141483174Y-154069427D01*
X141823341Y-153789374D01*
X142257662Y-153434611D01*
X142767064Y-153020631D01*
X143332476Y-152562926D01*
X143934824Y-152076988D01*
X144555035Y-151578308D01*
X144705581Y-151457524D01*
X145763961Y-150606044D01*
X146696404Y-149849552D01*
X147511522Y-149180226D01*
X148217927Y-148590243D01*
X148824231Y-148071782D01*
X149339048Y-147617019D01*
X149770990Y-147218133D01*
X150128669Y-146867301D01*
X150420699Y-146556701D01*
X150655690Y-146278511D01*
X150842257Y-146024907D01*
X150989011Y-145788069D01*
X151029204Y-145714100D01*
X151370822Y-144911989D01*
X151585241Y-144066398D01*
X151666297Y-143216774D01*
X151607827Y-142402566D01*
X151574212Y-142225467D01*
X151375935Y-141578247D01*
X151062558Y-140996970D01*
X150610897Y-140441165D01*
X150469907Y-140297756D01*
X150220065Y-140039941D01*
X150024839Y-139815820D01*
X149911196Y-139657555D01*
X149893238Y-139609986D01*
X149914939Y-139466153D01*
X149969753Y-139222014D01*
X150020481Y-139025133D01*
X150088282Y-138708961D01*
X150150701Y-138304323D01*
X150195540Y-137891948D01*
X150199603Y-137839800D01*
X150200256Y-137015734D01*
X150070964Y-136294317D01*
X149808534Y-135665917D01*
X149409775Y-135120901D01*
X149243278Y-134953537D01*
X148574157Y-134441326D01*
X147799264Y-134050627D01*
X146939838Y-133790958D01*
X146472106Y-133711573D01*
X145978191Y-133648800D01*
X145832817Y-133178478D01*
X145538503Y-132448815D01*
X145125151Y-131808850D01*
X144677029Y-131318972D01*
X144235792Y-130931071D01*
X143819719Y-130656259D01*
X143382366Y-130475937D01*
X142877294Y-130371510D01*
X142258060Y-130324380D01*
X142187566Y-130322087D01*
X141700255Y-130314801D01*
X141314381Y-130330509D01*
X140962828Y-130375998D01*
X140578476Y-130458055D01*
X140399501Y-130502899D01*
X139335415Y-130856733D01*
X138254717Y-131373052D01*
X137165545Y-132046828D01*
X136076041Y-132873030D01*
X135006767Y-133834558D01*
X134745517Y-134072491D01*
X134513402Y-134255830D01*
X134346693Y-134357044D01*
X134303372Y-134368466D01*
X134162501Y-134315341D01*
X133948450Y-134176949D01*
X133737706Y-134008633D01*
X133477349Y-133782473D01*
X133231059Y-133570391D01*
X133092125Y-133452117D01*
X132949199Y-133310273D01*
X132890802Y-133162327D01*
X132894190Y-132937320D01*
X132902165Y-132859450D01*
X132944646Y-132599135D01*
X133021539Y-132237746D01*
X133119329Y-131836617D01*
X133166649Y-131659133D01*
X133404545Y-130688444D01*
X133559968Y-129781522D01*
X133643453Y-128860629D01*
X133665780Y-127976133D01*
X133608948Y-126732678D01*
X133432042Y-125536878D01*
X133129150Y-124375907D01*
X132694358Y-123236941D01*
X132121753Y-122107153D01*
X131405421Y-120973719D01*
X130539450Y-119823814D01*
X129517927Y-118644613D01*
X129212294Y-118317023D01*
X128949394Y-118034436D01*
X128739632Y-117799641D01*
X128604689Y-117637574D01*
X128565803Y-117573436D01*
X128654277Y-117537372D01*
X128869931Y-117458997D01*
X129179515Y-117350176D01*
X129517724Y-117233708D01*
X130496732Y-116857794D01*
X131366560Y-116438289D01*
X132111203Y-115984648D01*
X132714657Y-115506326D01*
X133063454Y-115138924D01*
X133336081Y-114749721D01*
X133608942Y-114266055D01*
X133848329Y-113755238D01*
X134020530Y-113284585D01*
X134054250Y-113160462D01*
X134099215Y-112876126D01*
X134128205Y-112493060D01*
X134136511Y-112081495D01*
X134134336Y-111965347D01*
X134111843Y-111192569D01*
X134699538Y-110540736D01*
X135215647Y-109939171D01*
X135607841Y-109407739D01*
X135889729Y-108917774D01*
X136074920Y-108440610D01*
X136177021Y-107947581D01*
X136209641Y-107410022D01*
X136209640Y-107359800D01*
X136171951Y-106785860D01*
X136051891Y-106277940D01*
X135831061Y-105783238D01*
X135491063Y-105248955D01*
X135457910Y-105202567D01*
X134944822Y-104576186D01*
X134339730Y-104007770D01*
X133871204Y-103645003D01*
X133538175Y-103367664D01*
X133347373Y-103099284D01*
X133281003Y-102793451D01*
X133321267Y-102403752D01*
X133347731Y-102279800D01*
X133535252Y-101267976D01*
X133662434Y-100163731D01*
X133726996Y-99021532D01*
X133726659Y-97895849D01*
X133659144Y-96841150D01*
X133596437Y-96336870D01*
X133494693Y-95758959D01*
X133358725Y-95135828D01*
X133201086Y-94515340D01*
X133034326Y-93945356D01*
X132870996Y-93473739D01*
X132801418Y-93305133D01*
X132632194Y-92924133D01*
X132626860Y-93262800D01*
X132649858Y-93525826D01*
X132714994Y-93866461D01*
X132790939Y-94151800D01*
X133109519Y-95425742D01*
X133314055Y-96781853D01*
X133402557Y-98175466D01*
X133373031Y-99561911D01*
X133223484Y-100896522D01*
X133117210Y-101464948D01*
X133023938Y-101986759D01*
X132978132Y-102436362D01*
X132980585Y-102729696D01*
X133027297Y-103016375D01*
X133127503Y-103219973D01*
X133323868Y-103423239D01*
X133350167Y-103446498D01*
X133966437Y-103995156D01*
X134463995Y-104459034D01*
X134857988Y-104857063D01*
X135163565Y-105208172D01*
X135395871Y-105531291D01*
X135570055Y-105845349D01*
X135701263Y-106169276D01*
X135801608Y-106510059D01*
X135888850Y-107189118D01*
X135807445Y-107881383D01*
X135557539Y-108586508D01*
X135139276Y-109304146D01*
X134552800Y-110033951D01*
X134164123Y-110435018D01*
X133745129Y-110843236D01*
X133786330Y-111630937D01*
X133768542Y-112488718D01*
X133615360Y-113259398D01*
X133319720Y-113966354D01*
X132881815Y-114623851D01*
X132428024Y-115110818D01*
X131869191Y-115555158D01*
X131190616Y-115965350D01*
X130377599Y-116349868D01*
X129415438Y-116717189D01*
X129021900Y-116849394D01*
X128618155Y-116981932D01*
X128275933Y-117096419D01*
X128025620Y-117182526D01*
X127897603Y-117229925D01*
X127887820Y-117234848D01*
X127932932Y-117301121D01*
X128078637Y-117468617D01*
X128306944Y-117717682D01*
X128599858Y-118028663D01*
X128914475Y-118356212D01*
X129670904Y-119176056D01*
X130380793Y-120021736D01*
X131021892Y-120863788D01*
X131571950Y-121672748D01*
X132008715Y-122419151D01*
X132065601Y-122528842D01*
X132624372Y-123811853D01*
X133023674Y-125144434D01*
X133262881Y-126517481D01*
X133341370Y-127921890D01*
X133258513Y-129348557D01*
X133013686Y-130788376D01*
X132710372Y-131913133D01*
X132578421Y-132429998D01*
X132546787Y-132833909D01*
X132615029Y-133148004D01*
X132684291Y-133275389D01*
X132883226Y-133512979D01*
X133164442Y-133775949D01*
X133490262Y-134036795D01*
X133823011Y-134268012D01*
X134125013Y-134442096D01*
X134358591Y-134531543D01*
X134413560Y-134537800D01*
X134581173Y-134474173D01*
X134851399Y-134286740D01*
X135217130Y-133980669D01*
X135374236Y-133839300D01*
X136159513Y-133142807D01*
X136867874Y-132562530D01*
X137525029Y-132079994D01*
X138156687Y-131676724D01*
X138788560Y-131334246D01*
X139007060Y-131228815D01*
X139738491Y-130916020D01*
X140404151Y-130703335D01*
X141063529Y-130576925D01*
X141776114Y-130522952D01*
X142060566Y-130518581D01*
X142495906Y-130519625D01*
X142805868Y-130530412D01*
X143034400Y-130558725D01*
X143225445Y-130612341D01*
X143422949Y-130699042D01*
X143604564Y-130791928D01*
X144256389Y-131225702D01*
X144810808Y-131786327D01*
X145250455Y-132451429D01*
X145557963Y-133198637D01*
X145605665Y-133369892D01*
X145720209Y-133818133D01*
X146244725Y-133877031D01*
X146904132Y-133992414D01*
X147558414Y-134181809D01*
X148164926Y-134428299D01*
X148681019Y-134714968D01*
X149015052Y-134975962D01*
X149370095Y-135424075D01*
X149637344Y-135986117D01*
X149810874Y-136627793D01*
X149884759Y-137314805D01*
X149853073Y-138012855D01*
X149709890Y-138687647D01*
X149674898Y-138795070D01*
X149581889Y-139153876D01*
X149585229Y-139458975D01*
X149697700Y-139748877D01*
X149932082Y-140062092D01*
X150181577Y-140321775D01*
X150460274Y-140621055D01*
X150716962Y-140941226D01*
X150904266Y-141222234D01*
X150930844Y-141271621D01*
X151194893Y-141976336D01*
X151314526Y-142744775D01*
X151290927Y-143554217D01*
X151125284Y-144381936D01*
X150818783Y-145205210D01*
X150714300Y-145419369D01*
X150543278Y-145688823D01*
X150273402Y-146020023D01*
X149899829Y-146417365D01*
X149417715Y-146885247D01*
X148822218Y-147428066D01*
X148108493Y-148050218D01*
X147271697Y-148756101D01*
X146306987Y-149550112D01*
X145209519Y-150436647D01*
X145023900Y-150585278D01*
X144415320Y-151073264D01*
X143804776Y-151565050D01*
X143215638Y-152041655D01*
X142671275Y-152484098D01*
X142195055Y-152873394D01*
X141810347Y-153190564D01*
X141594900Y-153370558D01*
X140343338Y-154356845D01*
X139105677Y-155193646D01*
X137887898Y-155877834D01*
X136695980Y-156406285D01*
X135535906Y-156775871D01*
X134779233Y-156933096D01*
X134093526Y-157036074D01*
X133394324Y-157124903D01*
X132669805Y-157199735D01*
X131908147Y-157260723D01*
X131097529Y-157308019D01*
X130226130Y-157341775D01*
X129282127Y-157362144D01*
X128253699Y-157369278D01*
X127129025Y-157363329D01*
X125896282Y-157344450D01*
X124543650Y-157312793D01*
X123059305Y-157268510D01*
X121431428Y-157211754D01*
X119648196Y-157142677D01*
X119374980Y-157131605D01*
X118781432Y-157109331D01*
X118222511Y-157093041D01*
X117674605Y-157082923D01*
X117114104Y-157079165D01*
X116517394Y-157081956D01*
X115860865Y-157091486D01*
X115120903Y-157107941D01*
X114273899Y-157131512D01*
X113296238Y-157162386D01*
X112601647Y-157185704D01*
X111386547Y-157225026D01*
X110324048Y-157254126D01*
X109397700Y-157272510D01*
X108591051Y-157279686D01*
X107887649Y-157275159D01*
X107271043Y-157258438D01*
X106724781Y-157229027D01*
X106232412Y-157186435D01*
X105777483Y-157130168D01*
X105343544Y-157059732D01*
X104914142Y-156974634D01*
X104810426Y-156952083D01*
X104171952Y-156827562D01*
X103644252Y-156768611D01*
X103181066Y-156777448D01*
X102736131Y-156856293D01*
X102263186Y-157007363D01*
X102067896Y-157083603D01*
X101056680Y-157412027D01*
X99949852Y-157624269D01*
X98775025Y-157720288D01*
X97559812Y-157700046D01*
X96331825Y-157563503D01*
X95118678Y-157310619D01*
X94383437Y-157094516D01*
X93898662Y-156916077D01*
X93330148Y-156677273D01*
X92729585Y-156402412D01*
X92148667Y-156115805D01*
X91639086Y-155841763D01*
X91344687Y-155665437D01*
X91187365Y-155553810D01*
X90911827Y-155345982D01*
X90531294Y-155052515D01*
X90058989Y-154683967D01*
X89508131Y-154250901D01*
X88891944Y-153763875D01*
X88223649Y-153233450D01*
X87516467Y-152670186D01*
X86783620Y-152084643D01*
X86038330Y-151487382D01*
X85293819Y-150888963D01*
X84563307Y-150299947D01*
X83860018Y-149730892D01*
X83197172Y-149192360D01*
X82587991Y-148694911D01*
X82045696Y-148249105D01*
X81685784Y-147950799D01*
X81235144Y-147569993D01*
X80803885Y-147195310D01*
X80418146Y-146850238D01*
X80104064Y-146558272D01*
X79887778Y-146342901D01*
X79847585Y-146298703D01*
X79318745Y-145575302D01*
X78947903Y-144797524D01*
X78737895Y-143972705D01*
X78687566Y-143300799D01*
X78733327Y-142757475D01*
X81735566Y-142757475D01*
X81766020Y-143097229D01*
X81873770Y-143393363D01*
X82083397Y-143699572D01*
X82258585Y-143899953D01*
X82708211Y-144296400D01*
X83207777Y-144580780D01*
X83727074Y-144744982D01*
X84235899Y-144780893D01*
X84704046Y-144680401D01*
X84870793Y-144601521D01*
X85091188Y-144423545D01*
X87549122Y-144423545D01*
X87549491Y-144824800D01*
X87573752Y-145412987D01*
X87644885Y-145911365D01*
X87778684Y-146378438D01*
X87990946Y-146872710D01*
X88222316Y-147316909D01*
X88938253Y-148448752D01*
X89793122Y-149484981D01*
X90784483Y-150423193D01*
X91909900Y-151260984D01*
X92733014Y-151762292D01*
X93222025Y-152029382D01*
X93628359Y-152229533D01*
X94011675Y-152387542D01*
X94431628Y-152528205D01*
X94901233Y-152663501D01*
X95354686Y-152751091D01*
X95906792Y-152800705D01*
X96509786Y-152813508D01*
X97115904Y-152790670D01*
X97677380Y-152733356D01*
X98146449Y-152642735D01*
X98347304Y-152579288D01*
X98815807Y-152334415D01*
X99280622Y-151980578D01*
X99682030Y-151568497D01*
X99900786Y-151259903D01*
X100071960Y-150840245D01*
X100176218Y-150306422D01*
X100212632Y-149700219D01*
X100180272Y-149063419D01*
X100078210Y-148437806D01*
X99972128Y-148051059D01*
X99705258Y-147383032D01*
X99345493Y-146692427D01*
X98934885Y-146058956D01*
X98887155Y-145994500D01*
X98261984Y-145270826D01*
X97499303Y-144565348D01*
X96630922Y-143898114D01*
X95688654Y-143289176D01*
X94704310Y-142758582D01*
X93709703Y-142326381D01*
X92736645Y-142012624D01*
X92465404Y-141947178D01*
X91914980Y-141861431D01*
X91298824Y-141824855D01*
X90667480Y-141835560D01*
X90071496Y-141891654D01*
X89561415Y-141991245D01*
X89334682Y-142064312D01*
X88862878Y-142313285D01*
X88403628Y-142668974D01*
X88009535Y-143084381D01*
X87748320Y-143481695D01*
X87654739Y-143685495D01*
X87594831Y-143880106D01*
X87561868Y-144110975D01*
X87549122Y-144423545D01*
X85091188Y-144423545D01*
X85203860Y-144332559D01*
X85397732Y-143994255D01*
X85455760Y-143608665D01*
X85381295Y-143197847D01*
X85177692Y-142783857D01*
X84848300Y-142388752D01*
X84490103Y-142096681D01*
X84204645Y-141923433D01*
X83915279Y-141784182D01*
X83782943Y-141737319D01*
X83443393Y-141675846D01*
X83057323Y-141654775D01*
X82688135Y-141673200D01*
X82399228Y-141730213D01*
X82330774Y-141758114D01*
X82063127Y-141974645D01*
X81854118Y-142292525D01*
X81743618Y-142644813D01*
X81735566Y-142757475D01*
X78733327Y-142757475D01*
X78756435Y-142483113D01*
X78968747Y-141732576D01*
X79333055Y-141027754D01*
X79857915Y-140347209D01*
X79872939Y-140330573D01*
X80202141Y-139938941D01*
X80409638Y-139605958D01*
X80508949Y-139288350D01*
X80513594Y-138942843D01*
X80439664Y-138540176D01*
X83936900Y-138540176D01*
X84016404Y-139020517D01*
X84236313Y-139492624D01*
X84568717Y-139929698D01*
X84985708Y-140304942D01*
X85459377Y-140591558D01*
X85961814Y-140762746D01*
X86289772Y-140799417D01*
X86543898Y-140762111D01*
X86833674Y-140664629D01*
X86909969Y-140628832D01*
X87221611Y-140398977D01*
X87412737Y-140099666D01*
X87516547Y-139857898D01*
X87561155Y-139678170D01*
X87546063Y-139498376D01*
X87470776Y-139256410D01*
X87404549Y-139077056D01*
X87121821Y-138546606D01*
X86717823Y-138102442D01*
X86223107Y-137766212D01*
X85668225Y-137559564D01*
X85181528Y-137501960D01*
X84678124Y-137552524D01*
X84306790Y-137707759D01*
X84064611Y-137970096D01*
X83948671Y-138341967D01*
X83936900Y-138540176D01*
X80439664Y-138540176D01*
X80437090Y-138526161D01*
X80436890Y-138525333D01*
X80311969Y-137739529D01*
X80317243Y-136984585D01*
X80448625Y-136285437D01*
X80702025Y-135667021D01*
X80827741Y-135481225D01*
X88091645Y-135481225D01*
X88109897Y-136000305D01*
X88246138Y-136539379D01*
X88490872Y-137058673D01*
X88783612Y-137462236D01*
X89182828Y-137833776D01*
X89596946Y-138069882D01*
X90004940Y-138164101D01*
X90385785Y-138109977D01*
X90578328Y-138013148D01*
X90917683Y-137696135D01*
X91128880Y-137293405D01*
X91212551Y-136829182D01*
X91169326Y-136327693D01*
X90999836Y-135813162D01*
X90704712Y-135309815D01*
X90501411Y-135060097D01*
X90105865Y-134706631D01*
X89688742Y-134480513D01*
X89274093Y-134382143D01*
X88885967Y-134411919D01*
X88548416Y-134570241D01*
X88285489Y-134857509D01*
X88200881Y-135021913D01*
X88091645Y-135481225D01*
X80827741Y-135481225D01*
X80970601Y-135270092D01*
X81236699Y-134965369D01*
X81485764Y-134728543D01*
X81750912Y-134542002D01*
X82065259Y-134388134D01*
X82461922Y-134249327D01*
X82974018Y-134107970D01*
X83315369Y-134023121D01*
X83885441Y-133876397D01*
X84302679Y-133748947D01*
X84581695Y-133634835D01*
X84737102Y-133528122D01*
X84783566Y-133426490D01*
X84826718Y-133253932D01*
X84941746Y-132980387D01*
X85107006Y-132646035D01*
X85300855Y-132291054D01*
X85501649Y-131955624D01*
X85687744Y-131679924D01*
X85797521Y-131544158D01*
X86356136Y-131056293D01*
X86994477Y-130716735D01*
X87710340Y-130525602D01*
X88501518Y-130483008D01*
X89365805Y-130589071D01*
X90300997Y-130843906D01*
X91304887Y-131247630D01*
X91317705Y-131253547D01*
X92052178Y-131593115D01*
X92106329Y-131541874D01*
X92568660Y-131541874D01*
X93480947Y-132311617D01*
X95251805Y-133883283D01*
X96945897Y-135541497D01*
X98536637Y-137258309D01*
X99997441Y-139005768D01*
X100631388Y-139829466D01*
X101843086Y-141557259D01*
X102928625Y-143328948D01*
X103882756Y-145131702D01*
X104700232Y-146952688D01*
X105375805Y-148779074D01*
X105904228Y-150598027D01*
X106280253Y-152396716D01*
X106498632Y-154162308D01*
X106500057Y-154180466D01*
X106531172Y-154551250D01*
X106564763Y-154908533D01*
X106593029Y-155170328D01*
X106636451Y-155525189D01*
X109320175Y-155488217D01*
X109903855Y-155480803D01*
X110631793Y-155472581D01*
X111478913Y-155463783D01*
X112420142Y-155454638D01*
X113430408Y-155445379D01*
X114484636Y-155436235D01*
X115557753Y-155427439D01*
X116624685Y-155419222D01*
X117457000Y-155413219D01*
X118646488Y-155404003D01*
X119674080Y-155393985D01*
X120547209Y-155382983D01*
X121273312Y-155370816D01*
X121859824Y-155357301D01*
X122314179Y-155342256D01*
X122643813Y-155325499D01*
X122856161Y-155306847D01*
X122958658Y-155286120D01*
X122970052Y-155278190D01*
X123007941Y-155148841D01*
X123049005Y-154904278D01*
X123083367Y-154607019D01*
X123152377Y-154024472D01*
X123259094Y-153326713D01*
X123394979Y-152561427D01*
X123551492Y-151776296D01*
X123720095Y-151019004D01*
X123743486Y-150920800D01*
X124139994Y-149519140D01*
X129915080Y-149519140D01*
X129949528Y-150143108D01*
X130073701Y-150670486D01*
X130155832Y-150861115D01*
X130548956Y-151459335D01*
X131054991Y-151932707D01*
X131677908Y-152284536D01*
X132013712Y-152409338D01*
X132439507Y-152502678D01*
X132980626Y-152557888D01*
X133587431Y-152575073D01*
X134210288Y-152554341D01*
X134799558Y-152495798D01*
X135294856Y-152402292D01*
X136017545Y-152165079D01*
X136805369Y-151810028D01*
X137624351Y-151356596D01*
X138440516Y-150824245D01*
X139219887Y-150232434D01*
X139505345Y-149990751D01*
X140083167Y-149429809D01*
X140646915Y-148779208D01*
X141172217Y-148074642D01*
X141634698Y-147351804D01*
X142009985Y-146646389D01*
X142273704Y-145994089D01*
X142306310Y-145888932D01*
X142392333Y-145475600D01*
X142438703Y-144990287D01*
X142446108Y-144483023D01*
X142415238Y-144003838D01*
X142356860Y-143661807D01*
X144513504Y-143661807D01*
X144642301Y-144030317D01*
X144911473Y-144335157D01*
X145235566Y-144523473D01*
X145521617Y-144583616D01*
X145900849Y-144583614D01*
X146310689Y-144529763D01*
X146688563Y-144428357D01*
X146846723Y-144361405D01*
X147340850Y-144051591D01*
X147732273Y-143679889D01*
X148009572Y-143269095D01*
X148161328Y-142842006D01*
X148176120Y-142421418D01*
X148042529Y-142030127D01*
X148027396Y-142004538D01*
X147762485Y-141721318D01*
X147400976Y-141549064D01*
X146971088Y-141484310D01*
X146501041Y-141523591D01*
X146019052Y-141663441D01*
X145553340Y-141900394D01*
X145132124Y-142230985D01*
X144992367Y-142377291D01*
X144686236Y-142814991D01*
X144527382Y-143249931D01*
X144513504Y-143661807D01*
X142356860Y-143661807D01*
X142346781Y-143602761D01*
X142271829Y-143384633D01*
X141903658Y-142808616D01*
X141418046Y-142344863D01*
X140826522Y-141995903D01*
X140140610Y-141764265D01*
X139371839Y-141652480D01*
X138531734Y-141663078D01*
X137631822Y-141798588D01*
X136683629Y-142061540D01*
X136513581Y-142120851D01*
X135495967Y-142543242D01*
X134512679Y-143060527D01*
X133582417Y-143656776D01*
X132723879Y-144316058D01*
X131955766Y-145022445D01*
X131296776Y-145760007D01*
X130765608Y-146512813D01*
X130380962Y-147264936D01*
X130333819Y-147385339D01*
X130108852Y-148108493D01*
X129968730Y-148830347D01*
X129915080Y-149519140D01*
X124139994Y-149519140D01*
X124280661Y-149021882D01*
X124975905Y-147141610D01*
X125830803Y-145277335D01*
X126846943Y-143426409D01*
X128025912Y-141586183D01*
X129369296Y-139754010D01*
X129628227Y-139440632D01*
X142452095Y-139440632D01*
X142494352Y-139718508D01*
X142576264Y-139951016D01*
X142701438Y-140183809D01*
X142889664Y-140358697D01*
X143143747Y-140503324D01*
X143403571Y-140616392D01*
X143616820Y-140680373D01*
X143707550Y-140685448D01*
X143863511Y-140645135D01*
X144111405Y-140580694D01*
X144250852Y-140544349D01*
X144583090Y-140400163D01*
X144954889Y-140148957D01*
X145320702Y-139830101D01*
X145634982Y-139482966D01*
X145840644Y-139170139D01*
X145997869Y-138728870D01*
X146023376Y-138306885D01*
X145922176Y-137935247D01*
X145699282Y-137645021D01*
X145581032Y-137560950D01*
X145142528Y-137394999D01*
X144659984Y-137369741D01*
X144162111Y-137472959D01*
X143677621Y-137692439D01*
X143235224Y-138015964D01*
X142863634Y-138431319D01*
X142641154Y-138811749D01*
X142499731Y-139161168D01*
X142452095Y-139440632D01*
X129628227Y-139440632D01*
X130878683Y-137927240D01*
X132062429Y-136639702D01*
X138800900Y-136639702D01*
X138867855Y-137023943D01*
X139044585Y-137418326D01*
X139294881Y-137754470D01*
X139469587Y-137902616D01*
X139667899Y-138025481D01*
X139825110Y-138078759D01*
X140001649Y-138065970D01*
X140257946Y-137990634D01*
X140364223Y-137954727D01*
X140810771Y-137719847D01*
X141215128Y-137351082D01*
X141551182Y-136883115D01*
X141792818Y-136350630D01*
X141898296Y-135917211D01*
X141908974Y-135535190D01*
X141844991Y-135137551D01*
X141721541Y-134785183D01*
X141554557Y-134539670D01*
X141254385Y-134365798D01*
X140869730Y-134301821D01*
X140449140Y-134352860D01*
X140284240Y-134405660D01*
X139886581Y-134636295D01*
X139513301Y-134994279D01*
X139192250Y-135437666D01*
X138951281Y-135924507D01*
X138818246Y-136412856D01*
X138800900Y-136639702D01*
X132062429Y-136639702D01*
X132555660Y-136103225D01*
X132730377Y-135923190D01*
X133898855Y-134724803D01*
X133647664Y-134545939D01*
X133396474Y-134367076D01*
X132694830Y-135235604D01*
X132421749Y-135571282D01*
X132069163Y-136001164D01*
X131666382Y-136489711D01*
X131242717Y-137001388D01*
X130827477Y-137500655D01*
X130756445Y-137585800D01*
X129803396Y-138736707D01*
X128955904Y-139781175D01*
X128202721Y-140735359D01*
X127532601Y-141615418D01*
X126934294Y-142437511D01*
X126396555Y-143217795D01*
X125908134Y-143972428D01*
X125457785Y-144717568D01*
X125034259Y-145469373D01*
X124626310Y-146244002D01*
X124361842Y-146772133D01*
X123578089Y-148493023D01*
X122933759Y-150194295D01*
X122412663Y-151923109D01*
X122031896Y-153560124D01*
X121954514Y-153932191D01*
X121887201Y-154238029D01*
X121837931Y-154442509D01*
X121816266Y-154510300D01*
X121729856Y-154516492D01*
X121489509Y-154525167D01*
X121110598Y-154536031D01*
X120608497Y-154548788D01*
X119998579Y-154563141D01*
X119296217Y-154578797D01*
X118516785Y-154595458D01*
X117675656Y-154612830D01*
X116788204Y-154630616D01*
X115869801Y-154648521D01*
X114935822Y-154666250D01*
X114001640Y-154683507D01*
X113082627Y-154699997D01*
X112194159Y-154715423D01*
X111351607Y-154729490D01*
X110570345Y-154741903D01*
X109865747Y-154752366D01*
X109253186Y-154760583D01*
X108748035Y-154766259D01*
X108365668Y-154769098D01*
X108354563Y-154769143D01*
X107329893Y-154773133D01*
X107272850Y-153961631D01*
X107112210Y-152627377D01*
X106816017Y-151214475D01*
X106390742Y-149736489D01*
X105842859Y-148206983D01*
X105178837Y-146639520D01*
X104405149Y-145047664D01*
X103528267Y-143444977D01*
X102554661Y-141845024D01*
X101490804Y-140261369D01*
X100343168Y-138707573D01*
X99479539Y-137628133D01*
X99268304Y-137384274D01*
X98967272Y-137053099D01*
X98590497Y-136648894D01*
X98152035Y-136185947D01*
X97665940Y-135678544D01*
X97146267Y-135140973D01*
X96607070Y-134587520D01*
X96062404Y-134032472D01*
X95526324Y-133490117D01*
X95012885Y-132974741D01*
X94536141Y-132500631D01*
X94110147Y-132082074D01*
X93748957Y-131733358D01*
X93466626Y-131468768D01*
X93277209Y-131302593D01*
X93207657Y-131252592D01*
X93051575Y-131218829D01*
X92878930Y-131297895D01*
X92803370Y-131354723D01*
X92568660Y-131541874D01*
X92106329Y-131541874D01*
X92291372Y-131366775D01*
X92656478Y-131081763D01*
X93144986Y-130788917D01*
X93713759Y-130511044D01*
X93914580Y-130431466D01*
X94863842Y-130431466D01*
X95278001Y-131295279D01*
X96002451Y-132614100D01*
X96860012Y-133829546D01*
X97845742Y-134936297D01*
X98954698Y-135929036D01*
X100181939Y-136802444D01*
X100668173Y-137096121D01*
X101026368Y-137290901D01*
X101468828Y-137513629D01*
X101959629Y-137748079D01*
X102462844Y-137978026D01*
X102942547Y-138187244D01*
X103362814Y-138359509D01*
X103687719Y-138478595D01*
X103808836Y-138514568D01*
X104142907Y-138560775D01*
X104580431Y-138569729D01*
X105060553Y-138545113D01*
X105522415Y-138490612D01*
X105905161Y-138409910D01*
X105991847Y-138382422D01*
X106376147Y-138185911D01*
X106754323Y-137888817D01*
X107081692Y-137535459D01*
X107313570Y-137170160D01*
X107376155Y-137009334D01*
X107444022Y-136689310D01*
X107483539Y-136329286D01*
X107484811Y-136292270D01*
X116925223Y-136292270D01*
X116960636Y-136739133D01*
X117075795Y-137312258D01*
X117243529Y-137749345D01*
X117480460Y-138079824D01*
X117803206Y-138333128D01*
X117888296Y-138381922D01*
X118216235Y-138535372D01*
X118528965Y-138612319D01*
X118897237Y-138635922D01*
X119251729Y-138629675D01*
X119593451Y-138605030D01*
X119793233Y-138577002D01*
X120131900Y-138509871D01*
X120146726Y-139024006D01*
X120242004Y-139615746D01*
X120481948Y-140138649D01*
X120851526Y-140580193D01*
X121335706Y-140927854D01*
X121919460Y-141169109D01*
X122587755Y-141291435D01*
X122883566Y-141304308D01*
X123247521Y-141291381D01*
X123608941Y-141255215D01*
X123814900Y-141219387D01*
X124181575Y-141107934D01*
X124691769Y-140909374D01*
X125344133Y-140624278D01*
X126137318Y-140253217D01*
X126416272Y-140118546D01*
X127665790Y-139424726D01*
X128810751Y-138611919D01*
X129841288Y-137690223D01*
X130747535Y-136669737D01*
X131519626Y-135560561D01*
X132147695Y-134372792D01*
X132243723Y-134153706D01*
X132470909Y-133619158D01*
X132314324Y-133291405D01*
X132157740Y-132963652D01*
X131541957Y-134018837D01*
X130733870Y-135297790D01*
X129890844Y-136421800D01*
X129002652Y-137403445D01*
X128175509Y-138159561D01*
X127196742Y-138905054D01*
X126227806Y-139496470D01*
X125243192Y-139945331D01*
X124217387Y-140263166D01*
X123124882Y-140461497D01*
X123063639Y-140469013D01*
X122666063Y-140511411D01*
X122386069Y-140524021D01*
X122174240Y-140505061D01*
X121981157Y-140452751D01*
X121912229Y-140427523D01*
X121520330Y-140214513D01*
X121228279Y-139904259D01*
X121026671Y-139480124D01*
X120906099Y-138925475D01*
X120872955Y-138589541D01*
X120844435Y-138266084D01*
X120809775Y-138005324D01*
X120775731Y-137856303D01*
X120770490Y-137845609D01*
X120671595Y-137803849D01*
X120461241Y-137845733D01*
X120337580Y-137887485D01*
X120052025Y-137959411D01*
X119683690Y-138011091D01*
X119362076Y-138029790D01*
X118990006Y-138020309D01*
X118715608Y-137972351D01*
X118468956Y-137871625D01*
X118395909Y-137832337D01*
X118114671Y-137659565D01*
X117917327Y-137484898D01*
X117789365Y-137274279D01*
X117716270Y-136993649D01*
X117683528Y-136608950D01*
X117676566Y-136144347D01*
X117668591Y-135635012D01*
X117641382Y-135280700D01*
X117590015Y-135067707D01*
X117509568Y-134982327D01*
X117395117Y-135010856D01*
X117296723Y-135087086D01*
X117090763Y-135378683D01*
X116964772Y-135791016D01*
X116925223Y-136292270D01*
X107484811Y-136292270D01*
X107487293Y-136220106D01*
X107490581Y-135795677D01*
X107842240Y-135865238D01*
X108488371Y-135936528D01*
X109093308Y-135894557D01*
X109616797Y-135743255D01*
X109748269Y-135679139D01*
X110064332Y-135474200D01*
X110294425Y-135233590D01*
X110460552Y-134920387D01*
X110584716Y-134497673D01*
X110649968Y-134166162D01*
X110719091Y-133595931D01*
X110700446Y-133140082D01*
X110589067Y-132765288D01*
X110395163Y-132456844D01*
X110245754Y-132302181D01*
X110133763Y-132266677D01*
X110054795Y-132360494D01*
X110004451Y-132593796D01*
X109978335Y-132976743D01*
X109971900Y-133435014D01*
X109963052Y-133943098D01*
X109926940Y-134316302D01*
X109849212Y-134588587D01*
X109715517Y-134793912D01*
X109511500Y-134966239D01*
X109260345Y-135118707D01*
X108894483Y-135251408D01*
X108433685Y-135315082D01*
X107938481Y-135307816D01*
X107469400Y-135227698D01*
X107317051Y-135180101D01*
X107081692Y-135109896D01*
X106911690Y-135085852D01*
X106872551Y-135093705D01*
X106831000Y-135197491D01*
X106802654Y-135416708D01*
X106794830Y-135622296D01*
X106737900Y-136310196D01*
X106574944Y-136875359D01*
X106308076Y-137313357D01*
X105939409Y-137619764D01*
X105810112Y-137684993D01*
X105616567Y-137762601D01*
X105438668Y-137805226D01*
X105228397Y-137816034D01*
X104937737Y-137798191D01*
X104605758Y-137764405D01*
X103472363Y-137574227D01*
X102411874Y-137253761D01*
X101407378Y-136794476D01*
X100441964Y-136187837D01*
X99498720Y-135425311D01*
X98965233Y-134918374D01*
X98190341Y-134087288D01*
X97497055Y-133219260D01*
X96857527Y-132275232D01*
X96243909Y-131216146D01*
X96013046Y-130777950D01*
X95656181Y-130084420D01*
X95260011Y-130257943D01*
X94863842Y-130431466D01*
X93914580Y-130431466D01*
X94319660Y-130270948D01*
X94444547Y-130228461D01*
X94892735Y-130080506D01*
X95202918Y-129963176D01*
X95395512Y-129847303D01*
X95490938Y-129703717D01*
X95509612Y-129503249D01*
X95471954Y-129216728D01*
X95405709Y-128855349D01*
X95318612Y-128235177D01*
X95266754Y-127554658D01*
X95250886Y-126865832D01*
X95271760Y-126220741D01*
X95330126Y-125671427D01*
X95357585Y-125520800D01*
X95739149Y-124095190D01*
X96283136Y-122694859D01*
X96983338Y-121329710D01*
X97833543Y-120009645D01*
X98827542Y-118744567D01*
X99959126Y-117544377D01*
X100893069Y-116693884D01*
X101170377Y-116408833D01*
X101300503Y-116138078D01*
X101298298Y-115846732D01*
X101282359Y-115779468D01*
X101123922Y-115460576D01*
X100834784Y-115219827D01*
X100401981Y-115047389D01*
X100274001Y-115014775D01*
X99601523Y-114795117D01*
X99000139Y-114457015D01*
X98428295Y-113976571D01*
X98372566Y-113921218D01*
X97921010Y-113375978D01*
X97555329Y-112751624D01*
X97295073Y-112092040D01*
X97159794Y-111441108D01*
X97144900Y-111165632D01*
X97126503Y-110994586D01*
X97036470Y-110926854D01*
X96863933Y-110915800D01*
X96301055Y-110834985D01*
X95757334Y-110606911D01*
X95265201Y-110253130D01*
X94857088Y-109795192D01*
X94647960Y-109443200D01*
X94414571Y-108821809D01*
X94262137Y-108105796D01*
X94191281Y-107339384D01*
X94202624Y-106566792D01*
X94296790Y-105832242D01*
X94474400Y-105179954D01*
X94519520Y-105073099D01*
X99937616Y-105073099D01*
X100008740Y-105191492D01*
X100015406Y-105195756D01*
X100117167Y-105219988D01*
X100363193Y-105263304D01*
X100729951Y-105322023D01*
X101193910Y-105392468D01*
X101731536Y-105470959D01*
X102195572Y-105536613D01*
X102826567Y-105626170D01*
X103450137Y-105717396D01*
X104031198Y-105804957D01*
X104534668Y-105883517D01*
X104925463Y-105947741D01*
X105084673Y-105975949D01*
X105870113Y-106121710D01*
X105999525Y-106566873D01*
X106079624Y-106902945D01*
X106134206Y-107244037D01*
X106145418Y-107376417D01*
X106161900Y-107740800D01*
X100701582Y-109095466D01*
X100701241Y-109373290D01*
X100741345Y-109603303D01*
X100832611Y-109701656D01*
X100949092Y-109696587D01*
X101205322Y-109655181D01*
X101576831Y-109582403D01*
X102039149Y-109483217D01*
X102567805Y-109362590D01*
X102936632Y-109274741D01*
X103542333Y-109128874D01*
X104140652Y-108986164D01*
X104696248Y-108854938D01*
X105173778Y-108743524D01*
X105537899Y-108660249D01*
X105654330Y-108634395D01*
X106399720Y-108471506D01*
X106945763Y-108995153D01*
X107214606Y-109261015D01*
X107453197Y-109511240D01*
X107621247Y-109703115D01*
X107654378Y-109746380D01*
X107816950Y-109973961D01*
X106989425Y-110558211D01*
X106613083Y-110817004D01*
X106143069Y-111129853D01*
X105630615Y-111463200D01*
X105126955Y-111783490D01*
X104952929Y-111892068D01*
X104450449Y-112211190D01*
X104083588Y-112464622D01*
X103838335Y-112665950D01*
X103700681Y-112828759D01*
X103656615Y-112966636D01*
X103692127Y-113093168D01*
X103700212Y-113106852D01*
X103801753Y-113120433D01*
X104021424Y-113064309D01*
X104329221Y-112950814D01*
X104695143Y-112792282D01*
X105089186Y-112601046D01*
X105481347Y-112389439D01*
X105569233Y-112338533D01*
X105864341Y-112150430D01*
X106243429Y-111887606D01*
X106660011Y-111583292D01*
X107067608Y-111270718D01*
X107111921Y-111235652D01*
X108061942Y-110481114D01*
X108696247Y-110694155D01*
X109427971Y-110911585D01*
X110073218Y-111032165D01*
X110683904Y-111056622D01*
X111311946Y-110985682D01*
X112009259Y-110820070D01*
X112265702Y-110744064D01*
X112692824Y-110618596D01*
X112985079Y-110560927D01*
X113168007Y-110584599D01*
X113267148Y-110703152D01*
X113308041Y-110930128D01*
X113316224Y-111279070D01*
X113316233Y-111301074D01*
X113316233Y-111919615D01*
X113801147Y-111980201D01*
X114079319Y-111998751D01*
X114482304Y-112005070D01*
X114966130Y-112000541D01*
X115486825Y-111986546D01*
X116000417Y-111964467D01*
X116462934Y-111935687D01*
X116830405Y-111901589D01*
X116980964Y-111880219D01*
X117301362Y-111824036D01*
X117245741Y-111332411D01*
X117223683Y-111023956D01*
X117226248Y-110754768D01*
X117242256Y-110633057D01*
X117294393Y-110425328D01*
X118078146Y-110687465D01*
X118470989Y-110811141D01*
X118797609Y-110889337D01*
X119123948Y-110932265D01*
X119515949Y-110950134D01*
X119793233Y-110953018D01*
X120454839Y-110928368D01*
X121024707Y-110838048D01*
X121563365Y-110665503D01*
X122131342Y-110394181D01*
X122408683Y-110237755D01*
X122690082Y-110078484D01*
X122916961Y-109959608D01*
X123048757Y-109902128D01*
X123061477Y-109899800D01*
X123151824Y-109945237D01*
X123358765Y-110071698D01*
X123659265Y-110264400D01*
X124030292Y-110508563D01*
X124448813Y-110789408D01*
X124466804Y-110801594D01*
X125138012Y-111247194D01*
X125688899Y-111591754D01*
X126130487Y-111841111D01*
X126473796Y-112001104D01*
X126729848Y-112077572D01*
X126883526Y-112081868D01*
X126973189Y-112055710D01*
X126982485Y-112000456D01*
X126897289Y-111889658D01*
X126703477Y-111696869D01*
X126651233Y-111646903D01*
X126403702Y-111425836D01*
X126068171Y-111146409D01*
X125694135Y-110849105D01*
X125423566Y-110642814D01*
X124849782Y-110208328D01*
X124406725Y-109857872D01*
X124083897Y-109582047D01*
X123870799Y-109371451D01*
X123756933Y-109216684D01*
X123730233Y-109126607D01*
X123776022Y-108976547D01*
X123896494Y-108739321D01*
X124066310Y-108464397D01*
X124079394Y-108445013D01*
X124428554Y-107930851D01*
X124905580Y-107974106D01*
X125115211Y-108008378D01*
X125460378Y-108082674D01*
X125913842Y-108190335D01*
X126448368Y-108324704D01*
X127036719Y-108479120D01*
X127606802Y-108634464D01*
X128270601Y-108815099D01*
X128841745Y-108963378D01*
X129305389Y-109075816D01*
X129646690Y-109148932D01*
X129850804Y-109179240D01*
X129903766Y-109173517D01*
X129986761Y-109032511D01*
X130029798Y-108918486D01*
X130039792Y-108863863D01*
X130024963Y-108812962D01*
X129970620Y-108760702D01*
X129862074Y-108702001D01*
X129684633Y-108631777D01*
X129423609Y-108544950D01*
X129064312Y-108436438D01*
X128592050Y-108301158D01*
X127992134Y-108134031D01*
X127249874Y-107929973D01*
X126877037Y-107827901D01*
X126218957Y-107647110D01*
X125706099Y-107501600D01*
X125320359Y-107381944D01*
X125043632Y-107278718D01*
X124857814Y-107182495D01*
X124744803Y-107083849D01*
X124686494Y-106973355D01*
X124664783Y-106841586D01*
X124661566Y-106679117D01*
X124661566Y-106674403D01*
X124655016Y-106422942D01*
X124622693Y-106300765D01*
X124545587Y-106267961D01*
X124471066Y-106274411D01*
X124311255Y-106358050D01*
X124254374Y-106528104D01*
X124190747Y-106737245D01*
X124105378Y-106856659D01*
X124043028Y-106894523D01*
X123954267Y-106913180D01*
X123819385Y-106908940D01*
X123618671Y-106878116D01*
X123332416Y-106817017D01*
X122940909Y-106721955D01*
X122424440Y-106589243D01*
X121803960Y-106425954D01*
X121344966Y-106309004D01*
X120943273Y-106215234D01*
X120627130Y-106150551D01*
X120424786Y-106120860D01*
X120364760Y-106125050D01*
X120349435Y-106193946D01*
X120436778Y-106278852D01*
X120638768Y-106385103D01*
X120967382Y-106518032D01*
X121434596Y-106682971D01*
X122052388Y-106885254D01*
X122121566Y-106907313D01*
X122600044Y-107062316D01*
X123025986Y-107205440D01*
X123371638Y-107326946D01*
X123609244Y-107417095D01*
X123709066Y-107464368D01*
X123796325Y-107613469D01*
X123814833Y-107730000D01*
X123776636Y-107919378D01*
X123678176Y-108184362D01*
X123543495Y-108476300D01*
X123396639Y-108746541D01*
X123261650Y-108946434D01*
X123175162Y-109024333D01*
X123047941Y-108995708D01*
X122788966Y-108863851D01*
X122399938Y-108629757D01*
X121882561Y-108294421D01*
X121584805Y-108094868D01*
X121044369Y-107730812D01*
X120627511Y-107454267D01*
X120318412Y-107256609D01*
X120101252Y-107129210D01*
X119960215Y-107063445D01*
X119879481Y-107050686D01*
X119843231Y-107082309D01*
X119835566Y-107140966D01*
X119904029Y-107316843D01*
X120093710Y-107558033D01*
X120381049Y-107842028D01*
X120742486Y-108146318D01*
X121154460Y-108448394D01*
X121317233Y-108556547D01*
X121732531Y-108825049D01*
X122025479Y-109018038D01*
X122215833Y-109152091D01*
X122323346Y-109243782D01*
X122367773Y-109309687D01*
X122368868Y-109366382D01*
X122349376Y-109422596D01*
X122230355Y-109551893D01*
X121987014Y-109701267D01*
X121659845Y-109851940D01*
X121289343Y-109985132D01*
X120936233Y-110077929D01*
X120418262Y-110136999D01*
X119825021Y-110128435D01*
X119230825Y-110057930D01*
X118709984Y-109931176D01*
X118624522Y-109900852D01*
X118157235Y-109684108D01*
X117646786Y-109382525D01*
X117149875Y-109034530D01*
X116723198Y-108678547D01*
X116525680Y-108478443D01*
X116132614Y-107998447D01*
X115830466Y-107549098D01*
X115626924Y-107147802D01*
X115529675Y-106811967D01*
X115546406Y-106559001D01*
X115626862Y-106443159D01*
X115770162Y-106372273D01*
X116011035Y-106294458D01*
X116152097Y-106259238D01*
X116596008Y-106120076D01*
X117035331Y-105913971D01*
X117421530Y-105668886D01*
X117706072Y-105412780D01*
X117710568Y-105406900D01*
X120004900Y-105406900D01*
X120038885Y-105453597D01*
X120150893Y-105481652D01*
X120356005Y-105490564D01*
X120669301Y-105479830D01*
X121105859Y-105448947D01*
X121680761Y-105397414D01*
X122379241Y-105327798D01*
X123569371Y-105204573D01*
X124716430Y-105084080D01*
X125808936Y-104967623D01*
X126835407Y-104856503D01*
X127784361Y-104752023D01*
X128644317Y-104655484D01*
X129403792Y-104568190D01*
X130051304Y-104491441D01*
X130575372Y-104426542D01*
X130964513Y-104374793D01*
X131207246Y-104337497D01*
X131291420Y-104317033D01*
X131323383Y-104194714D01*
X131303408Y-104027713D01*
X131266130Y-103913696D01*
X131199528Y-103846908D01*
X131064654Y-103814738D01*
X130822563Y-103804577D01*
X130611818Y-103803800D01*
X130348215Y-103812801D01*
X129949045Y-103838476D01*
X129433178Y-103878829D01*
X128819481Y-103931865D01*
X128126824Y-103995590D01*
X127374075Y-104068009D01*
X126580103Y-104147127D01*
X125763776Y-104230949D01*
X124943963Y-104317480D01*
X124139532Y-104404725D01*
X123369352Y-104490690D01*
X122652291Y-104573380D01*
X122007219Y-104650800D01*
X121453003Y-104720954D01*
X121008512Y-104781849D01*
X120692616Y-104831489D01*
X120524181Y-104867879D01*
X120514672Y-104871302D01*
X120202905Y-105049060D01*
X120032270Y-105268744D01*
X120004900Y-105406900D01*
X117710568Y-105406900D01*
X117772761Y-105325566D01*
X117909326Y-105058976D01*
X118029499Y-104724120D01*
X118073792Y-104550749D01*
X118124376Y-104264720D01*
X118120914Y-104059427D01*
X118053337Y-103852087D01*
X117966635Y-103669713D01*
X117778387Y-103365384D01*
X117540001Y-103155845D01*
X117358855Y-103053219D01*
X116915832Y-102890215D01*
X116480976Y-102868742D01*
X116012032Y-102989190D01*
X115826816Y-103067329D01*
X115350743Y-103285282D01*
X114989655Y-103085264D01*
X114461101Y-102867408D01*
X113961976Y-102816244D01*
X113491095Y-102931920D01*
X113047276Y-103214585D01*
X112904717Y-103346368D01*
X112700697Y-103559027D01*
X112593755Y-103715783D01*
X112558598Y-103877777D01*
X112569934Y-104106151D01*
X112573747Y-104146431D01*
X112695094Y-104627383D01*
X112868087Y-104929934D01*
X113151923Y-105253085D01*
X113539473Y-105594985D01*
X113976016Y-105914610D01*
X114406833Y-106170937D01*
X114690045Y-106295841D01*
X114947026Y-106391163D01*
X115135547Y-106470997D01*
X115197614Y-106505574D01*
X115212631Y-106617853D01*
X115168834Y-106841202D01*
X115078912Y-107133197D01*
X114955551Y-107451410D01*
X114841799Y-107695395D01*
X114564187Y-108104339D01*
X114140941Y-108542159D01*
X113590097Y-108994292D01*
X112929689Y-109446175D01*
X112177750Y-109883245D01*
X112046233Y-109952877D01*
X111829128Y-110060283D01*
X111640717Y-110129748D01*
X111435130Y-110168822D01*
X111166496Y-110185055D01*
X110788945Y-110185996D01*
X110639996Y-110184330D01*
X110071978Y-110162739D01*
X109669326Y-110111949D01*
X109430028Y-110028409D01*
X109352071Y-109908569D01*
X109433444Y-109748879D01*
X109672133Y-109545789D01*
X110066126Y-109295749D01*
X110118917Y-109265194D01*
X110448462Y-109070082D01*
X110732870Y-108891147D01*
X110932436Y-108753897D01*
X110994368Y-108702740D01*
X111077012Y-108538780D01*
X111068639Y-108358581D01*
X110981915Y-108230271D01*
X110902102Y-108206466D01*
X110789050Y-108253113D01*
X110572444Y-108379514D01*
X110285333Y-108565360D01*
X110016494Y-108750680D01*
X109440839Y-109131949D01*
X108960817Y-109387997D01*
X108561347Y-109521731D01*
X108227348Y-109536055D01*
X107943739Y-109433875D01*
X107695440Y-109218096D01*
X107680589Y-109200715D01*
X107444228Y-108883133D01*
X107332144Y-108643564D01*
X107348840Y-108492885D01*
X107377226Y-108468093D01*
X107490785Y-108426647D01*
X107739479Y-108352564D01*
X108094101Y-108254009D01*
X108525440Y-108139146D01*
X108896412Y-108043468D01*
X109367581Y-107920221D01*
X109784832Y-107804672D01*
X110118897Y-107705436D01*
X110340511Y-107631127D01*
X110416400Y-107596078D01*
X110506158Y-107442963D01*
X110522233Y-107341488D01*
X110506581Y-107246485D01*
X110432227Y-107206479D01*
X110258080Y-107211470D01*
X110077733Y-107233335D01*
X109807946Y-107275988D01*
X109429296Y-107344921D01*
X108998191Y-107429548D01*
X108682171Y-107495280D01*
X108072177Y-107614729D01*
X107601872Y-107679906D01*
X107250674Y-107691181D01*
X106997995Y-107648924D01*
X106823251Y-107553504D01*
X106796900Y-107529133D01*
X106671934Y-107385061D01*
X106623879Y-107296300D01*
X106606773Y-107180801D01*
X106567969Y-106963987D01*
X106547769Y-106857591D01*
X106512501Y-106604890D01*
X106509483Y-106413281D01*
X106518182Y-106370758D01*
X106586268Y-106307932D01*
X106741442Y-106273311D01*
X106998391Y-106267539D01*
X107371803Y-106291258D01*
X107876365Y-106345113D01*
X108526764Y-106429747D01*
X108828049Y-106471936D01*
X109334063Y-106541335D01*
X109803944Y-106601099D01*
X110202834Y-106647147D01*
X110495874Y-106675402D01*
X110627216Y-106682466D01*
X110835790Y-106670770D01*
X110925226Y-106608861D01*
X110945423Y-106456509D01*
X110945566Y-106425809D01*
X110914335Y-106233389D01*
X110839733Y-106132518D01*
X110738018Y-106112912D01*
X110484801Y-106070093D01*
X110095946Y-106006587D01*
X109587318Y-105924921D01*
X108974781Y-105827622D01*
X108274197Y-105717215D01*
X107501432Y-105596228D01*
X106672349Y-105467187D01*
X106288900Y-105407749D01*
X105155310Y-105233788D01*
X104176074Y-105087256D01*
X103338655Y-104966917D01*
X102630516Y-104871539D01*
X102039123Y-104799886D01*
X101551937Y-104750724D01*
X101156423Y-104722818D01*
X100840044Y-104714935D01*
X100590265Y-104725840D01*
X100394548Y-104754299D01*
X100240358Y-104799076D01*
X100214066Y-104809601D01*
X100011338Y-104935540D01*
X99937616Y-105073099D01*
X94519520Y-105073099D01*
X94584310Y-104919666D01*
X94908173Y-104408279D01*
X95389228Y-103880056D01*
X96017425Y-103344683D01*
X96748312Y-102833814D01*
X97130900Y-102584265D01*
X97388414Y-102402861D01*
X97541481Y-102271458D01*
X97610727Y-102171914D01*
X97616779Y-102086085D01*
X97613396Y-102072874D01*
X97278127Y-100828539D01*
X97035387Y-99700396D01*
X96885142Y-98662840D01*
X96827358Y-97690267D01*
X96862004Y-96757070D01*
X96989045Y-95837647D01*
X97208450Y-94906391D01*
X97520185Y-93937698D01*
X97602626Y-93713087D01*
X97695827Y-93443645D01*
X98160900Y-93443645D01*
X98168413Y-93686168D01*
X98210955Y-93853040D01*
X98318525Y-94000153D01*
X98521127Y-94183404D01*
X98588250Y-94239830D01*
X98813925Y-94439927D01*
X98992386Y-94634744D01*
X99132753Y-94849840D01*
X99244148Y-95110772D01*
X99335691Y-95443098D01*
X99416502Y-95872377D01*
X99495703Y-96424166D01*
X99564616Y-96975813D01*
X99722769Y-98129264D01*
X99901448Y-99125974D01*
X100104541Y-99977719D01*
X100335933Y-100696271D01*
X100599513Y-101293404D01*
X100899167Y-101780893D01*
X101238782Y-102170511D01*
X101297555Y-102224974D01*
X101847128Y-102632209D01*
X102499704Y-102974631D01*
X103192105Y-103219938D01*
X103294956Y-103246230D01*
X103762843Y-103323851D01*
X104341674Y-103366225D01*
X104976887Y-103373903D01*
X105613921Y-103347433D01*
X106198212Y-103287364D01*
X106601612Y-103212964D01*
X107710219Y-102872691D01*
X108738301Y-102407136D01*
X109670156Y-101826647D01*
X110490083Y-101141571D01*
X111182380Y-100362256D01*
X111406863Y-100046354D01*
X111797662Y-99394858D01*
X112168821Y-98655570D01*
X112508192Y-97863261D01*
X112803624Y-97052705D01*
X113042969Y-96258677D01*
X113214078Y-95515949D01*
X113304803Y-94859296D01*
X113314743Y-94617466D01*
X117086518Y-94617466D01*
X117096763Y-95057638D01*
X117132019Y-95422975D01*
X117203717Y-95784311D01*
X117323290Y-96212478D01*
X117366640Y-96353133D01*
X117706358Y-97388384D01*
X118037461Y-98276909D01*
X118372683Y-99039967D01*
X118724757Y-99698813D01*
X119106416Y-100274706D01*
X119530392Y-100788902D01*
X120009419Y-101262659D01*
X120556229Y-101717233D01*
X120599766Y-101750715D01*
X121378309Y-102300449D01*
X122122727Y-102720638D01*
X122872249Y-103024550D01*
X123666103Y-103225455D01*
X124543519Y-103336620D01*
X125388856Y-103370508D01*
X125966243Y-103364748D01*
X126433069Y-103331208D01*
X126846615Y-103264516D01*
X127066437Y-103213212D01*
X127884875Y-102934904D01*
X128588152Y-102551071D01*
X129165728Y-102068906D01*
X129607062Y-101495601D01*
X129622797Y-101469059D01*
X129875177Y-100960722D01*
X130124299Y-100314113D01*
X130362144Y-99560226D01*
X130580691Y-98730056D01*
X130771919Y-97854596D01*
X130927808Y-96964842D01*
X131040338Y-96091787D01*
X131056207Y-95929800D01*
X131127798Y-95410443D01*
X131247175Y-95010517D01*
X131436583Y-94682053D01*
X131718267Y-94377087D01*
X131817146Y-94288992D01*
X132081206Y-94042906D01*
X132227265Y-93854121D01*
X132280026Y-93688782D01*
X132281566Y-93652581D01*
X132243999Y-93464868D01*
X132143745Y-93184873D01*
X131999474Y-92850115D01*
X131829858Y-92498113D01*
X131653567Y-92166386D01*
X131489273Y-91892453D01*
X131355646Y-91713833D01*
X131293129Y-91666323D01*
X131157658Y-91642943D01*
X130879134Y-91607234D01*
X130483177Y-91561789D01*
X129995408Y-91509200D01*
X129441448Y-91452060D01*
X128846919Y-91392964D01*
X128237441Y-91334503D01*
X127638635Y-91279271D01*
X127076123Y-91229860D01*
X126575524Y-91188865D01*
X126575438Y-91188858D01*
X125898739Y-91147646D01*
X125139536Y-91120787D01*
X124339942Y-91108207D01*
X123542075Y-91109832D01*
X122788049Y-91125590D01*
X122119978Y-91155409D01*
X121595720Y-91197502D01*
X120754982Y-91317396D01*
X119962088Y-91487318D01*
X119240265Y-91699136D01*
X118612738Y-91944720D01*
X118102735Y-92215941D01*
X117733483Y-92504669D01*
X117672591Y-92570725D01*
X117404296Y-92952297D01*
X117223974Y-93383081D01*
X117121472Y-93898526D01*
X117086641Y-94534084D01*
X117086518Y-94617466D01*
X113314743Y-94617466D01*
X113316233Y-94581231D01*
X113270765Y-93896108D01*
X113126699Y-93316598D01*
X112872543Y-92829991D01*
X112496804Y-92423577D01*
X112239230Y-92252002D01*
X113326936Y-92252002D01*
X113340043Y-92339230D01*
X113404654Y-92539667D01*
X113506877Y-92810326D01*
X113509354Y-92816522D01*
X113633421Y-93171068D01*
X113734022Y-93537907D01*
X113779265Y-93772670D01*
X113833636Y-94168247D01*
X113877382Y-94421865D01*
X113920430Y-94559645D01*
X113972710Y-94607711D01*
X114044148Y-94592183D01*
X114083233Y-94572457D01*
X114247235Y-94518237D01*
X114519566Y-94460268D01*
X114827471Y-94413008D01*
X115315725Y-94378341D01*
X115769881Y-94413467D01*
X116279855Y-94525445D01*
X116288045Y-94527653D01*
X116410948Y-94552094D01*
X116482172Y-94517880D01*
X116523212Y-94390045D01*
X116555563Y-94133626D01*
X116560774Y-94084028D01*
X116615196Y-93742769D01*
X116707375Y-93331261D01*
X116817382Y-92938460D01*
X116817647Y-92937624D01*
X116909970Y-92651696D01*
X116958229Y-92455164D01*
X116940804Y-92327659D01*
X116836078Y-92248810D01*
X116622434Y-92198249D01*
X116278253Y-92155604D01*
X115949648Y-92119730D01*
X115302080Y-92074816D01*
X114646442Y-92091661D01*
X114256315Y-92126416D01*
X113886143Y-92168228D01*
X113583919Y-92206768D01*
X113385836Y-92237146D01*
X113326936Y-92252002D01*
X112239230Y-92252002D01*
X111987990Y-92084647D01*
X111334608Y-91800491D01*
X110600312Y-91577654D01*
X110065498Y-91444397D01*
X109589728Y-91341491D01*
X109137132Y-91265146D01*
X108671839Y-91211568D01*
X108157982Y-91176965D01*
X107559691Y-91157544D01*
X106841095Y-91149514D01*
X106542900Y-91148677D01*
X105781478Y-91152348D01*
X105067883Y-91166810D01*
X104368933Y-91194182D01*
X103651443Y-91236580D01*
X102882233Y-91296122D01*
X102028117Y-91374927D01*
X101055914Y-91475112D01*
X100525830Y-91532710D01*
X100041689Y-91585680D01*
X99617057Y-91631511D01*
X99280086Y-91667216D01*
X99058927Y-91689805D01*
X98982732Y-91696466D01*
X98918162Y-91764619D01*
X98792319Y-91947017D01*
X98627391Y-92210568D01*
X98543968Y-92350863D01*
X98348773Y-92701203D01*
X98232125Y-92965172D01*
X98175631Y-93195237D01*
X98160900Y-93443645D01*
X97695827Y-93443645D01*
X97732631Y-93337247D01*
X97833994Y-92989351D01*
X97893113Y-92719128D01*
X97902667Y-92616084D01*
X97895156Y-92489561D01*
X97867789Y-92456350D01*
X97805819Y-92532160D01*
X97694501Y-92732705D01*
X97573824Y-92966466D01*
X97205115Y-93793907D01*
X96889011Y-94712605D01*
X96650304Y-95646786D01*
X96585499Y-95987411D01*
X96489947Y-96832451D01*
X96466120Y-97776575D01*
X96509777Y-98771063D01*
X96616677Y-99767192D01*
X96782576Y-100716243D01*
X97003234Y-101569493D01*
X97095434Y-101844315D01*
X97167356Y-102075798D01*
X97196513Y-102237649D01*
X97191631Y-102272683D01*
X97107948Y-102339091D01*
X96911303Y-102471076D01*
X96634104Y-102647378D01*
X96409039Y-102786048D01*
X95853303Y-103164552D01*
X95326797Y-103598070D01*
X94861197Y-104055564D01*
X94488174Y-104505996D01*
X94244699Y-104906933D01*
X93997227Y-105583739D01*
X93837389Y-106344876D01*
X93776829Y-107123348D01*
X93789426Y-107526277D01*
X93866236Y-108232632D01*
X93983228Y-108881231D01*
X94131986Y-109432511D01*
X94268154Y-109776769D01*
X94604803Y-110312217D01*
X95044116Y-110768598D01*
X95552815Y-111120380D01*
X96097624Y-111342034D01*
X96379858Y-111396888D01*
X96631312Y-111433129D01*
X96757389Y-111485614D01*
X96801275Y-111586724D01*
X96806233Y-111716559D01*
X96851020Y-112083369D01*
X96974158Y-112537003D01*
X97158811Y-113024235D01*
X97339442Y-113402314D01*
X97743102Y-114007024D01*
X98267848Y-114552488D01*
X98876157Y-115009004D01*
X99530503Y-115346871D01*
X99981233Y-115493358D01*
X100458821Y-115646974D01*
X100773883Y-115835142D01*
X100924614Y-116056766D01*
X100927639Y-116068043D01*
X100933099Y-116186121D01*
X100872519Y-116313108D01*
X100723655Y-116479445D01*
X100464262Y-116715576D01*
X100437320Y-116739044D01*
X99573947Y-117547171D01*
X98740972Y-118437661D01*
X97956711Y-119384863D01*
X97239481Y-120363125D01*
X96607598Y-121346794D01*
X96079378Y-122310221D01*
X95673136Y-123227751D01*
X95543396Y-123592948D01*
X95344005Y-124248284D01*
X95196750Y-124850238D01*
X95094753Y-125446065D01*
X95031135Y-126083020D01*
X94999016Y-126808361D01*
X94991631Y-127383466D01*
X94992132Y-127916273D01*
X94997140Y-128428656D01*
X95005936Y-128880873D01*
X95017802Y-129233181D01*
X95028233Y-129407346D01*
X95070566Y-129907225D01*
X94531312Y-130017919D01*
X93884409Y-130207519D01*
X93213071Y-130503472D01*
X92588899Y-130872668D01*
X92418501Y-130995056D01*
X91965318Y-131337213D01*
X91316609Y-131041606D01*
X90623164Y-130747946D01*
X90009986Y-130542560D01*
X89422591Y-130411174D01*
X88806493Y-130339515D01*
X88587065Y-130326516D01*
X87735878Y-130345048D01*
X86990967Y-130491601D01*
X86340663Y-130773018D01*
X85773298Y-131196142D01*
X85277202Y-131767816D01*
X84840707Y-132494883D01*
X84820170Y-132535573D01*
X84660084Y-132865351D01*
X84534023Y-133144213D01*
X84458736Y-133334032D01*
X84444900Y-133389816D01*
X84380757Y-133500773D01*
X84181199Y-133605154D01*
X83835527Y-133706826D01*
X83333043Y-133809656D01*
X83236302Y-133826660D01*
X82399083Y-134043237D01*
X81663997Y-134381854D01*
X81040509Y-134834082D01*
X80538088Y-135391492D01*
X80166200Y-136045658D01*
X79939831Y-136761380D01*
X79892200Y-137060898D01*
X79882776Y-137365277D01*
X79912079Y-137735284D01*
X79950622Y-138029202D01*
X80028648Y-138570362D01*
X80082205Y-138973368D01*
X80106756Y-139268223D01*
X80097763Y-139484930D01*
X80050690Y-139653492D01*
X79961000Y-139803911D01*
X79824156Y-139966189D01*
X79635620Y-140170329D01*
X79625103Y-140181794D01*
X79202250Y-140714679D01*
X78828347Y-141321732D01*
X78533447Y-141947286D01*
X78347603Y-142535677D01*
X78343165Y-142556226D01*
X78293901Y-142999926D01*
X78063864Y-142999926D01*
X78064496Y-142894692D01*
X78081650Y-142564547D01*
X78120612Y-142301811D01*
X78188729Y-142055595D01*
X78285243Y-141795420D01*
X78704377Y-140952558D01*
X79279927Y-140137763D01*
X79511156Y-139868266D01*
X79670203Y-139691501D01*
X79777087Y-139552630D01*
X79836231Y-139416143D01*
X79852056Y-139246532D01*
X79828984Y-139008289D01*
X79771438Y-138665903D01*
X79705784Y-138305466D01*
X79626620Y-137452138D01*
X79704766Y-136648723D01*
X79937355Y-135904190D01*
X80321523Y-135227506D01*
X80854403Y-134627639D01*
X80892019Y-134593407D01*
X81502484Y-134152474D01*
X82232438Y-133812982D01*
X83058497Y-133585482D01*
X83172056Y-133564626D01*
X83523795Y-133501006D01*
X83818808Y-133442885D01*
X84012141Y-133399324D01*
X84054225Y-133386796D01*
X84150360Y-133286066D01*
X84263194Y-133080253D01*
X84319304Y-132944858D01*
X84695722Y-132147099D01*
X85197540Y-131416493D01*
X85374844Y-131211105D01*
X85940939Y-130713630D01*
X86600727Y-130349057D01*
X87341793Y-130118321D01*
X88151723Y-130022357D01*
X89018102Y-130062101D01*
X89928516Y-130238488D01*
X90870551Y-130552452D01*
X91349009Y-130761065D01*
X91945451Y-131041602D01*
X92238009Y-130791220D01*
X92535692Y-130579403D01*
X92940603Y-130347951D01*
X93397160Y-130123779D01*
X93849781Y-129933803D01*
X94242884Y-129804937D01*
X94306656Y-129789493D01*
X94755030Y-129689151D01*
X94711463Y-128112975D01*
X94718087Y-126774804D01*
X94821186Y-125551462D01*
X95029059Y-124413216D01*
X95350005Y-123330330D01*
X95792323Y-122273072D01*
X96364311Y-121211706D01*
X96852711Y-120440800D01*
X97354055Y-119731801D01*
X97914443Y-119008330D01*
X98507953Y-118299605D01*
X99108665Y-117634845D01*
X99690659Y-117043268D01*
X100228014Y-116554093D01*
X100483248Y-116348323D01*
X100639204Y-116215363D01*
X100671693Y-116124891D01*
X100602758Y-116030706D01*
X100453889Y-115940655D01*
X100201341Y-115840311D01*
X99973743Y-115771690D01*
X99297578Y-115547030D01*
X98713180Y-115237640D01*
X98163675Y-114810742D01*
X97941818Y-114600645D01*
X97388113Y-113951670D01*
X96961200Y-113237117D01*
X96678905Y-112489082D01*
X96614905Y-112211448D01*
X96556622Y-111927853D01*
X96497332Y-111768266D01*
X96405260Y-111690179D01*
X96248630Y-111651086D01*
X96188711Y-111641312D01*
X95707454Y-111497558D01*
X95211811Y-111233122D01*
X94760261Y-110880177D01*
X94701389Y-110823034D01*
X94314529Y-110374182D01*
X94016377Y-109879043D01*
X93799355Y-109313524D01*
X93655887Y-108653530D01*
X93578394Y-107874967D01*
X93558969Y-107190466D01*
X93558996Y-106691806D01*
X93568172Y-106321279D01*
X93591307Y-106037741D01*
X93633211Y-105800049D01*
X93698694Y-105567058D01*
X93774386Y-105347803D01*
X94005519Y-104794038D01*
X94286072Y-104300979D01*
X94635896Y-103847958D01*
X95074842Y-103414308D01*
X95622761Y-102979361D01*
X96299504Y-102522449D01*
X96761802Y-102237466D01*
X96825666Y-102183864D01*
X96850070Y-102098877D01*
X96832076Y-101947401D01*
X96768745Y-101694334D01*
X96694473Y-101433133D01*
X96464942Y-100474577D01*
X96303004Y-99443041D01*
X96211751Y-98386285D01*
X96194277Y-97352068D01*
X96253673Y-96388148D01*
X96332131Y-95837494D01*
X96651704Y-94537303D01*
X97133029Y-93256837D01*
X97768646Y-92009440D01*
X98551095Y-90808458D01*
X99472914Y-89667234D01*
X100213263Y-88895364D01*
X100873812Y-88253261D01*
X100527116Y-87752364D01*
X99606143Y-86405521D01*
X98780279Y-85161486D01*
X98034101Y-83994786D01*
X97352182Y-82879950D01*
X96719096Y-81791506D01*
X96119419Y-80703981D01*
X95537725Y-79591903D01*
X95298933Y-79119116D01*
X94319764Y-77047784D01*
X93484527Y-75032608D01*
X92786011Y-73053395D01*
X92217006Y-71089952D01*
X91823329Y-69386800D01*
X91588150Y-67967590D01*
X91499598Y-66832186D01*
X91745266Y-66832186D01*
X91800117Y-67549146D01*
X91972228Y-68738554D01*
X92236733Y-70037640D01*
X92586080Y-71419392D01*
X93012718Y-72856795D01*
X93509096Y-74322838D01*
X94067663Y-75790505D01*
X94183547Y-76075466D01*
X94656149Y-77159882D01*
X95220805Y-78345136D01*
X95860960Y-79602153D01*
X96560061Y-80901856D01*
X97301552Y-82215169D01*
X98068880Y-83513015D01*
X98845489Y-84766318D01*
X99614825Y-85946002D01*
X100360334Y-87022989D01*
X100619721Y-87379999D01*
X100881687Y-87746300D01*
X101037308Y-88018162D01*
X101084369Y-88234677D01*
X101020654Y-88434939D01*
X100843947Y-88658041D01*
X100552031Y-88943078D01*
X100529936Y-88963817D01*
X100038821Y-89456782D01*
X99509794Y-90043552D01*
X98989237Y-90671066D01*
X98640804Y-91124966D01*
X98406282Y-91442466D01*
X98604003Y-91442466D01*
X98811356Y-91360055D01*
X98960523Y-91173639D01*
X99176068Y-90857727D01*
X99491921Y-90460370D01*
X99881478Y-90012226D01*
X100318136Y-89543952D01*
X100754769Y-89106033D01*
X101057381Y-88809201D01*
X101277660Y-88565926D01*
X101413927Y-88350377D01*
X101464504Y-88136724D01*
X101427714Y-87899136D01*
X101301879Y-87611784D01*
X101085320Y-87248838D01*
X100776361Y-86784467D01*
X100585805Y-86504853D01*
X99093951Y-84244975D01*
X99045004Y-84165156D01*
X123391566Y-84165156D01*
X123454571Y-84298034D01*
X123651977Y-84413380D01*
X123996375Y-84516675D01*
X124371550Y-84591779D01*
X124831159Y-84714536D01*
X125187829Y-84920052D01*
X125478294Y-85237595D01*
X125727609Y-85672230D01*
X125933339Y-86043243D01*
X126132311Y-86259958D01*
X126353902Y-86329793D01*
X126627488Y-86260169D01*
X126982448Y-86058502D01*
X127058045Y-86008215D01*
X127430568Y-85750906D01*
X127901291Y-85417158D01*
X128433942Y-85033442D01*
X128992245Y-84626227D01*
X129539927Y-84221982D01*
X130040712Y-83847178D01*
X130458328Y-83528284D01*
X130486016Y-83506790D01*
X131188133Y-82960960D01*
X131011680Y-82693213D01*
X130447685Y-81699925D01*
X130007113Y-80615699D01*
X129687922Y-79432581D01*
X129488073Y-78142616D01*
X129405524Y-76737850D01*
X129402900Y-76422070D01*
X129402900Y-75324285D01*
X129036662Y-75869209D01*
X128865322Y-76112136D01*
X128612640Y-76454739D01*
X128303136Y-76864530D01*
X127961331Y-77309023D01*
X127634852Y-77726466D01*
X127226454Y-78256090D01*
X126791441Y-78841758D01*
X126340844Y-79466735D01*
X125885692Y-80114285D01*
X125437013Y-80767673D01*
X125005839Y-81410162D01*
X124603197Y-82025016D01*
X124240117Y-82595501D01*
X123927629Y-83104880D01*
X123676762Y-83536417D01*
X123498546Y-83873377D01*
X123404009Y-84099024D01*
X123391566Y-84165156D01*
X99045004Y-84165156D01*
X97751225Y-82055375D01*
X96555207Y-79930786D01*
X95503478Y-77865938D01*
X94593620Y-75855562D01*
X93823211Y-73894390D01*
X93189835Y-71977153D01*
X92691071Y-70098581D01*
X92395794Y-68667133D01*
X92301632Y-68038708D01*
X92231059Y-67351901D01*
X92222230Y-67215500D01*
X97167179Y-67215500D01*
X97169539Y-67270133D01*
X97269707Y-68365014D01*
X97476119Y-69538806D01*
X97790861Y-70797877D01*
X98216017Y-72148595D01*
X98753674Y-73597330D01*
X99405915Y-75150450D01*
X100174827Y-76814323D01*
X100537736Y-77557133D01*
X100854118Y-78185463D01*
X101197319Y-78850116D01*
X101556379Y-79531308D01*
X101920337Y-80209253D01*
X102278234Y-80864165D01*
X102619109Y-81476261D01*
X102932002Y-82025753D01*
X103205954Y-82492859D01*
X103430004Y-82857791D01*
X103593192Y-83100766D01*
X103644950Y-83166300D01*
X103798070Y-83284904D01*
X103975538Y-83292613D01*
X104207928Y-83183267D01*
X104460839Y-83002001D01*
X104702807Y-82790089D01*
X104900626Y-82575734D01*
X104982645Y-82456045D01*
X105212391Y-82159715D01*
X105541991Y-81909610D01*
X105902461Y-81754267D01*
X106010563Y-81732824D01*
X106239313Y-81723414D01*
X106577154Y-81734402D01*
X106965399Y-81763302D01*
X107129953Y-81780248D01*
X107567075Y-81823983D01*
X107861758Y-81826187D01*
X108039412Y-81767682D01*
X108125450Y-81629287D01*
X108145283Y-81391823D01*
X108124323Y-81036111D01*
X108123854Y-81030101D01*
X108082593Y-80610501D01*
X108014058Y-80045710D01*
X107921359Y-79357119D01*
X107807610Y-78566122D01*
X107675922Y-77694110D01*
X107529408Y-76762477D01*
X107371180Y-75792615D01*
X107300033Y-75367467D01*
X106974870Y-73602296D01*
X106611197Y-71928013D01*
X106212391Y-70354669D01*
X105781828Y-68892315D01*
X105322887Y-67551005D01*
X104838944Y-66340789D01*
X104333376Y-65271720D01*
X103809561Y-64353851D01*
X103401603Y-63763929D01*
X103059828Y-63343950D01*
X102743361Y-63035095D01*
X102401180Y-62797334D01*
X101982259Y-62590638D01*
X101819711Y-62522921D01*
X101100479Y-62316169D01*
X100390811Y-62276060D01*
X99701644Y-62399909D01*
X99043919Y-62685032D01*
X98428574Y-63128745D01*
X98120107Y-63430812D01*
X97736024Y-63951856D01*
X97450732Y-64582598D01*
X97262188Y-65331287D01*
X97168352Y-66206171D01*
X97167179Y-67215500D01*
X92222230Y-67215500D01*
X92185340Y-66645589D01*
X92165741Y-65958649D01*
X92173525Y-65329957D01*
X92209958Y-64798392D01*
X92259391Y-64474734D01*
X92561519Y-63439192D01*
X93008230Y-62448431D01*
X93583565Y-61521163D01*
X94271566Y-60676101D01*
X95056274Y-59931958D01*
X95921729Y-59307446D01*
X96851975Y-58821280D01*
X97197370Y-58684558D01*
X97931655Y-58456485D01*
X98643137Y-58322062D01*
X99373397Y-58279044D01*
X100164018Y-58325183D01*
X101056582Y-58458236D01*
X101131198Y-58472108D01*
X102193763Y-58727197D01*
X103152604Y-59078430D01*
X104020685Y-59536450D01*
X104810970Y-60111901D01*
X105536422Y-60815427D01*
X106210005Y-61657673D01*
X106844683Y-62649281D01*
X107339102Y-63569179D01*
X107964484Y-64912103D01*
X108537689Y-66343956D01*
X109060893Y-67873917D01*
X109536270Y-69511164D01*
X109965995Y-71264876D01*
X110352244Y-73144230D01*
X110697191Y-75158405D01*
X111003012Y-77316579D01*
X111271881Y-79627931D01*
X111366220Y-80562800D01*
X111439301Y-81315565D01*
X111498288Y-81916801D01*
X111545335Y-82383532D01*
X111582599Y-82732779D01*
X111612234Y-82981567D01*
X111636395Y-83146918D01*
X111657237Y-83245856D01*
X111676915Y-83295403D01*
X111697584Y-83312582D01*
X111714572Y-83314466D01*
X111819542Y-83298064D01*
X112059931Y-83252815D01*
X112405433Y-83184651D01*
X112825745Y-83099507D01*
X113082092Y-83046706D01*
X114250268Y-82851035D01*
X115361262Y-82766801D01*
X116457571Y-82795566D01*
X117581694Y-82938892D01*
X118776130Y-83198340D01*
X119031233Y-83265391D01*
X119380508Y-83361212D01*
X119676008Y-83445192D01*
X119873402Y-83504602D01*
X119920233Y-83520633D01*
X119988204Y-83502990D01*
X120078951Y-83392080D01*
X120202010Y-83171043D01*
X120366921Y-82823019D01*
X120551258Y-82405214D01*
X120837355Y-81764832D01*
X121183442Y-81024014D01*
X121572507Y-80216602D01*
X121987536Y-79376439D01*
X122411516Y-78537367D01*
X122827433Y-77733230D01*
X123218274Y-76997868D01*
X123567025Y-76365126D01*
X123733360Y-76075466D01*
X124272950Y-75186466D01*
X129402900Y-75186466D01*
X129433878Y-75256156D01*
X129459344Y-75242911D01*
X129469477Y-75142431D01*
X129459344Y-75130022D01*
X129409010Y-75141644D01*
X129402900Y-75186466D01*
X124272950Y-75186466D01*
X124699647Y-74483464D01*
X125644123Y-73049273D01*
X126574986Y-71764055D01*
X127500435Y-70618968D01*
X128428670Y-69605172D01*
X129367891Y-68713826D01*
X130326296Y-67936091D01*
X131312084Y-67263126D01*
X132333455Y-66686090D01*
X132535566Y-66584924D01*
X133132256Y-66308932D01*
X133638873Y-66118116D01*
X134103726Y-66000059D01*
X134575125Y-65942348D01*
X135075566Y-65932145D01*
X135971931Y-66023437D01*
X136810403Y-66271160D01*
X137595605Y-66677483D01*
X138332159Y-67244575D01*
X138745507Y-67655155D01*
X139380850Y-68406875D01*
X139967058Y-69238968D01*
X140508821Y-70162729D01*
X141010829Y-71189454D01*
X141477771Y-72330436D01*
X141914337Y-73596972D01*
X142325216Y-75000356D01*
X142715097Y-76551884D01*
X143028255Y-77970505D01*
X143229668Y-78959124D01*
X143390745Y-79808398D01*
X143514885Y-80542569D01*
X143605491Y-81185879D01*
X143665964Y-81762570D01*
X143699703Y-82296885D01*
X143710112Y-82813066D01*
X143710096Y-82830544D01*
X143674219Y-83682761D01*
X143563804Y-84422135D01*
X143370387Y-85091733D01*
X143174558Y-85555704D01*
X142730841Y-86316280D01*
X142187978Y-86956192D01*
X141558645Y-87463726D01*
X140855519Y-87827169D01*
X140630053Y-87907000D01*
X140334172Y-87987943D01*
X140044966Y-88031375D01*
X139703691Y-88042473D01*
X139266566Y-88027204D01*
X138628463Y-87970460D01*
X138003765Y-87862933D01*
X137373366Y-87696648D01*
X136718159Y-87463629D01*
X136019036Y-87155900D01*
X135256890Y-86765487D01*
X134412614Y-86284414D01*
X133467101Y-85704706D01*
X133018783Y-85419353D01*
X132625370Y-85168227D01*
X132283126Y-84952825D01*
X132016693Y-84788412D01*
X131850717Y-84690253D01*
X131807637Y-84669133D01*
X131700533Y-84719210D01*
X131477307Y-84861230D01*
X131155267Y-85082880D01*
X130751725Y-85371844D01*
X130283988Y-85715808D01*
X129769366Y-86102457D01*
X129445233Y-86349855D01*
X129046448Y-86655933D01*
X128695849Y-86924869D01*
X128414749Y-87140327D01*
X128224463Y-87285969D01*
X128146306Y-87345458D01*
X128145813Y-87345815D01*
X128192664Y-87408386D01*
X128341459Y-87566017D01*
X128571204Y-87797317D01*
X128860907Y-88080896D01*
X128977805Y-88193554D01*
X129979549Y-89230012D01*
X130820313Y-90263049D01*
X131241619Y-90870966D01*
X131429422Y-91138268D01*
X131597601Y-91338698D01*
X131716249Y-91437638D01*
X131735335Y-91442466D01*
X131845594Y-91416637D01*
X131858233Y-91396309D01*
X131813922Y-91310220D01*
X131695312Y-91118652D01*
X131523885Y-90855764D01*
X131431637Y-90717964D01*
X131026787Y-90154122D01*
X130558435Y-89560607D01*
X130064777Y-88982319D01*
X129584012Y-88464160D01*
X129189517Y-88082379D01*
X128641877Y-87590133D01*
X129833880Y-86658800D01*
X130249922Y-86337144D01*
X130648951Y-86034807D01*
X131000111Y-85774714D01*
X131272545Y-85579796D01*
X131406344Y-85490357D01*
X131786805Y-85253249D01*
X132817352Y-85920831D01*
X133826003Y-86556848D01*
X134731687Y-87088415D01*
X135556433Y-87525321D01*
X136322268Y-87877352D01*
X137051219Y-88154298D01*
X137765314Y-88365945D01*
X138486581Y-88522083D01*
X138781951Y-88571175D01*
X139622645Y-88618431D01*
X140433173Y-88505515D01*
X141197653Y-88240984D01*
X141900207Y-87833395D01*
X142524954Y-87291307D01*
X143056014Y-86623277D01*
X143352020Y-86108466D01*
X143605090Y-85560539D01*
X143786287Y-85056337D01*
X143908567Y-84542150D01*
X143984886Y-83964268D01*
X144026391Y-83312732D01*
X144039312Y-82883034D01*
X144037818Y-82478717D01*
X144018929Y-82072106D01*
X143979667Y-81635523D01*
X143917050Y-81141290D01*
X143828099Y-80561732D01*
X143709833Y-79869170D01*
X143575335Y-79123466D01*
X143181417Y-77168259D01*
X142744894Y-75372599D01*
X142264075Y-73731718D01*
X141737270Y-72240845D01*
X141162786Y-70895213D01*
X140538932Y-69690051D01*
X139864018Y-68620592D01*
X139837273Y-68582466D01*
X139470471Y-68114257D01*
X139025863Y-67628176D01*
X138544671Y-67163826D01*
X138068119Y-66760811D01*
X137637429Y-66458737D01*
X137609249Y-66441916D01*
X136968750Y-66113101D01*
X136337552Y-65898389D01*
X135659967Y-65783364D01*
X134948566Y-65753192D01*
X134485778Y-65761242D01*
X134130575Y-65788452D01*
X133821513Y-65843835D01*
X133497148Y-65936400D01*
X133339900Y-65989108D01*
X132305942Y-66422603D01*
X131252049Y-67013737D01*
X130188104Y-67753462D01*
X129123991Y-68632730D01*
X128069595Y-69642492D01*
X127034799Y-70773701D01*
X126029487Y-72017307D01*
X125063544Y-73364265D01*
X124726436Y-73874133D01*
X123863854Y-75264084D01*
X122992344Y-76776076D01*
X122135545Y-78365976D01*
X121317093Y-79989652D01*
X120560626Y-81602972D01*
X120428643Y-81898397D01*
X120193206Y-82421600D01*
X120011785Y-82803953D01*
X119875337Y-83061759D01*
X119774819Y-83211324D01*
X119701189Y-83268949D01*
X119669261Y-83267515D01*
X119348200Y-83161136D01*
X118905252Y-83041152D01*
X118386239Y-82917360D01*
X117836981Y-82799557D01*
X117303301Y-82697541D01*
X116831019Y-82621109D01*
X116465958Y-82580057D01*
X116448900Y-82578960D01*
X115793423Y-82567640D01*
X115032518Y-82601332D01*
X114222563Y-82675134D01*
X113419941Y-82784147D01*
X112813536Y-82894969D01*
X112393767Y-82974069D01*
X112120848Y-83004623D01*
X111979794Y-82987923D01*
X111957291Y-82968883D01*
X111926107Y-82847634D01*
X111890736Y-82600871D01*
X111856904Y-82272123D01*
X111843081Y-82100553D01*
X111805030Y-81644468D01*
X111749060Y-81055960D01*
X111679117Y-80370520D01*
X111599146Y-79623642D01*
X111513094Y-78850817D01*
X111424909Y-78087537D01*
X111338535Y-77369296D01*
X111257919Y-76731585D01*
X111191986Y-76244800D01*
X110847351Y-74078989D01*
X110444518Y-72020452D01*
X109985935Y-70076903D01*
X109474046Y-68256056D01*
X108911300Y-66565625D01*
X108300143Y-65013324D01*
X107643020Y-63606868D01*
X106942380Y-62353971D01*
X106633912Y-61872694D01*
X105956625Y-60958327D01*
X105241955Y-60197097D01*
X104467422Y-59573467D01*
X103610546Y-59071899D01*
X102648846Y-58676853D01*
X101575510Y-58376365D01*
X100411638Y-58169679D01*
X99328273Y-58104952D01*
X98308696Y-58185507D01*
X97336189Y-58414663D01*
X96394031Y-58795742D01*
X95465503Y-59332066D01*
X94959797Y-59690475D01*
X94080148Y-60455264D01*
X93335223Y-61318683D01*
X92728273Y-62272646D01*
X92262551Y-63309066D01*
X91941308Y-64419853D01*
X91767796Y-65596923D01*
X91745266Y-66832186D01*
X91499598Y-66832186D01*
X91485301Y-66648877D01*
X91516255Y-65423685D01*
X91682484Y-64285038D01*
X91985462Y-63225961D01*
X92426661Y-62239478D01*
X93007555Y-61318613D01*
X93703134Y-60484392D01*
X94295865Y-59893808D01*
X94866812Y-59415049D01*
X95469504Y-59008277D01*
X96157470Y-58633654D01*
X96252977Y-58586689D01*
X97224313Y-58181962D01*
X98178519Y-57929520D01*
X99148254Y-57824860D01*
X100166175Y-57863482D01*
G37*
D12*
%TO.C,D2*%
X104295000Y-97955000D02*
X104295000Y-98111000D01*
%TD*%
M02*
