<?xml version="1.0" encoding="UTF-8"?>
<svg xmlns="http://www.w3.org/2000/svg" width="251.313mm" height="133.442mm" viewBox="116.764542 70.014099 251.313309 133.442291">
    <path transform="translate(-28.13884,-148.067963)" style="stroke:#000000;stroke-width:0.05mm;fill:none" d="M190.762146,350.925293C186.223328,346.079376,180.421173,350.018005,174.75058,350.526031C166.988815,351.456207,161.963654,342.520416,162.913513,335.648743C163.125778,329.854279,168.731323,324.363556,174.699814,326.489532C182.67244,327.866943,179.182449,318.296234,181.492981,313.861023C181.243546,306.951874,173.495163,311.323547,169.553436,311.627777C164.474243,312.343811,159.228302,309.467102,157.351212,304.601624C156.086899,299.556763,152.088928,296.189941,149.416656,291.940552C144.068176,284.335358,142.92247,273.123932,148.99733,265.602936C154.060547,259.034271,163.458954,258.691711,170.651459,261.513672C174.975327,262.645844,179.763474,267.579437,182.911102,261.842621C186.211395,257.919159,192.913345,258.044464,194.910461,253.307526C198.082504,253.294922,201.382278,249.042542,203.907349,253.072632C208.376617,254.952927,213.590134,255.981445,218.138062,258.365234C221.560577,261.548279,225.1539,261.886047,228.563446,258.436646C235.149292,254.075394,244.464584,251.368546,251.43132,256.490295C257.803894,260.911804,260.127106,269.585022,258.720581,276.908783C257.847168,282.320129,255.392227,287.22406,252.316696,291.689941C250.738083,296.589691,250.18602,303.087036,244.588211,305.218384C239.850418,308.683838,233.406982,303.843781,229.401001,307.163116C224.751724,310.034698,232.902618,315.069122,229.436096,319.721008C227.58931,326.438354,234.048798,327.216949,239.065781,326.194855C245.821823,327.356201,247.96283,335.644043,246.238556,341.418579C244.899979,347.234283,238.8564,352.328308,232.728561,350.111328C228.809937,350.440308,223.672348,345.713135,220.915436,350.080841C215.790909,352.182983,208.965958,350.910858,205.147263,346.731995C201.45195,349.65033,195.962204,351.907776,190.76207,350.925232L190.762146,350.925293z"/>
    <path transform="translate(97.990143,-151.246002)" style="stroke:#000000;stroke-width:0.05mm;fill:none" d="M192.941223,349.871246C194.60199,345.25769,186.379669,349.396271,192.092819,349.955444L192.941223,349.871246z"/>
    <path transform="translate(97.990143,-151.246002)" style="stroke:#000000;stroke-width:0.05mm;fill:none" d="M219.114456,349.616791C221.071701,345.147888,212.980103,349.667603,217.81488,349.911926L218.638123,349.829529L219.114456,349.616791z"/>
    <path transform="translate(97.990143,-151.246002)" style="stroke:#000000;stroke-width:0.05mm;fill:none" d="M196.585648,349.683594C202.344757,348.265076,193.288864,344.444855,195.755051,349.715698L196.585648,349.683594z"/>
    <path transform="translate(97.990143,-151.246002)" style="stroke:#000000;stroke-width:0.05mm;fill:none" d="M213.92157,349.635986C215.432648,342.513397z"/>
    <path transform="translate(97.990143,-151.246002)" style="stroke:#000000;stroke-width:0.05mm;fill:none" d="M175.025467,349.24942C182.206848,347.005035,182.781052,337.035095,178.917404,331.641663C177.412994,328.324921,173.794067,330.809418,171.363144,329.679077C168.379059,330.381836,166.275986,332.715057,164.294128,334.595154C163.120682,340.808838,166.599045,348.893799,173.560486,349.387177L174.477982,349.357391L175.025467,349.24942z"/>
    <path transform="translate(97.990143,-151.246002)" style="stroke:#000000;stroke-width:0.05mm;fill:none" d="M237.722626,349.210327C243.913849,347.231262,247.285645,339.037201,244.64621,333.249969C241.198257,332.751099,238.934448,327.39505,234.809784,330.460266C230.166885,327.999481,228.3871,336.146301,228.338898,339.477386C227.999664,344.522675,232.060562,350.636749,237.722641,349.210327L237.722626,349.210327z"/>
    <path transform="translate(97.990143,-151.246002)" style="stroke:#000000;stroke-width:0.05mm;fill:none" d="M181.295654,347.979553C186.886673,348.769409,185.08107,343.134583,182.500549,341.831482C182.898514,343.322601,178.09668,348.868866,181.295654,347.979553z"/>
    <path transform="translate(97.990143,-151.246002)" style="stroke:#000000;stroke-width:0.05mm;fill:none" d="M209.204132,347.458923C206.615906,340.781464z"/>
    <path transform="translate(97.990143,-151.246002)" style="stroke:#000000;stroke-width:0.05mm;fill:none" d="M229.591156,347.927948C228.249619,345.289307,226.789551,338.447906,224.865829,344.897919C222.445801,347.781433,228.109543,347.794525,229.591156,347.927948z"/>
    <path transform="translate(97.990143,-151.246002)" style="stroke:#000000;stroke-width:0.05mm;fill:none" d="M189.25592,347.723816C191.540924,344.711517,194.474609,349.14975,196.353668,345.62085C199.33168,347.469269,200.845078,344.376373,203.415085,343.900696C201.443848,337.499146,198.412933,330.855896,199.734024,324.03244C201.351822,327.028442,200.457367,333.190979,202.479889,337.136261C202.96814,340.287445,205.412338,345.627045,206.263412,339.538879C207.639511,334.769745,210.396698,329.023987,208.278809,324.313324C203.249146,322.621246,200.660522,316.976349,195.981354,315.383087C191.672363,316.353882,185.402512,311.584198,182.606155,314.414948C179.837845,325.091827,181.021454,337.253235,187.209381,346.55423C187.750214,347.025391,188.336731,348.586578,189.255905,347.723816L189.25592,347.723816z"/>
    <path transform="translate(57.476578,-133.727783)" style="stroke:#000000;stroke-width:0.05mm;fill:none" d="M189.344421,337.146515C188.990997,336.702606,199.275452,334.371124,192.983246,336.991974C191.786133,337.187744,190.553955,337.227753,189.344421,337.146515z"/>
    <path transform="translate(57.476578,-133.727783)" style="stroke:#000000;stroke-width:0.05mm;fill:none" d="M187.976608,332.864319C189.140457,329.968689,199.209702,331.902954,191.386002,332.154144C190.261887,332.166931,189.054993,333.152405,187.976608,332.864319z"/>
    <path transform="translate(97.990143,-151.246002)" style="stroke:#000000;stroke-width:0.05mm;fill:none" d="M201.540283,347.771088C206.376511,344.645844z"/>
    <path transform="translate(97.990143,-151.246002)" style="stroke:#000000;stroke-width:0.05mm;fill:none" d="M221.469864,347.710388C226.954437,340.733246,228.775009,331.318512,228.275879,322.660248C224.736862,324.565521,220.157715,326.686096,215.635162,325.996643C210.750305,323.896027,209.487396,326.913605,209.808609,331.390503C210.220764,335.512848,204.966934,341.837891,207.342133,344.427887C209.892441,345.361328,210.558838,347.253143,213.598267,345.620697C215.26503,349.567841,218.666306,344.19397,220.898041,347.98288L221.469864,347.710266L221.469864,347.710388z"/>
    <path transform="translate(146.432556,-141.7211)" style="stroke:#000000;stroke-width:0.05mm;fill:none" d="M217.226257,337.114319C210.931564,335.172791,218.597015,336.077515,220.402832,337.002899C219.40509,337.345184,218.262909,337.138092,217.226257,337.114319z"/>
    <path transform="translate(146.432556,-141.7211)" style="stroke:#000000;stroke-width:0.05mm;fill:none" d="M221.29039,332.988159C218.759781,332.152466,211.367462,331.35791,218.046539,331.338715C218.516373,331.199646,222.943878,332.441467,221.29039,332.988159z"/>
    <path transform="translate(97.990143,-151.246002)" style="stroke:#000000;stroke-width:0.05mm;fill:none" d="M166.736404,331.720337C170.514664,326.749451z"/>
    <path transform="translate(97.990143,-151.246002)" style="stroke:#000000;stroke-width:0.05mm;fill:none" d="M244.050705,331.457245C242.456253,326.646362,241.520309,333.269501,244.044708,331.539551L244.050705,331.457245z"/>
    <path transform="translate(97.990143,-151.246002)" style="stroke:#000000;stroke-width:0.05mm;fill:none" d="M230.162262,330.139709C233.679657,328.973267,231.048477,325.397644,229.503067,328.250244C229.484665,328.761841,229.04837,331.385468,230.162262,330.139709z"/>
    <path transform="translate(97.990143,-151.246002)" style="stroke:#000000;stroke-width:0.05mm;fill:none" d="M180.171631,330.085999C181.572678,325.378326,174.631531,327.701385,179.404709,330.113892L179.811691,330.309357L180.171631,330.085999z"/>
    <path transform="translate(97.990143,-151.246002)" style="stroke:#000000;stroke-width:0.05mm;fill:none" d="M235.603058,329.230621C239.579147,325.127747z"/>
    <path transform="translate(97.990143,-151.246002)" style="stroke:#000000;stroke-width:0.05mm;fill:none" d="M175.269287,329.217712C176.252396,326.303528,169.926132,327.964996,174.643616,329.439514L175.269287,329.217712z"/>
    <path transform="translate(97.990143,-151.246002)" style="stroke:#000000;stroke-width:0.05mm;fill:none" d="M240.887314,328.903564C241.73439,326.399658,235.337723,327.44574,239.612015,329.101074L240.414124,329.083374L240.887314,328.903564z"/>
    <path transform="translate(97.990143,-151.246002)" style="stroke:#000000;stroke-width:0.05mm;fill:none" d="M170.842133,328.744415C173.15097,325.283173,165.084244,329.55014,170.361084,329.034027L170.842133,328.744415z"/>
    <path transform="translate(97.990143,-151.246002)" style="stroke:#000000;stroke-width:0.05mm;fill:none" d="M219.541885,324.730438C224.471939,324.407715,229.734497,320.485596,228.723251,315.033539C229.232498,307.961273,216.299576,308.140198,219.519745,314.994141C222.260529,317.401855,224.705383,313.361877,221.714081,312.449249C228.96048,311.719147,220.370377,321.288055,217.714783,314.778717C214.904419,309.289459,214.276489,302.36203,216.295563,296.575989C217.753189,299.867493,214.856155,306.893494,217.715469,311.080872C219.693222,307.54953,223.707718,309.101349,226.543808,307.762146C235.383194,301.607666,236.720352,289.328888,233.246521,279.838501C230.108215,269.302551,222.220459,259.740875,211.271866,256.9375C207.906799,253.557907,206.325653,259.576233,204.372299,258.60965C207.117706,256.135376,205.310074,253.315231,202.395615,255.069351C202.221588,250.949188,199.147491,253.055328,198.455231,255.322968C194.745972,251.892258,196.393417,256.881866,195.977325,258.280151C192.039169,255.81398,187.33812,260.647583,183.881302,262.656158C174.991806,270.022369,171.118866,282.271027,172.023727,293.543121C172.72348,301.605957,177.433517,309.752014,185.492584,312.295013C188.44194,313.093597,199.40123,316.699799,194.737167,310.702393C193.255127,307.415527,190.052551,301.661804,192.070343,299.245941C194.043808,309.226044,199.944199,319.30722,209.654236,323.410706C212.789642,324.687103,216.186203,325.062714,219.54187,324.730408L219.541885,324.730438z"/>
    <path transform="translate(94.480774,-208.943909)" style="stroke:#000000;stroke-width:0.05mm;fill:none" d="M201.158798,300.038513C202.355377,296.902374,212.631668,299.642029,205.865814,299.299683C204.24855,299.049896,202.659058,300.131775,201.158798,300.038513z"/>
    <path transform="translate(86.903625,-207.311859)" style="stroke:#000000;stroke-width:0.05mm;fill:none" d="M183.430023,296.601135C180.643616,295.376617,179.738266,289.044891,179.571915,288.123993C182.614548,290.764771,178.961319,284.741394,182.032349,287.39975C188.167938,283.654999,191.171494,294.658997,185.534531,296.612885L184.462997,296.827423L183.430023,296.601135z"/>
    <path transform="translate(86.903625,-207.311859)" style="stroke:#000000;stroke-width:0.05mm;fill:none" d="M186.101196,291.457581C189.913544,288.815216,182.653778,286.03479,184.822052,290.884308L185.770386,291.554413L186.101196,291.457581z"/>
    <path transform="translate(94.480774,-208.943909)" style="stroke:#000000;stroke-width:0.05mm;fill:none" d="M199.363022,296.2034C200.72525,293.608307,208.800598,294.029999,207.854721,295.196198C204.989166,294.835236,201.853714,295.715332,199.363022,296.2034z"/>
    <path transform="translate(103.671936,-202.007324)" style="stroke:#000000;stroke-width:0.05mm;fill:none" d="M221.526703,293.668396C215.791779,291.757996,217.999603,281.419189,224.235046,283.901001C226.761932,280.847351,223.83783,287.588287,226.952072,284.227783C225.316635,287.430847,227.628937,294.480347,221.526718,293.668396L221.526703,293.668396z"/>
    <path transform="translate(103.671936,-202.007324)" style="stroke:#000000;stroke-width:0.05mm;fill:none" d="M223.526566,288.236237C226.510788,283.907684,218.612976,284.74411,222.291183,288.394073L222.981613,288.486176L223.526566,288.236237z"/>
    <path transform="translate(86.903625,-207.311859)" style="stroke:#000000;stroke-width:0.05mm;fill:none" d="M179.898483,280.316528C179.302872,275.919922,188.282135,277.106873,181.76683,279.210785C181.142593,279.366364,180.523865,280.71344,179.898483,280.316528z"/>
    <path transform="translate(103.671936,-202.007324)" style="stroke:#000000;stroke-width:0.05mm;fill:none" d="M224.078598,276.53363C221.955505,275.478271,217.548111,274.118439,222.580032,274.203491C223.722168,273.713104,226.771545,277.53244,224.078598,276.53363z"/>
    <path transform="translate(97.990143,-151.246002)" style="stroke:#000000;stroke-width:0.05mm;fill:none" d="M170.81958,310.358795C174.900116,310.197693,178.265335,307.820251,174.171844,304.459625C168.525162,294.314575,170.365768,281.797485,174.954559,271.626221C171.425644,269.43396,167.033234,267.931519,162.847244,267.226929C157.086151,266.215881,151.272522,270.721588,150.88121,276.566711C148.482666,275.504486,152.422806,267.787781,156.096893,266.987854C162.688629,263.738037,169.337067,267.959839,175.554214,269.940643C180.783371,266.972229,176.106216,264.518829,172.709869,263.630737C165.802765,260.406586,156.363098,259.317902,150.765106,265.569855C143.599701,273.138489,145.740753,285.530243,151.633102,293.213379C154.839386,296.478668,157.32663,300.248932,158.771957,304.601379C160.699722,309.244812,166.12291,311.197632,170.81958,310.358765L170.81958,310.358795z"/>
    <path transform="translate(97.990143,-151.246002)" style="stroke:#000000;stroke-width:0.05mm;fill:none" d="M240.419907,305.231171C246.011536,304.640472,249.856293,299.560516,250.249084,294.169983C251.352509,288.8573,255.948792,285.085541,256.868103,279.658386C259.269104,271.278717,257.217773,260.310944,248.605118,256.349548C240.586212,252.376984,232.085403,257.466797,225.496292,261.935669C223.629318,265.765747,230.166946,266.670074,232.151535,263.454529C237.282394,259.931519,244.864792,257.755371,250.085968,262.285583C253.080521,263.488495,254.670349,273.083771,251.679504,266.179291C248.868011,260.626282,241.532135,259.834351,236.46904,262.598419C232.559677,264.690308,225.727264,266.986023,231.187134,271.870575C236.533524,281.480286,238.471466,294.175323,232.348618,303.873016C234.216522,305.742126,237.931183,305.473938,240.419922,305.231201L240.419907,305.231171z"/>
</svg>
