<?xml version="1.0" encoding="UTF-8" standalone="no"?>
<!-- Created with Inkscape (http://www.inkscape.org/) -->

<svg
   width="120.0mm"
   height="120.0mm"
   viewBox="0 0 120.0 120.0"
   version="1.1"
   id="svg1"
   xml:space="preserve"
   inkscape:version="1.4.2 (f4327f4, 2025-05-13)"
   sodipodi:docname="Jumpo.svg"
   xmlns:inkscape="http://www.inkscape.org/namespaces/inkscape"
   xmlns:sodipodi="http://sodipodi.sourceforge.net/DTD/sodipodi-0.dtd"
   xmlns="http://www.w3.org/2000/svg"
   xmlns:svg="http://www.w3.org/2000/svg"><sodipodi:namedview
     id="namedview1"
     pagecolor="#ffffff"
     bordercolor="#666666"
     borderopacity="1.0"
     inkscape:showpageshadow="2"
     inkscape:pageopacity="0.0"
     inkscape:pagecheckerboard="0"
     inkscape:deskcolor="#d1d1d1"
     inkscape:document-units="mm"
     inkscape:zoom="1.0444209"
     inkscape:cx="234.10102"
     inkscape:cy="305.91115"
     inkscape:window-width="1920"
     inkscape:window-height="1009"
     inkscape:window-x="-8"
     inkscape:window-y="-8"
     inkscape:window-maximized="1"
     inkscape:current-layer="g8"
     borderlayer="true"
     showgrid="false"><inkscape:grid
       spacingx="2.54"
       spacingy="2.54"
       empspacing="1"
       type="xygrid"
       units="mm"
       id="grid1"
       visible="false"
       originx="0"
       originy="0" /></sodipodi:namedview><defs
     id="defs1" /><g
     inkscape:label="Ebene 1"
     inkscape:groupmode="layer"
     id="layer1" /><g
     inkscape:label="[fixed] BG"
     inkscape:groupmode="layer"
     sodipodi:insensitive="true"
     id="g1"><rect
       x="0"
       y="0"
       width="120.0"
       height="120.0"
       style="fill:#FFFFFF;fill-opacity:1;stroke:none"
       id="rect1" /></g><g
     inkscape:label="Edge.Cuts"
     inkscape:groupmode="layer"
     id="g2"><path
       id="path1"
       style="fill:none;stroke:#000000;stroke-width:0.0499999mm"
       d="M 59.2439 8.82933 L 58.7693 8.85926 L 58.3056 8.93255 L 57.8511 9.04262 L 57.4043 9.18288 L 56.9636 9.34674 L 56.5272 9.52764 L 55.6613 9.91421 L 54.7936 10.2899 L 54.355 10.4572 L 53.9112 10.6021 L 53.4604 10.718 L 53.0012 10.7982 L 52.5317 10.8362 L 52.0505 10.8254 L 51.8996 11.2717 L 51.7116 11.6931 L 51.4895 12.0905 L 51.2359 12.4649 L 50.9537 12.8175 L 50.6456 13.149 L 50.3145 13.4607 L 49.9632 13.7534 L 49.5944 14.0283 L 49.2109 14.2862 L 48.8155 14.5282 L 48.4111 14.7553 L 47.586 15.169 L 46.7581 15.5351 L 44.696 16.4672 L 43.6667 16.9709 L 43.1623 17.2404 L 42.6683 17.5249 L 42.1877 17.8267 L 41.7232 18.1483 L 41.2775 18.4919 L 40.8534 18.86 L 40.4538 19.2549 L 40.0814 19.679 L 39.739 20.1346 L 39.4294 20.6243 L 39.2805 20.8458 L 39.1123 21.0518 L 38.9266 21.2414 L 38.7253 21.4136 L 38.5102 21.5676 L 38.2829 21.7026 L 38.0453 21.8177 L 37.7991 21.9119 L 37.5462 21.9846 L 37.2882 22.0346 L 37.0271 22.0613 L 36.7645 22.0638 L 36.5022 22.0411 L 36.2421 21.9924 L 35.9858 21.9169 L 35.7352 21.8136 L 35.2359 21.6499 L 34.7429 21.4698 L 33.7722 21.071 L 32.8149 20.6377 L 31.863 20.1907 L 30.9086 19.7506 L 29.9437 19.3378 L 29.4547 19.1481 L 28.9601 18.9731 L 28.4588 18.8152 L 27.9499 18.677 L 26.9023 18.3489 L 25.8378 18.0637 L 24.7591 17.823 L 23.6693 17.6285 L 22.5711 17.4818 L 21.4676 17.3846 L 20.3616 17.3387 L 19.2561 17.3456 L 18.1539 17.4071 L 17.058 17.5248 L 16.5134 17.6052 L 15.9714 17.7003 L 15.4324 17.8104 L 14.8969 17.9355 L 14.3651 18.0759 L 13.8374 18.2319 L 13.3142 18.4035 L 12.7958 18.5911 L 12.2827 18.7949 L 11.7752 19.015 L 11.2736 19.2516 L 10.7783 19.5051 L 10.3 19.7809 L 9.83361 20.0729 L 9.37932 20.3804 L 8.93718 20.7029 L 8.50725 21.0401 L 8.08963 21.3912 L 7.68437 21.756 L 7.29156 22.1337 L 6.91128 22.524 L 6.54359 22.9263 L 6.18859 23.3402 L 5.84634 23.765 L 5.51691 24.2004 L 5.20039 24.6457 L 4.89685 25.1006 L 4.60637 25.5645 L 4.32903 26.0368 L 4.06489 26.5171 L 3.81404 27.0049 L 3.57655 27.4997 L 3.14196 28.5081 L 2.76173 29.5383 L 2.43648 30.5862 L 2.1668 31.6479 L 1.95331 32.7192 L 1.79663 33.7961 L 1.72661 34.4477 L 1.6756 35.0997 L 1.64335 35.7517 L 1.62957 36.4036 L 1.634 37.0549 L 1.65637 37.7053 L 1.69641 38.3545 L 1.75384 39.0022 L 1.82841 39.6482 L 1.91983 40.2919 L 2.02785 40.9332 L 2.15219 41.5718 L 2.29258 42.2072 L 2.44875 42.8393 L 2.62043 43.4676 L 2.80736 44.0919 L 3.00925 44.7118 L 3.22586 45.327 L 3.45689 45.9373 L 3.70209 46.5422 L 4.23391 47.7349 L 4.81915 48.9025 L 5.45565 50.0424 L 6.14127 51.1523 L 6.87384 52.2294 L 7.6512 53.2714 L 8.55702 54.4766 L 9.48401 55.6681 L 10.4064 56.8609 L 11.2983 58.07 L 11.7248 58.6855 L 12.1341 59.3107 L 12.5228 59.9475 L 12.8878 60.5979 L 13.2259 61.2636 L 13.5338 61.9467 L 13.8083 62.649 L 14.0462 63.3723 L 14.1834 63.7832 L 14.3367 64.1866 L 14.5057 64.5821 L 14.6899 64.9695 L 14.8888 65.3487 L 15.102 65.7193 L 15.329 66.0812 L 15.5694 66.4342 L 15.8226 66.778 L 16.0883 67.1123 L 16.3659 67.437 L 16.6549 67.7519 L 17.2657 68.3511 L 17.9169 68.908 L 18.6048 69.421 L 19.3257 69.8882 L 20.0758 70.3077 L 20.8515 70.6778 L 21.6491 70.9966 L 22.4648 71.2624 L 23.2949 71.4732 L 24.1357 71.6274 L 24.6655 71.7099 L 25.1948 71.7626 L 25.7234 71.7876 L 26.2511 71.7872 L 26.778 71.7634 L 27.3037 71.7184 L 27.8283 71.6543 L 28.3516 71.5732 L 29.3937 71.3689 L 30.4291 71.1224 L 31.4568 70.851 L 32.4757 70.5717 L 33.5826 70.3189 L 34.1515 70.204 L 34.7249 70.111 L 35.2987 70.0508 L 35.8687 70.0339 L 36.151 70.0452 L 36.4307 70.0713 L 36.7074 70.1136 L 36.9805 70.1736 L 37.1847 70.2774 L 37.3706 70.4033 L 37.5379 70.5492 L 37.6863 70.7128 L 37.8156 70.8918 L 37.9255 71.084 L 38.0156 71.2871 L 38.0856 71.4989 L 38.1353 71.717 L 38.1644 71.9393 L 38.1725 72.1635 L 38.1594 72.3873 L 38.1248 72.6084 L 38.0684 72.8247 L 37.9898 73.0339 L 37.8888 73.2337 L 37.708 73.8448 L 37.5678 74.4638 L 37.4617 75.0896 L 37.3832 75.7206 L 37.3257 76.3557 L 37.2829 76.9933 L 37.2147 78.2712 L 37.1265 79.5435 L 37.0587 80.1742 L 36.9662 80.7994 L 36.8427 81.418 L 36.6816 82.0284 L 36.4764 82.6294 L 36.2206 83.2196 L 36.0683 83.3964 L 35.9035 83.5515 L 35.7274 83.6856 L 35.5413 83.8 L 35.3464 83.8955 L 35.1439 83.9732 L 34.9352 84.0341 L 34.7214 84.0792 L 34.2836 84.1259 L 33.8405 84.1215 L 33.4021 84.074 L 32.9783 83.9914 L 32.3695 83.8055 L 31.7518 83.6668 L 31.1277 83.5745 L 30.4997 83.5274 L 29.8704 83.5245 L 29.2424 83.5647 L 28.618 83.6471 L 27.9999 83.7706 L 27.3906 83.9341 L 26.7926 84.1366 L 26.2084 84.3771 L 25.6406 84.6545 L 25.0918 84.9678 L 24.5643 85.3159 L 24.0608 85.6979 L 23.5838 86.1127 L 23.0993 86.5652 L 22.6448 87.0445 L 22.2206 87.5486 L 21.8268 88.0758 L 21.4637 88.6242 L 21.1313 89.1919 L 20.8299 89.777 L 20.5597 90.3778 L 20.3209 90.9922 L 20.1137 91.6186 L 19.9381 92.2549 L 19.7945 92.8995 L 19.683 93.5503 L 19.6039 94.2056 L 19.5572 94.8634 L 19.5431 95.522 L 19.5359 96.0267 L 19.5445 96.5323 L 19.5687 97.0382 L 19.6086 97.544 L 19.6639 98.0489 L 19.7346 98.5525 L 19.8206 99.0542 L 19.9217 99.5534 L 20.038 100.05 L 20.1693 100.542 L 20.3154 101.03 L 20.4764 101.514 L 20.652 101.992 L 20.8423 102.465 L 21.047 102.931 L 21.2661 103.39 L 21.4996 103.841 L 21.7472 104.284 L 22.009 104.719 L 22.2848 105.144 L 22.5745 105.56 L 22.878 105.965 L 23.1952 106.359 L 23.526 106.741 L 23.8703 107.112 L 24.2281 107.469 L 24.5992 107.814 L 24.9835 108.144 L 25.3809 108.461 L 25.7913 108.762 L 26.2147 109.048 L 26.6509 109.318 L 27.1853 109.601 L 27.7329 109.846 L 28.2921 110.054 L 28.8615 110.226 L 29.4396 110.364 L 30.025 110.47 L 30.6161 110.544 L 31.2114 110.588 L 31.8094 110.604 L 32.4088 110.592 L 33.0079 110.555 L 33.6053 110.493 L 34.1996 110.408 L 34.7892 110.302 L 35.3726 110.175 L 35.9484 110.03 L 37.0933 109.75 L 38.2454 109.444 L 39.4031 109.144 L 40.5649 108.882 L 41.1469 108.775 L 41.7294 108.69 L 42.3121 108.63 L 42.8949 108.6 L 43.4777 108.604 L 44.0601 108.645 L 44.6421 108.728 L 45.2234 108.857 L 45.6444 109.012 L 46.0499 109.201 L 46.4394 109.421 L 46.8128 109.668 L 47.1698 109.939 L 47.5099 110.232 L 47.8329 110.544 L 48.1384 110.87 L 48.6277 110.959 L 49.118 111.033 L 49.6091 111.09 L 50.1008 111.132 L 51.0847 111.171 L 52.0677 111.152 L 53.0476 111.077 L 54.0225 110.947 L 54.9903 110.765 L 55.9488 110.534 L 56.8961 110.255 L 57.8299 109.93 L 58.7484 109.562 L 59.6494 109.152 L 60.5308 108.703 L 61.3905 108.217 L 62.2266 107.696 L 63.0369 107.142 L 63.4586 107.514 L 63.8938 107.867 L 64.3417 108.203 L 64.8016 108.521 L 65.273 108.82 L 65.755 109.102 L 66.247 109.365 L 66.7483 109.609 L 67.2583 109.836 L 67.7762 110.043 L 68.3013 110.233 L 68.833 110.404 L 69.3705 110.556 L 69.9133 110.69 L 70.4606 110.805 L 71.0116 110.902 L 71.5658 110.98 L 72.1224 111.039 L 72.6808 111.079 L 73.2403 111.101 L 73.8001 111.103 L 74.3596 111.086 L 74.9182 111.051 L 75.475 110.996 L 76.0295 110.923 L 76.5809 110.83 L 77.1286 110.718 L 77.6719 110.587 L 78.21 110.436 L 78.7423 110.266 L 79.2682 110.077 L 79.7869 109.868 L 79.9048 109.605 L 80.0504 109.363 L 80.2211 109.145 L 80.4143 108.949 L 80.6275 108.777 L 80.858 108.628 L 81.1033 108.502 L 81.3607 108.4 L 81.6278 108.321 L 81.9019 108.267 L 82.1805 108.236 L 82.4609 108.23 L 82.7406 108.248 L 83.017 108.291 L 83.2876 108.358 L 83.5496 108.45 L 84.4173 108.686 L 85.2785 108.959 L 86.9972 109.528 L 87.8628 109.78 L 88.2989 109.889 L 88.7379 109.982 L 89.1803 110.058 L 89.6267 110.112 L 90.0774 110.143 L 90.533 110.148 L 90.929 110.276 L 91.3283 110.385 L 91.7301 110.476 L 92.1342 110.548 L 92.54 110.602 L 92.9469 110.639 L 93.3546 110.658 L 93.7625 110.661 L 94.1701 110.646 L 94.577 110.615 L 94.9826 110.568 L 95.3865 110.506 L 95.7882 110.428 L 96.1872 110.335 L 96.9751 110.105 L 97.7463 109.819 L 98.497 109.479 L 99.2232 109.088 L 99.921 108.649 L 100.587 108.164 L 101.216 107.635 L 101.805 107.066 L 102.35 106.459 L 102.733 105.999 L 103.096 105.524 L 103.438 105.035 L 103.76 104.533 L 104.061 104.018 L 104.342 103.492 L 104.601 102.955 L 104.84 102.409 L 105.059 101.853 L 105.256 101.29 L 105.432 100.719 L 105.587 100.142 L 105.721 99.5591 L 105.833 98.9717 L 105.924 98.3805 L 105.994 97.7864 L 106.042 97.1901 L 106.069 96.5926 L 106.074 95.9946 L 106.056 95.3971 L 106.018 94.8009 L 105.957 94.2068 L 105.874 93.6157 L 105.769 93.0284 L 105.642 92.4459 L 105.492 91.8688 L 105.32 91.2982 L 105.126 90.7349 L 104.909 90.1796 L 104.669 89.6333 L 104.407 89.0968 L 104.122 88.5709 L 103.827 88.1034 L 103.508 87.6475 L 103.165 87.2054 L 102.8 86.7796 L 102.413 86.3722 L 102.005 85.9855 L 101.577 85.6218 L 101.131 85.2834 L 100.667 84.9725 L 100.186 84.6914 L 99.6898 84.4424 L 99.1785 84.2277 L 98.6533 84.0496 L 98.1152 83.9104 L 97.5653 83.8124 L 97.0044 83.7578 L 96.3718 83.8045 L 95.74 83.8695 L 94.4784 84.0044 L 93.8482 84.049 L 93.2183 84.0616 L 92.5884 84.0297 L 92.2735 83.9931 L 91.9585 83.9406 L 91.3828 83.8473 L 91.0928 83.7778 L 90.8048 83.6926 L 90.5213 83.5913 L 90.245 83.4735 L 89.9783 83.3387 L 89.7239 83.1866 L 89.4843 83.0168 L 89.2621 82.8289 L 89.0598 82.6224 L 88.8801 82.397 L 88.7254 82.1522 L 88.5983 81.8878 L 88.5014 81.6032 L 88.4373 81.2981 L 88.3977 81.0706 L 88.3737 80.8434 L 88.3691 80.391 L 88.4169 79.9428 L 88.5109 79.501 L 88.6445 79.0674 L 88.8115 78.644 L 89.0054 78.2328 L 89.2198 77.8359 L 89.3708 77.3921 L 89.4782 76.9455 L 89.5449 76.497 L 89.5738 76.0472 L 89.5679 75.5969 L 89.5302 75.147 L 89.4637 74.6982 L 89.3714 74.2512 L 89.2562 73.8069 L 89.1211 73.366 L 88.9691 72.9293 L 88.8031 72.4975 L 88.4414 71.652 L 88.0596 70.8355 L 87.885 70.4426 L 87.6925 70.0321 L 87.5062 69.6091 L 87.3504 69.1789 L 87.2915 68.9628 L 87.2492 68.7468 L 87.2266 68.5316 L 87.2267 68.3178 L 87.2526 68.1062 L 87.3072 67.8973 L 87.3936 67.6918 L 87.5148 67.4904 L 87.752 67.2491 L 88.0044 67.0307 L 88.2706 66.8344 L 88.5492 66.6595 L 88.8387 66.5057 L 89.1378 66.3721 L 89.445 66.2581 L 89.759 66.1633 L 90.0782 66.0869 L 90.4013 66.0283 L 90.7268 65.9869 L 91.0533 65.9622 L 91.3795 65.9535 L 91.7038 65.9601 L 92.3414 66.017 L 93.5301 66.1458 L 94.7314 66.2972 L 95.9393 66.4383 L 96.5438 66.4948 L 97.1477 66.5364 L 97.7504 66.5591 L 98.3509 66.5588 L 98.9486 66.5312 L 99.5428 66.4725 L 100.133 66.3784 L 100.717 66.2448 L 101.296 66.0677 L 101.869 65.843 L 103.356 65.0909 L 104.091 64.6903 L 104.806 64.2594 L 105.153 64.0294 L 105.49 63.7879 L 105.818 63.5337 L 106.133 63.2655 L 106.436 62.9819 L 106.723 62.6817 L 106.996 62.3636 L 107.251 62.0263 L 107.681 61.4475 L 108.072 60.8494 L 108.426 60.2337 L 108.749 59.6023 L 109.042 58.957 L 109.309 58.2996 L 109.555 57.632 L 109.782 56.9561 L 110.195 55.5866 L 110.576 54.2057 L 110.954 52.8282 L 111.357 51.4688 L 111.615 50.9062 L 111.909 50.3635 L 112.229 49.8349 L 112.564 49.3144 L 113.239 48.2744 L 113.557 47.7431 L 113.848 47.1965 L 114.458 46.0661 L 115.034 44.913 L 115.574 43.7389 L 116.075 42.5455 L 116.533 41.3348 L 116.947 40.1083 L 117.314 38.868 L 117.631 37.6155 L 117.895 36.3526 L 118.104 35.0812 L 118.186 34.4428 L 118.254 33.803 L 118.307 33.1619 L 118.344 32.5197 L 118.366 31.8768 L 118.371 31.2332 L 118.359 30.5893 L 118.331 29.9452 L 118.285 29.3012 L 118.222 28.6574 L 118.141 28.0142 L 118.042 27.3717 L 117.846 26.344 L 117.6 25.3239 L 117.307 24.3148 L 116.965 23.3197 L 116.576 22.3418 L 116.14 21.3843 L 115.658 20.4501 L 115.129 19.5426 L 114.554 18.6648 L 113.935 17.8199 L 113.27 17.0109 L 112.921 16.621 L 112.561 16.2412 L 112.19 15.872 L 111.808 15.5137 L 111.416 15.1668 L 111.012 14.8317 L 110.598 14.5087 L 110.173 14.1982 L 109.737 13.9007 L 109.291 13.6164 L 108.562 13.1849 L 107.812 12.7977 L 107.043 12.4541 L 106.259 12.1535 L 105.459 11.8952 L 104.648 11.6786 L 103.826 11.5031 L 102.995 11.368 L 102.158 11.2728 L 101.317 11.2167 L 100.474 11.1991 L 99.6303 11.2195 L 98.7886 11.2771 L 97.9507 11.3714 L 97.1187 11.5016 L 96.2947 11.6672 L 95.5744 11.8284 L 94.8585 12.009 L 94.1474 12.2087 L 93.4417 12.4273 L 92.7419 12.6645 L 92.0484 12.9199 L 91.3618 13.1935 L 90.6824 13.4848 L 90.0109 13.7936 L 89.3476 14.1197 L 88.6931 14.4628 L 88.0479 14.8226 L 87.4124 15.1989 L 86.7872 15.5913 L 86.1727 15.9997 L 85.5694 16.4238 L 85.2977 16.6798 L 85.0111 16.9262 L 84.7107 17.1609 L 84.3976 17.3816 L 84.0731 17.5863 L 83.7383 17.7727 L 83.3944 17.9386 L 83.0425 18.0818 L 82.6838 18.2003 L 82.3194 18.2918 L 81.9506 18.354 L 81.5784 18.385 L 81.2041 18.3824 L 80.8288 18.3441 L 80.4536 18.2679 L 80.0798 18.1516 L 79.8153 18.0599 L 79.5586 17.954 L 79.0656 17.7057 L 78.5946 17.4186 L 78.1391 17.1044 L 77.2491 16.4424 L 76.8018 16.1184 L 76.3445 15.8148 L 75.5264 15.4181 L 74.6983 15.0451 L 73.8616 14.6931 L 73.0173 14.3595 L 71.3107 13.7362 L 69.5882 13.1536 L 66.1332 12.0237 L 64.4198 11.4329 L 63.5707 11.1217 L 62.7283 10.7961 L 62.4129 10.3849 L 62.0541 10.0054 L 61.6564 9.66522 L 61.4444 9.51238 L 61.2244 9.37232 L 60.9969 9.24603 L 60.7626 9.13448 L 60.5219 9.03864 L 60.2755 8.95949 L 60.024 8.89801 L 59.7678 8.85517 L 59.5076 8.83195 L 59.2439 8.82933 L 59.2439 8.82933" /></g><g
     inkscape:label="B.Cu"
     inkscape:groupmode="layer"
     id="g3" /><g
     inkscape:label="B.Mask"
     inkscape:groupmode="layer"
     id="g4" /><g
     inkscape:label="B.SilkS"
     inkscape:groupmode="layer"
     id="g5" /><g
     inkscape:label="F.Cu"
     inkscape:groupmode="layer"
     id="g6" /><g
     inkscape:label="F.Mask"
     inkscape:groupmode="layer"
     id="g7" /><g
     inkscape:label="F.SilkS"
     inkscape:groupmode="layer"
     id="g8"><path
       id="path1-8"
       style="fill:#000000;fill-opacity:1;stroke:#000000;stroke-width:0.0499999mm"
       d="m 58.826419,9.4962316 c -2.22027,0.2925733 -4.043778,1.9892744 -6.333984,1.9667974 -0.941765,2.57768 -3.597489,3.876489 -5.958948,4.874126 -2.491302,1.104283 -5.250286,2.264875 -6.657286,4.758372 -0.905096,1.368914 -2.778702,2.023398 -4.304814,1.338999 -2.690733,-0.811435 -5.015088,-2.432983 -7.741448,-3.133494 -4.469854,-1.471178 -9.330457,-1.856586 -13.858989,-0.447379 -3.465388,1.026505 -6.5230324,3.429355 -8.474899,6.491353 -2.7093148,4.114657 -3.656024,9.239661 -3.0609036,14.042686 0.6085787,5.328678 3.0434224,10.247493 6.3943574,14.402497 2.3802212,3.04279 4.9610252,6.118404 5.9969142,9.922839 1.72924,4.564697 6.607564,7.528389 11.378906,7.433594 3.575308,0.0079 6.986946,-2.057825 10.638672,-1.675781 1.724327,0.382881 2.436341,2.593709 1.633082,4.064444 -1.0651,3.248121 -0.114511,6.907854 -1.705164,10.014771 -0.999613,1.418905 -3.007827,1.416041 -4.496277,0.899301 -2.144198,-0.566463 -4.47377,-0.28735 -6.401748,0.816349 -2.288315,1.234332 -4.176697,3.560888 -5.018973,6.108912 -0.70024,2.134127 -0.813919,4.368881 -0.566375,6.550561 0.519098,4.471331 3.101894,9.062621 7.237096,11.137461 2.480517,1.14705 5.20477,1.12868 7.796303,0.45818 3.183013,-0.67545 6.4987,-2.08273 9.831272,-1.34308 1.280071,0.34689 2.408047,1.13596 3.300159,2.10365 5.128023,0.96706 10.479979,-0.86211 14.611328,-3.93555 3.16301,3.06132 7.715583,4.46672 11.953128,4.06729 1.454458,-0.13112 2.931034,-0.47328 4.306638,-1.0419 0.77309,-1.6391 2.910089,-2.14792 4.505089,-1.48857 2.359044,0.59027 4.582723,1.6975 7.03788,1.71123 3.177281,1.07022 6.74551,0.10821 9.363995,-1.95847 3.94336,-3.16226 5.71666,-8.560477 5.07936,-13.441923 -0.40886,-3.576764 -2.20974,-7.204258 -5.476129,-8.959725 -1.337548,-0.765514 -2.919761,-1.027208 -4.426211,-0.682853 -2.046824,0.299919 -4.297213,0.21471 -6.11914,-0.861328 -1.815593,-1.169958 -1.927039,-3.817247 -0.92931,-5.563619 1.185713,-2.010489 0.361652,-4.27489 -0.53298,-6.254074 -0.498149,-1.232776 -1.332101,-2.462808 -1.227163,-3.84051 0.369706,-1.562061 2.074657,-2.313911 3.510019,-2.582186 3.237651,-0.472747 6.451506,0.966173 9.691155,0.341951 1.663619,-0.255397 3.100229,-1.169067 4.545389,-1.963304 2.93238,-1.823828 4.38904,-5.174322 5.225,-8.390919 0.52246,-1.714362 0.83267,-3.52609 1.61566,-5.142447 3.66442,-5.387855 6.35279,-11.718891 6.53582,-18.251376 0.21687,-6.38415 -2.33663,-13.203346 -7.62144,-17.090669 -3.24558,-2.485807 -7.55552,-3.50906 -11.504133,-2.991779 -4.523663,0.483155 -8.933707,2.337113 -12.629678,4.939303 -1.679518,1.824981 -4.558203,2.78987 -6.85412,1.555254 -1.612666,-0.810073 -2.857854,-2.243619 -4.61056,-2.795193 C 70.541415,13.934302 66.332862,12.93074 62.324466,11.328263 61.581314,10.164137 60.25859,9.2622202 58.826419,9.4962316 Z m 0.402344,0.1230469 c 1.172578,0.011845 2.157861,0.8298905 2.746094,1.7890625 4.682973,1.934559 9.73996,2.921655 14.232422,5.314453 1.397312,1.279679 3.034465,2.36462 5.009765,2.443359 2.000665,0.09112 3.750616,-1.119431 5.11912,-2.452751 4.610064,-2.998914 10.090616,-5.111898 15.668316,-4.661207 5.11252,0.373216 9.71595,3.645962 12.29681,7.990777 2.9792,4.978651 3.65284,11.124955 2.36541,16.734622 -1.01662,4.944191 -3.36,9.516891 -6.20161,13.650278 -1.20045,3.737782 -1.70458,7.889696 -4.23858,11.03906 -0.97567,1.259145 -2.35851,2.115724 -3.79673,2.742159 -2.30047,1.609387 -5.26373,1.323623 -7.89047,0.947297 -2.129505,-0.252997 -4.333044,-0.699713 -6.341797,0.349609 -0.984815,0.607607 -2.226651,1.396808 -2.085938,2.729688 0.334688,2.561805 2.304959,4.652022 2.379884,7.284798 0.08152,1.085792 -0.348804,2.131791 -0.922845,3.020231 -0.500873,1.716069 -0.424853,3.906364 1.144524,5.05708 1.865839,1.340883 4.280742,1.348066 6.460187,1.143263 0.893013,-0.05699 1.783253,-0.453465 2.653921,-0.07049 3.288154,0.833611 5.627644,3.777204 6.526384,6.940604 1.17807,3.921284 0.67685,8.310994 -1.29986,11.887899 -1.98127,3.50173 -5.783177,6.25754 -9.931294,6.03924 -0.953356,0.005 -1.865876,-0.34684 -2.779066,-0.50398 -3.032799,0.0546 -5.678913,-2.00888 -8.71621,-1.88575 -1.13223,0.0727 -2.0874,0.83871 -2.646484,1.78906 -5.251888,2.13018 -11.764078,0.98339 -15.833984,-3.00586 -0.359967,-0.38104 -0.824784,0.49083 -1.247787,0.59517 -3.890322,2.60463 -8.738654,4.17658 -13.427995,3.29155 -1.350517,-1.538 -3.369044,-2.44215 -5.419921,-2.36914 -3.612834,0.0836 -7.073469,1.77025 -10.713071,2.01265 -3.511197,0.3858 -6.92369,-1.55943 -8.937495,-4.35822 -2.42704,-3.23543 -3.473476,-7.441884 -2.906075,-11.441544 0.422586,-4.374991 3.768283,-8.559164 8.216797,-9.269531 1.421221,-0.254646 2.854174,0.04327 4.217238,0.422852 1.494851,0.278011 3.37378,-0.0067 4.115239,-1.515108 1.134692,-2.301856 0.815192,-4.959382 1.140689,-7.43627 0.08467,-1.223719 0.394892,-2.441424 0.839886,-3.563398 -0.0032,-1.393111 -0.680802,-3.010868 -2.199771,-3.283076 -2.410895,-0.427948 -4.766213,0.56396 -7.082242,1.087649 -3.021595,0.847977 -6.374023,0.741597 -9.204654,-0.717861 -2.914531,-1.428095 -5.227358,-4.119849 -5.992619,-7.29595 C 12.936412,57.604743 9.2419803,54.369309 6.7876062,50.379921 2.8197162,44.489804 1.2627102,36.7872 3.4296098,29.939741 4.8578743,25.502205 7.9628655,21.407282 12.342252,19.571257 c 5.192227,-2.21623 11.198416,-1.730951 16.377195,0.268853 2.687895,0.731032 5.028564,2.626221 7.774782,2.980177 1.7366,0.26593 3.238751,-1.018597 3.971146,-2.487044 2.075963,-2.576373 5.439945,-3.427091 8.242843,-4.90717 1.630885,-0.8198 3.171847,-2.05221 3.856482,-3.830232 2.396686,0.0167 4.276335,-1.9742524 6.664063,-1.9765625 z m -0.482422,2.0351565 c -1.239786,0.374007 -1.946894,1.645232 -2.285156,2.818359 -0.653543,-0.500641 -1.248118,-1.341332 -2.117188,-1.394531 -0.4349,0.945857 -0.07187,1.985078 -0.115487,3.005025 0.02361,0.435916 -0.07963,0.860839 -0.159903,1.28599 -1.294853,-0.931597 -3.008035,-1.092432 -4.485189,-0.522165 -2.897088,1.056289 -5.215172,3.184147 -7.801218,4.789288 -6.702108,5.627099 -10.511289,14.173204 -11.456359,22.796828 -0.365235,3.554677 -0.400765,7.152288 0.318938,10.650893 1.250301,6.038695 4.946256,11.94602 10.675781,14.666016 2.22308,1.028029 4.627367,1.527598 6.988222,2.133275 1.566658,0.292566 3.131566,0.751552 4.677793,0.312037 0.827335,-0.365722 0.255791,-1.37936 -0.07993,-1.905122 -0.924347,-1.221738 -1.404347,-2.702585 -2.08793,-4.063246 -0.931689,-2.193077 -2.031965,-4.507464 -1.807778,-6.950846 0.06546,-0.846715 0.570719,-1.551897 1.08697,-2.190161 1.381667,7.325609 4.594481,14.409546 10.021388,19.630862 2.69122,2.560047 5.951173,4.656065 9.472317,5.664058 3.094737,0.848711 6.297331,0.969941 9.439746,0.384006 3.210853,-0.728579 6.379825,-2.97014 7.191549,-6.303926 0.345334,-1.244806 0.02003,-2.550037 0.03125,-3.755859 -0.186873,-2.248546 -2.368356,-3.762286 -4.481933,-3.948279 -1.62566,-0.20922 -3.743602,0.206107 -4.42959,1.887816 -0.3187,0.939525 -0.138006,2.106078 0.455685,2.875705 0.78786,0.734146 2.280534,0.681837 2.71951,-0.408992 0.414074,-0.829593 -0.344753,-1.647268 -1.139259,-1.810266 -0.868091,-0.305899 -0.939825,-0.500617 0.03505,-0.549217 1.30171,-0.304549 3.621797,0.09528 3.2878,1.896592 -0.459316,1.763562 -2.179309,3.065603 -3.949219,3.306641 -1.592481,0.224642 -2.954907,-1.021789 -3.46289,-2.439453 -2.980166,-5.906169 -3.510518,-13.065046 -1.15625,-19.275391 0.823949,1.617057 0.861898,3.462012 0.718651,5.230998 -0.15478,3.006412 -0.730932,6.060089 0.403654,8.940612 0.166055,0.512162 0.380791,0.804589 0.682382,0.197531 1.424933,-1.683652 3.785866,-1.759648 5.813744,-1.948438 1.272009,-0.094 2.580558,-0.404217 3.503613,-1.344031 4.53806,-3.607877 6.90691,-9.374497 7.241191,-15.065672 0.287347,-4.051998 -0.396832,-8.23895 -1.811192,-12.103566 -2.68998,-8.681191 -8.59255,-16.626938 -16.885201,-20.585678 -1.559747,-0.767926 -3.24148,-1.285663 -4.883639,-1.796365 -0.687275,-0.790432 -1.917776,-1.3224 -2.848166,-0.608623 -1.190525,0.689312 -1.866916,2.195867 -3.290506,2.467998 -0.31209,-3.13e-4 -1.434579,-0.170106 -0.909628,-0.511497 0.843754,-0.732263 1.787765,-1.935334 1.227987,-3.097878 -0.658961,-0.991097 -2.054507,-0.515703 -2.858014,0.0256 -0.544419,0.30139 -0.188535,-0.987089 -0.429096,-1.375209 -0.112758,-0.502885 -0.43016,-1.163029 -1.0625,-1.011719 z m 41.656249,2.177734 c -4.414087,-0.01258 -8.698351,1.926457 -12.491897,4.161416 -1.472969,0.858622 -2.874153,1.797314 -4.299118,2.74874 -0.531688,0.888987 -0.248561,2.162335 0.751402,2.568459 1.864677,0.869697 4.35991,0.225628 5.475161,-1.52549 3.697756,-2.496491 8.197953,-4.23647 12.718752,-3.662109 2.08377,0.263387 4.04545,1.192274 5.64817,2.530767 1.61459,0.914639 2.32715,2.792726 2.90651,4.457514 0.14083,0.75644 0.62811,1.689644 0.13086,2.390625 -0.69433,0.264938 -1.01389,-0.682863 -1.30726,-1.143712 -0.68721,-1.585803 -1.53247,-3.167301 -2.93376,-4.239524 -2.3044,-1.869041 -5.46586,-2.438755 -8.278901,-2.029505 -2.559167,0.269076 -4.750331,1.692053 -7.013357,2.785458 -1.586313,0.881029 -3.480144,1.719293 -4.251873,3.480799 -0.521751,1.597467 0.821493,2.952017 1.86914,3.960937 3.797038,6.883214 5.837486,14.960859 4.655671,22.812964 -0.502628,3.272662 -1.623277,6.46175 -3.368561,9.280786 1.655667,1.331714 3.945693,1.315993 5.908771,1.234879 2.299939,-0.03854 4.65302,-0.575734 6.50611,-2.000647 2.85954,-2.095919 4.53165,-5.550501 4.79496,-9.046547 1.14166,-5.302231 5.73047,-9.131634 6.62482,-14.522509 1.39211,-5.091377 1.2392,-10.663595 -0.97135,-15.531331 -1.53174,-3.431826 -4.3798,-6.250088 -7.87936,-7.647447 -1.63154,-0.699306 -3.46635,-1.060966 -5.19489,-1.064523 z m -81.292968,6.128906 c -3.713862,0.05376 -7.610808,1.453864 -10.1436779,4.306133 -3.2435995,3.296821 -4.7162598,8.083243 -4.5377087,12.599273 0.106107,3.701447 1.1398197,7.458565 2.8254127,10.773434 0.9697459,1.894599 2.1127532,3.698973 3.6489429,5.209832 2.709398,3.018899 4.819698,6.575995 6.111712,10.424417 1.595339,3.689908 5.805227,5.640055 9.635155,5.548423 1.162234,-0.02935 2.347641,-0.205715 3.549957,-0.363733 1.286836,-0.276885 2.893465,-0.771561 3.335988,-2.165747 0.223072,-1.313325 -0.92583,-2.293137 -1.783203,-3.089844 -3.515197,-6.268964 -4.188173,-13.777775 -3.01437,-20.777498 0.686763,-4.164887 1.960321,-8.222304 3.674527,-12.076018 -3.82407,-2.271899 -8.11067,-3.688608 -12.488325,-4.30818 -4.26573,-0.435718 -8.703058,2.365336 -10.2482954,6.412814 -0.4226683,1.024426 -0.5896183,2.129785 -0.6637713,3.22935 -0.8052884,-0.289392 -1.3803178,-1.049607 -1.317037,-1.920597 0.088384,-2.195182 1.2710076,-4.193975 2.5901057,-5.886532 0.988022,-1.244776 2.284471,-2.293842 3.835518,-2.716458 3.372463,-1.620698 7.3031,-1.212198 10.755827,-0.08081 2.883918,0.89471 5.63162,2.169309 8.500821,3.108307 0.929775,-0.575545 2.228529,-1.369915 2.023438,-2.638672 -0.533194,-1.391042 -2.092851,-1.974795 -3.359368,-2.517412 -1.088594,-0.346176 -2.154196,-0.730453 -3.197191,-1.199731 -3.09869,-1.22439 -6.408586,-1.948542 -9.734457,-1.870748 z m 21.509766,18.976563 c 0.556387,-0.07662 1.418878,0.390356 0.976562,1.023437 -0.63943,0.826154 -1.896521,0.691994 -2.505634,1.547736 -0.302268,0.438383 -1.279239,0.468776 -1.159481,-0.223755 -0.13806,-1.482514 1.367183,-2.388658 2.688553,-2.347418 z m 41.753906,1.580078 c 0.927616,0.191802 1.74657,1.006074 1.994141,1.912109 0.05623,0.734184 -0.891811,0.673759 -1.332911,0.40325 -0.936692,-0.520659 -2.092991,-0.723334 -2.862402,-1.498953 -0.251677,-0.777563 0.849835,-0.773908 1.353516,-0.787109 0.285407,0.01212 0.56716,-0.0081 0.847656,-0.0293 z m -40.816406,5.287109 c 1.861701,-0.06086 3.122505,1.766541 3.329893,3.451479 0.329402,1.812772 -0.521722,3.986785 -2.402159,4.546568 -1.095498,0.417966 -2.345096,-0.09986 -2.949046,-1.076671 -1.259918,-1.843951 -1.595463,-4.115249 -1.966969,-6.269032 0.300351,0.110891 1.167317,1.219122 1.043585,0.564391 -0.157008,-0.452012 -0.113323,-1.312084 0.571649,-1.13861 0.377852,0.06196 0.633128,0.628742 0.992188,0.267578 0.436878,-0.19413 0.900749,-0.329089 1.380859,-0.345703 z m 42.5,1.298828 c 0.704593,0.101054 0.417368,1.00385 0.480469,1.498047 0.465054,-0.379556 0.884955,-0.813634 1.396484,-1.140625 -0.340402,1.114514 -0.766297,2.213023 -0.774968,3.400442 -0.161943,1.48529 -0.121879,3.325968 -1.463313,4.298777 -1.298385,0.815265 -3.129571,0.485358 -4.078082,-0.720811 -1.667324,-1.941477 -1.261832,-5.477487 1.070269,-6.716689 0.803757,-0.390118 1.759848,-0.374469 2.587891,-0.06836 0.212708,-0.232683 0.446796,-0.522215 0.78125,-0.550781 z M 42.209232,47.63881 c -0.552904,0.241917 -0.215333,0.996013 -0.05469,1.417968 0.409826,0.598274 0.933497,0.172621 1.148438,-0.335937 0.252504,-0.62646 -0.531661,-1.177517 -1.09375,-1.082031 z m 40.021484,1.75 c -0.668065,9e-6 -0.931029,0.807352 -0.464844,1.261718 0.171547,0.491429 0.878025,0.596095 1.038,0.04301 0.307563,-0.423965 0.390239,-1.274653 -0.327062,-1.30277 -0.08199,-0.01175 -0.163951,-0.0066 -0.246094,-0.002 z m -19.664063,0.861328 c 0.752686,0.0822 1.765214,-0.01994 2.257813,0.660156 0.220962,0.597426 -0.389786,0.784304 -0.859638,0.604331 -2.083031,-0.111471 -4.294839,0.522681 -6.398175,0.934732 0.398204,-0.880107 1.13369,-1.570867 2.078126,-1.816407 0.943569,-0.293074 1.937004,-0.392972 2.921874,-0.382812 z m -0.210937,3.125 c 0.863943,0.05575 1.825679,0.03084 2.578125,0.509765 0.406293,0.604144 -0.524805,0.766582 -0.958984,0.726563 -0.986005,-0.04244 -1.985083,-0.110593 -2.922722,0.279464 -0.645585,0.210796 -1.324363,0.290247 -2.001106,0.234208 0.272412,-1.001693 1.233376,-1.582213 2.221626,-1.668897 0.357195,-0.06296 0.721149,-0.07577 1.083061,-0.0811 z M 42.398685,72.447403 c -0.792273,0.10389 -1.81886,0.458298 -1.813841,1.412122 -2.146224,9.027617 -1.528389,18.81601 2.539972,27.240725 0.913078,1.78752 1.840871,3.63214 3.246525,5.07958 0.56023,0.25904 0.777446,-0.59892 1.230469,-0.78907 1.271875,-0.97202 2.878821,-0.25154 4.271509,-0.0598 1.047064,0.19206 1.838738,-0.67928 2.226538,-1.5476 0.962379,0.70664 2.292943,0.96319 3.358399,0.31548 1.151518,-0.58285 2.143589,-1.48763 3.411132,-1.8311 -1.698564,-5.466885 -4.059456,-10.932042 -3.902883,-16.764706 0.01823,-1.309608 0.246478,-2.600985 0.481008,-3.885689 1.384597,2.276421 1.450703,5.002298 1.725178,7.573813 0.223786,2.22745 0.492433,4.480262 1.4799,6.482828 0.318005,1.642209 0.771654,3.353446 1.830078,4.683594 0.371433,0.54657 0.841385,-0.0484 0.922652,-0.472096 0.354006,-1.127398 0.454857,-2.317695 0.902837,-3.420902 1.026471,-3.18207 2.2977,-6.533638 2.287792,-9.847237 -0.02065,-1.180964 -0.219943,-2.37118 -0.697265,-3.457031 -3.695957,-1.308893 -6.03984,-4.635255 -8.970321,-7.02392 -0.963499,-0.750014 -2.021056,-1.530945 -3.209868,-1.810485 -2.795312,0.434255 -5.479524,-0.810578 -8.118639,-1.474189 -1.04215,-0.267016 -2.118977,-0.508756 -3.201172,-0.404297 z m 42.509765,9.808594 c -3.533666,1.782148 -7.514681,3.265222 -11.53125,2.63086 -1.33785,-0.560251 -3.150639,-1.144071 -4.361328,-0.01367 -1.198409,1.339262 -1.090066,3.343849 -1.035356,4.974517 0.194936,2.738623 -1.220412,5.230343 -2.130549,7.724673 -0.522957,1.505657 -1.340217,3.192983 -0.71886,4.787133 0.302483,0.64826 1.148079,0.66013 1.669954,1.08855 1.028865,0.66744 2.252327,1.44346 3.519499,0.92317 0.456322,-0.0124 1.102133,-0.77675 1.373639,-0.40079 0.2752,0.86942 1.076848,1.68461 2.055454,1.43171 1.396232,-0.26192 3.018175,-1.08416 4.324813,-0.0973 0.315344,0.23769 0.583912,0.53542 0.796875,0.86718 0.728934,-0.47833 1.111663,-1.37568 1.642578,-2.0664 4.247376,-6.577207 5.685096,-14.681664 5.326172,-22.337892 -0.310547,0.16276 -0.621094,0.325521 -0.931641,0.488281 z m 3.675782,3.84375 c -0.769476,0.223093 -1.035727,1.035034 -0.986218,1.758222 -0.02388,0.470876 -0.115527,1.082896 0.403561,0.547135 0.844669,-0.218517 1.893064,-1.165733 1.238907,-2.067076 -0.157038,-0.187386 -0.413939,-0.291597 -0.65625,-0.238281 z m -51.976563,0.199219 c -0.672744,0.03095 -0.976673,0.870358 -0.408789,1.280666 0.423081,0.392294 0.998328,0.866696 1.540554,0.910619 0.316012,-0.766408 0.269023,-2.157967 -0.821218,-2.21277 -0.104624,-0.007 -0.207434,0.0056 -0.310547,0.02148 z m -8.18164,0.01563 c -0.597847,0.152394 -1.379336,0.463983 -1.65625,0.964844 0.710258,0.142919 1.763646,0.215809 1.980468,-0.681641 0.204558,-0.361427 -0.05851,-0.321298 -0.324218,-0.283203 z m 68.601562,0.01758 c -0.223185,0.0144 -1.01837,0.155466 -0.558594,0.478516 0.555791,0.438309 1.360958,0.786112 2.019532,0.427734 0.168783,-0.81209 -0.890429,-0.951663 -1.460938,-0.90625 z m -3.056641,0.113281 c -0.688785,0.170846 -1.380046,0.491182 -1.859375,1.025391 0.587388,0.132423 1.332636,0.196255 1.637071,-0.440999 0.07371,-0.129711 0.636038,-0.694594 0.222304,-0.584392 z m -62.193359,0.08984 c -0.392497,-0.03001 -1.058623,0.366753 -0.428291,0.648885 0.450957,0.218614 1.0774,0.719187 1.53376,0.337443 0.240748,-0.730674 -0.48601,-1.086405 -1.105469,-0.986328 z M 94.898685,88.4435 c -0.818075,0.07336 -1.554147,0.49185 -2.197266,0.978516 -1.059711,-0.679467 -2.563375,-0.697398 -3.449617,0.281648 -1.696832,1.808121 -2.239363,4.363511 -2.604876,6.740479 -0.241708,1.871253 -0.235861,3.653297 0.416095,5.476397 0.942006,2.79293 3.240888,5.47109 6.333276,5.74927 2.679364,0.25358 5.104578,-1.46746 6.767223,-3.41286 2.23875,-2.70718 3.34169,-6.422177 2.78876,-9.818575 -0.1256,-0.793756 -0.3511,-1.571959 -0.67078,-2.309328 -2.617749,-0.512944 -4.147503,-3.215146 -6.775182,-3.673067 -0.201564,-0.0288 -0.404994,-0.02746 -0.607633,-0.01248 z m 5.904295,0.166016 c -0.23336,0.441686 -0.24834,1.49997 0.43359,1.49414 0.58704,-0.0652 0.0326,-0.699422 -0.0664,-1.029296 -0.10023,-0.148307 -0.20076,-0.408983 -0.36719,-0.464844 z m -75.67578,0.06055 c -0.59312,0.307977 -1.229281,0.743941 -1.501953,1.353515 0.538247,0.184146 1.005953,-0.08394 1.213905,-0.596463 0.07539,-0.144228 0.68579,-0.972293 0.288048,-0.757052 z m 3.63086,0.0625 c -2.563854,0.813165 -4.408091,2.805522 -6.308594,4.615234 -0.480129,2.793555 -0.08323,5.627057 1.074101,8.25051 1.343966,3.10839 4.197707,5.77342 7.686996,6.04124 2.091606,0.19566 4.045799,-1.08795 5.35693,-2.61907 1.717831,-2.0622 2.328861,-4.86941 2.25502,-7.416821 -0.07582,-2.636303 -0.920108,-5.234942 -2.417052,-7.403751 -0.510925,-1.221775 -1.942952,-1.59939 -3.151483,-1.439308 -1.341916,0.06614 -2.762083,0.380995 -4.050606,-0.151081 -0.148437,0.04102 -0.296875,0.08203 -0.445312,0.123047 z m 20.703125,1.464843 c 0.823589,0.06955 1.813132,-0.05422 2.484375,0.503907 0.306182,0.6348 -0.625219,0.795551 -1.076819,0.841322 -1.252939,0.192446 -2.574603,0.0101 -3.741541,0.607896 -0.714543,0.29702 -1.508449,0.415913 -2.257812,0.173829 0.45911,-1.44279 2.072826,-1.919662 3.421247,-2.057417 0.388403,-0.04397 0.779633,-0.06501 1.17055,-0.06954 z m 26.574218,1.720704 c 1.214097,0.187621 2.490519,0.480582 3.506115,1.199548 0.660971,0.425066 -0.110341,1.36333 -0.705731,1.025032 -1.900553,-0.59056 -3.927577,-0.712929 -5.80429,-1.365206 -0.485473,-0.282548 -0.0236,-0.808989 0.414063,-0.759765 0.860191,-0.09683 1.727016,-0.06851 2.589843,-0.09961 z m -23.945312,2.759759 c 0.531261,-0.106393 0.868484,0.589898 0.34375,0.857422 -1.038467,0.67339 -2.212668,1.172564 -3.469533,1.153322 -0.828441,0.07278 -1.660247,0.02838 -2.489451,-0.0068 -0.389521,-0.647499 0.518345,-0.902568 0.984453,-1.044131 1.501761,-0.455238 3.058889,-0.871992 4.630781,-0.959775 z m 21.070312,1.876953 c 2.051163,0.132047 4.147347,0.476592 5.990235,1.431641 -1.193043,0.447633 -2.464326,0.504597 -3.719779,0.371916 -0.999926,-0.09644 -1.976468,-0.504263 -2.870065,-0.957854 -0.491876,-0.226517 -0.219299,-0.89147 0.275391,-0.832031 0.107789,-0.0021 0.216892,-0.01422 0.324218,-0.01367 z m -32.5,4.441405 c -0.477728,1.85091 -1.875438,3.32705 -2.291015,5.19141 0.213531,0.42498 0.923591,-0.12691 1.319324,0.12642 1.115912,0.14869 2.678467,-0.20859 2.799817,-1.55025 0.121419,-1.44675 -0.719299,-2.91705 -1.828126,-3.76758 z m 43.65625,0.13086 c -0.921812,0.5862 -0.92198,1.87205 -1.462897,2.72017 -0.475054,0.45295 -0.584674,1.35164 0.154168,1.60512 1.218329,0.58393 2.606345,0.60272 3.92787,0.71768 -0.7597,-1.60253 -1.131327,-3.4265 -2.237148,-4.84177 -0.09771,-0.10273 -0.228088,-0.22538 -0.381993,-0.2012 z m -18.966796,2.75977 c -0.440316,0.6397 -0.329085,1.80471 0.373046,2.24218 0.37825,0.12382 1.253571,-0.0789 0.78711,-0.58984 -0.30509,-0.57128 -0.54518,-1.3546 -1.160156,-1.65234 z m -5.888672,0.51758 c -0.464561,-0.0168 -1.217353,0.37824 -0.747179,0.8943 0.25144,0.29486 0.640884,0.90761 0.999421,0.46161 0.317174,-0.28877 0.964374,-0.663 0.759476,-1.14693 -0.281423,-0.21971 -0.670617,-0.22842 -1.011718,-0.20898 z m 11.304687,1.10351 c -0.766018,0.20311 -1.674797,0.92926 -1.529297,1.80274 0.48093,0.72425 1.557259,0.60242 2.279297,0.61718 0.101519,-0.77063 0.375135,-1.84062 -0.335937,-2.38867 -0.129534,-0.0553 -0.277332,-0.0516 -0.414063,-0.0312 z M 54.1897,105.93764 c -0.895924,0.0686 -0.753693,1.18767 -0.480208,1.76989 0.144873,0.576 0.93866,0.14598 1.349327,0.0546 0.462966,-0.15146 1.354529,-0.58406 0.865256,-1.16827 -0.432398,-0.4656 -1.106732,-0.69958 -1.734375,-0.65625 z m 22.003907,0.6543 c -0.677985,0.17706 -1.541252,0.5154 -1.757813,1.23437 0.596717,0.49208 1.567278,0.41779 2.258736,0.16576 0.24718,-0.39944 0.563637,-1.45858 -0.241158,-1.42748 -0.08659,0.009 -0.173177,0.0182 -0.259765,0.0273 z m -26.464844,0.0488 c -0.560007,0.11423 -1.3962,0.35798 -1.494141,1.00196 0.580951,0.58335 1.555553,0.61031 2.332031,0.52734 0.243063,-0.55848 0.257071,-1.59182 -0.595703,-1.54102 -0.08073,0.004 -0.161458,0.008 -0.242187,0.0117 z" /></g><g
     inkscape:label="Dwgs.User"
     inkscape:groupmode="layer"
     id="g9" /><g
     inkscape:label="Drill"
     inkscape:groupmode="layer"
     id="g10" /></svg>
