%TF.GenerationSoftware,KiCad,Pcbnew,8.0.1*%
%TF.CreationDate,2024-04-02T10:26:23+02:00*%
%TF.ProjectId,Monster,4d6f6e73-7465-4722-9e6b-696361645f70,rev?*%
%TF.SameCoordinates,Original*%
%TF.FileFunction,Copper,L2,Bot*%
%TF.FilePolarity,Positive*%
%FSLAX46Y46*%
G04 Gerber Fmt 4.6, Leading zero omitted, Abs format (unit mm)*
G04 Created by KiCad (PCBNEW 8.0.1) date 2024-04-02 10:26:23*
%MOMM*%
%LPD*%
G01*
G04 APERTURE LIST*
%ADD10C,0.300000*%
%TA.AperFunction,NonConductor*%
%ADD11C,0.300000*%
%TD*%
%TA.AperFunction,ComponentPad*%
%ADD12R,1.800000X1.800000*%
%TD*%
%TA.AperFunction,ComponentPad*%
%ADD13C,1.800000*%
%TD*%
%TA.AperFunction,SMDPad,CuDef*%
%ADD14C,2.000000*%
%TD*%
%TA.AperFunction,ComponentPad*%
%ADD15C,1.600000*%
%TD*%
%TA.AperFunction,ComponentPad*%
%ADD16O,1.600000X1.600000*%
%TD*%
%TA.AperFunction,ComponentPad*%
%ADD17R,1.600000X1.600000*%
%TD*%
%TA.AperFunction,SMDPad,CuDef*%
%ADD18R,2.000000X5.000000*%
%TD*%
%TA.AperFunction,SMDPad,CuDef*%
%ADD19C,17.780000*%
%TD*%
%TA.AperFunction,ComponentPad*%
%ADD20C,1.500000*%
%TD*%
%TA.AperFunction,ComponentPad*%
%ADD21R,1.500000X1.500000*%
%TD*%
%TA.AperFunction,ComponentPad*%
%ADD22C,2.000000*%
%TD*%
%TA.AperFunction,ViaPad*%
%ADD23C,0.600000*%
%TD*%
%TA.AperFunction,Conductor*%
%ADD24C,0.250000*%
%TD*%
G04 APERTURE END LIST*
D10*
D11*
X68725489Y-38500828D02*
X68725489Y-37000828D01*
X67868346Y-38500828D02*
X68511203Y-37643685D01*
X67868346Y-37000828D02*
X68725489Y-37857971D01*
X67225489Y-38500828D02*
X67225489Y-37000828D01*
X67225489Y-37715114D02*
X66368346Y-37715114D01*
X66368346Y-38500828D02*
X66368346Y-37000828D01*
X65154060Y-37715114D02*
X65654060Y-37715114D01*
X65654060Y-38500828D02*
X65654060Y-37000828D01*
X65654060Y-37000828D02*
X64939774Y-37000828D01*
X62939774Y-37000828D02*
X62796917Y-37000828D01*
X62796917Y-37000828D02*
X62654060Y-37072257D01*
X62654060Y-37072257D02*
X62582632Y-37143685D01*
X62582632Y-37143685D02*
X62511203Y-37286542D01*
X62511203Y-37286542D02*
X62439774Y-37572257D01*
X62439774Y-37572257D02*
X62439774Y-37929400D01*
X62439774Y-37929400D02*
X62511203Y-38215114D01*
X62511203Y-38215114D02*
X62582632Y-38357971D01*
X62582632Y-38357971D02*
X62654060Y-38429400D01*
X62654060Y-38429400D02*
X62796917Y-38500828D01*
X62796917Y-38500828D02*
X62939774Y-38500828D01*
X62939774Y-38500828D02*
X63082632Y-38429400D01*
X63082632Y-38429400D02*
X63154060Y-38357971D01*
X63154060Y-38357971D02*
X63225489Y-38215114D01*
X63225489Y-38215114D02*
X63296917Y-37929400D01*
X63296917Y-37929400D02*
X63296917Y-37572257D01*
X63296917Y-37572257D02*
X63225489Y-37286542D01*
X63225489Y-37286542D02*
X63154060Y-37143685D01*
X63154060Y-37143685D02*
X63082632Y-37072257D01*
X63082632Y-37072257D02*
X62939774Y-37000828D01*
X61011203Y-38500828D02*
X61868346Y-38500828D01*
X61439775Y-38500828D02*
X61439775Y-37000828D01*
X61439775Y-37000828D02*
X61582632Y-37215114D01*
X61582632Y-37215114D02*
X61725489Y-37357971D01*
X61725489Y-37357971D02*
X61868346Y-37429400D01*
X60368347Y-38357971D02*
X60296918Y-38429400D01*
X60296918Y-38429400D02*
X60368347Y-38500828D01*
X60368347Y-38500828D02*
X60439775Y-38429400D01*
X60439775Y-38429400D02*
X60368347Y-38357971D01*
X60368347Y-38357971D02*
X60368347Y-38500828D01*
X59725489Y-37143685D02*
X59654061Y-37072257D01*
X59654061Y-37072257D02*
X59511204Y-37000828D01*
X59511204Y-37000828D02*
X59154061Y-37000828D01*
X59154061Y-37000828D02*
X59011204Y-37072257D01*
X59011204Y-37072257D02*
X58939775Y-37143685D01*
X58939775Y-37143685D02*
X58868346Y-37286542D01*
X58868346Y-37286542D02*
X58868346Y-37429400D01*
X58868346Y-37429400D02*
X58939775Y-37643685D01*
X58939775Y-37643685D02*
X59796918Y-38500828D01*
X59796918Y-38500828D02*
X58868346Y-38500828D01*
X57939775Y-37000828D02*
X57796918Y-37000828D01*
X57796918Y-37000828D02*
X57654061Y-37072257D01*
X57654061Y-37072257D02*
X57582633Y-37143685D01*
X57582633Y-37143685D02*
X57511204Y-37286542D01*
X57511204Y-37286542D02*
X57439775Y-37572257D01*
X57439775Y-37572257D02*
X57439775Y-37929400D01*
X57439775Y-37929400D02*
X57511204Y-38215114D01*
X57511204Y-38215114D02*
X57582633Y-38357971D01*
X57582633Y-38357971D02*
X57654061Y-38429400D01*
X57654061Y-38429400D02*
X57796918Y-38500828D01*
X57796918Y-38500828D02*
X57939775Y-38500828D01*
X57939775Y-38500828D02*
X58082633Y-38429400D01*
X58082633Y-38429400D02*
X58154061Y-38357971D01*
X58154061Y-38357971D02*
X58225490Y-38215114D01*
X58225490Y-38215114D02*
X58296918Y-37929400D01*
X58296918Y-37929400D02*
X58296918Y-37572257D01*
X58296918Y-37572257D02*
X58225490Y-37286542D01*
X58225490Y-37286542D02*
X58154061Y-37143685D01*
X58154061Y-37143685D02*
X58082633Y-37072257D01*
X58082633Y-37072257D02*
X57939775Y-37000828D01*
X56868347Y-37143685D02*
X56796919Y-37072257D01*
X56796919Y-37072257D02*
X56654062Y-37000828D01*
X56654062Y-37000828D02*
X56296919Y-37000828D01*
X56296919Y-37000828D02*
X56154062Y-37072257D01*
X56154062Y-37072257D02*
X56082633Y-37143685D01*
X56082633Y-37143685D02*
X56011204Y-37286542D01*
X56011204Y-37286542D02*
X56011204Y-37429400D01*
X56011204Y-37429400D02*
X56082633Y-37643685D01*
X56082633Y-37643685D02*
X56939776Y-38500828D01*
X56939776Y-38500828D02*
X56011204Y-38500828D01*
X54725491Y-37500828D02*
X54725491Y-38500828D01*
X55082633Y-36929400D02*
X55439776Y-38000828D01*
X55439776Y-38000828D02*
X54511205Y-38000828D01*
D12*
%TO.P,D1,1,K*%
%TO.N,Net-(D1-K)*%
X53492000Y-46252000D03*
D13*
%TO.P,D1,2,A*%
%TO.N,Net-(D1-A)*%
X56032000Y-46252000D03*
%TD*%
D14*
%TO.P,,1*%
%TO.N,Net-(D1-K)*%
X52132000Y-97202000D03*
%TD*%
D12*
%TO.P,D2,1,K*%
%TO.N,Net-(D1-K)*%
X72992000Y-46552000D03*
D13*
%TO.P,D2,2,A*%
%TO.N,Net-(D1-A)*%
X75532000Y-46552000D03*
%TD*%
D15*
%TO.P,R3,1*%
%TO.N,Net-(D3-K)*%
X68842000Y-64802000D03*
D16*
%TO.P,R3,2*%
%TO.N,Net-(Q1-B)*%
X58682000Y-64802000D03*
%TD*%
D15*
%TO.P,R5,1*%
%TO.N,Net-(S1-E)*%
X68842000Y-74302000D03*
D16*
%TO.P,R5,2*%
%TO.N,Net-(Q1-C)*%
X58682000Y-74302000D03*
%TD*%
D17*
%TO.P,D3,1,K*%
%TO.N,Net-(D3-K)*%
X67572000Y-93052000D03*
D16*
%TO.P,D3,2,A*%
%TO.N,Net-(D3-A)*%
X59952000Y-93052000D03*
%TD*%
D17*
%TO.P,U1,1,GND*%
%TO.N,Net-(D1-K)*%
X59962000Y-97152000D03*
D16*
%TO.P,U1,2,TR*%
%TO.N,Net-(D3-K)*%
X62502000Y-97152000D03*
%TO.P,U1,3,Q*%
%TO.N,unconnected-(U1-Q-Pad3)*%
X65042000Y-97152000D03*
%TO.P,U1,4,R*%
%TO.N,Net-(S1-E)*%
X67582000Y-97152000D03*
%TO.P,U1,5,CV*%
%TO.N,unconnected-(U1-CV-Pad5)*%
X67582000Y-104772000D03*
%TO.P,U1,6,THR*%
%TO.N,Net-(D3-K)*%
X65042000Y-104772000D03*
%TO.P,U1,7,DIS*%
%TO.N,Net-(D3-A)*%
X62502000Y-104772000D03*
%TO.P,U1,8,VCC*%
%TO.N,Net-(S1-E)*%
X59962000Y-104772000D03*
%TD*%
D17*
%TO.P,C1,1*%
%TO.N,Net-(D3-K)*%
X52964380Y-107152000D03*
D15*
%TO.P,C1,2*%
%TO.N,Net-(D1-K)*%
X50464380Y-107152000D03*
%TD*%
D18*
%TO.P,U2,1*%
%TO.N,Net-(S1-A-Pad1)*%
X40714000Y-80898000D03*
X37158000Y-80898000D03*
X40714000Y-106792000D03*
X37158000Y-106792000D03*
D19*
%TO.P,U2,2*%
%TO.N,Net-(D1-K)*%
X38682000Y-93852000D03*
%TD*%
D20*
%TO.P,Q1,1,E*%
%TO.N,Net-(Q1-C)*%
X89562000Y-74802000D03*
%TO.P,Q1,2,B*%
%TO.N,Net-(Q1-B)*%
X87022000Y-72262000D03*
D21*
%TO.P,Q1,3,C*%
%TO.N,Net-(D1-K)*%
X84482000Y-74802000D03*
%TD*%
D15*
%TO.P,R1off1,1*%
%TO.N,Net-(S1-E)*%
X68842000Y-83802000D03*
D16*
%TO.P,R1off1,2*%
%TO.N,Net-(D3-A)*%
X58682000Y-83802000D03*
%TD*%
D15*
%TO.P,R6,1*%
%TO.N,Net-(S1-E)*%
X68842000Y-79052000D03*
D16*
%TO.P,R6,2*%
%TO.N,Net-(Q2-C)*%
X58682000Y-79052000D03*
%TD*%
D14*
%TO.P,Q,1*%
%TO.N,unconnected-(U1-Q-Pad3)*%
X76532000Y-97152000D03*
%TD*%
D15*
%TO.P,R4,1*%
%TO.N,Net-(Q1-B)*%
X68842000Y-69552000D03*
D16*
%TO.P,R4,2*%
%TO.N,Net-(D1-K)*%
X58682000Y-69552000D03*
%TD*%
D15*
%TO.P,R2on2,1*%
%TO.N,Net-(D3-K)*%
X68842000Y-88552000D03*
D16*
%TO.P,R2on2,2*%
%TO.N,Net-(D3-A)*%
X58682000Y-88552000D03*
%TD*%
D22*
%TO.P,S1,1,A*%
%TO.N,Net-(S1-A-Pad1)*%
X79412000Y-105902000D03*
%TO.P,S1,2,E*%
%TO.N,Net-(S1-E)*%
X76872000Y-105902000D03*
%TO.P,S1,3,A*%
%TO.N,unconnected-(S1-A-Pad3)*%
X74332000Y-105902000D03*
%TD*%
D20*
%TO.P,Q2,1,E*%
%TO.N,Net-(Q2-C)*%
X33604000Y-72314000D03*
%TO.P,Q2,2,B*%
%TO.N,Net-(Q1-C)*%
X36144000Y-74854000D03*
D21*
%TO.P,Q2,3,C*%
%TO.N,Net-(D1-A)*%
X38684000Y-72314000D03*
%TD*%
D23*
%TO.N,Net-(D1-A)*%
X38608000Y-71374000D03*
X38862000Y-65278000D03*
%TD*%
D24*
%TO.N,Net-(D1-K)*%
X72992000Y-46552000D02*
X72992000Y-46170000D01*
X83896000Y-71806000D02*
X60020000Y-71806000D01*
X54686000Y-42596000D02*
X53492000Y-43790000D01*
X58682000Y-70468000D02*
X58682000Y-69552000D01*
X53492000Y-43790000D02*
X53492000Y-46252000D01*
X38682000Y-93852000D02*
X48782000Y-93852000D01*
X50464380Y-98869620D02*
X52132000Y-97202000D01*
X59912000Y-97202000D02*
X59962000Y-97152000D01*
X54400000Y-69552000D02*
X52132000Y-71820000D01*
X50464380Y-107152000D02*
X50464380Y-98869620D01*
X54686000Y-69552000D02*
X54400000Y-69552000D01*
X53492000Y-68358000D02*
X54686000Y-69552000D01*
X83896000Y-71806000D02*
X84482000Y-72392000D01*
X60020000Y-71806000D02*
X58682000Y-70468000D01*
X52132000Y-97202000D02*
X59912000Y-97202000D01*
X58682000Y-69552000D02*
X54686000Y-69552000D01*
X53492000Y-46252000D02*
X53492000Y-68358000D01*
X84482000Y-72392000D02*
X84482000Y-74802000D01*
X69418000Y-42596000D02*
X54686000Y-42596000D01*
X72992000Y-46170000D02*
X69418000Y-42596000D01*
X52132000Y-71820000D02*
X52132000Y-97202000D01*
X48782000Y-93852000D02*
X52132000Y-97202000D01*
%TO.N,Net-(D1-A)*%
X38684000Y-65456000D02*
X38684000Y-72314000D01*
X38862000Y-65278000D02*
X38684000Y-65456000D01*
%TO.N,Net-(Q1-B)*%
X61652000Y-64802000D02*
X58682000Y-64802000D01*
X68842000Y-69552000D02*
X66402000Y-69552000D01*
X66402000Y-69552000D02*
X61652000Y-64802000D01*
%TO.N,Net-(S1-E)*%
X59962000Y-104772000D02*
X59962000Y-102344000D01*
X67582000Y-99550000D02*
X67582000Y-97152000D01*
X61544000Y-100762000D02*
X66370000Y-100762000D01*
X66370000Y-100762000D02*
X67582000Y-99550000D01*
X68842000Y-79052000D02*
X68842000Y-83802000D01*
X59962000Y-102344000D02*
X61544000Y-100762000D01*
X68842000Y-74302000D02*
X68842000Y-79052000D01*
%TO.N,Net-(S1-A-Pad1)*%
X32132000Y-80898000D02*
X26746000Y-86284000D01*
X37158000Y-80898000D02*
X32132000Y-80898000D01*
X55448000Y-111684000D02*
X54178000Y-112954000D01*
X79412000Y-107278000D02*
X78816000Y-107874000D01*
X78816000Y-107874000D02*
X57734000Y-107874000D01*
X40714000Y-111682000D02*
X40714000Y-106792000D01*
X40714000Y-80898000D02*
X37158000Y-80898000D01*
X57734000Y-107874000D02*
X55448000Y-110160000D01*
X29032000Y-105588000D02*
X35954000Y-105588000D01*
X41986000Y-112954000D02*
X40714000Y-111682000D01*
X79412000Y-105902000D02*
X79412000Y-107278000D01*
X35954000Y-105588000D02*
X37158000Y-106792000D01*
X26746000Y-86284000D02*
X26746000Y-103302000D01*
X26746000Y-103302000D02*
X29032000Y-105588000D01*
X54178000Y-112954000D02*
X41986000Y-112954000D01*
X55448000Y-110160000D02*
X55448000Y-111684000D01*
X37158000Y-106792000D02*
X40714000Y-106792000D01*
%TO.N,unconnected-(U1-Q-Pad3)*%
X65042000Y-97152000D02*
X65042000Y-96248000D01*
X65862000Y-95428000D02*
X74808000Y-95428000D01*
X65042000Y-96248000D02*
X65862000Y-95428000D01*
X74808000Y-95428000D02*
X76532000Y-97152000D01*
%TD*%
M02*
