%TF.GenerationSoftware,KiCad,Pcbnew,8.0.1*%
%TF.CreationDate,2024-04-02T10:26:23+02:00*%
%TF.ProjectId,Monster,4d6f6e73-7465-4722-9e6b-696361645f70,rev?*%
%TF.SameCoordinates,Original*%
%TF.FileFunction,Soldermask,Top*%
%TF.FilePolarity,Negative*%
%FSLAX46Y46*%
G04 Gerber Fmt 4.6, Leading zero omitted, Abs format (unit mm)*
G04 Created by KiCad (PCBNEW 8.0.1) date 2024-04-02 10:26:23*
%MOMM*%
%LPD*%
G01*
G04 APERTURE LIST*
G04 Aperture macros list*
%AMRoundRect*
0 Rectangle with rounded corners*
0 $1 Rounding radius*
0 $2 $3 $4 $5 $6 $7 $8 $9 X,Y pos of 4 corners*
0 Add a 4 corners polygon primitive as box body*
4,1,4,$2,$3,$4,$5,$6,$7,$8,$9,$2,$3,0*
0 Add four circle primitives for the rounded corners*
1,1,$1+$1,$2,$3*
1,1,$1+$1,$4,$5*
1,1,$1+$1,$6,$7*
1,1,$1+$1,$8,$9*
0 Add four rect primitives between the rounded corners*
20,1,$1+$1,$2,$3,$4,$5,0*
20,1,$1+$1,$4,$5,$6,$7,0*
20,1,$1+$1,$6,$7,$8,$9,0*
20,1,$1+$1,$8,$9,$2,$3,0*%
G04 Aperture macros list end*
%ADD10RoundRect,0.200000X-0.900000X-0.900000X0.900000X-0.900000X0.900000X0.900000X-0.900000X0.900000X0*%
%ADD11C,2.200000*%
%ADD12C,2.000000*%
%ADD13O,2.000000X2.000000*%
%ADD14RoundRect,0.200000X0.800000X0.800000X-0.800000X0.800000X-0.800000X-0.800000X0.800000X-0.800000X0*%
%ADD15RoundRect,0.200000X-0.800000X0.800000X-0.800000X-0.800000X0.800000X-0.800000X0.800000X0.800000X0*%
%ADD16C,1.900000*%
%ADD17RoundRect,0.200000X0.750000X0.750000X-0.750000X0.750000X-0.750000X-0.750000X0.750000X-0.750000X0*%
%ADD18C,2.400000*%
%ADD19RoundRect,0.200000X-0.750000X-0.750000X0.750000X-0.750000X0.750000X0.750000X-0.750000X0.750000X0*%
G04 APERTURE END LIST*
D10*
%TO.C,D1*%
X53492000Y-46252000D03*
D11*
X56032000Y-46252000D03*
%TD*%
D10*
%TO.C,D2*%
X72992000Y-46552000D03*
D11*
X75532000Y-46552000D03*
%TD*%
D12*
%TO.C,R3*%
X68842000Y-64802000D03*
D13*
X58682000Y-64802000D03*
%TD*%
D12*
%TO.C,R5*%
X68842000Y-74302000D03*
D13*
X58682000Y-74302000D03*
%TD*%
D14*
%TO.C,D3*%
X67572000Y-93052000D03*
D13*
X59952000Y-93052000D03*
%TD*%
D15*
%TO.C,U1*%
X59962000Y-97152000D03*
D13*
X62502000Y-97152000D03*
X65042000Y-97152000D03*
X67582000Y-97152000D03*
X67582000Y-104772000D03*
X65042000Y-104772000D03*
X62502000Y-104772000D03*
X59962000Y-104772000D03*
%TD*%
D14*
%TO.C,C1*%
X52964380Y-107152000D03*
D12*
X50464380Y-107152000D03*
%TD*%
D16*
%TO.C,Q1*%
X89562000Y-74802000D03*
X87022000Y-72262000D03*
D17*
X84482000Y-74802000D03*
%TD*%
D12*
%TO.C,R1off1*%
X68842000Y-83802000D03*
D13*
X58682000Y-83802000D03*
%TD*%
D12*
%TO.C,R6*%
X68842000Y-79052000D03*
D13*
X58682000Y-79052000D03*
%TD*%
D12*
%TO.C,R4*%
X68842000Y-69552000D03*
D13*
X58682000Y-69552000D03*
%TD*%
D12*
%TO.C,R2on2*%
X68842000Y-88552000D03*
D13*
X58682000Y-88552000D03*
%TD*%
D18*
%TO.C,S1*%
X79412000Y-105902000D03*
X76872000Y-105902000D03*
X74332000Y-105902000D03*
%TD*%
D16*
%TO.C,Q2*%
X33604000Y-72314000D03*
X36144000Y-74854000D03*
D19*
X38684000Y-72314000D03*
%TD*%
M02*
