M48
; DRILL file {KiCad 8.0.1} date 2024-04-02T10:26:26+0200
; FORMAT={-:-/ absolute / inch / decimal}
; #@! TF.CreationDate,2024-04-02T10:26:26+02:00
; #@! TF.GenerationSoftware,Kicad,Pcbnew,8.0.1
; #@! TF.FileFunction,Plated,1,2,PTH
FMAT,2
INCH
; #@! TA.AperFunction,Plated,PTH,ViaDrill
T1C0.0157
; #@! TA.AperFunction,Plated,PTH,ComponentDrill
T2C0.0315
; #@! TA.AperFunction,Plated,PTH,ComponentDrill
T3C0.0354
; #@! TA.AperFunction,Plated,PTH,ComponentDrill
T4C0.0394
%
G90
G05
T1
X1.52Y-2.81
X1.53Y-2.57
T2
X1.323Y-2.847
X1.423Y-2.947
X1.523Y-2.847
X1.9868Y-4.2186
X2.0852Y-4.2186
X2.3103Y-2.5513
X2.3103Y-2.7383
X2.3103Y-2.9253
X2.3103Y-3.1123
X2.3103Y-3.2993
X2.3103Y-3.4863
X2.3603Y-3.6635
X2.3607Y-3.8249
X2.3607Y-4.1249
X2.4607Y-3.8249
X2.4607Y-4.1249
X2.5607Y-3.8249
X2.5607Y-4.1249
X2.6603Y-3.6635
X2.6607Y-3.8249
X2.6607Y-4.1249
X2.7103Y-2.5513
X2.7103Y-2.7383
X2.7103Y-2.9253
X2.7103Y-3.1123
X2.7103Y-3.2993
X2.7103Y-3.4863
X3.3261Y-2.945
X3.4261Y-2.845
X3.5261Y-2.945
T3
X2.106Y-1.8209
X2.206Y-1.8209
X2.8737Y-1.8328
X2.9737Y-1.8328
T4
X2.9265Y-4.1694
X3.0265Y-4.1694
X3.1265Y-4.1694
M30
