%TF.GenerationSoftware,KiCad,Pcbnew,8.0.1*%
%TF.CreationDate,2024-04-02T10:26:23+02:00*%
%TF.ProjectId,Monster,4d6f6e73-7465-4722-9e6b-696361645f70,rev?*%
%TF.SameCoordinates,Original*%
%TF.FileFunction,Copper,L1,Top*%
%TF.FilePolarity,Positive*%
%FSLAX46Y46*%
G04 Gerber Fmt 4.6, Leading zero omitted, Abs format (unit mm)*
G04 Created by KiCad (PCBNEW 8.0.1) date 2024-04-02 10:26:23*
%MOMM*%
%LPD*%
G01*
G04 APERTURE LIST*
%TA.AperFunction,ComponentPad*%
%ADD10R,1.800000X1.800000*%
%TD*%
%TA.AperFunction,ComponentPad*%
%ADD11C,1.800000*%
%TD*%
%TA.AperFunction,ComponentPad*%
%ADD12C,1.600000*%
%TD*%
%TA.AperFunction,ComponentPad*%
%ADD13O,1.600000X1.600000*%
%TD*%
%TA.AperFunction,ComponentPad*%
%ADD14R,1.600000X1.600000*%
%TD*%
%TA.AperFunction,ComponentPad*%
%ADD15C,1.500000*%
%TD*%
%TA.AperFunction,ComponentPad*%
%ADD16R,1.500000X1.500000*%
%TD*%
%TA.AperFunction,ComponentPad*%
%ADD17C,2.000000*%
%TD*%
%TA.AperFunction,ViaPad*%
%ADD18C,0.600000*%
%TD*%
%TA.AperFunction,Conductor*%
%ADD19C,0.250000*%
%TD*%
G04 APERTURE END LIST*
D10*
%TO.P,D1,1,K*%
%TO.N,Net-(D1-K)*%
X53492000Y-46252000D03*
D11*
%TO.P,D1,2,A*%
%TO.N,Net-(D1-A)*%
X56032000Y-46252000D03*
%TD*%
D10*
%TO.P,D2,1,K*%
%TO.N,Net-(D1-K)*%
X72992000Y-46552000D03*
D11*
%TO.P,D2,2,A*%
%TO.N,Net-(D1-A)*%
X75532000Y-46552000D03*
%TD*%
D12*
%TO.P,R3,1*%
%TO.N,Net-(D3-K)*%
X68842000Y-64802000D03*
D13*
%TO.P,R3,2*%
%TO.N,Net-(Q1-B)*%
X58682000Y-64802000D03*
%TD*%
D12*
%TO.P,R5,1*%
%TO.N,Net-(S1-E)*%
X68842000Y-74302000D03*
D13*
%TO.P,R5,2*%
%TO.N,Net-(Q1-C)*%
X58682000Y-74302000D03*
%TD*%
D14*
%TO.P,D3,1,K*%
%TO.N,Net-(D3-K)*%
X67572000Y-93052000D03*
D13*
%TO.P,D3,2,A*%
%TO.N,Net-(D3-A)*%
X59952000Y-93052000D03*
%TD*%
D14*
%TO.P,U1,1,GND*%
%TO.N,Net-(D1-K)*%
X59962000Y-97152000D03*
D13*
%TO.P,U1,2,TR*%
%TO.N,Net-(D3-K)*%
X62502000Y-97152000D03*
%TO.P,U1,3,Q*%
%TO.N,unconnected-(U1-Q-Pad3)*%
X65042000Y-97152000D03*
%TO.P,U1,4,R*%
%TO.N,Net-(S1-E)*%
X67582000Y-97152000D03*
%TO.P,U1,5,CV*%
%TO.N,unconnected-(U1-CV-Pad5)*%
X67582000Y-104772000D03*
%TO.P,U1,6,THR*%
%TO.N,Net-(D3-K)*%
X65042000Y-104772000D03*
%TO.P,U1,7,DIS*%
%TO.N,Net-(D3-A)*%
X62502000Y-104772000D03*
%TO.P,U1,8,VCC*%
%TO.N,Net-(S1-E)*%
X59962000Y-104772000D03*
%TD*%
D14*
%TO.P,C1,1*%
%TO.N,Net-(D3-K)*%
X52964380Y-107152000D03*
D12*
%TO.P,C1,2*%
%TO.N,Net-(D1-K)*%
X50464380Y-107152000D03*
%TD*%
D15*
%TO.P,Q1,1,E*%
%TO.N,Net-(Q1-C)*%
X89562000Y-74802000D03*
%TO.P,Q1,2,B*%
%TO.N,Net-(Q1-B)*%
X87022000Y-72262000D03*
D16*
%TO.P,Q1,3,C*%
%TO.N,Net-(D1-K)*%
X84482000Y-74802000D03*
%TD*%
D12*
%TO.P,R1off1,1*%
%TO.N,Net-(S1-E)*%
X68842000Y-83802000D03*
D13*
%TO.P,R1off1,2*%
%TO.N,Net-(D3-A)*%
X58682000Y-83802000D03*
%TD*%
D12*
%TO.P,R6,1*%
%TO.N,Net-(S1-E)*%
X68842000Y-79052000D03*
D13*
%TO.P,R6,2*%
%TO.N,Net-(Q2-C)*%
X58682000Y-79052000D03*
%TD*%
D12*
%TO.P,R4,1*%
%TO.N,Net-(Q1-B)*%
X68842000Y-69552000D03*
D13*
%TO.P,R4,2*%
%TO.N,Net-(D1-K)*%
X58682000Y-69552000D03*
%TD*%
D12*
%TO.P,R2on2,1*%
%TO.N,Net-(D3-K)*%
X68842000Y-88552000D03*
D13*
%TO.P,R2on2,2*%
%TO.N,Net-(D3-A)*%
X58682000Y-88552000D03*
%TD*%
D17*
%TO.P,S1,1,A*%
%TO.N,Net-(S1-A-Pad1)*%
X79412000Y-105902000D03*
%TO.P,S1,2,E*%
%TO.N,Net-(S1-E)*%
X76872000Y-105902000D03*
%TO.P,S1,3,A*%
%TO.N,unconnected-(S1-A-Pad3)*%
X74332000Y-105902000D03*
%TD*%
D15*
%TO.P,Q2,1,E*%
%TO.N,Net-(Q2-C)*%
X33604000Y-72314000D03*
%TO.P,Q2,2,B*%
%TO.N,Net-(Q1-C)*%
X36144000Y-74854000D03*
D16*
%TO.P,Q2,3,C*%
%TO.N,Net-(D1-A)*%
X38684000Y-72314000D03*
%TD*%
D18*
%TO.N,Net-(D1-A)*%
X38608000Y-71374000D03*
X38862000Y-65278000D03*
%TD*%
D19*
%TO.N,Net-(D3-K)*%
X67572000Y-89822000D02*
X68842000Y-88552000D01*
X96342000Y-68504000D02*
X96342000Y-78410000D01*
X67572000Y-90094000D02*
X67572000Y-89822000D01*
X67572000Y-93052000D02*
X63920000Y-93052000D01*
X64338000Y-86860000D02*
X67572000Y-90094000D01*
X66624000Y-81458000D02*
X64338000Y-83744000D01*
X64338000Y-83744000D02*
X64338000Y-86860000D01*
X92640000Y-64802000D02*
X96342000Y-68504000D01*
X67572000Y-93052000D02*
X67572000Y-90094000D01*
X62502000Y-94470000D02*
X62502000Y-97152000D01*
X63536000Y-107152000D02*
X52964380Y-107152000D01*
X68842000Y-64802000D02*
X92640000Y-64802000D01*
X96342000Y-78410000D02*
X93294000Y-81458000D01*
X65042000Y-105646000D02*
X63536000Y-107152000D01*
X65042000Y-102228000D02*
X65042000Y-104772000D01*
X63920000Y-93052000D02*
X62502000Y-94470000D01*
X62502000Y-97152000D02*
X62502000Y-99688000D01*
X93294000Y-81458000D02*
X66624000Y-81458000D01*
X65042000Y-104772000D02*
X65042000Y-105646000D01*
X62502000Y-99688000D02*
X65042000Y-102228000D01*
%TO.N,Net-(D1-A)*%
X38862000Y-65024000D02*
X38862000Y-65278000D01*
X56032000Y-48768000D02*
X55118000Y-48768000D01*
X75532000Y-46552000D02*
X75532000Y-49690000D01*
X75532000Y-49690000D02*
X56954000Y-49690000D01*
X56954000Y-49690000D02*
X56032000Y-48768000D01*
X56032000Y-48768000D02*
X56032000Y-46252000D01*
X55118000Y-48768000D02*
X38862000Y-65024000D01*
%TO.N,Net-(D3-A)*%
X57752000Y-88552000D02*
X58682000Y-88552000D01*
X59512000Y-102286000D02*
X61798000Y-102286000D01*
X56972000Y-95174000D02*
X56972000Y-99746000D01*
X56972000Y-99746000D02*
X59512000Y-102286000D01*
X62502000Y-102990000D02*
X62502000Y-104772000D01*
X59952000Y-93052000D02*
X59094000Y-93052000D01*
X56972000Y-89332000D02*
X57752000Y-88552000D01*
X61798000Y-102286000D02*
X62502000Y-102990000D01*
X58682000Y-83802000D02*
X58682000Y-88552000D01*
X56972000Y-95174000D02*
X56972000Y-89332000D01*
X59094000Y-93052000D02*
X56972000Y-95174000D01*
%TO.N,Net-(Q1-B)*%
X87022000Y-70868000D02*
X87022000Y-72262000D01*
X85706000Y-69552000D02*
X87022000Y-70868000D01*
X68842000Y-69552000D02*
X85706000Y-69552000D01*
%TO.N,Net-(Q1-C)*%
X43510000Y-69266000D02*
X37160000Y-69266000D01*
X58682000Y-74302000D02*
X59722000Y-74302000D01*
X88824000Y-76632000D02*
X89562000Y-75894000D01*
X89562000Y-75894000D02*
X89562000Y-74802000D01*
X48546000Y-74302000D02*
X43510000Y-69266000D01*
X37160000Y-69266000D02*
X36144000Y-70282000D01*
X62052000Y-76632000D02*
X88824000Y-76632000D01*
X36144000Y-70282000D02*
X36144000Y-74854000D01*
X59722000Y-74302000D02*
X62052000Y-76632000D01*
X58682000Y-74302000D02*
X48546000Y-74302000D01*
%TO.N,Net-(Q2-C)*%
X49740000Y-79052000D02*
X49784000Y-79052000D01*
X47694000Y-76962000D02*
X49784000Y-79052000D01*
X34036000Y-76962000D02*
X47694000Y-76962000D01*
X33604000Y-72314000D02*
X33604000Y-76530000D01*
X33604000Y-76530000D02*
X34036000Y-76962000D01*
X49784000Y-79052000D02*
X58682000Y-79052000D01*
%TO.N,Net-(S1-E)*%
X71142000Y-97152000D02*
X76872000Y-102882000D01*
X71142000Y-86102000D02*
X71142000Y-97152000D01*
X76872000Y-102882000D02*
X76872000Y-105902000D01*
X67582000Y-97152000D02*
X71142000Y-97152000D01*
X68842000Y-83802000D02*
X71142000Y-86102000D01*
%TD*%
M02*
