M48
; DRILL file {KiCad 9.0.6} date 2025-12-30T13:30:39+0100
; FORMAT={-:-/ absolute / inch / decimal}
; #@! TF.CreationDate,2025-12-30T13:30:39+01:00
; #@! TF.GenerationSoftware,Kicad,Pcbnew,9.0.6
; #@! TF.FileFunction,Plated,1,2,PTH
FMAT,2
INCH
; #@! TA.AperFunction,Plated,PTH,ComponentDrill
T1C0.0315
; #@! TA.AperFunction,Plated,PTH,ComponentDrill
T2C0.0354
; #@! TA.AperFunction,Plated,PTH,ComponentDrill
T3C0.0394
%
G90
G05
T1
X4.3038Y-4.3913
X4.4038Y-4.2913
X4.4038Y-4.4913
X4.648Y-4.3953
X4.748Y-4.2953
X4.748Y-4.4953
X5.0866Y-4.4685
X5.0866Y-4.8685
X5.2461Y-4.4685
X5.2461Y-4.8685
X5.4055Y-4.4685
X5.4055Y-4.8685
X5.565Y-4.4685
X5.565Y-4.8685
X5.7244Y-4.4685
X5.7244Y-4.8685
X5.8839Y-4.4685
X5.8839Y-4.8685
X6.1024Y-4.5236
X6.1024Y-4.8236
X6.5984Y-4.5276
X6.5984Y-4.8276
X6.6984Y-4.5276
X6.6984Y-4.8276
X6.7984Y-4.5276
X6.7984Y-4.8276
X6.8984Y-4.5276
X6.8984Y-4.8276
X7.374Y-4.1378
X7.4724Y-4.1378
T2
X4.585Y-2.1772
X4.685Y-2.1772
X4.9709Y-2.2283
X5.0709Y-2.2283
T3
X7.6142Y-2.5551
X7.6142Y-2.6551
X7.6142Y-2.7551
M30
