<?xml version="1.0" encoding="UTF-8" standalone="no"?>
<!-- Generator: Adobe Illustrator 26.0.3, SVG Export Plug-In . SVG Version: 6.00 Build 0)  -->

<svg
   version="1.1"
   id="Livello_1"
   x="0px"
   y="0px"
   viewBox="0 0 120.0 120.0"
   style="enable-background:new 0 0 720 720;"
   xml:space="preserve"
   sodipodi:docname="Tiger.svg"
   inkscape:version="1.1 (c68e22c387, 2021-05-23)"
   width="120.0mm"
   height="120.0mm"
   xmlns:inkscape="http://www.inkscape.org/namespaces/inkscape"
   xmlns:sodipodi="http://sodipodi.sourceforge.net/DTD/sodipodi-0.dtd"
   xmlns="http://www.w3.org/2000/svg"
   xmlns:svg="http://www.w3.org/2000/svg"><defs
   id="defs23" /><sodipodi:namedview
   id="namedview23"
   pagecolor="#ffffff"
   bordercolor="#666666"
   borderopacity="1.0"
   inkscape:showpageshadow="2"
   inkscape:pageopacity="0.0"
   inkscape:pagecheckerboard="0"
   inkscape:deskcolor="#d1d1d1"
   inkscape:zoom="1.0819444"
   inkscape:cx="207.95893"
   inkscape:cy="280.51349"
   inkscape:window-width="1920"
   inkscape:window-height="1017"
   inkscape:window-x="-8"
   inkscape:window-y="-8"
   inkscape:window-maximized="1"
   inkscape:current-layer="g1739"
   inkscape:pageshadow="2"
   showgrid="false"
   inkscape:snap-global="false"
   borderlayer="true"
   inkscape:document-units="mm"><inkscape:grid
     spacingx="2.54"
     spacingy="2.54"
     empspacing="1"
     type="xygrid"
     units="mm"
     id="grid1686" /></sodipodi:namedview>
<style
   type="text/css"
   id="style1">
	.st0{fill:#EF8951;}
	.st1{fill:#FFFFFF;}
	.st2{fill:#F6BCC9;}
</style>

<g
   inkscape:label="[fixed] BG"
   inkscape:groupmode="layer"
   sodipodi:insensitive="true"
   id="g1729"><rect
     x="0"
     y="0"
     width="120.0"
     height="120.0"
     style="fill:#FFFFFF;fill-opacity:1;stroke:none"
     id="rect1727" /></g><g
   inkscape:label="Edge.Cuts"
   inkscape:groupmode="layer"
   id="g1731"
   style="display:inline"><path
     style="display:inline;fill:none;stroke:#000000;stroke-width:0.642;stroke-miterlimit:4;stroke-dasharray:none"
     d="M 113.237 81.4202 L 113.131 81.0616 L 112.989 80.7067 L 112.813 80.3585 L 112.604 80.0202 L 112.363 79.6947 L 112.09 79.3854 L 111.788 79.0951 L 111.457 78.8272 L 111.097 78.5846 L 110.711 78.3705 L 110.3 78.188 L 109.864 78.0402 L 109.404 77.9302 L 108.922 77.8611 L 108.419 77.836 L 107.895 77.8581 L 107.329 77.9289 L 106.784 78.0373 L 106.259 78.1815 L 105.754 78.3598 L 105.269 78.5701 L 104.802 78.8107 L 104.355 79.0796 L 103.926 79.3752 L 103.514 79.6954 L 103.12 80.0385 L 102.742 80.4025 L 102.381 80.7857 L 102.036 81.1862 L 101.706 81.6021 L 101.392 82.0316 L 101.092 82.4728 L 100.806 82.9239 L 100.533 83.383 L 100.028 84.3179 L 99.571 85.2626 L 99.1598 86.2024 L 98.7904 87.1223 L 98.459 88.0077 L 97.896 89.6152 L 97.6846 90.1919 L 97.459 90.7328 L 97.2213 91.2351 L 96.9735 91.6959 L 96.7179 92.1125 L 96.4564 92.482 L 96.1913 92.8015 L 95.9245 93.0683 L 96.0503 92.2727 L 96.1255 91.4871 L 96.1497 90.7133 L 96.1226 89.9528 L 96.0439 89.2076 L 95.9133 88.4791 L 95.7306 87.7692 L 95.4955 87.0795 L 95.3228 86.6618 L 95.1316 86.2569 L 94.9224 85.8655 L 94.696 85.4882 L 94.453 85.1258 L 94.194 84.7788 L 93.9196 84.4479 L 93.6305 84.1338 L 93.3272 83.8371 L 93.0106 83.5584 L 92.6811 83.2985 L 92.3394 83.058 L 91.9862 82.8375 L 91.6221 82.6377 L 91.2476 82.4592 L 90.8636 82.3027 L 90.1438 82.0575 L 89.4363 81.8647 L 88.7413 81.7242 L 88.059 81.6359 L 87.3896 81.5998 L 86.7333 81.6158 L 86.0903 81.6837 L 85.4607 81.8035 L 85.2843 80.7371 L 85.0771 79.6618 L 84.839 78.5802 L 84.5695 77.4951 L 84.4576 77.0745 L 84.1576 76.0458 L 83.9372 75.3461 L 83.6697 74.5457 L 83.3554 73.6616 L 82.9941 72.7109 L 84.3576 72.291 L 85.5393 71.8898 L 86.54 71.5183 L 87.3603 71.1876 L 87.3941 71.1727 L 87.5924 71.0619 L 87.7703 70.9293 L 87.929 70.777 L 88.0693 70.6072 L 88.1923 70.4218 L 88.2991 70.2229 L 88.3906 70.0128 L 88.4679 69.7936 L 88.5839 69.3358 L 88.6552 68.8665 L 88.6901 68.4026 L 88.6967 67.9608 L 89.3507 68.2755 L 89.9851 68.579 L 90.3095 68.7061 L 90.6344 68.7994 L 90.9566 68.846 L 91.1155 68.8477 L 91.2726 68.8328 L 91.4273 68.7997 L 91.5793 68.7467 L 91.7281 68.6724 L 91.8733 68.5749 L 91.9568 68.5016 L 92.0285 68.4187 L 92.1343 68.23 L 92.1864 68.0199 L 92.1909 67.9104 L 92.1802 67.7999 L 91.6478 64.5843 L 94.0656 65.4099 L 94.2211 65.4465 L 94.3762 65.4521 L 94.527 65.4284 L 94.6698 65.3772 L 94.8006 65.3004 L 94.9156 65.1999 L 95.0108 65.0773 L 95.0824 64.9346 L 95.3494 64.2096 L 95.5965 63.4748 L 95.8238 62.7305 L 96.0312 61.9769 L 96.2187 61.2142 L 96.3865 60.4425 L 96.5344 59.662 L 96.6625 58.8729 L 96.7708 58.0755 L 96.8593 57.2698 L 96.928 56.4561 L 96.9769 55.6345 L 97.0061 54.8053 L 97.0155 53.9686 L 97.0052 53.1246 L 96.9751 52.2735 L 96.9253 51.4154 L 96.8557 50.5507 L 96.7665 49.6794 L 96.6575 48.8017 L 96.5288 47.9178 L 96.3805 47.028 L 96.2124 46.1323 L 96.0247 45.2311 L 95.8173 44.3244 L 95.5903 43.4124 L 95.3436 42.4954 L 95.0773 41.5734 L 94.7913 40.6468 L 94.4857 39.7157 L 94.1605 38.7803 L 93.8157 37.8407 L 93.3809 36.7193 L 92.937 35.6356 L 92.4872 34.5916 L 92.035 33.5895 L 91.5836 32.6311 L 91.1363 31.7185 L 90.2674 30.0388 L 89.4548 28.5665 L 88.7249 27.3177 L 88.1041 26.3087 L 87.6191 25.5555 L 88.0384 25.2205 L 88.5187 24.8015 L 89.0395 24.3003 L 89.5802 23.7185 L 89.8516 23.3979 L 90.1203 23.0578 L 90.3837 22.6984 L 90.6392 22.32 L 90.8843 21.9226 L 91.1164 21.5066 L 91.3329 21.0721 L 91.5312 20.6194 L 91.6772 20.2411 L 91.8096 19.8545 L 91.9279 19.4607 L 92.0318 19.0602 L 92.1207 18.6541 L 92.1943 18.243 L 92.2521 17.8277 L 92.2937 17.409 L 92.3187 16.9878 L 92.3266 16.5649 L 92.3171 16.141 L 92.2896 15.7169 L 92.2438 15.2934 L 92.1792 14.8714 L 92.0954 14.4516 L 91.9919 14.0349 L 91.8684 13.6219 L 91.7244 13.2136 L 91.5595 12.8107 L 91.3733 12.4141 L 91.1652 12.0244 L 90.935 11.6426 L 90.6821 11.2694 L 90.4062 10.9056 L 90.1068 10.552 L 89.7834 10.2094 L 89.4358 9.87864 L 89.0633 9.56047 L 88.6656 9.25571 L 88.2423 8.96515 L 87.7929 8.68959 L 87.317 8.42983 L 86.4613 8.02212 L 85.6359 7.69149 L 84.8409 7.43319 L 84.0765 7.24246 L 83.3427 7.11454 L 82.6397 7.04467 L 81.9675 7.02809 L 81.3262 7.06003 L 80.716 7.13575 L 80.137 7.25047 L 79.5892 7.39943 L 79.0727 7.57788 L 78.5877 7.78106 L 78.1342 8.0042 L 77.7123 8.24255 L 77.3222 8.49133 L 76.7962 8.87455 L 76.2945 9.2969 L 75.8183 9.75574 L 75.3688 10.2485 L 74.9472 10.7724 L 74.5546 11.325 L 74.1923 11.9036 L 73.8614 12.5055 L 73.5631 13.1281 L 73.2986 13.7689 L 73.0692 14.4251 L 72.8759 15.0942 L 72.7199 15.7735 L 72.6026 16.4604 L 72.5249 17.1522 L 72.4882 17.8464 L 71.7221 17.5981 L 70.7799 17.3284 L 69.669 17.0541 L 68.3966 16.7919 L 67.7022 16.6706 L 66.9701 16.5587 L 66.2014 16.4582 L 65.3969 16.3713 L 64.5575 16.3001 L 63.6842 16.2466 L 62.7779 16.2129 L 61.8394 16.2012 L 61.8025 16.2012 L 61.3869 16.2012 L 61.3498 16.2012 L 60.4113 16.2129 L 59.5049 16.2466 L 58.6315 16.3001 L 57.7921 16.3713 L 56.9875 16.4582 L 56.2187 16.5587 L 55.4866 16.6706 L 54.7921 16.7919 L 53.5196 17.0541 L 52.4086 17.3284 L 51.4664 17.5981 L 50.7004 17.8464 L 50.6637 17.1522 L 50.5861 16.4604 L 50.4687 15.7735 L 50.3128 15.0942 L 50.1195 14.4251 L 49.89 13.7689 L 49.6255 13.1281 L 49.3273 12.5055 L 48.9964 11.9036 L 48.6341 11.325 L 48.2415 10.7724 L 47.8199 10.2485 L 47.3703 9.75574 L 46.8942 9.2969 L 46.3925 8.87455 L 45.8664 8.49133 L 45.4763 8.24249 L 45.0545 8.00412 L 44.601 7.78096 L 44.116 7.57778 L 43.5995 7.39934 L 43.0517 7.25039 L 42.4727 7.13569 L 41.8625 7.06 L 41.2212 7.02809 L 40.5491 7.04469 L 39.846 7.11459 L 39.1122 7.24252 L 38.3478 7.43325 L 37.5527 7.69155 L 36.7273 8.02215 L 35.8715 8.42983 L 35.3956 8.68959 L 34.9462 8.96515 L 34.5229 9.25571 L 34.1252 9.56047 L 33.7527 9.87864 L 33.405 10.2094 L 33.0817 10.552 L 32.7823 10.9056 L 32.5063 11.2694 L 32.2535 11.6426 L 32.0232 12.0244 L 31.8152 12.4141 L 31.629 12.8107 L 31.4641 13.2136 L 31.3201 13.6219 L 31.1966 14.0349 L 31.0931 14.4516 L 31.0093 14.8714 L 30.9447 15.2934 L 30.8989 15.7169 L 30.8714 16.141 L 30.8619 16.5649 L 30.8698 16.9878 L 30.8948 17.409 L 30.9364 17.8277 L 30.9942 18.243 L 31.0678 18.6541 L 31.1567 19.0602 L 31.2606 19.4607 L 31.3789 19.8545 L 31.5113 20.2411 L 31.6573 20.6194 L 31.8557 21.0721 L 32.0722 21.5066 L 32.3043 21.9226 L 32.5494 22.32 L 32.8049 22.6984 L 33.0683 23.0578 L 33.337 23.3979 L 33.6084 23.7185 L 34.1491 24.3003 L 34.67 24.8015 L 35.1503 25.2205 L 35.5696 25.5555 L 35.0845 26.3087 L 34.4637 27.3177 L 33.7338 28.5665 L 32.9212 30.0388 L 32.0523 31.7185 L 31.605 32.6311 L 31.1536 33.5895 L 30.7013 34.5916 L 30.2516 35.6356 L 29.8076 36.7193 L 29.3728 37.8407 L 29.028 38.7803 L 28.7028 39.7157 L 28.3972 40.6468 L 28.1113 41.5734 L 27.8449 42.4954 L 27.5983 43.4124 L 27.3712 44.3244 L 27.1638 45.2311 L 26.9761 46.1323 L 26.8081 47.028 L 26.6597 47.9178 L 26.5311 48.8017 L 26.4221 49.6794 L 26.3328 50.5507 L 26.2633 51.4154 L 26.2135 52.2735 L 26.1834 53.1246 L 26.173 53.9686 L 26.1825 54.8053 L 26.2116 55.6345 L 26.2606 56.4561 L 26.3293 57.2698 L 26.4178 58.0755 L 26.5261 58.8729 L 26.6542 59.662 L 26.8021 60.4425 L 26.9699 61.2142 L 27.1574 61.9769 L 27.3648 62.7305 L 27.5921 63.4748 L 27.8392 64.2096 L 28.1062 64.9346 L 28.1779 65.0773 L 28.2731 65.1999 L 28.3881 65.3004 L 28.5189 65.3772 L 28.6617 65.4284 L 28.8126 65.4521 L 28.9677 65.4465 L 29.1231 65.4099 L 31.5408 64.5843 L 31.0083 67.7999 L 30.9977 67.9104 L 31.0021 68.0199 L 31.0542 68.23 L 31.16 68.4187 L 31.2317 68.5016 L 31.3152 68.5749 L 31.4604 68.6724 L 31.6092 68.7468 L 31.7612 68.7998 L 31.9159 68.8329 L 32.0729 68.8478 L 32.2319 68.8461 L 32.5541 68.7995 L 32.8791 68.7062 L 33.2035 68.579 L 33.8379 68.2755 L 34.4927 67.9605 L 34.4999 68.4026 L 34.5357 68.8671 L 34.6084 69.3371 L 34.7263 69.7958 L 34.8047 70.0157 L 34.8975 70.2264 L 35.0057 70.4259 L 35.1303 70.6121 L 35.2724 70.7829 L 35.433 70.9361 L 35.6131 71.0697 L 35.8138 71.1815 L 36.4885 71.4684 L 37.3793 71.8174 L 38.4851 72.2137 L 39.8047 72.6425 L 39.4371 73.6052 L 39.1174 74.5011 L 38.8455 75.3125 L 38.6215 76.0218 L 38.3174 77.0636 L 38.2051 77.4857 L 37.9344 78.5752 L 37.6955 79.6595 L 37.488 80.7364 L 37.3114 81.8036 L 36.6817 81.6837 L 36.0387 81.6157 L 35.3824 81.5997 L 34.713 81.6358 L 34.0307 81.724 L 33.3358 81.8645 L 32.6285 82.0574 L 31.9089 82.3027 L 31.5247 82.4592 L 31.1503 82.6377 L 30.7861 82.8375 L 30.4328 83.058 L 30.0911 83.2985 L 29.7616 83.5584 L 29.4449 83.8371 L 29.1417 84.1338 L 28.8526 84.4479 L 28.5782 84.7788 L 28.3192 85.1258 L 28.0761 85.4883 L 27.8497 85.8655 L 27.6406 86.2569 L 27.4493 86.6618 L 27.2766 87.0795 L 27.0753 87.6577 L 26.9109 88.2504 L 26.7832 88.8564 L 26.6921 89.475 L 26.6375 90.1049 L 26.6193 90.7453 L 26.6374 91.3952 L 26.6917 92.0535 L 26.7821 92.7193 L 26.9084 93.3915 L 27.0706 94.0692 L 27.2685 94.7513 L 27.5021 95.4369 L 27.7711 96.1249 L 28.0756 96.8145 L 28.4154 97.5045 L 28.7119 98.0574 L 29.0201 98.5946 L 29.3393 99.1158 L 29.6689 99.6204 L 30.0083 100.108 L 30.357 100.579 L 30.7144 101.032 L 31.0799 101.467 L 31.4528 101.883 L 31.8327 102.281 L 32.2188 102.66 L 32.6107 103.019 L 33.0076 103.358 L 33.4091 103.677 L 33.8146 103.976 L 34.2234 104.253 L 34.635 104.509 L 35.0487 104.742 L 35.464 104.954 L 35.8803 105.143 L 36.297 105.309 L 36.7136 105.452 L 37.1293 105.571 L 37.5437 105.666 L 37.9561 105.736 L 38.3659 105.782 L 38.7726 105.802 L 39.1756 105.796 L 39.5742 105.764 L 39.968 105.706 L 40.3562 105.622 L 40.7383 105.509 L 41.3839 105.267 L 41.9893 104.983 L 42.5545 104.657 L 43.0791 104.289 L 43.5628 103.88 L 44.0055 103.43 L 44.4068 102.939 L 44.7666 102.408 L 45.0278 102.73 L 45.3845 103.131 L 45.7877 103.526 L 46.2341 103.912 L 46.7206 104.286 L 47.2438 104.647 L 47.8006 104.99 L 48.3877 105.313 L 49.0018 105.615 L 49.6397 105.891 L 50.2982 106.139 L 50.974 106.356 L 51.6639 106.54 L 52.3646 106.688 L 53.073 106.797 L 53.7857 106.865 L 54.4995 106.888 L 55.0133 106.875 L 55.5247 106.837 L 55.96 106.784 L 56.3848 106.711 L 56.7989 106.618 L 57.2021 106.507 L 57.5942 106.377 L 57.9749 106.229 L 58.3442 106.062 L 58.7018 105.876 L 59.0475 105.672 L 59.3811 105.45 L 59.7024 105.21 L 60.0112 104.953 L 60.3074 104.677 L 60.5907 104.384 L 60.8609 104.074 L 61.1178 103.747 L 61.3768 104.072 L 61.6498 104.381 L 61.9368 104.673 L 62.2373 104.947 L 62.5514 105.203 L 62.8787 105.443 L 63.2191 105.664 L 63.5724 105.867 L 63.9384 106.053 L 64.3168 106.22 L 64.7075 106.369 L 65.1103 106.499 L 65.525 106.611 L 65.9513 106.704 L 66.3891 106.779 L 66.8382 106.834 L 67.3833 106.874 L 67.9313 106.887 L 68.677 106.864 L 69.422 106.796 L 70.1626 106.685 L 70.8953 106.535 L 71.6163 106.349 L 72.3222 106.129 L 73.0092 105.879 L 73.6736 105.601 L 74.312 105.299 L 74.9206 104.974 L 75.4959 104.631 L 76.0341 104.272 L 76.5317 103.899 L 76.985 103.516 L 77.3904 103.125 L 77.7443 102.73 L 78.0054 102.408 L 78.3652 102.94 L 78.7665 103.431 L 79.2092 103.881 L 79.693 104.29 L 80.2176 104.657 L 80.7828 104.983 L 81.3883 105.267 L 82.0339 105.51 L 82.5768 105.661 L 83.1315 105.757 L 83.6961 105.801 L 84.2691 105.792 L 84.8488 105.732 L 85.4335 105.623 L 86.0215 105.464 L 86.6112 105.258 L 87.2009 105.005 L 87.7889 104.707 L 88.3735 104.364 L 88.9531 103.978 L 89.526 103.55 L 90.0906 103.08 L 90.645 102.571 L 91.1878 102.022 L 91.7261 102.134 L 92.2539 102.212 L 92.7706 102.258 L 93.2758 102.274 L 93.9687 102.246 L 94.6374 102.168 L 95.281 102.043 L 95.8985 101.879 L 96.4891 101.678 L 97.0518 101.448 L 97.5857 101.193 L 98.09 100.919 L 98.5636 100.631 L 99.0058 100.334 L 99.4155 100.033 L 99.7918 99.7338 L 100.134 99.4418 L 100.441 99.1621 L 100.946 98.6608 L 101.327 98.2471 L 101.684 97.8337 L 102.018 97.4211 L 102.33 97.0098 L 102.896 96.192 L 103.393 95.3835 L 103.833 94.5872 L 104.227 93.8062 L 104.587 93.0435 L 104.925 92.3021 L 105.37 91.329 L 105.823 90.4106 L 106.061 89.9725 L 106.313 89.5489 L 106.581 89.1401 L 106.871 88.7462 L 107.185 88.3675 L 107.528 88.0044 L 107.903 87.6571 L 108.314 87.3258 L 108.765 87.0108 L 109.261 86.7124 L 109.803 86.4308 L 110.398 86.1664 L 110.876 85.9484 L 111.305 85.71 L 111.688 85.4531 L 112.026 85.18 L 112.321 84.8929 L 112.575 84.5938 L 112.789 84.2849 L 112.966 83.9684 L 113.107 83.6465 L 113.214 83.3212 L 113.288 82.9948 L 113.332 82.6693 L 113.347 82.347 L 113.335 82.0299 L 113.298 81.7203 L 113.237 81.4203 L 113.237 81.4202"
     id="path917" /></g><g
   inkscape:label="B.Mask"
   inkscape:groupmode="layer"
   id="g1733" /><g
   inkscape:label="B.SilkS"
   inkscape:groupmode="layer"
   id="g1735" /><g
   inkscape:label="F.Mask"
   inkscape:groupmode="layer"
   id="g1737" /><g
   inkscape:label="F.SilkS"
   inkscape:groupmode="layer"
   id="g1739"
   style="display:inline"><path
     style="fill:#f6c4e1;fill-opacity:1;stroke:#000000;stroke-width:0.748952;stroke-opacity:1"
     d="m 109.7896,84.522532 c -1.40698,0.5791 -2.45297,1.29119 -3.27746,2.09337 -2.22418,-1.65242 -2.95729,-3.75457 -3.19809,-5.02706 1.22967,-1.41342 2.73964,-2.37745 4.66388,-2.54856 2.0236,-0.18449 3.4584,1.12559 3.78152,2.44601 0.31408,1.28422 -0.4039,2.39115 -1.96985,3.03624 z"
     id="path919" /><path
     style="fill:#f6c4e1;fill-opacity:1;stroke:#000000;stroke-width:0.748952;stroke-opacity:1"
     d="m 102.9445,92.695462 c -0.99528,-0.63578 -2.57179,-1.84549 -3.435368,-3.6602 0.48551,-1.37498 1.018338,-2.75624 1.640138,-4.03621 0.39149,1.06471 1.32075,2.54245 3.43082,4.24883 -0.37879,0.69961 -0.70961,1.42599 -1.0436,2.16445 -0.19213,0.4246 -0.38639,0.85253 -0.59199,1.28313 z"
     id="path921" /><path
     style="fill:#f6c4e1;fill-opacity:1;stroke:#000000;stroke-width:0.748952;stroke-opacity:1"
     d="m 99.831932,97.363052 c -0.20221,0.21245 -0.4634,0.46853 -0.776,0.74118 -0.49672,-0.31012 -1.14395,-0.83633 -1.7759,-1.54531 -0.61008,-0.69299 -1.22584,-1.43554 -1.64179,-1.94479 1.01992,-0.32952 1.82929,-1.26246 2.43525,-2.2627 0.73167,1.46065 2.441398,2.60122 3.306278,3.1077 -0.43499,0.63072 -0.94036,1.26577 -1.547838,1.90392 z"
     id="path923" /><path
     style="fill:#f6c4e1;fill-opacity:1;stroke:#000000;stroke-width:0.748952;stroke-opacity:1"
     d="m 92.245182,100.45035 c 0.75252,-0.963648 1.44933,-2.044198 2.0634,-3.229278 0.0171,-0.033 0.0318,-0.0658 0.0485,-0.0987 0.13684,0.24526 0.32333,0.52962 0.58261,0.84923 0.63343,0.77503 1.53335,1.37563 1.9338,1.62205 -1.2725,0.648398 -2.84451,1.089028 -4.62836,0.856658 z"
     id="path925" /><path
     style="fill:none;stroke:#000000;stroke-width:1;stroke-miterlimit:4;stroke-dasharray:none;stroke-opacity:1"
     d="m 82.496022,103.69042 c -1.78143,-0.59183 -2.97288,-1.69959 -3.64299,-3.38518 -0.93538,-2.635728 -0.60807,-6.378208 0.13284,-8.922198 0.68954,-2.36758 2.01124,-5.52854 4.39234,-7.14295 0.005,-0.004 0.009,-0.008 0.0138,-0.0117 0.004,-0.003 0.01,-0.005 0.0143,-0.009 1.92781,-1.43076 4.22985,-1.66128 6.84224,-0.68451 1.63984,0.61266 2.98424,2.01325 3.68842,3.8423 1.00322,2.60523 0.62476,5.8366 -1.0655,9.09848 -3.06072,5.907258 -7.63049,8.125128 -10.37547,7.214168 z"
     id="path927" /><path
     style="fill:none;stroke:#000000;stroke-width:0.748952;stroke-opacity:1"
     d="m 66.951302,104.93988 c -0.0353,-0.004 -0.0693,-0.009 -0.10434,-0.0133 0.99148,-1.18211 1.25987,-2.66468 1.27351,-2.74466 0.0615,-0.35974 -0.18003,-0.70058 -0.53965,-0.76294 -0.3598,-0.062 -0.70191,0.17902 -0.76528,0.53823 -0.003,0.0184 -0.32964,1.78195 -1.5357,2.63262 -1.32939,-0.44523 -2.3872,-1.26565 -3.16341,-2.44826 0.58604,-1.09513 1.93603,-1.92419 1.95943,-1.9384 0.31309,-0.18821 0.41451,-0.594538 0.22643,-0.907778 -0.1881,-0.31378 -0.59529,-0.41494 -0.90838,-0.22732 -0.0562,0.0338 -1.0921,0.66492 -1.89818,1.643438 -0.15827,-1.351278 0.0181,-2.613998 0.0206,-2.631078 5.9e-4,-0.005 0,-0.009 5.9e-4,-0.0139 6e-4,-0.005 0.002,-0.009 0.003,-0.0137 0.17887,-1.60373 1.78669,-3.13682 4.77893,-4.55666 0.0198,-0.01 0.0364,-0.0226 0.055,-0.0332 0.009,-0.005 0.0199,-0.008 0.0292,-0.0131 1.48123,-0.93219 2.54303,-2.63756 3.11672,-4.79561 1.70934,0.36983 3.7987,0.79207 4.52927,0.79207 0.47204,0 0.82746,-0.066 1.05787,-0.21393 0.16802,-0.10806 0.27348,-0.25704 0.31318,-0.44352 0.14288,-0.65146 -0.90188,-1.05551 -2.48338,-1.66707 -0.47167,-0.18241 -1.97281,-0.74278 -2.97723,-1.11689 0.10386,-1.34474 0.0535,-2.78862 -0.16342,-4.28025 l 0.44743,0.27986 c 0.24137,0.15088 0.54394,0.16442 0.79742,0.0348 0.25332,-0.1296 0.42013,-0.38275 0.43908,-0.66669 0.0693,-1.03363 -0.026,-1.97245 -0.16495,-2.72588 0.36409,0.0795 0.72631,0.0756 1.0447,-0.0776 0.25391,-0.12244 0.68466,-0.4411 0.71741,-1.19889 0.0426,-0.98866 -0.23735,-2.09455 -0.47629,-2.842 3.51095,-0.448 6.43876,-1.05245 8.79684,-1.66764 0.30216,0.75971 0.56063,1.47753 0.77727,2.11745 -1.26613,0.72594 -3.01646,1.26192 -4.44541,1.69588 -1.88307,0.57181 -2.50929,0.9498 -2.36397,1.56614 0.0346,0.14713 0.14245,0.26942 0.32034,0.36329 0.27684,0.14596 0.74267,0.22584 1.32028,0.25598 1.93672,0.10116 4.66668,-0.35724 6.08726,-0.75953 0.28081,1.12319 0.51525,2.23987 0.69177,3.33536 -1.00883,0.2932 -2.22082,0.52231 -3.31734,0.72786 -2.10422,0.39482 -3.20582,0.62246 -3.28282,1.08562 -0.0245,0.14734 0.011,0.28629 0.1054,0.41303 0.27741,0.3728 1.05304,0.58025 1.91549,0.72356 0.30852,0.0512 0.62817,0.0943 0.94015,0.1339 0.18559,0.0235 0.33834,0.0465 0.44263,0.0604 2e-4,0 5.9e-4,4e-5 7.9e-4,1.2e-4 0.013,0.002 0.0343,-0.002 0.0504,0 -1.63027,1.90923 -2.61464,4.38368 -3.18779,6.35195 -0.26736,0.91784 -0.49814,2.03325 -0.63699,3.23012 -0.4793,-0.10639 -0.93569,-0.21713 -1.35322,-0.31934 -1.64715,-0.40407 -2.73517,-0.67079 -2.99119,-0.0538 -0.0739,0.17535 -0.0727,0.35877 0.004,0.54439 0.29583,0.71262 1.71317,1.44116 4.20866,2.47445 0.0251,1.2473 0.18533,2.49516 0.53578,3.638698 -0.24425,0.33261 -0.49423,0.65997 -0.75148,0.97182 -1.64672,1.9955 -5.85457,3.88747 -9.49662,3.5228 z"
     id="path929" /><path
     style="fill:none;stroke:#000000;stroke-width:0.748952;stroke-opacity:1"
     d="m 57.269612,104.46891 c -0.0571,-0.0737 -0.12924,-0.13721 -0.21744,-0.18278 -1.38365,-0.71465 -1.85621,-2.60552 -1.86083,-2.62446 -0.0848,-0.35491 -0.44084,-0.57358 -0.79658,-0.48999 -0.35576,0.0845 -0.57586,0.44116 -0.49153,0.79692 0.0204,0.0858 0.44476,1.80041 1.73351,2.93424 -0.1062,0.0151 -0.21252,0.0299 -0.32142,0.0407 -3.41154,0.34488 -7.45428,-1.54741 -9.08747,-3.52676 -0.25699,-0.31123 -0.50707,-0.63863 -0.75153,-0.97156 0.35044,-1.143438 0.51068,-2.391358 0.53577,-3.638658 2.49554,-1.03333 3.91288,-1.76189 4.20871,-2.47451 0.077,-0.1856 0.0782,-0.36904 0.004,-0.54439 -0.25603,-0.61703 -1.34404,-0.35027 -2.99119,0.0538 -0.41753,0.10223 -0.87391,0.21295 -1.35328,0.31936 -0.13884,-1.19687 -0.36966,-2.31234 -0.63699,-3.23014 -0.57315,-1.96825 -1.55751,-4.44272 -3.18767,-6.35193 0.016,-1.4e-4 0.0373,0.003 0.0503,0 2e-4,-6e-5 5.9e-4,-1.2e-4 7.9e-4,-1.2e-4 0.1043,-0.0139 0.25709,-0.0369 0.44264,-0.0604 0.31197,-0.0396 0.63163,-0.0827 0.94015,-0.1339 0.86245,-0.14331 1.63808,-0.35078 1.91549,-0.72356 0.0944,-0.12674 0.12988,-0.26569 0.10541,-0.41303 -0.077,-0.46318 -1.17862,-0.6908 -3.28284,-1.08562 -1.09645,-0.20555 -2.30844,-0.43468 -3.31728,-0.72786 0.17632,-1.09391 0.41053,-2.20973 0.69182,-3.33532 1.42063,0.4023 4.15049,0.86063 6.08716,0.75947 0.57765,-0.0301 1.04343,-0.11002 1.32026,-0.25597 0.1779,-0.0939 0.28575,-0.21617 0.32036,-0.36328 0.14532,-0.61634 -0.4809,-0.99435 -2.36396,-1.56616 -1.42902,-0.43398 -3.17951,-0.96998 -4.44569,-1.69604 0.22094,-0.65242 0.48605,-1.38687 0.79664,-2.16478 2.25909,0.61917 5.12222,1.24502 8.57929,1.70564 -0.23952,0.7475 -0.52204,1.85865 -0.4792,2.85149 0.0327,0.75781 0.46355,1.07645 0.71739,1.19889 0.31797,0.15344 0.68047,0.15748 1.04472,0.0776 -0.13896,0.75345 -0.23422,1.69253 -0.16495,2.72588 0.0194,0.28941 0.19212,0.54631 0.45288,0.67331 0.11235,0.0549 0.23362,0.0819 0.35447,0.0819 0.15949,0 0.31839,-0.0471 0.45506,-0.13996 l 0.24929,-0.16945 c -0.20721,1.46972 -0.2529,2.89168 -0.14808,4.21688 -0.1079,0.0436 -0.18623,0.0764 -0.20619,0.0857 h -1.4e-4 c -0.85466,0.39834 -1.68245,0.71843 -2.41264,1.00083 -1.5815,0.61158 -2.62626,1.01563 -2.48338,1.66704 0.0397,0.18649 0.14516,0.33549 0.31319,0.44355 0.2304,0.14786 0.58583,0.21395 1.05788,0.21395 0.92422,0 2.29512,-0.25376 4.04682,-0.64416 0.0175,-0.004 0.0742,-0.0143 0.15307,-0.0294 0.58079,2.10179 1.63033,3.76204 3.08428,4.67709 3.40326,2.14201 3.92047,3.80805 3.97227,4.48316 -0.0274,0.21346 -0.0928,0.80437 -0.0931,1.57141 -0.69255,-0.57904 -1.34282,-0.92095 -1.38788,-0.94413 -0.32439,-0.16782 -0.72313,-0.0402 -0.89122,0.28363 -0.16813,0.32444 -0.0414,0.72388 0.28263,0.89253 0.0152,0.008 1.5178,0.798608 2.14296,1.913278 0.02,0.0356 0.0467,0.0646 0.0719,0.095 0.0201,0.0944 0.0416,0.18837 0.0653,0.28224 -0.71263,1.14281 -1.65686,1.9602 -2.82417,2.44173 z"
     id="path931" /><path
     style="fill:none;stroke:#000000;stroke-width:1;stroke-miterlimit:4;stroke-dasharray:none;stroke-opacity:1"
     d="m 40.180022,103.69042 c -2.74562,0.91239 -7.31465,-1.30663 -10.37564,-7.214178 -1.6904,-3.26215 -2.06872,-6.49324 -1.06551,-9.09873 0.70419,-1.82879 2.0486,-3.2294 3.68853,-3.84202 2.61214,-0.97733 4.91417,-0.74661 6.84208,0.68449 0.005,0.004 0.01,0.005 0.0144,0.009 0.005,0.004 0.009,0.008 0.0138,0.0115 2.38105,1.61442 3.70265,4.77567 4.39219,7.14297 0.74091,2.54425 1.06821,6.28673 0.13284,8.922198 -0.66995,1.68557 -1.86146,2.79333 -3.64267,3.38518 z"
     id="path933" /><path
     style="fill:none;stroke:#000000;stroke-width:0.748952;stroke-opacity:1"
     d="m 54.362422,49.984164 c 1.22958,-6.60834 3.96612,-15.45678 7.18723,-15.45678 3.27285,0 6.13997,8.93336 7.41315,15.44341 -1.66074,-0.73036 -4.42939,-1.13399 -7.4027,-1.13642 -2.90717,-0.002 -5.58077,0.41875 -7.19768,1.14979 z"
     id="path935" /><path
     style="fill:none;stroke:#000000;stroke-width:0.748952;stroke-opacity:1"
     d="m 36.518872,19.701294 c -0.75747,-1.72506 -0.85332,-3.4541 -0.26999,-4.86821 0.50447,-1.2233 1.51097,-2.16069 2.91084,-2.71128 2.88526,-1.1336 5.76749,0.89658 6.88746,3.51588 1.01324,2.37018 0.86112,3.99838 -0.47899,5.12397 -1.5e-4,0 -1.5e-4,0 -1.5e-4,2e-4 -0.8539,0.71671 -3.98828,2.14116 -4.86071,2.20867 -0.10775,0.008 -0.2141,0.0127 -0.31839,0.0127 -1.65548,0 -2.89099,-1.05145 -3.87005,-3.28193 z"
     id="path939" /><path
     style="fill:none;stroke:#000000;stroke-width:0.748952;stroke-opacity:1"
     d="m 45.112502,32.122824 c -0.13088,0.21001 -0.37455,0.2659 -0.59592,0.21303 -0.75519,-0.15481 -1.36426,-0.13766 -2.01405,0.25242 -0.64984,0.39562 -1.21841,1.07454 -1.70054,1.67438 -0.37517,0.4661 -1.12649,0.0537 -0.9436,-0.50876 0.54948,-1.77644 2.45976,-3.40231 4.38343,-2.69621 0.43164,0.16644 1.20414,0.48993 0.87068,1.06514 z"
     id="path941" /><path
     style="fill:none;stroke:#000000;stroke-width:0.748952;stroke-opacity:1"
     d="m 43.980112,49.354014 c -0.0612,0.003 -0.11867,0.004 -0.17668,0.004 -2.37092,-0.0146 -4.20876,-2.28913 -4.19141,-5.17832 0.0173,-2.87873 1.87298,-5.12747 4.22771,-5.12747 0.005,0 0.0108,0 0.0162,0 1.23205,0.007 2.38806,0.65121 3.17349,1.76619 l 1.5e-4,2e-4 c 0.6605,0.93798 1.02007,2.1495 1.01249,3.41148 -0.017,2.81919 -1.76313,5.02218 -4.06197,5.12408 z"
     id="path943" /><path
     style="fill:none;stroke:#000000;stroke-width:0.748952;stroke-opacity:1"
     d="m 73.507902,61.357472 c -0.12828,0.74459 -0.33506,1.19601 -0.35835,1.24486 -0.93119,2.18712 -3.19978,3.68486 -5.76878,3.7923 -0.10763,0.005 -0.21537,0.008 -0.3221,0.008 -2.35447,0 -4.502,-1.17476 -5.63693,-2.98378 -1.13509,1.80886 -3.2831,2.98378 -5.63888,2.98378 -0.10717,0 -0.21448,-0.002 -0.32243,-0.008 -2.56698,-0.10744 -4.83541,-1.60518 -5.77694,-3.81554 -0.0128,-0.0256 -0.21957,-0.47703 -0.34785,-1.22162 -0.0621,-0.36038 0.17972,-0.70258 0.53992,-0.76494 0.36138,-0.0601 0.70275,0.17987 0.76496,0.54024 0.0976,0.56581 0.25072,0.90405 0.25215,0.9075 0.75148,1.76295 2.56358,2.94514 4.62555,3.03138 2.42528,0.1115 4.61839,-1.30477 5.24557,-3.37137 l -0.006,-2.74487 c -2.32952,-1.09805 -7.8871,-4.279348 -7.98933,-7.118328 -0.0248,-0.0883 0.003,-0.41668 0.0179,-0.50745 0.43277,-2.70369 3.14962,-18.12639 8.76367,-18.12639 5.79519,0 8.67674,16.16697 8.98606,18.0107 0.0114,0.0676 0.0158,0.27524 0.0193,0.31451 0.25363,2.82778 -5.87868,6.131998 -8.47362,7.358428 l 0.007,2.83766 c 0.63709,2.05278 2.81743,3.45469 5.23505,3.34711 2.06409,-0.0862 3.8762,-1.26843 4.61891,-3.01158 0.0103,-0.0233 0.16347,-0.36149 0.26102,-0.9273 0.0621,-0.36037 0.40364,-0.60001 0.76496,-0.54024 0.36022,0.0624 0.60207,0.40456 0.53997,0.76494 z"
     id="path945" /><path
     style="fill:none;stroke:#000000;stroke-width:0.748952;stroke-opacity:1"
     d="m 79.001792,49.354014 c -0.0613,0.003 -0.11868,0.004 -0.17674,0.004 -2.37086,-0.0146 -4.20871,-2.28913 -4.19136,-5.17832 0.0173,-2.87873 1.87299,-5.12747 4.22771,-5.12747 0.005,0 0.0108,0 0.0162,0 1.23206,0.007 2.38807,0.65121 3.17351,1.76619 l 1.4e-4,2e-4 c 0.66049,0.93798 1.02008,2.1495 1.01248,3.41148 -0.017,2.81919 -1.7631,5.02218 -4.06196,5.12408 z"
     id="path947" /><path
     style="fill:none;stroke:#000000;stroke-width:0.748952;stroke-opacity:1"
     d="m 77.717242,31.428984 c 0.32391,-0.22694 0.73269,-0.39901 1.1216,-0.49114 1.25935,-0.25205 2.55053,0.47081 3.2638,1.46144 0.31526,0.47379 1.2397,1.70038 0.36094,2.0399 -0.24467,0.079 -0.4923,-0.0267 -0.62938,-0.22535 -0.67979,-0.83162 -1.47839,-1.81274 -2.59384,-1.95488 -0.35002,-0.0693 -0.76697,0.037 -1.1818,0.0913 -0.531,0.0788 -0.79075,-0.64055 -0.34132,-0.92131 z"
     id="path949" /><path
     style="fill:none;stroke:#000000;stroke-width:0.748952;stroke-opacity:1"
     d="m 82.454782,22.983224 c -0.1046,0 -0.21066,-0.004 -0.31845,-0.0126 -0.87253,-0.0675 -4.00708,-1.49196 -4.86098,-2.20867 0,-2e-4 0,-2e-4 -1.5e-4,-2e-4 -1.34011,-1.12559 -1.49222,-2.75379 -0.47899,-5.12397 1.11982,-2.6193 4.00253,-4.65124 6.88731,-3.51588 1.40003,0.55059 2.40653,1.48798 2.91099,2.71128 0.58333,1.4141 0.48748,3.14315 -0.26998,4.86821 -0.9789,2.23022 -2.21468,3.28193 -3.86974,3.28193 z"
     id="path951" /><path
     id="path953"
     style="fill:#f6c4e1;fill-rule:evenodd;stroke:none;stroke-width:0.748952"
     d="m 51.314453,51.574219 c -3.281965,0.818035 -6.152917,2.771017 -9.467075,3.503391 -1.871756,0.475234 -3.79813,0.733364 -5.728237,0.781765 1.143339,0.322679 2.544299,0.281083 3.421875,1.1875 0.73706,0.8239 0.180296,2.166459 -0.824219,2.457031 -1.969104,0.739115 -4.126914,0.685144 -6.199632,0.779702 -0.986095,0.01946 -1.972477,0.01671 -2.958571,-0.0024 0.117724,0.510243 0.25416,1.01633 0.412109,1.515625 0.948341,-0.232819 1.860567,-0.838586 2.859375,-0.742187 1.108682,0.167936 1.796085,1.39062 1.458984,2.443359 -0.08676,0.418779 -0.135095,0.843449 -0.214843,1.263672 0.974726,-0.357646 2.315843,-0.347271 2.854807,0.706776 0.566022,0.896763 -0.03993,1.962293 0.258474,2.926036 4.575639,1.884898 9.427579,2.797874 14.324219,3.451172 1.166246,0.333183 1.619658,1.771561 1.080631,2.800062 -0.393347,0.54627 0.224475,0.385806 0.57597,0.574488 1.022152,0.393445 1.384115,1.687204 0.899449,2.625125 -0.104551,0.337852 0.646252,0.283568 0.838481,0.613606 0.819262,0.659327 0.638809,1.783719 0.390625,2.669922 -0.459353,2.685491 -0.529525,5.493674 0.596369,8.045512 0.470592,1.237052 1.615451,1.937434 2.667303,2.62441 0.810885,0.597802 1.585405,1.252013 2.248047,2.013672 1.242182,-1.316268 2.869264,-2.148466 4.427734,-3.015625 1.71025,-1.534425 2.046197,-4.007238 2.108579,-6.185124 0.06354,-1.592967 -0.274725,-3.193921 -0.531621,-4.787885 -0.01521,-0.906847 0.751002,-1.771179 1.66523,-1.81996 -0.418729,-0.858943 -0.352252,-2.020457 0.503694,-2.588744 0.303101,-0.230697 0.688928,-0.349008 1.068571,-0.348756 C 69.624847,74.177623 69.447707,72.96952 70.28125,72.25 c 0.907694,-0.7304 2.181224,-0.48198 3.250144,-0.753843 4.203649,-0.61704 8.416919,-1.544758 12.398294,-3.113345 0.30706,-1.026802 -0.388157,-2.254838 0.419921,-3.164062 0.640421,-0.830882 1.798702,-0.768078 2.689453,-0.453125 -0.107928,-1.020346 -0.65155,-2.254231 0.183594,-3.115234 0.638065,-0.786295 1.762459,-0.715772 2.591797,-0.302735 0.454657,0.01816 1.28033,0.759732 1.412698,0.161387 -0.0021,-0.373685 0.653305,-1.3231 0.02951,-1.237574 -2.855675,0.0015 -5.765413,0.101192 -8.561354,-0.568344 -0.929381,-0.197917 -1.951342,-0.997462 -1.667875,-2.056176 0.319797,-1.242931 1.804147,-1.354015 2.840867,-1.608672 0.673904,-0.120928 1.268242,-0.233328 0.210153,-0.226181 -3.347531,-0.177419 -6.606077,-1.138654 -9.634638,-2.535489 -1.588976,-0.676809 -3.151266,-1.320173 -4.842257,-1.770748 -0.09836,2.088925 -1.867039,3.560538 -3.390636,4.753782 -1.587706,1.179797 -3.316798,2.159059 -5.085926,3.039187 0.07692,1.005033 -0.2682,2.139269 0.523479,2.939295 1.696438,2.15558 5.339918,2.094639 6.959648,-0.116921 0.680984,-0.714989 0.393501,-1.966017 1.314185,-2.491209 1.026718,-0.806752 2.665749,0.07387 2.633938,1.356714 -0.282241,3.228885 -3.226181,5.773854 -6.361896,6.13754 -2.440542,0.353922 -5.056126,-0.469879 -6.758807,-2.276591 -2.677097,2.862236 -7.539804,3.14285 -10.563079,0.668853 -1.420353,-1.12945 -2.502116,-2.845585 -2.556062,-4.690337 0.09977,-1.2889 1.833742,-2.003426 2.778305,-1.085353 0.769078,0.616585 0.521634,1.770993 1.22097,2.455514 1.772183,2.375817 6.049561,2.101205 7.32401,-0.637558 0.228818,-0.695536 0.04124,-1.467206 0.09859,-2.193541 -2.57257,-1.346448 -5.167527,-2.897004 -6.988369,-5.208918 -0.577685,-0.769805 -1.004591,-1.696265 -1.003818,-2.673894 -0.14388,0.0306 -0.287761,0.0612 -0.431641,0.0918 z" /><path
     style="fill:#f6c4e1;fill-rule:evenodd;stroke:none;stroke-width:0.748952"
     d="m 80.436522,40.664974 c 0.68201,0 1.2369,0.74172 1.2369,1.65331 0,0.91159 -0.55489,1.65336 -1.2369,1.65336 -0.68197,0 -1.23694,-0.74177 -1.23694,-1.65336 0,-0.91159 0.55497,-1.65331 1.23694,-1.65331 z"
     id="path955" /><path
     style="fill:#f6c4e1;fill-rule:evenodd;stroke:none;stroke-width:0.748952"
     d="m 45.414862,43.971644 c -0.68203,0 -1.23694,-0.74177 -1.23694,-1.65336 0,-0.91159 0.55491,-1.65331 1.23694,-1.65331 0.68199,0 1.23688,0.74172 1.23688,1.65331 0,0.91159 -0.55489,1.65336 -1.23688,1.65336 z"
     id="path957" /><path
     style="fill:#f6c4e1;fill-rule:evenodd;stroke:#000000;stroke-width:0.748952;stroke-opacity:1"
     d="m 87.261532,91.116562 c -2.49421,-1.01371 -5.25962,1.6979 -5.11915,2.89647 0.12086,1.08184 1.17942,1.5361 1.93464,1.54793 0.84961,0.0163 1.08032,0.042 1.38449,0.15365 0.29832,0.11163 0.4918,0.23699 1.12873,0.77319 0.57575,0.47665 1.67752,0.81271 2.52141,0.0776 0.92151,-0.79994 0.64999,-4.43248 -1.85012,-5.44888 z"
     id="path959" /><path
     style="fill:#f6c4e1;fill-rule:evenodd;stroke:#000000;stroke-width:0.748952;stroke-opacity:1"
     d="m 92.399242,89.225752 c -0.78434,-0.30614 -1.62167,0.0906 -2.07503,1.16917 -0.46059,1.08122 -0.2372,1.90305 0.7267,2.26026 0.91004,0.34295 1.6362,-0.0717 2.08183,-1.1558 0.46357,-1.07856 0.0479,-1.96496 -0.7335,-2.27363 z"
     id="path961" /><path
     style="fill:#f6c4e1;fill-rule:evenodd;stroke:#000000;stroke-width:0.748952;stroke-opacity:1"
     d="m 89.179032,86.049652 c -0.77825,-0.3061 -1.62174,0.0905 -2.07658,1.16921 -0.44979,1.08675 -0.2388,1.89776 0.73158,2.26563 0.91544,0.33499 1.63852,-0.0823 2.08735,-1.16116 0.45872,-1.08636 0.0358,-1.97025 -0.74235,-2.27368 z"
     id="path963" /><path
     style="fill:#f6c4e1;fill-rule:evenodd;stroke:#000000;stroke-width:0.748952;stroke-opacity:1"
     d="m 83.529572,90.163662 c 0.94575,0.2219 1.60098,-0.2867 1.90854,-1.41589 0.29887,-1.1266 -0.23622,-1.95456 -1.04709,-2.15795 -0.814,-0.20353 -1.60227,0.29203 -1.89811,1.41873 -0.30454,1.1292 0.0294,1.91338 1.03666,2.15511 z"
     id="path965" /><path
     style="fill:#f6c4e1;fill-rule:evenodd;stroke:#000000;stroke-width:0.748952;stroke-opacity:1"
     d="m 35.414252,91.116562 c -2.5001,1.0164 -2.77163,4.64894 -1.85012,5.44888 0.84388,0.73507 1.94564,0.39901 2.52139,-0.0776 0.63694,-0.5362 0.83041,-0.66156 1.12873,-0.77319 0.30417,-0.1116 0.53488,-0.13734 1.38449,-0.15365 0.75523,-0.0119 1.81378,-0.46609 1.93468,-1.54793 0.14043,-1.19857 -2.62496,-3.91018 -5.11917,-2.89647 z"
     id="path967" /><path
     style="fill:#f6c4e1;fill-rule:evenodd;stroke:#000000;stroke-width:0.748952;stroke-opacity:1"
     d="m 39.146192,90.163662 c 1.00734,-0.24173 1.34123,-1.02591 1.03669,-2.15511 -0.29588,-1.1267 -1.08413,-1.62226 -1.89814,-1.41873 -0.81084,0.20339 -1.34596,1.03135 -1.04709,2.15795 0.30763,1.12919 0.96282,1.63779 1.90854,1.41589 z"
     id="path969" /><path
     style="fill:#f6c4e1;fill-rule:evenodd;stroke:#000000;stroke-width:0.748952;stroke-opacity:1"
     d="m 34.841732,89.484492 c 0.97047,-0.36787 1.18138,-1.17888 0.73158,-2.26563 -0.45485,-1.07873 -1.29824,-1.47531 -2.07658,-1.16921 -0.77811,0.30343 -1.20106,1.18732 -0.74234,2.27368 0.44884,1.07888 1.17193,1.49615 2.08734,1.16116 z"
     id="path971" /><path
     style="fill:#f6c4e1;fill-rule:evenodd;stroke:#000000;stroke-width:0.748952;stroke-opacity:1"
     d="m 30.276522,89.225752 c -0.78134,0.30867 -1.19707,1.19507 -0.73348,2.27363 0.44568,1.08408 1.17177,1.49875 2.08188,1.1558 0.96383,-0.35721 1.18721,-1.17904 0.72669,-2.26026 -0.45335,-1.07857 -1.29075,-1.47531 -2.07509,-1.16917 z"
     id="path973" /><path
     style="fill:#f6c4e1;fill-rule:evenodd;stroke:#000000;stroke-width:0.748952;stroke-opacity:1"
     d="m 78.013722,16.158394 c 0.73607,-1.72156 2.83097,-3.7294 5.18516,-2.80437 1.07187,0.42156 1.80249,1.08913 2.17148,1.98395 0.43834,1.06239 0.34413,2.45898 -0.25823,3.83109 -1.01152,2.3041 -2.02099,2.54835 -2.87362,2.48137 -0.49685,-0.0411 -3.38798,-1.29511 -4.11169,-1.90292 -0.59943,-0.50345 -1.08165,-1.32355 -0.1131,-3.58912 z"
     id="path975" /><path
     style="fill:#f6c4e1;fill-rule:evenodd;stroke:#000000;stroke-width:0.748952;stroke-opacity:1"
     d="m 37.731232,19.169064 c -0.60228,-1.37211 -0.69654,-2.7687 -0.25814,-3.83109 0.36897,-0.89482 1.09959,-1.56239 2.17125,-1.98395 0.4108,-0.1615 0.81325,-0.23363 1.20233,-0.23363 1.84098,0 3.37534,1.61674 3.98299,3.038 0.96855,2.26557 0.48639,3.08567 -0.11309,3.58912 -0.72372,0.60781 -3.61471,1.86158 -4.11142,1.90292 -0.85434,0.0675 -1.86237,-0.17701 -2.87392,-2.48137 z"
     id="path977" /><path
     style="display:inline;fill:none;stroke:#000000;stroke-width:1;stroke-miterlimit:4;stroke-dasharray:none;stroke-opacity:1"
     d="m 87.460292,56.987004 c 2.28069,-0.45351 5.35452,-1.06508 7.868,-2.0011 0.0485,-1.30191 0.0161,-2.59818 -0.081,-3.88077 -3.06989,0.43229 -9.58275,1.20446 -9.58281,0.14182 -6e-5,-1.03505 6.61322,-3.16401 9.03054,-4.37484 -2.14202,-11.65168 -8.79971,-21.19475 -8.89886,-21.33454 -0.12903,-0.18247 -0.17716,-0.41005 -0.1328,-0.62904 0.0444,-0.21866 0.17733,-0.40978 0.36728,-0.52729 0.0264,-0.0164 2.76786,-1.75 3.95411,-4.6567 1.04768,-2.56698 1.49902,-7.59096 -3.45596,-10.1389798 -3.11973,-1.60406 -6.00701,-1.6161 -8.34959,-0.0359 -3.04188,2.0520498 -4.35752,6.1463898 -4.08499,9.1306298 0.0261,0.28708 -0.10227,0.56614 -0.33725,0.73306 -0.23488,0.16697 -0.54066,0.19658 -0.80315,0.0773 -0.0392,-0.0178 -3.76751,-1.66737 -9.65373,-1.92075 -0.0216,0.73449 -0.0657,1.53225 -0.12445,2.35696 3.2979,0.18433 6.59119,0.96372 9.53032,2.35261 0.53436,0.25693 0.97891,0.47676 1.41857,0.71814 0.15375,0.0842 0.22662,0.26522 0.17413,0.43245 -0.0524,0.16729 -0.21495,0.27476 -0.38978,0.25576 -0.57733,-0.0612 -1.14267,-0.16405 -1.68971,-0.26351 -0.45341,-0.0825 -0.92253,-0.16782 -1.38607,-0.22641 -2.65583,-0.43054 -5.28214,-0.6785 -7.87109,-0.74845 -0.0839,0.86776 -0.17599,1.72612 -0.26876,2.539 3.46233,0.13051 6.70196,0.94966 9.01344,2.32676 0.15503,0.0925 0.22025,0.28363 0.15375,0.45145 -0.0662,0.1675 -0.24499,0.26293 -0.42087,0.22382 -2.90389,-0.63758 -6.31703,-1.04196 -8.97645,-1.07725 -0.23629,1.8923 -0.43081,3.22424 -0.43578,3.25805 -0.0262,0.17759 -0.17675,0.31064 -0.35618,0.31436 -0.002,0 -0.005,0 -0.008,0 -0.17616,0 -0.328,-0.12525 -0.36122,-0.29913 -0.006,-0.0322 -0.25524,-1.35131 -0.55033,-3.27397 -2.67997,0.0299 -6.11932,0.43584 -9.04353,1.07794 -0.0264,0.006 -0.0529,0.009 -0.079,0.009 -0.14814,0 -0.28549,-0.09 -0.3418,-0.23246 -0.0665,-0.16782 -0.002,-0.35894 0.15359,-0.45145 2.31561,-1.37966 5.55642,-2.21515 9.03074,-2.33186 -0.11013,-0.80609 -0.21803,-1.66344 -0.31511,-2.54038 -3.53312,0.084 -6.98818,0.50999 -10.34139,1.27876 -0.0274,0.006 -0.0551,0.009 -0.0823,0.009 -0.14627,0 -0.28235,-0.0876 -0.34009,-0.22785 -0.0684,-0.16639 -0.007,-0.35778 0.14643,-0.45262 2.94433,-1.82574 6.58758,-2.86801 10.38046,-3.11024 -0.0618,-0.80683 -0.10652,-1.60389 -0.12807,-2.36821 -5.88664,0.25353 -9.61391,1.90292 -9.65399,1.92091 -0.26292,0.11899 -0.56826,0.0885 -0.80273,-0.0781 -0.23433,-0.16724 -0.36293,-0.44598 -0.33676,-0.73252 0.27253,-2.98425 -1.04317,-7.07858 -4.085,-9.1306298 -2.34258,-1.58049 -5.22969,-1.56781 -8.34975,0.0359 -4.95498,2.5483398 -4.50364,7.5719998 -3.45596,10.1389798 1.18642,2.9067 3.92784,4.64031 3.95539,4.65755 0.18926,0.11783 0.32184,0.30895 0.36584,0.52761 0.0439,0.2184 -0.004,0.44598 -0.13247,0.62787 -0.0987,0.13915 -6.69417,9.59449 -8.86792,21.17209 2.09743,1.1733 9.33916,3.45416 9.3391,4.53729 -5e-5,1.10319 -7.01998,0.2288 -9.91898,-0.18964 -0.10222,1.32802 -0.13455,2.671 -0.0805,4.01978 2.4647,0.88441 5.4101,1.47142 7.61521,1.90991 2.82157,0.561208 3.33251,0.694848 3.44275,1.118438 0.0438,0.16891 -0.0152,0.34222 -0.15795,0.46347 -0.89928,0.76468 -4.57651,0.92674 -7.52169,0.92674 -1.13987,0 -2.16685,-0.0242 -2.88404,-0.0472 0.24749,1.30473 0.58721,2.60472 1.03807,3.89096 l 2.95043,-1.00751 c 0.26957,-0.0919 0.56726,-0.0356 0.78465,0.14856 0.21729,0.18395 0.32174,0.46869 0.27519,0.74945 l -0.57617,3.47878 c 0.11565,-0.0557 0.23002,-0.11321 0.32874,-0.16293 0.67197,-0.3376 1.43347,-0.72011 2.24513,-0.74653 0.24096,-0.01 0.47013,0.0905 0.62962,0.26925 0.15964,0.17842 0.23204,0.41869 0.1977,0.65545 -0.17297,1.20866 -0.022,2.54803 0.30491,2.70321 1.71195,0.75838 6.60441,2.64631 14.62569,3.60929 0.4438,0.0531 0.76033,0.45633 0.70704,0.89999 -0.002,0.0176 -0.008,0.0336 -0.0114,0.0509 -0.002,0.099 -0.0211,0.19935 -0.0619,0.29625 -0.0143,0.0348 -0.61593,1.48941 -0.66539,2.71584 0.26643,-0.1089 0.63147,-0.31174 0.92433,-0.52357 0.29398,-0.21319 0.69384,-0.20401 0.97805,0.0213 0.28416,0.22556 0.38372,0.61263 0.24324,0.94717 -0.005,0.0113 -0.39169,0.96147 -0.52533,2.32961 l 0.56667,-0.38536 c 0.004,-0.003 0.008,-0.005 0.0125,-0.007 0.0291,-0.019 0.0601,-0.0344 0.0915,-0.0495 0.0166,-0.008 0.0326,-0.0178 0.0495,-0.0245 0.0314,-0.0127 0.0642,-0.0209 0.0971,-0.0296 0.0179,-0.005 0.0355,-0.0113 0.0536,-0.0147 0.0303,-0.006 0.0615,-0.007 0.0926,-0.009 0.0217,-0.002 0.0433,-0.005 0.0649,-0.005 0.0252,0 0.0505,0.005 0.0761,0.007 0.0285,0.003 0.0571,0.005 0.0851,0.0111 0.005,0 0.0106,0 0.016,0.002 0.0178,0.005 0.0335,0.0121 0.0506,0.0172 0.0288,0.009 0.0574,0.0172 0.0851,0.0291 0.0235,0.0101 0.0451,0.0225 0.0673,0.0347 0.0237,0.0129 0.0475,0.0256 0.07,0.0411 0.0226,0.0154 0.0428,0.033 0.0634,0.0505 0.0192,0.0163 0.0386,0.032 0.0564,0.0502 0.0215,0.022 0.04,0.0459 0.0588,0.07 0.0108,0.0139 0.0235,0.0254 0.0335,0.0401 0.003,0.005 0.005,0.009 0.007,0.0135 0.0172,0.0262 0.0306,0.0543 0.0446,0.0823 0.01,0.0199 0.0215,0.0394 0.0297,0.0599 0.0103,0.0259 0.0168,0.0532 0.0245,0.0802 0.007,0.0237 0.015,0.0469 0.0195,0.0709 0.005,0.0253 0.005,0.0514 0.008,0.0772 0.002,0.0265 0.006,0.0529 0.006,0.0794 -2e-4,0.0235 -0.005,0.0471 -0.007,0.0709 -0.003,0.0296 -0.005,0.0591 -0.0114,0.0882 -7.9e-4,0.005 -7.9e-4,0.0109 -0.002,0.0163 -1.22272,5.24121 -0.24356,10.22001 2.32851,11.83872 2.09036,1.31553 3.29472,2.54314 3.96499,3.60528 0.90269,-1.31858 2.5043,-2.53037 4.78558,-3.62083 2.55465,-1.63403 3.52468,-6.59777 2.30548,-11.82317 -0.0745,-0.31923 0.051,-0.65171 0.31769,-0.84224 0.26653,-0.19053 0.62197,-0.20171 0.8996,-0.0276 l 0.76008,0.47558 c -0.12658,-1.40777 -0.52778,-2.39229 -0.53308,-2.40519 -0.13862,-0.33479 -0.0382,-0.72186 0.24642,-0.94632 0.2849,-0.22439 0.68376,-0.23246 0.97661,-0.0196 0.29207,0.21149 0.65716,0.41407 0.92344,0.52298 -0.0497,-1.23424 -0.65907,-2.70035 -0.66571,-2.71611 -0.0401,-0.0956 -0.0585,-0.19435 -0.061,-0.29207 -0.003,-0.018 -0.009,-0.0351 -0.0114,-0.0536 -0.0513,-0.44398 0.26706,-0.84541 0.71107,-0.89659 7.93089,-0.91636 12.94994,-2.65609 15.24884,-3.61899 0.32008,-0.17702 0.46635,-1.50146 0.29508,-2.69861 -0.0339,-0.2368 0.0387,-0.47703 0.19827,-0.6552 0.15966,-0.17816 0.38655,-0.27124 0.62906,-0.26898 0.8118,0.0264 1.57314,0.40894 2.24501,0.74655 0.0987,0.0497 0.2131,0.1072 0.32875,0.16295 l -0.57602,-3.47879 c -0.0466,-0.28077 0.0579,-0.56551 0.27515,-0.74948 0.21722,-0.18415 0.51525,-0.23994 0.78464,-0.14854 l 2.9505,1.0075 c 0.45249,-1.29091 0.79313,-2.59558 1.04076,-3.90497 -0.78484,0.0253 -1.88184,0.0512 -3.08274,0.0512 -3.02479,0 -6.68981,-0.1641 -7.57462,-0.91669 -0.14275,-0.12128 -0.20183,-0.29455 -0.15799,-0.4635 0.11018,-0.42357 0.62113,-0.55721 3.4427,-1.118418 z"
     id="path937" /></g><g
   inkscape:label="Dwgs.User"
   inkscape:groupmode="layer"
   id="g1741" /></svg>
